<?xml version="1.0" encoding="UTF-8" standalone="no"?>
<!DOCTYPE svg PUBLIC "-//W3C//DTD SVG 1.1//EN"
 "http://www.w3.org/Graphics/SVG/1.1/DTD/svg11.dtd">
<!-- Generated by graphviz version 2.38.0 (20140413.2041)
 -->
<!-- Title: recipe Pages: 1 -->
<svg width="1660pt" height="1010pt"
 viewBox="0.00 0.00 1659.50 1010.00" xmlns="http://www.w3.org/2000/svg" xmlns:xlink="http://www.w3.org/1999/xlink">
<g id="graph0" class="graph" transform="scale(1 1) rotate(0) translate(4 1006)">
<title>recipe</title>
<polygon fill="white" stroke="none" points="-4,4 -4,-1006 1655.5,-1006 1655.5,4 -4,4"/>
<!-- E0 -->
<g id="node1" class="node"><title>E0</title>
<ellipse fill="azure" stroke="black" cx="1492.5" cy="-703" rx="68.7879" ry="18"/>
<text text-anchor="middle" x="1492.5" y="-699.3" font-family="Times,serif" font-size="14.00">preheat (S0,P0)</text>
</g>
<!-- E1 -->
<g id="node2" class="node"><title>E1</title>
<ellipse fill="azure" stroke="black" cx="1319.5" cy="-601" rx="61.99" ry="18"/>
<text text-anchor="middle" x="1319.5" y="-597.3" font-family="Times,serif" font-size="14.00">spray (S1,P0)</text>
</g>
<!-- E0&#45;&gt;E1 -->
<g id="edge4" class="edge"><title>E0&#45;&gt;E1</title>
<path fill="none" stroke="black" d="M1465.47,-686.375C1435.67,-669.153 1387.63,-641.384 1354.87,-622.443"/>
<polygon fill="black" stroke="black" points="1356.47,-619.326 1346.06,-617.351 1352.96,-625.386 1356.47,-619.326"/>
<text text-anchor="middle" x="1517.5" y="-655.8" font-family="Times,serif" font-size="14.00">OUTPUT: </text>
<text text-anchor="middle" x="1517.5" y="-640.8" font-family="Times,serif" font-size="14.00">INPUT: non&#45;stick muffin pan</text>
</g>
<!-- E6 -->
<g id="node7" class="node"><title>E6</title>
<ellipse fill="azure" stroke="black" cx="1234.5" cy="-499" rx="64.189" ry="18"/>
<text text-anchor="middle" x="1234.5" y="-495.3" font-family="Times,serif" font-size="14.00">spoon (S5,P0)</text>
</g>
<!-- E1&#45;&gt;E6 -->
<g id="edge14" class="edge"><title>E1&#45;&gt;E6</title>
<path fill="none" stroke="black" d="M1305.08,-583.036C1291.44,-566.993 1270.83,-542.737 1255.39,-524.577"/>
<polygon fill="black" stroke="black" points="1257.85,-522.066 1248.71,-516.713 1252.52,-526.599 1257.85,-522.066"/>
<text text-anchor="middle" x="1387" y="-553.8" font-family="Times,serif" font-size="14.00">OUTPUT: </text>
<text text-anchor="middle" x="1387" y="-538.8" font-family="Times,serif" font-size="14.00">INPUT: into prepared muffin pan</text>
</g>
<!-- E2 -->
<g id="node3" class="node"><title>E2</title>
<ellipse fill="azure" stroke="black" cx="409.5" cy="-908" rx="73.387" ry="18"/>
<text text-anchor="middle" x="409.5" y="-904.3" font-family="Times,serif" font-size="14.00">combine (S2,P0)</text>
</g>
<!-- E3 -->
<g id="node4" class="node"><title>E3</title>
<ellipse fill="azure" stroke="black" cx="827.5" cy="-805" rx="64.189" ry="18"/>
<text text-anchor="middle" x="827.5" y="-801.3" font-family="Times,serif" font-size="14.00">whisk (S3,P0)</text>
</g>
<!-- E2&#45;&gt;E3 -->
<g id="edge7" class="edge"><title>E2&#45;&gt;E3</title>
<path fill="none" stroke="black" d="M459.622,-894.794C514.189,-881.516 604.03,-859.685 681.5,-841 710.709,-833.955 743.216,-826.158 770.128,-819.715"/>
<polygon fill="black" stroke="black" points="771.24,-823.048 780.15,-817.316 769.61,-816.24 771.24,-823.048"/>
<text text-anchor="middle" x="752.5" y="-859.8" font-family="Times,serif" font-size="14.00">OUTPUT: </text>
<text text-anchor="middle" x="752.5" y="-844.8" font-family="Times,serif" font-size="14.00">INPUT: in another bowl</text>
</g>
<!-- E4 -->
<g id="node5" class="node"><title>E4</title>
<ellipse fill="azure" stroke="black" cx="954.5" cy="-703" rx="59.5901" ry="18"/>
<text text-anchor="middle" x="954.5" y="-699.3" font-family="Times,serif" font-size="14.00">pour (S4,P0)</text>
</g>
<!-- E3&#45;&gt;E4 -->
<g id="edge9" class="edge"><title>E3&#45;&gt;E4</title>
<path fill="none" stroke="black" d="M844.864,-787.531C859.505,-773.946 881.251,-754.464 901.5,-739 907.585,-734.353 914.269,-729.652 920.778,-725.268"/>
<polygon fill="black" stroke="black" points="923.061,-727.955 929.474,-719.521 919.201,-722.115 923.061,-727.955"/>
<text text-anchor="middle" x="933.5" y="-757.8" font-family="Times,serif" font-size="14.00">OUTPUT: </text>
<text text-anchor="middle" x="933.5" y="-742.8" font-family="Times,serif" font-size="14.00">INPUT: </text>
</g>
<!-- E5 -->
<g id="node6" class="node"><title>E5</title>
<ellipse fill="azure" stroke="black" cx="1123.5" cy="-601" rx="53.0913" ry="18"/>
<text text-anchor="middle" x="1123.5" y="-597.3" font-family="Times,serif" font-size="14.00">stir (S4,P1)</text>
</g>
<!-- E4&#45;&gt;E5 -->
<g id="edge11" class="edge"><title>E4&#45;&gt;E5</title>
<path fill="none" stroke="black" d="M977.773,-686.111C997.992,-672.529 1028.23,-652.743 1055.5,-637 1065,-631.516 1075.45,-625.928 1085.24,-620.872"/>
<polygon fill="black" stroke="black" points="1087.07,-623.872 1094.38,-616.21 1083.88,-617.636 1087.07,-623.872"/>
<text text-anchor="middle" x="1087.5" y="-655.8" font-family="Times,serif" font-size="14.00">OUTPUT: </text>
<text text-anchor="middle" x="1087.5" y="-640.8" font-family="Times,serif" font-size="14.00">INPUT: </text>
</g>
<!-- E5&#45;&gt;E6 -->
<g id="edge13" class="edge"><title>E5&#45;&gt;E6</title>
<path fill="none" stroke="black" d="M1141.24,-583.958C1155.81,-570.794 1176.98,-551.674 1195.5,-535 1199.73,-531.196 1204.21,-527.163 1208.58,-523.24"/>
<polygon fill="black" stroke="black" points="1211.13,-525.655 1216.24,-516.37 1206.46,-520.445 1211.13,-525.655"/>
<text text-anchor="middle" x="1227.5" y="-553.8" font-family="Times,serif" font-size="14.00">OUTPUT: </text>
<text text-anchor="middle" x="1227.5" y="-538.8" font-family="Times,serif" font-size="14.00">INPUT: </text>
</g>
<!-- E7 -->
<g id="node8" class="node"><title>E7</title>
<ellipse fill="azure" stroke="black" cx="969.5" cy="-397" rx="59.2899" ry="18"/>
<text text-anchor="middle" x="969.5" y="-393.3" font-family="Times,serif" font-size="14.00">bake (S6,P0)</text>
</g>
<!-- E6&#45;&gt;E7 -->
<g id="edge15" class="edge"><title>E6&#45;&gt;E7</title>
<path fill="none" stroke="black" d="M1197.65,-484.095C1149.82,-466.046 1066.38,-434.56 1014.76,-415.077"/>
<polygon fill="black" stroke="black" points="1015.78,-411.723 1005.19,-411.467 1013.31,-418.272 1015.78,-411.723"/>
<text text-anchor="middle" x="1172.5" y="-451.8" font-family="Times,serif" font-size="14.00">OUTPUT: </text>
<text text-anchor="middle" x="1172.5" y="-436.8" font-family="Times,serif" font-size="14.00">INPUT: </text>
</g>
<!-- E8 -->
<g id="node9" class="node"><title>E8</title>
<ellipse fill="azure" stroke="black" cx="823.5" cy="-295" rx="50.0912" ry="18"/>
<text text-anchor="middle" x="823.5" y="-291.3" font-family="Times,serif" font-size="14.00">let (S7,P0)</text>
</g>
<!-- E7&#45;&gt;E8 -->
<g id="edge17" class="edge"><title>E7&#45;&gt;E8</title>
<path fill="none" stroke="black" d="M946.688,-380.375C921.793,-363.324 881.806,-335.935 854.176,-317.011"/>
<polygon fill="black" stroke="black" points="855.902,-313.951 845.674,-311.188 851.947,-319.726 855.902,-313.951"/>
<text text-anchor="middle" x="949.5" y="-349.8" font-family="Times,serif" font-size="14.00">OUTPUT: </text>
<text text-anchor="middle" x="949.5" y="-334.8" font-family="Times,serif" font-size="14.00">INPUT: </text>
</g>
<!-- E9 -->
<g id="node10" class="node"><title>E9</title>
<ellipse fill="azure" stroke="black" cx="697.5" cy="-193" rx="69.5877" ry="18"/>
<text text-anchor="middle" x="697.5" y="-189.3" font-family="Times,serif" font-size="14.00">transfer (S8,P0)</text>
</g>
<!-- E8&#45;&gt;E9 -->
<g id="edge20" class="edge"><title>E8&#45;&gt;E9</title>
<path fill="none" stroke="black" d="M803.812,-278.375C783.009,-261.865 749.994,-235.662 726.274,-216.836"/>
<polygon fill="black" stroke="black" points="728.315,-213.988 718.306,-210.513 723.963,-219.471 728.315,-213.988"/>
<text text-anchor="middle" x="810.5" y="-247.8" font-family="Times,serif" font-size="14.00">OUTPUT: </text>
<text text-anchor="middle" x="810.5" y="-232.8" font-family="Times,serif" font-size="14.00">INPUT: </text>
</g>
<!-- E10 -->
<g id="node11" class="node"><title>E10</title>
<ellipse fill="azure" stroke="black" cx="517.5" cy="-91" rx="65.7887" ry="18"/>
<text text-anchor="middle" x="517.5" y="-87.3" font-family="Times,serif" font-size="14.00">spread (S9,P0)</text>
</g>
<!-- E9&#45;&gt;E10 -->
<g id="edge22" class="edge"><title>E9&#45;&gt;E10</title>
<path fill="none" stroke="black" d="M669.375,-176.375C638.375,-159.153 588.392,-131.384 554.298,-112.443"/>
<polygon fill="black" stroke="black" points="555.574,-109.148 545.132,-107.351 552.174,-115.267 555.574,-109.148"/>
<text text-anchor="middle" x="692.5" y="-145.8" font-family="Times,serif" font-size="14.00">OUTPUT: </text>
<text text-anchor="middle" x="692.5" y="-130.8" font-family="Times,serif" font-size="14.00">INPUT: each muffin</text>
</g>
<!-- EOR -->
<g id="node25" class="node"><title>EOR</title>
<ellipse fill="plum" stroke="black" cx="517.5" cy="-18" rx="57.3905" ry="18"/>
<text text-anchor="middle" x="517.5" y="-14.3" font-family="Times,serif" font-size="14.00">Bon appetit!</text>
</g>
<!-- E10&#45;&gt;EOR -->
<g id="edge24" class="edge"><title>E10&#45;&gt;EOR</title>
<path fill="none" stroke="black" d="M517.5,-72.8129C517.5,-64.7895 517.5,-55.0475 517.5,-46.0691"/>
<polygon fill="black" stroke="black" points="521,-46.0288 517.5,-36.0288 514,-46.0289 521,-46.0288"/>
</g>
<!-- D0 -->
<g id="node12" class="node"><title>D0</title>
<polygon fill="white" stroke="black" points="1651.5,-823 1333.5,-823 1333.5,-787 1651.5,-787 1651.5,-823"/>
<text text-anchor="middle" x="1492.5" y="-801.3" font-family="Times,serif" font-size="14.00">DOBJ: oven to 350 degrees F &#45;LRB&#45; 180 degrees C</text>
</g>
<!-- D0&#45;&gt;E0 -->
<g id="edge1" class="edge"><title>D0&#45;&gt;E0</title>
<path fill="none" stroke="black" d="M1492.5,-786.581C1492.5,-771.382 1492.5,-749.067 1492.5,-731.464"/>
<polygon fill="black" stroke="black" points="1496,-731.219 1492.5,-721.219 1489,-731.219 1496,-731.219"/>
</g>
<!-- D2 -->
<g id="node13" class="node"><title>D2</title>
<polygon fill="peachpuff" stroke="black" points="485,-1002 0,-1002 0,-964 485,-964 485,-1002"/>
<text text-anchor="middle" x="242.5" y="-986.8" font-family="Times,serif" font-size="14.00">DOBJ: baking powder, quick&#45;cooking rolled oats, all&#45;purpose flour, baking soda</text>
<text text-anchor="middle" x="242.5" y="-971.8" font-family="Times,serif" font-size="14.00">(text: flours , oats , baking powder and baking soda)</text>
</g>
<!-- D2&#45;&gt;E2 -->
<g id="edge2" class="edge"><title>D2&#45;&gt;E2</title>
<path fill="none" stroke="black" d="M283.781,-963.955C308.704,-953.06 340.438,-939.189 365.786,-928.108"/>
<polygon fill="black" stroke="black" points="367.401,-931.223 375.162,-924.01 364.597,-924.809 367.401,-931.223"/>
</g>
<!-- P2_0 -->
<g id="node14" class="node"><title>P2_0</title>
<polygon fill="white" stroke="black" points="649.5,-1001 503.5,-1001 503.5,-965 649.5,-965 649.5,-1001"/>
<text text-anchor="middle" x="576.5" y="-979.3" font-family="Times,serif" font-size="14.00">PREP: in a large bowl</text>
</g>
<!-- P2_0&#45;&gt;E2 -->
<g id="edge3" class="edge"><title>P2_0&#45;&gt;E2</title>
<path fill="none" stroke="black" d="M537.346,-964.885C512.102,-953.85 479.241,-939.486 453.156,-928.083"/>
<polygon fill="black" stroke="black" points="454.444,-924.827 443.879,-924.028 451.64,-931.241 454.444,-924.827"/>
</g>
<!-- P1_0_0 -->
<g id="node15" class="node"><title>P1_0_0</title>
<polygon fill="white" stroke="black" points="1405.5,-721 1233.5,-721 1233.5,-685 1405.5,-685 1405.5,-721"/>
<text text-anchor="middle" x="1319.5" y="-699.3" font-family="Times,serif" font-size="14.00">PREP: with cooking spray</text>
</g>
<!-- P1_0_0&#45;&gt;E1 -->
<g id="edge5" class="edge"><title>P1_0_0&#45;&gt;E1</title>
<path fill="none" stroke="black" d="M1319.5,-684.581C1319.5,-669.382 1319.5,-647.067 1319.5,-629.464"/>
<polygon fill="black" stroke="black" points="1323,-629.219 1319.5,-619.219 1316,-629.219 1323,-629.219"/>
</g>
<!-- D3_ing -->
<g id="node16" class="node"><title>D3_ing</title>
<polygon fill="peachpuff" stroke="black" points="1154,-927 501,-927 501,-889 1154,-889 1154,-927"/>
<text text-anchor="middle" x="827.5" y="-911.8" font-family="Times,serif" font-size="14.00">DOBJ: eggs, vanilla or maple extract, buttermilk, unsweetened applesauce, over&#45;ripe bananas, granulated sugar</text>
<text text-anchor="middle" x="827.5" y="-896.8" font-family="Times,serif" font-size="14.00">(text: bananas , &#160;eggs , &#160;applesauce , &#160;sugar , &#160;buttermilk, vanilla)</text>
</g>
<!-- D3_ing&#45;&gt;E3 -->
<g id="edge6" class="edge"><title>D3_ing&#45;&gt;E3</title>
<path fill="none" stroke="black" d="M827.5,-888.943C827.5,-873.531 827.5,-851.127 827.5,-833.488"/>
<polygon fill="black" stroke="black" points="831,-833.226 827.5,-823.226 824,-833.226 831,-833.226"/>
</g>
<!-- O3_0_0 -->
<g id="node17" class="node"><title>O3_0_0</title>
<polygon fill="white" stroke="black" points="1291,-926 1172,-926 1172,-890 1291,-890 1291,-926"/>
<text text-anchor="middle" x="1231.5" y="-904.3" font-family="Times,serif" font-size="14.00">OTHER: together</text>
</g>
<!-- O3_0_0&#45;&gt;E3 -->
<g id="edge8" class="edge"><title>O3_0_0&#45;&gt;E3</title>
<path fill="none" stroke="black" d="M1171.81,-891.14C1169,-890.413 1166.22,-889.696 1163.5,-889 1065.63,-863.962 951.4,-836.013 884.503,-819.776"/>
<polygon fill="black" stroke="black" points="885.126,-816.326 874.583,-817.37 883.476,-823.128 885.126,-816.326"/>
</g>
<!-- P4_0_0 -->
<g id="node18" class="node"><title>P4_0_0</title>
<polygon fill="white" stroke="black" points="1085.5,-823 909.5,-823 909.5,-787 1085.5,-787 1085.5,-823"/>
<text text-anchor="middle" x="997.5" y="-801.3" font-family="Times,serif" font-size="14.00">PREP: over dry ingredients</text>
</g>
<!-- P4_0_0&#45;&gt;E4 -->
<g id="edge10" class="edge"><title>P4_0_0&#45;&gt;E4</title>
<path fill="none" stroke="black" d="M990.01,-786.581C983.31,-771 973.396,-747.943 965.744,-730.149"/>
<polygon fill="black" stroke="black" points="968.927,-728.69 961.761,-720.886 962.496,-731.455 968.927,-728.69"/>
</g>
<!-- O5_0_0 -->
<g id="node19" class="node"><title>O5_0_0</title>
<polygon fill="white" stroke="black" points="1215,-721 1032,-721 1032,-685 1215,-685 1215,-721"/>
<text text-anchor="middle" x="1123.5" y="-699.3" font-family="Times,serif" font-size="14.00">OTHER: until just combined</text>
</g>
<!-- O5_0_0&#45;&gt;E5 -->
<g id="edge12" class="edge"><title>O5_0_0&#45;&gt;E5</title>
<path fill="none" stroke="black" d="M1123.5,-684.581C1123.5,-669.382 1123.5,-647.067 1123.5,-629.464"/>
<polygon fill="black" stroke="black" points="1127,-629.219 1123.5,-619.219 1120,-629.219 1127,-629.219"/>
</g>
<!-- P7_0_0 -->
<g id="node20" class="node"><title>P7_0_0</title>
<polygon fill="white" stroke="black" points="1152.5,-517 586.5,-517 586.5,-481 1152.5,-481 1152.5,-517"/>
<text text-anchor="middle" x="869.5" y="-495.3" font-family="Times,serif" font-size="14.00">PREP: for 20 to 25 minutes or until a tester inserted into the center of a muffin comes out clean</text>
</g>
<!-- P7_0_0&#45;&gt;E7 -->
<g id="edge16" class="edge"><title>P7_0_0&#45;&gt;E7</title>
<path fill="none" stroke="black" d="M886.919,-480.581C903.175,-464.325 927.569,-439.931 945.633,-421.867"/>
<polygon fill="black" stroke="black" points="948.349,-424.101 952.945,-414.555 943.399,-419.151 948.349,-424.101"/>
</g>
<!-- P8_0_0 -->
<g id="node21" class="node"><title>P8_0_0</title>
<polygon fill="white" stroke="black" points="736.5,-415 592.5,-415 592.5,-379 736.5,-379 736.5,-415"/>
<text text-anchor="middle" x="664.5" y="-393.3" font-family="Times,serif" font-size="14.00">PREP: for 10 minutes</text>
</g>
<!-- P8_0_0&#45;&gt;E8 -->
<g id="edge18" class="edge"><title>P8_0_0&#45;&gt;E8</title>
<path fill="none" stroke="black" d="M691.833,-378.809C719.352,-361.502 761.803,-334.803 791.023,-316.426"/>
<polygon fill="black" stroke="black" points="793.034,-319.296 799.636,-311.009 789.307,-313.37 793.034,-319.296"/>
</g>
<!-- O8_0_0 -->
<g id="node22" class="node"><title>O8_0_0</title>
<polygon fill="white" stroke="black" points="892,-415 755,-415 755,-379 892,-379 892,-415"/>
<text text-anchor="middle" x="823.5" y="-393.3" font-family="Times,serif" font-size="14.00">OTHER: cool in pan</text>
</g>
<!-- O8_0_0&#45;&gt;E8 -->
<g id="edge19" class="edge"><title>O8_0_0&#45;&gt;E8</title>
<path fill="none" stroke="black" d="M823.5,-378.581C823.5,-363.382 823.5,-341.067 823.5,-323.464"/>
<polygon fill="black" stroke="black" points="827,-323.219 823.5,-313.219 820,-323.219 827,-323.219"/>
</g>
<!-- O9_0_0 -->
<g id="node23" class="node"><title>O9_0_0</title>
<polygon fill="white" stroke="black" points="755.5,-313 533.5,-313 533.5,-277 755.5,-277 755.5,-313"/>
<text text-anchor="middle" x="644.5" y="-291.3" font-family="Times,serif" font-size="14.00">OTHER: to rack to cool completely</text>
</g>
<!-- O9_0_0&#45;&gt;E9 -->
<g id="edge21" class="edge"><title>O9_0_0&#45;&gt;E9</title>
<path fill="none" stroke="black" d="M653.732,-276.581C661.99,-261 674.21,-237.943 683.641,-220.149"/>
<polygon fill="black" stroke="black" points="686.96,-221.361 688.55,-210.886 680.775,-218.083 686.96,-221.361"/>
</g>
<!-- P10_0_0 -->
<g id="node24" class="node"><title>P10_0_0</title>
<polygon fill="white" stroke="black" points="610,-211 285,-211 285,-175 610,-175 610,-211"/>
<text text-anchor="middle" x="447.5" y="-189.3" font-family="Times,serif" font-size="14.00">PREP: with 1 tablespoon &#45;lrb&#45; 15 ml &#45;rrb&#45; of nutella </text>
</g>
<!-- P10_0_0&#45;&gt;E10 -->
<g id="edge23" class="edge"><title>P10_0_0&#45;&gt;E10</title>
<path fill="none" stroke="black" d="M459.693,-174.581C470.802,-158.712 487.339,-135.087 499.884,-117.166"/>
<polygon fill="black" stroke="black" points="502.813,-119.085 505.68,-108.886 497.078,-115.071 502.813,-119.085"/>
</g>
</g>
</svg>
