<?xml version="1.0" encoding="UTF-8" standalone="no"?>
<!DOCTYPE svg PUBLIC "-//W3C//DTD SVG 1.1//EN"
 "http://www.w3.org/Graphics/SVG/1.1/DTD/svg11.dtd">
<!-- Generated by graphviz version 2.38.0 (20140413.2041)
 -->
<!-- Title: recipe Pages: 1 -->
<svg width="1965pt" height="706pt"
 viewBox="0.00 0.00 1965.00 706.00" xmlns="http://www.w3.org/2000/svg" xmlns:xlink="http://www.w3.org/1999/xlink">
<g id="graph0" class="graph" transform="scale(1 1) rotate(0) translate(4 702)">
<title>recipe</title>
<polygon fill="white" stroke="none" points="-4,4 -4,-702 1961,-702 1961,4 -4,4"/>
<!-- E0 -->
<g id="node1" class="node"><title>E0</title>
<ellipse fill="azure" stroke="black" cx="1798" cy="-399" rx="68.7879" ry="18"/>
<text text-anchor="middle" x="1798" y="-395.3" font-family="Times,serif" font-size="14.00">preheat (S0,P0)</text>
</g>
<!-- E6 -->
<g id="node7" class="node"><title>E6</title>
<ellipse fill="azure" stroke="black" cx="1317" cy="-296" rx="59.2899" ry="18"/>
<text text-anchor="middle" x="1317" y="-292.3" font-family="Times,serif" font-size="14.00">bake (S6,P0)</text>
</g>
<!-- E0&#45;&gt;E6 -->
<g id="edge18" class="edge"><title>E0&#45;&gt;E6</title>
<path fill="none" stroke="black" d="M1747.49,-386.755C1738.66,-384.817 1729.57,-382.836 1721,-381 1597.82,-354.597 1453.23,-324.831 1374.78,-308.781"/>
<polygon fill="black" stroke="black" points="1375.12,-305.277 1364.62,-306.703 1373.71,-312.136 1375.12,-305.277"/>
<text text-anchor="middle" x="1718.5" y="-351.8" font-family="Times,serif" font-size="14.00">OUTPUT: </text>
<text text-anchor="middle" x="1718.5" y="-336.8" font-family="Times,serif" font-size="14.00">INPUT: in the preheated oven</text>
</g>
<!-- E1 -->
<g id="node2" class="node"><title>E1</title>
<ellipse fill="azure" stroke="black" cx="572" cy="-501" rx="55.4913" ry="18"/>
<text text-anchor="middle" x="572" y="-497.3" font-family="Times,serif" font-size="14.00">line (S1,P0)</text>
</g>
<!-- E5 -->
<g id="node6" class="node"><title>E5</title>
<ellipse fill="azure" stroke="black" cx="986" cy="-399" rx="59.5901" ry="18"/>
<text text-anchor="middle" x="986" y="-395.3" font-family="Times,serif" font-size="14.00">pour (S5,P0)</text>
</g>
<!-- E1&#45;&gt;E5 -->
<g id="edge16" class="edge"><title>E1&#45;&gt;E5</title>
<path fill="none" stroke="black" d="M609.917,-487.81C654.398,-473.799 730.524,-450.717 797,-435 839.152,-425.034 887.146,-416.176 924.222,-409.865"/>
<polygon fill="black" stroke="black" points="925.097,-413.267 934.376,-408.154 923.933,-406.365 925.097,-413.267"/>
<text text-anchor="middle" x="907.5" y="-453.8" font-family="Times,serif" font-size="14.00">OUTPUT: </text>
<text text-anchor="middle" x="907.5" y="-438.8" font-family="Times,serif" font-size="14.00">INPUT: into the prepared muffin cups</text>
</g>
<!-- E2 -->
<g id="node3" class="node"><title>E2</title>
<ellipse fill="azure" stroke="black" cx="731" cy="-604" rx="62.2891" ry="18"/>
<text text-anchor="middle" x="731" y="-600.3" font-family="Times,serif" font-size="14.00">blend (S2,P0)</text>
</g>
<!-- E4 -->
<g id="node5" class="node"><title>E4</title>
<ellipse fill="azure" stroke="black" cx="1090" cy="-501" rx="55.7903" ry="18"/>
<text text-anchor="middle" x="1090" y="-497.3" font-family="Times,serif" font-size="14.00">mix (S4,P0)</text>
</g>
<!-- E2&#45;&gt;E4 -->
<g id="edge12" class="edge"><title>E2&#45;&gt;E4</title>
<path fill="none" stroke="black" d="M762.973,-588.507C796.69,-573.72 851.662,-551.012 901,-537 943.106,-525.042 991.682,-516.149 1029.04,-510.32"/>
<polygon fill="black" stroke="black" points="1029.91,-513.728 1039.27,-508.757 1028.86,-506.808 1029.91,-513.728"/>
<text text-anchor="middle" x="993" y="-555.8" font-family="Times,serif" font-size="14.00">OUTPUT: </text>
<text text-anchor="middle" x="993" y="-540.8" font-family="Times,serif" font-size="14.00">INPUT: mango&#45;banana mixture</text>
</g>
<!-- E3 -->
<g id="node4" class="node"><title>E3</title>
<ellipse fill="azure" stroke="black" cx="1097" cy="-604" rx="64.189" ry="18"/>
<text text-anchor="middle" x="1097" y="-600.3" font-family="Times,serif" font-size="14.00">whisk (S3,P0)</text>
</g>
<!-- E3&#45;&gt;E4 -->
<g id="edge13" class="edge"><title>E3&#45;&gt;E4</title>
<path fill="none" stroke="black" d="M1093.6,-585.855C1092.57,-579.909 1091.56,-573.184 1091,-567 1089.88,-554.608 1089.54,-540.834 1089.51,-529.166"/>
<polygon fill="black" stroke="black" points="1093.01,-529.162 1089.57,-519.144 1086.01,-529.125 1093.01,-529.162"/>
<text text-anchor="middle" x="1168" y="-555.8" font-family="Times,serif" font-size="14.00">OUTPUT: </text>
<text text-anchor="middle" x="1168" y="-540.8" font-family="Times,serif" font-size="14.00">INPUT: into flour mixture</text>
</g>
<!-- E4&#45;&gt;E5 -->
<g id="edge15" class="edge"><title>E4&#45;&gt;E5</title>
<path fill="none" stroke="black" d="M1072.83,-483.487C1055.82,-467.13 1029.6,-441.924 1010.43,-423.486"/>
<polygon fill="black" stroke="black" points="1012.83,-420.946 1003.2,-416.537 1007.98,-425.992 1012.83,-420.946"/>
<text text-anchor="middle" x="1094" y="-453.8" font-family="Times,serif" font-size="14.00">OUTPUT: </text>
<text text-anchor="middle" x="1094" y="-438.8" font-family="Times,serif" font-size="14.00">INPUT: batter</text>
</g>
<!-- E5&#45;&gt;E6 -->
<g id="edge17" class="edge"><title>E5&#45;&gt;E6</title>
<path fill="none" stroke="black" d="M1015.34,-383.153C1045.78,-368.343 1095.12,-345.981 1140,-333 1187.17,-319.359 1200.99,-325.294 1249,-315 1254.3,-313.864 1259.8,-312.581 1265.28,-311.236"/>
<polygon fill="black" stroke="black" points="1266.23,-314.606 1275.07,-308.766 1264.52,-307.819 1266.23,-314.606"/>
<text text-anchor="middle" x="1172" y="-351.8" font-family="Times,serif" font-size="14.00">OUTPUT: </text>
<text text-anchor="middle" x="1172" y="-336.8" font-family="Times,serif" font-size="14.00">INPUT: </text>
</g>
<!-- E7 -->
<g id="node8" class="node"><title>E7</title>
<ellipse fill="azure" stroke="black" cx="913" cy="-193" rx="57.6901" ry="18"/>
<text text-anchor="middle" x="913" y="-189.3" font-family="Times,serif" font-size="14.00">cool (S7,P0)</text>
</g>
<!-- E6&#45;&gt;E7 -->
<g id="edge21" class="edge"><title>E6&#45;&gt;E7</title>
<path fill="none" stroke="black" d="M1274.22,-283.561C1265.87,-281.359 1257.16,-279.089 1249,-277 1149.75,-251.607 1033.66,-223.222 967.193,-207.094"/>
<polygon fill="black" stroke="black" points="967.9,-203.664 957.357,-204.709 966.251,-210.467 967.9,-203.664"/>
<text text-anchor="middle" x="1207" y="-247.8" font-family="Times,serif" font-size="14.00">OUTPUT: </text>
<text text-anchor="middle" x="1207" y="-232.8" font-family="Times,serif" font-size="14.00">INPUT: </text>
</g>
<!-- E9 -->
<g id="node10" class="node"><title>E9</title>
<ellipse fill="azure" stroke="black" cx="723" cy="-91" rx="64.189" ry="18"/>
<text text-anchor="middle" x="723" y="-87.3" font-family="Times,serif" font-size="14.00">spoon (S9,P0)</text>
</g>
<!-- E7&#45;&gt;E9 -->
<g id="edge25" class="edge"><title>E7&#45;&gt;E9</title>
<path fill="none" stroke="black" d="M884.965,-177.245C852.039,-159.915 797.277,-131.093 760.666,-111.824"/>
<polygon fill="black" stroke="black" points="762.252,-108.704 751.773,-107.144 758.992,-114.898 762.252,-108.704"/>
<text text-anchor="middle" x="929" y="-145.8" font-family="Times,serif" font-size="14.00">OUTPUT: </text>
<text text-anchor="middle" x="929" y="-130.8" font-family="Times,serif" font-size="14.00">INPUT: onto cooled muffins</text>
</g>
<!-- E8 -->
<g id="node9" class="node"><title>E8</title>
<ellipse fill="azure" stroke="black" cx="437" cy="-193" rx="64.189" ry="18"/>
<text text-anchor="middle" x="437" y="-189.3" font-family="Times,serif" font-size="14.00">whisk (S8,P0)</text>
</g>
<!-- E8&#45;&gt;E9 -->
<g id="edge24" class="edge"><title>E8&#45;&gt;E9</title>
<path fill="none" stroke="black" d="M475.571,-178.514C527.065,-160.509 618.281,-128.615 674.412,-108.989"/>
<polygon fill="black" stroke="black" points="675.842,-112.197 684.126,-105.592 673.532,-105.589 675.842,-112.197"/>
<text text-anchor="middle" x="654" y="-145.8" font-family="Times,serif" font-size="14.00">OUTPUT: </text>
<text text-anchor="middle" x="654" y="-130.8" font-family="Times,serif" font-size="14.00">INPUT: </text>
</g>
<!-- EOR -->
<g id="node27" class="node"><title>EOR</title>
<ellipse fill="plum" stroke="black" cx="723" cy="-18" rx="57.3905" ry="18"/>
<text text-anchor="middle" x="723" y="-14.3" font-family="Times,serif" font-size="14.00">Bon appetit!</text>
</g>
<!-- E9&#45;&gt;EOR -->
<g id="edge26" class="edge"><title>E9&#45;&gt;EOR</title>
<path fill="none" stroke="black" d="M723,-72.8129C723,-64.7895 723,-55.0475 723,-46.0691"/>
<polygon fill="black" stroke="black" points="726.5,-46.0288 723,-36.0288 719.5,-46.0289 726.5,-46.0288"/>
</g>
<!-- D3 -->
<g id="node11" class="node"><title>D3</title>
<polygon fill="peachpuff" stroke="black" points="1413,-698 781,-698 781,-660 1413,-660 1413,-698"/>
<text text-anchor="middle" x="1097" y="-682.8" font-family="Times,serif" font-size="14.00">DOBJ: baking powder, ground nutmeg, ground cinnamon, all&#45;purpose flour, ground allspice, baking soda</text>
<text text-anchor="middle" x="1097" y="-667.8" font-family="Times,serif" font-size="14.00">(text: flour , baking soda , baking powder , cinnamon , nutmeg , and allspice)</text>
</g>
<!-- D3&#45;&gt;E3 -->
<g id="edge1" class="edge"><title>D3&#45;&gt;E3</title>
<path fill="none" stroke="black" d="M1097,-659.955C1097,-651.701 1097,-641.738 1097,-632.574"/>
<polygon fill="black" stroke="black" points="1100.5,-632.335 1097,-622.335 1093.5,-632.335 1100.5,-632.335"/>
</g>
<!-- P3_0 -->
<g id="node12" class="node"><title>P3_0</title>
<polygon fill="white" stroke="black" points="1545,-697 1431,-697 1431,-661 1545,-661 1545,-697"/>
<text text-anchor="middle" x="1488" y="-675.3" font-family="Times,serif" font-size="14.00">PREP: in a bowl</text>
</g>
<!-- P3_0&#45;&gt;E3 -->
<g id="edge2" class="edge"><title>P3_0&#45;&gt;E3</title>
<path fill="none" stroke="black" d="M1430.86,-661.967C1427.87,-661.269 1424.91,-660.608 1422,-660 1311.63,-636.902 1281.68,-644.571 1171,-623 1164.95,-621.822 1158.66,-620.476 1152.4,-619.063"/>
<polygon fill="black" stroke="black" points="1153.18,-615.65 1142.65,-616.801 1151.6,-622.469 1153.18,-615.65"/>
</g>
<!-- O3_0 -->
<g id="node13" class="node"><title>O3_0</title>
<polygon fill="white" stroke="black" points="1682.5,-697 1563.5,-697 1563.5,-661 1682.5,-661 1682.5,-697"/>
<text text-anchor="middle" x="1623" y="-675.3" font-family="Times,serif" font-size="14.00">OTHER: together</text>
</g>
<!-- O3_0&#45;&gt;E3 -->
<g id="edge3" class="edge"><title>O3_0&#45;&gt;E3</title>
<path fill="none" stroke="black" d="M1563.29,-661.803C1560.16,-661.148 1557.05,-660.541 1554,-660 1385.62,-630.1 1339.62,-651.504 1171,-623 1164.75,-621.944 1158.26,-620.653 1151.82,-619.252"/>
<polygon fill="black" stroke="black" points="1152.32,-615.777 1141.79,-616.978 1150.77,-622.604 1152.32,-615.777"/>
</g>
<!-- D1 -->
<g id="node14" class="node"><title>D1</title>
<polygon fill="white" stroke="black" points="475.5,-622 346.5,-622 346.5,-586 475.5,-586 475.5,-622"/>
<text text-anchor="middle" x="411" y="-600.3" font-family="Times,serif" font-size="14.00">DOBJ: muffin cups</text>
</g>
<!-- D1&#45;&gt;E1 -->
<g id="edge4" class="edge"><title>D1&#45;&gt;E1</title>
<path fill="none" stroke="black" d="M438.311,-585.867C466.117,-568.423 509.248,-541.366 538.961,-522.726"/>
<polygon fill="black" stroke="black" points="541.108,-525.511 547.72,-517.232 537.389,-519.581 541.108,-525.511"/>
</g>
<!-- P1_0 -->
<g id="node15" class="node"><title>P1_0</title>
<polygon fill="white" stroke="black" points="650.5,-622 493.5,-622 493.5,-586 650.5,-586 650.5,-622"/>
<text text-anchor="middle" x="572" y="-600.3" font-family="Times,serif" font-size="14.00">PREP: with paper liners</text>
</g>
<!-- P1_0&#45;&gt;E1 -->
<g id="edge5" class="edge"><title>P1_0&#45;&gt;E1</title>
<path fill="none" stroke="black" d="M572,-585.867C572,-570.414 572,-547.416 572,-529.409"/>
<polygon fill="black" stroke="black" points="575.5,-529.217 572,-519.217 568.5,-529.217 575.5,-529.217"/>
</g>
<!-- D8 -->
<g id="node16" class="node"><title>D8</title>
<polygon fill="peachpuff" stroke="black" points="216,-315 0,-315 0,-277 216,-277 216,-315"/>
<text text-anchor="middle" x="108" y="-299.8" font-family="Times,serif" font-size="14.00">DOBJ: water, confectioners&#39; sugar</text>
<text text-anchor="middle" x="108" y="-284.8" font-family="Times,serif" font-size="14.00">(text: confectioners &#39; sugar , water)</text>
</g>
<!-- D8&#45;&gt;E8 -->
<g id="edge6" class="edge"><title>D8&#45;&gt;E8</title>
<path fill="none" stroke="black" d="M166.819,-276.943C229.019,-257.848 326.178,-228.021 385.468,-209.82"/>
<polygon fill="black" stroke="black" points="386.831,-213.063 395.363,-206.782 384.776,-206.371 386.831,-213.063"/>
</g>
<!-- O8_0 -->
<g id="node17" class="node"><title>O8_0</title>
<polygon fill="peachpuff" stroke="black" points="640,-315 234,-315 234,-277 640,-277 640,-315"/>
<text text-anchor="middle" x="437" y="-299.8" font-family="Times,serif" font-size="14.00">OTHER: lime</text>
<text text-anchor="middle" x="437" y="-284.8" font-family="Times,serif" font-size="14.00">(text: 1 teaspoon lime juice together until glaze is smooth and thick)</text>
</g>
<!-- O8_0&#45;&gt;E8 -->
<g id="edge7" class="edge"><title>O8_0&#45;&gt;E8</title>
<path fill="none" stroke="black" d="M437,-276.943C437,-261.531 437,-239.127 437,-221.488"/>
<polygon fill="black" stroke="black" points="440.5,-221.226 437,-211.226 433.5,-221.226 440.5,-221.226"/>
</g>
<!-- D2 -->
<g id="node18" class="node"><title>D2</title>
<polygon fill="peachpuff" stroke="black" points="613,-698 177,-698 177,-660 613,-660 613,-698"/>
<text text-anchor="middle" x="395" y="-682.8" font-family="Times,serif" font-size="14.00">DOBJ: brown sugar, ripe bananas, lime juice, ripe mango</text>
<text text-anchor="middle" x="395" y="-667.8" font-family="Times,serif" font-size="14.00">(text: mango , bananas , brown sugar , and juice of 1/2 lime in a blender)</text>
</g>
<!-- D2&#45;&gt;E2 -->
<g id="edge8" class="edge"><title>D2&#45;&gt;E2</title>
<path fill="none" stroke="black" d="M486.89,-659.955C537.985,-649.664 602.651,-636.214 660,-623 665.344,-621.769 670.902,-620.441 676.451,-619.085"/>
<polygon fill="black" stroke="black" points="677.514,-622.428 686.38,-616.628 675.832,-615.633 677.514,-622.428"/>
</g>
<!-- P2_0 -->
<g id="node19" class="node"><title>P2_0</title>
<polygon fill="white" stroke="black" points="763,-697 631,-697 631,-661 763,-661 763,-697"/>
<text text-anchor="middle" x="697" y="-675.3" font-family="Times,serif" font-size="14.00">PREP: until smooth</text>
</g>
<!-- P2_0&#45;&gt;E2 -->
<g id="edge9" class="edge"><title>P2_0&#45;&gt;E2</title>
<path fill="none" stroke="black" d="M705.058,-660.7C709.152,-651.909 714.214,-641.041 718.776,-631.245"/>
<polygon fill="black" stroke="black" points="722.068,-632.467 723.118,-621.924 715.723,-629.511 722.068,-632.467"/>
</g>
<!-- D0 -->
<g id="node20" class="node"><title>D0</title>
<polygon fill="white" stroke="black" points="1957,-519 1639,-519 1639,-483 1957,-483 1957,-519"/>
<text text-anchor="middle" x="1798" y="-497.3" font-family="Times,serif" font-size="14.00">DOBJ: oven to 350 degrees F &#45;LRB&#45; 175 degrees C</text>
</g>
<!-- D0&#45;&gt;E0 -->
<g id="edge10" class="edge"><title>D0&#45;&gt;E0</title>
<path fill="none" stroke="black" d="M1798,-482.581C1798,-467.382 1798,-445.067 1798,-427.464"/>
<polygon fill="black" stroke="black" points="1801.5,-427.219 1798,-417.219 1794.5,-427.219 1801.5,-427.219"/>
</g>
<!-- D4_ing -->
<g id="node21" class="node"><title>D4_ing</title>
<polygon fill="peachpuff" stroke="black" points="1338.5,-623 1179.5,-623 1179.5,-585 1338.5,-585 1338.5,-623"/>
<text text-anchor="middle" x="1259" y="-607.8" font-family="Times,serif" font-size="14.00">DOBJ: butter, large eggs</text>
<text text-anchor="middle" x="1259" y="-592.8" font-family="Times,serif" font-size="14.00">(text: &#160;eggs , butter )</text>
</g>
<!-- D4_ing&#45;&gt;E4 -->
<g id="edge11" class="edge"><title>D4_ing&#45;&gt;E4</title>
<path fill="none" stroke="black" d="M1260.14,-584.856C1260.03,-570.015 1257.34,-549.505 1245,-537 1231.94,-523.764 1189.64,-514.762 1152.53,-509.205"/>
<polygon fill="black" stroke="black" points="1152.62,-505.683 1142.23,-507.729 1151.63,-512.612 1152.62,-505.683"/>
</g>
<!-- O4_0_0 -->
<g id="node22" class="node"><title>O4_0_0</title>
<polygon fill="white" stroke="black" points="1539.5,-622 1356.5,-622 1356.5,-586 1539.5,-586 1539.5,-622"/>
<text text-anchor="middle" x="1448" y="-600.3" font-family="Times,serif" font-size="14.00">OTHER: until just combined</text>
</g>
<!-- O4_0_0&#45;&gt;E4 -->
<g id="edge14" class="edge"><title>O4_0_0&#45;&gt;E4</title>
<path fill="none" stroke="black" d="M1406.42,-585.995C1369.69,-571.464 1314.45,-550.78 1265,-537 1227,-526.41 1183.51,-517.696 1149.39,-511.612"/>
<polygon fill="black" stroke="black" points="1149.57,-508.09 1139.12,-509.809 1148.36,-514.985 1149.57,-508.09"/>
</g>
<!-- O6_0_0 -->
<g id="node23" class="node"><title>O6_0_0</title>
<polygon fill="white" stroke="black" points="1236.5,-417 1063.5,-417 1063.5,-381 1236.5,-381 1236.5,-417"/>
<text text-anchor="middle" x="1150" y="-395.3" font-family="Times,serif" font-size="14.00">OTHER: &#160;25 to 30 minutes</text>
</g>
<!-- O6_0_0&#45;&gt;E6 -->
<g id="edge19" class="edge"><title>O6_0_0&#45;&gt;E6</title>
<path fill="none" stroke="black" d="M1178.33,-380.867C1207.21,-363.399 1252.03,-336.292 1282.86,-317.65"/>
<polygon fill="black" stroke="black" points="1284.8,-320.564 1291.55,-312.394 1281.18,-314.574 1284.8,-320.564"/>
</g>
<!-- O6_0_1 -->
<g id="node24" class="node"><title>O6_0_1</title>
<polygon fill="white" stroke="black" points="1711.5,-417 1254.5,-417 1254.5,-381 1711.5,-381 1711.5,-417"/>
<text text-anchor="middle" x="1483" y="-395.3" font-family="Times,serif" font-size="14.00">OTHER: until a toothpick inserted in the center of a muffin comes out clean </text>
</g>
<!-- O6_0_1&#45;&gt;E6 -->
<g id="edge20" class="edge"><title>O6_0_1&#45;&gt;E6</title>
<path fill="none" stroke="black" d="M1454.84,-380.867C1426.13,-363.399 1381.58,-336.292 1350.94,-317.65"/>
<polygon fill="black" stroke="black" points="1352.66,-314.602 1342.3,-312.394 1349.02,-320.582 1352.66,-314.602"/>
</g>
<!-- P7_0_0 -->
<g id="node25" class="node"><title>P7_0_0</title>
<polygon fill="white" stroke="black" points="868,-314 658,-314 658,-278 868,-278 868,-314"/>
<text text-anchor="middle" x="763" y="-292.3" font-family="Times,serif" font-size="14.00">PREP: in the pans for 10 minutes</text>
</g>
<!-- P7_0_0&#45;&gt;E7 -->
<g id="edge22" class="edge"><title>P7_0_0&#45;&gt;E7</title>
<path fill="none" stroke="black" d="M788.445,-277.867C814.089,-260.6 853.723,-233.913 881.373,-215.296"/>
<polygon fill="black" stroke="black" points="883.556,-218.045 889.896,-209.556 879.647,-212.239 883.556,-218.045"/>
</g>
<!-- P7_1_0 -->
<g id="node26" class="node"><title>P7_1_0</title>
<polygon fill="white" stroke="black" points="1239.5,-314 886.5,-314 886.5,-278 1239.5,-278 1239.5,-314"/>
<text text-anchor="middle" x="1063" y="-292.3" font-family="Times,serif" font-size="14.00">PREP: before removing to cool completely on a wire rack</text>
</g>
<!-- P7_1_0&#45;&gt;E7 -->
<g id="edge23" class="edge"><title>P7_1_0&#45;&gt;E7</title>
<path fill="none" stroke="black" d="M1037.55,-277.867C1011.91,-260.6 972.277,-233.913 944.627,-215.296"/>
<polygon fill="black" stroke="black" points="946.353,-212.239 936.104,-209.556 942.444,-218.045 946.353,-212.239"/>
</g>
</g>
</svg>
