<?xml version="1.0" encoding="UTF-8" standalone="no"?>
<!DOCTYPE svg PUBLIC "-//W3C//DTD SVG 1.1//EN"
 "http://www.w3.org/Graphics/SVG/1.1/DTD/svg11.dtd">
<!-- Generated by graphviz version 2.38.0 (20140413.2041)
 -->
<!-- Title: recipe Pages: 1 -->
<svg width="2150pt" height="912pt"
 viewBox="0.00 0.00 2149.50 912.00" xmlns="http://www.w3.org/2000/svg" xmlns:xlink="http://www.w3.org/1999/xlink">
<g id="graph0" class="graph" transform="scale(1 1) rotate(0) translate(4 908)">
<title>recipe</title>
<polygon fill="white" stroke="none" points="-4,4 -4,-908 2145.5,-908 2145.5,4 -4,4"/>
<!-- E0 -->
<g id="node1" class="node"><title>E0</title>
<ellipse fill="azure" stroke="black" cx="1972" cy="-295" rx="68.7879" ry="18"/>
<text text-anchor="middle" x="1972" y="-291.3" font-family="Times,serif" font-size="14.00">preheat (S0,P0)</text>
</g>
<!-- E10 -->
<g id="node11" class="node"><title>E10</title>
<ellipse fill="azure" stroke="black" cx="1644" cy="-193" rx="63.8893" ry="18"/>
<text text-anchor="middle" x="1644" y="-189.3" font-family="Times,serif" font-size="14.00">bake (S10,P0)</text>
</g>
<!-- E0&#45;&gt;E10 -->
<g id="edge22" class="edge"><title>E0&#45;&gt;E10</title>
<path fill="none" stroke="black" d="M1928.78,-280.824C1868.68,-262.499 1760,-229.367 1695.69,-209.758"/>
<polygon fill="black" stroke="black" points="1696.34,-206.299 1685.76,-206.731 1694.3,-212.995 1696.34,-206.299"/>
<text text-anchor="middle" x="1942.5" y="-247.8" font-family="Times,serif" font-size="14.00">OUTPUT: </text>
<text text-anchor="middle" x="1942.5" y="-232.8" font-family="Times,serif" font-size="14.00">INPUT: in the preheated oven</text>
</g>
<!-- E1 -->
<g id="node2" class="node"><title>E1</title>
<ellipse fill="azure" stroke="black" cx="276" cy="-604" rx="64.9885" ry="18"/>
<text text-anchor="middle" x="276" y="-600.3" font-family="Times,serif" font-size="14.00">grease (S1,P0)</text>
</g>
<!-- E5 -->
<g id="node6" class="node"><title>E5</title>
<ellipse fill="azure" stroke="black" cx="608" cy="-500" rx="56.59" ry="18"/>
<text text-anchor="middle" x="608" y="-496.3" font-family="Times,serif" font-size="14.00">beat (S5,P0)</text>
</g>
<!-- E1&#45;&gt;E5 -->
<g id="edge10" class="edge"><title>E1&#45;&gt;E5</title>
<path fill="none" stroke="black" d="M276.786,-585.799C278.47,-570.51 283.47,-548.806 298,-537 334.068,-507.694 461.001,-501.499 540.824,-500.601"/>
<polygon fill="black" stroke="black" points="541.309,-504.097 551.279,-500.51 541.249,-497.097 541.309,-504.097"/>
<text text-anchor="middle" x="381" y="-555.8" font-family="Times,serif" font-size="14.00">OUTPUT: </text>
<text text-anchor="middle" x="381" y="-540.8" font-family="Times,serif" font-size="14.00">INPUT: 1/4 cup coconut oil </text>
</g>
<!-- E2 -->
<g id="node3" class="node"><title>E2</title>
<ellipse fill="azure" stroke="black" cx="465" cy="-811" rx="58.4896" ry="18"/>
<text text-anchor="middle" x="465" y="-807.3" font-family="Times,serif" font-size="14.00">soak (S2,P0)</text>
</g>
<!-- E3 -->
<g id="node4" class="node"><title>E3</title>
<ellipse fill="azure" stroke="black" cx="465" cy="-708" rx="61.1893" ry="18"/>
<text text-anchor="middle" x="465" y="-704.3" font-family="Times,serif" font-size="14.00">drain (S3,P0)</text>
</g>
<!-- E2&#45;&gt;E3 -->
<g id="edge7" class="edge"><title>E2&#45;&gt;E3</title>
<path fill="none" stroke="black" d="M465,-792.867C465,-777.414 465,-754.416 465,-736.409"/>
<polygon fill="black" stroke="black" points="468.5,-736.217 465,-726.217 461.5,-736.217 468.5,-736.217"/>
<text text-anchor="middle" x="497" y="-763.8" font-family="Times,serif" font-size="14.00">OUTPUT: </text>
<text text-anchor="middle" x="497" y="-748.8" font-family="Times,serif" font-size="14.00">INPUT: </text>
</g>
<!-- E4 -->
<g id="node5" class="node"><title>E4</title>
<ellipse fill="azure" stroke="black" cx="442" cy="-604" rx="59.5901" ry="18"/>
<text text-anchor="middle" x="442" y="-600.3" font-family="Times,serif" font-size="14.00">chop (S4,P0)</text>
</g>
<!-- E3&#45;&gt;E4 -->
<g id="edge8" class="edge"><title>E3&#45;&gt;E4</title>
<path fill="none" stroke="black" d="M461.098,-689.697C457.525,-673.849 452.179,-650.143 448.052,-631.838"/>
<polygon fill="black" stroke="black" points="451.458,-631.033 445.844,-622.047 444.629,-632.572 451.458,-631.033"/>
<text text-anchor="middle" x="500.5" y="-659.8" font-family="Times,serif" font-size="14.00">OUTPUT: </text>
<text text-anchor="middle" x="500.5" y="-644.8" font-family="Times,serif" font-size="14.00">INPUT: raisins</text>
</g>
<!-- E4&#45;&gt;E5 -->
<g id="edge11" class="edge"><title>E4&#45;&gt;E5</title>
<path fill="none" stroke="black" d="M452.701,-586.083C462.921,-571.201 479.609,-549.947 499,-537 514.872,-526.402 534.123,-518.695 552.003,-513.2"/>
<polygon fill="black" stroke="black" points="553.135,-516.516 561.765,-510.37 551.186,-509.793 553.135,-516.516"/>
<text text-anchor="middle" x="551.5" y="-555.8" font-family="Times,serif" font-size="14.00">OUTPUT: </text>
<text text-anchor="middle" x="551.5" y="-540.8" font-family="Times,serif" font-size="14.00">INPUT: in a bowl</text>
</g>
<!-- E8 -->
<g id="node9" class="node"><title>E8</title>
<ellipse fill="azure" stroke="black" cx="1079" cy="-397" rx="56.59" ry="18"/>
<text text-anchor="middle" x="1079" y="-393.3" font-family="Times,serif" font-size="14.00">fold (S8,P0)</text>
</g>
<!-- E5&#45;&gt;E8 -->
<g id="edge16" class="edge"><title>E5&#45;&gt;E8</title>
<path fill="none" stroke="black" d="M633.699,-483.886C661.407,-468.361 707.299,-444.842 750,-433 838.581,-408.434 944.983,-400.904 1012.31,-398.711"/>
<polygon fill="black" stroke="black" points="1012.47,-402.208 1022.36,-398.414 1012.26,-395.211 1012.47,-402.208"/>
<text text-anchor="middle" x="824" y="-451.8" font-family="Times,serif" font-size="14.00">OUTPUT: </text>
<text text-anchor="middle" x="824" y="-436.8" font-family="Times,serif" font-size="14.00">INPUT: &#160;chopped raisins </text>
</g>
<!-- E6 -->
<g id="node7" class="node"><title>E6</title>
<ellipse fill="azure" stroke="black" cx="907" cy="-604" rx="55.4913" ry="18"/>
<text text-anchor="middle" x="907" y="-600.3" font-family="Times,serif" font-size="14.00">add (S6,P0)</text>
</g>
<!-- E7 -->
<g id="node8" class="node"><title>E7</title>
<ellipse fill="azure" stroke="black" cx="907" cy="-500" rx="56.59" ry="18"/>
<text text-anchor="middle" x="907" y="-496.3" font-family="Times,serif" font-size="14.00">beat (S7,P0)</text>
</g>
<!-- E6&#45;&gt;E7 -->
<g id="edge13" class="edge"><title>E6&#45;&gt;E7</title>
<path fill="none" stroke="black" d="M907,-585.697C907,-569.923 907,-546.364 907,-528.094"/>
<polygon fill="black" stroke="black" points="910.5,-528.047 907,-518.047 903.5,-528.047 910.5,-528.047"/>
<text text-anchor="middle" x="939" y="-555.8" font-family="Times,serif" font-size="14.00">OUTPUT: </text>
<text text-anchor="middle" x="939" y="-540.8" font-family="Times,serif" font-size="14.00">INPUT: </text>
</g>
<!-- E7&#45;&gt;E8 -->
<g id="edge17" class="edge"><title>E7&#45;&gt;E8</title>
<path fill="none" stroke="black" d="M902.843,-481.997C900.327,-467.265 899.512,-446.285 911,-433 924.592,-417.281 973.256,-408.301 1014.73,-403.382"/>
<polygon fill="black" stroke="black" points="1015.28,-406.843 1024.82,-402.247 1014.49,-399.887 1015.28,-406.843"/>
<text text-anchor="middle" x="1070" y="-451.8" font-family="Times,serif" font-size="14.00">OUTPUT: </text>
<text text-anchor="middle" x="1070" y="-436.8" font-family="Times,serif" font-size="14.00">INPUT: into the banana mixture using a rubber spatula</text>
</g>
<!-- E9 -->
<g id="node10" class="node"><title>E9</title>
<ellipse fill="azure" stroke="black" cx="1213" cy="-295" rx="59.5901" ry="18"/>
<text text-anchor="middle" x="1213" y="-291.3" font-family="Times,serif" font-size="14.00">pour (S9,P0)</text>
</g>
<!-- E8&#45;&gt;E9 -->
<g id="edge19" class="edge"><title>E8&#45;&gt;E9</title>
<path fill="none" stroke="black" d="M1098.22,-380.069C1114.63,-366.635 1139,-347.083 1161,-331 1167.16,-326.496 1173.85,-321.833 1180.31,-317.437"/>
<polygon fill="black" stroke="black" points="1182.57,-320.133 1188.91,-311.646 1178.66,-314.326 1182.57,-320.133"/>
<text text-anchor="middle" x="1193" y="-349.8" font-family="Times,serif" font-size="14.00">OUTPUT: </text>
<text text-anchor="middle" x="1193" y="-334.8" font-family="Times,serif" font-size="14.00">INPUT: </text>
</g>
<!-- E9&#45;&gt;E10 -->
<g id="edge21" class="edge"><title>E9&#45;&gt;E10</title>
<path fill="none" stroke="black" d="M1256.57,-282.425C1308.59,-268.791 1398.32,-245.867 1476,-229 1518.42,-219.789 1529.53,-219.99 1572,-211 1576.98,-209.946 1582.14,-208.812 1587.31,-207.647"/>
<polygon fill="black" stroke="black" points="1588.24,-211.024 1597.21,-205.381 1586.68,-204.2 1588.24,-211.024"/>
<text text-anchor="middle" x="1508" y="-247.8" font-family="Times,serif" font-size="14.00">OUTPUT: </text>
<text text-anchor="middle" x="1508" y="-232.8" font-family="Times,serif" font-size="14.00">INPUT: </text>
</g>
<!-- E11 -->
<g id="node12" class="node"><title>E11</title>
<ellipse fill="azure" stroke="black" cx="1386" cy="-91" rx="62.2891" ry="18"/>
<text text-anchor="middle" x="1386" y="-87.3" font-family="Times,serif" font-size="14.00">cool (S11,P0)</text>
</g>
<!-- E10&#45;&gt;E11 -->
<g id="edge25" class="edge"><title>E10&#45;&gt;E11</title>
<path fill="none" stroke="black" d="M1608.13,-178.095C1561.95,-160.197 1481.68,-129.086 1431.33,-109.57"/>
<polygon fill="black" stroke="black" points="1432.57,-106.298 1421.98,-105.947 1430.04,-112.825 1432.57,-106.298"/>
<text text-anchor="middle" x="1585" y="-145.8" font-family="Times,serif" font-size="14.00">OUTPUT: </text>
<text text-anchor="middle" x="1585" y="-130.8" font-family="Times,serif" font-size="14.00">INPUT: </text>
</g>
<!-- EOR -->
<g id="node29" class="node"><title>EOR</title>
<ellipse fill="plum" stroke="black" cx="1386" cy="-18" rx="57.3905" ry="18"/>
<text text-anchor="middle" x="1386" y="-14.3" font-family="Times,serif" font-size="14.00">Bon appetit!</text>
</g>
<!-- E11&#45;&gt;EOR -->
<g id="edge28" class="edge"><title>E11&#45;&gt;EOR</title>
<path fill="none" stroke="black" d="M1386,-72.8129C1386,-64.7895 1386,-55.0475 1386,-46.0691"/>
<polygon fill="black" stroke="black" points="1389.5,-46.0288 1386,-36.0288 1382.5,-46.0289 1389.5,-46.0288"/>
</g>
<!-- D2 -->
<g id="node13" class="node"><title>D2</title>
<polygon fill="peachpuff" stroke="black" points="412.5,-904 233.5,-904 233.5,-866 412.5,-866 412.5,-904"/>
<text text-anchor="middle" x="323" y="-888.8" font-family="Times,serif" font-size="14.00">DOBJ: raisins, warm water</text>
<text text-anchor="middle" x="323" y="-873.8" font-family="Times,serif" font-size="14.00">(text: raisins in warm water)</text>
</g>
<!-- D2&#45;&gt;E2 -->
<g id="edge1" class="edge"><title>D2&#45;&gt;E2</title>
<path fill="none" stroke="black" d="M358.833,-865.831C379.588,-855.308 405.707,-842.064 426.845,-831.346"/>
<polygon fill="black" stroke="black" points="428.532,-834.415 435.868,-826.771 425.366,-828.172 428.532,-834.415"/>
</g>
<!-- P2_0 -->
<g id="node14" class="node"><title>P2_0</title>
<polygon fill="white" stroke="black" points="785,-903 431,-903 431,-867 785,-867 785,-903"/>
<text text-anchor="middle" x="608" y="-881.3" font-family="Times,serif" font-size="14.00">PREP: in a small bowl until rehydrated , about 10 minutes</text>
</g>
<!-- P2_0&#45;&gt;E2 -->
<g id="edge2" class="edge"><title>P2_0&#45;&gt;E2</title>
<path fill="none" stroke="black" d="M574.111,-866.937C552.864,-856.239 525.423,-842.423 503.376,-831.322"/>
<polygon fill="black" stroke="black" points="504.797,-828.119 494.291,-826.748 501.649,-834.371 504.797,-828.119"/>
</g>
<!-- D0 -->
<g id="node15" class="node"><title>D0</title>
<polygon fill="white" stroke="black" points="2141.5,-415 1802.5,-415 1802.5,-379 2141.5,-379 2141.5,-415"/>
<text text-anchor="middle" x="1972" y="-393.3" font-family="Times,serif" font-size="14.00">DOBJ: the oven to 375 degrees F &#45;LRB&#45; 190 degrees C</text>
</g>
<!-- D0&#45;&gt;E0 -->
<g id="edge3" class="edge"><title>D0&#45;&gt;E0</title>
<path fill="none" stroke="black" d="M1972,-378.581C1972,-363.382 1972,-341.067 1972,-323.464"/>
<polygon fill="black" stroke="black" points="1975.5,-323.219 1972,-313.219 1968.5,-323.219 1975.5,-323.219"/>
</g>
<!-- D1 -->
<g id="node16" class="node"><title>D1</title>
<polygon fill="white" stroke="black" points="148,-726 0,-726 0,-690 148,-690 148,-726"/>
<text text-anchor="middle" x="74" y="-704.3" font-family="Times,serif" font-size="14.00">DOBJ: 12 muffin cups</text>
</g>
<!-- D1&#45;&gt;E1 -->
<g id="edge4" class="edge"><title>D1&#45;&gt;E1</title>
<path fill="none" stroke="black" d="M107.81,-689.927C143.428,-671.942 199.447,-643.655 236.931,-624.728"/>
<polygon fill="black" stroke="black" points="238.689,-627.761 246.038,-620.129 235.534,-621.513 238.689,-627.761"/>
</g>
<!-- P1_0 -->
<g id="node17" class="node"><title>P1_0</title>
<polygon fill="peachpuff" stroke="black" points="386,-727 166,-727 166,-689 386,-689 386,-727"/>
<text text-anchor="middle" x="276" y="-711.8" font-family="Times,serif" font-size="14.00">PREP: with coconut oil</text>
<text text-anchor="middle" x="276" y="-696.8" font-family="Times,serif" font-size="14.00">(text: with 2 teaspoons coconut oil)</text>
</g>
<!-- P1_0&#45;&gt;E1 -->
<g id="edge5" class="edge"><title>P1_0&#45;&gt;E1</title>
<path fill="none" stroke="black" d="M276,-688.764C276,-673.031 276,-650.083 276,-632.183"/>
<polygon fill="black" stroke="black" points="279.5,-632.06 276,-622.06 272.5,-632.06 279.5,-632.06"/>
</g>
<!-- D6 -->
<g id="node18" class="node"><title>D6</title>
<polygon fill="peachpuff" stroke="black" points="1089.5,-727 724.5,-727 724.5,-689 1089.5,-689 1089.5,-727"/>
<text text-anchor="middle" x="907" y="-711.8" font-family="Times,serif" font-size="14.00">DOBJ: eggs, ripe bananas, grated carrot, ounces applesauce</text>
<text text-anchor="middle" x="907" y="-696.8" font-family="Times,serif" font-size="14.00">(text: eggs , mashed bananas , applesauce , and grated carrot)</text>
</g>
<!-- D6&#45;&gt;E6 -->
<g id="edge6" class="edge"><title>D6&#45;&gt;E6</title>
<path fill="none" stroke="black" d="M907,-688.764C907,-673.031 907,-650.083 907,-632.183"/>
<polygon fill="black" stroke="black" points="910.5,-632.06 907,-622.06 903.5,-632.06 910.5,-632.06"/>
</g>
<!-- D5_ing -->
<g id="node19" class="node"><title>D5_ing</title>
<polygon fill="peachpuff" stroke="black" points="696,-623 520,-623 520,-585 696,-585 696,-623"/>
<text text-anchor="middle" x="608" y="-607.8" font-family="Times,serif" font-size="14.00">DOBJ: brown sugar, butter</text>
<text text-anchor="middle" x="608" y="-592.8" font-family="Times,serif" font-size="14.00">(text: brown sugar, &#160;butter )</text>
</g>
<!-- D5_ing&#45;&gt;E5 -->
<g id="edge9" class="edge"><title>D5_ing&#45;&gt;E5</title>
<path fill="none" stroke="black" d="M608,-584.764C608,-569.031 608,-546.083 608,-528.183"/>
<polygon fill="black" stroke="black" points="611.5,-528.06 608,-518.06 604.5,-528.06 611.5,-528.06"/>
</g>
<!-- O5_0_0 -->
<g id="node20" class="node"><title>O5_0_0</title>
<polygon fill="white" stroke="black" points="833.5,-622 714.5,-622 714.5,-586 833.5,-586 833.5,-622"/>
<text text-anchor="middle" x="774" y="-600.3" font-family="Times,serif" font-size="14.00">OTHER: together</text>
</g>
<!-- O5_0_0&#45;&gt;E5 -->
<g id="edge12" class="edge"><title>O5_0_0&#45;&gt;E5</title>
<path fill="none" stroke="black" d="M746.215,-585.927C717.402,-568.223 672.34,-540.534 641.557,-521.619"/>
<polygon fill="black" stroke="black" points="643.24,-518.546 632.888,-516.292 639.575,-524.51 643.24,-518.546"/>
</g>
<!-- O7_0_0 -->
<g id="node21" class="node"><title>O7_0_0</title>
<polygon fill="white" stroke="black" points="1133.5,-622 980.5,-622 980.5,-586 1133.5,-586 1133.5,-622"/>
<text text-anchor="middle" x="1057" y="-600.3" font-family="Times,serif" font-size="14.00">OTHER: to incorporate</text>
</g>
<!-- O7_0_0&#45;&gt;E7 -->
<g id="edge14" class="edge"><title>O7_0_0&#45;&gt;E7</title>
<path fill="none" stroke="black" d="M1037.92,-585.896C1021.79,-571.876 997.742,-551.975 975,-537 965.954,-531.043 955.816,-525.248 946.186,-520.11"/>
<polygon fill="black" stroke="black" points="947.645,-516.924 937.16,-515.402 944.407,-523.13 947.645,-516.924"/>
</g>
<!-- D8_ing -->
<g id="node22" class="node"><title>D8_ing</title>
<polygon fill="peachpuff" stroke="black" points="1512.5,-519 981.5,-519 981.5,-481 1512.5,-481 1512.5,-519"/>
<text text-anchor="middle" x="1247" y="-503.8" font-family="Times,serif" font-size="14.00">DOBJ: bread flour, vanilla extract, ground flax seed, whole&#45;wheat flour, baking soda, salt</text>
<text text-anchor="middle" x="1247" y="-488.8" font-family="Times,serif" font-size="14.00">(text: &#160;salt , vanilla extract, &#160;flax seed , bread flour , &#160;baking soda , &#160;whole&#45;wheat flour )</text>
</g>
<!-- D8_ing&#45;&gt;E8 -->
<g id="edge15" class="edge"><title>D8_ing&#45;&gt;E8</title>
<path fill="none" stroke="black" d="M1248.21,-480.784C1248.14,-465.899 1245.48,-445.365 1233,-433 1204.33,-404.599 1183.31,-424.109 1144,-415 1139.6,-413.98 1135.04,-412.88 1130.48,-411.747"/>
<polygon fill="black" stroke="black" points="1131.08,-408.289 1120.52,-409.232 1129.36,-415.075 1131.08,-408.289"/>
</g>
<!-- O8_0_0 -->
<g id="node23" class="node"><title>O8_0_0</title>
<polygon fill="white" stroke="black" points="1639,-518 1531,-518 1531,-482 1639,-482 1639,-518"/>
<text text-anchor="middle" x="1585" y="-496.3" font-family="Times,serif" font-size="14.00">OTHER: gently</text>
</g>
<!-- O8_0_0&#45;&gt;E8 -->
<g id="edge18" class="edge"><title>O8_0_0&#45;&gt;E8</title>
<path fill="none" stroke="black" d="M1530.79,-483.136C1527.83,-482.386 1524.88,-481.668 1522,-481 1404.12,-453.677 1373.27,-453.438 1254,-433 1205.17,-424.633 1192.46,-425.279 1144,-415 1139.39,-414.023 1134.62,-412.931 1129.85,-411.785"/>
<polygon fill="black" stroke="black" points="1130.67,-408.382 1120.12,-409.376 1128.99,-415.177 1130.67,-408.382"/>
</g>
<!-- P9_0_0 -->
<g id="node24" class="node"><title>P9_0_0</title>
<polygon fill="white" stroke="black" points="1362.5,-415 1153.5,-415 1153.5,-379 1362.5,-379 1362.5,-415"/>
<text text-anchor="middle" x="1258" y="-393.3" font-family="Times,serif" font-size="14.00">PREP: into prepared muffin cups</text>
</g>
<!-- P9_0_0&#45;&gt;E9 -->
<g id="edge20" class="edge"><title>P9_0_0&#45;&gt;E9</title>
<path fill="none" stroke="black" d="M1250.16,-378.581C1243.15,-363 1232.77,-339.943 1224.77,-322.149"/>
<polygon fill="black" stroke="black" points="1227.89,-320.569 1220.6,-312.886 1221.51,-323.441 1227.89,-320.569"/>
</g>
<!-- O10_0_0 -->
<g id="node25" class="node"><title>O10_0_0</title>
<polygon fill="white" stroke="black" points="1691,-313 1291,-313 1291,-277 1691,-277 1691,-313"/>
<text text-anchor="middle" x="1491" y="-291.3" font-family="Times,serif" font-size="14.00">OTHER: until a toothpick inserted into the center comes out clean </text>
</g>
<!-- O10_0_0&#45;&gt;E10 -->
<g id="edge23" class="edge"><title>O10_0_0&#45;&gt;E10</title>
<path fill="none" stroke="black" d="M1517.3,-276.809C1543.21,-259.879 1582.86,-233.962 1610.89,-215.638"/>
<polygon fill="black" stroke="black" points="1613.1,-218.377 1619.56,-209.977 1609.27,-212.518 1613.1,-218.377"/>
</g>
<!-- O10_0_1 -->
<g id="node26" class="node"><title>O10_0_1</title>
<polygon fill="white" stroke="black" points="1885,-313 1709,-313 1709,-277 1885,-277 1885,-313"/>
<text text-anchor="middle" x="1797" y="-291.3" font-family="Times,serif" font-size="14.00">OTHER: &#160;about 18 minutes</text>
</g>
<!-- O10_0_1&#45;&gt;E10 -->
<g id="edge24" class="edge"><title>O10_0_1&#45;&gt;E10</title>
<path fill="none" stroke="black" d="M1770.7,-276.809C1744.79,-259.879 1705.14,-233.962 1677.11,-215.638"/>
<polygon fill="black" stroke="black" points="1678.73,-212.518 1668.44,-209.977 1674.9,-218.377 1678.73,-212.518"/>
</g>
<!-- P11_0_0 -->
<g id="node27" class="node"><title>P11_0_0</title>
<polygon fill="white" stroke="black" points="1191,-211 981,-211 981,-175 1191,-175 1191,-211"/>
<text text-anchor="middle" x="1086" y="-189.3" font-family="Times,serif" font-size="14.00">PREP: in the pans for 10 minutes</text>
</g>
<!-- P11_0_0&#45;&gt;E11 -->
<g id="edge26" class="edge"><title>P11_0_0&#45;&gt;E11</title>
<path fill="none" stroke="black" d="M1137.23,-174.923C1193.12,-156.294 1281.93,-126.689 1336.95,-108.351"/>
<polygon fill="black" stroke="black" points="1338.1,-111.658 1346.48,-105.175 1335.88,-105.017 1338.1,-111.658"/>
</g>
<!-- P11_1_0 -->
<g id="node28" class="node"><title>P11_1_0</title>
<polygon fill="white" stroke="black" points="1562.5,-211 1209.5,-211 1209.5,-175 1562.5,-175 1562.5,-211"/>
<text text-anchor="middle" x="1386" y="-189.3" font-family="Times,serif" font-size="14.00">PREP: before removing to cool completely on a wire rack</text>
</g>
<!-- P11_1_0&#45;&gt;E11 -->
<g id="edge27" class="edge"><title>P11_1_0&#45;&gt;E11</title>
<path fill="none" stroke="black" d="M1386,-174.581C1386,-159.382 1386,-137.067 1386,-119.464"/>
<polygon fill="black" stroke="black" points="1389.5,-119.219 1386,-109.219 1382.5,-119.219 1389.5,-119.219"/>
</g>
</g>
</svg>
