<?xml version="1.0" encoding="UTF-8" standalone="no"?>
<!DOCTYPE svg PUBLIC "-//W3C//DTD SVG 1.1//EN"
 "http://www.w3.org/Graphics/SVG/1.1/DTD/svg11.dtd">
<!-- Generated by graphviz version 2.38.0 (20140413.2041)
 -->
<!-- Title: recipe Pages: 1 -->
<svg width="2036pt" height="502pt"
 viewBox="0.00 0.00 2035.50 502.00" xmlns="http://www.w3.org/2000/svg" xmlns:xlink="http://www.w3.org/1999/xlink">
<g id="graph0" class="graph" transform="scale(1 1) rotate(0) translate(4 498)">
<title>recipe</title>
<polygon fill="white" stroke="none" points="-4,4 -4,-498 2031.5,-498 2031.5,4 -4,4"/>
<!-- E0 -->
<g id="node1" class="node"><title>E0</title>
<ellipse fill="azure" stroke="black" cx="1858" cy="-296" rx="68.7879" ry="18"/>
<text text-anchor="middle" x="1858" y="-292.3" font-family="Times,serif" font-size="14.00">preheat (S0,P0)</text>
</g>
<!-- E4 -->
<g id="node5" class="node"><title>E4</title>
<ellipse fill="azure" stroke="black" cx="1594" cy="-193" rx="59.2899" ry="18"/>
<text text-anchor="middle" x="1594" y="-189.3" font-family="Times,serif" font-size="14.00">bake (S4,P0)</text>
</g>
<!-- E0&#45;&gt;E4 -->
<g id="edge10" class="edge"><title>E0&#45;&gt;E4</title>
<path fill="none" stroke="black" d="M1820.74,-280.743C1772.93,-262.455 1690.1,-230.764 1638.88,-211.17"/>
<polygon fill="black" stroke="black" points="1639.98,-207.843 1629.39,-207.539 1637.48,-214.381 1639.98,-207.843"/>
<text text-anchor="middle" x="1878.5" y="-247.8" font-family="Times,serif" font-size="14.00">OUTPUT: </text>
<text text-anchor="middle" x="1878.5" y="-232.8" font-family="Times,serif" font-size="14.00">INPUT: for 1 hour in the preheated oven </text>
</g>
<!-- E1 -->
<g id="node2" class="node"><title>E1</title>
<ellipse fill="azure" stroke="black" cx="673" cy="-400" rx="55.7903" ry="18"/>
<text text-anchor="middle" x="673" y="-396.3" font-family="Times,serif" font-size="14.00">mix (S1,P0)</text>
</g>
<!-- E2 -->
<g id="node3" class="node"><title>E2</title>
<ellipse fill="azure" stroke="black" cx="802" cy="-296" rx="60.3893" ry="18"/>
<text text-anchor="middle" x="802" y="-292.3" font-family="Times,serif" font-size="14.00">press (S2,P0)</text>
</g>
<!-- E1&#45;&gt;E2 -->
<g id="edge7" class="edge"><title>E1&#45;&gt;E2</title>
<path fill="none" stroke="black" d="M691.22,-382.798C706.792,-369.143 729.954,-349.282 751,-333 757.129,-328.258 763.813,-323.357 770.263,-318.755"/>
<polygon fill="black" stroke="black" points="772.684,-321.331 778.841,-312.709 768.651,-315.61 772.684,-321.331"/>
<text text-anchor="middle" x="783" y="-351.8" font-family="Times,serif" font-size="14.00">OUTPUT: </text>
<text text-anchor="middle" x="783" y="-336.8" font-family="Times,serif" font-size="14.00">INPUT: </text>
</g>
<!-- E5 -->
<g id="node6" class="node"><title>E5</title>
<ellipse fill="azure" stroke="black" cx="1059" cy="-193" rx="55.7903" ry="18"/>
<text text-anchor="middle" x="1059" y="-189.3" font-family="Times,serif" font-size="14.00">mix (S5,P0)</text>
</g>
<!-- E2&#45;&gt;E5 -->
<g id="edge14" class="edge"><title>E2&#45;&gt;E5</title>
<path fill="none" stroke="black" d="M811.893,-277.988C821.783,-262.61 838.455,-240.65 859,-229 899.705,-205.918 951.975,-197.363 992.869,-194.476"/>
<polygon fill="black" stroke="black" points="993.238,-197.96 1003.01,-193.858 992.813,-190.973 993.238,-197.96"/>
<text text-anchor="middle" x="945" y="-247.8" font-family="Times,serif" font-size="14.00">OUTPUT: </text>
<text text-anchor="middle" x="945" y="-232.8" font-family="Times,serif" font-size="14.00">INPUT: 1/2 cup brown sugar</text>
</g>
<!-- E3 -->
<g id="node4" class="node"><title>E3</title>
<ellipse fill="azure" stroke="black" cx="1478" cy="-296" rx="52.7911" ry="18"/>
<text text-anchor="middle" x="1478" y="-292.3" font-family="Times,serif" font-size="14.00">lay (S3,P0)</text>
</g>
<!-- E3&#45;&gt;E4 -->
<g id="edge9" class="edge"><title>E3&#45;&gt;E4</title>
<path fill="none" stroke="black" d="M1494.86,-278.922C1509.26,-265.341 1530.66,-245.521 1550,-229 1554.87,-224.839 1560.14,-220.512 1565.27,-216.377"/>
<polygon fill="black" stroke="black" points="1567.52,-219.057 1573.16,-210.088 1563.16,-213.583 1567.52,-219.057"/>
<text text-anchor="middle" x="1582" y="-247.8" font-family="Times,serif" font-size="14.00">OUTPUT: </text>
<text text-anchor="middle" x="1582" y="-232.8" font-family="Times,serif" font-size="14.00">INPUT: </text>
</g>
<!-- E6 -->
<g id="node7" class="node"><title>E6</title>
<ellipse fill="azure" stroke="black" cx="1384" cy="-91" rx="65.7887" ry="18"/>
<text text-anchor="middle" x="1384" y="-87.3" font-family="Times,serif" font-size="14.00">spread (S6,P0)</text>
</g>
<!-- E4&#45;&gt;E6 -->
<g id="edge15" class="edge"><title>E4&#45;&gt;E6</title>
<path fill="none" stroke="black" d="M1563.46,-177.459C1526.74,-159.97 1464.97,-130.557 1424.35,-111.212"/>
<polygon fill="black" stroke="black" points="1425.79,-108.024 1415.26,-106.885 1422.78,-114.344 1425.79,-108.024"/>
<text text-anchor="middle" x="1612.5" y="-145.8" font-family="Times,serif" font-size="14.00">OUTPUT: </text>
<text text-anchor="middle" x="1612.5" y="-130.8" font-family="Times,serif" font-size="14.00">INPUT: the top of the meat loaf</text>
</g>
<!-- E5&#45;&gt;E6 -->
<g id="edge16" class="edge"><title>E5&#45;&gt;E6</title>
<path fill="none" stroke="black" d="M1088.77,-177.704C1119.9,-163.229 1170.47,-141.032 1216,-127 1249.4,-116.707 1287.46,-108.498 1318.91,-102.624"/>
<polygon fill="black" stroke="black" points="1319.66,-106.044 1328.87,-100.8 1318.4,-99.1587 1319.66,-106.044"/>
<text text-anchor="middle" x="1335" y="-145.8" font-family="Times,serif" font-size="14.00">OUTPUT: </text>
<text text-anchor="middle" x="1335" y="-130.8" font-family="Times,serif" font-size="14.00">INPUT: for the last 15 minutes of baking</text>
</g>
<!-- EOR -->
<g id="node18" class="node"><title>EOR</title>
<ellipse fill="plum" stroke="black" cx="1384" cy="-18" rx="57.3905" ry="18"/>
<text text-anchor="middle" x="1384" y="-14.3" font-family="Times,serif" font-size="14.00">Bon appetit!</text>
</g>
<!-- E6&#45;&gt;EOR -->
<g id="edge17" class="edge"><title>E6&#45;&gt;EOR</title>
<path fill="none" stroke="black" d="M1384,-72.8129C1384,-64.7895 1384,-55.0475 1384,-46.0691"/>
<polygon fill="black" stroke="black" points="1387.5,-46.0288 1384,-36.0288 1380.5,-46.0289 1387.5,-46.0288"/>
</g>
<!-- D0 -->
<g id="node8" class="node"><title>D0</title>
<polygon fill="white" stroke="black" points="2027.5,-418 1688.5,-418 1688.5,-382 2027.5,-382 2027.5,-418"/>
<text text-anchor="middle" x="1858" y="-396.3" font-family="Times,serif" font-size="14.00">DOBJ: the oven to 350 degrees F &#45;LRB&#45; 175 degrees C</text>
</g>
<!-- D0&#45;&gt;E0 -->
<g id="edge1" class="edge"><title>D0&#45;&gt;E0</title>
<path fill="none" stroke="black" d="M1858,-381.697C1858,-365.923 1858,-342.364 1858,-324.094"/>
<polygon fill="black" stroke="black" points="1861.5,-324.047 1858,-314.047 1854.5,-324.047 1861.5,-324.047"/>
</g>
<!-- D1 -->
<g id="node9" class="node"><title>D1</title>
<polygon fill="peachpuff" stroke="black" points="572,-494 0,-494 0,-456 572,-456 572,-494"/>
<text text-anchor="middle" x="286" y="-478.8" font-family="Times,serif" font-size="14.00">DOBJ: small onion, brown sugar, eggs, ground beef, ketchup, crushed butter&#45;flavored crackers</text>
<text text-anchor="middle" x="286" y="-463.8" font-family="Times,serif" font-size="14.00">(text: ground beef , crushed crackers , onion , eggs , 3/4 cup ketchup , and 1/4 cup brown sugar)</text>
</g>
<!-- D1&#45;&gt;E1 -->
<g id="edge2" class="edge"><title>D1&#45;&gt;E1</title>
<path fill="none" stroke="black" d="M381.663,-455.955C455.237,-442.077 554.419,-423.368 616.005,-411.751"/>
<polygon fill="black" stroke="black" points="616.752,-415.172 625.93,-409.879 615.455,-408.293 616.752,-415.172"/>
</g>
<!-- P1_0 -->
<g id="node10" class="node"><title>P1_0</title>
<polygon fill="white" stroke="black" points="755.5,-493 590.5,-493 590.5,-457 755.5,-457 755.5,-493"/>
<text text-anchor="middle" x="673" y="-471.3" font-family="Times,serif" font-size="14.00">PREP: in a medium bowl</text>
</g>
<!-- P1_0&#45;&gt;E1 -->
<g id="edge3" class="edge"><title>P1_0&#45;&gt;E1</title>
<path fill="none" stroke="black" d="M673,-456.7C673,-448.245 673,-437.869 673,-428.373"/>
<polygon fill="black" stroke="black" points="676.5,-428.176 673,-418.176 669.5,-428.176 676.5,-428.176"/>
</g>
<!-- P1_1 -->
<g id="node11" class="node"><title>P1_1</title>
<polygon fill="white" stroke="black" points="938,-493 774,-493 774,-457 938,-457 938,-493"/>
<text text-anchor="middle" x="856" y="-471.3" font-family="Times,serif" font-size="14.00">PREP: until well blended</text>
</g>
<!-- P1_1&#45;&gt;E1 -->
<g id="edge4" class="edge"><title>P1_1&#45;&gt;E1</title>
<path fill="none" stroke="black" d="M813.095,-456.885C783.956,-445.261 745.555,-429.943 716.328,-418.284"/>
<polygon fill="black" stroke="black" points="717.379,-414.935 706.794,-414.481 714.786,-421.437 717.379,-414.935"/>
</g>
<!-- D3 -->
<g id="node12" class="node"><title>D3</title>
<polygon fill="peachpuff" stroke="black" points="1459.5,-419 1274.5,-419 1274.5,-381 1459.5,-381 1459.5,-419"/>
<text text-anchor="middle" x="1367" y="-403.8" font-family="Times,serif" font-size="14.00">DOBJ: slices bacon</text>
<text text-anchor="middle" x="1367" y="-388.8" font-family="Times,serif" font-size="14.00">(text: the two slices of bacon)</text>
</g>
<!-- D3&#45;&gt;E3 -->
<g id="edge5" class="edge"><title>D3&#45;&gt;E3</title>
<path fill="none" stroke="black" d="M1386.59,-380.999C1405.05,-364.035 1432.8,-338.533 1452.88,-320.08"/>
<polygon fill="black" stroke="black" points="1455.44,-322.485 1460.43,-313.141 1450.7,-317.33 1455.44,-322.485"/>
</g>
<!-- P3_0 -->
<g id="node13" class="node"><title>P3_0</title>
<polygon fill="white" stroke="black" points="1606,-418 1478,-418 1478,-382 1606,-382 1606,-418"/>
<text text-anchor="middle" x="1542" y="-396.3" font-family="Times,serif" font-size="14.00">PREP: over the top</text>
</g>
<!-- P3_0&#45;&gt;E3 -->
<g id="edge6" class="edge"><title>P3_0&#45;&gt;E3</title>
<path fill="none" stroke="black" d="M1531.14,-381.697C1520.91,-365.383 1505.45,-340.742 1493.84,-322.237"/>
<polygon fill="black" stroke="black" points="1496.76,-320.32 1488.48,-313.709 1490.83,-324.04 1496.76,-320.32"/>
</g>
<!-- P2_0_0 -->
<g id="node14" class="node"><title>P2_0_0</title>
<polygon fill="white" stroke="black" points="943.5,-418 746.5,-418 746.5,-382 943.5,-382 943.5,-418"/>
<text text-anchor="middle" x="845" y="-396.3" font-family="Times,serif" font-size="14.00">PREP: into a 9x5 inch loaf pan</text>
</g>
<!-- P2_0_0&#45;&gt;E2 -->
<g id="edge8" class="edge"><title>P2_0_0&#45;&gt;E2</title>
<path fill="none" stroke="black" d="M837.706,-381.697C830.962,-365.702 820.845,-341.702 813.099,-323.329"/>
<polygon fill="black" stroke="black" points="816.296,-321.902 809.187,-314.047 809.846,-324.622 816.296,-321.902"/>
</g>
<!-- P4_0_1 -->
<g id="node15" class="node"><title>P4_0_1</title>
<polygon fill="white" stroke="black" points="1771.5,-314 1548.5,-314 1548.5,-278 1771.5,-278 1771.5,-314"/>
<text text-anchor="middle" x="1660" y="-292.3" font-family="Times,serif" font-size="14.00">PREP: for &#160;or until cooked through</text>
</g>
<!-- P4_0_1&#45;&gt;E4 -->
<g id="edge11" class="edge"><title>P4_0_1&#45;&gt;E4</title>
<path fill="none" stroke="black" d="M1648.8,-277.867C1638.31,-261.809 1622.49,-237.605 1610.55,-219.32"/>
<polygon fill="black" stroke="black" points="1613.43,-217.337 1605.03,-210.88 1607.57,-221.166 1613.43,-217.337"/>
</g>
<!-- D5_ing -->
<g id="node16" class="node"><title>D5_ing</title>
<polygon fill="peachpuff" stroke="black" points="1160,-315 880,-315 880,-277 1160,-277 1160,-315"/>
<text text-anchor="middle" x="1020" y="-299.8" font-family="Times,serif" font-size="14.00">DOBJ: vinegar, prepared yellow mustard, salt</text>
<text text-anchor="middle" x="1020" y="-284.8" font-family="Times,serif" font-size="14.00">(text: &#160;salt , &#160;mustard, &#160;vinegar )</text>
</g>
<!-- D5_ing&#45;&gt;E5 -->
<g id="edge12" class="edge"><title>D5_ing&#45;&gt;E5</title>
<path fill="none" stroke="black" d="M1026.97,-276.943C1033.02,-261.291 1041.84,-238.427 1048.7,-220.667"/>
<polygon fill="black" stroke="black" points="1052.14,-221.482 1052.48,-210.893 1045.61,-218.961 1052.14,-221.482"/>
</g>
<!-- D5_0 -->
<g id="node17" class="node"><title>D5_0</title>
<polygon fill="white" stroke="black" points="1407.5,-314 1178.5,-314 1178.5,-278 1407.5,-278 1407.5,-314"/>
<text text-anchor="middle" x="1293" y="-292.3" font-family="Times,serif" font-size="14.00">DOBJ: the remaining 1 cup ketchup </text>
</g>
<!-- D5_0&#45;&gt;E5 -->
<g id="edge13" class="edge"><title>D5_0&#45;&gt;E5</title>
<path fill="none" stroke="black" d="M1253.57,-277.981C1211.07,-259.635 1143.71,-230.561 1100.44,-211.886"/>
<polygon fill="black" stroke="black" points="1101.62,-208.586 1091.06,-207.836 1098.85,-215.013 1101.62,-208.586"/>
</g>
</g>
</svg>
