<?xml version="1.0" encoding="UTF-8" standalone="no"?>
<!DOCTYPE svg PUBLIC "-//W3C//DTD SVG 1.1//EN"
 "http://www.w3.org/Graphics/SVG/1.1/DTD/svg11.dtd">
<!-- Generated by graphviz version 2.38.0 (20140413.2041)
 -->
<!-- Title: recipe Pages: 1 -->
<svg width="1269pt" height="1012pt"
 viewBox="0.00 0.00 1268.50 1012.00" xmlns="http://www.w3.org/2000/svg" xmlns:xlink="http://www.w3.org/1999/xlink">
<g id="graph0" class="graph" transform="scale(1 1) rotate(0) translate(4 1008)">
<title>recipe</title>
<polygon fill="white" stroke="none" points="-4,4 -4,-1008 1264.5,-1008 1264.5,4 -4,4"/>
<!-- E0 -->
<g id="node1" class="node"><title>E0</title>
<ellipse fill="azure" stroke="black" cx="1111.5" cy="-911" rx="60.3893" ry="18"/>
<text text-anchor="middle" x="1111.5" y="-907.3" font-family="Times,serif" font-size="14.00">place (S0,P0)</text>
</g>
<!-- E1 -->
<g id="node2" class="node"><title>E1</title>
<ellipse fill="azure" stroke="black" cx="985.5" cy="-809" rx="61.99" ry="18"/>
<text text-anchor="middle" x="985.5" y="-805.3" font-family="Times,serif" font-size="14.00">cover (S0,P1)</text>
</g>
<!-- E0&#45;&gt;E1 -->
<g id="edge5" class="edge"><title>E0&#45;&gt;E1</title>
<path fill="none" stroke="black" d="M1091.26,-893.933C1070.22,-877.24 1037.15,-850.993 1013.59,-832.297"/>
<polygon fill="black" stroke="black" points="1015.7,-829.502 1005.69,-826.027 1011.35,-834.985 1015.7,-829.502"/>
<text text-anchor="middle" x="1098.5" y="-863.8" font-family="Times,serif" font-size="14.00">OUTPUT: </text>
<text text-anchor="middle" x="1098.5" y="-848.8" font-family="Times,serif" font-size="14.00">INPUT: </text>
</g>
<!-- E2 -->
<g id="node3" class="node"><title>E2</title>
<ellipse fill="azure" stroke="black" cx="985.5" cy="-706" rx="61.1893" ry="18"/>
<text text-anchor="middle" x="985.5" y="-702.3" font-family="Times,serif" font-size="14.00">drain (S2,P0)</text>
</g>
<!-- E1&#45;&gt;E2 -->
<g id="edge7" class="edge"><title>E1&#45;&gt;E2</title>
<path fill="none" stroke="black" d="M985.5,-790.867C985.5,-775.414 985.5,-752.416 985.5,-734.409"/>
<polygon fill="black" stroke="black" points="989,-734.217 985.5,-724.217 982,-734.217 989,-734.217"/>
<text text-anchor="middle" x="1044.5" y="-761.8" font-family="Times,serif" font-size="14.00">OUTPUT: </text>
<text text-anchor="middle" x="1044.5" y="-746.8" font-family="Times,serif" font-size="14.00">INPUT: the potatoes</text>
</g>
<!-- E3 -->
<g id="node4" class="node"><title>E3</title>
<ellipse fill="azure" stroke="black" cx="985.5" cy="-603" rx="62.2891" ry="18"/>
<text text-anchor="middle" x="985.5" y="-599.3" font-family="Times,serif" font-size="14.00">allow (S2,P1)</text>
</g>
<!-- E2&#45;&gt;E3 -->
<g id="edge8" class="edge"><title>E2&#45;&gt;E3</title>
<path fill="none" stroke="black" d="M985.5,-687.867C985.5,-672.414 985.5,-649.416 985.5,-631.409"/>
<polygon fill="black" stroke="black" points="989,-631.217 985.5,-621.217 982,-631.217 989,-631.217"/>
<text text-anchor="middle" x="1017.5" y="-657.8" font-family="Times,serif" font-size="14.00">OUTPUT: </text>
<text text-anchor="middle" x="1017.5" y="-642.8" font-family="Times,serif" font-size="14.00">INPUT: </text>
</g>
<!-- E4 -->
<g id="node5" class="node"><title>E4</title>
<ellipse fill="azure" stroke="black" cx="985.5" cy="-501" rx="56.59" ry="18"/>
<text text-anchor="middle" x="985.5" y="-497.3" font-family="Times,serif" font-size="14.00">dice (S3,P0)</text>
</g>
<!-- E3&#45;&gt;E4 -->
<g id="edge9" class="edge"><title>E3&#45;&gt;E4</title>
<path fill="none" stroke="black" d="M985.5,-584.581C985.5,-569.382 985.5,-547.067 985.5,-529.464"/>
<polygon fill="black" stroke="black" points="989,-529.219 985.5,-519.219 982,-529.219 989,-529.219"/>
<text text-anchor="middle" x="1017.5" y="-555.8" font-family="Times,serif" font-size="14.00">OUTPUT: </text>
<text text-anchor="middle" x="1017.5" y="-540.8" font-family="Times,serif" font-size="14.00">INPUT: </text>
</g>
<!-- E5 -->
<g id="node6" class="node"><title>E5</title>
<ellipse fill="azure" stroke="black" cx="985.5" cy="-399" rx="66.0889" ry="18"/>
<text text-anchor="middle" x="985.5" y="-395.3" font-family="Times,serif" font-size="14.00">cooled (S3,P1)</text>
</g>
<!-- E4&#45;&gt;E5 -->
<g id="edge10" class="edge"><title>E4&#45;&gt;E5</title>
<path fill="none" stroke="black" d="M985.5,-482.581C985.5,-467.382 985.5,-445.067 985.5,-427.464"/>
<polygon fill="black" stroke="black" points="989,-427.219 985.5,-417.219 982,-427.219 989,-427.219"/>
<text text-anchor="middle" x="1017.5" y="-453.8" font-family="Times,serif" font-size="14.00">OUTPUT: </text>
<text text-anchor="middle" x="1017.5" y="-438.8" font-family="Times,serif" font-size="14.00">INPUT: </text>
</g>
<!-- E10 -->
<g id="node11" class="node"><title>E10</title>
<ellipse fill="azure" stroke="black" cx="865.5" cy="-296" rx="60.3893" ry="18"/>
<text text-anchor="middle" x="865.5" y="-292.3" font-family="Times,serif" font-size="14.00">place (S7,P0)</text>
</g>
<!-- E5&#45;&gt;E10 -->
<g id="edge14" class="edge"><title>E5&#45;&gt;E10</title>
<path fill="none" stroke="black" d="M983.815,-380.954C981.525,-366.452 976.139,-345.968 963.5,-333 953.118,-322.348 939.322,-314.826 925.368,-309.522"/>
<polygon fill="black" stroke="black" points="926.316,-306.147 915.722,-306.193 924.033,-312.764 926.316,-306.147"/>
<text text-anchor="middle" x="1058.5" y="-351.8" font-family="Times,serif" font-size="14.00">OUTPUT: </text>
<text text-anchor="middle" x="1058.5" y="-336.8" font-family="Times,serif" font-size="14.00">INPUT: the cooled potatoes</text>
</g>
<!-- E6 -->
<g id="node7" class="node"><title>E6</title>
<ellipse fill="azure" stroke="black" cx="575.5" cy="-603" rx="60.3893" ry="18"/>
<text text-anchor="middle" x="575.5" y="-599.3" font-family="Times,serif" font-size="14.00">place (S4,P0)</text>
</g>
<!-- E8 -->
<g id="node9" class="node"><title>E8</title>
<ellipse fill="azure" stroke="black" cx="745.5" cy="-501" rx="61.1893" ry="18"/>
<text text-anchor="middle" x="745.5" y="-497.3" font-family="Times,serif" font-size="14.00">drain (S5,P0)</text>
</g>
<!-- E6&#45;&gt;E8 -->
<g id="edge11" class="edge"><title>E6&#45;&gt;E8</title>
<path fill="none" stroke="black" d="M579.889,-584.781C584.554,-569.961 593.39,-549.109 608.5,-537 627.776,-521.553 653.066,-512.842 676.663,-507.958"/>
<polygon fill="black" stroke="black" points="677.463,-511.369 686.649,-506.09 676.176,-504.488 677.463,-511.369"/>
<text text-anchor="middle" x="678" y="-555.8" font-family="Times,serif" font-size="14.00">OUTPUT: </text>
<text text-anchor="middle" x="678" y="-540.8" font-family="Times,serif" font-size="14.00">INPUT: the bacon slices</text>
</g>
<!-- E7 -->
<g id="node8" class="node"><title>E7</title>
<ellipse fill="azure" stroke="black" cx="763.5" cy="-603" rx="59.5901" ry="18"/>
<text text-anchor="middle" x="763.5" y="-599.3" font-family="Times,serif" font-size="14.00">cook (S4,P1)</text>
</g>
<!-- E7&#45;&gt;E8 -->
<g id="edge12" class="edge"><title>E7&#45;&gt;E8</title>
<path fill="none" stroke="black" d="M760.365,-584.581C757.629,-569.382 753.612,-547.067 750.444,-529.464"/>
<polygon fill="black" stroke="black" points="753.816,-528.441 748.599,-519.219 746.926,-529.681 753.816,-528.441"/>
<text text-anchor="middle" x="862" y="-555.8" font-family="Times,serif" font-size="14.00">OUTPUT: </text>
<text text-anchor="middle" x="862" y="-540.8" font-family="Times,serif" font-size="14.00">INPUT: on a paper towel&#45;lined plate</text>
</g>
<!-- E9 -->
<g id="node10" class="node"><title>E9</title>
<ellipse fill="azure" stroke="black" cx="745.5" cy="-399" rx="62.2891" ry="18"/>
<text text-anchor="middle" x="745.5" y="-395.3" font-family="Times,serif" font-size="14.00">allow (S6,P0)</text>
</g>
<!-- E8&#45;&gt;E9 -->
<g id="edge13" class="edge"><title>E8&#45;&gt;E9</title>
<path fill="none" stroke="black" d="M745.5,-482.581C745.5,-467.382 745.5,-445.067 745.5,-427.464"/>
<polygon fill="black" stroke="black" points="749,-427.219 745.5,-417.219 742,-427.219 749,-427.219"/>
<text text-anchor="middle" x="777.5" y="-453.8" font-family="Times,serif" font-size="14.00">OUTPUT: </text>
<text text-anchor="middle" x="777.5" y="-438.8" font-family="Times,serif" font-size="14.00">INPUT: </text>
</g>
<!-- E9&#45;&gt;E10 -->
<g id="edge15" class="edge"><title>E9&#45;&gt;E10</title>
<path fill="none" stroke="black" d="M739.238,-381.055C735.153,-366.813 732.272,-346.651 742.5,-333 744.782,-329.954 779.77,-319.878 811.847,-311.158"/>
<polygon fill="black" stroke="black" points="812.928,-314.491 821.669,-308.504 811.102,-307.734 812.928,-314.491"/>
<text text-anchor="middle" x="851" y="-351.8" font-family="Times,serif" font-size="14.00">OUTPUT: </text>
<text text-anchor="middle" x="851" y="-336.8" font-family="Times,serif" font-size="14.00">INPUT: into the bowl with the bacon</text>
</g>
<!-- E11 -->
<g id="node12" class="node"><title>E11</title>
<ellipse fill="azure" stroke="black" cx="519.5" cy="-193" rx="55.7903" ry="18"/>
<text text-anchor="middle" x="519.5" y="-189.3" font-family="Times,serif" font-size="14.00">mix (S7,P1)</text>
</g>
<!-- E10&#45;&gt;E11 -->
<g id="edge16" class="edge"><title>E10&#45;&gt;E11</title>
<path fill="none" stroke="black" d="M823.764,-282.817C759.779,-264.139 637.678,-228.497 569.21,-208.511"/>
<polygon fill="black" stroke="black" points="570.091,-205.122 559.511,-205.679 568.129,-211.841 570.091,-205.122"/>
<text text-anchor="middle" x="765.5" y="-247.8" font-family="Times,serif" font-size="14.00">OUTPUT: </text>
<text text-anchor="middle" x="765.5" y="-232.8" font-family="Times,serif" font-size="14.00">INPUT: </text>
</g>
<!-- E12 -->
<g id="node13" class="node"><title>E12</title>
<ellipse fill="azure" stroke="black" cx="418.5" cy="-91" rx="79.8859" ry="18"/>
<text text-anchor="middle" x="418.5" y="-87.3" font-family="Times,serif" font-size="14.00">refrigerate (S8,P0)</text>
</g>
<!-- E11&#45;&gt;E12 -->
<g id="edge18" class="edge"><title>E11&#45;&gt;E12</title>
<path fill="none" stroke="black" d="M502.822,-175.487C486.545,-159.372 461.594,-134.667 443.051,-116.308"/>
<polygon fill="black" stroke="black" points="445.109,-113.42 435.54,-108.872 440.184,-118.395 445.109,-113.42"/>
<text text-anchor="middle" x="515.5" y="-145.8" font-family="Times,serif" font-size="14.00">OUTPUT: </text>
<text text-anchor="middle" x="515.5" y="-130.8" font-family="Times,serif" font-size="14.00">INPUT: </text>
</g>
<!-- EOR -->
<g id="node21" class="node"><title>EOR</title>
<ellipse fill="plum" stroke="black" cx="418.5" cy="-18" rx="57.3905" ry="18"/>
<text text-anchor="middle" x="418.5" y="-14.3" font-family="Times,serif" font-size="14.00">Bon appetit!</text>
</g>
<!-- E12&#45;&gt;EOR -->
<g id="edge20" class="edge"><title>E12&#45;&gt;EOR</title>
<path fill="none" stroke="black" d="M418.5,-72.8129C418.5,-64.7895 418.5,-55.0475 418.5,-46.0691"/>
<polygon fill="black" stroke="black" points="422,-46.0288 418.5,-36.0288 415,-46.0289 422,-46.0288"/>
</g>
<!-- D7 -->
<g id="node14" class="node"><title>D7</title>
<polygon fill="white" stroke="black" points="850.5,-724 684.5,-724 684.5,-688 850.5,-688 850.5,-724"/>
<text text-anchor="middle" x="767.5" y="-702.3" font-family="Times,serif" font-size="14.00">DOBJ: medium&#45;high heat</text>
</g>
<!-- D7&#45;&gt;E7 -->
<g id="edge1" class="edge"><title>D7&#45;&gt;E7</title>
<path fill="none" stroke="black" d="M766.821,-687.867C766.209,-672.414 765.299,-649.416 764.586,-631.409"/>
<polygon fill="black" stroke="black" points="768.075,-631.071 764.182,-621.217 761.08,-631.348 768.075,-631.071"/>
</g>
<!-- D6 -->
<g id="node15" class="node"><title>D6</title>
<polygon fill="peachpuff" stroke="black" points="666.5,-725 424.5,-725 424.5,-687 666.5,-687 666.5,-725"/>
<text text-anchor="middle" x="545.5" y="-709.8" font-family="Times,serif" font-size="14.00">DOBJ: slices bacon</text>
<text text-anchor="middle" x="545.5" y="-694.8" font-family="Times,serif" font-size="14.00">(text: the bacon in a large , deep skillet)</text>
</g>
<!-- D6&#45;&gt;E6 -->
<g id="edge2" class="edge"><title>D6&#45;&gt;E6</title>
<path fill="none" stroke="black" d="M550.863,-686.943C555.484,-671.386 562.222,-648.704 567.483,-630.99"/>
<polygon fill="black" stroke="black" points="570.891,-631.809 570.383,-621.226 564.181,-629.816 570.891,-631.809"/>
</g>
<!-- D0 -->
<g id="node16" class="node"><title>D0</title>
<polygon fill="peachpuff" stroke="black" points="1096.5,-1004 974.5,-1004 974.5,-966 1096.5,-966 1096.5,-1004"/>
<text text-anchor="middle" x="1035.5" y="-988.8" font-family="Times,serif" font-size="14.00">DOBJ: potatoes</text>
<text text-anchor="middle" x="1035.5" y="-973.8" font-family="Times,serif" font-size="14.00">(text: the potatoes)</text>
</g>
<!-- D0&#45;&gt;E0 -->
<g id="edge3" class="edge"><title>D0&#45;&gt;E0</title>
<path fill="none" stroke="black" d="M1054.68,-965.831C1064.44,-956.579 1076.43,-945.225 1086.87,-935.333"/>
<polygon fill="black" stroke="black" points="1089.29,-937.858 1094.15,-928.439 1084.48,-932.776 1089.29,-937.858"/>
</g>
<!-- P0_0 -->
<g id="node17" class="node"><title>P0_0</title>
<polygon fill="white" stroke="black" points="1260.5,-1003 1114.5,-1003 1114.5,-967 1260.5,-967 1260.5,-1003"/>
<text text-anchor="middle" x="1187.5" y="-981.3" font-family="Times,serif" font-size="14.00">PREP: into a large pot</text>
</g>
<!-- P0_0&#45;&gt;E0 -->
<g id="edge4" class="edge"><title>P0_0&#45;&gt;E0</title>
<path fill="none" stroke="black" d="M1169.49,-966.937C1159.6,-957.567 1147.18,-945.805 1136.38,-935.571"/>
<polygon fill="black" stroke="black" points="1138.53,-932.782 1128.86,-928.445 1133.71,-937.863 1138.53,-932.782"/>
</g>
<!-- P1_0_0 -->
<g id="node18" class="node"><title>P1_0_0</title>
<polygon fill="white" stroke="black" points="1033,-929 834,-929 834,-893 1033,-893 1033,-929"/>
<text text-anchor="middle" x="933.5" y="-907.3" font-family="Times,serif" font-size="14.00">PREP: with lightly salted water</text>
</g>
<!-- P1_0_0&#45;&gt;E1 -->
<g id="edge6" class="edge"><title>P1_0_0&#45;&gt;E1</title>
<path fill="none" stroke="black" d="M942.558,-892.581C950.66,-877 962.65,-853.943 971.902,-836.149"/>
<polygon fill="black" stroke="black" points="975.211,-837.373 976.719,-826.886 969.001,-834.143 975.211,-837.373"/>
</g>
<!-- P11_0_ing -->
<g id="node19" class="node"><title>P11_0_ing</title>
<polygon fill="peachpuff" stroke="black" points="787,-315 0,-315 0,-277 787,-277 787,-315"/>
<text text-anchor="middle" x="393.5" y="-299.8" font-family="Times,serif" font-size="14.00">PREP: in shredded Cheddar cheese, dried chives, (16 ounce) container reduced&#45;fat sour cream, ground black pepper, mayonnaise, salt</text>
<text text-anchor="middle" x="393.5" y="-284.8" font-family="Times,serif" font-size="14.00">(text: in &#160;salt , &#160;cheddar cheese , &#160;chives , the sour cream , pepper, &#160;mayonnaise )</text>
</g>
<!-- P11_0_ing&#45;&gt;E11 -->
<g id="edge17" class="edge"><title>P11_0_ing&#45;&gt;E11</title>
<path fill="none" stroke="black" d="M416.026,-276.943C437.209,-259.964 468.978,-234.498 491.722,-216.267"/>
<polygon fill="black" stroke="black" points="494.043,-218.892 499.657,-209.906 489.665,-213.43 494.043,-218.892"/>
</g>
<!-- P12_0_0 -->
<g id="node20" class="node"><title>P12_0_0</title>
<polygon fill="white" stroke="black" points="445.5,-211 303.5,-211 303.5,-175 445.5,-175 445.5,-211"/>
<text text-anchor="middle" x="374.5" y="-189.3" font-family="Times,serif" font-size="14.00">PREP: before serving</text>
</g>
<!-- P12_0_0&#45;&gt;E12 -->
<g id="edge19" class="edge"><title>P12_0_0&#45;&gt;E12</title>
<path fill="none" stroke="black" d="M382.164,-174.581C388.978,-159.095 399.042,-136.222 406.852,-118.473"/>
<polygon fill="black" stroke="black" points="410.1,-119.782 410.924,-109.219 403.693,-116.963 410.1,-119.782"/>
</g>
</g>
</svg>
