<?xml version="1.0" encoding="UTF-8" standalone="no"?>
<!DOCTYPE svg PUBLIC "-//W3C//DTD SVG 1.1//EN"
 "http://www.w3.org/Graphics/SVG/1.1/DTD/svg11.dtd">
<!-- Generated by graphviz version 2.38.0 (20140413.2041)
 -->
<!-- Title: recipe Pages: 1 -->
<svg width="1361pt" height="1010pt"
 viewBox="0.00 0.00 1360.50 1010.00" xmlns="http://www.w3.org/2000/svg" xmlns:xlink="http://www.w3.org/1999/xlink">
<g id="graph0" class="graph" transform="scale(1 1) rotate(0) translate(4 1006)">
<title>recipe</title>
<polygon fill="white" stroke="none" points="-4,4 -4,-1006 1356.5,-1006 1356.5,4 -4,4"/>
<!-- E0 -->
<g id="node1" class="node"><title>E0</title>
<ellipse fill="azure" stroke="black" cx="1193.5" cy="-703" rx="68.7879" ry="18"/>
<text text-anchor="middle" x="1193.5" y="-699.3" font-family="Times,serif" font-size="14.00">preheat (S0,P0)</text>
</g>
<!-- E1 -->
<g id="node2" class="node"><title>E1</title>
<ellipse fill="azure" stroke="black" cx="1020.5" cy="-601" rx="61.99" ry="18"/>
<text text-anchor="middle" x="1020.5" y="-597.3" font-family="Times,serif" font-size="14.00">spray (S1,P0)</text>
</g>
<!-- E0&#45;&gt;E1 -->
<g id="edge4" class="edge"><title>E0&#45;&gt;E1</title>
<path fill="none" stroke="black" d="M1166.47,-686.375C1136.67,-669.153 1088.63,-641.384 1055.87,-622.443"/>
<polygon fill="black" stroke="black" points="1057.47,-619.326 1047.06,-617.351 1053.96,-625.386 1057.47,-619.326"/>
<text text-anchor="middle" x="1218.5" y="-655.8" font-family="Times,serif" font-size="14.00">OUTPUT: </text>
<text text-anchor="middle" x="1218.5" y="-640.8" font-family="Times,serif" font-size="14.00">INPUT: non&#45;stick muffin pan</text>
</g>
<!-- E6 -->
<g id="node7" class="node"><title>E6</title>
<ellipse fill="azure" stroke="black" cx="956.5" cy="-499" rx="64.189" ry="18"/>
<text text-anchor="middle" x="956.5" y="-495.3" font-family="Times,serif" font-size="14.00">spoon (S5,P0)</text>
</g>
<!-- E1&#45;&gt;E6 -->
<g id="edge12" class="edge"><title>E1&#45;&gt;E6</title>
<path fill="none" stroke="black" d="M1009.64,-583.036C999.621,-567.377 984.592,-543.893 973.07,-525.891"/>
<polygon fill="black" stroke="black" points="975.749,-523.583 967.41,-517.047 969.853,-527.356 975.749,-523.583"/>
<text text-anchor="middle" x="1095" y="-553.8" font-family="Times,serif" font-size="14.00">OUTPUT: </text>
<text text-anchor="middle" x="1095" y="-538.8" font-family="Times,serif" font-size="14.00">INPUT: into prepared muffin pan</text>
</g>
<!-- E2 -->
<g id="node3" class="node"><title>E2</title>
<ellipse fill="azure" stroke="black" cx="409.5" cy="-908" rx="73.387" ry="18"/>
<text text-anchor="middle" x="409.5" y="-904.3" font-family="Times,serif" font-size="14.00">combine (S2,P0)</text>
</g>
<!-- E3 -->
<g id="node4" class="node"><title>E3</title>
<ellipse fill="azure" stroke="black" cx="722.5" cy="-805" rx="64.189" ry="18"/>
<text text-anchor="middle" x="722.5" y="-801.3" font-family="Times,serif" font-size="14.00">whisk (S3,P0)</text>
</g>
<!-- E2&#45;&gt;E3 -->
<g id="edge7" class="edge"><title>E2&#45;&gt;E3</title>
<path fill="none" stroke="black" d="M451.854,-893.144C492.903,-879.735 556.936,-858.872 612.5,-841 631.825,-834.784 653.079,-828.007 671.71,-822.087"/>
<polygon fill="black" stroke="black" points="673.003,-825.349 681.475,-818.986 670.884,-818.677 673.003,-825.349"/>
<text text-anchor="middle" x="683.5" y="-859.8" font-family="Times,serif" font-size="14.00">OUTPUT: </text>
<text text-anchor="middle" x="683.5" y="-844.8" font-family="Times,serif" font-size="14.00">INPUT: in another bowl</text>
</g>
<!-- E4 -->
<g id="node5" class="node"><title>E4</title>
<ellipse fill="azure" stroke="black" cx="856.5" cy="-703" rx="59.5901" ry="18"/>
<text text-anchor="middle" x="856.5" y="-699.3" font-family="Times,serif" font-size="14.00">pour (S4,P0)</text>
</g>
<!-- E3&#45;&gt;E4 -->
<g id="edge8" class="edge"><title>E3&#45;&gt;E4</title>
<path fill="none" stroke="black" d="M740.839,-787.499C756.293,-773.895 779.226,-754.403 800.5,-739 807.16,-734.178 814.484,-729.311 821.576,-724.802"/>
<polygon fill="black" stroke="black" points="823.74,-727.578 830.369,-719.313 820.033,-721.64 823.74,-727.578"/>
<text text-anchor="middle" x="832.5" y="-757.8" font-family="Times,serif" font-size="14.00">OUTPUT: </text>
<text text-anchor="middle" x="832.5" y="-742.8" font-family="Times,serif" font-size="14.00">INPUT: </text>
</g>
<!-- E5 -->
<g id="node6" class="node"><title>E5</title>
<ellipse fill="azure" stroke="black" cx="879.5" cy="-601" rx="53.0913" ry="18"/>
<text text-anchor="middle" x="879.5" y="-597.3" font-family="Times,serif" font-size="14.00">stir (S4,P1)</text>
</g>
<!-- E4&#45;&gt;E5 -->
<g id="edge10" class="edge"><title>E4&#45;&gt;E5</title>
<path fill="none" stroke="black" d="M860.402,-685.036C863.937,-669.665 869.207,-646.752 873.316,-628.887"/>
<polygon fill="black" stroke="black" points="876.749,-629.577 875.579,-619.047 869.927,-628.008 876.749,-629.577"/>
<text text-anchor="middle" x="902.5" y="-655.8" font-family="Times,serif" font-size="14.00">OUTPUT: </text>
<text text-anchor="middle" x="902.5" y="-640.8" font-family="Times,serif" font-size="14.00">INPUT: </text>
</g>
<!-- E5&#45;&gt;E6 -->
<g id="edge11" class="edge"><title>E5&#45;&gt;E6</title>
<path fill="none" stroke="black" d="M885.06,-583.001C890.174,-569.102 898.747,-549.453 910.5,-535 914.231,-530.411 918.683,-526.08 923.325,-522.131"/>
<polygon fill="black" stroke="black" points="925.562,-524.824 931.224,-515.869 921.213,-519.339 925.562,-524.824"/>
<text text-anchor="middle" x="942.5" y="-553.8" font-family="Times,serif" font-size="14.00">OUTPUT: </text>
<text text-anchor="middle" x="942.5" y="-538.8" font-family="Times,serif" font-size="14.00">INPUT: </text>
</g>
<!-- E7 -->
<g id="node8" class="node"><title>E7</title>
<ellipse fill="azure" stroke="black" cx="691.5" cy="-397" rx="59.2899" ry="18"/>
<text text-anchor="middle" x="691.5" y="-393.3" font-family="Times,serif" font-size="14.00">bake (S6,P0)</text>
</g>
<!-- E6&#45;&gt;E7 -->
<g id="edge13" class="edge"><title>E6&#45;&gt;E7</title>
<path fill="none" stroke="black" d="M919.653,-484.095C871.822,-466.046 788.383,-434.56 736.755,-415.077"/>
<polygon fill="black" stroke="black" points="737.779,-411.723 727.187,-411.467 735.308,-418.272 737.779,-411.723"/>
<text text-anchor="middle" x="894.5" y="-451.8" font-family="Times,serif" font-size="14.00">OUTPUT: </text>
<text text-anchor="middle" x="894.5" y="-436.8" font-family="Times,serif" font-size="14.00">INPUT: </text>
</g>
<!-- E8 -->
<g id="node9" class="node"><title>E8</title>
<ellipse fill="azure" stroke="black" cx="587.5" cy="-295" rx="50.0912" ry="18"/>
<text text-anchor="middle" x="587.5" y="-291.3" font-family="Times,serif" font-size="14.00">let (S7,P0)</text>
</g>
<!-- E7&#45;&gt;E8 -->
<g id="edge15" class="edge"><title>E7&#45;&gt;E8</title>
<path fill="none" stroke="black" d="M674.327,-379.487C657.213,-363.032 630.786,-337.622 611.581,-319.155"/>
<polygon fill="black" stroke="black" points="613.988,-316.614 604.354,-312.206 609.136,-321.66 613.988,-316.614"/>
<text text-anchor="middle" x="686.5" y="-349.8" font-family="Times,serif" font-size="14.00">OUTPUT: </text>
<text text-anchor="middle" x="686.5" y="-334.8" font-family="Times,serif" font-size="14.00">INPUT: </text>
</g>
<!-- E9 -->
<g id="node10" class="node"><title>E9</title>
<ellipse fill="azure" stroke="black" cx="587.5" cy="-193" rx="69.5877" ry="18"/>
<text text-anchor="middle" x="587.5" y="-189.3" font-family="Times,serif" font-size="14.00">transfer (S8,P0)</text>
</g>
<!-- E8&#45;&gt;E9 -->
<g id="edge17" class="edge"><title>E8&#45;&gt;E9</title>
<path fill="none" stroke="black" d="M587.5,-276.581C587.5,-261.382 587.5,-239.067 587.5,-221.464"/>
<polygon fill="black" stroke="black" points="591,-221.219 587.5,-211.219 584,-221.219 591,-221.219"/>
<text text-anchor="middle" x="619.5" y="-247.8" font-family="Times,serif" font-size="14.00">OUTPUT: </text>
<text text-anchor="middle" x="619.5" y="-232.8" font-family="Times,serif" font-size="14.00">INPUT: </text>
</g>
<!-- E10 -->
<g id="node11" class="node"><title>E10</title>
<ellipse fill="azure" stroke="black" cx="407.5" cy="-91" rx="65.7887" ry="18"/>
<text text-anchor="middle" x="407.5" y="-87.3" font-family="Times,serif" font-size="14.00">spread (S9,P0)</text>
</g>
<!-- E9&#45;&gt;E10 -->
<g id="edge18" class="edge"><title>E9&#45;&gt;E10</title>
<path fill="none" stroke="black" d="M559.375,-176.375C528.375,-159.153 478.392,-131.384 444.298,-112.443"/>
<polygon fill="black" stroke="black" points="445.574,-109.148 435.132,-107.351 442.174,-115.267 445.574,-109.148"/>
<text text-anchor="middle" x="582.5" y="-145.8" font-family="Times,serif" font-size="14.00">OUTPUT: </text>
<text text-anchor="middle" x="582.5" y="-130.8" font-family="Times,serif" font-size="14.00">INPUT: each muffin</text>
</g>
<!-- EOR -->
<g id="node21" class="node"><title>EOR</title>
<ellipse fill="plum" stroke="black" cx="407.5" cy="-18" rx="57.3905" ry="18"/>
<text text-anchor="middle" x="407.5" y="-14.3" font-family="Times,serif" font-size="14.00">Bon appetit!</text>
</g>
<!-- E10&#45;&gt;EOR -->
<g id="edge20" class="edge"><title>E10&#45;&gt;EOR</title>
<path fill="none" stroke="black" d="M407.5,-72.8129C407.5,-64.7895 407.5,-55.0475 407.5,-46.0691"/>
<polygon fill="black" stroke="black" points="411,-46.0288 407.5,-36.0288 404,-46.0289 411,-46.0288"/>
</g>
<!-- D0 -->
<g id="node12" class="node"><title>D0</title>
<polygon fill="white" stroke="black" points="1352.5,-823 1034.5,-823 1034.5,-787 1352.5,-787 1352.5,-823"/>
<text text-anchor="middle" x="1193.5" y="-801.3" font-family="Times,serif" font-size="14.00">DOBJ: oven to 350 degrees F &#45;LRB&#45; 180 degrees C</text>
</g>
<!-- D0&#45;&gt;E0 -->
<g id="edge1" class="edge"><title>D0&#45;&gt;E0</title>
<path fill="none" stroke="black" d="M1193.5,-786.581C1193.5,-771.382 1193.5,-749.067 1193.5,-731.464"/>
<polygon fill="black" stroke="black" points="1197,-731.219 1193.5,-721.219 1190,-731.219 1197,-731.219"/>
</g>
<!-- D2 -->
<g id="node13" class="node"><title>D2</title>
<polygon fill="peachpuff" stroke="black" points="485,-1002 0,-1002 0,-964 485,-964 485,-1002"/>
<text text-anchor="middle" x="242.5" y="-986.8" font-family="Times,serif" font-size="14.00">DOBJ: baking powder, quick&#45;cooking rolled oats, all&#45;purpose flour, baking soda</text>
<text text-anchor="middle" x="242.5" y="-971.8" font-family="Times,serif" font-size="14.00">(text: flours , oats , baking powder and baking soda)</text>
</g>
<!-- D2&#45;&gt;E2 -->
<g id="edge2" class="edge"><title>D2&#45;&gt;E2</title>
<path fill="none" stroke="black" d="M283.781,-963.955C308.704,-953.06 340.438,-939.189 365.786,-928.108"/>
<polygon fill="black" stroke="black" points="367.401,-931.223 375.162,-924.01 364.597,-924.809 367.401,-931.223"/>
</g>
<!-- P2_0 -->
<g id="node14" class="node"><title>P2_0</title>
<polygon fill="white" stroke="black" points="649.5,-1001 503.5,-1001 503.5,-965 649.5,-965 649.5,-1001"/>
<text text-anchor="middle" x="576.5" y="-979.3" font-family="Times,serif" font-size="14.00">PREP: in a large bowl</text>
</g>
<!-- P2_0&#45;&gt;E2 -->
<g id="edge3" class="edge"><title>P2_0&#45;&gt;E2</title>
<path fill="none" stroke="black" d="M537.346,-964.885C512.102,-953.85 479.241,-939.486 453.156,-928.083"/>
<polygon fill="black" stroke="black" points="454.444,-924.827 443.879,-924.028 451.64,-931.241 454.444,-924.827"/>
</g>
<!-- P1_0_0 -->
<g id="node15" class="node"><title>P1_0_0</title>
<polygon fill="white" stroke="black" points="1106.5,-721 934.5,-721 934.5,-685 1106.5,-685 1106.5,-721"/>
<text text-anchor="middle" x="1020.5" y="-699.3" font-family="Times,serif" font-size="14.00">PREP: with cooking spray</text>
</g>
<!-- P1_0_0&#45;&gt;E1 -->
<g id="edge5" class="edge"><title>P1_0_0&#45;&gt;E1</title>
<path fill="none" stroke="black" d="M1020.5,-684.581C1020.5,-669.382 1020.5,-647.067 1020.5,-629.464"/>
<polygon fill="black" stroke="black" points="1024,-629.219 1020.5,-619.219 1017,-629.219 1024,-629.219"/>
</g>
<!-- D3_ing -->
<g id="node16" class="node"><title>D3_ing</title>
<polygon fill="peachpuff" stroke="black" points="1154,-927 501,-927 501,-889 1154,-889 1154,-927"/>
<text text-anchor="middle" x="827.5" y="-911.8" font-family="Times,serif" font-size="14.00">DOBJ: eggs, vanilla or maple extract, buttermilk, unsweetened applesauce, over&#45;ripe bananas, granulated sugar</text>
<text text-anchor="middle" x="827.5" y="-896.8" font-family="Times,serif" font-size="14.00">(text: bananas , &#160;eggs , &#160;applesauce , &#160;sugar , &#160;buttermilk, vanilla)</text>
</g>
<!-- D3_ing&#45;&gt;E3 -->
<g id="edge6" class="edge"><title>D3_ing&#45;&gt;E3</title>
<path fill="none" stroke="black" d="M808.728,-888.943C791.592,-872.46 766.143,-847.98 747.33,-829.884"/>
<polygon fill="black" stroke="black" points="749.351,-826.971 739.717,-822.561 744.498,-832.016 749.351,-826.971"/>
</g>
<!-- P4_0_0 -->
<g id="node17" class="node"><title>P4_0_0</title>
<polygon fill="white" stroke="black" points="980.5,-823 804.5,-823 804.5,-787 980.5,-787 980.5,-823"/>
<text text-anchor="middle" x="892.5" y="-801.3" font-family="Times,serif" font-size="14.00">PREP: over dry ingredients</text>
</g>
<!-- P4_0_0&#45;&gt;E4 -->
<g id="edge9" class="edge"><title>P4_0_0&#45;&gt;E4</title>
<path fill="none" stroke="black" d="M886.229,-786.581C880.706,-771.238 872.572,-748.645 866.208,-730.968"/>
<polygon fill="black" stroke="black" points="869.379,-729.442 862.699,-721.219 862.793,-731.813 869.379,-729.442"/>
</g>
<!-- P7_0_0 -->
<g id="node18" class="node"><title>P7_0_0</title>
<polygon fill="white" stroke="black" points="874.5,-517 308.5,-517 308.5,-481 874.5,-481 874.5,-517"/>
<text text-anchor="middle" x="591.5" y="-495.3" font-family="Times,serif" font-size="14.00">PREP: for 20 to 25 minutes or until a tester inserted into the center of a muffin comes out clean</text>
</g>
<!-- P7_0_0&#45;&gt;E7 -->
<g id="edge14" class="edge"><title>P7_0_0&#45;&gt;E7</title>
<path fill="none" stroke="black" d="M608.919,-480.581C625.175,-464.325 649.569,-439.931 667.633,-421.867"/>
<polygon fill="black" stroke="black" points="670.349,-424.101 674.945,-414.555 665.399,-419.151 670.349,-424.101"/>
</g>
<!-- P8_0_0 -->
<g id="node19" class="node"><title>P8_0_0</title>
<polygon fill="white" stroke="black" points="614.5,-415 470.5,-415 470.5,-379 614.5,-379 614.5,-415"/>
<text text-anchor="middle" x="542.5" y="-393.3" font-family="Times,serif" font-size="14.00">PREP: for 10 minutes</text>
</g>
<!-- P8_0_0&#45;&gt;E8 -->
<g id="edge16" class="edge"><title>P8_0_0&#45;&gt;E8</title>
<path fill="none" stroke="black" d="M550.338,-378.581C557.35,-363 567.726,-339.943 575.733,-322.149"/>
<polygon fill="black" stroke="black" points="578.989,-323.441 579.901,-312.886 572.606,-320.569 578.989,-323.441"/>
</g>
<!-- P10_0_0 -->
<g id="node20" class="node"><title>P10_0_0</title>
<polygon fill="white" stroke="black" points="500,-211 175,-211 175,-175 500,-175 500,-211"/>
<text text-anchor="middle" x="337.5" y="-189.3" font-family="Times,serif" font-size="14.00">PREP: with 1 tablespoon &#45;lrb&#45; 15 ml &#45;rrb&#45; of nutella </text>
</g>
<!-- P10_0_0&#45;&gt;E10 -->
<g id="edge19" class="edge"><title>P10_0_0&#45;&gt;E10</title>
<path fill="none" stroke="black" d="M349.693,-174.581C360.802,-158.712 377.339,-135.087 389.884,-117.166"/>
<polygon fill="black" stroke="black" points="392.813,-119.085 395.68,-108.886 387.078,-115.071 392.813,-119.085"/>
</g>
</g>
</svg>
