<?xml version="1.0" encoding="UTF-8" standalone="no"?>
<!DOCTYPE svg PUBLIC "-//W3C//DTD SVG 1.1//EN"
 "http://www.w3.org/Graphics/SVG/1.1/DTD/svg11.dtd">
<!-- Generated by graphviz version 2.38.0 (20140413.2041)
 -->
<!-- Title: recipe Pages: 1 -->
<svg width="884pt" height="604pt"
 viewBox="0.00 0.00 883.50 604.00" xmlns="http://www.w3.org/2000/svg" xmlns:xlink="http://www.w3.org/1999/xlink">
<g id="graph0" class="graph" transform="scale(1 1) rotate(0) translate(4 600)">
<title>recipe</title>
<polygon fill="white" stroke="none" points="-4,4 -4,-600 879.5,-600 879.5,4 -4,4"/>
<!-- E0 -->
<g id="node1" class="node"><title>E0</title>
<ellipse fill="azure" stroke="black" cx="615" cy="-502" rx="69.5877" ry="18"/>
<text text-anchor="middle" x="615" y="-498.3" font-family="Times,serif" font-size="14.00">prepare (S0,P0)</text>
</g>
<!-- E1 -->
<g id="node2" class="node"><title>E1</title>
<ellipse fill="azure" stroke="black" cx="462" cy="-398" rx="53.0913" ry="18"/>
<text text-anchor="middle" x="462" y="-394.3" font-family="Times,serif" font-size="14.00">stir (S1,P0)</text>
</g>
<!-- E0&#45;&gt;E1 -->
<g id="edge2" class="edge"><title>E0&#45;&gt;E1</title>
<path fill="none" stroke="black" d="M591.094,-485.062C564.893,-467.595 522.738,-439.492 493.771,-420.181"/>
<polygon fill="black" stroke="black" points="495.499,-417.126 485.237,-414.492 491.616,-422.951 495.499,-417.126"/>
<text text-anchor="middle" x="588" y="-453.8" font-family="Times,serif" font-size="14.00">OUTPUT: </text>
<text text-anchor="middle" x="588" y="-438.8" font-family="Times,serif" font-size="14.00">INPUT: </text>
</g>
<!-- E2 -->
<g id="node3" class="node"><title>E2</title>
<ellipse fill="azure" stroke="black" cx="309" cy="-295" rx="73.387" ry="18"/>
<text text-anchor="middle" x="309" y="-291.3" font-family="Times,serif" font-size="14.00">combine (S2,P0)</text>
</g>
<!-- E1&#45;&gt;E2 -->
<g id="edge6" class="edge"><title>E1&#45;&gt;E2</title>
<path fill="none" stroke="black" d="M438.763,-381.66C413.005,-364.657 371.253,-337.095 342.087,-317.842"/>
<polygon fill="black" stroke="black" points="343.745,-314.742 333.471,-312.154 339.888,-320.584 343.745,-314.742"/>
<text text-anchor="middle" x="444" y="-349.8" font-family="Times,serif" font-size="14.00">OUTPUT: </text>
<text text-anchor="middle" x="444" y="-334.8" font-family="Times,serif" font-size="14.00">INPUT: mayo</text>
</g>
<!-- E3 -->
<g id="node4" class="node"><title>E3</title>
<ellipse fill="azure" stroke="black" cx="167" cy="-193" rx="55.7903" ry="18"/>
<text text-anchor="middle" x="167" y="-189.3" font-family="Times,serif" font-size="14.00">mix (S2,P1)</text>
</g>
<!-- E2&#45;&gt;E3 -->
<g id="edge8" class="edge"><title>E2&#45;&gt;E3</title>
<path fill="none" stroke="black" d="M285.869,-277.711C261.863,-260.805 224.19,-234.275 197.703,-215.622"/>
<polygon fill="black" stroke="black" points="199.376,-212.519 189.185,-209.623 195.346,-218.243 199.376,-212.519"/>
<text text-anchor="middle" x="291" y="-247.8" font-family="Times,serif" font-size="14.00">OUTPUT: </text>
<text text-anchor="middle" x="291" y="-232.8" font-family="Times,serif" font-size="14.00">INPUT: </text>
</g>
<!-- E4 -->
<g id="node5" class="node"><title>E4</title>
<ellipse fill="azure" stroke="black" cx="167" cy="-91" rx="65.7887" ry="18"/>
<text text-anchor="middle" x="167" y="-87.3" font-family="Times,serif" font-size="14.00">season (S3,P0)</text>
</g>
<!-- E3&#45;&gt;E4 -->
<g id="edge10" class="edge"><title>E3&#45;&gt;E4</title>
<path fill="none" stroke="black" d="M167,-174.581C167,-159.382 167,-137.067 167,-119.464"/>
<polygon fill="black" stroke="black" points="170.5,-119.219 167,-109.219 163.5,-119.219 170.5,-119.219"/>
<text text-anchor="middle" x="199" y="-145.8" font-family="Times,serif" font-size="14.00">OUTPUT: </text>
<text text-anchor="middle" x="199" y="-130.8" font-family="Times,serif" font-size="14.00">INPUT: </text>
</g>
<!-- EOR -->
<g id="node12" class="node"><title>EOR</title>
<ellipse fill="plum" stroke="black" cx="167" cy="-18" rx="57.3905" ry="18"/>
<text text-anchor="middle" x="167" y="-14.3" font-family="Times,serif" font-size="14.00">Bon appetit!</text>
</g>
<!-- E4&#45;&gt;EOR -->
<g id="edge11" class="edge"><title>E4&#45;&gt;EOR</title>
<path fill="none" stroke="black" d="M167,-72.8129C167,-64.7895 167,-55.0475 167,-46.0691"/>
<polygon fill="black" stroke="black" points="170.5,-46.0288 167,-36.0288 163.5,-46.0289 170.5,-46.0288"/>
</g>
<!-- D0 -->
<g id="node6" class="node"><title>D0</title>
<polygon fill="peachpuff" stroke="black" points="875.5,-596 354.5,-596 354.5,-558 875.5,-558 875.5,-596"/>
<text text-anchor="middle" x="615" y="-580.8" font-family="Times,serif" font-size="14.00">DOBJ: (4 ounce) package Idahoan® Baby Reds® Flavored Mashed Potatoes, red onion</text>
<text text-anchor="middle" x="615" y="-565.8" font-family="Times,serif" font-size="14.00">(text: Idahoan Baby Reds following package instructions)</text>
</g>
<!-- D0&#45;&gt;E0 -->
<g id="edge1" class="edge"><title>D0&#45;&gt;E0</title>
<path fill="none" stroke="black" d="M615,-557.955C615,-549.701 615,-539.738 615,-530.574"/>
<polygon fill="black" stroke="black" points="618.5,-530.335 615,-520.335 611.5,-530.335 618.5,-530.335"/>
</g>
<!-- P1_0_ing -->
<g id="node7" class="node"><title>P1_0_ing</title>
<polygon fill="peachpuff" stroke="black" points="378.5,-521 25.5,-521 25.5,-483 378.5,-483 378.5,-521"/>
<text text-anchor="middle" x="202" y="-505.8" font-family="Times,serif" font-size="14.00">PREP: in radishes, hard&#45;boiled egg, celery seed, dill pickle</text>
<text text-anchor="middle" x="202" y="-490.8" font-family="Times,serif" font-size="14.00">(text: in &#160;radishes , &#160;celery, &#160;hard&#45;boiled egg , pickles )</text>
</g>
<!-- P1_0_ing&#45;&gt;E1 -->
<g id="edge3" class="edge"><title>P1_0_ing&#45;&gt;E1</title>
<path fill="none" stroke="black" d="M247.884,-482.999C296.302,-464.005 371.999,-434.308 419.213,-415.786"/>
<polygon fill="black" stroke="black" points="420.516,-419.034 428.547,-412.124 417.959,-412.518 420.516,-419.034"/>
</g>
<!-- P1_0_0 -->
<g id="node8" class="node"><title>P1_0_0</title>
<polygon fill="white" stroke="black" points="527.5,-520 396.5,-520 396.5,-484 527.5,-484 527.5,-520"/>
<text text-anchor="middle" x="462" y="-498.3" font-family="Times,serif" font-size="14.00">PREP: in red onion</text>
</g>
<!-- P1_0_0&#45;&gt;E1 -->
<g id="edge4" class="edge"><title>P1_0_0&#45;&gt;E1</title>
<path fill="none" stroke="black" d="M462,-483.697C462,-467.923 462,-444.364 462,-426.094"/>
<polygon fill="black" stroke="black" points="465.5,-426.047 462,-416.047 458.5,-426.047 465.5,-426.047"/>
</g>
<!-- D2_ing -->
<g id="node9" class="node"><title>D2_ing</title>
<polygon fill="peachpuff" stroke="black" points="209,-417 59,-417 59,-379 209,-379 209,-417"/>
<text text-anchor="middle" x="134" y="-401.8" font-family="Times,serif" font-size="14.00">DOBJ: yellow mustard</text>
<text text-anchor="middle" x="134" y="-386.8" font-family="Times,serif" font-size="14.00">(text: mustards)</text>
</g>
<!-- D2_ing&#45;&gt;E2 -->
<g id="edge5" class="edge"><title>D2_ing&#45;&gt;E2</title>
<path fill="none" stroke="black" d="M165.286,-378.943C195.441,-361.54 241.043,-335.221 272.762,-316.915"/>
<polygon fill="black" stroke="black" points="274.809,-319.774 281.721,-311.744 271.31,-313.711 274.809,-319.774"/>
</g>
<!-- P2_0_0 -->
<g id="node10" class="node"><title>P2_0_0</title>
<polygon fill="white" stroke="black" points="391,-416 227,-416 227,-380 391,-380 391,-416"/>
<text text-anchor="middle" x="309" y="-394.3" font-family="Times,serif" font-size="14.00">PREP: in a separate bowl</text>
</g>
<!-- P2_0_0&#45;&gt;E2 -->
<g id="edge7" class="edge"><title>P2_0_0&#45;&gt;E2</title>
<path fill="none" stroke="black" d="M309,-379.867C309,-364.414 309,-341.416 309,-323.409"/>
<polygon fill="black" stroke="black" points="312.5,-323.217 309,-313.217 305.5,-323.217 312.5,-323.217"/>
</g>
<!-- P3_0_0 -->
<g id="node11" class="node"><title>P3_0_0</title>
<polygon fill="white" stroke="black" points="218,-313 0,-313 0,-277 218,-277 218,-313"/>
<text text-anchor="middle" x="109" y="-291.3" font-family="Times,serif" font-size="14.00">PREP: into mashed potato mixture</text>
</g>
<!-- P3_0_0&#45;&gt;E3 -->
<g id="edge9" class="edge"><title>P3_0_0&#45;&gt;E3</title>
<path fill="none" stroke="black" d="M119.103,-276.581C128.223,-260.856 141.761,-237.516 152.119,-219.656"/>
<polygon fill="black" stroke="black" points="155.217,-221.292 157.206,-210.886 149.161,-217.78 155.217,-221.292"/>
</g>
</g>
</svg>
