<?xml version="1.0" encoding="UTF-8" standalone="no"?>
<!DOCTYPE svg PUBLIC "-//W3C//DTD SVG 1.1//EN"
 "http://www.w3.org/Graphics/SVG/1.1/DTD/svg11.dtd">
<!-- Generated by graphviz version 2.38.0 (20140413.2041)
 -->
<!-- Title: recipe Pages: 1 -->
<svg width="2869pt" height="1020pt"
 viewBox="0.00 0.00 2869.00 1020.00" xmlns="http://www.w3.org/2000/svg" xmlns:xlink="http://www.w3.org/1999/xlink">
<g id="graph0" class="graph" transform="scale(1 1) rotate(0) translate(4 1016)">
<title>recipe</title>
<polygon fill="white" stroke="none" points="-4,4 -4,-1016 2865,-1016 2865,4 -4,4"/>
<!-- E0 -->
<g id="node1" class="node"><title>E0</title>
<ellipse fill="azure" stroke="black" cx="2594.5" cy="-918" rx="73.387" ry="18"/>
<text text-anchor="middle" x="2594.5" y="-914.3" font-family="Times,serif" font-size="14.00">combine (S0,P0)</text>
</g>
<!-- E1 -->
<g id="node2" class="node"><title>E1</title>
<ellipse fill="azure" stroke="black" cx="2455.5" cy="-814" rx="65.7887" ry="18"/>
<text text-anchor="middle" x="2455.5" y="-810.3" font-family="Times,serif" font-size="14.00">season (S1,P0)</text>
</g>
<!-- E0&#45;&gt;E1 -->
<g id="edge6" class="edge"><title>E0&#45;&gt;E1</title>
<path fill="none" stroke="black" d="M2572.17,-900.612C2548.72,-883.41 2511.73,-856.26 2485.69,-837.156"/>
<polygon fill="black" stroke="black" points="2487.45,-834.106 2477.32,-831.011 2483.31,-839.749 2487.45,-834.106"/>
<text text-anchor="middle" x="2573.5" y="-869.8" font-family="Times,serif" font-size="14.00">OUTPUT: </text>
<text text-anchor="middle" x="2573.5" y="-854.8" font-family="Times,serif" font-size="14.00">INPUT: </text>
</g>
<!-- E2 -->
<g id="node3" class="node"><title>E2</title>
<ellipse fill="azure" stroke="black" cx="2340.5" cy="-710" rx="71.4873" ry="18"/>
<text text-anchor="middle" x="2340.5" y="-706.3" font-family="Times,serif" font-size="14.00">blot dry (S2,P0)</text>
</g>
<!-- E1&#45;&gt;E2 -->
<g id="edge8" class="edge"><title>E1&#45;&gt;E2</title>
<path fill="none" stroke="black" d="M2437.02,-796.612C2418.02,-779.76 2388.26,-753.361 2366.81,-734.332"/>
<polygon fill="black" stroke="black" points="2369.12,-731.703 2359.31,-727.686 2364.47,-736.94 2369.12,-731.703"/>
<text text-anchor="middle" x="2443.5" y="-765.8" font-family="Times,serif" font-size="14.00">OUTPUT: </text>
<text text-anchor="middle" x="2443.5" y="-750.8" font-family="Times,serif" font-size="14.00">INPUT: </text>
</g>
<!-- E3 -->
<g id="node4" class="node"><title>E3</title>
<ellipse fill="azure" stroke="black" cx="2213.5" cy="-606" rx="54.6905" ry="18"/>
<text text-anchor="middle" x="2213.5" y="-602.3" font-family="Times,serif" font-size="14.00">rub (S2,P1)</text>
</g>
<!-- E2&#45;&gt;E3 -->
<g id="edge10" class="edge"><title>E2&#45;&gt;E3</title>
<path fill="none" stroke="black" d="M2320.1,-692.612C2298.77,-675.484 2265.17,-648.496 2241.4,-629.405"/>
<polygon fill="black" stroke="black" points="2243.42,-626.544 2233.44,-623.011 2239.04,-632.002 2243.42,-626.544"/>
<text text-anchor="middle" x="2323.5" y="-661.8" font-family="Times,serif" font-size="14.00">OUTPUT: </text>
<text text-anchor="middle" x="2323.5" y="-646.8" font-family="Times,serif" font-size="14.00">INPUT: </text>
</g>
<!-- E8 -->
<g id="node9" class="node"><title>E8</title>
<ellipse fill="azure" stroke="black" cx="1789.5" cy="-502" rx="90.1842" ry="18"/>
<text text-anchor="middle" x="1789.5" y="-498.3" font-family="Times,serif" font-size="14.00">cook and stir (S7,P0)</text>
</g>
<!-- E3&#45;&gt;E8 -->
<g id="edge20" class="edge"><title>E3&#45;&gt;E8</title>
<path fill="none" stroke="black" d="M2174.26,-593.464C2166.41,-591.247 2158.21,-588.997 2150.5,-587 2049.21,-560.763 1930.95,-533.967 1858.15,-517.907"/>
<polygon fill="black" stroke="black" points="1858.7,-514.446 1848.18,-515.714 1857.19,-521.282 1858.7,-514.446"/>
<text text-anchor="middle" x="2196.5" y="-557.8" font-family="Times,serif" font-size="14.00">OUTPUT: </text>
<text text-anchor="middle" x="2196.5" y="-542.8" font-family="Times,serif" font-size="14.00">INPUT: a pinch of salt until onion is tender</text>
</g>
<!-- E4 -->
<g id="node5" class="node"><title>E4</title>
<ellipse fill="azure" stroke="black" cx="243.5" cy="-606" rx="56.59" ry="18"/>
<text text-anchor="middle" x="243.5" y="-602.3" font-family="Times,serif" font-size="14.00">heat (S3,P0)</text>
</g>
<!-- E7 -->
<g id="node8" class="node"><title>E7</title>
<ellipse fill="azure" stroke="black" cx="585.5" cy="-502" rx="59.5901" ry="18"/>
<text text-anchor="middle" x="585.5" y="-498.3" font-family="Times,serif" font-size="14.00">wipe (S6,P0)</text>
</g>
<!-- E4&#45;&gt;E7 -->
<g id="edge16" class="edge"><title>E4&#45;&gt;E7</title>
<path fill="none" stroke="black" d="M236.729,-587.876C232.118,-573.066 228.752,-552.037 240.5,-539 258.586,-518.928 420.858,-509.306 516.273,-505.347"/>
<polygon fill="black" stroke="black" points="516.576,-508.838 526.426,-504.937 516.293,-501.844 516.576,-508.838"/>
<text text-anchor="middle" x="385" y="-557.8" font-family="Times,serif" font-size="14.00">OUTPUT: </text>
<text text-anchor="middle" x="385" y="-542.8" font-family="Times,serif" font-size="14.00">INPUT: heat remaining 1Ê1/2 teaspoon canola oil</text>
</g>
<!-- E5 -->
<g id="node6" class="node"><title>E5</title>
<ellipse fill="azure" stroke="black" cx="1437.5" cy="-710" rx="52.7911" ry="18"/>
<text text-anchor="middle" x="1437.5" y="-706.3" font-family="Times,serif" font-size="14.00">fry (S4,P0)</text>
</g>
<!-- E6 -->
<g id="node7" class="node"><title>E6</title>
<ellipse fill="azure" stroke="black" cx="1531.5" cy="-606" rx="69.5877" ry="18"/>
<text text-anchor="middle" x="1531.5" y="-602.3" font-family="Times,serif" font-size="14.00">transfer (S5,P0)</text>
</g>
<!-- E5&#45;&gt;E6 -->
<g id="edge12" class="edge"><title>E5&#45;&gt;E6</title>
<path fill="none" stroke="black" d="M1431.41,-691.975C1427.43,-677.626 1424.61,-657.219 1434.5,-643 1441.78,-632.528 1452.49,-625.095 1464.16,-619.822"/>
<polygon fill="black" stroke="black" points="1465.68,-622.984 1473.68,-616.039 1463.1,-616.479 1465.68,-622.984"/>
<text text-anchor="middle" x="1520.5" y="-661.8" font-family="Times,serif" font-size="14.00">OUTPUT: </text>
<text text-anchor="middle" x="1520.5" y="-646.8" font-family="Times,serif" font-size="14.00">INPUT: browned pork chops</text>
</g>
<!-- E6&#45;&gt;E8 -->
<g id="edge19" class="edge"><title>E6&#45;&gt;E8</title>
<path fill="none" stroke="black" d="M1551.69,-588.491C1571.05,-573.467 1601.66,-551.747 1631.5,-539 1655.94,-528.561 1683.85,-520.924 1709.35,-515.443"/>
<polygon fill="black" stroke="black" points="1710.28,-518.825 1719.37,-513.372 1708.87,-511.97 1710.28,-518.825"/>
<text text-anchor="middle" x="1708.5" y="-557.8" font-family="Times,serif" font-size="14.00">OUTPUT: </text>
<text text-anchor="middle" x="1708.5" y="-542.8" font-family="Times,serif" font-size="14.00">INPUT: &#160;about 10 minutes</text>
</g>
<!-- E11 -->
<g id="node12" class="node"><title>E11</title>
<ellipse fill="azure" stroke="black" cx="1038.5" cy="-399" rx="61.1893" ry="18"/>
<text text-anchor="middle" x="1038.5" y="-395.3" font-family="Times,serif" font-size="14.00">mix (S10,P0)</text>
</g>
<!-- E7&#45;&gt;E11 -->
<g id="edge25" class="edge"><title>E7&#45;&gt;E11</title>
<path fill="none" stroke="black" d="M628.227,-489.366C636.59,-487.181 645.306,-484.967 653.5,-483 768.513,-455.396 903.882,-427.2 979.583,-411.815"/>
<polygon fill="black" stroke="black" points="980.306,-415.24 989.411,-409.822 978.915,-408.38 980.306,-415.24"/>
<text text-anchor="middle" x="936" y="-453.8" font-family="Times,serif" font-size="14.00">OUTPUT: </text>
<text text-anchor="middle" x="936" y="-438.8" font-family="Times,serif" font-size="14.00">INPUT: &#160;remaining beer </text>
</g>
<!-- E10 -->
<g id="node11" class="node"><title>E10</title>
<ellipse fill="azure" stroke="black" cx="1487.5" cy="-399" rx="65.7887" ry="18"/>
<text text-anchor="middle" x="1487.5" y="-395.3" font-family="Times,serif" font-size="14.00">spread (S9,P0)</text>
</g>
<!-- E8&#45;&gt;E10 -->
<g id="edge22" class="edge"><title>E8&#45;&gt;E10</title>
<path fill="none" stroke="black" d="M1747.13,-485.988C1708.5,-472.39 1649.8,-451.948 1598.5,-435 1579.14,-428.604 1557.79,-421.812 1539.04,-415.93"/>
<polygon fill="black" stroke="black" points="1540.08,-412.588 1529.49,-412.944 1537.99,-419.269 1540.08,-412.588"/>
<text text-anchor="middle" x="1727" y="-453.8" font-family="Times,serif" font-size="14.00">OUTPUT: </text>
<text text-anchor="middle" x="1727" y="-438.8" font-family="Times,serif" font-size="14.00">INPUT: onions</text>
</g>
<!-- E9 -->
<g id="node10" class="node"><title>E9</title>
<ellipse fill="azure" stroke="black" cx="1487.5" cy="-502" rx="55.4913" ry="18"/>
<text text-anchor="middle" x="1487.5" y="-498.3" font-family="Times,serif" font-size="14.00">add (S8,P0)</text>
</g>
<!-- E9&#45;&gt;E10 -->
<g id="edge23" class="edge"><title>E9&#45;&gt;E10</title>
<path fill="none" stroke="black" d="M1487.5,-483.867C1487.5,-468.414 1487.5,-445.416 1487.5,-427.409"/>
<polygon fill="black" stroke="black" points="1491,-427.217 1487.5,-417.217 1484,-427.217 1491,-427.217"/>
<text text-anchor="middle" x="1541" y="-453.8" font-family="Times,serif" font-size="14.00">OUTPUT: </text>
<text text-anchor="middle" x="1541" y="-438.8" font-family="Times,serif" font-size="14.00">INPUT: over pork</text>
</g>
<!-- E12 -->
<g id="node13" class="node"><title>E12</title>
<ellipse fill="azure" stroke="black" cx="1308.5" cy="-297" rx="64.189" ry="18"/>
<text text-anchor="middle" x="1308.5" y="-293.3" font-family="Times,serif" font-size="14.00">pour (S11,P0)</text>
</g>
<!-- E10&#45;&gt;E12 -->
<g id="edge27" class="edge"><title>E10&#45;&gt;E12</title>
<path fill="none" stroke="black" d="M1459.92,-382.594C1429.18,-365.417 1379.31,-337.556 1345.26,-318.537"/>
<polygon fill="black" stroke="black" points="1346.54,-315.245 1336.11,-313.423 1343.13,-321.356 1346.54,-315.245"/>
<text text-anchor="middle" x="1477" y="-351.8" font-family="Times,serif" font-size="14.00">OUTPUT: </text>
<text text-anchor="middle" x="1477" y="-336.8" font-family="Times,serif" font-size="14.00">INPUT: over pork</text>
</g>
<!-- E11&#45;&gt;E12 -->
<g id="edge26" class="edge"><title>E11&#45;&gt;E12</title>
<path fill="none" stroke="black" d="M1074.91,-384.514C1123.29,-366.596 1208.8,-334.925 1261.86,-315.276"/>
<polygon fill="black" stroke="black" points="1263.21,-318.508 1271.37,-311.753 1260.77,-311.944 1263.21,-318.508"/>
<text text-anchor="middle" x="1244.5" y="-351.8" font-family="Times,serif" font-size="14.00">OUTPUT: </text>
<text text-anchor="middle" x="1244.5" y="-336.8" font-family="Times,serif" font-size="14.00">INPUT: </text>
</g>
<!-- E13 -->
<g id="node14" class="node"><title>E13</title>
<ellipse fill="azure" stroke="black" cx="1147.5" cy="-194" rx="64.9885" ry="18"/>
<text text-anchor="middle" x="1147.5" y="-190.3" font-family="Times,serif" font-size="14.00">cook (S12,P0)</text>
</g>
<!-- E12&#45;&gt;E13 -->
<g id="edge28" class="edge"><title>E12&#45;&gt;E13</title>
<path fill="none" stroke="black" d="M1283.34,-280.219C1255.81,-262.949 1211.55,-235.18 1181.07,-216.061"/>
<polygon fill="black" stroke="black" points="1182.81,-213.02 1172.48,-210.67 1179.09,-218.95 1182.81,-213.02"/>
<text text-anchor="middle" x="1315.5" y="-249.8" font-family="Times,serif" font-size="14.00">OUTPUT: </text>
<text text-anchor="middle" x="1315.5" y="-234.8" font-family="Times,serif" font-size="14.00">INPUT: pork on Low</text>
</g>
<!-- E14 -->
<g id="node15" class="node"><title>E14</title>
<ellipse fill="azure" stroke="black" cx="1033.5" cy="-91" rx="108.581" ry="18"/>
<text text-anchor="middle" x="1033.5" y="-87.3" font-family="Times,serif" font-size="14.00">shred and divide (S13,P0)</text>
</g>
<!-- E13&#45;&gt;E14 -->
<g id="edge32" class="edge"><title>E13&#45;&gt;E14</title>
<path fill="none" stroke="black" d="M1128.93,-176.548C1110.24,-159.993 1081.25,-134.301 1060.12,-115.581"/>
<polygon fill="black" stroke="black" points="1062.25,-112.793 1052.44,-108.782 1057.61,-118.033 1062.25,-112.793"/>
<text text-anchor="middle" x="1136.5" y="-145.8" font-family="Times,serif" font-size="14.00">OUTPUT: </text>
<text text-anchor="middle" x="1136.5" y="-130.8" font-family="Times,serif" font-size="14.00">INPUT: &#160;</text>
</g>
<!-- EOR -->
<g id="node34" class="node"><title>EOR</title>
<ellipse fill="plum" stroke="black" cx="1033.5" cy="-18" rx="57.3905" ry="18"/>
<text text-anchor="middle" x="1033.5" y="-14.3" font-family="Times,serif" font-size="14.00">Bon appetit!</text>
</g>
<!-- E14&#45;&gt;EOR -->
<g id="edge33" class="edge"><title>E14&#45;&gt;EOR</title>
<path fill="none" stroke="black" d="M1033.5,-72.8129C1033.5,-64.7895 1033.5,-55.0475 1033.5,-46.0691"/>
<polygon fill="black" stroke="black" points="1037,-46.0288 1033.5,-36.0288 1030,-46.0289 1037,-46.0288"/>
</g>
<!-- D5 -->
<g id="node16" class="node"><title>D5</title>
<polygon fill="peachpuff" stroke="black" points="1400,-833 1219,-833 1219,-795 1400,-795 1400,-833"/>
<text text-anchor="middle" x="1309.5" y="-817.8" font-family="Times,serif" font-size="14.00">DOBJ: (3 pound) pork roast</text>
<text text-anchor="middle" x="1309.5" y="-802.8" font-family="Times,serif" font-size="14.00">(text: pork chops in batches)</text>
</g>
<!-- D5&#45;&gt;E5 -->
<g id="edge1" class="edge"><title>D5&#45;&gt;E5</title>
<path fill="none" stroke="black" d="M1332.09,-794.999C1353.69,-777.783 1386.33,-751.774 1409.56,-733.263"/>
<polygon fill="black" stroke="black" points="1412.02,-735.782 1417.66,-726.812 1407.66,-730.307 1412.02,-735.782"/>
</g>
<!-- P5_0 -->
<g id="node17" class="node"><title>P5_0</title>
<polygon fill="white" stroke="black" points="1711,-832 1418,-832 1418,-796 1711,-796 1711,-832"/>
<text text-anchor="middle" x="1564.5" y="-810.3" font-family="Times,serif" font-size="14.00">PREP: until browned , about 5 minutes per side</text>
</g>
<!-- P5_0&#45;&gt;E5 -->
<g id="edge2" class="edge"><title>P5_0&#45;&gt;E5</title>
<path fill="none" stroke="black" d="M1543.24,-795.927C1521.77,-778.679 1488.49,-751.954 1465.01,-733.098"/>
<polygon fill="black" stroke="black" points="1467.14,-730.319 1457.15,-726.785 1462.76,-735.776 1467.14,-730.319"/>
</g>
<!-- D9 -->
<g id="node18" class="node"><title>D9</title>
<polygon fill="peachpuff" stroke="black" points="1444,-625 1253,-625 1253,-587 1444,-587 1444,-625"/>
<text text-anchor="middle" x="1348.5" y="-609.8" font-family="Times,serif" font-size="14.00">DOBJ: liquid smoke flavoring</text>
<text text-anchor="middle" x="1348.5" y="-594.8" font-family="Times,serif" font-size="14.00">(text: liquid smoke)</text>
</g>
<!-- D9&#45;&gt;E9 -->
<g id="edge3" class="edge"><title>D9&#45;&gt;E9</title>
<path fill="none" stroke="black" d="M1373.03,-586.999C1396.7,-569.632 1432.56,-543.317 1457.82,-524.777"/>
<polygon fill="black" stroke="black" points="1459.96,-527.55 1465.95,-518.812 1455.82,-521.907 1459.96,-527.55"/>
</g>
<!-- D4 -->
<g id="node19" class="node"><title>D4</title>
<polygon fill="peachpuff" stroke="black" points="487,-729 -2.84217e-14,-729 -2.84217e-14,-691 487,-691 487,-729"/>
<text text-anchor="middle" x="243.5" y="-713.8" font-family="Times,serif" font-size="14.00">DOBJ: canola oil</text>
<text text-anchor="middle" x="243.5" y="-698.8" font-family="Times,serif" font-size="14.00">(text: about 2 tablespoons canola oil in a non&#45;stick skillet over medium&#45;high heat)</text>
</g>
<!-- D4&#45;&gt;E4 -->
<g id="edge4" class="edge"><title>D4&#45;&gt;E4</title>
<path fill="none" stroke="black" d="M243.5,-690.764C243.5,-675.031 243.5,-652.083 243.5,-634.183"/>
<polygon fill="black" stroke="black" points="247,-634.06 243.5,-624.06 240,-634.06 247,-634.06"/>
</g>
<!-- D0 -->
<g id="node20" class="node"><title>D0</title>
<polygon fill="peachpuff" stroke="black" points="2861,-1012 2328,-1012 2328,-974 2861,-974 2861,-1012"/>
<text text-anchor="middle" x="2594.5" y="-996.8" font-family="Times,serif" font-size="14.00">DOBJ: ground thyme, paprika, garlic powder, onion powder, dried oregano, salt</text>
<text text-anchor="middle" x="2594.5" y="-981.8" font-family="Times,serif" font-size="14.00">(text: paprika , onion powder , garlic powder , oregano , thyme , and salt in a small bowl)</text>
</g>
<!-- D0&#45;&gt;E0 -->
<g id="edge5" class="edge"><title>D0&#45;&gt;E0</title>
<path fill="none" stroke="black" d="M2594.5,-973.955C2594.5,-965.701 2594.5,-955.738 2594.5,-946.574"/>
<polygon fill="black" stroke="black" points="2598,-946.335 2594.5,-936.335 2591,-946.335 2598,-946.335"/>
</g>
<!-- P1_0_ing -->
<g id="node21" class="node"><title>P1_0_ing</title>
<polygon fill="peachpuff" stroke="black" points="2503.5,-937 2293.5,-937 2293.5,-899 2503.5,-899 2503.5,-937"/>
<text text-anchor="middle" x="2398.5" y="-921.8" font-family="Times,serif" font-size="14.00">PREP: with ground black pepper</text>
<text text-anchor="middle" x="2398.5" y="-906.8" font-family="Times,serif" font-size="14.00">(text: with black pepper)</text>
</g>
<!-- P1_0_ing&#45;&gt;E1 -->
<g id="edge7" class="edge"><title>P1_0_ing&#45;&gt;E1</title>
<path fill="none" stroke="black" d="M2408.69,-898.764C2417.69,-882.662 2430.91,-859.001 2441.01,-840.931"/>
<polygon fill="black" stroke="black" points="2444.14,-842.497 2445.97,-832.06 2438.03,-839.082 2444.14,-842.497"/>
</g>
<!-- P2_0_0 -->
<g id="node22" class="node"><title>P2_0_0</title>
<polygon fill="white" stroke="black" points="2372,-832 2209,-832 2209,-796 2372,-796 2372,-832"/>
<text text-anchor="middle" x="2290.5" y="-810.3" font-family="Times,serif" font-size="14.00">PREP: with paper towels</text>
</g>
<!-- P2_0_0&#45;&gt;E2 -->
<g id="edge9" class="edge"><title>P2_0_0&#45;&gt;E2</title>
<path fill="none" stroke="black" d="M2298.98,-795.697C2306.86,-779.628 2318.7,-755.48 2327.72,-737.075"/>
<polygon fill="black" stroke="black" points="2330.88,-738.567 2332.14,-728.047 2324.6,-735.486 2330.88,-738.567"/>
</g>
<!-- P3_0_0 -->
<g id="node23" class="node"><title>P3_0_0</title>
<polygon fill="white" stroke="black" points="2251.5,-728 2069.5,-728 2069.5,-692 2251.5,-692 2251.5,-728"/>
<text text-anchor="middle" x="2160.5" y="-706.3" font-family="Times,serif" font-size="14.00">PREP: with paprika mixture</text>
</g>
<!-- P3_0_0&#45;&gt;E3 -->
<g id="edge11" class="edge"><title>P3_0_0&#45;&gt;E3</title>
<path fill="none" stroke="black" d="M2169.49,-691.697C2177.84,-675.628 2190.39,-651.48 2199.95,-633.075"/>
<polygon fill="black" stroke="black" points="2203.14,-634.535 2204.64,-624.047 2196.93,-631.307 2203.14,-634.535"/>
</g>
<!-- P6_0_0 -->
<g id="node24" class="node"><title>P6_0_0</title>
<polygon fill="white" stroke="black" points="1702,-728 1547,-728 1547,-692 1702,-692 1702,-728"/>
<text text-anchor="middle" x="1624.5" y="-706.3" font-family="Times,serif" font-size="14.00">PREP: to a slow cooker</text>
</g>
<!-- P6_0_0&#45;&gt;E6 -->
<g id="edge13" class="edge"><title>P6_0_0&#45;&gt;E6</title>
<path fill="none" stroke="black" d="M1624.95,-691.761C1624.45,-677.279 1621.57,-656.796 1610.5,-643 1604.2,-635.153 1595.82,-628.95 1586.87,-624.068"/>
<polygon fill="black" stroke="black" points="1588.3,-620.872 1577.78,-619.614 1585.22,-627.157 1588.3,-620.872"/>
</g>
<!-- D7_ing -->
<g id="node25" class="node"><title>D7_ing</title>
<polygon fill="peachpuff" stroke="black" points="542.5,-625 448.5,-625 448.5,-587 542.5,-587 542.5,-625"/>
<text text-anchor="middle" x="495.5" y="-609.8" font-family="Times,serif" font-size="14.00">DOBJ: butter</text>
<text text-anchor="middle" x="495.5" y="-594.8" font-family="Times,serif" font-size="14.00">(text: butter)</text>
</g>
<!-- D7_ing&#45;&gt;E7 -->
<g id="edge14" class="edge"><title>D7_ing&#45;&gt;E7</title>
<path fill="none" stroke="black" d="M515.757,-586.84C521.652,-581.283 527.986,-575.041 533.5,-569 545.326,-556.045 557.516,-540.698 567.118,-528.065"/>
<polygon fill="black" stroke="black" points="570.107,-529.912 573.316,-519.815 564.511,-525.708 570.107,-529.912"/>
</g>
<!-- D7_0 -->
<g id="node26" class="node"><title>D7_0</title>
<polygon fill="white" stroke="black" points="688,-624 561,-624 561,-588 688,-588 688,-624"/>
<text text-anchor="middle" x="624.5" y="-602.3" font-family="Times,serif" font-size="14.00">DOBJ: skillet clean</text>
</g>
<!-- D7_0&#45;&gt;E7 -->
<g id="edge15" class="edge"><title>D7_0&#45;&gt;E7</title>
<path fill="none" stroke="black" d="M617.884,-587.697C611.796,-571.775 602.676,-547.923 595.664,-529.583"/>
<polygon fill="black" stroke="black" points="598.859,-528.138 592.018,-520.047 592.32,-530.638 598.859,-528.138"/>
</g>
<!-- P7_0_0 -->
<g id="node27" class="node"><title>P7_0_0</title>
<polygon fill="white" stroke="black" points="869,-624 706,-624 706,-588 869,-588 869,-624"/>
<text text-anchor="middle" x="787.5" y="-602.3" font-family="Times,serif" font-size="14.00">PREP: over medium heat</text>
</g>
<!-- P7_0_0&#45;&gt;E7 -->
<g id="edge17" class="edge"><title>P7_0_0&#45;&gt;E7</title>
<path fill="none" stroke="black" d="M753.69,-587.927C717.865,-569.838 661.401,-541.326 623.917,-522.399"/>
<polygon fill="black" stroke="black" points="625.324,-519.188 614.82,-517.805 622.169,-525.437 625.324,-519.188"/>
</g>
<!-- D8_ing -->
<g id="node28" class="node"><title>D8_ing</title>
<polygon fill="peachpuff" stroke="black" points="1960,-625 1619,-625 1619,-587 1960,-587 1960,-625"/>
<text text-anchor="middle" x="1789.5" y="-609.8" font-family="Times,serif" font-size="14.00">DOBJ: (12 fluid ounce) can or bottle wheat beer, onions</text>
<text text-anchor="middle" x="1789.5" y="-594.8" font-family="Times,serif" font-size="14.00">(text: &#160;1/2 bottle beer , onions )</text>
</g>
<!-- D8_ing&#45;&gt;E8 -->
<g id="edge18" class="edge"><title>D8_ing&#45;&gt;E8</title>
<path fill="none" stroke="black" d="M1789.5,-586.764C1789.5,-571.031 1789.5,-548.083 1789.5,-530.183"/>
<polygon fill="black" stroke="black" points="1793,-530.06 1789.5,-520.06 1786,-530.06 1793,-530.06"/>
</g>
<!-- D8_2 -->
<g id="node29" class="node"><title>D8_2</title>
<polygon fill="white" stroke="black" points="2141,-624 1978,-624 1978,-588 2141,-588 2141,-624"/>
<text text-anchor="middle" x="2059.5" y="-602.3" font-family="Times,serif" font-size="14.00">DOBJ: slightly browned </text>
</g>
<!-- D8_2&#45;&gt;E8 -->
<g id="edge21" class="edge"><title>D8_2&#45;&gt;E8</title>
<path fill="none" stroke="black" d="M2014.31,-587.927C1966.03,-569.691 1889.72,-540.862 1839.63,-521.939"/>
<polygon fill="black" stroke="black" points="1840.57,-518.552 1829.98,-518.292 1838.1,-525.101 1840.57,-518.552"/>
</g>
<!-- D11_ing -->
<g id="node30" class="node"><title>D11_ing</title>
<polygon fill="peachpuff" stroke="black" points="1414,-521 663,-521 663,-483 1414,-483 1414,-521"/>
<text text-anchor="middle" x="1038.5" y="-505.8" font-family="Times,serif" font-size="14.00">DOBJ: cloves garlic, (1.5 fluid ounce) jiggers bourbon whiskey, dashes hot pepper sauce, barbeque sauce, Worcestershire sauce</text>
<text text-anchor="middle" x="1038.5" y="-490.8" font-family="Times,serif" font-size="14.00">(text: &#160;Worcestershire sauce , hot sauce in a bowl, barbeque sauce , &#160;bourbon , &#160;garlic )</text>
</g>
<!-- D11_ing&#45;&gt;E11 -->
<g id="edge24" class="edge"><title>D11_ing&#45;&gt;E11</title>
<path fill="none" stroke="black" d="M1038.5,-482.943C1038.5,-467.531 1038.5,-445.127 1038.5,-427.488"/>
<polygon fill="black" stroke="black" points="1042,-427.226 1038.5,-417.226 1035,-427.226 1042,-427.226"/>
</g>
<!-- P13_0_0 -->
<g id="node31" class="node"><title>P13_0_0</title>
<polygon fill="white" stroke="black" points="1050,-315 877,-315 877,-279 1050,-279 1050,-315"/>
<text text-anchor="middle" x="963.5" y="-293.3" font-family="Times,serif" font-size="14.00">PREP: until &#160;about 8 hours</text>
</g>
<!-- P13_0_0&#45;&gt;E13 -->
<g id="edge29" class="edge"><title>P13_0_0&#45;&gt;E13</title>
<path fill="none" stroke="black" d="M994.713,-278.867C1026.67,-261.324 1076.34,-234.059 1110.32,-215.41"/>
<polygon fill="black" stroke="black" points="1112.37,-218.274 1119.46,-210.394 1109.01,-212.138 1112.37,-218.274"/>
</g>
<!-- P13_0_1 -->
<g id="node32" class="node"><title>P13_0_1</title>
<polygon fill="white" stroke="black" points="1226.5,-315 1068.5,-315 1068.5,-279 1226.5,-279 1226.5,-315"/>
<text text-anchor="middle" x="1147.5" y="-293.3" font-family="Times,serif" font-size="14.00">PREP: until very tender </text>
</g>
<!-- P13_0_1&#45;&gt;E13 -->
<g id="edge30" class="edge"><title>P13_0_1&#45;&gt;E13</title>
<path fill="none" stroke="black" d="M1147.5,-278.867C1147.5,-263.414 1147.5,-240.416 1147.5,-222.409"/>
<polygon fill="black" stroke="black" points="1151,-222.217 1147.5,-212.217 1144,-222.217 1151,-222.217"/>
</g>
<!-- D14_ing -->
<g id="node33" class="node"><title>D14_ing</title>
<polygon fill="peachpuff" stroke="black" points="1065,-213 904,-213 904,-175 1065,-175 1065,-213"/>
<text text-anchor="middle" x="984.5" y="-197.8" font-family="Times,serif" font-size="14.00">DOBJ: crusty bread rolls</text>
<text text-anchor="middle" x="984.5" y="-182.8" font-family="Times,serif" font-size="14.00">(text: pork over rolls)</text>
</g>
<!-- D14_ing&#45;&gt;E14 -->
<g id="edge31" class="edge"><title>D14_ing&#45;&gt;E14</title>
<path fill="none" stroke="black" d="M993.26,-174.943C1000.88,-159.24 1012.02,-136.28 1020.65,-118.495"/>
<polygon fill="black" stroke="black" points="1023.93,-119.751 1025.14,-109.226 1017.63,-116.696 1023.93,-119.751"/>
</g>
</g>
</svg>
