<?xml version="1.0" encoding="UTF-8" standalone="no"?>
<!DOCTYPE svg PUBLIC "-//W3C//DTD SVG 1.1//EN"
 "http://www.w3.org/Graphics/SVG/1.1/DTD/svg11.dtd">
<!-- Generated by graphviz version 2.38.0 (20140413.2041)
 -->
<!-- Title: recipe Pages: 1 -->
<svg width="1811pt" height="1632pt"
 viewBox="0.00 0.00 1810.50 1632.00" xmlns="http://www.w3.org/2000/svg" xmlns:xlink="http://www.w3.org/1999/xlink">
<g id="graph0" class="graph" transform="scale(1 1) rotate(0) translate(4 1628)">
<title>recipe</title>
<polygon fill="white" stroke="none" points="-4,4 -4,-1628 1806.5,-1628 1806.5,4 -4,4"/>
<!-- E0 -->
<g id="node1" class="node"><title>E0</title>
<ellipse fill="azure" stroke="black" cx="1555" cy="-1116" rx="61.99" ry="18"/>
<text text-anchor="middle" x="1555" y="-1112.3" font-family="Times,serif" font-size="14.00">bring (S0,P0)</text>
</g>
<!-- E12 -->
<g id="node13" class="node"><title>E12</title>
<ellipse fill="azure" stroke="black" cx="1296" cy="-1012" rx="61.99" ry="18"/>
<text text-anchor="middle" x="1296" y="-1008.3" font-family="Times,serif" font-size="14.00">bring (S8,P0)</text>
</g>
<!-- E0&#45;&gt;E12 -->
<g id="edge22" class="edge"><title>E0&#45;&gt;E12</title>
<path fill="none" stroke="black" d="M1519.8,-1101.14C1473.28,-1082.82 1391.31,-1050.54 1340.53,-1030.54"/>
<polygon fill="black" stroke="black" points="1341.71,-1027.24 1331.12,-1026.83 1339.14,-1033.75 1341.71,-1027.24"/>
<text text-anchor="middle" x="1504.5" y="-1067.8" font-family="Times,serif" font-size="14.00">OUTPUT: </text>
<text text-anchor="middle" x="1504.5" y="-1052.8" font-family="Times,serif" font-size="14.00">INPUT: to a boil</text>
</g>
<!-- E1 -->
<g id="node2" class="node"><title>E1</title>
<ellipse fill="azure" stroke="black" cx="198" cy="-193" rx="55.4913" ry="18"/>
<text text-anchor="middle" x="198" y="-189.3" font-family="Times,serif" font-size="14.00">add (S1,P0)</text>
</g>
<!-- E22 -->
<g id="node23" class="node"><title>E22</title>
<ellipse fill="azure" stroke="black" cx="317" cy="-91" rx="65.7887" ry="18"/>
<text text-anchor="middle" x="317" y="-87.3" font-family="Times,serif" font-size="14.00">serve (S15,P0)</text>
</g>
<!-- E1&#45;&gt;E22 -->
<g id="edge40" class="edge"><title>E1&#45;&gt;E22</title>
<path fill="none" stroke="black" d="M202.321,-174.962C206.796,-160.464 215.123,-139.984 229,-127 237.817,-118.75 248.817,-112.354 260.022,-107.426"/>
<polygon fill="black" stroke="black" points="261.477,-110.613 269.439,-103.623 258.856,-104.122 261.477,-110.613"/>
<text text-anchor="middle" x="312" y="-145.8" font-family="Times,serif" font-size="14.00">OUTPUT: </text>
<text text-anchor="middle" x="312" y="-130.8" font-family="Times,serif" font-size="14.00">INPUT: cooked egg noodles</text>
</g>
<!-- E2 -->
<g id="node3" class="node"><title>E2</title>
<ellipse fill="azure" stroke="black" cx="911" cy="-1427" rx="59.5901" ry="18"/>
<text text-anchor="middle" x="911" y="-1423.3" font-family="Times,serif" font-size="14.00">cook (S1,P1)</text>
</g>
<!-- E3 -->
<g id="node4" class="node"><title>E3</title>
<ellipse fill="azure" stroke="black" cx="911" cy="-1324" rx="61.1893" ry="18"/>
<text text-anchor="middle" x="911" y="-1320.3" font-family="Times,serif" font-size="14.00">drain (S2,P0)</text>
</g>
<!-- E2&#45;&gt;E3 -->
<g id="edge8" class="edge"><title>E2&#45;&gt;E3</title>
<path fill="none" stroke="black" d="M911,-1408.87C911,-1393.41 911,-1370.42 911,-1352.41"/>
<polygon fill="black" stroke="black" points="914.5,-1352.22 911,-1342.22 907.5,-1352.22 914.5,-1352.22"/>
<text text-anchor="middle" x="943" y="-1379.8" font-family="Times,serif" font-size="14.00">OUTPUT: </text>
<text text-anchor="middle" x="943" y="-1364.8" font-family="Times,serif" font-size="14.00">INPUT: </text>
</g>
<!-- E10 -->
<g id="node11" class="node"><title>E10</title>
<ellipse fill="azure" stroke="black" cx="911" cy="-1220" rx="59.5901" ry="18"/>
<text text-anchor="middle" x="911" y="-1216.3" font-family="Times,serif" font-size="14.00">cook (S6,P1)</text>
</g>
<!-- E3&#45;&gt;E10 -->
<g id="edge18" class="edge"><title>E3&#45;&gt;E10</title>
<path fill="none" stroke="black" d="M911,-1305.7C911,-1289.92 911,-1266.36 911,-1248.09"/>
<polygon fill="black" stroke="black" points="914.5,-1248.05 911,-1238.05 907.5,-1248.05 914.5,-1248.05"/>
<text text-anchor="middle" x="956" y="-1275.8" font-family="Times,serif" font-size="14.00">OUTPUT: </text>
<text text-anchor="middle" x="956" y="-1260.8" font-family="Times,serif" font-size="14.00">INPUT: minute</text>
</g>
<!-- E4 -->
<g id="node5" class="node"><title>E4</title>
<ellipse fill="azure" stroke="black" cx="156" cy="-1530" rx="57.6901" ry="18"/>
<text text-anchor="middle" x="156" y="-1526.3" font-family="Times,serif" font-size="14.00">melt (S3,P0)</text>
</g>
<!-- E5 -->
<g id="node6" class="node"><title>E5</title>
<ellipse fill="azure" stroke="black" cx="284" cy="-1427" rx="53.0913" ry="18"/>
<text text-anchor="middle" x="284" y="-1423.3" font-family="Times,serif" font-size="14.00">stir (S4,P0)</text>
</g>
<!-- E4&#45;&gt;E5 -->
<g id="edge9" class="edge"><title>E4&#45;&gt;E5</title>
<path fill="none" stroke="black" d="M173.597,-1512.62C188.676,-1498.86 211.192,-1478.94 232,-1463 238.117,-1458.31 244.829,-1453.54 251.338,-1449.09"/>
<polygon fill="black" stroke="black" points="253.668,-1451.74 260.014,-1443.26 249.762,-1445.93 253.668,-1451.74"/>
<text text-anchor="middle" x="264" y="-1481.8" font-family="Times,serif" font-size="14.00">OUTPUT: </text>
<text text-anchor="middle" x="264" y="-1466.8" font-family="Times,serif" font-size="14.00">INPUT: </text>
</g>
<!-- E6 -->
<g id="node7" class="node"><title>E6</title>
<ellipse fill="azure" stroke="black" cx="401" cy="-1324" rx="59.5901" ry="18"/>
<text text-anchor="middle" x="401" y="-1320.3" font-family="Times,serif" font-size="14.00">cook (S4,P1)</text>
</g>
<!-- E5&#45;&gt;E6 -->
<g id="edge11" class="edge"><title>E5&#45;&gt;E6</title>
<path fill="none" stroke="black" d="M298.751,-1409.69C311.464,-1396.02 330.621,-1376.34 349,-1361 354.912,-1356.07 361.486,-1351.13 367.917,-1346.57"/>
<polygon fill="black" stroke="black" points="370.291,-1349.19 376.522,-1340.62 366.307,-1343.43 370.291,-1349.19"/>
<text text-anchor="middle" x="381" y="-1379.8" font-family="Times,serif" font-size="14.00">OUTPUT: </text>
<text text-anchor="middle" x="381" y="-1364.8" font-family="Times,serif" font-size="14.00">INPUT: </text>
</g>
<!-- E7 -->
<g id="node8" class="node"><title>E7</title>
<ellipse fill="azure" stroke="black" cx="484" cy="-1220" rx="55.7903" ry="18"/>
<text text-anchor="middle" x="484" y="-1216.3" font-family="Times,serif" font-size="14.00">mix (S5,P0)</text>
</g>
<!-- E6&#45;&gt;E7 -->
<g id="edge13" class="edge"><title>E6&#45;&gt;E7</title>
<path fill="none" stroke="black" d="M414.706,-1306.16C428.182,-1289.6 448.895,-1264.14 464.168,-1245.37"/>
<polygon fill="black" stroke="black" points="466.952,-1247.5 470.549,-1237.53 461.523,-1243.08 466.952,-1247.5"/>
<text text-anchor="middle" x="485" y="-1275.8" font-family="Times,serif" font-size="14.00">OUTPUT: </text>
<text text-anchor="middle" x="485" y="-1260.8" font-family="Times,serif" font-size="14.00">INPUT: </text>
</g>
<!-- E8 -->
<g id="node9" class="node"><title>E8</title>
<ellipse fill="azure" stroke="black" cx="484" cy="-1116" rx="73.387" ry="18"/>
<text text-anchor="middle" x="484" y="-1112.3" font-family="Times,serif" font-size="14.00">continue (S5,P1)</text>
</g>
<!-- E7&#45;&gt;E8 -->
<g id="edge15" class="edge"><title>E7&#45;&gt;E8</title>
<path fill="none" stroke="black" d="M484,-1201.7C484,-1185.92 484,-1162.36 484,-1144.09"/>
<polygon fill="black" stroke="black" points="487.5,-1144.05 484,-1134.05 480.5,-1144.05 487.5,-1144.05"/>
<text text-anchor="middle" x="516" y="-1171.8" font-family="Times,serif" font-size="14.00">OUTPUT: </text>
<text text-anchor="middle" x="516" y="-1156.8" font-family="Times,serif" font-size="14.00">INPUT: </text>
</g>
<!-- E9 -->
<g id="node10" class="node"><title>E9</title>
<ellipse fill="azure" stroke="black" cx="531" cy="-1012" rx="60.3893" ry="18"/>
<text text-anchor="middle" x="531" y="-1008.3" font-family="Times,serif" font-size="14.00">place (S6,P0)</text>
</g>
<!-- E8&#45;&gt;E9 -->
<g id="edge17" class="edge"><title>E8&#45;&gt;E9</title>
<path fill="none" stroke="black" d="M491.973,-1097.7C499.343,-1081.7 510.402,-1057.7 518.868,-1039.33"/>
<polygon fill="black" stroke="black" points="522.139,-1040.59 523.145,-1030.05 515.781,-1037.66 522.139,-1040.59"/>
<text text-anchor="middle" x="572.5" y="-1067.8" font-family="Times,serif" font-size="14.00">OUTPUT: </text>
<text text-anchor="middle" x="572.5" y="-1052.8" font-family="Times,serif" font-size="14.00">INPUT: in saucepan</text>
</g>
<!-- E14 -->
<g id="node15" class="node"><title>E14</title>
<ellipse fill="azure" stroke="black" cx="675" cy="-909" rx="71.4873" ry="18"/>
<text text-anchor="middle" x="675" y="-905.3" font-family="Times,serif" font-size="14.00">reduce (S10,P0)</text>
</g>
<!-- E9&#45;&gt;E14 -->
<g id="edge27" class="edge"><title>E9&#45;&gt;E14</title>
<path fill="none" stroke="black" d="M529.094,-993.923C528.435,-979.143 530.025,-958.133 542,-945 555.894,-929.762 575.551,-920.822 595.502,-915.665"/>
<polygon fill="black" stroke="black" points="596.327,-919.067 605.295,-913.426 594.766,-912.243 596.327,-919.067"/>
<text text-anchor="middle" x="606.5" y="-963.8" font-family="Times,serif" font-size="14.00">OUTPUT: </text>
<text text-anchor="middle" x="606.5" y="-948.8" font-family="Times,serif" font-size="14.00">INPUT: saucepan heat</text>
</g>
<!-- E11 -->
<g id="node12" class="node"><title>E11</title>
<ellipse fill="azure" stroke="black" cx="1202" cy="-1116" rx="55.7903" ry="18"/>
<text text-anchor="middle" x="1202" y="-1112.3" font-family="Times,serif" font-size="14.00">mix (S7,P0)</text>
</g>
<!-- E10&#45;&gt;E11 -->
<g id="edge19" class="edge"><title>E10&#45;&gt;E11</title>
<path fill="none" stroke="black" d="M948.447,-1205.87C1001.56,-1187.26 1098.67,-1153.22 1156.07,-1133.1"/>
<polygon fill="black" stroke="black" points="1157.33,-1136.37 1165.61,-1129.75 1155.02,-1129.76 1157.33,-1136.37"/>
<text text-anchor="middle" x="1123" y="-1171.8" font-family="Times,serif" font-size="14.00">OUTPUT: </text>
<text text-anchor="middle" x="1123" y="-1156.8" font-family="Times,serif" font-size="14.00">INPUT: </text>
</g>
<!-- E11&#45;&gt;E12 -->
<g id="edge21" class="edge"><title>E11&#45;&gt;E12</title>
<path fill="none" stroke="black" d="M1217.1,-1098.61C1232.43,-1081.98 1256.32,-1056.05 1273.8,-1037.09"/>
<polygon fill="black" stroke="black" points="1276.42,-1039.41 1280.62,-1029.69 1271.27,-1034.67 1276.42,-1039.41"/>
<text text-anchor="middle" x="1292" y="-1067.8" font-family="Times,serif" font-size="14.00">OUTPUT: </text>
<text text-anchor="middle" x="1292" y="-1052.8" font-family="Times,serif" font-size="14.00">INPUT: </text>
</g>
<!-- E13 -->
<g id="node14" class="node"><title>E13</title>
<ellipse fill="azure" stroke="black" cx="992" cy="-909" rx="62.2891" ry="18"/>
<text text-anchor="middle" x="992" y="-905.3" font-family="Times,serif" font-size="14.00">blend (S9,P0)</text>
</g>
<!-- E12&#45;&gt;E13 -->
<g id="edge25" class="edge"><title>E12&#45;&gt;E13</title>
<path fill="none" stroke="black" d="M1256.88,-998.003C1201.74,-979.683 1101.19,-946.277 1041.1,-926.312"/>
<polygon fill="black" stroke="black" points="1042.05,-922.939 1031.45,-923.107 1039.84,-929.582 1042.05,-922.939"/>
<text text-anchor="middle" x="1250.5" y="-963.8" font-family="Times,serif" font-size="14.00">OUTPUT: </text>
<text text-anchor="middle" x="1250.5" y="-948.8" font-family="Times,serif" font-size="14.00">INPUT: with cold water</text>
</g>
<!-- E15 -->
<g id="node16" class="node"><title>E15</title>
<ellipse fill="azure" stroke="black" cx="854" cy="-807" rx="64.189" ry="18"/>
<text text-anchor="middle" x="854" y="-803.3" font-family="Times,serif" font-size="14.00">pour (S11,P0)</text>
</g>
<!-- E13&#45;&gt;E15 -->
<g id="edge29" class="edge"><title>E13&#45;&gt;E15</title>
<path fill="none" stroke="black" d="M969.828,-891.933C946.691,-875.167 910.254,-848.764 884.432,-830.052"/>
<polygon fill="black" stroke="black" points="886.268,-827.061 876.117,-824.027 882.161,-832.729 886.268,-827.061"/>
<text text-anchor="middle" x="1007.5" y="-861.8" font-family="Times,serif" font-size="14.00">OUTPUT: </text>
<text text-anchor="middle" x="1007.5" y="-846.8" font-family="Times,serif" font-size="14.00">INPUT: flour mixture</text>
</g>
<!-- E14&#45;&gt;E15 -->
<g id="edge30" class="edge"><title>E14&#45;&gt;E15</title>
<path fill="none" stroke="black" d="M696.344,-891.757C715.307,-877.77 744.109,-857.59 771,-843 782.497,-836.762 795.341,-830.864 807.425,-825.75"/>
<polygon fill="black" stroke="black" points="809.011,-828.882 816.913,-821.825 806.335,-822.414 809.011,-828.882"/>
<text text-anchor="middle" x="835" y="-861.8" font-family="Times,serif" font-size="14.00">OUTPUT: </text>
<text text-anchor="middle" x="835" y="-846.8" font-family="Times,serif" font-size="14.00">INPUT: into saucepan</text>
</g>
<!-- E16 -->
<g id="node17" class="node"><title>E16</title>
<ellipse fill="azure" stroke="black" cx="764" cy="-705" rx="69.5877" ry="18"/>
<text text-anchor="middle" x="764" y="-701.3" font-family="Times,serif" font-size="14.00">return (S12,P0)</text>
</g>
<!-- E15&#45;&gt;E16 -->
<g id="edge31" class="edge"><title>E15&#45;&gt;E16</title>
<path fill="none" stroke="black" d="M838.733,-789.036C824.294,-772.993 802.463,-748.737 786.119,-730.577"/>
<polygon fill="black" stroke="black" points="788.333,-727.805 779.042,-722.713 783.13,-732.487 788.333,-727.805"/>
<text text-anchor="middle" x="855" y="-759.8" font-family="Times,serif" font-size="14.00">OUTPUT: </text>
<text text-anchor="middle" x="855" y="-744.8" font-family="Times,serif" font-size="14.00">INPUT: </text>
</g>
<!-- E17 -->
<g id="node18" class="node"><title>E17</title>
<ellipse fill="azure" stroke="black" cx="764" cy="-603" rx="66.8882" ry="18"/>
<text text-anchor="middle" x="764" y="-599.3" font-family="Times,serif" font-size="14.00">cover (S13,P0)</text>
</g>
<!-- E16&#45;&gt;E17 -->
<g id="edge33" class="edge"><title>E16&#45;&gt;E17</title>
<path fill="none" stroke="black" d="M764,-686.581C764,-671.382 764,-649.067 764,-631.464"/>
<polygon fill="black" stroke="black" points="767.5,-631.219 764,-621.219 760.5,-631.219 767.5,-631.219"/>
<text text-anchor="middle" x="815" y="-657.8" font-family="Times,serif" font-size="14.00">OUTPUT: </text>
<text text-anchor="middle" x="815" y="-642.8" font-family="Times,serif" font-size="14.00">INPUT: saucepan</text>
</g>
<!-- E18 -->
<g id="node19" class="node"><title>E18</title>
<ellipse fill="azure" stroke="black" cx="764" cy="-501" rx="78.7863" ry="18"/>
<text text-anchor="middle" x="764" y="-497.3" font-family="Times,serif" font-size="14.00">continue (S13,P1)</text>
</g>
<!-- E17&#45;&gt;E18 -->
<g id="edge34" class="edge"><title>E17&#45;&gt;E18</title>
<path fill="none" stroke="black" d="M764,-584.581C764,-569.382 764,-547.067 764,-529.464"/>
<polygon fill="black" stroke="black" points="767.5,-529.219 764,-519.219 760.5,-529.219 767.5,-529.219"/>
<text text-anchor="middle" x="817" y="-555.8" font-family="Times,serif" font-size="14.00">OUTPUT: </text>
<text text-anchor="middle" x="817" y="-540.8" font-family="Times,serif" font-size="14.00">INPUT: 5 minutes</text>
</g>
<!-- E19 -->
<g id="node20" class="node"><title>E19</title>
<ellipse fill="azure" stroke="black" cx="656" cy="-399" rx="74.187" ry="18"/>
<text text-anchor="middle" x="656" y="-395.3" font-family="Times,serif" font-size="14.00">remove (S14,P0)</text>
</g>
<!-- E18&#45;&gt;E19 -->
<g id="edge35" class="edge"><title>E18&#45;&gt;E19</title>
<path fill="none" stroke="black" d="M745.679,-483.036C728.04,-466.704 701.209,-441.86 681.489,-423.601"/>
<polygon fill="black" stroke="black" points="683.766,-420.939 674.05,-416.713 679.01,-426.075 683.766,-420.939"/>
<text text-anchor="middle" x="758" y="-453.8" font-family="Times,serif" font-size="14.00">OUTPUT: </text>
<text text-anchor="middle" x="758" y="-438.8" font-family="Times,serif" font-size="14.00">INPUT: </text>
</g>
<!-- E20 -->
<g id="node21" class="node"><title>E20</title>
<ellipse fill="azure" stroke="black" cx="656" cy="-296" rx="55.4913" ry="18"/>
<text text-anchor="middle" x="656" y="-292.3" font-family="Times,serif" font-size="14.00">let (S14,P1)</text>
</g>
<!-- E19&#45;&gt;E20 -->
<g id="edge37" class="edge"><title>E19&#45;&gt;E20</title>
<path fill="none" stroke="black" d="M656,-380.867C656,-365.414 656,-342.416 656,-324.409"/>
<polygon fill="black" stroke="black" points="659.5,-324.217 656,-314.217 652.5,-324.217 659.5,-324.217"/>
<text text-anchor="middle" x="688" y="-351.8" font-family="Times,serif" font-size="14.00">OUTPUT: </text>
<text text-anchor="middle" x="688" y="-336.8" font-family="Times,serif" font-size="14.00">INPUT: </text>
</g>
<!-- E21 -->
<g id="node22" class="node"><title>E21</title>
<ellipse fill="azure" stroke="black" cx="456" cy="-193" rx="57.6901" ry="18"/>
<text text-anchor="middle" x="456" y="-189.3" font-family="Times,serif" font-size="14.00">stir (S14,P2)</text>
</g>
<!-- E20&#45;&gt;E21 -->
<g id="edge38" class="edge"><title>E20&#45;&gt;E21</title>
<path fill="none" stroke="black" d="M627.345,-280.529C592.395,-262.879 533.184,-232.978 494.337,-213.36"/>
<polygon fill="black" stroke="black" points="495.431,-209.991 484.926,-208.608 492.275,-216.24 495.431,-209.991"/>
<text text-anchor="middle" x="612" y="-247.8" font-family="Times,serif" font-size="14.00">OUTPUT: </text>
<text text-anchor="middle" x="612" y="-232.8" font-family="Times,serif" font-size="14.00">INPUT: </text>
</g>
<!-- E21&#45;&gt;E22 -->
<g id="edge41" class="edge"><title>E21&#45;&gt;E22</title>
<path fill="none" stroke="black" d="M443.46,-175.296C432.066,-161.012 414.152,-140.657 395,-127 385.84,-120.468 375.267,-114.736 364.92,-109.903"/>
<polygon fill="black" stroke="black" points="366.087,-106.591 355.528,-105.719 363.239,-112.985 366.087,-106.591"/>
<text text-anchor="middle" x="460" y="-145.8" font-family="Times,serif" font-size="14.00">OUTPUT: </text>
<text text-anchor="middle" x="460" y="-130.8" font-family="Times,serif" font-size="14.00">INPUT: &#160;</text>
</g>
<!-- EOR -->
<g id="node43" class="node"><title>EOR</title>
<ellipse fill="plum" stroke="black" cx="317" cy="-18" rx="57.3905" ry="18"/>
<text text-anchor="middle" x="317" y="-14.3" font-family="Times,serif" font-size="14.00">Bon appetit!</text>
</g>
<!-- E22&#45;&gt;EOR -->
<g id="edge42" class="edge"><title>E22&#45;&gt;EOR</title>
<path fill="none" stroke="black" d="M317,-72.8129C317,-64.7895 317,-55.0475 317,-46.0691"/>
<polygon fill="black" stroke="black" points="320.5,-46.0288 317,-36.0288 313.5,-46.0289 320.5,-46.0288"/>
</g>
<!-- D0 -->
<g id="node24" class="node"><title>D0</title>
<polygon fill="peachpuff" stroke="black" points="1677,-1239 1433,-1239 1433,-1201 1677,-1201 1677,-1239"/>
<text text-anchor="middle" x="1555" y="-1223.8" font-family="Times,serif" font-size="14.00">DOBJ: cold water</text>
<text text-anchor="middle" x="1555" y="-1208.8" font-family="Times,serif" font-size="14.00">(text: a large pot of lightly salted water)</text>
</g>
<!-- D0&#45;&gt;E0 -->
<g id="edge1" class="edge"><title>D0&#45;&gt;E0</title>
<path fill="none" stroke="black" d="M1555,-1200.76C1555,-1185.03 1555,-1162.08 1555,-1144.18"/>
<polygon fill="black" stroke="black" points="1558.5,-1144.06 1555,-1134.06 1551.5,-1144.06 1558.5,-1144.06"/>
</g>
<!-- P0_0 -->
<g id="node25" class="node"><title>P0_0</title>
<polygon fill="white" stroke="black" points="1802.5,-1238 1695.5,-1238 1695.5,-1202 1802.5,-1202 1802.5,-1238"/>
<text text-anchor="middle" x="1749" y="-1216.3" font-family="Times,serif" font-size="14.00">PREP: to a boil</text>
</g>
<!-- P0_0&#45;&gt;E0 -->
<g id="edge2" class="edge"><title>P0_0&#45;&gt;E0</title>
<path fill="none" stroke="black" d="M1716.53,-1201.93C1682.47,-1184.02 1628.98,-1155.89 1592.98,-1136.97"/>
<polygon fill="black" stroke="black" points="1594.26,-1133.69 1583.78,-1132.13 1591,-1139.88 1594.26,-1133.69"/>
</g>
<!-- D2 -->
<g id="node26" class="node"><title>D2</title>
<polygon fill="white" stroke="black" points="886,-1548 818,-1548 818,-1512 886,-1512 886,-1548"/>
<text text-anchor="middle" x="852" y="-1526.3" font-family="Times,serif" font-size="14.00">DOBJ: 5</text>
</g>
<!-- D2&#45;&gt;E2 -->
<g id="edge3" class="edge"><title>D2&#45;&gt;E2</title>
<path fill="none" stroke="black" d="M862.009,-1511.87C871.346,-1495.88 885.399,-1471.82 896.064,-1453.57"/>
<polygon fill="black" stroke="black" points="899.117,-1455.28 901.139,-1444.88 893.073,-1451.75 899.117,-1455.28"/>
</g>
<!-- P2_0 -->
<g id="node27" class="node"><title>P2_0</title>
<polygon fill="white" stroke="black" points="1035.5,-1548 904.5,-1548 904.5,-1512 1035.5,-1512 1035.5,-1548"/>
<text text-anchor="middle" x="970" y="-1526.3" font-family="Times,serif" font-size="14.00">PREP: to 7 minutes</text>
</g>
<!-- P2_0&#45;&gt;E2 -->
<g id="edge4" class="edge"><title>P2_0&#45;&gt;E2</title>
<path fill="none" stroke="black" d="M959.991,-1511.87C950.654,-1495.88 936.601,-1471.82 925.936,-1453.57"/>
<polygon fill="black" stroke="black" points="928.927,-1451.75 920.861,-1444.88 922.883,-1455.28 928.927,-1451.75"/>
</g>
<!-- D1 -->
<g id="node28" class="node"><title>D1</title>
<polygon fill="peachpuff" stroke="black" points="311,-315 65,-315 65,-277 311,-277 311,-315"/>
<text text-anchor="middle" x="188" y="-299.8" font-family="Times,serif" font-size="14.00">DOBJ: (16 ounce) package egg noodles</text>
<text text-anchor="middle" x="188" y="-284.8" font-family="Times,serif" font-size="14.00">(text: noodles)</text>
</g>
<!-- D1&#45;&gt;E1 -->
<g id="edge5" class="edge"><title>D1&#45;&gt;E1</title>
<path fill="none" stroke="black" d="M189.788,-276.943C191.314,-261.531 193.532,-239.127 195.278,-221.488"/>
<polygon fill="black" stroke="black" points="198.792,-221.522 196.294,-211.226 191.826,-220.833 198.792,-221.522"/>
</g>
<!-- D4 -->
<g id="node29" class="node"><title>D4</title>
<polygon fill="peachpuff" stroke="black" points="94,-1624 -7.10543e-15,-1624 -7.10543e-15,-1586 94,-1586 94,-1624"/>
<text text-anchor="middle" x="47" y="-1608.8" font-family="Times,serif" font-size="14.00">DOBJ: butter</text>
<text text-anchor="middle" x="47" y="-1593.8" font-family="Times,serif" font-size="14.00">(text: butter)</text>
</g>
<!-- D4&#45;&gt;E4 -->
<g id="edge6" class="edge"><title>D4&#45;&gt;E4</title>
<path fill="none" stroke="black" d="M73.9438,-1585.96C89.1569,-1575.77 108.257,-1562.97 124.202,-1552.3"/>
<polygon fill="black" stroke="black" points="126.329,-1555.08 132.69,-1546.61 122.434,-1549.27 126.329,-1555.08"/>
</g>
<!-- P4_0 -->
<g id="node30" class="node"><title>P4_0</title>
<polygon fill="white" stroke="black" points="419.5,-1623 112.5,-1623 112.5,-1587 419.5,-1587 419.5,-1623"/>
<text text-anchor="middle" x="266" y="-1601.3" font-family="Times,serif" font-size="14.00">PREP: in a large saucepan over medium&#45;high heat</text>
</g>
<!-- P4_0&#45;&gt;E4 -->
<g id="edge7" class="edge"><title>P4_0&#45;&gt;E4</title>
<path fill="none" stroke="black" d="M240.21,-1586.88C224.528,-1576.48 204.383,-1563.11 187.729,-1552.06"/>
<polygon fill="black" stroke="black" points="189.647,-1549.13 179.38,-1546.52 185.777,-1554.96 189.647,-1549.13"/>
</g>
<!-- P5_0_ing -->
<g id="node31" class="node"><title>P5_0_ing</title>
<polygon fill="peachpuff" stroke="black" points="422.5,-1549 231.5,-1549 231.5,-1511 422.5,-1511 422.5,-1549"/>
<text text-anchor="middle" x="327" y="-1533.8" font-family="Times,serif" font-size="14.00">PREP: in cloves garlic, onions</text>
<text text-anchor="middle" x="327" y="-1518.8" font-family="Times,serif" font-size="14.00">(text: in onions, garlic)</text>
</g>
<!-- P5_0_ing&#45;&gt;E5 -->
<g id="edge10" class="edge"><title>P5_0_ing&#45;&gt;E5</title>
<path fill="none" stroke="black" d="M319.312,-1510.94C312.586,-1495.14 302.732,-1472 295.142,-1454.17"/>
<polygon fill="black" stroke="black" points="298.329,-1452.72 291.192,-1444.89 291.889,-1455.46 298.329,-1452.72"/>
</g>
<!-- P6_0_0 -->
<g id="node32" class="node"><title>P6_0_0</title>
<polygon fill="white" stroke="black" points="527,-1445 355,-1445 355,-1409 527,-1409 527,-1445"/>
<text text-anchor="middle" x="441" y="-1423.3" font-family="Times,serif" font-size="14.00">PREP: until slightly tender</text>
</g>
<!-- P6_0_0&#45;&gt;E6 -->
<g id="edge12" class="edge"><title>P6_0_0&#45;&gt;E6</title>
<path fill="none" stroke="black" d="M434.215,-1408.87C428.008,-1393.2 418.729,-1369.77 411.555,-1351.65"/>
<polygon fill="black" stroke="black" points="414.755,-1350.23 407.819,-1342.22 408.247,-1352.8 414.755,-1350.23"/>
</g>
<!-- P7_0_ing -->
<g id="node33" class="node"><title>P7_0_ing</title>
<polygon fill="peachpuff" stroke="black" points="763,-1343 479,-1343 479,-1305 763,-1305 763,-1343"/>
<text text-anchor="middle" x="621" y="-1327.8" font-family="Times,serif" font-size="14.00">PREP: in (8 ounce) package fresh mushrooms</text>
<text text-anchor="middle" x="621" y="-1312.8" font-family="Times,serif" font-size="14.00">(text: in mushrooms)</text>
</g>
<!-- P7_0_ing&#45;&gt;E7 -->
<g id="edge14" class="edge"><title>P7_0_ing&#45;&gt;E7</title>
<path fill="none" stroke="black" d="M596.823,-1305C573.597,-1287.71 538.458,-1261.55 513.576,-1243.02"/>
<polygon fill="black" stroke="black" points="515.35,-1239.98 505.238,-1236.81 511.169,-1245.59 515.35,-1239.98"/>
</g>
<!-- D9_ing -->
<g id="node34" class="node"><title>D9_ing</title>
<polygon fill="peachpuff" stroke="black" points="718.5,-1135 575.5,-1135 575.5,-1097 718.5,-1097 718.5,-1135"/>
<text text-anchor="middle" x="647" y="-1119.8" font-family="Times,serif" font-size="14.00">DOBJ: beef loin steak</text>
<text text-anchor="middle" x="647" y="-1104.8" font-family="Times,serif" font-size="14.00">(text: steak strips)</text>
</g>
<!-- D9_ing&#45;&gt;E9 -->
<g id="edge16" class="edge"><title>D9_ing&#45;&gt;E9</title>
<path fill="none" stroke="black" d="M647.74,-1096.92C647.366,-1082.32 644.512,-1062.12 633,-1049 622.687,-1037.25 608.293,-1029.33 593.563,-1024"/>
<polygon fill="black" stroke="black" points="594.466,-1020.61 583.874,-1020.86 592.305,-1027.27 594.466,-1020.61"/>
</g>
<!-- P11_0_ing -->
<g id="node35" class="node"><title>P11_0_ing</title>
<polygon fill="peachpuff" stroke="black" points="1415,-1239 989,-1239 989,-1201 1415,-1201 1415,-1239"/>
<text text-anchor="middle" x="1202" y="-1223.8" font-family="Times,serif" font-size="14.00">PREP: in Burgundy wine, (14 ounce) can beef consomme, lemon juice</text>
<text text-anchor="middle" x="1202" y="-1208.8" font-family="Times,serif" font-size="14.00">(text: in consomme , &#160;burgundy, lemon juice)</text>
</g>
<!-- P11_0_ing&#45;&gt;E11 -->
<g id="edge20" class="edge"><title>P11_0_ing&#45;&gt;E11</title>
<path fill="none" stroke="black" d="M1202,-1200.76C1202,-1185.03 1202,-1162.08 1202,-1144.18"/>
<polygon fill="black" stroke="black" points="1205.5,-1144.06 1202,-1134.06 1198.5,-1144.06 1205.5,-1144.06"/>
</g>
<!-- D13_ing -->
<g id="node36" class="node"><title>D13_ing</title>
<polygon fill="peachpuff" stroke="black" points="900,-1031 742,-1031 742,-993 900,-993 900,-1031"/>
<text text-anchor="middle" x="821" y="-1015.8" font-family="Times,serif" font-size="14.00">DOBJ: all&#45;purpose flour</text>
<text text-anchor="middle" x="821" y="-1000.8" font-family="Times,serif" font-size="14.00">(text: flour)</text>
</g>
<!-- D13_ing&#45;&gt;E13 -->
<g id="edge23" class="edge"><title>D13_ing&#45;&gt;E13</title>
<path fill="none" stroke="black" d="M851.571,-992.943C881.212,-975.436 926.125,-948.908 957.14,-930.59"/>
<polygon fill="black" stroke="black" points="959.06,-933.521 965.891,-925.421 955.5,-927.493 959.06,-933.521"/>
</g>
<!-- P13_0_0 -->
<g id="node37" class="node"><title>P13_0_0</title>
<polygon fill="white" stroke="black" points="1066,-1030 918,-1030 918,-994 1066,-994 1066,-1030"/>
<text text-anchor="middle" x="992" y="-1008.3" font-family="Times,serif" font-size="14.00">PREP: in a small bowl</text>
</g>
<!-- P13_0_0&#45;&gt;E13 -->
<g id="edge24" class="edge"><title>P13_0_0&#45;&gt;E13</title>
<path fill="none" stroke="black" d="M992,-993.867C992,-978.414 992,-955.416 992,-937.409"/>
<polygon fill="black" stroke="black" points="995.5,-937.217 992,-927.217 988.5,-937.217 995.5,-937.217"/>
</g>
<!-- P13_2_0 -->
<g id="node38" class="node"><title>P13_2_0</title>
<polygon fill="white" stroke="black" points="1216,-1030 1084,-1030 1084,-994 1216,-994 1216,-1030"/>
<text text-anchor="middle" x="1150" y="-1008.3" font-family="Times,serif" font-size="14.00">PREP: until smooth</text>
</g>
<!-- P13_2_0&#45;&gt;E13 -->
<g id="edge26" class="edge"><title>P13_2_0&#45;&gt;E13</title>
<path fill="none" stroke="black" d="M1123.2,-993.867C1096.15,-976.576 1054.32,-949.84 1025.19,-931.219"/>
<polygon fill="black" stroke="black" points="1026.9,-928.157 1016.59,-925.72 1023.13,-934.055 1026.9,-928.157"/>
</g>
<!-- P14_0_0 -->
<g id="node39" class="node"><title>P14_0_0</title>
<polygon fill="white" stroke="black" points="723.5,-1030 626.5,-1030 626.5,-994 723.5,-994 723.5,-1030"/>
<text text-anchor="middle" x="675" y="-1008.3" font-family="Times,serif" font-size="14.00">PREP: to low</text>
</g>
<!-- P14_0_0&#45;&gt;E14 -->
<g id="edge28" class="edge"><title>P14_0_0&#45;&gt;E14</title>
<path fill="none" stroke="black" d="M675,-993.867C675,-978.414 675,-955.416 675,-937.409"/>
<polygon fill="black" stroke="black" points="678.5,-937.217 675,-927.217 671.5,-937.217 678.5,-937.217"/>
</g>
<!-- P16_0_0 -->
<g id="node40" class="node"><title>P16_0_0</title>
<polygon fill="white" stroke="black" points="771.5,-825 674.5,-825 674.5,-789 771.5,-789 771.5,-825"/>
<text text-anchor="middle" x="723" y="-803.3" font-family="Times,serif" font-size="14.00">PREP: to boil</text>
</g>
<!-- P16_0_0&#45;&gt;E16 -->
<g id="edge32" class="edge"><title>P16_0_0&#45;&gt;E16</title>
<path fill="none" stroke="black" d="M730.142,-788.581C736.491,-773.095 745.869,-750.222 753.146,-732.473"/>
<polygon fill="black" stroke="black" points="756.385,-733.799 756.94,-723.219 749.908,-731.144 756.385,-733.799"/>
</g>
<!-- P19_0_0 -->
<g id="node41" class="node"><title>P19_0_0</title>
<polygon fill="white" stroke="black" points="667.5,-519 552.5,-519 552.5,-483 667.5,-483 667.5,-519"/>
<text text-anchor="middle" x="610" y="-497.3" font-family="Times,serif" font-size="14.00">PREP: from heat</text>
</g>
<!-- P19_0_0&#45;&gt;E19 -->
<g id="edge36" class="edge"><title>P19_0_0&#45;&gt;E19</title>
<path fill="none" stroke="black" d="M618.013,-482.581C625.136,-467.095 635.658,-444.222 643.822,-426.473"/>
<polygon fill="black" stroke="black" points="647.08,-427.767 648.079,-417.219 640.72,-424.841 647.08,-427.767"/>
</g>
<!-- P21_0_ing -->
<g id="node42" class="node"><title>P21_0_ing</title>
<polygon fill="peachpuff" stroke="black" points="583,-315 329,-315 329,-277 583,-277 583,-315"/>
<text text-anchor="middle" x="456" y="-299.8" font-family="Times,serif" font-size="14.00">PREP: in (8 ounce) container sour cream</text>
<text text-anchor="middle" x="456" y="-284.8" font-family="Times,serif" font-size="14.00">(text: in sour cream)</text>
</g>
<!-- P21_0_ing&#45;&gt;E21 -->
<g id="edge39" class="edge"><title>P21_0_ing&#45;&gt;E21</title>
<path fill="none" stroke="black" d="M456,-276.943C456,-261.531 456,-239.127 456,-221.488"/>
<polygon fill="black" stroke="black" points="459.5,-221.226 456,-211.226 452.5,-221.226 459.5,-221.226"/>
</g>
</g>
</svg>
