<?xml version="1.0" encoding="UTF-8" standalone="no"?>
<!DOCTYPE svg PUBLIC "-//W3C//DTD SVG 1.1//EN"
 "http://www.w3.org/Graphics/SVG/1.1/DTD/svg11.dtd">
<!-- Generated by graphviz version 2.38.0 (20140413.2041)
 -->
<!-- Title: recipe Pages: 1 -->
<svg width="2098pt" height="1324pt"
 viewBox="0.00 0.00 2098.00 1324.00" xmlns="http://www.w3.org/2000/svg" xmlns:xlink="http://www.w3.org/1999/xlink">
<g id="graph0" class="graph" transform="scale(1 1) rotate(0) translate(4 1320)">
<title>recipe</title>
<polygon fill="white" stroke="none" points="-4,4 -4,-1320 2094,-1320 2094,4 -4,4"/>
<!-- E0 -->
<g id="node1" class="node"><title>E0</title>
<ellipse fill="azure" stroke="black" cx="1898.5" cy="-1223" rx="73.387" ry="18"/>
<text text-anchor="middle" x="1898.5" y="-1219.3" font-family="Times,serif" font-size="14.00">combine (S0,P0)</text>
</g>
<!-- E1 -->
<g id="node2" class="node"><title>E1</title>
<ellipse fill="azure" stroke="black" cx="1784.5" cy="-1120" rx="51.1914" ry="18"/>
<text text-anchor="middle" x="1784.5" y="-1116.3" font-family="Times,serif" font-size="14.00">set (S1,P0)</text>
</g>
<!-- E0&#45;&gt;E1 -->
<g id="edge5" class="edge"><title>E0&#45;&gt;E1</title>
<path fill="none" stroke="black" d="M1879.93,-1205.55C1861.02,-1188.79 1831.55,-1162.68 1810.36,-1143.91"/>
<polygon fill="black" stroke="black" points="1812.49,-1141.12 1802.68,-1137.11 1807.85,-1146.36 1812.49,-1141.12"/>
<text text-anchor="middle" x="1889.5" y="-1175.8" font-family="Times,serif" font-size="14.00">OUTPUT: </text>
<text text-anchor="middle" x="1889.5" y="-1160.8" font-family="Times,serif" font-size="14.00">INPUT: </text>
</g>
<!-- E2 -->
<g id="node3" class="node"><title>E2</title>
<ellipse fill="azure" stroke="black" cx="1699.5" cy="-1016" rx="53.0913" ry="18"/>
<text text-anchor="middle" x="1699.5" y="-1012.3" font-family="Times,serif" font-size="14.00">stir (S1,P1)</text>
</g>
<!-- E1&#45;&gt;E2 -->
<g id="edge7" class="edge"><title>E1&#45;&gt;E2</title>
<path fill="none" stroke="black" d="M1770.84,-1102.61C1757.11,-1086.13 1735.76,-1060.51 1720,-1041.59"/>
<polygon fill="black" stroke="black" points="1722.5,-1039.13 1713.41,-1033.69 1717.12,-1043.61 1722.5,-1039.13"/>
<text text-anchor="middle" x="1783.5" y="-1071.8" font-family="Times,serif" font-size="14.00">OUTPUT: </text>
<text text-anchor="middle" x="1783.5" y="-1056.8" font-family="Times,serif" font-size="14.00">INPUT: </text>
</g>
<!-- E5 -->
<g id="node6" class="node"><title>E5</title>
<ellipse fill="azure" stroke="black" cx="1570.5" cy="-912" rx="56.59" ry="18"/>
<text text-anchor="middle" x="1570.5" y="-908.3" font-family="Times,serif" font-size="14.00">beat (S4,P0)</text>
</g>
<!-- E2&#45;&gt;E5 -->
<g id="edge10" class="edge"><title>E2&#45;&gt;E5</title>
<path fill="none" stroke="black" d="M1679.63,-999.286C1657.91,-982.115 1622.96,-954.478 1598.48,-935.12"/>
<polygon fill="black" stroke="black" points="1600.62,-932.357 1590.61,-928.9 1596.28,-937.848 1600.62,-932.357"/>
<text text-anchor="middle" x="1718" y="-967.8" font-family="Times,serif" font-size="14.00">OUTPUT: </text>
<text text-anchor="middle" x="1718" y="-952.8" font-family="Times,serif" font-size="14.00">INPUT: in a large bowl</text>
</g>
<!-- E3 -->
<g id="node4" class="node"><title>E3</title>
<ellipse fill="azure" stroke="black" cx="174.5" cy="-397" rx="68.7879" ry="18"/>
<text text-anchor="middle" x="174.5" y="-393.3" font-family="Times,serif" font-size="14.00">preheat (S2,P0)</text>
</g>
<!-- E11 -->
<g id="node12" class="node"><title>E11</title>
<ellipse fill="azure" stroke="black" cx="481.5" cy="-295" rx="63.8893" ry="18"/>
<text text-anchor="middle" x="481.5" y="-291.3" font-family="Times,serif" font-size="14.00">bake (S10,P0)</text>
</g>
<!-- E3&#45;&gt;E11 -->
<g id="edge25" class="edge"><title>E3&#45;&gt;E11</title>
<path fill="none" stroke="black" d="M182.286,-378.929C190.281,-363.559 204.269,-341.78 223.5,-331 259.53,-310.803 367.742,-319.699 408.5,-313 414.176,-312.067 420.068,-310.95 425.933,-309.739"/>
<polygon fill="black" stroke="black" points="426.694,-313.155 435.733,-307.63 425.221,-306.312 426.694,-313.155"/>
<text text-anchor="middle" x="310" y="-349.8" font-family="Times,serif" font-size="14.00">OUTPUT: </text>
<text text-anchor="middle" x="310" y="-334.8" font-family="Times,serif" font-size="14.00">INPUT: in the preheated oven</text>
</g>
<!-- E4 -->
<g id="node5" class="node"><title>E4</title>
<ellipse fill="azure" stroke="black" cx="689.5" cy="-499" rx="102.082" ry="18"/>
<text text-anchor="middle" x="689.5" y="-495.3" font-family="Times,serif" font-size="14.00">grease and flour (S3,P0)</text>
</g>
<!-- E10 -->
<g id="node11" class="node"><title>E10</title>
<ellipse fill="azure" stroke="black" cx="814.5" cy="-397" rx="59.5901" ry="18"/>
<text text-anchor="middle" x="814.5" y="-393.3" font-family="Times,serif" font-size="14.00">pour (S9,P0)</text>
</g>
<!-- E4&#45;&gt;E10 -->
<g id="edge22" class="edge"><title>E4&#45;&gt;E10</title>
<path fill="none" stroke="black" d="M695.485,-480.947C701.357,-466.44 711.609,-445.954 726.5,-433 736.288,-424.485 748.403,-417.894 760.48,-412.85"/>
<polygon fill="black" stroke="black" points="762.045,-415.998 770.112,-409.129 759.523,-409.468 762.045,-415.998"/>
<text text-anchor="middle" x="815.5" y="-451.8" font-family="Times,serif" font-size="14.00">OUTPUT: </text>
<text text-anchor="middle" x="815.5" y="-436.8" font-family="Times,serif" font-size="14.00">INPUT: into the prepared pans</text>
</g>
<!-- E6 -->
<g id="node7" class="node"><title>E6</title>
<ellipse fill="azure" stroke="black" cx="1407.5" cy="-808" rx="56.59" ry="18"/>
<text text-anchor="middle" x="1407.5" y="-804.3" font-family="Times,serif" font-size="14.00">beat (S5,P0)</text>
</g>
<!-- E5&#45;&gt;E6 -->
<g id="edge12" class="edge"><title>E5&#45;&gt;E6</title>
<path fill="none" stroke="black" d="M1546.1,-895.73C1518.13,-878.228 1472.13,-849.445 1440.87,-829.88"/>
<polygon fill="black" stroke="black" points="1442.4,-826.713 1432.07,-824.375 1438.69,-832.647 1442.4,-826.713"/>
<text text-anchor="middle" x="1539.5" y="-863.8" font-family="Times,serif" font-size="14.00">OUTPUT: </text>
<text text-anchor="middle" x="1539.5" y="-848.8" font-family="Times,serif" font-size="14.00">INPUT: </text>
</g>
<!-- E7 -->
<g id="node8" class="node"><title>E7</title>
<ellipse fill="azure" stroke="black" cx="1292.5" cy="-705" rx="53.0913" ry="18"/>
<text text-anchor="middle" x="1292.5" y="-701.3" font-family="Times,serif" font-size="14.00">stir (S6,P0)</text>
</g>
<!-- E6&#45;&gt;E7 -->
<g id="edge14" class="edge"><title>E6&#45;&gt;E7</title>
<path fill="none" stroke="black" d="M1389.02,-790.773C1369.99,-774.06 1340.17,-747.865 1318.71,-729.016"/>
<polygon fill="black" stroke="black" points="1320.75,-726.156 1310.93,-722.187 1316.13,-731.416 1320.75,-726.156"/>
<text text-anchor="middle" x="1395.5" y="-759.8" font-family="Times,serif" font-size="14.00">OUTPUT: </text>
<text text-anchor="middle" x="1395.5" y="-744.8" font-family="Times,serif" font-size="14.00">INPUT: </text>
</g>
<!-- E8 -->
<g id="node9" class="node"><title>E8</title>
<ellipse fill="azure" stroke="black" cx="1181.5" cy="-602" rx="87.9851" ry="18"/>
<text text-anchor="middle" x="1181.5" y="-598.3" font-family="Times,serif" font-size="14.00">combine stir (S7,P0)</text>
</g>
<!-- E7&#45;&gt;E8 -->
<g id="edge16" class="edge"><title>E7&#45;&gt;E8</title>
<path fill="none" stroke="black" d="M1274.67,-687.773C1256.52,-671.258 1228.19,-645.484 1207.53,-626.689"/>
<polygon fill="black" stroke="black" points="1209.78,-624.002 1200.03,-619.861 1205.07,-629.18 1209.78,-624.002"/>
<text text-anchor="middle" x="1284.5" y="-657.8" font-family="Times,serif" font-size="14.00">OUTPUT: </text>
<text text-anchor="middle" x="1284.5" y="-642.8" font-family="Times,serif" font-size="14.00">INPUT: </text>
</g>
<!-- E9 -->
<g id="node10" class="node"><title>E9</title>
<ellipse fill="azure" stroke="black" cx="974.5" cy="-499" rx="53.0913" ry="18"/>
<text text-anchor="middle" x="974.5" y="-495.3" font-family="Times,serif" font-size="14.00">stir (S8,P0)</text>
</g>
<!-- E8&#45;&gt;E9 -->
<g id="edge18" class="edge"><title>E8&#45;&gt;E9</title>
<path fill="none" stroke="black" d="M1149.16,-585.219C1112.21,-567.19 1051.81,-537.72 1012.61,-518.593"/>
<polygon fill="black" stroke="black" points="1014.13,-515.443 1003.61,-514.203 1011.06,-521.734 1014.13,-515.443"/>
<text text-anchor="middle" x="1134.5" y="-553.8" font-family="Times,serif" font-size="14.00">OUTPUT: </text>
<text text-anchor="middle" x="1134.5" y="-538.8" font-family="Times,serif" font-size="14.00">INPUT: </text>
</g>
<!-- E9&#45;&gt;E10 -->
<g id="edge21" class="edge"><title>E9&#45;&gt;E10</title>
<path fill="none" stroke="black" d="M960.066,-481.442C946.807,-467.057 926.003,-446.47 904.5,-433 892.382,-425.408 878.347,-418.99 865.019,-413.806"/>
<polygon fill="black" stroke="black" points="866.069,-410.462 855.476,-410.25 863.625,-417.022 866.069,-410.462"/>
<text text-anchor="middle" x="972.5" y="-451.8" font-family="Times,serif" font-size="14.00">OUTPUT: </text>
<text text-anchor="middle" x="972.5" y="-436.8" font-family="Times,serif" font-size="14.00">INPUT: </text>
</g>
<!-- E10&#45;&gt;E11 -->
<g id="edge23" class="edge"><title>E10&#45;&gt;E11</title>
<path fill="none" stroke="black" d="M773.668,-383.738C713.124,-365.557 599.582,-331.46 533.277,-311.549"/>
<polygon fill="black" stroke="black" points="534.037,-308.123 523.453,-308.599 532.024,-314.827 534.037,-308.123"/>
<text text-anchor="middle" x="728.5" y="-349.8" font-family="Times,serif" font-size="14.00">OUTPUT: </text>
<text text-anchor="middle" x="728.5" y="-334.8" font-family="Times,serif" font-size="14.00">INPUT: </text>
</g>
<!-- E12 -->
<g id="node13" class="node"><title>E12</title>
<ellipse fill="azure" stroke="black" cx="293.5" cy="-193" rx="62.2891" ry="18"/>
<text text-anchor="middle" x="293.5" y="-189.3" font-family="Times,serif" font-size="14.00">cool (S11,P0)</text>
</g>
<!-- E11&#45;&gt;E12 -->
<g id="edge27" class="edge"><title>E11&#45;&gt;E12</title>
<path fill="none" stroke="black" d="M452.947,-278.812C420.416,-261.508 367.123,-233.161 331.2,-214.053"/>
<polygon fill="black" stroke="black" points="332.486,-210.773 322.013,-209.167 329.198,-216.953 332.486,-210.773"/>
<text text-anchor="middle" x="446.5" y="-247.8" font-family="Times,serif" font-size="14.00">OUTPUT: </text>
<text text-anchor="middle" x="446.5" y="-232.8" font-family="Times,serif" font-size="14.00">INPUT: </text>
</g>
<!-- E13 -->
<g id="node14" class="node"><title>E13</title>
<ellipse fill="azure" stroke="black" cx="161.5" cy="-91" rx="63.8893" ry="18"/>
<text text-anchor="middle" x="161.5" y="-87.3" font-family="Times,serif" font-size="14.00">frost (S12,P0)</text>
</g>
<!-- E12&#45;&gt;E13 -->
<g id="edge30" class="edge"><title>E12&#45;&gt;E13</title>
<path fill="none" stroke="black" d="M272.292,-175.933C250.257,-159.24 215.611,-132.993 190.932,-114.297"/>
<polygon fill="black" stroke="black" points="192.74,-111.276 182.655,-108.027 188.513,-116.855 192.74,-111.276"/>
<text text-anchor="middle" x="278.5" y="-145.8" font-family="Times,serif" font-size="14.00">OUTPUT: </text>
<text text-anchor="middle" x="278.5" y="-130.8" font-family="Times,serif" font-size="14.00">INPUT: </text>
</g>
<!-- EOR -->
<g id="node33" class="node"><title>EOR</title>
<ellipse fill="plum" stroke="black" cx="161.5" cy="-18" rx="57.3905" ry="18"/>
<text text-anchor="middle" x="161.5" y="-14.3" font-family="Times,serif" font-size="14.00">Bon appetit!</text>
</g>
<!-- E13&#45;&gt;EOR -->
<g id="edge32" class="edge"><title>E13&#45;&gt;EOR</title>
<path fill="none" stroke="black" d="M161.5,-72.8129C161.5,-64.7895 161.5,-55.0475 161.5,-46.0691"/>
<polygon fill="black" stroke="black" points="165,-46.0288 161.5,-36.0288 158,-46.0289 165,-46.0288"/>
</g>
<!-- D0 -->
<g id="node15" class="node"><title>D0</title>
<polygon fill="peachpuff" stroke="black" points="1906.5,-1316 1670.5,-1316 1670.5,-1278 1906.5,-1278 1906.5,-1316"/>
<text text-anchor="middle" x="1788.5" y="-1300.8" font-family="Times,serif" font-size="14.00">DOBJ: grated carrots, brown sugar</text>
<text text-anchor="middle" x="1788.5" y="-1285.8" font-family="Times,serif" font-size="14.00">(text: grated carrots and brown sugar)</text>
</g>
<!-- D0&#45;&gt;E0 -->
<g id="edge1" class="edge"><title>D0&#45;&gt;E0</title>
<path fill="none" stroke="black" d="M1816.26,-1277.83C1831.19,-1268.06 1849.7,-1255.94 1865.38,-1245.68"/>
<polygon fill="black" stroke="black" points="1867.3,-1248.6 1873.75,-1240.2 1863.47,-1242.75 1867.3,-1248.6"/>
</g>
<!-- P0_0 -->
<g id="node16" class="node"><title>P0_0</title>
<polygon fill="white" stroke="black" points="2090,-1315 1925,-1315 1925,-1279 2090,-1279 2090,-1315"/>
<text text-anchor="middle" x="2007.5" y="-1293.3" font-family="Times,serif" font-size="14.00">PREP: in a medium bowl</text>
</g>
<!-- P0_0&#45;&gt;E0 -->
<g id="edge2" class="edge"><title>P0_0&#45;&gt;E0</title>
<path fill="none" stroke="black" d="M1981.67,-1278.94C1966.69,-1269.04 1947.67,-1256.48 1931.6,-1245.87"/>
<polygon fill="black" stroke="black" points="1933.3,-1242.79 1923.02,-1240.2 1929.44,-1248.63 1933.3,-1242.79"/>
</g>
<!-- D3 -->
<g id="node17" class="node"><title>D3</title>
<polygon fill="white" stroke="black" points="333.5,-517 15.5,-517 15.5,-481 333.5,-481 333.5,-517"/>
<text text-anchor="middle" x="174.5" y="-495.3" font-family="Times,serif" font-size="14.00">DOBJ: oven to 350 degrees F &#45;LRB&#45; 175 degrees C</text>
</g>
<!-- D3&#45;&gt;E3 -->
<g id="edge3" class="edge"><title>D3&#45;&gt;E3</title>
<path fill="none" stroke="black" d="M174.5,-480.581C174.5,-465.382 174.5,-443.067 174.5,-425.464"/>
<polygon fill="black" stroke="black" points="178,-425.219 174.5,-415.219 171,-425.219 178,-425.219"/>
</g>
<!-- D4 -->
<g id="node18" class="node"><title>D4</title>
<polygon fill="white" stroke="black" points="688,-620 499,-620 499,-584 688,-584 688,-620"/>
<text text-anchor="middle" x="593.5" y="-598.3" font-family="Times,serif" font-size="14.00">DOBJ: two 10 inch cake pans</text>
</g>
<!-- D4&#45;&gt;E4 -->
<g id="edge4" class="edge"><title>D4&#45;&gt;E4</title>
<path fill="none" stroke="black" d="M609.785,-583.867C625.325,-567.517 648.893,-542.722 666.376,-524.328"/>
<polygon fill="black" stroke="black" points="669.103,-526.54 673.455,-516.88 664.029,-521.717 669.103,-526.54"/>
</g>
<!-- P1_0_0 -->
<g id="node19" class="node"><title>P1_0_0</title>
<polygon fill="white" stroke="black" points="1807.5,-1241 1663.5,-1241 1663.5,-1205 1807.5,-1205 1807.5,-1241"/>
<text text-anchor="middle" x="1735.5" y="-1219.3" font-family="Times,serif" font-size="14.00">PREP: for 60 minutes</text>
</g>
<!-- P1_0_0&#45;&gt;E1 -->
<g id="edge6" class="edge"><title>P1_0_0&#45;&gt;E1</title>
<path fill="none" stroke="black" d="M1743.81,-1204.87C1751.5,-1189.03 1763.03,-1165.26 1771.85,-1147.07"/>
<polygon fill="black" stroke="black" points="1775.09,-1148.41 1776.31,-1137.88 1768.8,-1145.35 1775.09,-1148.41"/>
</g>
<!-- P2_0_ing -->
<g id="node20" class="node"><title>P2_0_ing</title>
<polygon fill="peachpuff" stroke="black" points="1715,-1139 1604,-1139 1604,-1101 1715,-1101 1715,-1139"/>
<text text-anchor="middle" x="1659.5" y="-1123.8" font-family="Times,serif" font-size="14.00">PREP: in raisins</text>
<text text-anchor="middle" x="1659.5" y="-1108.8" font-family="Times,serif" font-size="14.00">(text: in raisins)</text>
</g>
<!-- P2_0_ing&#45;&gt;E2 -->
<g id="edge8" class="edge"><title>P2_0_ing&#45;&gt;E2</title>
<path fill="none" stroke="black" d="M1666.65,-1100.76C1672.91,-1084.81 1682.07,-1061.43 1689.14,-1043.43"/>
<polygon fill="black" stroke="black" points="1692.42,-1044.65 1692.81,-1034.06 1685.9,-1042.09 1692.42,-1044.65"/>
</g>
<!-- D5_ing -->
<g id="node21" class="node"><title>D5_ing</title>
<polygon fill="peachpuff" stroke="black" points="1494.5,-1035 1408.5,-1035 1408.5,-997 1494.5,-997 1494.5,-1035"/>
<text text-anchor="middle" x="1451.5" y="-1019.8" font-family="Times,serif" font-size="14.00">DOBJ: eggs</text>
<text text-anchor="middle" x="1451.5" y="-1004.8" font-family="Times,serif" font-size="14.00">(text: eggs)</text>
</g>
<!-- D5_ing&#45;&gt;E5 -->
<g id="edge9" class="edge"><title>D5_ing&#45;&gt;E5</title>
<path fill="none" stroke="black" d="M1472.5,-996.999C1492.38,-979.96 1522.31,-954.307 1543.86,-935.836"/>
<polygon fill="black" stroke="black" points="1546.35,-938.306 1551.67,-929.141 1541.8,-932.992 1546.35,-938.306"/>
</g>
<!-- P5_1_0 -->
<g id="node22" class="node"><title>P5_1_0</title>
<polygon fill="white" stroke="black" points="1628.5,-1034 1512.5,-1034 1512.5,-998 1628.5,-998 1628.5,-1034"/>
<text text-anchor="middle" x="1570.5" y="-1012.3" font-family="Times,serif" font-size="14.00">PREP: until light</text>
</g>
<!-- P5_1_0&#45;&gt;E5 -->
<g id="edge11" class="edge"><title>P5_1_0&#45;&gt;E5</title>
<path fill="none" stroke="black" d="M1570.5,-997.697C1570.5,-981.923 1570.5,-958.364 1570.5,-940.094"/>
<polygon fill="black" stroke="black" points="1574,-940.047 1570.5,-930.047 1567,-940.047 1574,-940.047"/>
</g>
<!-- P6_0_ing -->
<g id="node23" class="node"><title>P6_0_ing</title>
<polygon fill="peachpuff" stroke="black" points="1496,-931 1189,-931 1189,-893 1496,-893 1496,-931"/>
<text text-anchor="middle" x="1342.5" y="-915.8" font-family="Times,serif" font-size="14.00">PREP: in vegetable oil, white sugar, vanilla extract</text>
<text text-anchor="middle" x="1342.5" y="-900.8" font-family="Times,serif" font-size="14.00">(text: in &#160;oil, the white sugar , vanilla)</text>
</g>
<!-- P6_0_ing&#45;&gt;E6 -->
<g id="edge13" class="edge"><title>P6_0_ing&#45;&gt;E6</title>
<path fill="none" stroke="black" d="M1354.12,-892.764C1364.44,-876.564 1379.64,-852.714 1391.18,-834.603"/>
<polygon fill="black" stroke="black" points="1394.42,-836.04 1396.84,-825.725 1388.52,-832.278 1394.42,-836.04"/>
</g>
<!-- P7_0_ing -->
<g id="node24" class="node"><title>P7_0_ing</title>
<polygon fill="peachpuff" stroke="black" points="1333,-827 1154,-827 1154,-789 1333,-789 1333,-827"/>
<text text-anchor="middle" x="1243.5" y="-811.8" font-family="Times,serif" font-size="14.00">PREP: in crushed pineapple</text>
<text text-anchor="middle" x="1243.5" y="-796.8" font-family="Times,serif" font-size="14.00">(text: in the pineapple)</text>
</g>
<!-- P7_0_ing&#45;&gt;E7 -->
<g id="edge15" class="edge"><title>P7_0_ing&#45;&gt;E7</title>
<path fill="none" stroke="black" d="M1252.26,-788.943C1259.92,-773.145 1271.15,-749.999 1279.8,-732.17"/>
<polygon fill="black" stroke="black" points="1283.09,-733.418 1284.3,-722.893 1276.79,-730.362 1283.09,-733.418"/>
</g>
<!-- P8_0_0 -->
<g id="node25" class="node"><title>P8_0_0</title>
<polygon fill="white" stroke="black" points="1221.5,-723 1045.5,-723 1045.5,-687 1221.5,-687 1221.5,-723"/>
<text text-anchor="middle" x="1133.5" y="-701.3" font-family="Times,serif" font-size="14.00">PREP: into the wet mixture</text>
</g>
<!-- P8_0_0&#45;&gt;E8 -->
<g id="edge17" class="edge"><title>P8_0_0&#45;&gt;E8</title>
<path fill="none" stroke="black" d="M1141.64,-686.867C1149.09,-671.196 1160.22,-647.766 1168.83,-629.651"/>
<polygon fill="black" stroke="black" points="1172.19,-630.752 1173.32,-620.217 1165.86,-627.747 1172.19,-630.752"/>
</g>
<!-- P9_0_ing -->
<g id="node26" class="node"><title>P9_0_ing</title>
<polygon fill="peachpuff" stroke="black" points="879,-621 706,-621 706,-583 879,-583 879,-621"/>
<text text-anchor="middle" x="792.5" y="-605.8" font-family="Times,serif" font-size="14.00">PREP: in chopped walnuts</text>
<text text-anchor="middle" x="792.5" y="-590.8" font-family="Times,serif" font-size="14.00">(text: in the walnuts)</text>
</g>
<!-- P9_0_ing&#45;&gt;E9 -->
<g id="edge19" class="edge"><title>P9_0_ing&#45;&gt;E9</title>
<path fill="none" stroke="black" d="M825.038,-582.943C857.094,-565.154 905.935,-538.05 938.985,-519.709"/>
<polygon fill="black" stroke="black" points="940.815,-522.696 947.861,-514.783 937.418,-516.575 940.815,-522.696"/>
</g>
<!-- P9_0_0 -->
<g id="node27" class="node"><title>P9_0_0</title>
<polygon fill="white" stroke="black" points="1075.5,-620 897.5,-620 897.5,-584 1075.5,-584 1075.5,-620"/>
<text text-anchor="middle" x="986.5" y="-598.3" font-family="Times,serif" font-size="14.00">PREP: in the carrot mixture</text>
</g>
<!-- P9_0_0&#45;&gt;E9 -->
<g id="edge20" class="edge"><title>P9_0_0&#45;&gt;E9</title>
<path fill="none" stroke="black" d="M984.464,-583.867C982.62,-568.341 979.87,-545.2 977.726,-527.156"/>
<polygon fill="black" stroke="black" points="981.201,-526.735 976.546,-517.217 974.25,-527.56 981.201,-526.735"/>
</g>
<!-- P11_0_0 -->
<g id="node28" class="node"><title>P11_0_0</title>
<polygon fill="white" stroke="black" points="445.5,-415 267.5,-415 267.5,-379 445.5,-379 445.5,-415"/>
<text text-anchor="middle" x="356.5" y="-393.3" font-family="Times,serif" font-size="14.00">PREP: for 45 to 50 minutes</text>
</g>
<!-- P11_0_0&#45;&gt;E11 -->
<g id="edge24" class="edge"><title>P11_0_0&#45;&gt;E11</title>
<path fill="none" stroke="black" d="M377.988,-378.809C398.753,-362.198 430.33,-336.936 453.146,-318.683"/>
<polygon fill="black" stroke="black" points="455.498,-321.284 461.12,-312.304 451.125,-315.818 455.498,-321.284"/>
</g>
<!-- P11_2_0 -->
<g id="node29" class="node"><title>P11_2_0</title>
<polygon fill="white" stroke="black" points="737,-415 464,-415 464,-379 737,-379 737,-415"/>
<text text-anchor="middle" x="600.5" y="-393.3" font-family="Times,serif" font-size="14.00">PREP: until cake tests done with a toothpick</text>
</g>
<!-- P11_2_0&#45;&gt;E11 -->
<g id="edge26" class="edge"><title>P11_2_0&#45;&gt;E11</title>
<path fill="none" stroke="black" d="M580.043,-378.809C560.362,-362.271 530.478,-337.158 508.779,-318.923"/>
<polygon fill="black" stroke="black" points="510.809,-316.058 500.902,-312.304 506.306,-321.417 510.809,-316.058"/>
</g>
<!-- P12_0_0 -->
<g id="node30" class="node"><title>P12_0_0</title>
<polygon fill="white" stroke="black" points="169.5,-313 25.5,-313 25.5,-277 169.5,-277 169.5,-313"/>
<text text-anchor="middle" x="97.5" y="-291.3" font-family="Times,serif" font-size="14.00">PREP: for 10 minutes</text>
</g>
<!-- P12_0_0&#45;&gt;E12 -->
<g id="edge28" class="edge"><title>P12_0_0&#45;&gt;E12</title>
<path fill="none" stroke="black" d="M131.194,-276.809C165.555,-259.278 218.802,-232.111 254.855,-213.717"/>
<polygon fill="black" stroke="black" points="256.765,-216.671 264.082,-209.009 253.584,-210.436 256.765,-216.671"/>
</g>
<!-- P12_1_0 -->
<g id="node31" class="node"><title>P12_1_0</title>
<polygon fill="white" stroke="black" points="399.5,-313 187.5,-313 187.5,-277 399.5,-277 399.5,-313"/>
<text text-anchor="middle" x="293.5" y="-291.3" font-family="Times,serif" font-size="14.00">PREP: before removing from pan</text>
</g>
<!-- P12_1_0&#45;&gt;E12 -->
<g id="edge29" class="edge"><title>P12_1_0&#45;&gt;E12</title>
<path fill="none" stroke="black" d="M293.5,-276.581C293.5,-261.382 293.5,-239.067 293.5,-221.464"/>
<polygon fill="black" stroke="black" points="297,-221.219 293.5,-211.219 290,-221.219 297,-221.219"/>
</g>
<!-- P13_0_0 -->
<g id="node32" class="node"><title>P13_0_0</title>
<polygon fill="white" stroke="black" points="213,-211 0,-211 0,-175 213,-175 213,-211"/>
<text text-anchor="middle" x="106.5" y="-189.3" font-family="Times,serif" font-size="14.00">PREP: with cream cheese frosting</text>
</g>
<!-- P13_0_0&#45;&gt;E13 -->
<g id="edge31" class="edge"><title>P13_0_0&#45;&gt;E13</title>
<path fill="none" stroke="black" d="M116.08,-174.581C124.729,-158.856 137.566,-135.516 147.389,-117.656"/>
<polygon fill="black" stroke="black" points="150.46,-119.335 152.213,-108.886 144.327,-115.961 150.46,-119.335"/>
</g>
</g>
</svg>
