<?xml version="1.0" encoding="UTF-8" standalone="no"?>
<!DOCTYPE svg PUBLIC "-//W3C//DTD SVG 1.1//EN"
 "http://www.w3.org/Graphics/SVG/1.1/DTD/svg11.dtd">
<!-- Generated by graphviz version 2.38.0 (20140413.2041)
 -->
<!-- Title: recipe Pages: 1 -->
<svg width="1037pt" height="910pt"
 viewBox="0.00 0.00 1036.50 910.00" xmlns="http://www.w3.org/2000/svg" xmlns:xlink="http://www.w3.org/1999/xlink">
<g id="graph0" class="graph" transform="scale(1 1) rotate(0) translate(4 906)">
<title>recipe</title>
<polygon fill="white" stroke="none" points="-4,4 -4,-906 1032.5,-906 1032.5,4 -4,4"/>
<!-- E0 -->
<g id="node1" class="node"><title>E0</title>
<ellipse fill="azure" stroke="black" cx="823.5" cy="-602" rx="68.7879" ry="18"/>
<text text-anchor="middle" x="823.5" y="-598.3" font-family="Times,serif" font-size="14.00">preheat (S0,P0)</text>
</g>
<!-- E5 -->
<g id="node6" class="node"><title>E5</title>
<ellipse fill="azure" stroke="black" cx="630.5" cy="-499" rx="59.2899" ry="18"/>
<text text-anchor="middle" x="630.5" y="-495.3" font-family="Times,serif" font-size="14.00">bake (S5,P0)</text>
</g>
<!-- E0&#45;&gt;E5 -->
<g id="edge12" class="edge"><title>E0&#45;&gt;E5</title>
<path fill="none" stroke="black" d="M794.499,-585.578C769.193,-572.147 731.468,-552.187 698.5,-535 688.775,-529.93 678.246,-524.488 668.445,-519.442"/>
<polygon fill="black" stroke="black" points="669.814,-516.21 659.32,-514.75 666.613,-522.435 669.814,-516.21"/>
<text text-anchor="middle" x="839" y="-553.8" font-family="Times,serif" font-size="14.00">OUTPUT: </text>
<text text-anchor="middle" x="839" y="-538.8" font-family="Times,serif" font-size="14.00">INPUT: in the preheated oven</text>
</g>
<!-- E1 -->
<g id="node2" class="node"><title>E1</title>
<ellipse fill="azure" stroke="black" cx="350.5" cy="-705" rx="64.9885" ry="18"/>
<text text-anchor="middle" x="350.5" y="-701.3" font-family="Times,serif" font-size="14.00">grease (S1,P0)</text>
</g>
<!-- E4 -->
<g id="node5" class="node"><title>E4</title>
<ellipse fill="azure" stroke="black" cx="630.5" cy="-602" rx="60.3893" ry="18"/>
<text text-anchor="middle" x="630.5" y="-598.3" font-family="Times,serif" font-size="14.00">press (S4,P0)</text>
</g>
<!-- E1&#45;&gt;E4 -->
<g id="edge10" class="edge"><title>E1&#45;&gt;E4</title>
<path fill="none" stroke="black" d="M364.875,-687.35C379.119,-672.057 402.391,-650.132 427.5,-639 482.434,-614.645 502.541,-632.606 561.5,-621 566.89,-619.939 572.485,-618.705 578.051,-617.39"/>
<polygon fill="black" stroke="black" points="579.11,-620.734 587.99,-614.955 577.444,-613.935 579.11,-620.734"/>
<text text-anchor="middle" x="527" y="-657.8" font-family="Times,serif" font-size="14.00">OUTPUT: </text>
<text text-anchor="middle" x="527" y="-642.8" font-family="Times,serif" font-size="14.00">INPUT: into the prepared loaf pan</text>
</g>
<!-- E2 -->
<g id="node3" class="node"><title>E2</title>
<ellipse fill="azure" stroke="black" cx="487.5" cy="-808" rx="55.7903" ry="18"/>
<text text-anchor="middle" x="487.5" y="-804.3" font-family="Times,serif" font-size="14.00">mix (S2,P0)</text>
</g>
<!-- E3 -->
<g id="node4" class="node"><title>E3</title>
<ellipse fill="azure" stroke="black" cx="630.5" cy="-705" rx="61.99" ry="18"/>
<text text-anchor="middle" x="630.5" y="-701.3" font-family="Times,serif" font-size="14.00">work (S3,P0)</text>
</g>
<!-- E2&#45;&gt;E3 -->
<g id="edge6" class="edge"><title>E2&#45;&gt;E3</title>
<path fill="none" stroke="black" d="M504.627,-790.689C519.897,-776.603 543.217,-756.182 565.5,-741 573.518,-735.537 582.478,-730.244 591.122,-725.499"/>
<polygon fill="black" stroke="black" points="592.797,-728.572 599.963,-720.767 589.494,-722.4 592.797,-728.572"/>
<text text-anchor="middle" x="597.5" y="-759.8" font-family="Times,serif" font-size="14.00">OUTPUT: </text>
<text text-anchor="middle" x="597.5" y="-744.8" font-family="Times,serif" font-size="14.00">INPUT: </text>
</g>
<!-- E3&#45;&gt;E4 -->
<g id="edge9" class="edge"><title>E3&#45;&gt;E4</title>
<path fill="none" stroke="black" d="M630.5,-686.867C630.5,-671.414 630.5,-648.416 630.5,-630.409"/>
<polygon fill="black" stroke="black" points="634,-630.217 630.5,-620.217 627,-630.217 634,-630.217"/>
<text text-anchor="middle" x="704" y="-657.8" font-family="Times,serif" font-size="14.00">OUTPUT: </text>
<text text-anchor="middle" x="704" y="-642.8" font-family="Times,serif" font-size="14.00">INPUT: the meat mixture</text>
</g>
<!-- E4&#45;&gt;E5 -->
<g id="edge11" class="edge"><title>E4&#45;&gt;E5</title>
<path fill="none" stroke="black" d="M630.5,-583.867C630.5,-568.414 630.5,-545.416 630.5,-527.409"/>
<polygon fill="black" stroke="black" points="634,-527.217 630.5,-517.217 627,-527.217 634,-527.217"/>
<text text-anchor="middle" x="662.5" y="-553.8" font-family="Times,serif" font-size="14.00">OUTPUT: </text>
<text text-anchor="middle" x="662.5" y="-538.8" font-family="Times,serif" font-size="14.00">INPUT: </text>
</g>
<!-- E7 -->
<g id="node8" class="node"><title>E7</title>
<ellipse fill="azure" stroke="black" cx="540.5" cy="-397" rx="55.7903" ry="18"/>
<text text-anchor="middle" x="540.5" y="-393.3" font-family="Times,serif" font-size="14.00">pull (S8,P0)</text>
</g>
<!-- E5&#45;&gt;E7 -->
<g id="edge14" class="edge"><title>E5&#45;&gt;E7</title>
<path fill="none" stroke="black" d="M615.638,-481.487C601.047,-465.275 578.632,-440.369 562.079,-421.977"/>
<polygon fill="black" stroke="black" points="564.675,-419.629 555.384,-414.537 559.472,-424.312 564.675,-419.629"/>
<text text-anchor="middle" x="664" y="-451.8" font-family="Times,serif" font-size="14.00">OUTPUT: </text>
<text text-anchor="middle" x="664" y="-436.8" font-family="Times,serif" font-size="14.00">INPUT: from the oven</text>
</g>
<!-- E6 -->
<g id="node7" class="node"><title>E6</title>
<ellipse fill="azure" stroke="black" cx="420.5" cy="-499" rx="55.7903" ry="18"/>
<text text-anchor="middle" x="420.5" y="-495.3" font-family="Times,serif" font-size="14.00">mix (S7,P0)</text>
</g>
<!-- E6&#45;&gt;E7 -->
<g id="edge13" class="edge"><title>E6&#45;&gt;E7</title>
<path fill="none" stroke="black" d="M439.78,-481.933C459.724,-465.313 491.033,-439.222 513.449,-420.542"/>
<polygon fill="black" stroke="black" points="515.826,-423.118 521.268,-414.027 511.345,-417.74 515.826,-423.118"/>
<text text-anchor="middle" x="529.5" y="-451.8" font-family="Times,serif" font-size="14.00">OUTPUT: </text>
<text text-anchor="middle" x="529.5" y="-436.8" font-family="Times,serif" font-size="14.00">INPUT: </text>
</g>
<!-- E8 -->
<g id="node9" class="node"><title>E8</title>
<ellipse fill="azure" stroke="black" cx="540.5" cy="-295" rx="65.7887" ry="18"/>
<text text-anchor="middle" x="540.5" y="-291.3" font-family="Times,serif" font-size="14.00">spread (S8,P1)</text>
</g>
<!-- E7&#45;&gt;E8 -->
<g id="edge15" class="edge"><title>E7&#45;&gt;E8</title>
<path fill="none" stroke="black" d="M540.5,-378.581C540.5,-363.382 540.5,-341.067 540.5,-323.464"/>
<polygon fill="black" stroke="black" points="544,-323.219 540.5,-313.219 537,-323.219 544,-323.219"/>
<text text-anchor="middle" x="572.5" y="-349.8" font-family="Times,serif" font-size="14.00">OUTPUT: </text>
<text text-anchor="middle" x="572.5" y="-334.8" font-family="Times,serif" font-size="14.00">INPUT: </text>
</g>
<!-- E9 -->
<g id="node10" class="node"><title>E9</title>
<ellipse fill="azure" stroke="black" cx="447.5" cy="-193" rx="64.189" ry="18"/>
<text text-anchor="middle" x="447.5" y="-189.3" font-family="Times,serif" font-size="14.00">return (S9,P0)</text>
</g>
<!-- E8&#45;&gt;E9 -->
<g id="edge16" class="edge"><title>E8&#45;&gt;E9</title>
<path fill="none" stroke="black" d="M525.143,-277.487C510.065,-261.275 486.903,-236.369 469.798,-217.977"/>
<polygon fill="black" stroke="black" points="472.253,-215.477 462.88,-210.537 467.127,-220.244 472.253,-215.477"/>
<text text-anchor="middle" x="539.5" y="-247.8" font-family="Times,serif" font-size="14.00">OUTPUT: </text>
<text text-anchor="middle" x="539.5" y="-232.8" font-family="Times,serif" font-size="14.00">INPUT: </text>
</g>
<!-- E10 -->
<g id="node11" class="node"><title>E10</title>
<ellipse fill="azure" stroke="black" cx="447.5" cy="-91" rx="59.2899" ry="18"/>
<text text-anchor="middle" x="447.5" y="-87.3" font-family="Times,serif" font-size="14.00">bake (S9,P1)</text>
</g>
<!-- E9&#45;&gt;E10 -->
<g id="edge18" class="edge"><title>E9&#45;&gt;E10</title>
<path fill="none" stroke="black" d="M447.5,-174.581C447.5,-159.382 447.5,-137.067 447.5,-119.464"/>
<polygon fill="black" stroke="black" points="451,-119.219 447.5,-109.219 444,-119.219 451,-119.219"/>
<text text-anchor="middle" x="479.5" y="-145.8" font-family="Times,serif" font-size="14.00">OUTPUT: </text>
<text text-anchor="middle" x="479.5" y="-130.8" font-family="Times,serif" font-size="14.00">INPUT: </text>
</g>
<!-- EOR -->
<g id="node20" class="node"><title>EOR</title>
<ellipse fill="plum" stroke="black" cx="447.5" cy="-18" rx="57.3905" ry="18"/>
<text text-anchor="middle" x="447.5" y="-14.3" font-family="Times,serif" font-size="14.00">Bon appetit!</text>
</g>
<!-- E10&#45;&gt;EOR -->
<g id="edge19" class="edge"><title>E10&#45;&gt;EOR</title>
<path fill="none" stroke="black" d="M447.5,-72.8129C447.5,-64.7895 447.5,-55.0475 447.5,-46.0691"/>
<polygon fill="black" stroke="black" points="451,-46.0288 447.5,-36.0288 444,-46.0289 451,-46.0288"/>
</g>
<!-- D0 -->
<g id="node12" class="node"><title>D0</title>
<polygon fill="white" stroke="black" points="1028.5,-723 710.5,-723 710.5,-687 1028.5,-687 1028.5,-723"/>
<text text-anchor="middle" x="869.5" y="-701.3" font-family="Times,serif" font-size="14.00">DOBJ: oven to 350 degrees F &#45;LRB&#45; 175 degrees C</text>
</g>
<!-- D0&#45;&gt;E0 -->
<g id="edge1" class="edge"><title>D0&#45;&gt;E0</title>
<path fill="none" stroke="black" d="M861.697,-686.867C854.56,-671.196 843.889,-647.766 835.638,-629.651"/>
<polygon fill="black" stroke="black" points="838.672,-627.867 831.342,-620.217 832.301,-630.769 838.672,-627.867"/>
</g>
<!-- D2 -->
<g id="node13" class="node"><title>D2</title>
<polygon fill="peachpuff" stroke="black" points="599,-902 0,-902 0,-864 599,-864 599,-902"/>
<text text-anchor="middle" x="299.5" y="-886.8" font-family="Times,serif" font-size="14.00">DOBJ: crumbled dried sage, eggs, milk, chopped onion, dry bread crumbs, ground black pepper, salt</text>
<text text-anchor="middle" x="299.5" y="-871.8" font-family="Times,serif" font-size="14.00">(text: the beaten eggs , milk , bread crumbs , onion , salt , black pepper , and sage)</text>
</g>
<!-- D2&#45;&gt;E2 -->
<g id="edge2" class="edge"><title>D2&#45;&gt;E2</title>
<path fill="none" stroke="black" d="M345.972,-863.955C375.865,-852.347 414.462,-837.361 443.796,-825.97"/>
<polygon fill="black" stroke="black" points="445.308,-829.138 453.363,-822.255 442.774,-822.613 445.308,-829.138"/>
</g>
<!-- P2_0 -->
<g id="node14" class="node"><title>P2_0</title>
<polygon fill="white" stroke="black" points="731.5,-901 617.5,-901 617.5,-865 731.5,-865 731.5,-901"/>
<text text-anchor="middle" x="674.5" y="-879.3" font-family="Times,serif" font-size="14.00">PREP: in a bowl</text>
</g>
<!-- P2_0&#45;&gt;E2 -->
<g id="edge3" class="edge"><title>P2_0&#45;&gt;E2</title>
<path fill="none" stroke="black" d="M630.657,-864.885C600.655,-853.173 561.043,-837.709 531.094,-826.018"/>
<polygon fill="black" stroke="black" points="532.322,-822.74 521.734,-822.364 529.777,-829.261 532.322,-822.74"/>
</g>
<!-- D6 -->
<g id="node15" class="node"><title>D6</title>
<polygon fill="peachpuff" stroke="black" points="552,-621 133,-621 133,-583 552,-583 552,-621"/>
<text text-anchor="middle" x="342.5" y="-605.8" font-family="Times,serif" font-size="14.00">DOBJ: dry mustard powder, brown sugar, ketchup</text>
<text text-anchor="middle" x="342.5" y="-590.8" font-family="Times,serif" font-size="14.00">(text: the ketchup , brown sugar , and dry mustard powder in a bowl)</text>
</g>
<!-- D6&#45;&gt;E6 -->
<g id="edge4" class="edge"><title>D6&#45;&gt;E6</title>
<path fill="none" stroke="black" d="M356.445,-582.943C368.947,-566.754 387.407,-542.852 401.302,-524.86"/>
<polygon fill="black" stroke="black" points="404.368,-526.615 407.71,-516.561 398.828,-522.337 404.368,-526.615"/>
</g>
<!-- D1 -->
<g id="node16" class="node"><title>D1</title>
<polygon fill="white" stroke="black" points="414,-826 241,-826 241,-790 414,-790 414,-826"/>
<text text-anchor="middle" x="327.5" y="-804.3" font-family="Times,serif" font-size="14.00">DOBJ: a 9x5&#45;inch loaf pan</text>
</g>
<!-- D1&#45;&gt;E1 -->
<g id="edge5" class="edge"><title>D1&#45;&gt;E1</title>
<path fill="none" stroke="black" d="M331.402,-789.867C334.937,-774.341 340.207,-751.2 344.316,-733.156"/>
<polygon fill="black" stroke="black" points="347.771,-733.745 346.579,-723.217 340.946,-732.191 347.771,-733.745"/>
</g>
<!-- P3_0_ing -->
<g id="node17" class="node"><title>P3_0_ing</title>
<polygon fill="peachpuff" stroke="black" points="722,-827 561,-827 561,-789 722,-789 722,-827"/>
<text text-anchor="middle" x="641.5" y="-811.8" font-family="Times,serif" font-size="14.00">PREP: in ground beef</text>
<text text-anchor="middle" x="641.5" y="-796.8" font-family="Times,serif" font-size="14.00">(text: in the ground beef)</text>
</g>
<!-- P3_0_ing&#45;&gt;E3 -->
<g id="edge7" class="edge"><title>P3_0_ing&#45;&gt;E3</title>
<path fill="none" stroke="black" d="M639.533,-788.943C637.855,-773.531 635.415,-751.127 633.494,-733.488"/>
<polygon fill="black" stroke="black" points="636.938,-732.789 632.376,-723.226 629.979,-733.546 636.938,-732.789"/>
</g>
<!-- P3_1_0 -->
<g id="node18" class="node"><title>P3_1_0</title>
<polygon fill="white" stroke="black" points="865,-826 740,-826 740,-790 865,-790 865,-826"/>
<text text-anchor="middle" x="802.5" y="-804.3" font-family="Times,serif" font-size="14.00">PREP: until mixed</text>
</g>
<!-- P3_1_0&#45;&gt;E3 -->
<g id="edge8" class="edge"><title>P3_1_0&#45;&gt;E3</title>
<path fill="none" stroke="black" d="M773.323,-789.867C743.576,-772.399 697.412,-745.292 665.666,-726.65"/>
<polygon fill="black" stroke="black" points="667.111,-723.439 656.715,-721.394 663.566,-729.476 667.111,-723.439"/>
</g>
<!-- P9_0_0 -->
<g id="node19" class="node"><title>P9_0_0</title>
<polygon fill="white" stroke="black" points="456.5,-313 354.5,-313 354.5,-277 456.5,-277 456.5,-313"/>
<text text-anchor="middle" x="405.5" y="-291.3" font-family="Times,serif" font-size="14.00">PREP: to oven</text>
</g>
<!-- P9_0_0&#45;&gt;E9 -->
<g id="edge17" class="edge"><title>P9_0_0&#45;&gt;E9</title>
<path fill="none" stroke="black" d="M412.816,-276.581C419.32,-261.095 428.927,-238.222 436.381,-220.473"/>
<polygon fill="black" stroke="black" points="439.623,-221.794 440.268,-211.219 433.169,-219.084 439.623,-221.794"/>
</g>
</g>
</svg>
