<?xml version="1.0" encoding="UTF-8" standalone="no"?>
<!DOCTYPE svg PUBLIC "-//W3C//DTD SVG 1.1//EN"
 "http://www.w3.org/Graphics/SVG/1.1/DTD/svg11.dtd">
<!-- Generated by graphviz version 2.38.0 (20140413.2041)
 -->
<!-- Title: recipe Pages: 1 -->
<svg width="1609pt" height="910pt"
 viewBox="0.00 0.00 1609.00 910.00" xmlns="http://www.w3.org/2000/svg" xmlns:xlink="http://www.w3.org/1999/xlink">
<g id="graph0" class="graph" transform="scale(1 1) rotate(0) translate(4 906)">
<title>recipe</title>
<polygon fill="white" stroke="none" points="-4,4 -4,-906 1605,-906 1605,4 -4,4"/>
<!-- E0 -->
<g id="node1" class="node"><title>E0</title>
<ellipse fill="azure" stroke="black" cx="1235.5" cy="-399" rx="56.59" ry="18"/>
<text text-anchor="middle" x="1235.5" y="-395.3" font-family="Times,serif" font-size="14.00">heat (S0,P0)</text>
</g>
<!-- E7 -->
<g id="node8" class="node"><title>E7</title>
<ellipse fill="azure" stroke="black" cx="1080.5" cy="-297" rx="69.5877" ry="18"/>
<text text-anchor="middle" x="1080.5" y="-293.3" font-family="Times,serif" font-size="14.00">remove (S5,P0)</text>
</g>
<!-- E0&#45;&gt;E7 -->
<g id="edge12" class="edge"><title>E0&#45;&gt;E7</title>
<path fill="none" stroke="black" d="M1211.62,-382.594C1185.46,-365.713 1143.29,-338.513 1113.87,-319.527"/>
<polygon fill="black" stroke="black" points="1115.48,-316.4 1105.18,-313.92 1111.68,-322.282 1115.48,-316.4"/>
<text text-anchor="middle" x="1231" y="-351.8" font-family="Times,serif" font-size="14.00">OUTPUT: </text>
<text text-anchor="middle" x="1231" y="-336.8" font-family="Times,serif" font-size="14.00">INPUT: the pork</text>
</g>
<!-- E1 -->
<g id="node2" class="node"><title>E1</title>
<ellipse fill="azure" stroke="black" cx="697.5" cy="-809" rx="55.4913" ry="18"/>
<text text-anchor="middle" x="697.5" y="-805.3" font-family="Times,serif" font-size="14.00">add (S1,P0)</text>
</g>
<!-- E2 -->
<g id="node3" class="node"><title>E2</title>
<ellipse fill="azure" stroke="black" cx="697.5" cy="-707" rx="59.5901" ry="18"/>
<text text-anchor="middle" x="697.5" y="-703.3" font-family="Times,serif" font-size="14.00">cook (S1,P1)</text>
</g>
<!-- E1&#45;&gt;E2 -->
<g id="edge5" class="edge"><title>E1&#45;&gt;E2</title>
<path fill="none" stroke="black" d="M697.5,-790.581C697.5,-775.382 697.5,-753.067 697.5,-735.464"/>
<polygon fill="black" stroke="black" points="701,-735.219 697.5,-725.219 694,-735.219 701,-735.219"/>
<text text-anchor="middle" x="729.5" y="-761.8" font-family="Times,serif" font-size="14.00">OUTPUT: </text>
<text text-anchor="middle" x="729.5" y="-746.8" font-family="Times,serif" font-size="14.00">INPUT: </text>
</g>
<!-- E4 -->
<g id="node5" class="node"><title>E4</title>
<ellipse fill="azure" stroke="black" cx="697.5" cy="-605" rx="55.4913" ry="18"/>
<text text-anchor="middle" x="697.5" y="-601.3" font-family="Times,serif" font-size="14.00">add (S3,P0)</text>
</g>
<!-- E2&#45;&gt;E4 -->
<g id="edge6" class="edge"><title>E2&#45;&gt;E4</title>
<path fill="none" stroke="black" d="M697.5,-688.581C697.5,-673.382 697.5,-651.067 697.5,-633.464"/>
<polygon fill="black" stroke="black" points="701,-633.219 697.5,-623.219 694,-633.219 701,-633.219"/>
<text text-anchor="middle" x="747" y="-659.8" font-family="Times,serif" font-size="14.00">OUTPUT: </text>
<text text-anchor="middle" x="747" y="-644.8" font-family="Times,serif" font-size="14.00">INPUT: the pork</text>
</g>
<!-- E3 -->
<g id="node4" class="node"><title>E3</title>
<ellipse fill="azure" stroke="black" cx="342.5" cy="-399" rx="53.0913" ry="18"/>
<text text-anchor="middle" x="342.5" y="-395.3" font-family="Times,serif" font-size="14.00">stir (S2,P0)</text>
</g>
<!-- E8 -->
<g id="node9" class="node"><title>E8</title>
<ellipse fill="azure" stroke="black" cx="486.5" cy="-297" rx="50.0912" ry="18"/>
<text text-anchor="middle" x="486.5" y="-293.3" font-family="Times,serif" font-size="14.00">let (S5,P1)</text>
</g>
<!-- E3&#45;&gt;E8 -->
<g id="edge15" class="edge"><title>E3&#45;&gt;E8</title>
<path fill="none" stroke="black" d="M354.47,-381.438C365.572,-367.05 383.242,-346.462 402.5,-333 413.85,-325.066 427.276,-318.461 440.025,-313.207"/>
<polygon fill="black" stroke="black" points="441.566,-316.362 449.597,-309.452 439.01,-309.845 441.566,-316.362"/>
<text text-anchor="middle" x="442.5" y="-351.8" font-family="Times,serif" font-size="14.00">OUTPUT: </text>
<text text-anchor="middle" x="442.5" y="-336.8" font-family="Times,serif" font-size="14.00">INPUT: stand</text>
</g>
<!-- E5 -->
<g id="node6" class="node"><title>E5</title>
<ellipse fill="azure" stroke="black" cx="758.5" cy="-502" rx="57.3905" ry="18"/>
<text text-anchor="middle" x="758.5" y="-498.3" font-family="Times,serif" font-size="14.00">turn (S3,P1)</text>
</g>
<!-- E4&#45;&gt;E5 -->
<g id="edge7" class="edge"><title>E4&#45;&gt;E5</title>
<path fill="none" stroke="black" d="M707.848,-586.867C717.502,-570.882 732.032,-546.825 743.057,-528.569"/>
<polygon fill="black" stroke="black" points="746.131,-530.25 748.305,-519.88 740.139,-526.631 746.131,-530.25"/>
<text text-anchor="middle" x="767.5" y="-557.8" font-family="Times,serif" font-size="14.00">OUTPUT: </text>
<text text-anchor="middle" x="767.5" y="-542.8" font-family="Times,serif" font-size="14.00">INPUT: </text>
</g>
<!-- E6 -->
<g id="node7" class="node"><title>E6</title>
<ellipse fill="azure" stroke="black" cx="883.5" cy="-399" rx="98.5829" ry="18"/>
<text text-anchor="middle" x="883.5" y="-395.3" font-family="Times,serif" font-size="14.00">cover and cook (S4,P0)</text>
</g>
<!-- E5&#45;&gt;E6 -->
<g id="edge9" class="edge"><title>E5&#45;&gt;E6</title>
<path fill="none" stroke="black" d="M770.41,-484.262C781.235,-469.901 798.263,-449.318 816.5,-435 823.177,-429.758 830.758,-424.93 838.359,-420.642"/>
<polygon fill="black" stroke="black" points="840.091,-423.684 847.239,-415.863 836.774,-417.52 840.091,-423.684"/>
<text text-anchor="middle" x="848.5" y="-453.8" font-family="Times,serif" font-size="14.00">OUTPUT: </text>
<text text-anchor="middle" x="848.5" y="-438.8" font-family="Times,serif" font-size="14.00">INPUT: </text>
</g>
<!-- E6&#45;&gt;E7 -->
<g id="edge13" class="edge"><title>E6&#45;&gt;E7</title>
<path fill="none" stroke="black" d="M892.221,-380.94C900.739,-366.015 915.094,-344.913 933.5,-333 954.986,-319.094 981.445,-310.703 1005.97,-305.645"/>
<polygon fill="black" stroke="black" points="1006.8,-309.048 1015.97,-303.738 1005.49,-302.172 1006.8,-309.048"/>
<text text-anchor="middle" x="1005" y="-351.8" font-family="Times,serif" font-size="14.00">OUTPUT: </text>
<text text-anchor="middle" x="1005" y="-336.8" font-family="Times,serif" font-size="14.00">INPUT: from the cooker</text>
</g>
<!-- E9 -->
<g id="node10" class="node"><title>E9</title>
<ellipse fill="azure" stroke="black" cx="1080.5" cy="-194" rx="61.99" ry="18"/>
<text text-anchor="middle" x="1080.5" y="-190.3" font-family="Times,serif" font-size="14.00">shred (S6,P0)</text>
</g>
<!-- E7&#45;&gt;E9 -->
<g id="edge17" class="edge"><title>E7&#45;&gt;E9</title>
<path fill="none" stroke="black" d="M1080.5,-278.867C1080.5,-263.414 1080.5,-240.416 1080.5,-222.409"/>
<polygon fill="black" stroke="black" points="1084,-222.217 1080.5,-212.217 1077,-222.217 1084,-222.217"/>
<text text-anchor="middle" x="1130" y="-249.8" font-family="Times,serif" font-size="14.00">OUTPUT: </text>
<text text-anchor="middle" x="1130" y="-234.8" font-family="Times,serif" font-size="14.00">INPUT: the pork</text>
</g>
<!-- E10 -->
<g id="node11" class="node"><title>E10</title>
<ellipse fill="azure" stroke="black" cx="622.5" cy="-194" rx="64.189" ry="18"/>
<text text-anchor="middle" x="622.5" y="-190.3" font-family="Times,serif" font-size="14.00">return (S7,P0)</text>
</g>
<!-- E8&#45;&gt;E10 -->
<g id="edge18" class="edge"><title>E8&#45;&gt;E10</title>
<path fill="none" stroke="black" d="M491.245,-278.804C496.101,-264.205 505.02,-243.665 519.5,-231 531.313,-220.668 546.269,-213.252 561.095,-207.948"/>
<polygon fill="black" stroke="black" points="562.381,-211.21 570.785,-204.758 560.192,-204.561 562.381,-211.21"/>
<text text-anchor="middle" x="569" y="-249.8" font-family="Times,serif" font-size="14.00">OUTPUT: </text>
<text text-anchor="middle" x="569" y="-234.8" font-family="Times,serif" font-size="14.00">INPUT: the pork</text>
</g>
<!-- E11 -->
<g id="node12" class="node"><title>E11</title>
<ellipse fill="azure" stroke="black" cx="852.5" cy="-91" rx="64.189" ry="18"/>
<text text-anchor="middle" x="852.5" y="-87.3" font-family="Times,serif" font-size="14.00">divide (S8,P0)</text>
</g>
<!-- E9&#45;&gt;E11 -->
<g id="edge21" class="edge"><title>E9&#45;&gt;E11</title>
<path fill="none" stroke="black" d="M1047.83,-178.529C1007.57,-160.692 939.057,-130.343 894.805,-110.74"/>
<polygon fill="black" stroke="black" points="896.037,-107.458 885.476,-106.608 893.202,-113.858 896.037,-107.458"/>
<text text-anchor="middle" x="1044" y="-145.8" font-family="Times,serif" font-size="14.00">OUTPUT: </text>
<text text-anchor="middle" x="1044" y="-130.8" font-family="Times,serif" font-size="14.00">INPUT: the pork</text>
</g>
<!-- E10&#45;&gt;E11 -->
<g id="edge22" class="edge"><title>E10&#45;&gt;E11</title>
<path fill="none" stroke="black" d="M655.453,-178.529C696.072,-160.692 765.184,-130.343 809.824,-110.74"/>
<polygon fill="black" stroke="black" points="811.486,-113.833 819.235,-106.608 808.671,-107.424 811.486,-113.833"/>
<text text-anchor="middle" x="804.5" y="-145.8" font-family="Times,serif" font-size="14.00">OUTPUT: </text>
<text text-anchor="middle" x="804.5" y="-130.8" font-family="Times,serif" font-size="14.00">INPUT: &#160;</text>
</g>
<!-- EOR -->
<g id="node24" class="node"><title>EOR</title>
<ellipse fill="plum" stroke="black" cx="852.5" cy="-18" rx="57.3905" ry="18"/>
<text text-anchor="middle" x="852.5" y="-14.3" font-family="Times,serif" font-size="14.00">Bon appetit!</text>
</g>
<!-- E11&#45;&gt;EOR -->
<g id="edge23" class="edge"><title>E11&#45;&gt;EOR</title>
<path fill="none" stroke="black" d="M852.5,-72.8129C852.5,-64.7895 852.5,-55.0475 852.5,-46.0691"/>
<polygon fill="black" stroke="black" points="856,-46.0288 852.5,-36.0288 849,-46.0289 856,-46.0288"/>
</g>
<!-- D1 -->
<g id="node13" class="node"><title>D1</title>
<polygon fill="peachpuff" stroke="black" points="810.5,-902 584.5,-902 584.5,-864 810.5,-864 810.5,-902"/>
<text text-anchor="middle" x="697.5" y="-886.8" font-family="Times,serif" font-size="14.00">DOBJ: boneless pork shoulder roast</text>
<text text-anchor="middle" x="697.5" y="-871.8" font-family="Times,serif" font-size="14.00">(text: the pork)</text>
</g>
<!-- D1&#45;&gt;E1 -->
<g id="edge1" class="edge"><title>D1&#45;&gt;E1</title>
<path fill="none" stroke="black" d="M697.5,-863.831C697.5,-855.894 697.5,-846.409 697.5,-837.628"/>
<polygon fill="black" stroke="black" points="701,-837.418 697.5,-827.418 694,-837.418 701,-837.418"/>
</g>
<!-- D0 -->
<g id="node14" class="node"><title>D0</title>
<polygon fill="peachpuff" stroke="black" points="1277.5,-521 1145.5,-521 1145.5,-483 1277.5,-483 1277.5,-521"/>
<text text-anchor="middle" x="1211.5" y="-505.8" font-family="Times,serif" font-size="14.00">DOBJ: vegetable oil</text>
<text text-anchor="middle" x="1211.5" y="-490.8" font-family="Times,serif" font-size="14.00">(text: the oil)</text>
</g>
<!-- D0&#45;&gt;E0 -->
<g id="edge2" class="edge"><title>D0&#45;&gt;E0</title>
<path fill="none" stroke="black" d="M1215.79,-482.943C1219.49,-467.386 1224.88,-444.704 1229.09,-426.99"/>
<polygon fill="black" stroke="black" points="1232.5,-427.765 1231.41,-417.226 1225.69,-426.146 1232.5,-427.765"/>
</g>
<!-- P0_0 -->
<g id="node15" class="node"><title>P0_0</title>
<polygon fill="white" stroke="black" points="1601,-520 1296,-520 1296,-484 1601,-484 1601,-520"/>
<text text-anchor="middle" x="1448.5" y="-498.3" font-family="Times,serif" font-size="14.00">PREP: in a 10&#45;inch skillet over medium&#45;high heat</text>
</g>
<!-- P0_0&#45;&gt;E0 -->
<g id="edge3" class="edge"><title>P0_0&#45;&gt;E0</title>
<path fill="none" stroke="black" d="M1412.37,-483.867C1374.13,-465.735 1313.98,-437.215 1274.64,-418.559"/>
<polygon fill="black" stroke="black" points="1276.14,-415.395 1265.6,-414.273 1273.14,-421.72 1276.14,-415.395"/>
</g>
<!-- D3 -->
<g id="node16" class="node"><title>D3</title>
<polygon fill="peachpuff" stroke="black" points="683,-521 0,-521 0,-483 683,-483 683,-521"/>
<text text-anchor="middle" x="341.5" y="-505.8" font-family="Times,serif" font-size="14.00">DOBJ: cider vinegar, ketchup, (10.5 ounce) can Campbell&#39;s® Condensed French Onion Soup, packed brown sugar</text>
<text text-anchor="middle" x="341.5" y="-490.8" font-family="Times,serif" font-size="14.00">(text: the soup , ketchup , vinegar and brown sugar in a 5&#45;quart slow cooker)</text>
</g>
<!-- D3&#45;&gt;E3 -->
<g id="edge4" class="edge"><title>D3&#45;&gt;E3</title>
<path fill="none" stroke="black" d="M341.679,-482.943C341.831,-467.531 342.053,-445.127 342.228,-427.488"/>
<polygon fill="black" stroke="black" points="345.73,-427.26 342.329,-417.226 338.731,-427.191 345.73,-427.26"/>
</g>
<!-- P5_0_0 -->
<g id="node17" class="node"><title>P5_0_0</title>
<polygon fill="white" stroke="black" points="868.5,-623 770.5,-623 770.5,-587 868.5,-587 868.5,-623"/>
<text text-anchor="middle" x="819.5" y="-601.3" font-family="Times,serif" font-size="14.00">PREP: to coat</text>
</g>
<!-- P5_0_0&#45;&gt;E5 -->
<g id="edge8" class="edge"><title>P5_0_0&#45;&gt;E5</title>
<path fill="none" stroke="black" d="M818.306,-586.793C816.663,-572.953 812.763,-553.493 803.5,-539 800.255,-533.923 796.047,-529.243 791.508,-525.054"/>
<polygon fill="black" stroke="black" points="793.582,-522.225 783.669,-518.483 789.085,-527.589 793.582,-522.225"/>
</g>
<!-- P6_0_0 -->
<g id="node18" class="node"><title>P6_0_0</title>
<polygon fill="white" stroke="black" points="935,-520 834,-520 834,-484 935,-484 935,-520"/>
<text text-anchor="middle" x="884.5" y="-498.3" font-family="Times,serif" font-size="14.00">PREP: on low</text>
</g>
<!-- P6_0_0&#45;&gt;E6 -->
<g id="edge10" class="edge"><title>P6_0_0&#45;&gt;E6</title>
<path fill="none" stroke="black" d="M884.33,-483.867C884.177,-468.414 883.95,-445.416 883.771,-427.409"/>
<polygon fill="black" stroke="black" points="887.269,-427.182 883.67,-417.217 880.27,-427.252 887.269,-427.182"/>
</g>
<!-- P6_1_0 -->
<g id="node19" class="node"><title>P6_1_0</title>
<polygon fill="white" stroke="black" points="1104,-520 953,-520 953,-484 1104,-484 1104,-520"/>
<text text-anchor="middle" x="1028.5" y="-498.3" font-family="Times,serif" font-size="14.00">PREP: for 8 to 9 hours</text>
</g>
<!-- P6_1_0&#45;&gt;E6 -->
<g id="edge11" class="edge"><title>P6_1_0&#45;&gt;E6</title>
<path fill="none" stroke="black" d="M1003.9,-483.867C979.551,-466.905 942.149,-440.852 915.498,-422.289"/>
<polygon fill="black" stroke="black" points="917.46,-419.389 907.254,-416.546 913.459,-425.133 917.46,-419.389"/>
</g>
<!-- P7_1_0 -->
<g id="node20" class="node"><title>P7_1_0</title>
<polygon fill="white" stroke="black" points="1161,-417 1000,-417 1000,-381 1161,-381 1161,-417"/>
<text text-anchor="middle" x="1080.5" y="-395.3" font-family="Times,serif" font-size="14.00">PREP: to a cutting board</text>
</g>
<!-- P7_1_0&#45;&gt;E7 -->
<g id="edge14" class="edge"><title>P7_1_0&#45;&gt;E7</title>
<path fill="none" stroke="black" d="M1080.5,-380.581C1080.5,-365.382 1080.5,-343.067 1080.5,-325.464"/>
<polygon fill="black" stroke="black" points="1084,-325.219 1080.5,-315.219 1077,-325.219 1084,-325.219"/>
</g>
<!-- P8_0_0 -->
<g id="node21" class="node"><title>P8_0_0</title>
<polygon fill="white" stroke="black" points="558.5,-417 414.5,-417 414.5,-381 558.5,-381 558.5,-417"/>
<text text-anchor="middle" x="486.5" y="-395.3" font-family="Times,serif" font-size="14.00">PREP: for 10 minutes</text>
</g>
<!-- P8_0_0&#45;&gt;E8 -->
<g id="edge16" class="edge"><title>P8_0_0&#45;&gt;E8</title>
<path fill="none" stroke="black" d="M486.5,-380.581C486.5,-365.382 486.5,-343.067 486.5,-325.464"/>
<polygon fill="black" stroke="black" points="490,-325.219 486.5,-315.219 483,-325.219 490,-325.219"/>
</g>
<!-- P10_0_0 -->
<g id="node22" class="node"><title>P10_0_0</title>
<polygon fill="white" stroke="black" points="690,-315 555,-315 555,-279 690,-279 690,-315"/>
<text text-anchor="middle" x="622.5" y="-293.3" font-family="Times,serif" font-size="14.00">PREP: to the cooker</text>
</g>
<!-- P10_0_0&#45;&gt;E10 -->
<g id="edge19" class="edge"><title>P10_0_0&#45;&gt;E10</title>
<path fill="none" stroke="black" d="M622.5,-278.867C622.5,-263.414 622.5,-240.416 622.5,-222.409"/>
<polygon fill="black" stroke="black" points="626,-222.217 622.5,-212.217 619,-222.217 626,-222.217"/>
</g>
<!-- D11_ing -->
<g id="node23" class="node"><title>D11_ing</title>
<polygon fill="peachpuff" stroke="black" points="1000.5,-213 704.5,-213 704.5,-175 1000.5,-175 1000.5,-213"/>
<text text-anchor="middle" x="852.5" y="-197.8" font-family="Times,serif" font-size="14.00">DOBJ: round sandwich rolls or hamburger rolls</text>
<text text-anchor="middle" x="852.5" y="-182.8" font-family="Times,serif" font-size="14.00">(text: sauce mixture among the rolls)</text>
</g>
<!-- D11_ing&#45;&gt;E11 -->
<g id="edge20" class="edge"><title>D11_ing&#45;&gt;E11</title>
<path fill="none" stroke="black" d="M852.5,-174.943C852.5,-159.531 852.5,-137.127 852.5,-119.488"/>
<polygon fill="black" stroke="black" points="856,-119.226 852.5,-109.226 849,-119.226 856,-119.226"/>
</g>
</g>
</svg>
