<?xml version="1.0" encoding="UTF-8" standalone="no"?>
<!DOCTYPE svg PUBLIC "-//W3C//DTD SVG 1.1//EN"
 "http://www.w3.org/Graphics/SVG/1.1/DTD/svg11.dtd">
<!-- Generated by graphviz version 2.38.0 (20140413.2041)
 -->
<!-- Title: recipe Pages: 1 -->
<svg width="1573pt" height="708pt"
 viewBox="0.00 0.00 1572.50 708.00" xmlns="http://www.w3.org/2000/svg" xmlns:xlink="http://www.w3.org/1999/xlink">
<g id="graph0" class="graph" transform="scale(1 1) rotate(0) translate(4 704)">
<title>recipe</title>
<polygon fill="white" stroke="none" points="-4,4 -4,-704 1568.5,-704 1568.5,4 -4,4"/>
<!-- E0 -->
<g id="node1" class="node"><title>E0</title>
<ellipse fill="azure" stroke="black" cx="1267.5" cy="-503" rx="59.5901" ry="18"/>
<text text-anchor="middle" x="1267.5" y="-499.3" font-family="Times,serif" font-size="14.00">cook (S0,P0)</text>
</g>
<!-- E2 -->
<g id="node3" class="node"><title>E2</title>
<ellipse fill="azure" stroke="black" cx="1267.5" cy="-400" rx="61.1893" ry="18"/>
<text text-anchor="middle" x="1267.5" y="-396.3" font-family="Times,serif" font-size="14.00">drain (S2,P0)</text>
</g>
<!-- E0&#45;&gt;E2 -->
<g id="edge5" class="edge"><title>E0&#45;&gt;E2</title>
<path fill="none" stroke="black" d="M1267.5,-484.867C1267.5,-469.414 1267.5,-446.416 1267.5,-428.409"/>
<polygon fill="black" stroke="black" points="1271,-428.217 1267.5,-418.217 1264,-428.217 1271,-428.217"/>
<text text-anchor="middle" x="1306" y="-455.8" font-family="Times,serif" font-size="14.00">OUTPUT: </text>
<text text-anchor="middle" x="1306" y="-440.8" font-family="Times,serif" font-size="14.00">INPUT: meat</text>
</g>
<!-- E1 -->
<g id="node2" class="node"><title>E1</title>
<ellipse fill="azure" stroke="black" cx="167.5" cy="-606" rx="62.2891" ry="18"/>
<text text-anchor="middle" x="167.5" y="-602.3" font-family="Times,serif" font-size="14.00">puree (S1,P0)</text>
</g>
<!-- E3 -->
<g id="node4" class="node"><title>E3</title>
<ellipse fill="azure" stroke="black" cx="235.5" cy="-503" rx="53.0913" ry="18"/>
<text text-anchor="middle" x="235.5" y="-499.3" font-family="Times,serif" font-size="14.00">stir (S3,P0)</text>
</g>
<!-- E1&#45;&gt;E3 -->
<g id="edge6" class="edge"><title>E1&#45;&gt;E3</title>
<path fill="none" stroke="black" d="M163.571,-587.933C161.289,-573.749 160.413,-553.599 169.5,-539 174.18,-531.481 181.058,-525.484 188.63,-520.73"/>
<polygon fill="black" stroke="black" points="190.678,-523.598 197.747,-515.705 187.299,-517.467 190.678,-523.598"/>
<text text-anchor="middle" x="230" y="-557.8" font-family="Times,serif" font-size="14.00">OUTPUT: </text>
<text text-anchor="middle" x="230" y="-542.8" font-family="Times,serif" font-size="14.00">INPUT: pureed soup</text>
</g>
<!-- E4 -->
<g id="node5" class="node"><title>E4</title>
<ellipse fill="azure" stroke="black" cx="1160.5" cy="-296" rx="66.0889" ry="18"/>
<text text-anchor="middle" x="1160.5" y="-292.3" font-family="Times,serif" font-size="14.00">reduce (S3,P1)</text>
</g>
<!-- E2&#45;&gt;E4 -->
<g id="edge8" class="edge"><title>E2&#45;&gt;E4</title>
<path fill="none" stroke="black" d="M1250.31,-382.612C1232.79,-365.908 1205.42,-339.824 1185.5,-320.835"/>
<polygon fill="black" stroke="black" points="1187.66,-318.053 1178,-313.686 1182.83,-323.12 1187.66,-318.053"/>
<text text-anchor="middle" x="1264" y="-351.8" font-family="Times,serif" font-size="14.00">OUTPUT: </text>
<text text-anchor="middle" x="1264" y="-336.8" font-family="Times,serif" font-size="14.00">INPUT: heat</text>
</g>
<!-- E5 -->
<g id="node6" class="node"><title>E5</title>
<ellipse fill="azure" stroke="black" cx="235.5" cy="-400" rx="69.5877" ry="18"/>
<text text-anchor="middle" x="235.5" y="-396.3" font-family="Times,serif" font-size="14.00">simmer (S3,P2)</text>
</g>
<!-- E3&#45;&gt;E5 -->
<g id="edge9" class="edge"><title>E3&#45;&gt;E5</title>
<path fill="none" stroke="black" d="M235.5,-484.867C235.5,-469.414 235.5,-446.416 235.5,-428.409"/>
<polygon fill="black" stroke="black" points="239,-428.217 235.5,-418.217 232,-428.217 239,-428.217"/>
<text text-anchor="middle" x="288.5" y="-455.8" font-family="Times,serif" font-size="14.00">OUTPUT: </text>
<text text-anchor="middle" x="288.5" y="-440.8" font-family="Times,serif" font-size="14.00">INPUT: 5 minutes</text>
</g>
<!-- E7 -->
<g id="node8" class="node"><title>E7</title>
<ellipse fill="azure" stroke="black" cx="962.5" cy="-193" rx="53.0913" ry="18"/>
<text text-anchor="middle" x="962.5" y="-189.3" font-family="Times,serif" font-size="14.00">stir (S5,P0)</text>
</g>
<!-- E4&#45;&gt;E7 -->
<g id="edge14" class="edge"><title>E4&#45;&gt;E7</title>
<path fill="none" stroke="black" d="M1130.86,-279.879C1095.95,-262.073 1037.92,-232.472 999.938,-213.097"/>
<polygon fill="black" stroke="black" points="1001.24,-209.831 990.74,-208.405 998.057,-216.067 1001.24,-209.831"/>
<text text-anchor="middle" x="1129.5" y="-247.8" font-family="Times,serif" font-size="14.00">OUTPUT: </text>
<text text-anchor="middle" x="1129.5" y="-232.8" font-family="Times,serif" font-size="14.00">INPUT: in cola</text>
</g>
<!-- E6 -->
<g id="node7" class="node"><title>E6</title>
<ellipse fill="azure" stroke="black" cx="755.5" cy="-296" rx="53.0913" ry="18"/>
<text text-anchor="middle" x="755.5" y="-292.3" font-family="Times,serif" font-size="14.00">stir (S4,P0)</text>
</g>
<!-- E5&#45;&gt;E6 -->
<g id="edge10" class="edge"><title>E5&#45;&gt;E6</title>
<path fill="none" stroke="black" d="M284.951,-387.282C294.414,-385.127 304.252,-382.945 313.5,-381 451.772,-351.918 615.331,-321.993 699.397,-306.938"/>
<polygon fill="black" stroke="black" points="700.02,-310.382 709.248,-305.177 698.788,-303.491 700.02,-310.382"/>
<text text-anchor="middle" x="586.5" y="-351.8" font-family="Times,serif" font-size="14.00">OUTPUT: </text>
<text text-anchor="middle" x="586.5" y="-336.8" font-family="Times,serif" font-size="14.00">INPUT: </text>
</g>
<!-- E6&#45;&gt;E7 -->
<g id="edge12" class="edge"><title>E6&#45;&gt;E7</title>
<path fill="none" stroke="black" d="M784.719,-280.743C821.319,-262.885 884.113,-232.247 924.438,-212.571"/>
<polygon fill="black" stroke="black" points="925.977,-215.715 933.43,-208.184 922.908,-209.424 925.977,-215.715"/>
<text text-anchor="middle" x="922.5" y="-247.8" font-family="Times,serif" font-size="14.00">OUTPUT: </text>
<text text-anchor="middle" x="922.5" y="-232.8" font-family="Times,serif" font-size="14.00">INPUT: </text>
</g>
<!-- E8 -->
<g id="node9" class="node"><title>E8</title>
<ellipse fill="azure" stroke="black" cx="962.5" cy="-91" rx="56.59" ry="18"/>
<text text-anchor="middle" x="962.5" y="-87.3" font-family="Times,serif" font-size="14.00">heat (S6,P0)</text>
</g>
<!-- E7&#45;&gt;E8 -->
<g id="edge15" class="edge"><title>E7&#45;&gt;E8</title>
<path fill="none" stroke="black" d="M962.5,-174.581C962.5,-159.382 962.5,-137.067 962.5,-119.464"/>
<polygon fill="black" stroke="black" points="966,-119.219 962.5,-109.219 959,-119.219 966,-119.219"/>
<text text-anchor="middle" x="994.5" y="-145.8" font-family="Times,serif" font-size="14.00">OUTPUT: </text>
<text text-anchor="middle" x="994.5" y="-130.8" font-family="Times,serif" font-size="14.00">INPUT: </text>
</g>
<!-- EOR -->
<g id="node17" class="node"><title>EOR</title>
<ellipse fill="plum" stroke="black" cx="962.5" cy="-18" rx="57.3905" ry="18"/>
<text text-anchor="middle" x="962.5" y="-14.3" font-family="Times,serif" font-size="14.00">Bon appetit!</text>
</g>
<!-- E8&#45;&gt;EOR -->
<g id="edge16" class="edge"><title>E8&#45;&gt;EOR</title>
<path fill="none" stroke="black" d="M962.5,-72.8129C962.5,-64.7895 962.5,-55.0475 962.5,-46.0691"/>
<polygon fill="black" stroke="black" points="966,-46.0288 962.5,-36.0288 959,-46.0289 966,-46.0288"/>
</g>
<!-- D1 -->
<g id="node10" class="node"><title>D1</title>
<polygon fill="peachpuff" stroke="black" points="335,-700 0,-700 0,-662 335,-662 335,-700"/>
<text text-anchor="middle" x="167.5" y="-684.8" font-family="Times,serif" font-size="14.00">DOBJ: (10.5 ounce) can condensed French onion soup</text>
<text text-anchor="middle" x="167.5" y="-669.8" font-family="Times,serif" font-size="14.00">(text: French onion soup in a blender until smooth)</text>
</g>
<!-- D1&#45;&gt;E1 -->
<g id="edge1" class="edge"><title>D1&#45;&gt;E1</title>
<path fill="none" stroke="black" d="M167.5,-661.955C167.5,-653.701 167.5,-643.738 167.5,-634.574"/>
<polygon fill="black" stroke="black" points="171,-634.335 167.5,-624.335 164,-634.335 171,-634.335"/>
</g>
<!-- D0 -->
<g id="node11" class="node"><title>D0</title>
<polygon fill="peachpuff" stroke="black" points="1098,-625 817,-625 817,-587 1098,-587 1098,-625"/>
<text text-anchor="middle" x="957.5" y="-609.8" font-family="Times,serif" font-size="14.00">DOBJ: vegetable oil, ground beef, salt</text>
<text text-anchor="middle" x="957.5" y="-594.8" font-family="Times,serif" font-size="14.00">(text: beef with oil and salt over medium heat)</text>
</g>
<!-- D0&#45;&gt;E0 -->
<g id="edge2" class="edge"><title>D0&#45;&gt;E0</title>
<path fill="none" stroke="black" d="M1012.92,-586.943C1071.41,-567.888 1162.7,-538.145 1218.6,-519.933"/>
<polygon fill="black" stroke="black" points="1219.84,-523.208 1228.27,-516.782 1217.68,-516.552 1219.84,-523.208"/>
</g>
<!-- P0_0 -->
<g id="node12" class="node"><title>P0_0</title>
<polygon fill="white" stroke="black" points="1418.5,-624 1116.5,-624 1116.5,-588 1418.5,-588 1418.5,-624"/>
<text text-anchor="middle" x="1267.5" y="-602.3" font-family="Times,serif" font-size="14.00">PREP: in a deep skillet or i would large saucepan</text>
</g>
<!-- P0_0&#45;&gt;E0 -->
<g id="edge3" class="edge"><title>P0_0&#45;&gt;E0</title>
<path fill="none" stroke="black" d="M1267.5,-587.867C1267.5,-572.414 1267.5,-549.416 1267.5,-531.409"/>
<polygon fill="black" stroke="black" points="1271,-531.217 1267.5,-521.217 1264,-531.217 1271,-531.217"/>
</g>
<!-- P0_1 -->
<g id="node13" class="node"><title>P0_1</title>
<polygon fill="white" stroke="black" points="1564.5,-624 1436.5,-624 1436.5,-588 1564.5,-588 1564.5,-624"/>
<text text-anchor="middle" x="1500.5" y="-602.3" font-family="Times,serif" font-size="14.00">PREP: until brown</text>
</g>
<!-- P0_1&#45;&gt;E0 -->
<g id="edge4" class="edge"><title>P0_1&#45;&gt;E0</title>
<path fill="none" stroke="black" d="M1461.24,-587.981C1419.16,-569.74 1352.61,-540.892 1309.5,-522.206"/>
<polygon fill="black" stroke="black" points="1310.71,-518.916 1300.14,-518.15 1307.93,-525.338 1310.71,-518.916"/>
</g>
<!-- P3_0_0 -->
<g id="node14" class="node"><title>P3_0_0</title>
<polygon fill="white" stroke="black" points="361,-624 248,-624 248,-588 361,-588 361,-624"/>
<text text-anchor="middle" x="304.5" y="-602.3" font-family="Times,serif" font-size="14.00">PREP: into meat</text>
</g>
<!-- P3_0_0&#45;&gt;E3 -->
<g id="edge7" class="edge"><title>P3_0_0&#45;&gt;E3</title>
<path fill="none" stroke="black" d="M304.438,-587.849C303.601,-573.614 300.515,-553.436 290.5,-539 286.331,-532.99 280.761,-527.785 274.765,-523.36"/>
<polygon fill="black" stroke="black" points="276.679,-520.429 266.414,-517.807 272.803,-526.259 276.679,-520.429"/>
</g>
<!-- P6_0_ing -->
<g id="node15" class="node"><title>P6_0_ing</title>
<polygon fill="peachpuff" stroke="black" points="1188,-419 323,-419 323,-381 1188,-381 1188,-419"/>
<text text-anchor="middle" x="755.5" y="-403.8" font-family="Times,serif" font-size="14.00">PREP: in chili powder, (6 ounce) can tomato paste, ground black pepper, (15 ounce) cans kidney beans, ground cumin, (8 ounce) can tomato sauce</text>
<text text-anchor="middle" x="755.5" y="-388.8" font-family="Times,serif" font-size="14.00">(text: in &#160;tomato paste , &#160;pepper , &#160;cumin , beans, chili powder , &#160;tomato sauce )</text>
</g>
<!-- P6_0_ing&#45;&gt;E6 -->
<g id="edge11" class="edge"><title>P6_0_ing&#45;&gt;E6</title>
<path fill="none" stroke="black" d="M755.5,-380.764C755.5,-365.031 755.5,-342.083 755.5,-324.183"/>
<polygon fill="black" stroke="black" points="759,-324.06 755.5,-314.06 752,-324.06 759,-324.06"/>
</g>
<!-- P7_0_ing -->
<g id="node16" class="node"><title>P7_0_ing</title>
<polygon fill="peachpuff" stroke="black" points="1055,-315 870,-315 870,-277 1055,-277 1055,-315"/>
<text text-anchor="middle" x="962.5" y="-299.8" font-family="Times,serif" font-size="14.00">PREP: in unsweetened cocoa</text>
<text text-anchor="middle" x="962.5" y="-284.8" font-family="Times,serif" font-size="14.00">(text: in cocoa)</text>
</g>
<!-- P7_0_ing&#45;&gt;E7 -->
<g id="edge13" class="edge"><title>P7_0_ing&#45;&gt;E7</title>
<path fill="none" stroke="black" d="M962.5,-276.943C962.5,-261.531 962.5,-239.127 962.5,-221.488"/>
<polygon fill="black" stroke="black" points="966,-221.226 962.5,-211.226 959,-221.226 966,-221.226"/>
</g>
</g>
</svg>
