<?xml version="1.0" encoding="UTF-8" standalone="no"?>
<!DOCTYPE svg PUBLIC "-//W3C//DTD SVG 1.1//EN"
 "http://www.w3.org/Graphics/SVG/1.1/DTD/svg11.dtd">
<!-- Generated by graphviz version 2.38.0 (20140413.2041)
 -->
<!-- Title: recipe Pages: 1 -->
<svg width="1003pt" height="602pt"
 viewBox="0.00 0.00 1002.50 602.00" xmlns="http://www.w3.org/2000/svg" xmlns:xlink="http://www.w3.org/1999/xlink">
<g id="graph0" class="graph" transform="scale(1 1) rotate(0) translate(4 598)">
<title>recipe</title>
<polygon fill="white" stroke="none" points="-4,4 -4,-598 998.5,-598 998.5,4 -4,4"/>
<!-- E0 -->
<g id="node1" class="node"><title>E0</title>
<ellipse fill="azure" stroke="black" cx="754" cy="-398" rx="56.59" ry="18"/>
<text text-anchor="middle" x="754" y="-394.3" font-family="Times,serif" font-size="14.00">beat (S0,P0)</text>
</g>
<!-- E3 -->
<g id="node4" class="node"><title>E3</title>
<ellipse fill="azure" stroke="black" cx="530" cy="-295" rx="53.8905" ry="18"/>
<text text-anchor="middle" x="530" y="-291.3" font-family="Times,serif" font-size="14.00">dip (S2,P0)</text>
</g>
<!-- E0&#45;&gt;E3 -->
<g id="edge6" class="edge"><title>E0&#45;&gt;E3</title>
<path fill="none" stroke="black" d="M722.854,-382.956C682.983,-364.979 613.842,-333.804 570.083,-314.073"/>
<polygon fill="black" stroke="black" points="571.437,-310.844 560.882,-309.924 568.559,-317.225 571.437,-310.844"/>
<text text-anchor="middle" x="742" y="-349.8" font-family="Times,serif" font-size="14.00">OUTPUT: </text>
<text text-anchor="middle" x="742" y="-334.8" font-family="Times,serif" font-size="14.00">INPUT: into egg mixture</text>
</g>
<!-- E1 -->
<g id="node2" class="node"><title>E1</title>
<ellipse fill="azure" stroke="black" cx="98" cy="-502" rx="56.59" ry="18"/>
<text text-anchor="middle" x="98" y="-498.3" font-family="Times,serif" font-size="14.00">heat (S1,P0)</text>
</g>
<!-- E2 -->
<g id="node3" class="node"><title>E2</title>
<ellipse fill="azure" stroke="black" cx="214" cy="-398" rx="68.4888" ry="18"/>
<text text-anchor="middle" x="214" y="-394.3" font-family="Times,serif" font-size="14.00">griddle (S1,P1)</text>
</g>
<!-- E1&#45;&gt;E2 -->
<g id="edge3" class="edge"><title>E1&#45;&gt;E2</title>
<path fill="none" stroke="black" d="M112.438,-484.387C124.904,-470.48 143.738,-450.481 162,-435 167.758,-430.119 174.174,-425.263 180.479,-420.771"/>
<polygon fill="black" stroke="black" points="182.715,-423.479 188.935,-414.902 178.724,-417.728 182.715,-423.479"/>
<text text-anchor="middle" x="194" y="-453.8" font-family="Times,serif" font-size="14.00">OUTPUT: </text>
<text text-anchor="middle" x="194" y="-438.8" font-family="Times,serif" font-size="14.00">INPUT: </text>
</g>
<!-- E2&#45;&gt;E3 -->
<g id="edge7" class="edge"><title>E2&#45;&gt;E3</title>
<path fill="none" stroke="black" d="M211.864,-379.925C211.013,-364.723 212.582,-343.075 226,-331 245.96,-313.038 440.53,-317.518 467,-313 471.708,-312.196 476.573,-311.197 481.417,-310.087"/>
<polygon fill="black" stroke="black" points="482.386,-313.453 491.272,-307.682 480.727,-306.653 482.386,-313.453"/>
<text text-anchor="middle" x="342" y="-349.8" font-family="Times,serif" font-size="14.00">OUTPUT: </text>
<text text-anchor="middle" x="342" y="-334.8" font-family="Times,serif" font-size="14.00">INPUT: until &#160;about 20 seconds per side</text>
</g>
<!-- E4 -->
<g id="node5" class="node"><title>E4</title>
<ellipse fill="azure" stroke="black" cx="449" cy="-193" rx="60.3893" ry="18"/>
<text text-anchor="middle" x="449" y="-189.3" font-family="Times,serif" font-size="14.00">place (S3,P0)</text>
</g>
<!-- E3&#45;&gt;E4 -->
<g id="edge9" class="edge"><title>E3&#45;&gt;E4</title>
<path fill="none" stroke="black" d="M516.624,-277.487C503.688,-261.516 483.917,-237.108 469.089,-218.801"/>
<polygon fill="black" stroke="black" points="471.68,-216.439 462.666,-210.872 466.241,-220.845 471.68,-216.439"/>
<text text-anchor="middle" x="534" y="-247.8" font-family="Times,serif" font-size="14.00">OUTPUT: </text>
<text text-anchor="middle" x="534" y="-232.8" font-family="Times,serif" font-size="14.00">INPUT: </text>
</g>
<!-- E5 -->
<g id="node6" class="node"><title>E5</title>
<ellipse fill="azure" stroke="black" cx="347" cy="-91" rx="59.5901" ry="18"/>
<text text-anchor="middle" x="347" y="-87.3" font-family="Times,serif" font-size="14.00">cook (S3,P1)</text>
</g>
<!-- E4&#45;&gt;E5 -->
<g id="edge11" class="edge"><title>E4&#45;&gt;E5</title>
<path fill="none" stroke="black" d="M432.157,-175.487C415.62,-159.275 390.217,-134.369 371.456,-115.977"/>
<polygon fill="black" stroke="black" points="373.459,-113.039 363.868,-108.537 368.559,-118.038 373.459,-113.039"/>
<text text-anchor="middle" x="446" y="-145.8" font-family="Times,serif" font-size="14.00">OUTPUT: </text>
<text text-anchor="middle" x="446" y="-130.8" font-family="Times,serif" font-size="14.00">INPUT: </text>
</g>
<!-- EOR -->
<g id="node14" class="node"><title>EOR</title>
<ellipse fill="plum" stroke="black" cx="347" cy="-18" rx="57.3905" ry="18"/>
<text text-anchor="middle" x="347" y="-14.3" font-family="Times,serif" font-size="14.00">Bon appetit!</text>
</g>
<!-- E5&#45;&gt;EOR -->
<g id="edge13" class="edge"><title>E5&#45;&gt;EOR</title>
<path fill="none" stroke="black" d="M347,-72.8129C347,-64.7895 347,-55.0475 347,-46.0691"/>
<polygon fill="black" stroke="black" points="350.5,-46.0288 347,-36.0288 343.5,-46.0289 350.5,-46.0288"/>
</g>
<!-- D1 -->
<g id="node7" class="node"><title>D1</title>
<polygon fill="white" stroke="black" points="196,-594 0,-594 0,-558 196,-558 196,-594"/>
<text text-anchor="middle" x="98" y="-572.3" font-family="Times,serif" font-size="14.00">DOBJ: a lightly buttered skillet</text>
</g>
<!-- D1&#45;&gt;E1 -->
<g id="edge1" class="edge"><title>D1&#45;&gt;E1</title>
<path fill="none" stroke="black" d="M98,-557.937C98,-549.807 98,-539.876 98,-530.705"/>
<polygon fill="black" stroke="black" points="101.5,-530.441 98,-520.441 94.5001,-530.441 101.5,-530.441"/>
</g>
<!-- D0 -->
<g id="node8" class="node"><title>D0</title>
<polygon fill="peachpuff" stroke="black" points="994.5,-521 513.5,-521 513.5,-483 994.5,-483 994.5,-521"/>
<text text-anchor="middle" x="754" y="-505.8" font-family="Times,serif" font-size="14.00">DOBJ: baking powder, eggs, white sugar, milk, unsweetened cocoa powder, salt</text>
<text text-anchor="middle" x="754" y="-490.8" font-family="Times,serif" font-size="14.00">(text: milk , eggs , sugar , cocoa powder , baking powder , and salt)</text>
</g>
<!-- D0&#45;&gt;E0 -->
<g id="edge2" class="edge"><title>D0&#45;&gt;E0</title>
<path fill="none" stroke="black" d="M754,-482.764C754,-467.031 754,-444.083 754,-426.183"/>
<polygon fill="black" stroke="black" points="757.5,-426.06 754,-416.06 750.5,-426.06 757.5,-426.06"/>
</g>
<!-- P2_0_0 -->
<g id="node9" class="node"><title>P2_0_0</title>
<polygon fill="white" stroke="black" points="335.5,-520 172.5,-520 172.5,-484 335.5,-484 335.5,-520"/>
<text text-anchor="middle" x="254" y="-498.3" font-family="Times,serif" font-size="14.00">PREP: over medium heat</text>
</g>
<!-- P2_0_0&#45;&gt;E2 -->
<g id="edge4" class="edge"><title>P2_0_0&#45;&gt;E2</title>
<path fill="none" stroke="black" d="M247.215,-483.697C240.971,-467.775 231.617,-443.923 224.425,-425.583"/>
<polygon fill="black" stroke="black" points="227.595,-424.079 220.685,-416.047 221.078,-426.635 227.595,-424.079"/>
</g>
<!-- D3_ing -->
<g id="node10" class="node"><title>D3_ing</title>
<polygon fill="peachpuff" stroke="black" points="500,-417 340,-417 340,-379 500,-379 500,-417"/>
<text text-anchor="middle" x="420" y="-401.8" font-family="Times,serif" font-size="14.00">DOBJ: slices bread</text>
<text text-anchor="middle" x="420" y="-386.8" font-family="Times,serif" font-size="14.00">(text: each slice of bread)</text>
</g>
<!-- D3_ing&#45;&gt;E3 -->
<g id="edge5" class="edge"><title>D3_ing&#45;&gt;E3</title>
<path fill="none" stroke="black" d="M439.666,-378.943C457.887,-362.213 485.081,-337.244 504.87,-319.074"/>
<polygon fill="black" stroke="black" points="507.322,-321.574 512.321,-312.233 502.588,-316.418 507.322,-321.574"/>
</g>
<!-- P3_1_1 -->
<g id="node11" class="node"><title>P3_1_1</title>
<polygon fill="white" stroke="black" points="679.5,-416 518.5,-416 518.5,-380 679.5,-380 679.5,-416"/>
<text text-anchor="middle" x="599" y="-394.3" font-family="Times,serif" font-size="14.00">PREP: until well soaked </text>
</g>
<!-- P3_1_1&#45;&gt;E3 -->
<g id="edge8" class="edge"><title>P3_1_1&#45;&gt;E3</title>
<path fill="none" stroke="black" d="M587.295,-379.867C576.325,-363.809 559.789,-339.605 547.297,-321.32"/>
<polygon fill="black" stroke="black" points="550.063,-319.163 541.532,-312.88 544.283,-323.112 550.063,-319.163"/>
</g>
<!-- P4_0_0 -->
<g id="node12" class="node"><title>P4_0_0</title>
<polygon fill="white" stroke="black" points="458.5,-313 363.5,-313 363.5,-277 458.5,-277 458.5,-313"/>
<text text-anchor="middle" x="411" y="-291.3" font-family="Times,serif" font-size="14.00">PREP: in pan</text>
</g>
<!-- P4_0_0&#45;&gt;E4 -->
<g id="edge10" class="edge"><title>P4_0_0&#45;&gt;E4</title>
<path fill="none" stroke="black" d="M417.619,-276.581C423.449,-261.238 432.035,-238.645 438.752,-220.968"/>
<polygon fill="black" stroke="black" points="442.176,-221.81 442.457,-211.219 435.633,-219.324 442.176,-221.81"/>
</g>
<!-- P5_0_0 -->
<g id="node13" class="node"><title>P5_0_0</title>
<polygon fill="white" stroke="black" points="371,-211 235,-211 235,-175 371,-175 371,-211"/>
<text text-anchor="middle" x="303" y="-189.3" font-family="Times,serif" font-size="14.00">PREP: on both sides</text>
</g>
<!-- P5_0_0&#45;&gt;E5 -->
<g id="edge12" class="edge"><title>P5_0_0&#45;&gt;E5</title>
<path fill="none" stroke="black" d="M310.664,-174.581C317.52,-159 327.665,-135.943 335.494,-118.149"/>
<polygon fill="black" stroke="black" points="338.746,-119.449 339.57,-108.886 332.339,-116.629 338.746,-119.449"/>
</g>
</g>
</svg>
