<?xml version="1.0" encoding="UTF-8" standalone="no"?>
<!DOCTYPE svg PUBLIC "-//W3C//DTD SVG 1.1//EN"
 "http://www.w3.org/Graphics/SVG/1.1/DTD/svg11.dtd">
<!-- Generated by graphviz version 2.38.0 (20140413.2041)
 -->
<!-- Title: recipe Pages: 1 -->
<svg width="2213pt" height="1634pt"
 viewBox="0.00 0.00 2213.00 1634.00" xmlns="http://www.w3.org/2000/svg" xmlns:xlink="http://www.w3.org/1999/xlink">
<g id="graph0" class="graph" transform="scale(1 1) rotate(0) translate(4 1630)">
<title>recipe</title>
<polygon fill="white" stroke="none" points="-4,4 -4,-1630 2209,-1630 2209,4 -4,4"/>
<!-- E0 -->
<g id="node1" class="node"><title>E0</title>
<ellipse fill="azure" stroke="black" cx="1803.5" cy="-1533" rx="59.5901" ry="18"/>
<text text-anchor="middle" x="1803.5" y="-1529.3" font-family="Times,serif" font-size="14.00">cook (S0,P0)</text>
</g>
<!-- E1 -->
<g id="node2" class="node"><title>E1</title>
<ellipse fill="azure" stroke="black" cx="1687.5" cy="-1430" rx="69.5877" ry="18"/>
<text text-anchor="middle" x="1687.5" y="-1426.3" font-family="Times,serif" font-size="14.00">remove (S1,P0)</text>
</g>
<!-- E0&#45;&gt;E1 -->
<g id="edge4" class="edge"><title>E0&#45;&gt;E1</title>
<path fill="none" stroke="black" d="M1784.86,-1515.77C1765.7,-1499.09 1735.68,-1472.95 1714.03,-1454.1"/>
<polygon fill="black" stroke="black" points="1716.32,-1451.45 1706.48,-1447.52 1711.72,-1456.73 1716.32,-1451.45"/>
<text text-anchor="middle" x="1805" y="-1485.8" font-family="Times,serif" font-size="14.00">OUTPUT: </text>
<text text-anchor="middle" x="1805" y="-1470.8" font-family="Times,serif" font-size="14.00">INPUT: bacon</text>
</g>
<!-- E2 -->
<g id="node3" class="node"><title>E2</title>
<ellipse fill="azure" stroke="black" cx="1529.5" cy="-1326" rx="90.1842" ry="18"/>
<text text-anchor="middle" x="1529.5" y="-1322.3" font-family="Times,serif" font-size="14.00">cook and stir (S2,P0)</text>
</g>
<!-- E1&#45;&gt;E2 -->
<g id="edge7" class="edge"><title>E1&#45;&gt;E2</title>
<path fill="none" stroke="black" d="M1662.81,-1413.06C1636.03,-1395.77 1593.12,-1368.07 1563.24,-1348.78"/>
<polygon fill="black" stroke="black" points="1565.1,-1345.81 1554.8,-1343.33 1561.3,-1351.7 1565.1,-1345.81"/>
<text text-anchor="middle" x="1714.5" y="-1381.8" font-family="Times,serif" font-size="14.00">OUTPUT: </text>
<text text-anchor="middle" x="1714.5" y="-1366.8" font-family="Times,serif" font-size="14.00">INPUT: until &#160;about 5 minutes</text>
</g>
<!-- E3 -->
<g id="node4" class="node"><title>E3</title>
<ellipse fill="azure" stroke="black" cx="1356.5" cy="-1222" rx="65.7887" ry="18"/>
<text text-anchor="middle" x="1356.5" y="-1218.3" font-family="Times,serif" font-size="14.00">season (S3,P0)</text>
</g>
<!-- E2&#45;&gt;E3 -->
<g id="edge9" class="edge"><title>E2&#45;&gt;E3</title>
<path fill="none" stroke="black" d="M1502.09,-1308.84C1472.22,-1291.23 1424.34,-1263 1391.71,-1243.76"/>
<polygon fill="black" stroke="black" points="1393.32,-1240.65 1382.93,-1238.58 1389.77,-1246.68 1393.32,-1240.65"/>
<text text-anchor="middle" x="1495.5" y="-1277.8" font-family="Times,serif" font-size="14.00">OUTPUT: </text>
<text text-anchor="middle" x="1495.5" y="-1262.8" font-family="Times,serif" font-size="14.00">INPUT: </text>
</g>
<!-- E4 -->
<g id="node5" class="node"><title>E4</title>
<ellipse fill="azure" stroke="black" cx="1161.5" cy="-1119" rx="53.0913" ry="18"/>
<text text-anchor="middle" x="1161.5" y="-1115.3" font-family="Times,serif" font-size="14.00">stir (S4,P0)</text>
</g>
<!-- E3&#45;&gt;E4 -->
<g id="edge12" class="edge"><title>E3&#45;&gt;E4</title>
<path fill="none" stroke="black" d="M1326.88,-1205.66C1292.51,-1187.85 1235.78,-1158.47 1198.52,-1139.17"/>
<polygon fill="black" stroke="black" points="1199.98,-1135.99 1189.49,-1134.5 1196.76,-1142.21 1199.98,-1135.99"/>
<text text-anchor="middle" x="1313.5" y="-1173.8" font-family="Times,serif" font-size="14.00">OUTPUT: </text>
<text text-anchor="middle" x="1313.5" y="-1158.8" font-family="Times,serif" font-size="14.00">INPUT: </text>
</g>
<!-- E5 -->
<g id="node6" class="node"><title>E5</title>
<ellipse fill="azure" stroke="black" cx="1161.5" cy="-1016" rx="90.1842" ry="18"/>
<text text-anchor="middle" x="1161.5" y="-1012.3" font-family="Times,serif" font-size="14.00">cook and stir (S4,P1)</text>
</g>
<!-- E4&#45;&gt;E5 -->
<g id="edge14" class="edge"><title>E4&#45;&gt;E5</title>
<path fill="none" stroke="black" d="M1161.5,-1100.87C1161.5,-1085.41 1161.5,-1062.42 1161.5,-1044.41"/>
<polygon fill="black" stroke="black" points="1165,-1044.22 1161.5,-1034.22 1158,-1044.22 1165,-1044.22"/>
<text text-anchor="middle" x="1231.5" y="-1071.8" font-family="Times,serif" font-size="14.00">OUTPUT: </text>
<text text-anchor="middle" x="1231.5" y="-1056.8" font-family="Times,serif" font-size="14.00">INPUT: 2 more minutes</text>
</g>
<!-- E6 -->
<g id="node7" class="node"><title>E6</title>
<ellipse fill="azure" stroke="black" cx="997.5" cy="-912" rx="59.5901" ry="18"/>
<text text-anchor="middle" x="997.5" y="-908.3" font-family="Times,serif" font-size="14.00">pour (S5,P0)</text>
</g>
<!-- E5&#45;&gt;E6 -->
<g id="edge15" class="edge"><title>E5&#45;&gt;E6</title>
<path fill="none" stroke="black" d="M1135.15,-998.612C1106.88,-981.031 1061.91,-953.061 1031.12,-933.908"/>
<polygon fill="black" stroke="black" points="1032.78,-930.821 1022.44,-928.512 1029.08,-936.765 1032.78,-930.821"/>
<text text-anchor="middle" x="1130.5" y="-967.8" font-family="Times,serif" font-size="14.00">OUTPUT: </text>
<text text-anchor="middle" x="1130.5" y="-952.8" font-family="Times,serif" font-size="14.00">INPUT: </text>
</g>
<!-- E7 -->
<g id="node8" class="node"><title>E7</title>
<ellipse fill="azure" stroke="black" cx="858.5" cy="-809" rx="53.0913" ry="18"/>
<text text-anchor="middle" x="858.5" y="-805.3" font-family="Times,serif" font-size="14.00">stir (S5,P1)</text>
</g>
<!-- E6&#45;&gt;E7 -->
<g id="edge17" class="edge"><title>E6&#45;&gt;E7</title>
<path fill="none" stroke="black" d="M975.781,-895.219C952.218,-878.097 914.452,-850.656 888.165,-831.555"/>
<polygon fill="black" stroke="black" points="890.214,-828.717 880.066,-825.67 886.099,-834.38 890.214,-828.717"/>
<text text-anchor="middle" x="976.5" y="-863.8" font-family="Times,serif" font-size="14.00">OUTPUT: </text>
<text text-anchor="middle" x="976.5" y="-848.8" font-family="Times,serif" font-size="14.00">INPUT: </text>
</g>
<!-- E10 -->
<g id="node11" class="node"><title>E10</title>
<ellipse fill="azure" stroke="black" cx="776.5" cy="-707" rx="66.0889" ry="18"/>
<text text-anchor="middle" x="776.5" y="-703.3" font-family="Times,serif" font-size="14.00">reduce (S7,P1)</text>
</g>
<!-- E7&#45;&gt;E10 -->
<g id="edge21" class="edge"><title>E7&#45;&gt;E10</title>
<path fill="none" stroke="black" d="M844.959,-791.487C831.863,-775.516 811.848,-751.108 796.837,-732.801"/>
<polygon fill="black" stroke="black" points="799.382,-730.385 790.335,-724.872 793.969,-734.824 799.382,-730.385"/>
<text text-anchor="middle" x="866" y="-761.8" font-family="Times,serif" font-size="14.00">OUTPUT: </text>
<text text-anchor="middle" x="866" y="-746.8" font-family="Times,serif" font-size="14.00">INPUT: heat</text>
</g>
<!-- E8 -->
<g id="node9" class="node"><title>E8</title>
<ellipse fill="azure" stroke="black" cx="220.5" cy="-501" rx="55.4913" ry="18"/>
<text text-anchor="middle" x="220.5" y="-497.3" font-family="Times,serif" font-size="14.00">add (S6,P0)</text>
</g>
<!-- E9 -->
<g id="node10" class="node"><title>E9</title>
<ellipse fill="azure" stroke="black" cx="347.5" cy="-399" rx="61.99" ry="18"/>
<text text-anchor="middle" x="347.5" y="-395.3" font-family="Times,serif" font-size="14.00">bring (S7,P0)</text>
</g>
<!-- E8&#45;&gt;E9 -->
<g id="edge19" class="edge"><title>E8&#45;&gt;E9</title>
<path fill="none" stroke="black" d="M232.921,-483.236C243.997,-469.107 261.243,-449.01 279.5,-435 287.24,-429.061 296.138,-423.647 304.893,-418.948"/>
<polygon fill="black" stroke="black" points="306.614,-421.998 313.909,-414.316 303.415,-415.772 306.614,-421.998"/>
<text text-anchor="middle" x="311.5" y="-453.8" font-family="Times,serif" font-size="14.00">OUTPUT: </text>
<text text-anchor="middle" x="311.5" y="-438.8" font-family="Times,serif" font-size="14.00">INPUT: </text>
</g>
<!-- E14 -->
<g id="node15" class="node"><title>E14</title>
<ellipse fill="azure" stroke="black" cx="427.5" cy="-296" rx="66.8882" ry="18"/>
<text text-anchor="middle" x="427.5" y="-292.3" font-family="Times,serif" font-size="14.00">bring (S11,P0)</text>
</g>
<!-- E9&#45;&gt;E14 -->
<g id="edge28" class="edge"><title>E9&#45;&gt;E14</title>
<path fill="none" stroke="black" d="M347.707,-380.932C348.691,-366.804 352.043,-346.873 362.5,-333 367.414,-326.481 373.87,-320.985 380.806,-316.405"/>
<polygon fill="black" stroke="black" points="382.955,-319.2 389.768,-311.085 379.382,-313.18 382.955,-319.2"/>
<text text-anchor="middle" x="412" y="-351.8" font-family="Times,serif" font-size="14.00">OUTPUT: </text>
<text text-anchor="middle" x="412" y="-336.8" font-family="Times,serif" font-size="14.00">INPUT: the soup</text>
</g>
<!-- E11 -->
<g id="node12" class="node"><title>E11</title>
<ellipse fill="azure" stroke="black" cx="776.5" cy="-604" rx="69.5877" ry="18"/>
<text text-anchor="middle" x="776.5" y="-600.3" font-family="Times,serif" font-size="14.00">simmer (S8,P0)</text>
</g>
<!-- E10&#45;&gt;E11 -->
<g id="edge23" class="edge"><title>E10&#45;&gt;E11</title>
<path fill="none" stroke="black" d="M776.5,-688.867C776.5,-673.414 776.5,-650.416 776.5,-632.409"/>
<polygon fill="black" stroke="black" points="780,-632.217 776.5,-622.217 773,-632.217 780,-632.217"/>
<text text-anchor="middle" x="808.5" y="-659.8" font-family="Times,serif" font-size="14.00">OUTPUT: </text>
<text text-anchor="middle" x="808.5" y="-644.8" font-family="Times,serif" font-size="14.00">INPUT: </text>
</g>
<!-- E12 -->
<g id="node13" class="node"><title>E12</title>
<ellipse fill="azure" stroke="black" cx="651.5" cy="-501" rx="53.0913" ry="18"/>
<text text-anchor="middle" x="651.5" y="-497.3" font-family="Times,serif" font-size="14.00">stir (S9,P0)</text>
</g>
<!-- E11&#45;&gt;E12 -->
<g id="edge24" class="edge"><title>E11&#45;&gt;E12</title>
<path fill="none" stroke="black" d="M756.138,-586.548C735.098,-569.547 702.131,-542.91 678.832,-524.084"/>
<polygon fill="black" stroke="black" points="681.007,-521.342 671.029,-517.78 676.608,-526.787 681.007,-521.342"/>
<text text-anchor="middle" x="760.5" y="-555.8" font-family="Times,serif" font-size="14.00">OUTPUT: </text>
<text text-anchor="middle" x="760.5" y="-540.8" font-family="Times,serif" font-size="14.00">INPUT: </text>
</g>
<!-- E13 -->
<g id="node14" class="node"><title>E13</title>
<ellipse fill="azure" stroke="black" cx="499.5" cy="-399" rx="61.1893" ry="18"/>
<text text-anchor="middle" x="499.5" y="-395.3" font-family="Times,serif" font-size="14.00">mix (S10,P0)</text>
</g>
<!-- E12&#45;&gt;E13 -->
<g id="edge26" class="edge"><title>E12&#45;&gt;E13</title>
<path fill="none" stroke="black" d="M628.083,-484.594C602.348,-467.663 560.836,-440.353 531.967,-421.36"/>
<polygon fill="black" stroke="black" points="533.723,-418.326 523.445,-415.754 529.876,-424.174 533.723,-418.326"/>
<text text-anchor="middle" x="629.5" y="-453.8" font-family="Times,serif" font-size="14.00">OUTPUT: </text>
<text text-anchor="middle" x="629.5" y="-438.8" font-family="Times,serif" font-size="14.00">INPUT: </text>
</g>
<!-- E13&#45;&gt;E14 -->
<g id="edge29" class="edge"><title>E13&#45;&gt;E14</title>
<path fill="none" stroke="black" d="M492.52,-381.084C486.452,-367.412 476.864,-348.037 465.5,-333 462.295,-328.759 458.57,-324.576 454.73,-320.646"/>
<polygon fill="black" stroke="black" points="456.928,-317.902 447.312,-313.453 452.055,-322.927 456.928,-317.902"/>
<text text-anchor="middle" x="563" y="-351.8" font-family="Times,serif" font-size="14.00">OUTPUT: </text>
<text text-anchor="middle" x="563" y="-336.8" font-family="Times,serif" font-size="14.00">INPUT: to the boiling point</text>
</g>
<!-- E15 -->
<g id="node16" class="node"><title>E15</title>
<ellipse fill="azure" stroke="black" cx="243.5" cy="-193" rx="57.6901" ry="18"/>
<text text-anchor="middle" x="243.5" y="-189.3" font-family="Times,serif" font-size="14.00">stir (S11,P1)</text>
</g>
<!-- E14&#45;&gt;E15 -->
<g id="edge30" class="edge"><title>E14&#45;&gt;E15</title>
<path fill="none" stroke="black" d="M399.153,-279.44C367.042,-261.814 314.64,-233.05 279.623,-213.828"/>
<polygon fill="black" stroke="black" points="281.129,-210.662 270.678,-208.919 277.76,-216.799 281.129,-210.662"/>
<text text-anchor="middle" x="388.5" y="-247.8" font-family="Times,serif" font-size="14.00">OUTPUT: </text>
<text text-anchor="middle" x="388.5" y="-232.8" font-family="Times,serif" font-size="14.00">INPUT: </text>
</g>
<!-- E16 -->
<g id="node17" class="node"><title>E16</title>
<ellipse fill="azure" stroke="black" cx="243.5" cy="-91" rx="64.9885" ry="18"/>
<text text-anchor="middle" x="243.5" y="-87.3" font-family="Times,serif" font-size="14.00">cook (S12,P0)</text>
</g>
<!-- E15&#45;&gt;E16 -->
<g id="edge32" class="edge"><title>E15&#45;&gt;E16</title>
<path fill="none" stroke="black" d="M243.5,-174.581C243.5,-159.382 243.5,-137.067 243.5,-119.464"/>
<polygon fill="black" stroke="black" points="247,-119.219 243.5,-109.219 240,-119.219 247,-119.219"/>
<text text-anchor="middle" x="275.5" y="-145.8" font-family="Times,serif" font-size="14.00">OUTPUT: </text>
<text text-anchor="middle" x="275.5" y="-130.8" font-family="Times,serif" font-size="14.00">INPUT: </text>
</g>
<!-- EOR -->
<g id="node34" class="node"><title>EOR</title>
<ellipse fill="plum" stroke="black" cx="243.5" cy="-18" rx="57.3905" ry="18"/>
<text text-anchor="middle" x="243.5" y="-14.3" font-family="Times,serif" font-size="14.00">Bon appetit!</text>
</g>
<!-- E16&#45;&gt;EOR -->
<g id="edge33" class="edge"><title>E16&#45;&gt;EOR</title>
<path fill="none" stroke="black" d="M243.5,-72.8129C243.5,-64.7895 243.5,-55.0475 243.5,-46.0691"/>
<polygon fill="black" stroke="black" points="247,-46.0288 243.5,-36.0288 240,-46.0289 247,-46.0288"/>
</g>
<!-- D8 -->
<g id="node18" class="node"><title>D8</title>
<polygon fill="peachpuff" stroke="black" points="266.5,-623 174.5,-623 174.5,-585 266.5,-585 266.5,-623"/>
<text text-anchor="middle" x="220.5" y="-607.8" font-family="Times,serif" font-size="14.00">DOBJ: water</text>
<text text-anchor="middle" x="220.5" y="-592.8" font-family="Times,serif" font-size="14.00">(text: water)</text>
</g>
<!-- D8&#45;&gt;E8 -->
<g id="edge1" class="edge"><title>D8&#45;&gt;E8</title>
<path fill="none" stroke="black" d="M220.5,-584.943C220.5,-569.531 220.5,-547.127 220.5,-529.488"/>
<polygon fill="black" stroke="black" points="224,-529.226 220.5,-519.226 217,-529.226 224,-529.226"/>
</g>
<!-- D0 -->
<g id="node19" class="node"><title>D0</title>
<polygon fill="peachpuff" stroke="black" points="1705.5,-1626 1577.5,-1626 1577.5,-1588 1705.5,-1588 1705.5,-1626"/>
<text text-anchor="middle" x="1641.5" y="-1610.8" font-family="Times,serif" font-size="14.00">DOBJ: slices bacon</text>
<text text-anchor="middle" x="1641.5" y="-1595.8" font-family="Times,serif" font-size="14.00">(text: bacon)</text>
</g>
<!-- D0&#45;&gt;E0 -->
<g id="edge2" class="edge"><title>D0&#45;&gt;E0</title>
<path fill="none" stroke="black" d="M1682.38,-1587.83C1706.71,-1577.02 1737.5,-1563.34 1761.94,-1552.47"/>
<polygon fill="black" stroke="black" points="1763.6,-1555.57 1771.31,-1548.31 1760.75,-1549.17 1763.6,-1555.57"/>
</g>
<!-- P0_0 -->
<g id="node20" class="node"><title>P0_0</title>
<polygon fill="white" stroke="black" points="2205,-1625 1724,-1625 1724,-1589 2205,-1589 2205,-1625"/>
<text text-anchor="middle" x="1964.5" y="-1603.3" font-family="Times,serif" font-size="14.00">PREP: in a soup pot over medium heat until crisp and brown , about 10 minutes</text>
</g>
<!-- P0_0&#45;&gt;E0 -->
<g id="edge3" class="edge"><title>P0_0&#45;&gt;E0</title>
<path fill="none" stroke="black" d="M1926.35,-1588.94C1901.77,-1577.95 1869.84,-1563.67 1844.7,-1552.42"/>
<polygon fill="black" stroke="black" points="1845.98,-1549.16 1835.42,-1548.27 1843.12,-1555.55 1845.98,-1549.16"/>
</g>
<!-- P1_0_0 -->
<g id="node21" class="node"><title>P1_0_0</title>
<polygon fill="white" stroke="black" points="1725.5,-1551 1549.5,-1551 1549.5,-1515 1725.5,-1515 1725.5,-1551"/>
<text text-anchor="middle" x="1637.5" y="-1529.3" font-family="Times,serif" font-size="14.00">PREP: with a slotted spoon</text>
</g>
<!-- P1_0_0&#45;&gt;E1 -->
<g id="edge5" class="edge"><title>P1_0_0&#45;&gt;E1</title>
<path fill="none" stroke="black" d="M1645.98,-1514.87C1653.82,-1499.03 1665.59,-1475.26 1674.59,-1457.07"/>
<polygon fill="black" stroke="black" points="1677.84,-1458.4 1679.14,-1447.88 1671.57,-1455.29 1677.84,-1458.4"/>
</g>
<!-- D2_ing -->
<g id="node22" class="node"><title>D2_ing</title>
<polygon fill="peachpuff" stroke="black" points="1440.5,-1449 1220.5,-1449 1220.5,-1411 1440.5,-1411 1440.5,-1449"/>
<text text-anchor="middle" x="1330.5" y="-1433.8" font-family="Times,serif" font-size="14.00">DOBJ: red bell pepper, large onion</text>
<text text-anchor="middle" x="1330.5" y="-1418.8" font-family="Times,serif" font-size="14.00">(text: red bell pepper, onion)</text>
</g>
<!-- D2_ing&#45;&gt;E2 -->
<g id="edge6" class="edge"><title>D2_ing&#45;&gt;E2</title>
<path fill="none" stroke="black" d="M1365.62,-1411C1400.14,-1393.31 1452.77,-1366.33 1489.03,-1347.74"/>
<polygon fill="black" stroke="black" points="1491.03,-1350.65 1498.33,-1342.98 1487.83,-1344.42 1491.03,-1350.65"/>
</g>
<!-- P2_0_1 -->
<g id="node23" class="node"><title>P2_0_1</title>
<polygon fill="white" stroke="black" points="1600,-1448 1459,-1448 1459,-1412 1600,-1412 1600,-1448"/>
<text text-anchor="middle" x="1529.5" y="-1426.3" font-family="Times,serif" font-size="14.00">PREP: until softened </text>
</g>
<!-- P2_0_1&#45;&gt;E2 -->
<g id="edge8" class="edge"><title>P2_0_1&#45;&gt;E2</title>
<path fill="none" stroke="black" d="M1529.5,-1411.7C1529.5,-1395.92 1529.5,-1372.36 1529.5,-1354.09"/>
<polygon fill="black" stroke="black" points="1533,-1354.05 1529.5,-1344.05 1526,-1354.05 1533,-1354.05"/>
</g>
<!-- P3_0_ing -->
<g id="node24" class="node"><title>P3_0_ing</title>
<polygon fill="peachpuff" stroke="black" points="1274,-1345 973,-1345 973,-1307 1274,-1307 1274,-1345"/>
<text text-anchor="middle" x="1123.5" y="-1329.8" font-family="Times,serif" font-size="14.00">PREP: with salt and ground black pepper to taste</text>
<text text-anchor="middle" x="1123.5" y="-1314.8" font-family="Times,serif" font-size="14.00">(text: with salt)</text>
</g>
<!-- P3_0_ing&#45;&gt;E3 -->
<g id="edge10" class="edge"><title>P3_0_ing&#45;&gt;E3</title>
<path fill="none" stroke="black" d="M1164.62,-1307C1206.52,-1288.66 1271.23,-1260.33 1313.72,-1241.73"/>
<polygon fill="black" stroke="black" points="1315.2,-1244.9 1322.96,-1237.68 1312.4,-1238.49 1315.2,-1244.9"/>
</g>
<!-- P3_0_0 -->
<g id="node25" class="node"><title>P3_0_0</title>
<polygon fill="white" stroke="black" points="1421,-1344 1292,-1344 1292,-1308 1421,-1308 1421,-1344"/>
<text text-anchor="middle" x="1356.5" y="-1322.3" font-family="Times,serif" font-size="14.00">PREP: with pepper</text>
</g>
<!-- P3_0_0&#45;&gt;E3 -->
<g id="edge11" class="edge"><title>P3_0_0&#45;&gt;E3</title>
<path fill="none" stroke="black" d="M1356.5,-1307.7C1356.5,-1291.92 1356.5,-1268.36 1356.5,-1250.09"/>
<polygon fill="black" stroke="black" points="1360,-1250.05 1356.5,-1240.05 1353,-1250.05 1360,-1250.05"/>
</g>
<!-- P4_0_ing -->
<g id="node26" class="node"><title>P4_0_ing</title>
<polygon fill="peachpuff" stroke="black" points="1272.5,-1241 898.5,-1241 898.5,-1203 1272.5,-1203 1272.5,-1241"/>
<text text-anchor="middle" x="1085.5" y="-1225.8" font-family="Times,serif" font-size="14.00">PREP: in cloves garlic, seafood seasoning (such as Old Bay®)</text>
<text text-anchor="middle" x="1085.5" y="-1210.8" font-family="Times,serif" font-size="14.00">(text: in garlic, seafood seasoning)</text>
</g>
<!-- P4_0_ing&#45;&gt;E4 -->
<g id="edge13" class="edge"><title>P4_0_ing&#45;&gt;E4</title>
<path fill="none" stroke="black" d="M1099.09,-1202.94C1111.27,-1186.75 1129.26,-1162.85 1142.79,-1144.86"/>
<polygon fill="black" stroke="black" points="1145.82,-1146.66 1149.04,-1136.56 1140.23,-1142.45 1145.82,-1146.66"/>
</g>
<!-- P6_0_ing -->
<g id="node27" class="node"><title>P6_0_ing</title>
<polygon fill="peachpuff" stroke="black" points="1053,-1035 810,-1035 810,-997 1053,-997 1053,-1035"/>
<text text-anchor="middle" x="931.5" y="-1019.8" font-family="Times,serif" font-size="14.00">PREP: in (16 ounce) can chicken broth</text>
<text text-anchor="middle" x="931.5" y="-1004.8" font-family="Times,serif" font-size="14.00">(text: in chicken broth)</text>
</g>
<!-- P6_0_ing&#45;&gt;E6 -->
<g id="edge16" class="edge"><title>P6_0_ing&#45;&gt;E6</title>
<path fill="none" stroke="black" d="M943.299,-996.764C953.782,-980.564 969.214,-956.714 980.934,-938.603"/>
<polygon fill="black" stroke="black" points="984.184,-940.023 986.678,-929.725 978.307,-936.22 984.184,-940.023"/>
</g>
<!-- P7_0_ing -->
<g id="node28" class="node"><title>P7_0_ing</title>
<polygon fill="peachpuff" stroke="black" points="920,-931 681,-931 681,-893 920,-893 920,-931"/>
<text text-anchor="middle" x="800.5" y="-915.8" font-family="Times,serif" font-size="14.00">PREP: in red potatoes, ears sweet corn</text>
<text text-anchor="middle" x="800.5" y="-900.8" font-family="Times,serif" font-size="14.00">(text: in potatoes, corn)</text>
</g>
<!-- P7_0_ing&#45;&gt;E7 -->
<g id="edge18" class="edge"><title>P7_0_ing&#45;&gt;E7</title>
<path fill="none" stroke="black" d="M810.869,-892.943C820.026,-876.998 833.48,-853.57 843.755,-835.676"/>
<polygon fill="black" stroke="black" points="846.854,-837.308 848.799,-826.893 840.784,-833.822 846.854,-837.308"/>
</g>
<!-- P9_0_0 -->
<g id="node29" class="node"><title>P9_0_0</title>
<polygon fill="white" stroke="black" points="401,-519 294,-519 294,-483 401,-483 401,-519"/>
<text text-anchor="middle" x="347.5" y="-497.3" font-family="Times,serif" font-size="14.00">PREP: to a boil</text>
</g>
<!-- P9_0_0&#45;&gt;E9 -->
<g id="edge20" class="edge"><title>P9_0_0&#45;&gt;E9</title>
<path fill="none" stroke="black" d="M347.5,-482.581C347.5,-467.382 347.5,-445.067 347.5,-427.464"/>
<polygon fill="black" stroke="black" points="351,-427.219 347.5,-417.219 344,-427.219 351,-427.219"/>
</g>
<!-- P10_0_0 -->
<g id="node30" class="node"><title>P10_0_0</title>
<polygon fill="white" stroke="black" points="787,-827 690,-827 690,-791 787,-791 787,-827"/>
<text text-anchor="middle" x="738.5" y="-805.3" font-family="Times,serif" font-size="14.00">PREP: to low</text>
</g>
<!-- P10_0_0&#45;&gt;E10 -->
<g id="edge22" class="edge"><title>P10_0_0&#45;&gt;E10</title>
<path fill="none" stroke="black" d="M745.119,-790.581C750.949,-775.238 759.535,-752.645 766.252,-734.968"/>
<polygon fill="black" stroke="black" points="769.676,-735.81 769.957,-725.219 763.133,-733.324 769.676,-735.81"/>
</g>
<!-- P12_0_ing -->
<g id="node31" class="node"><title>P12_0_ing</title>
<polygon fill="peachpuff" stroke="black" points="689,-623 508,-623 508,-585 689,-585 689,-623"/>
<text text-anchor="middle" x="598.5" y="-607.8" font-family="Times,serif" font-size="14.00">PREP: in whole milk, butter</text>
<text text-anchor="middle" x="598.5" y="-592.8" font-family="Times,serif" font-size="14.00">(text: in butter, milk)</text>
</g>
<!-- P12_0_ing&#45;&gt;E12 -->
<g id="edge25" class="edge"><title>P12_0_ing&#45;&gt;E12</title>
<path fill="none" stroke="black" d="M607.975,-584.943C616.266,-569.145 628.411,-545.999 637.767,-528.17"/>
<polygon fill="black" stroke="black" points="641.088,-529.374 642.636,-518.893 634.89,-526.121 641.088,-529.374"/>
</g>
<!-- P13_0_0 -->
<g id="node32" class="node"><title>P13_0_0</title>
<polygon fill="white" stroke="black" points="580,-519 419,-519 419,-483 580,-483 580,-519"/>
<text text-anchor="middle" x="499.5" y="-497.3" font-family="Times,serif" font-size="14.00">PREP: in reserved bacon</text>
</g>
<!-- P13_0_0&#45;&gt;E13 -->
<g id="edge27" class="edge"><title>P13_0_0&#45;&gt;E13</title>
<path fill="none" stroke="black" d="M499.5,-482.581C499.5,-467.382 499.5,-445.067 499.5,-427.464"/>
<polygon fill="black" stroke="black" points="503,-427.219 499.5,-417.219 496,-427.219 503,-427.219"/>
</g>
<!-- P15_0_ing -->
<g id="node33" class="node"><title>P15_0_ing</title>
<polygon fill="peachpuff" stroke="black" points="343,-315 0,-315 0,-277 343,-277 343,-315"/>
<text text-anchor="middle" x="171.5" y="-299.8" font-family="Times,serif" font-size="14.00">PREP: in chopped fresh flat&#45;leaf parsley, thick cod fillets</text>
<text text-anchor="middle" x="171.5" y="-284.8" font-family="Times,serif" font-size="14.00">(text: in cod, parsley)</text>
</g>
<!-- P15_0_ing&#45;&gt;E15 -->
<g id="edge31" class="edge"><title>P15_0_ing&#45;&gt;E15</title>
<path fill="none" stroke="black" d="M184.372,-276.943C195.843,-260.852 212.747,-237.14 225.546,-219.185"/>
<polygon fill="black" stroke="black" points="228.503,-221.067 231.458,-210.893 222.803,-217.004 228.503,-221.067"/>
</g>
</g>
</svg>
