<?xml version="1.0" encoding="UTF-8" standalone="no"?>
<!DOCTYPE svg PUBLIC "-//W3C//DTD SVG 1.1//EN"
 "http://www.w3.org/Graphics/SVG/1.1/DTD/svg11.dtd">
<!-- Generated by graphviz version 2.38.0 (20140413.2041)
 -->
<!-- Title: recipe Pages: 1 -->
<svg width="968pt" height="808pt"
 viewBox="0.00 0.00 967.50 808.00" xmlns="http://www.w3.org/2000/svg" xmlns:xlink="http://www.w3.org/1999/xlink">
<g id="graph0" class="graph" transform="scale(1 1) rotate(0) translate(4 804)">
<title>recipe</title>
<polygon fill="white" stroke="none" points="-4,4 -4,-804 963.5,-804 963.5,4 -4,4"/>
<!-- E0 -->
<g id="node1" class="node"><title>E0</title>
<ellipse fill="azure" stroke="black" cx="725.5" cy="-706" rx="55.7903" ry="18"/>
<text text-anchor="middle" x="725.5" y="-702.3" font-family="Times,serif" font-size="14.00">mix (S0,P0)</text>
</g>
<!-- E1 -->
<g id="node2" class="node"><title>E1</title>
<ellipse fill="azure" stroke="black" cx="477.5" cy="-603" rx="55.7903" ry="18"/>
<text text-anchor="middle" x="477.5" y="-599.3" font-family="Times,serif" font-size="14.00">mix (S1,P0)</text>
</g>
<!-- E0&#45;&gt;E1 -->
<g id="edge4" class="edge"><title>E0&#45;&gt;E1</title>
<path fill="none" stroke="black" d="M692.311,-691.483C647.889,-673.392 569.047,-641.283 520.232,-621.403"/>
<polygon fill="black" stroke="black" points="521.47,-618.128 510.889,-617.598 518.83,-624.611 521.47,-618.128"/>
<text text-anchor="middle" x="707.5" y="-657.8" font-family="Times,serif" font-size="14.00">OUTPUT: </text>
<text text-anchor="middle" x="707.5" y="-642.8" font-family="Times,serif" font-size="14.00">INPUT: in a separate bowl</text>
</g>
<!-- E2 -->
<g id="node3" class="node"><title>E2</title>
<ellipse fill="azure" stroke="black" cx="353.5" cy="-501" rx="59.5901" ry="18"/>
<text text-anchor="middle" x="353.5" y="-497.3" font-family="Times,serif" font-size="14.00">pour (S2,P0)</text>
</g>
<!-- E1&#45;&gt;E2 -->
<g id="edge5" class="edge"><title>E1&#45;&gt;E2</title>
<path fill="none" stroke="black" d="M457.577,-585.933C436.968,-569.313 404.615,-543.222 381.452,-524.542"/>
<polygon fill="black" stroke="black" points="383.355,-521.58 373.373,-518.027 378.96,-527.029 383.355,-521.58"/>
<text text-anchor="middle" x="525.5" y="-555.8" font-family="Times,serif" font-size="14.00">OUTPUT: </text>
<text text-anchor="middle" x="525.5" y="-540.8" font-family="Times,serif" font-size="14.00">INPUT: the sour cream mixture</text>
</g>
<!-- E3 -->
<g id="node4" class="node"><title>E3</title>
<ellipse fill="azure" stroke="black" cx="266.5" cy="-399" rx="55.7903" ry="18"/>
<text text-anchor="middle" x="266.5" y="-395.3" font-family="Times,serif" font-size="14.00">toss (S2,P1)</text>
</g>
<!-- E2&#45;&gt;E3 -->
<g id="edge7" class="edge"><title>E2&#45;&gt;E3</title>
<path fill="none" stroke="black" d="M339.134,-483.487C325.155,-467.419 303.748,-442.813 287.79,-424.471"/>
<polygon fill="black" stroke="black" points="290.092,-421.785 280.888,-416.537 284.811,-426.379 290.092,-421.785"/>
<text text-anchor="middle" x="354.5" y="-453.8" font-family="Times,serif" font-size="14.00">OUTPUT: </text>
<text text-anchor="middle" x="354.5" y="-438.8" font-family="Times,serif" font-size="14.00">INPUT: </text>
</g>
<!-- E4 -->
<g id="node5" class="node"><title>E4</title>
<ellipse fill="azure" stroke="black" cx="266.5" cy="-297" rx="61.99" ry="18"/>
<text text-anchor="middle" x="266.5" y="-293.3" font-family="Times,serif" font-size="14.00">cover (S3,P0)</text>
</g>
<!-- E3&#45;&gt;E4 -->
<g id="edge9" class="edge"><title>E3&#45;&gt;E4</title>
<path fill="none" stroke="black" d="M266.5,-380.581C266.5,-365.382 266.5,-343.067 266.5,-325.464"/>
<polygon fill="black" stroke="black" points="270,-325.219 266.5,-315.219 263,-325.219 270,-325.219"/>
<text text-anchor="middle" x="298.5" y="-351.8" font-family="Times,serif" font-size="14.00">OUTPUT: </text>
<text text-anchor="middle" x="298.5" y="-336.8" font-family="Times,serif" font-size="14.00">INPUT: </text>
</g>
<!-- E5 -->
<g id="node6" class="node"><title>E5</title>
<ellipse fill="azure" stroke="black" cx="266.5" cy="-194" rx="79.8859" ry="18"/>
<text text-anchor="middle" x="266.5" y="-190.3" font-family="Times,serif" font-size="14.00">refrigerate (S3,P1)</text>
</g>
<!-- E4&#45;&gt;E5 -->
<g id="edge10" class="edge"><title>E4&#45;&gt;E5</title>
<path fill="none" stroke="black" d="M266.5,-278.867C266.5,-263.414 266.5,-240.416 266.5,-222.409"/>
<polygon fill="black" stroke="black" points="270,-222.217 266.5,-212.217 263,-222.217 270,-222.217"/>
<text text-anchor="middle" x="298.5" y="-249.8" font-family="Times,serif" font-size="14.00">OUTPUT: </text>
<text text-anchor="middle" x="298.5" y="-234.8" font-family="Times,serif" font-size="14.00">INPUT: </text>
</g>
<!-- E6 -->
<g id="node7" class="node"><title>E6</title>
<ellipse fill="azure" stroke="black" cx="137.5" cy="-91" rx="71.4873" ry="18"/>
<text text-anchor="middle" x="137.5" y="-87.3" font-family="Times,serif" font-size="14.00">sprinkle (S4,P0)</text>
</g>
<!-- E5&#45;&gt;E6 -->
<g id="edge11" class="edge"><title>E5&#45;&gt;E6</title>
<path fill="none" stroke="black" d="M245.487,-176.548C224.028,-159.747 190.55,-133.536 166.559,-114.752"/>
<polygon fill="black" stroke="black" points="168.536,-111.854 158.504,-108.445 164.22,-117.366 168.536,-111.854"/>
<text text-anchor="middle" x="248.5" y="-145.8" font-family="Times,serif" font-size="14.00">OUTPUT: </text>
<text text-anchor="middle" x="248.5" y="-130.8" font-family="Times,serif" font-size="14.00">INPUT: </text>
</g>
<!-- EOR -->
<g id="node14" class="node"><title>EOR</title>
<ellipse fill="plum" stroke="black" cx="137.5" cy="-18" rx="57.3905" ry="18"/>
<text text-anchor="middle" x="137.5" y="-14.3" font-family="Times,serif" font-size="14.00">Bon appetit!</text>
</g>
<!-- E6&#45;&gt;EOR -->
<g id="edge13" class="edge"><title>E6&#45;&gt;EOR</title>
<path fill="none" stroke="black" d="M137.5,-72.8129C137.5,-64.7895 137.5,-55.0475 137.5,-46.0691"/>
<polygon fill="black" stroke="black" points="141,-46.0288 137.5,-36.0288 134,-46.0289 141,-46.0288"/>
</g>
<!-- D0 -->
<g id="node8" class="node"><title>D0</title>
<polygon fill="peachpuff" stroke="black" points="795.5,-800 331.5,-800 331.5,-762 795.5,-762 795.5,-800"/>
<text text-anchor="middle" x="563.5" y="-784.8" font-family="Times,serif" font-size="14.00">DOBJ: (10 ounce) package frozen peas, finely shredded cabbage, green onion</text>
<text text-anchor="middle" x="563.5" y="-769.8" font-family="Times,serif" font-size="14.00">(text: the peas , cabbage , and green onion)</text>
</g>
<!-- D0&#45;&gt;E0 -->
<g id="edge1" class="edge"><title>D0&#45;&gt;E0</title>
<path fill="none" stroke="black" d="M603.545,-761.955C628.387,-750.761 660.203,-736.424 685.109,-725.201"/>
<polygon fill="black" stroke="black" points="686.608,-728.364 694.287,-721.065 683.732,-721.982 686.608,-728.364"/>
</g>
<!-- P0_0 -->
<g id="node9" class="node"><title>P0_0</title>
<polygon fill="white" stroke="black" points="959.5,-799 813.5,-799 813.5,-763 959.5,-763 959.5,-799"/>
<text text-anchor="middle" x="886.5" y="-777.3" font-family="Times,serif" font-size="14.00">PREP: in a large bowl</text>
</g>
<!-- P0_0&#45;&gt;E0 -->
<g id="edge2" class="edge"><title>P0_0&#45;&gt;E0</title>
<path fill="none" stroke="black" d="M848.753,-762.885C823.864,-751.6 791.293,-736.832 765.885,-725.311"/>
<polygon fill="black" stroke="black" points="767.082,-722.011 756.529,-721.069 764.191,-728.386 767.082,-722.011"/>
</g>
<!-- D1_ing -->
<g id="node10" class="node"><title>D1_ing</title>
<polygon fill="peachpuff" stroke="black" points="652,-725 115,-725 115,-687 652,-687 652,-725"/>
<text text-anchor="middle" x="383.5" y="-709.8" font-family="Times,serif" font-size="14.00">DOBJ: sour cream, white wine vinegar, curry powder, prepared mustard, mayonnaise, salt</text>
<text text-anchor="middle" x="383.5" y="-694.8" font-family="Times,serif" font-size="14.00">(text: &#160;salt , curry powder, the sour cream , &#160;vinegar , &#160;mustard , &#160;mayonnaise )</text>
</g>
<!-- D1_ing&#45;&gt;E1 -->
<g id="edge3" class="edge"><title>D1_ing&#45;&gt;E1</title>
<path fill="none" stroke="black" d="M400.305,-686.943C415.646,-670.46 438.429,-645.98 455.271,-627.884"/>
<polygon fill="black" stroke="black" points="457.836,-630.266 462.086,-620.561 452.711,-625.497 457.836,-630.266"/>
</g>
<!-- P2_0_0 -->
<g id="node11" class="node"><title>P2_0_0</title>
<polygon fill="white" stroke="black" points="404,-621 199,-621 199,-585 404,-585 404,-621"/>
<text text-anchor="middle" x="301.5" y="-599.3" font-family="Times,serif" font-size="14.00">PREP: over the cabbage mixture</text>
</g>
<!-- P2_0_0&#45;&gt;E2 -->
<g id="edge6" class="edge"><title>P2_0_0&#45;&gt;E2</title>
<path fill="none" stroke="black" d="M310.558,-584.581C318.66,-569 330.65,-545.943 339.902,-528.149"/>
<polygon fill="black" stroke="black" points="343.211,-529.373 344.719,-518.886 337.001,-526.143 343.211,-529.373"/>
</g>
<!-- P3_0_0 -->
<g id="node12" class="node"><title>P3_0_0</title>
<polygon fill="white" stroke="black" points="275.5,-519 177.5,-519 177.5,-483 275.5,-483 275.5,-519"/>
<text text-anchor="middle" x="226.5" y="-497.3" font-family="Times,serif" font-size="14.00">PREP: to coat</text>
</g>
<!-- P3_0_0&#45;&gt;E3 -->
<g id="edge8" class="edge"><title>P3_0_0&#45;&gt;E3</title>
<path fill="none" stroke="black" d="M233.467,-482.581C239.642,-467.145 248.752,-444.369 255.842,-426.645"/>
<polygon fill="black" stroke="black" points="259.281,-427.471 259.746,-416.886 252.782,-424.871 259.281,-427.471"/>
</g>
<!-- P6_0_ing -->
<g id="node13" class="node"><title>P6_0_ing</title>
<polygon fill="peachpuff" stroke="black" points="169,-213 0,-213 0,-175 169,-175 169,-213"/>
<text text-anchor="middle" x="84.5" y="-197.8" font-family="Times,serif" font-size="14.00">PREP: with salted peanuts</text>
<text text-anchor="middle" x="84.5" y="-182.8" font-family="Times,serif" font-size="14.00">(text: with peanuts)</text>
</g>
<!-- P6_0_ing&#45;&gt;E6 -->
<g id="edge12" class="edge"><title>P6_0_ing&#45;&gt;E6</title>
<path fill="none" stroke="black" d="M93.9753,-174.943C102.266,-159.145 114.411,-135.999 123.767,-118.17"/>
<polygon fill="black" stroke="black" points="127.088,-119.374 128.636,-108.893 120.89,-116.121 127.088,-119.374"/>
</g>
</g>
</svg>
