<?xml version="1.0" encoding="UTF-8" standalone="no"?>
<!DOCTYPE svg PUBLIC "-//W3C//DTD SVG 1.1//EN"
 "http://www.w3.org/Graphics/SVG/1.1/DTD/svg11.dtd">
<!-- Generated by graphviz version 2.38.0 (20140413.2041)
 -->
<!-- Title: recipe Pages: 1 -->
<svg width="1069pt" height="502pt"
 viewBox="0.00 0.00 1068.75 502.00" xmlns="http://www.w3.org/2000/svg" xmlns:xlink="http://www.w3.org/1999/xlink">
<g id="graph0" class="graph" transform="scale(1 1) rotate(0) translate(4 498)">
<title>recipe</title>
<polygon fill="white" stroke="none" points="-4,4 -4,-498 1064.75,-498 1064.75,4 -4,4"/>
<!-- E0 -->
<g id="node1" class="node"><title>E0</title>
<ellipse fill="azure" stroke="black" cx="911.245" cy="-296" rx="59.5901" ry="18"/>
<text text-anchor="middle" x="911.245" y="-292.3" font-family="Times,serif" font-size="14.00">saute (S0,P0)</text>
</g>
<!-- E3 -->
<g id="node4" class="node"><title>E3</title>
<ellipse fill="azure" stroke="black" cx="583.245" cy="-193" rx="55.4913" ry="18"/>
<text text-anchor="middle" x="583.245" y="-189.3" font-family="Times,serif" font-size="14.00">add (S3,P0)</text>
</g>
<!-- E0&#45;&gt;E3 -->
<g id="edge7" class="edge"><title>E0&#45;&gt;E3</title>
<path fill="none" stroke="black" d="M871.026,-282.615C810.578,-264.002 696.493,-228.872 631.598,-208.889"/>
<polygon fill="black" stroke="black" points="632.594,-205.534 622.007,-205.936 630.534,-212.224 632.594,-205.534"/>
<text text-anchor="middle" x="831.245" y="-247.8" font-family="Times,serif" font-size="14.00">OUTPUT: </text>
<text text-anchor="middle" x="831.245" y="-232.8" font-family="Times,serif" font-size="14.00">INPUT: season</text>
</g>
<!-- E1 -->
<g id="node2" class="node"><title>E1</title>
<ellipse fill="azure" stroke="black" cx="55.2451" cy="-400" rx="55.4913" ry="18"/>
<text text-anchor="middle" x="55.2451" y="-396.3" font-family="Times,serif" font-size="14.00">add (S2,P0)</text>
</g>
<!-- E2 -->
<g id="node3" class="node"><title>E2</title>
<ellipse fill="azure" stroke="black" cx="161.245" cy="-296" rx="53.0913" ry="18"/>
<text text-anchor="middle" x="161.245" y="-292.3" font-family="Times,serif" font-size="14.00">stir (S2,P1)</text>
</g>
<!-- E1&#45;&gt;E2 -->
<g id="edge4" class="edge"><title>E1&#45;&gt;E2</title>
<path fill="none" stroke="black" d="M66.9588,-382.171C77.1909,-368.132 92.9254,-348.061 109.245,-333 115.089,-327.607 121.788,-322.384 128.391,-317.667"/>
<polygon fill="black" stroke="black" points="130.383,-320.544 136.631,-311.987 126.411,-314.781 130.383,-320.544"/>
<text text-anchor="middle" x="141.245" y="-351.8" font-family="Times,serif" font-size="14.00">OUTPUT: </text>
<text text-anchor="middle" x="141.245" y="-336.8" font-family="Times,serif" font-size="14.00">INPUT: </text>
</g>
<!-- E2&#45;&gt;E3 -->
<g id="edge9" class="edge"><title>E2&#45;&gt;E3</title>
<path fill="none" stroke="black" d="M199.868,-283.505C207.594,-281.285 215.665,-279.023 223.245,-277 310.315,-253.765 332.405,-249.128 420.245,-229 456.013,-220.804 496.33,-212.142 527.919,-205.486"/>
<polygon fill="black" stroke="black" points="528.785,-208.88 537.852,-203.398 527.345,-202.03 528.785,-208.88"/>
<text text-anchor="middle" x="452.245" y="-247.8" font-family="Times,serif" font-size="14.00">OUTPUT: </text>
<text text-anchor="middle" x="452.245" y="-232.8" font-family="Times,serif" font-size="14.00">INPUT: &#160;</text>
</g>
<!-- E4 -->
<g id="node5" class="node"><title>E4</title>
<ellipse fill="azure" stroke="black" cx="583.245" cy="-91" rx="56.59" ry="18"/>
<text text-anchor="middle" x="583.245" y="-87.3" font-family="Times,serif" font-size="14.00">heat (S4,P0)</text>
</g>
<!-- E3&#45;&gt;E4 -->
<g id="edge10" class="edge"><title>E3&#45;&gt;E4</title>
<path fill="none" stroke="black" d="M583.245,-174.581C583.245,-159.382 583.245,-137.067 583.245,-119.464"/>
<polygon fill="black" stroke="black" points="586.745,-119.219 583.245,-109.219 579.745,-119.219 586.745,-119.219"/>
<text text-anchor="middle" x="615.245" y="-145.8" font-family="Times,serif" font-size="14.00">OUTPUT: </text>
<text text-anchor="middle" x="615.245" y="-130.8" font-family="Times,serif" font-size="14.00">INPUT: </text>
</g>
<!-- EOR -->
<g id="node12" class="node"><title>EOR</title>
<ellipse fill="plum" stroke="black" cx="583.245" cy="-18" rx="57.3905" ry="18"/>
<text text-anchor="middle" x="583.245" y="-14.3" font-family="Times,serif" font-size="14.00">Bon appetit!</text>
</g>
<!-- E4&#45;&gt;EOR -->
<g id="edge11" class="edge"><title>E4&#45;&gt;EOR</title>
<path fill="none" stroke="black" d="M583.245,-72.8129C583.245,-64.7895 583.245,-55.0475 583.245,-46.0691"/>
<polygon fill="black" stroke="black" points="586.745,-46.0288 583.245,-36.0288 579.745,-46.0289 586.745,-46.0288"/>
</g>
<!-- D1 -->
<g id="node6" class="node"><title>D1</title>
<polygon fill="peachpuff" stroke="black" points="98.2451,-494 12.2451,-494 12.2451,-456 98.2451,-456 98.2451,-494"/>
<text text-anchor="middle" x="55.2451" y="-478.8" font-family="Times,serif" font-size="14.00">DOBJ: milk</text>
<text text-anchor="middle" x="55.2451" y="-463.8" font-family="Times,serif" font-size="14.00">(text: milk)</text>
</g>
<!-- D1&#45;&gt;E1 -->
<g id="edge1" class="edge"><title>D1&#45;&gt;E1</title>
<path fill="none" stroke="black" d="M55.2451,-455.955C55.2451,-447.701 55.2451,-437.738 55.2451,-428.574"/>
<polygon fill="black" stroke="black" points="58.7452,-428.335 55.2451,-418.335 51.7452,-428.335 58.7452,-428.335"/>
</g>
<!-- D0 -->
<g id="node7" class="node"><title>D0</title>
<polygon fill="peachpuff" stroke="black" points="917.245,-419 729.245,-419 729.245,-381 917.245,-381 917.245,-419"/>
<text text-anchor="middle" x="823.245" y="-403.8" font-family="Times,serif" font-size="14.00">DOBJ: butter, chopped onion</text>
<text text-anchor="middle" x="823.245" y="-388.8" font-family="Times,serif" font-size="14.00">(text: onion in butter)</text>
</g>
<!-- D0&#45;&gt;E0 -->
<g id="edge2" class="edge"><title>D0&#45;&gt;E0</title>
<path fill="none" stroke="black" d="M838.978,-380.764C853.211,-364.267 874.288,-339.837 890.012,-321.612"/>
<polygon fill="black" stroke="black" points="892.933,-323.583 896.815,-313.725 887.633,-319.011 892.933,-323.583"/>
</g>
<!-- P0_0 -->
<g id="node8" class="node"><title>P0_0</title>
<polygon fill="white" stroke="black" points="1060.75,-418 935.745,-418 935.745,-382 1060.75,-382 1060.75,-418"/>
<text text-anchor="middle" x="998.245" y="-396.3" font-family="Times,serif" font-size="14.00">PREP: until tender</text>
</g>
<!-- P0_0&#45;&gt;E0 -->
<g id="edge3" class="edge"><title>P0_0&#45;&gt;E0</title>
<path fill="none" stroke="black" d="M983.487,-381.697C969.382,-365.16 947.98,-340.068 932.128,-321.484"/>
<polygon fill="black" stroke="black" points="934.65,-319.046 925.497,-313.709 929.324,-323.589 934.65,-319.046"/>
</g>
<!-- P2_0_0 -->
<g id="node9" class="node"><title>P2_0_0</title>
<polygon fill="white" stroke="black" points="273.745,-418 128.745,-418 128.745,-382 273.745,-382 273.745,-418"/>
<text text-anchor="middle" x="201.245" y="-396.3" font-family="Times,serif" font-size="14.00">PREP: until thickened</text>
</g>
<!-- P2_0_0&#45;&gt;E2 -->
<g id="edge5" class="edge"><title>P2_0_0&#45;&gt;E2</title>
<path fill="none" stroke="black" d="M194.46,-381.697C188.216,-365.775 178.862,-341.923 171.67,-323.583"/>
<polygon fill="black" stroke="black" points="174.84,-322.079 167.93,-314.047 168.323,-324.635 174.84,-322.079"/>
</g>
<!-- D3_ing -->
<g id="node10" class="node"><title>D3_ing</title>
<polygon fill="peachpuff" stroke="black" points="624.245,-315 232.245,-315 232.245,-277 624.245,-277 624.245,-315"/>
<text text-anchor="middle" x="428.245" y="-299.8" font-family="Times,serif" font-size="14.00">DOBJ: shredded American cheese, (15 ounce) cans creamed corn</text>
<text text-anchor="middle" x="428.245" y="-284.8" font-family="Times,serif" font-size="14.00">(text: corn , &#160;cheese)</text>
</g>
<!-- D3_ing&#45;&gt;E3 -->
<g id="edge6" class="edge"><title>D3_ing&#45;&gt;E3</title>
<path fill="none" stroke="black" d="M455.956,-276.943C482.514,-259.638 522.599,-233.518 550.672,-215.225"/>
<polygon fill="black" stroke="black" points="552.864,-217.974 559.332,-209.582 549.043,-212.109 552.864,-217.974"/>
</g>
<!-- P3_0_ing -->
<g id="node11" class="node"><title>P3_0_ing</title>
<polygon fill="peachpuff" stroke="black" points="833.745,-315 642.745,-315 642.745,-277 833.745,-277 833.745,-315"/>
<text text-anchor="middle" x="738.245" y="-299.8" font-family="Times,serif" font-size="14.00">PREP: with white pepper, salt</text>
<text text-anchor="middle" x="738.245" y="-284.8" font-family="Times,serif" font-size="14.00">(text: with pepper, salt)</text>
</g>
<!-- P3_0_ing&#45;&gt;E3 -->
<g id="edge8" class="edge"><title>P3_0_ing&#45;&gt;E3</title>
<path fill="none" stroke="black" d="M710.534,-276.943C683.976,-259.638 643.891,-233.518 615.819,-215.225"/>
<polygon fill="black" stroke="black" points="617.448,-212.109 607.159,-209.582 613.626,-217.974 617.448,-212.109"/>
</g>
</g>
</svg>
