<?xml version="1.0" encoding="UTF-8" standalone="no"?>
<!DOCTYPE svg PUBLIC "-//W3C//DTD SVG 1.1//EN"
 "http://www.w3.org/Graphics/SVG/1.1/DTD/svg11.dtd">
<!-- Generated by graphviz version 2.38.0 (20140413.2041)
 -->
<!-- Title: recipe Pages: 1 -->
<svg width="1515pt" height="604pt"
 viewBox="0.00 0.00 1515.00 604.00" xmlns="http://www.w3.org/2000/svg" xmlns:xlink="http://www.w3.org/1999/xlink">
<g id="graph0" class="graph" transform="scale(1 1) rotate(0) translate(4 600)">
<title>recipe</title>
<polygon fill="white" stroke="none" points="-4,4 -4,-600 1511,-600 1511,4 -4,4"/>
<!-- E0 -->
<g id="node1" class="node"><title>E0</title>
<ellipse fill="azure" stroke="black" cx="1367" cy="-400" rx="61.99" ry="18"/>
<text text-anchor="middle" x="1367" y="-396.3" font-family="Times,serif" font-size="14.00">bring (S0,P0)</text>
</g>
<!-- E1 -->
<g id="node2" class="node"><title>E1</title>
<ellipse fill="azure" stroke="black" cx="1306" cy="-297" rx="59.5901" ry="18"/>
<text text-anchor="middle" x="1306" y="-293.3" font-family="Times,serif" font-size="14.00">cook (S1,P0)</text>
</g>
<!-- E0&#45;&gt;E1 -->
<g id="edge8" class="edge"><title>E0&#45;&gt;E1</title>
<path fill="none" stroke="black" d="M1356.65,-381.867C1347,-365.882 1332.47,-341.825 1321.44,-323.569"/>
<polygon fill="black" stroke="black" points="1324.36,-321.631 1316.19,-314.88 1318.37,-325.25 1324.36,-321.631"/>
<text text-anchor="middle" x="1425.5" y="-351.8" font-family="Times,serif" font-size="14.00">OUTPUT: </text>
<text text-anchor="middle" x="1425.5" y="-336.8" font-family="Times,serif" font-size="14.00">INPUT: in the boiling water</text>
</g>
<!-- E2 -->
<g id="node3" class="node"><title>E2</title>
<ellipse fill="azure" stroke="black" cx="1242" cy="-194" rx="107.781" ry="18"/>
<text text-anchor="middle" x="1242" y="-190.3" font-family="Times,serif" font-size="14.00">drain and transfer (S2,P0)</text>
</g>
<!-- E1&#45;&gt;E2 -->
<g id="edge9" class="edge"><title>E1&#45;&gt;E2</title>
<path fill="none" stroke="black" d="M1295.14,-278.867C1285.12,-263.051 1270.09,-239.332 1258.57,-221.15"/>
<polygon fill="black" stroke="black" points="1261.22,-218.791 1252.91,-212.217 1255.31,-222.538 1261.22,-218.791"/>
<text text-anchor="middle" x="1316" y="-249.8" font-family="Times,serif" font-size="14.00">OUTPUT: </text>
<text text-anchor="middle" x="1316" y="-234.8" font-family="Times,serif" font-size="14.00">INPUT: </text>
</g>
<!-- E9 -->
<g id="node10" class="node"><title>E9</title>
<ellipse fill="azure" stroke="black" cx="790" cy="-91" rx="53.0913" ry="18"/>
<text text-anchor="middle" x="790" y="-87.3" font-family="Times,serif" font-size="14.00">stir (S8,P0)</text>
</g>
<!-- E2&#45;&gt;E9 -->
<g id="edge23" class="edge"><title>E2&#45;&gt;E9</title>
<path fill="none" stroke="black" d="M1180.1,-179.168C1090.77,-159.207 927.215,-122.661 843.086,-103.862"/>
<polygon fill="black" stroke="black" points="843.753,-100.425 833.23,-101.66 842.226,-107.256 843.753,-100.425"/>
<text text-anchor="middle" x="1168.5" y="-145.8" font-family="Times,serif" font-size="14.00">OUTPUT: </text>
<text text-anchor="middle" x="1168.5" y="-130.8" font-family="Times,serif" font-size="14.00">INPUT: mix with cooked noodles</text>
</g>
<!-- E3 -->
<g id="node4" class="node"><title>E3</title>
<ellipse fill="azure" stroke="black" cx="254" cy="-503" rx="57.6901" ry="18"/>
<text text-anchor="middle" x="254" y="-499.3" font-family="Times,serif" font-size="14.00">melt (S3,P0)</text>
</g>
<!-- E6 -->
<g id="node7" class="node"><title>E6</title>
<ellipse fill="azure" stroke="black" cx="526" cy="-400" rx="59.5901" ry="18"/>
<text text-anchor="middle" x="526" y="-396.3" font-family="Times,serif" font-size="14.00">pour (S6,P0)</text>
</g>
<!-- E3&#45;&gt;E6 -->
<g id="edge12" class="edge"><title>E3&#45;&gt;E6</title>
<path fill="none" stroke="black" d="M270.262,-485.477C286.271,-470.276 312.16,-448.415 339,-437 387.82,-416.238 405.041,-429.71 457,-419 462.381,-417.891 467.969,-416.626 473.532,-415.291"/>
<polygon fill="black" stroke="black" points="474.599,-418.633 483.466,-412.834 472.918,-411.838 474.599,-418.633"/>
<text text-anchor="middle" x="386.5" y="-455.8" font-family="Times,serif" font-size="14.00">OUTPUT: </text>
<text text-anchor="middle" x="386.5" y="-440.8" font-family="Times,serif" font-size="14.00">INPUT: mixture</text>
</g>
<!-- E4 -->
<g id="node5" class="node"><title>E4</title>
<ellipse fill="azure" stroke="black" cx="369" cy="-297" rx="60.3893" ry="18"/>
<text text-anchor="middle" x="369" y="-293.3" font-family="Times,serif" font-size="14.00">place (S5,P0)</text>
</g>
<!-- E5 -->
<g id="node6" class="node"><title>E5</title>
<ellipse fill="azure" stroke="black" cx="380" cy="-194" rx="62.2891" ry="18"/>
<text text-anchor="middle" x="380" y="-190.3" font-family="Times,serif" font-size="14.00">shake (S5,P1)</text>
</g>
<!-- E4&#45;&gt;E5 -->
<g id="edge11" class="edge"><title>E4&#45;&gt;E5</title>
<path fill="none" stroke="black" d="M370.866,-278.867C372.549,-263.414 375.054,-240.416 377.015,-222.409"/>
<polygon fill="black" stroke="black" points="380.521,-222.538 378.125,-212.217 373.563,-221.78 380.521,-222.538"/>
<text text-anchor="middle" x="408" y="-249.8" font-family="Times,serif" font-size="14.00">OUTPUT: </text>
<text text-anchor="middle" x="408" y="-234.8" font-family="Times,serif" font-size="14.00">INPUT: </text>
</g>
<!-- E5&#45;&gt;E9 -->
<g id="edge22" class="edge"><title>E5&#45;&gt;E9</title>
<path fill="none" stroke="black" d="M401.635,-176.998C423.853,-161.459 460.033,-138.57 495,-127 571.95,-101.538 665.598,-94.1473 726.442,-92.2364"/>
<polygon fill="black" stroke="black" points="726.762,-95.729 736.663,-91.9573 726.571,-88.7316 726.762,-95.729"/>
<text text-anchor="middle" x="559" y="-145.8" font-family="Times,serif" font-size="14.00">OUTPUT: </text>
<text text-anchor="middle" x="559" y="-130.8" font-family="Times,serif" font-size="14.00">INPUT: black pepper </text>
</g>
<!-- E7 -->
<g id="node8" class="node"><title>E7</title>
<ellipse fill="azure" stroke="black" cx="526" cy="-297" rx="64.189" ry="18"/>
<text text-anchor="middle" x="526" y="-293.3" font-family="Times,serif" font-size="14.00">whisk (S7,P0)</text>
</g>
<!-- E6&#45;&gt;E7 -->
<g id="edge18" class="edge"><title>E6&#45;&gt;E7</title>
<path fill="none" stroke="black" d="M526,-381.867C526,-366.414 526,-343.416 526,-325.409"/>
<polygon fill="black" stroke="black" points="529.5,-325.217 526,-315.217 522.5,-325.217 529.5,-325.217"/>
<text text-anchor="middle" x="579.5" y="-351.8" font-family="Times,serif" font-size="14.00">OUTPUT: </text>
<text text-anchor="middle" x="579.5" y="-336.8" font-family="Times,serif" font-size="14.00">INPUT: into sauce</text>
</g>
<!-- E8 -->
<g id="node9" class="node"><title>E8</title>
<ellipse fill="azure" stroke="black" cx="526" cy="-194" rx="61.99" ry="18"/>
<text text-anchor="middle" x="526" y="-190.3" font-family="Times,serif" font-size="14.00">bring (S7,P1)</text>
</g>
<!-- E7&#45;&gt;E8 -->
<g id="edge19" class="edge"><title>E7&#45;&gt;E8</title>
<path fill="none" stroke="black" d="M526,-278.867C526,-263.414 526,-240.416 526,-222.409"/>
<polygon fill="black" stroke="black" points="529.5,-222.217 526,-212.217 522.5,-222.217 529.5,-222.217"/>
<text text-anchor="middle" x="558" y="-249.8" font-family="Times,serif" font-size="14.00">OUTPUT: </text>
<text text-anchor="middle" x="558" y="-234.8" font-family="Times,serif" font-size="14.00">INPUT: </text>
</g>
<!-- E8&#45;&gt;E9 -->
<g id="edge24" class="edge"><title>E8&#45;&gt;E9</title>
<path fill="none" stroke="black" d="M561.879,-179.274C609.824,-160.931 694.722,-128.451 746.33,-108.707"/>
<polygon fill="black" stroke="black" points="747.785,-111.898 755.874,-105.056 745.284,-105.36 747.785,-111.898"/>
<text text-anchor="middle" x="730" y="-145.8" font-family="Times,serif" font-size="14.00">OUTPUT: </text>
<text text-anchor="middle" x="730" y="-130.8" font-family="Times,serif" font-size="14.00">INPUT: &#160;</text>
</g>
<!-- EOR -->
<g id="node26" class="node"><title>EOR</title>
<ellipse fill="plum" stroke="black" cx="790" cy="-18" rx="57.3905" ry="18"/>
<text text-anchor="middle" x="790" y="-14.3" font-family="Times,serif" font-size="14.00">Bon appetit!</text>
</g>
<!-- E9&#45;&gt;EOR -->
<g id="edge25" class="edge"><title>E9&#45;&gt;EOR</title>
<path fill="none" stroke="black" d="M790,-72.8129C790,-64.7895 790,-55.0475 790,-46.0691"/>
<polygon fill="black" stroke="black" points="793.5,-46.0288 790,-36.0288 786.5,-46.0289 793.5,-46.0288"/>
</g>
<!-- D4 -->
<g id="node11" class="node"><title>D4</title>
<polygon fill="peachpuff" stroke="black" points="272,-419 0,-419 0,-381 272,-381 272,-419"/>
<text text-anchor="middle" x="136" y="-403.8" font-family="Times,serif" font-size="14.00">DOBJ: milk, half&#45;and&#45;half, all&#45;purpose flour</text>
<text text-anchor="middle" x="136" y="-388.8" font-family="Times,serif" font-size="14.00">(text: flour , milk , and half&#45;and&#45;half)</text>
</g>
<!-- D4&#45;&gt;E4 -->
<g id="edge1" class="edge"><title>D4&#45;&gt;E4</title>
<path fill="none" stroke="black" d="M177.656,-380.943C219.883,-362.639 284.861,-334.472 327.156,-316.138"/>
<polygon fill="black" stroke="black" points="328.561,-319.344 336.344,-312.156 325.776,-312.922 328.561,-319.344"/>
</g>
<!-- P4_0 -->
<g id="node12" class="node"><title>P4_0</title>
<polygon fill="white" stroke="black" points="448,-418 290,-418 290,-382 448,-382 448,-418"/>
<text text-anchor="middle" x="369" y="-396.3" font-family="Times,serif" font-size="14.00">PREP: in a jar with a lid</text>
</g>
<!-- P4_0&#45;&gt;E4 -->
<g id="edge2" class="edge"><title>P4_0&#45;&gt;E4</title>
<path fill="none" stroke="black" d="M369,-381.867C369,-366.414 369,-343.416 369,-325.409"/>
<polygon fill="black" stroke="black" points="372.5,-325.217 369,-315.217 365.5,-325.217 372.5,-325.217"/>
</g>
<!-- D0 -->
<g id="node13" class="node"><title>D0</title>
<polygon fill="white" stroke="black" points="1333,-521 1083,-521 1083,-485 1333,-485 1333,-521"/>
<text text-anchor="middle" x="1208" y="-499.3" font-family="Times,serif" font-size="14.00">DOBJ: a large pot of lightly salted water</text>
</g>
<!-- D0&#45;&gt;E0 -->
<g id="edge3" class="edge"><title>D0&#45;&gt;E0</title>
<path fill="none" stroke="black" d="M1234.97,-484.867C1262.27,-467.525 1304.53,-440.682 1333.86,-422.054"/>
<polygon fill="black" stroke="black" points="1335.95,-424.873 1342.51,-416.556 1332.19,-418.964 1335.95,-424.873"/>
</g>
<!-- P0_0 -->
<g id="node14" class="node"><title>P0_0</title>
<polygon fill="white" stroke="black" points="1458.5,-521 1351.5,-521 1351.5,-485 1458.5,-485 1458.5,-521"/>
<text text-anchor="middle" x="1405" y="-499.3" font-family="Times,serif" font-size="14.00">PREP: to a boil</text>
</g>
<!-- P0_0&#45;&gt;E0 -->
<g id="edge4" class="edge"><title>P0_0&#45;&gt;E0</title>
<path fill="none" stroke="black" d="M1398.55,-484.867C1392.66,-469.196 1383.84,-445.766 1377.03,-427.651"/>
<polygon fill="black" stroke="black" points="1380.28,-426.344 1373.48,-418.217 1373.72,-428.809 1380.28,-426.344"/>
</g>
<!-- D3 -->
<g id="node15" class="node"><title>D3</title>
<polygon fill="peachpuff" stroke="black" points="208,-596 114,-596 114,-558 208,-558 208,-596"/>
<text text-anchor="middle" x="161" y="-580.8" font-family="Times,serif" font-size="14.00">DOBJ: butter</text>
<text text-anchor="middle" x="161" y="-565.8" font-family="Times,serif" font-size="14.00">(text: butter)</text>
</g>
<!-- D3&#45;&gt;E3 -->
<g id="edge5" class="edge"><title>D3&#45;&gt;E3</title>
<path fill="none" stroke="black" d="M184.468,-557.831C196.827,-548.263 212.091,-536.446 225.166,-526.323"/>
<polygon fill="black" stroke="black" points="227.625,-528.846 233.389,-519.957 223.339,-523.311 227.625,-528.846"/>
</g>
<!-- P3_0 -->
<g id="node16" class="node"><title>P3_0</title>
<polygon fill="white" stroke="black" points="468,-595 226,-595 226,-559 468,-559 468,-595"/>
<text text-anchor="middle" x="347" y="-573.3" font-family="Times,serif" font-size="14.00">PREP: in a large pot over medium heat</text>
</g>
<!-- P3_0&#45;&gt;E3 -->
<g id="edge6" class="edge"><title>P3_0&#45;&gt;E3</title>
<path fill="none" stroke="black" d="M324.96,-558.937C312.328,-549.157 296.328,-536.77 282.72,-526.235"/>
<polygon fill="black" stroke="black" points="284.657,-523.308 274.607,-519.954 280.372,-528.843 284.657,-523.308"/>
</g>
<!-- D1_ing -->
<g id="node17" class="node"><title>D1_ing</title>
<polygon fill="peachpuff" stroke="black" points="1287,-419 1041,-419 1041,-381 1287,-381 1287,-419"/>
<text text-anchor="middle" x="1164" y="-403.8" font-family="Times,serif" font-size="14.00">DOBJ: (16 ounce) package egg noodles</text>
<text text-anchor="middle" x="1164" y="-388.8" font-family="Times,serif" font-size="14.00">(text: egg noodles)</text>
</g>
<!-- D1_ing&#45;&gt;E1 -->
<g id="edge7" class="edge"><title>D1_ing&#45;&gt;E1</title>
<path fill="none" stroke="black" d="M1189.39,-380.943C1213.47,-363.815 1249.69,-338.051 1275.37,-319.789"/>
<polygon fill="black" stroke="black" points="1277.52,-322.555 1283.64,-313.906 1273.46,-316.85 1277.52,-322.555"/>
</g>
<!-- P2_0_0 -->
<g id="node18" class="node"><title>P2_0_0</title>
<polygon fill="white" stroke="black" points="1228,-315 1036,-315 1036,-279 1228,-279 1228,-315"/>
<text text-anchor="middle" x="1132" y="-293.3" font-family="Times,serif" font-size="14.00">PREP: to a large serving bowl</text>
</g>
<!-- P2_0_0&#45;&gt;E2 -->
<g id="edge10" class="edge"><title>P2_0_0&#45;&gt;E2</title>
<path fill="none" stroke="black" d="M1150.66,-278.867C1168.63,-262.371 1195.95,-237.278 1216.04,-218.837"/>
<polygon fill="black" stroke="black" points="1218.62,-221.222 1223.62,-211.88 1213.88,-216.065 1218.62,-221.222"/>
</g>
<!-- P6_0_0 -->
<g id="node19" class="node"><title>P6_0_0</title>
<polygon fill="white" stroke="black" points="448.5,-521 329.5,-521 329.5,-485 448.5,-485 448.5,-521"/>
<text text-anchor="middle" x="389" y="-499.3" font-family="Times,serif" font-size="14.00">PREP: into skillet</text>
</g>
<!-- P6_0_0&#45;&gt;E6 -->
<g id="edge13" class="edge"><title>P6_0_0&#45;&gt;E6</title>
<path fill="none" stroke="black" d="M412.24,-484.867C435.423,-467.776 471.124,-441.456 496.339,-422.867"/>
<polygon fill="black" stroke="black" points="498.483,-425.635 504.455,-416.884 494.329,-420.001 498.483,-425.635"/>
</g>
<!-- P6_0_1 -->
<g id="node20" class="node"><title>P6_0_1</title>
<polygon fill="white" stroke="black" points="585,-521 467,-521 467,-485 585,-485 585,-521"/>
<text text-anchor="middle" x="526" y="-499.3" font-family="Times,serif" font-size="14.00">PREP: into thick </text>
</g>
<!-- P6_0_1&#45;&gt;E6 -->
<g id="edge14" class="edge"><title>P6_0_1&#45;&gt;E6</title>
<path fill="none" stroke="black" d="M526,-484.867C526,-469.414 526,-446.416 526,-428.409"/>
<polygon fill="black" stroke="black" points="529.5,-428.217 526,-418.217 522.5,-428.217 529.5,-428.217"/>
</g>
<!-- P6_0_2 -->
<g id="node21" class="node"><title>P6_0_2</title>
<polygon fill="white" stroke="black" points="800.5,-521 603.5,-521 603.5,-485 800.5,-485 800.5,-521"/>
<text text-anchor="middle" x="702" y="-499.3" font-family="Times,serif" font-size="14.00">PREP: into whisk until smooth</text>
</g>
<!-- P6_0_2&#45;&gt;E6 -->
<g id="edge15" class="edge"><title>P6_0_2&#45;&gt;E6</title>
<path fill="none" stroke="black" d="M672.144,-484.867C641.485,-467.273 593.784,-439.899 561.28,-421.246"/>
<polygon fill="black" stroke="black" points="562.958,-418.173 552.543,-416.232 559.474,-424.245 562.958,-418.173"/>
</g>
<!-- P6_0_3 -->
<g id="node22" class="node"><title>P6_0_3</title>
<polygon fill="white" stroke="black" points="1001,-521 819,-521 819,-485 1001,-485 1001,-521"/>
<text text-anchor="middle" x="910" y="-499.3" font-family="Times,serif" font-size="14.00">PREP: into &#160;about 5 minutes</text>
</g>
<!-- P6_0_3&#45;&gt;E6 -->
<g id="edge16" class="edge"><title>P6_0_3&#45;&gt;E6</title>
<path fill="none" stroke="black" d="M844.931,-484.948C781.036,-468.194 680.796,-441.886 594,-419 589.302,-417.761 584.423,-416.473 579.531,-415.18"/>
<polygon fill="black" stroke="black" points="580.09,-411.708 569.528,-412.535 578.301,-418.475 580.09,-411.708"/>
</g>
<!-- D7_ing -->
<g id="node23" class="node"><title>D7_ing</title>
<polygon fill="peachpuff" stroke="black" points="786.5,-419 603.5,-419 603.5,-381 786.5,-381 786.5,-419"/>
<text text-anchor="middle" x="695" y="-403.8" font-family="Times,serif" font-size="14.00">DOBJ: ounces chicken broth</text>
<text text-anchor="middle" x="695" y="-388.8" font-family="Times,serif" font-size="14.00">(text: chicken broth)</text>
</g>
<!-- D7_ing&#45;&gt;E7 -->
<g id="edge17" class="edge"><title>D7_ing&#45;&gt;E7</title>
<path fill="none" stroke="black" d="M683.262,-380.85C672.787,-366.006 656.169,-345.494 637,-333 627.298,-326.676 604.031,-318.999 581.291,-312.447"/>
<polygon fill="black" stroke="black" points="582.193,-309.065 571.619,-309.716 580.291,-315.802 582.193,-309.065"/>
</g>
<!-- P8_0_0 -->
<g id="node24" class="node"><title>P8_0_0</title>
<polygon fill="white" stroke="black" points="735.5,-315 608.5,-315 608.5,-279 735.5,-279 735.5,-315"/>
<text text-anchor="middle" x="672" y="-293.3" font-family="Times,serif" font-size="14.00">PREP: to a simmer</text>
</g>
<!-- P8_0_0&#45;&gt;E8 -->
<g id="edge20" class="edge"><title>P8_0_0&#45;&gt;E8</title>
<path fill="none" stroke="black" d="M653.634,-278.815C638.351,-264.986 615.666,-245.532 594,-231 585.173,-225.079 575.264,-219.361 565.798,-214.292"/>
<polygon fill="black" stroke="black" points="567.391,-211.175 556.908,-209.645 564.148,-217.379 567.391,-211.175"/>
</g>
<!-- D9_ing -->
<g id="node25" class="node"><title>D9_ing</title>
<polygon fill="peachpuff" stroke="black" points="1116,-213 606,-213 606,-175 1116,-175 1116,-213"/>
<text text-anchor="middle" x="861" y="-197.8" font-family="Times,serif" font-size="14.00">DOBJ: sour cream, (3 pound) rotisserie chicken, salt and ground black pepper to taste</text>
<text text-anchor="middle" x="861" y="-182.8" font-family="Times,serif" font-size="14.00">(text: cooked chicken, &#160;season with salt, sour cream into sauce )</text>
</g>
<!-- D9_ing&#45;&gt;E9 -->
<g id="edge21" class="edge"><title>D9_ing&#45;&gt;E9</title>
<path fill="none" stroke="black" d="M848.307,-174.943C836.995,-158.852 820.326,-135.14 807.705,-117.185"/>
<polygon fill="black" stroke="black" points="810.489,-115.061 801.875,-108.893 804.763,-119.086 810.489,-115.061"/>
</g>
</g>
</svg>
