<?xml version="1.0" encoding="UTF-8" standalone="no"?>
<!DOCTYPE svg PUBLIC "-//W3C//DTD SVG 1.1//EN"
 "http://www.w3.org/Graphics/SVG/1.1/DTD/svg11.dtd">
<!-- Generated by graphviz version 2.38.0 (20140413.2041)
 -->
<!-- Title: recipe Pages: 1 -->
<svg width="1674pt" height="398pt"
 viewBox="0.00 0.00 1673.50 398.00" xmlns="http://www.w3.org/2000/svg" xmlns:xlink="http://www.w3.org/1999/xlink">
<g id="graph0" class="graph" transform="scale(1 1) rotate(0) translate(4 394)">
<title>recipe</title>
<polygon fill="white" stroke="none" points="-4,4 -4,-394 1669.5,-394 1669.5,4 -4,4"/>
<!-- E0 -->
<g id="node1" class="node"><title>E0</title>
<ellipse fill="azure" stroke="black" cx="1393" cy="-296" rx="73.387" ry="18"/>
<text text-anchor="middle" x="1393" y="-292.3" font-family="Times,serif" font-size="14.00">combine (S0,P0)</text>
</g>
<!-- E1 -->
<g id="node2" class="node"><title>E1</title>
<ellipse fill="azure" stroke="black" cx="1085" cy="-193" rx="59.5901" ry="18"/>
<text text-anchor="middle" x="1085" y="-189.3" font-family="Times,serif" font-size="14.00">saute (S0,P1)</text>
</g>
<!-- E0&#45;&gt;E1 -->
<g id="edge5" class="edge"><title>E0&#45;&gt;E1</title>
<path fill="none" stroke="black" d="M1350.82,-281.168C1294.01,-262.54 1193.16,-229.468 1133.35,-209.856"/>
<polygon fill="black" stroke="black" points="1134.35,-206.5 1123.76,-206.71 1132.17,-213.152 1134.35,-206.5"/>
<text text-anchor="middle" x="1307" y="-247.8" font-family="Times,serif" font-size="14.00">OUTPUT: </text>
<text text-anchor="middle" x="1307" y="-232.8" font-family="Times,serif" font-size="14.00">INPUT: </text>
</g>
<!-- E4 -->
<g id="node5" class="node"><title>E4</title>
<ellipse fill="azure" stroke="black" cx="502" cy="-91" rx="66.0889" ry="18"/>
<text text-anchor="middle" x="502" y="-87.3" font-family="Times,serif" font-size="14.00">reduce (S3,P0)</text>
</g>
<!-- E1&#45;&gt;E4 -->
<g id="edge8" class="edge"><title>E1&#45;&gt;E4</title>
<path fill="none" stroke="black" d="M1035.71,-182.686C966.578,-169.714 836.863,-145.695 726,-127 673.248,-118.105 613.372,-108.789 568.804,-102.007"/>
<polygon fill="black" stroke="black" points="569.091,-98.5106 558.679,-100.47 568.04,-105.431 569.091,-98.5106"/>
<text text-anchor="middle" x="929.5" y="-145.8" font-family="Times,serif" font-size="14.00">OUTPUT: </text>
<text text-anchor="middle" x="929.5" y="-130.8" font-family="Times,serif" font-size="14.00">INPUT: heat</text>
</g>
<!-- E2 -->
<g id="node3" class="node"><title>E2</title>
<ellipse fill="azure" stroke="black" cx="208" cy="-193" rx="61.1893" ry="18"/>
<text text-anchor="middle" x="208" y="-189.3" font-family="Times,serif" font-size="14.00">drain (S1,P0)</text>
</g>
<!-- E2&#45;&gt;E4 -->
<g id="edge10" class="edge"><title>E2&#45;&gt;E4</title>
<path fill="none" stroke="black" d="M246.435,-178.927C299.257,-160.96 394.335,-128.621 452.446,-108.855"/>
<polygon fill="black" stroke="black" points="453.804,-112.09 462.144,-105.556 451.55,-105.463 453.804,-112.09"/>
<text text-anchor="middle" x="443" y="-145.8" font-family="Times,serif" font-size="14.00">OUTPUT: </text>
<text text-anchor="middle" x="443" y="-130.8" font-family="Times,serif" font-size="14.00">INPUT: to low</text>
</g>
<!-- E3 -->
<g id="node4" class="node"><title>E3</title>
<ellipse fill="azure" stroke="black" cx="502" cy="-193" rx="55.4913" ry="18"/>
<text text-anchor="middle" x="502" y="-189.3" font-family="Times,serif" font-size="14.00">add (S2,P0)</text>
</g>
<!-- E3&#45;&gt;E4 -->
<g id="edge9" class="edge"><title>E3&#45;&gt;E4</title>
<path fill="none" stroke="black" d="M502,-174.581C502,-159.382 502,-137.067 502,-119.464"/>
<polygon fill="black" stroke="black" points="505.5,-119.219 502,-109.219 498.5,-119.219 505.5,-119.219"/>
<text text-anchor="middle" x="612" y="-145.8" font-family="Times,serif" font-size="14.00">OUTPUT: </text>
<text text-anchor="middle" x="612" y="-130.8" font-family="Times,serif" font-size="14.00">INPUT: to simmer for at least an hour</text>
</g>
<!-- EOR -->
<g id="node12" class="node"><title>EOR</title>
<ellipse fill="plum" stroke="black" cx="502" cy="-18" rx="57.3905" ry="18"/>
<text text-anchor="middle" x="502" y="-14.3" font-family="Times,serif" font-size="14.00">Bon appetit!</text>
</g>
<!-- E4&#45;&gt;EOR -->
<g id="edge11" class="edge"><title>E4&#45;&gt;EOR</title>
<path fill="none" stroke="black" d="M502,-72.8129C502,-64.7895 502,-55.0475 502,-46.0691"/>
<polygon fill="black" stroke="black" points="505.5,-46.0288 502,-36.0288 498.5,-46.0289 505.5,-46.0288"/>
</g>
<!-- D0 -->
<g id="node6" class="node"><title>D0</title>
<polygon fill="peachpuff" stroke="black" points="1372.5,-390 1143.5,-390 1143.5,-352 1372.5,-352 1372.5,-390"/>
<text text-anchor="middle" x="1258" y="-374.8" font-family="Times,serif" font-size="14.00">DOBJ: ground beef, onion</text>
<text text-anchor="middle" x="1258" y="-359.8" font-family="Times,serif" font-size="14.00">(text: the ground beef and the onion)</text>
</g>
<!-- D0&#45;&gt;E0 -->
<g id="edge1" class="edge"><title>D0&#45;&gt;E0</title>
<path fill="none" stroke="black" d="M1291.37,-351.955C1310.74,-341.483 1335.19,-328.262 1355.25,-317.411"/>
<polygon fill="black" stroke="black" points="1357,-320.447 1364.13,-312.611 1353.67,-314.289 1357,-320.447"/>
</g>
<!-- P0_0 -->
<g id="node7" class="node"><title>P0_0</title>
<polygon fill="white" stroke="black" points="1665.5,-389 1390.5,-389 1390.5,-353 1665.5,-353 1665.5,-389"/>
<text text-anchor="middle" x="1528" y="-367.3" font-family="Times,serif" font-size="14.00">PREP: in a large saucepan over medium heat</text>
</g>
<!-- P0_0&#45;&gt;E0 -->
<g id="edge2" class="edge"><title>P0_0&#45;&gt;E0</title>
<path fill="none" stroke="black" d="M1496.35,-352.885C1476.8,-342.312 1451.59,-328.683 1430.97,-317.531"/>
<polygon fill="black" stroke="black" points="1432.61,-314.439 1422.15,-312.761 1429.28,-320.597 1432.61,-314.439"/>
</g>
<!-- D3 -->
<g id="node8" class="node"><title>D3</title>
<polygon fill="peachpuff" stroke="black" points="890,-315 114,-315 114,-277 890,-277 890,-315"/>
<text text-anchor="middle" x="502" y="-299.8" font-family="Times,serif" font-size="14.00">DOBJ: tomato sauce, (15 ounce) can dark red kidney beans, ground black pepper, chili seasoning mix, (8 ounce) jar salsa, garlic salt</text>
<text text-anchor="middle" x="502" y="-284.8" font-family="Times,serif" font-size="14.00">(text: the ground black pepper , garlic salt , tomato sauce , salsa , chili seasoning mix and kidney beans)</text>
</g>
<!-- D3&#45;&gt;E3 -->
<g id="edge3" class="edge"><title>D3&#45;&gt;E3</title>
<path fill="none" stroke="black" d="M502,-276.943C502,-261.531 502,-239.127 502,-221.488"/>
<polygon fill="black" stroke="black" points="505.5,-221.226 502,-211.226 498.5,-221.226 505.5,-221.226"/>
</g>
<!-- D2 -->
<g id="node9" class="node"><title>D2</title>
<polygon fill="white" stroke="black" points="96,-314 0,-314 0,-278 96,-278 96,-314"/>
<text text-anchor="middle" x="48" y="-292.3" font-family="Times,serif" font-size="14.00">DOBJ: grease</text>
</g>
<!-- D2&#45;&gt;E2 -->
<g id="edge4" class="edge"><title>D2&#45;&gt;E2</title>
<path fill="none" stroke="black" d="M75.1418,-277.867C102.614,-260.525 145.137,-233.682 174.647,-215.054"/>
<polygon fill="black" stroke="black" points="176.768,-217.854 183.356,-209.556 173.032,-211.935 176.768,-217.854"/>
</g>
<!-- P1_0_0 -->
<g id="node10" class="node"><title>P1_0_0</title>
<polygon fill="white" stroke="black" points="1056,-314 908,-314 908,-278 1056,-278 1056,-314"/>
<text text-anchor="middle" x="982" y="-292.3" font-family="Times,serif" font-size="14.00">PREP: for 10 minutes </text>
</g>
<!-- P1_0_0&#45;&gt;E1 -->
<g id="edge6" class="edge"><title>P1_0_0&#45;&gt;E1</title>
<path fill="none" stroke="black" d="M999.473,-277.867C1016.25,-261.419 1041.74,-236.423 1060.53,-217.996"/>
<polygon fill="black" stroke="black" points="1063.44,-220.046 1068.13,-210.546 1058.54,-215.048 1063.44,-220.046"/>
</g>
<!-- P1_0_1 -->
<g id="node11" class="node"><title>P1_0_1</title>
<polygon fill="white" stroke="black" points="1301.5,-314 1074.5,-314 1074.5,-278 1301.5,-278 1301.5,-314"/>
<text text-anchor="middle" x="1188" y="-292.3" font-family="Times,serif" font-size="14.00">PREP: for &#160;or until meat is browned</text>
</g>
<!-- P1_0_1&#45;&gt;E1 -->
<g id="edge7" class="edge"><title>P1_0_1&#45;&gt;E1</title>
<path fill="none" stroke="black" d="M1170.53,-277.867C1153.75,-261.419 1128.26,-236.423 1109.47,-217.996"/>
<polygon fill="black" stroke="black" points="1111.46,-215.048 1101.87,-210.546 1106.56,-220.046 1111.46,-215.048"/>
</g>
</g>
</svg>
