<?xml version="1.0" encoding="UTF-8" standalone="no"?>
<!DOCTYPE svg PUBLIC "-//W3C//DTD SVG 1.1//EN"
 "http://www.w3.org/Graphics/SVG/1.1/DTD/svg11.dtd">
<!-- Generated by graphviz version 2.38.0 (20140413.2041)
 -->
<!-- Title: recipe Pages: 1 -->
<svg width="1129pt" height="500pt"
 viewBox="0.00 0.00 1129.00 500.00" xmlns="http://www.w3.org/2000/svg" xmlns:xlink="http://www.w3.org/1999/xlink">
<g id="graph0" class="graph" transform="scale(1 1) rotate(0) translate(4 496)">
<title>recipe</title>
<polygon fill="white" stroke="none" points="-4,4 -4,-496 1125,-496 1125,4 -4,4"/>
<!-- E0 -->
<g id="node1" class="node"><title>E0</title>
<ellipse fill="azure" stroke="black" cx="940" cy="-193" rx="68.7879" ry="18"/>
<text text-anchor="middle" x="940" y="-189.3" font-family="Times,serif" font-size="14.00">preheat (S0,P0)</text>
</g>
<!-- E4 -->
<g id="node5" class="node"><title>E4</title>
<ellipse fill="azure" stroke="black" cx="851" cy="-91" rx="59.2899" ry="18"/>
<text text-anchor="middle" x="851" y="-87.3" font-family="Times,serif" font-size="14.00">bake (S4,P0)</text>
</g>
<!-- E0&#45;&gt;E4 -->
<g id="edge9" class="edge"><title>E0&#45;&gt;E4</title>
<path fill="none" stroke="black" d="M924.902,-175.036C910.624,-158.993 889.036,-134.737 872.873,-116.577"/>
<polygon fill="black" stroke="black" points="875.137,-113.856 865.875,-108.713 869.908,-118.51 875.137,-113.856"/>
<text text-anchor="middle" x="995.5" y="-145.8" font-family="Times,serif" font-size="14.00">OUTPUT: </text>
<text text-anchor="middle" x="995.5" y="-130.8" font-family="Times,serif" font-size="14.00">INPUT: in the preheated oven</text>
</g>
<!-- E1 -->
<g id="node2" class="node"><title>E1</title>
<ellipse fill="azure" stroke="black" cx="423" cy="-398" rx="55.7903" ry="18"/>
<text text-anchor="middle" x="423" y="-394.3" font-family="Times,serif" font-size="14.00">mix (S1,P0)</text>
</g>
<!-- E2 -->
<g id="node3" class="node"><title>E2</title>
<ellipse fill="azure" stroke="black" cx="540" cy="-295" rx="53.0913" ry="18"/>
<text text-anchor="middle" x="540" y="-291.3" font-family="Times,serif" font-size="14.00">stir (S2,P0)</text>
</g>
<!-- E1&#45;&gt;E2 -->
<g id="edge5" class="edge"><title>E1&#45;&gt;E2</title>
<path fill="none" stroke="black" d="M421.896,-379.778C421.903,-365.108 424.291,-344.342 436,-331 447.555,-317.834 464.227,-309.61 480.849,-304.478"/>
<polygon fill="black" stroke="black" points="481.877,-307.825 490.592,-301.799 480.021,-301.075 481.877,-307.825"/>
<text text-anchor="middle" x="519" y="-349.8" font-family="Times,serif" font-size="14.00">OUTPUT: </text>
<text text-anchor="middle" x="519" y="-334.8" font-family="Times,serif" font-size="14.00">INPUT: into banana mixture</text>
</g>
<!-- E3 -->
<g id="node4" class="node"><title>E3</title>
<ellipse fill="azure" stroke="black" cx="698" cy="-193" rx="62.2891" ry="18"/>
<text text-anchor="middle" x="698" y="-189.3" font-family="Times,serif" font-size="14.00">batter (S3,P0)</text>
</g>
<!-- E2&#45;&gt;E3 -->
<g id="edge6" class="edge"><title>E2&#45;&gt;E3</title>
<path fill="none" stroke="black" d="M560.129,-278.12C577.984,-264.365 605.03,-244.323 630,-229 638.827,-223.583 648.588,-218.218 657.894,-213.376"/>
<polygon fill="black" stroke="black" points="659.684,-216.392 666.997,-208.726 656.499,-210.158 659.684,-216.392"/>
<text text-anchor="middle" x="662" y="-247.8" font-family="Times,serif" font-size="14.00">OUTPUT: </text>
<text text-anchor="middle" x="662" y="-232.8" font-family="Times,serif" font-size="14.00">INPUT: </text>
</g>
<!-- E3&#45;&gt;E4 -->
<g id="edge8" class="edge"><title>E3&#45;&gt;E4</title>
<path fill="none" stroke="black" d="M722.243,-176.155C748.283,-159.135 789.795,-132.003 818.616,-113.166"/>
<polygon fill="black" stroke="black" points="820.666,-116.007 827.122,-107.607 816.836,-110.148 820.666,-116.007"/>
<text text-anchor="middle" x="830" y="-145.8" font-family="Times,serif" font-size="14.00">OUTPUT: </text>
<text text-anchor="middle" x="830" y="-130.8" font-family="Times,serif" font-size="14.00">INPUT: </text>
</g>
<!-- EOR -->
<g id="node11" class="node"><title>EOR</title>
<ellipse fill="plum" stroke="black" cx="851" cy="-18" rx="57.3905" ry="18"/>
<text text-anchor="middle" x="851" y="-14.3" font-family="Times,serif" font-size="14.00">Bon appetit!</text>
</g>
<!-- E4&#45;&gt;EOR -->
<g id="edge10" class="edge"><title>E4&#45;&gt;EOR</title>
<path fill="none" stroke="black" d="M851,-72.8129C851,-64.7895 851,-55.0475 851,-46.0691"/>
<polygon fill="black" stroke="black" points="854.5,-46.0288 851,-36.0288 847.5,-46.0289 854.5,-46.0288"/>
</g>
<!-- D1 -->
<g id="node6" class="node"><title>D1</title>
<polygon fill="peachpuff" stroke="black" points="508,-492 -2.84217e-14,-492 -2.84217e-14,-454 508,-454 508,-492"/>
<text text-anchor="middle" x="254" y="-476.8" font-family="Times,serif" font-size="14.00">DOBJ: white sugar, mashed bananas, creamy salad dressing (such as Miracle Whip®)</text>
<text text-anchor="middle" x="254" y="-461.8" font-family="Times,serif" font-size="14.00">(text: bananas , salad dressing , and sugar in a large bowl)</text>
</g>
<!-- D1&#45;&gt;E1 -->
<g id="edge1" class="edge"><title>D1&#45;&gt;E1</title>
<path fill="none" stroke="black" d="M295.775,-453.955C321.979,-442.636 355.621,-428.105 381.728,-416.828"/>
<polygon fill="black" stroke="black" points="383.186,-420.011 390.978,-412.832 380.41,-413.584 383.186,-420.011"/>
</g>
<!-- P1_0 -->
<g id="node7" class="node"><title>P1_0</title>
<polygon fill="white" stroke="black" points="658,-491 526,-491 526,-455 658,-455 658,-491"/>
<text text-anchor="middle" x="592" y="-469.3" font-family="Times,serif" font-size="14.00">PREP: until smooth</text>
</g>
<!-- P1_0&#45;&gt;E1 -->
<g id="edge2" class="edge"><title>P1_0&#45;&gt;E1</title>
<path fill="none" stroke="black" d="M552.377,-454.885C525.962,-443.475 491.305,-428.505 464.51,-416.93"/>
<polygon fill="black" stroke="black" points="465.592,-413.585 455.024,-412.833 462.816,-420.011 465.592,-413.585"/>
</g>
<!-- D0 -->
<g id="node8" class="node"><title>D0</title>
<polygon fill="white" stroke="black" points="1121,-313 803,-313 803,-277 1121,-277 1121,-313"/>
<text text-anchor="middle" x="962" y="-291.3" font-family="Times,serif" font-size="14.00">DOBJ: oven to 350 degrees F &#45;LRB&#45; 175 degrees C</text>
</g>
<!-- D0&#45;&gt;E0 -->
<g id="edge3" class="edge"><title>D0&#45;&gt;E0</title>
<path fill="none" stroke="black" d="M958.168,-276.581C954.824,-261.382 949.915,-239.067 946.042,-221.464"/>
<polygon fill="black" stroke="black" points="949.355,-220.233 943.788,-211.219 942.519,-221.738 949.355,-220.233"/>
</g>
<!-- D2_ing -->
<g id="node9" class="node"><title>D2_ing</title>
<polygon fill="peachpuff" stroke="black" points="765.5,-417 496.5,-417 496.5,-379 765.5,-379 765.5,-417"/>
<text text-anchor="middle" x="631" y="-401.8" font-family="Times,serif" font-size="14.00">DOBJ: whole wheat flour, salt, baking soda</text>
<text text-anchor="middle" x="631" y="-386.8" font-family="Times,serif" font-size="14.00">(text: flour , &#160;baking soda , salt)</text>
</g>
<!-- D2_ing&#45;&gt;E2 -->
<g id="edge4" class="edge"><title>D2_ing&#45;&gt;E2</title>
<path fill="none" stroke="black" d="M627.81,-378.934C624.475,-364.536 617.993,-344.602 606,-331 599.827,-323.999 591.908,-318.168 583.714,-313.403"/>
<polygon fill="black" stroke="black" points="585.254,-310.258 574.783,-308.645 581.963,-316.436 585.254,-310.258"/>
</g>
<!-- P3_0_0 -->
<g id="node10" class="node"><title>P3_0_0</title>
<polygon fill="white" stroke="black" points="784.5,-313 611.5,-313 611.5,-277 784.5,-277 784.5,-313"/>
<text text-anchor="middle" x="698" y="-291.3" font-family="Times,serif" font-size="14.00">PREP: into 24 muffin cups</text>
</g>
<!-- P3_0_0&#45;&gt;E3 -->
<g id="edge7" class="edge"><title>P3_0_0&#45;&gt;E3</title>
<path fill="none" stroke="black" d="M698,-276.581C698,-261.382 698,-239.067 698,-221.464"/>
<polygon fill="black" stroke="black" points="701.5,-221.219 698,-211.219 694.5,-221.219 701.5,-221.219"/>
</g>
</g>
</svg>
