<?xml version="1.0" encoding="UTF-8" standalone="no"?>
<!DOCTYPE svg PUBLIC "-//W3C//DTD SVG 1.1//EN"
 "http://www.w3.org/Graphics/SVG/1.1/DTD/svg11.dtd">
<!-- Generated by graphviz version 2.38.0 (20140413.2041)
 -->
<!-- Title: recipe Pages: 1 -->
<svg width="1471pt" height="806pt"
 viewBox="0.00 0.00 1470.50 806.00" xmlns="http://www.w3.org/2000/svg" xmlns:xlink="http://www.w3.org/1999/xlink">
<g id="graph0" class="graph" transform="scale(1 1) rotate(0) translate(4 802)">
<title>recipe</title>
<polygon fill="white" stroke="none" points="-4,4 -4,-802 1466.5,-802 1466.5,4 -4,4"/>
<!-- E0 -->
<g id="node1" class="node"><title>E0</title>
<ellipse fill="azure" stroke="black" cx="1309.5" cy="-603" rx="60.3893" ry="18"/>
<text text-anchor="middle" x="1309.5" y="-599.3" font-family="Times,serif" font-size="14.00">place (S0,P0)</text>
</g>
<!-- E1 -->
<g id="node2" class="node"><title>E1</title>
<ellipse fill="azure" stroke="black" cx="1152.5" cy="-501" rx="61.99" ry="18"/>
<text text-anchor="middle" x="1152.5" y="-497.3" font-family="Times,serif" font-size="14.00">cover (S0,P1)</text>
</g>
<!-- E0&#45;&gt;E1 -->
<g id="edge5" class="edge"><title>E0&#45;&gt;E1</title>
<path fill="none" stroke="black" d="M1284.97,-586.375C1258.32,-569.399 1215.58,-542.178 1185.88,-523.263"/>
<polygon fill="black" stroke="black" points="1187.43,-520.1 1177.12,-517.68 1183.67,-526.004 1187.43,-520.1"/>
<text text-anchor="middle" x="1285.5" y="-555.8" font-family="Times,serif" font-size="14.00">OUTPUT: </text>
<text text-anchor="middle" x="1285.5" y="-540.8" font-family="Times,serif" font-size="14.00">INPUT: </text>
</g>
<!-- E5 -->
<g id="node6" class="node"><title>E5</title>
<ellipse fill="azure" stroke="black" cx="1037.5" cy="-399" rx="60.3893" ry="18"/>
<text text-anchor="middle" x="1037.5" y="-395.3" font-family="Times,serif" font-size="14.00">place (S3,P0)</text>
</g>
<!-- E1&#45;&gt;E5 -->
<g id="edge12" class="edge"><title>E1&#45;&gt;E5</title>
<path fill="none" stroke="black" d="M1148.42,-483.008C1144.15,-468.54 1136.13,-448.076 1122.5,-435 1113.77,-426.629 1102.76,-420.147 1091.59,-415.169"/>
<polygon fill="black" stroke="black" points="1092.79,-411.879 1082.21,-411.333 1090.14,-418.358 1092.79,-411.879"/>
<text text-anchor="middle" x="1218" y="-453.8" font-family="Times,serif" font-size="14.00">OUTPUT: </text>
<text text-anchor="middle" x="1218" y="-438.8" font-family="Times,serif" font-size="14.00">INPUT: the diced potatoes</text>
</g>
<!-- E2 -->
<g id="node3" class="node"><title>E2</title>
<ellipse fill="azure" stroke="black" cx="670.5" cy="-706" rx="66.0889" ry="18"/>
<text text-anchor="middle" x="670.5" y="-702.3" font-family="Times,serif" font-size="14.00">reduce (S1,P0)</text>
</g>
<!-- E3 -->
<g id="node4" class="node"><title>E3</title>
<ellipse fill="azure" stroke="black" cx="777.5" cy="-603" rx="69.5877" ry="18"/>
<text text-anchor="middle" x="777.5" y="-599.3" font-family="Times,serif" font-size="14.00">simmer (S1,P1)</text>
</g>
<!-- E2&#45;&gt;E3 -->
<g id="edge7" class="edge"><title>E2&#45;&gt;E3</title>
<path fill="none" stroke="black" d="M681.822,-688.024C691.758,-673.896 707.142,-653.776 723.5,-639 728.915,-634.109 735.081,-629.435 741.264,-625.187"/>
<polygon fill="black" stroke="black" points="743.207,-628.098 749.635,-619.676 739.358,-622.251 743.207,-628.098"/>
<text text-anchor="middle" x="755.5" y="-657.8" font-family="Times,serif" font-size="14.00">OUTPUT: </text>
<text text-anchor="middle" x="755.5" y="-642.8" font-family="Times,serif" font-size="14.00">INPUT: </text>
</g>
<!-- E4 -->
<g id="node5" class="node"><title>E4</title>
<ellipse fill="azure" stroke="black" cx="910.5" cy="-501" rx="100.983" ry="18"/>
<text text-anchor="middle" x="910.5" y="-497.3" font-family="Times,serif" font-size="14.00">drain and allow (S2,P0)</text>
</g>
<!-- E3&#45;&gt;E4 -->
<g id="edge9" class="edge"><title>E3&#45;&gt;E4</title>
<path fill="none" stroke="black" d="M778.443,-584.822C780.148,-570.235 784.822,-549.702 797.5,-537 806.001,-528.483 816.531,-522.031 827.714,-517.145"/>
<polygon fill="black" stroke="black" points="829.209,-520.318 837.232,-513.399 826.645,-513.805 829.209,-520.318"/>
<text text-anchor="middle" x="850.5" y="-555.8" font-family="Times,serif" font-size="14.00">OUTPUT: </text>
<text text-anchor="middle" x="850.5" y="-540.8" font-family="Times,serif" font-size="14.00">INPUT: &#160;then peel</text>
</g>
<!-- E4&#45;&gt;E5 -->
<g id="edge13" class="edge"><title>E4&#45;&gt;E5</title>
<path fill="none" stroke="black" d="M909.991,-482.926C910.49,-468.406 913.535,-447.912 925.5,-435 929.878,-430.276 957.264,-421.677 983.858,-414.185"/>
<polygon fill="black" stroke="black" points="984.878,-417.535 993.575,-411.485 983.003,-410.79 984.878,-417.535"/>
<text text-anchor="middle" x="1022" y="-453.8" font-family="Times,serif" font-size="14.00">OUTPUT: </text>
<text text-anchor="middle" x="1022" y="-438.8" font-family="Times,serif" font-size="14.00">INPUT: into a large mixing bowl</text>
</g>
<!-- E6 -->
<g id="node7" class="node"><title>E6</title>
<ellipse fill="azure" stroke="black" cx="944.5" cy="-296" rx="79.8859" ry="18"/>
<text text-anchor="middle" x="944.5" y="-292.3" font-family="Times,serif" font-size="14.00">refrigerate (S3,P1)</text>
</g>
<!-- E5&#45;&gt;E6 -->
<g id="edge14" class="edge"><title>E5&#45;&gt;E6</title>
<path fill="none" stroke="black" d="M1022.14,-381.322C1007.07,-364.947 983.903,-339.793 966.798,-321.217"/>
<polygon fill="black" stroke="black" points="969.228,-318.688 959.88,-313.703 964.079,-323.43 969.228,-318.688"/>
<text text-anchor="middle" x="1036.5" y="-351.8" font-family="Times,serif" font-size="14.00">OUTPUT: </text>
<text text-anchor="middle" x="1036.5" y="-336.8" font-family="Times,serif" font-size="14.00">INPUT: </text>
</g>
<!-- E7 -->
<g id="node8" class="node"><title>E7</title>
<ellipse fill="azure" stroke="black" cx="562.5" cy="-193" rx="56.59" ry="18"/>
<text text-anchor="middle" x="562.5" y="-189.3" font-family="Times,serif" font-size="14.00">fold (S4,P0)</text>
</g>
<!-- E6&#45;&gt;E7 -->
<g id="edge16" class="edge"><title>E6&#45;&gt;E7</title>
<path fill="none" stroke="black" d="M894.56,-281.796C822.031,-262.62 688.188,-227.232 614.512,-207.752"/>
<polygon fill="black" stroke="black" points="615.09,-204.285 604.528,-205.112 613.301,-211.052 615.09,-204.285"/>
<text text-anchor="middle" x="830.5" y="-247.8" font-family="Times,serif" font-size="14.00">OUTPUT: </text>
<text text-anchor="middle" x="830.5" y="-232.8" font-family="Times,serif" font-size="14.00">INPUT: </text>
</g>
<!-- E8 -->
<g id="node9" class="node"><title>E8</title>
<ellipse fill="azure" stroke="black" cx="460.5" cy="-91" rx="79.8859" ry="18"/>
<text text-anchor="middle" x="460.5" y="-87.3" font-family="Times,serif" font-size="14.00">refrigerate (S5,P0)</text>
</g>
<!-- E7&#45;&gt;E8 -->
<g id="edge18" class="edge"><title>E7&#45;&gt;E8</title>
<path fill="none" stroke="black" d="M545.657,-175.487C529.219,-159.372 504.02,-134.667 485.294,-116.308"/>
<polygon fill="black" stroke="black" points="487.3,-113.373 477.709,-108.872 482.4,-118.372 487.3,-113.373"/>
<text text-anchor="middle" x="574.5" y="-145.8" font-family="Times,serif" font-size="14.00">OUTPUT: </text>
<text text-anchor="middle" x="574.5" y="-130.8" font-family="Times,serif" font-size="14.00">INPUT: 2 hours</text>
</g>
<!-- EOR -->
<g id="node21" class="node"><title>EOR</title>
<ellipse fill="plum" stroke="black" cx="460.5" cy="-18" rx="57.3905" ry="18"/>
<text text-anchor="middle" x="460.5" y="-14.3" font-family="Times,serif" font-size="14.00">Bon appetit!</text>
</g>
<!-- E8&#45;&gt;EOR -->
<g id="edge20" class="edge"><title>E8&#45;&gt;EOR</title>
<path fill="none" stroke="black" d="M460.5,-72.8129C460.5,-64.7895 460.5,-55.0475 460.5,-46.0691"/>
<polygon fill="black" stroke="black" points="464,-46.0288 460.5,-36.0288 457,-46.0289 464,-46.0288"/>
</g>
<!-- D0 -->
<g id="node10" class="node"><title>D0</title>
<polygon fill="peachpuff" stroke="black" points="1298.5,-725 1158.5,-725 1158.5,-687 1298.5,-687 1298.5,-725"/>
<text text-anchor="middle" x="1228.5" y="-709.8" font-family="Times,serif" font-size="14.00">DOBJ: large potatoes</text>
<text text-anchor="middle" x="1228.5" y="-694.8" font-family="Times,serif" font-size="14.00">(text: potatoes)</text>
</g>
<!-- D0&#45;&gt;E0 -->
<g id="edge1" class="edge"><title>D0&#45;&gt;E0</title>
<path fill="none" stroke="black" d="M1242.98,-686.943C1256.08,-670.607 1275.48,-646.417 1289.96,-628.37"/>
<polygon fill="black" stroke="black" points="1292.69,-630.552 1296.22,-620.561 1287.23,-626.173 1292.69,-630.552"/>
</g>
<!-- P0_0 -->
<g id="node11" class="node"><title>P0_0</title>
<polygon fill="white" stroke="black" points="1462.5,-724 1316.5,-724 1316.5,-688 1462.5,-688 1462.5,-724"/>
<text text-anchor="middle" x="1389.5" y="-702.3" font-family="Times,serif" font-size="14.00">PREP: into a large pot</text>
</g>
<!-- P0_0&#45;&gt;E0 -->
<g id="edge2" class="edge"><title>P0_0&#45;&gt;E0</title>
<path fill="none" stroke="black" d="M1375.93,-687.867C1363.09,-671.663 1343.69,-647.164 1329.16,-628.822"/>
<polygon fill="black" stroke="black" points="1331.82,-626.546 1322.87,-620.88 1326.34,-630.892 1331.82,-626.546"/>
</g>
<!-- D2 -->
<g id="node12" class="node"><title>D2</title>
<polygon fill="white" stroke="black" points="645,-798 562,-798 562,-762 645,-762 645,-798"/>
<text text-anchor="middle" x="603.5" y="-776.3" font-family="Times,serif" font-size="14.00">DOBJ: heat</text>
</g>
<!-- D2&#45;&gt;E2 -->
<g id="edge3" class="edge"><title>D2&#45;&gt;E2</title>
<path fill="none" stroke="black" d="M619.378,-761.937C627.889,-752.791 638.521,-741.365 647.882,-731.306"/>
<polygon fill="black" stroke="black" points="650.486,-733.646 654.736,-723.941 645.361,-728.877 650.486,-733.646"/>
</g>
<!-- P2_0 -->
<g id="node13" class="node"><title>P2_0</title>
<polygon fill="white" stroke="black" points="812,-798 663,-798 663,-762 812,-762 812,-798"/>
<text text-anchor="middle" x="737.5" y="-776.3" font-family="Times,serif" font-size="14.00">PREP: to medium&#45;low</text>
</g>
<!-- P2_0&#45;&gt;E2 -->
<g id="edge4" class="edge"><title>P2_0&#45;&gt;E2</title>
<path fill="none" stroke="black" d="M721.622,-761.937C713.111,-752.791 702.479,-741.365 693.118,-731.306"/>
<polygon fill="black" stroke="black" points="695.639,-728.877 686.264,-723.941 690.514,-733.646 695.639,-728.877"/>
</g>
<!-- P1_0_0 -->
<g id="node14" class="node"><title>P1_0_0</title>
<polygon fill="white" stroke="black" points="1231.5,-621 1073.5,-621 1073.5,-585 1231.5,-585 1231.5,-621"/>
<text text-anchor="middle" x="1152.5" y="-599.3" font-family="Times,serif" font-size="14.00">PREP: with salted water</text>
</g>
<!-- P1_0_0&#45;&gt;E1 -->
<g id="edge6" class="edge"><title>P1_0_0&#45;&gt;E1</title>
<path fill="none" stroke="black" d="M1152.5,-584.581C1152.5,-569.382 1152.5,-547.067 1152.5,-529.464"/>
<polygon fill="black" stroke="black" points="1156,-529.219 1152.5,-519.219 1149,-529.219 1156,-529.219"/>
</g>
<!-- P3_0_0 -->
<g id="node15" class="node"><title>P3_0_0</title>
<polygon fill="white" stroke="black" points="880,-724 755,-724 755,-688 880,-688 880,-724"/>
<text text-anchor="middle" x="817.5" y="-702.3" font-family="Times,serif" font-size="14.00">PREP: until tender</text>
</g>
<!-- P3_0_0&#45;&gt;E3 -->
<g id="edge8" class="edge"><title>P3_0_0&#45;&gt;E3</title>
<path fill="none" stroke="black" d="M810.715,-687.867C804.508,-672.196 795.229,-648.766 788.055,-630.651"/>
<polygon fill="black" stroke="black" points="791.255,-629.226 784.319,-621.217 784.747,-631.804 791.255,-629.226"/>
</g>
<!-- D4_1 -->
<g id="node16" class="node"><title>D4_1</title>
<polygon fill="white" stroke="black" points="948,-621 865,-621 865,-585 948,-585 948,-621"/>
<text text-anchor="middle" x="906.5" y="-599.3" font-family="Times,serif" font-size="14.00">DOBJ: dice</text>
</g>
<!-- D4_1&#45;&gt;E4 -->
<g id="edge10" class="edge"><title>D4_1&#45;&gt;E4</title>
<path fill="none" stroke="black" d="M907.197,-584.581C907.805,-569.382 908.697,-547.067 909.401,-529.464"/>
<polygon fill="black" stroke="black" points="912.909,-529.351 909.811,-519.219 905.914,-529.071 912.909,-529.351"/>
</g>
<!-- D4_2 -->
<g id="node17" class="node"><title>D4_2</title>
<polygon fill="white" stroke="black" points="1055,-621 966,-621 966,-585 1055,-585 1055,-621"/>
<text text-anchor="middle" x="1010.5" y="-599.3" font-family="Times,serif" font-size="14.00">DOBJ: cool </text>
</g>
<!-- D4_2&#45;&gt;E4 -->
<g id="edge11" class="edge"><title>D4_2&#45;&gt;E4</title>
<path fill="none" stroke="black" d="M993.081,-584.581C976.923,-568.423 952.725,-544.225 934.694,-526.194"/>
<polygon fill="black" stroke="black" points="936.932,-523.482 927.386,-518.886 931.982,-528.432 936.932,-523.482"/>
</g>
<!-- P6_0_0 -->
<g id="node18" class="node"><title>P6_0_0</title>
<polygon fill="white" stroke="black" points="959.5,-417 845.5,-417 845.5,-381 959.5,-381 959.5,-417"/>
<text text-anchor="middle" x="902.5" y="-395.3" font-family="Times,serif" font-size="14.00">PREP: until cold</text>
</g>
<!-- P6_0_0&#45;&gt;E6 -->
<g id="edge15" class="edge"><title>P6_0_0&#45;&gt;E6</title>
<path fill="none" stroke="black" d="M909.625,-380.867C916.141,-365.196 925.884,-341.766 933.417,-323.651"/>
<polygon fill="black" stroke="black" points="936.732,-324.795 937.34,-314.217 930.269,-322.107 936.732,-324.795"/>
</g>
<!-- P7_0_ing -->
<g id="node19" class="node"><title>P7_0_ing</title>
<polygon fill="peachpuff" stroke="black" points="847,-315 0,-315 0,-277 847,-277 847,-315"/>
<text text-anchor="middle" x="423.5" y="-299.8" font-family="Times,serif" font-size="14.00">PREP: in mustard, stalk celery, hard&#45;cooked eggs, chopped pitted green olives, large dill pickles, whole rotisserie roast chicken, mayonnaise, salt</text>
<text text-anchor="middle" x="423.5" y="-284.8" font-family="Times,serif" font-size="14.00">(text: in &#160;salt , &#160;olives , &#160;eggs , &#160;celery , &#160;chicken , the mayonnaise , pickles, &#160;mustard )</text>
</g>
<!-- P7_0_ing&#45;&gt;E7 -->
<g id="edge17" class="edge"><title>P7_0_ing&#45;&gt;E7</title>
<path fill="none" stroke="black" d="M448.35,-276.943C471.923,-259.815 507.381,-234.051 532.514,-215.789"/>
<polygon fill="black" stroke="black" points="534.577,-218.616 540.609,-209.906 530.462,-212.953 534.577,-218.616"/>
</g>
<!-- P8_0_0 -->
<g id="node20" class="node"><title>P8_0_0</title>
<polygon fill="white" stroke="black" points="487.5,-211 345.5,-211 345.5,-175 487.5,-175 487.5,-211"/>
<text text-anchor="middle" x="416.5" y="-189.3" font-family="Times,serif" font-size="14.00">PREP: before serving</text>
</g>
<!-- P8_0_0&#45;&gt;E8 -->
<g id="edge19" class="edge"><title>P8_0_0&#45;&gt;E8</title>
<path fill="none" stroke="black" d="M424.164,-174.581C430.978,-159.095 441.042,-136.222 448.852,-118.473"/>
<polygon fill="black" stroke="black" points="452.1,-119.782 452.924,-109.219 445.693,-116.963 452.1,-119.782"/>
</g>
</g>
</svg>
