<?xml version="1.0" encoding="UTF-8" standalone="no"?>
<!DOCTYPE svg PUBLIC "-//W3C//DTD SVG 1.1//EN"
 "http://www.w3.org/Graphics/SVG/1.1/DTD/svg11.dtd">
<!-- Generated by graphviz version 2.38.0 (20140413.2041)
 -->
<!-- Title: recipe Pages: 1 -->
<svg width="2223pt" height="1322pt"
 viewBox="0.00 0.00 2222.50 1322.00" xmlns="http://www.w3.org/2000/svg" xmlns:xlink="http://www.w3.org/1999/xlink">
<g id="graph0" class="graph" transform="scale(1 1) rotate(0) translate(4 1318)">
<title>recipe</title>
<polygon fill="white" stroke="none" points="-4,4 -4,-1318 2218.5,-1318 2218.5,4 -4,4"/>
<!-- E0 -->
<g id="node1" class="node"><title>E0</title>
<ellipse fill="azure" stroke="black" cx="1972.5" cy="-499" rx="68.7879" ry="18"/>
<text text-anchor="middle" x="1972.5" y="-495.3" font-family="Times,serif" font-size="14.00">preheat (S0,P0)</text>
</g>
<!-- E14 -->
<g id="node15" class="node"><title>E14</title>
<ellipse fill="azure" stroke="black" cx="1883.5" cy="-397" rx="63.8893" ry="18"/>
<text text-anchor="middle" x="1883.5" y="-393.3" font-family="Times,serif" font-size="14.00">bake (S12,P1)</text>
</g>
<!-- E0&#45;&gt;E14 -->
<g id="edge28" class="edge"><title>E0&#45;&gt;E14</title>
<path fill="none" stroke="black" d="M1957.4,-481.036C1943.12,-464.993 1921.54,-440.737 1905.37,-422.577"/>
<polygon fill="black" stroke="black" points="1907.64,-419.856 1898.37,-414.713 1902.41,-424.51 1907.64,-419.856"/>
<text text-anchor="middle" x="2077.5" y="-451.8" font-family="Times,serif" font-size="14.00">OUTPUT: </text>
<text text-anchor="middle" x="2077.5" y="-436.8" font-family="Times,serif" font-size="14.00">INPUT: in preheated oven for 30 to 40 minutes</text>
</g>
<!-- E1 -->
<g id="node2" class="node"><title>E1</title>
<ellipse fill="azure" stroke="black" cx="1513.5" cy="-1014" rx="61.99" ry="18"/>
<text text-anchor="middle" x="1513.5" y="-1010.3" font-family="Times,serif" font-size="14.00">bring (S1,P0)</text>
</g>
<!-- E8 -->
<g id="node9" class="node"><title>E8</title>
<ellipse fill="azure" stroke="black" cx="1610.5" cy="-910" rx="69.5877" ry="18"/>
<text text-anchor="middle" x="1610.5" y="-906.3" font-family="Times,serif" font-size="14.00">simmer (S7,P0)</text>
</g>
<!-- E1&#45;&gt;E8 -->
<g id="edge13" class="edge"><title>E1&#45;&gt;E8</title>
<path fill="none" stroke="black" d="M1507.37,-995.95C1503.37,-981.586 1500.54,-961.17 1510.5,-947 1515.99,-939.187 1533.39,-931.806 1552.17,-925.786"/>
<polygon fill="black" stroke="black" points="1553.22,-929.126 1561.76,-922.855 1551.17,-922.432 1553.22,-929.126"/>
<text text-anchor="middle" x="1595.5" y="-965.8" font-family="Times,serif" font-size="14.00">OUTPUT: </text>
<text text-anchor="middle" x="1595.5" y="-950.8" font-family="Times,serif" font-size="14.00">INPUT: &#160;stirring occasionally</text>
</g>
<!-- E2 -->
<g id="node3" class="node"><title>E2</title>
<ellipse fill="azure" stroke="black" cx="1627.5" cy="-1220" rx="55.4913" ry="18"/>
<text text-anchor="middle" x="1627.5" y="-1216.3" font-family="Times,serif" font-size="14.00">add (S2,P0)</text>
</g>
<!-- E3 -->
<g id="node4" class="node"><title>E3</title>
<ellipse fill="azure" stroke="black" cx="1706.5" cy="-1117" rx="59.5901" ry="18"/>
<text text-anchor="middle" x="1706.5" y="-1113.3" font-family="Times,serif" font-size="14.00">cook (S2,P1)</text>
</g>
<!-- E2&#45;&gt;E3 -->
<g id="edge7" class="edge"><title>E2&#45;&gt;E3</title>
<path fill="none" stroke="black" d="M1640.55,-1202.32C1653.24,-1186.09 1672.68,-1161.24 1687.17,-1142.72"/>
<polygon fill="black" stroke="black" points="1690.03,-1144.74 1693.44,-1134.7 1684.52,-1140.42 1690.03,-1144.74"/>
<text text-anchor="middle" x="1710.5" y="-1171.8" font-family="Times,serif" font-size="14.00">OUTPUT: </text>
<text text-anchor="middle" x="1710.5" y="-1156.8" font-family="Times,serif" font-size="14.00">INPUT: </text>
</g>
<!-- E4 -->
<g id="node5" class="node"><title>E4</title>
<ellipse fill="azure" stroke="black" cx="1706.5" cy="-1014" rx="89.0842" ry="18"/>
<text text-anchor="middle" x="1706.5" y="-1010.3" font-family="Times,serif" font-size="14.00">drain and set (S3,P0)</text>
</g>
<!-- E3&#45;&gt;E4 -->
<g id="edge9" class="edge"><title>E3&#45;&gt;E4</title>
<path fill="none" stroke="black" d="M1706.5,-1098.87C1706.5,-1083.41 1706.5,-1060.42 1706.5,-1042.41"/>
<polygon fill="black" stroke="black" points="1710,-1042.22 1706.5,-1032.22 1703,-1042.22 1710,-1042.22"/>
<text text-anchor="middle" x="1738.5" y="-1069.8" font-family="Times,serif" font-size="14.00">OUTPUT: </text>
<text text-anchor="middle" x="1738.5" y="-1054.8" font-family="Times,serif" font-size="14.00">INPUT: </text>
</g>
<!-- E4&#45;&gt;E8 -->
<g id="edge14" class="edge"><title>E4&#45;&gt;E8</title>
<path fill="none" stroke="black" d="M1704.5,-995.719C1702.02,-981.211 1696.52,-960.713 1684.5,-947 1678.14,-939.745 1669.98,-933.812 1661.42,-929.009"/>
<polygon fill="black" stroke="black" points="1662.91,-925.839 1652.41,-924.405 1659.73,-932.072 1662.91,-925.839"/>
<text text-anchor="middle" x="1821.5" y="-965.8" font-family="Times,serif" font-size="14.00">OUTPUT: </text>
<text text-anchor="middle" x="1821.5" y="-950.8" font-family="Times,serif" font-size="14.00">INPUT: medium&#45;low heat for 30 minutes </text>
</g>
<!-- E5 -->
<g id="node6" class="node"><title>E5</title>
<ellipse fill="azure" stroke="black" cx="235.5" cy="-1117" rx="60.3893" ry="18"/>
<text text-anchor="middle" x="235.5" y="-1113.3" font-family="Times,serif" font-size="14.00">place (S4,P0)</text>
</g>
<!-- E6 -->
<g id="node7" class="node"><title>E6</title>
<ellipse fill="azure" stroke="black" cx="235.5" cy="-1014" rx="59.5901" ry="18"/>
<text text-anchor="middle" x="235.5" y="-1010.3" font-family="Times,serif" font-size="14.00">cook (S5,P0)</text>
</g>
<!-- E5&#45;&gt;E6 -->
<g id="edge10" class="edge"><title>E5&#45;&gt;E6</title>
<path fill="none" stroke="black" d="M235.5,-1098.87C235.5,-1083.41 235.5,-1060.42 235.5,-1042.41"/>
<polygon fill="black" stroke="black" points="239,-1042.22 235.5,-1032.22 232,-1042.22 239,-1042.22"/>
<text text-anchor="middle" x="312.5" y="-1069.8" font-family="Times,serif" font-size="14.00">OUTPUT: </text>
<text text-anchor="middle" x="312.5" y="-1054.8" font-family="Times,serif" font-size="14.00">INPUT: medium high heat</text>
</g>
<!-- E7 -->
<g id="node8" class="node"><title>E7</title>
<ellipse fill="azure" stroke="black" cx="651.5" cy="-910" rx="53.0913" ry="18"/>
<text text-anchor="middle" x="651.5" y="-906.3" font-family="Times,serif" font-size="14.00">stir (S6,P0)</text>
</g>
<!-- E6&#45;&gt;E7 -->
<g id="edge11" class="edge"><title>E6&#45;&gt;E7</title>
<path fill="none" stroke="black" d="M278.63,-1001.43C286.878,-999.262 295.449,-997.037 303.5,-995 408.093,-968.537 530.849,-939.339 599.045,-923.283"/>
<polygon fill="black" stroke="black" points="600.174,-926.613 609.107,-920.917 598.571,-919.799 600.174,-926.613"/>
<text text-anchor="middle" x="525.5" y="-965.8" font-family="Times,serif" font-size="14.00">OUTPUT: </text>
<text text-anchor="middle" x="525.5" y="-950.8" font-family="Times,serif" font-size="14.00">INPUT: </text>
</g>
<!-- E9 -->
<g id="node10" class="node"><title>E9</title>
<ellipse fill="azure" stroke="black" cx="1303.5" cy="-806" rx="73.387" ry="18"/>
<text text-anchor="middle" x="1303.5" y="-802.3" font-family="Times,serif" font-size="14.00">combine (S8,P0)</text>
</g>
<!-- E7&#45;&gt;E9 -->
<g id="edge16" class="edge"><title>E7&#45;&gt;E9</title>
<path fill="none" stroke="black" d="M689.334,-897.174C697.269,-894.931 705.621,-892.744 713.5,-891 895.154,-850.79 1112.72,-825.623 1226.12,-814.206"/>
<polygon fill="black" stroke="black" points="1226.49,-817.686 1236.1,-813.21 1225.8,-810.72 1226.49,-817.686"/>
<text text-anchor="middle" x="1024" y="-861.8" font-family="Times,serif" font-size="14.00">OUTPUT: </text>
<text text-anchor="middle" x="1024" y="-846.8" font-family="Times,serif" font-size="14.00">INPUT: &#160;salt</text>
</g>
<!-- E10 -->
<g id="node11" class="node"><title>E10</title>
<ellipse fill="azure" stroke="black" cx="1592.5" cy="-806" rx="60.3893" ry="18"/>
<text text-anchor="middle" x="1592.5" y="-802.3" font-family="Times,serif" font-size="14.00">place (S9,P0)</text>
</g>
<!-- E8&#45;&gt;E10 -->
<g id="edge19" class="edge"><title>E8&#45;&gt;E10</title>
<path fill="none" stroke="black" d="M1600.64,-891.965C1597.77,-886.142 1595,-879.463 1593.5,-873 1590.6,-860.522 1590.04,-846.358 1590.34,-834.358"/>
<polygon fill="black" stroke="black" points="1593.85,-834.205 1590.8,-824.058 1586.85,-833.891 1593.85,-834.205"/>
<text text-anchor="middle" x="1737.5" y="-861.8" font-family="Times,serif" font-size="14.00">OUTPUT: </text>
<text text-anchor="middle" x="1737.5" y="-846.8" font-family="Times,serif" font-size="14.00">INPUT: 2 layers of noodles on the bottom of dish</text>
</g>
<!-- E11 -->
<g id="node12" class="node"><title>E11</title>
<ellipse fill="azure" stroke="black" cx="1592.5" cy="-703" rx="64.9885" ry="18"/>
<text text-anchor="middle" x="1592.5" y="-699.3" font-family="Times,serif" font-size="14.00">layer (S10,P0)</text>
</g>
<!-- E9&#45;&gt;E11 -->
<g id="edge22" class="edge"><title>E9&#45;&gt;E11</title>
<path fill="none" stroke="black" d="M1316.25,-788.217C1328.97,-772.777 1349.97,-750.577 1373.5,-739 1418.21,-717.001 1473.69,-708.3 1517.62,-705.074"/>
<polygon fill="black" stroke="black" points="1517.91,-708.562 1527.66,-704.416 1517.45,-701.577 1517.91,-708.562"/>
<text text-anchor="middle" x="1481" y="-757.8" font-family="Times,serif" font-size="14.00">OUTPUT: </text>
<text text-anchor="middle" x="1481" y="-742.8" font-family="Times,serif" font-size="14.00">INPUT: &#160;1/2 of the mozzarella cheese</text>
</g>
<!-- E10&#45;&gt;E11 -->
<g id="edge23" class="edge"><title>E10&#45;&gt;E11</title>
<path fill="none" stroke="black" d="M1592.5,-787.867C1592.5,-772.414 1592.5,-749.416 1592.5,-731.409"/>
<polygon fill="black" stroke="black" points="1596,-731.217 1592.5,-721.217 1589,-731.217 1596,-731.217"/>
<text text-anchor="middle" x="1662.5" y="-757.8" font-family="Times,serif" font-size="14.00">OUTPUT: </text>
<text text-anchor="middle" x="1662.5" y="-742.8" font-family="Times,serif" font-size="14.00">INPUT: 1/2 of the sauce</text>
</g>
<!-- E12 -->
<g id="node13" class="node"><title>E12</title>
<ellipse fill="azure" stroke="black" cx="1592.5" cy="-601" rx="68.7879" ry="18"/>
<text text-anchor="middle" x="1592.5" y="-597.3" font-family="Times,serif" font-size="14.00">repeat (S11,P0)</text>
</g>
<!-- E11&#45;&gt;E12 -->
<g id="edge24" class="edge"><title>E11&#45;&gt;E12</title>
<path fill="none" stroke="black" d="M1592.5,-684.581C1592.5,-669.382 1592.5,-647.067 1592.5,-629.464"/>
<polygon fill="black" stroke="black" points="1596,-629.219 1592.5,-619.219 1589,-629.219 1596,-629.219"/>
<text text-anchor="middle" x="1634.5" y="-655.8" font-family="Times,serif" font-size="14.00">OUTPUT: </text>
<text text-anchor="middle" x="1634.5" y="-640.8" font-family="Times,serif" font-size="14.00">INPUT: layers</text>
</g>
<!-- E13 -->
<g id="node14" class="node"><title>E13</title>
<ellipse fill="azure" stroke="black" cx="1764.5" cy="-499" rx="66.8882" ry="18"/>
<text text-anchor="middle" x="1764.5" y="-495.3" font-family="Times,serif" font-size="14.00">cover (S12,P0)</text>
</g>
<!-- E12&#45;&gt;E13 -->
<g id="edge25" class="edge"><title>E12&#45;&gt;E13</title>
<path fill="none" stroke="black" d="M1616.95,-583.915C1637.8,-570.388 1668.74,-550.785 1696.5,-535 1705.5,-529.881 1715.33,-524.633 1724.65,-519.808"/>
<polygon fill="black" stroke="black" points="1726.44,-522.822 1733.75,-515.146 1723.25,-516.593 1726.44,-522.822"/>
<text text-anchor="middle" x="1728.5" y="-553.8" font-family="Times,serif" font-size="14.00">OUTPUT: </text>
<text text-anchor="middle" x="1728.5" y="-538.8" font-family="Times,serif" font-size="14.00">INPUT: </text>
</g>
<!-- E13&#45;&gt;E14 -->
<g id="edge27" class="edge"><title>E13&#45;&gt;E14</title>
<path fill="none" stroke="black" d="M1783.88,-481.711C1803.59,-465.149 1834.29,-439.351 1856.4,-420.771"/>
<polygon fill="black" stroke="black" points="1858.72,-423.395 1864.12,-414.282 1854.22,-418.036 1858.72,-423.395"/>
<text text-anchor="middle" x="1873.5" y="-451.8" font-family="Times,serif" font-size="14.00">OUTPUT: </text>
<text text-anchor="middle" x="1873.5" y="-436.8" font-family="Times,serif" font-size="14.00">INPUT: </text>
</g>
<!-- E15 -->
<g id="node16" class="node"><title>E15</title>
<ellipse fill="azure" stroke="black" cx="1692.5" cy="-295" rx="74.187" ry="18"/>
<text text-anchor="middle" x="1692.5" y="-291.3" font-family="Times,serif" font-size="14.00">remove (S13,P0)</text>
</g>
<!-- E14&#45;&gt;E15 -->
<g id="edge29" class="edge"><title>E14&#45;&gt;E15</title>
<path fill="none" stroke="black" d="M1854.49,-380.812C1821.59,-363.586 1767.78,-335.415 1731.29,-316.311"/>
<polygon fill="black" stroke="black" points="1732.9,-313.199 1722.41,-311.661 1729.65,-319.4 1732.9,-313.199"/>
<text text-anchor="middle" x="1850.5" y="-349.8" font-family="Times,serif" font-size="14.00">OUTPUT: </text>
<text text-anchor="middle" x="1850.5" y="-334.8" font-family="Times,serif" font-size="14.00">INPUT: foil</text>
</g>
<!-- E16 -->
<g id="node17" class="node"><title>E16</title>
<ellipse fill="azure" stroke="black" cx="1578.5" cy="-193" rx="55.4913" ry="18"/>
<text text-anchor="middle" x="1578.5" y="-189.3" font-family="Times,serif" font-size="14.00">let (S14,P0)</text>
</g>
<!-- E15&#45;&gt;E16 -->
<g id="edge32" class="edge"><title>E15&#45;&gt;E16</title>
<path fill="none" stroke="black" d="M1673.68,-277.487C1654.83,-260.959 1625.69,-235.397 1604.62,-216.911"/>
<polygon fill="black" stroke="black" points="1606.8,-214.169 1596.97,-210.206 1602.18,-219.431 1606.8,-214.169"/>
<text text-anchor="middle" x="1736" y="-247.8" font-family="Times,serif" font-size="14.00">OUTPUT: </text>
<text text-anchor="middle" x="1736" y="-232.8" font-family="Times,serif" font-size="14.00">INPUT: stand for 10 minutes</text>
</g>
<!-- E17 -->
<g id="node18" class="node"><title>E17</title>
<ellipse fill="azure" stroke="black" cx="1578.5" cy="-91" rx="65.7887" ry="18"/>
<text text-anchor="middle" x="1578.5" y="-87.3" font-family="Times,serif" font-size="14.00">serve (S15,P0)</text>
</g>
<!-- E16&#45;&gt;E17 -->
<g id="edge34" class="edge"><title>E16&#45;&gt;E17</title>
<path fill="none" stroke="black" d="M1578.5,-174.581C1578.5,-159.382 1578.5,-137.067 1578.5,-119.464"/>
<polygon fill="black" stroke="black" points="1582,-119.219 1578.5,-109.219 1575,-119.219 1582,-119.219"/>
<text text-anchor="middle" x="1610.5" y="-145.8" font-family="Times,serif" font-size="14.00">OUTPUT: </text>
<text text-anchor="middle" x="1610.5" y="-130.8" font-family="Times,serif" font-size="14.00">INPUT: </text>
</g>
<!-- EOR -->
<g id="node36" class="node"><title>EOR</title>
<ellipse fill="plum" stroke="black" cx="1578.5" cy="-18" rx="57.3905" ry="18"/>
<text text-anchor="middle" x="1578.5" y="-14.3" font-family="Times,serif" font-size="14.00">Bon appetit!</text>
</g>
<!-- E17&#45;&gt;EOR -->
<g id="edge35" class="edge"><title>E17&#45;&gt;EOR</title>
<path fill="none" stroke="black" d="M1578.5,-72.8129C1578.5,-64.7895 1578.5,-55.0475 1578.5,-46.0691"/>
<polygon fill="black" stroke="black" points="1582,-46.0288 1578.5,-36.0288 1575,-46.0289 1582,-46.0288"/>
</g>
<!-- D5 -->
<g id="node19" class="node"><title>D5</title>
<polygon fill="peachpuff" stroke="black" points="239,-1239 1.42109e-14,-1239 1.42109e-14,-1201 239,-1201 239,-1239"/>
<text text-anchor="middle" x="119.5" y="-1223.8" font-family="Times,serif" font-size="14.00">DOBJ: ground pork, lean ground beef</text>
<text text-anchor="middle" x="119.5" y="-1208.8" font-family="Times,serif" font-size="14.00">(text: pork and beef)</text>
</g>
<!-- D5&#45;&gt;E5 -->
<g id="edge1" class="edge"><title>D5&#45;&gt;E5</title>
<path fill="none" stroke="black" d="M140.238,-1200.94C159.539,-1184.14 188.385,-1159.02 209.276,-1140.83"/>
<polygon fill="black" stroke="black" points="211.613,-1143.44 216.857,-1134.23 207.016,-1138.16 211.613,-1143.44"/>
</g>
<!-- P5_0 -->
<g id="node20" class="node"><title>P5_0</title>
<polygon fill="white" stroke="black" points="445.5,-1238 257.5,-1238 257.5,-1202 445.5,-1202 445.5,-1238"/>
<text text-anchor="middle" x="351.5" y="-1216.3" font-family="Times,serif" font-size="14.00">PREP: in a large , deep skillet</text>
</g>
<!-- P5_0&#45;&gt;E5 -->
<g id="edge2" class="edge"><title>P5_0&#45;&gt;E5</title>
<path fill="none" stroke="black" d="M331.822,-1201.87C312.564,-1185.1 283.102,-1159.45 261.833,-1140.93"/>
<polygon fill="black" stroke="black" points="263.962,-1138.14 254.121,-1134.21 259.365,-1143.42 263.962,-1138.14"/>
</g>
<!-- D2 -->
<g id="node21" class="node"><title>D2</title>
<polygon fill="peachpuff" stroke="black" points="1761,-1314 1494,-1314 1494,-1276 1761,-1276 1761,-1314"/>
<text text-anchor="middle" x="1627.5" y="-1298.8" font-family="Times,serif" font-size="14.00">DOBJ: (16 ounce) package lasagna noodles</text>
<text text-anchor="middle" x="1627.5" y="-1283.8" font-family="Times,serif" font-size="14.00">(text: noodles)</text>
</g>
<!-- D2&#45;&gt;E2 -->
<g id="edge3" class="edge"><title>D2&#45;&gt;E2</title>
<path fill="none" stroke="black" d="M1627.5,-1275.96C1627.5,-1267.7 1627.5,-1257.74 1627.5,-1248.57"/>
<polygon fill="black" stroke="black" points="1631,-1248.33 1627.5,-1238.33 1624,-1248.33 1631,-1248.33"/>
</g>
<!-- D1 -->
<g id="node22" class="node"><title>D1</title>
<polygon fill="white" stroke="black" points="1472.5,-1135 1222.5,-1135 1222.5,-1099 1472.5,-1099 1472.5,-1135"/>
<text text-anchor="middle" x="1347.5" y="-1113.3" font-family="Times,serif" font-size="14.00">DOBJ: a large pot of lightly salted water</text>
</g>
<!-- D1&#45;&gt;E1 -->
<g id="edge4" class="edge"><title>D1&#45;&gt;E1</title>
<path fill="none" stroke="black" d="M1375.66,-1098.87C1404.28,-1081.45 1448.66,-1054.45 1479.29,-1035.81"/>
<polygon fill="black" stroke="black" points="1481.21,-1038.74 1487.93,-1030.56 1477.57,-1032.76 1481.21,-1038.74"/>
</g>
<!-- P1_0 -->
<g id="node23" class="node"><title>P1_0</title>
<polygon fill="white" stroke="black" points="1598,-1135 1491,-1135 1491,-1099 1598,-1099 1598,-1135"/>
<text text-anchor="middle" x="1544.5" y="-1113.3" font-family="Times,serif" font-size="14.00">PREP: to a boil</text>
</g>
<!-- P1_0&#45;&gt;E1 -->
<g id="edge5" class="edge"><title>P1_0&#45;&gt;E1</title>
<path fill="none" stroke="black" d="M1539.24,-1098.87C1534.45,-1083.27 1527.31,-1059.98 1521.76,-1041.9"/>
<polygon fill="black" stroke="black" points="1525.06,-1040.75 1518.78,-1032.22 1518.37,-1042.8 1525.06,-1040.75"/>
</g>
<!-- D0 -->
<g id="node24" class="node"><title>D0</title>
<polygon fill="white" stroke="black" points="2186.5,-619 1868.5,-619 1868.5,-583 2186.5,-583 2186.5,-619"/>
<text text-anchor="middle" x="2027.5" y="-597.3" font-family="Times,serif" font-size="14.00">DOBJ: oven to 375 degrees F &#45;LRB&#45; 190 degrees C</text>
</g>
<!-- D0&#45;&gt;E0 -->
<g id="edge6" class="edge"><title>D0&#45;&gt;E0</title>
<path fill="none" stroke="black" d="M2017.92,-582.581C2009.27,-566.856 1996.43,-543.516 1986.61,-525.656"/>
<polygon fill="black" stroke="black" points="1989.67,-523.961 1981.79,-516.886 1983.54,-527.335 1989.67,-523.961"/>
</g>
<!-- P3_0_0 -->
<g id="node25" class="node"><title>P3_0_0</title>
<polygon fill="white" stroke="black" points="1870.5,-1238 1700.5,-1238 1700.5,-1202 1870.5,-1202 1870.5,-1238"/>
<text text-anchor="middle" x="1785.5" y="-1216.3" font-family="Times,serif" font-size="14.00">PREP: for 8 to 10 minutes</text>
</g>
<!-- P3_0_0&#45;&gt;E3 -->
<g id="edge8" class="edge"><title>P3_0_0&#45;&gt;E3</title>
<path fill="none" stroke="black" d="M1777.25,-1201.76C1770.15,-1187.85 1759.08,-1168.16 1746.5,-1153 1742.96,-1148.74 1738.89,-1144.55 1734.72,-1140.64"/>
<polygon fill="black" stroke="black" points="1737,-1137.99 1727.21,-1133.94 1732.34,-1143.21 1737,-1137.99"/>
</g>
<!-- P7_0_ing -->
<g id="node26" class="node"><title>P7_0_ing</title>
<polygon fill="peachpuff" stroke="black" points="1286,-1033 313,-1033 313,-995 1286,-995 1286,-1033"/>
<text text-anchor="middle" x="799.5" y="-1017.8" font-family="Times,serif" font-size="14.00">PREP: in dried basil, white sugar, (28 ounce) can crushed tomatoes, clove garlic, dried oregano, salt, minced onion, (8 ounce) can tomato sauce, chopped fresh parsley</text>
<text text-anchor="middle" x="799.5" y="-1002.8" font-family="Times,serif" font-size="14.00">(text: in &#160;oregano , &#160;parsley , tomato sauce , &#160;basil, &#160;sugar , &#160;onion , salt, &#160;garlic , &#160;crushed tomatoes )</text>
</g>
<!-- P7_0_ing&#45;&gt;E7 -->
<g id="edge12" class="edge"><title>P7_0_ing&#45;&gt;E7</title>
<path fill="none" stroke="black" d="M773.381,-994.999C747.922,-977.453 709.212,-950.774 682.272,-932.208"/>
<polygon fill="black" stroke="black" points="684.191,-929.279 673.97,-926.486 680.218,-935.043 684.191,-929.279"/>
</g>
<!-- D9_ing -->
<g id="node27" class="node"><title>D9_ing</title>
<polygon fill="peachpuff" stroke="black" points="1230.5,-929 722.5,-929 722.5,-891 1230.5,-891 1230.5,-929"/>
<text text-anchor="middle" x="976.5" y="-913.8" font-family="Times,serif" font-size="14.00">DOBJ: eggs, small curd cottage cheese, ground black pepper, grated Parmesan cheese</text>
<text text-anchor="middle" x="976.5" y="-898.8" font-family="Times,serif" font-size="14.00">(text: cottage cheese , &#160;eggs , &#160;Parmesan cheese , pepper)</text>
</g>
<!-- D9_ing&#45;&gt;E9 -->
<g id="edge15" class="edge"><title>D9_ing&#45;&gt;E9</title>
<path fill="none" stroke="black" d="M1034.21,-890.999C1095.34,-871.929 1191.06,-842.072 1250.39,-823.566"/>
<polygon fill="black" stroke="black" points="1251.45,-826.903 1259.95,-820.584 1249.36,-820.221 1251.45,-826.903"/>
</g>
<!-- D9_1 -->
<g id="node28" class="node"><title>D9_1</title>
<polygon fill="white" stroke="black" points="1358,-928 1249,-928 1249,-892 1358,-892 1358,-928"/>
<text text-anchor="middle" x="1303.5" y="-906.3" font-family="Times,serif" font-size="14.00">DOBJ: &#160;parsley </text>
</g>
<!-- D9_1&#45;&gt;E9 -->
<g id="edge17" class="edge"><title>D9_1&#45;&gt;E9</title>
<path fill="none" stroke="black" d="M1303.5,-891.697C1303.5,-875.923 1303.5,-852.364 1303.5,-834.094"/>
<polygon fill="black" stroke="black" points="1307,-834.047 1303.5,-824.047 1300,-834.047 1307,-834.047"/>
</g>
<!-- P9_0_0 -->
<g id="node29" class="node"><title>P9_0_0</title>
<polygon fill="white" stroke="black" points="1522.5,-928 1376.5,-928 1376.5,-892 1522.5,-892 1522.5,-928"/>
<text text-anchor="middle" x="1449.5" y="-906.3" font-family="Times,serif" font-size="14.00">PREP: in a large bowl</text>
</g>
<!-- P9_0_0&#45;&gt;E9 -->
<g id="edge18" class="edge"><title>P9_0_0&#45;&gt;E9</title>
<path fill="none" stroke="black" d="M1425.06,-891.927C1400.3,-874.631 1361.91,-847.805 1334.9,-828.94"/>
<polygon fill="black" stroke="black" points="1336.77,-825.975 1326.57,-823.117 1332.76,-831.714 1336.77,-825.975"/>
</g>
<!-- P10_0_0 -->
<g id="node30" class="node"><title>P10_0_0</title>
<polygon fill="white" stroke="black" points="1967,-928 1824,-928 1824,-892 1967,-892 1967,-928"/>
<text text-anchor="middle" x="1895.5" y="-906.3" font-family="Times,serif" font-size="14.00">PREP: in a 9x13 inch</text>
</g>
<!-- P10_0_0&#45;&gt;E10 -->
<g id="edge20" class="edge"><title>P10_0_0&#45;&gt;E10</title>
<path fill="none" stroke="black" d="M1897.05,-891.888C1897.39,-876.66 1895.13,-854.995 1881.5,-843 1863.09,-826.796 1685.68,-829.111 1661.5,-825 1655.79,-824.03 1649.87,-822.813 1643.99,-821.473"/>
<polygon fill="black" stroke="black" points="1644.75,-818.055 1634.21,-819.122 1643.12,-824.861 1644.75,-818.055"/>
</g>
<!-- D11_ing -->
<g id="node31" class="node"><title>D11_ing</title>
<polygon fill="peachpuff" stroke="black" points="1888.5,-825 1670.5,-825 1670.5,-787 1888.5,-787 1888.5,-825"/>
<text text-anchor="middle" x="1779.5" y="-809.8" font-family="Times,serif" font-size="14.00">DOBJ: shredded mozzarella cheese</text>
<text text-anchor="middle" x="1779.5" y="-794.8" font-family="Times,serif" font-size="14.00">(text: 1/2 of the cheese mixture )</text>
</g>
<!-- D11_ing&#45;&gt;E11 -->
<g id="edge21" class="edge"><title>D11_ing&#45;&gt;E11</title>
<path fill="none" stroke="black" d="M1772.24,-786.819C1765.29,-771.748 1753.36,-750.929 1736.5,-739 1715.46,-724.108 1688.83,-715.512 1664.21,-710.564"/>
<polygon fill="black" stroke="black" points="1664.64,-707.084 1654.17,-708.72 1663.37,-713.969 1664.64,-707.084"/>
</g>
<!-- P13_0_0 -->
<g id="node32" class="node"><title>P13_0_0</title>
<polygon fill="white" stroke="black" points="1850,-619 1679,-619 1679,-583 1850,-583 1850,-619"/>
<text text-anchor="middle" x="1764.5" y="-597.3" font-family="Times,serif" font-size="14.00">PREP: with aluminum foil</text>
</g>
<!-- P13_0_0&#45;&gt;E13 -->
<g id="edge26" class="edge"><title>P13_0_0&#45;&gt;E13</title>
<path fill="none" stroke="black" d="M1764.5,-582.581C1764.5,-567.382 1764.5,-545.067 1764.5,-527.464"/>
<polygon fill="black" stroke="black" points="1768,-527.219 1764.5,-517.219 1761,-527.219 1768,-527.219"/>
</g>
<!-- D15_1 -->
<g id="node33" class="node"><title>D15_1</title>
<polygon fill="white" stroke="black" points="1565,-415 1478,-415 1478,-379 1565,-379 1565,-415"/>
<text text-anchor="middle" x="1521.5" y="-393.3" font-family="Times,serif" font-size="14.00">DOBJ: bake</text>
</g>
<!-- D15_1&#45;&gt;E15 -->
<g id="edge30" class="edge"><title>D15_1&#45;&gt;E15</title>
<path fill="none" stroke="black" d="M1550.9,-378.809C1580.19,-361.681 1625.2,-335.356 1656.59,-317"/>
<polygon fill="black" stroke="black" points="1658.59,-319.883 1665.46,-311.814 1655.06,-313.841 1658.59,-319.883"/>
</g>
<!-- P15_0_0 -->
<g id="node34" class="node"><title>P15_0_0</title>
<polygon fill="white" stroke="black" points="1801.5,-415 1583.5,-415 1583.5,-379 1801.5,-379 1801.5,-415"/>
<text text-anchor="middle" x="1692.5" y="-393.3" font-family="Times,serif" font-size="14.00">PREP: for another 5 to 10 minutes</text>
</g>
<!-- P15_0_0&#45;&gt;E15 -->
<g id="edge31" class="edge"><title>P15_0_0&#45;&gt;E15</title>
<path fill="none" stroke="black" d="M1692.5,-378.581C1692.5,-363.382 1692.5,-341.067 1692.5,-323.464"/>
<polygon fill="black" stroke="black" points="1696,-323.219 1692.5,-313.219 1689,-323.219 1696,-323.219"/>
</g>
<!-- P16_0_0 -->
<g id="node35" class="node"><title>P16_0_0</title>
<polygon fill="white" stroke="black" points="1600.5,-313 1460.5,-313 1460.5,-277 1600.5,-277 1600.5,-313"/>
<text text-anchor="middle" x="1530.5" y="-291.3" font-family="Times,serif" font-size="14.00">PREP: before cutting</text>
</g>
<!-- P16_0_0&#45;&gt;E16 -->
<g id="edge33" class="edge"><title>P16_0_0&#45;&gt;E16</title>
<path fill="none" stroke="black" d="M1538.86,-276.581C1546.34,-261 1557.41,-237.943 1565.95,-220.149"/>
<polygon fill="black" stroke="black" points="1569.22,-221.416 1570.39,-210.886 1562.91,-218.387 1569.22,-221.416"/>
</g>
</g>
</svg>
