<?xml version="1.0" encoding="UTF-8" standalone="no"?>
<!DOCTYPE svg PUBLIC "-//W3C//DTD SVG 1.1//EN"
 "http://www.w3.org/Graphics/SVG/1.1/DTD/svg11.dtd">
<!-- Generated by graphviz version 2.38.0 (20140413.2041)
 -->
<!-- Title: recipe Pages: 1 -->
<svg width="1291pt" height="808pt"
 viewBox="0.00 0.00 1291.00 808.00" xmlns="http://www.w3.org/2000/svg" xmlns:xlink="http://www.w3.org/1999/xlink">
<g id="graph0" class="graph" transform="scale(1 1) rotate(0) translate(4 804)">
<title>recipe</title>
<polygon fill="white" stroke="none" points="-4,4 -4,-804 1287,-804 1287,4 -4,4"/>
<!-- E0 -->
<g id="node1" class="node"><title>E0</title>
<ellipse fill="azure" stroke="black" cx="1135" cy="-709" rx="56.59" ry="18"/>
<text text-anchor="middle" x="1135" y="-705.3" font-family="Times,serif" font-size="14.00">heat (S0,P0)</text>
</g>
<!-- E1 -->
<g id="node2" class="node"><title>E1</title>
<ellipse fill="azure" stroke="black" cx="1135" cy="-606" rx="69.5877" ry="18"/>
<text text-anchor="middle" x="1135" y="-602.3" font-family="Times,serif" font-size="14.00">prepare (S1,P0)</text>
</g>
<!-- E0&#45;&gt;E1 -->
<g id="edge3" class="edge"><title>E0&#45;&gt;E1</title>
<path fill="none" stroke="black" d="M1135,-690.867C1135,-675.414 1135,-652.416 1135,-634.409"/>
<polygon fill="black" stroke="black" points="1138.5,-634.217 1135,-624.217 1131.5,-634.217 1138.5,-634.217"/>
<text text-anchor="middle" x="1180.5" y="-661.8" font-family="Times,serif" font-size="14.00">OUTPUT: </text>
<text text-anchor="middle" x="1180.5" y="-646.8" font-family="Times,serif" font-size="14.00">INPUT: Dinner</text>
</g>
<!-- E2 -->
<g id="node3" class="node"><title>E2</title>
<ellipse fill="azure" stroke="black" cx="888" cy="-503" rx="53.0913" ry="18"/>
<text text-anchor="middle" x="888" y="-499.3" font-family="Times,serif" font-size="14.00">stir (S2,P0)</text>
</g>
<!-- E1&#45;&gt;E2 -->
<g id="edge5" class="edge"><title>E1&#45;&gt;E2</title>
<path fill="none" stroke="black" d="M1099.35,-590.422C1054.48,-572.074 977.53,-540.61 929.898,-521.132"/>
<polygon fill="black" stroke="black" points="931.072,-517.831 920.491,-517.286 928.422,-524.31 931.072,-517.831"/>
<text text-anchor="middle" x="1094.5" y="-557.8" font-family="Times,serif" font-size="14.00">OUTPUT: </text>
<text text-anchor="middle" x="1094.5" y="-542.8" font-family="Times,serif" font-size="14.00">INPUT: in 1/4 cup</text>
</g>
<!-- E3 -->
<g id="node4" class="node"><title>E3</title>
<ellipse fill="azure" stroke="black" cx="782" cy="-400" rx="64.189" ry="18"/>
<text text-anchor="middle" x="782" y="-396.3" font-family="Times,serif" font-size="14.00">spoon (S3,P0)</text>
</g>
<!-- E2&#45;&gt;E3 -->
<g id="edge6" class="edge"><title>E2&#45;&gt;E3</title>
<path fill="none" stroke="black" d="M870.969,-485.773C853.61,-469.232 826.503,-443.404 806.769,-424.601"/>
<polygon fill="black" stroke="black" points="808.995,-421.887 799.341,-417.523 804.166,-426.955 808.995,-421.887"/>
<text text-anchor="middle" x="882" y="-455.8" font-family="Times,serif" font-size="14.00">OUTPUT: </text>
<text text-anchor="middle" x="882" y="-440.8" font-family="Times,serif" font-size="14.00">INPUT: </text>
</g>
<!-- E4 -->
<g id="node5" class="node"><title>E4</title>
<ellipse fill="azure" stroke="black" cx="576" cy="-297" rx="53.8905" ry="18"/>
<text text-anchor="middle" x="576" y="-293.3" font-family="Times,serif" font-size="14.00">top (S4,P0)</text>
</g>
<!-- E3&#45;&gt;E4 -->
<g id="edge8" class="edge"><title>E3&#45;&gt;E4</title>
<path fill="none" stroke="black" d="M751.604,-384.097C715.132,-366.215 653.95,-336.218 614.287,-316.772"/>
<polygon fill="black" stroke="black" points="615.707,-313.57 605.187,-312.31 612.625,-319.855 615.707,-313.57"/>
<text text-anchor="middle" x="735" y="-351.8" font-family="Times,serif" font-size="14.00">OUTPUT: </text>
<text text-anchor="middle" x="735" y="-336.8" font-family="Times,serif" font-size="14.00">INPUT: </text>
</g>
<!-- E5 -->
<g id="node6" class="node"><title>E5</title>
<ellipse fill="azure" stroke="black" cx="477" cy="-194" rx="73.387" ry="18"/>
<text text-anchor="middle" x="477" y="-190.3" font-family="Times,serif" font-size="14.00">bake Let (S5,P0)</text>
</g>
<!-- E4&#45;&gt;E5 -->
<g id="edge11" class="edge"><title>E4&#45;&gt;E5</title>
<path fill="none" stroke="black" d="M560.094,-279.773C544.12,-263.476 519.309,-238.164 500.954,-219.437"/>
<polygon fill="black" stroke="black" points="503.026,-216.552 493.527,-211.861 498.027,-221.452 503.026,-216.552"/>
<text text-anchor="middle" x="581" y="-249.8" font-family="Times,serif" font-size="14.00">OUTPUT: </text>
<text text-anchor="middle" x="581" y="-234.8" font-family="Times,serif" font-size="14.00">INPUT: stand</text>
</g>
<!-- E6 -->
<g id="node7" class="node"><title>E6</title>
<ellipse fill="azure" stroke="black" cx="358" cy="-91" rx="60.3893" ry="18"/>
<text text-anchor="middle" x="358" y="-87.3" font-family="Times,serif" font-size="14.00">serve (S6,P0)</text>
</g>
<!-- E5&#45;&gt;E6 -->
<g id="edge13" class="edge"><title>E5&#45;&gt;E6</title>
<path fill="none" stroke="black" d="M457.616,-176.548C437.79,-159.721 406.842,-133.454 384.703,-114.664"/>
<polygon fill="black" stroke="black" points="386.871,-111.914 376.982,-108.111 382.342,-117.25 386.871,-111.914"/>
<text text-anchor="middle" x="463" y="-145.8" font-family="Times,serif" font-size="14.00">OUTPUT: </text>
<text text-anchor="middle" x="463" y="-130.8" font-family="Times,serif" font-size="14.00">INPUT: </text>
</g>
<!-- EOR -->
<g id="node16" class="node"><title>EOR</title>
<ellipse fill="plum" stroke="black" cx="358" cy="-18" rx="57.3905" ry="18"/>
<text text-anchor="middle" x="358" y="-14.3" font-family="Times,serif" font-size="14.00">Bon appetit!</text>
</g>
<!-- E6&#45;&gt;EOR -->
<g id="edge15" class="edge"><title>E6&#45;&gt;EOR</title>
<path fill="none" stroke="black" d="M358,-72.8129C358,-64.7895 358,-55.0475 358,-46.0691"/>
<polygon fill="black" stroke="black" points="361.5,-46.0288 358,-36.0288 354.5,-46.0289 361.5,-46.0288"/>
</g>
<!-- D0 -->
<g id="node8" class="node"><title>D0</title>
<polygon fill="white" stroke="black" points="1109,-800 1021,-800 1021,-764 1109,-764 1109,-800"/>
<text text-anchor="middle" x="1065" y="-778.3" font-family="Times,serif" font-size="14.00">DOBJ: oven</text>
</g>
<!-- D0&#45;&gt;E0 -->
<g id="edge1" class="edge"><title>D0&#45;&gt;E0</title>
<path fill="none" stroke="black" d="M1081.95,-763.813C1090.84,-754.787 1101.89,-743.585 1111.59,-733.743"/>
<polygon fill="black" stroke="black" points="1114.16,-736.118 1118.69,-726.54 1109.18,-731.204 1114.16,-736.118"/>
</g>
<!-- P0_0 -->
<g id="node9" class="node"><title>P0_0</title>
<polygon fill="white" stroke="black" points="1283,-800 1127,-800 1127,-764 1283,-764 1283,-800"/>
<text text-anchor="middle" x="1205" y="-778.3" font-family="Times,serif" font-size="14.00">PREP: to 375 degrees f.</text>
</g>
<!-- P0_0&#45;&gt;E0 -->
<g id="edge2" class="edge"><title>P0_0&#45;&gt;E0</title>
<path fill="none" stroke="black" d="M1188.05,-763.813C1179.16,-754.787 1168.11,-743.585 1158.41,-733.743"/>
<polygon fill="black" stroke="black" points="1160.82,-731.204 1151.31,-726.54 1155.84,-736.118 1160.82,-731.204"/>
</g>
<!-- D2_ing -->
<g id="node10" class="node"><title>D2_ing</title>
<polygon fill="peachpuff" stroke="black" points="1047.5,-625 542.5,-625 542.5,-587 1047.5,-587 1047.5,-625"/>
<text text-anchor="middle" x="795" y="-609.8" font-family="Times,serif" font-size="14.00">DOBJ: KRAFT Mozza&#45;Cheddar Shredded Cheese, light sour cream, cayenne pepper</text>
<text text-anchor="middle" x="795" y="-594.8" font-family="Times,serif" font-size="14.00">(text: shredded cheese , &#160;sour cream, pepper)</text>
</g>
<!-- D2_ing&#45;&gt;E2 -->
<g id="edge4" class="edge"><title>D2_ing&#45;&gt;E2</title>
<path fill="none" stroke="black" d="M811.627,-586.943C826.669,-570.607 848.943,-546.417 865.56,-528.37"/>
<polygon fill="black" stroke="black" points="868.551,-530.289 872.75,-520.561 863.402,-525.547 868.551,-530.289"/>
</g>
<!-- P3_0_0 -->
<g id="node11" class="node"><title>P3_0_0</title>
<polygon fill="white" stroke="black" points="817,-521 653,-521 653,-485 817,-485 817,-521"/>
<text text-anchor="middle" x="735" y="-499.3" font-family="Times,serif" font-size="14.00">PREP: into greased 1&#45;1/2</text>
</g>
<!-- P3_0_0&#45;&gt;E3 -->
<g id="edge7" class="edge"><title>P3_0_0&#45;&gt;E3</title>
<path fill="none" stroke="black" d="M742.973,-484.867C750.343,-469.028 761.402,-445.263 769.868,-427.071"/>
<polygon fill="black" stroke="black" points="773.099,-428.423 774.145,-417.88 766.753,-425.47 773.099,-428.423"/>
</g>
<!-- P4_0_ing -->
<g id="node12" class="node"><title>P4_0_ing</title>
<polygon fill="peachpuff" stroke="black" points="434,-419 0,-419 0,-381 434,-381 434,-419"/>
<text text-anchor="middle" x="217" y="-403.8" font-family="Times,serif" font-size="14.00">PREP: with 30% Less Fat RITZ Crackers, non&#45;hydrogenated margarine</text>
<text text-anchor="middle" x="217" y="-388.8" font-family="Times,serif" font-size="14.00">(text: with margarine, &#160;then combined cracker crumbs)</text>
</g>
<!-- P4_0_ing&#45;&gt;E4 -->
<g id="edge9" class="edge"><title>P4_0_ing&#45;&gt;E4</title>
<path fill="none" stroke="black" d="M281.182,-380.943C351.441,-361.177 462.575,-329.911 526.436,-311.944"/>
<polygon fill="black" stroke="black" points="527.587,-315.256 536.266,-309.179 525.691,-308.518 527.587,-315.256"/>
</g>
<!-- P4_0_0 -->
<g id="node13" class="node"><title>P4_0_0</title>
<polygon fill="white" stroke="black" points="700,-418 452,-418 452,-382 700,-382 700,-418"/>
<text text-anchor="middle" x="576" y="-396.3" font-family="Times,serif" font-size="14.00">PREP: with remaining shredded cheese </text>
</g>
<!-- P4_0_0&#45;&gt;E4 -->
<g id="edge10" class="edge"><title>P4_0_0&#45;&gt;E4</title>
<path fill="none" stroke="black" d="M576,-381.867C576,-366.414 576,-343.416 576,-325.409"/>
<polygon fill="black" stroke="black" points="579.5,-325.217 576,-315.217 572.5,-325.217 579.5,-325.217"/>
</g>
<!-- P5_0_0 -->
<g id="node14" class="node"><title>P5_0_0</title>
<polygon fill="white" stroke="black" points="504,-315 362,-315 362,-279 504,-279 504,-315"/>
<text text-anchor="middle" x="433" y="-293.3" font-family="Times,serif" font-size="14.00">PREP: before serving</text>
</g>
<!-- P5_0_0&#45;&gt;E5 -->
<g id="edge12" class="edge"><title>P5_0_0&#45;&gt;E5</title>
<path fill="none" stroke="black" d="M440.464,-278.867C447.291,-263.196 457.498,-239.766 465.389,-221.651"/>
<polygon fill="black" stroke="black" points="468.714,-222.783 469.499,-212.217 462.297,-219.987 468.714,-222.783"/>
</g>
<!-- P6_0_ing -->
<g id="node15" class="node"><title>P6_0_ing</title>
<polygon fill="peachpuff" stroke="black" points="385.5,-213 230.5,-213 230.5,-175 385.5,-175 385.5,-213"/>
<text text-anchor="middle" x="308" y="-197.8" font-family="Times,serif" font-size="14.00">PREP: with frozen peas</text>
<text text-anchor="middle" x="308" y="-182.8" font-family="Times,serif" font-size="14.00">(text: with peas)</text>
</g>
<!-- P6_0_ing&#45;&gt;E6 -->
<g id="edge14" class="edge"><title>P6_0_ing&#45;&gt;E6</title>
<path fill="none" stroke="black" d="M316.939,-174.943C324.76,-159.145 336.218,-135.999 345.044,-118.17"/>
<polygon fill="black" stroke="black" points="348.337,-119.407 349.637,-108.893 342.064,-116.302 348.337,-119.407"/>
</g>
</g>
</svg>
