<?xml version="1.0" encoding="UTF-8" standalone="no"?>
<!DOCTYPE svg PUBLIC "-//W3C//DTD SVG 1.1//EN"
 "http://www.w3.org/Graphics/SVG/1.1/DTD/svg11.dtd">
<!-- Generated by graphviz version 2.38.0 (20140413.2041)
 -->
<!-- Title: recipe Pages: 1 -->
<svg width="1226pt" height="704pt"
 viewBox="0.00 0.00 1226.00 704.00" xmlns="http://www.w3.org/2000/svg" xmlns:xlink="http://www.w3.org/1999/xlink">
<g id="graph0" class="graph" transform="scale(1 1) rotate(0) translate(4 700)">
<title>recipe</title>
<polygon fill="white" stroke="none" points="-4,4 -4,-700 1222,-700 1222,4 -4,4"/>
<!-- E0 -->
<g id="node1" class="node"><title>E0</title>
<ellipse fill="azure" stroke="black" cx="1059" cy="-604" rx="68.7879" ry="18"/>
<text text-anchor="middle" x="1059" y="-600.3" font-family="Times,serif" font-size="14.00">preheat (S0,P0)</text>
</g>
<!-- E1 -->
<g id="node2" class="node"><title>E1</title>
<ellipse fill="azure" stroke="black" cx="676" cy="-501" rx="73.387" ry="18"/>
<text text-anchor="middle" x="676" y="-497.3" font-family="Times,serif" font-size="14.00">combine (S1,P0)</text>
</g>
<!-- E0&#45;&gt;E1 -->
<g id="edge3" class="edge"><title>E0&#45;&gt;E1</title>
<path fill="none" stroke="black" d="M1012.42,-590.716C942.4,-572.252 810.13,-537.371 733.968,-517.287"/>
<polygon fill="black" stroke="black" points="734.622,-513.839 724.06,-514.674 732.837,-520.608 734.622,-513.839"/>
<text text-anchor="middle" x="972.5" y="-555.8" font-family="Times,serif" font-size="14.00">OUTPUT: </text>
<text text-anchor="middle" x="972.5" y="-540.8" font-family="Times,serif" font-size="14.00">INPUT: the chicken </text>
</g>
<!-- E2 -->
<g id="node3" class="node"><title>E2</title>
<ellipse fill="azure" stroke="black" cx="676" cy="-399" rx="55.7903" ry="18"/>
<text text-anchor="middle" x="676" y="-395.3" font-family="Times,serif" font-size="14.00">mix (S2,P0)</text>
</g>
<!-- E1&#45;&gt;E2 -->
<g id="edge4" class="edge"><title>E1&#45;&gt;E2</title>
<path fill="none" stroke="black" d="M676,-482.581C676,-467.382 676,-445.067 676,-427.464"/>
<polygon fill="black" stroke="black" points="679.5,-427.219 676,-417.219 672.5,-427.219 679.5,-427.219"/>
<text text-anchor="middle" x="708" y="-453.8" font-family="Times,serif" font-size="14.00">OUTPUT: </text>
<text text-anchor="middle" x="708" y="-438.8" font-family="Times,serif" font-size="14.00">INPUT: </text>
</g>
<!-- E3 -->
<g id="node4" class="node"><title>E3</title>
<ellipse fill="azure" stroke="black" cx="537" cy="-296" rx="59.5901" ry="18"/>
<text text-anchor="middle" x="537" y="-292.3" font-family="Times,serif" font-size="14.00">pour (S2,P1)</text>
</g>
<!-- E2&#45;&gt;E3 -->
<g id="edge5" class="edge"><title>E2&#45;&gt;E3</title>
<path fill="none" stroke="black" d="M654.281,-382.219C630.856,-365.197 593.393,-337.977 567.127,-318.891"/>
<polygon fill="black" stroke="black" points="569.172,-316.051 559.025,-313.004 565.057,-321.714 569.172,-316.051"/>
<text text-anchor="middle" x="659" y="-351.8" font-family="Times,serif" font-size="14.00">OUTPUT: </text>
<text text-anchor="middle" x="659" y="-336.8" font-family="Times,serif" font-size="14.00">INPUT: </text>
</g>
<!-- E4 -->
<g id="node5" class="node"><title>E4</title>
<ellipse fill="azure" stroke="black" cx="358" cy="-193" rx="53.8905" ry="18"/>
<text text-anchor="middle" x="358" y="-189.3" font-family="Times,serif" font-size="14.00">top (S3,P0)</text>
</g>
<!-- E3&#45;&gt;E4 -->
<g id="edge7" class="edge"><title>E3&#45;&gt;E4</title>
<path fill="none" stroke="black" d="M510.202,-279.879C479.046,-262.3 427.517,-233.225 393.167,-213.843"/>
<polygon fill="black" stroke="black" points="394.826,-210.76 384.397,-208.894 391.386,-216.857 394.826,-210.76"/>
<text text-anchor="middle" x="500" y="-247.8" font-family="Times,serif" font-size="14.00">OUTPUT: </text>
<text text-anchor="middle" x="500" y="-232.8" font-family="Times,serif" font-size="14.00">INPUT: </text>
</g>
<!-- E5 -->
<g id="node6" class="node"><title>E5</title>
<ellipse fill="azure" stroke="black" cx="205" cy="-91" rx="59.2899" ry="18"/>
<text text-anchor="middle" x="205" y="-87.3" font-family="Times,serif" font-size="14.00">bake (S4,P0)</text>
</g>
<!-- E4&#45;&gt;E5 -->
<g id="edge9" class="edge"><title>E4&#45;&gt;E5</title>
<path fill="none" stroke="black" d="M334.429,-176.594C308.449,-159.614 266.494,-132.192 237.425,-113.193"/>
<polygon fill="black" stroke="black" points="239.135,-110.129 228.85,-107.588 235.306,-115.989 239.135,-110.129"/>
<text text-anchor="middle" x="336" y="-145.8" font-family="Times,serif" font-size="14.00">OUTPUT: </text>
<text text-anchor="middle" x="336" y="-130.8" font-family="Times,serif" font-size="14.00">INPUT: </text>
</g>
<!-- EOR -->
<g id="node12" class="node"><title>EOR</title>
<ellipse fill="plum" stroke="black" cx="205" cy="-18" rx="57.3905" ry="18"/>
<text text-anchor="middle" x="205" y="-14.3" font-family="Times,serif" font-size="14.00">Bon appetit!</text>
</g>
<!-- E5&#45;&gt;EOR -->
<g id="edge11" class="edge"><title>E5&#45;&gt;EOR</title>
<path fill="none" stroke="black" d="M205,-72.8129C205,-64.7895 205,-55.0475 205,-46.0691"/>
<polygon fill="black" stroke="black" points="208.5,-46.0288 205,-36.0288 201.5,-46.0289 208.5,-46.0288"/>
</g>
<!-- D0 -->
<g id="node7" class="node"><title>D0</title>
<polygon fill="white" stroke="black" points="1218,-696 900,-696 900,-660 1218,-660 1218,-696"/>
<text text-anchor="middle" x="1059" y="-674.3" font-family="Times,serif" font-size="14.00">DOBJ: oven to 350 degrees F &#45;LRB&#45; 175 degrees C</text>
</g>
<!-- D0&#45;&gt;E0 -->
<g id="edge1" class="edge"><title>D0&#45;&gt;E0</title>
<path fill="none" stroke="black" d="M1059,-659.937C1059,-651.807 1059,-641.876 1059,-632.705"/>
<polygon fill="black" stroke="black" points="1062.5,-632.441 1059,-622.441 1055.5,-632.441 1062.5,-632.441"/>
</g>
<!-- D1_ing -->
<g id="node8" class="node"><title>D1_ing</title>
<polygon fill="peachpuff" stroke="black" points="972.5,-623 103.5,-623 103.5,-585 972.5,-585 972.5,-623"/>
<text text-anchor="middle" x="538" y="-607.8" font-family="Times,serif" font-size="14.00">DOBJ: chopped celery, chopped pimento peppers, chopped salted almonds, mayonnaise, chopped green bell pepper, lemon juice, minced onion, salt</text>
<text text-anchor="middle" x="538" y="-592.8" font-family="Times,serif" font-size="14.00">(text: &#160;salt , &#160;almonds , &#160;bell pepper , &#160;celery , &#160;onion , mayonnaise, &#160;lemon juice , &#160;pimento )</text>
</g>
<!-- D1_ing&#45;&gt;E1 -->
<g id="edge2" class="edge"><title>D1_ing&#45;&gt;E1</title>
<path fill="none" stroke="black" d="M562.672,-584.943C585.835,-567.991 620.555,-542.579 645.457,-524.354"/>
<polygon fill="black" stroke="black" points="647.818,-526.963 653.821,-518.233 643.684,-521.314 647.818,-526.963"/>
</g>
<!-- P3_0_0 -->
<g id="node9" class="node"><title>P3_0_0</title>
<polygon fill="white" stroke="black" points="602.5,-417 355.5,-417 355.5,-381 602.5,-381 602.5,-417"/>
<text text-anchor="middle" x="479" y="-395.3" font-family="Times,serif" font-size="14.00">PREP: into a 1Ê1/2 quart casserole dish</text>
</g>
<!-- P3_0_0&#45;&gt;E3 -->
<g id="edge6" class="edge"><title>P3_0_0&#45;&gt;E3</title>
<path fill="none" stroke="black" d="M488.839,-380.867C498.018,-364.882 511.833,-340.825 522.317,-322.569"/>
<polygon fill="black" stroke="black" points="525.362,-324.295 527.306,-313.88 519.291,-320.809 525.362,-324.295"/>
</g>
<!-- P4_0_ing -->
<g id="node10" class="node"><title>P4_0_ing</title>
<polygon fill="peachpuff" stroke="black" points="459.5,-315 114.5,-315 114.5,-277 459.5,-277 459.5,-315"/>
<text text-anchor="middle" x="287" y="-299.8" font-family="Times,serif" font-size="14.00">PREP: with crushed potato chips, shredded Swiss cheese</text>
<text text-anchor="middle" x="287" y="-284.8" font-family="Times,serif" font-size="14.00">(text: with the crushed potato chips, grated cheese)</text>
</g>
<!-- P4_0_ing&#45;&gt;E4 -->
<g id="edge8" class="edge"><title>P4_0_ing&#45;&gt;E4</title>
<path fill="none" stroke="black" d="M299.693,-276.943C311.005,-260.852 327.674,-237.14 340.295,-219.185"/>
<polygon fill="black" stroke="black" points="343.237,-221.086 346.125,-210.893 337.511,-217.061 343.237,-221.086"/>
</g>
<!-- P5_0_0 -->
<g id="node11" class="node"><title>P5_0_0</title>
<polygon fill="white" stroke="black" points="286,-211 0,-211 0,-175 286,-175 286,-211"/>
<text text-anchor="middle" x="143" y="-189.3" font-family="Times,serif" font-size="14.00">PREP: for 25 minutes or until cheese is melted</text>
</g>
<!-- P5_0_0&#45;&gt;E5 -->
<g id="edge10" class="edge"><title>P5_0_0&#45;&gt;E5</title>
<path fill="none" stroke="black" d="M153.8,-174.581C163.549,-158.856 178.02,-135.516 189.093,-117.656"/>
<polygon fill="black" stroke="black" points="192.236,-119.229 194.531,-108.886 186.287,-115.541 192.236,-119.229"/>
</g>
</g>
</svg>
