<?xml version="1.0" encoding="UTF-8" standalone="no"?>
<!DOCTYPE svg PUBLIC "-//W3C//DTD SVG 1.1//EN"
 "http://www.w3.org/Graphics/SVG/1.1/DTD/svg11.dtd">
<!-- Generated by graphviz version 2.38.0 (20140413.2041)
 -->
<!-- Title: recipe Pages: 1 -->
<svg width="1367pt" height="704pt"
 viewBox="0.00 0.00 1367.00 704.00" xmlns="http://www.w3.org/2000/svg" xmlns:xlink="http://www.w3.org/1999/xlink">
<g id="graph0" class="graph" transform="scale(1 1) rotate(0) translate(4 700)">
<title>recipe</title>
<polygon fill="white" stroke="none" points="-4,4 -4,-700 1363,-700 1363,4 -4,4"/>
<!-- E0 -->
<g id="node1" class="node"><title>E0</title>
<ellipse fill="azure" stroke="black" cx="1143" cy="-193" rx="68.7879" ry="18"/>
<text text-anchor="middle" x="1143" y="-189.3" font-family="Times,serif" font-size="14.00">preheat (S0,P0)</text>
</g>
<!-- E7 -->
<g id="node8" class="node"><title>E7</title>
<ellipse fill="azure" stroke="black" cx="919" cy="-91" rx="59.2899" ry="18"/>
<text text-anchor="middle" x="919" y="-87.3" font-family="Times,serif" font-size="14.00">bake (S6,P0)</text>
</g>
<!-- E0&#45;&gt;E7 -->
<g id="edge14" class="edge"><title>E0&#45;&gt;E7</title>
<path fill="none" stroke="black" d="M1141.94,-174.949C1140.07,-160.03 1134.94,-138.931 1121,-127 1101.14,-110.001 1037.58,-100.987 986.992,-96.3908"/>
<polygon fill="black" stroke="black" points="987.005,-92.879 976.74,-95.5026 986.401,-99.8528 987.005,-92.879"/>
<text text-anchor="middle" x="1249" y="-145.8" font-family="Times,serif" font-size="14.00">OUTPUT: </text>
<text text-anchor="middle" x="1249" y="-130.8" font-family="Times,serif" font-size="14.00">INPUT: 1 hour in the preheated oven </text>
</g>
<!-- E1 -->
<g id="node2" class="node"><title>E1</title>
<ellipse fill="azure" stroke="black" cx="452" cy="-397" rx="64.9885" ry="18"/>
<text text-anchor="middle" x="452" y="-393.3" font-family="Times,serif" font-size="14.00">grease (S1,P0)</text>
</g>
<!-- E5 -->
<g id="node6" class="node"><title>E5</title>
<ellipse fill="azure" stroke="black" cx="568" cy="-295" rx="60.3893" ry="18"/>
<text text-anchor="middle" x="568" y="-291.3" font-family="Times,serif" font-size="14.00">place (S4,P1)</text>
</g>
<!-- E1&#45;&gt;E5 -->
<g id="edge10" class="edge"><title>E1&#45;&gt;E5</title>
<path fill="none" stroke="black" d="M445.742,-379.058C441.661,-364.818 438.781,-344.658 449,-331 460.865,-315.142 479.564,-306.161 498.654,-301.163"/>
<polygon fill="black" stroke="black" points="499.662,-304.523 508.639,-298.896 498.112,-297.697 499.662,-304.523"/>
<text text-anchor="middle" x="553.5" y="-349.8" font-family="Times,serif" font-size="14.00">OUTPUT: </text>
<text text-anchor="middle" x="553.5" y="-334.8" font-family="Times,serif" font-size="14.00">INPUT: on the prepared baking pan</text>
</g>
<!-- E2 -->
<g id="node3" class="node"><title>E2</title>
<ellipse fill="azure" stroke="black" cx="224" cy="-602" rx="60.3893" ry="18"/>
<text text-anchor="middle" x="224" y="-598.3" font-family="Times,serif" font-size="14.00">place (S2,P0)</text>
</g>
<!-- E3 -->
<g id="node4" class="node"><title>E3</title>
<ellipse fill="azure" stroke="black" cx="621" cy="-499" rx="55.7903" ry="18"/>
<text text-anchor="middle" x="621" y="-495.3" font-family="Times,serif" font-size="14.00">mix (S3,P0)</text>
</g>
<!-- E2&#45;&gt;E3 -->
<g id="edge4" class="edge"><title>E2&#45;&gt;E3</title>
<path fill="none" stroke="black" d="M267.789,-589.525C276.156,-587.347 284.846,-585.095 293,-583 390.069,-558.058 503.448,-529.493 568.277,-513.215"/>
<polygon fill="black" stroke="black" points="569.408,-516.54 578.255,-510.71 567.703,-509.75 569.408,-516.54"/>
<text text-anchor="middle" x="512" y="-553.8" font-family="Times,serif" font-size="14.00">OUTPUT: </text>
<text text-anchor="middle" x="512" y="-538.8" font-family="Times,serif" font-size="14.00">INPUT: </text>
</g>
<!-- E4 -->
<g id="node5" class="node"><title>E4</title>
<ellipse fill="azure" stroke="black" cx="684" cy="-397" rx="59.5901" ry="18"/>
<text text-anchor="middle" x="684" y="-393.3" font-family="Times,serif" font-size="14.00">form (S4,P0)</text>
</g>
<!-- E3&#45;&gt;E4 -->
<g id="edge7" class="edge"><title>E3&#45;&gt;E4</title>
<path fill="none" stroke="black" d="M631.687,-481.036C641.552,-465.377 656.347,-441.893 667.689,-423.891"/>
<polygon fill="black" stroke="black" points="670.891,-425.373 673.26,-415.047 664.969,-421.642 670.891,-425.373"/>
<text text-anchor="middle" x="694" y="-451.8" font-family="Times,serif" font-size="14.00">OUTPUT: </text>
<text text-anchor="middle" x="694" y="-436.8" font-family="Times,serif" font-size="14.00">INPUT: </text>
</g>
<!-- E4&#45;&gt;E5 -->
<g id="edge9" class="edge"><title>E4&#45;&gt;E5</title>
<path fill="none" stroke="black" d="M682.301,-378.968C680.002,-364.474 674.611,-343.996 662,-331 652.53,-321.24 640.09,-314.178 627.373,-309.076"/>
<polygon fill="black" stroke="black" points="628.234,-305.665 617.64,-305.544 625.846,-312.245 628.234,-305.665"/>
<text text-anchor="middle" x="710" y="-349.8" font-family="Times,serif" font-size="14.00">OUTPUT: </text>
<text text-anchor="middle" x="710" y="-334.8" font-family="Times,serif" font-size="14.00">INPUT: </text>
</g>
<!-- E6 -->
<g id="node7" class="node"><title>E6</title>
<ellipse fill="azure" stroke="black" cx="695" cy="-193" rx="66.0889" ry="18"/>
<text text-anchor="middle" x="695" y="-189.3" font-family="Times,serif" font-size="14.00">drizzle (S5,P0)</text>
</g>
<!-- E5&#45;&gt;E6 -->
<g id="edge11" class="edge"><title>E5&#45;&gt;E6</title>
<path fill="none" stroke="black" d="M588.405,-277.933C609.479,-261.339 642.545,-235.303 666.26,-216.63"/>
<polygon fill="black" stroke="black" points="668.532,-219.295 674.224,-210.359 664.202,-213.796 668.532,-219.295"/>
<text text-anchor="middle" x="683" y="-247.8" font-family="Times,serif" font-size="14.00">OUTPUT: </text>
<text text-anchor="middle" x="683" y="-232.8" font-family="Times,serif" font-size="14.00">INPUT: </text>
</g>
<!-- E6&#45;&gt;E7 -->
<g id="edge13" class="edge"><title>E6&#45;&gt;E7</title>
<path fill="none" stroke="black" d="M689.791,-174.946C686.507,-160.437 684.75,-139.951 696,-127 715.729,-104.289 792.003,-96.2301 849.901,-93.4175"/>
<polygon fill="black" stroke="black" points="850.28,-96.9043 860.115,-92.9656 849.97,-89.9111 850.28,-96.9043"/>
<text text-anchor="middle" x="908.5" y="-145.8" font-family="Times,serif" font-size="14.00">OUTPUT: </text>
<text text-anchor="middle" x="908.5" y="-130.8" font-family="Times,serif" font-size="14.00">INPUT: &#160;to an internal temperature of 160 degrees F &#45;LRB&#45; 70 degrees C</text>
</g>
<!-- EOR -->
<g id="node16" class="node"><title>EOR</title>
<ellipse fill="plum" stroke="black" cx="919" cy="-18" rx="57.3905" ry="18"/>
<text text-anchor="middle" x="919" y="-14.3" font-family="Times,serif" font-size="14.00">Bon appetit!</text>
</g>
<!-- E7&#45;&gt;EOR -->
<g id="edge15" class="edge"><title>E7&#45;&gt;EOR</title>
<path fill="none" stroke="black" d="M919,-72.8129C919,-64.7895 919,-55.0475 919,-46.0691"/>
<polygon fill="black" stroke="black" points="922.5,-46.0288 919,-36.0288 915.5,-46.0289 922.5,-46.0288"/>
</g>
<!-- D1 -->
<g id="node9" class="node"><title>D1</title>
<polygon fill="white" stroke="black" points="519,-517 385,-517 385,-481 519,-481 519,-517"/>
<text text-anchor="middle" x="452" y="-495.3" font-family="Times,serif" font-size="14.00">DOBJ: a baking pan</text>
</g>
<!-- D1&#45;&gt;E1 -->
<g id="edge1" class="edge"><title>D1&#45;&gt;E1</title>
<path fill="none" stroke="black" d="M452,-480.581C452,-465.382 452,-443.067 452,-425.464"/>
<polygon fill="black" stroke="black" points="455.5,-425.219 452,-415.219 448.5,-425.219 455.5,-425.219"/>
</g>
<!-- D0 -->
<g id="node10" class="node"><title>D0</title>
<polygon fill="white" stroke="black" points="1302,-313 984,-313 984,-277 1302,-277 1302,-313"/>
<text text-anchor="middle" x="1143" y="-291.3" font-family="Times,serif" font-size="14.00">DOBJ: oven to 350 degrees F &#45;LRB&#45; 175 degrees C</text>
</g>
<!-- D0&#45;&gt;E0 -->
<g id="edge2" class="edge"><title>D0&#45;&gt;E0</title>
<path fill="none" stroke="black" d="M1143,-276.581C1143,-261.382 1143,-239.067 1143,-221.464"/>
<polygon fill="black" stroke="black" points="1146.5,-221.219 1143,-211.219 1139.5,-221.219 1146.5,-221.219"/>
</g>
<!-- D2 -->
<g id="node11" class="node"><title>D2</title>
<polygon fill="peachpuff" stroke="black" points="448,-696 2.84217e-14,-696 2.84217e-14,-658 448,-658 448,-696"/>
<text text-anchor="middle" x="224" y="-680.8" font-family="Times,serif" font-size="14.00">DOBJ: eggs, ground beef, ketchup, panko bread crumbs</text>
<text text-anchor="middle" x="224" y="-665.8" font-family="Times,serif" font-size="14.00">(text: the ground beef , eggs , panko , and 1/2 cup ketchup in a large bowl)</text>
</g>
<!-- D2&#45;&gt;E2 -->
<g id="edge3" class="edge"><title>D2&#45;&gt;E2</title>
<path fill="none" stroke="black" d="M224,-657.955C224,-649.701 224,-639.738 224,-630.574"/>
<polygon fill="black" stroke="black" points="227.5,-630.335 224,-620.335 220.5,-630.335 227.5,-630.335"/>
</g>
<!-- P3_0_ing -->
<g id="node12" class="node"><title>P3_0_ing</title>
<polygon fill="peachpuff" stroke="black" points="939.5,-621 302.5,-621 302.5,-583 939.5,-583 939.5,-621"/>
<text text-anchor="middle" x="621" y="-605.8" font-family="Times,serif" font-size="14.00">PREP: by salt to taste, ground black pepper to taste, salt&#45;free seasoning blend, garlic powder, onion powder</text>
<text text-anchor="middle" x="621" y="-590.8" font-family="Times,serif" font-size="14.00">(text: by &#160;salt , season with salt&#45;free seasoning blend , pepper, &#160;garlic powder , &#160;onion powder )</text>
</g>
<!-- P3_0_ing&#45;&gt;E3 -->
<g id="edge5" class="edge"><title>P3_0_ing&#45;&gt;E3</title>
<path fill="none" stroke="black" d="M621,-582.943C621,-567.531 621,-545.127 621,-527.488"/>
<polygon fill="black" stroke="black" points="624.5,-527.226 621,-517.226 617.5,-527.226 624.5,-527.226"/>
</g>
<!-- P3_0_0 -->
<g id="node13" class="node"><title>P3_0_0</title>
<polygon fill="white" stroke="black" points="1068,-620 958,-620 958,-584 1068,-584 1068,-620"/>
<text text-anchor="middle" x="1013" y="-598.3" font-family="Times,serif" font-size="14.00">PREP: by hand </text>
</g>
<!-- P3_0_0&#45;&gt;E3 -->
<g id="edge6" class="edge"><title>P3_0_0&#45;&gt;E3</title>
<path fill="none" stroke="black" d="M957.706,-585.59C954.424,-584.705 951.17,-583.837 948,-583 831.476,-552.25 801.684,-547.137 685,-517 680.93,-515.949 676.717,-514.851 672.485,-513.742"/>
<polygon fill="black" stroke="black" points="673.196,-510.31 662.635,-511.148 671.414,-517.079 673.196,-510.31"/>
</g>
<!-- P4_0_0 -->
<g id="node14" class="node"><title>P4_0_0</title>
<polygon fill="white" stroke="black" points="847.5,-517 694.5,-517 694.5,-481 847.5,-481 847.5,-517"/>
<text text-anchor="middle" x="771" y="-495.3" font-family="Times,serif" font-size="14.00">PREP: into a loaf shape</text>
</g>
<!-- P4_0_0&#45;&gt;E4 -->
<g id="edge8" class="edge"><title>P4_0_0&#45;&gt;E4</title>
<path fill="none" stroke="black" d="M762.387,-480.83C754.957,-467.011 743.337,-447.561 730,-433 725.73,-428.338 720.776,-423.851 715.732,-419.735"/>
<polygon fill="black" stroke="black" points="717.868,-416.962 707.82,-413.601 713.579,-422.494 717.868,-416.962"/>
</g>
<!-- P6_0_0 -->
<g id="node15" class="node"><title>P6_0_0</title>
<polygon fill="white" stroke="black" points="891.5,-313 646.5,-313 646.5,-277 891.5,-277 891.5,-313"/>
<text text-anchor="middle" x="769" y="-291.3" font-family="Times,serif" font-size="14.00">PREP: with remaining 1/4 cup ketchup</text>
</g>
<!-- P6_0_0&#45;&gt;E6 -->
<g id="edge12" class="edge"><title>P6_0_0&#45;&gt;E6</title>
<path fill="none" stroke="black" d="M756.11,-276.581C744.367,-260.712 726.884,-237.087 713.623,-219.166"/>
<polygon fill="black" stroke="black" points="716.257,-216.842 707.496,-210.886 710.631,-221.006 716.257,-216.842"/>
</g>
</g>
</svg>
