<?xml version="1.0" encoding="UTF-8" standalone="no"?>
<!DOCTYPE svg PUBLIC "-//W3C//DTD SVG 1.1//EN"
 "http://www.w3.org/Graphics/SVG/1.1/DTD/svg11.dtd">
<!-- Generated by graphviz version 2.38.0 (20140413.2041)
 -->
<!-- Title: recipe Pages: 1 -->
<svg width="1574pt" height="908pt"
 viewBox="0.00 0.00 1573.50 908.00" xmlns="http://www.w3.org/2000/svg" xmlns:xlink="http://www.w3.org/1999/xlink">
<g id="graph0" class="graph" transform="scale(1 1) rotate(0) translate(4 904)">
<title>recipe</title>
<polygon fill="white" stroke="none" points="-4,4 -4,-904 1569.5,-904 1569.5,4 -4,4"/>
<!-- E0 -->
<g id="node1" class="node"><title>E0</title>
<ellipse fill="azure" stroke="black" cx="1368.5" cy="-295" rx="68.7879" ry="18"/>
<text text-anchor="middle" x="1368.5" y="-291.3" font-family="Times,serif" font-size="14.00">preheat (S0,P0)</text>
</g>
<!-- E9 -->
<g id="node10" class="node"><title>E9</title>
<ellipse fill="azure" stroke="black" cx="1284.5" cy="-193" rx="80.6858" ry="18"/>
<text text-anchor="middle" x="1284.5" y="-189.3" font-family="Times,serif" font-size="14.00">uncovered (S7,P1)</text>
</g>
<!-- E0&#45;&gt;E9 -->
<g id="edge20" class="edge"><title>E0&#45;&gt;E9</title>
<path fill="none" stroke="black" d="M1354.25,-277.036C1340.86,-261.09 1320.64,-237.029 1305.42,-218.905"/>
<polygon fill="black" stroke="black" points="1307.93,-216.453 1298.82,-211.047 1302.57,-220.955 1307.93,-216.453"/>
<text text-anchor="middle" x="1452.5" y="-247.8" font-family="Times,serif" font-size="14.00">OUTPUT: </text>
<text text-anchor="middle" x="1452.5" y="-232.8" font-family="Times,serif" font-size="14.00">INPUT: in a preheated oven for 1 hour</text>
</g>
<!-- E1 -->
<g id="node2" class="node"><title>E1</title>
<ellipse fill="azure" stroke="black" cx="366.5" cy="-705" rx="66.8882" ry="18"/>
<text text-anchor="middle" x="366.5" y="-701.3" font-family="Times,serif" font-size="14.00">brown (S1,P0)</text>
</g>
<!-- E4 -->
<g id="node5" class="node"><title>E4</title>
<ellipse fill="azure" stroke="black" cx="779.5" cy="-602" rx="65.7887" ry="18"/>
<text text-anchor="middle" x="779.5" y="-598.3" font-family="Times,serif" font-size="14.00">spread (S4,P0)</text>
</g>
<!-- E1&#45;&gt;E4 -->
<g id="edge10" class="edge"><title>E1&#45;&gt;E4</title>
<path fill="none" stroke="black" d="M414.28,-692.315C490.716,-673.623 640.213,-637.063 722.247,-617.001"/>
<polygon fill="black" stroke="black" points="723.267,-620.355 732.15,-614.58 721.604,-613.555 723.267,-620.355"/>
<text text-anchor="middle" x="659.5" y="-657.8" font-family="Times,serif" font-size="14.00">OUTPUT: </text>
<text text-anchor="middle" x="659.5" y="-642.8" font-family="Times,serif" font-size="14.00">INPUT: beef</text>
</g>
<!-- E2 -->
<g id="node3" class="node"><title>E2</title>
<ellipse fill="azure" stroke="black" cx="628.5" cy="-808" rx="61.1893" ry="18"/>
<text text-anchor="middle" x="628.5" y="-804.3" font-family="Times,serif" font-size="14.00">drain (S2,P0)</text>
</g>
<!-- E3 -->
<g id="node4" class="node"><title>E3</title>
<ellipse fill="azure" stroke="black" cx="779.5" cy="-705" rx="59.5901" ry="18"/>
<text text-anchor="middle" x="779.5" y="-701.3" font-family="Times,serif" font-size="14.00">pour (S3,P0)</text>
</g>
<!-- E2&#45;&gt;E3 -->
<g id="edge7" class="edge"><title>E2&#45;&gt;E3</title>
<path fill="none" stroke="black" d="M652.094,-791.219C677.802,-774.023 719.073,-746.418 747.644,-727.308"/>
<polygon fill="black" stroke="black" points="749.706,-730.139 756.072,-721.67 745.814,-724.321 749.706,-730.139"/>
<text text-anchor="middle" x="758.5" y="-759.8" font-family="Times,serif" font-size="14.00">OUTPUT: </text>
<text text-anchor="middle" x="758.5" y="-744.8" font-family="Times,serif" font-size="14.00">INPUT: </text>
</g>
<!-- E3&#45;&gt;E4 -->
<g id="edge11" class="edge"><title>E3&#45;&gt;E4</title>
<path fill="none" stroke="black" d="M779.5,-686.867C779.5,-671.414 779.5,-648.416 779.5,-630.409"/>
<polygon fill="black" stroke="black" points="783,-630.217 779.5,-620.217 776,-630.217 783,-630.217"/>
<text text-anchor="middle" x="843.5" y="-657.8" font-family="Times,serif" font-size="14.00">OUTPUT: </text>
<text text-anchor="middle" x="843.5" y="-642.8" font-family="Times,serif" font-size="14.00">INPUT: enough sauce</text>
</g>
<!-- E5 -->
<g id="node6" class="node"><title>E5</title>
<ellipse fill="azure" stroke="black" cx="972.5" cy="-499" rx="65.7887" ry="18"/>
<text text-anchor="middle" x="972.5" y="-495.3" font-family="Times,serif" font-size="14.00">spread (S5,P0)</text>
</g>
<!-- E4&#45;&gt;E5 -->
<g id="edge14" class="edge"><title>E4&#45;&gt;E5</title>
<path fill="none" stroke="black" d="M788.011,-583.999C796.476,-568.849 810.878,-547.234 829.5,-535 850.81,-521 877.225,-512.597 901.532,-507.554"/>
<polygon fill="black" stroke="black" points="902.278,-510.975 911.44,-505.655 900.96,-504.1 902.278,-510.975"/>
<text text-anchor="middle" x="899" y="-553.8" font-family="Times,serif" font-size="14.00">OUTPUT: </text>
<text text-anchor="middle" x="899" y="-538.8" font-family="Times,serif" font-size="14.00">INPUT: a layer of sauce</text>
</g>
<!-- E7 -->
<g id="node8" class="node"><title>E7</title>
<ellipse fill="azure" stroke="black" cx="1141.5" cy="-397" rx="62.2891" ry="18"/>
<text text-anchor="middle" x="1141.5" y="-393.3" font-family="Times,serif" font-size="14.00">finish (S6,P1)</text>
</g>
<!-- E5&#45;&gt;E7 -->
<g id="edge16" class="edge"><title>E5&#45;&gt;E7</title>
<path fill="none" stroke="black" d="M982.611,-480.934C992.168,-466.214 1007.8,-445.423 1026.5,-433 1042.41,-422.426 1061.65,-414.939 1079.8,-409.683"/>
<polygon fill="black" stroke="black" points="1080.72,-413.059 1089.46,-407.06 1078.89,-406.304 1080.72,-413.059"/>
<text text-anchor="middle" x="1082" y="-451.8" font-family="Times,serif" font-size="14.00">OUTPUT: </text>
<text text-anchor="middle" x="1082" y="-436.8" font-family="Times,serif" font-size="14.00">INPUT: with sauce</text>
</g>
<!-- E6 -->
<g id="node7" class="node"><title>E6</title>
<ellipse fill="azure" stroke="black" cx="1141.5" cy="-499" rx="59.2899" ry="18"/>
<text text-anchor="middle" x="1141.5" y="-495.3" font-family="Times,serif" font-size="14.00">keep (S6,P0)</text>
</g>
<!-- E6&#45;&gt;E7 -->
<g id="edge15" class="edge"><title>E6&#45;&gt;E7</title>
<path fill="none" stroke="black" d="M1141.5,-480.581C1141.5,-465.382 1141.5,-443.067 1141.5,-425.464"/>
<polygon fill="black" stroke="black" points="1145,-425.219 1141.5,-415.219 1138,-425.219 1145,-425.219"/>
<text text-anchor="middle" x="1173.5" y="-451.8" font-family="Times,serif" font-size="14.00">OUTPUT: </text>
<text text-anchor="middle" x="1173.5" y="-436.8" font-family="Times,serif" font-size="14.00">INPUT: </text>
</g>
<!-- E8 -->
<g id="node9" class="node"><title>E8</title>
<ellipse fill="azure" stroke="black" cx="1176.5" cy="-295" rx="59.2899" ry="18"/>
<text text-anchor="middle" x="1176.5" y="-291.3" font-family="Times,serif" font-size="14.00">bake (S7,P0)</text>
</g>
<!-- E7&#45;&gt;E8 -->
<g id="edge18" class="edge"><title>E7&#45;&gt;E8</title>
<path fill="none" stroke="black" d="M1147.44,-379.036C1152.84,-363.593 1160.91,-340.538 1167.18,-322.637"/>
<polygon fill="black" stroke="black" points="1170.53,-323.642 1170.53,-313.047 1163.93,-321.329 1170.53,-323.642"/>
<text text-anchor="middle" x="1196.5" y="-349.8" font-family="Times,serif" font-size="14.00">OUTPUT: </text>
<text text-anchor="middle" x="1196.5" y="-334.8" font-family="Times,serif" font-size="14.00">INPUT: </text>
</g>
<!-- E8&#45;&gt;E9 -->
<g id="edge19" class="edge"><title>E8&#45;&gt;E9</title>
<path fill="none" stroke="black" d="M1194.03,-277.685C1208.18,-264.528 1228.6,-245.552 1246.5,-229 1250.43,-225.363 1254.6,-221.519 1258.67,-217.761"/>
<polygon fill="black" stroke="black" points="1261.33,-220.07 1266.32,-210.72 1256.59,-214.921 1261.33,-220.07"/>
<text text-anchor="middle" x="1278.5" y="-247.8" font-family="Times,serif" font-size="14.00">OUTPUT: </text>
<text text-anchor="middle" x="1278.5" y="-232.8" font-family="Times,serif" font-size="14.00">INPUT: </text>
</g>
<!-- E10 -->
<g id="node11" class="node"><title>E10</title>
<ellipse fill="azure" stroke="black" cx="1284.5" cy="-91" rx="50.0912" ry="18"/>
<text text-anchor="middle" x="1284.5" y="-87.3" font-family="Times,serif" font-size="14.00">let (S8,P0)</text>
</g>
<!-- E9&#45;&gt;E10 -->
<g id="edge21" class="edge"><title>E9&#45;&gt;E10</title>
<path fill="none" stroke="black" d="M1284.5,-174.581C1284.5,-159.382 1284.5,-137.067 1284.5,-119.464"/>
<polygon fill="black" stroke="black" points="1288,-119.219 1284.5,-109.219 1281,-119.219 1288,-119.219"/>
<text text-anchor="middle" x="1316.5" y="-145.8" font-family="Times,serif" font-size="14.00">OUTPUT: </text>
<text text-anchor="middle" x="1316.5" y="-130.8" font-family="Times,serif" font-size="14.00">INPUT: </text>
</g>
<!-- EOR -->
<g id="node23" class="node"><title>EOR</title>
<ellipse fill="plum" stroke="black" cx="1284.5" cy="-18" rx="57.3905" ry="18"/>
<text text-anchor="middle" x="1284.5" y="-14.3" font-family="Times,serif" font-size="14.00">Bon appetit!</text>
</g>
<!-- E10&#45;&gt;EOR -->
<g id="edge22" class="edge"><title>E10&#45;&gt;EOR</title>
<path fill="none" stroke="black" d="M1284.5,-72.8129C1284.5,-64.7895 1284.5,-55.0475 1284.5,-46.0691"/>
<polygon fill="black" stroke="black" points="1288,-46.0288 1284.5,-36.0288 1281,-46.0289 1288,-46.0288"/>
</g>
<!-- D2 -->
<g id="node12" class="node"><title>D2</title>
<polygon fill="white" stroke="black" points="676.5,-900 580.5,-900 580.5,-864 676.5,-864 676.5,-900"/>
<text text-anchor="middle" x="628.5" y="-878.3" font-family="Times,serif" font-size="14.00">DOBJ: grease</text>
</g>
<!-- D2&#45;&gt;E2 -->
<g id="edge1" class="edge"><title>D2&#45;&gt;E2</title>
<path fill="none" stroke="black" d="M628.5,-863.937C628.5,-855.807 628.5,-845.876 628.5,-836.705"/>
<polygon fill="black" stroke="black" points="632,-836.441 628.5,-826.441 625,-836.441 632,-836.441"/>
</g>
<!-- D6 -->
<g id="node13" class="node"><title>D6</title>
<polygon fill="white" stroke="black" points="1207,-620 1100,-620 1100,-584 1207,-584 1207,-620"/>
<text text-anchor="middle" x="1153.5" y="-598.3" font-family="Times,serif" font-size="14.00">DOBJ: layering</text>
</g>
<!-- D6&#45;&gt;E6 -->
<g id="edge2" class="edge"><title>D6&#45;&gt;E6</title>
<path fill="none" stroke="black" d="M1151.46,-583.867C1149.62,-568.341 1146.87,-545.2 1144.73,-527.156"/>
<polygon fill="black" stroke="black" points="1148.2,-526.735 1143.55,-517.217 1141.25,-527.56 1148.2,-526.735"/>
</g>
<!-- D1 -->
<g id="node14" class="node"><title>D1</title>
<polygon fill="peachpuff" stroke="black" points="131,-827 0,-827 0,-789 131,-789 131,-827"/>
<text text-anchor="middle" x="65.5" y="-811.8" font-family="Times,serif" font-size="14.00">DOBJ: ground beef</text>
<text text-anchor="middle" x="65.5" y="-796.8" font-family="Times,serif" font-size="14.00">(text: ground beef)</text>
</g>
<!-- D1&#45;&gt;E1 -->
<g id="edge3" class="edge"><title>D1&#45;&gt;E1</title>
<path fill="none" stroke="black" d="M119.313,-788.943C175.188,-770.194 261.899,-741.099 316.371,-722.821"/>
<polygon fill="black" stroke="black" points="317.785,-726.038 326.152,-719.539 315.558,-719.402 317.785,-726.038"/>
</g>
<!-- P1_0 -->
<g id="node15" class="node"><title>P1_0</title>
<polygon fill="white" stroke="black" points="374,-826 149,-826 149,-790 374,-790 374,-826"/>
<text text-anchor="middle" x="261.5" y="-804.3" font-family="Times,serif" font-size="14.00">PREP: in a skillet over medium heat</text>
</g>
<!-- P1_0&#45;&gt;E1 -->
<g id="edge4" class="edge"><title>P1_0&#45;&gt;E1</title>
<path fill="none" stroke="black" d="M279.312,-789.867C296.564,-773.272 322.862,-747.976 342.065,-729.504"/>
<polygon fill="black" stroke="black" points="344.518,-732.001 349.299,-722.546 339.666,-726.956 344.518,-732.001"/>
</g>
<!-- P1_1 -->
<g id="node16" class="node"><title>P1_1</title>
<polygon fill="peachpuff" stroke="black" points="549,-827 392,-827 392,-789 549,-789 549,-827"/>
<text text-anchor="middle" x="470.5" y="-811.8" font-family="Times,serif" font-size="14.00">PREP: with small onion</text>
<text text-anchor="middle" x="470.5" y="-796.8" font-family="Times,serif" font-size="14.00">(text: with onion)</text>
</g>
<!-- P1_1&#45;&gt;E1 -->
<g id="edge5" class="edge"><title>P1_1&#45;&gt;E1</title>
<path fill="none" stroke="black" d="M451.907,-788.943C434.934,-772.46 409.727,-747.98 391.094,-729.884"/>
<polygon fill="black" stroke="black" points="393.166,-727.018 383.553,-722.561 388.289,-732.039 393.166,-727.018"/>
</g>
<!-- D0 -->
<g id="node17" class="node"><title>D0</title>
<polygon fill="white" stroke="black" points="1539.5,-415 1221.5,-415 1221.5,-379 1539.5,-379 1539.5,-415"/>
<text text-anchor="middle" x="1380.5" y="-393.3" font-family="Times,serif" font-size="14.00">DOBJ: oven to 375 degrees F &#45;LRB&#45; 190 degrees C</text>
</g>
<!-- D0&#45;&gt;E0 -->
<g id="edge6" class="edge"><title>D0&#45;&gt;E0</title>
<path fill="none" stroke="black" d="M1378.41,-378.581C1376.59,-363.382 1373.91,-341.067 1371.8,-323.464"/>
<polygon fill="black" stroke="black" points="1375.23,-322.731 1370.57,-313.219 1368.28,-323.565 1375.23,-322.731"/>
</g>
<!-- P3_0_ing -->
<g id="node18" class="node"><title>P3_0_ing</title>
<polygon fill="peachpuff" stroke="black" points="953,-827 708,-827 708,-789 953,-789 953,-827"/>
<text text-anchor="middle" x="830.5" y="-811.8" font-family="Times,serif" font-size="14.00">PREP: in (28 ounce) jar spaghetti sauce</text>
<text text-anchor="middle" x="830.5" y="-796.8" font-family="Times,serif" font-size="14.00">(text: in spaghetti sauce)</text>
</g>
<!-- P3_0_ing&#45;&gt;E3 -->
<g id="edge8" class="edge"><title>P3_0_ing&#45;&gt;E3</title>
<path fill="none" stroke="black" d="M821.382,-788.943C813.405,-773.145 801.717,-749.999 792.715,-732.17"/>
<polygon fill="black" stroke="black" points="795.662,-730.242 788.03,-722.893 789.413,-733.397 795.662,-730.242"/>
</g>
<!-- P3_0_0 -->
<g id="node19" class="node"><title>P3_0_0</title>
<polygon fill="white" stroke="black" points="1148,-826 971,-826 971,-790 1148,-790 1148,-826"/>
<text text-anchor="middle" x="1059.5" y="-804.3" font-family="Times,serif" font-size="14.00">PREP: in simmer 5 minutes</text>
</g>
<!-- P3_0_0&#45;&gt;E3 -->
<g id="edge9" class="edge"><title>P3_0_0&#45;&gt;E3</title>
<path fill="none" stroke="black" d="M1012.32,-789.981C960.486,-771.284 877.761,-741.444 826.144,-722.825"/>
<polygon fill="black" stroke="black" points="827.162,-719.472 816.568,-719.371 824.787,-726.056 827.162,-719.472"/>
</g>
<!-- P4_0_0 -->
<g id="node20" class="node"><title>P4_0_0</title>
<polygon fill="white" stroke="black" points="1071.5,-723 857.5,-723 857.5,-687 1071.5,-687 1071.5,-723"/>
<text text-anchor="middle" x="964.5" y="-701.3" font-family="Times,serif" font-size="14.00">PREP: in a 9x13 inch baking dish</text>
</g>
<!-- P4_0_0&#45;&gt;E4 -->
<g id="edge12" class="edge"><title>P4_0_0&#45;&gt;E4</title>
<path fill="none" stroke="black" d="M954.735,-686.798C945.46,-671.989 930.177,-651.143 911.5,-639 904.89,-634.702 869.633,-625.18 837.221,-617.008"/>
<polygon fill="black" stroke="black" points="837.838,-613.554 827.288,-614.522 836.139,-620.345 837.838,-613.554"/>
</g>
<!-- D5_ing -->
<g id="node21" class="node"><title>D5_ing</title>
<polygon fill="peachpuff" stroke="black" points="1081.5,-621 863.5,-621 863.5,-583 1081.5,-583 1081.5,-621"/>
<text text-anchor="middle" x="972.5" y="-605.8" font-family="Times,serif" font-size="14.00">DOBJ: shredded mozzarella cheese</text>
<text text-anchor="middle" x="972.5" y="-590.8" font-family="Times,serif" font-size="14.00">(text: cheese)</text>
</g>
<!-- D5_ing&#45;&gt;E5 -->
<g id="edge13" class="edge"><title>D5_ing&#45;&gt;E5</title>
<path fill="none" stroke="black" d="M972.5,-582.943C972.5,-567.531 972.5,-545.127 972.5,-527.488"/>
<polygon fill="black" stroke="black" points="976,-527.226 972.5,-517.226 969,-527.226 976,-527.226"/>
</g>
<!-- P7_1_0 -->
<g id="node22" class="node"><title>P7_1_0</title>
<polygon fill="white" stroke="black" points="1316,-517 1219,-517 1219,-481 1316,-481 1316,-517"/>
<text text-anchor="middle" x="1267.5" y="-495.3" font-family="Times,serif" font-size="14.00">PREP: on top</text>
</g>
<!-- P7_1_0&#45;&gt;E7 -->
<g id="edge17" class="edge"><title>P7_1_0&#45;&gt;E7</title>
<path fill="none" stroke="black" d="M1255.13,-480.939C1244.27,-466.817 1227.44,-446.888 1209.5,-433 1201.79,-427.028 1192.9,-421.601 1184.15,-416.897"/>
<polygon fill="black" stroke="black" points="1185.62,-413.722 1175.13,-412.266 1182.43,-419.948 1185.62,-413.722"/>
</g>
</g>
</svg>
