<?xml version="1.0" encoding="UTF-8" standalone="no"?>
<!DOCTYPE svg PUBLIC "-//W3C//DTD SVG 1.1//EN"
 "http://www.w3.org/Graphics/SVG/1.1/DTD/svg11.dtd">
<!-- Generated by graphviz version 2.38.0 (20140413.2041)
 -->
<!-- Title: recipe Pages: 1 -->
<svg width="2662pt" height="912pt"
 viewBox="0.00 0.00 2661.50 912.00" xmlns="http://www.w3.org/2000/svg" xmlns:xlink="http://www.w3.org/1999/xlink">
<g id="graph0" class="graph" transform="scale(1 1) rotate(0) translate(4 908)">
<title>recipe</title>
<polygon fill="white" stroke="none" points="-4,4 -4,-908 2657.5,-908 2657.5,4 -4,4"/>
<!-- E0 -->
<g id="node1" class="node"><title>E0</title>
<ellipse fill="azure" stroke="black" cx="2437.5" cy="-811" rx="61.99" ry="18"/>
<text text-anchor="middle" x="2437.5" y="-807.3" font-family="Times,serif" font-size="14.00">spray (S0,P0)</text>
</g>
<!-- E2 -->
<g id="node3" class="node"><title>E2</title>
<ellipse fill="azure" stroke="black" cx="2268.5" cy="-708" rx="69.5877" ry="18"/>
<text text-anchor="middle" x="2268.5" y="-704.3" font-family="Times,serif" font-size="14.00">transfer (S1,P0)</text>
</g>
<!-- E0&#45;&gt;E2 -->
<g id="edge9" class="edge"><title>E0&#45;&gt;E2</title>
<path fill="none" stroke="black" d="M2411.46,-794.44C2382.52,-777.142 2335.62,-749.116 2303.49,-729.911"/>
<polygon fill="black" stroke="black" points="2305.22,-726.87 2294.84,-724.744 2301.63,-732.878 2305.22,-726.87"/>
<text text-anchor="middle" x="2426" y="-763.8" font-family="Times,serif" font-size="14.00">OUTPUT: </text>
<text text-anchor="middle" x="2426" y="-748.8" font-family="Times,serif" font-size="14.00">INPUT: peppers</text>
</g>
<!-- E1 -->
<g id="node2" class="node"><title>E1</title>
<ellipse fill="azure" stroke="black" cx="2101.5" cy="-811" rx="59.5901" ry="18"/>
<text text-anchor="middle" x="2101.5" y="-807.3" font-family="Times,serif" font-size="14.00">cook (S0,P1)</text>
</g>
<!-- E1&#45;&gt;E2 -->
<g id="edge8" class="edge"><title>E1&#45;&gt;E2</title>
<path fill="none" stroke="black" d="M2119.88,-793.596C2136.28,-779.504 2161.37,-759.264 2185.5,-745 2196.6,-738.441 2209.11,-732.387 2220.98,-727.19"/>
<polygon fill="black" stroke="black" points="2222.5,-730.347 2230.34,-723.211 2219.76,-723.905 2222.5,-730.347"/>
<text text-anchor="middle" x="2225" y="-763.8" font-family="Times,serif" font-size="14.00">OUTPUT: </text>
<text text-anchor="middle" x="2225" y="-748.8" font-family="Times,serif" font-size="14.00">INPUT: steak</text>
</g>
<!-- E3 -->
<g id="node4" class="node"><title>E3</title>
<ellipse fill="azure" stroke="black" cx="1738.5" cy="-605" rx="53.0913" ry="18"/>
<text text-anchor="middle" x="1738.5" y="-601.3" font-family="Times,serif" font-size="14.00">stir (S1,P1)</text>
</g>
<!-- E2&#45;&gt;E3 -->
<g id="edge11" class="edge"><title>E2&#45;&gt;E3</title>
<path fill="none" stroke="black" d="M2218.84,-695.351C2209.13,-693.167 2199.01,-690.957 2189.5,-689 2048.06,-659.886 1880.65,-630.363 1795.07,-615.625"/>
<polygon fill="black" stroke="black" points="1795.49,-612.146 1785.05,-613.902 1794.31,-619.045 1795.49,-612.146"/>
<text text-anchor="middle" x="2123.5" y="-659.8" font-family="Times,serif" font-size="14.00">OUTPUT: </text>
<text text-anchor="middle" x="2123.5" y="-644.8" font-family="Times,serif" font-size="14.00">INPUT: </text>
</g>
<!-- E4 -->
<g id="node5" class="node"><title>E4</title>
<ellipse fill="azure" stroke="black" cx="1611.5" cy="-503" rx="61.99" ry="18"/>
<text text-anchor="middle" x="1611.5" y="-499.3" font-family="Times,serif" font-size="14.00">bring (S2,P0)</text>
</g>
<!-- E3&#45;&gt;E4 -->
<g id="edge13" class="edge"><title>E3&#45;&gt;E4</title>
<path fill="none" stroke="black" d="M1718.38,-588.155C1697.23,-571.503 1663.79,-545.171 1639.95,-526.399"/>
<polygon fill="black" stroke="black" points="1641.97,-523.539 1631.95,-520.102 1637.64,-529.039 1641.97,-523.539"/>
<text text-anchor="middle" x="1726.5" y="-557.8" font-family="Times,serif" font-size="14.00">OUTPUT: </text>
<text text-anchor="middle" x="1726.5" y="-542.8" font-family="Times,serif" font-size="14.00">INPUT: </text>
</g>
<!-- E10 -->
<g id="node11" class="node"><title>E10</title>
<ellipse fill="azure" stroke="black" cx="1523.5" cy="-400" rx="61.99" ry="18"/>
<text text-anchor="middle" x="1523.5" y="-396.3" font-family="Times,serif" font-size="14.00">bring (S5,P1)</text>
</g>
<!-- E4&#45;&gt;E10 -->
<g id="edge20" class="edge"><title>E4&#45;&gt;E10</title>
<path fill="none" stroke="black" d="M1598.6,-485.376C1588.1,-472.043 1572.74,-452.983 1558.5,-437 1554.97,-433.034 1551.13,-428.916 1547.34,-424.943"/>
<polygon fill="black" stroke="black" points="1549.66,-422.309 1540.19,-417.561 1544.63,-427.179 1549.66,-422.309"/>
<text text-anchor="middle" x="1697.5" y="-455.8" font-family="Times,serif" font-size="14.00">OUTPUT: </text>
<text text-anchor="middle" x="1697.5" y="-440.8" font-family="Times,serif" font-size="14.00">INPUT: to a rolling boil over high heat</text>
</g>
<!-- E5 -->
<g id="node6" class="node"><title>E5</title>
<ellipse fill="azure" stroke="black" cx="102.5" cy="-605" rx="66.0889" ry="18"/>
<text text-anchor="middle" x="102.5" y="-601.3" font-family="Times,serif" font-size="14.00">reduce (S2,P1)</text>
</g>
<!-- E8 -->
<g id="node9" class="node"><title>E8</title>
<ellipse fill="azure" stroke="black" cx="102.5" cy="-503" rx="57.3905" ry="18"/>
<text text-anchor="middle" x="102.5" y="-499.3" font-family="Times,serif" font-size="14.00">turn (S4,P0)</text>
</g>
<!-- E5&#45;&gt;E8 -->
<g id="edge16" class="edge"><title>E5&#45;&gt;E8</title>
<path fill="none" stroke="black" d="M102.5,-586.581C102.5,-571.382 102.5,-549.067 102.5,-531.464"/>
<polygon fill="black" stroke="black" points="106,-531.219 102.5,-521.219 99.0001,-531.219 106,-531.219"/>
<text text-anchor="middle" x="139" y="-557.8" font-family="Times,serif" font-size="14.00">OUTPUT: </text>
<text text-anchor="middle" x="139" y="-542.8" font-family="Times,serif" font-size="14.00">INPUT: heat</text>
</g>
<!-- E6 -->
<g id="node7" class="node"><title>E6</title>
<ellipse fill="azure" stroke="black" cx="1216.5" cy="-708" rx="61.99" ry="18"/>
<text text-anchor="middle" x="1216.5" y="-704.3" font-family="Times,serif" font-size="14.00">cover (S2,P2)</text>
</g>
<!-- E7 -->
<g id="node8" class="node"><title>E7</title>
<ellipse fill="azure" stroke="black" cx="1238.5" cy="-605" rx="69.5877" ry="18"/>
<text text-anchor="middle" x="1238.5" y="-601.3" font-family="Times,serif" font-size="14.00">simmer (S3,P0)</text>
</g>
<!-- E6&#45;&gt;E7 -->
<g id="edge15" class="edge"><title>E6&#45;&gt;E7</title>
<path fill="none" stroke="black" d="M1220.23,-689.867C1223.61,-674.341 1228.65,-651.2 1232.58,-633.156"/>
<polygon fill="black" stroke="black" points="1236.04,-633.733 1234.75,-623.217 1229.2,-632.243 1236.04,-633.733"/>
<text text-anchor="middle" x="1263.5" y="-659.8" font-family="Times,serif" font-size="14.00">OUTPUT: </text>
<text text-anchor="middle" x="1263.5" y="-644.8" font-family="Times,serif" font-size="14.00">INPUT: </text>
</g>
<!-- E9 -->
<g id="node10" class="node"><title>E9</title>
<ellipse fill="azure" stroke="black" cx="1435.5" cy="-503" rx="51.9908" ry="18"/>
<text text-anchor="middle" x="1435.5" y="-499.3" font-family="Times,serif" font-size="14.00">fill (S5,P0)</text>
</g>
<!-- E7&#45;&gt;E9 -->
<g id="edge17" class="edge"><title>E7&#45;&gt;E9</title>
<path fill="none" stroke="black" d="M1255.38,-587.452C1271.08,-572.873 1295.72,-551.989 1320.5,-539 1339.71,-528.928 1362.28,-521.266 1382.31,-515.716"/>
<polygon fill="black" stroke="black" points="1383.46,-519.034 1392.22,-513.082 1381.66,-512.269 1383.46,-519.034"/>
<text text-anchor="middle" x="1376" y="-557.8" font-family="Times,serif" font-size="14.00">OUTPUT: </text>
<text text-anchor="middle" x="1376" y="-542.8" font-family="Times,serif" font-size="14.00">INPUT: a large pot</text>
</g>
<!-- E13 -->
<g id="node14" class="node"><title>E13</title>
<ellipse fill="azure" stroke="black" cx="502.5" cy="-400" rx="59.5901" ry="18"/>
<text text-anchor="middle" x="502.5" y="-396.3" font-family="Times,serif" font-size="14.00">cook (S7,P0)</text>
</g>
<!-- E8&#45;&gt;E13 -->
<g id="edge25" class="edge"><title>E8&#45;&gt;E13</title>
<path fill="none" stroke="black" d="M116.12,-485.216C129.669,-469.826 151.936,-447.833 176.5,-437 221.029,-417.362 351.443,-407.898 433.192,-403.778"/>
<polygon fill="black" stroke="black" points="433.587,-407.263 443.404,-403.278 433.244,-400.271 433.587,-407.263"/>
<text text-anchor="middle" x="263.5" y="-455.8" font-family="Times,serif" font-size="14.00">OUTPUT: </text>
<text text-anchor="middle" x="263.5" y="-440.8" font-family="Times,serif" font-size="14.00">INPUT: &#160;stirring occasionally </text>
</g>
<!-- E9&#45;&gt;E10 -->
<g id="edge19" class="edge"><title>E9&#45;&gt;E10</title>
<path fill="none" stroke="black" d="M1450.03,-485.322C1464.23,-469.021 1486.02,-444.017 1502.18,-425.466"/>
<polygon fill="black" stroke="black" points="1505.02,-427.542 1508.95,-417.703 1499.74,-422.943 1505.02,-427.542"/>
<text text-anchor="middle" x="1522.5" y="-455.8" font-family="Times,serif" font-size="14.00">OUTPUT: </text>
<text text-anchor="middle" x="1522.5" y="-440.8" font-family="Times,serif" font-size="14.00">INPUT: </text>
</g>
<!-- E11 -->
<g id="node12" class="node"><title>E11</title>
<ellipse fill="azure" stroke="black" cx="1377.5" cy="-296" rx="53.0913" ry="18"/>
<text text-anchor="middle" x="1377.5" y="-292.3" font-family="Times,serif" font-size="14.00">stir (S6,P0)</text>
</g>
<!-- E10&#45;&gt;E11 -->
<g id="edge21" class="edge"><title>E10&#45;&gt;E11</title>
<path fill="none" stroke="black" d="M1500.69,-383.062C1475.79,-365.67 1435.81,-337.734 1408.18,-318.431"/>
<polygon fill="black" stroke="black" points="1409.88,-315.35 1399.67,-312.492 1405.87,-321.088 1409.88,-315.35"/>
<text text-anchor="middle" x="1500.5" y="-351.8" font-family="Times,serif" font-size="14.00">OUTPUT: </text>
<text text-anchor="middle" x="1500.5" y="-336.8" font-family="Times,serif" font-size="14.00">INPUT: </text>
</g>
<!-- E12 -->
<g id="node13" class="node"><title>E12</title>
<ellipse fill="azure" stroke="black" cx="1252.5" cy="-193" rx="64.189" ry="18"/>
<text text-anchor="middle" x="1252.5" y="-189.3" font-family="Times,serif" font-size="14.00">return (S6,P1)</text>
</g>
<!-- E11&#45;&gt;E12 -->
<g id="edge23" class="edge"><title>E11&#45;&gt;E12</title>
<path fill="none" stroke="black" d="M1357.97,-279.219C1337.21,-262.444 1304.19,-235.763 1280.63,-216.726"/>
<polygon fill="black" stroke="black" points="1282.7,-213.902 1272.72,-210.34 1278.3,-219.347 1282.7,-213.902"/>
<text text-anchor="middle" x="1362.5" y="-247.8" font-family="Times,serif" font-size="14.00">OUTPUT: </text>
<text text-anchor="middle" x="1362.5" y="-232.8" font-family="Times,serif" font-size="14.00">INPUT: </text>
</g>
<!-- E16 -->
<g id="node17" class="node"><title>E16</title>
<ellipse fill="azure" stroke="black" cx="1123.5" cy="-91" rx="60.3893" ry="18"/>
<text text-anchor="middle" x="1123.5" y="-87.3" font-family="Times,serif" font-size="14.00">serve (S9,P1)</text>
</g>
<!-- E12&#45;&gt;E16 -->
<g id="edge36" class="edge"><title>E12&#45;&gt;E16</title>
<path fill="none" stroke="black" d="M1231.77,-175.933C1210.24,-159.24 1176.38,-132.993 1152.26,-114.297"/>
<polygon fill="black" stroke="black" points="1154.22,-111.387 1144.17,-108.027 1149.93,-116.92 1154.22,-111.387"/>
<text text-anchor="middle" x="1303" y="-145.8" font-family="Times,serif" font-size="14.00">OUTPUT: </text>
<text text-anchor="middle" x="1303" y="-130.8" font-family="Times,serif" font-size="14.00">INPUT: over the cooked noodles</text>
</g>
<!-- E14 -->
<g id="node15" class="node"><title>E14</title>
<ellipse fill="azure" stroke="black" cx="621.5" cy="-296" rx="61.1893" ry="18"/>
<text text-anchor="middle" x="621.5" y="-292.3" font-family="Times,serif" font-size="14.00">drain (S8,P0)</text>
</g>
<!-- E13&#45;&gt;E14 -->
<g id="edge30" class="edge"><title>E13&#45;&gt;E14</title>
<path fill="none" stroke="black" d="M521.356,-382.838C541.084,-365.928 572.233,-339.229 594.552,-320.098"/>
<polygon fill="black" stroke="black" points="597.023,-322.59 602.338,-313.424 592.468,-317.275 597.023,-322.59"/>
<text text-anchor="middle" x="608.5" y="-351.8" font-family="Times,serif" font-size="14.00">OUTPUT: </text>
<text text-anchor="middle" x="608.5" y="-336.8" font-family="Times,serif" font-size="14.00">INPUT: </text>
</g>
<!-- E15 -->
<g id="node16" class="node"><title>E15</title>
<ellipse fill="azure" stroke="black" cx="867.5" cy="-193" rx="53.0913" ry="18"/>
<text text-anchor="middle" x="867.5" y="-189.3" font-family="Times,serif" font-size="14.00">stir (S9,P0)</text>
</g>
<!-- E14&#45;&gt;E15 -->
<g id="edge33" class="edge"><title>E14&#45;&gt;E15</title>
<path fill="none" stroke="black" d="M627.9,-278.024C634.61,-262.671 646.679,-240.728 664.5,-229 687.326,-213.978 755.234,-204.419 806.269,-199.154"/>
<polygon fill="black" stroke="black" points="806.631,-202.635 816.233,-198.157 805.934,-195.67 806.631,-202.635"/>
<text text-anchor="middle" x="751" y="-247.8" font-family="Times,serif" font-size="14.00">OUTPUT: </text>
<text text-anchor="middle" x="751" y="-232.8" font-family="Times,serif" font-size="14.00">INPUT: into the meat mixture</text>
</g>
<!-- E15&#45;&gt;E16 -->
<g id="edge35" class="edge"><title>E15&#45;&gt;E16</title>
<path fill="none" stroke="black" d="M900.968,-178.927C946.55,-161.121 1028.27,-129.199 1078.98,-109.39"/>
<polygon fill="black" stroke="black" points="1080.34,-112.616 1088.38,-105.718 1077.79,-106.096 1080.34,-112.616"/>
<text text-anchor="middle" x="1065.5" y="-145.8" font-family="Times,serif" font-size="14.00">OUTPUT: </text>
<text text-anchor="middle" x="1065.5" y="-130.8" font-family="Times,serif" font-size="14.00">INPUT: </text>
</g>
<!-- EOR -->
<g id="node38" class="node"><title>EOR</title>
<ellipse fill="plum" stroke="black" cx="1123.5" cy="-18" rx="57.3905" ry="18"/>
<text text-anchor="middle" x="1123.5" y="-14.3" font-family="Times,serif" font-size="14.00">Bon appetit!</text>
</g>
<!-- E16&#45;&gt;EOR -->
<g id="edge37" class="edge"><title>E16&#45;&gt;EOR</title>
<path fill="none" stroke="black" d="M1123.5,-72.8129C1123.5,-64.7895 1123.5,-55.0475 1123.5,-46.0691"/>
<polygon fill="black" stroke="black" points="1127,-46.0288 1123.5,-36.0288 1120,-46.0289 1127,-46.0288"/>
</g>
<!-- D5 -->
<g id="node18" class="node"><title>D5</title>
<polygon fill="white" stroke="black" points="83,-726 0,-726 0,-690 83,-690 83,-726"/>
<text text-anchor="middle" x="41.5" y="-704.3" font-family="Times,serif" font-size="14.00">DOBJ: heat</text>
</g>
<!-- D5&#45;&gt;E5 -->
<g id="edge1" class="edge"><title>D5&#45;&gt;E5</title>
<path fill="none" stroke="black" d="M51.8478,-689.867C61.5019,-673.882 76.0317,-649.825 87.0572,-631.569"/>
<polygon fill="black" stroke="black" points="90.1311,-633.25 92.305,-622.88 84.1391,-629.631 90.1311,-633.25"/>
</g>
<!-- P5_0 -->
<g id="node19" class="node"><title>P5_0</title>
<polygon fill="white" stroke="black" points="228,-726 101,-726 101,-690 228,-690 228,-726"/>
<text text-anchor="middle" x="164.5" y="-704.3" font-family="Times,serif" font-size="14.00">PREP: to a simmer</text>
</g>
<!-- P5_0&#45;&gt;E5 -->
<g id="edge2" class="edge"><title>P5_0&#45;&gt;E5</title>
<path fill="none" stroke="black" d="M153.983,-689.867C144.17,-673.882 129.402,-649.825 118.196,-631.569"/>
<polygon fill="black" stroke="black" points="121.077,-629.572 112.862,-622.88 115.111,-633.234 121.077,-629.572"/>
</g>
<!-- D0 -->
<g id="node20" class="node"><title>D0</title>
<polygon fill="white" stroke="black" points="2463.5,-903 2327.5,-903 2327.5,-867 2463.5,-867 2463.5,-903"/>
<text text-anchor="middle" x="2395.5" y="-881.3" font-family="Times,serif" font-size="14.00">DOBJ: a large skillet</text>
</g>
<!-- D0&#45;&gt;E0 -->
<g id="edge3" class="edge"><title>D0&#45;&gt;E0</title>
<path fill="none" stroke="black" d="M2405.45,-866.937C2410.53,-858.239 2416.8,-847.48 2422.45,-837.795"/>
<polygon fill="black" stroke="black" points="2425.6,-839.342 2427.62,-828.941 2419.56,-835.815 2425.6,-839.342"/>
</g>
<!-- P0_0 -->
<g id="node21" class="node"><title>P0_0</title>
<polygon fill="peachpuff" stroke="black" points="2653.5,-904 2481.5,-904 2481.5,-866 2653.5,-866 2653.5,-904"/>
<text text-anchor="middle" x="2567.5" y="-888.8" font-family="Times,serif" font-size="14.00">PREP: with cooking spray</text>
<text text-anchor="middle" x="2567.5" y="-873.8" font-family="Times,serif" font-size="14.00">(text: with cooking spray)</text>
</g>
<!-- P0_0&#45;&gt;E0 -->
<g id="edge4" class="edge"><title>P0_0&#45;&gt;E0</title>
<path fill="none" stroke="black" d="M2534.7,-865.831C2516.21,-855.592 2493.07,-842.779 2474.01,-832.222"/>
<polygon fill="black" stroke="black" points="2475.46,-829.025 2465.02,-827.242 2472.07,-835.149 2475.46,-829.025"/>
</g>
<!-- D6 -->
<g id="node22" class="node"><title>D6</title>
<polygon fill="white" stroke="black" points="1257,-829 1176,-829 1176,-793 1257,-793 1257,-829"/>
<text text-anchor="middle" x="1216.5" y="-807.3" font-family="Times,serif" font-size="14.00">DOBJ: pan</text>
</g>
<!-- D6&#45;&gt;E6 -->
<g id="edge5" class="edge"><title>D6&#45;&gt;E6</title>
<path fill="none" stroke="black" d="M1216.5,-792.867C1216.5,-777.414 1216.5,-754.416 1216.5,-736.409"/>
<polygon fill="black" stroke="black" points="1220,-736.217 1216.5,-726.217 1213,-736.217 1220,-736.217"/>
</g>
<!-- D1 -->
<g id="node23" class="node"><title>D1</title>
<polygon fill="peachpuff" stroke="black" points="2043.5,-904 1781.5,-904 1781.5,-866 2043.5,-866 2043.5,-904"/>
<text text-anchor="middle" x="1912.5" y="-888.8" font-family="Times,serif" font-size="14.00">DOBJ: green bell peppers, beef flank steak</text>
<text text-anchor="middle" x="1912.5" y="-873.8" font-family="Times,serif" font-size="14.00">(text: the flank steak and green peppers)</text>
</g>
<!-- D1&#45;&gt;E1 -->
<g id="edge6" class="edge"><title>D1&#45;&gt;E1</title>
<path fill="none" stroke="black" d="M1960.19,-865.831C1989.77,-854.566 2027.52,-840.183 2056.56,-829.119"/>
<polygon fill="black" stroke="black" points="2057.96,-832.334 2066.05,-825.503 2055.46,-825.792 2057.96,-832.334"/>
</g>
<!-- P1_0 -->
<g id="node24" class="node"><title>P1_0</title>
<polygon fill="white" stroke="black" points="2225,-903 2062,-903 2062,-867 2225,-867 2225,-903"/>
<text text-anchor="middle" x="2143.5" y="-881.3" font-family="Times,serif" font-size="14.00">PREP: over medium heat</text>
</g>
<!-- P1_0&#45;&gt;E1 -->
<g id="edge7" class="edge"><title>P1_0&#45;&gt;E1</title>
<path fill="none" stroke="black" d="M2133.55,-866.937C2128.47,-858.239 2122.2,-847.48 2116.55,-837.795"/>
<polygon fill="black" stroke="black" points="2119.44,-835.815 2111.38,-828.941 2113.4,-839.342 2119.44,-835.815"/>
</g>
<!-- P2_0_0 -->
<g id="node25" class="node"><title>P2_0_0</title>
<polygon fill="white" stroke="black" points="2358,-829 2179,-829 2179,-793 2358,-793 2358,-829"/>
<text text-anchor="middle" x="2268.5" y="-807.3" font-family="Times,serif" font-size="14.00">PREP: into a large saucepan</text>
</g>
<!-- P2_0_0&#45;&gt;E2 -->
<g id="edge10" class="edge"><title>P2_0_0&#45;&gt;E2</title>
<path fill="none" stroke="black" d="M2268.5,-792.867C2268.5,-777.414 2268.5,-754.416 2268.5,-736.409"/>
<polygon fill="black" stroke="black" points="2272,-736.217 2268.5,-726.217 2265,-736.217 2272,-736.217"/>
</g>
<!-- P3_0_ing -->
<g id="node26" class="node"><title>P3_0_ing</title>
<polygon fill="peachpuff" stroke="black" points="2180.5,-727 1296.5,-727 1296.5,-689 2180.5,-689 2180.5,-727"/>
<text text-anchor="middle" x="1738.5" y="-711.8" font-family="Times,serif" font-size="14.00">PREP: in (10.5 ounce) can condensed French onion soup (such as Campbell&#39;s ®), (10.5 ounce) can condensed beef consomme (such as Campbell&#39;s ®)</text>
<text text-anchor="middle" x="1738.5" y="-696.8" font-family="Times,serif" font-size="14.00">(text: in the beef consomme, french onion soup)</text>
</g>
<!-- P3_0_ing&#45;&gt;E3 -->
<g id="edge12" class="edge"><title>P3_0_ing&#45;&gt;E3</title>
<path fill="none" stroke="black" d="M1738.5,-688.943C1738.5,-673.531 1738.5,-651.127 1738.5,-633.488"/>
<polygon fill="black" stroke="black" points="1742,-633.226 1738.5,-623.226 1735,-633.226 1742,-633.226"/>
</g>
<!-- P4_0_0 -->
<g id="node27" class="node"><title>P4_0_0</title>
<polygon fill="white" stroke="black" points="1665,-623 1558,-623 1558,-587 1665,-587 1665,-623"/>
<text text-anchor="middle" x="1611.5" y="-601.3" font-family="Times,serif" font-size="14.00">PREP: to a boil</text>
</g>
<!-- P4_0_0&#45;&gt;E4 -->
<g id="edge14" class="edge"><title>P4_0_0&#45;&gt;E4</title>
<path fill="none" stroke="black" d="M1611.5,-586.581C1611.5,-571.382 1611.5,-549.067 1611.5,-531.464"/>
<polygon fill="black" stroke="black" points="1615,-531.219 1611.5,-521.219 1608,-531.219 1615,-531.219"/>
</g>
<!-- P9_0_0 -->
<g id="node28" class="node"><title>P9_0_0</title>
<polygon fill="white" stroke="black" points="1535,-623 1336,-623 1336,-587 1535,-587 1535,-623"/>
<text text-anchor="middle" x="1435.5" y="-601.3" font-family="Times,serif" font-size="14.00">PREP: with lightly salted water</text>
</g>
<!-- P9_0_0&#45;&gt;E9 -->
<g id="edge18" class="edge"><title>P9_0_0&#45;&gt;E9</title>
<path fill="none" stroke="black" d="M1435.5,-586.581C1435.5,-571.382 1435.5,-549.067 1435.5,-531.464"/>
<polygon fill="black" stroke="black" points="1439,-531.219 1435.5,-521.219 1432,-531.219 1439,-531.219"/>
</g>
<!-- P11_0_ing -->
<g id="node29" class="node"><title>P11_0_ing</title>
<polygon fill="peachpuff" stroke="black" points="1444,-419 1191,-419 1191,-381 1444,-381 1444,-419"/>
<text text-anchor="middle" x="1317.5" y="-403.8" font-family="Times,serif" font-size="14.00">PREP: in (8 ounce) package egg noodles</text>
<text text-anchor="middle" x="1317.5" y="-388.8" font-family="Times,serif" font-size="14.00">(text: in the egg noodles)</text>
</g>
<!-- P11_0_ing&#45;&gt;E11 -->
<g id="edge22" class="edge"><title>P11_0_ing&#45;&gt;E11</title>
<path fill="none" stroke="black" d="M1328.23,-380.764C1337.76,-364.564 1351.79,-340.714 1362.44,-322.603"/>
<polygon fill="black" stroke="black" points="1365.61,-324.119 1367.66,-313.725 1359.57,-320.57 1365.61,-324.119"/>
</g>
<!-- P12_0_0 -->
<g id="node30" class="node"><title>P12_0_0</title>
<polygon fill="white" stroke="black" points="1306,-314 1199,-314 1199,-278 1306,-278 1306,-314"/>
<text text-anchor="middle" x="1252.5" y="-292.3" font-family="Times,serif" font-size="14.00">PREP: to a boil</text>
</g>
<!-- P12_0_0&#45;&gt;E12 -->
<g id="edge24" class="edge"><title>P12_0_0&#45;&gt;E12</title>
<path fill="none" stroke="black" d="M1252.5,-277.867C1252.5,-262.414 1252.5,-239.416 1252.5,-221.409"/>
<polygon fill="black" stroke="black" points="1256,-221.217 1252.5,-211.217 1249,-221.217 1256,-221.217"/>
</g>
<!-- D13_1 -->
<g id="node31" class="node"><title>D13_1</title>
<polygon fill="white" stroke="black" points="351.5,-521 195.5,-521 195.5,-485 351.5,-485 351.5,-521"/>
<text text-anchor="middle" x="273.5" y="-499.3" font-family="Times,serif" font-size="14.00">DOBJ: &#160;about 5 minutes</text>
</g>
<!-- D13_1&#45;&gt;E13 -->
<g id="edge26" class="edge"><title>D13_1&#45;&gt;E13</title>
<path fill="none" stroke="black" d="M312.088,-484.981C353.327,-466.792 418.479,-438.057 460.856,-419.367"/>
<polygon fill="black" stroke="black" points="462.323,-422.545 470.06,-415.308 459.498,-416.141 462.323,-422.545"/>
</g>
<!-- D13_2 -->
<g id="node32" class="node"><title>D13_2</title>
<polygon fill="white" stroke="black" points="635.5,-521 369.5,-521 369.5,-485 635.5,-485 635.5,-521"/>
<text text-anchor="middle" x="502.5" y="-499.3" font-family="Times,serif" font-size="14.00">DOBJ: &#160;until the pasta has cooked through </text>
</g>
<!-- D13_2&#45;&gt;E13 -->
<g id="edge27" class="edge"><title>D13_2&#45;&gt;E13</title>
<path fill="none" stroke="black" d="M502.5,-484.867C502.5,-469.414 502.5,-446.416 502.5,-428.409"/>
<polygon fill="black" stroke="black" points="506,-428.217 502.5,-418.217 499,-428.217 506,-428.217"/>
</g>
<!-- D13_3 -->
<g id="node33" class="node"><title>D13_3</title>
<polygon fill="white" stroke="black" points="831,-521 654,-521 654,-485 831,-485 831,-521"/>
<text text-anchor="middle" x="742.5" y="-499.3" font-family="Times,serif" font-size="14.00">DOBJ: the pasta uncovered </text>
</g>
<!-- D13_3&#45;&gt;E13 -->
<g id="edge28" class="edge"><title>D13_3&#45;&gt;E13</title>
<path fill="none" stroke="black" d="M702.059,-484.981C658.498,-466.649 589.482,-437.605 545.101,-418.928"/>
<polygon fill="black" stroke="black" points="546.325,-415.646 535.75,-414.993 543.609,-422.098 546.325,-415.646"/>
</g>
<!-- D13_4 -->
<g id="node34" class="node"><title>D13_4</title>
<polygon fill="white" stroke="black" points="1061.5,-521 849.5,-521 849.5,-485 1061.5,-485 1061.5,-521"/>
<text text-anchor="middle" x="955.5" y="-499.3" font-family="Times,serif" font-size="14.00">DOBJ: &#160;but is still firm to the bite </text>
</g>
<!-- D13_4&#45;&gt;E13 -->
<g id="edge29" class="edge"><title>D13_4&#45;&gt;E13</title>
<path fill="none" stroke="black" d="M871.747,-484.962C793.801,-468.853 674.504,-443.556 571.5,-419 566.231,-417.744 560.748,-416.392 555.278,-415.012"/>
<polygon fill="black" stroke="black" points="556.049,-411.597 545.494,-412.516 554.318,-418.38 556.049,-411.597"/>
</g>
<!-- P14_0_0 -->
<g id="node35" class="node"><title>P14_0_0</title>
<polygon fill="white" stroke="black" points="796.5,-418 580.5,-418 580.5,-382 796.5,-382 796.5,-418"/>
<text text-anchor="middle" x="688.5" y="-396.3" font-family="Times,serif" font-size="14.00">PREP: in a colander set in the sink</text>
</g>
<!-- P14_0_0&#45;&gt;E14 -->
<g id="edge31" class="edge"><title>P14_0_0&#45;&gt;E14</title>
<path fill="none" stroke="black" d="M677.134,-381.697C666.418,-365.383 650.232,-340.742 638.077,-322.237"/>
<polygon fill="black" stroke="black" points="640.891,-320.146 632.476,-313.709 635.041,-323.989 640.891,-320.146"/>
</g>
<!-- D15_ing -->
<g id="node36" class="node"><title>D15_ing</title>
<polygon fill="peachpuff" stroke="black" points="948,-315 701,-315 701,-277 948,-277 948,-315"/>
<text text-anchor="middle" x="824.5" y="-299.8" font-family="Times,serif" font-size="14.00">DOBJ: (16 ounce) container sour cream</text>
<text text-anchor="middle" x="824.5" y="-284.8" font-family="Times,serif" font-size="14.00">(text: the sour cream)</text>
</g>
<!-- D15_ing&#45;&gt;E15 -->
<g id="edge32" class="edge"><title>D15_ing&#45;&gt;E15</title>
<path fill="none" stroke="black" d="M832.188,-276.943C838.914,-261.145 848.768,-237.999 856.358,-220.17"/>
<polygon fill="black" stroke="black" points="859.611,-221.465 860.308,-210.893 853.171,-218.723 859.611,-221.465"/>
</g>
<!-- P15_1_0 -->
<g id="node37" class="node"><title>P15_1_0</title>
<polygon fill="white" stroke="black" points="1181,-314 966,-314 966,-278 1181,-278 1181,-314"/>
<text text-anchor="middle" x="1073.5" y="-292.3" font-family="Times,serif" font-size="14.00">PREP: until thoroughly combined</text>
</g>
<!-- P15_1_0&#45;&gt;E15 -->
<g id="edge34" class="edge"><title>P15_1_0&#45;&gt;E15</title>
<path fill="none" stroke="black" d="M1038.55,-277.867C1001.73,-259.811 943.894,-231.455 905.837,-212.796"/>
<polygon fill="black" stroke="black" points="907.132,-209.533 896.612,-208.273 904.05,-215.818 907.132,-209.533"/>
</g>
</g>
</svg>
