<?xml version="1.0" encoding="UTF-8" standalone="no"?>
<!DOCTYPE svg PUBLIC "-//W3C//DTD SVG 1.1//EN"
 "http://www.w3.org/Graphics/SVG/1.1/DTD/svg11.dtd">
<!-- Generated by graphviz version 2.38.0 (20140413.2041)
 -->
<!-- Title: recipe Pages: 1 -->
<svg width="1517pt" height="706pt"
 viewBox="0.00 0.00 1517.00 706.00" xmlns="http://www.w3.org/2000/svg" xmlns:xlink="http://www.w3.org/1999/xlink">
<g id="graph0" class="graph" transform="scale(1 1) rotate(0) translate(4 702)">
<title>recipe</title>
<polygon fill="white" stroke="none" points="-4,4 -4,-702 1513,-702 1513,4 -4,4"/>
<!-- E0 -->
<g id="node1" class="node"><title>E0</title>
<ellipse fill="azure" stroke="black" cx="1284" cy="-500" rx="61.99" ry="18"/>
<text text-anchor="middle" x="1284" y="-496.3" font-family="Times,serif" font-size="14.00">cover (S0,P0)</text>
</g>
<!-- E1 -->
<g id="node2" class="node"><title>E1</title>
<ellipse fill="azure" stroke="black" cx="1193" cy="-397" rx="61.99" ry="18"/>
<text text-anchor="middle" x="1193" y="-393.3" font-family="Times,serif" font-size="14.00">bring (S1,P0)</text>
</g>
<!-- E0&#45;&gt;E1 -->
<g id="edge6" class="edge"><title>E0&#45;&gt;E1</title>
<path fill="none" stroke="black" d="M1268.97,-482.322C1254.22,-465.947 1231.56,-440.793 1214.82,-422.217"/>
<polygon fill="black" stroke="black" points="1217.34,-419.789 1208.05,-414.703 1212.14,-424.475 1217.34,-419.789"/>
<text text-anchor="middle" x="1291" y="-451.8" font-family="Times,serif" font-size="14.00">OUTPUT: </text>
<text text-anchor="middle" x="1291" y="-436.8" font-family="Times,serif" font-size="14.00">INPUT: water</text>
</g>
<!-- E2 -->
<g id="node3" class="node"><title>E2</title>
<ellipse fill="azure" stroke="black" cx="1043" cy="-295" rx="59.5901" ry="18"/>
<text text-anchor="middle" x="1043" y="-291.3" font-family="Times,serif" font-size="14.00">cook (S1,P1)</text>
</g>
<!-- E1&#45;&gt;E2 -->
<g id="edge8" class="edge"><title>E1&#45;&gt;E2</title>
<path fill="none" stroke="black" d="M1169.23,-380.155C1143.78,-363.185 1103.24,-336.162 1075,-317.332"/>
<polygon fill="black" stroke="black" points="1076.92,-314.406 1066.66,-311.771 1073.04,-320.23 1076.92,-314.406"/>
<text text-anchor="middle" x="1173" y="-349.8" font-family="Times,serif" font-size="14.00">OUTPUT: </text>
<text text-anchor="middle" x="1173" y="-334.8" font-family="Times,serif" font-size="14.00">INPUT: </text>
</g>
<!-- E8 -->
<g id="node9" class="node"><title>E8</title>
<ellipse fill="azure" stroke="black" cx="740" cy="-193" rx="59.2899" ry="18"/>
<text text-anchor="middle" x="740" y="-189.3" font-family="Times,serif" font-size="14.00">bake (S8,P0)</text>
</g>
<!-- E2&#45;&gt;E8 -->
<g id="edge17" class="edge"><title>E2&#45;&gt;E8</title>
<path fill="none" stroke="black" d="M1041.24,-276.734C1038.73,-261.671 1032.66,-240.481 1018,-229 986.563,-204.378 881.112,-196.942 809.508,-194.775"/>
<polygon fill="black" stroke="black" points="809.295,-191.268 799.202,-194.492 809.102,-198.265 809.295,-191.268"/>
<text text-anchor="middle" x="1104.5" y="-247.8" font-family="Times,serif" font-size="14.00">OUTPUT: </text>
<text text-anchor="middle" x="1104.5" y="-232.8" font-family="Times,serif" font-size="14.00">INPUT: for 55 minutes</text>
</g>
<!-- E3 -->
<g id="node4" class="node"><title>E3</title>
<ellipse fill="azure" stroke="black" cx="680" cy="-500" rx="50.0912" ry="18"/>
<text text-anchor="middle" x="680" y="-496.3" font-family="Times,serif" font-size="14.00">let (S2,P0)</text>
</g>
<!-- E4 -->
<g id="node5" class="node"><title>E4</title>
<ellipse fill="azure" stroke="black" cx="699" cy="-397" rx="56.59" ry="18"/>
<text text-anchor="middle" x="699" y="-393.3" font-family="Times,serif" font-size="14.00">beat (S3,P0)</text>
</g>
<!-- E3&#45;&gt;E4 -->
<g id="edge12" class="edge"><title>E3&#45;&gt;E4</title>
<path fill="none" stroke="black" d="M678.147,-481.905C677.186,-468.416 676.94,-449.231 681,-433 681.755,-429.982 682.811,-426.93 684.036,-423.952"/>
<polygon fill="black" stroke="black" points="687.243,-425.358 688.371,-414.823 680.92,-422.356 687.243,-425.358"/>
<text text-anchor="middle" x="772" y="-451.8" font-family="Times,serif" font-size="14.00">OUTPUT: </text>
<text text-anchor="middle" x="772" y="-436.8" font-family="Times,serif" font-size="14.00">INPUT: in a large mixing bowl</text>
</g>
<!-- E5 -->
<g id="node6" class="node"><title>E5</title>
<ellipse fill="azure" stroke="black" cx="737" cy="-295" rx="55.4913" ry="18"/>
<text text-anchor="middle" x="737" y="-291.3" font-family="Times,serif" font-size="14.00">add (S4,P0)</text>
</g>
<!-- E4&#45;&gt;E5 -->
<g id="edge13" class="edge"><title>E4&#45;&gt;E5</title>
<path fill="none" stroke="black" d="M705.446,-379.036C711.315,-363.593 720.076,-340.538 726.878,-322.637"/>
<polygon fill="black" stroke="black" points="730.242,-323.638 730.522,-313.047 723.698,-321.151 730.242,-323.638"/>
<text text-anchor="middle" x="756" y="-349.8" font-family="Times,serif" font-size="14.00">OUTPUT: </text>
<text text-anchor="middle" x="756" y="-334.8" font-family="Times,serif" font-size="14.00">INPUT: </text>
</g>
<!-- E5&#45;&gt;E8 -->
<g id="edge16" class="edge"><title>E5&#45;&gt;E8</title>
<path fill="none" stroke="black" d="M737.523,-276.581C737.979,-261.382 738.648,-239.067 739.176,-221.464"/>
<polygon fill="black" stroke="black" points="742.682,-221.32 739.483,-211.219 735.685,-221.11 742.682,-221.32"/>
<text text-anchor="middle" x="876.5" y="-247.8" font-family="Times,serif" font-size="14.00">OUTPUT: </text>
<text text-anchor="middle" x="876.5" y="-232.8" font-family="Times,serif" font-size="14.00">INPUT: at 350 degrees F &#45;LRB&#45; 175 degrees C</text>
</g>
<!-- E6 -->
<g id="node7" class="node"><title>E6</title>
<ellipse fill="azure" stroke="black" cx="185" cy="-604" rx="55.4913" ry="18"/>
<text text-anchor="middle" x="185" y="-600.3" font-family="Times,serif" font-size="14.00">add (S5,P0)</text>
</g>
<!-- E7 -->
<g id="node8" class="node"><title>E7</title>
<ellipse fill="azure" stroke="black" cx="399" cy="-500" rx="59.5901" ry="18"/>
<text text-anchor="middle" x="399" y="-496.3" font-family="Times,serif" font-size="14.00">pour (S7,P0)</text>
</g>
<!-- E6&#45;&gt;E7 -->
<g id="edge14" class="edge"><title>E6&#45;&gt;E7</title>
<path fill="none" stroke="black" d="M214.756,-588.817C252.446,-570.853 317.516,-539.838 359.381,-519.884"/>
<polygon fill="black" stroke="black" points="360.939,-523.019 368.46,-515.557 357.927,-516.7 360.939,-523.019"/>
<text text-anchor="middle" x="350" y="-555.8" font-family="Times,serif" font-size="14.00">OUTPUT: </text>
<text text-anchor="middle" x="350" y="-540.8" font-family="Times,serif" font-size="14.00">INPUT: </text>
</g>
<!-- E9 -->
<g id="node10" class="node"><title>E9</title>
<ellipse fill="azure" stroke="black" cx="434" cy="-397" rx="60.3893" ry="18"/>
<text text-anchor="middle" x="434" y="-393.3" font-family="Times,serif" font-size="14.00">place (S9,P0)</text>
</g>
<!-- E7&#45;&gt;E9 -->
<g id="edge18" class="edge"><title>E7&#45;&gt;E9</title>
<path fill="none" stroke="black" d="M404.937,-481.867C410.343,-466.269 418.412,-442.983 424.677,-424.903"/>
<polygon fill="black" stroke="black" points="428.066,-425.812 428.034,-415.217 421.452,-423.52 428.066,-425.812"/>
<text text-anchor="middle" x="460" y="-451.8" font-family="Times,serif" font-size="14.00">OUTPUT: </text>
<text text-anchor="middle" x="460" y="-436.8" font-family="Times,serif" font-size="14.00">INPUT: cake</text>
</g>
<!-- E12 -->
<g id="node13" class="node"><title>E12</title>
<ellipse fill="azure" stroke="black" cx="623" cy="-91" rx="63.0888" ry="18"/>
<text text-anchor="middle" x="623" y="-87.3" font-family="Times,serif" font-size="14.00">cake (S13,P0)</text>
</g>
<!-- E8&#45;&gt;E12 -->
<g id="edge23" class="edge"><title>E8&#45;&gt;E12</title>
<path fill="none" stroke="black" d="M738.312,-174.957C736.02,-160.456 730.633,-139.974 718,-127 708.62,-117.366 696.362,-110.365 683.785,-105.283"/>
<polygon fill="black" stroke="black" points="684.74,-101.906 674.147,-101.759 682.337,-108.48 684.74,-101.906"/>
<text text-anchor="middle" x="774" y="-145.8" font-family="Times,serif" font-size="14.00">OUTPUT: </text>
<text text-anchor="middle" x="774" y="-130.8" font-family="Times,serif" font-size="14.00">INPUT: tastes</text>
</g>
<!-- E10 -->
<g id="node11" class="node"><title>E10</title>
<ellipse fill="azure" stroke="black" cx="434" cy="-295" rx="62.2891" ry="18"/>
<text text-anchor="middle" x="434" y="-291.3" font-family="Times,serif" font-size="14.00">allow (S9,P1)</text>
</g>
<!-- E9&#45;&gt;E10 -->
<g id="edge20" class="edge"><title>E9&#45;&gt;E10</title>
<path fill="none" stroke="black" d="M434,-378.581C434,-363.382 434,-341.067 434,-323.464"/>
<polygon fill="black" stroke="black" points="437.5,-323.219 434,-313.219 430.5,-323.219 437.5,-323.219"/>
<text text-anchor="middle" x="466" y="-349.8" font-family="Times,serif" font-size="14.00">OUTPUT: </text>
<text text-anchor="middle" x="466" y="-334.8" font-family="Times,serif" font-size="14.00">INPUT: </text>
</g>
<!-- E11 -->
<g id="node12" class="node"><title>E11</title>
<ellipse fill="azure" stroke="black" cx="506" cy="-193" rx="70.6878" ry="18"/>
<text text-anchor="middle" x="506" y="-189.3" font-family="Times,serif" font-size="14.00">spread (S12,P0)</text>
</g>
<!-- E10&#45;&gt;E11 -->
<g id="edge21" class="edge"><title>E10&#45;&gt;E11</title>
<path fill="none" stroke="black" d="M446.214,-277.036C457.592,-261.234 474.708,-237.461 487.714,-219.397"/>
<polygon fill="black" stroke="black" points="490.724,-221.207 493.726,-211.047 485.043,-217.117 490.724,-221.207"/>
<text text-anchor="middle" x="513" y="-247.8" font-family="Times,serif" font-size="14.00">OUTPUT: </text>
<text text-anchor="middle" x="513" y="-232.8" font-family="Times,serif" font-size="14.00">INPUT: </text>
</g>
<!-- E11&#45;&gt;E12 -->
<g id="edge24" class="edge"><title>E11&#45;&gt;E12</title>
<path fill="none" stroke="black" d="M499.735,-175.053C495.648,-160.809 492.765,-140.646 503,-127 514.698,-111.403 532.964,-102.442 551.748,-97.3815"/>
<polygon fill="black" stroke="black" points="552.648,-100.765 561.586,-95.0759 551.051,-93.9501 552.648,-100.765"/>
<text text-anchor="middle" x="608.5" y="-145.8" font-family="Times,serif" font-size="14.00">OUTPUT: </text>
<text text-anchor="middle" x="608.5" y="-130.8" font-family="Times,serif" font-size="14.00">INPUT: after refrigerating overnight</text>
</g>
<!-- EOR -->
<g id="node26" class="node"><title>EOR</title>
<ellipse fill="plum" stroke="black" cx="623" cy="-18" rx="57.3905" ry="18"/>
<text text-anchor="middle" x="623" y="-14.3" font-family="Times,serif" font-size="14.00">Bon appetit!</text>
</g>
<!-- E12&#45;&gt;EOR -->
<g id="edge25" class="edge"><title>E12&#45;&gt;EOR</title>
<path fill="none" stroke="black" d="M623,-72.8129C623,-64.7895 623,-55.0475 623,-46.0691"/>
<polygon fill="black" stroke="black" points="626.5,-46.0288 623,-36.0288 619.5,-46.0289 626.5,-46.0288"/>
</g>
<!-- D3 -->
<g id="node14" class="node"><title>D3</title>
<polygon fill="white" stroke="black" points="751.5,-622 608.5,-622 608.5,-586 751.5,-586 751.5,-622"/>
<text text-anchor="middle" x="680" y="-600.3" font-family="Times,serif" font-size="14.00">DOBJ: cool and mash</text>
</g>
<!-- D3&#45;&gt;E3 -->
<g id="edge1" class="edge"><title>D3&#45;&gt;E3</title>
<path fill="none" stroke="black" d="M680,-585.697C680,-569.923 680,-546.364 680,-528.094"/>
<polygon fill="black" stroke="black" points="683.5,-528.047 680,-518.047 676.5,-528.047 683.5,-528.047"/>
</g>
<!-- D0 -->
<g id="node15" class="node"><title>D0</title>
<polygon fill="peachpuff" stroke="black" points="1180.5,-623 1081.5,-623 1081.5,-585 1180.5,-585 1180.5,-623"/>
<text text-anchor="middle" x="1131" y="-607.8" font-family="Times,serif" font-size="14.00">DOBJ: carrots</text>
<text text-anchor="middle" x="1131" y="-592.8" font-family="Times,serif" font-size="14.00">(text: carrots)</text>
</g>
<!-- D0&#45;&gt;E0 -->
<g id="edge2" class="edge"><title>D0&#45;&gt;E0</title>
<path fill="none" stroke="black" d="M1158,-584.999C1184.17,-567.556 1223.87,-541.088 1251.7,-522.536"/>
<polygon fill="black" stroke="black" points="1253.9,-525.272 1260.28,-516.812 1250.02,-519.447 1253.9,-525.272"/>
</g>
<!-- P0_0 -->
<g id="node16" class="node"><title>P0_0</title>
<polygon fill="white" stroke="black" points="1369,-622 1199,-622 1199,-586 1369,-586 1369,-622"/>
<text text-anchor="middle" x="1284" y="-600.3" font-family="Times,serif" font-size="14.00">PREP: in a small saucepan</text>
</g>
<!-- P0_0&#45;&gt;E0 -->
<g id="edge3" class="edge"><title>P0_0&#45;&gt;E0</title>
<path fill="none" stroke="black" d="M1284,-585.697C1284,-569.923 1284,-546.364 1284,-528.094"/>
<polygon fill="black" stroke="black" points="1287.5,-528.047 1284,-518.047 1280.5,-528.047 1287.5,-528.047"/>
</g>
<!-- P0_1 -->
<g id="node17" class="node"><title>P0_1</title>
<polygon fill="white" stroke="black" points="1509,-622 1387,-622 1387,-586 1509,-586 1509,-622"/>
<text text-anchor="middle" x="1448" y="-600.3" font-family="Times,serif" font-size="14.00">PREP: with water</text>
</g>
<!-- P0_1&#45;&gt;E0 -->
<g id="edge4" class="edge"><title>P0_1&#45;&gt;E0</title>
<path fill="none" stroke="black" d="M1420.55,-585.927C1392.25,-568.326 1348.08,-540.857 1317.69,-521.951"/>
<polygon fill="black" stroke="black" points="1319.46,-518.93 1309.12,-516.62 1315.76,-524.874 1319.46,-518.93"/>
</g>
<!-- D6 -->
<g id="node18" class="node"><title>D6</title>
<polygon fill="peachpuff" stroke="black" points="370,-698 0,-698 0,-660 370,-660 370,-698"/>
<text text-anchor="middle" x="185" y="-682.8" font-family="Times,serif" font-size="14.00">DOBJ: ground cinnamon, all&#45;purpose flour, salt, baking soda</text>
<text text-anchor="middle" x="185" y="-667.8" font-family="Times,serif" font-size="14.00">(text: flour , baking soda , ground cinnamon and salt)</text>
</g>
<!-- D6&#45;&gt;E6 -->
<g id="edge5" class="edge"><title>D6&#45;&gt;E6</title>
<path fill="none" stroke="black" d="M185,-659.955C185,-651.701 185,-641.738 185,-632.574"/>
<polygon fill="black" stroke="black" points="188.5,-632.335 185,-622.335 181.5,-632.335 188.5,-632.335"/>
</g>
<!-- P1_0_0 -->
<g id="node19" class="node"><title>P1_0_0</title>
<polygon fill="white" stroke="black" points="1204.5,-518 1097.5,-518 1097.5,-482 1204.5,-482 1204.5,-518"/>
<text text-anchor="middle" x="1151" y="-496.3" font-family="Times,serif" font-size="14.00">PREP: to a boil</text>
</g>
<!-- P1_0_0&#45;&gt;E1 -->
<g id="edge7" class="edge"><title>P1_0_0&#45;&gt;E1</title>
<path fill="none" stroke="black" d="M1158.12,-481.867C1164.64,-466.196 1174.38,-442.766 1181.92,-424.651"/>
<polygon fill="black" stroke="black" points="1185.23,-425.795 1185.84,-415.217 1178.77,-423.107 1185.23,-425.795"/>
</g>
<!-- P2_0_0 -->
<g id="node20" class="node"><title>P2_0_0</title>
<polygon fill="white" stroke="black" points="966.5,-415 773.5,-415 773.5,-379 966.5,-379 966.5,-415"/>
<text text-anchor="middle" x="870" y="-393.3" font-family="Times,serif" font-size="14.00">PREP: until &#160;about 15 minutes</text>
</g>
<!-- P2_0_0&#45;&gt;E2 -->
<g id="edge9" class="edge"><title>P2_0_0&#45;&gt;E2</title>
<path fill="none" stroke="black" d="M899.74,-378.809C929.635,-361.529 975.726,-334.887 1007.51,-316.512"/>
<polygon fill="black" stroke="black" points="1009.57,-319.364 1016.48,-311.329 1006.07,-313.303 1009.57,-319.364"/>
</g>
<!-- P2_0_1 -->
<g id="node21" class="node"><title>P2_0_1</title>
<polygon fill="white" stroke="black" points="1113.5,-415 984.5,-415 984.5,-379 1113.5,-379 1113.5,-415"/>
<text text-anchor="middle" x="1049" y="-393.3" font-family="Times,serif" font-size="14.00">PREP: until tender </text>
</g>
<!-- P2_0_1&#45;&gt;E2 -->
<g id="edge10" class="edge"><title>P2_0_1&#45;&gt;E2</title>
<path fill="none" stroke="black" d="M1047.95,-378.581C1047.04,-363.382 1045.7,-341.067 1044.65,-323.464"/>
<polygon fill="black" stroke="black" points="1048.13,-322.991 1044.03,-313.219 1041.14,-323.411 1048.13,-322.991"/>
</g>
<!-- D4_ing -->
<g id="node22" class="node"><title>D4_ing</title>
<polygon fill="peachpuff" stroke="black" points="920,-519 834,-519 834,-481 920,-481 920,-519"/>
<text text-anchor="middle" x="877" y="-503.8" font-family="Times,serif" font-size="14.00">DOBJ: eggs</text>
<text text-anchor="middle" x="877" y="-488.8" font-family="Times,serif" font-size="14.00">(text: eggs)</text>
</g>
<!-- D4_ing&#45;&gt;E4 -->
<g id="edge11" class="edge"><title>D4_ing&#45;&gt;E4</title>
<path fill="none" stroke="black" d="M878.27,-480.72C878.244,-465.797 875.604,-445.241 863,-433 830.919,-401.842 807.665,-424.665 764,-415 759.589,-414.024 755.024,-412.953 750.454,-411.84"/>
<polygon fill="black" stroke="black" points="751.047,-408.381 740.497,-409.354 749.351,-415.172 751.047,-408.381"/>
</g>
<!-- P7_0_0 -->
<g id="node23" class="node"><title>P7_0_0</title>
<polygon fill="white" stroke="black" points="587.5,-622 258.5,-622 258.5,-586 587.5,-586 587.5,-622"/>
<text text-anchor="middle" x="423" y="-600.3" font-family="Times,serif" font-size="14.00">PREP: into paper towel&#45;lined 13 x 9 x 2&#45;1/2 inch pan</text>
</g>
<!-- P7_0_0&#45;&gt;E7 -->
<g id="edge15" class="edge"><title>P7_0_0&#45;&gt;E7</title>
<path fill="none" stroke="black" d="M418.929,-585.697C415.2,-569.849 409.622,-546.143 405.315,-527.838"/>
<polygon fill="black" stroke="black" points="408.709,-526.98 403.011,-518.047 401.895,-528.583 408.709,-526.98"/>
</g>
<!-- P9_0_0 -->
<g id="node24" class="node"><title>P9_0_0</title>
<polygon fill="white" stroke="black" points="591.5,-518 476.5,-518 476.5,-482 591.5,-482 591.5,-518"/>
<text text-anchor="middle" x="534" y="-496.3" font-family="Times,serif" font-size="14.00">PREP: on a plate</text>
</g>
<!-- P9_0_0&#45;&gt;E9 -->
<g id="edge19" class="edge"><title>P9_0_0&#45;&gt;E9</title>
<path fill="none" stroke="black" d="M529.046,-481.742C524.153,-467.248 515.433,-446.758 502,-433 495.529,-426.372 487.534,-420.757 479.328,-416.096"/>
<polygon fill="black" stroke="black" points="480.882,-412.959 470.401,-411.409 477.628,-419.156 480.882,-412.959"/>
</g>
<!-- P11_0_0 -->
<g id="node25" class="node"><title>P11_0_0</title>
<polygon fill="white" stroke="black" points="660,-313 514,-313 514,-277 660,-277 660,-313"/>
<text text-anchor="middle" x="587" y="-291.3" font-family="Times,serif" font-size="14.00">PREP: on cooled cake</text>
</g>
<!-- P11_0_0&#45;&gt;E11 -->
<g id="edge22" class="edge"><title>P11_0_0&#45;&gt;E11</title>
<path fill="none" stroke="black" d="M579.137,-276.9C572.32,-263.122 561.586,-243.693 549,-229 545.321,-224.705 541.066,-220.538 536.693,-216.667"/>
<polygon fill="black" stroke="black" points="538.708,-213.789 528.793,-210.053 534.214,-219.156 538.708,-213.789"/>
</g>
</g>
</svg>
