<?xml version="1.0" encoding="UTF-8" standalone="no"?>
<!DOCTYPE svg PUBLIC "-//W3C//DTD SVG 1.1//EN"
 "http://www.w3.org/Graphics/SVG/1.1/DTD/svg11.dtd">
<!-- Generated by graphviz version 2.38.0 (20140413.2041)
 -->
<!-- Title: recipe Pages: 1 -->
<svg width="1317pt" height="810pt"
 viewBox="0.00 0.00 1317.00 810.00" xmlns="http://www.w3.org/2000/svg" xmlns:xlink="http://www.w3.org/1999/xlink">
<g id="graph0" class="graph" transform="scale(1 1) rotate(0) translate(4 806)">
<title>recipe</title>
<polygon fill="white" stroke="none" points="-4,4 -4,-806 1313,-806 1313,4 -4,4"/>
<!-- E0 -->
<g id="node1" class="node"><title>E0</title>
<ellipse fill="azure" stroke="black" cx="1083.5" cy="-708" rx="57.6901" ry="18"/>
<text text-anchor="middle" x="1083.5" y="-704.3" font-family="Times,serif" font-size="14.00">melt (S0,P0)</text>
</g>
<!-- E1 -->
<g id="node2" class="node"><title>E1</title>
<ellipse fill="azure" stroke="black" cx="898.5" cy="-605" rx="90.1842" ry="18"/>
<text text-anchor="middle" x="898.5" y="-601.3" font-family="Times,serif" font-size="14.00">cook and stir (S1,P0)</text>
</g>
<!-- E0&#45;&gt;E1 -->
<g id="edge4" class="edge"><title>E0&#45;&gt;E1</title>
<path fill="none" stroke="black" d="M1056.2,-692.097C1024.74,-674.92 972.802,-646.565 937.185,-627.12"/>
<polygon fill="black" stroke="black" points="938.508,-623.855 928.054,-622.135 935.154,-629.999 938.508,-623.855"/>
<text text-anchor="middle" x="1073" y="-659.8" font-family="Times,serif" font-size="14.00">OUTPUT: </text>
<text text-anchor="middle" x="1073" y="-644.8" font-family="Times,serif" font-size="14.00">INPUT: in hot butter</text>
</g>
<!-- E2 -->
<g id="node3" class="node"><title>E2</title>
<ellipse fill="azure" stroke="black" cx="782.5" cy="-503" rx="69.5877" ry="18"/>
<text text-anchor="middle" x="782.5" y="-499.3" font-family="Times,serif" font-size="14.00">remove (S2,P0)</text>
</g>
<!-- E1&#45;&gt;E2 -->
<g id="edge5" class="edge"><title>E1&#45;&gt;E2</title>
<path fill="none" stroke="black" d="M879.084,-587.262C859.983,-570.795 830.662,-545.519 809.337,-527.135"/>
<polygon fill="black" stroke="black" points="811.453,-524.338 801.593,-520.46 806.882,-529.64 811.453,-524.338"/>
<text text-anchor="middle" x="889.5" y="-557.8" font-family="Times,serif" font-size="14.00">OUTPUT: </text>
<text text-anchor="middle" x="889.5" y="-542.8" font-family="Times,serif" font-size="14.00">INPUT: </text>
</g>
<!-- E3 -->
<g id="node4" class="node"><title>E3</title>
<ellipse fill="azure" stroke="black" cx="661.5" cy="-400" rx="69.5877" ry="18"/>
<text text-anchor="middle" x="661.5" y="-396.3" font-family="Times,serif" font-size="14.00">transfer (S2,P1)</text>
</g>
<!-- E2&#45;&gt;E3 -->
<g id="edge7" class="edge"><title>E2&#45;&gt;E3</title>
<path fill="none" stroke="black" d="M762.79,-485.548C742.75,-468.82 711.534,-442.764 689.052,-423.998"/>
<polygon fill="black" stroke="black" points="691.121,-421.166 681.202,-417.445 686.636,-426.54 691.121,-421.166"/>
<text text-anchor="middle" x="771.5" y="-455.8" font-family="Times,serif" font-size="14.00">OUTPUT: </text>
<text text-anchor="middle" x="771.5" y="-440.8" font-family="Times,serif" font-size="14.00">INPUT: </text>
</g>
<!-- E4 -->
<g id="node5" class="node"><title>E4</title>
<ellipse fill="azure" stroke="black" cx="388.5" cy="-296" rx="53.0913" ry="18"/>
<text text-anchor="middle" x="388.5" y="-292.3" font-family="Times,serif" font-size="14.00">stir (S3,P0)</text>
</g>
<!-- E3&#45;&gt;E4 -->
<g id="edge9" class="edge"><title>E3&#45;&gt;E4</title>
<path fill="none" stroke="black" d="M623.541,-384.817C573.474,-366.111 485.535,-333.255 432.582,-313.47"/>
<polygon fill="black" stroke="black" points="433.711,-310.156 423.119,-309.935 431.261,-316.713 433.711,-310.156"/>
<text text-anchor="middle" x="624" y="-351.8" font-family="Times,serif" font-size="14.00">OUTPUT: </text>
<text text-anchor="middle" x="624" y="-336.8" font-family="Times,serif" font-size="14.00">INPUT: ramen noodles</text>
</g>
<!-- E5 -->
<g id="node6" class="node"><title>E5</title>
<ellipse fill="azure" stroke="black" cx="223.5" cy="-193" rx="64.189" ry="18"/>
<text text-anchor="middle" x="223.5" y="-189.3" font-family="Times,serif" font-size="14.00">whisk (S4,P0)</text>
</g>
<!-- E4&#45;&gt;E5 -->
<g id="edge13" class="edge"><title>E4&#45;&gt;E5</title>
<path fill="none" stroke="black" d="M363.798,-279.879C335.65,-262.65 289.464,-234.378 257.826,-215.012"/>
<polygon fill="black" stroke="black" points="259.27,-211.792 248.914,-209.556 255.616,-217.762 259.27,-211.792"/>
<text text-anchor="middle" x="402.5" y="-247.8" font-family="Times,serif" font-size="14.00">OUTPUT: </text>
<text text-anchor="middle" x="402.5" y="-232.8" font-family="Times,serif" font-size="14.00">INPUT: in a separate bowl</text>
</g>
<!-- E6 -->
<g id="node7" class="node"><title>E6</title>
<ellipse fill="azure" stroke="black" cx="223.5" cy="-91" rx="59.5901" ry="18"/>
<text text-anchor="middle" x="223.5" y="-87.3" font-family="Times,serif" font-size="14.00">pour (S5,P0)</text>
</g>
<!-- E5&#45;&gt;E6 -->
<g id="edge14" class="edge"><title>E5&#45;&gt;E6</title>
<path fill="none" stroke="black" d="M223.5,-174.581C223.5,-159.382 223.5,-137.067 223.5,-119.464"/>
<polygon fill="black" stroke="black" points="227,-119.219 223.5,-109.219 220,-119.219 227,-119.219"/>
<text text-anchor="middle" x="255.5" y="-145.8" font-family="Times,serif" font-size="14.00">OUTPUT: </text>
<text text-anchor="middle" x="255.5" y="-130.8" font-family="Times,serif" font-size="14.00">INPUT: </text>
</g>
<!-- EOR -->
<g id="node16" class="node"><title>EOR</title>
<ellipse fill="plum" stroke="black" cx="223.5" cy="-18" rx="57.3905" ry="18"/>
<text text-anchor="middle" x="223.5" y="-14.3" font-family="Times,serif" font-size="14.00">Bon appetit!</text>
</g>
<!-- E6&#45;&gt;EOR -->
<g id="edge15" class="edge"><title>E6&#45;&gt;EOR</title>
<path fill="none" stroke="black" d="M223.5,-72.8129C223.5,-64.7895 223.5,-55.0475 223.5,-46.0691"/>
<polygon fill="black" stroke="black" points="227,-46.0288 223.5,-36.0288 220,-46.0289 227,-46.0288"/>
</g>
<!-- D0 -->
<g id="node8" class="node"><title>D0</title>
<polygon fill="peachpuff" stroke="black" points="1033.5,-802 939.5,-802 939.5,-764 1033.5,-764 1033.5,-802"/>
<text text-anchor="middle" x="986.5" y="-786.8" font-family="Times,serif" font-size="14.00">DOBJ: butter</text>
<text text-anchor="middle" x="986.5" y="-771.8" font-family="Times,serif" font-size="14.00">(text: butter)</text>
</g>
<!-- D0&#45;&gt;E0 -->
<g id="edge1" class="edge"><title>D0&#45;&gt;E0</title>
<path fill="none" stroke="black" d="M1010.48,-763.955C1023.67,-754.025 1040.15,-741.622 1054.12,-731.113"/>
<polygon fill="black" stroke="black" points="1056.55,-733.664 1062.43,-724.854 1052.34,-728.071 1056.55,-733.664"/>
</g>
<!-- P0_0 -->
<g id="node9" class="node"><title>P0_0</title>
<polygon fill="white" stroke="black" points="1309,-801 1052,-801 1052,-765 1309,-765 1309,-801"/>
<text text-anchor="middle" x="1180.5" y="-779.3" font-family="Times,serif" font-size="14.00">PREP: in a large skillet over medium heat</text>
</g>
<!-- P0_0&#45;&gt;E0 -->
<g id="edge2" class="edge"><title>P0_0&#45;&gt;E0</title>
<path fill="none" stroke="black" d="M1157.51,-764.7C1144.12,-754.62 1127.1,-741.809 1112.75,-731.015"/>
<polygon fill="black" stroke="black" points="1114.76,-728.145 1104.67,-724.929 1110.55,-733.738 1114.76,-728.145"/>
</g>
<!-- D1_ing -->
<g id="node10" class="node"><title>D1_ing</title>
<polygon fill="peachpuff" stroke="black" points="1007.5,-727 643.5,-727 643.5,-689 1007.5,-689 1007.5,-727"/>
<text text-anchor="middle" x="825.5" y="-711.8" font-family="Times,serif" font-size="14.00">DOBJ: sunflower kernels, (3 ounce) package ramen noodles</text>
<text text-anchor="middle" x="825.5" y="-696.8" font-family="Times,serif" font-size="14.00">(text: sunflower kernels, ramen noodles)</text>
</g>
<!-- D1_ing&#45;&gt;E1 -->
<g id="edge3" class="edge"><title>D1_ing&#45;&gt;E1</title>
<path fill="none" stroke="black" d="M838.551,-688.943C850.181,-672.852 867.32,-649.14 880.297,-631.185"/>
<polygon fill="black" stroke="black" points="883.269,-633.048 886.29,-622.893 877.596,-628.947 883.269,-633.048"/>
</g>
<!-- P2_0_0 -->
<g id="node11" class="node"><title>P2_0_0</title>
<polygon fill="white" stroke="black" points="790,-623 675,-623 675,-587 790,-587 790,-623"/>
<text text-anchor="middle" x="732.5" y="-601.3" font-family="Times,serif" font-size="14.00">PREP: from heat</text>
</g>
<!-- P2_0_0&#45;&gt;E2 -->
<g id="edge6" class="edge"><title>P2_0_0&#45;&gt;E2</title>
<path fill="none" stroke="black" d="M741.209,-586.581C749,-571 760.528,-547.943 769.425,-530.149"/>
<polygon fill="black" stroke="black" points="772.715,-531.395 774.057,-520.886 766.454,-528.265 772.715,-531.395"/>
</g>
<!-- P3_0_0 -->
<g id="node12" class="node"><title>P3_0_0</title>
<polygon fill="white" stroke="black" points="695,-521 526,-521 526,-485 695,-485 695,-521"/>
<text text-anchor="middle" x="610.5" y="-499.3" font-family="Times,serif" font-size="14.00">PREP: into a bowl to cool</text>
</g>
<!-- P3_0_0&#45;&gt;E3 -->
<g id="edge8" class="edge"><title>P3_0_0&#45;&gt;E3</title>
<path fill="none" stroke="black" d="M619.151,-484.867C627.186,-468.955 639.26,-445.044 648.462,-426.82"/>
<polygon fill="black" stroke="black" points="651.593,-428.384 652.976,-417.88 645.345,-425.229 651.593,-428.384"/>
</g>
<!-- D4_1 -->
<g id="node13" class="node"><title>D4_1</title>
<polygon fill="white" stroke="black" points="184.5,-418 32.5,-418 32.5,-382 184.5,-382 184.5,-418"/>
<text text-anchor="middle" x="108.5" y="-396.3" font-family="Times,serif" font-size="14.00">DOBJ: sunflower seeds</text>
</g>
<!-- D4_1&#45;&gt;E4 -->
<g id="edge10" class="edge"><title>D4_1&#45;&gt;E4</title>
<path fill="none" stroke="black" d="M155.366,-381.927C207.872,-362.8 292.364,-332.021 343.919,-313.24"/>
<polygon fill="black" stroke="black" points="345.261,-316.476 353.459,-309.765 342.865,-309.899 345.261,-316.476"/>
</g>
<!-- P4_0_ing -->
<g id="node14" class="node"><title>P4_0_ing</title>
<polygon fill="peachpuff" stroke="black" points="574,-419 203,-419 203,-381 574,-381 574,-419"/>
<text text-anchor="middle" x="388.5" y="-403.8" font-family="Times,serif" font-size="14.00">PREP: with head napa cabbage, spring onions</text>
<text text-anchor="middle" x="388.5" y="-388.8" font-family="Times,serif" font-size="14.00">(text: with napa cabbage, spring onions in a large salad bowl)</text>
</g>
<!-- P4_0_ing&#45;&gt;E4 -->
<g id="edge11" class="edge"><title>P4_0_ing&#45;&gt;E4</title>
<path fill="none" stroke="black" d="M388.5,-380.764C388.5,-365.031 388.5,-342.083 388.5,-324.183"/>
<polygon fill="black" stroke="black" points="392,-324.06 388.5,-314.06 385,-324.06 392,-324.06"/>
</g>
<!-- D5_ing -->
<g id="node15" class="node"><title>D5_ing</title>
<polygon fill="peachpuff" stroke="black" points="317,-315 0,-315 0,-277 317,-277 317,-315"/>
<text text-anchor="middle" x="158.5" y="-299.8" font-family="Times,serif" font-size="14.00">DOBJ: vegetable oil, white sugar, vinegar, soy sauce</text>
<text text-anchor="middle" x="158.5" y="-284.8" font-family="Times,serif" font-size="14.00">(text: &#160;vegetable oil , soy sauce, &#160;sugar , vinegar )</text>
</g>
<!-- D5_ing&#45;&gt;E5 -->
<g id="edge12" class="edge"><title>D5_ing&#45;&gt;E5</title>
<path fill="none" stroke="black" d="M170.121,-276.943C180.382,-260.998 195.46,-237.57 206.976,-219.676"/>
<polygon fill="black" stroke="black" points="210.16,-221.196 212.628,-210.893 204.273,-217.408 210.16,-221.196"/>
</g>
</g>
</svg>
