<?xml version="1.0" encoding="UTF-8" standalone="no"?>
<!DOCTYPE svg PUBLIC "-//W3C//DTD SVG 1.1//EN"
 "http://www.w3.org/Graphics/SVG/1.1/DTD/svg11.dtd">
<!-- Generated by graphviz version 2.38.0 (20140413.2041)
 -->
<!-- Title: recipe Pages: 1 -->
<svg width="2872pt" height="2344pt"
 viewBox="0.00 0.00 2872.00 2344.00" xmlns="http://www.w3.org/2000/svg" xmlns:xlink="http://www.w3.org/1999/xlink">
<g id="graph0" class="graph" transform="scale(1 1) rotate(0) translate(4 2340)">
<title>recipe</title>
<polygon fill="white" stroke="none" points="-4,4 -4,-2340 2868,-2340 2868,4 -4,4"/>
<!-- E0 -->
<g id="node1" class="node"><title>E0</title>
<ellipse fill="azure" stroke="black" cx="2715" cy="-2243" rx="60.3893" ry="18"/>
<text text-anchor="middle" x="2715" y="-2239.3" font-family="Times,serif" font-size="14.00">place (S0,P0)</text>
</g>
<!-- E1 -->
<g id="node2" class="node"><title>E1</title>
<ellipse fill="azure" stroke="black" cx="2606" cy="-2141" rx="61.99" ry="18"/>
<text text-anchor="middle" x="2606" y="-2137.3" font-family="Times,serif" font-size="14.00">cover (S0,P1)</text>
</g>
<!-- E0&#45;&gt;E1 -->
<g id="edge9" class="edge"><title>E0&#45;&gt;E1</title>
<path fill="none" stroke="black" d="M2697,-2225.49C2679.17,-2209.13 2651.7,-2183.92 2631.6,-2165.49"/>
<polygon fill="black" stroke="black" points="2633.76,-2162.72 2624.03,-2158.54 2629.03,-2167.88 2633.76,-2162.72"/>
<text text-anchor="middle" x="2708" y="-2195.8" font-family="Times,serif" font-size="14.00">OUTPUT: </text>
<text text-anchor="middle" x="2708" y="-2180.8" font-family="Times,serif" font-size="14.00">INPUT: </text>
</g>
<!-- E2 -->
<g id="node3" class="node"><title>E2</title>
<ellipse fill="azure" stroke="black" cx="2461" cy="-2038" rx="100.983" ry="18"/>
<text text-anchor="middle" x="2461" y="-2034.3" font-family="Times,serif" font-size="14.00">drain and allow (S2,P0)</text>
</g>
<!-- E1&#45;&gt;E2 -->
<g id="edge11" class="edge"><title>E1&#45;&gt;E2</title>
<path fill="none" stroke="black" d="M2583.34,-2124.22C2559.19,-2107.4 2520.75,-2080.62 2493.4,-2061.57"/>
<polygon fill="black" stroke="black" points="2495.15,-2058.52 2484.94,-2055.68 2491.15,-2064.27 2495.15,-2058.52"/>
<text text-anchor="middle" x="2586" y="-2093.8" font-family="Times,serif" font-size="14.00">OUTPUT: </text>
<text text-anchor="middle" x="2586" y="-2078.8" font-family="Times,serif" font-size="14.00">INPUT: </text>
</g>
<!-- E3 -->
<g id="node4" class="node"><title>E3</title>
<ellipse fill="azure" stroke="black" cx="2234" cy="-1935" rx="60.3893" ry="18"/>
<text text-anchor="middle" x="2234" y="-1931.3" font-family="Times,serif" font-size="14.00">place (S3,P0)</text>
</g>
<!-- E2&#45;&gt;E3 -->
<g id="edge13" class="edge"><title>E2&#45;&gt;E3</title>
<path fill="none" stroke="black" d="M2425.28,-2021.11C2384.65,-2003.03 2318.41,-1973.56 2275.52,-1954.47"/>
<polygon fill="black" stroke="black" points="2276.77,-1951.2 2266.21,-1950.33 2273.92,-1957.59 2276.77,-1951.2"/>
<text text-anchor="middle" x="2433" y="-1989.8" font-family="Times,serif" font-size="14.00">OUTPUT: </text>
<text text-anchor="middle" x="2433" y="-1974.8" font-family="Times,serif" font-size="14.00">INPUT: the potatoes</text>
</g>
<!-- E6 -->
<g id="node7" class="node"><title>E6</title>
<ellipse fill="azure" stroke="black" cx="2130" cy="-1833" rx="51.9908" ry="18"/>
<text text-anchor="middle" x="2130" y="-1829.3" font-family="Times,serif" font-size="14.00">fill (S5,P1)</text>
</g>
<!-- E3&#45;&gt;E6 -->
<g id="edge16" class="edge"><title>E3&#45;&gt;E6</title>
<path fill="none" stroke="black" d="M2216.83,-1917.49C2199.71,-1901.03 2173.29,-1875.62 2154.08,-1857.16"/>
<polygon fill="black" stroke="black" points="2156.49,-1854.61 2146.85,-1850.21 2151.64,-1859.66 2156.49,-1854.61"/>
<text text-anchor="middle" x="2253" y="-1887.8" font-family="Times,serif" font-size="14.00">OUTPUT: </text>
<text text-anchor="middle" x="2253" y="-1872.8" font-family="Times,serif" font-size="14.00">INPUT: with water</text>
</g>
<!-- E4 -->
<g id="node5" class="node"><title>E4</title>
<ellipse fill="azure" stroke="black" cx="1058" cy="-1015" rx="59.5901" ry="18"/>
<text text-anchor="middle" x="1058" y="-1011.3" font-family="Times,serif" font-size="14.00">grate (S4,P0)</text>
</g>
<!-- E15 -->
<g id="node16" class="node"><title>E15</title>
<ellipse fill="azure" stroke="black" cx="1297" cy="-913" rx="65.7887" ry="18"/>
<text text-anchor="middle" x="1297" y="-909.3" font-family="Times,serif" font-size="14.00">place (S11,P0)</text>
</g>
<!-- E4&#45;&gt;E15 -->
<g id="edge32" class="edge"><title>E4&#45;&gt;E15</title>
<path fill="none" stroke="black" d="M1058.17,-996.966C1059.3,-982.058 1063.41,-960.967 1077,-949 1098.28,-930.26 1167.35,-921.505 1222.49,-917.445"/>
<polygon fill="black" stroke="black" points="1222.88,-920.927 1232.61,-916.74 1222.39,-913.944 1222.88,-920.927"/>
<text text-anchor="middle" x="1157" y="-967.8" font-family="Times,serif" font-size="14.00">OUTPUT: </text>
<text text-anchor="middle" x="1157" y="-952.8" font-family="Times,serif" font-size="14.00">INPUT: into the salad bowl</text>
</g>
<!-- E5 -->
<g id="node6" class="node"><title>E5</title>
<ellipse fill="azure" stroke="black" cx="1987" cy="-1935" rx="60.3893" ry="18"/>
<text text-anchor="middle" x="1987" y="-1931.3" font-family="Times,serif" font-size="14.00">place (S5,P0)</text>
</g>
<!-- E5&#45;&gt;E6 -->
<g id="edge15" class="edge"><title>E5&#45;&gt;E6</title>
<path fill="none" stroke="black" d="M2009.66,-1918.15C2033.96,-1901.16 2072.69,-1874.08 2099.62,-1855.24"/>
<polygon fill="black" stroke="black" points="2101.73,-1858.04 2107.92,-1849.44 2097.72,-1852.31 2101.73,-1858.04"/>
<text text-anchor="middle" x="2111" y="-1887.8" font-family="Times,serif" font-size="14.00">OUTPUT: </text>
<text text-anchor="middle" x="2111" y="-1872.8" font-family="Times,serif" font-size="14.00">INPUT: </text>
</g>
<!-- E7 -->
<g id="node8" class="node"><title>E7</title>
<ellipse fill="azure" stroke="black" cx="2130" cy="-1731" rx="61.99" ry="18"/>
<text text-anchor="middle" x="2130" y="-1727.3" font-family="Times,serif" font-size="14.00">cover (S6,P0)</text>
</g>
<!-- E6&#45;&gt;E7 -->
<g id="edge17" class="edge"><title>E6&#45;&gt;E7</title>
<path fill="none" stroke="black" d="M2130,-1814.58C2130,-1799.38 2130,-1777.07 2130,-1759.46"/>
<polygon fill="black" stroke="black" points="2133.5,-1759.22 2130,-1749.22 2126.5,-1759.22 2133.5,-1759.22"/>
<text text-anchor="middle" x="2191.5" y="-1785.8" font-family="Times,serif" font-size="14.00">OUTPUT: </text>
<text text-anchor="middle" x="2191.5" y="-1770.8" font-family="Times,serif" font-size="14.00">INPUT: the saucepan</text>
</g>
<!-- E8 -->
<g id="node9" class="node"><title>E8</title>
<ellipse fill="azure" stroke="black" cx="2006" cy="-1629" rx="61.99" ry="18"/>
<text text-anchor="middle" x="2006" y="-1625.3" font-family="Times,serif" font-size="14.00">bring (S6,P1)</text>
</g>
<!-- E7&#45;&gt;E8 -->
<g id="edge18" class="edge"><title>E7&#45;&gt;E8</title>
<path fill="none" stroke="black" d="M2110.08,-1713.93C2089.59,-1697.41 2057.5,-1671.53 2034.36,-1652.87"/>
<polygon fill="black" stroke="black" points="2036.27,-1649.91 2026.29,-1646.36 2031.87,-1655.36 2036.27,-1649.91"/>
<text text-anchor="middle" x="2137.5" y="-1683.8" font-family="Times,serif" font-size="14.00">OUTPUT: </text>
<text text-anchor="middle" x="2137.5" y="-1668.8" font-family="Times,serif" font-size="14.00">INPUT: the water</text>
</g>
<!-- E9 -->
<g id="node10" class="node"><title>E9</title>
<ellipse fill="azure" stroke="black" cx="1903" cy="-1527" rx="69.5877" ry="18"/>
<text text-anchor="middle" x="1903" y="-1523.3" font-family="Times,serif" font-size="14.00">remove (S7,P0)</text>
</g>
<!-- E8&#45;&gt;E9 -->
<g id="edge20" class="edge"><title>E8&#45;&gt;E9</title>
<path fill="none" stroke="black" d="M1988.99,-1611.49C1972.22,-1595.2 1946.41,-1570.15 1927.44,-1551.73"/>
<polygon fill="black" stroke="black" points="1929.65,-1548.99 1920.03,-1544.54 1924.77,-1554.01 1929.65,-1548.99"/>
<text text-anchor="middle" x="2001" y="-1581.8" font-family="Times,serif" font-size="14.00">OUTPUT: </text>
<text text-anchor="middle" x="2001" y="-1566.8" font-family="Times,serif" font-size="14.00">INPUT: </text>
</g>
<!-- E10 -->
<g id="node11" class="node"><title>E10</title>
<ellipse fill="azure" stroke="black" cx="1756" cy="-1425" rx="72.2875" ry="18"/>
<text text-anchor="middle" x="1756" y="-1421.3" font-family="Times,serif" font-size="14.00">let stand (S7,P1)</text>
</g>
<!-- E9&#45;&gt;E10 -->
<g id="edge22" class="edge"><title>E9&#45;&gt;E10</title>
<path fill="none" stroke="black" d="M1879.38,-1509.93C1854.63,-1493.09 1815.58,-1466.53 1788.06,-1447.81"/>
<polygon fill="black" stroke="black" points="1789.8,-1444.76 1779.56,-1442.03 1785.86,-1450.55 1789.8,-1444.76"/>
<text text-anchor="middle" x="1883" y="-1479.8" font-family="Times,serif" font-size="14.00">OUTPUT: </text>
<text text-anchor="middle" x="1883" y="-1464.8" font-family="Times,serif" font-size="14.00">INPUT: </text>
</g>
<!-- E11 -->
<g id="node12" class="node"><title>E11</title>
<ellipse fill="azure" stroke="black" cx="1756" cy="-1323" rx="59.5901" ry="18"/>
<text text-anchor="middle" x="1756" y="-1319.3" font-family="Times,serif" font-size="14.00">pour (S8,P0)</text>
</g>
<!-- E10&#45;&gt;E11 -->
<g id="edge24" class="edge"><title>E10&#45;&gt;E11</title>
<path fill="none" stroke="black" d="M1756,-1406.58C1756,-1391.38 1756,-1369.07 1756,-1351.46"/>
<polygon fill="black" stroke="black" points="1759.5,-1351.22 1756,-1341.22 1752.5,-1351.22 1759.5,-1351.22"/>
<text text-anchor="middle" x="1819" y="-1377.8" font-family="Times,serif" font-size="14.00">OUTPUT: </text>
<text text-anchor="middle" x="1819" y="-1362.8" font-family="Times,serif" font-size="14.00">INPUT: the hot water</text>
</g>
<!-- E12 -->
<g id="node13" class="node"><title>E12</title>
<ellipse fill="azure" stroke="black" cx="1666" cy="-1221" rx="57.6901" ry="18"/>
<text text-anchor="middle" x="1666" y="-1217.3" font-family="Times,serif" font-size="14.00">cool (S8,P1)</text>
</g>
<!-- E11&#45;&gt;E12 -->
<g id="edge26" class="edge"><title>E11&#45;&gt;E12</title>
<path fill="none" stroke="black" d="M1741.14,-1305.49C1726.55,-1289.27 1704.13,-1264.37 1687.58,-1245.98"/>
<polygon fill="black" stroke="black" points="1690.17,-1243.63 1680.88,-1238.54 1684.97,-1248.31 1690.17,-1243.63"/>
<text text-anchor="middle" x="1855" y="-1275.8" font-family="Times,serif" font-size="14.00">OUTPUT: </text>
<text text-anchor="middle" x="1855" y="-1260.8" font-family="Times,serif" font-size="14.00">INPUT: under cold running water in the sink</text>
</g>
<!-- E13 -->
<g id="node14" class="node"><title>E13</title>
<ellipse fill="azure" stroke="black" cx="1666" cy="-1118" rx="56.59" ry="18"/>
<text text-anchor="middle" x="1666" y="-1114.3" font-family="Times,serif" font-size="14.00">peel (S9,P0)</text>
</g>
<!-- E12&#45;&gt;E13 -->
<g id="edge27" class="edge"><title>E12&#45;&gt;E13</title>
<path fill="none" stroke="black" d="M1666,-1202.87C1666,-1187.41 1666,-1164.42 1666,-1146.41"/>
<polygon fill="black" stroke="black" points="1669.5,-1146.22 1666,-1136.22 1662.5,-1146.22 1669.5,-1146.22"/>
<text text-anchor="middle" x="1698" y="-1173.8" font-family="Times,serif" font-size="14.00">OUTPUT: </text>
<text text-anchor="middle" x="1698" y="-1158.8" font-family="Times,serif" font-size="14.00">INPUT: </text>
</g>
<!-- E14 -->
<g id="node15" class="node"><title>E14</title>
<ellipse fill="azure" stroke="black" cx="1521" cy="-1015" rx="61.99" ry="18"/>
<text text-anchor="middle" x="1521" y="-1011.3" font-family="Times,serif" font-size="14.00">dice (S10,P0)</text>
</g>
<!-- E13&#45;&gt;E14 -->
<g id="edge29" class="edge"><title>E13&#45;&gt;E14</title>
<path fill="none" stroke="black" d="M1643.66,-1101.44C1619.29,-1084.46 1580.08,-1057.15 1552.57,-1037.99"/>
<polygon fill="black" stroke="black" points="1554.29,-1034.92 1544.08,-1032.08 1550.29,-1040.67 1554.29,-1034.92"/>
<text text-anchor="middle" x="1681.5" y="-1069.8" font-family="Times,serif" font-size="14.00">OUTPUT: </text>
<text text-anchor="middle" x="1681.5" y="-1054.8" font-family="Times,serif" font-size="14.00">INPUT: the cooked eggs</text>
</g>
<!-- E14&#45;&gt;E15 -->
<g id="edge31" class="edge"><title>E14&#45;&gt;E15</title>
<path fill="none" stroke="black" d="M1488.43,-999.459C1448.98,-981.846 1382.43,-952.139 1339.12,-932.802"/>
<polygon fill="black" stroke="black" points="1340.53,-929.602 1329.98,-928.721 1337.68,-935.994 1340.53,-929.602"/>
<text text-anchor="middle" x="1528" y="-967.8" font-family="Times,serif" font-size="14.00">OUTPUT: </text>
<text text-anchor="middle" x="1528" y="-952.8" font-family="Times,serif" font-size="14.00">INPUT: 2/3 of the dill pickles</text>
</g>
<!-- E16 -->
<g id="node17" class="node"><title>E16</title>
<ellipse fill="azure" stroke="black" cx="1297" cy="-810" rx="72.5877" ry="18"/>
<text text-anchor="middle" x="1297" y="-806.3" font-family="Times,serif" font-size="14.00">reserve (S12,P0)</text>
</g>
<!-- E15&#45;&gt;E16 -->
<g id="edge34" class="edge"><title>E15&#45;&gt;E16</title>
<path fill="none" stroke="black" d="M1297,-894.867C1297,-879.414 1297,-856.416 1297,-838.409"/>
<polygon fill="black" stroke="black" points="1300.5,-838.217 1297,-828.217 1293.5,-838.217 1300.5,-838.217"/>
<text text-anchor="middle" x="1383" y="-865.8" font-family="Times,serif" font-size="14.00">OUTPUT: </text>
<text text-anchor="middle" x="1383" y="-850.8" font-family="Times,serif" font-size="14.00">INPUT: the rest of the pickles</text>
</g>
<!-- E17 -->
<g id="node18" class="node"><title>E17</title>
<ellipse fill="azure" stroke="black" cx="1171" cy="-707" rx="65.7887" ry="18"/>
<text text-anchor="middle" x="1171" y="-703.3" font-family="Times,serif" font-size="14.00">place (S13,P0)</text>
</g>
<!-- E16&#45;&gt;E17 -->
<g id="edge36" class="edge"><title>E16&#45;&gt;E17</title>
<path fill="none" stroke="black" d="M1276.48,-792.548C1255.52,-775.747 1222.82,-749.536 1199.38,-730.752"/>
<polygon fill="black" stroke="black" points="1201.51,-727.969 1191.52,-724.445 1197.13,-733.431 1201.51,-727.969"/>
<text text-anchor="middle" x="1311.5" y="-761.8" font-family="Times,serif" font-size="14.00">OUTPUT: </text>
<text text-anchor="middle" x="1311.5" y="-746.8" font-family="Times,serif" font-size="14.00">INPUT: into the bowl</text>
</g>
<!-- E18 -->
<g id="node19" class="node"><title>E18</title>
<ellipse fill="azure" stroke="black" cx="1171" cy="-604" rx="72.5877" ry="18"/>
<text text-anchor="middle" x="1171" y="-600.3" font-family="Times,serif" font-size="14.00">reserve (S13,P1)</text>
</g>
<!-- E17&#45;&gt;E18 -->
<g id="edge37" class="edge"><title>E17&#45;&gt;E18</title>
<path fill="none" stroke="black" d="M1171,-688.867C1171,-673.414 1171,-650.416 1171,-632.409"/>
<polygon fill="black" stroke="black" points="1174.5,-632.217 1171,-622.217 1167.5,-632.217 1174.5,-632.217"/>
<text text-anchor="middle" x="1216.5" y="-659.8" font-family="Times,serif" font-size="14.00">OUTPUT: </text>
<text text-anchor="middle" x="1216.5" y="-644.8" font-family="Times,serif" font-size="14.00">INPUT: the rest</text>
</g>
<!-- E19 -->
<g id="node20" class="node"><title>E19</title>
<ellipse fill="azure" stroke="black" cx="1029" cy="-500" rx="65.7887" ry="18"/>
<text text-anchor="middle" x="1029" y="-496.3" font-family="Times,serif" font-size="14.00">place (S14,P0)</text>
</g>
<!-- E18&#45;&gt;E19 -->
<g id="edge39" class="edge"><title>E18&#45;&gt;E19</title>
<path fill="none" stroke="black" d="M1148.5,-586.838C1124.51,-569.604 1086.36,-542.203 1059.64,-523.007"/>
<polygon fill="black" stroke="black" points="1061.56,-520.078 1051.4,-517.087 1057.48,-525.763 1061.56,-520.078"/>
<text text-anchor="middle" x="1179.5" y="-555.8" font-family="Times,serif" font-size="14.00">OUTPUT: </text>
<text text-anchor="middle" x="1179.5" y="-540.8" font-family="Times,serif" font-size="14.00">INPUT: into the bowl</text>
</g>
<!-- E23 -->
<g id="node24" class="node"><title>E23</title>
<ellipse fill="azure" stroke="black" cx="817" cy="-397" rx="65.7887" ry="18"/>
<text text-anchor="middle" x="817" y="-393.3" font-family="Times,serif" font-size="14.00">place (S16,P0)</text>
</g>
<!-- E19&#45;&gt;E23 -->
<g id="edge41" class="edge"><title>E19&#45;&gt;E23</title>
<path fill="none" stroke="black" d="M997.719,-484.097C960.533,-466.381 898.387,-436.774 857.544,-417.316"/>
<polygon fill="black" stroke="black" points="858.943,-414.105 848.41,-412.964 855.932,-420.425 858.943,-414.105"/>
<text text-anchor="middle" x="998" y="-451.8" font-family="Times,serif" font-size="14.00">OUTPUT: </text>
<text text-anchor="middle" x="998" y="-436.8" font-family="Times,serif" font-size="14.00">INPUT: the salad</text>
</g>
<!-- E20 -->
<g id="node21" class="node"><title>E20</title>
<ellipse fill="azure" stroke="black" cx="521" cy="-397" rx="59.5901" ry="18"/>
<text text-anchor="middle" x="521" y="-393.3" font-family="Times,serif" font-size="14.00">add (S15,P0)</text>
</g>
<!-- E24 -->
<g id="node25" class="node"><title>E24</title>
<ellipse fill="azure" stroke="black" cx="521" cy="-295" rx="70.6878" ry="18"/>
<text text-anchor="middle" x="521" y="-291.3" font-family="Times,serif" font-size="14.00">spread (S16,P1)</text>
</g>
<!-- E20&#45;&gt;E24 -->
<g id="edge43" class="edge"><title>E20&#45;&gt;E24</title>
<path fill="none" stroke="black" d="M521,-378.581C521,-363.382 521,-341.067 521,-323.464"/>
<polygon fill="black" stroke="black" points="524.5,-323.219 521,-313.219 517.5,-323.219 524.5,-323.219"/>
<text text-anchor="middle" x="611.5" y="-349.8" font-family="Times,serif" font-size="14.00">OUTPUT: </text>
<text text-anchor="middle" x="611.5" y="-334.8" font-family="Times,serif" font-size="14.00">INPUT: 1/2 cup of mayonnaise</text>
</g>
<!-- E21 -->
<g id="node22" class="node"><title>E21</title>
<ellipse fill="azure" stroke="black" cx="293" cy="-397" rx="57.6901" ry="18"/>
<text text-anchor="middle" x="293" y="-393.3" font-family="Times,serif" font-size="14.00">stir (S15,P1)</text>
</g>
<!-- E22 -->
<g id="node23" class="node"><title>E22</title>
<ellipse fill="azure" stroke="black" cx="356" cy="-295" rx="57.6901" ry="18"/>
<text text-anchor="middle" x="356" y="-291.3" font-family="Times,serif" font-size="14.00">are (S15,P2)</text>
</g>
<!-- E21&#45;&gt;E22 -->
<g id="edge40" class="edge"><title>E21&#45;&gt;E22</title>
<path fill="none" stroke="black" d="M303.687,-379.036C313.612,-363.282 328.527,-339.608 339.895,-321.564"/>
<polygon fill="black" stroke="black" points="343.102,-323.04 345.471,-312.713 337.179,-319.308 343.102,-323.04"/>
<text text-anchor="middle" x="365" y="-349.8" font-family="Times,serif" font-size="14.00">OUTPUT: </text>
<text text-anchor="middle" x="365" y="-334.8" font-family="Times,serif" font-size="14.00">INPUT: </text>
</g>
<!-- E25 -->
<g id="node26" class="node"><title>E25</title>
<ellipse fill="azure" stroke="black" cx="435" cy="-193" rx="74.9875" ry="18"/>
<text text-anchor="middle" x="435" y="-189.3" font-family="Times,serif" font-size="14.00">arrange (S17,P0)</text>
</g>
<!-- E22&#45;&gt;E25 -->
<g id="edge45" class="edge"><title>E22&#45;&gt;E25</title>
<path fill="none" stroke="black" d="M354.227,-276.938C353.66,-262.814 355.038,-242.884 365,-229 369.623,-222.557 375.775,-217.233 382.52,-212.852"/>
<polygon fill="black" stroke="black" points="384.388,-215.816 391.31,-207.795 380.897,-209.748 384.388,-215.816"/>
<text text-anchor="middle" x="427" y="-247.8" font-family="Times,serif" font-size="14.00">OUTPUT: </text>
<text text-anchor="middle" x="427" y="-232.8" font-family="Times,serif" font-size="14.00">INPUT: tomato slices</text>
</g>
<!-- E23&#45;&gt;E24 -->
<g id="edge44" class="edge"><title>E23&#45;&gt;E24</title>
<path fill="none" stroke="black" d="M794.77,-379.873C773.143,-364.959 738.834,-343.297 706,-331 670.756,-317.8 629.793,-309.393 595.385,-304.139"/>
<polygon fill="black" stroke="black" points="595.801,-300.663 585.399,-302.674 594.785,-307.589 595.801,-300.663"/>
<text text-anchor="middle" x="858" y="-349.8" font-family="Times,serif" font-size="14.00">OUTPUT: </text>
<text text-anchor="middle" x="858" y="-334.8" font-family="Times,serif" font-size="14.00">INPUT: over the salad in a layer</text>
</g>
<!-- E24&#45;&gt;E25 -->
<g id="edge46" class="edge"><title>E24&#45;&gt;E25</title>
<path fill="none" stroke="black" d="M515.531,-277.05C510.366,-262.994 501.534,-243.102 489,-229 484.512,-223.951 479.131,-219.334 473.53,-215.227"/>
<polygon fill="black" stroke="black" points="475.48,-212.32 465.244,-209.584 471.539,-218.106 475.48,-212.32"/>
<text text-anchor="middle" x="571.5" y="-247.8" font-family="Times,serif" font-size="14.00">OUTPUT: </text>
<text text-anchor="middle" x="571.5" y="-232.8" font-family="Times,serif" font-size="14.00">INPUT: over the salad</text>
</g>
<!-- E26 -->
<g id="node27" class="node"><title>E26</title>
<ellipse fill="azure" stroke="black" cx="285" cy="-91" rx="77.1866" ry="18"/>
<text text-anchor="middle" x="285" y="-87.3" font-family="Times,serif" font-size="14.00">decorate (S17,P1)</text>
</g>
<!-- E25&#45;&gt;E26 -->
<g id="edge47" class="edge"><title>E25&#45;&gt;E26</title>
<path fill="none" stroke="black" d="M410.9,-175.933C385.791,-159.194 346.272,-132.848 318.213,-114.142"/>
<polygon fill="black" stroke="black" points="319.801,-110.994 309.539,-108.359 315.918,-116.818 319.801,-110.994"/>
<text text-anchor="middle" x="414" y="-145.8" font-family="Times,serif" font-size="14.00">OUTPUT: </text>
<text text-anchor="middle" x="414" y="-130.8" font-family="Times,serif" font-size="14.00">INPUT: </text>
</g>
<!-- EOR -->
<g id="node51" class="node"><title>EOR</title>
<ellipse fill="plum" stroke="black" cx="285" cy="-18" rx="57.3905" ry="18"/>
<text text-anchor="middle" x="285" y="-14.3" font-family="Times,serif" font-size="14.00">Bon appetit!</text>
</g>
<!-- E26&#45;&gt;EOR -->
<g id="edge50" class="edge"><title>E26&#45;&gt;EOR</title>
<path fill="none" stroke="black" d="M285,-72.8129C285,-64.7895 285,-55.0475 285,-46.0691"/>
<polygon fill="black" stroke="black" points="288.5,-46.0288 285,-36.0288 281.5,-46.0289 288.5,-46.0288"/>
</g>
<!-- D5 -->
<g id="node28" class="node"><title>D5</title>
<polygon fill="peachpuff" stroke="black" points="1847.5,-2057 1746.5,-2057 1746.5,-2019 1847.5,-2019 1847.5,-2057"/>
<text text-anchor="middle" x="1797" y="-2041.8" font-family="Times,serif" font-size="14.00">DOBJ: eggs</text>
<text text-anchor="middle" x="1797" y="-2026.8" font-family="Times,serif" font-size="14.00">(text: the eggs)</text>
</g>
<!-- D5&#45;&gt;E5 -->
<g id="edge1" class="edge"><title>D5&#45;&gt;E5</title>
<path fill="none" stroke="black" d="M1830.97,-2018.94C1864.34,-2001.21 1915.12,-1974.21 1949.62,-1955.87"/>
<polygon fill="black" stroke="black" points="1951.7,-1958.73 1958.89,-1950.94 1948.42,-1952.55 1951.7,-1958.73"/>
</g>
<!-- P5_0 -->
<g id="node29" class="node"><title>P5_0</title>
<polygon fill="white" stroke="black" points="2108,-2056 1866,-2056 1866,-2020 2108,-2020 2108,-2056"/>
<text text-anchor="middle" x="1987" y="-2034.3" font-family="Times,serif" font-size="14.00">PREP: into a saucepan in a single layer</text>
</g>
<!-- P5_0&#45;&gt;E5 -->
<g id="edge2" class="edge"><title>P5_0&#45;&gt;E5</title>
<path fill="none" stroke="black" d="M1987,-2019.87C1987,-2004.41 1987,-1981.42 1987,-1963.41"/>
<polygon fill="black" stroke="black" points="1990.5,-1963.22 1987,-1953.22 1983.5,-1963.22 1990.5,-1963.22"/>
</g>
<!-- D21 -->
<g id="node30" class="node"><title>D21</title>
<polygon fill="white" stroke="black" points="353,-518 227,-518 227,-482 353,-482 353,-518"/>
<text text-anchor="middle" x="290" y="-496.3" font-family="Times,serif" font-size="14.00">DOBJ: the mixture</text>
</g>
<!-- D21&#45;&gt;E21 -->
<g id="edge3" class="edge"><title>D21&#45;&gt;E21</title>
<path fill="none" stroke="black" d="M290.509,-481.867C290.968,-466.414 291.651,-443.416 292.186,-425.409"/>
<polygon fill="black" stroke="black" points="295.69,-425.317 292.489,-415.217 288.693,-425.109 295.69,-425.317"/>
</g>
<!-- D0 -->
<g id="node31" class="node"><title>D0</title>
<polygon fill="peachpuff" stroke="black" points="2700,-2336 2578,-2336 2578,-2298 2700,-2298 2700,-2336"/>
<text text-anchor="middle" x="2639" y="-2320.8" font-family="Times,serif" font-size="14.00">DOBJ: potatoes</text>
<text text-anchor="middle" x="2639" y="-2305.8" font-family="Times,serif" font-size="14.00">(text: the potatoes)</text>
</g>
<!-- D0&#45;&gt;E0 -->
<g id="edge4" class="edge"><title>D0&#45;&gt;E0</title>
<path fill="none" stroke="black" d="M2658.18,-2297.83C2667.94,-2288.58 2679.93,-2277.22 2690.37,-2267.33"/>
<polygon fill="black" stroke="black" points="2692.79,-2269.86 2697.65,-2260.44 2687.98,-2264.78 2692.79,-2269.86"/>
</g>
<!-- P0_0 -->
<g id="node32" class="node"><title>P0_0</title>
<polygon fill="white" stroke="black" points="2864,-2335 2718,-2335 2718,-2299 2864,-2299 2864,-2335"/>
<text text-anchor="middle" x="2791" y="-2313.3" font-family="Times,serif" font-size="14.00">PREP: into a large pot</text>
</g>
<!-- P0_0&#45;&gt;E0 -->
<g id="edge5" class="edge"><title>P0_0&#45;&gt;E0</title>
<path fill="none" stroke="black" d="M2772.99,-2298.94C2763.1,-2289.57 2750.68,-2277.81 2739.88,-2267.57"/>
<polygon fill="black" stroke="black" points="2742.03,-2264.78 2732.36,-2260.44 2737.21,-2269.86 2742.03,-2264.78"/>
</g>
<!-- D4 -->
<g id="node33" class="node"><title>D4</title>
<polygon fill="white" stroke="black" points="1031.5,-1136 942.5,-1136 942.5,-1100 1031.5,-1100 1031.5,-1136"/>
<text text-anchor="middle" x="987" y="-1114.3" font-family="Times,serif" font-size="14.00">DOBJ: them</text>
</g>
<!-- D4&#45;&gt;E4 -->
<g id="edge6" class="edge"><title>D4&#45;&gt;E4</title>
<path fill="none" stroke="black" d="M999.044,-1099.87C1010.33,-1083.81 1027.35,-1059.6 1040.2,-1041.32"/>
<polygon fill="black" stroke="black" points="1043.25,-1043.07 1046.13,-1032.88 1037.52,-1039.05 1043.25,-1043.07"/>
</g>
<!-- P4_0 -->
<g id="node34" class="node"><title>P4_0</title>
<polygon fill="white" stroke="black" points="1208,-1136 1050,-1136 1050,-1100 1208,-1100 1208,-1136"/>
<text text-anchor="middle" x="1129" y="-1114.3" font-family="Times,serif" font-size="14.00">PREP: into a large bowl</text>
</g>
<!-- P4_0&#45;&gt;E4 -->
<g id="edge7" class="edge"><title>P4_0&#45;&gt;E4</title>
<path fill="none" stroke="black" d="M1116.96,-1099.87C1105.67,-1083.81 1088.65,-1059.6 1075.8,-1041.32"/>
<polygon fill="black" stroke="black" points="1078.48,-1039.05 1069.87,-1032.88 1072.75,-1043.07 1078.48,-1039.05"/>
</g>
<!-- D20 -->
<g id="node35" class="node"><title>D20</title>
<polygon fill="peachpuff" stroke="black" points="670.5,-519 371.5,-519 371.5,-481 670.5,-481 670.5,-519"/>
<text text-anchor="middle" x="521" y="-503.8" font-family="Times,serif" font-size="14.00">DOBJ: ground black pepper to taste, mayonnaise</text>
<text text-anchor="middle" x="521" y="-488.8" font-family="Times,serif" font-size="14.00">(text: 1/2 cup of mayonnaise and black pepper)</text>
</g>
<!-- D20&#45;&gt;E20 -->
<g id="edge8" class="edge"><title>D20&#45;&gt;E20</title>
<path fill="none" stroke="black" d="M521,-480.943C521,-465.531 521,-443.127 521,-425.488"/>
<polygon fill="black" stroke="black" points="524.5,-425.226 521,-415.226 517.5,-425.226 524.5,-425.226"/>
</g>
<!-- P1_0_0 -->
<g id="node36" class="node"><title>P1_0_0</title>
<polygon fill="white" stroke="black" points="2637,-2261 2479,-2261 2479,-2225 2637,-2225 2637,-2261"/>
<text text-anchor="middle" x="2558" y="-2239.3" font-family="Times,serif" font-size="14.00">PREP: with salted water</text>
</g>
<!-- P1_0_0&#45;&gt;E1 -->
<g id="edge10" class="edge"><title>P1_0_0&#45;&gt;E1</title>
<path fill="none" stroke="black" d="M2566.36,-2224.58C2573.84,-2209 2584.91,-2185.94 2593.45,-2168.15"/>
<polygon fill="black" stroke="black" points="2596.72,-2169.42 2597.89,-2158.89 2590.41,-2166.39 2596.72,-2169.42"/>
</g>
<!-- P2_0_0 -->
<g id="node37" class="node"><title>P2_0_0</title>
<polygon fill="white" stroke="black" points="2526,-2159 2278,-2159 2278,-2123 2526,-2123 2526,-2159"/>
<text text-anchor="middle" x="2402" y="-2137.3" font-family="Times,serif" font-size="14.00">PREP: to steam dry for a minute or two</text>
</g>
<!-- P2_0_0&#45;&gt;E2 -->
<g id="edge12" class="edge"><title>P2_0_0&#45;&gt;E2</title>
<path fill="none" stroke="black" d="M2412.01,-2122.87C2421.25,-2107.05 2435.1,-2083.33 2445.72,-2065.15"/>
<polygon fill="black" stroke="black" points="2448.92,-2066.62 2450.94,-2056.22 2442.88,-2063.09 2448.92,-2066.62"/>
</g>
<!-- P3_0_0 -->
<g id="node38" class="node"><title>P3_0_0</title>
<polygon fill="white" stroke="black" points="2342,-2056 2126,-2056 2126,-2020 2342,-2020 2342,-2056"/>
<text text-anchor="middle" x="2234" y="-2034.3" font-family="Times,serif" font-size="14.00">PREP: into the refrigerator to cool</text>
</g>
<!-- P3_0_0&#45;&gt;E3 -->
<g id="edge14" class="edge"><title>P3_0_0&#45;&gt;E3</title>
<path fill="none" stroke="black" d="M2234,-2019.87C2234,-2004.41 2234,-1981.42 2234,-1963.41"/>
<polygon fill="black" stroke="black" points="2237.5,-1963.22 2234,-1953.22 2230.5,-1963.22 2237.5,-1963.22"/>
</g>
<!-- P8_0_0 -->
<g id="node39" class="node"><title>P8_0_0</title>
<polygon fill="white" stroke="black" points="2050.5,-1749 1857.5,-1749 1857.5,-1713 2050.5,-1713 2050.5,-1749"/>
<text text-anchor="middle" x="1954" y="-1727.3" font-family="Times,serif" font-size="14.00">PREP: to a boil over high heat</text>
</g>
<!-- P8_0_0&#45;&gt;E8 -->
<g id="edge19" class="edge"><title>P8_0_0&#45;&gt;E8</title>
<path fill="none" stroke="black" d="M1963.06,-1712.58C1971.16,-1697 1983.15,-1673.94 1992.4,-1656.15"/>
<polygon fill="black" stroke="black" points="1995.71,-1657.37 1997.22,-1646.89 1989.5,-1654.14 1995.71,-1657.37"/>
</g>
<!-- P9_0_0 -->
<g id="node40" class="node"><title>P9_0_0</title>
<polygon fill="white" stroke="black" points="1926,-1647 1790,-1647 1790,-1611 1926,-1611 1926,-1647"/>
<text text-anchor="middle" x="1858" y="-1625.3" font-family="Times,serif" font-size="14.00">PREP: from the heat</text>
</g>
<!-- P9_0_0&#45;&gt;E9 -->
<g id="edge21" class="edge"><title>P9_0_0&#45;&gt;E9</title>
<path fill="none" stroke="black" d="M1865.84,-1610.58C1872.81,-1595.09 1883.1,-1572.22 1891.09,-1554.47"/>
<polygon fill="black" stroke="black" points="1894.34,-1555.77 1895.25,-1545.22 1887.96,-1552.9 1894.34,-1555.77"/>
</g>
<!-- P10_0_0 -->
<g id="node41" class="node"><title>P10_0_0</title>
<polygon fill="white" stroke="black" points="1815.5,-1545 1576.5,-1545 1576.5,-1509 1815.5,-1509 1815.5,-1545"/>
<text text-anchor="middle" x="1696" y="-1523.3" font-family="Times,serif" font-size="14.00">PREP: in the hot water for 15 minutes</text>
</g>
<!-- P10_0_0&#45;&gt;E10 -->
<g id="edge23" class="edge"><title>P10_0_0&#45;&gt;E10</title>
<path fill="none" stroke="black" d="M1706.45,-1508.58C1715.89,-1492.86 1729.89,-1469.52 1740.61,-1451.66"/>
<polygon fill="black" stroke="black" points="1743.72,-1453.26 1745.87,-1442.89 1737.72,-1449.66 1743.72,-1453.26"/>
</g>
<!-- D12_0 -->
<g id="node42" class="node"><title>D12_0</title>
<polygon fill="white" stroke="black" points="1678.5,-1341 1571.5,-1341 1571.5,-1305 1678.5,-1305 1678.5,-1341"/>
<text text-anchor="middle" x="1625" y="-1319.3" font-family="Times,serif" font-size="14.00">DOBJ: the eggs</text>
</g>
<!-- D12_0&#45;&gt;E12 -->
<g id="edge25" class="edge"><title>D12_0&#45;&gt;E12</title>
<path fill="none" stroke="black" d="M1632.14,-1304.58C1638.53,-1289 1647.98,-1265.94 1655.28,-1248.15"/>
<polygon fill="black" stroke="black" points="1658.52,-1249.47 1659.08,-1238.89 1652.04,-1246.81 1658.52,-1249.47"/>
</g>
<!-- D14_ing -->
<g id="node43" class="node"><title>D14_ing</title>
<polygon fill="peachpuff" stroke="black" points="1591.5,-1137 1384.5,-1137 1384.5,-1099 1591.5,-1099 1591.5,-1137"/>
<text text-anchor="middle" x="1488" y="-1121.8" font-family="Times,serif" font-size="14.00">DOBJ: (16 ounce) jar dill pickles</text>
<text text-anchor="middle" x="1488" y="-1106.8" font-family="Times,serif" font-size="14.00">(text: dill pickles)</text>
</g>
<!-- D14_ing&#45;&gt;E14 -->
<g id="edge28" class="edge"><title>D14_ing&#45;&gt;E14</title>
<path fill="none" stroke="black" d="M1493.9,-1098.94C1498.98,-1083.39 1506.39,-1060.7 1512.18,-1042.99"/>
<polygon fill="black" stroke="black" points="1515.59,-1043.82 1515.37,-1033.23 1508.94,-1041.64 1515.59,-1043.82"/>
</g>
<!-- D15_0 -->
<g id="node44" class="node"><title>D15_0</title>
<polygon fill="white" stroke="black" points="1264.5,-1033 1157.5,-1033 1157.5,-997 1264.5,-997 1264.5,-1033"/>
<text text-anchor="middle" x="1211" y="-1011.3" font-family="Times,serif" font-size="14.00">DOBJ: the eggs</text>
</g>
<!-- D15_0&#45;&gt;E15 -->
<g id="edge30" class="edge"><title>D15_0&#45;&gt;E15</title>
<path fill="none" stroke="black" d="M1225.98,-996.581C1239.75,-980.568 1260.32,-956.656 1275.78,-938.679"/>
<polygon fill="black" stroke="black" points="1278.61,-940.75 1282.48,-930.886 1273.3,-936.186 1278.61,-940.75"/>
</g>
<!-- P15_1_0 -->
<g id="node45" class="node"><title>P15_1_0</title>
<polygon fill="white" stroke="black" points="1441,-1033 1283,-1033 1283,-997 1441,-997 1441,-1033"/>
<text text-anchor="middle" x="1362" y="-1011.3" font-family="Times,serif" font-size="14.00">PREP: with the potatoes</text>
</g>
<!-- P15_1_0&#45;&gt;E15 -->
<g id="edge33" class="edge"><title>P15_1_0&#45;&gt;E15</title>
<path fill="none" stroke="black" d="M1350.68,-996.581C1340.46,-980.856 1325.29,-957.516 1313.68,-939.656"/>
<polygon fill="black" stroke="black" points="1316.36,-937.363 1307.98,-930.886 1310.49,-941.178 1316.36,-937.363"/>
</g>
<!-- D17_ing -->
<g id="node46" class="node"><title>D17_ing</title>
<polygon fill="peachpuff" stroke="black" points="1206,-829 1032,-829 1032,-791 1206,-791 1206,-829"/>
<text text-anchor="middle" x="1119" y="-813.8" font-family="Times,serif" font-size="14.00">DOBJ: (15 ounce) can peas</text>
<text text-anchor="middle" x="1119" y="-798.8" font-family="Times,serif" font-size="14.00">(text: 3/4 of the peas)</text>
</g>
<!-- D17_ing&#45;&gt;E17 -->
<g id="edge35" class="edge"><title>D17_ing&#45;&gt;E17</title>
<path fill="none" stroke="black" d="M1128.3,-790.943C1136.43,-775.145 1148.35,-751.999 1157.53,-734.17"/>
<polygon fill="black" stroke="black" points="1160.84,-735.386 1162.3,-724.893 1154.61,-732.181 1160.84,-735.386"/>
</g>
<!-- D19_ing -->
<g id="node47" class="node"><title>D19_ing</title>
<polygon fill="peachpuff" stroke="black" points="1080,-623 862,-623 862,-585 1080,-585 1080,-623"/>
<text text-anchor="middle" x="971" y="-607.8" font-family="Times,serif" font-size="14.00">DOBJ: cooked chicken breast meat</text>
<text text-anchor="middle" x="971" y="-592.8" font-family="Times,serif" font-size="14.00">(text: the chicken breast meat)</text>
</g>
<!-- D19_ing&#45;&gt;E19 -->
<g id="edge38" class="edge"><title>D19_ing&#45;&gt;E19</title>
<path fill="none" stroke="black" d="M981.369,-584.764C990.526,-568.662 1003.98,-545.001 1014.26,-526.931"/>
<polygon fill="black" stroke="black" points="1017.4,-528.483 1019.3,-518.06 1011.31,-525.023 1017.4,-528.483"/>
</g>
<!-- P23_0_0 -->
<g id="node48" class="node"><title>P23_0_0</title>
<polygon fill="white" stroke="black" points="945,-518 689,-518 689,-482 945,-482 945,-518"/>
<text text-anchor="middle" x="817" y="-496.3" font-family="Times,serif" font-size="14.00">PREP: in an attractive mound on a platter</text>
</g>
<!-- P23_0_0&#45;&gt;E23 -->
<g id="edge42" class="edge"><title>P23_0_0&#45;&gt;E23</title>
<path fill="none" stroke="black" d="M817,-481.867C817,-466.414 817,-443.416 817,-425.409"/>
<polygon fill="black" stroke="black" points="820.5,-425.217 817,-415.217 813.5,-425.217 820.5,-425.217"/>
</g>
<!-- P26_0_0 -->
<g id="node49" class="node"><title>P26_0_0</title>
<polygon fill="white" stroke="black" points="210,-211 0,-211 0,-175 210,-175 210,-211"/>
<text text-anchor="middle" x="105" y="-189.3" font-family="Times,serif" font-size="14.00">PREP: with reserved diced pickle</text>
</g>
<!-- P26_0_0&#45;&gt;E26 -->
<g id="edge48" class="edge"><title>P26_0_0&#45;&gt;E26</title>
<path fill="none" stroke="black" d="M135.943,-174.809C166.906,-157.608 214.566,-131.13 247.624,-112.764"/>
<polygon fill="black" stroke="black" points="249.493,-115.73 256.535,-107.814 246.094,-109.611 249.493,-115.73"/>
</g>
<!-- P26_0_1 -->
<g id="node50" class="node"><title>P26_0_1</title>
<polygon fill="white" stroke="black" points="342,-211 228,-211 228,-175 342,-175 342,-211"/>
<text text-anchor="middle" x="285" y="-189.3" font-family="Times,serif" font-size="14.00">PREP: with peas</text>
</g>
<!-- P26_0_1&#45;&gt;E26 -->
<g id="edge49" class="edge"><title>P26_0_1&#45;&gt;E26</title>
<path fill="none" stroke="black" d="M285,-174.581C285,-159.382 285,-137.067 285,-119.464"/>
<polygon fill="black" stroke="black" points="288.5,-119.219 285,-109.219 281.5,-119.219 288.5,-119.219"/>
</g>
</g>
</svg>
