<?xml version="1.0" encoding="UTF-8" standalone="no"?>
<!DOCTYPE svg PUBLIC "-//W3C//DTD SVG 1.1//EN"
 "http://www.w3.org/Graphics/SVG/1.1/DTD/svg11.dtd">
<!-- Generated by graphviz version 2.38.0 (20140413.2041)
 -->
<!-- Title: recipe Pages: 1 -->
<svg width="2613pt" height="1220pt"
 viewBox="0.00 0.00 2613.00 1220.00" xmlns="http://www.w3.org/2000/svg" xmlns:xlink="http://www.w3.org/1999/xlink">
<g id="graph0" class="graph" transform="scale(1 1) rotate(0) translate(4 1216)">
<title>recipe</title>
<polygon fill="white" stroke="none" points="-4,4 -4,-1216 2609,-1216 2609,4 -4,4"/>
<!-- E0 -->
<g id="node1" class="node"><title>E0</title>
<ellipse fill="azure" stroke="black" cx="2321" cy="-1119" rx="73.387" ry="18"/>
<text text-anchor="middle" x="2321" y="-1115.3" font-family="Times,serif" font-size="14.00">combine (S0,P0)</text>
</g>
<!-- E1 -->
<g id="node2" class="node"><title>E1</title>
<ellipse fill="azure" stroke="black" cx="2321" cy="-1016" rx="53.8905" ry="18"/>
<text text-anchor="middle" x="2321" y="-1012.3" font-family="Times,serif" font-size="14.00">salt (S1,P0)</text>
</g>
<!-- E0&#45;&gt;E1 -->
<g id="edge9" class="edge"><title>E0&#45;&gt;E1</title>
<path fill="none" stroke="black" d="M2321,-1100.87C2321,-1085.41 2321,-1062.42 2321,-1044.41"/>
<polygon fill="black" stroke="black" points="2324.5,-1044.22 2321,-1034.22 2317.5,-1044.22 2324.5,-1044.22"/>
<text text-anchor="middle" x="2353" y="-1071.8" font-family="Times,serif" font-size="14.00">OUTPUT: </text>
<text text-anchor="middle" x="2353" y="-1056.8" font-family="Times,serif" font-size="14.00">INPUT: </text>
</g>
<!-- E2 -->
<g id="node3" class="node"><title>E2</title>
<ellipse fill="azure" stroke="black" cx="2200" cy="-912" rx="53.0913" ry="18"/>
<text text-anchor="middle" x="2200" y="-908.3" font-family="Times,serif" font-size="14.00">stir (S2,P0)</text>
</g>
<!-- E1&#45;&gt;E2 -->
<g id="edge10" class="edge"><title>E1&#45;&gt;E2</title>
<path fill="none" stroke="black" d="M2302.09,-999.062C2281.88,-982.021 2249.65,-954.858 2226.82,-935.61"/>
<polygon fill="black" stroke="black" points="2229.07,-932.931 2219.17,-929.162 2224.56,-938.284 2229.07,-932.931"/>
<text text-anchor="middle" x="2306" y="-967.8" font-family="Times,serif" font-size="14.00">OUTPUT: </text>
<text text-anchor="middle" x="2306" y="-952.8" font-family="Times,serif" font-size="14.00">INPUT: </text>
</g>
<!-- E3 -->
<g id="node4" class="node"><title>E3</title>
<ellipse fill="azure" stroke="black" cx="1749" cy="-809" rx="59.5901" ry="18"/>
<text text-anchor="middle" x="1749" y="-805.3" font-family="Times,serif" font-size="14.00">cook (S3,P0)</text>
</g>
<!-- E2&#45;&gt;E3 -->
<g id="edge12" class="edge"><title>E2&#45;&gt;E3</title>
<path fill="none" stroke="black" d="M2161.75,-899.427C2153.92,-897.19 2145.72,-894.941 2138,-893 2021.83,-863.785 1884.49,-836.054 1808.01,-821.209"/>
<polygon fill="black" stroke="black" points="1808.57,-817.752 1798.08,-819.289 1807.24,-824.625 1808.57,-817.752"/>
<text text-anchor="middle" x="2085" y="-863.8" font-family="Times,serif" font-size="14.00">OUTPUT: </text>
<text text-anchor="middle" x="2085" y="-848.8" font-family="Times,serif" font-size="14.00">INPUT: </text>
</g>
<!-- E5 -->
<g id="node6" class="node"><title>E5</title>
<ellipse fill="azure" stroke="black" cx="1484" cy="-706" rx="53.0913" ry="18"/>
<text text-anchor="middle" x="1484" y="-702.3" font-family="Times,serif" font-size="14.00">stir (S5,P0)</text>
</g>
<!-- E3&#45;&gt;E5 -->
<g id="edge16" class="edge"><title>E3&#45;&gt;E5</title>
<path fill="none" stroke="black" d="M1713.54,-794.483C1665.44,-776.153 1579.58,-743.43 1527.61,-723.619"/>
<polygon fill="black" stroke="black" points="1528.59,-720.248 1518,-719.957 1526.09,-726.789 1528.59,-720.248"/>
<text text-anchor="middle" x="1745.5" y="-761.8" font-family="Times,serif" font-size="14.00">OUTPUT: </text>
<text text-anchor="middle" x="1745.5" y="-746.8" font-family="Times,serif" font-size="14.00">INPUT: 1/2 cup of hot mixture</text>
</g>
<!-- E4 -->
<g id="node5" class="node"><title>E4</title>
<ellipse fill="azure" stroke="black" cx="1220" cy="-809" rx="56.59" ry="18"/>
<text text-anchor="middle" x="1220" y="-805.3" font-family="Times,serif" font-size="14.00">beat (S4,P0)</text>
</g>
<!-- E4&#45;&gt;E5 -->
<g id="edge17" class="edge"><title>E4&#45;&gt;E5</title>
<path fill="none" stroke="black" d="M1254.78,-794.692C1302.53,-776.425 1388.36,-743.589 1440.36,-723.695"/>
<polygon fill="black" stroke="black" points="1441.89,-726.859 1449.97,-720.017 1439.38,-720.321 1441.89,-726.859"/>
<text text-anchor="middle" x="1437" y="-761.8" font-family="Times,serif" font-size="14.00">OUTPUT: </text>
<text text-anchor="middle" x="1437" y="-746.8" font-family="Times,serif" font-size="14.00">INPUT: into yolks</text>
</g>
<!-- E6 -->
<g id="node7" class="node"><title>E6</title>
<ellipse fill="azure" stroke="black" cx="1316" cy="-602" rx="59.5901" ry="18"/>
<text text-anchor="middle" x="1316" y="-598.3" font-family="Times,serif" font-size="14.00">pour (S6,P0)</text>
</g>
<!-- E5&#45;&gt;E6 -->
<g id="edge18" class="edge"><title>E5&#45;&gt;E6</title>
<path fill="none" stroke="black" d="M1459.21,-689.95C1430.34,-672.423 1382.5,-643.373 1350.13,-623.722"/>
<polygon fill="black" stroke="black" points="1351.81,-620.645 1341.44,-618.447 1348.17,-626.628 1351.81,-620.645"/>
<text text-anchor="middle" x="1451" y="-657.8" font-family="Times,serif" font-size="14.00">OUTPUT: </text>
<text text-anchor="middle" x="1451" y="-642.8" font-family="Times,serif" font-size="14.00">INPUT: </text>
</g>
<!-- E7 -->
<g id="node8" class="node"><title>E7</title>
<ellipse fill="azure" stroke="black" cx="1123" cy="-499" rx="59.5901" ry="18"/>
<text text-anchor="middle" x="1123" y="-495.3" font-family="Times,serif" font-size="14.00">cook (S7,P0)</text>
</g>
<!-- E6&#45;&gt;E7 -->
<g id="edge22" class="edge"><title>E6&#45;&gt;E7</title>
<path fill="none" stroke="black" d="M1287.52,-586.097C1253.88,-568.493 1197.81,-539.147 1160.62,-519.686"/>
<polygon fill="black" stroke="black" points="1162.08,-516.5 1151.59,-514.964 1158.83,-522.702 1162.08,-516.5"/>
<text text-anchor="middle" x="1321.5" y="-553.8" font-family="Times,serif" font-size="14.00">OUTPUT: </text>
<text text-anchor="middle" x="1321.5" y="-538.8" font-family="Times,serif" font-size="14.00">INPUT: &#160;stirring frequently</text>
</g>
<!-- E8 -->
<g id="node9" class="node"><title>E8</title>
<ellipse fill="azure" stroke="black" cx="905" cy="-397" rx="69.5877" ry="18"/>
<text text-anchor="middle" x="905" y="-393.3" font-family="Times,serif" font-size="14.00">remove (S8,P0)</text>
</g>
<!-- E7&#45;&gt;E8 -->
<g id="edge23" class="edge"><title>E7&#45;&gt;E8</title>
<path fill="none" stroke="black" d="M1091.3,-483.459C1053.21,-465.984 989.154,-436.603 946.98,-417.257"/>
<polygon fill="black" stroke="black" points="948.356,-414.037 937.807,-413.049 945.437,-420.4 948.356,-414.037"/>
<text text-anchor="middle" x="1078" y="-451.8" font-family="Times,serif" font-size="14.00">OUTPUT: </text>
<text text-anchor="middle" x="1078" y="-436.8" font-family="Times,serif" font-size="14.00">INPUT: </text>
</g>
<!-- E16 -->
<g id="node17" class="node"><title>E16</title>
<ellipse fill="azure" stroke="black" cx="809" cy="-295" rx="63.8893" ry="18"/>
<text text-anchor="middle" x="809" y="-291.3" font-family="Times,serif" font-size="14.00">bake (S16,P0)</text>
</g>
<!-- E8&#45;&gt;E16 -->
<g id="edge35" class="edge"><title>E8&#45;&gt;E16</title>
<path fill="none" stroke="black" d="M888.715,-379.036C873.175,-362.849 849.607,-338.299 832.124,-320.087"/>
<polygon fill="black" stroke="black" points="834.495,-317.503 825.045,-312.713 829.445,-322.351 834.495,-317.503"/>
<text text-anchor="middle" x="1002" y="-349.8" font-family="Times,serif" font-size="14.00">OUTPUT: </text>
<text text-anchor="middle" x="1002" y="-334.8" font-family="Times,serif" font-size="14.00">INPUT: in the preheated oven for 12 minutes</text>
</g>
<!-- E9 -->
<g id="node10" class="node"><title>E9</title>
<ellipse fill="azure" stroke="black" cx="156" cy="-602" rx="53.0913" ry="18"/>
<text text-anchor="middle" x="156" y="-598.3" font-family="Times,serif" font-size="14.00">stir (S9,P0)</text>
</g>
<!-- E10 -->
<g id="node11" class="node"><title>E10</title>
<ellipse fill="azure" stroke="black" cx="351" cy="-499" rx="64.189" ry="18"/>
<text text-anchor="middle" x="351" y="-495.3" font-family="Times,serif" font-size="14.00">pour (S10,P0)</text>
</g>
<!-- E9&#45;&gt;E10 -->
<g id="edge25" class="edge"><title>E9&#45;&gt;E10</title>
<path fill="none" stroke="black" d="M183.731,-586.549C209.449,-573.156 248.79,-552.693 283,-535 292.563,-530.054 302.89,-524.73 312.538,-519.763"/>
<polygon fill="black" stroke="black" points="314.242,-522.823 321.532,-515.135 311.039,-516.598 314.242,-522.823"/>
<text text-anchor="middle" x="315" y="-553.8" font-family="Times,serif" font-size="14.00">OUTPUT: </text>
<text text-anchor="middle" x="315" y="-538.8" font-family="Times,serif" font-size="14.00">INPUT: </text>
</g>
<!-- E15 -->
<g id="node16" class="node"><title>E15</title>
<ellipse fill="azure" stroke="black" cx="679" cy="-397" rx="76.8869" ry="18"/>
<text text-anchor="middle" x="679" y="-393.3" font-family="Times,serif" font-size="14.00">sprinkle (S15,P0)</text>
</g>
<!-- E10&#45;&gt;E15 -->
<g id="edge33" class="edge"><title>E10&#45;&gt;E15</title>
<path fill="none" stroke="black" d="M369.761,-481.515C388.128,-466.342 417.566,-444.5 447,-433 493.649,-414.775 549.003,-405.983 593.941,-401.766"/>
<polygon fill="black" stroke="black" points="594.295,-405.249 603.95,-400.886 593.682,-398.276 594.295,-405.249"/>
<text text-anchor="middle" x="561" y="-451.8" font-family="Times,serif" font-size="14.00">OUTPUT: </text>
<text text-anchor="middle" x="561" y="-436.8" font-family="Times,serif" font-size="14.00">INPUT: with remaining 1/4 cup pecans</text>
</g>
<!-- E11 -->
<g id="node12" class="node"><title>E11</title>
<ellipse fill="azure" stroke="black" cx="369" cy="-706" rx="73.387" ry="18"/>
<text text-anchor="middle" x="369" y="-702.3" font-family="Times,serif" font-size="14.00">preheat (S11,P0)</text>
</g>
<!-- E12 -->
<g id="node13" class="node"><title>E12</title>
<ellipse fill="azure" stroke="black" cx="539" cy="-602" rx="61.99" ry="18"/>
<text text-anchor="middle" x="539" y="-598.3" font-family="Times,serif" font-size="14.00">beat (S12,P0)</text>
</g>
<!-- E11&#45;&gt;E12 -->
<g id="edge28" class="edge"><title>E11&#45;&gt;E12</title>
<path fill="none" stroke="black" d="M384.35,-688.16C398.428,-673.536 420.457,-652.622 443,-639 456.497,-630.844 472.15,-624.022 486.849,-618.587"/>
<polygon fill="black" stroke="black" points="488.088,-621.861 496.339,-615.216 485.744,-615.265 488.088,-621.861"/>
<text text-anchor="middle" x="501.5" y="-657.8" font-family="Times,serif" font-size="14.00">OUTPUT: </text>
<text text-anchor="middle" x="501.5" y="-642.8" font-family="Times,serif" font-size="14.00">INPUT: until foamy</text>
</g>
<!-- E14 -->
<g id="node15" class="node"><title>E14</title>
<ellipse fill="azure" stroke="black" cx="679" cy="-499" rx="70.6878" ry="18"/>
<text text-anchor="middle" x="679" y="-495.3" font-family="Times,serif" font-size="14.00">spread (S14,P0)</text>
</g>
<!-- E12&#45;&gt;E14 -->
<g id="edge29" class="edge"><title>E12&#45;&gt;E14</title>
<path fill="none" stroke="black" d="M542.952,-583.756C547.222,-568.866 555.454,-547.789 570,-535 581.632,-524.773 596.283,-517.529 611.037,-512.4"/>
<polygon fill="black" stroke="black" points="612.246,-515.688 620.717,-509.325 610.126,-509.017 612.246,-515.688"/>
<text text-anchor="middle" x="622.5" y="-553.8" font-family="Times,serif" font-size="14.00">OUTPUT: </text>
<text text-anchor="middle" x="622.5" y="-538.8" font-family="Times,serif" font-size="14.00">INPUT: meringue</text>
</g>
<!-- E13 -->
<g id="node14" class="node"><title>E13</title>
<ellipse fill="azure" stroke="black" cx="679" cy="-602" rx="59.5901" ry="18"/>
<text text-anchor="middle" x="679" y="-598.3" font-family="Times,serif" font-size="14.00">add (S13,P0)</text>
</g>
<!-- E13&#45;&gt;E14 -->
<g id="edge30" class="edge"><title>E13&#45;&gt;E14</title>
<path fill="none" stroke="black" d="M679,-583.867C679,-568.414 679,-545.416 679,-527.409"/>
<polygon fill="black" stroke="black" points="682.5,-527.217 679,-517.217 675.5,-527.217 682.5,-527.217"/>
<text text-anchor="middle" x="738" y="-553.8" font-family="Times,serif" font-size="14.00">OUTPUT: </text>
<text text-anchor="middle" x="738" y="-538.8" font-family="Times,serif" font-size="14.00">INPUT: over filling </text>
</g>
<!-- E14&#45;&gt;E15 -->
<g id="edge32" class="edge"><title>E14&#45;&gt;E15</title>
<path fill="none" stroke="black" d="M679,-480.581C679,-465.382 679,-443.067 679,-425.464"/>
<polygon fill="black" stroke="black" points="682.5,-425.219 679,-415.219 675.5,-425.219 682.5,-425.219"/>
<text text-anchor="middle" x="711" y="-451.8" font-family="Times,serif" font-size="14.00">OUTPUT: </text>
<text text-anchor="middle" x="711" y="-436.8" font-family="Times,serif" font-size="14.00">INPUT: </text>
</g>
<!-- E15&#45;&gt;E16 -->
<g id="edge34" class="edge"><title>E15&#45;&gt;E16</title>
<path fill="none" stroke="black" d="M700.467,-379.487C722.142,-362.814 755.771,-336.945 779.849,-318.424"/>
<polygon fill="black" stroke="black" points="782.14,-321.077 787.933,-312.206 777.872,-315.529 782.14,-321.077"/>
<text text-anchor="middle" x="795" y="-349.8" font-family="Times,serif" font-size="14.00">OUTPUT: </text>
<text text-anchor="middle" x="795" y="-334.8" font-family="Times,serif" font-size="14.00">INPUT: </text>
</g>
<!-- E17 -->
<g id="node18" class="node"><title>E17</title>
<ellipse fill="azure" stroke="black" cx="689" cy="-193" rx="62.2891" ry="18"/>
<text text-anchor="middle" x="689" y="-189.3" font-family="Times,serif" font-size="14.00">cool (S17,P0)</text>
</g>
<!-- E16&#45;&gt;E17 -->
<g id="edge36" class="edge"><title>E16&#45;&gt;E17</title>
<path fill="none" stroke="black" d="M789.453,-277.711C769.579,-261.149 738.621,-235.351 716.325,-216.771"/>
<polygon fill="black" stroke="black" points="718.462,-213.995 708.539,-210.282 713.98,-219.373 718.462,-213.995"/>
<text text-anchor="middle" x="798" y="-247.8" font-family="Times,serif" font-size="14.00">OUTPUT: </text>
<text text-anchor="middle" x="798" y="-232.8" font-family="Times,serif" font-size="14.00">INPUT: </text>
</g>
<!-- E18 -->
<g id="node19" class="node"><title>E18</title>
<ellipse fill="azure" stroke="black" cx="689" cy="-91" rx="62.2891" ry="18"/>
<text text-anchor="middle" x="689" y="-87.3" font-family="Times,serif" font-size="14.00">chill (S18,P0)</text>
</g>
<!-- E17&#45;&gt;E18 -->
<g id="edge38" class="edge"><title>E17&#45;&gt;E18</title>
<path fill="none" stroke="black" d="M689,-174.581C689,-159.382 689,-137.067 689,-119.464"/>
<polygon fill="black" stroke="black" points="692.5,-119.219 689,-109.219 685.5,-119.219 692.5,-119.219"/>
<text text-anchor="middle" x="721" y="-145.8" font-family="Times,serif" font-size="14.00">OUTPUT: </text>
<text text-anchor="middle" x="721" y="-130.8" font-family="Times,serif" font-size="14.00">INPUT: </text>
</g>
<!-- EOR -->
<g id="node40" class="node"><title>EOR</title>
<ellipse fill="plum" stroke="black" cx="689" cy="-18" rx="57.3905" ry="18"/>
<text text-anchor="middle" x="689" y="-14.3" font-family="Times,serif" font-size="14.00">Bon appetit!</text>
</g>
<!-- E18&#45;&gt;EOR -->
<g id="edge39" class="edge"><title>E18&#45;&gt;EOR</title>
<path fill="none" stroke="black" d="M689,-72.8129C689,-64.7895 689,-55.0475 689,-46.0691"/>
<polygon fill="black" stroke="black" points="692.5,-46.0288 689,-36.0288 685.5,-46.0289 692.5,-46.0288"/>
</g>
<!-- D0 -->
<g id="node20" class="node"><title>D0</title>
<polygon fill="peachpuff" stroke="black" points="2323,-1212 2015,-1212 2015,-1174 2323,-1174 2323,-1212"/>
<text text-anchor="middle" x="2169" y="-1196.8" font-family="Times,serif" font-size="14.00">DOBJ: cornstarch, packed dark brown sugar</text>
<text text-anchor="middle" x="2169" y="-1181.8" font-family="Times,serif" font-size="14.00">(text: brown sugar , cornstarch , and 1/4 teaspoon)</text>
</g>
<!-- D0&#45;&gt;E0 -->
<g id="edge1" class="edge"><title>D0&#45;&gt;E0</title>
<path fill="none" stroke="black" d="M2207.36,-1173.83C2229.36,-1163.41 2257.01,-1150.31 2279.52,-1139.65"/>
<polygon fill="black" stroke="black" points="2281.28,-1142.69 2288.82,-1135.24 2278.29,-1136.36 2281.28,-1142.69"/>
</g>
<!-- P0_0 -->
<g id="node21" class="node"><title>P0_0</title>
<polygon fill="peachpuff" stroke="black" points="2605,-1212 2341,-1212 2341,-1174 2605,-1174 2605,-1212"/>
<text text-anchor="middle" x="2473" y="-1196.8" font-family="Times,serif" font-size="14.00">PREP: in cream of tartar</text>
<text text-anchor="middle" x="2473" y="-1181.8" font-family="Times,serif" font-size="14.00">(text: in the top of a i would double boiler)</text>
</g>
<!-- P0_0&#45;&gt;E0 -->
<g id="edge2" class="edge"><title>P0_0&#45;&gt;E0</title>
<path fill="none" stroke="black" d="M2434.64,-1173.83C2412.64,-1163.41 2384.99,-1150.31 2362.48,-1139.65"/>
<polygon fill="black" stroke="black" points="2363.71,-1136.36 2353.18,-1135.24 2360.72,-1142.69 2363.71,-1136.36"/>
</g>
<!-- D13 -->
<g id="node22" class="node"><title>D13</title>
<polygon fill="peachpuff" stroke="black" points="892,-725 764,-725 764,-687 892,-687 892,-725"/>
<text text-anchor="middle" x="828" y="-709.8" font-family="Times,serif" font-size="14.00">DOBJ: white sugar</text>
<text text-anchor="middle" x="828" y="-694.8" font-family="Times,serif" font-size="14.00">(text: sugar)</text>
</g>
<!-- D13&#45;&gt;E13 -->
<g id="edge3" class="edge"><title>D13&#45;&gt;E13</title>
<path fill="none" stroke="black" d="M801.705,-686.999C776.224,-669.556 737.56,-643.088 710.46,-624.536"/>
<polygon fill="black" stroke="black" points="712.327,-621.573 702.099,-618.812 708.373,-627.349 712.327,-621.573"/>
</g>
<!-- D11 -->
<g id="node23" class="node"><title>D11</title>
<polygon fill="white" stroke="black" points="530,-827 208,-827 208,-791 530,-791 530,-827"/>
<text text-anchor="middle" x="369" y="-805.3" font-family="Times,serif" font-size="14.00">DOBJ: oven to 350 degrees F &#45;LRB&#45; 175 degrees C.</text>
</g>
<!-- D11&#45;&gt;E11 -->
<g id="edge4" class="edge"><title>D11&#45;&gt;E11</title>
<path fill="none" stroke="black" d="M369,-790.867C369,-775.414 369,-752.416 369,-734.409"/>
<polygon fill="black" stroke="black" points="372.5,-734.217 369,-724.217 365.5,-734.217 372.5,-734.217"/>
</g>
<!-- D4 -->
<g id="node24" class="node"><title>D4</title>
<polygon fill="peachpuff" stroke="black" points="1011,-931 895,-931 895,-893 1011,-893 1011,-931"/>
<text text-anchor="middle" x="953" y="-915.8" font-family="Times,serif" font-size="14.00">DOBJ: egg yolks</text>
<text text-anchor="middle" x="953" y="-900.8" font-family="Times,serif" font-size="14.00">(text: egg yolks)</text>
</g>
<!-- D4&#45;&gt;E4 -->
<g id="edge5" class="edge"><title>D4&#45;&gt;E4</title>
<path fill="none" stroke="black" d="M1000.73,-892.943C1050.27,-874.205 1127.13,-845.131 1175.45,-826.851"/>
<polygon fill="black" stroke="black" points="1176.9,-830.046 1185.02,-823.234 1174.42,-823.499 1176.9,-830.046"/>
</g>
<!-- P4_0 -->
<g id="node25" class="node"><title>P4_0</title>
<polygon fill="white" stroke="black" points="1194.5,-930 1029.5,-930 1029.5,-894 1194.5,-894 1194.5,-930"/>
<text text-anchor="middle" x="1112" y="-908.3" font-family="Times,serif" font-size="14.00">PREP: in a medium bowl</text>
</g>
<!-- P4_0&#45;&gt;E4 -->
<g id="edge6" class="edge"><title>P4_0&#45;&gt;E4</title>
<path fill="none" stroke="black" d="M1130.32,-893.867C1148.17,-877.172 1175.44,-851.673 1195.22,-833.173"/>
<polygon fill="black" stroke="black" points="1197.75,-835.6 1202.66,-826.213 1192.97,-830.487 1197.75,-835.6"/>
</g>
<!-- P4_1 -->
<g id="node26" class="node"><title>P4_1</title>
<polygon fill="white" stroke="black" points="1443,-930 1213,-930 1213,-894 1443,-894 1443,-930"/>
<text text-anchor="middle" x="1328" y="-908.3" font-family="Times,serif" font-size="14.00">PREP: until thick and lemon colored</text>
</g>
<!-- P4_1&#45;&gt;E4 -->
<g id="edge7" class="edge"><title>P4_1&#45;&gt;E4</title>
<path fill="none" stroke="black" d="M1309.68,-893.867C1291.83,-877.172 1264.56,-851.673 1244.78,-833.173"/>
<polygon fill="black" stroke="black" points="1247.03,-830.487 1237.34,-826.213 1242.25,-835.6 1247.03,-830.487"/>
</g>
<!-- D9 -->
<g id="node27" class="node"><title>D9</title>
<polygon fill="peachpuff" stroke="black" points="278,-725 0,-725 0,-687 278,-687 278,-725"/>
<text text-anchor="middle" x="139" y="-709.8" font-family="Times,serif" font-size="14.00">DOBJ: butter, vanilla extract, chopped pecans</text>
<text text-anchor="middle" x="139" y="-694.8" font-family="Times,serif" font-size="14.00">(text: butter , vanilla and 3/4 cup pecans)</text>
</g>
<!-- D9&#45;&gt;E9 -->
<g id="edge8" class="edge"><title>D9&#45;&gt;E9</title>
<path fill="none" stroke="black" d="M142.039,-686.764C144.674,-670.957 148.522,-647.867 151.512,-629.931"/>
<polygon fill="black" stroke="black" points="154.965,-630.499 153.157,-620.06 148.06,-629.348 154.965,-630.499"/>
</g>
<!-- P2_0_ing -->
<g id="node28" class="node"><title>P2_0_ing</title>
<polygon fill="peachpuff" stroke="black" points="2249,-1035 2049,-1035 2049,-997 2249,-997 2249,-1035"/>
<text text-anchor="middle" x="2149" y="-1019.8" font-family="Times,serif" font-size="14.00">PREP: in milk, light corn syrup</text>
<text text-anchor="middle" x="2149" y="-1004.8" font-family="Times,serif" font-size="14.00">(text: in corn syrup, milk)</text>
</g>
<!-- P2_0_ing&#45;&gt;E2 -->
<g id="edge11" class="edge"><title>P2_0_ing&#45;&gt;E2</title>
<path fill="none" stroke="black" d="M2158.12,-996.764C2166.1,-980.809 2177.78,-957.435 2186.79,-939.429"/>
<polygon fill="black" stroke="black" points="2190.13,-940.569 2191.47,-930.06 2183.87,-937.439 2190.13,-940.569"/>
</g>
<!-- P3_0_0 -->
<g id="node29" class="node"><title>P3_0_0</title>
<polygon fill="white" stroke="black" points="1631,-930 1461,-930 1461,-894 1631,-894 1631,-930"/>
<text text-anchor="middle" x="1546" y="-908.3" font-family="Times,serif" font-size="14.00">PREP: over boiling water </text>
</g>
<!-- P3_0_0&#45;&gt;E3 -->
<g id="edge13" class="edge"><title>P3_0_0&#45;&gt;E3</title>
<path fill="none" stroke="black" d="M1580.44,-893.867C1616.41,-875.967 1672.74,-847.943 1710.25,-829.281"/>
<polygon fill="black" stroke="black" points="1711.96,-832.338 1719.35,-824.75 1708.84,-826.071 1711.96,-832.338"/>
</g>
<!-- P3_0_1 -->
<g id="node30" class="node"><title>P3_0_1</title>
<polygon fill="white" stroke="black" points="1849,-930 1649,-930 1649,-894 1849,-894 1849,-930"/>
<text text-anchor="middle" x="1749" y="-908.3" font-family="Times,serif" font-size="14.00">PREP: over &#160;stirring constantly </text>
</g>
<!-- P3_0_1&#45;&gt;E3 -->
<g id="edge14" class="edge"><title>P3_0_1&#45;&gt;E3</title>
<path fill="none" stroke="black" d="M1749,-893.867C1749,-878.414 1749,-855.416 1749,-837.409"/>
<polygon fill="black" stroke="black" points="1752.5,-837.217 1749,-827.217 1745.5,-837.217 1752.5,-837.217"/>
</g>
<!-- P3_0_2 -->
<g id="node31" class="node"><title>P3_0_2</title>
<polygon fill="white" stroke="black" points="2129,-930 1867,-930 1867,-894 2129,-894 2129,-930"/>
<text text-anchor="middle" x="1998" y="-908.3" font-family="Times,serif" font-size="14.00">PREP: over &#160;20 minutes or until thickened</text>
</g>
<!-- P3_0_2&#45;&gt;E3 -->
<g id="edge15" class="edge"><title>P3_0_2&#45;&gt;E3</title>
<path fill="none" stroke="black" d="M1956.04,-893.981C1910.62,-875.558 1838.53,-846.317 1792.52,-827.651"/>
<polygon fill="black" stroke="black" points="1793.69,-824.352 1783.11,-823.836 1791.06,-830.838 1793.69,-824.352"/>
</g>
<!-- P6_0_0 -->
<g id="node32" class="node"><title>P6_0_0</title>
<polygon fill="white" stroke="black" points="1200.5,-724 973.5,-724 973.5,-688 1200.5,-688 1200.5,-724"/>
<text text-anchor="middle" x="1087" y="-702.3" font-family="Times,serif" font-size="14.00">PREP: into remaining milk mixture </text>
</g>
<!-- P6_0_0&#45;&gt;E6 -->
<g id="edge19" class="edge"><title>P6_0_0&#45;&gt;E6</title>
<path fill="none" stroke="black" d="M1125.33,-687.927C1166.64,-669.526 1232.17,-640.341 1274.62,-621.43"/>
<polygon fill="black" stroke="black" points="1276.13,-624.59 1283.84,-617.324 1273.28,-618.196 1276.13,-624.59"/>
</g>
<!-- P6_0_1 -->
<g id="node33" class="node"><title>P6_0_1</title>
<polygon fill="white" stroke="black" points="1413,-724 1219,-724 1219,-688 1413,-688 1413,-724"/>
<text text-anchor="middle" x="1316" y="-702.3" font-family="Times,serif" font-size="14.00">PREP: into &#160;stirring constantly</text>
</g>
<!-- P6_0_1&#45;&gt;E6 -->
<g id="edge20" class="edge"><title>P6_0_1&#45;&gt;E6</title>
<path fill="none" stroke="black" d="M1316,-687.697C1316,-671.923 1316,-648.364 1316,-630.094"/>
<polygon fill="black" stroke="black" points="1319.5,-630.047 1316,-620.047 1312.5,-630.047 1319.5,-630.047"/>
</g>
<!-- D7_0 -->
<g id="node34" class="node"><title>D7_0</title>
<polygon fill="white" stroke="black" points="1238,-620 1008,-620 1008,-584 1238,-584 1238,-620"/>
<text text-anchor="middle" x="1123" y="-598.3" font-family="Times,serif" font-size="14.00">DOBJ: 5 minutes over boiling water </text>
</g>
<!-- D7_0&#45;&gt;E7 -->
<g id="edge21" class="edge"><title>D7_0&#45;&gt;E7</title>
<path fill="none" stroke="black" d="M1123,-583.867C1123,-568.414 1123,-545.416 1123,-527.409"/>
<polygon fill="black" stroke="black" points="1126.5,-527.217 1123,-517.217 1119.5,-527.217 1126.5,-527.217"/>
</g>
<!-- P8_0_0 -->
<g id="node35" class="node"><title>P8_0_0</title>
<polygon fill="white" stroke="black" points="962.5,-517 847.5,-517 847.5,-481 962.5,-481 962.5,-517"/>
<text text-anchor="middle" x="905" y="-495.3" font-family="Times,serif" font-size="14.00">PREP: from heat</text>
</g>
<!-- P8_0_0&#45;&gt;E8 -->
<g id="edge24" class="edge"><title>P8_0_0&#45;&gt;E8</title>
<path fill="none" stroke="black" d="M905,-480.581C905,-465.382 905,-443.067 905,-425.464"/>
<polygon fill="black" stroke="black" points="908.5,-425.219 905,-415.219 901.5,-425.219 908.5,-425.219"/>
</g>
<!-- P10_0_ing -->
<g id="node36" class="node"><title>P10_0_ing</title>
<polygon fill="peachpuff" stroke="black" points="442,-621 260,-621 260,-583 442,-583 442,-621"/>
<text text-anchor="middle" x="351" y="-605.8" font-family="Times,serif" font-size="14.00">PREP: into (9 inch) pie shell</text>
<text text-anchor="middle" x="351" y="-590.8" font-family="Times,serif" font-size="14.00">(text: into pastry shell)</text>
</g>
<!-- P10_0_ing&#45;&gt;E10 -->
<g id="edge26" class="edge"><title>P10_0_ing&#45;&gt;E10</title>
<path fill="none" stroke="black" d="M351,-582.943C351,-567.531 351,-545.127 351,-527.488"/>
<polygon fill="black" stroke="black" points="354.5,-527.226 351,-517.226 347.5,-527.226 354.5,-527.226"/>
</g>
<!-- D12_ing -->
<g id="node37" class="node"><title>D12_ing</title>
<polygon fill="peachpuff" stroke="black" points="745.5,-725 460.5,-725 460.5,-687 745.5,-687 745.5,-725"/>
<text text-anchor="middle" x="603" y="-709.8" font-family="Times,serif" font-size="14.00">DOBJ: egg whites, salt</text>
<text text-anchor="middle" x="603" y="-694.8" font-family="Times,serif" font-size="14.00">(text: egg whites cream of tartar , pinch of salt)</text>
</g>
<!-- D12_ing&#45;&gt;E12 -->
<g id="edge27" class="edge"><title>D12_ing&#45;&gt;E12</title>
<path fill="none" stroke="black" d="M591.558,-686.764C581.454,-670.662 566.609,-647.001 555.27,-628.931"/>
<polygon fill="black" stroke="black" points="557.984,-626.67 549.704,-620.06 552.055,-630.391 557.984,-626.67"/>
</g>
<!-- P14_0_1 -->
<g id="node38" class="node"><title>P14_0_1</title>
<polygon fill="white" stroke="black" points="989.5,-620 756.5,-620 756.5,-584 989.5,-584 989.5,-620"/>
<text text-anchor="middle" x="873" y="-598.3" font-family="Times,serif" font-size="14.00">PREP: over &#160;sealing to edge of pastry</text>
</g>
<!-- P14_0_1&#45;&gt;E14 -->
<g id="edge31" class="edge"><title>P14_0_1&#45;&gt;E14</title>
<path fill="none" stroke="black" d="M858.668,-583.995C845.21,-569.055 823.782,-547.763 801,-535 783.648,-525.279 763.364,-518.061 744.374,-512.791"/>
<polygon fill="black" stroke="black" points="745.146,-509.375 734.584,-510.209 743.361,-516.143 745.146,-509.375"/>
</g>
<!-- P17_0_0 -->
<g id="node39" class="node"><title>P17_0_0</title>
<polygon fill="white" stroke="black" points="727,-313 549,-313 549,-277 727,-277 727,-313"/>
<text text-anchor="middle" x="638" y="-291.3" font-family="Times,serif" font-size="14.00">PREP: to room temperature</text>
</g>
<!-- P17_0_0&#45;&gt;E17 -->
<g id="edge37" class="edge"><title>P17_0_0&#45;&gt;E17</title>
<path fill="none" stroke="black" d="M646.884,-276.581C654.83,-261 666.589,-237.943 675.664,-220.149"/>
<polygon fill="black" stroke="black" points="678.963,-221.384 680.388,-210.886 672.727,-218.204 678.963,-221.384"/>
</g>
</g>
</svg>
