<?xml version="1.0" encoding="UTF-8" standalone="no"?>
<!DOCTYPE svg PUBLIC "-//W3C//DTD SVG 1.1//EN"
 "http://www.w3.org/Graphics/SVG/1.1/DTD/svg11.dtd">
<!-- Generated by graphviz version 2.38.0 (20140413.2041)
 -->
<!-- Title: recipe Pages: 1 -->
<svg width="1249pt" height="706pt"
 viewBox="0.00 0.00 1248.50 706.00" xmlns="http://www.w3.org/2000/svg" xmlns:xlink="http://www.w3.org/1999/xlink">
<g id="graph0" class="graph" transform="scale(1 1) rotate(0) translate(4 702)">
<title>recipe</title>
<polygon fill="white" stroke="none" points="-4,4 -4,-702 1244.5,-702 1244.5,4 -4,4"/>
<!-- E0 -->
<g id="node1" class="node"><title>E0</title>
<ellipse fill="azure" stroke="black" cx="943.5" cy="-604" rx="73.387" ry="18"/>
<text text-anchor="middle" x="943.5" y="-600.3" font-family="Times,serif" font-size="14.00">combine (S0,P0)</text>
</g>
<!-- E1 -->
<g id="node2" class="node"><title>E1</title>
<ellipse fill="azure" stroke="black" cx="812.5" cy="-501" rx="64.189" ry="18"/>
<text text-anchor="middle" x="812.5" y="-497.3" font-family="Times,serif" font-size="14.00">whisk (S1,P0)</text>
</g>
<!-- E0&#45;&gt;E1 -->
<g id="edge4" class="edge"><title>E0&#45;&gt;E1</title>
<path fill="none" stroke="black" d="M922.161,-586.548C900.24,-569.647 865.968,-543.223 841.576,-524.417"/>
<polygon fill="black" stroke="black" points="843.453,-521.445 833.397,-518.111 839.179,-526.989 843.453,-521.445"/>
<text text-anchor="middle" x="1010.5" y="-555.8" font-family="Times,serif" font-size="14.00">OUTPUT: </text>
<text text-anchor="middle" x="1010.5" y="-540.8" font-family="Times,serif" font-size="14.00">INPUT: &#160;ramen noodle seasoning packet</text>
</g>
<!-- E2 -->
<g id="node3" class="node"><title>E2</title>
<ellipse fill="azure" stroke="black" cx="697.5" cy="-399" rx="69.5877" ry="18"/>
<text text-anchor="middle" x="697.5" y="-395.3" font-family="Times,serif" font-size="14.00">vinegar (S1,P1)</text>
</g>
<!-- E1&#45;&gt;E2 -->
<g id="edge5" class="edge"><title>E1&#45;&gt;E2</title>
<path fill="none" stroke="black" d="M793.767,-483.711C774.918,-467.32 745.664,-441.882 724.35,-423.348"/>
<polygon fill="black" stroke="black" points="726.451,-420.536 716.608,-416.616 721.857,-425.819 726.451,-420.536"/>
<text text-anchor="middle" x="803.5" y="-453.8" font-family="Times,serif" font-size="14.00">OUTPUT: </text>
<text text-anchor="middle" x="803.5" y="-438.8" font-family="Times,serif" font-size="14.00">INPUT: </text>
</g>
<!-- E3 -->
<g id="node4" class="node"><title>E3</title>
<ellipse fill="azure" stroke="black" cx="578.5" cy="-296" rx="59.5901" ry="18"/>
<text text-anchor="middle" x="578.5" y="-292.3" font-family="Times,serif" font-size="14.00">pour (S2,P0)</text>
</g>
<!-- E2&#45;&gt;E3 -->
<g id="edge7" class="edge"><title>E2&#45;&gt;E3</title>
<path fill="none" stroke="black" d="M678.116,-381.548C658.29,-364.721 627.342,-338.454 605.203,-319.664"/>
<polygon fill="black" stroke="black" points="607.371,-316.914 597.482,-313.111 602.842,-322.25 607.371,-316.914"/>
<text text-anchor="middle" x="687.5" y="-351.8" font-family="Times,serif" font-size="14.00">OUTPUT: </text>
<text text-anchor="middle" x="687.5" y="-336.8" font-family="Times,serif" font-size="14.00">INPUT: </text>
</g>
<!-- E4 -->
<g id="node5" class="node"><title>E4</title>
<ellipse fill="azure" stroke="black" cx="472.5" cy="-193" rx="56.59" ry="18"/>
<text text-anchor="middle" x="472.5" y="-189.3" font-family="Times,serif" font-size="14.00">fold (S3,P0)</text>
</g>
<!-- E3&#45;&gt;E4 -->
<g id="edge9" class="edge"><title>E3&#45;&gt;E4</title>
<path fill="none" stroke="black" d="M560.996,-278.322C543.554,-261.702 516.619,-236.038 497.045,-217.387"/>
<polygon fill="black" stroke="black" points="499.332,-214.732 489.678,-210.368 494.503,-219.8 499.332,-214.732"/>
<text text-anchor="middle" x="569.5" y="-247.8" font-family="Times,serif" font-size="14.00">OUTPUT: </text>
<text text-anchor="middle" x="569.5" y="-232.8" font-family="Times,serif" font-size="14.00">INPUT: </text>
</g>
<!-- E5 -->
<g id="node6" class="node"><title>E5</title>
<ellipse fill="azure" stroke="black" cx="326.5" cy="-91" rx="57.6901" ry="18"/>
<text text-anchor="middle" x="326.5" y="-87.3" font-family="Times,serif" font-size="14.00">chill (S4,P0)</text>
</g>
<!-- E4&#45;&gt;E5 -->
<g id="edge11" class="edge"><title>E4&#45;&gt;E5</title>
<path fill="none" stroke="black" d="M449.688,-176.375C425.082,-159.522 385.733,-132.571 358.145,-113.674"/>
<polygon fill="black" stroke="black" points="359.862,-110.609 349.634,-107.845 355.907,-116.384 359.862,-110.609"/>
<text text-anchor="middle" x="452.5" y="-145.8" font-family="Times,serif" font-size="14.00">OUTPUT: </text>
<text text-anchor="middle" x="452.5" y="-130.8" font-family="Times,serif" font-size="14.00">INPUT: </text>
</g>
<!-- EOR -->
<g id="node15" class="node"><title>EOR</title>
<ellipse fill="plum" stroke="black" cx="326.5" cy="-18" rx="57.3905" ry="18"/>
<text text-anchor="middle" x="326.5" y="-14.3" font-family="Times,serif" font-size="14.00">Bon appetit!</text>
</g>
<!-- E5&#45;&gt;EOR -->
<g id="edge14" class="edge"><title>E5&#45;&gt;EOR</title>
<path fill="none" stroke="black" d="M326.5,-72.8129C326.5,-64.7895 326.5,-55.0475 326.5,-46.0691"/>
<polygon fill="black" stroke="black" points="330,-46.0288 326.5,-36.0288 323,-46.0289 330,-46.0288"/>
</g>
<!-- D0 -->
<g id="node7" class="node"><title>D0</title>
<polygon fill="peachpuff" stroke="black" points="1108,-698 299,-698 299,-660 1108,-660 1108,-698"/>
<text text-anchor="middle" x="703.5" y="-682.8" font-family="Times,serif" font-size="14.00">DOBJ: (12 ounce) package broccoli coleslaw mix, (3 ounce) package Oriental&#45;flavored ramen noodles, slivered almonds, sunflower seeds</text>
<text text-anchor="middle" x="703.5" y="-667.8" font-family="Times,serif" font-size="14.00">(text: broccoli coleslaw mix , sunflower seeds , almonds , and ramen noodles)</text>
</g>
<!-- D0&#45;&gt;E0 -->
<g id="edge1" class="edge"><title>D0&#45;&gt;E0</title>
<path fill="none" stroke="black" d="M762.826,-659.955C801.563,-648.173 851.746,-632.908 889.391,-621.458"/>
<polygon fill="black" stroke="black" points="890.617,-624.744 899.166,-618.485 888.58,-618.047 890.617,-624.744"/>
</g>
<!-- P0_0 -->
<g id="node8" class="node"><title>P0_0</title>
<polygon fill="white" stroke="black" points="1240.5,-697 1126.5,-697 1126.5,-661 1240.5,-661 1240.5,-697"/>
<text text-anchor="middle" x="1183.5" y="-675.3" font-family="Times,serif" font-size="14.00">PREP: in a bowl</text>
</g>
<!-- P0_0&#45;&gt;E0 -->
<g id="edge2" class="edge"><title>P0_0&#45;&gt;E0</title>
<path fill="none" stroke="black" d="M1127.53,-660.977C1088.5,-649.104 1036.68,-633.342 997.976,-621.57"/>
<polygon fill="black" stroke="black" points="998.518,-618.076 987.932,-618.515 996.481,-624.773 998.518,-618.076"/>
</g>
<!-- D1_ing -->
<g id="node9" class="node"><title>D1_ing</title>
<polygon fill="peachpuff" stroke="black" points="852.5,-623 662.5,-623 662.5,-585 852.5,-585 852.5,-623"/>
<text text-anchor="middle" x="757.5" y="-607.8" font-family="Times,serif" font-size="14.00">DOBJ: white sugar, canola oil</text>
<text text-anchor="middle" x="757.5" y="-592.8" font-family="Times,serif" font-size="14.00">(text: canola oil , &#160;sugar )</text>
</g>
<!-- D1_ing&#45;&gt;E1 -->
<g id="edge3" class="edge"><title>D1_ing&#45;&gt;E1</title>
<path fill="none" stroke="black" d="M767.333,-584.943C776.016,-568.998 788.774,-545.57 798.518,-527.676"/>
<polygon fill="black" stroke="black" points="801.592,-529.349 803.301,-518.893 795.445,-526.001 801.592,-529.349"/>
</g>
<!-- P2_0_0 -->
<g id="node10" class="node"><title>P2_0_0</title>
<polygon fill="white" stroke="black" points="730.5,-519 566.5,-519 566.5,-483 730.5,-483 730.5,-519"/>
<text text-anchor="middle" x="648.5" y="-497.3" font-family="Times,serif" font-size="14.00">PREP: in a separate bowl</text>
</g>
<!-- P2_0_0&#45;&gt;E2 -->
<g id="edge6" class="edge"><title>P2_0_0&#45;&gt;E2</title>
<path fill="none" stroke="black" d="M657.035,-482.581C664.67,-467 675.968,-443.943 684.687,-426.149"/>
<polygon fill="black" stroke="black" points="687.969,-427.406 689.226,-416.886 681.683,-424.326 687.969,-427.406"/>
</g>
<!-- P3_0_0 -->
<g id="node11" class="node"><title>P3_0_0</title>
<polygon fill="white" stroke="black" points="609.5,-417 445.5,-417 445.5,-381 609.5,-381 609.5,-417"/>
<text text-anchor="middle" x="527.5" y="-395.3" font-family="Times,serif" font-size="14.00">PREP: over slaw mixture</text>
</g>
<!-- P3_0_0&#45;&gt;E3 -->
<g id="edge8" class="edge"><title>P3_0_0&#45;&gt;E3</title>
<path fill="none" stroke="black" d="M536.151,-380.867C544.186,-364.955 556.26,-341.044 565.462,-322.82"/>
<polygon fill="black" stroke="black" points="568.593,-324.384 569.976,-313.88 562.345,-321.229 568.593,-324.384"/>
</g>
<!-- P4_0_ing -->
<g id="node12" class="node"><title>P4_0_ing</title>
<polygon fill="peachpuff" stroke="black" points="501,-315 352,-315 352,-277 501,-277 501,-315"/>
<text text-anchor="middle" x="426.5" y="-299.8" font-family="Times,serif" font-size="14.00">PREP: in green onions</text>
<text text-anchor="middle" x="426.5" y="-284.8" font-family="Times,serif" font-size="14.00">(text: in green onions)</text>
</g>
<!-- P4_0_ing&#45;&gt;E4 -->
<g id="edge10" class="edge"><title>P4_0_ing&#45;&gt;E4</title>
<path fill="none" stroke="black" d="M434.724,-276.943C441.919,-261.145 452.461,-237.999 460.581,-220.17"/>
<polygon fill="black" stroke="black" points="463.847,-221.444 464.806,-210.893 457.476,-218.543 463.847,-221.444"/>
</g>
<!-- P5_0_0 -->
<g id="node13" class="node"><title>P5_0_0</title>
<polygon fill="white" stroke="black" points="237,-211 0,-211 0,-175 237,-175 237,-211"/>
<text text-anchor="middle" x="118.5" y="-189.3" font-family="Times,serif" font-size="14.00">PREP: in refrigerator for 1Ê1/2 hours</text>
</g>
<!-- P5_0_0&#45;&gt;E5 -->
<g id="edge12" class="edge"><title>P5_0_0&#45;&gt;E5</title>
<path fill="none" stroke="black" d="M154.256,-174.809C191.199,-157.049 248.709,-129.4 286.979,-111.001"/>
<polygon fill="black" stroke="black" points="288.774,-114.021 296.27,-106.534 285.741,-107.712 288.774,-114.021"/>
</g>
<!-- P5_1_0 -->
<g id="node14" class="node"><title>P5_1_0</title>
<polygon fill="white" stroke="black" points="397.5,-211 255.5,-211 255.5,-175 397.5,-175 397.5,-211"/>
<text text-anchor="middle" x="326.5" y="-189.3" font-family="Times,serif" font-size="14.00">PREP: before serving</text>
</g>
<!-- P5_1_0&#45;&gt;E5 -->
<g id="edge13" class="edge"><title>P5_1_0&#45;&gt;E5</title>
<path fill="none" stroke="black" d="M326.5,-174.581C326.5,-159.382 326.5,-137.067 326.5,-119.464"/>
<polygon fill="black" stroke="black" points="330,-119.219 326.5,-109.219 323,-119.219 330,-119.219"/>
</g>
</g>
</svg>
