<?xml version="1.0" encoding="UTF-8" standalone="no"?>
<!DOCTYPE svg PUBLIC "-//W3C//DTD SVG 1.1//EN"
 "http://www.w3.org/Graphics/SVG/1.1/DTD/svg11.dtd">
<!-- Generated by graphviz version 2.38.0 (20140413.2041)
 -->
<!-- Title: recipe Pages: 1 -->
<svg width="1542pt" height="398pt"
 viewBox="0.00 0.00 1542.09 398.00" xmlns="http://www.w3.org/2000/svg" xmlns:xlink="http://www.w3.org/1999/xlink">
<g id="graph0" class="graph" transform="scale(1 1) rotate(0) translate(4 394)">
<title>recipe</title>
<polygon fill="white" stroke="none" points="-4,4 -4,-394 1538.09,-394 1538.09,4 -4,4"/>
<!-- E0 -->
<g id="node1" class="node"><title>E0</title>
<ellipse fill="azure" stroke="black" cx="1321.09" cy="-296" rx="66.8882" ry="18"/>
<text text-anchor="middle" x="1321.09" y="-292.3" font-family="Times,serif" font-size="14.00">brown (S0,P0)</text>
</g>
<!-- E3 -->
<g id="node4" class="node"><title>E3</title>
<ellipse fill="azure" stroke="black" cx="1185.09" cy="-193" rx="66.0889" ry="18"/>
<text text-anchor="middle" x="1185.09" y="-189.3" font-family="Times,serif" font-size="14.00">reduce (S3,P0)</text>
</g>
<!-- E0&#45;&gt;E3 -->
<g id="edge8" class="edge"><title>E0&#45;&gt;E3</title>
<path fill="none" stroke="black" d="M1299.24,-278.773C1276.44,-261.839 1240.53,-235.171 1215.09,-216.273"/>
<polygon fill="black" stroke="black" points="1217.01,-213.339 1206.89,-210.187 1212.83,-218.959 1217.01,-213.339"/>
<text text-anchor="middle" x="1333.59" y="-247.8" font-family="Times,serif" font-size="14.00">OUTPUT: </text>
<text text-anchor="middle" x="1333.59" y="-232.8" font-family="Times,serif" font-size="14.00">INPUT: for 5 minutes</text>
</g>
<!-- E1 -->
<g id="node2" class="node"><title>E1</title>
<ellipse fill="azure" stroke="black" cx="61.0946" cy="-296" rx="61.1893" ry="18"/>
<text text-anchor="middle" x="61.0946" y="-292.3" font-family="Times,serif" font-size="14.00">drain (S1,P0)</text>
</g>
<!-- E2 -->
<g id="node3" class="node"><title>E2</title>
<ellipse fill="azure" stroke="black" cx="573.095" cy="-193" rx="55.4913" ry="18"/>
<text text-anchor="middle" x="573.095" y="-189.3" font-family="Times,serif" font-size="14.00">add (S2,P0)</text>
</g>
<!-- E1&#45;&gt;E2 -->
<g id="edge5" class="edge"><title>E1&#45;&gt;E2</title>
<path fill="none" stroke="black" d="M104.676,-283.319C113.401,-281.115 122.52,-278.905 131.095,-277 268.055,-246.566 430.52,-217.962 515.202,-203.615"/>
<polygon fill="black" stroke="black" points="515.859,-207.053 525.137,-201.936 514.693,-200.151 515.859,-207.053"/>
<text text-anchor="middle" x="423.595" y="-247.8" font-family="Times,serif" font-size="14.00">OUTPUT: </text>
<text text-anchor="middle" x="423.595" y="-232.8" font-family="Times,serif" font-size="14.00">INPUT: tomatoes </text>
</g>
<!-- E4 -->
<g id="node5" class="node"><title>E4</title>
<ellipse fill="azure" stroke="black" cx="896.095" cy="-91" rx="53.8905" ry="18"/>
<text text-anchor="middle" x="896.095" y="-87.3" font-family="Times,serif" font-size="14.00">top (S4,P0)</text>
</g>
<!-- E2&#45;&gt;E4 -->
<g id="edge12" class="edge"><title>E2&#45;&gt;E4</title>
<path fill="none" stroke="black" d="M585.141,-175.353C597.201,-160.061 617.218,-138.137 640.095,-127 673.162,-110.901 768.902,-101.066 833.458,-96.0756"/>
<polygon fill="black" stroke="black" points="833.828,-99.5577 843.537,-95.316 833.302,-92.5775 833.828,-99.5577"/>
<text text-anchor="middle" x="714.095" y="-145.8" font-family="Times,serif" font-size="14.00">OUTPUT: </text>
<text text-anchor="middle" x="714.095" y="-130.8" font-family="Times,serif" font-size="14.00">INPUT: with &#160;corn chips </text>
</g>
<!-- E3&#45;&gt;E4 -->
<g id="edge9" class="edge"><title>E3&#45;&gt;E4</title>
<path fill="none" stroke="black" d="M1145.82,-178.409C1092.68,-160.022 998.069,-127.285 941.802,-107.816"/>
<polygon fill="black" stroke="black" points="942.694,-104.421 932.099,-104.458 940.405,-111.036 942.694,-104.421"/>
<text text-anchor="middle" x="1116.09" y="-145.8" font-family="Times,serif" font-size="14.00">OUTPUT: </text>
<text text-anchor="middle" x="1116.09" y="-130.8" font-family="Times,serif" font-size="14.00">INPUT: </text>
</g>
<!-- EOR -->
<g id="node15" class="node"><title>EOR</title>
<ellipse fill="plum" stroke="black" cx="896.095" cy="-18" rx="57.3905" ry="18"/>
<text text-anchor="middle" x="896.095" y="-14.3" font-family="Times,serif" font-size="14.00">Bon appetit!</text>
</g>
<!-- E4&#45;&gt;EOR -->
<g id="edge14" class="edge"><title>E4&#45;&gt;EOR</title>
<path fill="none" stroke="black" d="M896.095,-72.8129C896.095,-64.7895 896.095,-55.0475 896.095,-46.0691"/>
<polygon fill="black" stroke="black" points="899.595,-46.0288 896.095,-36.0288 892.595,-46.0289 899.595,-46.0288"/>
</g>
<!-- D1 -->
<g id="node6" class="node"><title>D1</title>
<polygon fill="white" stroke="black" points="109.095,-389 13.0946,-389 13.0946,-353 109.095,-353 109.095,-389"/>
<text text-anchor="middle" x="61.0946" y="-367.3" font-family="Times,serif" font-size="14.00">DOBJ: grease</text>
</g>
<!-- D1&#45;&gt;E1 -->
<g id="edge1" class="edge"><title>D1&#45;&gt;E1</title>
<path fill="none" stroke="black" d="M61.0946,-352.7C61.0946,-344.245 61.0946,-333.869 61.0946,-324.373"/>
<polygon fill="black" stroke="black" points="64.5947,-324.176 61.0946,-314.176 57.5947,-324.176 64.5947,-324.176"/>
</g>
<!-- D0 -->
<g id="node7" class="node"><title>D0</title>
<polygon fill="peachpuff" stroke="black" points="1327.59,-390 1076.59,-390 1076.59,-352 1327.59,-352 1327.59,-390"/>
<text text-anchor="middle" x="1202.09" y="-374.8" font-family="Times,serif" font-size="14.00">DOBJ: ground beef, onion</text>
<text text-anchor="middle" x="1202.09" y="-359.8" font-family="Times,serif" font-size="14.00">(text: beef and onion , about 10 minutes)</text>
</g>
<!-- D0&#45;&gt;E0 -->
<g id="edge2" class="edge"><title>D0&#45;&gt;E0</title>
<path fill="none" stroke="black" d="M1231.51,-351.955C1248.16,-341.744 1269.06,-328.918 1286.49,-318.226"/>
<polygon fill="black" stroke="black" points="1288.56,-321.066 1295.25,-312.854 1284.9,-315.1 1288.56,-321.066"/>
</g>
<!-- P0_0 -->
<g id="node8" class="node"><title>P0_0</title>
<polygon fill="white" stroke="black" points="1534.09,-389 1346.09,-389 1346.09,-353 1534.09,-353 1534.09,-389"/>
<text text-anchor="middle" x="1440.09" y="-367.3" font-family="Times,serif" font-size="14.00">PREP: in a medium stock pot</text>
</g>
<!-- P0_0&#45;&gt;E0 -->
<g id="edge3" class="edge"><title>P0_0&#45;&gt;E0</title>
<path fill="none" stroke="black" d="M1412.19,-352.885C1395.35,-342.549 1373.74,-329.293 1355.79,-318.285"/>
<polygon fill="black" stroke="black" points="1357.14,-315.007 1346.79,-312.761 1353.48,-320.974 1357.14,-315.007"/>
</g>
<!-- D2_ing -->
<g id="node9" class="node"><title>D2_ing</title>
<polygon fill="peachpuff" stroke="black" points="1010.09,-315 140.095,-315 140.095,-277 1010.09,-277 1010.09,-315"/>
<text text-anchor="middle" x="575.095" y="-299.8" font-family="Times,serif" font-size="14.00">DOBJ: water, (15 ounce) can whole kernel corn, (15 ounce) can tomato sauce, (15 ounce) can pinto beans, (1.25 ounce) package taco seasoning mix</text>
<text text-anchor="middle" x="575.095" y="-284.8" font-family="Times,serif" font-size="14.00">(text: &#160;corn, taco seasoning, &#160;beans , &#160;water , &#160;tomato sauce )</text>
</g>
<!-- D2_ing&#45;&gt;E2 -->
<g id="edge4" class="edge"><title>D2_ing&#45;&gt;E2</title>
<path fill="none" stroke="black" d="M574.737,-276.943C574.432,-261.531 573.988,-239.127 573.639,-221.488"/>
<polygon fill="black" stroke="black" points="577.133,-221.155 573.436,-211.226 570.134,-221.294 577.133,-221.155"/>
</g>
<!-- D3_0 -->
<g id="node10" class="node"><title>D3_0</title>
<polygon fill="white" stroke="black" points="1115.59,-314 1032.59,-314 1032.59,-278 1115.59,-278 1115.59,-314"/>
<text text-anchor="middle" x="1074.09" y="-292.3" font-family="Times,serif" font-size="14.00">DOBJ: heat</text>
</g>
<!-- D3_0&#45;&gt;E3 -->
<g id="edge6" class="edge"><title>D3_0&#45;&gt;E3</title>
<path fill="none" stroke="black" d="M1092.92,-277.867C1111.16,-261.272 1138.96,-235.976 1159.26,-217.504"/>
<polygon fill="black" stroke="black" points="1161.87,-219.864 1166.91,-210.546 1157.16,-214.687 1161.87,-219.864"/>
</g>
<!-- D3_1 -->
<g id="node11" class="node"><title>D3_1</title>
<polygon fill="white" stroke="black" points="1236.59,-314 1133.59,-314 1133.59,-278 1236.59,-278 1236.59,-314"/>
<text text-anchor="middle" x="1185.09" y="-292.3" font-family="Times,serif" font-size="14.00">DOBJ: simmer</text>
</g>
<!-- D3_1&#45;&gt;E3 -->
<g id="edge7" class="edge"><title>D3_1&#45;&gt;E3</title>
<path fill="none" stroke="black" d="M1185.09,-277.867C1185.09,-262.414 1185.09,-239.416 1185.09,-221.409"/>
<polygon fill="black" stroke="black" points="1188.59,-221.217 1185.09,-211.217 1181.59,-221.217 1188.59,-221.217"/>
</g>
<!-- P4_0_0 -->
<g id="node12" class="node"><title>P4_0_0</title>
<polygon fill="white" stroke="black" points="812.595,-211 655.595,-211 655.595,-175 812.595,-175 812.595,-211"/>
<text text-anchor="middle" x="734.095" y="-189.3" font-family="Times,serif" font-size="14.00">PREP: with &#160;sour cream</text>
</g>
<!-- P4_0_0&#45;&gt;E4 -->
<g id="edge10" class="edge"><title>P4_0_0&#45;&gt;E4</title>
<path fill="none" stroke="black" d="M761.943,-174.809C789.9,-157.552 832.981,-130.959 862.743,-112.587"/>
<polygon fill="black" stroke="black" points="864.85,-115.4 871.521,-107.169 861.173,-109.443 864.85,-115.4"/>
</g>
<!-- P4_0_1 -->
<g id="node13" class="node"><title>P4_0_1</title>
<polygon fill="white" stroke="black" points="961.095,-211 831.095,-211 831.095,-175 961.095,-175 961.095,-211"/>
<text text-anchor="middle" x="896.095" y="-189.3" font-family="Times,serif" font-size="14.00">PREP: with cheese </text>
</g>
<!-- P4_0_1&#45;&gt;E4 -->
<g id="edge11" class="edge"><title>P4_0_1&#45;&gt;E4</title>
<path fill="none" stroke="black" d="M896.095,-174.581C896.095,-159.382 896.095,-137.067 896.095,-119.464"/>
<polygon fill="black" stroke="black" points="899.595,-119.219 896.095,-109.219 892.595,-119.219 899.595,-119.219"/>
</g>
<!-- P4_0_3 -->
<g id="node14" class="node"><title>P4_0_3</title>
<polygon fill="white" stroke="black" points="1101.09,-211 979.095,-211 979.095,-175 1101.09,-175 1101.09,-211"/>
<text text-anchor="middle" x="1040.09" y="-189.3" font-family="Times,serif" font-size="14.00">PREP: with olives</text>
</g>
<!-- P4_0_3&#45;&gt;E4 -->
<g id="edge13" class="edge"><title>P4_0_3&#45;&gt;E4</title>
<path fill="none" stroke="black" d="M1015.34,-174.809C990.921,-157.852 953.52,-131.879 927.127,-113.55"/>
<polygon fill="black" stroke="black" points="928.843,-110.481 918.633,-107.652 924.85,-116.23 928.843,-110.481"/>
</g>
</g>
</svg>
