<?xml version="1.0" encoding="UTF-8" standalone="no"?>
<!DOCTYPE svg PUBLIC "-//W3C//DTD SVG 1.1//EN"
 "http://www.w3.org/Graphics/SVG/1.1/DTD/svg11.dtd">
<!-- Generated by graphviz version 2.38.0 (20140413.2041)
 -->
<!-- Title: recipe Pages: 1 -->
<svg width="1934pt" height="1114pt"
 viewBox="0.00 0.00 1934.00 1114.00" xmlns="http://www.w3.org/2000/svg" xmlns:xlink="http://www.w3.org/1999/xlink">
<g id="graph0" class="graph" transform="scale(1 1) rotate(0) translate(4 1110)">
<title>recipe</title>
<polygon fill="white" stroke="none" points="-4,4 -4,-1110 1930,-1110 1930,4 -4,4"/>
<!-- E0 -->
<g id="node1" class="node"><title>E0</title>
<ellipse fill="azure" stroke="black" cx="1364" cy="-1013" rx="73.387" ry="18"/>
<text text-anchor="middle" x="1364" y="-1009.3" font-family="Times,serif" font-size="14.00">marinate (S0,P0)</text>
</g>
<!-- E1 -->
<g id="node2" class="node"><title>E1</title>
<ellipse fill="azure" stroke="black" cx="1364" cy="-911" rx="68.7879" ry="18"/>
<text text-anchor="middle" x="1364" y="-907.3" font-family="Times,serif" font-size="14.00">preheat (S1,P0)</text>
</g>
<!-- E0&#45;&gt;E1 -->
<g id="edge5" class="edge"><title>E0&#45;&gt;E1</title>
<path fill="none" stroke="black" d="M1364,-994.581C1364,-979.382 1364,-957.067 1364,-939.464"/>
<polygon fill="black" stroke="black" points="1367.5,-939.219 1364,-929.219 1360.5,-939.219 1367.5,-939.219"/>
<text text-anchor="middle" x="1396" y="-965.8" font-family="Times,serif" font-size="14.00">OUTPUT: </text>
<text text-anchor="middle" x="1396" y="-950.8" font-family="Times,serif" font-size="14.00">INPUT: </text>
</g>
<!-- E2 -->
<g id="node3" class="node"><title>E2</title>
<ellipse fill="azure" stroke="black" cx="1216" cy="-809" rx="69.5877" ry="18"/>
<text text-anchor="middle" x="1216" y="-805.3" font-family="Times,serif" font-size="14.00">remove (S2,P0)</text>
</g>
<!-- E1&#45;&gt;E2 -->
<g id="edge6" class="edge"><title>E1&#45;&gt;E2</title>
<path fill="none" stroke="black" d="M1340.22,-893.933C1315.3,-877.095 1275.99,-850.534 1248.28,-831.809"/>
<polygon fill="black" stroke="black" points="1249.97,-828.725 1239.72,-826.027 1246.05,-834.526 1249.97,-828.725"/>
<text text-anchor="middle" x="1358" y="-863.8" font-family="Times,serif" font-size="14.00">OUTPUT: </text>
<text text-anchor="middle" x="1358" y="-848.8" font-family="Times,serif" font-size="14.00">INPUT: chicken</text>
</g>
<!-- E3 -->
<g id="node4" class="node"><title>E3</title>
<ellipse fill="azure" stroke="black" cx="1112" cy="-707" rx="60.3893" ry="18"/>
<text text-anchor="middle" x="1112" y="-703.3" font-family="Times,serif" font-size="14.00">place (S3,P0)</text>
</g>
<!-- E2&#45;&gt;E3 -->
<g id="edge9" class="edge"><title>E2&#45;&gt;E3</title>
<path fill="none" stroke="black" d="M1198.83,-791.487C1181.82,-775.13 1155.6,-749.924 1136.43,-731.486"/>
<polygon fill="black" stroke="black" points="1138.83,-728.946 1129.2,-724.537 1133.98,-733.992 1138.83,-728.946"/>
<text text-anchor="middle" x="1227" y="-761.8" font-family="Times,serif" font-size="14.00">OUTPUT: </text>
<text text-anchor="middle" x="1227" y="-746.8" font-family="Times,serif" font-size="14.00">INPUT: chicken</text>
</g>
<!-- E4 -->
<g id="node5" class="node"><title>E4</title>
<ellipse fill="azure" stroke="black" cx="973" cy="-604" rx="59.5901" ry="18"/>
<text text-anchor="middle" x="973" y="-600.3" font-family="Times,serif" font-size="14.00">cook (S3,P1)</text>
</g>
<!-- E3&#45;&gt;E4 -->
<g id="edge11" class="edge"><title>E3&#45;&gt;E4</title>
<path fill="none" stroke="black" d="M1089.98,-689.996C1066.59,-673.005 1029.47,-646.034 1003.33,-627.039"/>
<polygon fill="black" stroke="black" points="1005.07,-623.976 994.922,-620.929 1000.95,-629.639 1005.07,-623.976"/>
<text text-anchor="middle" x="1096" y="-659.8" font-family="Times,serif" font-size="14.00">OUTPUT: </text>
<text text-anchor="middle" x="1096" y="-644.8" font-family="Times,serif" font-size="14.00">INPUT: </text>
</g>
<!-- E5 -->
<g id="node6" class="node"><title>E5</title>
<ellipse fill="azure" stroke="black" cx="973" cy="-501" rx="103.982" ry="18"/>
<text text-anchor="middle" x="973" y="-497.3" font-family="Times,serif" font-size="14.00">remove and cool (S4,P0)</text>
</g>
<!-- E4&#45;&gt;E5 -->
<g id="edge13" class="edge"><title>E4&#45;&gt;E5</title>
<path fill="none" stroke="black" d="M973,-585.867C973,-570.414 973,-547.416 973,-529.409"/>
<polygon fill="black" stroke="black" points="976.5,-529.217 973,-519.217 969.5,-529.217 976.5,-529.217"/>
<text text-anchor="middle" x="1005" y="-555.8" font-family="Times,serif" font-size="14.00">OUTPUT: </text>
<text text-anchor="middle" x="1005" y="-540.8" font-family="Times,serif" font-size="14.00">INPUT: </text>
</g>
<!-- E6 -->
<g id="node7" class="node"><title>E6</title>
<ellipse fill="azure" stroke="black" cx="847" cy="-398" rx="52.7911" ry="18"/>
<text text-anchor="middle" x="847" y="-394.3" font-family="Times,serif" font-size="14.00">cut (S4,P1)</text>
</g>
<!-- E5&#45;&gt;E6 -->
<g id="edge14" class="edge"><title>E5&#45;&gt;E6</title>
<path fill="none" stroke="black" d="M952.194,-483.322C931.06,-466.381 898.203,-440.043 874.838,-421.315"/>
<polygon fill="black" stroke="black" points="876.996,-418.559 867.004,-415.035 872.618,-424.021 876.996,-418.559"/>
<text text-anchor="middle" x="961" y="-453.8" font-family="Times,serif" font-size="14.00">OUTPUT: </text>
<text text-anchor="middle" x="961" y="-438.8" font-family="Times,serif" font-size="14.00">INPUT: </text>
</g>
<!-- E9 -->
<g id="node10" class="node"><title>E9</title>
<ellipse fill="azure" stroke="black" cx="530" cy="-295" rx="73.387" ry="18"/>
<text text-anchor="middle" x="530" y="-291.3" font-family="Times,serif" font-size="14.00">combine (S7,P0)</text>
</g>
<!-- E6&#45;&gt;E9 -->
<g id="edge19" class="edge"><title>E6&#45;&gt;E9</title>
<path fill="none" stroke="black" d="M809.704,-385.117C753.544,-367.224 647.026,-333.286 582.876,-312.847"/>
<polygon fill="black" stroke="black" points="583.549,-309.388 572.958,-309.687 581.424,-316.058 583.549,-309.388"/>
<text text-anchor="middle" x="795.5" y="-349.8" font-family="Times,serif" font-size="14.00">OUTPUT: </text>
<text text-anchor="middle" x="795.5" y="-334.8" font-family="Times,serif" font-size="14.00">INPUT: in a salad bowl</text>
</g>
<!-- E7 -->
<g id="node8" class="node"><title>E7</title>
<ellipse fill="azure" stroke="black" cx="203" cy="-501" rx="64.189" ry="18"/>
<text text-anchor="middle" x="203" y="-497.3" font-family="Times,serif" font-size="14.00">whisk (S5,P0)</text>
</g>
<!-- E8 -->
<g id="node9" class="node"><title>E8</title>
<ellipse fill="azure" stroke="black" cx="203" cy="-398" rx="62.2891" ry="18"/>
<text text-anchor="middle" x="203" y="-394.3" font-family="Times,serif" font-size="14.00">allow (S6,P0)</text>
</g>
<!-- E7&#45;&gt;E8 -->
<g id="edge16" class="edge"><title>E7&#45;&gt;E8</title>
<path fill="none" stroke="black" d="M203,-482.867C203,-467.414 203,-444.416 203,-426.409"/>
<polygon fill="black" stroke="black" points="206.5,-426.217 203,-416.217 199.5,-426.217 206.5,-426.217"/>
<text text-anchor="middle" x="263.5" y="-453.8" font-family="Times,serif" font-size="14.00">OUTPUT: </text>
<text text-anchor="middle" x="263.5" y="-438.8" font-family="Times,serif" font-size="14.00">INPUT: garlic cloves</text>
</g>
<!-- E8&#45;&gt;E9 -->
<g id="edge18" class="edge"><title>E8&#45;&gt;E9</title>
<path fill="none" stroke="black" d="M229.055,-381.3C255.207,-366.217 297.09,-343.876 336,-331 374.015,-318.421 417.804,-310.029 454.149,-304.624"/>
<polygon fill="black" stroke="black" points="454.793,-308.068 464.192,-303.178 453.795,-301.139 454.793,-308.068"/>
<text text-anchor="middle" x="431" y="-349.8" font-family="Times,serif" font-size="14.00">OUTPUT: </text>
<text text-anchor="middle" x="431" y="-334.8" font-family="Times,serif" font-size="14.00">INPUT: marinated chicken strips</text>
</g>
<!-- E10 -->
<g id="node11" class="node"><title>E10</title>
<ellipse fill="azure" stroke="black" cx="530" cy="-193" rx="59.5901" ry="18"/>
<text text-anchor="middle" x="530" y="-189.3" font-family="Times,serif" font-size="14.00">pour (S8,P0)</text>
</g>
<!-- E9&#45;&gt;E10 -->
<g id="edge20" class="edge"><title>E9&#45;&gt;E10</title>
<path fill="none" stroke="black" d="M530,-276.581C530,-261.382 530,-239.067 530,-221.464"/>
<polygon fill="black" stroke="black" points="533.5,-221.219 530,-211.219 526.5,-221.219 533.5,-221.219"/>
<text text-anchor="middle" x="562" y="-247.8" font-family="Times,serif" font-size="14.00">OUTPUT: </text>
<text text-anchor="middle" x="562" y="-232.8" font-family="Times,serif" font-size="14.00">INPUT: </text>
</g>
<!-- E11 -->
<g id="node12" class="node"><title>E11</title>
<ellipse fill="azure" stroke="black" cx="530" cy="-91" rx="92.8835" ry="18"/>
<text text-anchor="middle" x="530" y="-87.3" font-family="Times,serif" font-size="14.00">toss and serve (S9,P0)</text>
</g>
<!-- E10&#45;&gt;E11 -->
<g id="edge21" class="edge"><title>E10&#45;&gt;E11</title>
<path fill="none" stroke="black" d="M530,-174.581C530,-159.382 530,-137.067 530,-119.464"/>
<polygon fill="black" stroke="black" points="533.5,-119.219 530,-109.219 526.5,-119.219 533.5,-119.219"/>
<text text-anchor="middle" x="562" y="-145.8" font-family="Times,serif" font-size="14.00">OUTPUT: </text>
<text text-anchor="middle" x="562" y="-130.8" font-family="Times,serif" font-size="14.00">INPUT: </text>
</g>
<!-- EOR -->
<g id="node23" class="node"><title>EOR</title>
<ellipse fill="plum" stroke="black" cx="530" cy="-18" rx="57.3905" ry="18"/>
<text text-anchor="middle" x="530" y="-14.3" font-family="Times,serif" font-size="14.00">Bon appetit!</text>
</g>
<!-- E11&#45;&gt;EOR -->
<g id="edge22" class="edge"><title>E11&#45;&gt;EOR</title>
<path fill="none" stroke="black" d="M530,-72.8129C530,-64.7895 530,-55.0475 530,-46.0691"/>
<polygon fill="black" stroke="black" points="533.5,-46.0288 530,-36.0288 526.5,-46.0289 533.5,-46.0288"/>
</g>
<!-- D0 -->
<g id="node13" class="node"><title>D0</title>
<polygon fill="white" stroke="black" points="1034,-1105 930,-1105 930,-1069 1034,-1069 1034,-1105"/>
<text text-anchor="middle" x="982" y="-1083.3" font-family="Times,serif" font-size="14.00">DOBJ: chicken</text>
</g>
<!-- D0&#45;&gt;E0 -->
<g id="edge1" class="edge"><title>D0&#45;&gt;E0</title>
<path fill="none" stroke="black" d="M1034.13,-1070.17C1037.12,-1069.4 1040.1,-1068.67 1043,-1068 1127.15,-1048.58 1225.23,-1033.1 1290.61,-1023.78"/>
<polygon fill="black" stroke="black" points="1291.41,-1027.2 1300.82,-1022.34 1290.43,-1020.27 1291.41,-1027.2"/>
</g>
<!-- P0_0 -->
<g id="node14" class="node"><title>P0_0</title>
<polygon fill="peachpuff" stroke="black" points="1676,-1106 1052,-1106 1052,-1068 1676,-1068 1676,-1106"/>
<text text-anchor="middle" x="1364" y="-1090.8" font-family="Times,serif" font-size="14.00">PREP: in soy sauce, (12 fluid ounce) can or bottle lemon&#45;lime flavored carbonated beverage, orange juice</text>
<text text-anchor="middle" x="1364" y="-1075.8" font-family="Times,serif" font-size="14.00">(text: in the orange juice , soy sauce and lemon&#45;lime carbonated beverage)</text>
</g>
<!-- P0_0&#45;&gt;E0 -->
<g id="edge2" class="edge"><title>P0_0&#45;&gt;E0</title>
<path fill="none" stroke="black" d="M1364,-1067.83C1364,-1059.89 1364,-1050.41 1364,-1041.63"/>
<polygon fill="black" stroke="black" points="1367.5,-1041.42 1364,-1031.42 1360.5,-1041.42 1367.5,-1041.42"/>
</g>
<!-- P0_1 -->
<g id="node15" class="node"><title>P0_1</title>
<polygon fill="white" stroke="black" points="1926,-1105 1694,-1105 1694,-1069 1926,-1069 1926,-1105"/>
<text text-anchor="middle" x="1810" y="-1083.3" font-family="Times,serif" font-size="14.00">PREP: for several hours or overnight</text>
</g>
<!-- P0_1&#45;&gt;E0 -->
<g id="edge3" class="edge"><title>P0_1&#45;&gt;E0</title>
<path fill="none" stroke="black" d="M1704.59,-1068.98C1620.83,-1055.46 1506.06,-1036.93 1433.48,-1025.22"/>
<polygon fill="black" stroke="black" points="1433.95,-1021.75 1423.52,-1023.61 1432.83,-1028.66 1433.95,-1021.75"/>
</g>
<!-- D7 -->
<g id="node16" class="node"><title>D7</title>
<polygon fill="peachpuff" stroke="black" points="406,-623 0,-623 0,-585 406,-585 406,-623"/>
<text text-anchor="middle" x="203" y="-607.8" font-family="Times,serif" font-size="14.00">DOBJ: vegetable oil, cloves garlic, ground black pepper, lemon, salt</text>
<text text-anchor="middle" x="203" y="-592.8" font-family="Times,serif" font-size="14.00">(text: the lemon juice , vegetable oil , salt , pepper and garlic cloves)</text>
</g>
<!-- D7&#45;&gt;E7 -->
<g id="edge4" class="edge"><title>D7&#45;&gt;E7</title>
<path fill="none" stroke="black" d="M203,-584.943C203,-569.531 203,-547.127 203,-529.488"/>
<polygon fill="black" stroke="black" points="206.5,-529.226 203,-519.226 199.5,-529.226 206.5,-529.226"/>
</g>
<!-- P2_0_0 -->
<g id="node17" class="node"><title>P2_0_0</title>
<polygon fill="white" stroke="black" points="1136.5,-929 991.5,-929 991.5,-893 1136.5,-893 1136.5,-929"/>
<text text-anchor="middle" x="1064" y="-907.3" font-family="Times,serif" font-size="14.00">PREP: from marinade</text>
</g>
<!-- P2_0_0&#45;&gt;E2 -->
<g id="edge7" class="edge"><title>P2_0_0&#45;&gt;E2</title>
<path fill="none" stroke="black" d="M1090.13,-892.809C1115.86,-875.879 1155.26,-849.962 1183.11,-831.638"/>
<polygon fill="black" stroke="black" points="1185.28,-834.397 1191.72,-825.977 1181.44,-828.549 1185.28,-834.397"/>
</g>
<!-- P2_0_1 -->
<g id="node18" class="node"><title>P2_0_1</title>
<polygon fill="white" stroke="black" points="1277,-929 1155,-929 1155,-893 1277,-893 1277,-929"/>
<text text-anchor="middle" x="1216" y="-907.3" font-family="Times,serif" font-size="14.00">PREP: from drain</text>
</g>
<!-- P2_0_1&#45;&gt;E2 -->
<g id="edge8" class="edge"><title>P2_0_1&#45;&gt;E2</title>
<path fill="none" stroke="black" d="M1216,-892.581C1216,-877.382 1216,-855.067 1216,-837.464"/>
<polygon fill="black" stroke="black" points="1219.5,-837.219 1216,-827.219 1212.5,-837.219 1219.5,-837.219"/>
</g>
<!-- P3_0_0 -->
<g id="node19" class="node"><title>P3_0_0</title>
<polygon fill="white" stroke="black" points="1128.5,-827 1003.5,-827 1003.5,-791 1128.5,-791 1128.5,-827"/>
<text text-anchor="middle" x="1066" y="-805.3" font-family="Times,serif" font-size="14.00">PREP: on hot grill</text>
</g>
<!-- P3_0_0&#45;&gt;E3 -->
<g id="edge10" class="edge"><title>P3_0_0&#45;&gt;E3</title>
<path fill="none" stroke="black" d="M1074.01,-790.581C1081.18,-775 1091.79,-751.943 1099.97,-734.149"/>
<polygon fill="black" stroke="black" points="1103.23,-735.433 1104.23,-724.886 1096.87,-732.508 1103.23,-735.433"/>
</g>
<!-- P4_0_0 -->
<g id="node20" class="node"><title>P4_0_0</title>
<polygon fill="white" stroke="black" points="1033.5,-725 796.5,-725 796.5,-689 1033.5,-689 1033.5,-725"/>
<text text-anchor="middle" x="915" y="-703.3" font-family="Times,serif" font-size="14.00">PREP: for 6 to 8 minutes on each side</text>
</g>
<!-- P4_0_0&#45;&gt;E4 -->
<g id="edge12" class="edge"><title>P4_0_0&#45;&gt;E4</title>
<path fill="none" stroke="black" d="M924.839,-688.867C934.018,-672.882 947.833,-648.825 958.317,-630.569"/>
<polygon fill="black" stroke="black" points="961.362,-632.295 963.306,-621.88 955.291,-628.809 961.362,-632.295"/>
</g>
<!-- P6_0_0 -->
<g id="node21" class="node"><title>P6_0_0</title>
<polygon fill="white" stroke="black" points="851,-519 735,-519 735,-483 851,-483 851,-519"/>
<text text-anchor="middle" x="793" y="-497.3" font-family="Times,serif" font-size="14.00">PREP: into strips</text>
</g>
<!-- P6_0_0&#45;&gt;E6 -->
<g id="edge15" class="edge"><title>P6_0_0&#45;&gt;E6</title>
<path fill="none" stroke="black" d="M802.16,-482.867C810.668,-466.955 823.452,-443.044 833.195,-424.82"/>
<polygon fill="black" stroke="black" points="836.346,-426.349 837.975,-415.88 830.173,-423.049 836.346,-426.349"/>
</g>
<!-- D9_ing -->
<g id="node22" class="node"><title>D9_ing</title>
<polygon fill="peachpuff" stroke="black" points="776.5,-417 283.5,-417 283.5,-379 776.5,-379 776.5,-417"/>
<text text-anchor="middle" x="530" y="-401.8" font-family="Times,serif" font-size="14.00">DOBJ: mozzarella cheese, grated Parmesan cheese, tomatoes, heads romaine lettuce</text>
<text text-anchor="middle" x="530" y="-386.8" font-family="Times,serif" font-size="14.00">(text: the lettuce , &#160;tomatoes , &#160;Parmesan, &#160;mozzarella )</text>
</g>
<!-- D9_ing&#45;&gt;E9 -->
<g id="edge17" class="edge"><title>D9_ing&#45;&gt;E9</title>
<path fill="none" stroke="black" d="M530,-378.943C530,-363.531 530,-341.127 530,-323.488"/>
<polygon fill="black" stroke="black" points="533.5,-323.226 530,-313.226 526.5,-323.226 533.5,-323.226"/>
</g>
</g>
</svg>
