<?xml version="1.0" encoding="UTF-8" standalone="no"?>
<!DOCTYPE svg PUBLIC "-//W3C//DTD SVG 1.1//EN"
 "http://www.w3.org/Graphics/SVG/1.1/DTD/svg11.dtd">
<!-- Generated by graphviz version 2.38.0 (20140413.2041)
 -->
<!-- Title: recipe Pages: 1 -->
<svg width="1644pt" height="1118pt"
 viewBox="0.00 0.00 1644.00 1118.00" xmlns="http://www.w3.org/2000/svg" xmlns:xlink="http://www.w3.org/1999/xlink">
<g id="graph0" class="graph" transform="scale(1 1) rotate(0) translate(4 1114)">
<title>recipe</title>
<polygon fill="white" stroke="none" points="-4,4 -4,-1114 1640,-1114 1640,4 -4,4"/>
<!-- E0 -->
<g id="node1" class="node"><title>E0</title>
<ellipse fill="azure" stroke="black" cx="1334" cy="-1016" rx="56.59" ry="18"/>
<text text-anchor="middle" x="1334" y="-1012.3" font-family="Times,serif" font-size="14.00">heat (S0,P0)</text>
</g>
<!-- E1 -->
<g id="node2" class="node"><title>E1</title>
<ellipse fill="azure" stroke="black" cx="1137" cy="-912" rx="54.6905" ry="18"/>
<text text-anchor="middle" x="1137" y="-908.3" font-family="Times,serif" font-size="14.00">slip (S1,P0)</text>
</g>
<!-- E0&#45;&gt;E1 -->
<g id="edge9" class="edge"><title>E0&#45;&gt;E1</title>
<path fill="none" stroke="black" d="M1305.77,-1000.39C1271.25,-982.511 1212.69,-952.192 1174.44,-932.383"/>
<polygon fill="black" stroke="black" points="1175.66,-929.077 1165.17,-927.587 1172.44,-935.293 1175.66,-929.077"/>
<text text-anchor="middle" x="1325.5" y="-967.8" font-family="Times,serif" font-size="14.00">OUTPUT: </text>
<text text-anchor="middle" x="1325.5" y="-952.8" font-family="Times,serif" font-size="14.00">INPUT: into the hot oil</text>
</g>
<!-- E4 -->
<g id="node5" class="node"><title>E4</title>
<ellipse fill="azure" stroke="black" cx="909" cy="-809" rx="63.8893" ry="18"/>
<text text-anchor="middle" x="909" y="-805.3" font-family="Times,serif" font-size="14.00">repeat (S4,P0)</text>
</g>
<!-- E1&#45;&gt;E4 -->
<g id="edge13" class="edge"><title>E1&#45;&gt;E4</title>
<path fill="none" stroke="black" d="M1105.78,-897.168C1065.58,-879.363 995.606,-848.365 950.839,-828.534"/>
<polygon fill="black" stroke="black" points="952.249,-825.331 941.689,-824.48 949.414,-831.731 952.249,-825.331"/>
<text text-anchor="middle" x="1142.5" y="-863.8" font-family="Times,serif" font-size="14.00">OUTPUT: </text>
<text text-anchor="middle" x="1142.5" y="-848.8" font-family="Times,serif" font-size="14.00">INPUT: with remaining tortillas</text>
</g>
<!-- E2 -->
<g id="node3" class="node"><title>E2</title>
<ellipse fill="azure" stroke="black" cx="757" cy="-1016" rx="60.3893" ry="18"/>
<text text-anchor="middle" x="757" y="-1012.3" font-family="Times,serif" font-size="14.00">press (S2,P0)</text>
</g>
<!-- E3 -->
<g id="node4" class="node"><title>E3</title>
<ellipse fill="azure" stroke="black" cx="909" cy="-912" rx="69.5877" ry="18"/>
<text text-anchor="middle" x="909" y="-908.3" font-family="Times,serif" font-size="14.00">remove (S3,P0)</text>
</g>
<!-- E2&#45;&gt;E3 -->
<g id="edge10" class="edge"><title>E2&#45;&gt;E3</title>
<path fill="none" stroke="black" d="M775.624,-998.78C792.183,-984.752 817.365,-964.365 841,-949 849.652,-943.376 859.274,-937.868 868.493,-932.918"/>
<polygon fill="black" stroke="black" points="870.303,-935.921 877.527,-928.171 867.046,-929.724 870.303,-935.921"/>
<text text-anchor="middle" x="873" y="-967.8" font-family="Times,serif" font-size="14.00">OUTPUT: </text>
<text text-anchor="middle" x="873" y="-952.8" font-family="Times,serif" font-size="14.00">INPUT: </text>
</g>
<!-- E3&#45;&gt;E4 -->
<g id="edge12" class="edge"><title>E3&#45;&gt;E4</title>
<path fill="none" stroke="black" d="M909,-893.867C909,-878.414 909,-855.416 909,-837.409"/>
<polygon fill="black" stroke="black" points="912.5,-837.217 909,-827.217 905.5,-837.217 912.5,-837.217"/>
<text text-anchor="middle" x="941" y="-863.8" font-family="Times,serif" font-size="14.00">OUTPUT: </text>
<text text-anchor="middle" x="941" y="-848.8" font-family="Times,serif" font-size="14.00">INPUT: </text>
</g>
<!-- E6 -->
<g id="node7" class="node"><title>E6</title>
<ellipse fill="azure" stroke="black" cx="833" cy="-706" rx="71.4873" ry="18"/>
<text text-anchor="middle" x="833" y="-702.3" font-family="Times,serif" font-size="14.00">separate (S5,P1)</text>
</g>
<!-- E4&#45;&gt;E6 -->
<g id="edge15" class="edge"><title>E4&#45;&gt;E6</title>
<path fill="none" stroke="black" d="M896.45,-791.322C884.312,-775.191 865.762,-750.539 851.849,-732.049"/>
<polygon fill="black" stroke="black" points="854.632,-729.927 845.823,-724.04 849.039,-734.135 854.632,-729.927"/>
<text text-anchor="middle" x="939.5" y="-761.8" font-family="Times,serif" font-size="14.00">OUTPUT: </text>
<text text-anchor="middle" x="939.5" y="-746.8" font-family="Times,serif" font-size="14.00">INPUT: with a fork</text>
</g>
<!-- E5 -->
<g id="node6" class="node"><title>E5</title>
<ellipse fill="azure" stroke="black" cx="736" cy="-809" rx="60.3893" ry="18"/>
<text text-anchor="middle" x="736" y="-805.3" font-family="Times,serif" font-size="14.00">place (S5,P0)</text>
</g>
<!-- E5&#45;&gt;E6 -->
<g id="edge14" class="edge"><title>E5&#45;&gt;E6</title>
<path fill="none" stroke="black" d="M749.771,-791.223C761.006,-777.803 777.5,-758.701 793,-743 797.205,-738.741 801.81,-734.359 806.352,-730.182"/>
<polygon fill="black" stroke="black" points="808.78,-732.706 813.854,-723.405 804.087,-727.511 808.78,-732.706"/>
<text text-anchor="middle" x="825" y="-761.8" font-family="Times,serif" font-size="14.00">OUTPUT: </text>
<text text-anchor="middle" x="825" y="-746.8" font-family="Times,serif" font-size="14.00">INPUT: </text>
</g>
<!-- E7 -->
<g id="node8" class="node"><title>E7</title>
<ellipse fill="azure" stroke="black" cx="665" cy="-603" rx="53.0913" ry="18"/>
<text text-anchor="middle" x="665" y="-599.3" font-family="Times,serif" font-size="14.00">stir (S6,P0)</text>
</g>
<!-- E6&#45;&gt;E7 -->
<g id="edge16" class="edge"><title>E6&#45;&gt;E7</title>
<path fill="none" stroke="black" d="M806.75,-689.219C777.688,-671.747 730.751,-643.529 698.922,-624.394"/>
<polygon fill="black" stroke="black" points="700.344,-621.165 689.97,-619.012 696.737,-627.164 700.344,-621.165"/>
<text text-anchor="middle" x="800" y="-657.8" font-family="Times,serif" font-size="14.00">OUTPUT: </text>
<text text-anchor="middle" x="800" y="-642.8" font-family="Times,serif" font-size="14.00">INPUT: </text>
</g>
<!-- E9 -->
<g id="node10" class="node"><title>E9</title>
<ellipse fill="azure" stroke="black" cx="583" cy="-500" rx="53.0913" ry="18"/>
<text text-anchor="middle" x="583" y="-496.3" font-family="Times,serif" font-size="14.00">stir (S7,P1)</text>
</g>
<!-- E7&#45;&gt;E9 -->
<g id="edge19" class="edge"><title>E7&#45;&gt;E9</title>
<path fill="none" stroke="black" d="M651.459,-585.322C638.284,-569.094 618.107,-544.241 603.066,-525.716"/>
<polygon fill="black" stroke="black" points="605.581,-523.26 596.561,-517.703 600.147,-527.672 605.581,-523.26"/>
<text text-anchor="middle" x="712.5" y="-555.8" font-family="Times,serif" font-size="14.00">OUTPUT: </text>
<text text-anchor="middle" x="712.5" y="-540.8" font-family="Times,serif" font-size="14.00">INPUT: into chicken salad</text>
</g>
<!-- E8 -->
<g id="node9" class="node"><title>E8</title>
<ellipse fill="azure" stroke="black" cx="481" cy="-603" rx="56.59" ry="18"/>
<text text-anchor="middle" x="481" y="-599.3" font-family="Times,serif" font-size="14.00">dice (S7,P0)</text>
</g>
<!-- E8&#45;&gt;E9 -->
<g id="edge18" class="edge"><title>E8&#45;&gt;E9</title>
<path fill="none" stroke="black" d="M491.847,-585.088C501.212,-571.24 515.628,-551.619 531,-537 536.579,-531.694 543.004,-526.593 549.392,-521.984"/>
<polygon fill="black" stroke="black" points="551.765,-524.598 557.998,-516.03 547.783,-518.841 551.765,-524.598"/>
<text text-anchor="middle" x="570.5" y="-555.8" font-family="Times,serif" font-size="14.00">OUTPUT: </text>
<text text-anchor="middle" x="570.5" y="-540.8" font-family="Times,serif" font-size="14.00">INPUT: them</text>
</g>
<!-- E10 -->
<g id="node11" class="node"><title>E10</title>
<ellipse fill="azure" stroke="black" cx="455" cy="-397" rx="59.5901" ry="18"/>
<text text-anchor="middle" x="455" y="-393.3" font-family="Times,serif" font-size="14.00">pour (S8,P0)</text>
</g>
<!-- E9&#45;&gt;E10 -->
<g id="edge20" class="edge"><title>E9&#45;&gt;E10</title>
<path fill="none" stroke="black" d="M563,-483.219C541.615,-466.345 507.527,-439.447 483.374,-420.389"/>
<polygon fill="black" stroke="black" points="485.3,-417.451 475.282,-414.004 480.964,-422.946 485.3,-417.451"/>
<text text-anchor="middle" x="567" y="-451.8" font-family="Times,serif" font-size="14.00">OUTPUT: </text>
<text text-anchor="middle" x="567" y="-436.8" font-family="Times,serif" font-size="14.00">INPUT: </text>
</g>
<!-- E11 -->
<g id="node12" class="node"><title>E11</title>
<ellipse fill="azure" stroke="black" cx="455" cy="-295" rx="53.0913" ry="18"/>
<text text-anchor="middle" x="455" y="-291.3" font-family="Times,serif" font-size="14.00">stir (S8,P1)</text>
</g>
<!-- E10&#45;&gt;E11 -->
<g id="edge23" class="edge"><title>E10&#45;&gt;E11</title>
<path fill="none" stroke="black" d="M455,-378.581C455,-363.382 455,-341.067 455,-323.464"/>
<polygon fill="black" stroke="black" points="458.5,-323.219 455,-313.219 451.5,-323.219 458.5,-323.219"/>
<text text-anchor="middle" x="487" y="-349.8" font-family="Times,serif" font-size="14.00">OUTPUT: </text>
<text text-anchor="middle" x="487" y="-334.8" font-family="Times,serif" font-size="14.00">INPUT: </text>
</g>
<!-- E12 -->
<g id="node13" class="node"><title>E12</title>
<ellipse fill="azure" stroke="black" cx="455" cy="-193" rx="60.3893" ry="18"/>
<text text-anchor="middle" x="455" y="-189.3" font-family="Times,serif" font-size="14.00">serve (S9,P0)</text>
</g>
<!-- E11&#45;&gt;E12 -->
<g id="edge24" class="edge"><title>E11&#45;&gt;E12</title>
<path fill="none" stroke="black" d="M455,-276.581C455,-261.382 455,-239.067 455,-221.464"/>
<polygon fill="black" stroke="black" points="458.5,-221.219 455,-211.219 451.5,-221.219 458.5,-221.219"/>
<text text-anchor="middle" x="487" y="-247.8" font-family="Times,serif" font-size="14.00">OUTPUT: </text>
<text text-anchor="middle" x="487" y="-232.8" font-family="Times,serif" font-size="14.00">INPUT: </text>
</g>
<!-- E13 -->
<g id="node14" class="node"><title>E13</title>
<ellipse fill="azure" stroke="black" cx="350" cy="-91" rx="65.7887" ry="18"/>
<text text-anchor="middle" x="350" y="-87.3" font-family="Times,serif" font-size="14.00">spread (S9,P1)</text>
</g>
<!-- E12&#45;&gt;E13 -->
<g id="edge25" class="edge"><title>E12&#45;&gt;E13</title>
<path fill="none" stroke="black" d="M437.661,-175.487C420.486,-159.13 394.02,-133.924 374.66,-115.486"/>
<polygon fill="black" stroke="black" points="377.02,-112.9 367.364,-108.537 372.192,-117.969 377.02,-112.9"/>
<text text-anchor="middle" x="493" y="-145.8" font-family="Times,serif" font-size="14.00">OUTPUT: </text>
<text text-anchor="middle" x="493" y="-130.8" font-family="Times,serif" font-size="14.00">INPUT: the chicken salad</text>
</g>
<!-- EOR -->
<g id="node28" class="node"><title>EOR</title>
<ellipse fill="plum" stroke="black" cx="350" cy="-18" rx="57.3905" ry="18"/>
<text text-anchor="middle" x="350" y="-14.3" font-family="Times,serif" font-size="14.00">Bon appetit!</text>
</g>
<!-- E13&#45;&gt;EOR -->
<g id="edge27" class="edge"><title>E13&#45;&gt;EOR</title>
<path fill="none" stroke="black" d="M350,-72.8129C350,-64.7895 350,-55.0475 350,-46.0691"/>
<polygon fill="black" stroke="black" points="353.5,-46.0288 350,-36.0288 346.5,-46.0289 353.5,-46.0288"/>
</g>
<!-- D8 -->
<g id="node15" class="node"><title>D8</title>
<polygon fill="peachpuff" stroke="black" points="567.5,-725 280.5,-725 280.5,-687 567.5,-687 567.5,-725"/>
<text text-anchor="middle" x="424" y="-709.8" font-family="Times,serif" font-size="14.00">DOBJ: canned jalapeno pepper slices</text>
<text text-anchor="middle" x="424" y="-694.8" font-family="Times,serif" font-size="14.00">(text: the jalapenos &#45;LRB&#45; reserving the liquid)</text>
</g>
<!-- D8&#45;&gt;E8 -->
<g id="edge1" class="edge"><title>D8&#45;&gt;E8</title>
<path fill="none" stroke="black" d="M434.19,-686.943C443.189,-670.998 456.411,-647.57 466.509,-629.676"/>
<polygon fill="black" stroke="black" points="469.6,-631.322 471.467,-620.893 463.503,-627.881 469.6,-631.322"/>
</g>
<!-- D0 -->
<g id="node16" class="node"><title>D0</title>
<polygon fill="peachpuff" stroke="black" points="1291.5,-1110 1098.5,-1110 1098.5,-1072 1291.5,-1072 1291.5,-1110"/>
<text text-anchor="middle" x="1195" y="-1094.8" font-family="Times,serif" font-size="14.00">DOBJ: vegetable oil for frying</text>
<text text-anchor="middle" x="1195" y="-1079.8" font-family="Times,serif" font-size="14.00">(text: oil)</text>
</g>
<!-- D0&#45;&gt;E0 -->
<g id="edge2" class="edge"><title>D0&#45;&gt;E0</title>
<path fill="none" stroke="black" d="M1229.36,-1071.96C1249.81,-1061.22 1275.77,-1047.58 1296.71,-1036.58"/>
<polygon fill="black" stroke="black" points="1298.42,-1039.64 1305.65,-1031.89 1295.17,-1033.44 1298.42,-1039.64"/>
</g>
<!-- P0_0 -->
<g id="node17" class="node"><title>P0_0</title>
<polygon fill="white" stroke="black" points="1636,-1109 1310,-1109 1310,-1073 1636,-1073 1636,-1109"/>
<text text-anchor="middle" x="1473" y="-1087.3" font-family="Times,serif" font-size="14.00">PREP: in a large heavy skillet over medium&#45;high heat</text>
</g>
<!-- P0_0&#45;&gt;E0 -->
<g id="edge3" class="edge"><title>P0_0&#45;&gt;E0</title>
<path fill="none" stroke="black" d="M1440.41,-1072.88C1419.63,-1061.97 1392.64,-1047.8 1371.05,-1036.46"/>
<polygon fill="black" stroke="black" points="1372.64,-1033.34 1362.15,-1031.79 1369.38,-1039.53 1372.64,-1033.34"/>
</g>
<!-- D2 -->
<g id="node18" class="node"><title>D2</title>
<polygon fill="white" stroke="black" points="734,-1109 666,-1109 666,-1073 734,-1073 734,-1109"/>
<text text-anchor="middle" x="700" y="-1087.3" font-family="Times,serif" font-size="14.00">DOBJ: it</text>
</g>
<!-- D2&#45;&gt;E2 -->
<g id="edge4" class="edge"><title>D2&#45;&gt;E2</title>
<path fill="none" stroke="black" d="M713.508,-1072.7C720.71,-1063.48 729.697,-1051.97 737.629,-1041.81"/>
<polygon fill="black" stroke="black" points="740.585,-1043.71 743.981,-1033.67 735.068,-1039.4 740.585,-1043.71"/>
</g>
<!-- P2_0 -->
<g id="node19" class="node"><title>P2_0</title>
<polygon fill="white" stroke="black" points="876,-1109 752,-1109 752,-1073 876,-1073 876,-1109"/>
<text text-anchor="middle" x="814" y="-1087.3" font-family="Times,serif" font-size="14.00">PREP: with a fork</text>
</g>
<!-- P2_0&#45;&gt;E2 -->
<g id="edge5" class="edge"><title>P2_0&#45;&gt;E2</title>
<path fill="none" stroke="black" d="M800.492,-1072.7C793.29,-1063.48 784.303,-1051.97 776.371,-1041.81"/>
<polygon fill="black" stroke="black" points="778.932,-1039.4 770.019,-1033.67 773.415,-1043.71 778.932,-1039.4"/>
</g>
<!-- D5 -->
<g id="node20" class="node"><title>D5</title>
<polygon fill="peachpuff" stroke="black" points="821.5,-931 588.5,-931 588.5,-893 821.5,-893 821.5,-931"/>
<text text-anchor="middle" x="705" y="-915.8" font-family="Times,serif" font-size="14.00">DOBJ: (10 ounce) can chunk chicken</text>
<text text-anchor="middle" x="705" y="-900.8" font-family="Times,serif" font-size="14.00">(text: the chicken in a bowl)</text>
</g>
<!-- D5&#45;&gt;E5 -->
<g id="edge6" class="edge"><title>D5&#45;&gt;E5</title>
<path fill="none" stroke="black" d="M710.542,-892.943C715.317,-877.386 722.279,-854.704 727.716,-836.99"/>
<polygon fill="black" stroke="black" points="731.124,-837.813 730.713,-827.226 724.433,-835.759 731.124,-837.813"/>
</g>
<!-- D1_ing -->
<g id="node21" class="node"><title>D1_ing</title>
<polygon fill="peachpuff" stroke="black" points="1134.5,-1035 1001.5,-1035 1001.5,-997 1134.5,-997 1134.5,-1035"/>
<text text-anchor="middle" x="1068" y="-1019.8" font-family="Times,serif" font-size="14.00">DOBJ: corn tortillas</text>
<text text-anchor="middle" x="1068" y="-1004.8" font-family="Times,serif" font-size="14.00">(text: a tortilla)</text>
</g>
<!-- D1_ing&#45;&gt;E1 -->
<g id="edge7" class="edge"><title>D1_ing&#45;&gt;E1</title>
<path fill="none" stroke="black" d="M1080.34,-996.764C1091.4,-980.415 1107.72,-956.276 1120.02,-938.106"/>
<polygon fill="black" stroke="black" points="1122.98,-939.969 1125.69,-929.725 1117.18,-936.047 1122.98,-939.969"/>
</g>
<!-- P1_0_0 -->
<g id="node22" class="node"><title>P1_0_0</title>
<polygon fill="white" stroke="black" points="1259.5,-1034 1152.5,-1034 1152.5,-998 1259.5,-998 1259.5,-1034"/>
<text text-anchor="middle" x="1206" y="-1012.3" font-family="Times,serif" font-size="14.00">PREP: at a time</text>
</g>
<!-- P1_0_0&#45;&gt;E1 -->
<g id="edge8" class="edge"><title>P1_0_0&#45;&gt;E1</title>
<path fill="none" stroke="black" d="M1194.3,-997.697C1183.26,-981.383 1166.59,-956.742 1154.07,-938.237"/>
<polygon fill="black" stroke="black" points="1156.81,-936.031 1148.3,-929.709 1151.01,-939.953 1156.81,-936.031"/>
</g>
<!-- P3_0_0 -->
<g id="node23" class="node"><title>P3_0_0</title>
<polygon fill="white" stroke="black" points="983,-1034 835,-1034 835,-998 983,-998 983,-1034"/>
<text text-anchor="middle" x="909" y="-1012.3" font-family="Times,serif" font-size="14.00">PREP: to paper towels</text>
</g>
<!-- P3_0_0&#45;&gt;E3 -->
<g id="edge11" class="edge"><title>P3_0_0&#45;&gt;E3</title>
<path fill="none" stroke="black" d="M909,-997.697C909,-981.923 909,-958.364 909,-940.094"/>
<polygon fill="black" stroke="black" points="912.5,-940.047 909,-930.047 905.5,-940.047 912.5,-940.047"/>
</g>
<!-- P7_0_ing -->
<g id="node24" class="node"><title>P7_0_ing</title>
<polygon fill="peachpuff" stroke="black" points="744,-725 586,-725 586,-687 744,-687 744,-725"/>
<text text-anchor="middle" x="665" y="-709.8" font-family="Times,serif" font-size="14.00">PREP: in mayonnaise</text>
<text text-anchor="middle" x="665" y="-694.8" font-family="Times,serif" font-size="14.00">(text: in the mayonnaise)</text>
</g>
<!-- P7_0_ing&#45;&gt;E7 -->
<g id="edge17" class="edge"><title>P7_0_ing&#45;&gt;E7</title>
<path fill="none" stroke="black" d="M665,-686.943C665,-671.531 665,-649.127 665,-631.488"/>
<polygon fill="black" stroke="black" points="668.5,-631.226 665,-621.226 661.5,-631.226 668.5,-631.226"/>
</g>
<!-- P10_0_ing -->
<g id="node25" class="node"><title>P10_0_ing</title>
<polygon fill="peachpuff" stroke="black" points="380,-519 0,-519 0,-481 380,-481 380,-519"/>
<text text-anchor="middle" x="190" y="-503.8" font-family="Times,serif" font-size="14.00">PREP: in salt and pepper to taste, pickled jalapeno pepper juice</text>
<text text-anchor="middle" x="190" y="-488.8" font-family="Times,serif" font-size="14.00">(text: in 1 tablespoon jalapeno juice , &#160;season with salt)</text>
</g>
<!-- P10_0_ing&#45;&gt;E10 -->
<g id="edge21" class="edge"><title>P10_0_ing&#45;&gt;E10</title>
<path fill="none" stroke="black" d="M237.377,-480.943C286.263,-462.311 361.96,-433.46 409.968,-415.163"/>
<polygon fill="black" stroke="black" points="411.38,-418.371 419.478,-411.539 408.887,-411.83 411.38,-418.371"/>
</g>
<!-- P10_0_0 -->
<g id="node26" class="node"><title>P10_0_0</title>
<polygon fill="white" stroke="black" points="512,-518 398,-518 398,-482 512,-482 512,-518"/>
<text text-anchor="middle" x="455" y="-496.3" font-family="Times,serif" font-size="14.00">PREP: in pepper</text>
</g>
<!-- P10_0_0&#45;&gt;E10 -->
<g id="edge22" class="edge"><title>P10_0_0&#45;&gt;E10</title>
<path fill="none" stroke="black" d="M455,-481.867C455,-466.414 455,-443.416 455,-425.409"/>
<polygon fill="black" stroke="black" points="458.5,-425.217 455,-415.217 451.5,-425.217 458.5,-425.217"/>
</g>
<!-- P13_0_0 -->
<g id="node27" class="node"><title>P13_0_0</title>
<polygon fill="white" stroke="black" points="377,-211 233,-211 233,-175 377,-175 377,-211"/>
<text text-anchor="middle" x="305" y="-189.3" font-family="Times,serif" font-size="14.00">PREP: on the tostadas</text>
</g>
<!-- P13_0_0&#45;&gt;E13 -->
<g id="edge26" class="edge"><title>P13_0_0&#45;&gt;E13</title>
<path fill="none" stroke="black" d="M312.838,-174.581C319.85,-159 330.226,-135.943 338.233,-118.149"/>
<polygon fill="black" stroke="black" points="341.489,-119.441 342.401,-108.886 335.106,-116.569 341.489,-119.441"/>
</g>
</g>
</svg>
