<?xml version="1.0" encoding="UTF-8" standalone="no"?>
<!DOCTYPE svg PUBLIC "-//W3C//DTD SVG 1.1//EN"
 "http://www.w3.org/Graphics/SVG/1.1/DTD/svg11.dtd">
<!-- Generated by graphviz version 2.38.0 (20140413.2041)
 -->
<!-- Title: recipe Pages: 1 -->
<svg width="1774pt" height="1220pt"
 viewBox="0.00 0.00 1773.50 1220.00" xmlns="http://www.w3.org/2000/svg" xmlns:xlink="http://www.w3.org/1999/xlink">
<g id="graph0" class="graph" transform="scale(1 1) rotate(0) translate(4 1216)">
<title>recipe</title>
<polygon fill="white" stroke="none" points="-4,4 -4,-1216 1769.5,-1216 1769.5,4 -4,4"/>
<!-- E0 -->
<g id="node1" class="node"><title>E0</title>
<ellipse fill="azure" stroke="black" cx="1583.5" cy="-295" rx="68.7879" ry="18"/>
<text text-anchor="middle" x="1583.5" y="-291.3" font-family="Times,serif" font-size="14.00">preheat (S0,P0)</text>
</g>
<!-- E10 -->
<g id="node11" class="node"><title>E10</title>
<ellipse fill="azure" stroke="black" cx="1494.5" cy="-193" rx="59.2899" ry="18"/>
<text text-anchor="middle" x="1494.5" y="-189.3" font-family="Times,serif" font-size="14.00">bake (S8,P0)</text>
</g>
<!-- E0&#45;&gt;E10 -->
<g id="edge21" class="edge"><title>E0&#45;&gt;E10</title>
<path fill="none" stroke="black" d="M1568.4,-277.036C1554.12,-260.993 1532.54,-236.737 1516.37,-218.577"/>
<polygon fill="black" stroke="black" points="1518.64,-215.856 1509.37,-210.713 1513.41,-220.51 1518.64,-215.856"/>
<text text-anchor="middle" x="1638" y="-247.8" font-family="Times,serif" font-size="14.00">OUTPUT: </text>
<text text-anchor="middle" x="1638" y="-232.8" font-family="Times,serif" font-size="14.00">INPUT: in the preheated oven</text>
</g>
<!-- E1 -->
<g id="node2" class="node"><title>E1</title>
<ellipse fill="azure" stroke="black" cx="195.5" cy="-1118" rx="69.5877" ry="18"/>
<text text-anchor="middle" x="195.5" y="-1114.3" font-family="Times,serif" font-size="14.00">prepare (S1,P0)</text>
</g>
<!-- E2 -->
<g id="node3" class="node"><title>E2</title>
<ellipse fill="azure" stroke="black" cx="581.5" cy="-1015" rx="64.189" ry="18"/>
<text text-anchor="middle" x="581.5" y="-1011.3" font-family="Times,serif" font-size="14.00">whisk (S2,P0)</text>
</g>
<!-- E1&#45;&gt;E2 -->
<g id="edge5" class="edge"><title>E1&#45;&gt;E2</title>
<path fill="none" stroke="black" d="M242.445,-1104.72C313.975,-1086 449.963,-1050.42 526.183,-1030.47"/>
<polygon fill="black" stroke="black" points="527.289,-1033.8 536.077,-1027.89 525.517,-1027.03 527.289,-1033.8"/>
<text text-anchor="middle" x="510" y="-1069.8" font-family="Times,serif" font-size="14.00">OUTPUT: </text>
<text text-anchor="middle" x="510" y="-1054.8" font-family="Times,serif" font-size="14.00">INPUT: &#160;baking soda </text>
</g>
<!-- E3 -->
<g id="node4" class="node"><title>E3</title>
<ellipse fill="azure" stroke="black" cx="581.5" cy="-912" rx="51.1914" ry="18"/>
<text text-anchor="middle" x="581.5" y="-908.3" font-family="Times,serif" font-size="14.00">set (S3,P0)</text>
</g>
<!-- E2&#45;&gt;E3 -->
<g id="edge7" class="edge"><title>E2&#45;&gt;E3</title>
<path fill="none" stroke="black" d="M581.5,-996.867C581.5,-981.414 581.5,-958.416 581.5,-940.409"/>
<polygon fill="black" stroke="black" points="585,-940.217 581.5,-930.217 578,-940.217 585,-940.217"/>
<text text-anchor="middle" x="613.5" y="-967.8" font-family="Times,serif" font-size="14.00">OUTPUT: </text>
<text text-anchor="middle" x="613.5" y="-952.8" font-family="Times,serif" font-size="14.00">INPUT: </text>
</g>
<!-- E4 -->
<g id="node5" class="node"><title>E4</title>
<ellipse fill="azure" stroke="black" cx="669.5" cy="-808" rx="59.5901" ry="18"/>
<text text-anchor="middle" x="669.5" y="-804.3" font-family="Times,serif" font-size="14.00">pour (S4,P0)</text>
</g>
<!-- E3&#45;&gt;E4 -->
<g id="edge9" class="edge"><title>E3&#45;&gt;E4</title>
<path fill="none" stroke="black" d="M575.486,-894.028C571.556,-879.712 568.763,-859.324 578.5,-845 585.883,-834.139 597.104,-826.555 609.172,-821.259"/>
<polygon fill="black" stroke="black" points="610.456,-824.515 618.516,-817.639 607.927,-817.988 610.456,-824.515"/>
<text text-anchor="middle" x="659" y="-863.8" font-family="Times,serif" font-size="14.00">OUTPUT: </text>
<text text-anchor="middle" x="659" y="-848.8" font-family="Times,serif" font-size="14.00">INPUT: into a mixing bowl</text>
</g>
<!-- E5 -->
<g id="node6" class="node"><title>E5</title>
<ellipse fill="azure" stroke="black" cx="791.5" cy="-705" rx="71.4873" ry="18"/>
<text text-anchor="middle" x="791.5" y="-701.3" font-family="Times,serif" font-size="14.00">sprinkle (S4,P1)</text>
</g>
<!-- E4&#45;&gt;E5 -->
<g id="edge10" class="edge"><title>E4&#45;&gt;E5</title>
<path fill="none" stroke="black" d="M685.196,-790.4C698.714,-776.501 719.063,-756.507 738.5,-741 744.307,-736.367 750.729,-731.748 757.039,-727.457"/>
<polygon fill="black" stroke="black" points="759.11,-730.284 765.507,-721.838 755.24,-724.451 759.11,-730.284"/>
<text text-anchor="middle" x="770.5" y="-759.8" font-family="Times,serif" font-size="14.00">OUTPUT: </text>
<text text-anchor="middle" x="770.5" y="-744.8" font-family="Times,serif" font-size="14.00">INPUT: </text>
</g>
<!-- E6 -->
<g id="node7" class="node"><title>E6</title>
<ellipse fill="azure" stroke="black" cx="905.5" cy="-602" rx="53.0913" ry="18"/>
<text text-anchor="middle" x="905.5" y="-598.3" font-family="Times,serif" font-size="14.00">stir (S5,P0)</text>
</g>
<!-- E5&#45;&gt;E6 -->
<g id="edge12" class="edge"><title>E5&#45;&gt;E6</title>
<path fill="none" stroke="black" d="M805.683,-687.339C817.732,-673.641 835.837,-654.098 853.5,-639 859.603,-633.783 866.463,-628.609 873.148,-623.879"/>
<polygon fill="black" stroke="black" points="875.205,-626.712 881.454,-618.156 871.233,-620.948 875.205,-626.712"/>
<text text-anchor="middle" x="885.5" y="-657.8" font-family="Times,serif" font-size="14.00">OUTPUT: </text>
<text text-anchor="middle" x="885.5" y="-642.8" font-family="Times,serif" font-size="14.00">INPUT: </text>
</g>
<!-- E7 -->
<g id="node8" class="node"><title>E7</title>
<ellipse fill="azure" stroke="black" cx="1063.5" cy="-499" rx="53.0913" ry="18"/>
<text text-anchor="middle" x="1063.5" y="-495.3" font-family="Times,serif" font-size="14.00">stir (S6,P0)</text>
</g>
<!-- E6&#45;&gt;E7 -->
<g id="edge14" class="edge"><title>E6&#45;&gt;E7</title>
<path fill="none" stroke="black" d="M929.497,-585.66C956.683,-568.282 1001.12,-539.875 1031.3,-520.581"/>
<polygon fill="black" stroke="black" points="1033.25,-523.488 1039.8,-515.153 1029.48,-517.59 1033.25,-523.488"/>
<text text-anchor="middle" x="1040.5" y="-553.8" font-family="Times,serif" font-size="14.00">OUTPUT: </text>
<text text-anchor="middle" x="1040.5" y="-538.8" font-family="Times,serif" font-size="14.00">INPUT: </text>
</g>
<!-- E8 -->
<g id="node9" class="node"><title>E8</title>
<ellipse fill="azure" stroke="black" cx="1176.5" cy="-397" rx="53.0913" ry="18"/>
<text text-anchor="middle" x="1176.5" y="-393.3" font-family="Times,serif" font-size="14.00">stir (S7,P0)</text>
</g>
<!-- E7&#45;&gt;E8 -->
<g id="edge16" class="edge"><title>E7&#45;&gt;E8</title>
<path fill="none" stroke="black" d="M1076.51,-481.411C1087.82,-467.576 1105.08,-447.804 1122.5,-433 1128.55,-427.862 1135.39,-422.881 1142.13,-418.366"/>
<polygon fill="black" stroke="black" points="1144.05,-421.293 1150.54,-412.919 1140.24,-415.418 1144.05,-421.293"/>
<text text-anchor="middle" x="1154.5" y="-451.8" font-family="Times,serif" font-size="14.00">OUTPUT: </text>
<text text-anchor="middle" x="1154.5" y="-436.8" font-family="Times,serif" font-size="14.00">INPUT: </text>
</g>
<!-- E9 -->
<g id="node10" class="node"><title>E9</title>
<ellipse fill="azure" stroke="black" cx="1338.5" cy="-295" rx="59.5901" ry="18"/>
<text text-anchor="middle" x="1338.5" y="-291.3" font-family="Times,serif" font-size="14.00">pour (S7,P1)</text>
</g>
<!-- E8&#45;&gt;E9 -->
<g id="edge18" class="edge"><title>E8&#45;&gt;E9</title>
<path fill="none" stroke="black" d="M1197.63,-380.213C1216.35,-366.517 1244.64,-346.51 1270.5,-331 1279.47,-325.623 1289.35,-320.242 1298.74,-315.368"/>
<polygon fill="black" stroke="black" points="1300.6,-318.349 1307.91,-310.683 1297.42,-312.115 1300.6,-318.349"/>
<text text-anchor="middle" x="1302.5" y="-349.8" font-family="Times,serif" font-size="14.00">OUTPUT: </text>
<text text-anchor="middle" x="1302.5" y="-334.8" font-family="Times,serif" font-size="14.00">INPUT: </text>
</g>
<!-- E9&#45;&gt;E10 -->
<g id="edge20" class="edge"><title>E9&#45;&gt;E10</title>
<path fill="none" stroke="black" d="M1362.88,-278.375C1389.43,-261.35 1432.07,-234.018 1461.59,-215.097"/>
<polygon fill="black" stroke="black" points="1463.77,-217.859 1470.3,-209.515 1459.99,-211.965 1463.77,-217.859"/>
<text text-anchor="middle" x="1471.5" y="-247.8" font-family="Times,serif" font-size="14.00">OUTPUT: </text>
<text text-anchor="middle" x="1471.5" y="-232.8" font-family="Times,serif" font-size="14.00">INPUT: </text>
</g>
<!-- E11 -->
<g id="node12" class="node"><title>E11</title>
<ellipse fill="azure" stroke="black" cx="1240.5" cy="-91" rx="57.6901" ry="18"/>
<text text-anchor="middle" x="1240.5" y="-87.3" font-family="Times,serif" font-size="14.00">cool (S9,P0)</text>
</g>
<!-- E10&#45;&gt;E11 -->
<g id="edge22" class="edge"><title>E10&#45;&gt;E11</title>
<path fill="none" stroke="black" d="M1459.71,-178.305C1414.11,-160.352 1334.1,-128.851 1284.38,-109.278"/>
<polygon fill="black" stroke="black" points="1285.45,-105.936 1274.86,-105.529 1282.89,-112.45 1285.45,-105.936"/>
<text text-anchor="middle" x="1436.5" y="-145.8" font-family="Times,serif" font-size="14.00">OUTPUT: </text>
<text text-anchor="middle" x="1436.5" y="-130.8" font-family="Times,serif" font-size="14.00">INPUT: </text>
</g>
<!-- EOR -->
<g id="node26" class="node"><title>EOR</title>
<ellipse fill="plum" stroke="black" cx="1240.5" cy="-18" rx="57.3905" ry="18"/>
<text text-anchor="middle" x="1240.5" y="-14.3" font-family="Times,serif" font-size="14.00">Bon appetit!</text>
</g>
<!-- E11&#45;&gt;EOR -->
<g id="edge25" class="edge"><title>E11&#45;&gt;EOR</title>
<path fill="none" stroke="black" d="M1240.5,-72.8129C1240.5,-64.7895 1240.5,-55.0475 1240.5,-46.0691"/>
<polygon fill="black" stroke="black" points="1244,-46.0288 1240.5,-36.0288 1237,-46.0289 1244,-46.0288"/>
</g>
<!-- D1 -->
<g id="node13" class="node"><title>D1</title>
<polygon fill="peachpuff" stroke="black" points="191,-1212 0,-1212 0,-1174 191,-1174 191,-1212"/>
<text text-anchor="middle" x="95.5" y="-1196.8" font-family="Times,serif" font-size="14.00">DOBJ: baking soda</text>
<text text-anchor="middle" x="95.5" y="-1181.8" font-family="Times,serif" font-size="14.00">(text: a 9x13 inch baking pan)</text>
</g>
<!-- D1&#45;&gt;E1 -->
<g id="edge1" class="edge"><title>D1&#45;&gt;E1</title>
<path fill="none" stroke="black" d="M120.219,-1173.96C133.853,-1164 150.891,-1151.56 165.308,-1141.04"/>
<polygon fill="black" stroke="black" points="167.435,-1143.82 173.448,-1135.1 163.308,-1138.17 167.435,-1143.82"/>
</g>
<!-- P1_0 -->
<g id="node14" class="node"><title>P1_0</title>
<polygon fill="white" stroke="black" points="381.5,-1211 209.5,-1211 209.5,-1175 381.5,-1175 381.5,-1211"/>
<text text-anchor="middle" x="295.5" y="-1189.3" font-family="Times,serif" font-size="14.00">PREP: with cooking spray</text>
</g>
<!-- P1_0&#45;&gt;E1 -->
<g id="edge2" class="edge"><title>P1_0&#45;&gt;E1</title>
<path fill="none" stroke="black" d="M272.054,-1174.88C258.349,-1164.88 240.894,-1152.14 226.114,-1141.35"/>
<polygon fill="black" stroke="black" points="227.909,-1138.33 217.769,-1135.26 223.782,-1143.98 227.909,-1138.33"/>
</g>
<!-- D0 -->
<g id="node15" class="node"><title>D0</title>
<polygon fill="white" stroke="black" points="1765.5,-415 1447.5,-415 1447.5,-379 1765.5,-379 1765.5,-415"/>
<text text-anchor="middle" x="1606.5" y="-393.3" font-family="Times,serif" font-size="14.00">DOBJ: oven to 350 degrees F &#45;LRB&#45; 175 degrees C</text>
</g>
<!-- D0&#45;&gt;E0 -->
<g id="edge3" class="edge"><title>D0&#45;&gt;E0</title>
<path fill="none" stroke="black" d="M1602.49,-378.581C1598.96,-363.238 1593.77,-340.645 1589.7,-322.968"/>
<polygon fill="black" stroke="black" points="1593.11,-322.18 1587.46,-313.219 1586.29,-323.749 1593.11,-322.18"/>
</g>
<!-- D2_ing -->
<g id="node16" class="node"><title>D2_ing</title>
<polygon fill="peachpuff" stroke="black" points="879.5,-1137 283.5,-1137 283.5,-1099 879.5,-1099 879.5,-1137"/>
<text text-anchor="middle" x="581.5" y="-1121.8" font-family="Times,serif" font-size="14.00">DOBJ: soy flour, ground cinnamon, tapioca starch, whole wheat flour, salt, ground cloves</text>
<text text-anchor="middle" x="581.5" y="-1106.8" font-family="Times,serif" font-size="14.00">(text: &#160;cinnamon , the whole wheat flour , &#160;tapioca starch , &#160;soy flour , &#160;ground cloves , salt in a bowl)</text>
</g>
<!-- D2_ing&#45;&gt;E2 -->
<g id="edge4" class="edge"><title>D2_ing&#45;&gt;E2</title>
<path fill="none" stroke="black" d="M581.5,-1098.94C581.5,-1083.53 581.5,-1061.13 581.5,-1043.49"/>
<polygon fill="black" stroke="black" points="585,-1043.23 581.5,-1033.23 578,-1043.23 585,-1043.23"/>
</g>
<!-- P2_0_0 -->
<g id="node17" class="node"><title>P2_0_0</title>
<polygon fill="white" stroke="black" points="1033,-1136 898,-1136 898,-1100 1033,-1100 1033,-1136"/>
<text text-anchor="middle" x="965.5" y="-1114.3" font-family="Times,serif" font-size="14.00">PREP: until blended</text>
</g>
<!-- P2_0_0&#45;&gt;E2 -->
<g id="edge6" class="edge"><title>P2_0_0&#45;&gt;E2</title>
<path fill="none" stroke="black" d="M900.794,-1099.98C826.638,-1080.48 706.373,-1048.84 636.537,-1030.48"/>
<polygon fill="black" stroke="black" points="637.172,-1027.02 626.611,-1027.87 635.392,-1033.79 637.172,-1027.02"/>
</g>
<!-- D4_ing -->
<g id="node18" class="node"><title>D4_ing</title>
<polygon fill="peachpuff" stroke="black" points="822.5,-931 692.5,-931 692.5,-893 822.5,-893 822.5,-931"/>
<text text-anchor="middle" x="757.5" y="-915.8" font-family="Times,serif" font-size="14.00">DOBJ: hot water</text>
<text text-anchor="middle" x="757.5" y="-900.8" font-family="Times,serif" font-size="14.00">(text: the hot water)</text>
</g>
<!-- D4_ing&#45;&gt;E4 -->
<g id="edge8" class="edge"><title>D4_ing&#45;&gt;E4</title>
<path fill="none" stroke="black" d="M757.828,-892.964C757.188,-878.583 754.177,-858.658 743.5,-845 737.231,-836.98 728.719,-830.636 719.698,-825.656"/>
<polygon fill="black" stroke="black" points="721.085,-822.437 710.573,-821.119 717.969,-828.705 721.085,-822.437"/>
</g>
<!-- P5_0_ing -->
<g id="node19" class="node"><title>P5_0_ing</title>
<polygon fill="peachpuff" stroke="black" points="917.5,-827 747.5,-827 747.5,-789 917.5,-789 917.5,-827"/>
<text text-anchor="middle" x="832.5" y="-811.8" font-family="Times,serif" font-size="14.00">PREP: with flax seed meal</text>
<text text-anchor="middle" x="832.5" y="-796.8" font-family="Times,serif" font-size="14.00">(text: with the flax meal)</text>
</g>
<!-- P5_0_ing&#45;&gt;E5 -->
<g id="edge11" class="edge"><title>P5_0_ing&#45;&gt;E5</title>
<path fill="none" stroke="black" d="M825.17,-788.943C818.796,-773.24 809.475,-750.28 802.255,-732.495"/>
<polygon fill="black" stroke="black" points="805.497,-731.175 798.493,-723.226 799.011,-733.808 805.497,-731.175"/>
</g>
<!-- P6_0_0 -->
<g id="node20" class="node"><title>P6_0_0</title>
<polygon fill="white" stroke="black" points="1010.5,-723 880.5,-723 880.5,-687 1010.5,-687 1010.5,-723"/>
<text text-anchor="middle" x="945.5" y="-701.3" font-family="Times,serif" font-size="14.00">PREP: for a minute</text>
</g>
<!-- P6_0_0&#45;&gt;E6 -->
<g id="edge13" class="edge"><title>P6_0_0&#45;&gt;E6</title>
<path fill="none" stroke="black" d="M938.715,-686.867C932.471,-671.101 923.117,-647.482 915.925,-629.323"/>
<polygon fill="black" stroke="black" points="919.122,-627.889 912.185,-619.88 912.613,-630.466 919.122,-627.889"/>
</g>
<!-- P7_0_ing -->
<g id="node21" class="node"><title>P7_0_ing</title>
<polygon fill="peachpuff" stroke="black" points="1256,-621 977,-621 977,-583 1256,-583 1256,-621"/>
<text text-anchor="middle" x="1116.5" y="-605.8" font-family="Times,serif" font-size="14.00">PREP: in vanilla extract, packed brown sugar</text>
<text text-anchor="middle" x="1116.5" y="-590.8" font-family="Times,serif" font-size="14.00">(text: in vanilla, the brown sugar)</text>
</g>
<!-- P7_0_ing&#45;&gt;E7 -->
<g id="edge15" class="edge"><title>P7_0_ing&#45;&gt;E7</title>
<path fill="none" stroke="black" d="M1107.02,-582.943C1098.73,-567.145 1086.59,-543.999 1077.23,-526.17"/>
<polygon fill="black" stroke="black" points="1080.11,-524.121 1072.36,-516.893 1073.91,-527.374 1080.11,-524.121"/>
</g>
<!-- P8_0_0 -->
<g id="node22" class="node"><title>P8_0_0</title>
<polygon fill="white" stroke="black" points="1298.5,-517 1134.5,-517 1134.5,-481 1298.5,-481 1298.5,-517"/>
<text text-anchor="middle" x="1216.5" y="-495.3" font-family="Times,serif" font-size="14.00">PREP: in the dry mixture</text>
</g>
<!-- P8_0_0&#45;&gt;E8 -->
<g id="edge17" class="edge"><title>P8_0_0&#45;&gt;E8</title>
<path fill="none" stroke="black" d="M1209.53,-480.581C1203.36,-465.145 1194.25,-442.369 1187.16,-424.645"/>
<polygon fill="black" stroke="black" points="1190.22,-422.871 1183.25,-414.886 1183.72,-425.471 1190.22,-422.871"/>
</g>
<!-- P9_0_0 -->
<g id="node23" class="node"><title>P9_0_0</title>
<polygon fill="white" stroke="black" points="1429.5,-415 1247.5,-415 1247.5,-379 1429.5,-379 1429.5,-415"/>
<text text-anchor="middle" x="1338.5" y="-393.3" font-family="Times,serif" font-size="14.00">PREP: into the prepared pan</text>
</g>
<!-- P9_0_0&#45;&gt;E9 -->
<g id="edge19" class="edge"><title>P9_0_0&#45;&gt;E9</title>
<path fill="none" stroke="black" d="M1338.5,-378.581C1338.5,-363.382 1338.5,-341.067 1338.5,-323.464"/>
<polygon fill="black" stroke="black" points="1342,-323.219 1338.5,-313.219 1335,-323.219 1342,-323.219"/>
</g>
<!-- P11_0_0 -->
<g id="node24" class="node"><title>P11_0_0</title>
<polygon fill="white" stroke="black" points="1046,-211 841,-211 841,-175 1046,-175 1046,-211"/>
<text text-anchor="middle" x="943.5" y="-189.3" font-family="Times,serif" font-size="14.00">PREP: in the pan for 10 minutes</text>
</g>
<!-- P11_0_0&#45;&gt;E11 -->
<g id="edge23" class="edge"><title>P11_0_0&#45;&gt;E11</title>
<path fill="none" stroke="black" d="M994.219,-174.923C1049.9,-156.175 1138.6,-126.31 1192.98,-108.001"/>
<polygon fill="black" stroke="black" points="1194.35,-111.23 1202.71,-104.722 1192.12,-104.596 1194.35,-111.23"/>
</g>
<!-- P11_1_0 -->
<g id="node25" class="node"><title>P11_1_0</title>
<polygon fill="white" stroke="black" points="1417,-211 1064,-211 1064,-175 1417,-175 1417,-211"/>
<text text-anchor="middle" x="1240.5" y="-189.3" font-family="Times,serif" font-size="14.00">PREP: before removing to cool completely on a wire rack</text>
</g>
<!-- P11_1_0&#45;&gt;E11 -->
<g id="edge24" class="edge"><title>P11_1_0&#45;&gt;E11</title>
<path fill="none" stroke="black" d="M1240.5,-174.581C1240.5,-159.382 1240.5,-137.067 1240.5,-119.464"/>
<polygon fill="black" stroke="black" points="1244,-119.219 1240.5,-109.219 1237,-119.219 1244,-119.219"/>
</g>
</g>
</svg>
