<?xml version="1.0" encoding="UTF-8" standalone="no"?>
<!DOCTYPE svg PUBLIC "-//W3C//DTD SVG 1.1//EN"
 "http://www.w3.org/Graphics/SVG/1.1/DTD/svg11.dtd">
<!-- Generated by graphviz version 2.38.0 (20140413.2041)
 -->
<!-- Title: recipe Pages: 1 -->
<svg width="1610pt" height="627pt"
 viewBox="0.00 0.00 1610.00 626.70" xmlns="http://www.w3.org/2000/svg" xmlns:xlink="http://www.w3.org/1999/xlink">
<g id="graph0" class="graph" transform="scale(1 1) rotate(0) translate(4 622.701)">
<title>recipe</title>
<polygon fill="white" stroke="none" points="-4,4 -4,-622.701 1606,-622.701 1606,4 -4,4"/>
<!-- E0 -->
<g id="node1" class="node"><title>E0</title>
<ellipse fill="azure" stroke="black" cx="1373.5" cy="-309.35" rx="41.9398" ry="26.7407"/>
<text text-anchor="middle" x="1373.5" y="-313.15" font-family="Times,serif" font-size="14.00">preheat</text>
<text text-anchor="middle" x="1373.5" y="-298.15" font-family="Times,serif" font-size="14.00">0</text>
</g>
<!-- E4 -->
<g id="node5" class="node"><title>E4</title>
<ellipse fill="azure" stroke="black" cx="1105.5" cy="-204.61" rx="31.2258" ry="26.7407"/>
<text text-anchor="middle" x="1105.5" y="-208.41" font-family="Times,serif" font-size="14.00">bake</text>
<text text-anchor="middle" x="1105.5" y="-193.41" font-family="Times,serif" font-size="14.00">4</text>
</g>
<!-- E0&#45;&gt;E4 -->
<g id="edge13" class="edge"><title>E0&#45;&gt;E4</title>
<path fill="none" stroke="black" d="M1342.35,-291.391C1336.18,-288.271 1329.69,-285.157 1323.5,-282.48 1262.16,-255.949 1188.38,-231.407 1144.3,-217.494"/>
<polygon fill="black" stroke="black" points="1145.14,-214.092 1134.55,-214.44 1143.05,-220.771 1145.14,-214.092"/>
<text text-anchor="middle" x="1377" y="-253.28" font-family="Times,serif" font-size="14.00">LOCATION:in the preheated oven</text>
</g>
<!-- E1 -->
<g id="node2" class="node"><title>E1</title>
<ellipse fill="azure" stroke="black" cx="653.5" cy="-518.831" rx="63.7795" ry="26.7407"/>
<text text-anchor="middle" x="653.5" y="-522.631" font-family="Times,serif" font-size="14.00">mix together</text>
<text text-anchor="middle" x="653.5" y="-507.631" font-family="Times,serif" font-size="14.00">1</text>
</g>
<!-- E2 -->
<g id="node3" class="node"><title>E2</title>
<ellipse fill="azure" stroke="black" cx="791.5" cy="-414.09" rx="32.5538" ry="26.7407"/>
<text text-anchor="middle" x="791.5" y="-417.89" font-family="Times,serif" font-size="14.00">press</text>
<text text-anchor="middle" x="791.5" y="-402.89" font-family="Times,serif" font-size="14.00">2</text>
</g>
<!-- E1&#45;&gt;E2 -->
<g id="edge8" class="edge"><title>E1&#45;&gt;E2</title>
<path fill="none" stroke="black" d="M674.654,-493.272C685.069,-482.024 698.223,-468.996 711.5,-458.96 724.539,-449.105 740.065,-440.067 753.953,-432.788"/>
<polygon fill="black" stroke="black" points="755.939,-435.705 763.257,-428.042 752.758,-429.469 755.939,-435.705"/>
<text text-anchor="middle" x="762.5" y="-462.76" font-family="Times,serif" font-size="14.00">IMPLICIT DOBJ</text>
</g>
<!-- E3 -->
<g id="node4" class="node"><title>E3</title>
<ellipse fill="azure" stroke="black" cx="904.5" cy="-309.35" rx="27" ry="26.7407"/>
<text text-anchor="middle" x="904.5" y="-313.15" font-family="Times,serif" font-size="14.00">lay</text>
<text text-anchor="middle" x="904.5" y="-298.15" font-family="Times,serif" font-size="14.00">3</text>
</g>
<!-- E2&#45;&gt;E3 -->
<g id="edge11" class="edge"><title>E2&#45;&gt;E3</title>
<path fill="none" stroke="black" d="M783.684,-387.998C781.736,-376.766 781.81,-363.903 788.5,-354.22 806.112,-328.73 840.576,-318.035 867.382,-313.556"/>
<polygon fill="black" stroke="black" points="868.198,-316.975 877.595,-312.081 867.197,-310.047 868.198,-316.975"/>
<text text-anchor="middle" x="861.5" y="-358.02" font-family="Times,serif" font-size="14.00">COOBJECT:over the top</text>
</g>
<!-- E3&#45;&gt;E4 -->
<g id="edge12" class="edge"><title>E3&#45;&gt;E4</title>
<path fill="none" stroke="black" d="M917.147,-285.228C925.28,-272.615 937.03,-257.897 951.5,-249.48 995.839,-223.69 1017.59,-249.806 1065.5,-231.48 1068.18,-230.455 1070.87,-229.233 1073.51,-227.886"/>
<polygon fill="black" stroke="black" points="1075.29,-230.904 1082.26,-222.93 1071.84,-224.813 1075.29,-230.904"/>
<text text-anchor="middle" x="1002.5" y="-253.28" font-family="Times,serif" font-size="14.00">IMPLICIT DOBJ</text>
</g>
<!-- E6 -->
<g id="node7" class="node"><title>E6</title>
<ellipse fill="azure" stroke="black" cx="806.5" cy="-99.8701" rx="38.3684" ry="26.7407"/>
<text text-anchor="middle" x="806.5" y="-103.67" font-family="Times,serif" font-size="14.00">spread</text>
<text text-anchor="middle" x="806.5" y="-88.6701" font-family="Times,serif" font-size="14.00">6</text>
</g>
<!-- E4&#45;&gt;E6 -->
<g id="edge18" class="edge"><title>E4&#45;&gt;E6</title>
<path fill="none" stroke="black" d="M1082.02,-186.855C1076.75,-183.54 1071.06,-180.299 1065.5,-177.74 994.249,-144.951 905.57,-122.199 852.633,-110.362"/>
<polygon fill="black" stroke="black" points="853.377,-106.942 842.858,-108.209 851.871,-113.778 853.377,-106.942"/>
<text text-anchor="middle" x="1108.5" y="-148.54" font-family="Times,serif" font-size="14.00">COOBJECT:over the meat loaf</text>
</g>
<!-- E5 -->
<g id="node6" class="node"><title>E5</title>
<ellipse fill="azure" stroke="black" cx="514.5" cy="-204.61" rx="63.7795" ry="26.7407"/>
<text text-anchor="middle" x="514.5" y="-208.41" font-family="Times,serif" font-size="14.00">mix together</text>
<text text-anchor="middle" x="514.5" y="-193.41" font-family="Times,serif" font-size="14.00">5</text>
</g>
<!-- E5&#45;&gt;E6 -->
<g id="edge16" class="edge"><title>E5&#45;&gt;E6</title>
<path fill="none" stroke="black" d="M551.988,-182.725C575.22,-170.416 605.975,-155.247 634.5,-144.74 675.954,-129.471 724.914,-117.547 759.976,-110.009"/>
<polygon fill="black" stroke="black" points="760.872,-113.397 769.932,-107.906 759.425,-106.548 760.872,-113.397"/>
<text text-anchor="middle" x="685.5" y="-148.54" font-family="Times,serif" font-size="14.00">IMPLICIT DOBJ</text>
</g>
<!-- EOR -->
<g id="node21" class="node"><title>EOR</title>
<ellipse fill="plum" stroke="black" cx="806.5" cy="-18" rx="57.3905" ry="18"/>
<text text-anchor="middle" x="806.5" y="-14.3" font-family="Times,serif" font-size="14.00">Bon appetit!</text>
</g>
<!-- E6&#45;&gt;EOR -->
<g id="edge20" class="edge"><title>E6&#45;&gt;EOR</title>
<path fill="none" stroke="black" d="M806.5,-72.7176C806.5,-64.2726 806.5,-54.8903 806.5,-46.3604"/>
<polygon fill="black" stroke="black" points="810,-46.1464 806.5,-36.1464 803,-46.1464 810,-46.1464"/>
</g>
<!-- D5 -->
<g id="node8" class="node"><title>D5</title>
<polygon fill="peachpuff" stroke="black" points="486.5,-327.35 4.5,-327.35 4.5,-291.35 486.5,-291.35 486.5,-327.35"/>
<text text-anchor="middle" x="245.5" y="-305.65" font-family="Times,serif" font-size="14.00">DOBJ: mustard, vinegar, the remaining 1 cup ketchup, 1/2 cup brown sugar, salt</text>
</g>
<!-- D5&#45;&gt;E5 -->
<g id="edge1" class="edge"><title>D5&#45;&gt;E5</title>
<path fill="none" stroke="black" d="M290.222,-291.27C336.538,-273.58 408.994,-245.907 458.952,-226.826"/>
<polygon fill="black" stroke="black" points="460.225,-230.086 468.318,-223.249 457.728,-223.547 460.225,-230.086"/>
</g>
<!-- O5_0 -->
<g id="node9" class="node"><title>O5_0</title>
<polygon fill="white" stroke="black" points="692,-327.35 505,-327.35 505,-291.35 692,-291.35 692,-327.35"/>
<text text-anchor="middle" x="598.5" y="-305.65" font-family="Times,serif" font-size="14.00">OTHER: while the loaf bakes</text>
</g>
<!-- O5_0&#45;&gt;E5 -->
<g id="edge2" class="edge"><title>O5_0&#45;&gt;E5</title>
<path fill="none" stroke="black" d="M584.251,-290.922C572.479,-276.524 555.444,-255.688 541.155,-238.212"/>
<polygon fill="black" stroke="black" points="543.852,-235.98 534.812,-230.454 538.432,-240.411 543.852,-235.98"/>
</g>
<!-- D1 -->
<g id="node10" class="node"><title>D1</title>
<polygon fill="peachpuff" stroke="black" points="535,-618.701 0,-618.701 0,-582.701 535,-582.701 535,-618.701"/>
<text text-anchor="middle" x="267.5" y="-597.001" font-family="Times,serif" font-size="14.00">DOBJ: eggs, ground beef, 1/4 cup brown sugar, crushed crackers, onion, 3/4 cup ketchup</text>
</g>
<!-- D1&#45;&gt;E1 -->
<g id="edge3" class="edge"><title>D1&#45;&gt;E1</title>
<path fill="none" stroke="black" d="M349.833,-582.664C420.701,-568.001 521.636,-547.115 587.352,-533.518"/>
<polygon fill="black" stroke="black" points="588.101,-536.937 597.185,-531.483 586.683,-530.082 588.101,-536.937"/>
</g>
<!-- P1_0 -->
<g id="node11" class="node"><title>P1_0</title>
<polygon fill="white" stroke="black" points="753.5,-618.701 553.5,-618.701 553.5,-582.701 753.5,-582.701 753.5,-618.701"/>
<text text-anchor="middle" x="653.5" y="-597.001" font-family="Times,serif" font-size="14.00">LOCATION:in a medium bowl</text>
</g>
<!-- P1_0&#45;&gt;E1 -->
<g id="edge4" class="edge"><title>P1_0&#45;&gt;E1</title>
<path fill="none" stroke="black" d="M653.5,-582.37C653.5,-574.636 653.5,-565.216 653.5,-556.059"/>
<polygon fill="black" stroke="black" points="657,-555.935 653.5,-545.935 650,-555.935 657,-555.935"/>
</g>
<!-- O1_0 -->
<g id="node12" class="node"><title>O1_0</title>
<polygon fill="white" stroke="black" points="947.5,-618.701 771.5,-618.701 771.5,-582.701 947.5,-582.701 947.5,-618.701"/>
<text text-anchor="middle" x="859.5" y="-597.001" font-family="Times,serif" font-size="14.00">OTHER: until well blended</text>
</g>
<!-- O1_0&#45;&gt;E1 -->
<g id="edge5" class="edge"><title>O1_0&#45;&gt;E1</title>
<path fill="none" stroke="black" d="M815.561,-582.664C784.479,-570.614 742.561,-554.361 709.144,-541.405"/>
<polygon fill="black" stroke="black" points="710.104,-538.023 699.515,-537.671 707.573,-544.55 710.104,-538.023"/>
</g>
<!-- D0 -->
<g id="node13" class="node"><title>D0</title>
<polygon fill="white" stroke="black" points="1327,-432.09 1218,-432.09 1218,-396.09 1327,-396.09 1327,-432.09"/>
<text text-anchor="middle" x="1272.5" y="-410.39" font-family="Times,serif" font-size="14.00">DOBJ: the oven</text>
</g>
<!-- D0&#45;&gt;E0 -->
<g id="edge6" class="edge"><title>D0&#45;&gt;E0</title>
<path fill="none" stroke="black" d="M1289.63,-395.662C1304.6,-380.433 1326.66,-358.002 1344.39,-339.961"/>
<polygon fill="black" stroke="black" points="1347.18,-342.118 1351.69,-332.533 1342.19,-337.21 1347.18,-342.118"/>
</g>
<!-- O0_0 -->
<g id="node14" class="node"><title>O0_0</title>
<polygon fill="white" stroke="black" points="1602,-432.09 1345,-432.09 1345,-396.09 1602,-396.09 1602,-432.09"/>
<text text-anchor="middle" x="1473.5" y="-410.39" font-family="Times,serif" font-size="14.00">OTHER: to 350 degrees f (175 degrees c)</text>
</g>
<!-- O0_0&#45;&gt;E0 -->
<g id="edge7" class="edge"><title>O0_0&#45;&gt;E0</title>
<path fill="none" stroke="black" d="M1456.54,-395.662C1441.71,-380.433 1419.88,-358.002 1402.32,-339.961"/>
<polygon fill="black" stroke="black" points="1404.57,-337.257 1395.09,-332.533 1399.56,-342.14 1404.57,-337.257"/>
</g>
<!-- P2_0_0 -->
<g id="node15" class="node"><title>P2_0_0</title>
<polygon fill="white" stroke="black" points="966,-536.831 735,-536.831 735,-500.831 966,-500.831 966,-536.831"/>
<text text-anchor="middle" x="850.5" y="-515.131" font-family="Times,serif" font-size="14.00">LOCATION:into a 9x5 inch loaf pan</text>
</g>
<!-- P2_0_0&#45;&gt;E2 -->
<g id="edge9" class="edge"><title>P2_0_0&#45;&gt;E2</title>
<path fill="none" stroke="black" d="M840.491,-500.402C832.204,-485.971 820.203,-465.073 810.153,-447.572"/>
<polygon fill="black" stroke="black" points="813.12,-445.711 805.105,-438.782 807.05,-449.197 813.12,-445.711"/>
</g>
<!-- D3_ing -->
<g id="node16" class="node"><title>D3_ing</title>
<polygon fill="peachpuff" stroke="black" points="1048,-432.09 857,-432.09 857,-396.09 1048,-396.09 1048,-432.09"/>
<text text-anchor="middle" x="952.5" y="-410.39" font-family="Times,serif" font-size="14.00">DOBJ: the two slices of bacon</text>
</g>
<!-- D3_ing&#45;&gt;E3 -->
<g id="edge10" class="edge"><title>D3_ing&#45;&gt;E3</title>
<path fill="none" stroke="black" d="M950.393,-395.954C948.441,-383.85 944.85,-367.487 938.5,-354.22 935.835,-348.652 932.375,-343.124 928.684,-337.964"/>
<polygon fill="black" stroke="black" points="931.209,-335.504 922.355,-329.685 925.648,-339.755 931.209,-335.504"/>
</g>
<!-- O4_0_0 -->
<g id="node17" class="node"><title>O4_0_0</title>
<polygon fill="white" stroke="black" points="1084.5,-327.35 952.5,-327.35 952.5,-291.35 1084.5,-291.35 1084.5,-327.35"/>
<text text-anchor="middle" x="1018.5" y="-305.65" font-family="Times,serif" font-size="14.00">OTHER: for 1 hour</text>
</g>
<!-- O4_0_0&#45;&gt;E4 -->
<g id="edge14" class="edge"><title>O4_0_0&#45;&gt;E4</title>
<path fill="none" stroke="black" d="M1033.26,-290.922C1046.29,-275.531 1065.55,-252.784 1080.91,-234.647"/>
<polygon fill="black" stroke="black" points="1083.87,-236.575 1087.66,-226.682 1078.52,-232.052 1083.87,-236.575"/>
</g>
<!-- O4_1_0 -->
<g id="node18" class="node"><title>O4_1_0</title>
<polygon fill="white" stroke="black" points="1314,-327.35 1103,-327.35 1103,-291.35 1314,-291.35 1314,-327.35"/>
<text text-anchor="middle" x="1208.5" y="-305.65" font-family="Times,serif" font-size="14.00">OTHER: or until cooked through</text>
</g>
<!-- O4_1_0&#45;&gt;E4 -->
<g id="edge15" class="edge"><title>O4_1_0&#45;&gt;E4</title>
<path fill="none" stroke="black" d="M1191.03,-290.922C1175.16,-275.092 1151.49,-251.479 1133.07,-233.106"/>
<polygon fill="black" stroke="black" points="1135.08,-230.175 1125.53,-225.591 1130.14,-235.131 1135.08,-230.175"/>
</g>
<!-- P6_0_0 -->
<g id="node19" class="node"><title>P6_0_0</title>
<polygon fill="white" stroke="black" points="778.5,-222.61 596.5,-222.61 596.5,-186.61 778.5,-186.61 778.5,-222.61"/>
<text text-anchor="middle" x="687.5" y="-200.91" font-family="Times,serif" font-size="14.00">COOBJECT:over the top of </text>
</g>
<!-- P6_0_0&#45;&gt;E6 -->
<g id="edge17" class="edge"><title>P6_0_0&#45;&gt;E6</title>
<path fill="none" stroke="black" d="M707.418,-186.414C725.921,-170.439 753.771,-146.394 775.238,-127.861"/>
<polygon fill="black" stroke="black" points="777.546,-130.492 782.828,-121.307 772.972,-125.193 777.546,-130.492"/>
</g>
<!-- O6_0_0 -->
<g id="node20" class="node"><title>O6_0_0</title>
<polygon fill="white" stroke="black" points="1056.5,-222.61 796.5,-222.61 796.5,-186.61 1056.5,-186.61 1056.5,-222.61"/>
<text text-anchor="middle" x="926.5" y="-200.91" font-family="Times,serif" font-size="14.00">OTHER: for the last 15 minutes of baking</text>
</g>
<!-- O6_0_0&#45;&gt;E6 -->
<g id="edge19" class="edge"><title>O6_0_0&#45;&gt;E6</title>
<path fill="none" stroke="black" d="M906.415,-186.414C887.756,-170.439 859.672,-146.394 838.025,-127.861"/>
<polygon fill="black" stroke="black" points="840.243,-125.152 830.371,-121.307 835.691,-130.47 840.243,-125.152"/>
</g>
</g>
</svg>
