<?xml version="1.0" encoding="UTF-8" standalone="no"?>
<!DOCTYPE svg PUBLIC "-//W3C//DTD SVG 1.1//EN"
 "http://www.w3.org/Graphics/SVG/1.1/DTD/svg11.dtd">
<!-- Generated by graphviz version 2.38.0 (20140413.2041)
 -->
<!-- Title: recipe Pages: 1 -->
<svg width="1992pt" height="1255pt"
 viewBox="0.00 0.00 1991.50 1255.14" xmlns="http://www.w3.org/2000/svg" xmlns:xlink="http://www.w3.org/1999/xlink">
<g id="graph0" class="graph" transform="scale(1 1) rotate(0) translate(4 1251.14)">
<title>recipe</title>
<polygon fill="white" stroke="none" points="-4,4 -4,-1251.14 1987.5,-1251.14 1987.5,4 -4,4"/>
<!-- E0 -->
<g id="node1" class="node"><title>E0</title>
<ellipse fill="azure" stroke="black" cx="1807" cy="-1147.27" rx="32.5538" ry="26.7407"/>
<text text-anchor="middle" x="1807" y="-1151.07" font-family="Times,serif" font-size="14.00">place</text>
<text text-anchor="middle" x="1807" y="-1136.07" font-family="Times,serif" font-size="14.00">0</text>
</g>
<!-- E1 -->
<g id="node2" class="node"><title>E1</title>
<ellipse fill="azure" stroke="black" cx="1689" cy="-1042.53" rx="33.8824" ry="26.7407"/>
<text text-anchor="middle" x="1689" y="-1046.33" font-family="Times,serif" font-size="14.00">cover</text>
<text text-anchor="middle" x="1689" y="-1031.33" font-family="Times,serif" font-size="14.00">1</text>
</g>
<!-- E0&#45;&gt;E1 -->
<g id="edge5" class="edge"><title>E0&#45;&gt;E1</title>
<path fill="none" stroke="black" d="M1785.08,-1127.19C1766.41,-1110.93 1739.39,-1087.41 1718.76,-1069.45"/>
<polygon fill="black" stroke="black" points="1721.04,-1066.79 1711.2,-1062.86 1716.45,-1072.07 1721.04,-1066.79"/>
<text text-anchor="middle" x="1806" y="-1091.2" font-family="Times,serif" font-size="14.00">IMPLICIT DOBJ</text>
</g>
<!-- E2 -->
<g id="node3" class="node"><title>E2</title>
<ellipse fill="azure" stroke="black" cx="1601" cy="-937.791" rx="70.0071" ry="26.7407"/>
<text text-anchor="middle" x="1601" y="-941.591" font-family="Times,serif" font-size="14.00">bring to a boil</text>
<text text-anchor="middle" x="1601" y="-926.591" font-family="Times,serif" font-size="14.00">2</text>
</g>
<!-- E1&#45;&gt;E2 -->
<g id="edge7" class="edge"><title>E1&#45;&gt;E2</title>
<path fill="none" stroke="black" d="M1670.34,-1019.74C1658.31,-1005.7 1642.44,-987.178 1628.93,-971.397"/>
<polygon fill="black" stroke="black" points="1631.27,-968.751 1622.11,-963.432 1625.95,-973.304 1631.27,-968.751"/>
<text text-anchor="middle" x="1701" y="-986.461" font-family="Times,serif" font-size="14.00">IMPLICIT DOBJ</text>
</g>
<!-- E3 -->
<g id="node4" class="node"><title>E3</title>
<ellipse fill="azure" stroke="black" cx="1488" cy="-833.051" rx="57.9655" ry="26.7407"/>
<text text-anchor="middle" x="1488" y="-836.851" font-family="Times,serif" font-size="14.00">reduce heat</text>
<text text-anchor="middle" x="1488" y="-821.851" font-family="Times,serif" font-size="14.00">3</text>
</g>
<!-- E2&#45;&gt;E3 -->
<g id="edge9" class="edge"><title>E2&#45;&gt;E3</title>
<path fill="none" stroke="black" d="M1574.51,-912.703C1558.55,-898.199 1538.11,-879.607 1521.1,-864.141"/>
<polygon fill="black" stroke="black" points="1523.3,-861.419 1513.55,-857.281 1518.59,-866.598 1523.3,-861.419"/>
<text text-anchor="middle" x="1602" y="-881.721" font-family="Times,serif" font-size="14.00">IMPLICIT DOBJ</text>
</g>
<!-- E4 -->
<g id="node5" class="node"><title>E4</title>
<ellipse fill="azure" stroke="black" cx="1326" cy="-728.311" rx="86.0347" ry="26.7407"/>
<text text-anchor="middle" x="1326" y="-732.111" font-family="Times,serif" font-size="14.00">cover, and simmer</text>
<text text-anchor="middle" x="1326" y="-717.111" font-family="Times,serif" font-size="14.00">4</text>
</g>
<!-- E3&#45;&gt;E4 -->
<g id="edge11" class="edge"><title>E3&#45;&gt;E4</title>
<path fill="none" stroke="black" d="M1454.83,-811.012C1430.79,-795.769 1398,-774.974 1371.52,-758.179"/>
<polygon fill="black" stroke="black" points="1373.12,-755.051 1362.8,-752.651 1369.37,-760.962 1373.12,-755.051"/>
<text text-anchor="middle" x="1467" y="-776.981" font-family="Times,serif" font-size="14.00">IMPLICIT DOBJ</text>
</g>
<!-- E5 -->
<g id="node6" class="node"><title>E5</title>
<ellipse fill="azure" stroke="black" cx="1253" cy="-623.571" rx="33.4697" ry="26.7407"/>
<text text-anchor="middle" x="1253" y="-627.371" font-family="Times,serif" font-size="14.00">drain</text>
<text text-anchor="middle" x="1253" y="-612.371" font-family="Times,serif" font-size="14.00">5</text>
</g>
<!-- E4&#45;&gt;E5 -->
<g id="edge14" class="edge"><title>E4&#45;&gt;E5</title>
<path fill="none" stroke="black" d="M1267.9,-708.231C1257.19,-702.028 1247.39,-693.935 1241,-683.441 1236.44,-675.95 1236.17,-667.028 1237.86,-658.423"/>
<polygon fill="black" stroke="black" points="1241.29,-659.146 1240.61,-648.573 1234.55,-657.262 1241.29,-659.146"/>
<text text-anchor="middle" x="1275.5" y="-672.241" font-family="Times,serif" font-size="14.00">the potatoes</text>
</g>
<!-- E4&#45;&gt;E5 -->
<g id="edge15" class="edge"><title>E4&#45;&gt;E5</title>
<path fill="none" stroke="black" d="M1322.71,-701.447C1320.42,-690.574 1316.54,-678.209 1310,-668.441 1304.22,-659.803 1296.17,-652.144 1287.93,-645.74"/>
<polygon fill="black" stroke="black" points="1289.87,-642.818 1279.72,-639.765 1285.75,-648.478 1289.87,-642.818"/>
<text text-anchor="middle" x="1367.5" y="-672.241" font-family="Times,serif" font-size="14.00">IMPLICIT PREP</text>
</g>
<!-- E6 -->
<g id="node7" class="node"><title>E6</title>
<ellipse fill="azure" stroke="black" cx="1124" cy="-518.831" rx="65.1077" ry="26.7407"/>
<text text-anchor="middle" x="1124" y="-522.631" font-family="Times,serif" font-size="14.00">allow to cool</text>
<text text-anchor="middle" x="1124" y="-507.631" font-family="Times,serif" font-size="14.00">6</text>
</g>
<!-- E5&#45;&gt;E6 -->
<g id="edge16" class="edge"><title>E5&#45;&gt;E6</title>
<path fill="none" stroke="black" d="M1229.94,-604.203C1210.83,-588.987 1183.32,-567.072 1161.11,-549.39"/>
<polygon fill="black" stroke="black" points="1163.2,-546.58 1153.2,-543.088 1158.84,-552.055 1163.2,-546.58"/>
<text text-anchor="middle" x="1247" y="-567.501" font-family="Times,serif" font-size="14.00">IMPLICIT DOBJ</text>
</g>
<!-- E7 -->
<g id="node8" class="node"><title>E7</title>
<ellipse fill="azure" stroke="black" cx="996" cy="-414.09" rx="28.0702" ry="26.7407"/>
<text text-anchor="middle" x="996" y="-417.89" font-family="Times,serif" font-size="14.00">dice</text>
<text text-anchor="middle" x="996" y="-402.89" font-family="Times,serif" font-size="14.00">7</text>
</g>
<!-- E6&#45;&gt;E7 -->
<g id="edge18" class="edge"><title>E6&#45;&gt;E7</title>
<path fill="none" stroke="black" d="M1094.95,-494.517C1074.12,-477.792 1046.15,-455.343 1025.26,-438.578"/>
<polygon fill="black" stroke="black" points="1027.34,-435.759 1017.35,-432.229 1022.96,-441.218 1027.34,-435.759"/>
<text text-anchor="middle" x="1118" y="-462.76" font-family="Times,serif" font-size="14.00">IMPLICIT DOBJ</text>
</g>
<!-- E13 -->
<g id="node14" class="node"><title>E13</title>
<ellipse fill="azure" stroke="black" cx="863" cy="-309.35" rx="32.5538" ry="26.7407"/>
<text text-anchor="middle" x="863" y="-313.15" font-family="Times,serif" font-size="14.00">place</text>
<text text-anchor="middle" x="863" y="-298.15" font-family="Times,serif" font-size="14.00">13</text>
</g>
<!-- E7&#45;&gt;E13 -->
<g id="edge31" class="edge"><title>E7&#45;&gt;E13</title>
<path fill="none" stroke="black" d="M991.329,-387.336C988.121,-375.965 982.789,-363.176 974,-354.22 955.478,-335.347 927.839,-324.389 904.775,-318.144"/>
<polygon fill="black" stroke="black" points="905.431,-314.701 894.881,-315.671 903.734,-321.492 905.431,-314.701"/>
<text text-anchor="middle" x="1038.5" y="-358.02" font-family="Times,serif" font-size="14.00">the cooled potatoes</text>
</g>
<!-- E8 -->
<g id="node9" class="node"><title>E8</title>
<ellipse fill="azure" stroke="black" cx="147" cy="-833.051" rx="32.5538" ry="26.7407"/>
<text text-anchor="middle" x="147" y="-836.851" font-family="Times,serif" font-size="14.00">place</text>
<text text-anchor="middle" x="147" y="-821.851" font-family="Times,serif" font-size="14.00">8</text>
</g>
<!-- E9 -->
<g id="node10" class="node"><title>E9</title>
<ellipse fill="azure" stroke="black" cx="517" cy="-728.311" rx="31.6406" ry="26.7407"/>
<text text-anchor="middle" x="517" y="-732.111" font-family="Times,serif" font-size="14.00">cook</text>
<text text-anchor="middle" x="517" y="-717.111" font-family="Times,serif" font-size="14.00">9</text>
</g>
<!-- E8&#45;&gt;E9 -->
<g id="edge20" class="edge"><title>E8&#45;&gt;E9</title>
<path fill="none" stroke="black" d="M171.584,-815.139C176.862,-811.91 182.508,-808.743 188,-806.181 284.932,-760.965 410.699,-741.162 475.043,-733.51"/>
<polygon fill="black" stroke="black" points="475.668,-736.961 485.203,-732.343 474.868,-730.007 475.668,-736.961"/>
<text text-anchor="middle" x="326" y="-776.981" font-family="Times,serif" font-size="14.00">IMPLICIT DOBJ</text>
</g>
<!-- E10 -->
<g id="node11" class="node"><title>E10</title>
<ellipse fill="azure" stroke="black" cx="604" cy="-623.571" rx="33.4697" ry="26.7407"/>
<text text-anchor="middle" x="604" y="-627.371" font-family="Times,serif" font-size="14.00">drain</text>
<text text-anchor="middle" x="604" y="-612.371" font-family="Times,serif" font-size="14.00">10</text>
</g>
<!-- E9&#45;&gt;E10 -->
<g id="edge25" class="edge"><title>E9&#45;&gt;E10</title>
<path fill="none" stroke="black" d="M498.299,-706.405C490.143,-694.669 484.052,-680.09 492,-668.441 507.465,-645.774 536.56,-634.819 561.22,-629.523"/>
<polygon fill="black" stroke="black" points="561.943,-632.949 571.112,-627.641 560.634,-626.072 561.943,-632.949"/>
<text text-anchor="middle" x="537" y="-672.241" font-family="Times,serif" font-size="14.00">the bacon slices</text>
</g>
<!-- E9&#45;&gt;E10 -->
<g id="edge26" class="edge"><title>E9&#45;&gt;E10</title>
<path fill="none" stroke="black" d="M544.307,-713.999C557.223,-706.54 571.973,-696.166 582,-683.441 587.485,-676.48 591.704,-668.011 594.908,-659.691"/>
<polygon fill="black" stroke="black" points="598.267,-660.686 598.218,-650.091 591.649,-658.404 598.267,-660.686"/>
<text text-anchor="middle" x="641.5" y="-672.241" font-family="Times,serif" font-size="14.00">IMPLICIT PREP</text>
</g>
<!-- E11 -->
<g id="node12" class="node"><title>E11</title>
<ellipse fill="azure" stroke="black" cx="604" cy="-518.831" rx="65.1077" ry="26.7407"/>
<text text-anchor="middle" x="604" y="-522.631" font-family="Times,serif" font-size="14.00">allow to cool</text>
<text text-anchor="middle" x="604" y="-507.631" font-family="Times,serif" font-size="14.00">11</text>
</g>
<!-- E10&#45;&gt;E11 -->
<g id="edge28" class="edge"><title>E10&#45;&gt;E11</title>
<path fill="none" stroke="black" d="M604,-596.645C604,-584.356 604,-569.467 604,-556.082"/>
<polygon fill="black" stroke="black" points="607.5,-555.748 604,-545.748 600.5,-555.748 607.5,-555.748"/>
<text text-anchor="middle" x="655" y="-567.501" font-family="Times,serif" font-size="14.00">IMPLICIT DOBJ</text>
</g>
<!-- E12 -->
<g id="node13" class="node"><title>E12</title>
<ellipse fill="azure" stroke="black" cx="729" cy="-414.09" rx="45.011" ry="26.7407"/>
<text text-anchor="middle" x="729" y="-417.89" font-family="Times,serif" font-size="14.00">crumble</text>
<text text-anchor="middle" x="729" y="-402.89" font-family="Times,serif" font-size="14.00">12</text>
</g>
<!-- E11&#45;&gt;E12 -->
<g id="edge29" class="edge"><title>E11&#45;&gt;E12</title>
<path fill="none" stroke="black" d="M632.364,-494.517C651.104,-479.115 675.749,-458.858 695.461,-442.657"/>
<polygon fill="black" stroke="black" points="697.796,-445.268 703.299,-436.215 693.351,-439.861 697.796,-445.268"/>
<text text-anchor="middle" x="702" y="-462.76" font-family="Times,serif" font-size="14.00">the bacon</text>
</g>
<!-- E12&#45;&gt;E13 -->
<g id="edge32" class="edge"><title>E12&#45;&gt;E13</title>
<path fill="none" stroke="black" d="M720.44,-387.435C718.336,-376.084 718.493,-363.284 726,-354.22 753.413,-321.126 780.929,-351.747 821,-336.22 823.862,-335.111 826.746,-333.806 829.59,-332.38"/>
<polygon fill="black" stroke="black" points="831.376,-335.392 838.459,-327.513 828.009,-329.256 831.376,-335.392"/>
<text text-anchor="middle" x="848" y="-358.02" font-family="Times,serif" font-size="14.00">LOCATION:into the bowl with the bacon</text>
</g>
<!-- E14 -->
<g id="node15" class="node"><title>E14</title>
<ellipse fill="azure" stroke="black" cx="673" cy="-204.61" rx="38.3684" ry="26.7407"/>
<text text-anchor="middle" x="673" y="-208.41" font-family="Times,serif" font-size="14.00">mix in</text>
<text text-anchor="middle" x="673" y="-193.41" font-family="Times,serif" font-size="14.00">14</text>
</g>
<!-- E13&#45;&gt;E14 -->
<g id="edge34" class="edge"><title>E13&#45;&gt;E14</title>
<path fill="none" stroke="black" d="M837.412,-292.18C832.034,-288.897 826.365,-285.52 821,-282.48 784.973,-262.065 743.007,-240.468 712.983,-225.382"/>
<polygon fill="black" stroke="black" points="714.186,-222.07 703.677,-220.722 711.052,-228.329 714.186,-222.07"/>
<text text-anchor="middle" x="835.5" y="-253.28" font-family="Times,serif" font-size="14.00">IMPLICIT PREP</text>
</g>
<!-- E15 -->
<g id="node16" class="node"><title>E15</title>
<ellipse fill="azure" stroke="black" cx="539" cy="-99.8701" rx="53.9813" ry="26.7407"/>
<text text-anchor="middle" x="539" y="-103.67" font-family="Times,serif" font-size="14.00">refrigerate</text>
<text text-anchor="middle" x="539" y="-88.6701" font-family="Times,serif" font-size="14.00">15</text>
</g>
<!-- E14&#45;&gt;E15 -->
<g id="edge35" class="edge"><title>E14&#45;&gt;E15</title>
<path fill="none" stroke="black" d="M647.796,-184.286C627.539,-168.755 598.796,-146.717 575.941,-129.193"/>
<polygon fill="black" stroke="black" points="577.879,-126.269 567.813,-122.962 573.619,-131.824 577.879,-126.269"/>
<text text-anchor="middle" x="666" y="-148.54" font-family="Times,serif" font-size="14.00">IMPLICIT DOBJ</text>
</g>
<!-- EOR -->
<g id="node37" class="node"><title>EOR</title>
<ellipse fill="plum" stroke="black" cx="539" cy="-18" rx="57.3905" ry="18"/>
<text text-anchor="middle" x="539" y="-14.3" font-family="Times,serif" font-size="14.00">Bon appetit!</text>
</g>
<!-- E15&#45;&gt;EOR -->
<g id="edge38" class="edge"><title>E15&#45;&gt;EOR</title>
<path fill="none" stroke="black" d="M539,-72.7176C539,-64.2726 539,-54.8903 539,-46.3604"/>
<polygon fill="black" stroke="black" points="542.5,-46.1464 539,-36.1464 535.5,-46.1464 542.5,-46.1464"/>
</g>
<!-- D0 -->
<g id="node17" class="node"><title>D0</title>
<polygon fill="peachpuff" stroke="black" points="1784,-1247.14 1656,-1247.14 1656,-1211.14 1784,-1211.14 1784,-1247.14"/>
<text text-anchor="middle" x="1720" y="-1225.44" font-family="Times,serif" font-size="14.00">DOBJ: the potatoes</text>
</g>
<!-- D0&#45;&gt;E0 -->
<g id="edge1" class="edge"><title>D0&#45;&gt;E0</title>
<path fill="none" stroke="black" d="M1738.88,-1210.81C1750.3,-1200.32 1765.1,-1186.74 1777.99,-1174.91"/>
<polygon fill="black" stroke="black" points="1780.71,-1177.15 1785.71,-1167.81 1775.98,-1172 1780.71,-1177.15"/>
</g>
<!-- P0_0 -->
<g id="node18" class="node"><title>P0_0</title>
<polygon fill="white" stroke="black" points="1983.5,-1247.14 1802.5,-1247.14 1802.5,-1211.14 1983.5,-1211.14 1983.5,-1247.14"/>
<text text-anchor="middle" x="1893" y="-1225.44" font-family="Times,serif" font-size="14.00">LOCATION:into a large pot</text>
</g>
<!-- P0_0&#45;&gt;E0 -->
<g id="edge2" class="edge"><title>P0_0&#45;&gt;E0</title>
<path fill="none" stroke="black" d="M1874.34,-1210.81C1863.05,-1200.32 1848.42,-1186.74 1835.68,-1174.91"/>
<polygon fill="black" stroke="black" points="1837.75,-1172.05 1828.04,-1167.81 1832.99,-1177.18 1837.75,-1172.05"/>
</g>
<!-- D8 -->
<g id="node19" class="node"><title>D8</title>
<polygon fill="peachpuff" stroke="black" points="116,-955.791 0,-955.791 0,-919.791 116,-919.791 116,-955.791"/>
<text text-anchor="middle" x="58" y="-934.091" font-family="Times,serif" font-size="14.00">DOBJ: the bacon</text>
</g>
<!-- D8&#45;&gt;E8 -->
<g id="edge3" class="edge"><title>D8&#45;&gt;E8</title>
<path fill="none" stroke="black" d="M73.0976,-919.363C86.3439,-904.071 105.881,-881.517 121.542,-863.44"/>
<polygon fill="black" stroke="black" points="124.525,-865.341 128.427,-855.491 119.234,-860.758 124.525,-865.341"/>
</g>
<!-- P8_0 -->
<g id="node20" class="node"><title>P8_0</title>
<polygon fill="white" stroke="black" points="337.5,-955.791 134.5,-955.791 134.5,-919.791 337.5,-919.791 337.5,-955.791"/>
<text text-anchor="middle" x="236" y="-934.091" font-family="Times,serif" font-size="14.00">LOCATION:a large, deep skillet</text>
</g>
<!-- P8_0&#45;&gt;E8 -->
<g id="edge4" class="edge"><title>P8_0&#45;&gt;E8</title>
<path fill="none" stroke="black" d="M220.902,-919.363C207.656,-904.071 188.119,-881.517 172.458,-863.44"/>
<polygon fill="black" stroke="black" points="174.766,-860.758 165.573,-855.491 169.475,-865.341 174.766,-860.758"/>
</g>
<!-- P1_0_ing -->
<g id="node21" class="node"><title>P1_0_ing</title>
<polygon fill="peachpuff" stroke="black" points="1756,-1165.27 1520,-1165.27 1520,-1129.27 1756,-1129.27 1756,-1165.27"/>
<text text-anchor="middle" x="1638" y="-1143.57" font-family="Times,serif" font-size="14.00">COOBJECT: with lightly salted water</text>
</g>
<!-- P1_0_ing&#45;&gt;E1 -->
<g id="edge6" class="edge"><title>P1_0_ing&#45;&gt;E1</title>
<path fill="none" stroke="black" d="M1646.65,-1128.84C1653.65,-1114.74 1663.72,-1094.45 1672.29,-1077.2"/>
<polygon fill="black" stroke="black" points="1675.55,-1078.5 1676.86,-1067.99 1669.28,-1075.39 1675.55,-1078.5"/>
</g>
<!-- O2_0_0 -->
<g id="node22" class="node"><title>O2_0_0</title>
<polygon fill="white" stroke="black" points="1637.5,-1060.53 1482.5,-1060.53 1482.5,-1024.53 1637.5,-1024.53 1637.5,-1060.53"/>
<text text-anchor="middle" x="1560" y="-1038.83" font-family="Times,serif" font-size="14.00">OTHER: over high heat</text>
</g>
<!-- O2_0_0&#45;&gt;E2 -->
<g id="edge8" class="edge"><title>O2_0_0&#45;&gt;E2</title>
<path fill="none" stroke="black" d="M1566.96,-1024.1C1572.42,-1010.42 1580.2,-990.909 1586.95,-974.003"/>
<polygon fill="black" stroke="black" points="1590.32,-974.997 1590.78,-964.412 1583.82,-972.403 1590.32,-974.997"/>
</g>
<!-- O3_0_0 -->
<g id="node23" class="node"><title>O3_0_0</title>
<polygon fill="white" stroke="black" points="1512.5,-955.791 1365.5,-955.791 1365.5,-919.791 1512.5,-919.791 1512.5,-955.791"/>
<text text-anchor="middle" x="1439" y="-934.091" font-family="Times,serif" font-size="14.00">OTHER: medium&#45;low</text>
</g>
<!-- O3_0_0&#45;&gt;E3 -->
<g id="edge10" class="edge"><title>O3_0_0&#45;&gt;E3</title>
<path fill="none" stroke="black" d="M1447.31,-919.363C1453.9,-905.547 1463.32,-885.804 1471.43,-868.789"/>
<polygon fill="black" stroke="black" points="1474.63,-870.205 1475.78,-859.672 1468.32,-867.192 1474.63,-870.205"/>
</g>
<!-- O4_0_0 -->
<g id="node24" class="node"><title>O4_0_0</title>
<polygon fill="white" stroke="black" points="1222,-851.051 1060,-851.051 1060,-815.051 1222,-815.051 1222,-851.051"/>
<text text-anchor="middle" x="1141" y="-829.351" font-family="Times,serif" font-size="14.00">OTHER: until just tender</text>
</g>
<!-- O4_0_0&#45;&gt;E4 -->
<g id="edge12" class="edge"><title>O4_0_0&#45;&gt;E4</title>
<path fill="none" stroke="black" d="M1171.96,-814.854C1200.27,-799.138 1242.63,-775.61 1275.77,-757.205"/>
<polygon fill="black" stroke="black" points="1277.81,-760.075 1284.86,-752.16 1274.41,-753.956 1277.81,-760.075"/>
</g>
<!-- O4_1_0 -->
<g id="node25" class="node"><title>O4_1_0</title>
<polygon fill="white" stroke="black" points="1412,-851.051 1240,-851.051 1240,-815.051 1412,-815.051 1412,-851.051"/>
<text text-anchor="middle" x="1326" y="-829.351" font-family="Times,serif" font-size="14.00">OTHER: about 15 minutes</text>
</g>
<!-- O4_1_0&#45;&gt;E4 -->
<g id="edge13" class="edge"><title>O4_1_0&#45;&gt;E4</title>
<path fill="none" stroke="black" d="M1326,-814.622C1326,-801.158 1326,-782.062 1326,-765.35"/>
<polygon fill="black" stroke="black" points="1329.5,-765.324 1326,-755.324 1322.5,-765.324 1329.5,-765.324"/>
</g>
<!-- O6_0_0 -->
<g id="node26" class="node"><title>O6_0_0</title>
<polygon fill="white" stroke="black" points="1201.5,-641.571 1010.5,-641.571 1010.5,-605.571 1201.5,-605.571 1201.5,-641.571"/>
<text text-anchor="middle" x="1106" y="-619.871" font-family="Times,serif" font-size="14.00">OTHER: to room temperature</text>
</g>
<!-- O6_0_0&#45;&gt;E6 -->
<g id="edge17" class="edge"><title>O6_0_0&#45;&gt;E6</title>
<path fill="none" stroke="black" d="M1109.05,-605.142C1111.41,-591.678 1114.76,-572.582 1117.69,-555.87"/>
<polygon fill="black" stroke="black" points="1121.16,-556.297 1119.44,-545.843 1114.27,-555.089 1121.16,-556.297"/>
</g>
<!-- O7_0_0 -->
<g id="node27" class="node"><title>O7_0_0</title>
<polygon fill="white" stroke="black" points="1040.5,-536.831 899.5,-536.831 899.5,-500.831 1040.5,-500.831 1040.5,-536.831"/>
<text text-anchor="middle" x="970" y="-515.131" font-family="Times,serif" font-size="14.00">OTHER: once cooled</text>
</g>
<!-- O7_0_0&#45;&gt;E7 -->
<g id="edge19" class="edge"><title>O7_0_0&#45;&gt;E7</title>
<path fill="none" stroke="black" d="M974.411,-500.402C977.866,-486.748 982.787,-467.303 987.058,-450.425"/>
<polygon fill="black" stroke="black" points="990.554,-450.875 989.615,-440.322 983.768,-449.158 990.554,-450.875"/>
</g>
<!-- O9_0_0 -->
<g id="node28" class="node"><title>O9_0_0</title>
<polygon fill="white" stroke="black" points="404.5,-851.051 197.5,-851.051 197.5,-815.051 404.5,-815.051 404.5,-851.051"/>
<text text-anchor="middle" x="301" y="-829.351" font-family="Times,serif" font-size="14.00">OTHER: over medium&#45;high heat</text>
</g>
<!-- O9_0_0&#45;&gt;E9 -->
<g id="edge21" class="edge"><title>O9_0_0&#45;&gt;E9</title>
<path fill="none" stroke="black" d="M337.154,-814.854C376.957,-795.922 440.59,-765.655 480.523,-746.661"/>
<polygon fill="black" stroke="black" points="482.118,-749.778 489.645,-742.322 479.111,-743.457 482.118,-749.778"/>
</g>
<!-- O9_1_0 -->
<g id="node29" class="node"><title>O9_1_0</title>
<polygon fill="white" stroke="black" points="611.5,-851.051 422.5,-851.051 422.5,-815.051 611.5,-815.051 611.5,-851.051"/>
<text text-anchor="middle" x="517" y="-829.351" font-family="Times,serif" font-size="14.00">OTHER: turning occasionally</text>
</g>
<!-- O9_1_0&#45;&gt;E9 -->
<g id="edge22" class="edge"><title>O9_1_0&#45;&gt;E9</title>
<path fill="none" stroke="black" d="M517,-814.622C517,-801.158 517,-782.062 517,-765.35"/>
<polygon fill="black" stroke="black" points="520.5,-765.324 517,-755.324 513.5,-765.324 520.5,-765.324"/>
</g>
<!-- O9_2_0 -->
<g id="node30" class="node"><title>O9_2_0</title>
<polygon fill="white" stroke="black" points="826,-851.051 630,-851.051 630,-815.051 826,-815.051 826,-851.051"/>
<text text-anchor="middle" x="728" y="-829.351" font-family="Times,serif" font-size="14.00">OTHER: until evenly browned</text>
</g>
<!-- O9_2_0&#45;&gt;E9 -->
<g id="edge23" class="edge"><title>O9_2_0&#45;&gt;E9</title>
<path fill="none" stroke="black" d="M692.683,-814.854C654.073,-796.054 592.51,-766.078 553.456,-747.062"/>
<polygon fill="black" stroke="black" points="554.562,-743.708 544.039,-742.477 551.498,-750.001 554.562,-743.708"/>
</g>
<!-- O9_3_0 -->
<g id="node31" class="node"><title>O9_3_0</title>
<polygon fill="white" stroke="black" points="1016,-851.051 844,-851.051 844,-815.051 1016,-815.051 1016,-851.051"/>
<text text-anchor="middle" x="930" y="-829.351" font-family="Times,serif" font-size="14.00">OTHER: about 10 minutes</text>
</g>
<!-- O9_3_0&#45;&gt;E9 -->
<g id="edge24" class="edge"><title>O9_3_0&#45;&gt;E9</title>
<path fill="none" stroke="black" d="M869.575,-815.03C858.122,-811.965 846.216,-808.887 835,-806.181 728.149,-780.396 698.997,-784.277 593,-755.181 580.714,-751.808 567.513,-747.546 555.616,-743.459"/>
<polygon fill="black" stroke="black" points="556.573,-740.086 545.978,-740.091 554.263,-746.694 556.573,-740.086"/>
</g>
<!-- P10_1_0 -->
<g id="node32" class="node"><title>P10_1_0</title>
<polygon fill="white" stroke="black" points="838,-746.311 602,-746.311 602,-710.311 838,-710.311 838,-746.311"/>
<text text-anchor="middle" x="720" y="-724.611" font-family="Times,serif" font-size="14.00">LOCATION:a paper towel&#45;lined plate</text>
</g>
<!-- P10_1_0&#45;&gt;E10 -->
<g id="edge27" class="edge"><title>P10_1_0&#45;&gt;E10</title>
<path fill="none" stroke="black" d="M716.572,-710.27C713.225,-697.42 706.984,-680.08 696,-668.441 682.166,-653.782 662.429,-643.483 644.78,-636.566"/>
<polygon fill="black" stroke="black" points="645.835,-633.224 635.241,-633.064 643.423,-639.796 645.835,-633.224"/>
</g>
<!-- P12_0_0 -->
<g id="node33" class="node"><title>P12_0_0</title>
<polygon fill="white" stroke="black" points="853,-536.831 687,-536.831 687,-500.831 853,-500.831 853,-536.831"/>
<text text-anchor="middle" x="770" y="-515.131" font-family="Times,serif" font-size="14.00">LOCATION:a large bowl</text>
</g>
<!-- P12_0_0&#45;&gt;E12 -->
<g id="edge30" class="edge"><title>P12_0_0&#45;&gt;E12</title>
<path fill="none" stroke="black" d="M763.874,-500.739C759.582,-488.941 753.629,-472.926 748,-458.96 746.79,-455.958 745.507,-452.853 744.203,-449.745"/>
<polygon fill="black" stroke="black" points="747.411,-448.345 740.273,-440.515 740.97,-451.087 747.411,-448.345"/>
</g>
<!-- D14_ing -->
<g id="node34" class="node"><title>D14_ing</title>
<polygon fill="peachpuff" stroke="black" points="812.5,-327.35 385.5,-327.35 385.5,-291.35 812.5,-291.35 812.5,-327.35"/>
<text text-anchor="middle" x="599" y="-305.65" font-family="Times,serif" font-size="14.00">DOBJ: the sour cream, cheddar cheese, pepper, chives, mayonnaise, salt</text>
</g>
<!-- D14_ing&#45;&gt;E14 -->
<g id="edge33" class="edge"><title>D14_ing&#45;&gt;E14</title>
<path fill="none" stroke="black" d="M611.553,-290.922C622.113,-276.26 637.482,-254.922 650.208,-237.255"/>
<polygon fill="black" stroke="black" points="653.205,-239.081 656.21,-228.921 647.525,-234.99 653.205,-239.081"/>
</g>
<!-- O15_0_0 -->
<g id="node35" class="node"><title>O15_0_0</title>
<polygon fill="white" stroke="black" points="443,-222.61 315,-222.61 315,-186.61 443,-186.61 443,-222.61"/>
<text text-anchor="middle" x="379" y="-200.91" font-family="Times,serif" font-size="14.00">OTHER: overnight</text>
</g>
<!-- O15_0_0&#45;&gt;E15 -->
<g id="edge36" class="edge"><title>O15_0_0&#45;&gt;E15</title>
<path fill="none" stroke="black" d="M405.78,-186.414C431.015,-170.21 469.178,-145.704 498.2,-127.069"/>
<polygon fill="black" stroke="black" points="500.365,-129.838 506.888,-121.49 496.583,-123.948 500.365,-129.838"/>
</g>
<!-- O15_1_0 -->
<g id="node36" class="node"><title>O15_1_0</title>
<polygon fill="white" stroke="black" points="616.5,-222.61 461.5,-222.61 461.5,-186.61 616.5,-186.61 616.5,-222.61"/>
<text text-anchor="middle" x="539" y="-200.91" font-family="Times,serif" font-size="14.00">OTHER: before serving</text>
</g>
<!-- O15_1_0&#45;&gt;E15 -->
<g id="edge37" class="edge"><title>O15_1_0&#45;&gt;E15</title>
<path fill="none" stroke="black" d="M539,-186.182C539,-172.717 539,-153.621 539,-136.909"/>
<polygon fill="black" stroke="black" points="542.5,-136.883 539,-126.883 535.5,-136.883 542.5,-136.883"/>
</g>
</g>
</svg>
