<?xml version="1.0" encoding="UTF-8" standalone="no"?>
<!DOCTYPE svg PUBLIC "-//W3C//DTD SVG 1.1//EN"
 "http://www.w3.org/Graphics/SVG/1.1/DTD/svg11.dtd">
<!-- Generated by graphviz version 2.38.0 (20140413.2041)
 -->
<!-- Title: recipe Pages: 1 -->
<svg width="1708pt" height="906pt"
 viewBox="0.00 0.00 1708.00 906.00" xmlns="http://www.w3.org/2000/svg" xmlns:xlink="http://www.w3.org/1999/xlink">
<g id="graph0" class="graph" transform="scale(1 1) rotate(0) translate(4 902)">
<title>recipe</title>
<polygon fill="white" stroke="none" points="-4,4 -4,-902 1704,-902 1704,4 -4,4"/>
<!-- E0 -->
<g id="node1" class="node"><title>E0</title>
<ellipse fill="azure" stroke="black" cx="1476.5" cy="-499" rx="66.0889" ry="18"/>
<text text-anchor="middle" x="1476.5" y="-495.3" font-family="Times,serif" font-size="14.00">prehea (S0,P0)</text>
</g>
<!-- E7 -->
<g id="node8" class="node"><title>E7</title>
<ellipse fill="azure" stroke="black" cx="1007.5" cy="-397" rx="59.2899" ry="18"/>
<text text-anchor="middle" x="1007.5" y="-393.3" font-family="Times,serif" font-size="14.00">bake (S3,P7)</text>
</g>
<!-- E0&#45;&gt;E7 -->
<g id="edge16" class="edge"><title>E0&#45;&gt;E7</title>
<path fill="none" stroke="black" d="M1427.31,-486.736C1418.71,-484.8 1409.85,-482.825 1401.5,-481 1282.06,-454.885 1141.92,-425.713 1065.11,-409.85"/>
<polygon fill="black" stroke="black" points="1065.66,-406.389 1055.16,-407.795 1064.25,-413.244 1065.66,-406.389"/>
<text text-anchor="middle" x="1346.5" y="-451.8" font-family="Times,serif" font-size="14.00">OUTPUT: </text>
<text text-anchor="middle" x="1346.5" y="-436.8" font-family="Times,serif" font-size="14.00">INPUT: &#160;</text>
</g>
<!-- E1 -->
<g id="node2" class="node"><title>E1</title>
<ellipse fill="azure" stroke="black" cx="557.5" cy="-601" rx="61.99" ry="18"/>
<text text-anchor="middle" x="557.5" y="-597.3" font-family="Times,serif" font-size="14.00">spray (S0,P1)</text>
</g>
<!-- E6 -->
<g id="node7" class="node"><title>E6</title>
<ellipse fill="azure" stroke="black" cx="666.5" cy="-499" rx="64.189" ry="18"/>
<text text-anchor="middle" x="666.5" y="-495.3" font-family="Times,serif" font-size="14.00">spoon (S2,P6)</text>
</g>
<!-- E1&#45;&gt;E6 -->
<g id="edge14" class="edge"><title>E1&#45;&gt;E6</title>
<path fill="none" stroke="black" d="M551.22,-582.818C547.218,-568.622 544.463,-548.653 554.5,-535 564.443,-521.476 579.588,-513.031 595.557,-507.798"/>
<polygon fill="black" stroke="black" points="596.914,-511.051 605.567,-504.938 594.991,-504.32 596.914,-511.051"/>
<text text-anchor="middle" x="652" y="-553.8" font-family="Times,serif" font-size="14.00">OUTPUT: </text>
<text text-anchor="middle" x="652" y="-538.8" font-family="Times,serif" font-size="14.00">INPUT: into prepared muffin pan</text>
</g>
<!-- E2 -->
<g id="node3" class="node"><title>E2</title>
<ellipse fill="azure" stroke="black" cx="577.5" cy="-805" rx="73.387" ry="18"/>
<text text-anchor="middle" x="577.5" y="-801.3" font-family="Times,serif" font-size="14.00">combine (S1,P2)</text>
</g>
<!-- E4 -->
<g id="node5" class="node"><title>E4</title>
<ellipse fill="azure" stroke="black" cx="735.5" cy="-703" rx="59.5901" ry="18"/>
<text text-anchor="middle" x="735.5" y="-699.3" font-family="Times,serif" font-size="14.00">pour (S2,P4)</text>
</g>
<!-- E2&#45;&gt;E4 -->
<g id="edge10" class="edge"><title>E2&#45;&gt;E4</title>
<path fill="none" stroke="black" d="M602.885,-787.933C629.843,-770.872 672.571,-743.829 702.211,-725.069"/>
<polygon fill="black" stroke="black" points="704.379,-727.839 710.957,-719.533 700.636,-721.924 704.379,-727.839"/>
<text text-anchor="middle" x="764" y="-757.8" font-family="Times,serif" font-size="14.00">OUTPUT: </text>
<text text-anchor="middle" x="764" y="-742.8" font-family="Times,serif" font-size="14.00">INPUT: over dry ingredients</text>
</g>
<!-- E3 -->
<g id="node4" class="node"><title>E3</title>
<ellipse fill="azure" stroke="black" cx="996.5" cy="-805" rx="97.4827" ry="18"/>
<text text-anchor="middle" x="996.5" y="-801.3" font-family="Times,serif" font-size="14.00">whisk together (S2,P3)</text>
</g>
<!-- E3&#45;&gt;E4 -->
<g id="edge9" class="edge"><title>E3&#45;&gt;E4</title>
<path fill="none" stroke="black" d="M963.889,-787.931C934.825,-773.961 890.915,-753.711 851.5,-739 831.185,-731.417 808.421,-724.266 788.476,-718.429"/>
<polygon fill="black" stroke="black" points="789.211,-714.998 778.633,-715.587 787.269,-721.724 789.211,-714.998"/>
<text text-anchor="middle" x="952.5" y="-757.8" font-family="Times,serif" font-size="14.00">OUTPUT: </text>
<text text-anchor="middle" x="952.5" y="-742.8" font-family="Times,serif" font-size="14.00">INPUT: </text>
</g>
<!-- E5 -->
<g id="node6" class="node"><title>E5</title>
<ellipse fill="azure" stroke="black" cx="775.5" cy="-601" rx="53.0913" ry="18"/>
<text text-anchor="middle" x="775.5" y="-597.3" font-family="Times,serif" font-size="14.00">stir (S2,P5)</text>
</g>
<!-- E4&#45;&gt;E5 -->
<g id="edge11" class="edge"><title>E4&#45;&gt;E5</title>
<path fill="none" stroke="black" d="M742.285,-685.036C748.492,-669.521 757.771,-646.323 764.945,-628.388"/>
<polygon fill="black" stroke="black" points="768.217,-629.632 768.681,-619.047 761.718,-627.032 768.217,-629.632"/>
<text text-anchor="middle" x="793.5" y="-655.8" font-family="Times,serif" font-size="14.00">OUTPUT: </text>
<text text-anchor="middle" x="793.5" y="-640.8" font-family="Times,serif" font-size="14.00">INPUT: </text>
</g>
<!-- E5&#45;&gt;E6 -->
<g id="edge13" class="edge"><title>E5&#45;&gt;E6</title>
<path fill="none" stroke="black" d="M773.67,-582.763C771.292,-568.338 765.859,-548.072 753.5,-535 745.455,-526.49 735.062,-519.999 724.277,-515.065"/>
<polygon fill="black" stroke="black" points="725.325,-511.71 714.746,-511.117 722.646,-518.178 725.325,-511.71"/>
<text text-anchor="middle" x="801.5" y="-553.8" font-family="Times,serif" font-size="14.00">OUTPUT: </text>
<text text-anchor="middle" x="801.5" y="-538.8" font-family="Times,serif" font-size="14.00">INPUT: </text>
</g>
<!-- E6&#45;&gt;E7 -->
<g id="edge15" class="edge"><title>E6&#45;&gt;E7</title>
<path fill="none" stroke="black" d="M698.277,-483.295C731.207,-468.599 784.485,-446.325 832.5,-433 878.545,-420.221 891.714,-424.722 938.5,-415 943.505,-413.96 948.698,-412.811 953.887,-411.616"/>
<polygon fill="black" stroke="black" points="954.878,-414.978 963.808,-409.277 953.272,-408.165 954.878,-414.978"/>
<text text-anchor="middle" x="864.5" y="-451.8" font-family="Times,serif" font-size="14.00">OUTPUT: </text>
<text text-anchor="middle" x="864.5" y="-436.8" font-family="Times,serif" font-size="14.00">INPUT: </text>
</g>
<!-- E8 -->
<g id="node9" class="node"><title>E8</title>
<ellipse fill="azure" stroke="black" cx="849.5" cy="-295" rx="68.7879" ry="18"/>
<text text-anchor="middle" x="849.5" y="-291.3" font-family="Times,serif" font-size="14.00">let cool (S3,P8)</text>
</g>
<!-- E7&#45;&gt;E8 -->
<g id="edge19" class="edge"><title>E7&#45;&gt;E8</title>
<path fill="none" stroke="black" d="M983.159,-380.594C956.372,-363.64 913.139,-336.278 883.126,-317.282"/>
<polygon fill="black" stroke="black" points="884.975,-314.31 874.653,-311.92 881.231,-320.225 884.975,-314.31"/>
<text text-anchor="middle" x="984.5" y="-349.8" font-family="Times,serif" font-size="14.00">OUTPUT: </text>
<text text-anchor="middle" x="984.5" y="-334.8" font-family="Times,serif" font-size="14.00">INPUT: </text>
</g>
<!-- E9 -->
<g id="node10" class="node"><title>E9</title>
<ellipse fill="azure" stroke="black" cx="714.5" cy="-193" rx="69.5877" ry="18"/>
<text text-anchor="middle" x="714.5" y="-189.3" font-family="Times,serif" font-size="14.00">transfer (S3,P9)</text>
</g>
<!-- E8&#45;&gt;E9 -->
<g id="edge22" class="edge"><title>E8&#45;&gt;E9</title>
<path fill="none" stroke="black" d="M827.509,-277.711C804.955,-261.004 769.712,-234.897 744.582,-216.283"/>
<polygon fill="black" stroke="black" points="746.6,-213.422 736.481,-210.282 742.433,-219.047 746.6,-213.422"/>
<text text-anchor="middle" x="834.5" y="-247.8" font-family="Times,serif" font-size="14.00">OUTPUT: </text>
<text text-anchor="middle" x="834.5" y="-232.8" font-family="Times,serif" font-size="14.00">INPUT: </text>
</g>
<!-- E10 -->
<g id="node11" class="node"><title>E10</title>
<ellipse fill="azure" stroke="black" cx="714.5" cy="-91" rx="70.6878" ry="18"/>
<text text-anchor="middle" x="714.5" y="-87.3" font-family="Times,serif" font-size="14.00">spread (S4,P10)</text>
</g>
<!-- E9&#45;&gt;E10 -->
<g id="edge24" class="edge"><title>E9&#45;&gt;E10</title>
<path fill="none" stroke="black" d="M714.5,-174.581C714.5,-159.382 714.5,-137.067 714.5,-119.464"/>
<polygon fill="black" stroke="black" points="718,-119.219 714.5,-109.219 711,-119.219 718,-119.219"/>
<text text-anchor="middle" x="773.5" y="-145.8" font-family="Times,serif" font-size="14.00">OUTPUT: </text>
<text text-anchor="middle" x="773.5" y="-130.8" font-family="Times,serif" font-size="14.00">INPUT: each muffin</text>
</g>
<!-- EOR -->
<g id="node26" class="node"><title>EOR</title>
<ellipse fill="plum" stroke="black" cx="714.5" cy="-18" rx="57.3905" ry="18"/>
<text text-anchor="middle" x="714.5" y="-14.3" font-family="Times,serif" font-size="14.00">Bon appetit!</text>
</g>
<!-- E10&#45;&gt;EOR -->
<g id="edge25" class="edge"><title>E10&#45;&gt;EOR</title>
<path fill="none" stroke="black" d="M714.5,-72.8129C714.5,-64.7895 714.5,-55.0475 714.5,-46.0691"/>
<polygon fill="black" stroke="black" points="718,-46.0288 714.5,-36.0288 711,-46.0289 718,-46.0288"/>
</g>
<!-- D1 -->
<g id="node12" class="node"><title>D1</title>
<polygon fill="white" stroke="black" points="460.5,-721 278.5,-721 278.5,-685 460.5,-685 460.5,-721"/>
<text text-anchor="middle" x="369.5" y="-699.3" font-family="Times,serif" font-size="14.00">DOBJ: non&#45;stick muffin pan</text>
</g>
<!-- D1&#45;&gt;E1 -->
<g id="edge1" class="edge"><title>D1&#45;&gt;E1</title>
<path fill="none" stroke="black" d="M401.818,-684.809C434.681,-667.329 485.552,-640.27 520.128,-621.879"/>
<polygon fill="black" stroke="black" points="521.798,-624.955 528.983,-617.169 518.51,-618.775 521.798,-624.955"/>
</g>
<!-- P1_0 -->
<g id="node13" class="node"><title>P1_0</title>
<polygon fill="white" stroke="black" points="650.5,-721 478.5,-721 478.5,-685 650.5,-685 650.5,-721"/>
<text text-anchor="middle" x="564.5" y="-699.3" font-family="Times,serif" font-size="14.00">PREP: with cooking spray</text>
</g>
<!-- P1_0&#45;&gt;E1 -->
<g id="edge2" class="edge"><title>P1_0&#45;&gt;E1</title>
<path fill="none" stroke="black" d="M563.281,-684.581C562.217,-669.382 560.655,-647.067 559.423,-629.464"/>
<polygon fill="black" stroke="black" points="562.895,-628.95 558.705,-619.219 555.912,-629.439 562.895,-628.95"/>
</g>
<!-- D0 -->
<g id="node14" class="node"><title>D0</title>
<polygon fill="white" stroke="black" points="1424.5,-619 1336.5,-619 1336.5,-583 1424.5,-583 1424.5,-619"/>
<text text-anchor="middle" x="1380.5" y="-597.3" font-family="Times,serif" font-size="14.00">DOBJ: oven</text>
</g>
<!-- D0&#45;&gt;E0 -->
<g id="edge3" class="edge"><title>D0&#45;&gt;E0</title>
<path fill="none" stroke="black" d="M1397.22,-582.581C1412.83,-566.325 1436.25,-541.931 1453.59,-523.867"/>
<polygon fill="black" stroke="black" points="1456.21,-526.193 1460.61,-516.555 1451.16,-521.345 1456.21,-526.193"/>
</g>
<!-- O0_0 -->
<g id="node15" class="node"><title>O0_0</title>
<polygon fill="white" stroke="black" points="1700,-619 1443,-619 1443,-583 1700,-583 1700,-619"/>
<text text-anchor="middle" x="1571.5" y="-597.3" font-family="Times,serif" font-size="14.00">OTHER: to 350 degrees f (180 degrees c)</text>
</g>
<!-- O0_0&#45;&gt;E0 -->
<g id="edge4" class="edge"><title>O0_0&#45;&gt;E0</title>
<path fill="none" stroke="black" d="M1554.95,-582.581C1539.51,-566.325 1516.33,-541.931 1499.17,-523.867"/>
<polygon fill="black" stroke="black" points="1501.65,-521.394 1492.23,-516.555 1496.58,-526.216 1501.65,-521.394"/>
</g>
<!-- D3 -->
<g id="node16" class="node"><title>D3</title>
<polygon fill="peachpuff" stroke="black" points="1323,-898 670,-898 670,-860 1323,-860 1323,-898"/>
<text text-anchor="middle" x="996.5" y="-882.8" font-family="Times,serif" font-size="14.00">DOBJ: eggs, vanilla or maple extract, buttermilk, unsweetened applesauce, over&#45;ripe bananas, granulated sugar</text>
<text text-anchor="middle" x="996.5" y="-867.8" font-family="Times,serif" font-size="14.00">(text: bananas, eggs, sugar, applesauce, buttermilk, vanilla)</text>
</g>
<!-- D3&#45;&gt;E3 -->
<g id="edge5" class="edge"><title>D3&#45;&gt;E3</title>
<path fill="none" stroke="black" d="M996.5,-859.831C996.5,-851.894 996.5,-842.409 996.5,-833.628"/>
<polygon fill="black" stroke="black" points="1000,-833.418 996.5,-823.418 993,-833.418 1000,-833.418"/>
</g>
<!-- P3_0 -->
<g id="node17" class="node"><title>P3_0</title>
<polygon fill="white" stroke="black" points="1493.5,-897 1341.5,-897 1341.5,-861 1493.5,-861 1493.5,-897"/>
<text text-anchor="middle" x="1417.5" y="-875.3" font-family="Times,serif" font-size="14.00">PREP: in another bowl</text>
</g>
<!-- P3_0&#45;&gt;E3 -->
<g id="edge6" class="edge"><title>P3_0&#45;&gt;E3</title>
<path fill="none" stroke="black" d="M1341.08,-861.631C1338.19,-861.07 1335.32,-860.524 1332.5,-860 1247,-844.087 1148.74,-828.621 1080.66,-818.349"/>
<polygon fill="black" stroke="black" points="1080.83,-814.835 1070.42,-816.808 1079.79,-821.757 1080.83,-814.835"/>
</g>
<!-- D2 -->
<g id="node18" class="node"><title>D2</title>
<polygon fill="peachpuff" stroke="black" points="485,-898 0,-898 0,-860 485,-860 485,-898"/>
<text text-anchor="middle" x="242.5" y="-882.8" font-family="Times,serif" font-size="14.00">DOBJ: baking powder, quick&#45;cooking rolled oats, all&#45;purpose flour, baking soda</text>
<text text-anchor="middle" x="242.5" y="-867.8" font-family="Times,serif" font-size="14.00">(text: flours, oats, baking powder, baking soda)</text>
</g>
<!-- D2&#45;&gt;E2 -->
<g id="edge7" class="edge"><title>D2&#45;&gt;E2</title>
<path fill="none" stroke="black" d="M326.602,-859.924C384.868,-847.402 461.21,-830.994 514.313,-819.581"/>
<polygon fill="black" stroke="black" points="515.238,-822.962 524.279,-817.438 513.767,-816.118 515.238,-822.962"/>
</g>
<!-- P2_0 -->
<g id="node19" class="node"><title>P2_0</title>
<polygon fill="white" stroke="black" points="652,-897 503,-897 503,-861 652,-861 652,-897"/>
<text text-anchor="middle" x="577.5" y="-875.3" font-family="Times,serif" font-size="14.00">PREP: in a large bowl,</text>
</g>
<!-- P2_0&#45;&gt;E2 -->
<g id="edge8" class="edge"><title>P2_0&#45;&gt;E2</title>
<path fill="none" stroke="black" d="M577.5,-860.937C577.5,-852.807 577.5,-842.876 577.5,-833.705"/>
<polygon fill="black" stroke="black" points="581,-833.441 577.5,-823.441 574,-833.441 581,-833.441"/>
</g>
<!-- O5_0_0 -->
<g id="node20" class="node"><title>O5_0_0</title>
<polygon fill="white" stroke="black" points="996,-721 813,-721 813,-685 996,-685 996,-721"/>
<text text-anchor="middle" x="904.5" y="-699.3" font-family="Times,serif" font-size="14.00">OTHER: until just combined</text>
</g>
<!-- O5_0_0&#45;&gt;E5 -->
<g id="edge12" class="edge"><title>O5_0_0&#45;&gt;E5</title>
<path fill="none" stroke="black" d="M886.3,-684.96C871.471,-671.392 849.747,-652.219 829.5,-637 822.97,-632.091 815.764,-627.131 808.802,-622.549"/>
<polygon fill="black" stroke="black" points="810.481,-619.467 800.182,-616.981 806.682,-625.347 810.481,-619.467"/>
</g>
<!-- O7_0_0 -->
<g id="node21" class="node"><title>O7_0_0</title>
<polygon fill="white" stroke="black" points="934.5,-517 748.5,-517 748.5,-481 934.5,-481 934.5,-517"/>
<text text-anchor="middle" x="841.5" y="-495.3" font-family="Times,serif" font-size="14.00">OTHER: or 20 to 25 minutes</text>
</g>
<!-- O7_0_0&#45;&gt;E7 -->
<g id="edge17" class="edge"><title>O7_0_0&#45;&gt;E7</title>
<path fill="none" stroke="black" d="M870.036,-480.809C898.722,-463.529 942.948,-436.887 973.45,-418.512"/>
<polygon fill="black" stroke="black" points="975.294,-421.487 982.054,-413.329 971.682,-415.491 975.294,-421.487"/>
</g>
<!-- O7_1_0 -->
<g id="node22" class="node"><title>O7_1_0</title>
<polygon fill="white" stroke="black" points="1392.5,-517 952.5,-517 952.5,-481 1392.5,-481 1392.5,-517"/>
<text text-anchor="middle" x="1172.5" y="-495.3" font-family="Times,serif" font-size="14.00">OTHER: until a tester inserted into the center of a muffin comes out clean</text>
</g>
<!-- O7_1_0&#45;&gt;E7 -->
<g id="edge18" class="edge"><title>O7_1_0&#45;&gt;E7</title>
<path fill="none" stroke="black" d="M1144.14,-480.809C1115.74,-463.603 1072.04,-437.115 1041.74,-418.749"/>
<polygon fill="black" stroke="black" points="1043.16,-415.519 1032.79,-413.329 1039.53,-421.505 1043.16,-415.519"/>
</g>
<!-- P8_0_0 -->
<g id="node23" class="node"><title>P8_0_0</title>
<polygon fill="white" stroke="black" points="751,-415 656,-415 656,-379 751,-379 751,-415"/>
<text text-anchor="middle" x="703.5" y="-393.3" font-family="Times,serif" font-size="14.00">PREP: in pan</text>
</g>
<!-- P8_0_0&#45;&gt;E8 -->
<g id="edge20" class="edge"><title>P8_0_0&#45;&gt;E8</title>
<path fill="none" stroke="black" d="M728.598,-378.809C753.317,-361.879 791.156,-335.962 817.908,-317.638"/>
<polygon fill="black" stroke="black" points="819.902,-320.515 826.174,-311.977 815.946,-314.74 819.902,-320.515"/>
</g>
<!-- O8_0_0 -->
<g id="node24" class="node"><title>O8_0_0</title>
<polygon fill="white" stroke="black" points="930,-415 769,-415 769,-379 930,-379 930,-415"/>
<text text-anchor="middle" x="849.5" y="-393.3" font-family="Times,serif" font-size="14.00">OTHER: for 10 minutes.</text>
</g>
<!-- O8_0_0&#45;&gt;E8 -->
<g id="edge21" class="edge"><title>O8_0_0&#45;&gt;E8</title>
<path fill="none" stroke="black" d="M849.5,-378.581C849.5,-363.382 849.5,-341.067 849.5,-323.464"/>
<polygon fill="black" stroke="black" points="853,-323.219 849.5,-313.219 846,-323.219 853,-323.219"/>
</g>
<!-- P9_0_0 -->
<g id="node25" class="node"><title>P9_0_0</title>
<polygon fill="white" stroke="black" points="763,-313 554,-313 554,-277 763,-277 763,-313"/>
<text text-anchor="middle" x="658.5" y="-291.3" font-family="Times,serif" font-size="14.00">PREP: to rack to cool completely</text>
</g>
<!-- P9_0_0&#45;&gt;E9 -->
<g id="edge23" class="edge"><title>P9_0_0&#45;&gt;E9</title>
<path fill="none" stroke="black" d="M668.254,-276.581C677.061,-260.856 690.131,-237.516 700.133,-219.656"/>
<polygon fill="black" stroke="black" points="703.212,-221.321 705.044,-210.886 697.104,-217.901 703.212,-221.321"/>
</g>
</g>
</svg>
