<?xml version="1.0" encoding="UTF-8" standalone="no"?>
<!DOCTYPE svg PUBLIC "-//W3C//DTD SVG 1.1//EN"
 "http://www.w3.org/Graphics/SVG/1.1/DTD/svg11.dtd">
<!-- Generated by graphviz version 2.38.0 (20140413.2041)
 -->
<!-- Title: recipe Pages: 1 -->
<svg width="1453pt" height="941pt"
 viewBox="0.00 0.00 1453.00 940.92" xmlns="http://www.w3.org/2000/svg" xmlns:xlink="http://www.w3.org/1999/xlink">
<g id="graph0" class="graph" transform="scale(1 1) rotate(0) translate(4 936.921)">
<title>recipe</title>
<polygon fill="white" stroke="none" points="-4,4 -4,-936.921 1449,-936.921 1449,4 -4,4"/>
<!-- E0 -->
<g id="node1" class="node"><title>E0</title>
<ellipse fill="azure" stroke="black" cx="1221.5" cy="-518.831" rx="38.7821" ry="26.7407"/>
<text text-anchor="middle" x="1221.5" y="-522.631" font-family="Times,serif" font-size="14.00">prehea</text>
<text text-anchor="middle" x="1221.5" y="-507.631" font-family="Times,serif" font-size="14.00">0</text>
</g>
<!-- E7 -->
<g id="node8" class="node"><title>E7</title>
<ellipse fill="azure" stroke="black" cx="779.5" cy="-414.09" rx="31.2258" ry="26.7407"/>
<text text-anchor="middle" x="779.5" y="-417.89" font-family="Times,serif" font-size="14.00">bake</text>
<text text-anchor="middle" x="779.5" y="-402.89" font-family="Times,serif" font-size="14.00">7</text>
</g>
<!-- E0&#45;&gt;E7 -->
<g id="edge16" class="edge"><title>E0&#45;&gt;E7</title>
<path fill="none" stroke="black" d="M1192.7,-500.506C1186.52,-497.307 1179.92,-494.256 1173.5,-491.96 1049.35,-447.553 893.506,-426.798 820.625,-418.99"/>
<polygon fill="black" stroke="black" points="820.797,-415.489 810.488,-417.931 820.07,-422.451 820.797,-415.489"/>
<text text-anchor="middle" x="1161" y="-462.76" font-family="Times,serif" font-size="14.00">IMPLICIT PREP</text>
</g>
<!-- E1 -->
<g id="node2" class="node"><title>E1</title>
<ellipse fill="azure" stroke="black" cx="343.5" cy="-623.571" rx="33.8824" ry="26.7407"/>
<text text-anchor="middle" x="343.5" y="-627.371" font-family="Times,serif" font-size="14.00">spray</text>
<text text-anchor="middle" x="343.5" y="-612.371" font-family="Times,serif" font-size="14.00">1</text>
</g>
<!-- E6 -->
<g id="node7" class="node"><title>E6</title>
<ellipse fill="azure" stroke="black" cx="465.5" cy="-518.831" rx="36.5405" ry="26.7407"/>
<text text-anchor="middle" x="465.5" y="-522.631" font-family="Times,serif" font-size="14.00">spoon</text>
<text text-anchor="middle" x="465.5" y="-507.631" font-family="Times,serif" font-size="14.00">6</text>
</g>
<!-- E1&#45;&gt;E6 -->
<g id="edge14" class="edge"><title>E1&#45;&gt;E6</title>
<path fill="none" stroke="black" d="M337.805,-596.785C336.807,-585.674 337.789,-573.102 344.5,-563.701 361.48,-539.914 392.694,-528.982 419.164,-523.978"/>
<polygon fill="black" stroke="black" points="419.748,-527.429 429.038,-522.336 418.599,-520.524 419.748,-527.429"/>
<text text-anchor="middle" x="455.5" y="-567.501" font-family="Times,serif" font-size="14.00">COOBJECT:into prepared muffin pan</text>
</g>
<!-- E2 -->
<g id="node3" class="node"><title>E2</title>
<ellipse fill="azure" stroke="black" cx="403.5" cy="-833.051" rx="46.8387" ry="26.7407"/>
<text text-anchor="middle" x="403.5" y="-836.851" font-family="Times,serif" font-size="14.00">combine</text>
<text text-anchor="middle" x="403.5" y="-821.851" font-family="Times,serif" font-size="14.00">2</text>
</g>
<!-- E4 -->
<g id="node5" class="node"><title>E4</title>
<ellipse fill="azure" stroke="black" cx="530.5" cy="-728.311" rx="31.2258" ry="26.7407"/>
<text text-anchor="middle" x="530.5" y="-732.111" font-family="Times,serif" font-size="14.00">pour</text>
<text text-anchor="middle" x="530.5" y="-717.111" font-family="Times,serif" font-size="14.00">4</text>
</g>
<!-- E2&#45;&gt;E4 -->
<g id="edge10" class="edge"><title>E2&#45;&gt;E4</title>
<path fill="none" stroke="black" d="M422.608,-808.198C432.361,-796.849 444.824,-783.533 457.5,-773.181 469.019,-763.773 482.756,-754.986 495.19,-747.783"/>
<polygon fill="black" stroke="black" points="496.974,-750.796 503.963,-742.833 493.534,-744.699 496.974,-750.796"/>
<text text-anchor="middle" x="554.5" y="-776.981" font-family="Times,serif" font-size="14.00">COOBJECT:over dry ingredients</text>
</g>
<!-- E3 -->
<g id="node4" class="node"><title>E3</title>
<ellipse fill="azure" stroke="black" cx="690.5" cy="-833.051" rx="72.6644" ry="26.7407"/>
<text text-anchor="middle" x="690.5" y="-836.851" font-family="Times,serif" font-size="14.00">whisk together</text>
<text text-anchor="middle" x="690.5" y="-821.851" font-family="Times,serif" font-size="14.00">3</text>
</g>
<!-- E3&#45;&gt;E4 -->
<g id="edge9" class="edge"><title>E3&#45;&gt;E4</title>
<path fill="none" stroke="black" d="M679.103,-806.331C672.628,-794.54 663.411,-781.391 651.5,-773.181 621.493,-752.497 605.179,-769.107 571.5,-755.181 568.637,-753.997 565.749,-752.618 562.904,-751.126"/>
<polygon fill="black" stroke="black" points="564.458,-747.983 554.038,-746.069 560.99,-754.064 564.458,-747.983"/>
<text text-anchor="middle" x="717.5" y="-776.981" font-family="Times,serif" font-size="14.00">IMPLICIT DOBJ</text>
</g>
<!-- E5 -->
<g id="node6" class="node"><title>E5</title>
<ellipse fill="azure" stroke="black" cx="588.5" cy="-623.571" rx="27" ry="26.7407"/>
<text text-anchor="middle" x="588.5" y="-627.371" font-family="Times,serif" font-size="14.00">stir</text>
<text text-anchor="middle" x="588.5" y="-612.371" font-family="Times,serif" font-size="14.00">5</text>
</g>
<!-- E4&#45;&gt;E5 -->
<g id="edge11" class="edge"><title>E4&#45;&gt;E5</title>
<path fill="none" stroke="black" d="M539.548,-702.321C543.823,-691.603 549.341,-679.117 555.5,-668.441 558.49,-663.258 561.998,-657.979 565.59,-652.962"/>
<polygon fill="black" stroke="black" points="568.479,-654.943 571.639,-644.831 562.862,-650.765 568.479,-654.943"/>
<text text-anchor="middle" x="606.5" y="-672.241" font-family="Times,serif" font-size="14.00">IMPLICIT DOBJ</text>
</g>
<!-- E5&#45;&gt;E6 -->
<g id="edge13" class="edge"><title>E5&#45;&gt;E6</title>
<path fill="none" stroke="black" d="M584.152,-596.87C581.006,-585.372 575.633,-572.463 566.5,-563.701 547.941,-545.893 535.044,-556.054 511.5,-545.701 508.481,-544.373 505.401,-542.907 502.337,-541.368"/>
<polygon fill="black" stroke="black" points="503.751,-538.157 493.272,-536.597 500.491,-544.351 503.751,-538.157"/>
<text text-anchor="middle" x="627.5" y="-567.501" font-family="Times,serif" font-size="14.00">IMPLICIT DOBJ</text>
</g>
<!-- E6&#45;&gt;E7 -->
<g id="edge15" class="edge"><title>E6&#45;&gt;E7</title>
<path fill="none" stroke="black" d="M494.037,-501.364C499.779,-498.169 505.801,-494.902 511.5,-491.96 542.065,-476.187 548.416,-468.366 581.5,-458.96 649.483,-439.634 672.959,-464.781 739.5,-440.96 742.201,-439.994 744.904,-438.814 747.56,-437.496"/>
<polygon fill="black" stroke="black" points="749.307,-440.529 756.331,-432.598 745.894,-434.418 749.307,-440.529"/>
<text text-anchor="middle" x="632.5" y="-462.76" font-family="Times,serif" font-size="14.00">IMPLICIT DOBJ</text>
</g>
<!-- E8 -->
<g id="node9" class="node"><title>E8</title>
<ellipse fill="azure" stroke="black" cx="649.5" cy="-309.35" rx="41.9398" ry="26.7407"/>
<text text-anchor="middle" x="649.5" y="-313.15" font-family="Times,serif" font-size="14.00">let cool</text>
<text text-anchor="middle" x="649.5" y="-298.15" font-family="Times,serif" font-size="14.00">8</text>
</g>
<!-- E7&#45;&gt;E8 -->
<g id="edge19" class="edge"><title>E7&#45;&gt;E8</title>
<path fill="none" stroke="black" d="M756.856,-395.194C736.553,-379.149 706.485,-355.386 683.33,-337.087"/>
<polygon fill="black" stroke="black" points="685.472,-334.318 675.456,-330.864 681.132,-339.81 685.472,-334.318"/>
<text text-anchor="middle" x="772.5" y="-358.02" font-family="Times,serif" font-size="14.00">IMPLICIT DOBJ</text>
</g>
<!-- E9 -->
<g id="node10" class="node"><title>E9</title>
<ellipse fill="azure" stroke="black" cx="500.5" cy="-204.61" rx="42.3529" ry="26.7407"/>
<text text-anchor="middle" x="500.5" y="-208.41" font-family="Times,serif" font-size="14.00">transfer</text>
<text text-anchor="middle" x="500.5" y="-193.41" font-family="Times,serif" font-size="14.00">9</text>
</g>
<!-- E8&#45;&gt;E9 -->
<g id="edge22" class="edge"><title>E8&#45;&gt;E9</title>
<path fill="none" stroke="black" d="M621.474,-289.026C597.617,-272.575 563.172,-248.825 537.134,-230.87"/>
<polygon fill="black" stroke="black" points="538.872,-227.818 528.653,-225.023 534.899,-233.581 538.872,-227.818"/>
<text text-anchor="middle" x="634.5" y="-253.28" font-family="Times,serif" font-size="14.00">IMPLICIT DOBJ</text>
</g>
<!-- E10 -->
<g id="node11" class="node"><title>E10</title>
<ellipse fill="azure" stroke="black" cx="345.5" cy="-99.8701" rx="38.3684" ry="26.7407"/>
<text text-anchor="middle" x="345.5" y="-103.67" font-family="Times,serif" font-size="14.00">spread</text>
<text text-anchor="middle" x="345.5" y="-88.6701" font-family="Times,serif" font-size="14.00">10</text>
</g>
<!-- E9&#45;&gt;E10 -->
<g id="edge25" class="edge"><title>E9&#45;&gt;E10</title>
<path fill="none" stroke="black" d="M471.709,-184.526C446.113,-167.561 408.597,-142.693 381.12,-124.48"/>
<polygon fill="black" stroke="black" points="382.848,-121.427 372.579,-118.819 378.981,-127.262 382.848,-121.427"/>
<text text-anchor="middle" x="467" y="-148.54" font-family="Times,serif" font-size="14.00">each muffin</text>
</g>
<!-- EOR -->
<g id="node28" class="node"><title>EOR</title>
<ellipse fill="plum" stroke="black" cx="345.5" cy="-18" rx="57.3905" ry="18"/>
<text text-anchor="middle" x="345.5" y="-14.3" font-family="Times,serif" font-size="14.00">Bon appetit!</text>
</g>
<!-- E10&#45;&gt;EOR -->
<g id="edge27" class="edge"><title>E10&#45;&gt;EOR</title>
<path fill="none" stroke="black" d="M345.5,-72.7176C345.5,-64.2726 345.5,-54.8903 345.5,-46.3604"/>
<polygon fill="black" stroke="black" points="349,-46.1464 345.5,-36.1464 342,-46.1464 349,-46.1464"/>
</g>
<!-- D3 -->
<g id="node12" class="node"><title>D3</title>
<polygon fill="peachpuff" stroke="black" points="868.5,-932.921 512.5,-932.921 512.5,-896.921 868.5,-896.921 868.5,-932.921"/>
<text text-anchor="middle" x="690.5" y="-911.221" font-family="Times,serif" font-size="14.00">DOBJ: eggs, bananas, buttermilk, applesauce, vanilla, sugar</text>
</g>
<!-- D3&#45;&gt;E3 -->
<g id="edge1" class="edge"><title>D3&#45;&gt;E3</title>
<path fill="none" stroke="black" d="M690.5,-896.59C690.5,-888.857 690.5,-879.437 690.5,-870.279"/>
<polygon fill="black" stroke="black" points="694,-870.155 690.5,-860.155 687,-870.155 694,-870.155"/>
</g>
<!-- P3_0 -->
<g id="node13" class="node"><title>P3_0</title>
<polygon fill="white" stroke="black" points="1072.5,-932.921 886.5,-932.921 886.5,-896.921 1072.5,-896.921 1072.5,-932.921"/>
<text text-anchor="middle" x="979.5" y="-911.221" font-family="Times,serif" font-size="14.00">LOCATION:in another bowl</text>
</g>
<!-- P3_0&#45;&gt;E3 -->
<g id="edge2" class="edge"><title>P3_0&#45;&gt;E3</title>
<path fill="none" stroke="black" d="M917.857,-896.885C870.71,-883.855 805.788,-865.913 757.387,-852.536"/>
<polygon fill="black" stroke="black" points="758.201,-849.13 747.629,-849.84 756.336,-855.877 758.201,-849.13"/>
</g>
<!-- D0 -->
<g id="node14" class="node"><title>D0</title>
<polygon fill="white" stroke="black" points="1169.5,-641.571 1081.5,-641.571 1081.5,-605.571 1169.5,-605.571 1169.5,-641.571"/>
<text text-anchor="middle" x="1125.5" y="-619.871" font-family="Times,serif" font-size="14.00">DOBJ: oven</text>
</g>
<!-- D0&#45;&gt;E0 -->
<g id="edge3" class="edge"><title>D0&#45;&gt;E0</title>
<path fill="none" stroke="black" d="M1141.79,-605.142C1156.01,-589.914 1176.97,-567.482 1193.83,-549.442"/>
<polygon fill="black" stroke="black" points="1196.5,-551.709 1200.77,-542.013 1191.39,-546.93 1196.5,-551.709"/>
</g>
<!-- O0_0 -->
<g id="node15" class="node"><title>O0_0</title>
<polygon fill="white" stroke="black" points="1445,-641.571 1188,-641.571 1188,-605.571 1445,-605.571 1445,-641.571"/>
<text text-anchor="middle" x="1316.5" y="-619.871" font-family="Times,serif" font-size="14.00">OTHER: to 350 degrees f (180 degrees c)</text>
</g>
<!-- O0_0&#45;&gt;E0 -->
<g id="edge4" class="edge"><title>O0_0&#45;&gt;E0</title>
<path fill="none" stroke="black" d="M1300.38,-605.142C1286.3,-589.914 1265.56,-567.482 1248.88,-549.442"/>
<polygon fill="black" stroke="black" points="1251.37,-546.979 1242.01,-542.013 1246.23,-551.731 1251.37,-546.979"/>
</g>
<!-- D2 -->
<g id="node16" class="node"><title>D2</title>
<polygon fill="peachpuff" stroke="black" points="295,-932.921 0,-932.921 0,-896.921 295,-896.921 295,-932.921"/>
<text text-anchor="middle" x="147.5" y="-911.221" font-family="Times,serif" font-size="14.00">DOBJ: baking powder, flours, oats, baking soda</text>
</g>
<!-- D2&#45;&gt;E2 -->
<g id="edge5" class="edge"><title>D2&#45;&gt;E2</title>
<path fill="none" stroke="black" d="M202.104,-896.885C246.789,-882.944 309.497,-863.379 353.021,-849.8"/>
<polygon fill="black" stroke="black" points="354.322,-853.061 362.826,-846.741 352.237,-846.378 354.322,-853.061"/>
</g>
<!-- P2_0 -->
<g id="node17" class="node"><title>P2_0</title>
<polygon fill="white" stroke="black" points="494,-932.921 313,-932.921 313,-896.921 494,-896.921 494,-932.921"/>
<text text-anchor="middle" x="403.5" y="-911.221" font-family="Times,serif" font-size="14.00">LOCATION:in a large bowl</text>
</g>
<!-- P2_0&#45;&gt;E2 -->
<g id="edge6" class="edge"><title>P2_0&#45;&gt;E2</title>
<path fill="none" stroke="black" d="M403.5,-896.59C403.5,-888.857 403.5,-879.437 403.5,-870.279"/>
<polygon fill="black" stroke="black" points="407,-870.155 403.5,-860.155 400,-870.155 407,-870.155"/>
</g>
<!-- D1 -->
<g id="node18" class="node"><title>D1</title>
<polygon fill="white" stroke="black" points="240.5,-746.311 58.5,-746.311 58.5,-710.311 240.5,-710.311 240.5,-746.311"/>
<text text-anchor="middle" x="149.5" y="-724.611" font-family="Times,serif" font-size="14.00">DOBJ: non&#45;stick muffin pan</text>
</g>
<!-- D1&#45;&gt;E1 -->
<g id="edge7" class="edge"><title>D1&#45;&gt;E1</title>
<path fill="none" stroke="black" d="M181.971,-710.114C216.33,-691.918 270.458,-663.253 306.458,-644.188"/>
<polygon fill="black" stroke="black" points="308.448,-647.094 315.647,-639.321 305.172,-640.908 308.448,-647.094"/>
</g>
<!-- P1_0 -->
<g id="node19" class="node"><title>P1_0</title>
<polygon fill="peachpuff" stroke="black" points="464.5,-746.311 258.5,-746.311 258.5,-710.311 464.5,-710.311 464.5,-746.311"/>
<text text-anchor="middle" x="361.5" y="-724.611" font-family="Times,serif" font-size="14.00">COOBJECT:with cooking spray</text>
</g>
<!-- P1_0&#45;&gt;E1 -->
<g id="edge8" class="edge"><title>P1_0&#45;&gt;E1</title>
<path fill="none" stroke="black" d="M358.447,-709.882C356.088,-696.418 352.742,-677.322 349.814,-660.61"/>
<polygon fill="black" stroke="black" points="353.231,-659.829 348.057,-650.583 346.336,-661.037 353.231,-659.829"/>
</g>
<!-- O5_0_0 -->
<g id="node20" class="node"><title>O5_0_0</title>
<polygon fill="white" stroke="black" points="763,-746.311 580,-746.311 580,-710.311 763,-710.311 763,-746.311"/>
<text text-anchor="middle" x="671.5" y="-724.611" font-family="Times,serif" font-size="14.00">OTHER: until just combined</text>
</g>
<!-- O5_0_0&#45;&gt;E5 -->
<g id="edge12" class="edge"><title>O5_0_0&#45;&gt;E5</title>
<path fill="none" stroke="black" d="M670.82,-710.178C669.563,-697.612 666.216,-680.676 657.5,-668.441 648.685,-656.067 635.181,-646.372 622.45,-639.278"/>
<polygon fill="black" stroke="black" points="623.881,-636.077 613.393,-634.572 620.653,-642.289 623.881,-636.077"/>
</g>
<!-- O7_0_0 -->
<g id="node21" class="node"><title>O7_0_0</title>
<polygon fill="white" stroke="black" points="706.5,-536.831 520.5,-536.831 520.5,-500.831 706.5,-500.831 706.5,-536.831"/>
<text text-anchor="middle" x="613.5" y="-515.131" font-family="Times,serif" font-size="14.00">OTHER: or 20 to 25 minutes</text>
</g>
<!-- O7_0_0&#45;&gt;E7 -->
<g id="edge17" class="edge"><title>O7_0_0&#45;&gt;E7</title>
<path fill="none" stroke="black" d="M641.905,-500.793C667.528,-485.354 706.194,-461.885 739.5,-440.96 741.706,-439.575 743.975,-438.138 746.257,-436.684"/>
<polygon fill="black" stroke="black" points="748.497,-439.406 755.027,-431.063 744.719,-433.513 748.497,-439.406"/>
</g>
<!-- O7_1_0 -->
<g id="node22" class="node"><title>O7_1_0</title>
<polygon fill="white" stroke="black" points="1164.5,-536.831 724.5,-536.831 724.5,-500.831 1164.5,-500.831 1164.5,-536.831"/>
<text text-anchor="middle" x="944.5" y="-515.131" font-family="Times,serif" font-size="14.00">OTHER: until a tester inserted into the center of a muffin comes out clean</text>
</g>
<!-- O7_1_0&#45;&gt;E7 -->
<g id="edge18" class="edge"><title>O7_1_0&#45;&gt;E7</title>
<path fill="none" stroke="black" d="M916.883,-500.634C888.243,-482.801 843.453,-454.912 812.855,-435.859"/>
<polygon fill="black" stroke="black" points="814.577,-432.808 804.238,-430.494 810.877,-438.751 814.577,-432.808"/>
</g>
<!-- P8_0_0 -->
<g id="node23" class="node"><title>P8_0_0</title>
<polygon fill="white" stroke="black" points="550.5,-432.09 420.5,-432.09 420.5,-396.09 550.5,-396.09 550.5,-432.09"/>
<text text-anchor="middle" x="485.5" y="-410.39" font-family="Times,serif" font-size="14.00">LOCATION:in pan</text>
</g>
<!-- P8_0_0&#45;&gt;E8 -->
<g id="edge20" class="edge"><title>P8_0_0&#45;&gt;E8</title>
<path fill="none" stroke="black" d="M512.95,-395.894C540.006,-378.945 581.561,-352.911 611.725,-334.015"/>
<polygon fill="black" stroke="black" points="613.683,-336.918 620.3,-328.643 609.967,-330.986 613.683,-336.918"/>
</g>
<!-- O8_0_0 -->
<g id="node24" class="node"><title>O8_0_0</title>
<polygon fill="white" stroke="black" points="730,-432.09 569,-432.09 569,-396.09 730,-396.09 730,-432.09"/>
<text text-anchor="middle" x="649.5" y="-410.39" font-family="Times,serif" font-size="14.00">OTHER: for 10 minutes.</text>
</g>
<!-- O8_0_0&#45;&gt;E8 -->
<g id="edge21" class="edge"><title>O8_0_0&#45;&gt;E8</title>
<path fill="none" stroke="black" d="M649.5,-395.662C649.5,-382.197 649.5,-363.102 649.5,-346.389"/>
<polygon fill="black" stroke="black" points="653,-346.363 649.5,-336.363 646,-346.363 653,-346.363"/>
</g>
<!-- P9_0_0 -->
<g id="node25" class="node"><title>P9_0_0</title>
<polygon fill="white" stroke="black" points="392.5,-327.35 258.5,-327.35 258.5,-291.35 392.5,-291.35 392.5,-327.35"/>
<text text-anchor="middle" x="325.5" y="-305.65" font-family="Times,serif" font-size="14.00">LOCATION:to rack</text>
</g>
<!-- P9_0_0&#45;&gt;E9 -->
<g id="edge23" class="edge"><title>P9_0_0&#45;&gt;E9</title>
<path fill="none" stroke="black" d="M354.791,-291.154C383.963,-274.027 428.933,-247.626 461.197,-228.685"/>
<polygon fill="black" stroke="black" points="463.084,-231.635 469.936,-223.554 459.54,-225.598 463.084,-231.635"/>
</g>
<!-- O9_0_0 -->
<g id="node26" class="node"><title>O9_0_0</title>
<polygon fill="white" stroke="black" points="590,-327.35 411,-327.35 411,-291.35 590,-291.35 590,-327.35"/>
<text text-anchor="middle" x="500.5" y="-305.65" font-family="Times,serif" font-size="14.00">OTHER: to cool completely</text>
</g>
<!-- O9_0_0&#45;&gt;E9 -->
<g id="edge24" class="edge"><title>O9_0_0&#45;&gt;E9</title>
<path fill="none" stroke="black" d="M500.5,-290.922C500.5,-277.457 500.5,-258.362 500.5,-241.649"/>
<polygon fill="black" stroke="black" points="504,-241.623 500.5,-231.623 497,-241.623 504,-241.623"/>
</g>
<!-- P10_0_0 -->
<g id="node27" class="node"><title>P10_0_0</title>
<polygon fill="white" stroke="black" points="440.5,-222.61 126.5,-222.61 126.5,-186.61 440.5,-186.61 440.5,-222.61"/>
<text text-anchor="middle" x="283.5" y="-200.91" font-family="Times,serif" font-size="14.00">COOBJECT:with 1 tablespoon (15 ml) of nutella¾.</text>
</g>
<!-- P10_0_0&#45;&gt;E10 -->
<g id="edge26" class="edge"><title>P10_0_0&#45;&gt;E10</title>
<path fill="none" stroke="black" d="M294.017,-186.182C302.667,-171.849 315.167,-151.134 325.684,-133.707"/>
<polygon fill="black" stroke="black" points="328.802,-135.314 330.972,-124.944 322.809,-131.697 328.802,-135.314"/>
</g>
</g>
</svg>
