<?xml version="1.0" encoding="UTF-8" standalone="no"?>
<!DOCTYPE svg PUBLIC "-//W3C//DTD SVG 1.1//EN"
 "http://www.w3.org/Graphics/SVG/1.1/DTD/svg11.dtd">
<!-- Generated by graphviz version 2.38.0 (20140413.2041)
 -->
<!-- Title: recipe Pages: 1 -->
<svg width="893pt" height="522pt"
 viewBox="0.00 0.00 893.00 521.96" xmlns="http://www.w3.org/2000/svg" xmlns:xlink="http://www.w3.org/1999/xlink">
<g id="graph0" class="graph" transform="scale(1 1) rotate(0) translate(4 517.96)">
<title>recipe</title>
<polygon fill="white" stroke="none" points="-4,4 -4,-517.96 889,-517.96 889,4 -4,4"/>
<!-- E0 -->
<g id="node1" class="node"><title>E0</title>
<ellipse fill="azure" stroke="black" cx="802" cy="-414.09" rx="42.3529" ry="26.7407"/>
<text text-anchor="middle" x="802" y="-417.89" font-family="Times,serif" font-size="14.00">prepare</text>
<text text-anchor="middle" x="802" y="-402.89" font-family="Times,serif" font-size="14.00">0</text>
</g>
<!-- E1 -->
<g id="node2" class="node"><title>E1</title>
<ellipse fill="azure" stroke="black" cx="564" cy="-309.35" rx="35.2113" ry="26.7407"/>
<text text-anchor="middle" x="564" y="-313.15" font-family="Times,serif" font-size="14.00">stir in</text>
<text text-anchor="middle" x="564" y="-298.15" font-family="Times,serif" font-size="14.00">1</text>
</g>
<!-- E0&#45;&gt;E1 -->
<g id="edge5" class="edge"><title>E0&#45;&gt;E1</title>
<path fill="none" stroke="black" d="M769.813,-396.277C763.613,-393.177 757.137,-390.033 751,-387.22 701.35,-364.466 642.973,-340.975 604.819,-326.048"/>
<polygon fill="black" stroke="black" points="605.685,-322.629 595.096,-322.258 603.142,-329.151 605.685,-322.629"/>
<text text-anchor="middle" x="755.5" y="-358.02" font-family="Times,serif" font-size="14.00">IMPLICIT PREP</text>
</g>
<!-- E3 -->
<g id="node4" class="node"><title>E3</title>
<ellipse fill="azure" stroke="black" cx="438" cy="-204.61" rx="27.6545" ry="26.7407"/>
<text text-anchor="middle" x="438" y="-208.41" font-family="Times,serif" font-size="14.00">mix</text>
<text text-anchor="middle" x="438" y="-193.41" font-family="Times,serif" font-size="14.00">3</text>
</g>
<!-- E1&#45;&gt;E3 -->
<g id="edge7" class="edge"><title>E1&#45;&gt;E3</title>
<path fill="none" stroke="black" d="M540.3,-289.026C519.349,-271.942 488.741,-246.984 466.468,-228.823"/>
<polygon fill="black" stroke="black" points="468.634,-226.073 458.672,-222.466 464.21,-231.498 468.634,-226.073"/>
<text text-anchor="middle" x="626" y="-253.28" font-family="Times,serif" font-size="14.00">LOCATION:into mashed potato mixture</text>
</g>
<!-- E2 -->
<g id="node3" class="node"><title>E2</title>
<ellipse fill="azure" stroke="black" cx="269" cy="-309.35" rx="46.8387" ry="26.7407"/>
<text text-anchor="middle" x="269" y="-313.15" font-family="Times,serif" font-size="14.00">combine</text>
<text text-anchor="middle" x="269" y="-298.15" font-family="Times,serif" font-size="14.00">2</text>
</g>
<!-- E2&#45;&gt;E3 -->
<g id="edge6" class="edge"><title>E2&#45;&gt;E3</title>
<path fill="none" stroke="black" d="M302,-290.137C328.979,-275.008 367.93,-252.619 401,-231.48 403.196,-230.077 405.445,-228.601 407.698,-227.096"/>
<polygon fill="black" stroke="black" points="410.002,-229.762 416.291,-221.235 406.057,-223.979 410.002,-229.762"/>
<text text-anchor="middle" x="423" y="-253.28" font-family="Times,serif" font-size="14.00">IMPLICIT DOBJ</text>
</g>
<!-- E4 -->
<g id="node5" class="node"><title>E4</title>
<ellipse fill="azure" stroke="black" cx="336" cy="-99.8701" rx="38.3684" ry="26.7407"/>
<text text-anchor="middle" x="336" y="-103.67" font-family="Times,serif" font-size="14.00">season</text>
<text text-anchor="middle" x="336" y="-88.6701" font-family="Times,serif" font-size="14.00">4</text>
</g>
<!-- E3&#45;&gt;E4 -->
<g id="edge8" class="edge"><title>E3&#45;&gt;E4</title>
<path fill="none" stroke="black" d="M419.292,-184.766C403.993,-169.357 382.109,-147.314 364.612,-129.69"/>
<polygon fill="black" stroke="black" points="366.943,-127.07 357.414,-122.439 361.975,-132.002 366.943,-127.07"/>
<text text-anchor="middle" x="444" y="-148.54" font-family="Times,serif" font-size="14.00">IMPLICIT DOBJ</text>
</g>
<!-- EOR -->
<g id="node12" class="node"><title>EOR</title>
<ellipse fill="plum" stroke="black" cx="336" cy="-18" rx="57.3905" ry="18"/>
<text text-anchor="middle" x="336" y="-14.3" font-family="Times,serif" font-size="14.00">Bon appetit!</text>
</g>
<!-- E4&#45;&gt;EOR -->
<g id="edge11" class="edge"><title>E4&#45;&gt;EOR</title>
<path fill="none" stroke="black" d="M336,-72.7176C336,-64.2726 336,-54.8903 336,-46.3604"/>
<polygon fill="black" stroke="black" points="339.5,-46.1464 336,-36.1464 332.5,-46.1464 339.5,-46.1464"/>
</g>
<!-- D0 -->
<g id="node6" class="node"><title>D0</title>
<polygon fill="peachpuff" stroke="black" points="885,-513.96 719,-513.96 719,-477.96 885,-477.96 885,-513.96"/>
<text text-anchor="middle" x="802" y="-492.26" font-family="Times,serif" font-size="14.00">DOBJ: idahoan baby reds</text>
</g>
<!-- D0&#45;&gt;E0 -->
<g id="edge1" class="edge"><title>D0&#45;&gt;E0</title>
<path fill="none" stroke="black" d="M802,-477.63C802,-469.896 802,-460.476 802,-451.319"/>
<polygon fill="black" stroke="black" points="805.5,-451.194 802,-441.194 798.5,-451.195 805.5,-451.194"/>
</g>
<!-- D2 -->
<g id="node7" class="node"><title>D2</title>
<polygon fill="peachpuff" stroke="black" points="151.5,-432.09 0.5,-432.09 0.5,-396.09 151.5,-396.09 151.5,-432.09"/>
<text text-anchor="middle" x="76" y="-410.39" font-family="Times,serif" font-size="14.00">DOBJ: mayo, mustards</text>
</g>
<!-- D2&#45;&gt;E2 -->
<g id="edge2" class="edge"><title>D2&#45;&gt;E2</title>
<path fill="none" stroke="black" d="M108.304,-395.894C140.614,-378.694 190.496,-352.14 226.11,-333.182"/>
<polygon fill="black" stroke="black" points="228.11,-336.083 235.292,-328.294 224.82,-329.904 228.11,-336.083"/>
</g>
<!-- P2_0 -->
<g id="node8" class="node"><title>P2_0</title>
<polygon fill="white" stroke="black" points="368,-432.09 170,-432.09 170,-396.09 368,-396.09 368,-432.09"/>
<text text-anchor="middle" x="269" y="-410.39" font-family="Times,serif" font-size="14.00">LOCATION:in a separate bowl</text>
</g>
<!-- P2_0&#45;&gt;E2 -->
<g id="edge3" class="edge"><title>P2_0&#45;&gt;E2</title>
<path fill="none" stroke="black" d="M269,-395.662C269,-382.197 269,-363.102 269,-346.389"/>
<polygon fill="black" stroke="black" points="272.5,-346.363 269,-336.363 265.5,-346.363 272.5,-346.363"/>
</g>
<!-- D1_ing -->
<g id="node9" class="node"><title>D1_ing</title>
<polygon fill="peachpuff" stroke="black" points="742,-432.09 386,-432.09 386,-396.09 742,-396.09 742,-432.09"/>
<text text-anchor="middle" x="564" y="-410.39" font-family="Times,serif" font-size="14.00">DOBJ: radishes, celery, hard&#45;boiled egg, pickles, red onion</text>
</g>
<!-- D1_ing&#45;&gt;E1 -->
<g id="edge4" class="edge"><title>D1_ing&#45;&gt;E1</title>
<path fill="none" stroke="black" d="M564,-395.662C564,-382.197 564,-363.102 564,-346.389"/>
<polygon fill="black" stroke="black" points="567.5,-346.363 564,-336.363 560.5,-346.363 567.5,-346.363"/>
</g>
<!-- P4_0_ing -->
<g id="node10" class="node"><title>P4_0_ing</title>
<polygon fill="peachpuff" stroke="black" points="262,-222.61 0,-222.61 0,-186.61 262,-186.61 262,-222.61"/>
<text text-anchor="middle" x="131" y="-200.91" font-family="Times,serif" font-size="14.00">COOBJECT: with pepper, celery seed, salt</text>
</g>
<!-- P4_0_ing&#45;&gt;E4 -->
<g id="edge9" class="edge"><title>P4_0_ing&#45;&gt;E4</title>
<path fill="none" stroke="black" d="M165.312,-186.414C201.354,-168.351 257.98,-139.971 296.019,-120.908"/>
<polygon fill="black" stroke="black" points="297.893,-123.883 305.265,-116.273 294.757,-117.625 297.893,-123.883"/>
</g>
<!-- O4_0_0 -->
<g id="node11" class="node"><title>O4_0_0</title>
<polygon fill="white" stroke="black" points="392,-222.61 280,-222.61 280,-186.61 392,-186.61 392,-222.61"/>
<text text-anchor="middle" x="336" y="-200.91" font-family="Times,serif" font-size="14.00">OTHER: to taste</text>
</g>
<!-- O4_0_0&#45;&gt;E4 -->
<g id="edge10" class="edge"><title>O4_0_0&#45;&gt;E4</title>
<path fill="none" stroke="black" d="M336,-186.182C336,-172.717 336,-153.621 336,-136.909"/>
<polygon fill="black" stroke="black" points="339.5,-136.883 336,-126.883 332.5,-136.883 339.5,-136.883"/>
</g>
</g>
</svg>
