<?xml version="1.0" encoding="UTF-8" standalone="no"?>
<!DOCTYPE svg PUBLIC "-//W3C//DTD SVG 1.1//EN"
 "http://www.w3.org/Graphics/SVG/1.1/DTD/svg11.dtd">
<!-- Generated by graphviz version 2.38.0 (20140413.2041)
 -->
<!-- Title: recipe Pages: 1 -->
<svg width="2003pt" height="1569pt"
 viewBox="0.00 0.00 2002.50 1569.36" xmlns="http://www.w3.org/2000/svg" xmlns:xlink="http://www.w3.org/1999/xlink">
<g id="graph0" class="graph" transform="scale(1 1) rotate(0) translate(4 1565.36)">
<title>recipe</title>
<polygon fill="white" stroke="none" points="-4,4 -4,-1565.36 1998.5,-1565.36 1998.5,4 -4,4"/>
<!-- E0 -->
<g id="node1" class="node"><title>E0</title>
<ellipse fill="azure" stroke="black" cx="1748.5" cy="-1461.49" rx="46.8387" ry="26.7407"/>
<text text-anchor="middle" x="1748.5" y="-1465.29" font-family="Times,serif" font-size="14.00">combine</text>
<text text-anchor="middle" x="1748.5" y="-1450.29" font-family="Times,serif" font-size="14.00">0</text>
</g>
<!-- E1 -->
<g id="node2" class="node"><title>E1</title>
<ellipse fill="azure" stroke="black" cx="1583.5" cy="-1356.75" rx="38.3684" ry="26.7407"/>
<text text-anchor="middle" x="1583.5" y="-1360.55" font-family="Times,serif" font-size="14.00">season</text>
<text text-anchor="middle" x="1583.5" y="-1345.55" font-family="Times,serif" font-size="14.00">1</text>
</g>
<!-- E0&#45;&gt;E1 -->
<g id="edge11" class="edge"><title>E0&#45;&gt;E1</title>
<path fill="none" stroke="black" d="M1717.46,-1441.17C1689.88,-1423.99 1649.53,-1398.87 1620.32,-1380.68"/>
<polygon fill="black" stroke="black" points="1621.98,-1377.59 1611.64,-1375.28 1618.28,-1383.53 1621.98,-1377.59"/>
<text text-anchor="middle" x="1726.5" y="-1405.42" font-family="Times,serif" font-size="14.00">IMPLICIT DOBJ</text>
</g>
<!-- E3 -->
<g id="node4" class="node"><title>E3</title>
<ellipse fill="azure" stroke="black" cx="1442.5" cy="-1252.01" rx="27" ry="26.7407"/>
<text text-anchor="middle" x="1442.5" y="-1255.81" font-family="Times,serif" font-size="14.00">rub</text>
<text text-anchor="middle" x="1442.5" y="-1240.81" font-family="Times,serif" font-size="14.00">3</text>
</g>
<!-- E1&#45;&gt;E3 -->
<g id="edge14" class="edge"><title>E1&#45;&gt;E3</title>
<path fill="none" stroke="black" d="M1557.64,-1336.91C1533.5,-1319.32 1497.49,-1293.08 1472.18,-1274.64"/>
<polygon fill="black" stroke="black" points="1474.19,-1271.77 1464.04,-1268.71 1470.07,-1277.43 1474.19,-1271.77"/>
<text text-anchor="middle" x="1620" y="-1300.68" font-family="Times,serif" font-size="14.00">COOBJECT:with paprika mixture</text>
</g>
<!-- E2 -->
<g id="node3" class="node"><title>E2</title>
<ellipse fill="azure" stroke="black" cx="1300.5" cy="-1356.75" rx="27.6545" ry="26.7407"/>
<text text-anchor="middle" x="1300.5" y="-1360.55" font-family="Times,serif" font-size="14.00">blot</text>
<text text-anchor="middle" x="1300.5" y="-1345.55" font-family="Times,serif" font-size="14.00">2</text>
</g>
<!-- E2&#45;&gt;E3 -->
<g id="edge13" class="edge"><title>E2&#45;&gt;E3</title>
<path fill="none" stroke="black" d="M1322.38,-1339.92C1346.53,-1322.45 1385.54,-1294.22 1412.53,-1274.7"/>
<polygon fill="black" stroke="black" points="1414.78,-1277.39 1420.83,-1268.69 1410.68,-1271.71 1414.78,-1277.39"/>
<text text-anchor="middle" x="1430.5" y="-1300.68" font-family="Times,serif" font-size="14.00">IMPLICIT DOBJ</text>
</g>
<!-- E5 -->
<g id="node6" class="node"><title>E5</title>
<ellipse fill="azure" stroke="black" cx="1135.5" cy="-1147.27" rx="27" ry="26.7407"/>
<text text-anchor="middle" x="1135.5" y="-1151.07" font-family="Times,serif" font-size="14.00">fry</text>
<text text-anchor="middle" x="1135.5" y="-1136.07" font-family="Times,serif" font-size="14.00">5</text>
</g>
<!-- E3&#45;&gt;E5 -->
<g id="edge15" class="edge"><title>E3&#45;&gt;E5</title>
<path fill="none" stroke="black" d="M1421.95,-1234.4C1417.08,-1231 1411.77,-1227.68 1406.5,-1225.14 1327.23,-1186.87 1225.45,-1164.42 1172.01,-1154.45"/>
<polygon fill="black" stroke="black" points="1172.45,-1150.98 1161.99,-1152.63 1171.2,-1157.86 1172.45,-1150.98"/>
<text text-anchor="middle" x="1396.5" y="-1195.94" font-family="Times,serif" font-size="14.00">pork chops</text>
</g>
<!-- E4 -->
<g id="node5" class="node"><title>E4</title>
<ellipse fill="azure" stroke="black" cx="908.5" cy="-1252.01" rx="28.0702" ry="26.7407"/>
<text text-anchor="middle" x="908.5" y="-1255.81" font-family="Times,serif" font-size="14.00">heat</text>
<text text-anchor="middle" x="908.5" y="-1240.81" font-family="Times,serif" font-size="14.00">4</text>
</g>
<!-- E4&#45;&gt;E5 -->
<g id="edge17" class="edge"><title>E4&#45;&gt;E5</title>
<path fill="none" stroke="black" d="M923.512,-1228.91C933.541,-1215.99 947.911,-1200.6 964.5,-1192.14 1018.43,-1164.65 1043.24,-1196.47 1099.5,-1174.14 1101.88,-1173.2 1104.25,-1172.06 1106.57,-1170.8"/>
<polygon fill="black" stroke="black" points="1108.54,-1173.7 1115.2,-1165.45 1104.85,-1167.75 1108.54,-1173.7"/>
<text text-anchor="middle" x="1015" y="-1195.94" font-family="Times,serif" font-size="14.00">IMPLICIT PREP</text>
</g>
<!-- E6 -->
<g id="node7" class="node"><title>E6</title>
<ellipse fill="azure" stroke="black" cx="1038.5" cy="-1042.53" rx="42.3529" ry="26.7407"/>
<text text-anchor="middle" x="1038.5" y="-1046.33" font-family="Times,serif" font-size="14.00">transfer</text>
<text text-anchor="middle" x="1038.5" y="-1031.33" font-family="Times,serif" font-size="14.00">6</text>
</g>
<!-- E5&#45;&gt;E6 -->
<g id="edge19" class="edge"><title>E5&#45;&gt;E6</title>
<path fill="none" stroke="black" d="M1117.26,-1126.95C1103.07,-1111.93 1083.14,-1090.82 1066.88,-1073.59"/>
<polygon fill="black" stroke="black" points="1069.11,-1070.86 1059.7,-1065.99 1064.02,-1075.66 1069.11,-1070.86"/>
<text text-anchor="middle" x="1153.5" y="-1091.2" font-family="Times,serif" font-size="14.00">browned pork chops</text>
</g>
<!-- E7 -->
<g id="node8" class="node"><title>E7</title>
<ellipse fill="azure" stroke="black" cx="978.5" cy="-937.791" rx="31.6406" ry="26.7407"/>
<text text-anchor="middle" x="978.5" y="-941.591" font-family="Times,serif" font-size="14.00">wipe</text>
<text text-anchor="middle" x="978.5" y="-926.591" font-family="Times,serif" font-size="14.00">7</text>
</g>
<!-- E6&#45;&gt;E7 -->
<g id="edge21" class="edge"><title>E6&#45;&gt;E7</title>
<path fill="none" stroke="black" d="M1011.2,-1021.93C1003.43,-1015.08 995.678,-1006.79 990.5,-997.661 986.522,-990.643 983.852,-982.492 982.063,-974.533"/>
<polygon fill="black" stroke="black" points="985.496,-973.851 980.236,-964.654 978.613,-975.124 985.496,-973.851"/>
<text text-anchor="middle" x="1007.5" y="-986.461" font-family="Times,serif" font-size="14.00">skillet</text>
</g>
<!-- E11 -->
<g id="node12" class="node"><title>E11</title>
<ellipse fill="azure" stroke="black" cx="737.5" cy="-518.831" rx="38.3684" ry="26.7407"/>
<text text-anchor="middle" x="737.5" y="-522.631" font-family="Times,serif" font-size="14.00">spread</text>
<text text-anchor="middle" x="737.5" y="-507.631" font-family="Times,serif" font-size="14.00">11</text>
</g>
<!-- E6&#45;&gt;E11 -->
<g id="edge32" class="edge"><title>E6&#45;&gt;E11</title>
<path fill="none" stroke="black" d="M1038.5,-1015.35C1038.5,-994.587 1038.5,-964.833 1038.5,-938.791 1038.5,-938.791 1038.5,-938.791 1038.5,-622.571 1038.5,-569.643 869.704,-538.371 784.919,-526.001"/>
<polygon fill="black" stroke="black" points="785.408,-522.535 775.013,-524.586 784.418,-529.465 785.408,-522.535"/>
<text text-anchor="middle" x="1105.5" y="-776.981" font-family="Times,serif" font-size="14.00">COOBJECT:over pork</text>
</g>
<!-- E8 -->
<g id="node9" class="node"><title>E8</title>
<ellipse fill="azure" stroke="black" cx="879.5" cy="-833.051" rx="27" ry="26.7407"/>
<text text-anchor="middle" x="879.5" y="-836.851" font-family="Times,serif" font-size="14.00">hea</text>
<text text-anchor="middle" x="879.5" y="-821.851" font-family="Times,serif" font-size="14.00">8</text>
</g>
<!-- E7&#45;&gt;E8 -->
<g id="edge24" class="edge"><title>E7&#45;&gt;E8</title>
<path fill="none" stroke="black" d="M954.634,-919.882C944.528,-912.198 932.935,-902.657 923.5,-892.921 915.053,-884.204 906.807,-873.836 899.781,-864.247"/>
<polygon fill="black" stroke="black" points="902.607,-862.183 893.945,-856.083 896.913,-866.254 902.607,-862.183"/>
<text text-anchor="middle" x="974" y="-881.721" font-family="Times,serif" font-size="14.00">IMPLICIT PREP</text>
</g>
<!-- E9 -->
<g id="node10" class="node"><title>E9</title>
<ellipse fill="azure" stroke="black" cx="734.5" cy="-728.311" rx="65.1077" ry="26.7407"/>
<text text-anchor="middle" x="734.5" y="-732.111" font-family="Times,serif" font-size="14.00">cook and stir</text>
<text text-anchor="middle" x="734.5" y="-717.111" font-family="Times,serif" font-size="14.00">9</text>
</g>
<!-- E8&#45;&gt;E9 -->
<g id="edge27" class="edge"><title>E8&#45;&gt;E9</title>
<path fill="none" stroke="black" d="M857.82,-816.424C853.105,-813.039 848.14,-809.484 843.5,-806.181 820.786,-790.01 795.325,-772.046 774.726,-757.552"/>
<polygon fill="black" stroke="black" points="776.701,-754.662 766.508,-751.772 772.674,-760.388 776.701,-754.662"/>
<text text-anchor="middle" x="867" y="-776.981" font-family="Times,serif" font-size="14.00">IMPLICIT PREP</text>
</g>
<!-- E10 -->
<g id="node11" class="node"><title>E10</title>
<ellipse fill="azure" stroke="black" cx="734.5" cy="-623.571" rx="27" ry="26.7407"/>
<text text-anchor="middle" x="734.5" y="-627.371" font-family="Times,serif" font-size="14.00">add</text>
<text text-anchor="middle" x="734.5" y="-612.371" font-family="Times,serif" font-size="14.00">10</text>
</g>
<!-- E9&#45;&gt;E10 -->
<g id="edge30" class="edge"><title>E9&#45;&gt;E10</title>
<path fill="none" stroke="black" d="M734.5,-701.385C734.5,-689.096 734.5,-674.207 734.5,-660.822"/>
<polygon fill="black" stroke="black" points="738,-660.488 734.5,-650.488 731,-660.488 738,-660.488"/>
<text text-anchor="middle" x="785" y="-672.241" font-family="Times,serif" font-size="14.00">IMPLICIT PREP</text>
</g>
<!-- E10&#45;&gt;E11 -->
<g id="edge31" class="edge"><title>E10&#45;&gt;E11</title>
<path fill="none" stroke="black" d="M735.257,-596.645C735.616,-584.356 736.051,-569.467 736.441,-556.082"/>
<polygon fill="black" stroke="black" points="739.95,-555.846 736.743,-545.748 732.953,-555.641 739.95,-555.846"/>
<text text-anchor="middle" x="755.5" y="-567.501" font-family="Times,serif" font-size="14.00">onions</text>
</g>
<!-- E13 -->
<g id="node14" class="node"><title>E13</title>
<ellipse fill="azure" stroke="black" cx="675.5" cy="-414.09" rx="31.2258" ry="26.7407"/>
<text text-anchor="middle" x="675.5" y="-417.89" font-family="Times,serif" font-size="14.00">pour</text>
<text text-anchor="middle" x="675.5" y="-402.89" font-family="Times,serif" font-size="14.00">13</text>
</g>
<!-- E11&#45;&gt;E13 -->
<g id="edge34" class="edge"><title>E11&#45;&gt;E13</title>
<path fill="none" stroke="black" d="M730.301,-492.221C726.699,-481.512 721.758,-469.202 715.5,-458.96 712.044,-453.304 707.8,-447.721 703.382,-442.531"/>
<polygon fill="black" stroke="black" points="705.672,-439.844 696.384,-434.746 700.466,-444.523 705.672,-439.844"/>
<text text-anchor="middle" x="789.5" y="-462.76" font-family="Times,serif" font-size="14.00">COOBJECT:over pork</text>
</g>
<!-- E12 -->
<g id="node13" class="node"><title>E12</title>
<ellipse fill="azure" stroke="black" cx="612.5" cy="-518.831" rx="27.6545" ry="26.7407"/>
<text text-anchor="middle" x="612.5" y="-522.631" font-family="Times,serif" font-size="14.00">mix</text>
<text text-anchor="middle" x="612.5" y="-507.631" font-family="Times,serif" font-size="14.00">12</text>
</g>
<!-- E12&#45;&gt;E13 -->
<g id="edge33" class="edge"><title>E12&#45;&gt;E13</title>
<path fill="none" stroke="black" d="M605.623,-492.786C603.981,-481.817 604.036,-469.153 609.5,-458.96 610.015,-457.999 626.233,-447.214 642.461,-436.579"/>
<polygon fill="black" stroke="black" points="644.411,-439.486 650.865,-431.084 640.58,-433.627 644.411,-439.486"/>
<text text-anchor="middle" x="660.5" y="-462.76" font-family="Times,serif" font-size="14.00">IMPLICIT DOBJ</text>
</g>
<!-- E14 -->
<g id="node15" class="node"><title>E14</title>
<ellipse fill="azure" stroke="black" cx="499.5" cy="-309.35" rx="31.6406" ry="26.7407"/>
<text text-anchor="middle" x="499.5" y="-313.15" font-family="Times,serif" font-size="14.00">cook</text>
<text text-anchor="middle" x="499.5" y="-298.15" font-family="Times,serif" font-size="14.00">14</text>
</g>
<!-- E13&#45;&gt;E14 -->
<g id="edge35" class="edge"><title>E13&#45;&gt;E14</title>
<path fill="none" stroke="black" d="M651.107,-396.987C645.987,-393.699 640.594,-390.304 635.5,-387.22 601.729,-366.781 562.398,-344.735 534.745,-329.517"/>
<polygon fill="black" stroke="black" points="536.29,-326.372 525.84,-324.629 532.922,-332.509 536.29,-326.372"/>
<text text-anchor="middle" x="615.5" y="-358.02" font-family="Times,serif" font-size="14.00">pork</text>
</g>
<!-- E15 -->
<g id="node16" class="node"><title>E15</title>
<ellipse fill="azure" stroke="black" cx="499.5" cy="-204.61" rx="33.8824" ry="26.7407"/>
<text text-anchor="middle" x="499.5" y="-208.41" font-family="Times,serif" font-size="14.00">shred</text>
<text text-anchor="middle" x="499.5" y="-193.41" font-family="Times,serif" font-size="14.00">15</text>
</g>
<!-- E14&#45;&gt;E15 -->
<g id="edge38" class="edge"><title>E14&#45;&gt;E15</title>
<path fill="none" stroke="black" d="M499.5,-282.425C499.5,-270.135 499.5,-255.247 499.5,-241.862"/>
<polygon fill="black" stroke="black" points="503,-241.528 499.5,-231.528 496,-241.528 503,-241.528"/>
<text text-anchor="middle" x="513.5" y="-253.28" font-family="Times,serif" font-size="14.00">pork</text>
</g>
<!-- E16 -->
<g id="node17" class="node"><title>E16</title>
<ellipse fill="azure" stroke="black" cx="367.5" cy="-99.8701" rx="36.5405" ry="26.7407"/>
<text text-anchor="middle" x="367.5" y="-103.67" font-family="Times,serif" font-size="14.00">divide</text>
<text text-anchor="middle" x="367.5" y="-88.6701" font-family="Times,serif" font-size="14.00">16</text>
</g>
<!-- E15&#45;&gt;E16 -->
<g id="edge39" class="edge"><title>E15&#45;&gt;E16</title>
<path fill="none" stroke="black" d="M475.901,-185.242C454.807,-168.824 423.691,-144.605 400.2,-126.322"/>
<polygon fill="black" stroke="black" points="402.28,-123.505 392.239,-120.125 397.98,-129.029 402.28,-123.505"/>
<text text-anchor="middle" x="491.5" y="-148.54" font-family="Times,serif" font-size="14.00">IMPLICIT DOBJ</text>
</g>
<!-- EOR -->
<g id="node41" class="node"><title>EOR</title>
<ellipse fill="plum" stroke="black" cx="367.5" cy="-18" rx="57.3905" ry="18"/>
<text text-anchor="middle" x="367.5" y="-14.3" font-family="Times,serif" font-size="14.00">Bon appetit!</text>
</g>
<!-- E16&#45;&gt;EOR -->
<g id="edge41" class="edge"><title>E16&#45;&gt;EOR</title>
<path fill="none" stroke="black" d="M367.5,-72.7176C367.5,-64.2726 367.5,-54.8903 367.5,-46.3604"/>
<polygon fill="black" stroke="black" points="371,-46.1464 367.5,-36.1464 364,-46.1464 371,-46.1464"/>
</g>
<!-- D4 -->
<g id="node18" class="node"><title>D4</title>
<polygon fill="peachpuff" stroke="black" points="785.5,-1374.75 551.5,-1374.75 551.5,-1338.75 785.5,-1338.75 785.5,-1374.75"/>
<text text-anchor="middle" x="668.5" y="-1353.05" font-family="Times,serif" font-size="14.00">DOBJ: about 2 tablespoons canola oil</text>
</g>
<!-- D4&#45;&gt;E4 -->
<g id="edge1" class="edge"><title>D4&#45;&gt;E4</title>
<path fill="none" stroke="black" d="M708.401,-1338.67C754.498,-1318.94 829.619,-1286.78 873.521,-1267.99"/>
<polygon fill="black" stroke="black" points="875.105,-1271.11 882.921,-1263.96 872.35,-1264.68 875.105,-1271.11"/>
</g>
<!-- P4_0 -->
<g id="node19" class="node"><title>P4_0</title>
<polygon fill="white" stroke="black" points="1013.5,-1374.75 803.5,-1374.75 803.5,-1338.75 1013.5,-1338.75 1013.5,-1374.75"/>
<text text-anchor="middle" x="908.5" y="-1353.05" font-family="Times,serif" font-size="14.00">LOCATION:in a non&#45;stick skillet</text>
</g>
<!-- P4_0&#45;&gt;E4 -->
<g id="edge2" class="edge"><title>P4_0&#45;&gt;E4</title>
<path fill="none" stroke="black" d="M908.5,-1338.32C908.5,-1324.86 908.5,-1305.76 908.5,-1289.05"/>
<polygon fill="black" stroke="black" points="912,-1289.02 908.5,-1279.02 905,-1289.02 912,-1289.02"/>
</g>
<!-- O4_0 -->
<g id="node20" class="node"><title>O4_0</title>
<polygon fill="white" stroke="black" points="1243,-1374.75 1032,-1374.75 1032,-1338.75 1243,-1338.75 1243,-1374.75"/>
<text text-anchor="middle" x="1137.5" y="-1353.05" font-family="Times,serif" font-size="14.00">OTHER: over medium&#45;high heat.</text>
</g>
<!-- O4_0&#45;&gt;E4 -->
<g id="edge3" class="edge"><title>O4_0&#45;&gt;E4</title>
<path fill="none" stroke="black" d="M1090.78,-1338.68C1052.63,-1324.21 997.681,-1302.15 951.5,-1278.88 947.926,-1277.08 944.25,-1275.09 940.624,-1273.04"/>
<polygon fill="black" stroke="black" points="942.2,-1269.91 931.799,-1267.89 938.672,-1275.96 942.2,-1269.91"/>
</g>
<!-- D12 -->
<g id="node21" class="node"><title>D12</title>
<polygon fill="peachpuff" stroke="black" points="523,-641.571 0,-641.571 0,-605.571 523,-605.571 523,-641.571"/>
<text text-anchor="middle" x="261.5" y="-619.871" font-family="Times,serif" font-size="14.00">DOBJ: bourbon, worcestershire sauce, hot sauce, garlic, barbeque sauce, remaining beer</text>
</g>
<!-- D12&#45;&gt;E12 -->
<g id="edge4" class="edge"><title>D12&#45;&gt;E12</title>
<path fill="none" stroke="black" d="M319.855,-605.49C392.828,-584.13 515.532,-548.214 576.238,-530.445"/>
<polygon fill="black" stroke="black" points="577.515,-533.718 586.129,-527.549 575.549,-527 577.515,-533.718"/>
</g>
<!-- P12_0 -->
<g id="node22" class="node"><title>P12_0</title>
<polygon fill="white" stroke="black" points="686,-641.571 541,-641.571 541,-605.571 686,-605.571 686,-641.571"/>
<text text-anchor="middle" x="613.5" y="-619.871" font-family="Times,serif" font-size="14.00">LOCATION:in a bow</text>
</g>
<!-- P12_0&#45;&gt;E12 -->
<g id="edge5" class="edge"><title>P12_0&#45;&gt;E12</title>
<path fill="none" stroke="black" d="M613.33,-605.142C613.199,-591.678 613.013,-572.582 612.851,-555.87"/>
<polygon fill="black" stroke="black" points="616.35,-555.809 612.753,-545.843 609.351,-555.877 616.35,-555.809"/>
</g>
<!-- D0 -->
<g id="node23" class="node"><title>D0</title>
<polygon fill="peachpuff" stroke="black" points="1794,-1561.36 1391,-1561.36 1391,-1525.36 1794,-1525.36 1794,-1561.36"/>
<text text-anchor="middle" x="1592.5" y="-1539.66" font-family="Times,serif" font-size="14.00">DOBJ: thyme, paprika, garlic powder, onion powder, oregano, salt</text>
</g>
<!-- D0&#45;&gt;E0 -->
<g id="edge6" class="edge"><title>D0&#45;&gt;E0</title>
<path fill="none" stroke="black" d="M1625.97,-1525.23C1649.17,-1513.35 1680.28,-1497.42 1705.35,-1484.59"/>
<polygon fill="black" stroke="black" points="1706.97,-1487.68 1714.28,-1480.01 1703.78,-1481.45 1706.97,-1487.68"/>
</g>
<!-- P0_0 -->
<g id="node24" class="node"><title>P0_0</title>
<polygon fill="white" stroke="black" points="1994.5,-1561.36 1812.5,-1561.36 1812.5,-1525.36 1994.5,-1525.36 1994.5,-1561.36"/>
<text text-anchor="middle" x="1903.5" y="-1539.66" font-family="Times,serif" font-size="14.00">LOCATION:in a small bowl</text>
</g>
<!-- P0_0&#45;&gt;E0 -->
<g id="edge7" class="edge"><title>P0_0&#45;&gt;E0</title>
<path fill="none" stroke="black" d="M1870.25,-1525.23C1847.3,-1513.4 1816.55,-1497.56 1791.71,-1484.76"/>
<polygon fill="black" stroke="black" points="1792.99,-1481.48 1782.5,-1480.01 1789.79,-1487.7 1792.99,-1481.48"/>
</g>
<!-- D2 -->
<g id="node25" class="node"><title>D2</title>
<polygon fill="peachpuff" stroke="black" points="1160,-1479.49 1035,-1479.49 1035,-1443.49 1160,-1443.49 1160,-1479.49"/>
<text text-anchor="middle" x="1097.5" y="-1457.79" font-family="Times,serif" font-size="14.00">DOBJ: pork chops</text>
</g>
<!-- D2&#45;&gt;E2 -->
<g id="edge8" class="edge"><title>D2&#45;&gt;E2</title>
<path fill="none" stroke="black" d="M1132.76,-1443.43C1164.29,-1428.07 1211.68,-1404.74 1252.5,-1383.62 1257.44,-1381.07 1262.64,-1378.32 1267.72,-1375.61"/>
<polygon fill="black" stroke="black" points="1269.51,-1378.62 1276.66,-1370.81 1266.19,-1372.46 1269.51,-1378.62"/>
</g>
<!-- O2_0 -->
<g id="node26" class="node"><title>O2_0</title>
<polygon fill="white" stroke="black" points="1270.5,-1479.49 1178.5,-1479.49 1178.5,-1443.49 1270.5,-1443.49 1270.5,-1479.49"/>
<text text-anchor="middle" x="1224.5" y="-1457.79" font-family="Times,serif" font-size="14.00">OTHER: dry</text>
</g>
<!-- O2_0&#45;&gt;E2 -->
<g id="edge9" class="edge"><title>O2_0&#45;&gt;E2</title>
<path fill="none" stroke="black" d="M1237.39,-1443.06C1248.6,-1427.91 1265.09,-1405.62 1278.4,-1387.63"/>
<polygon fill="black" stroke="black" points="1281.51,-1389.31 1284.64,-1379.19 1275.88,-1385.15 1281.51,-1389.31"/>
</g>
<!-- O2_1 -->
<g id="node27" class="node"><title>O2_1</title>
<polygon fill="white" stroke="black" points="1464.5,-1479.49 1288.5,-1479.49 1288.5,-1443.49 1464.5,-1443.49 1464.5,-1479.49"/>
<text text-anchor="middle" x="1376.5" y="-1457.79" font-family="Times,serif" font-size="14.00">OTHER: with paper towels</text>
</g>
<!-- O2_1&#45;&gt;E2 -->
<g id="edge10" class="edge"><title>O2_1&#45;&gt;E2</title>
<path fill="none" stroke="black" d="M1363.61,-1443.06C1352.4,-1427.91 1335.91,-1405.62 1322.6,-1387.63"/>
<polygon fill="black" stroke="black" points="1325.12,-1385.15 1316.36,-1379.19 1319.49,-1389.31 1325.12,-1385.15"/>
</g>
<!-- P1_0_ing -->
<g id="node28" class="node"><title>P1_0_ing</title>
<polygon fill="peachpuff" stroke="black" points="1684,-1479.49 1483,-1479.49 1483,-1443.49 1684,-1443.49 1684,-1479.49"/>
<text text-anchor="middle" x="1583.5" y="-1457.79" font-family="Times,serif" font-size="14.00">COOBJECT: with black pepper</text>
</g>
<!-- P1_0_ing&#45;&gt;E1 -->
<g id="edge12" class="edge"><title>P1_0_ing&#45;&gt;E1</title>
<path fill="none" stroke="black" d="M1583.5,-1443.06C1583.5,-1429.6 1583.5,-1410.5 1583.5,-1393.79"/>
<polygon fill="black" stroke="black" points="1587,-1393.76 1583.5,-1383.76 1580,-1393.76 1587,-1393.76"/>
</g>
<!-- D5_1 -->
<g id="node29" class="node"><title>D5_1</title>
<polygon fill="white" stroke="black" points="1077,-1270.01 960,-1270.01 960,-1234.01 1077,-1234.01 1077,-1270.01"/>
<text text-anchor="middle" x="1018.5" y="-1248.31" font-family="Times,serif" font-size="14.00">DOBJ: in batches</text>
</g>
<!-- D5_1&#45;&gt;E5 -->
<g id="edge16" class="edge"><title>D5_1&#45;&gt;E5</title>
<path fill="none" stroke="black" d="M1038.08,-1233.81C1057.2,-1217.03 1086.47,-1191.32 1107.94,-1172.47"/>
<polygon fill="black" stroke="black" points="1110.26,-1175.1 1115.46,-1165.87 1105.64,-1169.84 1110.26,-1175.1"/>
</g>
<!-- O5_0_0 -->
<g id="node30" class="node"><title>O5_0_0</title>
<polygon fill="white" stroke="black" points="1397.5,-1270.01 1095.5,-1270.01 1095.5,-1234.01 1397.5,-1234.01 1397.5,-1270.01"/>
<text text-anchor="middle" x="1246.5" y="-1248.31" font-family="Times,serif" font-size="14.00">OTHER: until browned, about 5 minutes per side</text>
</g>
<!-- O5_0_0&#45;&gt;E5 -->
<g id="edge18" class="edge"><title>O5_0_0&#45;&gt;E5</title>
<path fill="none" stroke="black" d="M1227.92,-1233.81C1209.97,-1217.2 1182.59,-1191.86 1162.29,-1173.07"/>
<polygon fill="black" stroke="black" points="1164.6,-1170.44 1154.89,-1166.21 1159.85,-1175.58 1164.6,-1170.44"/>
</g>
<!-- P6_0_0 -->
<g id="node31" class="node"><title>P6_0_0</title>
<polygon fill="white" stroke="black" points="1090.5,-1165.27 900.5,-1165.27 900.5,-1129.27 1090.5,-1129.27 1090.5,-1165.27"/>
<text text-anchor="middle" x="995.5" y="-1143.57" font-family="Times,serif" font-size="14.00">LOCATION:to a slow cooker</text>
</g>
<!-- P6_0_0&#45;&gt;E6 -->
<g id="edge20" class="edge"><title>P6_0_0&#45;&gt;E6</title>
<path fill="none" stroke="black" d="M1002.79,-1128.84C1008.56,-1115.06 1016.8,-1095.38 1023.91,-1078.39"/>
<polygon fill="black" stroke="black" points="1027.31,-1079.34 1027.94,-1068.76 1020.85,-1076.64 1027.31,-1079.34"/>
</g>
<!-- O7_0_0 -->
<g id="node32" class="node"><title>O7_0_0</title>
<polygon fill="white" stroke="black" points="978,-1060.53 877,-1060.53 877,-1024.53 978,-1024.53 978,-1060.53"/>
<text text-anchor="middle" x="927.5" y="-1038.83" font-family="Times,serif" font-size="14.00">OTHER: clean</text>
</g>
<!-- O7_0_0&#45;&gt;E7 -->
<g id="edge22" class="edge"><title>O7_0_0&#45;&gt;E7</title>
<path fill="none" stroke="black" d="M936.151,-1024.1C943.201,-1009.9 953.361,-989.435 961.961,-972.108"/>
<polygon fill="black" stroke="black" points="965.238,-973.378 966.55,-962.865 958.968,-970.266 965.238,-973.378"/>
</g>
<!-- D8_ing -->
<g id="node33" class="node"><title>D8_ing</title>
<polygon fill="peachpuff" stroke="black" points="734,-955.791 427,-955.791 427,-919.791 734,-919.791 734,-955.791"/>
<text text-anchor="middle" x="580.5" y="-934.091" font-family="Times,serif" font-size="14.00">DOBJ: butter, remaining 1 1/2 teaspoon canola oil</text>
</g>
<!-- D8_ing&#45;&gt;E8 -->
<g id="edge23" class="edge"><title>D8_ing&#45;&gt;E8</title>
<path fill="none" stroke="black" d="M665.215,-919.742C718.126,-907.244 786.74,-887.601 843.5,-859.921 845.8,-858.799 848.11,-857.532 850.388,-856.177"/>
<polygon fill="black" stroke="black" points="852.45,-859.012 858.932,-850.632 848.639,-853.14 852.45,-859.012"/>
</g>
<!-- O8_0_0 -->
<g id="node34" class="node"><title>O8_0_0</title>
<polygon fill="white" stroke="black" points="928.5,-955.791 752.5,-955.791 752.5,-919.791 928.5,-919.791 928.5,-955.791"/>
<text text-anchor="middle" x="840.5" y="-934.091" font-family="Times,serif" font-size="14.00">OTHER: over medium heat</text>
</g>
<!-- O8_0_0&#45;&gt;E8 -->
<g id="edge25" class="edge"><title>O8_0_0&#45;&gt;E8</title>
<path fill="none" stroke="black" d="M847.116,-919.363C852.421,-905.388 860.028,-885.348 866.536,-868.202"/>
<polygon fill="black" stroke="black" points="869.939,-869.1 870.216,-858.509 863.395,-866.616 869.939,-869.1"/>
</g>
<!-- D9_ing -->
<g id="node35" class="node"><title>D9_ing</title>
<polygon fill="peachpuff" stroke="black" points="394.5,-851.051 118.5,-851.051 118.5,-815.051 394.5,-815.051 394.5,-851.051"/>
<text text-anchor="middle" x="256.5" y="-829.351" font-family="Times,serif" font-size="14.00">DOBJ: 1/2 bottle beer, onions, a pinch of salt</text>
</g>
<!-- D9_ing&#45;&gt;E9 -->
<g id="edge26" class="edge"><title>D9_ing&#45;&gt;E9</title>
<path fill="none" stroke="black" d="M349.828,-815.048C459.669,-794.917 630.934,-763.115 660.5,-755.181 666.142,-753.667 671.972,-751.933 677.769,-750.096"/>
<polygon fill="black" stroke="black" points="679.038,-753.364 687.454,-746.928 676.861,-746.711 679.038,-753.364"/>
</g>
<!-- O9_0_0 -->
<g id="node36" class="node"><title>O9_0_0</title>
<polygon fill="white" stroke="black" points="834.5,-851.051 412.5,-851.051 412.5,-815.051 834.5,-815.051 834.5,-851.051"/>
<text text-anchor="middle" x="623.5" y="-829.351" font-family="Times,serif" font-size="14.00">OTHER: until onion is tender and slightly browned, about 10 minutes</text>
</g>
<!-- O9_0_0&#45;&gt;E9 -->
<g id="edge28" class="edge"><title>O9_0_0&#45;&gt;E9</title>
<path fill="none" stroke="black" d="M642.079,-814.854C658.206,-799.927 681.946,-777.954 701.326,-760.016"/>
<polygon fill="black" stroke="black" points="703.825,-762.473 708.786,-753.111 699.07,-757.336 703.825,-762.473"/>
</g>
<!-- D10_ing -->
<g id="node37" class="node"><title>D10_ing</title>
<polygon fill="peachpuff" stroke="black" points="651,-746.311 516,-746.311 516,-710.311 651,-710.311 651,-746.311"/>
<text text-anchor="middle" x="583.5" y="-724.611" font-family="Times,serif" font-size="14.00">DOBJ: liquid smoke</text>
</g>
<!-- D10_ing&#45;&gt;E10 -->
<g id="edge29" class="edge"><title>D10_ing&#45;&gt;E10</title>
<path fill="none" stroke="black" d="M608.774,-710.114C634.986,-692.28 675.981,-664.387 703.983,-645.335"/>
<polygon fill="black" stroke="black" points="706.284,-648.002 712.582,-639.483 702.346,-642.215 706.284,-648.002"/>
</g>
<!-- O14_0_0 -->
<g id="node38" class="node"><title>O14_0_0</title>
<polygon fill="white" stroke="black" points="354,-432.09 241,-432.09 241,-396.09 354,-396.09 354,-432.09"/>
<text text-anchor="middle" x="297.5" y="-410.39" font-family="Times,serif" font-size="14.00">OTHER: on low</text>
</g>
<!-- O14_0_0&#45;&gt;E14 -->
<g id="edge36" class="edge"><title>O14_0_0&#45;&gt;E14</title>
<path fill="none" stroke="black" d="M331.31,-395.894C367.963,-377.252 426.221,-347.621 463.652,-328.583"/>
<polygon fill="black" stroke="black" points="465.367,-331.637 472.694,-323.984 462.194,-325.398 465.367,-331.637"/>
</g>
<!-- O14_1_0 -->
<g id="node39" class="node"><title>O14_1_0</title>
<polygon fill="white" stroke="black" points="626.5,-432.09 372.5,-432.09 372.5,-396.09 626.5,-396.09 626.5,-432.09"/>
<text text-anchor="middle" x="499.5" y="-410.39" font-family="Times,serif" font-size="14.00">OTHER: until very tender, about 8 hours</text>
</g>
<!-- O14_1_0&#45;&gt;E14 -->
<g id="edge37" class="edge"><title>O14_1_0&#45;&gt;E14</title>
<path fill="none" stroke="black" d="M499.5,-395.662C499.5,-382.197 499.5,-363.102 499.5,-346.389"/>
<polygon fill="black" stroke="black" points="503,-346.363 499.5,-336.363 496,-346.363 503,-346.363"/>
</g>
<!-- P16_0_0 -->
<g id="node40" class="node"><title>P16_0_0</title>
<polygon fill="white" stroke="black" points="447.5,-222.61 179.5,-222.61 179.5,-186.61 447.5,-186.61 447.5,-222.61"/>
<text text-anchor="middle" x="313.5" y="-200.91" font-family="Times,serif" font-size="14.00">LOCATION:over rolls to make sandwiches</text>
</g>
<!-- P16_0_0&#45;&gt;E16 -->
<g id="edge40" class="edge"><title>P16_0_0&#45;&gt;E16</title>
<path fill="none" stroke="black" d="M322.66,-186.182C330.074,-172.077 340.736,-151.792 349.803,-134.541"/>
<polygon fill="black" stroke="black" points="353.091,-135.808 354.645,-125.328 346.894,-132.551 353.091,-135.808"/>
</g>
</g>
</svg>
