<?xml version="1.0" encoding="UTF-8" standalone="no"?>
<!DOCTYPE svg PUBLIC "-//W3C//DTD SVG 1.1//EN"
 "http://www.w3.org/Graphics/SVG/1.1/DTD/svg11.dtd">
<!-- Generated by graphviz version 2.38.0 (20140413.2041)
 -->
<!-- Title: recipe Pages: 1 -->
<svg width="2173pt" height="1706pt"
 viewBox="0.00 0.00 2173.00 1705.84" xmlns="http://www.w3.org/2000/svg" xmlns:xlink="http://www.w3.org/1999/xlink">
<g id="graph0" class="graph" transform="scale(1 1) rotate(0) translate(4 1701.84)">
<title>recipe</title>
<polygon fill="white" stroke="none" points="-4,4 -4,-1701.84 2169,-1701.84 2169,4 -4,4"/>
<!-- E0 -->
<g id="node1" class="node"><title>E0</title>
<ellipse fill="azure" stroke="black" cx="1296.5" cy="-1597.97" rx="33.8824" ry="26.7407"/>
<text text-anchor="middle" x="1296.5" y="-1601.77" font-family="Times,serif" font-size="14.00">bring</text>
<text text-anchor="middle" x="1296.5" y="-1586.77" font-family="Times,serif" font-size="14.00">0</text>
</g>
<!-- E1 -->
<g id="node2" class="node"><title>E1</title>
<ellipse fill="azure" stroke="black" cx="1226.5" cy="-1493.23" rx="27" ry="26.7407"/>
<text text-anchor="middle" x="1226.5" y="-1497.03" font-family="Times,serif" font-size="14.00">add</text>
<text text-anchor="middle" x="1226.5" y="-1482.03" font-family="Times,serif" font-size="14.00">1</text>
</g>
<!-- E0&#45;&gt;E1 -->
<g id="edge12" class="edge"><title>E0&#45;&gt;E1</title>
<path fill="none" stroke="black" d="M1280.79,-1573.91C1270.79,-1559.24 1257.74,-1540.08 1246.94,-1524.23"/>
<polygon fill="black" stroke="black" points="1249.72,-1522.1 1241.2,-1515.81 1243.94,-1526.04 1249.72,-1522.1"/>
<text text-anchor="middle" x="1316" y="-1541.9" font-family="Times,serif" font-size="14.00">IMPLICIT PREP</text>
</g>
<!-- E2 -->
<g id="node3" class="node"><title>E2</title>
<ellipse fill="azure" stroke="black" cx="1141.5" cy="-1388.49" rx="31.6406" ry="26.7407"/>
<text text-anchor="middle" x="1141.5" y="-1392.29" font-family="Times,serif" font-size="14.00">cook</text>
<text text-anchor="middle" x="1141.5" y="-1377.29" font-family="Times,serif" font-size="14.00">2</text>
</g>
<!-- E1&#45;&gt;E2 -->
<g id="edge13" class="edge"><title>E1&#45;&gt;E2</title>
<path fill="none" stroke="black" d="M1209.71,-1471.93C1197.23,-1456.86 1180.03,-1436.06 1166.02,-1419.13"/>
<polygon fill="black" stroke="black" points="1168.5,-1416.64 1159.43,-1411.17 1163.11,-1421.1 1168.5,-1416.64"/>
<text text-anchor="middle" x="1239.5" y="-1437.16" font-family="Times,serif" font-size="14.00">IMPLICIT DOBJ</text>
</g>
<!-- E3 -->
<g id="node4" class="node"><title>E3</title>
<ellipse fill="azure" stroke="black" cx="1141.5" cy="-1283.75" rx="33.4697" ry="26.7407"/>
<text text-anchor="middle" x="1141.5" y="-1287.55" font-family="Times,serif" font-size="14.00">drain</text>
<text text-anchor="middle" x="1141.5" y="-1272.55" font-family="Times,serif" font-size="14.00">3</text>
</g>
<!-- E2&#45;&gt;E3 -->
<g id="edge15" class="edge"><title>E2&#45;&gt;E3</title>
<path fill="none" stroke="black" d="M1141.5,-1361.57C1141.5,-1349.28 1141.5,-1334.39 1141.5,-1321"/>
<polygon fill="black" stroke="black" points="1145,-1320.67 1141.5,-1310.67 1138,-1320.67 1145,-1320.67"/>
<text text-anchor="middle" x="1192.5" y="-1332.42" font-family="Times,serif" font-size="14.00">IMPLICIT DOBJ</text>
</g>
<!-- E22 -->
<g id="node23" class="node"><title>E22</title>
<ellipse fill="azure" stroke="black" cx="1078.5" cy="-1179.01" rx="32.5538" ry="26.7407"/>
<text text-anchor="middle" x="1078.5" y="-1182.81" font-family="Times,serif" font-size="14.00">serve</text>
<text text-anchor="middle" x="1078.5" y="-1167.81" font-family="Times,serif" font-size="14.00">22</text>
</g>
<!-- E3&#45;&gt;E22 -->
<g id="edge52" class="edge"><title>E3&#45;&gt;E22</title>
<path fill="none" stroke="black" d="M1134.46,-1257.4C1130.86,-1246.61 1125.88,-1234.18 1119.5,-1223.88 1115.89,-1218.05 1111.42,-1212.31 1106.78,-1207.01"/>
<polygon fill="black" stroke="black" points="1109.28,-1204.57 1099.93,-1199.59 1104.14,-1209.31 1109.28,-1204.57"/>
<text text-anchor="middle" x="1237.5" y="-1227.68" font-family="Times,serif" font-size="14.00">COOBJECT:over cooked egg noodles</text>
</g>
<!-- E4 -->
<g id="node5" class="node"><title>E4</title>
<ellipse fill="azure" stroke="black" cx="1838.5" cy="-1597.97" rx="28.9828" ry="26.7407"/>
<text text-anchor="middle" x="1838.5" y="-1601.77" font-family="Times,serif" font-size="14.00">melt</text>
<text text-anchor="middle" x="1838.5" y="-1586.77" font-family="Times,serif" font-size="14.00">4</text>
</g>
<!-- E5 -->
<g id="node6" class="node"><title>E5</title>
<ellipse fill="azure" stroke="black" cx="1754.5" cy="-1493.23" rx="35.2113" ry="26.7407"/>
<text text-anchor="middle" x="1754.5" y="-1497.03" font-family="Times,serif" font-size="14.00">stir in</text>
<text text-anchor="middle" x="1754.5" y="-1482.03" font-family="Times,serif" font-size="14.00">5</text>
</g>
<!-- E4&#45;&gt;E5 -->
<g id="edge17" class="edge"><title>E4&#45;&gt;E5</title>
<path fill="none" stroke="black" d="M1821.5,-1576.18C1809.31,-1561.27 1792.69,-1540.94 1779.06,-1524.27"/>
<polygon fill="black" stroke="black" points="1781.68,-1521.94 1772.64,-1516.41 1776.26,-1526.37 1781.68,-1521.94"/>
<text text-anchor="middle" x="1852" y="-1541.9" font-family="Times,serif" font-size="14.00">IMPLICIT PREP</text>
</g>
<!-- E6 -->
<g id="node7" class="node"><title>E6</title>
<ellipse fill="azure" stroke="black" cx="1648.5" cy="-1388.49" rx="31.6406" ry="26.7407"/>
<text text-anchor="middle" x="1648.5" y="-1392.29" font-family="Times,serif" font-size="14.00">cook</text>
<text text-anchor="middle" x="1648.5" y="-1377.29" font-family="Times,serif" font-size="14.00">6</text>
</g>
<!-- E5&#45;&gt;E6 -->
<g id="edge18" class="edge"><title>E5&#45;&gt;E6</title>
<path fill="none" stroke="black" d="M1733.3,-1471.69C1716.92,-1455.8 1694.09,-1433.68 1676.25,-1416.39"/>
<polygon fill="black" stroke="black" points="1678.56,-1413.75 1668.94,-1409.3 1673.68,-1418.77 1678.56,-1413.75"/>
<text text-anchor="middle" x="1758.5" y="-1437.16" font-family="Times,serif" font-size="14.00">IMPLICIT DOBJ</text>
</g>
<!-- E7 -->
<g id="node8" class="node"><title>E7</title>
<ellipse fill="azure" stroke="black" cx="1571.5" cy="-1283.75" rx="38.3684" ry="26.7407"/>
<text text-anchor="middle" x="1571.5" y="-1287.55" font-family="Times,serif" font-size="14.00">mix in</text>
<text text-anchor="middle" x="1571.5" y="-1272.55" font-family="Times,serif" font-size="14.00">7</text>
</g>
<!-- E6&#45;&gt;E7 -->
<g id="edge21" class="edge"><title>E6&#45;&gt;E7</title>
<path fill="none" stroke="black" d="M1631.98,-1365.45C1621.14,-1350.99 1606.81,-1331.87 1594.82,-1315.87"/>
<polygon fill="black" stroke="black" points="1597.59,-1313.73 1588.79,-1307.82 1591.99,-1317.93 1597.59,-1313.73"/>
<text text-anchor="middle" x="1665" y="-1332.42" font-family="Times,serif" font-size="14.00">IMPLICIT PREP</text>
</g>
<!-- E8 -->
<g id="node9" class="node"><title>E8</title>
<ellipse fill="azure" stroke="black" cx="1489.5" cy="-1179.01" rx="82.9636" ry="26.7407"/>
<text text-anchor="middle" x="1489.5" y="-1182.81" font-family="Times,serif" font-size="14.00">continue cooking</text>
<text text-anchor="middle" x="1489.5" y="-1167.81" font-family="Times,serif" font-size="14.00">8</text>
</g>
<!-- E7&#45;&gt;E8 -->
<g id="edge22" class="edge"><title>E7&#45;&gt;E8</title>
<path fill="none" stroke="black" d="M1553.3,-1259.95C1542.39,-1246.28 1528.33,-1228.66 1516.18,-1213.44"/>
<polygon fill="black" stroke="black" points="1518.63,-1210.9 1509.66,-1205.27 1513.16,-1215.27 1518.63,-1210.9"/>
<text text-anchor="middle" x="1585.5" y="-1227.68" font-family="Times,serif" font-size="14.00">IMPLICIT DOBJ</text>
</g>
<!-- E9 -->
<g id="node10" class="node"><title>E9</title>
<ellipse fill="azure" stroke="black" cx="1363.5" cy="-1074.27" rx="32.5538" ry="26.7407"/>
<text text-anchor="middle" x="1363.5" y="-1078.07" font-family="Times,serif" font-size="14.00">place</text>
<text text-anchor="middle" x="1363.5" y="-1063.07" font-family="Times,serif" font-size="14.00">9</text>
</g>
<!-- E8&#45;&gt;E9 -->
<g id="edge25" class="edge"><title>E8&#45;&gt;E9</title>
<path fill="none" stroke="black" d="M1459.64,-1153.66C1439.81,-1137.5 1413.86,-1116.34 1393.92,-1100.08"/>
<polygon fill="black" stroke="black" points="1396.01,-1097.27 1386.05,-1093.66 1391.59,-1102.69 1396.01,-1097.27"/>
<text text-anchor="middle" x="1506" y="-1122.94" font-family="Times,serif" font-size="14.00">LOCATION:in saucepan</text>
</g>
<!-- E10 -->
<g id="node11" class="node"><title>E10</title>
<ellipse fill="azure" stroke="black" cx="1274.5" cy="-969.531" rx="31.6406" ry="26.7407"/>
<text text-anchor="middle" x="1274.5" y="-973.331" font-family="Times,serif" font-size="14.00">cook</text>
<text text-anchor="middle" x="1274.5" y="-958.331" font-family="Times,serif" font-size="14.00">10</text>
</g>
<!-- E9&#45;&gt;E10 -->
<g id="edge26" class="edge"><title>E9&#45;&gt;E10</title>
<path fill="none" stroke="black" d="M1345.06,-1051.98C1331.93,-1036.83 1314.14,-1016.29 1299.7,-999.62"/>
<polygon fill="black" stroke="black" points="1302.11,-997.058 1292.92,-991.792 1296.82,-1001.64 1302.11,-997.058"/>
<text text-anchor="middle" x="1374.5" y="-1018.2" font-family="Times,serif" font-size="14.00">IMPLICIT DOBJ</text>
</g>
<!-- E11 -->
<g id="node12" class="node"><title>E11</title>
<ellipse fill="azure" stroke="black" cx="1147.5" cy="-864.791" rx="38.3684" ry="26.7407"/>
<text text-anchor="middle" x="1147.5" y="-868.591" font-family="Times,serif" font-size="14.00">mix in</text>
<text text-anchor="middle" x="1147.5" y="-853.591" font-family="Times,serif" font-size="14.00">11</text>
</g>
<!-- E10&#45;&gt;E11 -->
<g id="edge29" class="edge"><title>E10&#45;&gt;E11</title>
<path fill="none" stroke="black" d="M1252.09,-950.4C1232.05,-934.187 1202.44,-910.233 1179.83,-891.948"/>
<polygon fill="black" stroke="black" points="1181.83,-889.06 1171.85,-885.492 1177.43,-894.503 1181.83,-889.06"/>
<text text-anchor="middle" x="1269" y="-913.461" font-family="Times,serif" font-size="14.00">IMPLICIT PREP</text>
</g>
<!-- E12 -->
<g id="node13" class="node"><title>E12</title>
<ellipse fill="azure" stroke="black" cx="1068.5" cy="-760.051" rx="33.8824" ry="26.7407"/>
<text text-anchor="middle" x="1068.5" y="-763.851" font-family="Times,serif" font-size="14.00">bring</text>
<text text-anchor="middle" x="1068.5" y="-748.851" font-family="Times,serif" font-size="14.00">12</text>
</g>
<!-- E11&#45;&gt;E12 -->
<g id="edge30" class="edge"><title>E11&#45;&gt;E12</title>
<path fill="none" stroke="black" d="M1129.77,-840.734C1118.54,-826.124 1103.89,-807.07 1091.73,-791.258"/>
<polygon fill="black" stroke="black" points="1094.5,-789.119 1085.63,-783.325 1088.95,-793.386 1094.5,-789.119"/>
<text text-anchor="middle" x="1163.5" y="-808.721" font-family="Times,serif" font-size="14.00">IMPLICIT DOBJ</text>
</g>
<!-- E14 -->
<g id="node15" class="node"><title>E14</title>
<ellipse fill="azure" stroke="black" cx="961.5" cy="-655.311" rx="57.9655" ry="26.7407"/>
<text text-anchor="middle" x="961.5" y="-659.111" font-family="Times,serif" font-size="14.00">reduce heat</text>
<text text-anchor="middle" x="961.5" y="-644.111" font-family="Times,serif" font-size="14.00">14</text>
</g>
<!-- E12&#45;&gt;E14 -->
<g id="edge32" class="edge"><title>E12&#45;&gt;E14</title>
<path fill="none" stroke="black" d="M1047.36,-738.753C1031.91,-723.913 1010.68,-703.533 993.201,-686.749"/>
<polygon fill="black" stroke="black" points="995.604,-684.204 985.966,-679.803 990.755,-689.254 995.604,-684.204"/>
<text text-anchor="middle" x="1046.5" y="-703.981" font-family="Times,serif" font-size="14.00">saucepan</text>
</g>
<!-- E13 -->
<g id="node14" class="node"><title>E13</title>
<ellipse fill="azure" stroke="black" cx="481.5" cy="-655.311" rx="34.7971" ry="26.7407"/>
<text text-anchor="middle" x="481.5" y="-659.111" font-family="Times,serif" font-size="14.00">blend</text>
<text text-anchor="middle" x="481.5" y="-644.111" font-family="Times,serif" font-size="14.00">13</text>
</g>
<!-- E15 -->
<g id="node16" class="node"><title>E15</title>
<ellipse fill="azure" stroke="black" cx="737.5" cy="-550.571" rx="31.2258" ry="26.7407"/>
<text text-anchor="middle" x="737.5" y="-554.371" font-family="Times,serif" font-size="14.00">pour</text>
<text text-anchor="middle" x="737.5" y="-539.371" font-family="Times,serif" font-size="14.00">15</text>
</g>
<!-- E13&#45;&gt;E15 -->
<g id="edge34" class="edge"><title>E13&#45;&gt;E15</title>
<path fill="none" stroke="black" d="M509.993,-639.607C517.3,-635.905 525.168,-631.979 532.5,-628.441 564.203,-613.142 570.982,-606.195 604.5,-595.441 644.588,-582.579 658.444,-593.16 697.5,-577.441 700.161,-576.37 702.836,-575.114 705.471,-573.743"/>
<polygon fill="black" stroke="black" points="707.266,-576.748 714.203,-568.741 703.786,-570.674 707.266,-576.748"/>
<text text-anchor="middle" x="643.5" y="-599.241" font-family="Times,serif" font-size="14.00">flour mixture</text>
</g>
<!-- E14&#45;&gt;E15 -->
<g id="edge35" class="edge"><title>E14&#45;&gt;E15</title>
<path fill="none" stroke="black" d="M921.195,-635.824C879.331,-616.623 814.414,-586.848 774.013,-568.318"/>
<polygon fill="black" stroke="black" points="775.342,-565.077 764.793,-564.089 772.423,-571.439 775.342,-565.077"/>
<text text-anchor="middle" x="940.5" y="-599.241" font-family="Times,serif" font-size="14.00">LOCATION:into saucepan</text>
</g>
<!-- E16 -->
<g id="node17" class="node"><title>E16</title>
<ellipse fill="azure" stroke="black" cx="443.5" cy="-445.831" rx="36.5405" ry="26.7407"/>
<text text-anchor="middle" x="443.5" y="-449.631" font-family="Times,serif" font-size="14.00">return</text>
<text text-anchor="middle" x="443.5" y="-434.631" font-family="Times,serif" font-size="14.00">16</text>
</g>
<!-- E15&#45;&gt;E16 -->
<g id="edge38" class="edge"><title>E15&#45;&gt;E16</title>
<path fill="none" stroke="black" d="M714.014,-532.838C708.737,-529.521 703.053,-526.274 697.5,-523.701 627.548,-491.281 540.514,-468.399 488.621,-456.438"/>
<polygon fill="black" stroke="black" points="489.253,-452.993 478.726,-454.192 487.703,-459.819 489.253,-452.993"/>
<text text-anchor="middle" x="701.5" y="-494.501" font-family="Times,serif" font-size="14.00">IMPLICIT DOBJ</text>
</g>
<!-- E17 -->
<g id="node18" class="node"><title>E17</title>
<ellipse fill="azure" stroke="black" cx="443.5" cy="-341.09" rx="33.8824" ry="26.7407"/>
<text text-anchor="middle" x="443.5" y="-344.89" font-family="Times,serif" font-size="14.00">cover</text>
<text text-anchor="middle" x="443.5" y="-329.89" font-family="Times,serif" font-size="14.00">17</text>
</g>
<!-- E16&#45;&gt;E17 -->
<g id="edge42" class="edge"><title>E16&#45;&gt;E17</title>
<path fill="none" stroke="black" d="M443.5,-418.905C443.5,-406.615 443.5,-391.727 443.5,-378.342"/>
<polygon fill="black" stroke="black" points="447,-378.008 443.5,-368.008 440,-378.008 447,-378.008"/>
<text text-anchor="middle" x="469.5" y="-389.76" font-family="Times,serif" font-size="14.00">saucepan</text>
</g>
<!-- E18 -->
<g id="node19" class="node"><title>E18</title>
<ellipse fill="azure" stroke="black" cx="297.5" cy="-236.35" rx="82.9636" ry="26.7407"/>
<text text-anchor="middle" x="297.5" y="-240.15" font-family="Times,serif" font-size="14.00">continue cooking</text>
<text text-anchor="middle" x="297.5" y="-225.15" font-family="Times,serif" font-size="14.00">18</text>
</g>
<!-- E17&#45;&gt;E18 -->
<g id="edge43" class="edge"><title>E17&#45;&gt;E18</title>
<path fill="none" stroke="black" d="M418.733,-322.662C397.097,-307.437 365.23,-285.012 339.597,-266.974"/>
<polygon fill="black" stroke="black" points="341.36,-263.934 331.167,-261.042 337.331,-269.659 341.36,-263.934"/>
<text text-anchor="middle" x="429.5" y="-285.02" font-family="Times,serif" font-size="14.00">IMPLICIT DOBJ</text>
</g>
<!-- E19 -->
<g id="node20" class="node"><title>E19</title>
<ellipse fill="azure" stroke="black" cx="174.5" cy="-131.61" rx="41.9398" ry="26.7407"/>
<text text-anchor="middle" x="174.5" y="-135.41" font-family="Times,serif" font-size="14.00">remove</text>
<text text-anchor="middle" x="174.5" y="-120.41" font-family="Times,serif" font-size="14.00">19</text>
</g>
<!-- E18&#45;&gt;E19 -->
<g id="edge46" class="edge"><title>E18&#45;&gt;E19</title>
<path fill="none" stroke="black" d="M268.351,-211.002C249.951,-195.633 226.151,-175.754 207.122,-159.859"/>
<polygon fill="black" stroke="black" points="209.208,-157.041 199.289,-153.316 204.72,-162.413 209.208,-157.041"/>
<text text-anchor="middle" x="293.5" y="-180.28" font-family="Times,serif" font-size="14.00">IMPLICIT DOBJ</text>
</g>
<!-- E20 -->
<g id="node21" class="node"><title>E20</title>
<ellipse fill="azure" stroke="black" cx="94.5" cy="-26.8701" rx="41.9398" ry="26.7407"/>
<text text-anchor="middle" x="94.5" y="-30.6701" font-family="Times,serif" font-size="14.00">let cool</text>
<text text-anchor="middle" x="94.5" y="-15.6701" font-family="Times,serif" font-size="14.00">20</text>
</g>
<!-- E19&#45;&gt;E20 -->
<g id="edge48" class="edge"><title>E19&#45;&gt;E20</title>
<path fill="none" stroke="black" d="M156.347,-107.297C145.3,-93.11 131.046,-74.8049 119.007,-59.3438"/>
<polygon fill="black" stroke="black" points="121.487,-56.8309 112.581,-51.0911 115.964,-61.1316 121.487,-56.8309"/>
<text text-anchor="middle" x="189.5" y="-75.5401" font-family="Times,serif" font-size="14.00">IMPLICIT DOBJ</text>
</g>
<!-- E21 -->
<g id="node22" class="node"><title>E21</title>
<ellipse fill="azure" stroke="black" cx="1016.5" cy="-1283.75" rx="35.2113" ry="26.7407"/>
<text text-anchor="middle" x="1016.5" y="-1287.55" font-family="Times,serif" font-size="14.00">stir in</text>
<text text-anchor="middle" x="1016.5" y="-1272.55" font-family="Times,serif" font-size="14.00">21</text>
</g>
<!-- E21&#45;&gt;E22 -->
<g id="edge51" class="edge"><title>E21&#45;&gt;E22</title>
<path fill="none" stroke="black" d="M1012.02,-1256.87C1011.37,-1246.11 1012.29,-1233.84 1017.5,-1223.88 1022.97,-1213.42 1032.2,-1204.88 1041.84,-1198.2"/>
<polygon fill="black" stroke="black" points="1043.77,-1201.12 1050.34,-1192.81 1040.02,-1195.21 1043.77,-1201.12"/>
<text text-anchor="middle" x="1068.5" y="-1227.68" font-family="Times,serif" font-size="14.00">IMPLICIT DOBJ</text>
</g>
<!-- EOR -->
<g id="node55" class="node"><title>EOR</title>
<ellipse fill="plum" stroke="black" cx="1078.5" cy="-1074.27" rx="57.3905" ry="18"/>
<text text-anchor="middle" x="1078.5" y="-1070.57" font-family="Times,serif" font-size="14.00">Bon appetit!</text>
</g>
<!-- E22&#45;&gt;EOR -->
<g id="edge53" class="edge"><title>E22&#45;&gt;EOR</title>
<path fill="none" stroke="black" d="M1078.5,-1152.09C1078.5,-1137.07 1078.5,-1118.16 1078.5,-1102.87"/>
<polygon fill="black" stroke="black" points="1082,-1102.47 1078.5,-1092.47 1075,-1102.47 1082,-1102.47"/>
</g>
<!-- D0 -->
<g id="node24" class="node"><title>D0</title>
<polygon fill="peachpuff" stroke="black" points="1278.5,-1697.84 1028.5,-1697.84 1028.5,-1661.84 1278.5,-1661.84 1278.5,-1697.84"/>
<text text-anchor="middle" x="1153.5" y="-1676.14" font-family="Times,serif" font-size="14.00">DOBJ: a large pot of lightly salted water</text>
</g>
<!-- D0&#45;&gt;E0 -->
<g id="edge1" class="edge"><title>D0&#45;&gt;E0</title>
<path fill="none" stroke="black" d="M1186.53,-1661.83C1206.39,-1651.44 1232.09,-1637.72 1254.5,-1624.84 1256.86,-1623.49 1259.27,-1622.07 1261.7,-1620.63"/>
<polygon fill="black" stroke="black" points="1263.68,-1623.53 1270.44,-1615.37 1260.06,-1617.53 1263.68,-1623.53"/>
</g>
<!-- O0_0 -->
<g id="node25" class="node"><title>O0_0</title>
<polygon fill="white" stroke="black" points="1416,-1697.84 1297,-1697.84 1297,-1661.84 1416,-1661.84 1416,-1697.84"/>
<text text-anchor="middle" x="1356.5" y="-1676.14" font-family="Times,serif" font-size="14.00">OTHER: to a boil</text>
</g>
<!-- O0_0&#45;&gt;E0 -->
<g id="edge2" class="edge"><title>O0_0&#45;&gt;E0</title>
<path fill="none" stroke="black" d="M1343.48,-1661.51C1336.45,-1652.15 1327.56,-1640.32 1319.42,-1629.48"/>
<polygon fill="black" stroke="black" points="1322.18,-1627.33 1313.37,-1621.43 1316.58,-1631.53 1322.18,-1627.33"/>
</g>
<!-- D4 -->
<g id="node26" class="node"><title>D4</title>
<polygon fill="peachpuff" stroke="black" points="1718.5,-1697.84 1624.5,-1697.84 1624.5,-1661.84 1718.5,-1661.84 1718.5,-1697.84"/>
<text text-anchor="middle" x="1671.5" y="-1676.14" font-family="Times,serif" font-size="14.00">DOBJ: butter</text>
</g>
<!-- D4&#45;&gt;E4 -->
<g id="edge3" class="edge"><title>D4&#45;&gt;E4</title>
<path fill="none" stroke="black" d="M1718.52,-1661.79C1743.45,-1652.1 1774.25,-1639.08 1800.5,-1624.84 1802.77,-1623.61 1805.08,-1622.28 1807.37,-1620.88"/>
<polygon fill="black" stroke="black" points="1809.52,-1623.67 1816.06,-1615.34 1805.75,-1617.77 1809.52,-1623.67"/>
</g>
<!-- P4_0 -->
<g id="node27" class="node"><title>P4_0</title>
<polygon fill="white" stroke="black" points="1940,-1697.84 1737,-1697.84 1737,-1661.84 1940,-1661.84 1940,-1697.84"/>
<text text-anchor="middle" x="1838.5" y="-1676.14" font-family="Times,serif" font-size="14.00">LOCATION:in a large saucepan</text>
</g>
<!-- P4_0&#45;&gt;E4 -->
<g id="edge4" class="edge"><title>P4_0&#45;&gt;E4</title>
<path fill="none" stroke="black" d="M1838.5,-1661.51C1838.5,-1653.78 1838.5,-1644.36 1838.5,-1635.2"/>
<polygon fill="black" stroke="black" points="1842,-1635.08 1838.5,-1625.08 1835,-1635.08 1842,-1635.08"/>
</g>
<!-- O4_0 -->
<g id="node28" class="node"><title>O4_0</title>
<polygon fill="white" stroke="black" points="2165,-1697.84 1958,-1697.84 1958,-1661.84 2165,-1661.84 2165,-1697.84"/>
<text text-anchor="middle" x="2061.5" y="-1676.14" font-family="Times,serif" font-size="14.00">OTHER: over medium&#45;high heat</text>
</g>
<!-- O4_0&#45;&gt;E4 -->
<g id="edge5" class="edge"><title>O4_0&#45;&gt;E4</title>
<path fill="none" stroke="black" d="M2013.93,-1661.81C1972.37,-1646.92 1912.89,-1625.62 1874.99,-1612.04"/>
<polygon fill="black" stroke="black" points="1875.97,-1608.67 1865.37,-1608.6 1873.61,-1615.26 1875.97,-1608.67"/>
</g>
<!-- D13 -->
<g id="node29" class="node"><title>D13</title>
<polygon fill="peachpuff" stroke="black" points="167,-778.051 78,-778.051 78,-742.051 167,-742.051 167,-778.051"/>
<text text-anchor="middle" x="122.5" y="-756.351" font-family="Times,serif" font-size="14.00">DOBJ: flour</text>
</g>
<!-- D13&#45;&gt;E13 -->
<g id="edge6" class="edge"><title>D13&#45;&gt;E13</title>
<path fill="none" stroke="black" d="M155.468,-741.977C162.314,-738.797 169.559,-735.69 176.5,-733.181 267.283,-700.368 378.121,-676.218 438.03,-664.413"/>
<polygon fill="black" stroke="black" points="438.756,-667.837 447.902,-662.489 437.417,-660.966 438.756,-667.837"/>
</g>
<!-- P13_0 -->
<g id="node30" class="node"><title>P13_0</title>
<polygon fill="white" stroke="black" points="367.5,-778.051 185.5,-778.051 185.5,-742.051 367.5,-742.051 367.5,-778.051"/>
<text text-anchor="middle" x="276.5" y="-756.351" font-family="Times,serif" font-size="14.00">LOCATION:in a small bowl</text>
</g>
<!-- P13_0&#45;&gt;E13 -->
<g id="edge7" class="edge"><title>P13_0&#45;&gt;E13</title>
<path fill="none" stroke="black" d="M310.812,-741.854C347.484,-723.476 405.467,-694.416 443.498,-675.356"/>
<polygon fill="black" stroke="black" points="445.339,-678.348 452.711,-670.739 442.203,-672.09 445.339,-678.348"/>
</g>
<!-- P13_1 -->
<g id="node31" class="node"><title>P13_1</title>
<polygon fill="peachpuff" stroke="black" points="569.5,-778.051 385.5,-778.051 385.5,-742.051 569.5,-742.051 569.5,-778.051"/>
<text text-anchor="middle" x="477.5" y="-756.351" font-family="Times,serif" font-size="14.00">COOBJECT:with cold water</text>
</g>
<!-- P13_1&#45;&gt;E13 -->
<g id="edge8" class="edge"><title>P13_1&#45;&gt;E13</title>
<path fill="none" stroke="black" d="M478.179,-741.622C478.703,-728.158 479.446,-709.062 480.097,-692.35"/>
<polygon fill="black" stroke="black" points="483.595,-692.452 480.487,-682.324 476.601,-692.18 483.595,-692.452"/>
</g>
<!-- O13_0 -->
<g id="node32" class="node"><title>O13_0</title>
<polygon fill="white" stroke="black" points="725,-778.051 588,-778.051 588,-742.051 725,-742.051 725,-778.051"/>
<text text-anchor="middle" x="656.5" y="-756.351" font-family="Times,serif" font-size="14.00">OTHER: thoroughly</text>
</g>
<!-- O13_0&#45;&gt;E13 -->
<g id="edge9" class="edge"><title>O13_0&#45;&gt;E13</title>
<path fill="none" stroke="black" d="M627.209,-741.854C596.97,-724.101 549.755,-696.382 517.315,-677.337"/>
<polygon fill="black" stroke="black" points="518.979,-674.255 508.583,-672.211 515.435,-680.292 518.979,-674.255"/>
</g>
<!-- O13_1 -->
<g id="node33" class="node"><title>O13_1</title>
<polygon fill="white" stroke="black" points="888,-778.051 743,-778.051 743,-742.051 888,-742.051 888,-778.051"/>
<text text-anchor="middle" x="815.5" y="-756.351" font-family="Times,serif" font-size="14.00">OTHER: until smooth</text>
</g>
<!-- O13_1&#45;&gt;E13 -->
<g id="edge10" class="edge"><title>O13_1&#45;&gt;E13</title>
<path fill="none" stroke="black" d="M763.792,-742.011C754.091,-738.964 744.01,-735.897 734.5,-733.181 645.466,-707.75 619.212,-714.658 532.5,-682.181 527.741,-680.398 522.846,-678.294 518.06,-676.069"/>
<polygon fill="black" stroke="black" points="519.578,-672.915 509.054,-671.691 516.518,-679.211 519.578,-672.915"/>
</g>
<!-- D1_ing -->
<g id="node34" class="node"><title>D1_ing</title>
<polygon fill="peachpuff" stroke="black" points="1245,-1615.97 1140,-1615.97 1140,-1579.97 1245,-1579.97 1245,-1615.97"/>
<text text-anchor="middle" x="1192.5" y="-1594.27" font-family="Times,serif" font-size="14.00">DOBJ: noodles</text>
</g>
<!-- D1_ing&#45;&gt;E1 -->
<g id="edge11" class="edge"><title>D1_ing&#45;&gt;E1</title>
<path fill="none" stroke="black" d="M1198.27,-1579.54C1202.86,-1565.66 1209.43,-1545.8 1215.08,-1528.74"/>
<polygon fill="black" stroke="black" points="1218.46,-1529.67 1218.28,-1519.08 1211.81,-1527.47 1218.46,-1529.67"/>
</g>
<!-- O2_0_0 -->
<g id="node35" class="node"><title>O2_0_0</title>
<polygon fill="white" stroke="black" points="1181,-1511.23 932,-1511.23 932,-1475.23 1181,-1475.23 1181,-1511.23"/>
<text text-anchor="middle" x="1056.5" y="-1489.53" font-family="Times,serif" font-size="14.00">OTHER: 5 to 7 minutes or until al dente</text>
</g>
<!-- O2_0_0&#45;&gt;E2 -->
<g id="edge14" class="edge"><title>O2_0_0&#45;&gt;E2</title>
<path fill="none" stroke="black" d="M1070.92,-1474.8C1083.57,-1459.51 1102.23,-1436.96 1117.19,-1418.88"/>
<polygon fill="black" stroke="black" points="1120.08,-1420.87 1123.76,-1410.93 1114.69,-1416.41 1120.08,-1420.87"/>
</g>
<!-- D5_ing -->
<g id="node36" class="node"><title>D5_ing</title>
<polygon fill="peachpuff" stroke="black" points="1791.5,-1615.97 1653.5,-1615.97 1653.5,-1579.97 1791.5,-1579.97 1791.5,-1615.97"/>
<text text-anchor="middle" x="1722.5" y="-1594.27" font-family="Times,serif" font-size="14.00">DOBJ: onions, garlic</text>
</g>
<!-- D5_ing&#45;&gt;E5 -->
<g id="edge16" class="edge"><title>D5_ing&#45;&gt;E5</title>
<path fill="none" stroke="black" d="M1727.93,-1579.54C1732.22,-1565.76 1738.35,-1546.08 1743.64,-1529.09"/>
<polygon fill="black" stroke="black" points="1747.01,-1530.05 1746.64,-1519.46 1740.33,-1527.97 1747.01,-1530.05"/>
</g>
<!-- O6_0_0 -->
<g id="node37" class="node"><title>O6_0_0</title>
<polygon fill="white" stroke="black" points="1701,-1511.23 1516,-1511.23 1516,-1475.23 1701,-1475.23 1701,-1511.23"/>
<text text-anchor="middle" x="1608.5" y="-1489.53" font-family="Times,serif" font-size="14.00">OTHER: until slightly tender</text>
</g>
<!-- O6_0_0&#45;&gt;E6 -->
<g id="edge19" class="edge"><title>O6_0_0&#45;&gt;E6</title>
<path fill="none" stroke="black" d="M1615.29,-1474.8C1620.69,-1460.92 1628.42,-1441.06 1635.07,-1424"/>
<polygon fill="black" stroke="black" points="1638.46,-1424.92 1638.83,-1414.34 1631.94,-1422.38 1638.46,-1424.92"/>
</g>
<!-- D7_ing -->
<g id="node38" class="node"><title>D7_ing</title>
<polygon fill="peachpuff" stroke="black" points="1598.5,-1406.49 1470.5,-1406.49 1470.5,-1370.49 1598.5,-1370.49 1598.5,-1406.49"/>
<text text-anchor="middle" x="1534.5" y="-1384.79" font-family="Times,serif" font-size="14.00">DOBJ: mushrooms</text>
</g>
<!-- D7_ing&#45;&gt;E7 -->
<g id="edge20" class="edge"><title>D7_ing&#45;&gt;E7</title>
<path fill="none" stroke="black" d="M1540.78,-1370.06C1545.74,-1356.28 1552.83,-1336.6 1558.95,-1319.61"/>
<polygon fill="black" stroke="black" points="1562.32,-1320.58 1562.41,-1309.98 1555.73,-1318.21 1562.32,-1320.58"/>
</g>
<!-- O8_0_0 -->
<g id="node39" class="node"><title>O8_0_0</title>
<polygon fill="white" stroke="black" points="1515.5,-1301.75 1387.5,-1301.75 1387.5,-1265.75 1515.5,-1265.75 1515.5,-1301.75"/>
<text text-anchor="middle" x="1451.5" y="-1280.05" font-family="Times,serif" font-size="14.00">OTHER: 2 minutes</text>
</g>
<!-- O8_0_0&#45;&gt;E8 -->
<g id="edge23" class="edge"><title>O8_0_0&#45;&gt;E8</title>
<path fill="none" stroke="black" d="M1457.95,-1265.32C1462.97,-1251.73 1470.12,-1232.4 1476.35,-1215.58"/>
<polygon fill="black" stroke="black" points="1479.69,-1216.62 1479.88,-1206.02 1473.13,-1214.19 1479.69,-1216.62"/>
</g>
<!-- D9_ing -->
<g id="node40" class="node"><title>D9_ing</title>
<polygon fill="peachpuff" stroke="black" points="1389,-1197.01 1266,-1197.01 1266,-1161.01 1389,-1161.01 1389,-1197.01"/>
<text text-anchor="middle" x="1327.5" y="-1175.31" font-family="Times,serif" font-size="14.00">DOBJ: steak strips</text>
</g>
<!-- D9_ing&#45;&gt;E9 -->
<g id="edge24" class="edge"><title>D9_ing&#45;&gt;E9</title>
<path fill="none" stroke="black" d="M1333.61,-1160.58C1338.44,-1146.8 1345.33,-1127.12 1351.29,-1110.13"/>
<polygon fill="black" stroke="black" points="1354.66,-1111.1 1354.66,-1100.5 1348.05,-1108.78 1354.66,-1111.1"/>
</g>
<!-- O10_0_0 -->
<g id="node41" class="node"><title>O10_0_0</title>
<polygon fill="white" stroke="black" points="1313,-1092.27 1154,-1092.27 1154,-1056.27 1313,-1056.27 1313,-1092.27"/>
<text text-anchor="middle" x="1233.5" y="-1070.57" font-family="Times,serif" font-size="14.00">OTHER: about 1 minute</text>
</g>
<!-- O10_0_0&#45;&gt;E10 -->
<g id="edge27" class="edge"><title>O10_0_0&#45;&gt;E10</title>
<path fill="none" stroke="black" d="M1240.46,-1055.84C1245.99,-1041.96 1253.92,-1022.1 1260.73,-1005.03"/>
<polygon fill="black" stroke="black" points="1264.13,-1005.96 1264.59,-995.375 1257.63,-1003.37 1264.13,-1005.96"/>
</g>
<!-- D11_ing -->
<g id="node42" class="node"><title>D11_ing</title>
<polygon fill="peachpuff" stroke="black" points="1224.5,-987.531 964.5,-987.531 964.5,-951.531 1224.5,-951.531 1224.5,-987.531"/>
<text text-anchor="middle" x="1094.5" y="-965.831" font-family="Times,serif" font-size="14.00">DOBJ: consomme, burgundy, lemon juice</text>
</g>
<!-- D11_ing&#45;&gt;E11 -->
<g id="edge28" class="edge"><title>D11_ing&#45;&gt;E11</title>
<path fill="none" stroke="black" d="M1103.49,-951.103C1110.77,-936.998 1121.23,-916.713 1130.13,-899.462"/>
<polygon fill="black" stroke="black" points="1133.41,-900.741 1134.88,-890.249 1127.19,-897.531 1133.41,-900.741"/>
</g>
<!-- O12_0_0 -->
<g id="node43" class="node"><title>O12_0_0</title>
<polygon fill="white" stroke="black" points="1091,-882.791 972,-882.791 972,-846.791 1091,-846.791 1091,-882.791"/>
<text text-anchor="middle" x="1031.5" y="-861.091" font-family="Times,serif" font-size="14.00">OTHER: to a boil</text>
</g>
<!-- O12_0_0&#45;&gt;E12 -->
<g id="edge31" class="edge"><title>O12_0_0&#45;&gt;E12</title>
<path fill="none" stroke="black" d="M1037.78,-846.363C1042.74,-832.579 1049.83,-812.896 1055.95,-795.908"/>
<polygon fill="black" stroke="black" points="1059.32,-796.877 1059.41,-786.283 1052.73,-794.505 1059.32,-796.877"/>
</g>
<!-- O14_0_0 -->
<g id="node44" class="node"><title>O14_0_0</title>
<polygon fill="white" stroke="black" points="1016.5,-778.051 906.5,-778.051 906.5,-742.051 1016.5,-742.051 1016.5,-778.051"/>
<text text-anchor="middle" x="961.5" y="-756.351" font-family="Times,serif" font-size="14.00">OTHER: to low</text>
</g>
<!-- O14_0_0&#45;&gt;E14 -->
<g id="edge33" class="edge"><title>O14_0_0&#45;&gt;E14</title>
<path fill="none" stroke="black" d="M961.5,-741.622C961.5,-728.158 961.5,-709.062 961.5,-692.35"/>
<polygon fill="black" stroke="black" points="965,-692.324 961.5,-682.324 958,-692.324 965,-692.324"/>
</g>
<!-- O15_0_0 -->
<g id="node45" class="node"><title>O15_0_0</title>
<polygon fill="white" stroke="black" points="753.5,-673.311 541.5,-673.311 541.5,-637.311 753.5,-637.311 753.5,-673.311"/>
<text text-anchor="middle" x="647.5" y="-651.611" font-family="Times,serif" font-size="14.00">OTHER: while stirring constantly</text>
</g>
<!-- O15_0_0&#45;&gt;E15 -->
<g id="edge36" class="edge"><title>O15_0_0&#45;&gt;E15</title>
<path fill="none" stroke="black" d="M662.767,-636.882C676.249,-621.492 696.176,-598.744 712.063,-580.608"/>
<polygon fill="black" stroke="black" points="715.084,-582.471 719.041,-572.643 709.819,-577.858 715.084,-582.471"/>
</g>
<!-- O15_1_0 -->
<g id="node46" class="node"><title>O15_1_0</title>
<polygon fill="white" stroke="black" points="883,-673.311 772,-673.311 772,-637.311 883,-637.311 883,-673.311"/>
<text text-anchor="middle" x="827.5" y="-651.611" font-family="Times,serif" font-size="14.00">OTHER: slowly</text>
</g>
<!-- O15_1_0&#45;&gt;E15 -->
<g id="edge37" class="edge"><title>O15_1_0&#45;&gt;E15</title>
<path fill="none" stroke="black" d="M812.233,-636.882C798.751,-621.492 778.824,-598.744 762.937,-580.608"/>
<polygon fill="black" stroke="black" points="765.181,-577.858 755.959,-572.643 759.916,-582.471 765.181,-577.858"/>
</g>
<!-- O16_0_0 -->
<g id="node47" class="node"><title>O16_0_0</title>
<polygon fill="white" stroke="black" points="207.5,-568.571 97.5,-568.571 97.5,-532.571 207.5,-532.571 207.5,-568.571"/>
<text text-anchor="middle" x="152.5" y="-546.871" font-family="Times,serif" font-size="14.00">OTHER: to boil</text>
</g>
<!-- O16_0_0&#45;&gt;E16 -->
<g id="edge39" class="edge"><title>O16_0_0&#45;&gt;E16</title>
<path fill="none" stroke="black" d="M194.338,-532.556C202.016,-529.537 209.979,-526.474 217.5,-523.701 280.895,-500.321 355.206,-475.542 400.817,-460.63"/>
<polygon fill="black" stroke="black" points="401.957,-463.939 410.378,-457.511 399.786,-457.285 401.957,-463.939"/>
</g>
<!-- O16_1_0 -->
<g id="node48" class="node"><title>O16_1_0</title>
<polygon fill="white" stroke="black" points="421,-568.571 226,-568.571 226,-532.571 421,-532.571 421,-568.571"/>
<text text-anchor="middle" x="323.5" y="-546.871" font-family="Times,serif" font-size="14.00">OTHER: while stirring rapidly</text>
</g>
<!-- O16_1_0&#45;&gt;E16 -->
<g id="edge40" class="edge"><title>O16_1_0&#45;&gt;E16</title>
<path fill="none" stroke="black" d="M343.585,-532.374C362.363,-516.297 390.687,-492.048 412.388,-473.468"/>
<polygon fill="black" stroke="black" points="414.733,-476.067 420.053,-466.905 410.181,-470.75 414.733,-476.067"/>
</g>
<!-- O16_2_0 -->
<g id="node49" class="node"><title>O16_2_0</title>
<polygon fill="white" stroke="black" points="688,-568.571 439,-568.571 439,-532.571 688,-532.571 688,-568.571"/>
<text text-anchor="middle" x="563.5" y="-546.871" font-family="Times,serif" font-size="14.00">OTHER: until sauce is thick and smooth</text>
</g>
<!-- O16_2_0&#45;&gt;E16 -->
<g id="edge41" class="edge"><title>O16_2_0&#45;&gt;E16</title>
<path fill="none" stroke="black" d="M543.415,-532.374C524.637,-516.297 496.313,-492.048 474.612,-473.468"/>
<polygon fill="black" stroke="black" points="476.819,-470.75 466.947,-466.905 472.267,-476.067 476.819,-470.75"/>
</g>
<!-- O18_0_0 -->
<g id="node50" class="node"><title>O18_0_0</title>
<polygon fill="white" stroke="black" points="185.5,-359.09 57.5,-359.09 57.5,-323.09 185.5,-323.09 185.5,-359.09"/>
<text text-anchor="middle" x="121.5" y="-337.39" font-family="Times,serif" font-size="14.00">OTHER: 5 minutes</text>
</g>
<!-- O18_0_0&#45;&gt;E18 -->
<g id="edge44" class="edge"><title>O18_0_0&#45;&gt;E18</title>
<path fill="none" stroke="black" d="M150.958,-322.894C177.882,-307.177 218.186,-283.65 249.715,-265.245"/>
<polygon fill="black" stroke="black" points="251.485,-268.264 258.357,-260.2 247.956,-262.219 251.485,-268.264"/>
</g>
<!-- O18_1_0 -->
<g id="node51" class="node"><title>O18_1_0</title>
<polygon fill="white" stroke="black" points="391.5,-359.09 203.5,-359.09 203.5,-323.09 391.5,-323.09 391.5,-359.09"/>
<text text-anchor="middle" x="297.5" y="-337.39" font-family="Times,serif" font-size="14.00">OTHER: stirring occasionally</text>
</g>
<!-- O18_1_0&#45;&gt;E18 -->
<g id="edge45" class="edge"><title>O18_1_0&#45;&gt;E18</title>
<path fill="none" stroke="black" d="M297.5,-322.662C297.5,-309.197 297.5,-290.102 297.5,-273.389"/>
<polygon fill="black" stroke="black" points="301,-273.363 297.5,-263.363 294,-273.363 301,-273.363"/>
</g>
<!-- P19_0_0 -->
<g id="node52" class="node"><title>P19_0_0</title>
<polygon fill="white" stroke="black" points="197,-254.35 48,-254.35 48,-218.35 197,-218.35 197,-254.35"/>
<text text-anchor="middle" x="122.5" y="-232.65" font-family="Times,serif" font-size="14.00">LOCATION:from heat</text>
</g>
<!-- P19_0_0&#45;&gt;E19 -->
<g id="edge47" class="edge"><title>P19_0_0&#45;&gt;E19</title>
<path fill="none" stroke="black" d="M131.321,-217.922C138.411,-203.913 148.586,-183.81 157.278,-166.636"/>
<polygon fill="black" stroke="black" points="160.533,-167.957 161.926,-157.454 154.287,-164.796 160.533,-167.957"/>
</g>
<!-- O20_0_0 -->
<g id="node53" class="node"><title>O20_0_0</title>
<polygon fill="white" stroke="black" points="115,-149.61 0,-149.61 0,-113.61 115,-113.61 115,-149.61"/>
<text text-anchor="middle" x="57.5" y="-127.91" font-family="Times,serif" font-size="14.00">OTHER: slightly</text>
</g>
<!-- O20_0_0&#45;&gt;E20 -->
<g id="edge49" class="edge"><title>O20_0_0&#45;&gt;E20</title>
<path fill="none" stroke="black" d="M63.7765,-113.182C68.7403,-99.3987 75.829,-79.715 81.9468,-62.7274"/>
<polygon fill="black" stroke="black" points="85.3179,-63.6962 85.4132,-53.1018 78.7319,-61.3243 85.3179,-63.6962"/>
</g>
<!-- D21_ing -->
<g id="node54" class="node"><title>D21_ing</title>
<polygon fill="peachpuff" stroke="black" points="1078.5,-1406.49 954.5,-1406.49 954.5,-1370.49 1078.5,-1370.49 1078.5,-1406.49"/>
<text text-anchor="middle" x="1016.5" y="-1384.79" font-family="Times,serif" font-size="14.00">DOBJ: sour cream</text>
</g>
<!-- D21_ing&#45;&gt;E21 -->
<g id="edge50" class="edge"><title>D21_ing&#45;&gt;E21</title>
<path fill="none" stroke="black" d="M1016.5,-1370.06C1016.5,-1356.6 1016.5,-1337.5 1016.5,-1320.79"/>
<polygon fill="black" stroke="black" points="1020,-1320.76 1016.5,-1310.76 1013,-1320.76 1020,-1320.76"/>
</g>
</g>
</svg>
