<?xml version="1.0" encoding="UTF-8" standalone="no"?>
<!DOCTYPE svg PUBLIC "-//W3C//DTD SVG 1.1//EN"
 "http://www.w3.org/Graphics/SVG/1.1/DTD/svg11.dtd">
<!-- Generated by graphviz version 2.38.0 (20140413.2041)
 -->
<!-- Title: recipe Pages: 1 -->
<svg width="1735pt" height="1150pt"
 viewBox="0.00 0.00 1734.50 1150.40" xmlns="http://www.w3.org/2000/svg" xmlns:xlink="http://www.w3.org/1999/xlink">
<g id="graph0" class="graph" transform="scale(1 1) rotate(0) translate(4 1146.4)">
<title>recipe</title>
<polygon fill="white" stroke="none" points="-4,4 -4,-1146.4 1730.5,-1146.4 1730.5,4 -4,4"/>
<!-- E0 -->
<g id="node1" class="node"><title>E0</title>
<ellipse fill="azure" stroke="black" cx="1512.5" cy="-937.791" rx="46.8387" ry="26.7407"/>
<text text-anchor="middle" x="1512.5" y="-941.591" font-family="Times,serif" font-size="14.00">combine</text>
<text text-anchor="middle" x="1512.5" y="-926.591" font-family="Times,serif" font-size="14.00">0</text>
</g>
<!-- E1 -->
<g id="node2" class="node"><title>E1</title>
<ellipse fill="azure" stroke="black" cx="1410.5" cy="-833.051" rx="45.011" ry="26.7407"/>
<text text-anchor="middle" x="1410.5" y="-836.851" font-family="Times,serif" font-size="14.00">set aside</text>
<text text-anchor="middle" x="1410.5" y="-821.851" font-family="Times,serif" font-size="14.00">1</text>
</g>
<!-- E0&#45;&gt;E1 -->
<g id="edge10" class="edge"><title>E0&#45;&gt;E1</title>
<path fill="none" stroke="black" d="M1489.86,-913.99C1475.34,-899.358 1456.31,-880.193 1440.53,-864.296"/>
<polygon fill="black" stroke="black" points="1442.6,-861.419 1433.07,-856.788 1437.64,-866.351 1442.6,-861.419"/>
<text text-anchor="middle" x="1518.5" y="-881.721" font-family="Times,serif" font-size="14.00">IMPLICIT DOBJ</text>
</g>
<!-- E2 -->
<g id="node3" class="node"><title>E2</title>
<ellipse fill="azure" stroke="black" cx="1298.5" cy="-728.311" rx="35.2113" ry="26.7407"/>
<text text-anchor="middle" x="1298.5" y="-732.111" font-family="Times,serif" font-size="14.00">stir in</text>
<text text-anchor="middle" x="1298.5" y="-717.111" font-family="Times,serif" font-size="14.00">2</text>
</g>
<!-- E1&#45;&gt;E2 -->
<g id="edge13" class="edge"><title>E1&#45;&gt;E2</title>
<path fill="none" stroke="black" d="M1386.47,-810.011C1369.38,-794.327 1346.3,-773.157 1328.07,-756.436"/>
<polygon fill="black" stroke="black" points="1330.32,-753.751 1320.59,-749.571 1325.59,-758.91 1330.32,-753.751"/>
<text text-anchor="middle" x="1411" y="-776.981" font-family="Times,serif" font-size="14.00">IMPLICIT PREP</text>
</g>
<!-- E11 -->
<g id="node12" class="node"><title>E11</title>
<ellipse fill="azure" stroke="black" cx="1138.5" cy="-623.571" rx="35.2113" ry="26.7407"/>
<text text-anchor="middle" x="1138.5" y="-627.371" font-family="Times,serif" font-size="14.00">stir in</text>
<text text-anchor="middle" x="1138.5" y="-612.371" font-family="Times,serif" font-size="14.00">11</text>
</g>
<!-- E2&#45;&gt;E11 -->
<g id="edge24" class="edge"><title>E2&#45;&gt;E11</title>
<path fill="none" stroke="black" d="M1272.08,-710.345C1245.21,-693.094 1203.43,-666.262 1173.75,-647.206"/>
<polygon fill="black" stroke="black" points="1175.27,-644.019 1164.96,-641.561 1171.48,-649.91 1175.27,-644.019"/>
<text text-anchor="middle" x="1279.5" y="-672.241" font-family="Times,serif" font-size="14.00">the carrot mixture</text>
</g>
<!-- E3 -->
<g id="node4" class="node"><title>E3</title>
<ellipse fill="azure" stroke="black" cx="403.5" cy="-518.831" rx="41.9398" ry="26.7407"/>
<text text-anchor="middle" x="403.5" y="-522.631" font-family="Times,serif" font-size="14.00">preheat</text>
<text text-anchor="middle" x="403.5" y="-507.631" font-family="Times,serif" font-size="14.00">3</text>
</g>
<!-- E13 -->
<g id="node14" class="node"><title>E13</title>
<ellipse fill="azure" stroke="black" cx="720.5" cy="-414.09" rx="31.2258" ry="26.7407"/>
<text text-anchor="middle" x="720.5" y="-417.89" font-family="Times,serif" font-size="14.00">bake</text>
<text text-anchor="middle" x="720.5" y="-402.89" font-family="Times,serif" font-size="14.00">13</text>
</g>
<!-- E3&#45;&gt;E13 -->
<g id="edge30" class="edge"><title>E3&#45;&gt;E13</title>
<path fill="none" stroke="black" d="M408.079,-491.896C411.591,-479.903 417.749,-466.642 428.5,-458.96 474,-426.45 626.369,-458.405 679.5,-440.96 682.444,-439.994 685.389,-438.77 688.274,-437.384"/>
<polygon fill="black" stroke="black" points="690.103,-440.373 697.209,-432.515 686.753,-434.227 690.103,-440.373"/>
<text text-anchor="middle" x="529" y="-462.76" font-family="Times,serif" font-size="14.00">LOCATION:in the preheated oven</text>
</g>
<!-- E4 -->
<g id="node5" class="node"><title>E4</title>
<ellipse fill="azure" stroke="black" cx="729.5" cy="-728.311" rx="37.4533" ry="26.7407"/>
<text text-anchor="middle" x="729.5" y="-732.111" font-family="Times,serif" font-size="14.00">grease</text>
<text text-anchor="middle" x="729.5" y="-717.111" font-family="Times,serif" font-size="14.00">4</text>
</g>
<!-- E5 -->
<g id="node6" class="node"><title>E5</title>
<ellipse fill="azure" stroke="black" cx="767.5" cy="-623.571" rx="31.6406" ry="26.7407"/>
<text text-anchor="middle" x="767.5" y="-627.371" font-family="Times,serif" font-size="14.00">flour</text>
<text text-anchor="middle" x="767.5" y="-612.371" font-family="Times,serif" font-size="14.00">5</text>
</g>
<!-- E4&#45;&gt;E5 -->
<g id="edge14" class="edge"><title>E4&#45;&gt;E5</title>
<path fill="none" stroke="black" d="M738.796,-702.178C743.616,-689.145 749.575,-673.034 754.813,-658.874"/>
<polygon fill="black" stroke="black" points="758.114,-660.037 758.3,-649.444 751.548,-657.609 758.114,-660.037"/>
<text text-anchor="middle" x="802.5" y="-672.241" font-family="Times,serif" font-size="14.00">IMPLICIT DOBJ</text>
</g>
<!-- E12 -->
<g id="node13" class="node"><title>E12</title>
<ellipse fill="azure" stroke="black" cx="1013.5" cy="-518.831" rx="31.2258" ry="26.7407"/>
<text text-anchor="middle" x="1013.5" y="-522.631" font-family="Times,serif" font-size="14.00">pour</text>
<text text-anchor="middle" x="1013.5" y="-507.631" font-family="Times,serif" font-size="14.00">12</text>
</g>
<!-- E5&#45;&gt;E12 -->
<g id="edge27" class="edge"><title>E5&#45;&gt;E12</title>
<path fill="none" stroke="black" d="M776.468,-597.787C782.247,-585.472 791.045,-571.574 803.5,-563.701 867.722,-523.103 901.866,-571.023 973.5,-545.701 976.205,-544.744 978.911,-543.572 981.568,-542.261"/>
<polygon fill="black" stroke="black" points="983.311,-545.297 990.344,-537.373 979.904,-539.181 983.311,-545.297"/>
<text text-anchor="middle" x="906.5" y="-567.501" font-family="Times,serif" font-size="14.00">LOCATION:into the prepared pans</text>
</g>
<!-- E6 -->
<g id="node7" class="node"><title>E6</title>
<ellipse fill="azure" stroke="black" cx="529.5" cy="-1042.53" rx="28.0702" ry="26.7407"/>
<text text-anchor="middle" x="529.5" y="-1046.33" font-family="Times,serif" font-size="14.00">beat</text>
<text text-anchor="middle" x="529.5" y="-1031.33" font-family="Times,serif" font-size="14.00">6</text>
</g>
<!-- E7 -->
<g id="node8" class="node"><title>E7</title>
<ellipse fill="azure" stroke="black" cx="683.5" cy="-937.791" rx="38.7821" ry="26.7407"/>
<text text-anchor="middle" x="683.5" y="-941.591" font-family="Times,serif" font-size="14.00">beat in</text>
<text text-anchor="middle" x="683.5" y="-926.591" font-family="Times,serif" font-size="14.00">7</text>
</g>
<!-- E6&#45;&gt;E7 -->
<g id="edge16" class="edge"><title>E6&#45;&gt;E7</title>
<path fill="none" stroke="black" d="M543.939,-1019.39C552.751,-1007.26 564.916,-992.695 578.5,-982.661 596.309,-969.507 618.647,-959.462 638.136,-952.326"/>
<polygon fill="black" stroke="black" points="639.459,-955.571 647.735,-948.957 637.14,-948.966 639.459,-955.571"/>
<text text-anchor="middle" x="629" y="-986.461" font-family="Times,serif" font-size="14.00">IMPLICIT PREP</text>
</g>
<!-- E8 -->
<g id="node9" class="node"><title>E8</title>
<ellipse fill="azure" stroke="black" cx="808.5" cy="-833.051" rx="35.2113" ry="26.7407"/>
<text text-anchor="middle" x="808.5" y="-836.851" font-family="Times,serif" font-size="14.00">stir in</text>
<text text-anchor="middle" x="808.5" y="-821.851" font-family="Times,serif" font-size="14.00">8</text>
</g>
<!-- E7&#45;&gt;E8 -->
<g id="edge19" class="edge"><title>E7&#45;&gt;E8</title>
<path fill="none" stroke="black" d="M686.887,-910.73C689.622,-899.294 694.566,-886.539 703.5,-877.921 723.538,-858.592 737.929,-870.932 763.5,-859.921 766.48,-858.638 769.511,-857.204 772.521,-855.687"/>
<polygon fill="black" stroke="black" points="774.228,-858.744 781.412,-850.956 770.94,-852.564 774.228,-858.744"/>
<text text-anchor="middle" x="754" y="-881.721" font-family="Times,serif" font-size="14.00">IMPLICIT PREP</text>
</g>
<!-- E10 -->
<g id="node11" class="node"><title>E10</title>
<ellipse fill="azure" stroke="black" cx="1025.5" cy="-728.311" rx="27" ry="26.7407"/>
<text text-anchor="middle" x="1025.5" y="-732.111" font-family="Times,serif" font-size="14.00">stir</text>
<text text-anchor="middle" x="1025.5" y="-717.111" font-family="Times,serif" font-size="14.00">10</text>
</g>
<!-- E8&#45;&gt;E10 -->
<g id="edge21" class="edge"><title>E8&#45;&gt;E10</title>
<path fill="none" stroke="black" d="M807.238,-805.938C808.084,-794.49 811.152,-781.741 819.5,-773.181 842.536,-749.559 935.468,-737.44 988.3,-732.345"/>
<polygon fill="black" stroke="black" points="988.665,-735.826 998.3,-731.418 988.019,-728.856 988.665,-735.826"/>
<text text-anchor="middle" x="916.5" y="-776.981" font-family="Times,serif" font-size="14.00">COOBJECT:into the wet mixture</text>
</g>
<!-- E9 -->
<g id="node10" class="node"><title>E9</title>
<ellipse fill="azure" stroke="black" cx="1012.5" cy="-833.051" rx="46.8387" ry="26.7407"/>
<text text-anchor="middle" x="1012.5" y="-836.851" font-family="Times,serif" font-size="14.00">combine</text>
<text text-anchor="middle" x="1012.5" y="-821.851" font-family="Times,serif" font-size="14.00">9</text>
</g>
<!-- E9&#45;&gt;E10 -->
<g id="edge20" class="edge"><title>E9&#45;&gt;E10</title>
<path fill="none" stroke="black" d="M1015.78,-806.125C1017.35,-793.714 1019.26,-778.652 1020.96,-765.165"/>
<polygon fill="black" stroke="black" points="1024.44,-765.588 1022.22,-755.228 1017.49,-764.71 1024.44,-765.588"/>
<text text-anchor="middle" x="1070.5" y="-776.981" font-family="Times,serif" font-size="14.00">IMPLICIT DOBJ</text>
</g>
<!-- E10&#45;&gt;E11 -->
<g id="edge25" class="edge"><title>E10&#45;&gt;E11</title>
<path fill="none" stroke="black" d="M1024.06,-701.345C1024.71,-690.198 1027.31,-677.649 1034.5,-668.441 1047.25,-652.112 1058.41,-658.485 1077.5,-650.441 1084.35,-647.554 1091.63,-644.476 1098.68,-641.488"/>
<polygon fill="black" stroke="black" points="1100.26,-644.62 1108.1,-637.494 1097.53,-638.175 1100.26,-644.62"/>
<text text-anchor="middle" x="1085" y="-672.241" font-family="Times,serif" font-size="14.00">IMPLICIT PREP</text>
</g>
<!-- E11&#45;&gt;E12 -->
<g id="edge26" class="edge"><title>E11&#45;&gt;E12</title>
<path fill="none" stroke="black" d="M1114.99,-603.246C1094.8,-586.649 1065.56,-562.622 1043.65,-544.613"/>
<polygon fill="black" stroke="black" points="1045.6,-541.68 1035.65,-538.034 1041.15,-547.087 1045.6,-541.68"/>
<text text-anchor="middle" x="1133.5" y="-567.501" font-family="Times,serif" font-size="14.00">IMPLICIT DOBJ</text>
</g>
<!-- E12&#45;&gt;E13 -->
<g id="edge29" class="edge"><title>E12&#45;&gt;E13</title>
<path fill="none" stroke="black" d="M990.012,-501.102C984.735,-497.785 979.051,-494.537 973.5,-491.96 901.626,-458.603 811.656,-435.282 760.669,-423.628"/>
<polygon fill="black" stroke="black" points="761.228,-420.166 750.704,-421.386 759.692,-426.996 761.228,-420.166"/>
<text text-anchor="middle" x="977.5" y="-462.76" font-family="Times,serif" font-size="14.00">IMPLICIT DOBJ</text>
</g>
<!-- E14 -->
<g id="node15" class="node"><title>E14</title>
<ellipse fill="azure" stroke="black" cx="632.5" cy="-309.35" rx="28.9828" ry="26.7407"/>
<text text-anchor="middle" x="632.5" y="-313.15" font-family="Times,serif" font-size="14.00">cool</text>
<text text-anchor="middle" x="632.5" y="-298.15" font-family="Times,serif" font-size="14.00">14</text>
</g>
<!-- E13&#45;&gt;E14 -->
<g id="edge33" class="edge"><title>E13&#45;&gt;E14</title>
<path fill="none" stroke="black" d="M702.266,-391.803C689.114,-376.447 671.22,-355.555 656.847,-338.775"/>
<polygon fill="black" stroke="black" points="659.273,-336.228 650.11,-330.91 653.957,-340.781 659.273,-336.228"/>
<text text-anchor="middle" x="733.5" y="-358.02" font-family="Times,serif" font-size="14.00">IMPLICIT DOBJ</text>
</g>
<!-- E15 -->
<g id="node16" class="node"><title>E15</title>
<ellipse fill="azure" stroke="black" cx="550.5" cy="-204.61" rx="50.8235" ry="26.7407"/>
<text text-anchor="middle" x="550.5" y="-208.41" font-family="Times,serif" font-size="14.00">removing</text>
<text text-anchor="middle" x="550.5" y="-193.41" font-family="Times,serif" font-size="14.00">15</text>
</g>
<!-- E14&#45;&gt;E15 -->
<g id="edge35" class="edge"><title>E14&#45;&gt;E15</title>
<path fill="none" stroke="black" d="M615.51,-287.062C604.164,-272.848 589.032,-253.889 576.222,-237.838"/>
<polygon fill="black" stroke="black" points="578.741,-235.383 569.767,-229.751 573.27,-239.75 578.741,-235.383"/>
<text text-anchor="middle" x="647.5" y="-253.28" font-family="Times,serif" font-size="14.00">IMPLICIT DOBJ</text>
</g>
<!-- E16 -->
<g id="node17" class="node"><title>E16</title>
<ellipse fill="azure" stroke="black" cx="375.5" cy="-99.8701" rx="30.3115" ry="26.7407"/>
<text text-anchor="middle" x="375.5" y="-103.67" font-family="Times,serif" font-size="14.00">frost</text>
<text text-anchor="middle" x="375.5" y="-88.6701" font-family="Times,serif" font-size="14.00">16</text>
</g>
<!-- E15&#45;&gt;E16 -->
<g id="edge37" class="edge"><title>E15&#45;&gt;E16</title>
<path fill="none" stroke="black" d="M517.172,-184.044C486.213,-165.868 440.337,-138.935 409.245,-120.681"/>
<polygon fill="black" stroke="black" points="410.894,-117.591 400.498,-115.546 407.35,-123.627 410.894,-117.591"/>
<text text-anchor="middle" x="524.5" y="-148.54" font-family="Times,serif" font-size="14.00">IMPLICIT DOBJ</text>
</g>
<!-- EOR -->
<g id="node41" class="node"><title>EOR</title>
<ellipse fill="plum" stroke="black" cx="375.5" cy="-18" rx="57.3905" ry="18"/>
<text text-anchor="middle" x="375.5" y="-14.3" font-family="Times,serif" font-size="14.00">Bon appetit!</text>
</g>
<!-- E16&#45;&gt;EOR -->
<g id="edge40" class="edge"><title>E16&#45;&gt;EOR</title>
<path fill="none" stroke="black" d="M375.5,-72.7176C375.5,-64.2726 375.5,-54.8903 375.5,-46.3604"/>
<polygon fill="black" stroke="black" points="379,-46.1464 375.5,-36.1464 372,-46.1464 379,-46.1464"/>
</g>
<!-- D9 -->
<g id="node18" class="node"><title>D9</title>
<polygon fill="peachpuff" stroke="black" points="1170,-955.791 895,-955.791 895,-919.791 1170,-919.791 1170,-955.791"/>
<text text-anchor="middle" x="1032.5" y="-934.091" font-family="Times,serif" font-size="14.00">DOBJ: the flour, cinnamon, salt, baking soda</text>
</g>
<!-- D9&#45;&gt;E9 -->
<g id="edge1" class="edge"><title>D9&#45;&gt;E9</title>
<path fill="none" stroke="black" d="M1029.11,-919.363C1026.49,-905.898 1022.77,-886.802 1019.52,-870.09"/>
<polygon fill="black" stroke="black" points="1022.91,-869.211 1017.56,-860.064 1016.04,-870.548 1022.91,-869.211"/>
</g>
<!-- D3 -->
<g id="node19" class="node"><title>D3</title>
<polygon fill="white" stroke="black" points="435.5,-641.571 347.5,-641.571 347.5,-605.571 435.5,-605.571 435.5,-641.571"/>
<text text-anchor="middle" x="391.5" y="-619.871" font-family="Times,serif" font-size="14.00">DOBJ: oven</text>
</g>
<!-- D3&#45;&gt;E3 -->
<g id="edge2" class="edge"><title>D3&#45;&gt;E3</title>
<path fill="none" stroke="black" d="M393.536,-605.142C395.108,-591.678 397.339,-572.582 399.291,-555.87"/>
<polygon fill="black" stroke="black" points="402.778,-556.182 400.462,-545.843 395.825,-555.37 402.778,-556.182"/>
</g>
<!-- O3_0 -->
<g id="node20" class="node"><title>O3_0</title>
<polygon fill="white" stroke="black" points="711,-641.571 454,-641.571 454,-605.571 711,-605.571 711,-641.571"/>
<text text-anchor="middle" x="582.5" y="-619.871" font-family="Times,serif" font-size="14.00">OTHER: to 350 degrees f (175 degrees c)</text>
</g>
<!-- O3_0&#45;&gt;E3 -->
<g id="edge3" class="edge"><title>O3_0&#45;&gt;E3</title>
<path fill="none" stroke="black" d="M552.539,-605.374C522.519,-588.143 476.141,-561.524 443.099,-542.559"/>
<polygon fill="black" stroke="black" points="444.574,-539.37 434.158,-537.427 441.089,-545.441 444.574,-539.37"/>
</g>
<!-- D4 -->
<g id="node21" class="node"><title>D4</title>
<polygon fill="white" stroke="black" points="755,-851.051 566,-851.051 566,-815.051 755,-815.051 755,-851.051"/>
<text text-anchor="middle" x="660.5" y="-829.351" font-family="Times,serif" font-size="14.00">DOBJ: two 10 inch cake pans</text>
</g>
<!-- D4&#45;&gt;E4 -->
<g id="edge4" class="edge"><title>D4&#45;&gt;E4</title>
<path fill="none" stroke="black" d="M672.205,-814.622C681.985,-800.059 696.19,-778.909 708.009,-761.311"/>
<polygon fill="black" stroke="black" points="710.919,-763.255 713.589,-753.002 705.108,-759.353 710.919,-763.255"/>
</g>
<!-- D6 -->
<g id="node22" class="node"><title>D6</title>
<polygon fill="peachpuff" stroke="black" points="420.5,-1142.4 334.5,-1142.4 334.5,-1106.4 420.5,-1106.4 420.5,-1142.4"/>
<text text-anchor="middle" x="377.5" y="-1120.7" font-family="Times,serif" font-size="14.00">DOBJ: eggs</text>
</g>
<!-- D6&#45;&gt;E6 -->
<g id="edge5" class="edge"><title>D6&#45;&gt;E6</title>
<path fill="none" stroke="black" d="M410.108,-1106.27C435.435,-1092.96 470.431,-1074.57 495.985,-1061.14"/>
<polygon fill="black" stroke="black" points="497.713,-1064.19 504.937,-1056.44 494.457,-1057.99 497.713,-1064.19"/>
</g>
<!-- P6_0 -->
<g id="node23" class="node"><title>P6_0</title>
<polygon fill="white" stroke="black" points="620,-1142.4 439,-1142.4 439,-1106.4 620,-1106.4 620,-1142.4"/>
<text text-anchor="middle" x="529.5" y="-1120.7" font-family="Times,serif" font-size="14.00">LOCATION:in a large bowl</text>
</g>
<!-- P6_0&#45;&gt;E6 -->
<g id="edge6" class="edge"><title>P6_0&#45;&gt;E6</title>
<path fill="none" stroke="black" d="M529.5,-1106.07C529.5,-1098.34 529.5,-1088.92 529.5,-1079.76"/>
<polygon fill="black" stroke="black" points="533,-1079.64 529.5,-1069.64 526,-1079.64 533,-1079.64"/>
</g>
<!-- O6_0 -->
<g id="node24" class="node"><title>O6_0</title>
<polygon fill="white" stroke="black" points="766.5,-1142.4 638.5,-1142.4 638.5,-1106.4 766.5,-1106.4 766.5,-1142.4"/>
<text text-anchor="middle" x="702.5" y="-1120.7" font-family="Times,serif" font-size="14.00">OTHER: until light</text>
</g>
<!-- O6_0&#45;&gt;E6 -->
<g id="edge7" class="edge"><title>O6_0&#45;&gt;E6</title>
<path fill="none" stroke="black" d="M651.505,-1106.35C625.426,-1096.84 593.563,-1083.98 566.5,-1069.4 564.266,-1068.2 562.005,-1066.89 559.76,-1065.51"/>
<polygon fill="black" stroke="black" points="561.562,-1062.51 551.27,-1060 557.75,-1068.38 561.562,-1062.51"/>
</g>
<!-- D0 -->
<g id="node25" class="node"><title>D0</title>
<polygon fill="peachpuff" stroke="black" points="1508.5,-1060.53 1288.5,-1060.53 1288.5,-1024.53 1508.5,-1024.53 1508.5,-1060.53"/>
<text text-anchor="middle" x="1398.5" y="-1038.83" font-family="Times,serif" font-size="14.00">DOBJ: grated carrots, brown sugar</text>
</g>
<!-- D0&#45;&gt;E0 -->
<g id="edge8" class="edge"><title>D0&#45;&gt;E0</title>
<path fill="none" stroke="black" d="M1417.58,-1024.33C1434.67,-1008.94 1460.07,-986.04 1480.3,-967.809"/>
<polygon fill="black" stroke="black" points="1482.69,-970.371 1487.77,-961.076 1478,-965.171 1482.69,-970.371"/>
</g>
<!-- P0_0 -->
<g id="node26" class="node"><title>P0_0</title>
<polygon fill="white" stroke="black" points="1726.5,-1060.53 1526.5,-1060.53 1526.5,-1024.53 1726.5,-1024.53 1726.5,-1060.53"/>
<text text-anchor="middle" x="1626.5" y="-1038.83" font-family="Times,serif" font-size="14.00">LOCATION:in a medium bowl</text>
</g>
<!-- P0_0&#45;&gt;E0 -->
<g id="edge9" class="edge"><title>P0_0&#45;&gt;E0</title>
<path fill="none" stroke="black" d="M1607.42,-1024.33C1590.33,-1008.94 1564.93,-986.04 1544.7,-967.809"/>
<polygon fill="black" stroke="black" points="1547,-965.171 1537.23,-961.076 1542.31,-970.371 1547,-965.171"/>
</g>
<!-- O1_0_0 -->
<g id="node27" class="node"><title>O1_0_0</title>
<polygon fill="white" stroke="black" points="1448,-955.791 1291,-955.791 1291,-919.791 1448,-919.791 1448,-955.791"/>
<text text-anchor="middle" x="1369.5" y="-934.091" font-family="Times,serif" font-size="14.00">OTHER: for 60 minutes</text>
</g>
<!-- O1_0_0&#45;&gt;E1 -->
<g id="edge11" class="edge"><title>O1_0_0&#45;&gt;E1</title>
<path fill="none" stroke="black" d="M1376.46,-919.363C1381.96,-905.579 1389.81,-885.896 1396.59,-868.908"/>
<polygon fill="black" stroke="black" points="1399.98,-869.868 1400.43,-859.283 1393.47,-867.273 1399.98,-869.868"/>
</g>
<!-- D2_ing -->
<g id="node28" class="node"><title>D2_ing</title>
<polygon fill="peachpuff" stroke="black" points="1347,-851.051 1250,-851.051 1250,-815.051 1347,-815.051 1347,-851.051"/>
<text text-anchor="middle" x="1298.5" y="-829.351" font-family="Times,serif" font-size="14.00">DOBJ: raisins</text>
</g>
<!-- D2_ing&#45;&gt;E2 -->
<g id="edge12" class="edge"><title>D2_ing&#45;&gt;E2</title>
<path fill="none" stroke="black" d="M1298.5,-814.622C1298.5,-801.158 1298.5,-782.062 1298.5,-765.35"/>
<polygon fill="black" stroke="black" points="1302,-765.324 1298.5,-755.324 1295,-765.324 1302,-765.324"/>
</g>
<!-- D7_ing -->
<g id="node29" class="node"><title>D7_ing</title>
<polygon fill="peachpuff" stroke="black" points="791,-1060.53 576,-1060.53 576,-1024.53 791,-1024.53 791,-1060.53"/>
<text text-anchor="middle" x="683.5" y="-1038.83" font-family="Times,serif" font-size="14.00">DOBJ: the white sugar, vanilla, oil</text>
</g>
<!-- D7_ing&#45;&gt;E7 -->
<g id="edge15" class="edge"><title>D7_ing&#45;&gt;E7</title>
<path fill="none" stroke="black" d="M683.5,-1024.1C683.5,-1010.64 683.5,-991.542 683.5,-974.83"/>
<polygon fill="black" stroke="black" points="687,-974.804 683.5,-964.804 680,-974.804 687,-974.804"/>
</g>
<!-- O7_0_0 -->
<g id="node30" class="node"><title>O7_0_0</title>
<polygon fill="white" stroke="black" points="936,-1060.53 809,-1060.53 809,-1024.53 936,-1024.53 936,-1060.53"/>
<text text-anchor="middle" x="872.5" y="-1038.83" font-family="Times,serif" font-size="14.00">OTHER: gradually</text>
</g>
<!-- O7_0_0&#45;&gt;E7 -->
<g id="edge17" class="edge"><title>O7_0_0&#45;&gt;E7</title>
<path fill="none" stroke="black" d="M840.882,-1024.5C812.083,-1008.96 768.393,-985.346 730.5,-964.661 727.807,-963.191 725.029,-961.671 722.233,-960.138"/>
<polygon fill="black" stroke="black" points="723.769,-956.989 713.319,-955.245 720.4,-963.125 723.769,-956.989"/>
</g>
<!-- D8_ing -->
<g id="node31" class="node"><title>D8_ing</title>
<polygon fill="peachpuff" stroke="black" points="877,-955.791 740,-955.791 740,-919.791 877,-919.791 877,-955.791"/>
<text text-anchor="middle" x="808.5" y="-934.091" font-family="Times,serif" font-size="14.00">DOBJ: the pineapple</text>
</g>
<!-- D8_ing&#45;&gt;E8 -->
<g id="edge18" class="edge"><title>D8_ing&#45;&gt;E8</title>
<path fill="none" stroke="black" d="M808.5,-919.363C808.5,-905.898 808.5,-886.802 808.5,-870.09"/>
<polygon fill="black" stroke="black" points="812,-870.064 808.5,-860.064 805,-870.064 812,-870.064"/>
</g>
<!-- O10_0_0 -->
<g id="node32" class="node"><title>O10_0_0</title>
<polygon fill="white" stroke="black" points="1232,-851.051 1077,-851.051 1077,-815.051 1232,-815.051 1232,-851.051"/>
<text text-anchor="middle" x="1154.5" y="-829.351" font-family="Times,serif" font-size="14.00">OTHER: until absorbed</text>
</g>
<!-- O10_0_0&#45;&gt;E10 -->
<g id="edge22" class="edge"><title>O10_0_0&#45;&gt;E10</title>
<path fill="none" stroke="black" d="M1150.01,-814.804C1145.75,-801.669 1138.09,-784.049 1125.5,-773.181 1105.71,-756.1 1093.36,-765.871 1069.5,-755.181 1065.29,-753.295 1060.98,-751.108 1056.77,-748.819"/>
<polygon fill="black" stroke="black" points="1058.25,-745.632 1047.83,-743.723 1054.78,-751.714 1058.25,-745.632"/>
</g>
<!-- D11_ing -->
<g id="node33" class="node"><title>D11_ing</title>
<polygon fill="peachpuff" stroke="black" points="1204.5,-746.311 1078.5,-746.311 1078.5,-710.311 1204.5,-710.311 1204.5,-746.311"/>
<text text-anchor="middle" x="1141.5" y="-724.611" font-family="Times,serif" font-size="14.00">DOBJ: the walnuts</text>
</g>
<!-- D11_ing&#45;&gt;E11 -->
<g id="edge23" class="edge"><title>D11_ing&#45;&gt;E11</title>
<path fill="none" stroke="black" d="M1140.99,-709.882C1140.6,-696.418 1140.04,-677.322 1139.55,-660.61"/>
<polygon fill="black" stroke="black" points="1143.05,-660.477 1139.26,-650.583 1136.05,-660.681 1143.05,-660.477"/>
</g>
<!-- O12_0_0 -->
<g id="node34" class="node"><title>O12_0_0</title>
<polygon fill="white" stroke="black" points="1068.5,-641.571 958.5,-641.571 958.5,-605.571 1068.5,-605.571 1068.5,-641.571"/>
<text text-anchor="middle" x="1013.5" y="-619.871" font-family="Times,serif" font-size="14.00">OTHER: evenly</text>
</g>
<!-- O12_0_0&#45;&gt;E12 -->
<g id="edge28" class="edge"><title>O12_0_0&#45;&gt;E12</title>
<path fill="none" stroke="black" d="M1013.5,-605.142C1013.5,-591.678 1013.5,-572.582 1013.5,-555.87"/>
<polygon fill="black" stroke="black" points="1017,-555.843 1013.5,-545.843 1010,-555.843 1017,-555.843"/>
</g>
<!-- O13_0_0 -->
<g id="node35" class="node"><title>O13_0_0</title>
<polygon fill="white" stroke="black" points="660,-536.831 469,-536.831 469,-500.831 660,-500.831 660,-536.831"/>
<text text-anchor="middle" x="564.5" y="-515.131" font-family="Times,serif" font-size="14.00">OTHER: for 45 to 50 minutes</text>
</g>
<!-- O13_0_0&#45;&gt;E13 -->
<g id="edge31" class="edge"><title>O13_0_0&#45;&gt;E13</title>
<path fill="none" stroke="black" d="M590.611,-500.634C617.258,-483.085 658.693,-455.796 687.574,-436.775"/>
<polygon fill="black" stroke="black" points="689.678,-439.581 696.104,-431.157 685.828,-433.734 689.678,-439.581"/>
</g>
<!-- O13_1_0 -->
<g id="node36" class="node"><title>O13_1_0</title>
<polygon fill="white" stroke="black" points="964.5,-536.831 678.5,-536.831 678.5,-500.831 964.5,-500.831 964.5,-536.831"/>
<text text-anchor="middle" x="821.5" y="-515.131" font-family="Times,serif" font-size="14.00">OTHER: until cake tests done with a toothpick</text>
</g>
<!-- O13_1_0&#45;&gt;E13 -->
<g id="edge32" class="edge"><title>O13_1_0&#45;&gt;E13</title>
<path fill="none" stroke="black" d="M804.367,-500.402C788.805,-484.572 765.592,-460.959 747.53,-442.586"/>
<polygon fill="black" stroke="black" points="749.649,-439.749 740.142,-435.071 744.657,-444.656 749.649,-439.749"/>
</g>
<!-- O14_0_0 -->
<g id="node37" class="node"><title>O14_0_0</title>
<polygon fill="white" stroke="black" points="671,-432.09 514,-432.09 514,-396.09 671,-396.09 671,-432.09"/>
<text text-anchor="middle" x="592.5" y="-410.39" font-family="Times,serif" font-size="14.00">OTHER: for 10 minutes</text>
</g>
<!-- O14_0_0&#45;&gt;E14 -->
<g id="edge34" class="edge"><title>O14_0_0&#45;&gt;E14</title>
<path fill="none" stroke="black" d="M599.285,-395.662C604.726,-381.687 612.528,-361.647 619.204,-344.501"/>
<polygon fill="black" stroke="black" points="622.611,-345.397 622.978,-334.808 616.088,-342.857 622.611,-345.397"/>
</g>
<!-- P15_0_0 -->
<g id="node38" class="node"><title>P15_0_0</title>
<polygon fill="white" stroke="black" points="586,-327.35 439,-327.35 439,-291.35 586,-291.35 586,-327.35"/>
<text text-anchor="middle" x="512.5" y="-305.65" font-family="Times,serif" font-size="14.00">LOCATION:from pan</text>
</g>
<!-- P15_0_0&#45;&gt;E15 -->
<g id="edge36" class="edge"><title>P15_0_0&#45;&gt;E15</title>
<path fill="none" stroke="black" d="M518.946,-290.922C524.009,-277.235 531.223,-257.728 537.476,-240.822"/>
<polygon fill="black" stroke="black" points="540.837,-241.825 541.024,-231.232 534.272,-239.396 540.837,-241.825"/>
</g>
<!-- P16_0_ing -->
<g id="node39" class="node"><title>P16_0_ing</title>
<polygon fill="peachpuff" stroke="black" points="251,-222.61 0,-222.61 0,-186.61 251,-186.61 251,-222.61"/>
<text text-anchor="middle" x="125.5" y="-200.91" font-family="Times,serif" font-size="14.00">COOBJECT: with cream cheese frosting</text>
</g>
<!-- P16_0_ing&#45;&gt;E16 -->
<g id="edge38" class="edge"><title>P16_0_ing&#45;&gt;E16</title>
<path fill="none" stroke="black" d="M167.063,-186.529C215.024,-166.819 293.145,-134.715 338.9,-115.911"/>
<polygon fill="black" stroke="black" points="340.23,-119.149 348.149,-112.11 337.569,-112.674 340.23,-119.149"/>
</g>
<!-- O16_0_0 -->
<g id="node40" class="node"><title>O16_0_0</title>
<polygon fill="white" stroke="black" points="482,-222.61 269,-222.61 269,-186.61 482,-186.61 482,-222.61"/>
<text text-anchor="middle" x="375.5" y="-200.91" font-family="Times,serif" font-size="14.00">OTHER: when completely cooled</text>
</g>
<!-- O16_0_0&#45;&gt;E16 -->
<g id="edge39" class="edge"><title>O16_0_0&#45;&gt;E16</title>
<path fill="none" stroke="black" d="M375.5,-186.182C375.5,-172.717 375.5,-153.621 375.5,-136.909"/>
<polygon fill="black" stroke="black" points="379,-136.883 375.5,-126.883 372,-136.883 379,-136.883"/>
</g>
</g>
</svg>
