<?xml version="1.0" encoding="UTF-8" standalone="no"?>
<!DOCTYPE svg PUBLIC "-//W3C//DTD SVG 1.1//EN"
 "http://www.w3.org/Graphics/SVG/1.1/DTD/svg11.dtd">
<!-- Generated by graphviz version 2.38.0 (20140413.2041)
 -->
<!-- Title: recipe Pages: 1 -->
<svg width="1955pt" height="941pt"
 viewBox="0.00 0.00 1954.50 940.92" xmlns="http://www.w3.org/2000/svg" xmlns:xlink="http://www.w3.org/1999/xlink">
<g id="graph0" class="graph" transform="scale(1 1) rotate(0) translate(4 936.921)">
<title>recipe</title>
<polygon fill="white" stroke="none" points="-4,4 -4,-936.921 1950.5,-936.921 1950.5,4 -4,4"/>
<!-- E0 -->
<g id="node1" class="node"><title>E0</title>
<ellipse fill="azure" stroke="black" cx="1630" cy="-623.571" rx="41.9398" ry="26.7407"/>
<text text-anchor="middle" x="1630" y="-627.371" font-family="Times,serif" font-size="14.00">preheat</text>
<text text-anchor="middle" x="1630" y="-612.371" font-family="Times,serif" font-size="14.00">0</text>
</g>
<!-- E5 -->
<g id="node6" class="node"><title>E5</title>
<ellipse fill="azure" stroke="black" cx="1568" cy="-518.831" rx="31.2258" ry="26.7407"/>
<text text-anchor="middle" x="1568" y="-522.631" font-family="Times,serif" font-size="14.00">bake</text>
<text text-anchor="middle" x="1568" y="-507.631" font-family="Times,serif" font-size="14.00">5</text>
</g>
<!-- E0&#45;&gt;E5 -->
<g id="edge20" class="edge"><title>E0&#45;&gt;E5</title>
<path fill="none" stroke="black" d="M1622.8,-596.961C1619.2,-586.252 1614.26,-573.942 1608,-563.701 1604.54,-558.044 1600.3,-552.461 1595.88,-547.271"/>
<polygon fill="black" stroke="black" points="1598.17,-544.584 1588.88,-539.486 1592.97,-549.263 1598.17,-544.584"/>
<text text-anchor="middle" x="1715.5" y="-567.501" font-family="Times,serif" font-size="14.00">LOCATION:in the preheated oven</text>
</g>
<!-- E1 -->
<g id="node2" class="node"><title>E1</title>
<ellipse fill="azure" stroke="black" cx="1197" cy="-728.311" rx="37.4533" ry="26.7407"/>
<text text-anchor="middle" x="1197" y="-732.111" font-family="Times,serif" font-size="14.00">grease</text>
<text text-anchor="middle" x="1197" y="-717.111" font-family="Times,serif" font-size="14.00">1</text>
</g>
<!-- E4 -->
<g id="node5" class="node"><title>E4</title>
<ellipse fill="azure" stroke="black" cx="1505" cy="-623.571" rx="32.5538" ry="26.7407"/>
<text text-anchor="middle" x="1505" y="-627.371" font-family="Times,serif" font-size="14.00">press</text>
<text text-anchor="middle" x="1505" y="-612.371" font-family="Times,serif" font-size="14.00">4</text>
</g>
<!-- E1&#45;&gt;E4 -->
<g id="edge18" class="edge"><title>E1&#45;&gt;E4</title>
<path fill="none" stroke="black" d="M1219.73,-706.854C1235.34,-693.905 1257.11,-677.88 1279,-668.441 1339.56,-642.32 1415.95,-631.646 1462.6,-627.358"/>
<polygon fill="black" stroke="black" points="1463,-630.837 1472.66,-626.49 1462.39,-623.863 1463,-630.837"/>
<text text-anchor="middle" x="1392" y="-672.241" font-family="Times,serif" font-size="14.00">LOCATION:into the prepared loaf pan</text>
</g>
<!-- E2 -->
<g id="node3" class="node"><title>E2</title>
<ellipse fill="azure" stroke="black" cx="1342" cy="-833.051" rx="63.7795" ry="26.7407"/>
<text text-anchor="middle" x="1342" y="-836.851" font-family="Times,serif" font-size="14.00">together mix</text>
<text text-anchor="middle" x="1342" y="-821.851" font-family="Times,serif" font-size="14.00">2</text>
</g>
<!-- E3 -->
<g id="node4" class="node"><title>E3</title>
<ellipse fill="azure" stroke="black" cx="1516" cy="-728.311" rx="44.5955" ry="26.7407"/>
<text text-anchor="middle" x="1516" y="-732.111" font-family="Times,serif" font-size="14.00">work in</text>
<text text-anchor="middle" x="1516" y="-717.111" font-family="Times,serif" font-size="14.00">3</text>
</g>
<!-- E2&#45;&gt;E3 -->
<g id="edge13" class="edge"><title>E2&#45;&gt;E3</title>
<path fill="none" stroke="black" d="M1365.99,-807.902C1378.38,-796.347 1394.19,-782.941 1410,-773.181 1427.9,-762.135 1449.06,-752.737 1467.76,-745.508"/>
<polygon fill="black" stroke="black" points="1469.15,-748.724 1477.28,-741.928 1466.69,-742.172 1469.15,-748.724"/>
<text text-anchor="middle" x="1461" y="-776.981" font-family="Times,serif" font-size="14.00">IMPLICIT DOBJ</text>
</g>
<!-- E3&#45;&gt;E4 -->
<g id="edge17" class="edge"><title>E3&#45;&gt;E4</title>
<path fill="none" stroke="black" d="M1513.22,-701.385C1511.91,-689.096 1510.31,-674.207 1508.88,-660.822"/>
<polygon fill="black" stroke="black" points="1512.32,-660.059 1507.77,-650.488 1505.36,-660.804 1512.32,-660.059"/>
<text text-anchor="middle" x="1559.5" y="-672.241" font-family="Times,serif" font-size="14.00">the meat mixture</text>
</g>
<!-- E4&#45;&gt;E5 -->
<g id="edge19" class="edge"><title>E4&#45;&gt;E5</title>
<path fill="none" stroke="black" d="M1498.08,-597.234C1496.48,-586.333 1496.58,-573.802 1502,-563.701 1502.52,-562.739 1518.73,-551.954 1534.96,-541.319"/>
<polygon fill="black" stroke="black" points="1536.91,-544.226 1543.37,-535.824 1533.08,-538.367 1536.91,-544.226"/>
<text text-anchor="middle" x="1553" y="-567.501" font-family="Times,serif" font-size="14.00">IMPLICIT DOBJ</text>
</g>
<!-- E7 -->
<g id="node8" class="node"><title>E7</title>
<ellipse fill="azure" stroke="black" cx="1334" cy="-414.09" rx="27.6545" ry="26.7407"/>
<text text-anchor="middle" x="1334" y="-417.89" font-family="Times,serif" font-size="14.00">pull</text>
<text text-anchor="middle" x="1334" y="-402.89" font-family="Times,serif" font-size="14.00">7</text>
</g>
<!-- E5&#45;&gt;E7 -->
<g id="edge21" class="edge"><title>E5&#45;&gt;E7</title>
<path fill="none" stroke="black" d="M1543.92,-501.175C1538.77,-497.927 1533.29,-494.687 1528,-491.96 1474.71,-464.508 1409.25,-440.427 1369.63,-426.83"/>
<polygon fill="black" stroke="black" points="1370.73,-423.507 1360.13,-423.603 1368.47,-430.135 1370.73,-423.507"/>
<text text-anchor="middle" x="1537" y="-462.76" font-family="Times,serif" font-size="14.00">IMPLICIT DOBJ</text>
</g>
<!-- E6 -->
<g id="node7" class="node"><title>E6</title>
<ellipse fill="azure" stroke="black" cx="668" cy="-414.09" rx="27.6545" ry="26.7407"/>
<text text-anchor="middle" x="668" y="-417.89" font-family="Times,serif" font-size="14.00">mix</text>
<text text-anchor="middle" x="668" y="-402.89" font-family="Times,serif" font-size="14.00">6</text>
</g>
<!-- E8 -->
<g id="node9" class="node"><title>E8</title>
<ellipse fill="azure" stroke="black" cx="1164" cy="-309.35" rx="38.3684" ry="26.7407"/>
<text text-anchor="middle" x="1164" y="-313.15" font-family="Times,serif" font-size="14.00">spread</text>
<text text-anchor="middle" x="1164" y="-298.15" font-family="Times,serif" font-size="14.00">8</text>
</g>
<!-- E6&#45;&gt;E8 -->
<g id="edge25" class="edge"><title>E6&#45;&gt;E8</title>
<path fill="none" stroke="black" d="M695.137,-408.983C786.103,-395.142 1076.78,-350.283 1117,-336.22 1120.26,-335.079 1123.57,-333.725 1126.84,-332.243"/>
<polygon fill="black" stroke="black" points="1128.44,-335.354 1135.87,-327.802 1125.35,-329.072 1128.44,-335.354"/>
<text text-anchor="middle" x="1092" y="-358.02" font-family="Times,serif" font-size="14.00">COOBJECT:topping</text>
</g>
<!-- E7&#45;&gt;E8 -->
<g id="edge24" class="edge"><title>E7&#45;&gt;E8</title>
<path fill="none" stroke="black" d="M1310.72,-399.02C1282.42,-381.918 1234.32,-352.849 1200.94,-332.678"/>
<polygon fill="black" stroke="black" points="1202.74,-329.675 1192.37,-327.498 1199.12,-335.666 1202.74,-329.675"/>
<text text-anchor="middle" x="1280.5" y="-358.02" font-family="Times,serif" font-size="14.00">the loaf</text>
</g>
<!-- E9 -->
<g id="node10" class="node"><title>E9</title>
<ellipse fill="azure" stroke="black" cx="1079" cy="-204.61" rx="36.5405" ry="26.7407"/>
<text text-anchor="middle" x="1079" y="-208.41" font-family="Times,serif" font-size="14.00">return</text>
<text text-anchor="middle" x="1079" y="-193.41" font-family="Times,serif" font-size="14.00">9</text>
</g>
<!-- E8&#45;&gt;E9 -->
<g id="edge27" class="edge"><title>E8&#45;&gt;E9</title>
<path fill="none" stroke="black" d="M1145.35,-285.804C1133.28,-271.216 1117.42,-252.044 1104.23,-236.104"/>
<polygon fill="black" stroke="black" points="1106.68,-233.578 1097.61,-228.104 1101.29,-238.04 1106.68,-233.578"/>
<text text-anchor="middle" x="1177" y="-253.28" font-family="Times,serif" font-size="14.00">IMPLICIT DOBJ</text>
</g>
<!-- E10 -->
<g id="node11" class="node"><title>E10</title>
<ellipse fill="azure" stroke="black" cx="921" cy="-99.8701" rx="31.2258" ry="26.7407"/>
<text text-anchor="middle" x="921" y="-103.67" font-family="Times,serif" font-size="14.00">bake</text>
<text text-anchor="middle" x="921" y="-88.6701" font-family="Times,serif" font-size="14.00">10</text>
</g>
<!-- E9&#45;&gt;E10 -->
<g id="edge29" class="edge"><title>E9&#45;&gt;E10</title>
<path fill="none" stroke="black" d="M1052.2,-186.182C1025.07,-168.541 983.077,-141.236 953.936,-122.287"/>
<polygon fill="black" stroke="black" points="955.627,-119.212 945.336,-116.695 951.811,-125.08 955.627,-119.212"/>
<text text-anchor="middle" x="1060" y="-148.54" font-family="Times,serif" font-size="14.00">IMPLICIT DOBJ</text>
</g>
<!-- EOR -->
<g id="node33" class="node"><title>EOR</title>
<ellipse fill="plum" stroke="black" cx="921" cy="-18" rx="57.3905" ry="18"/>
<text text-anchor="middle" x="921" y="-14.3" font-family="Times,serif" font-size="14.00">Bon appetit!</text>
</g>
<!-- E10&#45;&gt;EOR -->
<g id="edge32" class="edge"><title>E10&#45;&gt;EOR</title>
<path fill="none" stroke="black" d="M921,-72.7176C921,-64.2726 921,-54.8903 921,-46.3604"/>
<polygon fill="black" stroke="black" points="924.5,-46.1464 921,-36.1464 917.5,-46.1464 924.5,-46.1464"/>
</g>
<!-- D1 -->
<g id="node12" class="node"><title>D1</title>
<polygon fill="white" stroke="black" points="1260.5,-851.051 1087.5,-851.051 1087.5,-815.051 1260.5,-815.051 1260.5,-851.051"/>
<text text-anchor="middle" x="1174" y="-829.351" font-family="Times,serif" font-size="14.00">DOBJ: a 9x5&#45;inch loaf pan</text>
</g>
<!-- D1&#45;&gt;E1 -->
<g id="edge1" class="edge"><title>D1&#45;&gt;E1</title>
<path fill="none" stroke="black" d="M1177.9,-814.622C1180.94,-801.063 1185.25,-781.793 1189.01,-764.997"/>
<polygon fill="black" stroke="black" points="1192.5,-765.455 1191.26,-754.932 1185.66,-763.926 1192.5,-765.455"/>
</g>
<!-- D0 -->
<g id="node13" class="node"><title>D0</title>
<polygon fill="white" stroke="black" points="1671,-746.311 1583,-746.311 1583,-710.311 1671,-710.311 1671,-746.311"/>
<text text-anchor="middle" x="1627" y="-724.611" font-family="Times,serif" font-size="14.00">DOBJ: oven</text>
</g>
<!-- D0&#45;&gt;E0 -->
<g id="edge2" class="edge"><title>D0&#45;&gt;E0</title>
<path fill="none" stroke="black" d="M1627.51,-709.882C1627.9,-696.418 1628.46,-677.322 1628.95,-660.61"/>
<polygon fill="black" stroke="black" points="1632.45,-660.681 1629.24,-650.583 1625.45,-660.477 1632.45,-660.681"/>
</g>
<!-- O0_0 -->
<g id="node14" class="node"><title>O0_0</title>
<polygon fill="white" stroke="black" points="1946.5,-746.311 1689.5,-746.311 1689.5,-710.311 1946.5,-710.311 1946.5,-746.311"/>
<text text-anchor="middle" x="1818" y="-724.611" font-family="Times,serif" font-size="14.00">OTHER: to 350 degrees f (175 degrees c)</text>
</g>
<!-- O0_0&#45;&gt;E0 -->
<g id="edge3" class="edge"><title>O0_0&#45;&gt;E0</title>
<path fill="none" stroke="black" d="M1786.53,-710.114C1754.58,-692.652 1704.98,-665.549 1670.2,-646.541"/>
<polygon fill="black" stroke="black" points="1671.71,-643.376 1661.26,-641.652 1668.35,-649.519 1671.71,-643.376"/>
</g>
<!-- D2 -->
<g id="node15" class="node"><title>D2</title>
<polygon fill="peachpuff" stroke="black" points="1175.5,-932.921 868.5,-932.921 868.5,-896.921 1175.5,-896.921 1175.5,-932.921"/>
<text text-anchor="middle" x="1022" y="-911.221" font-family="Times,serif" font-size="14.00">DOBJ: milk, the beaten eggs, onion, bread crumbs</text>
</g>
<!-- D2&#45;&gt;E2 -->
<g id="edge4" class="edge"><title>D2&#45;&gt;E2</title>
<path fill="none" stroke="black" d="M1113.99,-896.869C1161.03,-887.401 1218.97,-874.578 1270,-859.921 1275.27,-858.409 1280.7,-856.712 1286.12,-854.93"/>
<polygon fill="black" stroke="black" points="1287.46,-858.171 1295.81,-851.65 1285.22,-851.541 1287.46,-858.171"/>
</g>
<!-- P2_0 -->
<g id="node16" class="node"><title>P2_0</title>
<polygon fill="white" stroke="black" points="1342.5,-932.921 1193.5,-932.921 1193.5,-896.921 1342.5,-896.921 1342.5,-932.921"/>
<text text-anchor="middle" x="1268" y="-911.221" font-family="Times,serif" font-size="14.00">LOCATION:in a bowl</text>
</g>
<!-- P2_0&#45;&gt;E2 -->
<g id="edge5" class="edge"><title>P2_0&#45;&gt;E2</title>
<path fill="none" stroke="black" d="M1284.06,-896.59C1292.4,-887.582 1302.87,-876.286 1312.6,-865.781"/>
<polygon fill="black" stroke="black" points="1315.29,-868.03 1319.52,-858.316 1310.15,-863.273 1315.29,-868.03"/>
</g>
<!-- O2_0 -->
<g id="node17" class="node"><title>O2_0</title>
<polygon fill="white" stroke="black" points="1471,-932.921 1361,-932.921 1361,-896.921 1471,-896.921 1471,-932.921"/>
<text text-anchor="middle" x="1416" y="-911.221" font-family="Times,serif" font-size="14.00">OTHER: lightly</text>
</g>
<!-- O2_0&#45;&gt;E2 -->
<g id="edge6" class="edge"><title>O2_0&#45;&gt;E2</title>
<path fill="none" stroke="black" d="M1399.94,-896.59C1391.6,-887.582 1381.13,-876.286 1371.4,-865.781"/>
<polygon fill="black" stroke="black" points="1373.85,-863.273 1364.48,-858.316 1368.71,-868.03 1373.85,-863.273"/>
</g>
<!-- O2_1 -->
<g id="node18" class="node"><title>O2_1</title>
<polygon fill="white" stroke="black" points="1717,-932.921 1489,-932.921 1489,-896.921 1717,-896.921 1717,-932.921"/>
<text text-anchor="middle" x="1603" y="-911.221" font-family="Times,serif" font-size="14.00">OTHER: until thoroughly combined</text>
</g>
<!-- O2_1&#45;&gt;E2 -->
<g id="edge7" class="edge"><title>O2_1&#45;&gt;E2</title>
<path fill="none" stroke="black" d="M1540.04,-896.87C1503.39,-886.687 1456.39,-873.187 1415,-859.921 1409.8,-858.254 1404.41,-856.464 1399.02,-854.633"/>
<polygon fill="black" stroke="black" points="1399.97,-851.257 1389.37,-851.31 1397.69,-857.875 1399.97,-851.257"/>
</g>
<!-- D6 -->
<g id="node19" class="node"><title>D6</title>
<polygon fill="white" stroke="black" points="334,-536.831 0,-536.831 0,-500.831 334,-500.831 334,-536.831"/>
<text text-anchor="middle" x="167" y="-515.131" font-family="Times,serif" font-size="14.00">DOBJ: the ketchup, brown sugar, dry mustard powder</text>
</g>
<!-- D6&#45;&gt;E6 -->
<g id="edge8" class="edge"><title>D6&#45;&gt;E6</title>
<path fill="none" stroke="black" d="M250.011,-500.807C360.458,-478.158 551.074,-439.068 631.021,-422.674"/>
<polygon fill="black" stroke="black" points="632.01,-426.044 641.103,-420.606 630.604,-419.186 632.01,-426.044"/>
</g>
<!-- P6_0 -->
<g id="node20" class="node"><title>P6_0</title>
<polygon fill="white" stroke="black" points="486,-536.831 352,-536.831 352,-500.831 486,-500.831 486,-536.831"/>
<text text-anchor="middle" x="419" y="-515.131" font-family="Times,serif" font-size="14.00">LOCATION:a bowl</text>
</g>
<!-- P6_0&#45;&gt;E6 -->
<g id="edge9" class="edge"><title>P6_0&#45;&gt;E6</title>
<path fill="none" stroke="black" d="M460.397,-500.75C508.839,-480.762 588.173,-448.028 633.453,-429.345"/>
<polygon fill="black" stroke="black" points="634.935,-432.52 642.844,-425.47 632.265,-426.049 634.935,-432.52"/>
</g>
<!-- O6_0 -->
<g id="node21" class="node"><title>O6_0</title>
<polygon fill="white" stroke="black" points="742,-536.831 504,-536.831 504,-500.831 742,-500.831 742,-536.831"/>
<text text-anchor="middle" x="623" y="-515.131" font-family="Times,serif" font-size="14.00">OTHER: while the meat loaf is baking</text>
</g>
<!-- O6_0&#45;&gt;E6 -->
<g id="edge10" class="edge"><title>O6_0&#45;&gt;E6</title>
<path fill="none" stroke="black" d="M630.634,-500.402C636.854,-486.2 645.818,-465.734 653.407,-448.407"/>
<polygon fill="black" stroke="black" points="656.65,-449.728 657.456,-439.164 650.238,-446.92 656.65,-449.728"/>
</g>
<!-- O6_1 -->
<g id="node22" class="node"><title>O6_1</title>
<polygon fill="white" stroke="black" points="879.5,-536.831 760.5,-536.831 760.5,-500.831 879.5,-500.831 879.5,-536.831"/>
<text text-anchor="middle" x="820" y="-515.131" font-family="Times,serif" font-size="14.00">OTHER: together</text>
</g>
<!-- O6_1&#45;&gt;E6 -->
<g id="edge11" class="edge"><title>O6_1&#45;&gt;E6</title>
<path fill="none" stroke="black" d="M794.559,-500.634C768.212,-482.826 727.029,-454.989 698.844,-435.939"/>
<polygon fill="black" stroke="black" points="700.791,-433.03 690.546,-430.33 696.871,-438.829 700.791,-433.03"/>
</g>
<!-- O6_2 -->
<g id="node23" class="node"><title>O6_2</title>
<polygon fill="white" stroke="black" points="1132,-536.831 898,-536.831 898,-500.831 1132,-500.831 1132,-536.831"/>
<text text-anchor="middle" x="1015" y="-515.131" font-family="Times,serif" font-size="14.00">OTHER: until the sugar has dissolved</text>
</g>
<!-- O6_2&#45;&gt;E6 -->
<g id="edge12" class="edge"><title>O6_2&#45;&gt;E6</title>
<path fill="none" stroke="black" d="M957.31,-500.75C885.35,-479.444 764.475,-443.655 704.305,-425.84"/>
<polygon fill="black" stroke="black" points="705.075,-422.418 694.493,-422.934 703.088,-429.129 705.075,-422.418"/>
</g>
<!-- P3_0_0 -->
<g id="node24" class="node"><title>P3_0_0</title>
<polygon fill="white" stroke="black" points="1608.5,-851.051 1423.5,-851.051 1423.5,-815.051 1608.5,-815.051 1608.5,-851.051"/>
<text text-anchor="middle" x="1516" y="-829.351" font-family="Times,serif" font-size="14.00">COOBJECT:the ground beef</text>
</g>
<!-- P3_0_0&#45;&gt;E3 -->
<g id="edge14" class="edge"><title>P3_0_0&#45;&gt;E3</title>
<path fill="none" stroke="black" d="M1516,-814.622C1516,-801.158 1516,-782.062 1516,-765.35"/>
<polygon fill="black" stroke="black" points="1519.5,-765.324 1516,-755.324 1512.5,-765.324 1519.5,-765.324"/>
</g>
<!-- O3_0_0 -->
<g id="node25" class="node"><title>O3_0_0</title>
<polygon fill="white" stroke="black" points="1735,-851.051 1627,-851.051 1627,-815.051 1735,-815.051 1735,-851.051"/>
<text text-anchor="middle" x="1681" y="-829.351" font-family="Times,serif" font-size="14.00">OTHER: gently</text>
</g>
<!-- O3_0_0&#45;&gt;E3 -->
<g id="edge15" class="edge"><title>O3_0_0&#45;&gt;E3</title>
<path fill="none" stroke="black" d="M1653.38,-814.854C1626.41,-798.061 1585.12,-772.35 1554.85,-753.499"/>
<polygon fill="black" stroke="black" points="1556.57,-750.447 1546.23,-748.132 1552.87,-756.389 1556.57,-750.447"/>
</g>
<!-- O3_1_0 -->
<g id="node26" class="node"><title>O3_1_0</title>
<polygon fill="white" stroke="black" points="1891,-851.051 1753,-851.051 1753,-815.051 1891,-815.051 1891,-851.051"/>
<text text-anchor="middle" x="1822" y="-829.351" font-family="Times,serif" font-size="14.00">OTHER: until mixed</text>
</g>
<!-- O3_1_0&#45;&gt;E3 -->
<g id="edge16" class="edge"><title>O3_1_0&#45;&gt;E3</title>
<path fill="none" stroke="black" d="M1771.3,-815C1762.22,-812.015 1752.84,-808.973 1744,-806.181 1668.78,-782.429 1647.95,-782.637 1574,-755.181 1569.28,-753.427 1564.39,-751.475 1559.55,-749.451"/>
<polygon fill="black" stroke="black" points="1560.93,-746.233 1550.36,-745.504 1558.17,-752.665 1560.93,-746.233"/>
</g>
<!-- P7_0_0 -->
<g id="node27" class="node"><title>P7_0_0</title>
<polygon fill="white" stroke="black" points="1325.5,-536.831 1150.5,-536.831 1150.5,-500.831 1325.5,-500.831 1325.5,-536.831"/>
<text text-anchor="middle" x="1238" y="-515.131" font-family="Times,serif" font-size="14.00">LOCATION:from the oven</text>
</g>
<!-- P7_0_0&#45;&gt;E7 -->
<g id="edge22" class="edge"><title>P7_0_0&#45;&gt;E7</title>
<path fill="none" stroke="black" d="M1254.29,-500.402C1269.17,-484.472 1291.42,-460.66 1308.63,-442.238"/>
<polygon fill="black" stroke="black" points="1311.4,-444.408 1315.67,-434.712 1306.28,-439.629 1311.4,-444.408"/>
</g>
<!-- O7_0_0 -->
<g id="node28" class="node"><title>O7_0_0</title>
<polygon fill="white" stroke="black" points="1518.5,-536.831 1343.5,-536.831 1343.5,-500.831 1518.5,-500.831 1518.5,-536.831"/>
<text text-anchor="middle" x="1431" y="-515.131" font-family="Times,serif" font-size="14.00">OTHER: when loaf is done</text>
</g>
<!-- O7_0_0&#45;&gt;E7 -->
<g id="edge23" class="edge"><title>O7_0_0&#45;&gt;E7</title>
<path fill="none" stroke="black" d="M1414.55,-500.402C1399.41,-484.372 1376.74,-460.36 1359.3,-441.891"/>
<polygon fill="black" stroke="black" points="1361.6,-439.223 1352.19,-434.355 1356.51,-444.029 1361.6,-439.223"/>
</g>
<!-- O8_1_0 -->
<g id="node29" class="node"><title>O8_1_0</title>
<polygon fill="white" stroke="black" points="1213,-432.09 1115,-432.09 1115,-396.09 1213,-396.09 1213,-432.09"/>
<text text-anchor="middle" x="1164" y="-410.39" font-family="Times,serif" font-size="14.00">OTHER: over</text>
</g>
<!-- O8_1_0&#45;&gt;E8 -->
<g id="edge26" class="edge"><title>O8_1_0&#45;&gt;E8</title>
<path fill="none" stroke="black" d="M1164,-395.662C1164,-382.197 1164,-363.102 1164,-346.389"/>
<polygon fill="black" stroke="black" points="1167.5,-346.363 1164,-336.363 1160.5,-346.363 1167.5,-346.363"/>
</g>
<!-- P9_0_0 -->
<g id="node30" class="node"><title>P9_0_0</title>
<polygon fill="white" stroke="black" points="1107.5,-327.35 970.5,-327.35 970.5,-291.35 1107.5,-291.35 1107.5,-327.35"/>
<text text-anchor="middle" x="1039" y="-305.65" font-family="Times,serif" font-size="14.00">LOCATION:to oven</text>
</g>
<!-- P9_0_0&#45;&gt;E9 -->
<g id="edge28" class="edge"><title>P9_0_0&#45;&gt;E9</title>
<path fill="none" stroke="black" d="M1045.79,-290.922C1051.15,-277.139 1058.82,-257.455 1065.43,-240.467"/>
<polygon fill="black" stroke="black" points="1068.81,-241.43 1069.18,-230.842 1062.29,-238.891 1068.81,-241.43"/>
</g>
<!-- O10_0_0 -->
<g id="node31" class="node"><title>O10_0_0</title>
<polygon fill="white" stroke="black" points="800,-222.61 600,-222.61 600,-186.61 800,-186.61 800,-222.61"/>
<text text-anchor="middle" x="700" y="-200.91" font-family="Times,serif" font-size="14.00">OTHER: until the topping is set</text>
</g>
<!-- O10_0_0&#45;&gt;E10 -->
<g id="edge30" class="edge"><title>O10_0_0&#45;&gt;E10</title>
<path fill="none" stroke="black" d="M736.99,-186.414C778.057,-167.322 843.914,-136.706 884.7,-117.745"/>
<polygon fill="black" stroke="black" points="886.408,-120.811 894,-113.422 883.457,-114.464 886.408,-120.811"/>
</g>
<!-- O10_1_0 -->
<g id="node32" class="node"><title>O10_1_0</title>
<polygon fill="white" stroke="black" points="1024,-222.61 818,-222.61 818,-186.61 1024,-186.61 1024,-222.61"/>
<text text-anchor="middle" x="921" y="-200.91" font-family="Times,serif" font-size="14.00">OTHER: about 10 more minutes</text>
</g>
<!-- O10_1_0&#45;&gt;E10 -->
<g id="edge31" class="edge"><title>O10_1_0&#45;&gt;E10</title>
<path fill="none" stroke="black" d="M921,-186.182C921,-172.717 921,-153.621 921,-136.909"/>
<polygon fill="black" stroke="black" points="924.5,-136.883 921,-126.883 917.5,-136.883 924.5,-136.883"/>
</g>
</g>
</svg>
