<?xml version="1.0" encoding="UTF-8" standalone="no"?>
<!DOCTYPE svg PUBLIC "-//W3C//DTD SVG 1.1//EN"
 "http://www.w3.org/Graphics/SVG/1.1/DTD/svg11.dtd">
<!-- Generated by graphviz version 2.38.0 (20140413.2041)
 -->
<!-- Title: recipe Pages: 1 -->
<svg width="1707pt" height="1360pt"
 viewBox="0.00 0.00 1707.00 1359.88" xmlns="http://www.w3.org/2000/svg" xmlns:xlink="http://www.w3.org/1999/xlink">
<g id="graph0" class="graph" transform="scale(1 1) rotate(0) translate(4 1355.88)">
<title>recipe</title>
<polygon fill="white" stroke="none" points="-4,4 -4,-1355.88 1703,-1355.88 1703,4 -4,4"/>
<!-- E0 -->
<g id="node1" class="node"><title>E0</title>
<ellipse fill="azure" stroke="black" cx="1369.5" cy="-1252.01" rx="28.0702" ry="26.7407"/>
<text text-anchor="middle" x="1369.5" y="-1255.81" font-family="Times,serif" font-size="14.00">heat</text>
<text text-anchor="middle" x="1369.5" y="-1240.81" font-family="Times,serif" font-size="14.00">0</text>
</g>
<!-- E1 -->
<g id="node2" class="node"><title>E1</title>
<ellipse fill="azure" stroke="black" cx="1302.5" cy="-1147.27" rx="27" ry="26.7407"/>
<text text-anchor="middle" x="1302.5" y="-1151.07" font-family="Times,serif" font-size="14.00">add</text>
<text text-anchor="middle" x="1302.5" y="-1136.07" font-family="Times,serif" font-size="14.00">1</text>
</g>
<!-- E0&#45;&gt;E1 -->
<g id="edge7" class="edge"><title>E0&#45;&gt;E1</title>
<path fill="none" stroke="black" d="M1354.96,-1228.72C1345.41,-1214.08 1332.8,-1194.74 1322.34,-1178.69"/>
<polygon fill="black" stroke="black" points="1325.17,-1176.63 1316.78,-1170.17 1319.31,-1180.46 1325.17,-1176.63"/>
<text text-anchor="middle" x="1390" y="-1195.94" font-family="Times,serif" font-size="14.00">IMPLICIT PREP</text>
</g>
<!-- E2 -->
<g id="node3" class="node"><title>E2</title>
<ellipse fill="azure" stroke="black" cx="1121.5" cy="-1042.53" rx="31.6406" ry="26.7407"/>
<text text-anchor="middle" x="1121.5" y="-1046.33" font-family="Times,serif" font-size="14.00">cook</text>
<text text-anchor="middle" x="1121.5" y="-1031.33" font-family="Times,serif" font-size="14.00">2</text>
</g>
<!-- E1&#45;&gt;E2 -->
<g id="edge8" class="edge"><title>E1&#45;&gt;E2</title>
<path fill="none" stroke="black" d="M1281.12,-1130.19C1276.39,-1126.83 1271.34,-1123.4 1266.5,-1120.4 1230.67,-1098.17 1187.81,-1075.96 1158.02,-1061.17"/>
<polygon fill="black" stroke="black" points="1159.35,-1057.92 1148.84,-1056.63 1156.26,-1064.2 1159.35,-1057.92"/>
<text text-anchor="middle" x="1286.5" y="-1091.2" font-family="Times,serif" font-size="14.00">IMPLICIT DOBJ</text>
</g>
<!-- E4 -->
<g id="node5" class="node"><title>E4</title>
<ellipse fill="azure" stroke="black" cx="1004.5" cy="-937.791" rx="27" ry="26.7407"/>
<text text-anchor="middle" x="1004.5" y="-941.591" font-family="Times,serif" font-size="14.00">add</text>
<text text-anchor="middle" x="1004.5" y="-926.591" font-family="Times,serif" font-size="14.00">4</text>
</g>
<!-- E2&#45;&gt;E4 -->
<g id="edge10" class="edge"><title>E2&#45;&gt;E4</title>
<path fill="none" stroke="black" d="M1100.04,-1022.69C1080.85,-1005.84 1052.64,-981.06 1031.84,-962.797"/>
<polygon fill="black" stroke="black" points="1034.09,-960.115 1024.26,-956.147 1029.47,-965.375 1034.09,-960.115"/>
<text text-anchor="middle" x="1094" y="-986.461" font-family="Times,serif" font-size="14.00">the pork</text>
</g>
<!-- E3 -->
<g id="node4" class="node"><title>E3</title>
<ellipse fill="azure" stroke="black" cx="849.5" cy="-1042.53" rx="27" ry="26.7407"/>
<text text-anchor="middle" x="849.5" y="-1046.33" font-family="Times,serif" font-size="14.00">stir</text>
<text text-anchor="middle" x="849.5" y="-1031.33" font-family="Times,serif" font-size="14.00">3</text>
</g>
<!-- E3&#45;&gt;E4 -->
<g id="edge11" class="edge"><title>E3&#45;&gt;E4</title>
<path fill="none" stroke="black" d="M872.089,-1027.41C896.188,-1012.23 935.374,-987.242 968.5,-964.661 970.412,-963.358 972.371,-962.004 974.34,-960.629"/>
<polygon fill="black" stroke="black" points="976.777,-963.193 982.921,-954.562 972.735,-957.478 976.777,-963.193"/>
<text text-anchor="middle" x="989" y="-986.461" font-family="Times,serif" font-size="14.00">IMPLICIT PREP</text>
</g>
<!-- E5 -->
<g id="node6" class="node"><title>E5</title>
<ellipse fill="azure" stroke="black" cx="937.5" cy="-833.051" rx="28.9828" ry="26.7407"/>
<text text-anchor="middle" x="937.5" y="-836.851" font-family="Times,serif" font-size="14.00">turn</text>
<text text-anchor="middle" x="937.5" y="-821.851" font-family="Times,serif" font-size="14.00">5</text>
</g>
<!-- E4&#45;&gt;E5 -->
<g id="edge12" class="edge"><title>E4&#45;&gt;E5</title>
<path fill="none" stroke="black" d="M990.127,-914.751C980.654,-900.224 968.111,-880.991 957.647,-864.946"/>
<polygon fill="black" stroke="black" points="960.475,-862.874 952.081,-856.409 954.611,-866.697 960.475,-862.874"/>
<text text-anchor="middle" x="1025.5" y="-881.721" font-family="Times,serif" font-size="14.00">IMPLICIT DOBJ</text>
</g>
<!-- E6 -->
<g id="node7" class="node"><title>E6</title>
<ellipse fill="azure" stroke="black" cx="937.5" cy="-728.311" rx="33.8824" ry="26.7407"/>
<text text-anchor="middle" x="937.5" y="-732.111" font-family="Times,serif" font-size="14.00">cover</text>
<text text-anchor="middle" x="937.5" y="-717.111" font-family="Times,serif" font-size="14.00">6</text>
</g>
<!-- E5&#45;&gt;E6 -->
<g id="edge14" class="edge"><title>E5&#45;&gt;E6</title>
<path fill="none" stroke="black" d="M937.5,-806.125C937.5,-793.836 937.5,-778.947 937.5,-765.562"/>
<polygon fill="black" stroke="black" points="941,-765.228 937.5,-755.228 934,-765.228 941,-765.228"/>
<text text-anchor="middle" x="988.5" y="-776.981" font-family="Times,serif" font-size="14.00">IMPLICIT DOBJ</text>
</g>
<!-- E7 -->
<g id="node8" class="node"><title>E7</title>
<ellipse fill="azure" stroke="black" cx="659.5" cy="-623.571" rx="31.6406" ry="26.7407"/>
<text text-anchor="middle" x="659.5" y="-627.371" font-family="Times,serif" font-size="14.00">cook</text>
<text text-anchor="middle" x="659.5" y="-612.371" font-family="Times,serif" font-size="14.00">7</text>
</g>
<!-- E6&#45;&gt;E7 -->
<g id="edge15" class="edge"><title>E6&#45;&gt;E7</title>
<path fill="none" stroke="black" d="M911.819,-710.173C906.546,-707.034 900.94,-703.959 895.5,-701.441 829.375,-670.836 747.641,-647.124 699.766,-634.552"/>
<polygon fill="black" stroke="black" points="700.353,-631.088 689.795,-631.966 698.596,-637.864 700.353,-631.088"/>
<text text-anchor="middle" x="902.5" y="-672.241" font-family="Times,serif" font-size="14.00">IMPLICIT DOBJ</text>
</g>
<!-- E8 -->
<g id="node9" class="node"><title>E8</title>
<ellipse fill="azure" stroke="black" cx="522.5" cy="-518.831" rx="41.9398" ry="26.7407"/>
<text text-anchor="middle" x="522.5" y="-522.631" font-family="Times,serif" font-size="14.00">remove</text>
<text text-anchor="middle" x="522.5" y="-507.631" font-family="Times,serif" font-size="14.00">8</text>
</g>
<!-- E7&#45;&gt;E8 -->
<g id="edge19" class="edge"><title>E7&#45;&gt;E8</title>
<path fill="none" stroke="black" d="M636.26,-605.142C614.586,-588.888 581.97,-564.429 557.212,-545.862"/>
<polygon fill="black" stroke="black" points="559.244,-543.011 549.144,-539.811 555.044,-548.611 559.244,-543.011"/>
<text text-anchor="middle" x="623" y="-567.501" font-family="Times,serif" font-size="14.00">the pork</text>
</g>
<!-- E9 -->
<g id="node10" class="node"><title>E9</title>
<ellipse fill="azure" stroke="black" cx="427.5" cy="-414.09" rx="45.011" ry="26.7407"/>
<text text-anchor="middle" x="427.5" y="-417.89" font-family="Times,serif" font-size="14.00">let stand</text>
<text text-anchor="middle" x="427.5" y="-402.89" font-family="Times,serif" font-size="14.00">9</text>
</g>
<!-- E8&#45;&gt;E9 -->
<g id="edge22" class="edge"><title>E8&#45;&gt;E9</title>
<path fill="none" stroke="black" d="M501.652,-495.284C488.134,-480.664 470.357,-461.44 455.599,-445.478"/>
<polygon fill="black" stroke="black" points="457.987,-442.906 448.628,-437.94 452.847,-447.658 457.987,-442.906"/>
<text text-anchor="middle" x="531.5" y="-462.76" font-family="Times,serif" font-size="14.00">IMPLICIT DOBJ</text>
</g>
<!-- E10 -->
<g id="node11" class="node"><title>E10</title>
<ellipse fill="azure" stroke="black" cx="332.5" cy="-309.35" rx="33.8824" ry="26.7407"/>
<text text-anchor="middle" x="332.5" y="-313.15" font-family="Times,serif" font-size="14.00">shred</text>
<text text-anchor="middle" x="332.5" y="-298.15" font-family="Times,serif" font-size="14.00">10</text>
</g>
<!-- E9&#45;&gt;E10 -->
<g id="edge24" class="edge"><title>E9&#45;&gt;E10</title>
<path fill="none" stroke="black" d="M406.416,-390.289C392.511,-375.251 374.178,-355.424 359.248,-339.278"/>
<polygon fill="black" stroke="black" points="361.586,-336.651 352.227,-331.685 356.447,-341.403 361.586,-336.651"/>
<text text-anchor="middle" x="410" y="-358.02" font-family="Times,serif" font-size="14.00">the pork</text>
</g>
<!-- E11 -->
<g id="node12" class="node"><title>E11</title>
<ellipse fill="azure" stroke="black" cx="237.5" cy="-204.61" rx="36.5405" ry="26.7407"/>
<text text-anchor="middle" x="237.5" y="-208.41" font-family="Times,serif" font-size="14.00">return</text>
<text text-anchor="middle" x="237.5" y="-193.41" font-family="Times,serif" font-size="14.00">11</text>
</g>
<!-- E10&#45;&gt;E11 -->
<g id="edge26" class="edge"><title>E10&#45;&gt;E11</title>
<path fill="none" stroke="black" d="M312.816,-287.062C298.771,-271.874 279.717,-251.267 264.288,-234.581"/>
<polygon fill="black" stroke="black" points="266.845,-232.19 257.486,-227.224 261.705,-236.943 266.845,-232.19"/>
<text text-anchor="middle" x="315" y="-253.28" font-family="Times,serif" font-size="14.00">the pork</text>
</g>
<!-- E12 -->
<g id="node13" class="node"><title>E12</title>
<ellipse fill="azure" stroke="black" cx="135.5" cy="-99.8701" rx="36.5405" ry="26.7407"/>
<text text-anchor="middle" x="135.5" y="-103.67" font-family="Times,serif" font-size="14.00">divide</text>
<text text-anchor="middle" x="135.5" y="-88.6701" font-family="Times,serif" font-size="14.00">12</text>
</g>
<!-- E11&#45;&gt;E12 -->
<g id="edge28" class="edge"><title>E11&#45;&gt;E12</title>
<path fill="none" stroke="black" d="M216.366,-182.322C201.185,-167.031 180.553,-146.25 163.929,-129.506"/>
<polygon fill="black" stroke="black" points="166.137,-126.761 156.607,-122.131 161.169,-131.693 166.137,-126.761"/>
<text text-anchor="middle" x="271" y="-148.54" font-family="Times,serif" font-size="14.00">the pork and sauce mixture</text>
</g>
<!-- EOR -->
<g id="node31" class="node"><title>EOR</title>
<ellipse fill="plum" stroke="black" cx="135.5" cy="-18" rx="57.3905" ry="18"/>
<text text-anchor="middle" x="135.5" y="-14.3" font-family="Times,serif" font-size="14.00">Bon appetit!</text>
</g>
<!-- E12&#45;&gt;EOR -->
<g id="edge30" class="edge"><title>E12&#45;&gt;EOR</title>
<path fill="none" stroke="black" d="M135.5,-72.7176C135.5,-64.2726 135.5,-54.8903 135.5,-46.3604"/>
<polygon fill="black" stroke="black" points="139,-46.1464 135.5,-36.1464 132,-46.1464 139,-46.1464"/>
</g>
<!-- D0 -->
<g id="node14" class="node"><title>D0</title>
<polygon fill="peachpuff" stroke="black" points="1250.5,-1351.88 1154.5,-1351.88 1154.5,-1315.88 1250.5,-1315.88 1250.5,-1351.88"/>
<text text-anchor="middle" x="1202.5" y="-1330.18" font-family="Times,serif" font-size="14.00">DOBJ: the oil</text>
</g>
<!-- D0&#45;&gt;E0 -->
<g id="edge1" class="edge"><title>D0&#45;&gt;E0</title>
<path fill="none" stroke="black" d="M1250.58,-1315.78C1275.61,-1306.16 1306.36,-1293.23 1332.5,-1278.88 1334.72,-1277.66 1336.98,-1276.33 1339.22,-1274.95"/>
<polygon fill="black" stroke="black" points="1341.24,-1277.81 1347.7,-1269.41 1337.41,-1271.95 1341.24,-1277.81"/>
</g>
<!-- P0_0 -->
<g id="node15" class="node"><title>P0_0</title>
<polygon fill="white" stroke="black" points="1470,-1351.88 1269,-1351.88 1269,-1315.88 1470,-1315.88 1470,-1351.88"/>
<text text-anchor="middle" x="1369.5" y="-1330.18" font-family="Times,serif" font-size="14.00">LOCATION:in a 10&#45;inch skillet</text>
</g>
<!-- P0_0&#45;&gt;E0 -->
<g id="edge2" class="edge"><title>P0_0&#45;&gt;E0</title>
<path fill="none" stroke="black" d="M1369.5,-1315.55C1369.5,-1307.82 1369.5,-1298.4 1369.5,-1289.24"/>
<polygon fill="black" stroke="black" points="1373,-1289.12 1369.5,-1279.12 1366,-1289.12 1373,-1289.12"/>
</g>
<!-- O0_0 -->
<g id="node16" class="node"><title>O0_0</title>
<polygon fill="white" stroke="black" points="1699,-1351.88 1488,-1351.88 1488,-1315.88 1699,-1315.88 1699,-1351.88"/>
<text text-anchor="middle" x="1593.5" y="-1330.18" font-family="Times,serif" font-size="14.00">OTHER: over medium&#45;high heat.</text>
</g>
<!-- O0_0&#45;&gt;E0 -->
<g id="edge3" class="edge"><title>O0_0&#45;&gt;E0</title>
<path fill="none" stroke="black" d="M1545.72,-1315.85C1503.73,-1300.87 1443.55,-1279.42 1405.51,-1265.85"/>
<polygon fill="black" stroke="black" points="1406.46,-1262.48 1395.87,-1262.41 1404.11,-1269.07 1406.46,-1262.48"/>
</g>
<!-- D3 -->
<g id="node17" class="node"><title>D3</title>
<polygon fill="peachpuff" stroke="black" points="713.5,-1165.27 421.5,-1165.27 421.5,-1129.27 713.5,-1129.27 713.5,-1165.27"/>
<text text-anchor="middle" x="567.5" y="-1143.57" font-family="Times,serif" font-size="14.00">DOBJ: brown sugar, vinegar, ketchup, the soup</text>
</g>
<!-- D3&#45;&gt;E3 -->
<g id="edge4" class="edge"><title>D3&#45;&gt;E3</title>
<path fill="none" stroke="black" d="M614.383,-1129.19C670.912,-1108.6 764.585,-1074.47 814.939,-1056.12"/>
<polygon fill="black" stroke="black" points="816.21,-1059.38 824.408,-1052.67 813.814,-1052.81 816.21,-1059.38"/>
</g>
<!-- P3_0 -->
<g id="node18" class="node"><title>P3_0</title>
<polygon fill="white" stroke="black" points="967.5,-1165.27 731.5,-1165.27 731.5,-1129.27 967.5,-1129.27 967.5,-1165.27"/>
<text text-anchor="middle" x="849.5" y="-1143.57" font-family="Times,serif" font-size="14.00">LOCATION:in a 5&#45;quart slow cooker</text>
</g>
<!-- P3_0&#45;&gt;E3 -->
<g id="edge5" class="edge"><title>P3_0&#45;&gt;E3</title>
<path fill="none" stroke="black" d="M849.5,-1128.84C849.5,-1115.38 849.5,-1096.28 849.5,-1079.57"/>
<polygon fill="black" stroke="black" points="853,-1079.54 849.5,-1069.54 846,-1079.54 853,-1079.54"/>
</g>
<!-- D1_ing -->
<g id="node19" class="node"><title>D1_ing</title>
<polygon fill="peachpuff" stroke="black" points="1323,-1270.01 1214,-1270.01 1214,-1234.01 1323,-1234.01 1323,-1270.01"/>
<text text-anchor="middle" x="1268.5" y="-1248.31" font-family="Times,serif" font-size="14.00">DOBJ: the pork</text>
</g>
<!-- D1_ing&#45;&gt;E1 -->
<g id="edge6" class="edge"><title>D1_ing&#45;&gt;E1</title>
<path fill="none" stroke="black" d="M1274.27,-1233.58C1278.86,-1219.7 1285.43,-1199.84 1291.08,-1182.77"/>
<polygon fill="black" stroke="black" points="1294.46,-1183.71 1294.28,-1173.12 1287.81,-1181.51 1294.46,-1183.71"/>
</g>
<!-- O2_0_0 -->
<g id="node20" class="node"><title>O2_0_0</title>
<polygon fill="white" stroke="black" points="1257,-1165.27 986,-1165.27 986,-1129.27 1257,-1129.27 1257,-1165.27"/>
<text text-anchor="middle" x="1121.5" y="-1143.57" font-family="Times,serif" font-size="14.00">OTHER: until it&#39;s well browned on all sides</text>
</g>
<!-- O2_0_0&#45;&gt;E2 -->
<g id="edge9" class="edge"><title>O2_0_0&#45;&gt;E2</title>
<path fill="none" stroke="black" d="M1121.5,-1128.84C1121.5,-1115.38 1121.5,-1096.28 1121.5,-1079.57"/>
<polygon fill="black" stroke="black" points="1125,-1079.54 1121.5,-1069.54 1118,-1079.54 1125,-1079.54"/>
</g>
<!-- O5_0_0 -->
<g id="node21" class="node"><title>O5_0_0</title>
<polygon fill="white" stroke="black" points="959.5,-955.791 849.5,-955.791 849.5,-919.791 959.5,-919.791 959.5,-955.791"/>
<text text-anchor="middle" x="904.5" y="-934.091" font-family="Times,serif" font-size="14.00">OTHER: to coat</text>
</g>
<!-- O5_0_0&#45;&gt;E5 -->
<g id="edge13" class="edge"><title>O5_0_0&#45;&gt;E5</title>
<path fill="none" stroke="black" d="M910.098,-919.363C914.556,-905.484 920.935,-885.622 926.417,-868.555"/>
<polygon fill="black" stroke="black" points="929.794,-869.486 929.52,-858.895 923.13,-867.345 929.794,-869.486"/>
</g>
<!-- O7_0_0 -->
<g id="node22" class="node"><title>O7_0_0</title>
<polygon fill="white" stroke="black" points="446,-746.311 333,-746.311 333,-710.311 446,-710.311 446,-746.311"/>
<text text-anchor="middle" x="389.5" y="-724.611" font-family="Times,serif" font-size="14.00">OTHER: on low</text>
</g>
<!-- O7_0_0&#45;&gt;E7 -->
<g id="edge16" class="edge"><title>O7_0_0&#45;&gt;E7</title>
<path fill="none" stroke="black" d="M431.585,-710.305C439.494,-707.255 447.722,-704.178 455.5,-701.441 527.103,-676.241 549.6,-682.295 618.5,-650.441 621.15,-649.216 623.835,-647.847 626.496,-646.398"/>
<polygon fill="black" stroke="black" points="628.481,-649.292 635.369,-641.242 624.964,-643.24 628.481,-649.292"/>
</g>
<!-- O7_1_0 -->
<g id="node23" class="node"><title>O7_1_0</title>
<polygon fill="white" stroke="black" points="635,-746.311 464,-746.311 464,-710.311 635,-710.311 635,-746.311"/>
<text text-anchor="middle" x="549.5" y="-724.611" font-family="Times,serif" font-size="14.00">OTHER: for 8 to 9 hours*</text>
</g>
<!-- O7_1_0&#45;&gt;E7 -->
<g id="edge17" class="edge"><title>O7_1_0&#45;&gt;E7</title>
<path fill="none" stroke="black" d="M568.16,-709.882C585.368,-693.81 611.166,-669.715 630.961,-651.226"/>
<polygon fill="black" stroke="black" points="633.573,-653.576 638.492,-644.192 628.795,-648.46 633.573,-653.576"/>
</g>
<!-- O7_2_0 -->
<g id="node24" class="node"><title>O7_2_0</title>
<polygon fill="white" stroke="black" points="886,-746.311 653,-746.311 653,-710.311 886,-710.311 886,-746.311"/>
<text text-anchor="middle" x="769.5" y="-724.611" font-family="Times,serif" font-size="14.00">OTHER: until the pork is fork&#45;tender</text>
</g>
<!-- O7_2_0&#45;&gt;E7 -->
<g id="edge18" class="edge"><title>O7_2_0&#45;&gt;E7</title>
<path fill="none" stroke="black" d="M750.84,-709.882C733.632,-693.81 707.834,-669.715 688.039,-651.226"/>
<polygon fill="black" stroke="black" points="690.205,-648.46 680.508,-644.192 685.427,-653.576 690.205,-648.46"/>
</g>
<!-- P8_0_0 -->
<g id="node25" class="node"><title>P8_0_0</title>
<polygon fill="white" stroke="black" points="417,-641.571 230,-641.571 230,-605.571 417,-605.571 417,-641.571"/>
<text text-anchor="middle" x="323.5" y="-619.871" font-family="Times,serif" font-size="14.00">LOCATION:from the cooker</text>
</g>
<!-- P8_0_0&#45;&gt;E8 -->
<g id="edge20" class="edge"><title>P8_0_0&#45;&gt;E8</title>
<path fill="none" stroke="black" d="M356.646,-605.484C386.845,-589.914 432.675,-566.276 472.5,-545.701 475.409,-544.198 478.413,-542.645 481.437,-541.082"/>
<polygon fill="black" stroke="black" points="483.22,-544.1 490.495,-536.397 480.005,-537.882 483.22,-544.1"/>
</g>
<!-- O8_0_0 -->
<g id="node26" class="node"><title>O8_0_0</title>
<polygon fill="white" stroke="black" points="609.5,-641.571 435.5,-641.571 435.5,-605.571 609.5,-605.571 609.5,-641.571"/>
<text text-anchor="middle" x="522.5" y="-619.871" font-family="Times,serif" font-size="14.00">OTHER: to a cutting board</text>
</g>
<!-- O8_0_0&#45;&gt;E8 -->
<g id="edge21" class="edge"><title>O8_0_0&#45;&gt;E8</title>
<path fill="none" stroke="black" d="M522.5,-605.142C522.5,-591.678 522.5,-572.582 522.5,-555.87"/>
<polygon fill="black" stroke="black" points="526,-555.843 522.5,-545.843 519,-555.843 526,-555.843"/>
</g>
<!-- O9_0_0 -->
<g id="node27" class="node"><title>O9_0_0</title>
<polygon fill="white" stroke="black" points="463,-536.831 306,-536.831 306,-500.831 463,-500.831 463,-536.831"/>
<text text-anchor="middle" x="384.5" y="-515.131" font-family="Times,serif" font-size="14.00">OTHER: for 10 minutes</text>
</g>
<!-- O9_0_0&#45;&gt;E9 -->
<g id="edge23" class="edge"><title>O9_0_0&#45;&gt;E9</title>
<path fill="none" stroke="black" d="M391.794,-500.402C397.563,-486.619 405.801,-466.935 412.911,-449.948"/>
<polygon fill="black" stroke="black" points="416.307,-450.898 416.94,-440.322 409.85,-448.195 416.307,-450.898"/>
</g>
<!-- O10_0_0 -->
<g id="node28" class="node"><title>O10_0_0</title>
<polygon fill="white" stroke="black" points="364,-432.09 215,-432.09 215,-396.09 364,-396.09 364,-432.09"/>
<text text-anchor="middle" x="289.5" y="-410.39" font-family="Times,serif" font-size="14.00">OTHER: using 2 forks</text>
</g>
<!-- O10_0_0&#45;&gt;E10 -->
<g id="edge25" class="edge"><title>O10_0_0&#45;&gt;E10</title>
<path fill="none" stroke="black" d="M296.794,-395.662C302.603,-381.783 310.916,-361.922 318.059,-344.854"/>
<polygon fill="black" stroke="black" points="321.47,-345.77 322.102,-335.194 315.013,-343.068 321.47,-345.77"/>
</g>
<!-- P11_0_0 -->
<g id="node29" class="node"><title>P11_0_0</title>
<polygon fill="white" stroke="black" points="281,-327.35 108,-327.35 108,-291.35 281,-291.35 281,-327.35"/>
<text text-anchor="middle" x="194.5" y="-305.65" font-family="Times,serif" font-size="14.00">LOCATION:to the cooker.</text>
</g>
<!-- P11_0_0&#45;&gt;E11 -->
<g id="edge27" class="edge"><title>P11_0_0&#45;&gt;E11</title>
<path fill="none" stroke="black" d="M201.794,-290.922C207.603,-277.043 215.916,-257.181 223.059,-240.114"/>
<polygon fill="black" stroke="black" points="226.47,-241.03 227.102,-230.454 220.013,-238.327 226.47,-241.03"/>
</g>
<!-- P12_0_0 -->
<g id="node30" class="node"><title>P12_0_0</title>
<polygon fill="white" stroke="black" points="183,-222.61 0,-222.61 0,-186.61 183,-186.61 183,-222.61"/>
<text text-anchor="middle" x="91.5" y="-200.91" font-family="Times,serif" font-size="14.00">COOBJECT:among the rolls</text>
</g>
<!-- P12_0_0&#45;&gt;E12 -->
<g id="edge29" class="edge"><title>P12_0_0&#45;&gt;E12</title>
<path fill="none" stroke="black" d="M98.964,-186.182C104.908,-172.303 113.414,-152.441 120.723,-135.374"/>
<polygon fill="black" stroke="black" points="124.141,-136.284 124.86,-125.714 117.706,-133.529 124.141,-136.284"/>
</g>
</g>
</svg>
