<?xml version="1.0" encoding="UTF-8" standalone="no"?>
<!DOCTYPE svg PUBLIC "-//W3C//DTD SVG 1.1//EN"
 "http://www.w3.org/Graphics/SVG/1.1/DTD/svg11.dtd">
<!-- Generated by graphviz version 2.38.0 (20140413.2041)
 -->
<!-- Title: recipe Pages: 1 -->
<svg width="1920pt" height="1046pt"
 viewBox="0.00 0.00 1919.50 1045.66" xmlns="http://www.w3.org/2000/svg" xmlns:xlink="http://www.w3.org/1999/xlink">
<g id="graph0" class="graph" transform="scale(1 1) rotate(0) translate(4 1041.66)">
<title>recipe</title>
<polygon fill="white" stroke="none" points="-4,4 -4,-1041.66 1915.5,-1041.66 1915.5,4 -4,4"/>
<!-- E0 -->
<g id="node1" class="node"><title>E0</title>
<ellipse fill="azure" stroke="black" cx="1333" cy="-937.791" rx="31.6406" ry="26.7407"/>
<text text-anchor="middle" x="1333" y="-941.591" font-family="Times,serif" font-size="14.00">cook</text>
<text text-anchor="middle" x="1333" y="-926.591" font-family="Times,serif" font-size="14.00">0</text>
</g>
<!-- E2 -->
<g id="node3" class="node"><title>E2</title>
<ellipse fill="azure" stroke="black" cx="911" cy="-833.051" rx="33.4697" ry="26.7407"/>
<text text-anchor="middle" x="911" y="-836.851" font-family="Times,serif" font-size="14.00">drain</text>
<text text-anchor="middle" x="911" y="-821.851" font-family="Times,serif" font-size="14.00">2</text>
</g>
<!-- E0&#45;&gt;E2 -->
<g id="edge9" class="edge"><title>E0&#45;&gt;E2</title>
<path fill="none" stroke="black" d="M1302.65,-929.402C1228.28,-911.297 1036.88,-864.699 952.274,-844.099"/>
<polygon fill="black" stroke="black" points="953.044,-840.685 942.5,-841.72 951.388,-847.486 953.044,-840.685"/>
<text text-anchor="middle" x="1161" y="-881.721" font-family="Times,serif" font-size="14.00">meat</text>
</g>
<!-- E1 -->
<g id="node2" class="node"><title>E1</title>
<ellipse fill="azure" stroke="black" cx="788" cy="-937.791" rx="34.7971" ry="26.7407"/>
<text text-anchor="middle" x="788" y="-941.591" font-family="Times,serif" font-size="14.00">puree</text>
<text text-anchor="middle" x="788" y="-926.591" font-family="Times,serif" font-size="14.00">1</text>
</g>
<!-- E1&#45;&gt;E2 -->
<g id="edge10" class="edge"><title>E1&#45;&gt;E2</title>
<path fill="none" stroke="black" d="M811.135,-917.466C830.758,-901.076 859.057,-877.438 880.524,-859.507"/>
<polygon fill="black" stroke="black" points="882.953,-862.039 888.384,-852.942 878.465,-856.666 882.953,-862.039"/>
<text text-anchor="middle" x="907.5" y="-881.721" font-family="Times,serif" font-size="14.00">IMPLICIT PREP</text>
</g>
<!-- E3 -->
<g id="node4" class="node"><title>E3</title>
<ellipse fill="azure" stroke="black" cx="827" cy="-728.311" rx="27" ry="26.7407"/>
<text text-anchor="middle" x="827" y="-732.111" font-family="Times,serif" font-size="14.00">stir</text>
<text text-anchor="middle" x="827" y="-717.111" font-family="Times,serif" font-size="14.00">3</text>
</g>
<!-- E1&#45;&gt;E3 -->
<g id="edge11" class="edge"><title>E1&#45;&gt;E3</title>
<path fill="none" stroke="black" d="M787.493,-910.436C787.52,-883.815 789.048,-841.667 797,-806.181 800.327,-791.332 806.058,-775.572 811.625,-762.213"/>
<polygon fill="black" stroke="black" points="814.871,-763.526 815.613,-752.957 808.442,-760.756 814.871,-763.526"/>
<text text-anchor="middle" x="833" y="-829.351" font-family="Times,serif" font-size="14.00">pureed soup</text>
</g>
<!-- E2&#45;&gt;E3 -->
<g id="edge12" class="edge"><title>E2&#45;&gt;E3</title>
<path fill="none" stroke="black" d="M893.186,-810.262C880.604,-794.874 863.63,-774.113 850.022,-757.469"/>
<polygon fill="black" stroke="black" points="852.685,-755.197 843.646,-749.67 847.266,-759.627 852.685,-755.197"/>
<text text-anchor="middle" x="940.5" y="-776.981" font-family="Times,serif" font-size="14.00">LOCATION:into meat</text>
</g>
<!-- E4 -->
<g id="node5" class="node"><title>E4</title>
<ellipse fill="azure" stroke="black" cx="770" cy="-623.571" rx="38.7821" ry="26.7407"/>
<text text-anchor="middle" x="770" y="-627.371" font-family="Times,serif" font-size="14.00">reduce</text>
<text text-anchor="middle" x="770" y="-612.371" font-family="Times,serif" font-size="14.00">4</text>
</g>
<!-- E3&#45;&gt;E4 -->
<g id="edge14" class="edge"><title>E3&#45;&gt;E4</title>
<path fill="none" stroke="black" d="M814.35,-704.509C806.799,-690.899 797.072,-673.367 788.652,-658.191"/>
<polygon fill="black" stroke="black" points="791.522,-656.148 783.61,-649.102 785.401,-659.544 791.522,-656.148"/>
<text text-anchor="middle" x="852.5" y="-672.241" font-family="Times,serif" font-size="14.00">IMPLICIT PREP</text>
</g>
<!-- E5 -->
<g id="node6" class="node"><title>E5</title>
<ellipse fill="azure" stroke="black" cx="688" cy="-518.831" rx="41.9398" ry="26.7407"/>
<text text-anchor="middle" x="688" y="-522.631" font-family="Times,serif" font-size="14.00">simmer</text>
<text text-anchor="middle" x="688" y="-507.631" font-family="Times,serif" font-size="14.00">5</text>
</g>
<!-- E4&#45;&gt;E5 -->
<g id="edge15" class="edge"><title>E4&#45;&gt;E5</title>
<path fill="none" stroke="black" d="M751.802,-599.769C740.391,-585.472 725.524,-566.846 713.013,-551.17"/>
<polygon fill="black" stroke="black" points="715.69,-548.913 706.716,-543.28 710.219,-553.28 715.69,-548.913"/>
<text text-anchor="middle" x="785" y="-567.501" font-family="Times,serif" font-size="14.00">IMPLICIT DOBJ</text>
</g>
<!-- E6 -->
<g id="node7" class="node"><title>E6</title>
<ellipse fill="azure" stroke="black" cx="534" cy="-414.09" rx="35.2113" ry="26.7407"/>
<text text-anchor="middle" x="534" y="-417.89" font-family="Times,serif" font-size="14.00">stir in</text>
<text text-anchor="middle" x="534" y="-402.89" font-family="Times,serif" font-size="14.00">6</text>
</g>
<!-- E5&#45;&gt;E6 -->
<g id="edge18" class="edge"><title>E5&#45;&gt;E6</title>
<path fill="none" stroke="black" d="M659.754,-498.986C634.054,-481.841 596.045,-456.483 568.545,-438.137"/>
<polygon fill="black" stroke="black" points="570.276,-435.084 560.015,-432.446 566.391,-440.908 570.276,-435.084"/>
<text text-anchor="middle" x="671.5" y="-462.76" font-family="Times,serif" font-size="14.00">IMPLICIT PREP</text>
</g>
<!-- E7 -->
<g id="node8" class="node"><title>E7</title>
<ellipse fill="azure" stroke="black" cx="456" cy="-309.35" rx="35.2113" ry="26.7407"/>
<text text-anchor="middle" x="456" y="-313.15" font-family="Times,serif" font-size="14.00">stir in</text>
<text text-anchor="middle" x="456" y="-298.15" font-family="Times,serif" font-size="14.00">7</text>
</g>
<!-- E6&#45;&gt;E7 -->
<g id="edge21" class="edge"><title>E6&#45;&gt;E7</title>
<path fill="none" stroke="black" d="M516.883,-390.544C505.884,-376.057 491.453,-357.049 479.402,-341.174"/>
<polygon fill="black" stroke="black" points="482.182,-339.048 473.347,-333.199 476.606,-343.281 482.182,-339.048"/>
<text text-anchor="middle" x="550.5" y="-358.02" font-family="Times,serif" font-size="14.00">IMPLICIT PREP</text>
</g>
<!-- E8 -->
<g id="node9" class="node"><title>E8</title>
<ellipse fill="azure" stroke="black" cx="379" cy="-204.61" rx="28.0702" ry="26.7407"/>
<text text-anchor="middle" x="379" y="-208.41" font-family="Times,serif" font-size="14.00">heat</text>
<text text-anchor="middle" x="379" y="-193.41" font-family="Times,serif" font-size="14.00">8</text>
</g>
<!-- E7&#45;&gt;E8 -->
<g id="edge22" class="edge"><title>E7&#45;&gt;E8</title>
<path fill="none" stroke="black" d="M438.911,-285.549C427.743,-270.648 413.051,-251.044 401.011,-234.979"/>
<polygon fill="black" stroke="black" points="403.788,-232.848 394.99,-226.945 398.186,-237.046 403.788,-232.848"/>
<text text-anchor="middle" x="474" y="-253.28" font-family="Times,serif" font-size="14.00">IMPLICIT DOBJ</text>
</g>
<!-- E9 -->
<g id="node10" class="node"><title>E9</title>
<ellipse fill="azure" stroke="black" cx="379" cy="-99.8701" rx="32.5538" ry="26.7407"/>
<text text-anchor="middle" x="379" y="-103.67" font-family="Times,serif" font-size="14.00">serve</text>
<text text-anchor="middle" x="379" y="-88.6701" font-family="Times,serif" font-size="14.00">9</text>
</g>
<!-- E8&#45;&gt;E9 -->
<g id="edge24" class="edge"><title>E8&#45;&gt;E9</title>
<path fill="none" stroke="black" d="M379,-177.685C379,-165.395 379,-150.507 379,-137.121"/>
<polygon fill="black" stroke="black" points="382.5,-136.787 379,-126.787 375.5,-136.787 382.5,-136.787"/>
<text text-anchor="middle" x="430" y="-148.54" font-family="Times,serif" font-size="14.00">IMPLICIT DOBJ</text>
</g>
<!-- EOR -->
<g id="node25" class="node"><title>EOR</title>
<ellipse fill="plum" stroke="black" cx="379" cy="-18" rx="57.3905" ry="18"/>
<text text-anchor="middle" x="379" y="-14.3" font-family="Times,serif" font-size="14.00">Bon appetit!</text>
</g>
<!-- E9&#45;&gt;EOR -->
<g id="edge25" class="edge"><title>E9&#45;&gt;EOR</title>
<path fill="none" stroke="black" d="M379,-72.7176C379,-64.2726 379,-54.8903 379,-46.3604"/>
<polygon fill="black" stroke="black" points="382.5,-46.1464 379,-36.1464 375.5,-46.1464 382.5,-46.1464"/>
</g>
<!-- D0 -->
<g id="node11" class="node"><title>D0</title>
<polygon fill="peachpuff" stroke="black" points="1049,-1037.66 965,-1037.66 965,-1001.66 1049,-1001.66 1049,-1037.66"/>
<text text-anchor="middle" x="1007" y="-1015.96" font-family="Times,serif" font-size="14.00">DOBJ: beef</text>
</g>
<!-- D0&#45;&gt;E0 -->
<g id="edge1" class="edge"><title>D0&#45;&gt;E0</title>
<path fill="none" stroke="black" d="M1049.19,-1004.52C1052.5,-1003.51 1055.8,-1002.55 1059,-1001.66 1140.95,-978.913 1238.3,-958.001 1292.11,-946.968"/>
<polygon fill="black" stroke="black" points="1292.85,-950.388 1301.95,-944.96 1291.46,-943.529 1292.85,-950.388"/>
</g>
<!-- P0_0 -->
<g id="node12" class="node"><title>P0_0</title>
<polygon fill="white" stroke="black" points="1354.5,-1037.66 1067.5,-1037.66 1067.5,-1001.66 1354.5,-1001.66 1354.5,-1037.66"/>
<text text-anchor="middle" x="1211" y="-1015.96" font-family="Times,serif" font-size="14.00">LOCATION:in a deep skillet or large saucepan</text>
</g>
<!-- P0_0&#45;&gt;E0 -->
<g id="edge2" class="edge"><title>P0_0&#45;&gt;E0</title>
<path fill="none" stroke="black" d="M1237.17,-1001.53C1255.47,-989.548 1280.05,-973.454 1299.74,-960.566"/>
<polygon fill="black" stroke="black" points="1301.67,-963.484 1308.12,-955.079 1297.84,-957.628 1301.67,-963.484"/>
</g>
<!-- P0_1 -->
<g id="node13" class="node"><title>P0_1</title>
<polygon fill="peachpuff" stroke="black" points="1537,-1037.66 1373,-1037.66 1373,-1001.66 1537,-1001.66 1537,-1037.66"/>
<text text-anchor="middle" x="1455" y="-1015.96" font-family="Times,serif" font-size="14.00">COOBJECT:with salt, oil</text>
</g>
<!-- P0_1&#45;&gt;E0 -->
<g id="edge3" class="edge"><title>P0_1&#45;&gt;E0</title>
<path fill="none" stroke="black" d="M1428.83,-1001.53C1410.53,-989.548 1385.95,-973.454 1366.26,-960.566"/>
<polygon fill="black" stroke="black" points="1368.16,-957.628 1357.88,-955.079 1364.33,-963.484 1368.16,-957.628"/>
</g>
<!-- P0_2 -->
<g id="node14" class="node"><title>P0_2</title>
<polygon fill="white" stroke="black" points="1752.5,-1037.66 1555.5,-1037.66 1555.5,-1001.66 1752.5,-1001.66 1752.5,-1037.66"/>
<text text-anchor="middle" x="1654" y="-1015.96" font-family="Times,serif" font-size="14.00">LOCATION:over medium heat</text>
</g>
<!-- P0_2&#45;&gt;E0 -->
<g id="edge4" class="edge"><title>P0_2&#45;&gt;E0</title>
<path fill="none" stroke="black" d="M1585.53,-1001.62C1521.01,-985.571 1426.52,-962.06 1373.3,-948.819"/>
<polygon fill="black" stroke="black" points="1374.09,-945.409 1363.55,-946.391 1372.4,-952.202 1374.09,-945.409"/>
</g>
<!-- O0_0 -->
<g id="node15" class="node"><title>O0_0</title>
<polygon fill="white" stroke="black" points="1911.5,-1037.66 1770.5,-1037.66 1770.5,-1001.66 1911.5,-1001.66 1911.5,-1037.66"/>
<text text-anchor="middle" x="1841" y="-1015.96" font-family="Times,serif" font-size="14.00">OTHER: until brown</text>
</g>
<!-- O0_0&#45;&gt;E0 -->
<g id="edge5" class="edge"><title>O0_0&#45;&gt;E0</title>
<path fill="none" stroke="black" d="M1770.41,-1003.23C1767.57,-1002.68 1764.76,-1002.16 1762,-1001.66 1620.5,-976.098 1451.32,-953.68 1374.54,-943.946"/>
<polygon fill="black" stroke="black" points="1374.7,-940.438 1364.34,-942.658 1373.82,-947.383 1374.7,-940.438"/>
</g>
<!-- D1 -->
<g id="node16" class="node"><title>D1</title>
<polygon fill="peachpuff" stroke="black" points="603,-1037.66 437,-1037.66 437,-1001.66 603,-1001.66 603,-1037.66"/>
<text text-anchor="middle" x="520" y="-1015.96" font-family="Times,serif" font-size="14.00">DOBJ: french onion soup</text>
</g>
<!-- D1&#45;&gt;E1 -->
<g id="edge6" class="edge"><title>D1&#45;&gt;E1</title>
<path fill="none" stroke="black" d="M577.164,-1001.62C627.9,-986.504 700.833,-964.769 746.264,-951.229"/>
<polygon fill="black" stroke="black" points="747.495,-954.515 756.079,-948.304 745.496,-947.806 747.495,-954.515"/>
</g>
<!-- P1_0 -->
<g id="node17" class="node"><title>P1_0</title>
<polygon fill="white" stroke="black" points="783,-1037.66 621,-1037.66 621,-1001.66 783,-1001.66 783,-1037.66"/>
<text text-anchor="middle" x="702" y="-1015.96" font-family="Times,serif" font-size="14.00">LOCATION:in a blender</text>
</g>
<!-- P1_0&#45;&gt;E1 -->
<g id="edge7" class="edge"><title>P1_0&#45;&gt;E1</title>
<path fill="none" stroke="black" d="M720.661,-1001.33C731.788,-990.996 746.158,-977.65 758.764,-965.943"/>
<polygon fill="black" stroke="black" points="761.395,-968.277 766.34,-958.907 756.631,-963.147 761.395,-968.277"/>
</g>
<!-- O1_0 -->
<g id="node18" class="node"><title>O1_0</title>
<polygon fill="white" stroke="black" points="946.5,-1037.66 801.5,-1037.66 801.5,-1001.66 946.5,-1001.66 946.5,-1037.66"/>
<text text-anchor="middle" x="874" y="-1015.96" font-family="Times,serif" font-size="14.00">OTHER: until smooth</text>
</g>
<!-- O1_0&#45;&gt;E1 -->
<g id="edge8" class="edge"><title>O1_0&#45;&gt;E1</title>
<path fill="none" stroke="black" d="M855.339,-1001.33C844.212,-990.996 829.842,-977.65 817.236,-965.943"/>
<polygon fill="black" stroke="black" points="819.369,-963.147 809.66,-958.907 814.605,-968.277 819.369,-963.147"/>
</g>
<!-- D4_0 -->
<g id="node19" class="node"><title>D4_0</title>
<polygon fill="white" stroke="black" points="781.5,-746.311 698.5,-746.311 698.5,-710.311 781.5,-710.311 781.5,-746.311"/>
<text text-anchor="middle" x="740" y="-724.611" font-family="Times,serif" font-size="14.00">DOBJ: heat</text>
</g>
<!-- D4_0&#45;&gt;E4 -->
<g id="edge13" class="edge"><title>D4_0&#45;&gt;E4</title>
<path fill="none" stroke="black" d="M745.089,-709.882C749.048,-696.323 754.675,-677.053 759.58,-660.257"/>
<polygon fill="black" stroke="black" points="763.075,-660.772 762.519,-650.192 756.356,-658.81 763.075,-660.772"/>
</g>
<!-- O5_0_0 -->
<g id="node20" class="node"><title>O5_0_0</title>
<polygon fill="white" stroke="black" points="713,-641.571 585,-641.571 585,-605.571 713,-605.571 713,-641.571"/>
<text text-anchor="middle" x="649" y="-619.871" font-family="Times,serif" font-size="14.00">OTHER: 5 minutes</text>
</g>
<!-- O5_0_0&#45;&gt;E5 -->
<g id="edge16" class="edge"><title>O5_0_0&#45;&gt;E5</title>
<path fill="none" stroke="black" d="M655.616,-605.142C660.848,-591.359 668.32,-571.676 674.768,-554.688"/>
<polygon fill="black" stroke="black" points="678.145,-555.653 678.422,-545.062 671.601,-553.169 678.145,-555.653"/>
</g>
<!-- D6_ing -->
<g id="node21" class="node"><title>D6_ing</title>
<polygon fill="peachpuff" stroke="black" points="422,-536.831 0,-536.831 0,-500.831 422,-500.831 422,-536.831"/>
<text text-anchor="middle" x="211" y="-515.131" font-family="Times,serif" font-size="14.00">DOBJ: chili powder, tomato sauce, beans, tomato paste, pepper, cumin</text>
</g>
<!-- D6_ing&#45;&gt;E6 -->
<g id="edge17" class="edge"><title>D6_ing&#45;&gt;E6</title>
<path fill="none" stroke="black" d="M293.409,-500.8C349.71,-487.783 425.353,-467.552 489,-440.96 492.173,-439.635 495.399,-438.13 498.593,-436.528"/>
<polygon fill="black" stroke="black" points="500.249,-439.612 507.436,-431.827 496.963,-433.431 500.249,-439.612"/>
</g>
<!-- O6_0_0 -->
<g id="node22" class="node"><title>O6_0_0</title>
<polygon fill="white" stroke="black" points="628,-536.831 440,-536.831 440,-500.831 628,-500.831 628,-536.831"/>
<text text-anchor="middle" x="534" y="-515.131" font-family="Times,serif" font-size="14.00">OTHER: until well combined</text>
</g>
<!-- O6_0_0&#45;&gt;E6 -->
<g id="edge19" class="edge"><title>O6_0_0&#45;&gt;E6</title>
<path fill="none" stroke="black" d="M534,-500.402C534,-486.937 534,-467.842 534,-451.129"/>
<polygon fill="black" stroke="black" points="537.5,-451.103 534,-441.103 530.5,-451.103 537.5,-451.103"/>
</g>
<!-- D7_ing -->
<g id="node23" class="node"><title>D7_ing</title>
<polygon fill="peachpuff" stroke="black" points="480.5,-432.09 357.5,-432.09 357.5,-396.09 480.5,-396.09 480.5,-432.09"/>
<text text-anchor="middle" x="419" y="-410.39" font-family="Times,serif" font-size="14.00">DOBJ: cola, cocoa</text>
</g>
<!-- D7_ing&#45;&gt;E7 -->
<g id="edge20" class="edge"><title>D7_ing&#45;&gt;E7</title>
<path fill="none" stroke="black" d="M425.277,-395.662C430.24,-381.879 437.329,-362.195 443.447,-345.208"/>
<polygon fill="black" stroke="black" points="446.818,-346.176 446.913,-335.582 440.232,-343.805 446.818,-346.176"/>
</g>
<!-- O8_0_0 -->
<g id="node24" class="node"><title>O8_0_0</title>
<polygon fill="white" stroke="black" points="402.5,-327.35 283.5,-327.35 283.5,-291.35 402.5,-291.35 402.5,-327.35"/>
<text text-anchor="middle" x="343" y="-305.65" font-family="Times,serif" font-size="14.00">OTHER: through</text>
</g>
<!-- O8_0_0&#45;&gt;E8 -->
<g id="edge23" class="edge"><title>O8_0_0&#45;&gt;E8</title>
<path fill="none" stroke="black" d="M349.107,-290.922C353.97,-277.043 360.929,-257.181 366.91,-240.114"/>
<polygon fill="black" stroke="black" points="370.291,-241.049 370.295,-230.454 363.685,-238.734 370.291,-241.049"/>
</g>
</g>
</svg>
