<?xml version="1.0" encoding="UTF-8" standalone="no"?>
<!DOCTYPE svg PUBLIC "-//W3C//DTD SVG 1.1//EN"
 "http://www.w3.org/Graphics/SVG/1.1/DTD/svg11.dtd">
<!-- Generated by graphviz version 2.38.0 (20140413.2041)
 -->
<!-- Title: recipe Pages: 1 -->
<svg width="1708pt" height="522pt"
 viewBox="0.00 0.00 1708.00 521.96" xmlns="http://www.w3.org/2000/svg" xmlns:xlink="http://www.w3.org/1999/xlink">
<g id="graph0" class="graph" transform="scale(1 1) rotate(0) translate(4 517.96)">
<title>recipe</title>
<polygon fill="white" stroke="none" points="-4,4 -4,-517.96 1704,-517.96 1704,4 -4,4"/>
<!-- E0 -->
<g id="node1" class="node"><title>E0</title>
<ellipse fill="azure" stroke="black" cx="1516.5" cy="-414.09" rx="64.1938" ry="26.7407"/>
<text text-anchor="middle" x="1516.5" y="-417.89" font-family="Times,serif" font-size="14.00">beat together</text>
<text text-anchor="middle" x="1516.5" y="-402.89" font-family="Times,serif" font-size="14.00">0</text>
</g>
<!-- E2 -->
<g id="node3" class="node"><title>E2</title>
<ellipse fill="azure" stroke="black" cx="1109.5" cy="-309.35" rx="27" ry="26.7407"/>
<text text-anchor="middle" x="1109.5" y="-313.15" font-family="Times,serif" font-size="14.00">dip</text>
<text text-anchor="middle" x="1109.5" y="-298.15" font-family="Times,serif" font-size="14.00">2</text>
</g>
<!-- E0&#45;&gt;E2 -->
<g id="edge5" class="edge"><title>E0&#45;&gt;E2</title>
<path fill="none" stroke="black" d="M1469.63,-395.593C1461,-392.623 1452.02,-389.702 1443.5,-387.22 1336.84,-356.158 1208.11,-329.518 1146.23,-317.371"/>
<polygon fill="black" stroke="black" points="1146.66,-313.89 1136.18,-315.41 1145.32,-320.76 1146.66,-313.89"/>
<text text-anchor="middle" x="1457" y="-358.02" font-family="Times,serif" font-size="14.00">COOBJECT:into egg mixture</text>
</g>
<!-- E1 -->
<g id="node2" class="node"><title>E1</title>
<ellipse fill="azure" stroke="black" cx="734.5" cy="-309.35" rx="28.0702" ry="26.7407"/>
<text text-anchor="middle" x="734.5" y="-313.15" font-family="Times,serif" font-size="14.00">heat</text>
<text text-anchor="middle" x="734.5" y="-298.15" font-family="Times,serif" font-size="14.00">1</text>
</g>
<!-- E3 -->
<g id="node4" class="node"><title>E3</title>
<ellipse fill="azure" stroke="black" cx="951.5" cy="-204.61" rx="32.5538" ry="26.7407"/>
<text text-anchor="middle" x="951.5" y="-208.41" font-family="Times,serif" font-size="14.00">place</text>
<text text-anchor="middle" x="951.5" y="-193.41" font-family="Times,serif" font-size="14.00">3</text>
</g>
<!-- E1&#45;&gt;E3 -->
<g id="edge9" class="edge"><title>E1&#45;&gt;E3</title>
<path fill="none" stroke="black" d="M760.426,-298.456C795.267,-284.84 858.796,-258.882 910.5,-231.48 913.01,-230.15 915.571,-228.721 918.125,-227.242"/>
<polygon fill="black" stroke="black" points="919.93,-230.241 926.704,-222.094 916.328,-224.239 919.93,-230.241"/>
<text text-anchor="middle" x="929.5" y="-253.28" font-family="Times,serif" font-size="14.00">LOCATION:in pan</text>
</g>
<!-- E2&#45;&gt;E3 -->
<g id="edge8" class="edge"><title>E2&#45;&gt;E3</title>
<path fill="none" stroke="black" d="M1087.2,-293.848C1060.64,-276.58 1016.02,-247.565 985.238,-227.548"/>
<polygon fill="black" stroke="black" points="986.848,-224.421 976.557,-221.903 983.032,-230.289 986.848,-224.421"/>
<text text-anchor="middle" x="1090.5" y="-253.28" font-family="Times,serif" font-size="14.00">IMPLICIT DOBJ</text>
</g>
<!-- E4 -->
<g id="node5" class="node"><title>E4</title>
<ellipse fill="azure" stroke="black" cx="593.5" cy="-99.8701" rx="31.6406" ry="26.7407"/>
<text text-anchor="middle" x="593.5" y="-103.67" font-family="Times,serif" font-size="14.00">cook</text>
<text text-anchor="middle" x="593.5" y="-88.6701" font-family="Times,serif" font-size="14.00">4</text>
</g>
<!-- E3&#45;&gt;E4 -->
<g id="edge10" class="edge"><title>E3&#45;&gt;E4</title>
<path fill="none" stroke="black" d="M927.054,-186.389C921.765,-183.182 916.081,-180.102 910.5,-177.74 816.339,-137.886 697.313,-116.011 635.335,-106.58"/>
<polygon fill="black" stroke="black" points="635.573,-103.077 625.167,-105.067 634.543,-110 635.573,-103.077"/>
<text text-anchor="middle" x="911.5" y="-148.54" font-family="Times,serif" font-size="14.00">IMPLICIT DOBJ</text>
</g>
<!-- EOR -->
<g id="node15" class="node"><title>EOR</title>
<ellipse fill="plum" stroke="black" cx="593.5" cy="-18" rx="57.3905" ry="18"/>
<text text-anchor="middle" x="593.5" y="-14.3" font-family="Times,serif" font-size="14.00">Bon appetit!</text>
</g>
<!-- E4&#45;&gt;EOR -->
<g id="edge14" class="edge"><title>E4&#45;&gt;EOR</title>
<path fill="none" stroke="black" d="M593.5,-72.7176C593.5,-64.2726 593.5,-54.8903 593.5,-46.3604"/>
<polygon fill="black" stroke="black" points="597,-46.1464 593.5,-36.1464 590,-46.1464 597,-46.1464"/>
</g>
<!-- D0 -->
<g id="node6" class="node"><title>D0</title>
<polygon fill="peachpuff" stroke="black" points="1700,-513.96 1333,-513.96 1333,-477.96 1700,-477.96 1700,-513.96"/>
<text text-anchor="middle" x="1516.5" y="-492.26" font-family="Times,serif" font-size="14.00">DOBJ: baking powder, eggs, milk, salt, cocoa powder, sugar</text>
</g>
<!-- D0&#45;&gt;E0 -->
<g id="edge1" class="edge"><title>D0&#45;&gt;E0</title>
<path fill="none" stroke="black" d="M1516.5,-477.63C1516.5,-469.896 1516.5,-460.476 1516.5,-451.319"/>
<polygon fill="black" stroke="black" points="1520,-451.194 1516.5,-441.194 1513,-451.195 1520,-451.194"/>
</g>
<!-- D1 -->
<g id="node7" class="node"><title>D1</title>
<polygon fill="white" stroke="black" points="628.5,-432.09 380.5,-432.09 380.5,-396.09 628.5,-396.09 628.5,-432.09"/>
<text text-anchor="middle" x="504.5" y="-410.39" font-family="Times,serif" font-size="14.00">DOBJ: lightly buttered skillet or griddle</text>
</g>
<!-- D1&#45;&gt;E1 -->
<g id="edge2" class="edge"><title>D1&#45;&gt;E1</title>
<path fill="none" stroke="black" d="M542.738,-396.01C586.467,-376.476 657.448,-344.769 699.689,-325.9"/>
<polygon fill="black" stroke="black" points="701.307,-329.011 709.01,-321.736 698.452,-322.619 701.307,-329.011"/>
</g>
<!-- O1_0 -->
<g id="node8" class="node"><title>O1_0</title>
<polygon fill="white" stroke="black" points="822.5,-432.09 646.5,-432.09 646.5,-396.09 822.5,-396.09 822.5,-432.09"/>
<text text-anchor="middle" x="734.5" y="-410.39" font-family="Times,serif" font-size="14.00">OTHER: over medium heat</text>
</g>
<!-- O1_0&#45;&gt;E1 -->
<g id="edge3" class="edge"><title>O1_0&#45;&gt;E1</title>
<path fill="none" stroke="black" d="M734.5,-395.662C734.5,-382.197 734.5,-363.102 734.5,-346.389"/>
<polygon fill="black" stroke="black" points="738,-346.363 734.5,-336.363 731,-346.363 738,-346.363"/>
</g>
<!-- D2_ing -->
<g id="node9" class="node"><title>D2_ing</title>
<polygon fill="peachpuff" stroke="black" points="1006.5,-432.09 840.5,-432.09 840.5,-396.09 1006.5,-396.09 1006.5,-432.09"/>
<text text-anchor="middle" x="923.5" y="-410.39" font-family="Times,serif" font-size="14.00">DOBJ: each slice of bread</text>
</g>
<!-- D2_ing&#45;&gt;E2 -->
<g id="edge4" class="edge"><title>D2_ing&#45;&gt;E2</title>
<path fill="none" stroke="black" d="M954.632,-395.894C988.568,-377.149 1042.62,-347.293 1077.06,-328.268"/>
<polygon fill="black" stroke="black" points="1079.16,-331.107 1086.22,-323.208 1075.78,-324.979 1079.16,-331.107"/>
</g>
<!-- O2_0_0 -->
<g id="node10" class="node"><title>O2_0_0</title>
<polygon fill="white" stroke="black" points="1194.5,-432.09 1024.5,-432.09 1024.5,-396.09 1194.5,-396.09 1194.5,-432.09"/>
<text text-anchor="middle" x="1109.5" y="-410.39" font-family="Times,serif" font-size="14.00">OTHER: until well soaked</text>
</g>
<!-- O2_0_0&#45;&gt;E2 -->
<g id="edge6" class="edge"><title>O2_0_0&#45;&gt;E2</title>
<path fill="none" stroke="black" d="M1109.5,-395.662C1109.5,-382.197 1109.5,-363.102 1109.5,-346.389"/>
<polygon fill="black" stroke="black" points="1113,-346.363 1109.5,-336.363 1106,-346.363 1113,-346.363"/>
</g>
<!-- O2_1_0 -->
<g id="node11" class="node"><title>O2_1_0</title>
<polygon fill="white" stroke="black" points="1434,-432.09 1213,-432.09 1213,-396.09 1434,-396.09 1434,-432.09"/>
<text text-anchor="middle" x="1323.5" y="-410.39" font-family="Times,serif" font-size="14.00">OTHER: about 20 seconds per side</text>
</g>
<!-- O2_1_0&#45;&gt;E2 -->
<g id="edge7" class="edge"><title>O2_1_0&#45;&gt;E2</title>
<path fill="none" stroke="black" d="M1287.68,-395.894C1247.32,-376.515 1182.21,-345.26 1142.88,-326.375"/>
<polygon fill="black" stroke="black" points="1143.99,-323.028 1133.46,-321.855 1140.96,-329.339 1143.99,-323.028"/>
</g>
<!-- O4_0_0 -->
<g id="node12" class="node"><title>O4_0_0</title>
<polygon fill="white" stroke="black" points="149,-222.61 0,-222.61 0,-186.61 149,-186.61 149,-222.61"/>
<text text-anchor="middle" x="74.5" y="-200.91" font-family="Times,serif" font-size="14.00">OTHER: on both sides</text>
</g>
<!-- O4_0_0&#45;&gt;E4 -->
<g id="edge11" class="edge"><title>O4_0_0&#45;&gt;E4</title>
<path fill="none" stroke="black" d="M126.2,-186.589C136.817,-183.404 147.968,-180.282 158.5,-177.74 301.258,-143.284 473.842,-117.364 551.753,-106.489"/>
<polygon fill="black" stroke="black" points="552.68,-109.894 562.105,-105.055 551.719,-102.961 552.68,-109.894"/>
</g>
<!-- O4_1_0 -->
<g id="node13" class="node"><title>O4_1_0</title>
<polygon fill="white" stroke="black" points="643.5,-222.61 167.5,-222.61 167.5,-186.61 643.5,-186.61 643.5,-222.61"/>
<text text-anchor="middle" x="405.5" y="-200.91" font-family="Times,serif" font-size="14.00">OTHER: until they are no longer gooey or shiny in the middle when cut in half</text>
</g>
<!-- O4_1_0&#45;&gt;E4 -->
<g id="edge12" class="edge"><title>O4_1_0&#45;&gt;E4</title>
<path fill="none" stroke="black" d="M436.967,-186.414C470.455,-168.113 523.322,-139.222 558.205,-120.159"/>
<polygon fill="black" stroke="black" points="560.002,-123.165 567.099,-115.298 556.645,-117.022 560.002,-123.165"/>
</g>
<!-- O4_2_0 -->
<g id="node14" class="node"><title>O4_2_0</title>
<polygon fill="white" stroke="black" points="901,-222.61 662,-222.61 662,-186.61 901,-186.61 901,-222.61"/>
<text text-anchor="middle" x="781.5" y="-200.91" font-family="Times,serif" font-size="14.00">OTHER: about 3 to 4 minutes per side</text>
</g>
<!-- O4_2_0&#45;&gt;E4 -->
<g id="edge13" class="edge"><title>O4_2_0&#45;&gt;E4</title>
<path fill="none" stroke="black" d="M750.033,-186.414C716.545,-168.113 663.678,-139.222 628.795,-120.159"/>
<polygon fill="black" stroke="black" points="630.355,-117.022 619.901,-115.298 626.998,-123.165 630.355,-117.022"/>
</g>
</g>
</svg>
