<?xml version="1.0" encoding="UTF-8" standalone="no"?>
<!DOCTYPE svg PUBLIC "-//W3C//DTD SVG 1.1//EN"
 "http://www.w3.org/Graphics/SVG/1.1/DTD/svg11.dtd">
<!-- Generated by graphviz version 2.38.0 (20140413.2041)
 -->
<!-- Title: recipe Pages: 1 -->
<svg width="1515pt" height="1884pt"
 viewBox="0.00 0.00 1515.00 1883.58" xmlns="http://www.w3.org/2000/svg" xmlns:xlink="http://www.w3.org/1999/xlink">
<g id="graph0" class="graph" transform="scale(1 1) rotate(0) translate(4 1879.58)">
<title>recipe</title>
<polygon fill="white" stroke="none" points="-4,4 -4,-1879.58 1511,-1879.58 1511,4 -4,4"/>
<!-- E0 -->
<g id="node1" class="node"><title>E0</title>
<ellipse fill="azure" stroke="black" cx="1024" cy="-1775.71" rx="31.6406" ry="26.7407"/>
<text text-anchor="middle" x="1024" y="-1779.51" font-family="Times,serif" font-size="14.00">cook</text>
<text text-anchor="middle" x="1024" y="-1764.51" font-family="Times,serif" font-size="14.00">0</text>
</g>
<!-- E1 -->
<g id="node2" class="node"><title>E1</title>
<ellipse fill="azure" stroke="black" cx="894" cy="-1670.97" rx="41.9398" ry="26.7407"/>
<text text-anchor="middle" x="894" y="-1674.77" font-family="Times,serif" font-size="14.00">remove</text>
<text text-anchor="middle" x="894" y="-1659.77" font-family="Times,serif" font-size="14.00">1</text>
</g>
<!-- E0&#45;&gt;E1 -->
<g id="edge5" class="edge"><title>E0&#45;&gt;E1</title>
<path fill="none" stroke="black" d="M999.298,-1758.13C994.296,-1754.95 989.027,-1751.71 984,-1748.84 968.466,-1739.97 962.283,-1741.61 948,-1730.84 937.427,-1722.87 927.23,-1712.66 918.598,-1702.98"/>
<polygon fill="black" stroke="black" points="921.223,-1700.66 912.034,-1695.39 915.928,-1705.24 921.223,-1700.66"/>
<text text-anchor="middle" x="965.5" y="-1719.64" font-family="Times,serif" font-size="14.00">bacon</text>
</g>
<!-- E0&#45;&gt;E1 -->
<g id="edge6" class="edge"><title>E0&#45;&gt;E1</title>
<path fill="none" stroke="black" d="M1011.18,-1750.77C1004.05,-1739.13 994.332,-1725.59 983,-1715.84 970.357,-1704.97 954.55,-1696.05 939.781,-1689.15"/>
<polygon fill="black" stroke="black" points="940.827,-1685.79 930.268,-1684.92 937.979,-1692.18 940.827,-1685.79"/>
<text text-anchor="middle" x="1046.5" y="-1719.64" font-family="Times,serif" font-size="14.00">IMPLICIT PREP</text>
</g>
<!-- E2 -->
<g id="node3" class="node"><title>E2</title>
<ellipse fill="azure" stroke="black" cx="735" cy="-1566.23" rx="65.1077" ry="26.7407"/>
<text text-anchor="middle" x="735" y="-1570.03" font-family="Times,serif" font-size="14.00">cook and stir</text>
<text text-anchor="middle" x="735" y="-1555.03" font-family="Times,serif" font-size="14.00">2</text>
</g>
<!-- E1&#45;&gt;E2 -->
<g id="edge10" class="edge"><title>E1&#45;&gt;E2</title>
<path fill="none" stroke="black" d="M863.365,-1652.52C857.092,-1649.4 850.437,-1646.42 844,-1644.1 808.484,-1631.32 790.25,-1649.96 761,-1626.1 753.561,-1620.03 748.187,-1611.41 744.329,-1602.62"/>
<polygon fill="black" stroke="black" points="747.547,-1601.24 740.712,-1593.14 741.007,-1603.73 747.547,-1601.24"/>
<text text-anchor="middle" x="811.5" y="-1614.9" font-family="Times,serif" font-size="14.00">IMPLICIT PREP</text>
</g>
<!-- E13 -->
<g id="node14" class="node"><title>E13</title>
<ellipse fill="azure" stroke="black" cx="736" cy="-414.09" rx="38.3684" ry="26.7407"/>
<text text-anchor="middle" x="736" y="-417.89" font-family="Times,serif" font-size="14.00">mix in</text>
<text text-anchor="middle" x="736" y="-402.89" font-family="Times,serif" font-size="14.00">13</text>
</g>
<!-- E1&#45;&gt;E13 -->
<g id="edge35" class="edge"><title>E1&#45;&gt;E13</title>
<path fill="none" stroke="black" d="M886.989,-1644.43C881.935,-1623.78 876,-1593.85 876,-1567.23 876,-1567.23 876,-1567.23 876,-517.831 876,-469.964 822.149,-441.952 781.244,-427.579"/>
<polygon fill="black" stroke="black" points="782.284,-424.236 771.69,-424.382 780.063,-430.875 782.284,-424.236"/>
<text text-anchor="middle" x="919.5" y="-1038.83" font-family="Times,serif" font-size="14.00">reserved bacon</text>
</g>
<!-- E3 -->
<g id="node4" class="node"><title>E3</title>
<ellipse fill="azure" stroke="black" cx="735" cy="-1461.49" rx="38.3684" ry="26.7407"/>
<text text-anchor="middle" x="735" y="-1465.29" font-family="Times,serif" font-size="14.00">season</text>
<text text-anchor="middle" x="735" y="-1450.29" font-family="Times,serif" font-size="14.00">3</text>
</g>
<!-- E2&#45;&gt;E3 -->
<g id="edge12" class="edge"><title>E2&#45;&gt;E3</title>
<path fill="none" stroke="black" d="M735,-1539.31C735,-1527.02 735,-1512.13 735,-1498.74"/>
<polygon fill="black" stroke="black" points="738.5,-1498.41 735,-1488.41 731.5,-1498.41 738.5,-1498.41"/>
<text text-anchor="middle" x="786" y="-1510.16" font-family="Times,serif" font-size="14.00">IMPLICIT DOBJ</text>
</g>
<!-- E4 -->
<g id="node5" class="node"><title>E4</title>
<ellipse fill="azure" stroke="black" cx="735" cy="-1356.75" rx="35.2113" ry="26.7407"/>
<text text-anchor="middle" x="735" y="-1360.55" font-family="Times,serif" font-size="14.00">stir in</text>
<text text-anchor="middle" x="735" y="-1345.55" font-family="Times,serif" font-size="14.00">4</text>
</g>
<!-- E3&#45;&gt;E4 -->
<g id="edge15" class="edge"><title>E3&#45;&gt;E4</title>
<path fill="none" stroke="black" d="M735,-1434.57C735,-1422.28 735,-1407.39 735,-1394"/>
<polygon fill="black" stroke="black" points="738.5,-1393.67 735,-1383.67 731.5,-1393.67 738.5,-1393.67"/>
<text text-anchor="middle" x="785.5" y="-1405.42" font-family="Times,serif" font-size="14.00">IMPLICIT PREP</text>
</g>
<!-- E5 -->
<g id="node6" class="node"><title>E5</title>
<ellipse fill="azure" stroke="black" cx="735" cy="-1252.01" rx="65.1077" ry="26.7407"/>
<text text-anchor="middle" x="735" y="-1255.81" font-family="Times,serif" font-size="14.00">cook and stir</text>
<text text-anchor="middle" x="735" y="-1240.81" font-family="Times,serif" font-size="14.00">5</text>
</g>
<!-- E4&#45;&gt;E5 -->
<g id="edge16" class="edge"><title>E4&#45;&gt;E5</title>
<path fill="none" stroke="black" d="M735,-1329.83C735,-1317.54 735,-1302.65 735,-1289.26"/>
<polygon fill="black" stroke="black" points="738.5,-1288.93 735,-1278.93 731.5,-1288.93 738.5,-1288.93"/>
<text text-anchor="middle" x="786" y="-1300.68" font-family="Times,serif" font-size="14.00">IMPLICIT DOBJ</text>
</g>
<!-- E6 -->
<g id="node7" class="node"><title>E6</title>
<ellipse fill="azure" stroke="black" cx="735" cy="-1147.27" rx="31.2258" ry="26.7407"/>
<text text-anchor="middle" x="735" y="-1151.07" font-family="Times,serif" font-size="14.00">pour</text>
<text text-anchor="middle" x="735" y="-1136.07" font-family="Times,serif" font-size="14.00">6</text>
</g>
<!-- E5&#45;&gt;E6 -->
<g id="edge18" class="edge"><title>E5&#45;&gt;E6</title>
<path fill="none" stroke="black" d="M735,-1225.09C735,-1212.8 735,-1197.91 735,-1184.52"/>
<polygon fill="black" stroke="black" points="738.5,-1184.19 735,-1174.19 731.5,-1184.19 738.5,-1184.19"/>
<text text-anchor="middle" x="786" y="-1195.94" font-family="Times,serif" font-size="14.00">IMPLICIT DOBJ</text>
</g>
<!-- E7 -->
<g id="node8" class="node"><title>E7</title>
<ellipse fill="azure" stroke="black" cx="735" cy="-1042.53" rx="35.2113" ry="26.7407"/>
<text text-anchor="middle" x="735" y="-1046.33" font-family="Times,serif" font-size="14.00">stir in</text>
<text text-anchor="middle" x="735" y="-1031.33" font-family="Times,serif" font-size="14.00">7</text>
</g>
<!-- E6&#45;&gt;E7 -->
<g id="edge21" class="edge"><title>E6&#45;&gt;E7</title>
<path fill="none" stroke="black" d="M735,-1120.35C735,-1108.06 735,-1093.17 735,-1079.78"/>
<polygon fill="black" stroke="black" points="738.5,-1079.45 735,-1069.45 731.5,-1079.45 738.5,-1079.45"/>
<text text-anchor="middle" x="785.5" y="-1091.2" font-family="Times,serif" font-size="14.00">IMPLICIT PREP</text>
</g>
<!-- E8 -->
<g id="node9" class="node"><title>E8</title>
<ellipse fill="azure" stroke="black" cx="591" cy="-937.791" rx="27" ry="26.7407"/>
<text text-anchor="middle" x="591" y="-941.591" font-family="Times,serif" font-size="14.00">add</text>
<text text-anchor="middle" x="591" y="-926.591" font-family="Times,serif" font-size="14.00">8</text>
</g>
<!-- E7&#45;&gt;E8 -->
<g id="edge23" class="edge"><title>E7&#45;&gt;E8</title>
<path fill="none" stroke="black" d="M709.587,-1023.4C684.923,-1005.8 647.478,-979.086 621.281,-960.396"/>
<polygon fill="black" stroke="black" points="623.036,-957.349 612.863,-954.39 618.971,-963.047 623.036,-957.349"/>
<text text-anchor="middle" x="721.5" y="-986.461" font-family="Times,serif" font-size="14.00">IMPLICIT PREP</text>
</g>
<!-- E9 -->
<g id="node10" class="node"><title>E9</title>
<ellipse fill="azure" stroke="black" cx="591" cy="-833.051" rx="33.8824" ry="26.7407"/>
<text text-anchor="middle" x="591" y="-836.851" font-family="Times,serif" font-size="14.00">bring</text>
<text text-anchor="middle" x="591" y="-821.851" font-family="Times,serif" font-size="14.00">9</text>
</g>
<!-- E8&#45;&gt;E9 -->
<g id="edge26" class="edge"><title>E8&#45;&gt;E9</title>
<path fill="none" stroke="black" d="M591,-910.865C591,-898.576 591,-883.687 591,-870.302"/>
<polygon fill="black" stroke="black" points="594.5,-869.968 591,-859.968 587.5,-869.968 594.5,-869.968"/>
<text text-anchor="middle" x="642" y="-881.721" font-family="Times,serif" font-size="14.00">IMPLICIT DOBJ</text>
</g>
<!-- E10 -->
<g id="node11" class="node"><title>E10</title>
<ellipse fill="azure" stroke="black" cx="591" cy="-728.311" rx="57.9655" ry="26.7407"/>
<text text-anchor="middle" x="591" y="-732.111" font-family="Times,serif" font-size="14.00">reduce heat</text>
<text text-anchor="middle" x="591" y="-717.111" font-family="Times,serif" font-size="14.00">10</text>
</g>
<!-- E9&#45;&gt;E10 -->
<g id="edge28" class="edge"><title>E9&#45;&gt;E10</title>
<path fill="none" stroke="black" d="M591,-806.125C591,-793.836 591,-778.947 591,-765.562"/>
<polygon fill="black" stroke="black" points="594.5,-765.228 591,-755.228 587.5,-765.228 594.5,-765.228"/>
<text text-anchor="middle" x="642" y="-776.981" font-family="Times,serif" font-size="14.00">IMPLICIT DOBJ</text>
</g>
<!-- E11 -->
<g id="node12" class="node"><title>E11</title>
<ellipse fill="azure" stroke="black" cx="591" cy="-623.571" rx="41.9398" ry="26.7407"/>
<text text-anchor="middle" x="591" y="-627.371" font-family="Times,serif" font-size="14.00">simmer</text>
<text text-anchor="middle" x="591" y="-612.371" font-family="Times,serif" font-size="14.00">11</text>
</g>
<!-- E10&#45;&gt;E11 -->
<g id="edge30" class="edge"><title>E10&#45;&gt;E11</title>
<path fill="none" stroke="black" d="M591,-701.385C591,-689.096 591,-674.207 591,-660.822"/>
<polygon fill="black" stroke="black" points="594.5,-660.488 591,-650.488 587.5,-660.488 594.5,-660.488"/>
<text text-anchor="middle" x="642" y="-672.241" font-family="Times,serif" font-size="14.00">IMPLICIT DOBJ</text>
</g>
<!-- E12 -->
<g id="node13" class="node"><title>E12</title>
<ellipse fill="azure" stroke="black" cx="479" cy="-518.831" rx="35.2113" ry="26.7407"/>
<text text-anchor="middle" x="479" y="-522.631" font-family="Times,serif" font-size="14.00">stir in</text>
<text text-anchor="middle" x="479" y="-507.631" font-family="Times,serif" font-size="14.00">12</text>
</g>
<!-- E11&#45;&gt;E12 -->
<g id="edge33" class="edge"><title>E11&#45;&gt;E12</title>
<path fill="none" stroke="black" d="M567.521,-601.033C550.346,-585.278 526.926,-563.794 508.49,-546.882"/>
<polygon fill="black" stroke="black" points="510.661,-544.125 500.926,-539.944 505.929,-549.283 510.661,-544.125"/>
<text text-anchor="middle" x="591.5" y="-567.501" font-family="Times,serif" font-size="14.00">IMPLICIT PREP</text>
</g>
<!-- E12&#45;&gt;E13 -->
<g id="edge36" class="edge"><title>E12&#45;&gt;E13</title>
<path fill="none" stroke="black" d="M511.269,-507.718C553.025,-494.25 627.689,-468.859 689,-440.96 692.01,-439.591 695.088,-438.104 698.159,-436.558"/>
<polygon fill="black" stroke="black" points="700.024,-439.533 707.271,-431.803 696.786,-433.327 700.024,-439.533"/>
<text text-anchor="middle" x="693.5" y="-462.76" font-family="Times,serif" font-size="14.00">IMPLICIT PREP</text>
</g>
<!-- E14 -->
<g id="node15" class="node"><title>E14</title>
<ellipse fill="azure" stroke="black" cx="624" cy="-309.35" rx="33.8824" ry="26.7407"/>
<text text-anchor="middle" x="624" y="-313.15" font-family="Times,serif" font-size="14.00">bring</text>
<text text-anchor="middle" x="624" y="-298.15" font-family="Times,serif" font-size="14.00">14</text>
</g>
<!-- E13&#45;&gt;E14 -->
<g id="edge37" class="edge"><title>E13&#45;&gt;E14</title>
<path fill="none" stroke="black" d="M713.335,-392.299C696.109,-376.497 672.266,-354.626 653.545,-337.452"/>
<polygon fill="black" stroke="black" points="655.604,-334.592 645.869,-330.411 650.872,-339.75 655.604,-334.592"/>
<text text-anchor="middle" x="710.5" y="-358.02" font-family="Times,serif" font-size="14.00">the soup</text>
</g>
<!-- E15 -->
<g id="node16" class="node"><title>E15</title>
<ellipse fill="azure" stroke="black" cx="545" cy="-204.61" rx="35.2113" ry="26.7407"/>
<text text-anchor="middle" x="545" y="-208.41" font-family="Times,serif" font-size="14.00">stir in</text>
<text text-anchor="middle" x="545" y="-193.41" font-family="Times,serif" font-size="14.00">15</text>
</g>
<!-- E14&#45;&gt;E15 -->
<g id="edge40" class="edge"><title>E14&#45;&gt;E15</title>
<path fill="none" stroke="black" d="M606.858,-286.057C595.651,-271.483 580.865,-252.252 568.558,-236.248"/>
<polygon fill="black" stroke="black" points="571.251,-234.008 562.381,-228.215 565.702,-238.275 571.251,-234.008"/>
<text text-anchor="middle" x="639.5" y="-253.28" font-family="Times,serif" font-size="14.00">IMPLICIT PREP</text>
</g>
<!-- E16 -->
<g id="node17" class="node"><title>E16</title>
<ellipse fill="azure" stroke="black" cx="349" cy="-99.8701" rx="31.6406" ry="26.7407"/>
<text text-anchor="middle" x="349" y="-103.67" font-family="Times,serif" font-size="14.00">cook</text>
<text text-anchor="middle" x="349" y="-88.6701" font-family="Times,serif" font-size="14.00">16</text>
</g>
<!-- E15&#45;&gt;E16 -->
<g id="edge41" class="edge"><title>E15&#45;&gt;E16</title>
<path fill="none" stroke="black" d="M517.692,-187.194C512.201,-183.995 506.444,-180.713 501,-177.74 461.956,-156.417 416.311,-133.61 385.305,-118.426"/>
<polygon fill="black" stroke="black" points="386.698,-115.211 376.176,-113.968 383.626,-121.501 386.698,-115.211"/>
<text text-anchor="middle" x="514" y="-148.54" font-family="Times,serif" font-size="14.00">IMPLICIT DOBJ</text>
</g>
<!-- EOR -->
<g id="node43" class="node"><title>EOR</title>
<ellipse fill="plum" stroke="black" cx="349" cy="-18" rx="57.3905" ry="18"/>
<text text-anchor="middle" x="349" y="-14.3" font-family="Times,serif" font-size="14.00">Bon appetit!</text>
</g>
<!-- E16&#45;&gt;EOR -->
<g id="edge44" class="edge"><title>E16&#45;&gt;EOR</title>
<path fill="none" stroke="black" d="M349,-72.7176C349,-64.2726 349,-54.8903 349,-46.3604"/>
<polygon fill="black" stroke="black" points="352.5,-46.1464 349,-36.1464 345.5,-46.1464 352.5,-46.1464"/>
</g>
<!-- D0 -->
<g id="node18" class="node"><title>D0</title>
<polygon fill="peachpuff" stroke="black" points="825.5,-1875.58 730.5,-1875.58 730.5,-1839.58 825.5,-1839.58 825.5,-1875.58"/>
<text text-anchor="middle" x="778" y="-1853.88" font-family="Times,serif" font-size="14.00">DOBJ: bacon</text>
</g>
<!-- D0&#45;&gt;E0 -->
<g id="edge1" class="edge"><title>D0&#45;&gt;E0</title>
<path fill="none" stroke="black" d="M825.538,-1842.22C828.736,-1841.31 831.912,-1840.43 835,-1839.58 900.822,-1821.6 921.388,-1829.7 984,-1802.58 986.476,-1801.51 988.97,-1800.29 991.439,-1798.98"/>
<polygon fill="black" stroke="black" points="993.274,-1801.96 1000.18,-1793.93 989.771,-1795.9 993.274,-1801.96"/>
</g>
<!-- P0_0 -->
<g id="node19" class="node"><title>P0_0</title>
<polygon fill="white" stroke="black" points="1012.5,-1875.58 843.5,-1875.58 843.5,-1839.58 1012.5,-1839.58 1012.5,-1875.58"/>
<text text-anchor="middle" x="928" y="-1853.88" font-family="Times,serif" font-size="14.00">LOCATION:in a soup pot</text>
</g>
<!-- P0_0&#45;&gt;E0 -->
<g id="edge2" class="edge"><title>P0_0&#45;&gt;E0</title>
<path fill="none" stroke="black" d="M948.831,-1839.25C962.045,-1828.26 979.355,-1813.86 994.033,-1801.64"/>
<polygon fill="black" stroke="black" points="996.425,-1804.21 1001.87,-1795.12 991.948,-1798.83 996.425,-1804.21"/>
</g>
<!-- O0_0 -->
<g id="node20" class="node"><title>O0_0</title>
<polygon fill="white" stroke="black" points="1207,-1875.58 1031,-1875.58 1031,-1839.58 1207,-1839.58 1207,-1875.58"/>
<text text-anchor="middle" x="1119" y="-1853.88" font-family="Times,serif" font-size="14.00">OTHER: over medium heat</text>
</g>
<!-- O0_0&#45;&gt;E0 -->
<g id="edge3" class="edge"><title>O0_0&#45;&gt;E0</title>
<path fill="none" stroke="black" d="M1098.39,-1839.25C1085.4,-1828.33 1068.42,-1814.06 1053.96,-1801.9"/>
<polygon fill="black" stroke="black" points="1056.14,-1799.16 1046.23,-1795.4 1051.63,-1804.52 1056.14,-1799.16"/>
</g>
<!-- O0_1 -->
<g id="node21" class="node"><title>O0_1</title>
<polygon fill="white" stroke="black" points="1507,-1875.58 1225,-1875.58 1225,-1839.58 1507,-1839.58 1507,-1875.58"/>
<text text-anchor="middle" x="1366" y="-1853.88" font-family="Times,serif" font-size="14.00">OTHER: until crisp, brown, about 10 minutes</text>
</g>
<!-- O0_1&#45;&gt;E0 -->
<g id="edge4" class="edge"><title>O0_1&#45;&gt;E0</title>
<path fill="none" stroke="black" d="M1293.05,-1839.55C1223.24,-1823.24 1120.5,-1799.25 1064.33,-1786.13"/>
<polygon fill="black" stroke="black" points="1064.94,-1782.68 1054.4,-1783.81 1063.35,-1789.49 1064.94,-1782.68"/>
</g>
<!-- O1_0_0 -->
<g id="node22" class="node"><title>O1_0_0</title>
<polygon fill="white" stroke="black" points="725,-1793.71 537,-1793.71 537,-1757.71 725,-1757.71 725,-1793.71"/>
<text text-anchor="middle" x="631" y="-1772.01" font-family="Times,serif" font-size="14.00">OTHER: with a slotted spoon</text>
</g>
<!-- O1_0_0&#45;&gt;E1 -->
<g id="edge7" class="edge"><title>O1_0_0&#45;&gt;E1</title>
<path fill="none" stroke="black" d="M684.274,-1757.65C727.823,-1743.19 790.682,-1721.14 844,-1697.84 847.186,-1696.45 850.453,-1694.94 853.716,-1693.39"/>
<polygon fill="black" stroke="black" points="855.407,-1696.45 862.831,-1688.89 852.314,-1690.17 855.407,-1696.45"/>
</g>
<!-- O1_1_0 -->
<g id="node23" class="node"><title>O1_1_0</title>
<polygon fill="white" stroke="black" points="974.5,-1793.71 743.5,-1793.71 743.5,-1757.71 974.5,-1757.71 974.5,-1793.71"/>
<text text-anchor="middle" x="859" y="-1772.01" font-family="Times,serif" font-size="14.00">OTHER: leaving drippings in the pot</text>
</g>
<!-- O1_1_0&#45;&gt;E1 -->
<g id="edge8" class="edge"><title>O1_1_0&#45;&gt;E1</title>
<path fill="none" stroke="black" d="M864.937,-1757.28C869.6,-1743.6 876.245,-1724.09 882.005,-1707.18"/>
<polygon fill="black" stroke="black" points="885.36,-1708.19 885.272,-1697.59 878.734,-1705.93 885.36,-1708.19"/>
</g>
<!-- D2_ing -->
<g id="node24" class="node"><title>D2_ing</title>
<polygon fill="peachpuff" stroke="black" points="567,-1688.97 379,-1688.97 379,-1652.97 567,-1652.97 567,-1688.97"/>
<text text-anchor="middle" x="473" y="-1667.27" font-family="Times,serif" font-size="14.00">DOBJ: red bell pepper, onion</text>
</g>
<!-- D2_ing&#45;&gt;E2 -->
<g id="edge9" class="edge"><title>D2_ing&#45;&gt;E2</title>
<path fill="none" stroke="black" d="M516.558,-1652.89C561.166,-1635.4 630.668,-1608.14 679.262,-1589.09"/>
<polygon fill="black" stroke="black" points="680.656,-1592.3 688.688,-1585.39 678.101,-1585.78 680.656,-1592.3"/>
</g>
<!-- O2_0_0 -->
<g id="node25" class="node"><title>O2_0_0</title>
<polygon fill="white" stroke="black" points="834.5,-1688.97 585.5,-1688.97 585.5,-1652.97 834.5,-1652.97 834.5,-1688.97"/>
<text text-anchor="middle" x="710" y="-1667.27" font-family="Times,serif" font-size="14.00">OTHER: until softened, about 5 minutes</text>
</g>
<!-- O2_0_0&#45;&gt;E2 -->
<g id="edge11" class="edge"><title>O2_0_0&#45;&gt;E2</title>
<path fill="none" stroke="black" d="M714.241,-1652.54C717.517,-1639.08 722.164,-1619.98 726.231,-1603.27"/>
<polygon fill="black" stroke="black" points="729.707,-1603.79 728.67,-1593.24 722.905,-1602.13 729.707,-1603.79"/>
</g>
<!-- P3_0_ing -->
<g id="node26" class="node"><title>P3_0_ing</title>
<polygon fill="peachpuff" stroke="black" points="652,-1584.23 460,-1584.23 460,-1548.23 652,-1548.23 652,-1584.23"/>
<text text-anchor="middle" x="556" y="-1562.53" font-family="Times,serif" font-size="14.00">COOBJECT: with pepper, salt</text>
</g>
<!-- P3_0_ing&#45;&gt;E3 -->
<g id="edge13" class="edge"><title>P3_0_ing&#45;&gt;E3</title>
<path fill="none" stroke="black" d="M585.961,-1548.04C616.436,-1530.54 663.768,-1503.38 696.893,-1484.36"/>
<polygon fill="black" stroke="black" points="698.903,-1487.25 705.834,-1479.23 695.418,-1481.17 698.903,-1487.25"/>
</g>
<!-- D4_ing -->
<g id="node27" class="node"><title>D4_ing</title>
<polygon fill="peachpuff" stroke="black" points="678.5,-1479.49 475.5,-1479.49 475.5,-1443.49 678.5,-1443.49 678.5,-1479.49"/>
<text text-anchor="middle" x="577" y="-1457.79" font-family="Times,serif" font-size="14.00">DOBJ: garlic, seafood seasoning</text>
</g>
<!-- D4_ing&#45;&gt;E4 -->
<g id="edge14" class="edge"><title>D4_ing&#45;&gt;E4</title>
<path fill="none" stroke="black" d="M603.446,-1443.3C629.957,-1426.06 670.919,-1399.42 700.087,-1380.45"/>
<polygon fill="black" stroke="black" points="702.256,-1383.22 708.731,-1374.83 698.44,-1377.35 702.256,-1383.22"/>
</g>
<!-- O5_0_0 -->
<g id="node28" class="node"><title>O5_0_0</title>
<polygon fill="white" stroke="black" points="682,-1374.75 520,-1374.75 520,-1338.75 682,-1338.75 682,-1374.75"/>
<text text-anchor="middle" x="601" y="-1353.05" font-family="Times,serif" font-size="14.00">OTHER: 2 more minutes</text>
</g>
<!-- O5_0_0&#45;&gt;E5 -->
<g id="edge17" class="edge"><title>O5_0_0&#45;&gt;E5</title>
<path fill="none" stroke="black" d="M623.429,-1338.56C643.423,-1323.23 673.109,-1300.46 696.834,-1282.27"/>
<polygon fill="black" stroke="black" points="699.145,-1284.91 704.951,-1276.05 694.886,-1279.36 699.145,-1284.91"/>
</g>
<!-- P6_0_ing -->
<g id="node29" class="node"><title>P6_0_ing</title>
<polygon fill="peachpuff" stroke="black" points="651.5,-1270.01 460.5,-1270.01 460.5,-1234.01 651.5,-1234.01 651.5,-1270.01"/>
<text text-anchor="middle" x="556" y="-1248.31" font-family="Times,serif" font-size="14.00">COOBJECT: in chicken broth</text>
</g>
<!-- P6_0_ing&#45;&gt;E6 -->
<g id="edge19" class="edge"><title>P6_0_ing&#45;&gt;E6</title>
<path fill="none" stroke="black" d="M588.378,-1233.92C616.78,-1218.74 659.04,-1195.68 695,-1174.14 697.235,-1172.8 699.526,-1171.4 701.824,-1169.97"/>
<polygon fill="black" stroke="black" points="704.045,-1172.71 710.63,-1164.41 700.306,-1166.79 704.045,-1172.71"/>
</g>
<!-- D7_ing -->
<g id="node30" class="node"><title>D7_ing</title>
<polygon fill="peachpuff" stroke="black" points="686,-1165.27 546,-1165.27 546,-1129.27 686,-1129.27 686,-1165.27"/>
<text text-anchor="middle" x="616" y="-1143.57" font-family="Times,serif" font-size="14.00">DOBJ: potatoes, corn</text>
</g>
<!-- D7_ing&#45;&gt;E7 -->
<g id="edge20" class="edge"><title>D7_ing&#45;&gt;E7</title>
<path fill="none" stroke="black" d="M635.918,-1129.07C654.657,-1112.9 682.983,-1088.44 704.555,-1069.82"/>
<polygon fill="black" stroke="black" points="706.885,-1072.43 712.167,-1063.24 702.31,-1067.13 706.885,-1072.43"/>
</g>
<!-- D8_ing -->
<g id="node31" class="node"><title>D8_ing</title>
<polygon fill="peachpuff" stroke="black" points="339,-1060.53 247,-1060.53 247,-1024.53 339,-1024.53 339,-1060.53"/>
<text text-anchor="middle" x="293" y="-1038.83" font-family="Times,serif" font-size="14.00">DOBJ: water</text>
</g>
<!-- D8_ing&#45;&gt;E8 -->
<g id="edge22" class="edge"><title>D8_ing&#45;&gt;E8</title>
<path fill="none" stroke="black" d="M327.227,-1024.47C334.324,-1021.29 341.826,-1018.18 349,-1015.66 393.496,-1000.03 512.191,-984.445 555,-964.661 557.323,-963.588 559.65,-962.356 561.94,-961.027"/>
<polygon fill="black" stroke="black" points="563.979,-963.878 570.51,-955.535 560.202,-957.984 563.979,-963.878"/>
</g>
<!-- O8_0_0 -->
<g id="node32" class="node"><title>O8_0_0</title>
<polygon fill="white" stroke="black" points="482.5,-1060.53 357.5,-1060.53 357.5,-1024.53 482.5,-1024.53 482.5,-1060.53"/>
<text text-anchor="middle" x="420" y="-1038.83" font-family="Times,serif" font-size="14.00">OTHER: if needed</text>
</g>
<!-- O8_0_0&#45;&gt;E8 -->
<g id="edge24" class="edge"><title>O8_0_0&#45;&gt;E8</title>
<path fill="none" stroke="black" d="M452.202,-1024.44C479.912,-1009.44 520.721,-986.65 555,-964.661 556.947,-963.412 558.934,-962.099 560.924,-960.755"/>
<polygon fill="black" stroke="black" points="563.336,-963.341 569.554,-954.763 559.344,-957.591 563.336,-963.341"/>
</g>
<!-- O8_1_0 -->
<g id="node33" class="node"><title>O8_1_0</title>
<polygon fill="white" stroke="black" points="681.5,-1060.53 500.5,-1060.53 500.5,-1024.53 681.5,-1024.53 681.5,-1060.53"/>
<text text-anchor="middle" x="591" y="-1038.83" font-family="Times,serif" font-size="14.00">OTHER: to cover vegetables</text>
</g>
<!-- O8_1_0&#45;&gt;E8 -->
<g id="edge25" class="edge"><title>O8_1_0&#45;&gt;E8</title>
<path fill="none" stroke="black" d="M591,-1024.1C591,-1010.64 591,-991.542 591,-974.83"/>
<polygon fill="black" stroke="black" points="594.5,-974.804 591,-964.804 587.5,-974.804 594.5,-974.804"/>
</g>
<!-- O9_0_0 -->
<g id="node34" class="node"><title>O9_0_0</title>
<polygon fill="white" stroke="black" points="545.5,-955.791 426.5,-955.791 426.5,-919.791 545.5,-919.791 545.5,-955.791"/>
<text text-anchor="middle" x="486" y="-934.091" font-family="Times,serif" font-size="14.00">OTHER: to a boil</text>
</g>
<!-- O9_0_0&#45;&gt;E9 -->
<g id="edge27" class="edge"><title>O9_0_0&#45;&gt;E9</title>
<path fill="none" stroke="black" d="M503.812,-919.363C520.031,-903.493 544.245,-879.8 563.042,-861.407"/>
<polygon fill="black" stroke="black" points="565.511,-863.889 570.21,-854.393 560.615,-858.885 565.511,-863.889"/>
</g>
<!-- O10_0_0 -->
<g id="node35" class="node"><title>O10_0_0</title>
<polygon fill="white" stroke="black" points="539,-851.051 429,-851.051 429,-815.051 539,-815.051 539,-851.051"/>
<text text-anchor="middle" x="484" y="-829.351" font-family="Times,serif" font-size="14.00">OTHER: to low</text>
</g>
<!-- O10_0_0&#45;&gt;E10 -->
<g id="edge29" class="edge"><title>O10_0_0&#45;&gt;E10</title>
<path fill="none" stroke="black" d="M502.151,-814.622C517.594,-799.795 540.149,-778.138 558.669,-760.355"/>
<polygon fill="black" stroke="black" points="561.537,-762.453 566.326,-753.002 556.689,-757.404 561.537,-762.453"/>
</g>
<!-- O11_0_0 -->
<g id="node36" class="node"><title>O11_0_0</title>
<polygon fill="white" stroke="black" points="515.5,-746.311 198.5,-746.311 198.5,-710.311 515.5,-710.311 515.5,-746.311"/>
<text text-anchor="middle" x="357" y="-724.611" font-family="Times,serif" font-size="14.00">OTHER: until potatoes are tender, about 15 minutes</text>
</g>
<!-- O11_0_0&#45;&gt;E11 -->
<g id="edge31" class="edge"><title>O11_0_0&#45;&gt;E11</title>
<path fill="none" stroke="black" d="M399.902,-710.305C437.231,-695.268 492.623,-672.373 540,-650.441 543.35,-648.89 546.804,-647.243 550.259,-645.562"/>
<polygon fill="black" stroke="black" points="551.929,-648.641 559.342,-641.072 548.826,-642.366 551.929,-648.641"/>
</g>
<!-- D12_ing -->
<g id="node37" class="node"><title>D12_ing</title>
<polygon fill="peachpuff" stroke="black" points="312.5,-641.571 185.5,-641.571 185.5,-605.571 312.5,-605.571 312.5,-641.571"/>
<text text-anchor="middle" x="249" y="-619.871" font-family="Times,serif" font-size="14.00">DOBJ: butter, milk</text>
</g>
<!-- D12_ing&#45;&gt;E12 -->
<g id="edge32" class="edge"><title>D12_ing&#45;&gt;E12</title>
<path fill="none" stroke="black" d="M287.238,-605.49C329.515,-586.605 397.265,-556.341 439.889,-537.301"/>
<polygon fill="black" stroke="black" points="441.404,-540.458 449.107,-533.184 438.549,-534.067 441.404,-540.458"/>
</g>
<!-- O12_0_0 -->
<g id="node38" class="node"><title>O12_0_0</title>
<polygon fill="white" stroke="black" points="531,-641.571 331,-641.571 331,-605.571 531,-605.571 531,-641.571"/>
<text text-anchor="middle" x="431" y="-619.871" font-family="Times,serif" font-size="14.00">OTHER: until butter has melted</text>
</g>
<!-- O12_0_0&#45;&gt;E12 -->
<g id="edge34" class="edge"><title>O12_0_0&#45;&gt;E12</title>
<path fill="none" stroke="black" d="M439.143,-605.142C445.732,-591.037 455.209,-570.752 463.269,-553.502"/>
<polygon fill="black" stroke="black" points="466.511,-554.83 467.573,-544.288 460.169,-551.867 466.511,-554.83"/>
</g>
<!-- O14_0_0 -->
<g id="node39" class="node"><title>O14_0_0</title>
<polygon fill="white" stroke="black" points="679.5,-432.09 472.5,-432.09 472.5,-396.09 679.5,-396.09 679.5,-432.09"/>
<text text-anchor="middle" x="576" y="-410.39" font-family="Times,serif" font-size="14.00">OTHER: just to the boiling point</text>
</g>
<!-- O14_0_0&#45;&gt;E14 -->
<g id="edge38" class="edge"><title>O14_0_0&#45;&gt;E14</title>
<path fill="none" stroke="black" d="M584.143,-395.662C590.732,-381.557 600.209,-361.272 608.269,-344.021"/>
<polygon fill="black" stroke="black" points="611.511,-345.35 612.573,-334.808 605.169,-342.387 611.511,-345.35"/>
</g>
<!-- D15_ing -->
<g id="node40" class="node"><title>D15_ing</title>
<polygon fill="peachpuff" stroke="black" points="572.5,-327.35 443.5,-327.35 443.5,-291.35 572.5,-291.35 572.5,-327.35"/>
<text text-anchor="middle" x="508" y="-305.65" font-family="Times,serif" font-size="14.00">DOBJ: cod, parsley</text>
</g>
<!-- D15_ing&#45;&gt;E15 -->
<g id="edge39" class="edge"><title>D15_ing&#45;&gt;E15</title>
<path fill="none" stroke="black" d="M514.277,-290.922C519.24,-277.139 526.329,-257.455 532.447,-240.467"/>
<polygon fill="black" stroke="black" points="535.818,-241.436 535.913,-230.842 529.232,-239.064 535.818,-241.436"/>
</g>
<!-- O16_0_0 -->
<g id="node41" class="node"><title>O16_0_0</title>
<polygon fill="white" stroke="black" points="188,-222.61 -1.42109e-14,-222.61 -1.42109e-14,-186.61 188,-186.61 188,-222.61"/>
<text text-anchor="middle" x="94" y="-200.91" font-family="Times,serif" font-size="14.00">OTHER: stirring occasionally</text>
</g>
<!-- O16_0_0&#45;&gt;E16 -->
<g id="edge42" class="edge"><title>O16_0_0&#45;&gt;E16</title>
<path fill="none" stroke="black" d="M136.394,-186.529C185.182,-166.873 264.568,-134.888 311.288,-116.064"/>
<polygon fill="black" stroke="black" points="312.772,-119.24 320.74,-112.256 310.156,-112.747 312.772,-119.24"/>
</g>
<!-- O16_1_0 -->
<g id="node42" class="node"><title>O16_1_0</title>
<polygon fill="white" stroke="black" points="491.5,-222.61 206.5,-222.61 206.5,-186.61 491.5,-186.61 491.5,-222.61"/>
<text text-anchor="middle" x="349" y="-200.91" font-family="Times,serif" font-size="14.00">OTHER: until fish flakes easily, 5 to 8 minutes</text>
</g>
<!-- O16_1_0&#45;&gt;E16 -->
<g id="edge43" class="edge"><title>O16_1_0&#45;&gt;E16</title>
<path fill="none" stroke="black" d="M349,-186.182C349,-172.717 349,-153.621 349,-136.909"/>
<polygon fill="black" stroke="black" points="352.5,-136.883 349,-126.883 345.5,-136.883 352.5,-136.883"/>
</g>
</g>
</svg>
