<?xml version="1.0" encoding="UTF-8" standalone="no"?>
<!DOCTYPE svg PUBLIC "-//W3C//DTD SVG 1.1//EN"
 "http://www.w3.org/Graphics/SVG/1.1/DTD/svg11.dtd">
<!-- Generated by graphviz version 2.38.0 (20140413.2041)
 -->
<!-- Title: recipe Pages: 1 -->
<svg width="1113pt" height="731pt"
 viewBox="0.00 0.00 1113.00 731.44" xmlns="http://www.w3.org/2000/svg" xmlns:xlink="http://www.w3.org/1999/xlink">
<g id="graph0" class="graph" transform="scale(1 1) rotate(0) translate(4 727.441)">
<title>recipe</title>
<polygon fill="white" stroke="none" points="-4,4 -4,-727.441 1109,-727.441 1109,4 -4,4"/>
<!-- E0 -->
<g id="node1" class="node"><title>E0</title>
<ellipse fill="azure" stroke="black" cx="787.5" cy="-623.571" rx="27.6545" ry="26.7407"/>
<text text-anchor="middle" x="787.5" y="-627.371" font-family="Times,serif" font-size="14.00">mix</text>
<text text-anchor="middle" x="787.5" y="-612.371" font-family="Times,serif" font-size="14.00">0</text>
</g>
<!-- E2 -->
<g id="node3" class="node"><title>E2</title>
<ellipse fill="azure" stroke="black" cx="679.5" cy="-518.831" rx="31.2258" ry="26.7407"/>
<text text-anchor="middle" x="679.5" y="-522.631" font-family="Times,serif" font-size="14.00">pour</text>
<text text-anchor="middle" x="679.5" y="-507.631" font-family="Times,serif" font-size="14.00">2</text>
</g>
<!-- E0&#45;&gt;E2 -->
<g id="edge6" class="edge"><title>E0&#45;&gt;E2</title>
<path fill="none" stroke="black" d="M769.037,-603.13C757.809,-591.484 743.064,-576.503 729.5,-563.701 722.981,-557.548 715.818,-551.092 709.001,-545.084"/>
<polygon fill="black" stroke="black" points="711.05,-542.226 701.217,-538.281 706.444,-547.497 711.05,-542.226"/>
<text text-anchor="middle" x="855" y="-567.501" font-family="Times,serif" font-size="14.00">COOBJECT:over the cabbage mixture</text>
</g>
<!-- E1 -->
<g id="node2" class="node"><title>E1</title>
<ellipse fill="azure" stroke="black" cx="552.5" cy="-623.571" rx="27.6545" ry="26.7407"/>
<text text-anchor="middle" x="552.5" y="-627.371" font-family="Times,serif" font-size="14.00">mix</text>
<text text-anchor="middle" x="552.5" y="-612.371" font-family="Times,serif" font-size="14.00">1</text>
</g>
<!-- E1&#45;&gt;E2 -->
<g id="edge5" class="edge"><title>E1&#45;&gt;E2</title>
<path fill="none" stroke="black" d="M563.751,-598.723C570.391,-586.822 579.797,-573.015 591.5,-563.701 609.327,-549.512 619.15,-555.947 639.5,-545.701 641.91,-544.487 644.355,-543.163 646.788,-541.776"/>
<polygon fill="black" stroke="black" points="648.69,-544.716 655.455,-536.563 645.082,-538.718 648.69,-544.716"/>
<text text-anchor="middle" x="658.5" y="-567.501" font-family="Times,serif" font-size="14.00">the sour cream mixture</text>
</g>
<!-- E3 -->
<g id="node4" class="node"><title>E3</title>
<ellipse fill="azure" stroke="black" cx="609.5" cy="-414.09" rx="27" ry="26.7407"/>
<text text-anchor="middle" x="609.5" y="-417.89" font-family="Times,serif" font-size="14.00">toss</text>
<text text-anchor="middle" x="609.5" y="-402.89" font-family="Times,serif" font-size="14.00">3</text>
</g>
<!-- E2&#45;&gt;E3 -->
<g id="edge7" class="edge"><title>E2&#45;&gt;E3</title>
<path fill="none" stroke="black" d="M664.138,-495.284C654.155,-480.631 641.02,-461.352 630.13,-445.37"/>
<polygon fill="black" stroke="black" points="632.869,-443.173 624.346,-436.88 627.084,-447.115 632.869,-443.173"/>
<text text-anchor="middle" x="699.5" y="-462.76" font-family="Times,serif" font-size="14.00">IMPLICIT DOBJ</text>
</g>
<!-- E4 -->
<g id="node5" class="node"><title>E4</title>
<ellipse fill="azure" stroke="black" cx="609.5" cy="-309.35" rx="33.8824" ry="26.7407"/>
<text text-anchor="middle" x="609.5" y="-313.15" font-family="Times,serif" font-size="14.00">cover</text>
<text text-anchor="middle" x="609.5" y="-298.15" font-family="Times,serif" font-size="14.00">4</text>
</g>
<!-- E3&#45;&gt;E4 -->
<g id="edge9" class="edge"><title>E3&#45;&gt;E4</title>
<path fill="none" stroke="black" d="M609.5,-387.165C609.5,-374.875 609.5,-359.987 609.5,-346.602"/>
<polygon fill="black" stroke="black" points="613,-346.268 609.5,-336.268 606,-346.268 613,-346.268"/>
<text text-anchor="middle" x="660.5" y="-358.02" font-family="Times,serif" font-size="14.00">IMPLICIT DOBJ</text>
</g>
<!-- E5 -->
<g id="node6" class="node"><title>E5</title>
<ellipse fill="azure" stroke="black" cx="491.5" cy="-204.61" rx="53.9813" ry="26.7407"/>
<text text-anchor="middle" x="491.5" y="-208.41" font-family="Times,serif" font-size="14.00">refrigerate</text>
<text text-anchor="middle" x="491.5" y="-193.41" font-family="Times,serif" font-size="14.00">5</text>
</g>
<!-- E4&#45;&gt;E5 -->
<g id="edge10" class="edge"><title>E4&#45;&gt;E5</title>
<path fill="none" stroke="black" d="M587.027,-288.784C569.554,-273.57 545.033,-252.22 525.21,-234.961"/>
<polygon fill="black" stroke="black" points="527.432,-232.255 517.592,-228.328 522.836,-237.534 527.432,-232.255"/>
<text text-anchor="middle" x="609.5" y="-253.28" font-family="Times,serif" font-size="14.00">IMPLICIT DOBJ</text>
</g>
<!-- E6 -->
<g id="node7" class="node"><title>E6</title>
<ellipse fill="azure" stroke="black" cx="361.5" cy="-99.8701" rx="44.5955" ry="26.7407"/>
<text text-anchor="middle" x="361.5" y="-103.67" font-family="Times,serif" font-size="14.00">sprinkle</text>
<text text-anchor="middle" x="361.5" y="-88.6701" font-family="Times,serif" font-size="14.00">6</text>
</g>
<!-- E5&#45;&gt;E6 -->
<g id="edge12" class="edge"><title>E5&#45;&gt;E6</title>
<path fill="none" stroke="black" d="M463.612,-181.57C443.853,-165.954 417.213,-144.901 396.098,-128.213"/>
<polygon fill="black" stroke="black" points="398.027,-125.276 388.011,-121.822 393.686,-130.768 398.027,-125.276"/>
<text text-anchor="middle" x="485.5" y="-148.54" font-family="Times,serif" font-size="14.00">IMPLICIT DOBJ</text>
</g>
<!-- EOR -->
<g id="node16" class="node"><title>EOR</title>
<ellipse fill="plum" stroke="black" cx="361.5" cy="-18" rx="57.3905" ry="18"/>
<text text-anchor="middle" x="361.5" y="-14.3" font-family="Times,serif" font-size="14.00">Bon appetit!</text>
</g>
<!-- E6&#45;&gt;EOR -->
<g id="edge15" class="edge"><title>E6&#45;&gt;EOR</title>
<path fill="none" stroke="black" d="M361.5,-72.7176C361.5,-64.2726 361.5,-54.8903 361.5,-46.3604"/>
<polygon fill="black" stroke="black" points="365,-46.1464 361.5,-36.1464 358,-46.1464 365,-46.1464"/>
</g>
<!-- D0 -->
<g id="node8" class="node"><title>D0</title>
<polygon fill="peachpuff" stroke="black" points="905.5,-723.441 669.5,-723.441 669.5,-687.441 905.5,-687.441 905.5,-723.441"/>
<text text-anchor="middle" x="787.5" y="-701.741" font-family="Times,serif" font-size="14.00">DOBJ: the peas, cabbage, green onion</text>
</g>
<!-- D0&#45;&gt;E0 -->
<g id="edge1" class="edge"><title>D0&#45;&gt;E0</title>
<path fill="none" stroke="black" d="M787.5,-687.11C787.5,-679.376 787.5,-669.957 787.5,-660.799"/>
<polygon fill="black" stroke="black" points="791,-660.675 787.5,-650.675 784,-660.675 791,-660.675"/>
</g>
<!-- P0_0 -->
<g id="node9" class="node"><title>P0_0</title>
<polygon fill="white" stroke="black" points="1105,-723.441 924,-723.441 924,-687.441 1105,-687.441 1105,-723.441"/>
<text text-anchor="middle" x="1014.5" y="-701.741" font-family="Times,serif" font-size="14.00">LOCATION:in a large bowl</text>
</g>
<!-- P0_0&#45;&gt;E0 -->
<g id="edge2" class="edge"><title>P0_0&#45;&gt;E0</title>
<path fill="none" stroke="black" d="M966.081,-687.405C923.17,-672.306 861.515,-650.613 823.022,-637.069"/>
<polygon fill="black" stroke="black" points="823.882,-633.661 813.287,-633.644 821.559,-640.265 823.882,-633.661"/>
</g>
<!-- D1 -->
<g id="node10" class="node"><title>D1</title>
<polygon fill="peachpuff" stroke="black" points="435,-723.441 -2.84217e-14,-723.441 -2.84217e-14,-687.441 435,-687.441 435,-723.441"/>
<text text-anchor="middle" x="217.5" y="-701.741" font-family="Times,serif" font-size="14.00">DOBJ: mustard, curry powder, vinegar, the sour cream, mayonnaise, salt</text>
</g>
<!-- D1&#45;&gt;E1 -->
<g id="edge3" class="edge"><title>D1&#45;&gt;E1</title>
<path fill="none" stroke="black" d="M288.955,-687.405C358.638,-670.791 461.816,-646.191 516.088,-633.252"/>
<polygon fill="black" stroke="black" points="517.034,-636.625 525.95,-630.901 515.41,-629.815 517.034,-636.625"/>
</g>
<!-- P1_0 -->
<g id="node11" class="node"><title>P1_0</title>
<polygon fill="white" stroke="black" points="651.5,-723.441 453.5,-723.441 453.5,-687.441 651.5,-687.441 651.5,-723.441"/>
<text text-anchor="middle" x="552.5" y="-701.741" font-family="Times,serif" font-size="14.00">LOCATION:in a separate bowl</text>
</g>
<!-- P1_0&#45;&gt;E1 -->
<g id="edge4" class="edge"><title>P1_0&#45;&gt;E1</title>
<path fill="none" stroke="black" d="M552.5,-687.11C552.5,-679.376 552.5,-669.957 552.5,-660.799"/>
<polygon fill="black" stroke="black" points="556,-660.675 552.5,-650.675 549,-660.675 556,-660.675"/>
</g>
<!-- O3_0_0 -->
<g id="node12" class="node"><title>O3_0_0</title>
<polygon fill="white" stroke="black" points="630.5,-536.831 520.5,-536.831 520.5,-500.831 630.5,-500.831 630.5,-536.831"/>
<text text-anchor="middle" x="575.5" y="-515.131" font-family="Times,serif" font-size="14.00">OTHER: to coat</text>
</g>
<!-- O3_0_0&#45;&gt;E3 -->
<g id="edge8" class="edge"><title>O3_0_0&#45;&gt;E3</title>
<path fill="none" stroke="black" d="M581.268,-500.402C585.861,-486.523 592.433,-466.662 598.082,-449.594"/>
<polygon fill="black" stroke="black" points="601.459,-450.528 601.278,-439.934 594.814,-448.328 601.459,-450.528"/>
</g>
<!-- O5_0_0 -->
<g id="node13" class="node"><title>O5_0_0</title>
<polygon fill="white" stroke="black" points="557.5,-327.35 325.5,-327.35 325.5,-291.35 557.5,-291.35 557.5,-327.35"/>
<text text-anchor="middle" x="441.5" y="-305.65" font-family="Times,serif" font-size="14.00">OTHER: at least 1 hour, or overnight</text>
</g>
<!-- O5_0_0&#45;&gt;E5 -->
<g id="edge11" class="edge"><title>O5_0_0&#45;&gt;E5</title>
<path fill="none" stroke="black" d="M449.982,-290.922C456.752,-277.01 466.448,-257.087 474.768,-239.992"/>
<polygon fill="black" stroke="black" points="477.992,-241.365 479.221,-230.842 471.697,-238.302 477.992,-241.365"/>
</g>
<!-- P6_0_ing -->
<g id="node14" class="node"><title>P6_0_ing</title>
<polygon fill="peachpuff" stroke="black" points="285.5,-222.61 115.5,-222.61 115.5,-186.61 285.5,-186.61 285.5,-222.61"/>
<text text-anchor="middle" x="200.5" y="-200.91" font-family="Times,serif" font-size="14.00">COOBJECT: with peanuts</text>
</g>
<!-- P6_0_ing&#45;&gt;E6 -->
<g id="edge13" class="edge"><title>P6_0_ing&#45;&gt;E6</title>
<path fill="none" stroke="black" d="M227.448,-186.414C253.57,-169.744 293.461,-144.288 322.94,-125.476"/>
<polygon fill="black" stroke="black" points="325.181,-128.198 331.728,-119.869 321.416,-122.298 325.181,-128.198"/>
</g>
<!-- O6_0_0 -->
<g id="node15" class="node"><title>O6_0_0</title>
<polygon fill="white" stroke="black" points="419.5,-222.61 303.5,-222.61 303.5,-186.61 419.5,-186.61 419.5,-222.61"/>
<text text-anchor="middle" x="361.5" y="-200.91" font-family="Times,serif" font-size="14.00">OTHER: to serve</text>
</g>
<!-- O6_0_0&#45;&gt;E6 -->
<g id="edge14" class="edge"><title>O6_0_0&#45;&gt;E6</title>
<path fill="none" stroke="black" d="M361.5,-186.182C361.5,-172.717 361.5,-153.621 361.5,-136.909"/>
<polygon fill="black" stroke="black" points="365,-136.883 361.5,-126.883 358,-136.883 365,-136.883"/>
</g>
</g>
</svg>
