<?xml version="1.0" encoding="UTF-8" standalone="no"?>
<!DOCTYPE svg PUBLIC "-//W3C//DTD SVG 1.1//EN"
 "http://www.w3.org/Graphics/SVG/1.1/DTD/svg11.dtd">
<!-- Generated by graphviz version 2.38.0 (20140413.2041)
 -->
<!-- Title: recipe Pages: 1 -->
<svg width="1085pt" height="1046pt"
 viewBox="0.00 0.00 1084.50 1045.66" xmlns="http://www.w3.org/2000/svg" xmlns:xlink="http://www.w3.org/1999/xlink">
<g id="graph0" class="graph" transform="scale(1 1) rotate(0) translate(4 1041.66)">
<title>recipe</title>
<polygon fill="white" stroke="none" points="-4,4 -4,-1041.66 1080.5,-1041.66 1080.5,4 -4,4"/>
<!-- E0 -->
<g id="node1" class="node"><title>E0</title>
<ellipse fill="azure" stroke="black" cx="655.5" cy="-937.791" rx="31.6406" ry="26.7407"/>
<text text-anchor="middle" x="655.5" y="-941.591" font-family="Times,serif" font-size="14.00">saute</text>
<text text-anchor="middle" x="655.5" y="-926.591" font-family="Times,serif" font-size="14.00">0</text>
</g>
<!-- E1 -->
<g id="node2" class="node"><title>E1</title>
<ellipse fill="azure" stroke="black" cx="592.5" cy="-833.051" rx="27" ry="26.7407"/>
<text text-anchor="middle" x="592.5" y="-836.851" font-family="Times,serif" font-size="14.00">add</text>
<text text-anchor="middle" x="592.5" y="-821.851" font-family="Times,serif" font-size="14.00">1</text>
</g>
<!-- E0&#45;&gt;E1 -->
<g id="edge7" class="edge"><title>E0&#45;&gt;E1</title>
<path fill="none" stroke="black" d="M641.204,-913.478C632.464,-899.224 621.175,-880.814 611.666,-865.307"/>
<polygon fill="black" stroke="black" points="614.517,-863.261 606.306,-856.566 608.55,-866.92 614.517,-863.261"/>
<text text-anchor="middle" x="678" y="-881.721" font-family="Times,serif" font-size="14.00">IMPLICIT PREP</text>
</g>
<!-- E2 -->
<g id="node3" class="node"><title>E2</title>
<ellipse fill="azure" stroke="black" cx="592.5" cy="-728.311" rx="27" ry="26.7407"/>
<text text-anchor="middle" x="592.5" y="-732.111" font-family="Times,serif" font-size="14.00">stir</text>
<text text-anchor="middle" x="592.5" y="-717.111" font-family="Times,serif" font-size="14.00">2</text>
</g>
<!-- E1&#45;&gt;E2 -->
<g id="edge8" class="edge"><title>E1&#45;&gt;E2</title>
<path fill="none" stroke="black" d="M592.5,-806.125C592.5,-793.836 592.5,-778.947 592.5,-765.562"/>
<polygon fill="black" stroke="black" points="596,-765.228 592.5,-755.228 589,-765.228 596,-765.228"/>
<text text-anchor="middle" x="643.5" y="-776.981" font-family="Times,serif" font-size="14.00">IMPLICIT DOBJ</text>
</g>
<!-- E3 -->
<g id="node4" class="node"><title>E3</title>
<ellipse fill="azure" stroke="black" cx="534.5" cy="-623.571" rx="27" ry="26.7407"/>
<text text-anchor="middle" x="534.5" y="-627.371" font-family="Times,serif" font-size="14.00">add</text>
<text text-anchor="middle" x="534.5" y="-612.371" font-family="Times,serif" font-size="14.00">3</text>
</g>
<!-- E2&#45;&gt;E3 -->
<g id="edge10" class="edge"><title>E2&#45;&gt;E3</title>
<path fill="none" stroke="black" d="M579.628,-704.509C571.593,-690.277 561.137,-671.754 552.312,-656.123"/>
<polygon fill="black" stroke="black" points="555.3,-654.296 547.336,-647.308 549.204,-657.737 555.3,-654.296"/>
<text text-anchor="middle" x="617" y="-672.241" font-family="Times,serif" font-size="14.00">IMPLICIT PREP</text>
</g>
<!-- E4 -->
<g id="node5" class="node"><title>E4</title>
<ellipse fill="azure" stroke="black" cx="449.5" cy="-518.831" rx="27" ry="26.7407"/>
<text text-anchor="middle" x="449.5" y="-522.631" font-family="Times,serif" font-size="14.00">stir</text>
<text text-anchor="middle" x="449.5" y="-507.631" font-family="Times,serif" font-size="14.00">4</text>
</g>
<!-- E3&#45;&gt;E4 -->
<g id="edge11" class="edge"><title>E3&#45;&gt;E4</title>
<path fill="none" stroke="black" d="M517.707,-602.272C504.901,-586.794 487.107,-565.286 472.904,-548.119"/>
<polygon fill="black" stroke="black" points="475.33,-545.56 466.258,-540.086 469.936,-550.023 475.33,-545.56"/>
<text text-anchor="middle" x="547.5" y="-567.501" font-family="Times,serif" font-size="14.00">IMPLICIT DOBJ</text>
</g>
<!-- E5 -->
<g id="node6" class="node"><title>E5</title>
<ellipse fill="azure" stroke="black" cx="375.5" cy="-414.09" rx="27" ry="26.7407"/>
<text text-anchor="middle" x="375.5" y="-417.89" font-family="Times,serif" font-size="14.00">add</text>
<text text-anchor="middle" x="375.5" y="-402.89" font-family="Times,serif" font-size="14.00">5</text>
</g>
<!-- E4&#45;&gt;E5 -->
<g id="edge14" class="edge"><title>E4&#45;&gt;E5</title>
<path fill="none" stroke="black" d="M434.167,-496.543C423.352,-481.527 408.724,-461.218 396.78,-444.635"/>
<polygon fill="black" stroke="black" points="399.498,-442.42 390.813,-436.351 393.818,-446.511 399.498,-442.42"/>
<text text-anchor="middle" x="467" y="-462.76" font-family="Times,serif" font-size="14.00">IMPLICIT PREP</text>
</g>
<!-- E6 -->
<g id="node7" class="node"><title>E6</title>
<ellipse fill="azure" stroke="black" cx="278.5" cy="-309.35" rx="38.3684" ry="26.7407"/>
<text text-anchor="middle" x="278.5" y="-313.15" font-family="Times,serif" font-size="14.00">season</text>
<text text-anchor="middle" x="278.5" y="-298.15" font-family="Times,serif" font-size="14.00">6</text>
</g>
<!-- E5&#45;&gt;E6 -->
<g id="edge15" class="edge"><title>E5&#45;&gt;E6</title>
<path fill="none" stroke="black" d="M357.255,-393.766C342.882,-378.543 322.608,-357.068 306.23,-339.721"/>
<polygon fill="black" stroke="black" points="308.424,-336.947 299.014,-332.078 303.334,-341.752 308.424,-336.947"/>
<text text-anchor="middle" x="384.5" y="-358.02" font-family="Times,serif" font-size="14.00">IMPLICIT DOBJ</text>
</g>
<!-- E7 -->
<g id="node8" class="node"><title>E7</title>
<ellipse fill="azure" stroke="black" cx="172.5" cy="-204.61" rx="63.7795" ry="26.7407"/>
<text text-anchor="middle" x="172.5" y="-208.41" font-family="Times,serif" font-size="14.00">heat through</text>
<text text-anchor="middle" x="172.5" y="-193.41" font-family="Times,serif" font-size="14.00">7</text>
</g>
<!-- E6&#45;&gt;E7 -->
<g id="edge17" class="edge"><title>E6&#45;&gt;E7</title>
<path fill="none" stroke="black" d="M256.537,-287.062C241.602,-272.587 221.591,-253.191 204.842,-236.958"/>
<polygon fill="black" stroke="black" points="207.023,-234.197 197.407,-229.751 202.151,-239.224 207.023,-234.197"/>
<text text-anchor="middle" x="283.5" y="-253.28" font-family="Times,serif" font-size="14.00">IMPLICIT DOBJ</text>
</g>
<!-- E8 -->
<g id="node9" class="node"><title>E8</title>
<ellipse fill="azure" stroke="black" cx="85.5" cy="-99.8701" rx="32.5538" ry="26.7407"/>
<text text-anchor="middle" x="85.5" y="-103.67" font-family="Times,serif" font-size="14.00">serve</text>
<text text-anchor="middle" x="85.5" y="-88.6701" font-family="Times,serif" font-size="14.00">8</text>
</g>
<!-- E7&#45;&gt;E8 -->
<g id="edge19" class="edge"><title>E7&#45;&gt;E8</title>
<path fill="none" stroke="black" d="M151.661,-179.001C139.247,-164.341 123.416,-145.646 110.353,-130.22"/>
<polygon fill="black" stroke="black" points="112.94,-127.859 103.807,-122.489 107.598,-132.382 112.94,-127.859"/>
<text text-anchor="middle" x="185.5" y="-148.54" font-family="Times,serif" font-size="14.00">IMPLICIT DOBJ</text>
</g>
<!-- EOR -->
<g id="node22" class="node"><title>EOR</title>
<ellipse fill="plum" stroke="black" cx="85.5" cy="-18" rx="57.3905" ry="18"/>
<text text-anchor="middle" x="85.5" y="-14.3" font-family="Times,serif" font-size="14.00">Bon appetit!</text>
</g>
<!-- E8&#45;&gt;EOR -->
<g id="edge21" class="edge"><title>E8&#45;&gt;EOR</title>
<path fill="none" stroke="black" d="M85.5,-72.7176C85.5,-64.2726 85.5,-54.8903 85.5,-46.3604"/>
<polygon fill="black" stroke="black" points="89.0001,-46.1464 85.5,-36.1464 82.0001,-46.1464 89.0001,-46.1464"/>
</g>
<!-- D0 -->
<g id="node10" class="node"><title>D0</title>
<polygon fill="peachpuff" stroke="black" points="356.5,-1037.66 262.5,-1037.66 262.5,-1001.66 356.5,-1001.66 356.5,-1037.66"/>
<text text-anchor="middle" x="309.5" y="-1015.96" font-family="Times,serif" font-size="14.00">DOBJ: onion</text>
</g>
<!-- D0&#45;&gt;E0 -->
<g id="edge1" class="edge"><title>D0&#45;&gt;E0</title>
<path fill="none" stroke="black" d="M356.725,-1003.79C359.683,-1003.02 362.625,-1002.31 365.5,-1001.66 420.297,-989.36 562.949,-984.472 615.5,-964.661 618.025,-963.709 620.556,-962.58 623.05,-961.334"/>
<polygon fill="black" stroke="black" points="624.825,-964.351 631.848,-956.418 621.411,-958.24 624.825,-964.351"/>
</g>
<!-- P0_0 -->
<g id="node11" class="node"><title>P0_0</title>
<polygon fill="white" stroke="black" points="566.5,-1037.66 374.5,-1037.66 374.5,-1001.66 566.5,-1001.66 566.5,-1037.66"/>
<text text-anchor="middle" x="470.5" y="-1015.96" font-family="Times,serif" font-size="14.00">LOCATION:using a saute pan</text>
</g>
<!-- P0_0&#45;&gt;E0 -->
<g id="edge2" class="edge"><title>P0_0&#45;&gt;E0</title>
<path fill="none" stroke="black" d="M524.707,-1001.62C552.47,-992.106 586.452,-979.245 615.5,-964.661 617.911,-963.45 620.358,-962.128 622.791,-960.742"/>
<polygon fill="black" stroke="black" points="624.692,-963.684 631.46,-955.532 621.086,-957.684 624.692,-963.684"/>
</g>
<!-- P0_1 -->
<g id="node12" class="node"><title>P0_1</title>
<polygon fill="peachpuff" stroke="black" points="726.5,-1037.66 584.5,-1037.66 584.5,-1001.66 726.5,-1001.66 726.5,-1037.66"/>
<text text-anchor="middle" x="655.5" y="-1015.96" font-family="Times,serif" font-size="14.00">COOBJECT:in butter</text>
</g>
<!-- P0_1&#45;&gt;E0 -->
<g id="edge3" class="edge"><title>P0_1&#45;&gt;E0</title>
<path fill="none" stroke="black" d="M655.5,-1001.33C655.5,-993.597 655.5,-984.177 655.5,-975.019"/>
<polygon fill="black" stroke="black" points="659,-974.895 655.5,-964.895 652,-974.895 659,-974.895"/>
</g>
<!-- O0_0 -->
<g id="node13" class="node"><title>O0_0</title>
<polygon fill="white" stroke="black" points="920.5,-1037.66 744.5,-1037.66 744.5,-1001.66 920.5,-1001.66 920.5,-1037.66"/>
<text text-anchor="middle" x="832.5" y="-1015.96" font-family="Times,serif" font-size="14.00">OTHER: over medium heat</text>
</g>
<!-- O0_0&#45;&gt;E0 -->
<g id="edge4" class="edge"><title>O0_0&#45;&gt;E0</title>
<path fill="none" stroke="black" d="M794.529,-1001.53C764.373,-987.919 722.446,-969 692.537,-955.504"/>
<polygon fill="black" stroke="black" points="693.833,-952.249 683.279,-951.326 690.954,-958.629 693.833,-952.249"/>
</g>
<!-- O0_1 -->
<g id="node14" class="node"><title>O0_1</title>
<polygon fill="white" stroke="black" points="1076.5,-1037.66 938.5,-1037.66 938.5,-1001.66 1076.5,-1001.66 1076.5,-1037.66"/>
<text text-anchor="middle" x="1007.5" y="-1015.96" font-family="Times,serif" font-size="14.00">OTHER: until tender</text>
</g>
<!-- O0_1&#45;&gt;E0 -->
<g id="edge5" class="edge"><title>O0_1&#45;&gt;E0</title>
<path fill="none" stroke="black" d="M938.376,-1002.98C866.225,-986.605 755.507,-961.483 696.254,-948.038"/>
<polygon fill="black" stroke="black" points="696.683,-944.547 686.157,-945.747 695.134,-951.373 696.683,-944.547"/>
</g>
<!-- D1_ing -->
<g id="node15" class="node"><title>D1_ing</title>
<polygon fill="peachpuff" stroke="black" points="606,-955.791 517,-955.791 517,-919.791 606,-919.791 606,-955.791"/>
<text text-anchor="middle" x="561.5" y="-934.091" font-family="Times,serif" font-size="14.00">DOBJ: flour</text>
</g>
<!-- D1_ing&#45;&gt;E1 -->
<g id="edge6" class="edge"><title>D1_ing&#45;&gt;E1</title>
<path fill="none" stroke="black" d="M566.759,-919.363C570.946,-905.484 576.939,-885.622 582.089,-868.555"/>
<polygon fill="black" stroke="black" points="585.466,-869.48 585.004,-858.895 578.764,-867.457 585.466,-869.48"/>
</g>
<!-- D3_ing -->
<g id="node16" class="node"><title>D3_ing</title>
<polygon fill="peachpuff" stroke="black" points="547.5,-746.311 461.5,-746.311 461.5,-710.311 547.5,-710.311 547.5,-746.311"/>
<text text-anchor="middle" x="504.5" y="-724.611" font-family="Times,serif" font-size="14.00">DOBJ: milk</text>
</g>
<!-- D3_ing&#45;&gt;E3 -->
<g id="edge9" class="edge"><title>D3_ing&#45;&gt;E3</title>
<path fill="none" stroke="black" d="M509.589,-709.882C513.614,-696.099 519.361,-676.416 524.322,-659.428"/>
<polygon fill="black" stroke="black" points="527.689,-660.383 527.132,-649.802 520.97,-658.42 527.689,-660.383"/>
</g>
<!-- O4_0_0 -->
<g id="node17" class="node"><title>O4_0_0</title>
<polygon fill="white" stroke="black" points="489.5,-641.571 331.5,-641.571 331.5,-605.571 489.5,-605.571 489.5,-641.571"/>
<text text-anchor="middle" x="410.5" y="-619.871" font-family="Times,serif" font-size="14.00">OTHER: until thickened</text>
</g>
<!-- O4_0_0&#45;&gt;E4 -->
<g id="edge12" class="edge"><title>O4_0_0&#45;&gt;E4</title>
<path fill="none" stroke="black" d="M417.116,-605.142C422.421,-591.168 430.028,-571.128 436.536,-553.982"/>
<polygon fill="black" stroke="black" points="439.939,-554.88 440.216,-544.288 433.395,-552.395 439.939,-554.88"/>
</g>
<!-- D5_ing -->
<g id="node18" class="node"><title>D5_ing</title>
<polygon fill="peachpuff" stroke="black" points="404.5,-536.831 274.5,-536.831 274.5,-500.831 404.5,-500.831 404.5,-536.831"/>
<text text-anchor="middle" x="339.5" y="-515.131" font-family="Times,serif" font-size="14.00">DOBJ: cheese, corn</text>
</g>
<!-- D5_ing&#45;&gt;E5 -->
<g id="edge13" class="edge"><title>D5_ing&#45;&gt;E5</title>
<path fill="none" stroke="black" d="M345.607,-500.402C350.47,-486.523 357.429,-466.662 363.41,-449.594"/>
<polygon fill="black" stroke="black" points="366.791,-450.529 366.795,-439.934 360.185,-448.214 366.791,-450.529"/>
</g>
<!-- P6_0_ing -->
<g id="node19" class="node"><title>P6_0_ing</title>
<polygon fill="peachpuff" stroke="black" points="330.5,-432.09 138.5,-432.09 138.5,-396.09 330.5,-396.09 330.5,-432.09"/>
<text text-anchor="middle" x="234.5" y="-410.39" font-family="Times,serif" font-size="14.00">COOBJECT: with pepper, salt</text>
</g>
<!-- P6_0_ing&#45;&gt;E6 -->
<g id="edge16" class="edge"><title>P6_0_ing&#45;&gt;E6</title>
<path fill="none" stroke="black" d="M241.964,-395.662C247.908,-381.783 256.414,-361.922 263.723,-344.854"/>
<polygon fill="black" stroke="black" points="267.141,-345.765 267.86,-335.194 260.706,-343.009 267.141,-345.765"/>
</g>
<!-- O7_0_0 -->
<g id="node20" class="node"><title>O7_0_0</title>
<polygon fill="white" stroke="black" points="222.5,-327.35 28.5,-327.35 28.5,-291.35 222.5,-291.35 222.5,-327.35"/>
<text text-anchor="middle" x="125.5" y="-305.65" font-family="Times,serif" font-size="14.00">OTHER: until the cheese melts</text>
</g>
<!-- O7_0_0&#45;&gt;E7 -->
<g id="edge18" class="edge"><title>O7_0_0&#45;&gt;E7</title>
<path fill="none" stroke="black" d="M133.473,-290.922C139.793,-277.107 148.825,-257.363 156.608,-240.348"/>
<polygon fill="black" stroke="black" points="159.802,-241.781 160.779,-231.232 153.436,-238.869 159.802,-241.781"/>
</g>
<!-- O8_0_0 -->
<g id="node21" class="node"><title>O8_0_0</title>
<polygon fill="white" stroke="black" points="91,-222.61 0,-222.61 0,-186.61 91,-186.61 91,-222.61"/>
<text text-anchor="middle" x="45.5" y="-200.91" font-family="Times,serif" font-size="14.00">OTHER: hot</text>
</g>
<!-- O8_0_0&#45;&gt;E8 -->
<g id="edge20" class="edge"><title>O8_0_0&#45;&gt;E8</title>
<path fill="none" stroke="black" d="M52.2855,-186.182C57.6889,-172.303 65.4216,-152.441 72.0666,-135.374"/>
<polygon fill="black" stroke="black" points="75.4609,-136.302 75.8275,-125.714 68.9378,-133.763 75.4609,-136.302"/>
</g>
</g>
</svg>
