<?xml version="1.0" encoding="UTF-8" standalone="no"?>
<!DOCTYPE svg PUBLIC "-//W3C//DTD SVG 1.1//EN"
 "http://www.w3.org/Graphics/SVG/1.1/DTD/svg11.dtd">
<!-- Generated by graphviz version 2.38.0 (20140413.2041)
 -->
<!-- Title: recipe Pages: 1 -->
<svg width="2444pt" height="1046pt"
 viewBox="0.00 0.00 2443.50 1045.66" xmlns="http://www.w3.org/2000/svg" xmlns:xlink="http://www.w3.org/1999/xlink">
<g id="graph0" class="graph" transform="scale(1 1) rotate(0) translate(4 1041.66)">
<title>recipe</title>
<polygon fill="white" stroke="none" points="-4,4 -4,-1041.66 2439.5,-1041.66 2439.5,4 -4,4"/>
<!-- E0 -->
<g id="node1" class="node"><title>E0</title>
<ellipse fill="azure" stroke="black" cx="2275" cy="-518.831" rx="33.8824" ry="26.7407"/>
<text text-anchor="middle" x="2275" y="-522.631" font-family="Times,serif" font-size="14.00">bring</text>
<text text-anchor="middle" x="2275" y="-507.631" font-family="Times,serif" font-size="14.00">0</text>
</g>
<!-- E1 -->
<g id="node2" class="node"><title>E1</title>
<ellipse fill="azure" stroke="black" cx="1722" cy="-414.09" rx="31.6406" ry="26.7407"/>
<text text-anchor="middle" x="1722" y="-417.89" font-family="Times,serif" font-size="14.00">cook</text>
<text text-anchor="middle" x="1722" y="-402.89" font-family="Times,serif" font-size="14.00">1</text>
</g>
<!-- E0&#45;&gt;E1 -->
<g id="edge9" class="edge"><title>E0&#45;&gt;E1</title>
<path fill="none" stroke="black" d="M2249.9,-500.507C2244.22,-497.228 2238.07,-494.145 2232,-491.96 2065.84,-432.132 1852.99,-418.864 1764.02,-415.925"/>
<polygon fill="black" stroke="black" points="1763.9,-412.42 1753.8,-415.615 1763.68,-419.416 1763.9,-412.42"/>
<text text-anchor="middle" x="2261" y="-462.76" font-family="Times,serif" font-size="14.00">COOBJECT:in the boiling water</text>
</g>
<!-- E2 -->
<g id="node3" class="node"><title>E2</title>
<ellipse fill="azure" stroke="black" cx="1722" cy="-309.35" rx="33.4697" ry="26.7407"/>
<text text-anchor="middle" x="1722" y="-313.15" font-family="Times,serif" font-size="14.00">drain</text>
<text text-anchor="middle" x="1722" y="-298.15" font-family="Times,serif" font-size="14.00">2</text>
</g>
<!-- E1&#45;&gt;E2 -->
<g id="edge12" class="edge"><title>E1&#45;&gt;E2</title>
<path fill="none" stroke="black" d="M1722,-387.165C1722,-374.875 1722,-359.987 1722,-346.602"/>
<polygon fill="black" stroke="black" points="1725.5,-346.268 1722,-336.268 1718.5,-346.268 1725.5,-346.268"/>
<text text-anchor="middle" x="1773" y="-358.02" font-family="Times,serif" font-size="14.00">IMPLICIT DOBJ</text>
</g>
<!-- E3 -->
<g id="node4" class="node"><title>E3</title>
<ellipse fill="azure" stroke="black" cx="1557" cy="-204.61" rx="42.3529" ry="26.7407"/>
<text text-anchor="middle" x="1557" y="-208.41" font-family="Times,serif" font-size="14.00">transfer</text>
<text text-anchor="middle" x="1557" y="-193.41" font-family="Times,serif" font-size="14.00">3</text>
</g>
<!-- E2&#45;&gt;E3 -->
<g id="edge13" class="edge"><title>E2&#45;&gt;E3</title>
<path fill="none" stroke="black" d="M1696.22,-292.297C1669.16,-275.449 1626.33,-248.777 1595.31,-229.465"/>
<polygon fill="black" stroke="black" points="1596.84,-226.293 1586.5,-223.978 1593.14,-232.235 1596.84,-226.293"/>
<text text-anchor="middle" x="1701" y="-253.28" font-family="Times,serif" font-size="14.00">IMPLICIT DOBJ</text>
</g>
<!-- E14 -->
<g id="node15" class="node"><title>E14</title>
<ellipse fill="azure" stroke="black" cx="1449" cy="-99.8701" rx="27.6545" ry="26.7407"/>
<text text-anchor="middle" x="1449" y="-103.67" font-family="Times,serif" font-size="14.00">mix</text>
<text text-anchor="middle" x="1449" y="-88.6701" font-family="Times,serif" font-size="14.00">14</text>
</g>
<!-- E3&#45;&gt;E14 -->
<g id="edge34" class="edge"><title>E3&#45;&gt;E14</title>
<path fill="none" stroke="black" d="M1534.1,-181.822C1516.98,-165.535 1493.53,-143.23 1475.58,-126.157"/>
<polygon fill="black" stroke="black" points="1477.92,-123.55 1468.26,-119.194 1473.09,-128.622 1477.92,-123.55"/>
<text text-anchor="middle" x="1609" y="-148.54" font-family="Times,serif" font-size="14.00">COOBJECT:with cooked noodles</text>
</g>
<!-- E4 -->
<g id="node5" class="node"><title>E4</title>
<ellipse fill="azure" stroke="black" cx="197" cy="-937.791" rx="28.9828" ry="26.7407"/>
<text text-anchor="middle" x="197" y="-941.591" font-family="Times,serif" font-size="14.00">melt</text>
<text text-anchor="middle" x="197" y="-926.591" font-family="Times,serif" font-size="14.00">4</text>
</g>
<!-- E5 -->
<g id="node6" class="node"><title>E5</title>
<ellipse fill="azure" stroke="black" cx="406" cy="-833.051" rx="65.1077" ry="26.7407"/>
<text text-anchor="middle" x="406" y="-836.851" font-family="Times,serif" font-size="14.00">cook and stir</text>
<text text-anchor="middle" x="406" y="-821.851" font-family="Times,serif" font-size="14.00">5</text>
</g>
<!-- E4&#45;&gt;E5 -->
<g id="edge16" class="edge"><title>E4&#45;&gt;E5</title>
<path fill="none" stroke="black" d="M195.276,-910.744C195.925,-899.31 198.778,-886.554 207,-877.921 224.32,-859.736 283.631,-848.229 333.033,-841.585"/>
<polygon fill="black" stroke="black" points="333.619,-845.039 343.085,-840.281 332.718,-838.097 333.619,-845.039"/>
<text text-anchor="middle" x="291.5" y="-881.721" font-family="Times,serif" font-size="14.00">COOBJECT:in the hot butter</text>
</g>
<!-- E8 -->
<g id="node9" class="node"><title>E8</title>
<ellipse fill="azure" stroke="black" cx="729" cy="-728.311" rx="31.2258" ry="26.7407"/>
<text text-anchor="middle" x="729" y="-732.111" font-family="Times,serif" font-size="14.00">pour</text>
<text text-anchor="middle" x="729" y="-717.111" font-family="Times,serif" font-size="14.00">8</text>
</g>
<!-- E5&#45;&gt;E8 -->
<g id="edge21" class="edge"><title>E5&#45;&gt;E8</title>
<path fill="none" stroke="black" d="M456.469,-815.998C521.211,-795.404 632.094,-760.135 690.467,-741.567"/>
<polygon fill="black" stroke="black" points="691.583,-744.885 700.052,-738.519 689.461,-738.215 691.583,-744.885"/>
<text text-anchor="middle" x="656" y="-776.981" font-family="Times,serif" font-size="14.00">LOCATION:into skillet</text>
</g>
<!-- E6 -->
<g id="node7" class="node"><title>E6</title>
<ellipse fill="azure" stroke="black" cx="808" cy="-937.791" rx="32.5538" ry="26.7407"/>
<text text-anchor="middle" x="808" y="-941.591" font-family="Times,serif" font-size="14.00">place</text>
<text text-anchor="middle" x="808" y="-926.591" font-family="Times,serif" font-size="14.00">6</text>
</g>
<!-- E7 -->
<g id="node8" class="node"><title>E7</title>
<ellipse fill="azure" stroke="black" cx="808" cy="-833.051" rx="34.7971" ry="26.7407"/>
<text text-anchor="middle" x="808" y="-836.851" font-family="Times,serif" font-size="14.00">shake</text>
<text text-anchor="middle" x="808" y="-821.851" font-family="Times,serif" font-size="14.00">7</text>
</g>
<!-- E6&#45;&gt;E7 -->
<g id="edge18" class="edge"><title>E6&#45;&gt;E7</title>
<path fill="none" stroke="black" d="M808,-910.865C808,-898.576 808,-883.687 808,-870.302"/>
<polygon fill="black" stroke="black" points="811.5,-869.968 808,-859.968 804.5,-869.968 811.5,-869.968"/>
<text text-anchor="middle" x="859" y="-881.721" font-family="Times,serif" font-size="14.00">IMPLICIT DOBJ</text>
</g>
<!-- E7&#45;&gt;E8 -->
<g id="edge20" class="edge"><title>E7&#45;&gt;E8</title>
<path fill="none" stroke="black" d="M790.663,-809.504C779.292,-794.716 764.297,-775.215 751.942,-759.147"/>
<polygon fill="black" stroke="black" points="754.625,-756.894 745.755,-751.1 749.076,-761.161 754.625,-756.894"/>
<text text-anchor="middle" x="797" y="-776.981" font-family="Times,serif" font-size="14.00">mixture</text>
</g>
<!-- E9 -->
<g id="node10" class="node"><title>E9</title>
<ellipse fill="azure" stroke="black" cx="870" cy="-623.571" rx="36.5405" ry="26.7407"/>
<text text-anchor="middle" x="870" y="-627.371" font-family="Times,serif" font-size="14.00">whisk</text>
<text text-anchor="middle" x="870" y="-612.371" font-family="Times,serif" font-size="14.00">9</text>
</g>
<!-- E8&#45;&gt;E9 -->
<g id="edge22" class="edge"><title>E8&#45;&gt;E9</title>
<path fill="none" stroke="black" d="M747.854,-706.531C759.341,-694.557 774.711,-679.697 790,-668.441 802.541,-659.208 817.248,-650.597 830.608,-643.491"/>
<polygon fill="black" stroke="black" points="832.336,-646.537 839.599,-638.823 829.111,-640.325 832.336,-646.537"/>
<text text-anchor="middle" x="841" y="-672.241" font-family="Times,serif" font-size="14.00">IMPLICIT DOBJ</text>
</g>
<!-- E10 -->
<g id="node11" class="node"><title>E10</title>
<ellipse fill="azure" stroke="black" cx="944" cy="-518.831" rx="36.5405" ry="26.7407"/>
<text text-anchor="middle" x="944" y="-522.631" font-family="Times,serif" font-size="14.00">whisk</text>
<text text-anchor="middle" x="944" y="-507.631" font-family="Times,serif" font-size="14.00">10</text>
</g>
<!-- E9&#45;&gt;E10 -->
<g id="edge25" class="edge"><title>E9&#45;&gt;E10</title>
<path fill="none" stroke="black" d="M865.141,-596.765C864.388,-585.901 865.329,-573.528 871,-563.701 877.949,-551.658 889.641,-542.543 901.656,-535.83"/>
<polygon fill="black" stroke="black" points="903.511,-538.814 910.833,-531.156 900.334,-532.576 903.511,-538.814"/>
<text text-anchor="middle" x="938" y="-567.501" font-family="Times,serif" font-size="14.00">COOBJECT:into sauce</text>
</g>
<!-- E11 -->
<g id="node12" class="node"><title>E11</title>
<ellipse fill="azure" stroke="black" cx="1069" cy="-414.09" rx="33.8824" ry="26.7407"/>
<text text-anchor="middle" x="1069" y="-417.89" font-family="Times,serif" font-size="14.00">bring</text>
<text text-anchor="middle" x="1069" y="-402.89" font-family="Times,serif" font-size="14.00">11</text>
</g>
<!-- E10&#45;&gt;E11 -->
<g id="edge26" class="edge"><title>E10&#45;&gt;E11</title>
<path fill="none" stroke="black" d="M947.388,-491.89C950.021,-480.616 954.697,-467.958 963,-458.96 979.633,-440.937 1004.79,-430.102 1026.42,-423.71"/>
<polygon fill="black" stroke="black" points="1027.35,-427.087 1036.07,-421.077 1025.5,-420.334 1027.35,-427.087"/>
<text text-anchor="middle" x="1014" y="-462.76" font-family="Times,serif" font-size="14.00">IMPLICIT DOBJ</text>
</g>
<!-- E12 -->
<g id="node13" class="node"><title>E12</title>
<ellipse fill="azure" stroke="black" cx="1153" cy="-309.35" rx="27" ry="26.7407"/>
<text text-anchor="middle" x="1153" y="-313.15" font-family="Times,serif" font-size="14.00">stir</text>
<text text-anchor="middle" x="1153" y="-298.15" font-family="Times,serif" font-size="14.00">12</text>
</g>
<!-- E11&#45;&gt;E12 -->
<g id="edge30" class="edge"><title>E11&#45;&gt;E12</title>
<path fill="none" stroke="black" d="M1066.58,-387.006C1066.79,-376.094 1068.75,-363.759 1075,-354.22 1084.94,-339.046 1102.04,-328.587 1117.7,-321.699"/>
<polygon fill="black" stroke="black" points="1119.23,-324.856 1127.19,-317.862 1116.61,-318.367 1119.23,-324.856"/>
<text text-anchor="middle" x="1142" y="-358.02" font-family="Times,serif" font-size="14.00">COOBJECT:into sauce</text>
</g>
<!-- E13 -->
<g id="node14" class="node"><title>E13</title>
<ellipse fill="azure" stroke="black" cx="1312" cy="-204.61" rx="38.3684" ry="26.7407"/>
<text text-anchor="middle" x="1312" y="-208.41" font-family="Times,serif" font-size="14.00">season</text>
<text text-anchor="middle" x="1312" y="-193.41" font-family="Times,serif" font-size="14.00">13</text>
</g>
<!-- E12&#45;&gt;E13 -->
<g id="edge31" class="edge"><title>E12&#45;&gt;E13</title>
<path fill="none" stroke="black" d="M1168.27,-287.103C1177.96,-274.817 1191.4,-259.797 1206,-249.48 1224.59,-236.344 1247.71,-226.193 1267.61,-218.98"/>
<polygon fill="black" stroke="black" points="1268.8,-222.273 1277.09,-215.675 1266.49,-215.663 1268.8,-222.273"/>
<text text-anchor="middle" x="1257" y="-253.28" font-family="Times,serif" font-size="14.00">IMPLICIT DOBJ</text>
</g>
<!-- E13&#45;&gt;E14 -->
<g id="edge33" class="edge"><title>E13&#45;&gt;E14</title>
<path fill="none" stroke="black" d="M1337.45,-184.526C1360.57,-167.188 1394.69,-141.598 1419.1,-123.291"/>
<polygon fill="black" stroke="black" points="1421.4,-125.945 1427.3,-117.145 1417.2,-120.345 1421.4,-125.945"/>
<text text-anchor="middle" x="1440" y="-148.54" font-family="Times,serif" font-size="14.00">IMPLICIT DOBJ</text>
</g>
<!-- EOR -->
<g id="node36" class="node"><title>EOR</title>
<ellipse fill="plum" stroke="black" cx="1449" cy="-18" rx="57.3905" ry="18"/>
<text text-anchor="middle" x="1449" y="-14.3" font-family="Times,serif" font-size="14.00">Bon appetit!</text>
</g>
<!-- E14&#45;&gt;EOR -->
<g id="edge35" class="edge"><title>E14&#45;&gt;EOR</title>
<path fill="none" stroke="black" d="M1449,-72.7176C1449,-64.2726 1449,-54.8903 1449,-46.3604"/>
<polygon fill="black" stroke="black" points="1452.5,-46.1464 1449,-36.1464 1445.5,-46.1464 1452.5,-46.1464"/>
</g>
<!-- D4 -->
<g id="node16" class="node"><title>D4</title>
<polygon fill="peachpuff" stroke="black" points="94,-1037.66 -7.10543e-15,-1037.66 -7.10543e-15,-1001.66 94,-1001.66 94,-1037.66"/>
<text text-anchor="middle" x="47" y="-1015.96" font-family="Times,serif" font-size="14.00">DOBJ: butter</text>
</g>
<!-- D4&#45;&gt;E4 -->
<g id="edge1" class="edge"><title>D4&#45;&gt;E4</title>
<path fill="none" stroke="black" d="M79.1788,-1001.53C104.019,-988.3 138.285,-970.055 163.461,-956.649"/>
<polygon fill="black" stroke="black" points="165.109,-959.737 172.291,-951.948 161.819,-953.558 165.109,-959.737"/>
</g>
<!-- P4_0 -->
<g id="node17" class="node"><title>P4_0</title>
<polygon fill="white" stroke="black" points="282,-1037.66 112,-1037.66 112,-1001.66 282,-1001.66 282,-1037.66"/>
<text text-anchor="middle" x="197" y="-1015.96" font-family="Times,serif" font-size="14.00">LOCATION:in a large pot</text>
</g>
<!-- P4_0&#45;&gt;E4 -->
<g id="edge2" class="edge"><title>P4_0&#45;&gt;E4</title>
<path fill="none" stroke="black" d="M197,-1001.33C197,-993.597 197,-984.177 197,-975.019"/>
<polygon fill="black" stroke="black" points="200.5,-974.895 197,-964.895 193.5,-974.895 200.5,-974.895"/>
</g>
<!-- O4_0 -->
<g id="node18" class="node"><title>O4_0</title>
<polygon fill="white" stroke="black" points="476,-1037.66 300,-1037.66 300,-1001.66 476,-1001.66 476,-1037.66"/>
<text text-anchor="middle" x="388" y="-1015.96" font-family="Times,serif" font-size="14.00">OTHER: over medium heat</text>
</g>
<!-- O4_0&#45;&gt;E4 -->
<g id="edge3" class="edge"><title>O4_0&#45;&gt;E4</title>
<path fill="none" stroke="black" d="M347.026,-1001.53C313.052,-987.32 265.234,-967.324 232.782,-953.754"/>
<polygon fill="black" stroke="black" points="233.813,-950.391 223.237,-949.762 231.112,-956.849 233.813,-950.391"/>
</g>
<!-- D6 -->
<g id="node19" class="node"><title>D6</title>
<polygon fill="peachpuff" stroke="black" points="719.5,-1037.66 516.5,-1037.66 516.5,-1001.66 719.5,-1001.66 719.5,-1037.66"/>
<text text-anchor="middle" x="618" y="-1015.96" font-family="Times,serif" font-size="14.00">DOBJ: flour, milk, half&#45;and&#45;half</text>
</g>
<!-- D6&#45;&gt;E6 -->
<g id="edge4" class="edge"><title>D6&#45;&gt;E6</title>
<path fill="none" stroke="black" d="M672.864,-1001.6C701.234,-992.044 736.09,-979.145 766,-964.661 768.763,-963.323 771.575,-961.853 774.369,-960.313"/>
<polygon fill="black" stroke="black" points="776.243,-963.273 783.148,-955.238 772.739,-957.213 776.243,-963.273"/>
</g>
<!-- P6_0 -->
<g id="node20" class="node"><title>P6_0</title>
<polygon fill="white" stroke="black" points="930,-1037.66 738,-1037.66 738,-1001.66 930,-1001.66 930,-1037.66"/>
<text text-anchor="middle" x="834" y="-1015.96" font-family="Times,serif" font-size="14.00">LOCATION:in a jar with a lid</text>
</g>
<!-- P6_0&#45;&gt;E6 -->
<g id="edge5" class="edge"><title>P6_0&#45;&gt;E6</title>
<path fill="none" stroke="black" d="M828.358,-1001.33C825.72,-993.226 822.479,-983.27 819.365,-973.705"/>
<polygon fill="black" stroke="black" points="822.621,-972.397 816.197,-963.972 815.964,-974.564 822.621,-972.397"/>
</g>
<!-- D0 -->
<g id="node21" class="node"><title>D0</title>
<polygon fill="peachpuff" stroke="black" points="2298,-641.571 2048,-641.571 2048,-605.571 2298,-605.571 2298,-641.571"/>
<text text-anchor="middle" x="2173" y="-619.871" font-family="Times,serif" font-size="14.00">DOBJ: a large pot of lightly salted water</text>
</g>
<!-- D0&#45;&gt;E0 -->
<g id="edge6" class="edge"><title>D0&#45;&gt;E0</title>
<path fill="none" stroke="black" d="M2190.3,-605.142C2205.82,-589.513 2228.87,-566.296 2247.01,-548.027"/>
<polygon fill="black" stroke="black" points="2249.88,-550.099 2254.44,-540.537 2244.91,-545.167 2249.88,-550.099"/>
</g>
<!-- O0_0 -->
<g id="node22" class="node"><title>O0_0</title>
<polygon fill="white" stroke="black" points="2435.5,-641.571 2316.5,-641.571 2316.5,-605.571 2435.5,-605.571 2435.5,-641.571"/>
<text text-anchor="middle" x="2376" y="-619.871" font-family="Times,serif" font-size="14.00">OTHER: to a boil</text>
</g>
<!-- O0_0&#45;&gt;E0 -->
<g id="edge7" class="edge"><title>O0_0&#45;&gt;E0</title>
<path fill="none" stroke="black" d="M2358.87,-605.142C2343.5,-589.513 2320.68,-566.296 2302.72,-548.027"/>
<polygon fill="black" stroke="black" points="2304.86,-545.214 2295.36,-540.537 2299.87,-550.121 2304.86,-545.214"/>
</g>
<!-- D1_ing -->
<g id="node23" class="node"><title>D1_ing</title>
<polygon fill="peachpuff" stroke="black" points="1594,-536.831 1464,-536.831 1464,-500.831 1594,-500.831 1594,-536.831"/>
<text text-anchor="middle" x="1529" y="-515.131" font-family="Times,serif" font-size="14.00">DOBJ: egg noodles</text>
</g>
<!-- D1_ing&#45;&gt;E1 -->
<g id="edge8" class="edge"><title>D1_ing&#45;&gt;E1</title>
<path fill="none" stroke="black" d="M1561.3,-500.634C1595.88,-482.228 1650.58,-453.11 1686.38,-434.052"/>
<polygon fill="black" stroke="black" points="1688.31,-436.987 1695.5,-429.199 1685.03,-430.808 1688.31,-436.987"/>
</g>
<!-- O1_0_0 -->
<g id="node24" class="node"><title>O1_0_0</title>
<polygon fill="white" stroke="black" points="1800,-536.831 1612,-536.831 1612,-500.831 1800,-500.831 1800,-536.831"/>
<text text-anchor="middle" x="1706" y="-515.131" font-family="Times,serif" font-size="14.00">OTHER: stirring occasionally</text>
</g>
<!-- O1_0_0&#45;&gt;E1 -->
<g id="edge10" class="edge"><title>O1_0_0&#45;&gt;E1</title>
<path fill="none" stroke="black" d="M1708.71,-500.402C1710.81,-486.937 1713.78,-467.842 1716.39,-451.129"/>
<polygon fill="black" stroke="black" points="1719.87,-451.523 1717.95,-441.103 1712.95,-450.446 1719.87,-451.523"/>
</g>
<!-- O1_1_0 -->
<g id="node25" class="node"><title>O1_1_0</title>
<polygon fill="white" stroke="black" points="2223.5,-536.831 1818.5,-536.831 1818.5,-500.831 2223.5,-500.831 2223.5,-536.831"/>
<text text-anchor="middle" x="2021" y="-515.131" font-family="Times,serif" font-size="14.00">OTHER: until cooked through but firm to the bite, about 5 minutes</text>
</g>
<!-- O1_1_0&#45;&gt;E1 -->
<g id="edge11" class="edge"><title>O1_1_0&#45;&gt;E1</title>
<path fill="none" stroke="black" d="M1971.29,-500.75C1912.2,-480.445 1814.83,-446.986 1760.93,-428.467"/>
<polygon fill="black" stroke="black" points="1761.98,-425.129 1751.39,-425.189 1759.71,-431.749 1761.98,-425.129"/>
</g>
<!-- P3_0_0 -->
<g id="node26" class="node"><title>P3_0_0</title>
<polygon fill="white" stroke="black" points="1670.5,-327.35 1443.5,-327.35 1443.5,-291.35 1670.5,-291.35 1670.5,-327.35"/>
<text text-anchor="middle" x="1557" y="-305.65" font-family="Times,serif" font-size="14.00">LOCATION:to a large serving bowl</text>
</g>
<!-- P3_0_0&#45;&gt;E3 -->
<g id="edge14" class="edge"><title>P3_0_0&#45;&gt;E3</title>
<path fill="none" stroke="black" d="M1557,-290.922C1557,-277.457 1557,-258.362 1557,-241.649"/>
<polygon fill="black" stroke="black" points="1560.5,-241.623 1557,-231.623 1553.5,-241.623 1560.5,-241.623"/>
</g>
<!-- D5_ing -->
<g id="node27" class="node"><title>D5_ing</title>
<polygon fill="peachpuff" stroke="black" points="424.5,-955.791 291.5,-955.791 291.5,-919.791 424.5,-919.791 424.5,-955.791"/>
<text text-anchor="middle" x="358" y="-934.091" font-family="Times,serif" font-size="14.00">DOBJ: garlic, onion</text>
</g>
<!-- D5_ing&#45;&gt;E5 -->
<g id="edge15" class="edge"><title>D5_ing&#45;&gt;E5</title>
<path fill="none" stroke="black" d="M366.143,-919.363C372.597,-905.547 381.821,-885.804 389.77,-868.789"/>
<polygon fill="black" stroke="black" points="392.968,-870.214 394.03,-859.672 386.626,-867.251 392.968,-870.214"/>
</g>
<!-- O5_0_0 -->
<g id="node28" class="node"><title>O5_0_0</title>
<polygon fill="white" stroke="black" points="757,-955.791 443,-955.791 443,-919.791 757,-919.791 757,-955.791"/>
<text text-anchor="middle" x="600" y="-934.091" font-family="Times,serif" font-size="14.00">OTHER: until onion is translucent, about 5 minutes</text>
</g>
<!-- O5_0_0&#45;&gt;E5 -->
<g id="edge17" class="edge"><title>O5_0_0&#45;&gt;E5</title>
<path fill="none" stroke="black" d="M567.529,-919.595C536.536,-903.181 489.46,-878.25 454.111,-859.53"/>
<polygon fill="black" stroke="black" points="455.411,-856.258 444.935,-854.671 452.135,-862.444 455.411,-856.258"/>
</g>
<!-- O7_0_0 -->
<g id="node29" class="node"><title>O7_0_0</title>
<polygon fill="white" stroke="black" points="1273,-955.791 859,-955.791 859,-919.791 1273,-919.791 1273,-955.791"/>
<text text-anchor="middle" x="1066" y="-934.091" font-family="Times,serif" font-size="14.00">OTHER: until flour has smoothly mixed with milk and half&#45;and&#45;half</text>
</g>
<!-- O7_0_0&#45;&gt;E7 -->
<g id="edge19" class="edge"><title>O7_0_0&#45;&gt;E7</title>
<path fill="none" stroke="black" d="M1023.11,-919.71C974.312,-900.279 895.267,-868.802 847.797,-849.899"/>
<polygon fill="black" stroke="black" points="849.041,-846.627 838.456,-846.179 846.451,-853.13 849.041,-846.627"/>
</g>
<!-- O9_0_0 -->
<g id="node30" class="node"><title>O9_0_0</title>
<polygon fill="white" stroke="black" points="1079.5,-746.311 778.5,-746.311 778.5,-710.311 1079.5,-710.311 1079.5,-746.311"/>
<text text-anchor="middle" x="929" y="-724.611" font-family="Times,serif" font-size="14.00">OTHER: until smooth and thick, about 5 minutes</text>
</g>
<!-- O9_0_0&#45;&gt;E9 -->
<g id="edge23" class="edge"><title>O9_0_0&#45;&gt;E9</title>
<path fill="none" stroke="black" d="M918.991,-709.882C910.76,-695.549 898.865,-674.835 888.857,-657.407"/>
<polygon fill="black" stroke="black" points="891.84,-655.573 883.825,-648.644 885.77,-659.059 891.84,-655.573"/>
</g>
<!-- D10_ing -->
<g id="node31" class="node"><title>D10_ing</title>
<polygon fill="peachpuff" stroke="black" points="1089,-641.571 949,-641.571 949,-605.571 1089,-605.571 1089,-641.571"/>
<text text-anchor="middle" x="1019" y="-619.871" font-family="Times,serif" font-size="14.00">DOBJ: chicken broth</text>
</g>
<!-- D10_ing&#45;&gt;E10 -->
<g id="edge24" class="edge"><title>D10_ing&#45;&gt;E10</title>
<path fill="none" stroke="black" d="M1018.08,-605.318C1016.7,-592.851 1013.3,-576.093 1005,-563.701 999.057,-554.832 990.679,-547.15 982.03,-540.802"/>
<polygon fill="black" stroke="black" points="983.958,-537.88 973.726,-535.13 980.01,-543.66 983.958,-537.88"/>
</g>
<!-- O11_0_0 -->
<g id="node32" class="node"><title>O11_0_0</title>
<polygon fill="white" stroke="black" points="1139,-536.831 999,-536.831 999,-500.831 1139,-500.831 1139,-536.831"/>
<text text-anchor="middle" x="1069" y="-515.131" font-family="Times,serif" font-size="14.00">OTHER: to a simmer</text>
</g>
<!-- O11_0_0&#45;&gt;E11 -->
<g id="edge27" class="edge"><title>O11_0_0&#45;&gt;E11</title>
<path fill="none" stroke="black" d="M1069,-500.402C1069,-486.937 1069,-467.842 1069,-451.129"/>
<polygon fill="black" stroke="black" points="1072.5,-451.103 1069,-441.103 1065.5,-451.103 1072.5,-451.103"/>
</g>
<!-- O11_1_0 -->
<g id="node33" class="node"><title>O11_1_0</title>
<polygon fill="white" stroke="black" points="1345,-536.831 1157,-536.831 1157,-500.831 1345,-500.831 1345,-536.831"/>
<text text-anchor="middle" x="1251" y="-515.131" font-family="Times,serif" font-size="14.00">OTHER: whisking constantly</text>
</g>
<!-- O11_1_0&#45;&gt;E11 -->
<g id="edge28" class="edge"><title>O11_1_0&#45;&gt;E11</title>
<path fill="none" stroke="black" d="M1218.77,-500.726C1190.23,-485.438 1147.55,-462.231 1111,-440.96 1108.65,-439.594 1106.24,-438.169 1103.82,-436.721"/>
<polygon fill="black" stroke="black" points="1105.46,-433.622 1095.09,-431.44 1101.84,-439.611 1105.46,-433.622"/>
</g>
<!-- D12_ing -->
<g id="node34" class="node"><title>D12_ing</title>
<polygon fill="peachpuff" stroke="black" points="1341.5,-432.09 1120.5,-432.09 1120.5,-396.09 1341.5,-396.09 1341.5,-432.09"/>
<text text-anchor="middle" x="1231" y="-410.39" font-family="Times,serif" font-size="14.00">DOBJ: sour cream, cooked chicken</text>
</g>
<!-- D12_ing&#45;&gt;E12 -->
<g id="edge29" class="edge"><title>D12_ing&#45;&gt;E12</title>
<path fill="none" stroke="black" d="M1228.75,-396.086C1226.43,-383.585 1221.86,-366.676 1213,-354.22 1212.4,-353.383 1197.54,-342.513 1182.76,-331.804"/>
<polygon fill="black" stroke="black" points="1184.8,-328.961 1174.64,-325.936 1180.7,-334.632 1184.8,-328.961"/>
</g>
<!-- P13_0_ing -->
<g id="node35" class="node"><title>P13_0_ing</title>
<polygon fill="peachpuff" stroke="black" points="1425.5,-327.35 1198.5,-327.35 1198.5,-291.35 1425.5,-291.35 1425.5,-327.35"/>
<text text-anchor="middle" x="1312" y="-305.65" font-family="Times,serif" font-size="14.00">COOBJECT: with black pepper, salt</text>
</g>
<!-- P13_0_ing&#45;&gt;E13 -->
<g id="edge32" class="edge"><title>P13_0_ing&#45;&gt;E13</title>
<path fill="none" stroke="black" d="M1312,-290.922C1312,-277.457 1312,-258.362 1312,-241.649"/>
<polygon fill="black" stroke="black" points="1315.5,-241.623 1312,-231.623 1308.5,-241.623 1315.5,-241.623"/>
</g>
</g>
</svg>
