<?xml version="1.0" encoding="UTF-8" standalone="no"?>
<!DOCTYPE svg PUBLIC "-//W3C//DTD SVG 1.1//EN"
 "http://www.w3.org/Graphics/SVG/1.1/DTD/svg11.dtd">
<!-- Generated by graphviz version 2.38.0 (20140413.2041)
 -->
<!-- Title: recipe Pages: 1 -->
<svg width="1550pt" height="836pt"
 viewBox="0.00 0.00 1550.00 836.18" xmlns="http://www.w3.org/2000/svg" xmlns:xlink="http://www.w3.org/1999/xlink">
<g id="graph0" class="graph" transform="scale(1 1) rotate(0) translate(4 832.181)">
<title>recipe</title>
<polygon fill="white" stroke="none" points="-4,4 -4,-832.181 1546,-832.181 1546,4 -4,4"/>
<!-- E0 -->
<g id="node1" class="node"><title>E0</title>
<ellipse fill="azure" stroke="black" cx="1247" cy="-728.311" rx="46.8387" ry="26.7407"/>
<text text-anchor="middle" x="1247" y="-732.111" font-family="Times,serif" font-size="14.00">combine</text>
<text text-anchor="middle" x="1247" y="-717.111" font-family="Times,serif" font-size="14.00">0</text>
</g>
<!-- E1 -->
<g id="node2" class="node"><title>E1</title>
<ellipse fill="azure" stroke="black" cx="1048" cy="-623.571" rx="31.6406" ry="26.7407"/>
<text text-anchor="middle" x="1048" y="-627.371" font-family="Times,serif" font-size="14.00">saute</text>
<text text-anchor="middle" x="1048" y="-612.371" font-family="Times,serif" font-size="14.00">1</text>
</g>
<!-- E0&#45;&gt;E1 -->
<g id="edge3" class="edge"><title>E0&#45;&gt;E1</title>
<path fill="none" stroke="black" d="M1212.79,-709.649C1176.88,-691.11 1120.66,-662.085 1084.07,-643.194"/>
<polygon fill="black" stroke="black" points="1085.25,-639.864 1074.76,-638.387 1082.04,-646.084 1085.25,-639.864"/>
<text text-anchor="middle" x="1210" y="-672.241" font-family="Times,serif" font-size="14.00">IMPLICIT DOBJ</text>
</g>
<!-- E2 -->
<g id="node3" class="node"><title>E2</title>
<ellipse fill="azure" stroke="black" cx="983" cy="-518.831" rx="33.4697" ry="26.7407"/>
<text text-anchor="middle" x="983" y="-522.631" font-family="Times,serif" font-size="14.00">drain</text>
<text text-anchor="middle" x="983" y="-507.631" font-family="Times,serif" font-size="14.00">2</text>
</g>
<!-- E1&#45;&gt;E2 -->
<g id="edge6" class="edge"><title>E1&#45;&gt;E2</title>
<path fill="none" stroke="black" d="M1033.41,-599.514C1024.53,-585.468 1013.04,-567.316 1003.28,-551.885"/>
<polygon fill="black" stroke="black" points="1006.07,-549.745 997.763,-543.166 1000.15,-553.488 1006.07,-549.745"/>
<text text-anchor="middle" x="1069.5" y="-567.501" font-family="Times,serif" font-size="14.00">IMPLICIT PREP</text>
</g>
<!-- E3 -->
<g id="node4" class="node"><title>E3</title>
<ellipse fill="azure" stroke="black" cx="545" cy="-414.09" rx="27" ry="26.7407"/>
<text text-anchor="middle" x="545" y="-417.89" font-family="Times,serif" font-size="14.00">add</text>
<text text-anchor="middle" x="545" y="-402.89" font-family="Times,serif" font-size="14.00">3</text>
</g>
<!-- E2&#45;&gt;E3 -->
<g id="edge13" class="edge"><title>E2&#45;&gt;E3</title>
<path fill="none" stroke="black" d="M958.452,-500.688C952.904,-497.396 946.904,-494.263 941,-491.96 815.018,-442.821 653.799,-424.078 582.167,-417.833"/>
<polygon fill="black" stroke="black" points="582.119,-414.317 571.861,-416.968 581.533,-421.292 582.119,-414.317"/>
<text text-anchor="middle" x="928.5" y="-462.76" font-family="Times,serif" font-size="14.00">IMPLICIT PREP</text>
</g>
<!-- E4 -->
<g id="node5" class="node"><title>E4</title>
<ellipse fill="azure" stroke="black" cx="483" cy="-309.35" rx="27.6545" ry="26.7407"/>
<text text-anchor="middle" x="483" y="-313.15" font-family="Times,serif" font-size="14.00">mix</text>
<text text-anchor="middle" x="483" y="-298.15" font-family="Times,serif" font-size="14.00">4</text>
</g>
<!-- E3&#45;&gt;E4 -->
<g id="edge14" class="edge"><title>E3&#45;&gt;E4</title>
<path fill="none" stroke="black" d="M531.394,-390.544C522.752,-376.224 511.445,-357.487 501.933,-341.725"/>
<polygon fill="black" stroke="black" points="504.738,-339.598 496.574,-332.844 498.745,-343.215 504.738,-339.598"/>
<text text-anchor="middle" x="568" y="-358.02" font-family="Times,serif" font-size="14.00">IMPLICIT DOBJ</text>
</g>
<!-- E5 -->
<g id="node6" class="node"><title>E5</title>
<ellipse fill="azure" stroke="black" cx="382" cy="-204.61" rx="38.7821" ry="26.7407"/>
<text text-anchor="middle" x="382" y="-208.41" font-family="Times,serif" font-size="14.00">reduce</text>
<text text-anchor="middle" x="382" y="-193.41" font-family="Times,serif" font-size="14.00">5</text>
</g>
<!-- E4&#45;&gt;E5 -->
<g id="edge17" class="edge"><title>E4&#45;&gt;E5</title>
<path fill="none" stroke="black" d="M464.003,-289.026C448.903,-273.665 427.546,-251.941 410.413,-234.513"/>
<polygon fill="black" stroke="black" points="412.866,-232.015 403.36,-227.338 407.874,-236.923 412.866,-232.015"/>
<text text-anchor="middle" x="488.5" y="-253.28" font-family="Times,serif" font-size="14.00">IMPLICIT PREP</text>
</g>
<!-- E6 -->
<g id="node7" class="node"><title>E6</title>
<ellipse fill="azure" stroke="black" cx="280" cy="-99.8701" rx="41.9398" ry="26.7407"/>
<text text-anchor="middle" x="280" y="-103.67" font-family="Times,serif" font-size="14.00">simmer</text>
<text text-anchor="middle" x="280" y="-88.6701" font-family="Times,serif" font-size="14.00">6</text>
</g>
<!-- E5&#45;&gt;E6 -->
<g id="edge19" class="edge"><title>E5&#45;&gt;E6</title>
<path fill="none" stroke="black" d="M360.368,-181.822C345.459,-166.804 325.47,-146.67 309.157,-130.239"/>
<polygon fill="black" stroke="black" points="311.481,-127.612 301.952,-122.981 306.514,-132.544 311.481,-127.612"/>
<text text-anchor="middle" x="388" y="-148.54" font-family="Times,serif" font-size="14.00">IMPLICIT DOBJ</text>
</g>
<!-- EOR -->
<g id="node22" class="node"><title>EOR</title>
<ellipse fill="plum" stroke="black" cx="280" cy="-18" rx="57.3905" ry="18"/>
<text text-anchor="middle" x="280" y="-14.3" font-family="Times,serif" font-size="14.00">Bon appetit!</text>
</g>
<!-- E6&#45;&gt;EOR -->
<g id="edge21" class="edge"><title>E6&#45;&gt;EOR</title>
<path fill="none" stroke="black" d="M280,-72.7176C280,-64.2726 280,-54.8903 280,-46.3604"/>
<polygon fill="black" stroke="black" points="283.5,-46.1464 280,-36.1464 276.5,-46.1464 283.5,-46.1464"/>
</g>
<!-- D0 -->
<g id="node8" class="node"><title>D0</title>
<polygon fill="peachpuff" stroke="black" points="1213.5,-828.181 1000.5,-828.181 1000.5,-792.181 1213.5,-792.181 1213.5,-828.181"/>
<text text-anchor="middle" x="1107" y="-806.481" font-family="Times,serif" font-size="14.00">DOBJ: the onion, the ground beef</text>
</g>
<!-- D0&#45;&gt;E0 -->
<g id="edge1" class="edge"><title>D0&#45;&gt;E0</title>
<path fill="none" stroke="black" d="M1137.03,-792.047C1157.09,-780.605 1183.73,-765.409 1205.76,-752.838"/>
<polygon fill="black" stroke="black" points="1207.62,-755.804 1214.58,-747.809 1204.16,-749.724 1207.62,-755.804"/>
</g>
<!-- P0_0 -->
<g id="node9" class="node"><title>P0_0</title>
<polygon fill="white" stroke="black" points="1542,-828.181 1232,-828.181 1232,-792.181 1542,-792.181 1542,-828.181"/>
<text text-anchor="middle" x="1387" y="-806.481" font-family="Times,serif" font-size="14.00">LOCATION:in a large saucepan over medium heat</text>
</g>
<!-- P0_0&#45;&gt;E0 -->
<g id="edge2" class="edge"><title>P0_0&#45;&gt;E0</title>
<path fill="none" stroke="black" d="M1356.97,-792.047C1336.91,-780.605 1310.27,-765.409 1288.24,-752.838"/>
<polygon fill="black" stroke="black" points="1289.84,-749.724 1279.42,-747.809 1286.38,-755.804 1289.84,-749.724"/>
</g>
<!-- O1_0_0 -->
<g id="node10" class="node"><title>O1_0_0</title>
<polygon fill="white" stroke="black" points="1182.5,-746.311 757.5,-746.311 757.5,-710.311 1182.5,-710.311 1182.5,-746.311"/>
<text text-anchor="middle" x="970" y="-724.611" font-family="Times,serif" font-size="14.00">OTHER: for 10 minutes, or until meat is browned and onion is tender.</text>
</g>
<!-- O1_0_0&#45;&gt;E1 -->
<g id="edge4" class="edge"><title>O1_0_0&#45;&gt;E1</title>
<path fill="none" stroke="black" d="M983.232,-709.882C994.587,-694.926 1011.22,-673.021 1024.78,-655.152"/>
<polygon fill="black" stroke="black" points="1027.9,-656.834 1031.16,-646.753 1022.32,-652.601 1027.9,-656.834"/>
</g>
<!-- D2_0 -->
<g id="node11" class="node"><title>D2_0</title>
<polygon fill="white" stroke="black" points="998,-641.571 902,-641.571 902,-605.571 998,-605.571 998,-641.571"/>
<text text-anchor="middle" x="950" y="-619.871" font-family="Times,serif" font-size="14.00">DOBJ: grease</text>
</g>
<!-- D2_0&#45;&gt;E2 -->
<g id="edge5" class="edge"><title>D2_0&#45;&gt;E2</title>
<path fill="none" stroke="black" d="M955.598,-605.142C960.025,-591.359 966.347,-571.676 971.804,-554.688"/>
<polygon fill="black" stroke="black" points="975.17,-555.654 974.896,-545.062 968.505,-553.513 975.17,-555.654"/>
</g>
<!-- D3_0 -->
<g id="node12" class="node"><title>D3_0</title>
<polygon fill="white" stroke="black" points="198,-536.831 0,-536.831 0,-500.831 198,-500.831 198,-536.831"/>
<text text-anchor="middle" x="99" y="-515.131" font-family="Times,serif" font-size="14.00">DOBJ: he ground black pepper</text>
</g>
<!-- D3_0&#45;&gt;E3 -->
<g id="edge7" class="edge"><title>D3_0&#45;&gt;E3</title>
<path fill="none" stroke="black" d="M167.752,-500.795C181.071,-497.698 194.944,-494.613 208,-491.96 210.078,-491.538 507.044,-441.777 509,-440.96 511.362,-439.975 513.717,-438.808 516.028,-437.525"/>
<polygon fill="black" stroke="black" points="518.023,-440.406 524.64,-432.132 514.307,-434.473 518.023,-440.406"/>
</g>
<!-- D3_1 -->
<g id="node13" class="node"><title>D3_1</title>
<polygon fill="white" stroke="black" points="331.5,-536.831 216.5,-536.831 216.5,-500.831 331.5,-500.831 331.5,-536.831"/>
<text text-anchor="middle" x="274" y="-515.131" font-family="Times,serif" font-size="14.00">DOBJ: garlic salt</text>
</g>
<!-- D3_1&#45;&gt;E3 -->
<g id="edge8" class="edge"><title>D3_1&#45;&gt;E3</title>
<path fill="none" stroke="black" d="M316.718,-500.796C324.747,-497.748 333.101,-494.68 341,-491.96 414.78,-466.556 439.042,-475.527 509,-440.96 511.294,-439.827 513.6,-438.551 515.875,-437.19"/>
<polygon fill="black" stroke="black" points="517.942,-440.021 524.412,-431.631 514.122,-434.155 517.942,-440.021"/>
</g>
<!-- D3_2 -->
<g id="node14" class="node"><title>D3_2</title>
<polygon fill="white" stroke="black" points="484,-536.831 350,-536.831 350,-500.831 484,-500.831 484,-536.831"/>
<text text-anchor="middle" x="417" y="-515.131" font-family="Times,serif" font-size="14.00">DOBJ: tomato sauce</text>
</g>
<!-- D3_2&#45;&gt;E3 -->
<g id="edge9" class="edge"><title>D3_2&#45;&gt;E3</title>
<path fill="none" stroke="black" d="M438.424,-500.634C459.815,-483.465 492.819,-456.974 516.429,-438.023"/>
<polygon fill="black" stroke="black" points="518.747,-440.651 524.355,-431.662 514.365,-435.192 518.747,-440.651"/>
</g>
<!-- D3_3 -->
<g id="node15" class="node"><title>D3_3</title>
<polygon fill="white" stroke="black" points="588,-536.831 502,-536.831 502,-500.831 588,-500.831 588,-536.831"/>
<text text-anchor="middle" x="545" y="-515.131" font-family="Times,serif" font-size="14.00">DOBJ: salsa</text>
</g>
<!-- D3_3&#45;&gt;E3 -->
<g id="edge10" class="edge"><title>D3_3&#45;&gt;E3</title>
<path fill="none" stroke="black" d="M545,-500.402C545,-486.937 545,-467.842 545,-451.129"/>
<polygon fill="black" stroke="black" points="548.5,-451.103 545,-441.103 541.5,-451.103 548.5,-451.103"/>
</g>
<!-- D3_4 -->
<g id="node16" class="node"><title>D3_4</title>
<polygon fill="white" stroke="black" points="777.5,-536.831 606.5,-536.831 606.5,-500.831 777.5,-500.831 777.5,-536.831"/>
<text text-anchor="middle" x="692" y="-515.131" font-family="Times,serif" font-size="14.00">DOBJ: chili seasoning mix</text>
</g>
<!-- D3_4&#45;&gt;E3 -->
<g id="edge11" class="edge"><title>D3_4&#45;&gt;E3</title>
<path fill="none" stroke="black" d="M667.396,-500.634C642.025,-482.902 602.43,-455.229 575.183,-436.186"/>
<polygon fill="black" stroke="black" points="577.006,-433.189 566.804,-430.33 572.996,-438.927 577.006,-433.189"/>
</g>
<!-- D3_5 -->
<g id="node17" class="node"><title>D3_5</title>
<polygon fill="white" stroke="black" points="932,-536.831 796,-536.831 796,-500.831 932,-500.831 932,-536.831"/>
<text text-anchor="middle" x="864" y="-515.131" font-family="Times,serif" font-size="14.00">DOBJ: kidney beans</text>
</g>
<!-- D3_5&#45;&gt;E3 -->
<g id="edge12" class="edge"><title>D3_5&#45;&gt;E3</title>
<path fill="none" stroke="black" d="M813.508,-500.734C804.681,-497.783 795.579,-494.764 787,-491.96 713.609,-467.978 627.364,-440.829 580.207,-426.073"/>
<polygon fill="black" stroke="black" points="581.068,-422.675 570.479,-423.031 578.979,-429.356 581.068,-422.675"/>
</g>
<!-- O4_0_0 -->
<g id="node18" class="node"><title>O4_0_0</title>
<polygon fill="white" stroke="black" points="499.5,-432.09 402.5,-432.09 402.5,-396.09 499.5,-396.09 499.5,-432.09"/>
<text text-anchor="middle" x="451" y="-410.39" font-family="Times,serif" font-size="14.00">OTHER: well</text>
</g>
<!-- O4_0_0&#45;&gt;E4 -->
<g id="edge15" class="edge"><title>O4_0_0&#45;&gt;E4</title>
<path fill="none" stroke="black" d="M456.428,-395.662C460.751,-381.783 466.937,-361.922 472.253,-344.854"/>
<polygon fill="black" stroke="black" points="475.63,-345.783 475.262,-335.194 468.946,-343.701 475.63,-345.783"/>
</g>
<!-- D5_0 -->
<g id="node19" class="node"><title>D5_0</title>
<polygon fill="white" stroke="black" points="308.5,-327.35 225.5,-327.35 225.5,-291.35 308.5,-291.35 308.5,-327.35"/>
<text text-anchor="middle" x="267" y="-305.65" font-family="Times,serif" font-size="14.00">DOBJ: heat</text>
</g>
<!-- D5_0&#45;&gt;E5 -->
<g id="edge16" class="edge"><title>D5_0&#45;&gt;E5</title>
<path fill="none" stroke="black" d="M286.248,-291.154C303.938,-275.35 330.467,-251.649 351.119,-233.199"/>
<polygon fill="black" stroke="black" points="353.589,-235.685 358.715,-226.413 348.926,-230.465 353.589,-235.685"/>
</g>
<!-- O5_0_0 -->
<g id="node20" class="node"><title>O5_0_0</title>
<polygon fill="white" stroke="black" points="437,-327.35 327,-327.35 327,-291.35 437,-291.35 437,-327.35"/>
<text text-anchor="middle" x="382" y="-305.65" font-family="Times,serif" font-size="14.00">OTHER: to low</text>
</g>
<!-- O5_0_0&#45;&gt;E5 -->
<g id="edge18" class="edge"><title>O5_0_0&#45;&gt;E5</title>
<path fill="none" stroke="black" d="M382,-290.922C382,-277.457 382,-258.362 382,-241.649"/>
<polygon fill="black" stroke="black" points="385.5,-241.623 382,-231.623 378.5,-241.623 385.5,-241.623"/>
</g>
<!-- O6_0_0 -->
<g id="node21" class="node"><title>O6_0_0</title>
<polygon fill="white" stroke="black" points="325,-222.61 145,-222.61 145,-186.61 325,-186.61 325,-222.61"/>
<text text-anchor="middle" x="235" y="-200.91" font-family="Times,serif" font-size="14.00">OTHER: for at least an hour</text>
</g>
<!-- O6_0_0&#45;&gt;E6 -->
<g id="edge20" class="edge"><title>O6_0_0&#45;&gt;E6</title>
<path fill="none" stroke="black" d="M242.634,-186.182C248.671,-172.399 257.292,-152.715 264.733,-135.727"/>
<polygon fill="black" stroke="black" points="268.142,-136.666 268.949,-126.102 261.731,-133.857 268.142,-136.666"/>
</g>
</g>
</svg>
