<?xml version="1.0" encoding="UTF-8" standalone="no"?>
<!DOCTYPE svg PUBLIC "-//W3C//DTD SVG 1.1//EN"
 "http://www.w3.org/Graphics/SVG/1.1/DTD/svg11.dtd">
<!-- Generated by graphviz version 2.38.0 (20140413.2041)
 -->
<!-- Title: recipe Pages: 1 -->
<svg width="1438pt" height="1569pt"
 viewBox="0.00 0.00 1437.50 1569.36" xmlns="http://www.w3.org/2000/svg" xmlns:xlink="http://www.w3.org/1999/xlink">
<g id="graph0" class="graph" transform="scale(1 1) rotate(0) translate(4 1565.36)">
<title>recipe</title>
<polygon fill="white" stroke="none" points="-4,4 -4,-1565.36 1433.5,-1565.36 1433.5,4 -4,4"/>
<!-- E0 -->
<g id="node1" class="node"><title>E0</title>
<ellipse fill="azure" stroke="black" cx="1258" cy="-1461.49" rx="32.5538" ry="26.7407"/>
<text text-anchor="middle" x="1258" y="-1465.29" font-family="Times,serif" font-size="14.00">place</text>
<text text-anchor="middle" x="1258" y="-1450.29" font-family="Times,serif" font-size="14.00">0</text>
</g>
<!-- E1 -->
<g id="node2" class="node"><title>E1</title>
<ellipse fill="azure" stroke="black" cx="1155" cy="-1356.75" rx="33.8824" ry="26.7407"/>
<text text-anchor="middle" x="1155" y="-1360.55" font-family="Times,serif" font-size="14.00">cover</text>
<text text-anchor="middle" x="1155" y="-1345.55" font-family="Times,serif" font-size="14.00">1</text>
</g>
<!-- E0&#45;&gt;E1 -->
<g id="edge3" class="edge"><title>E0&#45;&gt;E1</title>
<path fill="none" stroke="black" d="M1237.65,-1440.19C1221.95,-1424.54 1200.07,-1402.71 1182.76,-1385.45"/>
<polygon fill="black" stroke="black" points="1185.21,-1382.94 1175.66,-1378.36 1180.27,-1387.9 1185.21,-1382.94"/>
<text text-anchor="middle" x="1263" y="-1405.42" font-family="Times,serif" font-size="14.00">IMPLICIT DOBJ</text>
</g>
<!-- E2 -->
<g id="node3" class="node"><title>E2</title>
<ellipse fill="azure" stroke="black" cx="1080" cy="-1252.01" rx="33.8824" ry="26.7407"/>
<text text-anchor="middle" x="1080" y="-1255.81" font-family="Times,serif" font-size="14.00">bring</text>
<text text-anchor="middle" x="1080" y="-1240.81" font-family="Times,serif" font-size="14.00">2</text>
</g>
<!-- E1&#45;&gt;E2 -->
<g id="edge5" class="edge"><title>E1&#45;&gt;E2</title>
<path fill="none" stroke="black" d="M1138.54,-1333.2C1128.06,-1318.85 1114.34,-1300.06 1102.82,-1284.27"/>
<polygon fill="black" stroke="black" points="1105.4,-1281.87 1096.68,-1275.86 1099.75,-1286 1105.4,-1281.87"/>
<text text-anchor="middle" x="1172" y="-1300.68" font-family="Times,serif" font-size="14.00">IMPLICIT DOBJ</text>
</g>
<!-- E3 -->
<g id="node4" class="node"><title>E3</title>
<ellipse fill="azure" stroke="black" cx="988" cy="-1147.27" rx="57.9655" ry="26.7407"/>
<text text-anchor="middle" x="988" y="-1151.07" font-family="Times,serif" font-size="14.00">reduce heat</text>
<text text-anchor="middle" x="988" y="-1136.07" font-family="Times,serif" font-size="14.00">3</text>
</g>
<!-- E2&#45;&gt;E3 -->
<g id="edge7" class="edge"><title>E2&#45;&gt;E3</title>
<path fill="none" stroke="black" d="M1060.94,-1229.72C1048.09,-1215.38 1030.92,-1196.2 1016.46,-1180.06"/>
<polygon fill="black" stroke="black" points="1018.9,-1177.53 1009.62,-1172.41 1013.68,-1182.2 1018.9,-1177.53"/>
<text text-anchor="middle" x="1090" y="-1195.94" font-family="Times,serif" font-size="14.00">IMPLICIT DOBJ</text>
</g>
<!-- E4 -->
<g id="node5" class="node"><title>E4</title>
<ellipse fill="azure" stroke="black" cx="988" cy="-1042.53" rx="33.8824" ry="26.7407"/>
<text text-anchor="middle" x="988" y="-1046.33" font-family="Times,serif" font-size="14.00">cover</text>
<text text-anchor="middle" x="988" y="-1031.33" font-family="Times,serif" font-size="14.00">4</text>
</g>
<!-- E3&#45;&gt;E4 -->
<g id="edge9" class="edge"><title>E3&#45;&gt;E4</title>
<path fill="none" stroke="black" d="M988,-1120.35C988,-1108.06 988,-1093.17 988,-1079.78"/>
<polygon fill="black" stroke="black" points="991.5,-1079.45 988,-1069.45 984.5,-1079.45 991.5,-1079.45"/>
<text text-anchor="middle" x="1039" y="-1091.2" font-family="Times,serif" font-size="14.00">IMPLICIT DOBJ</text>
</g>
<!-- E5 -->
<g id="node6" class="node"><title>E5</title>
<ellipse fill="azure" stroke="black" cx="850" cy="-937.791" rx="41.9398" ry="26.7407"/>
<text text-anchor="middle" x="850" y="-941.591" font-family="Times,serif" font-size="14.00">simmer</text>
<text text-anchor="middle" x="850" y="-926.591" font-family="Times,serif" font-size="14.00">5</text>
</g>
<!-- E4&#45;&gt;E5 -->
<g id="edge10" class="edge"><title>E4&#45;&gt;E5</title>
<path fill="none" stroke="black" d="M963.646,-1023.4C941.912,-1007.22 909.822,-983.328 885.279,-965.056"/>
<polygon fill="black" stroke="black" points="887.053,-962.013 876.942,-958.849 882.873,-967.628 887.053,-962.013"/>
<text text-anchor="middle" x="978" y="-986.461" font-family="Times,serif" font-size="14.00">IMPLICIT DOBJ</text>
</g>
<!-- E6 -->
<g id="node7" class="node"><title>E6</title>
<ellipse fill="azure" stroke="black" cx="850" cy="-833.051" rx="33.4697" ry="26.7407"/>
<text text-anchor="middle" x="850" y="-836.851" font-family="Times,serif" font-size="14.00">drain</text>
<text text-anchor="middle" x="850" y="-821.851" font-family="Times,serif" font-size="14.00">6</text>
</g>
<!-- E5&#45;&gt;E6 -->
<g id="edge13" class="edge"><title>E5&#45;&gt;E6</title>
<path fill="none" stroke="black" d="M850,-910.865C850,-898.576 850,-883.687 850,-870.302"/>
<polygon fill="black" stroke="black" points="853.5,-869.968 850,-859.968 846.5,-869.968 853.5,-869.968"/>
<text text-anchor="middle" x="901" y="-881.721" font-family="Times,serif" font-size="14.00">IMPLICIT DOBJ</text>
</g>
<!-- E7 -->
<g id="node8" class="node"><title>E7</title>
<ellipse fill="azure" stroke="black" cx="850" cy="-728.311" rx="28.9828" ry="26.7407"/>
<text text-anchor="middle" x="850" y="-732.111" font-family="Times,serif" font-size="14.00">cool</text>
<text text-anchor="middle" x="850" y="-717.111" font-family="Times,serif" font-size="14.00">7</text>
</g>
<!-- E6&#45;&gt;E7 -->
<g id="edge14" class="edge"><title>E6&#45;&gt;E7</title>
<path fill="none" stroke="black" d="M850,-806.125C850,-793.836 850,-778.947 850,-765.562"/>
<polygon fill="black" stroke="black" points="853.5,-765.228 850,-755.228 846.5,-765.228 853.5,-765.228"/>
<text text-anchor="middle" x="901" y="-776.981" font-family="Times,serif" font-size="14.00">IMPLICIT DOBJ</text>
</g>
<!-- E8 -->
<g id="node9" class="node"><title>E8</title>
<ellipse fill="azure" stroke="black" cx="850" cy="-623.571" rx="28.0702" ry="26.7407"/>
<text text-anchor="middle" x="850" y="-627.371" font-family="Times,serif" font-size="14.00">peel</text>
<text text-anchor="middle" x="850" y="-612.371" font-family="Times,serif" font-size="14.00">8</text>
</g>
<!-- E7&#45;&gt;E8 -->
<g id="edge15" class="edge"><title>E7&#45;&gt;E8</title>
<path fill="none" stroke="black" d="M850,-701.385C850,-689.096 850,-674.207 850,-660.822"/>
<polygon fill="black" stroke="black" points="853.5,-660.488 850,-650.488 846.5,-660.488 853.5,-660.488"/>
<text text-anchor="middle" x="901" y="-672.241" font-family="Times,serif" font-size="14.00">IMPLICIT DOBJ</text>
</g>
<!-- E9 -->
<g id="node10" class="node"><title>E9</title>
<ellipse fill="azure" stroke="black" cx="850" cy="-518.831" rx="28.0702" ry="26.7407"/>
<text text-anchor="middle" x="850" y="-522.631" font-family="Times,serif" font-size="14.00">dice</text>
<text text-anchor="middle" x="850" y="-507.631" font-family="Times,serif" font-size="14.00">9</text>
</g>
<!-- E8&#45;&gt;E9 -->
<g id="edge16" class="edge"><title>E8&#45;&gt;E9</title>
<path fill="none" stroke="black" d="M850,-596.645C850,-584.356 850,-569.467 850,-556.082"/>
<polygon fill="black" stroke="black" points="853.5,-555.748 850,-545.748 846.5,-555.748 853.5,-555.748"/>
<text text-anchor="middle" x="901" y="-567.501" font-family="Times,serif" font-size="14.00">IMPLICIT DOBJ</text>
</g>
<!-- E10 -->
<g id="node11" class="node"><title>E10</title>
<ellipse fill="azure" stroke="black" cx="735" cy="-414.09" rx="32.5538" ry="26.7407"/>
<text text-anchor="middle" x="735" y="-417.89" font-family="Times,serif" font-size="14.00">place</text>
<text text-anchor="middle" x="735" y="-402.89" font-family="Times,serif" font-size="14.00">10</text>
</g>
<!-- E9&#45;&gt;E10 -->
<g id="edge17" class="edge"><title>E9&#45;&gt;E10</title>
<path fill="none" stroke="black" d="M829.705,-499.699C811.523,-483.455 784.643,-459.441 764.16,-441.142"/>
<polygon fill="black" stroke="black" points="766.444,-438.489 756.655,-434.437 761.78,-443.709 766.444,-438.489"/>
<text text-anchor="middle" x="850.5" y="-462.76" font-family="Times,serif" font-size="14.00">the diced potatoes</text>
</g>
<!-- E11 -->
<g id="node12" class="node"><title>E11</title>
<ellipse fill="azure" stroke="black" cx="658" cy="-309.35" rx="53.9813" ry="26.7407"/>
<text text-anchor="middle" x="658" y="-313.15" font-family="Times,serif" font-size="14.00">refrigerate</text>
<text text-anchor="middle" x="658" y="-298.15" font-family="Times,serif" font-size="14.00">11</text>
</g>
<!-- E10&#45;&gt;E11 -->
<g id="edge19" class="edge"><title>E10&#45;&gt;E11</title>
<path fill="none" stroke="black" d="M718.292,-390.797C707.843,-376.855 694.199,-358.651 682.535,-343.087"/>
<polygon fill="black" stroke="black" points="685.089,-340.658 676.291,-334.755 679.487,-344.856 685.089,-340.658"/>
<text text-anchor="middle" x="752" y="-358.02" font-family="Times,serif" font-size="14.00">IMPLICIT DOBJ</text>
</g>
<!-- E12 -->
<g id="node13" class="node"><title>E12</title>
<ellipse fill="azure" stroke="black" cx="522" cy="-204.61" rx="38.7821" ry="26.7407"/>
<text text-anchor="middle" x="522" y="-208.41" font-family="Times,serif" font-size="14.00">fold in</text>
<text text-anchor="middle" x="522" y="-193.41" font-family="Times,serif" font-size="14.00">12</text>
</g>
<!-- E11&#45;&gt;E12 -->
<g id="edge22" class="edge"><title>E11&#45;&gt;E12</title>
<path fill="none" stroke="black" d="M629.158,-286.562C607.63,-270.299 578.16,-248.036 555.573,-230.973"/>
<polygon fill="black" stroke="black" points="557.679,-228.177 547.591,-224.942 553.46,-233.763 557.679,-228.177"/>
<text text-anchor="middle" x="648.5" y="-253.28" font-family="Times,serif" font-size="14.00">IMPLICIT PREP</text>
</g>
<!-- E13 -->
<g id="node14" class="node"><title>E13</title>
<ellipse fill="azure" stroke="black" cx="444" cy="-99.8701" rx="53.9813" ry="26.7407"/>
<text text-anchor="middle" x="444" y="-103.67" font-family="Times,serif" font-size="14.00">refrigerate</text>
<text text-anchor="middle" x="444" y="-88.6701" font-family="Times,serif" font-size="14.00">13</text>
</g>
<!-- E12&#45;&gt;E13 -->
<g id="edge24" class="edge"><title>E12&#45;&gt;E13</title>
<path fill="none" stroke="black" d="M504.495,-180.553C493.96,-166.676 480.38,-148.79 468.758,-133.48"/>
<polygon fill="black" stroke="black" points="471.368,-131.13 462.534,-125.282 465.793,-135.363 471.368,-131.13"/>
<text text-anchor="middle" x="538" y="-148.54" font-family="Times,serif" font-size="14.00">IMPLICIT DOBJ</text>
</g>
<!-- EOR -->
<g id="node27" class="node"><title>EOR</title>
<ellipse fill="plum" stroke="black" cx="444" cy="-18" rx="57.3905" ry="18"/>
<text text-anchor="middle" x="444" y="-14.3" font-family="Times,serif" font-size="14.00">Bon appetit!</text>
</g>
<!-- E13&#45;&gt;EOR -->
<g id="edge26" class="edge"><title>E13&#45;&gt;EOR</title>
<path fill="none" stroke="black" d="M444,-72.7176C444,-64.2726 444,-54.8903 444,-46.3604"/>
<polygon fill="black" stroke="black" points="447.5,-46.1464 444,-36.1464 440.5,-46.1464 447.5,-46.1464"/>
</g>
<!-- D0 -->
<g id="node15" class="node"><title>D0</title>
<polygon fill="peachpuff" stroke="black" points="1230.5,-1561.36 1123.5,-1561.36 1123.5,-1525.36 1230.5,-1525.36 1230.5,-1561.36"/>
<text text-anchor="middle" x="1177" y="-1539.66" font-family="Times,serif" font-size="14.00">DOBJ: potatoes</text>
</g>
<!-- D0&#45;&gt;E0 -->
<g id="edge1" class="edge"><title>D0&#45;&gt;E0</title>
<path fill="none" stroke="black" d="M1194.58,-1525.03C1205.06,-1514.7 1218.59,-1501.35 1230.46,-1489.64"/>
<polygon fill="black" stroke="black" points="1232.94,-1492.12 1237.6,-1482.61 1228.02,-1487.14 1232.94,-1492.12"/>
</g>
<!-- P0_0 -->
<g id="node16" class="node"><title>P0_0</title>
<polygon fill="white" stroke="black" points="1429.5,-1561.36 1248.5,-1561.36 1248.5,-1525.36 1429.5,-1525.36 1429.5,-1561.36"/>
<text text-anchor="middle" x="1339" y="-1539.66" font-family="Times,serif" font-size="14.00">LOCATION:into a large pot</text>
</g>
<!-- P0_0&#45;&gt;E0 -->
<g id="edge2" class="edge"><title>P0_0&#45;&gt;E0</title>
<path fill="none" stroke="black" d="M1321.42,-1525.03C1310.94,-1514.7 1297.41,-1501.35 1285.54,-1489.64"/>
<polygon fill="black" stroke="black" points="1287.98,-1487.14 1278.4,-1482.61 1283.06,-1492.12 1287.98,-1487.14"/>
</g>
<!-- P1_0_ing -->
<g id="node17" class="node"><title>P1_0_ing</title>
<polygon fill="peachpuff" stroke="black" points="1207.5,-1479.49 1012.5,-1479.49 1012.5,-1443.49 1207.5,-1443.49 1207.5,-1479.49"/>
<text text-anchor="middle" x="1110" y="-1457.79" font-family="Times,serif" font-size="14.00">COOBJECT: with salted water</text>
</g>
<!-- P1_0_ing&#45;&gt;E1 -->
<g id="edge4" class="edge"><title>P1_0_ing&#45;&gt;E1</title>
<path fill="none" stroke="black" d="M1117.63,-1443.06C1123.77,-1429.05 1132.57,-1408.95 1140.1,-1391.78"/>
<polygon fill="black" stroke="black" points="1143.31,-1393.16 1144.12,-1382.6 1136.9,-1390.35 1143.31,-1393.16"/>
</g>
<!-- O2_0_0 -->
<g id="node18" class="node"><title>O2_0_0</title>
<polygon fill="white" stroke="black" points="1103.5,-1374.75 984.5,-1374.75 984.5,-1338.75 1103.5,-1338.75 1103.5,-1374.75"/>
<text text-anchor="middle" x="1044" y="-1353.05" font-family="Times,serif" font-size="14.00">OTHER: to a boil</text>
</g>
<!-- O2_0_0&#45;&gt;E2 -->
<g id="edge6" class="edge"><title>O2_0_0&#45;&gt;E2</title>
<path fill="none" stroke="black" d="M1050.11,-1338.32C1054.94,-1324.54 1061.83,-1304.86 1067.79,-1287.87"/>
<polygon fill="black" stroke="black" points="1071.16,-1288.84 1071.16,-1278.24 1064.55,-1286.52 1071.16,-1288.84"/>
</g>
<!-- O3_0_0 -->
<g id="node19" class="node"><title>O3_0_0</title>
<polygon fill="white" stroke="black" points="1028,-1270.01 866,-1270.01 866,-1234.01 1028,-1234.01 1028,-1270.01"/>
<text text-anchor="middle" x="947" y="-1248.31" font-family="Times,serif" font-size="14.00">OTHER: to medium&#45;low</text>
</g>
<!-- O3_0_0&#45;&gt;E3 -->
<g id="edge8" class="edge"><title>O3_0_0&#45;&gt;E3</title>
<path fill="none" stroke="black" d="M953.955,-1233.58C959.417,-1219.9 967.201,-1200.39 973.948,-1183.48"/>
<polygon fill="black" stroke="black" points="977.32,-1184.48 977.775,-1173.89 970.818,-1181.88 977.32,-1184.48"/>
</g>
<!-- O5_0_0 -->
<g id="node20" class="node"><title>O5_0_0</title>
<polygon fill="white" stroke="black" points="745.5,-1060.53 438.5,-1060.53 438.5,-1024.53 745.5,-1024.53 745.5,-1060.53"/>
<text text-anchor="middle" x="592" y="-1038.83" font-family="Times,serif" font-size="14.00">OTHER: until tender enough to pierce with a fork</text>
</g>
<!-- O5_0_0&#45;&gt;E5 -->
<g id="edge11" class="edge"><title>O5_0_0&#45;&gt;E5</title>
<path fill="none" stroke="black" d="M634.893,-1024.45C682.08,-1005.66 757.554,-975.604 805.407,-956.549"/>
<polygon fill="black" stroke="black" points="806.89,-959.725 814.886,-952.774 804.301,-953.222 806.89,-959.725"/>
</g>
<!-- O5_1_0 -->
<g id="node21" class="node"><title>O5_1_0</title>
<polygon fill="white" stroke="black" points="936,-1060.53 764,-1060.53 764,-1024.53 936,-1024.53 936,-1060.53"/>
<text text-anchor="middle" x="850" y="-1038.83" font-family="Times,serif" font-size="14.00">OTHER: about 30 minutes</text>
</g>
<!-- O5_1_0&#45;&gt;E5 -->
<g id="edge12" class="edge"><title>O5_1_0&#45;&gt;E5</title>
<path fill="none" stroke="black" d="M850,-1024.1C850,-1010.64 850,-991.542 850,-974.83"/>
<polygon fill="black" stroke="black" points="853.5,-974.804 850,-964.804 846.5,-974.804 853.5,-974.804"/>
</g>
<!-- P10_0_0 -->
<g id="node22" class="node"><title>P10_0_0</title>
<polygon fill="white" stroke="black" points="803.5,-536.831 566.5,-536.831 566.5,-500.831 803.5,-500.831 803.5,-536.831"/>
<text text-anchor="middle" x="685" y="-515.131" font-family="Times,serif" font-size="14.00">LOCATION:into a large mixing bowl</text>
</g>
<!-- P10_0_0&#45;&gt;E10 -->
<g id="edge18" class="edge"><title>P10_0_0&#45;&gt;E10</title>
<path fill="none" stroke="black" d="M693.482,-500.402C700.393,-486.2 710.353,-465.734 718.786,-448.407"/>
<polygon fill="black" stroke="black" points="722.055,-449.688 723.284,-439.164 715.761,-446.624 722.055,-449.688"/>
</g>
<!-- O11_0_0 -->
<g id="node23" class="node"><title>O11_0_0</title>
<polygon fill="white" stroke="black" points="684.5,-432.09 557.5,-432.09 557.5,-396.09 684.5,-396.09 684.5,-432.09"/>
<text text-anchor="middle" x="621" y="-410.39" font-family="Times,serif" font-size="14.00">OTHER: until cold</text>
</g>
<!-- O11_0_0&#45;&gt;E11 -->
<g id="edge20" class="edge"><title>O11_0_0&#45;&gt;E11</title>
<path fill="none" stroke="black" d="M627.277,-395.662C632.206,-381.975 639.231,-362.468 645.319,-345.562"/>
<polygon fill="black" stroke="black" points="648.678,-346.566 648.773,-335.972 642.092,-344.194 648.678,-346.566"/>
</g>
<!-- D12_ing -->
<g id="node24" class="node"><title>D12_ing</title>
<polygon fill="peachpuff" stroke="black" points="440,-327.35 0,-327.35 0,-291.35 440,-291.35 440,-327.35"/>
<text text-anchor="middle" x="220" y="-305.65" font-family="Times,serif" font-size="14.00">DOBJ: chicken, mustard, eggs, celery, pickles, the mayonnaise, olives, salt</text>
</g>
<!-- D12_ing&#45;&gt;E12 -->
<g id="edge21" class="edge"><title>D12_ing&#45;&gt;E12</title>
<path fill="none" stroke="black" d="M289.764,-291.284C341.545,-277.652 413.38,-256.69 474,-231.48 477.2,-230.149 480.466,-228.67 483.715,-227.112"/>
<polygon fill="black" stroke="black" points="485.388,-230.189 492.751,-222.571 482.245,-223.934 485.388,-230.189"/>
</g>
<!-- O12_0_0 -->
<g id="node25" class="node"><title>O12_0_0</title>
<polygon fill="white" stroke="black" points="586,-327.35 458,-327.35 458,-291.35 586,-291.35 586,-327.35"/>
<text text-anchor="middle" x="522" y="-305.65" font-family="Times,serif" font-size="14.00">OTHER: once cold</text>
</g>
<!-- O12_0_0&#45;&gt;E12 -->
<g id="edge23" class="edge"><title>O12_0_0&#45;&gt;E12</title>
<path fill="none" stroke="black" d="M522,-290.922C522,-277.457 522,-258.362 522,-241.649"/>
<polygon fill="black" stroke="black" points="525.5,-241.623 522,-231.623 518.5,-241.623 525.5,-241.623"/>
</g>
<!-- O13_0_0 -->
<g id="node26" class="node"><title>O13_0_0</title>
<polygon fill="white" stroke="black" points="465,-222.61 349,-222.61 349,-186.61 465,-186.61 465,-222.61"/>
<text text-anchor="middle" x="407" y="-200.91" font-family="Times,serif" font-size="14.00">OTHER: 2 hours</text>
</g>
<!-- O13_0_0&#45;&gt;E13 -->
<g id="edge25" class="edge"><title>O13_0_0&#45;&gt;E13</title>
<path fill="none" stroke="black" d="M413.277,-186.182C418.206,-172.494 425.231,-152.988 431.319,-136.082"/>
<polygon fill="black" stroke="black" points="434.678,-137.086 434.773,-126.491 428.092,-134.714 434.678,-137.086"/>
</g>
</g>
</svg>
