<?xml version="1.0" encoding="UTF-8" standalone="no"?>
<!DOCTYPE svg PUBLIC "-//W3C//DTD SVG 1.1//EN"
 "http://www.w3.org/Graphics/SVG/1.1/DTD/svg11.dtd">
<!-- Generated by graphviz version 2.38.0 (20140413.2041)
 -->
<!-- Title: recipe Pages: 1 -->
<svg width="1903pt" height="500pt"
 viewBox="0.00 0.00 1902.50 500.00" xmlns="http://www.w3.org/2000/svg" xmlns:xlink="http://www.w3.org/1999/xlink">
<g id="graph0" class="graph" transform="scale(1 1) rotate(0) translate(4 496)">
<title>recipe</title>
<polygon fill="white" stroke="none" points="-4,4 -4,-496 1898.5,-496 1898.5,4 -4,4"/>
<!-- E0 -->
<g id="node1" class="node"><title>E0</title>
<ellipse fill="azure" stroke="black" cx="1671" cy="-193" rx="68.7879" ry="18"/>
<text text-anchor="middle" x="1671" y="-189.3" font-family="Times,serif" font-size="14.00">preheat (S0,P0)</text>
</g>
<!-- E4 -->
<g id="node5" class="node"><title>E4</title>
<ellipse fill="azure" stroke="black" cx="1347" cy="-91" rx="59.2899" ry="18"/>
<text text-anchor="middle" x="1347" y="-87.3" font-family="Times,serif" font-size="14.00">bake (S2,P4)</text>
</g>
<!-- E0&#45;&gt;E4 -->
<g id="edge12" class="edge"><title>E0&#45;&gt;E4</title>
<path fill="none" stroke="black" d="M1628.31,-178.824C1568.53,-160.373 1460.11,-126.911 1396.75,-107.356"/>
<polygon fill="black" stroke="black" points="1397.57,-103.946 1386.98,-104.341 1395.51,-110.634 1397.57,-103.946"/>
<text text-anchor="middle" x="1643.5" y="-145.8" font-family="Times,serif" font-size="14.00">OUTPUT: </text>
<text text-anchor="middle" x="1643.5" y="-130.8" font-family="Times,serif" font-size="14.00">INPUT: in the preheated oven</text>
</g>
<!-- E1 -->
<g id="node2" class="node"><title>E1</title>
<ellipse fill="azure" stroke="black" cx="599" cy="-398" rx="55.7903" ry="18"/>
<text text-anchor="middle" x="599" y="-394.3" font-family="Times,serif" font-size="14.00">mix (S1,P1)</text>
</g>
<!-- E2 -->
<g id="node3" class="node"><title>E2</title>
<ellipse fill="azure" stroke="black" cx="807" cy="-295" rx="53.0913" ry="18"/>
<text text-anchor="middle" x="807" y="-291.3" font-family="Times,serif" font-size="14.00">stir (S1,P2)</text>
</g>
<!-- E1&#45;&gt;E2 -->
<g id="edge7" class="edge"><title>E1&#45;&gt;E2</title>
<path fill="none" stroke="black" d="M604.321,-379.891C609.962,-364.666 620.389,-343.003 637,-331 667.545,-308.929 708.818,-300.069 743.047,-296.78"/>
<polygon fill="black" stroke="black" points="743.743,-300.235 753.424,-295.93 743.172,-293.258 743.743,-300.235"/>
<text text-anchor="middle" x="720" y="-349.8" font-family="Times,serif" font-size="14.00">OUTPUT: </text>
<text text-anchor="middle" x="720" y="-334.8" font-family="Times,serif" font-size="14.00">INPUT: into banana mixture</text>
</g>
<!-- E3 -->
<g id="node4" class="node"><title>E3</title>
<ellipse fill="azure" stroke="black" cx="916" cy="-193" rx="64.189" ry="18"/>
<text text-anchor="middle" x="916" y="-189.3" font-family="Times,serif" font-size="14.00">divide (S1,P3)</text>
</g>
<!-- E2&#45;&gt;E3 -->
<g id="edge9" class="edge"><title>E2&#45;&gt;E3</title>
<path fill="none" stroke="black" d="M814.537,-277.034C821.55,-262.779 833.146,-242.61 848,-229 854.83,-222.742 862.987,-217.296 871.242,-212.683"/>
<polygon fill="black" stroke="black" points="872.941,-215.745 880.178,-208.007 869.695,-209.542 872.941,-215.745"/>
<text text-anchor="middle" x="889" y="-247.8" font-family="Times,serif" font-size="14.00">OUTPUT: </text>
<text text-anchor="middle" x="889" y="-232.8" font-family="Times,serif" font-size="14.00">INPUT: batter</text>
</g>
<!-- E3&#45;&gt;E4 -->
<g id="edge11" class="edge"><title>E3&#45;&gt;E4</title>
<path fill="none" stroke="black" d="M962.031,-180.298C1014.99,-166.941 1104.6,-144.662 1182,-127 1217.55,-118.888 1257.56,-110.386 1289.27,-103.794"/>
<polygon fill="black" stroke="black" points="1290.18,-107.18 1299.26,-101.723 1288.76,-100.326 1290.18,-107.18"/>
<text text-anchor="middle" x="1214" y="-145.8" font-family="Times,serif" font-size="14.00">OUTPUT: </text>
<text text-anchor="middle" x="1214" y="-130.8" font-family="Times,serif" font-size="14.00">INPUT: </text>
</g>
<!-- EOR -->
<g id="node16" class="node"><title>EOR</title>
<ellipse fill="plum" stroke="black" cx="1347" cy="-18" rx="57.3905" ry="18"/>
<text text-anchor="middle" x="1347" y="-14.3" font-family="Times,serif" font-size="14.00">Bon appetit!</text>
</g>
<!-- E4&#45;&gt;EOR -->
<g id="edge15" class="edge"><title>E4&#45;&gt;EOR</title>
<path fill="none" stroke="black" d="M1347,-72.8129C1347,-64.7895 1347,-55.0475 1347,-46.0691"/>
<polygon fill="black" stroke="black" points="1350.5,-46.0288 1347,-36.0288 1343.5,-46.0289 1350.5,-46.0288"/>
</g>
<!-- D1 -->
<g id="node6" class="node"><title>D1</title>
<polygon fill="peachpuff" stroke="black" points="508,-492 -2.84217e-14,-492 -2.84217e-14,-454 508,-454 508,-492"/>
<text text-anchor="middle" x="254" y="-476.8" font-family="Times,serif" font-size="14.00">DOBJ: white sugar, mashed bananas, creamy salad dressing (such as Miracle Whip®)</text>
<text text-anchor="middle" x="254" y="-461.8" font-family="Times,serif" font-size="14.00">(text: bananas, salad dressing, sugar)</text>
</g>
<!-- D1&#45;&gt;E1 -->
<g id="edge1" class="edge"><title>D1&#45;&gt;E1</title>
<path fill="none" stroke="black" d="M339.281,-453.955C403.149,-440.441 488.665,-422.346 543.802,-410.68"/>
<polygon fill="black" stroke="black" points="544.672,-414.073 553.731,-408.579 543.223,-407.225 544.672,-414.073"/>
</g>
<!-- P1_0 -->
<g id="node7" class="node"><title>P1_0</title>
<polygon fill="white" stroke="black" points="672,-491 526,-491 526,-455 672,-455 672,-491"/>
<text text-anchor="middle" x="599" y="-469.3" font-family="Times,serif" font-size="14.00">PREP: in a large bowl</text>
</g>
<!-- P1_0&#45;&gt;E1 -->
<g id="edge2" class="edge"><title>P1_0&#45;&gt;E1</title>
<path fill="none" stroke="black" d="M599,-454.7C599,-446.245 599,-435.869 599,-426.373"/>
<polygon fill="black" stroke="black" points="602.5,-426.176 599,-416.176 595.5,-426.176 602.5,-426.176"/>
</g>
<!-- O1_0 -->
<g id="node8" class="node"><title>O1_0</title>
<polygon fill="white" stroke="black" points="835.5,-491 690.5,-491 690.5,-455 835.5,-455 835.5,-491"/>
<text text-anchor="middle" x="763" y="-469.3" font-family="Times,serif" font-size="14.00">OTHER: until smooth</text>
</g>
<!-- O1_0&#45;&gt;E1 -->
<g id="edge3" class="edge"><title>O1_0&#45;&gt;E1</title>
<path fill="none" stroke="black" d="M724.549,-454.885C699,-443.512 665.506,-428.603 639.539,-417.045"/>
<polygon fill="black" stroke="black" points="640.9,-413.82 630.341,-412.951 638.054,-420.215 640.9,-413.82"/>
</g>
<!-- D0 -->
<g id="node9" class="node"><title>D0</title>
<polygon fill="white" stroke="black" points="1619,-313 1531,-313 1531,-277 1619,-277 1619,-313"/>
<text text-anchor="middle" x="1575" y="-291.3" font-family="Times,serif" font-size="14.00">DOBJ: oven</text>
</g>
<!-- D0&#45;&gt;E0 -->
<g id="edge4" class="edge"><title>D0&#45;&gt;E0</title>
<path fill="none" stroke="black" d="M1591.72,-276.581C1607.33,-260.325 1630.75,-235.931 1648.09,-217.867"/>
<polygon fill="black" stroke="black" points="1650.71,-220.193 1655.11,-210.555 1645.66,-215.345 1650.71,-220.193"/>
</g>
<!-- O0_0 -->
<g id="node10" class="node"><title>O0_0</title>
<polygon fill="white" stroke="black" points="1894.5,-313 1637.5,-313 1637.5,-277 1894.5,-277 1894.5,-313"/>
<text text-anchor="middle" x="1766" y="-291.3" font-family="Times,serif" font-size="14.00">OTHER: to 350 degrees f (175 degrees c)</text>
</g>
<!-- O0_0&#45;&gt;E0 -->
<g id="edge5" class="edge"><title>O0_0&#45;&gt;E0</title>
<path fill="none" stroke="black" d="M1749.45,-276.581C1734.01,-260.325 1710.83,-235.931 1693.67,-217.867"/>
<polygon fill="black" stroke="black" points="1696.15,-215.394 1686.73,-210.555 1691.08,-220.216 1696.15,-215.394"/>
</g>
<!-- D2_ing -->
<g id="node11" class="node"><title>D2_ing</title>
<polygon fill="peachpuff" stroke="black" points="941.5,-417 672.5,-417 672.5,-379 941.5,-379 941.5,-417"/>
<text text-anchor="middle" x="807" y="-401.8" font-family="Times,serif" font-size="14.00">DOBJ: whole wheat flour, baking soda, salt</text>
<text text-anchor="middle" x="807" y="-386.8" font-family="Times,serif" font-size="14.00">(text: flour, &#160;salt, &#160;baking soda)</text>
</g>
<!-- D2_ing&#45;&gt;E2 -->
<g id="edge6" class="edge"><title>D2_ing&#45;&gt;E2</title>
<path fill="none" stroke="black" d="M807,-378.943C807,-363.531 807,-341.127 807,-323.488"/>
<polygon fill="black" stroke="black" points="810.5,-323.226 807,-313.226 803.5,-323.226 810.5,-323.226"/>
</g>
<!-- O2_0_0 -->
<g id="node12" class="node"><title>O2_0_0</title>
<polygon fill="white" stroke="black" points="1192.5,-416 959.5,-416 959.5,-380 1192.5,-380 1192.5,-416"/>
<text text-anchor="middle" x="1076" y="-394.3" font-family="Times,serif" font-size="14.00">OTHER: until batter is just moistened</text>
</g>
<!-- O2_0_0&#45;&gt;E2 -->
<g id="edge8" class="edge"><title>O2_0_0&#45;&gt;E2</title>
<path fill="none" stroke="black" d="M1030.67,-379.981C980.558,-361.165 900.386,-331.063 850.866,-312.47"/>
<polygon fill="black" stroke="black" points="851.981,-309.15 841.389,-308.912 849.52,-315.704 851.981,-309.15"/>
</g>
<!-- P3_0_0 -->
<g id="node13" class="node"><title>P3_0_0</title>
<polygon fill="white" stroke="black" points="1051.5,-313 878.5,-313 878.5,-277 1051.5,-277 1051.5,-313"/>
<text text-anchor="middle" x="965" y="-291.3" font-family="Times,serif" font-size="14.00">PREP: into 24 muffin cups</text>
</g>
<!-- P3_0_0&#45;&gt;E3 -->
<g id="edge10" class="edge"><title>P3_0_0&#45;&gt;E3</title>
<path fill="none" stroke="black" d="M956.465,-276.581C948.83,-261 937.532,-237.943 928.813,-220.149"/>
<polygon fill="black" stroke="black" points="931.817,-218.326 924.274,-210.886 925.531,-221.406 931.817,-218.326"/>
</g>
<!-- O4_0_0 -->
<g id="node14" class="node"><title>O4_0_0</title>
<polygon fill="white" stroke="black" points="1394,-211 998,-211 998,-175 1394,-175 1394,-211"/>
<text text-anchor="middle" x="1196" y="-189.3" font-family="Times,serif" font-size="14.00">OTHER: until a toothpick inserted into the center comes out clean</text>
</g>
<!-- O4_0_0&#45;&gt;E4 -->
<g id="edge13" class="edge"><title>O4_0_0&#45;&gt;E4</title>
<path fill="none" stroke="black" d="M1221.96,-174.809C1247.68,-157.778 1287.12,-131.653 1314.82,-113.312"/>
<polygon fill="black" stroke="black" points="1316.96,-116.091 1323.37,-107.652 1313.1,-110.255 1316.96,-116.091"/>
</g>
<!-- O4_1_0 -->
<g id="node15" class="node"><title>O4_1_0</title>
<polygon fill="white" stroke="black" points="1584,-211 1412,-211 1412,-175 1584,-175 1584,-211"/>
<text text-anchor="middle" x="1498" y="-189.3" font-family="Times,serif" font-size="14.00">OTHER: about 17 minutes</text>
</g>
<!-- O4_1_0&#45;&gt;E4 -->
<g id="edge14" class="edge"><title>O4_1_0&#45;&gt;E4</title>
<path fill="none" stroke="black" d="M1472.04,-174.809C1446.32,-157.778 1406.88,-131.653 1379.18,-113.312"/>
<polygon fill="black" stroke="black" points="1380.9,-110.255 1370.63,-107.652 1377.04,-116.091 1380.9,-110.255"/>
</g>
</g>
</svg>
