<?xml version="1.0" encoding="UTF-8" standalone="no"?>
<!DOCTYPE svg PUBLIC "-//W3C//DTD SVG 1.1//EN"
 "http://www.w3.org/Graphics/SVG/1.1/DTD/svg11.dtd">
<!-- Generated by graphviz version 2.38.0 (20140413.2041)
 -->
<!-- Title: recipe Pages: 1 -->
<svg width="1591pt" height="522pt"
 viewBox="0.00 0.00 1591.00 521.96" xmlns="http://www.w3.org/2000/svg" xmlns:xlink="http://www.w3.org/1999/xlink">
<g id="graph0" class="graph" transform="scale(1 1) rotate(0) translate(4 517.96)">
<title>recipe</title>
<polygon fill="white" stroke="none" points="-4,4 -4,-517.96 1587,-517.96 1587,4 -4,4"/>
<!-- E0 -->
<g id="node1" class="node"><title>E0</title>
<ellipse fill="azure" stroke="black" cx="1359.5" cy="-204.61" rx="41.9398" ry="26.7407"/>
<text text-anchor="middle" x="1359.5" y="-208.41" font-family="Times,serif" font-size="14.00">preheat</text>
<text text-anchor="middle" x="1359.5" y="-193.41" font-family="Times,serif" font-size="14.00">0</text>
</g>
<!-- E4 -->
<g id="node5" class="node"><title>E4</title>
<ellipse fill="azure" stroke="black" cx="1062.5" cy="-99.8701" rx="31.2258" ry="26.7407"/>
<text text-anchor="middle" x="1062.5" y="-103.67" font-family="Times,serif" font-size="14.00">bake</text>
<text text-anchor="middle" x="1062.5" y="-88.6701" font-family="Times,serif" font-size="14.00">4</text>
</g>
<!-- E0&#45;&gt;E4 -->
<g id="edge12" class="edge"><title>E0&#45;&gt;E4</title>
<path fill="none" stroke="black" d="M1328.05,-186.63C1321.67,-183.478 1314.94,-180.358 1308.5,-177.74 1237.49,-148.87 1151.35,-124.215 1102.14,-111.063"/>
<polygon fill="black" stroke="black" points="1102.78,-107.611 1092.21,-108.433 1100.98,-114.378 1102.78,-107.611"/>
<text text-anchor="middle" x="1357" y="-148.54" font-family="Times,serif" font-size="14.00">LOCATION:in the preheated oven</text>
</g>
<!-- E1 -->
<g id="node2" class="node"><title>E1</title>
<ellipse fill="azure" stroke="black" cx="339.5" cy="-414.09" rx="27.6545" ry="26.7407"/>
<text text-anchor="middle" x="339.5" y="-417.89" font-family="Times,serif" font-size="14.00">mix</text>
<text text-anchor="middle" x="339.5" y="-402.89" font-family="Times,serif" font-size="14.00">1</text>
</g>
<!-- E2 -->
<g id="node3" class="node"><title>E2</title>
<ellipse fill="azure" stroke="black" cx="547.5" cy="-309.35" rx="27" ry="26.7407"/>
<text text-anchor="middle" x="547.5" y="-313.15" font-family="Times,serif" font-size="14.00">stir</text>
<text text-anchor="middle" x="547.5" y="-298.15" font-family="Times,serif" font-size="14.00">2</text>
</g>
<!-- E1&#45;&gt;E2 -->
<g id="edge7" class="edge"><title>E1&#45;&gt;E2</title>
<path fill="none" stroke="black" d="M338.274,-387.012C339.128,-375.573 342.192,-362.819 350.5,-354.22 372.207,-331.754 459.255,-319.3 510.085,-313.811"/>
<polygon fill="black" stroke="black" points="510.761,-317.26 520.345,-312.745 510.037,-310.297 510.761,-317.26"/>
<text text-anchor="middle" x="447" y="-358.02" font-family="Times,serif" font-size="14.00">COOBJECT:into banana mixture</text>
</g>
<!-- E3 -->
<g id="node4" class="node"><title>E3</title>
<ellipse fill="azure" stroke="black" cx="658.5" cy="-204.61" rx="36.5405" ry="26.7407"/>
<text text-anchor="middle" x="658.5" y="-208.41" font-family="Times,serif" font-size="14.00">divide</text>
<text text-anchor="middle" x="658.5" y="-193.41" font-family="Times,serif" font-size="14.00">3</text>
</g>
<!-- E2&#45;&gt;E3 -->
<g id="edge9" class="edge"><title>E2&#45;&gt;E3</title>
<path fill="none" stroke="black" d="M566.835,-290.454C583.943,-274.619 609.173,-251.267 628.834,-233.069"/>
<polygon fill="black" stroke="black" points="631.376,-235.485 636.338,-226.123 626.621,-230.348 631.376,-235.485"/>
<text text-anchor="middle" x="627" y="-253.28" font-family="Times,serif" font-size="14.00">batter</text>
</g>
<!-- E3&#45;&gt;E4 -->
<g id="edge11" class="edge"><title>E3&#45;&gt;E4</title>
<path fill="none" stroke="black" d="M686.069,-186.348C691.993,-183.144 698.33,-180.076 704.5,-177.74 814.826,-135.973 953.321,-114.366 1021.17,-105.639"/>
<polygon fill="black" stroke="black" points="1021.96,-109.068 1031.44,-104.348 1021.08,-102.123 1021.96,-109.068"/>
<text text-anchor="middle" x="861.5" y="-148.54" font-family="Times,serif" font-size="14.00">IMPLICIT DOBJ</text>
</g>
<!-- EOR -->
<g id="node16" class="node"><title>EOR</title>
<ellipse fill="plum" stroke="black" cx="1062.5" cy="-18" rx="57.3905" ry="18"/>
<text text-anchor="middle" x="1062.5" y="-14.3" font-family="Times,serif" font-size="14.00">Bon appetit!</text>
</g>
<!-- E4&#45;&gt;EOR -->
<g id="edge15" class="edge"><title>E4&#45;&gt;EOR</title>
<path fill="none" stroke="black" d="M1062.5,-72.7176C1062.5,-64.2726 1062.5,-54.8903 1062.5,-46.3604"/>
<polygon fill="black" stroke="black" points="1066,-46.1464 1062.5,-36.1464 1059,-46.1464 1066,-46.1464"/>
</g>
<!-- D1 -->
<g id="node6" class="node"><title>D1</title>
<polygon fill="peachpuff" stroke="black" points="231,-513.96 0,-513.96 0,-477.96 231,-477.96 231,-513.96"/>
<text text-anchor="middle" x="115.5" y="-492.26" font-family="Times,serif" font-size="14.00">DOBJ: bananas, salad dressing, sugar</text>
</g>
<!-- D1&#45;&gt;E1 -->
<g id="edge1" class="edge"><title>D1&#45;&gt;E1</title>
<path fill="none" stroke="black" d="M163.279,-477.924C205.505,-462.868 266.125,-441.253 304.13,-427.702"/>
<polygon fill="black" stroke="black" points="305.504,-430.928 313.747,-424.273 303.152,-424.335 305.504,-430.928"/>
</g>
<!-- P1_0 -->
<g id="node7" class="node"><title>P1_0</title>
<polygon fill="white" stroke="black" points="430,-513.96 249,-513.96 249,-477.96 430,-477.96 430,-513.96"/>
<text text-anchor="middle" x="339.5" y="-492.26" font-family="Times,serif" font-size="14.00">LOCATION:in a large bowl</text>
</g>
<!-- P1_0&#45;&gt;E1 -->
<g id="edge2" class="edge"><title>P1_0&#45;&gt;E1</title>
<path fill="none" stroke="black" d="M339.5,-477.63C339.5,-469.896 339.5,-460.476 339.5,-451.319"/>
<polygon fill="black" stroke="black" points="343,-451.194 339.5,-441.194 336,-451.195 343,-451.194"/>
</g>
<!-- O1_0 -->
<g id="node8" class="node"><title>O1_0</title>
<polygon fill="white" stroke="black" points="593,-513.96 448,-513.96 448,-477.96 593,-477.96 593,-513.96"/>
<text text-anchor="middle" x="520.5" y="-492.26" font-family="Times,serif" font-size="14.00">OTHER: until smooth</text>
</g>
<!-- O1_0&#45;&gt;E1 -->
<g id="edge3" class="edge"><title>O1_0&#45;&gt;E1</title>
<path fill="none" stroke="black" d="M481.671,-477.826C449.615,-463.681 404.552,-443.796 373.807,-430.229"/>
<polygon fill="black" stroke="black" points="374.925,-426.897 364.363,-426.062 372.099,-433.301 374.925,-426.897"/>
</g>
<!-- D0 -->
<g id="node9" class="node"><title>D0</title>
<polygon fill="white" stroke="black" points="1307.5,-327.35 1219.5,-327.35 1219.5,-291.35 1307.5,-291.35 1307.5,-327.35"/>
<text text-anchor="middle" x="1263.5" y="-305.65" font-family="Times,serif" font-size="14.00">DOBJ: oven</text>
</g>
<!-- D0&#45;&gt;E0 -->
<g id="edge4" class="edge"><title>D0&#45;&gt;E0</title>
<path fill="none" stroke="black" d="M1279.79,-290.922C1293.92,-275.793 1314.7,-253.556 1331.5,-235.578"/>
<polygon fill="black" stroke="black" points="1334.15,-237.863 1338.42,-228.167 1329.04,-233.084 1334.15,-237.863"/>
</g>
<!-- O0_0 -->
<g id="node10" class="node"><title>O0_0</title>
<polygon fill="white" stroke="black" points="1583,-327.35 1326,-327.35 1326,-291.35 1583,-291.35 1583,-327.35"/>
<text text-anchor="middle" x="1454.5" y="-305.65" font-family="Times,serif" font-size="14.00">OTHER: to 350 degrees f (175 degrees c)</text>
</g>
<!-- O0_0&#45;&gt;E0 -->
<g id="edge5" class="edge"><title>O0_0&#45;&gt;E0</title>
<path fill="none" stroke="black" d="M1438.38,-290.922C1424.4,-275.793 1403.83,-253.556 1387.21,-235.578"/>
<polygon fill="black" stroke="black" points="1389.72,-233.133 1380.36,-228.167 1384.58,-237.885 1389.72,-233.133"/>
</g>
<!-- D2_ing -->
<g id="node11" class="node"><title>D2_ing</title>
<polygon fill="peachpuff" stroke="black" points="643,-432.09 452,-432.09 452,-396.09 643,-396.09 643,-432.09"/>
<text text-anchor="middle" x="547.5" y="-410.39" font-family="Times,serif" font-size="14.00">DOBJ: flour, salt, baking soda</text>
</g>
<!-- D2_ing&#45;&gt;E2 -->
<g id="edge6" class="edge"><title>D2_ing&#45;&gt;E2</title>
<path fill="none" stroke="black" d="M547.5,-395.662C547.5,-382.197 547.5,-363.102 547.5,-346.389"/>
<polygon fill="black" stroke="black" points="551,-346.363 547.5,-336.363 544,-346.363 551,-346.363"/>
</g>
<!-- O2_0_0 -->
<g id="node12" class="node"><title>O2_0_0</title>
<polygon fill="white" stroke="black" points="894,-432.09 661,-432.09 661,-396.09 894,-396.09 894,-432.09"/>
<text text-anchor="middle" x="777.5" y="-410.39" font-family="Times,serif" font-size="14.00">OTHER: until batter is just moistened</text>
</g>
<!-- O2_0_0&#45;&gt;E2 -->
<g id="edge8" class="edge"><title>O2_0_0&#45;&gt;E2</title>
<path fill="none" stroke="black" d="M724.463,-396.047C684.552,-382.287 629.119,-361.153 583.5,-336.22 581.254,-334.993 578.985,-333.648 576.735,-332.237"/>
<polygon fill="black" stroke="black" points="578.513,-329.215 568.253,-326.573 574.626,-335.037 578.513,-329.215"/>
</g>
<!-- P3_0_0 -->
<g id="node13" class="node"><title>P3_0_0</title>
<polygon fill="white" stroke="black" points="800.5,-327.35 592.5,-327.35 592.5,-291.35 800.5,-291.35 800.5,-327.35"/>
<text text-anchor="middle" x="696.5" y="-305.65" font-family="Times,serif" font-size="14.00">LOCATION:into 24 muffin cups</text>
</g>
<!-- P3_0_0&#45;&gt;E3 -->
<g id="edge10" class="edge"><title>P3_0_0&#45;&gt;E3</title>
<path fill="none" stroke="black" d="M690.054,-290.922C684.956,-277.139 677.676,-257.455 671.393,-240.467"/>
<polygon fill="black" stroke="black" points="674.584,-239.007 667.832,-230.842 668.019,-241.435 674.584,-239.007"/>
</g>
<!-- O4_0_0 -->
<g id="node14" class="node"><title>O4_0_0</title>
<polygon fill="white" stroke="black" points="1109.5,-222.61 713.5,-222.61 713.5,-186.61 1109.5,-186.61 1109.5,-222.61"/>
<text text-anchor="middle" x="911.5" y="-200.91" font-family="Times,serif" font-size="14.00">OTHER: until a toothpick inserted into the center comes out clean</text>
</g>
<!-- O4_0_0&#45;&gt;E4 -->
<g id="edge13" class="edge"><title>O4_0_0&#45;&gt;E4</title>
<path fill="none" stroke="black" d="M936.774,-186.414C962.229,-169.094 1001.62,-142.29 1029.52,-123.308"/>
<polygon fill="black" stroke="black" points="1031.85,-125.96 1038.14,-117.441 1027.91,-120.173 1031.85,-125.96"/>
</g>
<!-- O4_1_0 -->
<g id="node15" class="node"><title>O4_1_0</title>
<polygon fill="white" stroke="black" points="1299.5,-222.61 1127.5,-222.61 1127.5,-186.61 1299.5,-186.61 1299.5,-222.61"/>
<text text-anchor="middle" x="1213.5" y="-200.91" font-family="Times,serif" font-size="14.00">OTHER: about 17 minutes</text>
</g>
<!-- O4_1_0&#45;&gt;E4 -->
<g id="edge14" class="edge"><title>O4_1_0&#45;&gt;E4</title>
<path fill="none" stroke="black" d="M1188.23,-186.414C1162.77,-169.094 1123.38,-142.29 1095.48,-123.308"/>
<polygon fill="black" stroke="black" points="1097.09,-120.173 1086.86,-117.441 1093.15,-125.96 1097.09,-120.173"/>
</g>
</g>
</svg>
