<?xml version="1.0" encoding="UTF-8" standalone="no"?>
<!DOCTYPE svg PUBLIC "-//W3C//DTD SVG 1.1//EN"
 "http://www.w3.org/Graphics/SVG/1.1/DTD/svg11.dtd">
<!-- Generated by graphviz version 2.38.0 (20140413.2041)
 -->
<!-- Title: recipe Pages: 1 -->
<svg width="1392pt" height="836pt"
 viewBox="0.00 0.00 1391.50 836.18" xmlns="http://www.w3.org/2000/svg" xmlns:xlink="http://www.w3.org/1999/xlink">
<g id="graph0" class="graph" transform="scale(1 1) rotate(0) translate(4 832.181)">
<title>recipe</title>
<polygon fill="white" stroke="none" points="-4,4 -4,-832.181 1387.5,-832.181 1387.5,4 -4,4"/>
<!-- E0 -->
<g id="node1" class="node"><title>E0</title>
<ellipse fill="azure" stroke="black" cx="1156" cy="-414.09" rx="28.0702" ry="26.7407"/>
<text text-anchor="middle" x="1156" y="-417.89" font-family="Times,serif" font-size="14.00">heat</text>
<text text-anchor="middle" x="1156" y="-402.89" font-family="Times,serif" font-size="14.00">0</text>
</g>
<!-- E5 -->
<g id="node6" class="node"><title>E5</title>
<ellipse fill="azure" stroke="black" cx="1004" cy="-309.35" rx="31.2258" ry="26.7407"/>
<text text-anchor="middle" x="1004" y="-313.15" font-family="Times,serif" font-size="14.00">bake</text>
<text text-anchor="middle" x="1004" y="-298.15" font-family="Times,serif" font-size="14.00">5</text>
</g>
<!-- E0&#45;&gt;E5 -->
<g id="edge13" class="edge"><title>E0&#45;&gt;E5</title>
<path fill="none" stroke="black" d="M1133.24,-397.709C1107.65,-380.41 1065.87,-352.168 1036.76,-332.496"/>
<polygon fill="black" stroke="black" points="1038.41,-329.387 1028.17,-326.687 1034.49,-335.187 1038.41,-329.387"/>
<text text-anchor="middle" x="1139.5" y="-358.02" font-family="Times,serif" font-size="14.00">IMPLICIT PREP</text>
</g>
<!-- E1 -->
<g id="node2" class="node"><title>E1</title>
<ellipse fill="azure" stroke="black" cx="133" cy="-728.311" rx="42.3529" ry="26.7407"/>
<text text-anchor="middle" x="133" y="-732.111" font-family="Times,serif" font-size="14.00">prepare</text>
<text text-anchor="middle" x="133" y="-717.111" font-family="Times,serif" font-size="14.00">1</text>
</g>
<!-- E2 -->
<g id="node3" class="node"><title>E2</title>
<ellipse fill="azure" stroke="black" cx="293" cy="-623.571" rx="35.2113" ry="26.7407"/>
<text text-anchor="middle" x="293" y="-627.371" font-family="Times,serif" font-size="14.00">stir in</text>
<text text-anchor="middle" x="293" y="-612.371" font-family="Times,serif" font-size="14.00">2</text>
</g>
<!-- E1&#45;&gt;E2 -->
<g id="edge6" class="edge"><title>E1&#45;&gt;E2</title>
<path fill="none" stroke="black" d="M159.429,-706.849C174.989,-695.123 195.239,-680.405 214,-668.441 227.219,-660.011 242.157,-651.477 255.456,-644.205"/>
<polygon fill="black" stroke="black" points="257.23,-647.225 264.361,-639.389 253.9,-641.067 257.23,-647.225"/>
<text text-anchor="middle" x="264.5" y="-672.241" font-family="Times,serif" font-size="14.00">IMPLICIT PREP</text>
</g>
<!-- E3 -->
<g id="node4" class="node"><title>E3</title>
<ellipse fill="azure" stroke="black" cx="427" cy="-518.831" rx="36.5405" ry="26.7407"/>
<text text-anchor="middle" x="427" y="-522.631" font-family="Times,serif" font-size="14.00">spoon</text>
<text text-anchor="middle" x="427" y="-507.631" font-family="Times,serif" font-size="14.00">3</text>
</g>
<!-- E2&#45;&gt;E3 -->
<g id="edge7" class="edge"><title>E2&#45;&gt;E3</title>
<path fill="none" stroke="black" d="M310.712,-599.936C320.586,-588.229 333.577,-574.228 347,-563.701 359.254,-554.091 373.895,-545.392 387.282,-538.321"/>
<polygon fill="black" stroke="black" points="389.002,-541.372 396.304,-533.696 385.809,-535.143 389.002,-541.372"/>
<text text-anchor="middle" x="398" y="-567.501" font-family="Times,serif" font-size="14.00">IMPLICIT DOBJ</text>
</g>
<!-- E4 -->
<g id="node5" class="node"><title>E4</title>
<ellipse fill="azure" stroke="black" cx="661" cy="-414.09" rx="27" ry="26.7407"/>
<text text-anchor="middle" x="661" y="-417.89" font-family="Times,serif" font-size="14.00">top</text>
<text text-anchor="middle" x="661" y="-402.89" font-family="Times,serif" font-size="14.00">4</text>
</g>
<!-- E3&#45;&gt;E4 -->
<g id="edge9" class="edge"><title>E3&#45;&gt;E4</title>
<path fill="none" stroke="black" d="M455.669,-501.612C461.4,-498.396 467.384,-495.058 473,-491.96 499.99,-477.072 505.783,-471.367 534,-458.96 564.163,-445.698 599.704,-433.715 625.506,-425.638"/>
<polygon fill="black" stroke="black" points="626.709,-428.929 635.23,-422.633 624.643,-422.241 626.709,-428.929"/>
<text text-anchor="middle" x="585" y="-462.76" font-family="Times,serif" font-size="14.00">IMPLICIT DOBJ</text>
</g>
<!-- E4&#45;&gt;E5 -->
<g id="edge12" class="edge"><title>E4&#45;&gt;E5</title>
<path fill="none" stroke="black" d="M686.973,-406.62C759.185,-388.615 957.494,-339.058 964,-336.22 966.63,-335.073 969.281,-333.762 971.9,-332.353"/>
<polygon fill="black" stroke="black" points="973.728,-335.339 980.601,-327.275 970.2,-329.293 973.728,-335.339"/>
<text text-anchor="middle" x="947" y="-358.02" font-family="Times,serif" font-size="14.00">IMPLICIT DOBJ</text>
</g>
<!-- E6 -->
<g id="node7" class="node"><title>E6</title>
<ellipse fill="azure" stroke="black" cx="928" cy="-204.61" rx="45.011" ry="26.7407"/>
<text text-anchor="middle" x="928" y="-208.41" font-family="Times,serif" font-size="14.00">let stand</text>
<text text-anchor="middle" x="928" y="-193.41" font-family="Times,serif" font-size="14.00">6</text>
</g>
<!-- E5&#45;&gt;E6 -->
<g id="edge15" class="edge"><title>E5&#45;&gt;E6</title>
<path fill="none" stroke="black" d="M987.696,-286.31C977.245,-272.181 963.5,-253.601 951.835,-237.831"/>
<polygon fill="black" stroke="black" points="954.362,-235.363 945.602,-229.405 948.735,-239.526 954.362,-235.363"/>
<text text-anchor="middle" x="1022" y="-253.28" font-family="Times,serif" font-size="14.00">IMPLICIT DOBJ</text>
</g>
<!-- E7 -->
<g id="node8" class="node"><title>E7</title>
<ellipse fill="azure" stroke="black" cx="832" cy="-99.8701" rx="32.5538" ry="26.7407"/>
<text text-anchor="middle" x="832" y="-103.67" font-family="Times,serif" font-size="14.00">serve</text>
<text text-anchor="middle" x="832" y="-88.6701" font-family="Times,serif" font-size="14.00">7</text>
</g>
<!-- E6&#45;&gt;E7 -->
<g id="edge17" class="edge"><title>E6&#45;&gt;E7</title>
<path fill="none" stroke="black" d="M906.694,-180.809C892.453,-165.568 873.615,-145.407 858.42,-129.145"/>
<polygon fill="black" stroke="black" points="860.675,-126.431 851.29,-121.514 855.56,-131.211 860.675,-126.431"/>
<text text-anchor="middle" x="937" y="-148.54" font-family="Times,serif" font-size="14.00">IMPLICIT DOBJ</text>
</g>
<!-- EOR -->
<g id="node20" class="node"><title>EOR</title>
<ellipse fill="plum" stroke="black" cx="832" cy="-18" rx="57.3905" ry="18"/>
<text text-anchor="middle" x="832" y="-14.3" font-family="Times,serif" font-size="14.00">Bon appetit!</text>
</g>
<!-- E7&#45;&gt;EOR -->
<g id="edge19" class="edge"><title>E7&#45;&gt;EOR</title>
<path fill="none" stroke="black" d="M832,-72.7176C832,-64.2726 832,-54.8903 832,-46.3604"/>
<polygon fill="black" stroke="black" points="835.5,-46.1464 832,-36.1464 828.5,-46.1464 835.5,-46.1464"/>
</g>
<!-- D1 -->
<g id="node9" class="node"><title>D1</title>
<polygon fill="peachpuff" stroke="black" points="98,-828.181 0,-828.181 0,-792.181 98,-792.181 98,-828.181"/>
<text text-anchor="middle" x="49" y="-806.481" font-family="Times,serif" font-size="14.00">DOBJ: dinner</text>
</g>
<!-- D1&#45;&gt;E1 -->
<g id="edge1" class="edge"><title>D1&#45;&gt;E1</title>
<path fill="none" stroke="black" d="M67.2267,-791.85C77.518,-782.065 90.6487,-769.58 102.467,-758.342"/>
<polygon fill="black" stroke="black" points="105.166,-760.606 110.002,-751.178 100.343,-755.533 105.166,-760.606"/>
</g>
<!-- O1_0 -->
<g id="node10" class="node"><title>O1_0</title>
<polygon fill="white" stroke="black" points="318,-828.181 116,-828.181 116,-792.181 318,-792.181 318,-828.181"/>
<text text-anchor="middle" x="217" y="-806.481" font-family="Times,serif" font-size="14.00">OTHER: as directed on package</text>
</g>
<!-- O1_0&#45;&gt;E1 -->
<g id="edge2" class="edge"><title>O1_0&#45;&gt;E1</title>
<path fill="none" stroke="black" d="M198.773,-791.85C188.482,-782.065 175.351,-769.58 163.533,-758.342"/>
<polygon fill="black" stroke="black" points="165.657,-755.533 155.998,-751.178 160.834,-760.606 165.657,-755.533"/>
</g>
<!-- D0 -->
<g id="node11" class="node"><title>D0</title>
<polygon fill="white" stroke="black" points="1200,-536.831 1112,-536.831 1112,-500.831 1200,-500.831 1200,-536.831"/>
<text text-anchor="middle" x="1156" y="-515.131" font-family="Times,serif" font-size="14.00">DOBJ: oven</text>
</g>
<!-- D0&#45;&gt;E0 -->
<g id="edge3" class="edge"><title>D0&#45;&gt;E0</title>
<path fill="none" stroke="black" d="M1156,-500.402C1156,-486.937 1156,-467.842 1156,-451.129"/>
<polygon fill="black" stroke="black" points="1159.5,-451.103 1156,-441.103 1152.5,-451.103 1159.5,-451.103"/>
</g>
<!-- O0_0 -->
<g id="node12" class="node"><title>O0_0</title>
<polygon fill="white" stroke="black" points="1383.5,-536.831 1218.5,-536.831 1218.5,-500.831 1383.5,-500.831 1383.5,-536.831"/>
<text text-anchor="middle" x="1301" y="-515.131" font-family="Times,serif" font-size="14.00">OTHER: to 375 degrees f</text>
</g>
<!-- O0_0&#45;&gt;E0 -->
<g id="edge4" class="edge"><title>O0_0&#45;&gt;E0</title>
<path fill="none" stroke="black" d="M1276.73,-500.634C1252,-483.109 1213.55,-455.871 1186.71,-436.853"/>
<polygon fill="black" stroke="black" points="1188.62,-433.916 1178.44,-430.99 1184.58,-439.628 1188.62,-433.916"/>
</g>
<!-- D2_ing -->
<g id="node13" class="node"><title>D2_ing</title>
<polygon fill="peachpuff" stroke="black" points="510.5,-746.311 193.5,-746.311 193.5,-710.311 510.5,-710.311 510.5,-746.311"/>
<text text-anchor="middle" x="352" y="-724.611" font-family="Times,serif" font-size="14.00">DOBJ: sour cream, pepper, 1/4 cup shredded cheese</text>
</g>
<!-- D2_ing&#45;&gt;E2 -->
<g id="edge5" class="edge"><title>D2_ing&#45;&gt;E2</title>
<path fill="none" stroke="black" d="M341.991,-709.882C333.76,-695.549 321.865,-674.835 311.857,-657.407"/>
<polygon fill="black" stroke="black" points="314.84,-655.573 306.825,-648.644 308.77,-659.059 314.84,-655.573"/>
</g>
<!-- P3_0_0 -->
<g id="node14" class="node"><title>P3_0_0</title>
<polygon fill="white" stroke="black" points="625.5,-641.571 346.5,-641.571 346.5,-605.571 625.5,-605.571 625.5,-641.571"/>
<text text-anchor="middle" x="486" y="-619.871" font-family="Times,serif" font-size="14.00">LOCATION:into greased 1&#45;1/2&#45;l baking dish</text>
</g>
<!-- P3_0_0&#45;&gt;E3 -->
<g id="edge8" class="edge"><title>P3_0_0&#45;&gt;E3</title>
<path fill="none" stroke="black" d="M475.991,-605.142C467.76,-590.809 455.865,-570.095 445.857,-552.667"/>
<polygon fill="black" stroke="black" points="448.84,-550.833 440.825,-543.904 442.77,-554.319 448.84,-550.833"/>
</g>
<!-- P4_0_ing -->
<g id="node15" class="node"><title>P4_0_ing</title>
<polygon fill="peachpuff" stroke="black" points="764,-536.831 482,-536.831 482,-500.831 764,-500.831 764,-536.831"/>
<text text-anchor="middle" x="623" y="-515.131" font-family="Times,serif" font-size="14.00">COOBJECT: with remaining shredded cheese</text>
</g>
<!-- P4_0_ing&#45;&gt;E4 -->
<g id="edge10" class="edge"><title>P4_0_ing&#45;&gt;E4</title>
<path fill="none" stroke="black" d="M629.446,-500.402C634.615,-486.428 642.027,-466.387 648.369,-449.241"/>
<polygon fill="black" stroke="black" points="651.767,-450.142 651.954,-439.548 645.202,-447.713 651.767,-450.142"/>
</g>
<!-- P4_1_ing -->
<g id="node16" class="node"><title>P4_1_ing</title>
<polygon fill="peachpuff" stroke="black" points="1093.5,-536.831 782.5,-536.831 782.5,-500.831 1093.5,-500.831 1093.5,-536.831"/>
<text text-anchor="middle" x="938" y="-515.131" font-family="Times,serif" font-size="14.00">COOBJECT: combined margarine, cracker crumbs</text>
</g>
<!-- P4_1_ing&#45;&gt;E4 -->
<g id="edge11" class="edge"><title>P4_1_ing&#45;&gt;E4</title>
<path fill="none" stroke="black" d="M891.948,-500.75C836.681,-480.251 745.269,-446.346 695.645,-427.94"/>
<polygon fill="black" stroke="black" points="696.602,-424.562 686.009,-424.366 694.168,-431.126 696.602,-424.562"/>
</g>
<!-- O5_0_0 -->
<g id="node17" class="node"><title>O5_0_0</title>
<polygon fill="white" stroke="black" points="1072,-432.09 936,-432.09 936,-396.09 1072,-396.09 1072,-432.09"/>
<text text-anchor="middle" x="1004" y="-410.39" font-family="Times,serif" font-size="14.00">OTHER: 20 minutes</text>
</g>
<!-- O5_0_0&#45;&gt;E5 -->
<g id="edge14" class="edge"><title>O5_0_0&#45;&gt;E5</title>
<path fill="none" stroke="black" d="M1004,-395.662C1004,-382.197 1004,-363.102 1004,-346.389"/>
<polygon fill="black" stroke="black" points="1007.5,-346.363 1004,-336.363 1000.5,-346.363 1007.5,-346.363"/>
</g>
<!-- O6_0_0 -->
<g id="node18" class="node"><title>O6_0_0</title>
<polygon fill="white" stroke="black" points="955,-327.35 827,-327.35 827,-291.35 955,-291.35 955,-327.35"/>
<text text-anchor="middle" x="891" y="-305.65" font-family="Times,serif" font-size="14.00">OTHER: 5 minutes</text>
</g>
<!-- O6_0_0&#45;&gt;E6 -->
<g id="edge16" class="edge"><title>O6_0_0&#45;&gt;E6</title>
<path fill="none" stroke="black" d="M897.277,-290.922C902.206,-277.235 909.231,-257.728 915.319,-240.822"/>
<polygon fill="black" stroke="black" points="918.678,-241.826 918.773,-231.232 912.092,-239.454 918.678,-241.826"/>
</g>
<!-- P7_0_ing -->
<g id="node19" class="node"><title>P7_0_ing</title>
<polygon fill="peachpuff" stroke="black" points="865,-222.61 713,-222.61 713,-186.61 865,-186.61 865,-222.61"/>
<text text-anchor="middle" x="789" y="-200.91" font-family="Times,serif" font-size="14.00">COOBJECT: with peas</text>
</g>
<!-- P7_0_ing&#45;&gt;E7 -->
<g id="edge18" class="edge"><title>P7_0_ing&#45;&gt;E7</title>
<path fill="none" stroke="black" d="M796.294,-186.182C802.103,-172.303 810.416,-152.441 817.559,-135.374"/>
<polygon fill="black" stroke="black" points="820.97,-136.29 821.602,-125.714 814.513,-133.587 820.97,-136.29"/>
</g>
</g>
</svg>
