<?xml version="1.0" encoding="UTF-8" standalone="no"?>
<!DOCTYPE svg PUBLIC "-//W3C//DTD SVG 1.1//EN"
 "http://www.w3.org/Graphics/SVG/1.1/DTD/svg11.dtd">
<!-- Generated by graphviz version 2.38.0 (20140413.2041)
 -->
<!-- Title: recipe Pages: 1 -->
<svg width="2560pt" height="1569pt"
 viewBox="0.00 0.00 2560.00 1569.36" xmlns="http://www.w3.org/2000/svg" xmlns:xlink="http://www.w3.org/1999/xlink">
<g id="graph0" class="graph" transform="scale(1 1) rotate(0) translate(4 1565.36)">
<title>recipe</title>
<polygon fill="white" stroke="none" points="-4,4 -4,-1565.36 2556,-1565.36 2556,4 -4,4"/>
<!-- E0 -->
<g id="node1" class="node"><title>E0</title>
<ellipse fill="azure" stroke="black" cx="2266.5" cy="-623.571" rx="41.9398" ry="26.7407"/>
<text text-anchor="middle" x="2266.5" y="-627.371" font-family="Times,serif" font-size="14.00">preheat</text>
<text text-anchor="middle" x="2266.5" y="-612.371" font-family="Times,serif" font-size="14.00">0</text>
</g>
<!-- E15 -->
<g id="node16" class="node"><title>E15</title>
<ellipse fill="azure" stroke="black" cx="2111.5" cy="-518.831" rx="31.2258" ry="26.7407"/>
<text text-anchor="middle" x="2111.5" y="-522.631" font-family="Times,serif" font-size="14.00">bake</text>
<text text-anchor="middle" x="2111.5" y="-507.631" font-family="Times,serif" font-size="14.00">15</text>
</g>
<!-- E0&#45;&gt;E15 -->
<g id="edge36" class="edge"><title>E0&#45;&gt;E15</title>
<path fill="none" stroke="black" d="M2238.07,-603.727C2211.57,-586.163 2172.07,-559.982 2144.26,-541.548"/>
<polygon fill="black" stroke="black" points="2145.95,-538.463 2135.68,-535.855 2142.08,-544.298 2145.95,-538.463"/>
<text text-anchor="middle" x="2287.5" y="-567.501" font-family="Times,serif" font-size="14.00">LOCATION:in preheated oven</text>
</g>
<!-- E1 -->
<g id="node2" class="node"><title>E1</title>
<ellipse fill="azure" stroke="black" cx="1702.5" cy="-1461.49" rx="33.8824" ry="26.7407"/>
<text text-anchor="middle" x="1702.5" y="-1465.29" font-family="Times,serif" font-size="14.00">bring</text>
<text text-anchor="middle" x="1702.5" y="-1450.29" font-family="Times,serif" font-size="14.00">1</text>
</g>
<!-- E2 -->
<g id="node3" class="node"><title>E2</title>
<ellipse fill="azure" stroke="black" cx="1760.5" cy="-1356.75" rx="27" ry="26.7407"/>
<text text-anchor="middle" x="1760.5" y="-1360.55" font-family="Times,serif" font-size="14.00">add</text>
<text text-anchor="middle" x="1760.5" y="-1345.55" font-family="Times,serif" font-size="14.00">2</text>
</g>
<!-- E1&#45;&gt;E2 -->
<g id="edge10" class="edge"><title>E1&#45;&gt;E2</title>
<path fill="none" stroke="black" d="M1695.72,-1434.96C1694.19,-1424.14 1694.32,-1411.73 1699.5,-1401.62 1705.56,-1389.81 1716.44,-1380.45 1727.36,-1373.47"/>
<polygon fill="black" stroke="black" points="1729.18,-1376.46 1736.02,-1368.37 1725.63,-1370.42 1729.18,-1376.46"/>
<text text-anchor="middle" x="1750" y="-1405.42" font-family="Times,serif" font-size="14.00">IMPLICIT PREP</text>
</g>
<!-- E3 -->
<g id="node4" class="node"><title>E3</title>
<ellipse fill="azure" stroke="black" cx="1852.5" cy="-1252.01" rx="31.6406" ry="26.7407"/>
<text text-anchor="middle" x="1852.5" y="-1255.81" font-family="Times,serif" font-size="14.00">cook</text>
<text text-anchor="middle" x="1852.5" y="-1240.81" font-family="Times,serif" font-size="14.00">3</text>
</g>
<!-- E2&#45;&gt;E3 -->
<g id="edge11" class="edge"><title>E2&#45;&gt;E3</title>
<path fill="none" stroke="black" d="M1778.24,-1335.94C1792.09,-1320.47 1811.54,-1298.76 1827.05,-1281.43"/>
<polygon fill="black" stroke="black" points="1829.81,-1283.6 1833.87,-1273.82 1824.59,-1278.93 1829.81,-1283.6"/>
<text text-anchor="middle" x="1863.5" y="-1300.68" font-family="Times,serif" font-size="14.00">IMPLICIT DOBJ</text>
</g>
<!-- E4 -->
<g id="node5" class="node"><title>E4</title>
<ellipse fill="azure" stroke="black" cx="1852.5" cy="-1147.27" rx="33.4697" ry="26.7407"/>
<text text-anchor="middle" x="1852.5" y="-1151.07" font-family="Times,serif" font-size="14.00">drain</text>
<text text-anchor="middle" x="1852.5" y="-1136.07" font-family="Times,serif" font-size="14.00">4</text>
</g>
<!-- E3&#45;&gt;E4 -->
<g id="edge13" class="edge"><title>E3&#45;&gt;E4</title>
<path fill="none" stroke="black" d="M1852.5,-1225.09C1852.5,-1212.8 1852.5,-1197.91 1852.5,-1184.52"/>
<polygon fill="black" stroke="black" points="1856,-1184.19 1852.5,-1174.19 1849,-1184.19 1856,-1184.19"/>
<text text-anchor="middle" x="1903.5" y="-1195.94" font-family="Times,serif" font-size="14.00">IMPLICIT DOBJ</text>
</g>
<!-- E5 -->
<g id="node6" class="node"><title>E5</title>
<ellipse fill="azure" stroke="black" cx="1852.5" cy="-1042.53" rx="45.011" ry="26.7407"/>
<text text-anchor="middle" x="1852.5" y="-1046.33" font-family="Times,serif" font-size="14.00">set aside</text>
<text text-anchor="middle" x="1852.5" y="-1031.33" font-family="Times,serif" font-size="14.00">5</text>
</g>
<!-- E4&#45;&gt;E5 -->
<g id="edge14" class="edge"><title>E4&#45;&gt;E5</title>
<path fill="none" stroke="black" d="M1852.5,-1120.35C1852.5,-1108.06 1852.5,-1093.17 1852.5,-1079.78"/>
<polygon fill="black" stroke="black" points="1856,-1079.45 1852.5,-1069.45 1849,-1079.45 1856,-1079.45"/>
<text text-anchor="middle" x="1903.5" y="-1091.2" font-family="Times,serif" font-size="14.00">IMPLICIT DOBJ</text>
</g>
<!-- E11 -->
<g id="node12" class="node"><title>E11</title>
<ellipse fill="azure" stroke="black" cx="1862.5" cy="-937.791" rx="32.5538" ry="26.7407"/>
<text text-anchor="middle" x="1862.5" y="-941.591" font-family="Times,serif" font-size="14.00">place</text>
<text text-anchor="middle" x="1862.5" y="-926.591" font-family="Times,serif" font-size="14.00">11</text>
</g>
<!-- E5&#45;&gt;E11 -->
<g id="edge24" class="edge"><title>E5&#45;&gt;E11</title>
<path fill="none" stroke="black" d="M1855.02,-1015.61C1856.22,-1003.32 1857.67,-988.427 1858.97,-975.042"/>
<polygon fill="black" stroke="black" points="1862.49,-975 1859.98,-964.708 1855.53,-974.322 1862.49,-975"/>
<text text-anchor="middle" x="1913.5" y="-986.461" font-family="Times,serif" font-size="14.00">2 layers of noodles</text>
</g>
<!-- E6 -->
<g id="node7" class="node"><title>E6</title>
<ellipse fill="azure" stroke="black" cx="152.5" cy="-1252.01" rx="32.5538" ry="26.7407"/>
<text text-anchor="middle" x="152.5" y="-1255.81" font-family="Times,serif" font-size="14.00">place</text>
<text text-anchor="middle" x="152.5" y="-1240.81" font-family="Times,serif" font-size="14.00">6</text>
</g>
<!-- E7 -->
<g id="node8" class="node"><title>E7</title>
<ellipse fill="azure" stroke="black" cx="306.5" cy="-1147.27" rx="31.6406" ry="26.7407"/>
<text text-anchor="middle" x="306.5" y="-1151.07" font-family="Times,serif" font-size="14.00">cook</text>
<text text-anchor="middle" x="306.5" y="-1136.07" font-family="Times,serif" font-size="14.00">7</text>
</g>
<!-- E6&#45;&gt;E7 -->
<g id="edge15" class="edge"><title>E6&#45;&gt;E7</title>
<path fill="none" stroke="black" d="M167.16,-1227.98C175.708,-1216.02 187.38,-1201.9 200.5,-1192.14 220.227,-1177.47 245.578,-1166.74 266.541,-1159.57"/>
<polygon fill="black" stroke="black" points="267.717,-1162.87 276.131,-1156.43 265.538,-1156.22 267.717,-1162.87"/>
<text text-anchor="middle" x="251.5" y="-1195.94" font-family="Times,serif" font-size="14.00">IMPLICIT DOBJ</text>
</g>
<!-- E8 -->
<g id="node9" class="node"><title>E8</title>
<ellipse fill="azure" stroke="black" cx="537.5" cy="-1042.53" rx="35.2113" ry="26.7407"/>
<text text-anchor="middle" x="537.5" y="-1046.33" font-family="Times,serif" font-size="14.00">stir in</text>
<text text-anchor="middle" x="537.5" y="-1031.33" font-family="Times,serif" font-size="14.00">8</text>
</g>
<!-- E7&#45;&gt;E8 -->
<g id="edge19" class="edge"><title>E7&#45;&gt;E8</title>
<path fill="none" stroke="black" d="M330.595,-1129.64C335.737,-1126.39 341.214,-1123.14 346.5,-1120.4 396.23,-1094.61 456.653,-1071.59 496.04,-1057.61"/>
<polygon fill="black" stroke="black" points="497.308,-1060.88 505.581,-1054.26 494.986,-1054.27 497.308,-1060.88"/>
<text text-anchor="middle" x="469" y="-1091.2" font-family="Times,serif" font-size="14.00">IMPLICIT PREP</text>
</g>
<!-- E9 -->
<g id="node10" class="node"><title>E9</title>
<ellipse fill="azure" stroke="black" cx="890.5" cy="-937.791" rx="41.9398" ry="26.7407"/>
<text text-anchor="middle" x="890.5" y="-941.591" font-family="Times,serif" font-size="14.00">simmer</text>
<text text-anchor="middle" x="890.5" y="-926.591" font-family="Times,serif" font-size="14.00">9</text>
</g>
<!-- E8&#45;&gt;E9 -->
<g id="edge20" class="edge"><title>E8&#45;&gt;E9</title>
<path fill="none" stroke="black" d="M564.526,-1024.56C570.041,-1021.4 575.878,-1018.28 581.5,-1015.66 667.405,-975.612 776.846,-954.727 839.763,-945.301"/>
<polygon fill="black" stroke="black" points="840.437,-948.74 849.826,-943.832 839.426,-941.813 840.437,-948.74"/>
<text text-anchor="middle" x="722.5" y="-986.461" font-family="Times,serif" font-size="14.00">IMPLICIT DOBJ</text>
</g>
<!-- E12 -->
<g id="node13" class="node"><title>E12</title>
<ellipse fill="azure" stroke="black" cx="1778.5" cy="-833.051" rx="31.6406" ry="26.7407"/>
<text text-anchor="middle" x="1778.5" y="-836.851" font-family="Times,serif" font-size="14.00">layer</text>
<text text-anchor="middle" x="1778.5" y="-821.851" font-family="Times,serif" font-size="14.00">12</text>
</g>
<!-- E9&#45;&gt;E12 -->
<g id="edge29" class="edge"><title>E9&#45;&gt;E12</title>
<path fill="none" stroke="black" d="M931.549,-932.042C1079.95,-914.872 1587.67,-856.129 1736.92,-838.861"/>
<polygon fill="black" stroke="black" points="1737.51,-842.317 1747.04,-837.691 1736.7,-835.363 1737.51,-842.317"/>
<text text-anchor="middle" x="1434" y="-881.721" font-family="Times,serif" font-size="14.00">1/2 of the sauce</text>
</g>
<!-- E10 -->
<g id="node11" class="node"><title>E10</title>
<ellipse fill="azure" stroke="black" cx="1694.5" cy="-937.791" rx="46.8387" ry="26.7407"/>
<text text-anchor="middle" x="1694.5" y="-941.591" font-family="Times,serif" font-size="14.00">combine</text>
<text text-anchor="middle" x="1694.5" y="-926.591" font-family="Times,serif" font-size="14.00">10</text>
</g>
<!-- E10&#45;&gt;E12 -->
<g id="edge27" class="edge"><title>E10&#45;&gt;E12</title>
<path fill="none" stroke="black" d="M1689.38,-910.832C1688.59,-899.941 1689.56,-887.589 1695.5,-877.921 1705.13,-862.248 1722.39,-851.868 1738.7,-845.16"/>
<polygon fill="black" stroke="black" points="1739.99,-848.414 1748.12,-841.622 1737.53,-841.861 1739.99,-848.414"/>
<text text-anchor="middle" x="1768" y="-881.721" font-family="Times,serif" font-size="14.00">1/2 of the cheese mixture</text>
</g>
<!-- E11&#45;&gt;E12 -->
<g id="edge30" class="edge"><title>E11&#45;&gt;E12</title>
<path fill="none" stroke="black" d="M1856.62,-911.349C1853.19,-900.304 1848.02,-887.689 1840.5,-877.921 1833.22,-868.468 1823.34,-860.216 1813.61,-853.497"/>
<polygon fill="black" stroke="black" points="1815.45,-850.522 1805.16,-847.996 1811.63,-856.387 1815.45,-850.522"/>
<text text-anchor="middle" x="1900" y="-881.721" font-family="Times,serif" font-size="14.00">IMPLICIT PREP</text>
</g>
<!-- E13 -->
<g id="node14" class="node"><title>E13</title>
<ellipse fill="azure" stroke="black" cx="1842.5" cy="-728.311" rx="36.125" ry="26.7407"/>
<text text-anchor="middle" x="1842.5" y="-732.111" font-family="Times,serif" font-size="14.00">repeat</text>
<text text-anchor="middle" x="1842.5" y="-717.111" font-family="Times,serif" font-size="14.00">13</text>
</g>
<!-- E12&#45;&gt;E13 -->
<g id="edge31" class="edge"><title>E12&#45;&gt;E13</title>
<path fill="none" stroke="black" d="M1773.96,-806.423C1773.27,-795.591 1774.16,-783.193 1779.5,-773.181 1784.88,-763.095 1793.72,-754.844 1803.1,-748.33"/>
<polygon fill="black" stroke="black" points="1805.21,-751.138 1811.79,-742.833 1801.47,-745.223 1805.21,-751.138"/>
<text text-anchor="middle" x="1836.5" y="-776.981" font-family="Times,serif" font-size="14.00">IMPLICIT OTHER</text>
</g>
<!-- E14 -->
<g id="node15" class="node"><title>E14</title>
<ellipse fill="azure" stroke="black" cx="1964.5" cy="-623.571" rx="33.8824" ry="26.7407"/>
<text text-anchor="middle" x="1964.5" y="-627.371" font-family="Times,serif" font-size="14.00">cover</text>
<text text-anchor="middle" x="1964.5" y="-612.371" font-family="Times,serif" font-size="14.00">14</text>
</g>
<!-- E13&#45;&gt;E14 -->
<g id="edge33" class="edge"><title>E13&#45;&gt;E14</title>
<path fill="none" stroke="black" d="M1851.99,-702.118C1857.26,-690.73 1864.75,-677.769 1874.5,-668.441 1888.36,-655.182 1906.99,-645.203 1923.71,-638.139"/>
<polygon fill="black" stroke="black" points="1925.29,-641.275 1933.28,-634.314 1922.69,-634.775 1925.29,-641.275"/>
<text text-anchor="middle" x="1925.5" y="-672.241" font-family="Times,serif" font-size="14.00">IMPLICIT DOBJ</text>
</g>
<!-- E14&#45;&gt;E15 -->
<g id="edge35" class="edge"><title>E14&#45;&gt;E15</title>
<path fill="none" stroke="black" d="M1976.23,-598.267C1983.19,-586.24 1993.08,-572.459 2005.5,-563.701 2030.35,-546.174 2043.74,-558.103 2071.5,-545.701 2074.12,-544.53 2076.76,-543.202 2079.38,-541.781"/>
<polygon fill="black" stroke="black" points="2081.21,-544.76 2088.07,-536.68 2077.67,-538.723 2081.21,-544.76"/>
<text text-anchor="middle" x="2056.5" y="-567.501" font-family="Times,serif" font-size="14.00">IMPLICIT DOBJ</text>
</g>
<!-- E16 -->
<g id="node17" class="node"><title>E16</title>
<ellipse fill="azure" stroke="black" cx="2053.5" cy="-414.09" rx="41.9398" ry="26.7407"/>
<text text-anchor="middle" x="2053.5" y="-417.89" font-family="Times,serif" font-size="14.00">remove</text>
<text text-anchor="middle" x="2053.5" y="-402.89" font-family="Times,serif" font-size="14.00">16</text>
</g>
<!-- E15&#45;&gt;E16 -->
<g id="edge39" class="edge"><title>E15&#45;&gt;E16</title>
<path fill="none" stroke="black" d="M2098.19,-494.26C2090.55,-480.719 2080.82,-463.491 2072.4,-448.566"/>
<polygon fill="black" stroke="black" points="2075.31,-446.611 2067.35,-439.624 2069.22,-450.053 2075.31,-446.611"/>
<text text-anchor="middle" x="2136" y="-462.76" font-family="Times,serif" font-size="14.00">IMPLICIT PREP</text>
</g>
<!-- E17 -->
<g id="node18" class="node"><title>E17</title>
<ellipse fill="azure" stroke="black" cx="1930.5" cy="-309.35" rx="31.2258" ry="26.7407"/>
<text text-anchor="middle" x="1930.5" y="-313.15" font-family="Times,serif" font-size="14.00">bake</text>
<text text-anchor="middle" x="1930.5" y="-298.15" font-family="Times,serif" font-size="14.00">17</text>
</g>
<!-- E16&#45;&gt;E17 -->
<g id="edge40" class="edge"><title>E16&#45;&gt;E17</title>
<path fill="none" stroke="black" d="M2028.61,-392.299C2008.9,-375.839 1981.31,-352.792 1960.41,-335.33"/>
<polygon fill="black" stroke="black" points="1962.39,-332.424 1952.47,-328.7 1957.9,-337.797 1962.39,-332.424"/>
<text text-anchor="middle" x="2050.5" y="-358.02" font-family="Times,serif" font-size="14.00">IMPLICIT DOBJ</text>
</g>
<!-- E18 -->
<g id="node19" class="node"><title>E18</title>
<ellipse fill="azure" stroke="black" cx="1810.5" cy="-204.61" rx="45.011" ry="26.7407"/>
<text text-anchor="middle" x="1810.5" y="-208.41" font-family="Times,serif" font-size="14.00">let stand</text>
<text text-anchor="middle" x="1810.5" y="-193.41" font-family="Times,serif" font-size="14.00">18</text>
</g>
<!-- E17&#45;&gt;E18 -->
<g id="edge42" class="edge"><title>E17&#45;&gt;E18</title>
<path fill="none" stroke="black" d="M1908.77,-289.745C1890.56,-274.157 1864.29,-251.662 1843.49,-233.853"/>
<polygon fill="black" stroke="black" points="1845.68,-231.126 1835.81,-227.281 1841.13,-236.443 1845.68,-231.126"/>
<text text-anchor="middle" x="1929.5" y="-253.28" font-family="Times,serif" font-size="14.00">IMPLICIT DOBJ</text>
</g>
<!-- E19 -->
<g id="node20" class="node"><title>E19</title>
<ellipse fill="azure" stroke="black" cx="1810.5" cy="-99.8701" rx="32.5538" ry="26.7407"/>
<text text-anchor="middle" x="1810.5" y="-103.67" font-family="Times,serif" font-size="14.00">serve</text>
<text text-anchor="middle" x="1810.5" y="-88.6701" font-family="Times,serif" font-size="14.00">19</text>
</g>
<!-- E18&#45;&gt;E19 -->
<g id="edge44" class="edge"><title>E18&#45;&gt;E19</title>
<path fill="none" stroke="black" d="M1810.5,-177.685C1810.5,-165.395 1810.5,-150.507 1810.5,-137.121"/>
<polygon fill="black" stroke="black" points="1814,-136.787 1810.5,-126.787 1807,-136.787 1814,-136.787"/>
<text text-anchor="middle" x="1861.5" y="-148.54" font-family="Times,serif" font-size="14.00">IMPLICIT DOBJ</text>
</g>
<!-- EOR -->
<g id="node46" class="node"><title>EOR</title>
<ellipse fill="plum" stroke="black" cx="1810.5" cy="-18" rx="57.3905" ry="18"/>
<text text-anchor="middle" x="1810.5" y="-14.3" font-family="Times,serif" font-size="14.00">Bon appetit!</text>
</g>
<!-- E19&#45;&gt;EOR -->
<g id="edge45" class="edge"><title>E19&#45;&gt;EOR</title>
<path fill="none" stroke="black" d="M1810.5,-72.7176C1810.5,-64.2726 1810.5,-54.8903 1810.5,-46.3604"/>
<polygon fill="black" stroke="black" points="1814,-46.1464 1810.5,-36.1464 1807,-46.1464 1814,-46.1464"/>
</g>
<!-- D0 -->
<g id="node21" class="node"><title>D0</title>
<polygon fill="white" stroke="black" points="2276.5,-746.311 2188.5,-746.311 2188.5,-710.311 2276.5,-710.311 2276.5,-746.311"/>
<text text-anchor="middle" x="2232.5" y="-724.611" font-family="Times,serif" font-size="14.00">DOBJ: oven</text>
</g>
<!-- D0&#45;&gt;E0 -->
<g id="edge1" class="edge"><title>D0&#45;&gt;E0</title>
<path fill="none" stroke="black" d="M2238.27,-709.882C2242.8,-696.195 2249.25,-676.689 2254.85,-659.782"/>
<polygon fill="black" stroke="black" points="2258.2,-660.785 2258.02,-650.192 2251.56,-658.586 2258.2,-660.785"/>
</g>
<!-- O0_0 -->
<g id="node22" class="node"><title>O0_0</title>
<polygon fill="white" stroke="black" points="2552,-746.311 2295,-746.311 2295,-710.311 2552,-710.311 2552,-746.311"/>
<text text-anchor="middle" x="2423.5" y="-724.611" font-family="Times,serif" font-size="14.00">OTHER: to 375 degrees f (190 degrees c)</text>
</g>
<!-- O0_0&#45;&gt;E0 -->
<g id="edge2" class="edge"><title>O0_0&#45;&gt;E0</title>
<path fill="none" stroke="black" d="M2397.22,-710.114C2371.59,-693.341 2332.36,-667.672 2303.57,-648.827"/>
<polygon fill="black" stroke="black" points="2305.28,-645.762 2294.99,-643.215 2301.44,-651.62 2305.28,-645.762"/>
</g>
<!-- D6 -->
<g id="node23" class="node"><title>D6</title>
<polygon fill="peachpuff" stroke="black" points="119,-1374.75 -7.10543e-15,-1374.75 -7.10543e-15,-1338.75 119,-1338.75 119,-1374.75"/>
<text text-anchor="middle" x="59.5" y="-1353.05" font-family="Times,serif" font-size="14.00">DOBJ: beef, pork</text>
</g>
<!-- D6&#45;&gt;E6 -->
<g id="edge3" class="edge"><title>D6&#45;&gt;E6</title>
<path fill="none" stroke="black" d="M75.2762,-1338.32C89.3331,-1322.79 110.17,-1299.77 126.658,-1281.56"/>
<polygon fill="black" stroke="black" points="129.31,-1283.85 133.426,-1274.08 124.12,-1279.15 129.31,-1283.85"/>
</g>
<!-- P6_0 -->
<g id="node24" class="node"><title>P6_0</title>
<polygon fill="white" stroke="black" points="355.5,-1374.75 137.5,-1374.75 137.5,-1338.75 355.5,-1338.75 355.5,-1374.75"/>
<text text-anchor="middle" x="246.5" y="-1353.05" font-family="Times,serif" font-size="14.00">LOCATION:in a large, deep skillet</text>
</g>
<!-- P6_0&#45;&gt;E6 -->
<g id="edge4" class="edge"><title>P6_0&#45;&gt;E6</title>
<path fill="none" stroke="black" d="M230.554,-1338.32C216.346,-1322.79 195.285,-1299.77 178.62,-1281.56"/>
<polygon fill="black" stroke="black" points="181.112,-1279.1 171.779,-1274.08 175.947,-1283.82 181.112,-1279.1"/>
</g>
<!-- D1 -->
<g id="node25" class="node"><title>D1</title>
<polygon fill="peachpuff" stroke="black" points="1726.5,-1561.36 1476.5,-1561.36 1476.5,-1525.36 1726.5,-1525.36 1726.5,-1561.36"/>
<text text-anchor="middle" x="1601.5" y="-1539.66" font-family="Times,serif" font-size="14.00">DOBJ: a large pot of lightly salted water</text>
</g>
<!-- D1&#45;&gt;E1 -->
<g id="edge5" class="edge"><title>D1&#45;&gt;E1</title>
<path fill="none" stroke="black" d="M1623.42,-1525.03C1637.22,-1514.11 1655.27,-1499.84 1670.65,-1487.68"/>
<polygon fill="black" stroke="black" points="1673.19,-1490.13 1678.87,-1481.18 1668.85,-1484.64 1673.19,-1490.13"/>
</g>
<!-- O1_0 -->
<g id="node26" class="node"><title>O1_0</title>
<polygon fill="white" stroke="black" points="1864,-1561.36 1745,-1561.36 1745,-1525.36 1864,-1525.36 1864,-1561.36"/>
<text text-anchor="middle" x="1804.5" y="-1539.66" font-family="Times,serif" font-size="14.00">OTHER: to a boil</text>
</g>
<!-- O1_0&#45;&gt;E1 -->
<g id="edge6" class="edge"><title>O1_0&#45;&gt;E1</title>
<path fill="none" stroke="black" d="M1782.62,-1525.23C1768.46,-1514.14 1749.8,-1499.53 1734.05,-1487.2"/>
<polygon fill="black" stroke="black" points="1736.15,-1484.4 1726.12,-1480.99 1731.84,-1489.91 1736.15,-1484.4"/>
</g>
<!-- D10 -->
<g id="node27" class="node"><title>D10</title>
<polygon fill="peachpuff" stroke="black" points="1589.5,-1060.53 1193.5,-1060.53 1193.5,-1024.53 1589.5,-1024.53 1589.5,-1060.53"/>
<text text-anchor="middle" x="1391.5" y="-1038.83" font-family="Times,serif" font-size="14.00">DOBJ: eggs, cottage cheese, parmesan cheese, pepper, parsley, salt</text>
</g>
<!-- D10&#45;&gt;E10 -->
<g id="edge7" class="edge"><title>D10&#45;&gt;E10</title>
<path fill="none" stroke="black" d="M1441.87,-1024.45C1498.23,-1005.34 1588.94,-974.583 1644.96,-955.589"/>
<polygon fill="black" stroke="black" points="1646.31,-958.827 1654.66,-952.301 1644.06,-952.197 1646.31,-958.827"/>
</g>
<!-- P10_0 -->
<g id="node28" class="node"><title>P10_0</title>
<polygon fill="white" stroke="black" points="1789,-1060.53 1608,-1060.53 1608,-1024.53 1789,-1024.53 1789,-1060.53"/>
<text text-anchor="middle" x="1698.5" y="-1038.83" font-family="Times,serif" font-size="14.00">LOCATION:in a large bowl</text>
</g>
<!-- P10_0&#45;&gt;E10 -->
<g id="edge8" class="edge"><title>P10_0&#45;&gt;E10</title>
<path fill="none" stroke="black" d="M1697.82,-1024.1C1697.3,-1010.64 1696.55,-991.542 1695.9,-974.83"/>
<polygon fill="black" stroke="black" points="1699.4,-974.66 1695.51,-964.804 1692.4,-974.932 1699.4,-974.66"/>
</g>
<!-- D2_ing -->
<g id="node29" class="node"><title>D2_ing</title>
<polygon fill="peachpuff" stroke="black" points="1871,-1479.49 1766,-1479.49 1766,-1443.49 1871,-1443.49 1871,-1479.49"/>
<text text-anchor="middle" x="1818.5" y="-1457.79" font-family="Times,serif" font-size="14.00">DOBJ: noodles</text>
</g>
<!-- D2_ing&#45;&gt;E2 -->
<g id="edge9" class="edge"><title>D2_ing&#45;&gt;E2</title>
<path fill="none" stroke="black" d="M1816.94,-1443.35C1815.25,-1431.09 1811.73,-1414.55 1804.5,-1401.62 1800.43,-1394.34 1794.8,-1387.46 1788.93,-1381.39"/>
<polygon fill="black" stroke="black" points="1791.08,-1378.61 1781.46,-1374.18 1786.22,-1383.64 1791.08,-1378.61"/>
</g>
<!-- O3_0_0 -->
<g id="node30" class="node"><title>O3_0_0</title>
<polygon fill="white" stroke="black" points="2083.5,-1374.75 1805.5,-1374.75 1805.5,-1338.75 2083.5,-1338.75 2083.5,-1374.75"/>
<text text-anchor="middle" x="1944.5" y="-1353.05" font-family="Times,serif" font-size="14.00">OTHER: for 8 to 10 minutes or until al dente</text>
</g>
<!-- O3_0_0&#45;&gt;E3 -->
<g id="edge12" class="edge"><title>O3_0_0&#45;&gt;E3</title>
<path fill="none" stroke="black" d="M1939.79,-1338.61C1935.7,-1326.04 1928.79,-1309.1 1918.5,-1296.88 1910.19,-1287.02 1899.12,-1278.49 1888.42,-1271.65"/>
<polygon fill="black" stroke="black" points="1889.95,-1268.49 1879.58,-1266.31 1886.33,-1274.48 1889.95,-1268.49"/>
</g>
<!-- O7_0_0 -->
<g id="node31" class="node"><title>O7_0_0</title>
<polygon fill="white" stroke="black" points="409.5,-1270.01 203.5,-1270.01 203.5,-1234.01 409.5,-1234.01 409.5,-1270.01"/>
<text text-anchor="middle" x="306.5" y="-1248.31" font-family="Times,serif" font-size="14.00">OTHER: over medium high heat</text>
</g>
<!-- O7_0_0&#45;&gt;E7 -->
<g id="edge16" class="edge"><title>O7_0_0&#45;&gt;E7</title>
<path fill="none" stroke="black" d="M306.5,-1233.58C306.5,-1220.12 306.5,-1201.02 306.5,-1184.31"/>
<polygon fill="black" stroke="black" points="310,-1184.28 306.5,-1174.28 303,-1184.28 310,-1184.28"/>
</g>
<!-- O7_1_0 -->
<g id="node32" class="node"><title>O7_1_0</title>
<polygon fill="white" stroke="black" points="609.5,-1270.01 427.5,-1270.01 427.5,-1234.01 609.5,-1234.01 609.5,-1270.01"/>
<text text-anchor="middle" x="518.5" y="-1248.31" font-family="Times,serif" font-size="14.00">OTHER: until evenly brown</text>
</g>
<!-- O7_1_0&#45;&gt;E7 -->
<g id="edge17" class="edge"><title>O7_1_0&#45;&gt;E7</title>
<path fill="none" stroke="black" d="M475.567,-1233.99C440.229,-1219.46 389.19,-1197.31 346.5,-1174.14 344.21,-1172.9 341.878,-1171.57 339.549,-1170.2"/>
<polygon fill="black" stroke="black" points="341.03,-1167 330.676,-1164.75 337.37,-1172.96 341.03,-1167"/>
</g>
<!-- D8_ing -->
<g id="node33" class="node"><title>D8_ing</title>
<polygon fill="peachpuff" stroke="black" points="875,-1165.27 356,-1165.27 356,-1129.27 875,-1129.27 875,-1165.27"/>
<text text-anchor="middle" x="615.5" y="-1143.57" font-family="Times,serif" font-size="14.00">DOBJ: garlic, tomato sauce, oregano, basil, parsley, onion, salt, sugar, crushed tomatoes</text>
</g>
<!-- D8_ing&#45;&gt;E8 -->
<g id="edge18" class="edge"><title>D8_ing&#45;&gt;E8</title>
<path fill="none" stroke="black" d="M602.268,-1128.84C590.988,-1113.98 574.502,-1092.27 560.986,-1074.47"/>
<polygon fill="black" stroke="black" points="563.459,-1071.94 554.625,-1066.09 557.884,-1076.17 563.459,-1071.94"/>
</g>
<!-- O9_0_0 -->
<g id="node34" class="node"><title>O9_0_0</title>
<polygon fill="white" stroke="black" points="794,-1060.53 591,-1060.53 591,-1024.53 794,-1024.53 794,-1060.53"/>
<text text-anchor="middle" x="692.5" y="-1038.83" font-family="Times,serif" font-size="14.00">OTHER: over medium&#45;low heat</text>
</g>
<!-- O9_0_0&#45;&gt;E9 -->
<g id="edge21" class="edge"><title>O9_0_0&#45;&gt;E9</title>
<path fill="none" stroke="black" d="M725.641,-1024.33C759.741,-1006.64 812.92,-979.046 849.612,-960.007"/>
<polygon fill="black" stroke="black" points="851.3,-963.075 858.564,-955.362 848.076,-956.861 851.3,-963.075"/>
</g>
<!-- O9_1_0 -->
<g id="node35" class="node"><title>O9_1_0</title>
<polygon fill="white" stroke="black" points="969,-1060.53 812,-1060.53 812,-1024.53 969,-1024.53 969,-1060.53"/>
<text text-anchor="middle" x="890.5" y="-1038.83" font-family="Times,serif" font-size="14.00">OTHER: for 30 minutes</text>
</g>
<!-- O9_1_0&#45;&gt;E9 -->
<g id="edge22" class="edge"><title>O9_1_0&#45;&gt;E9</title>
<path fill="none" stroke="black" d="M890.5,-1024.1C890.5,-1010.64 890.5,-991.542 890.5,-974.83"/>
<polygon fill="black" stroke="black" points="894,-974.804 890.5,-964.804 887,-974.804 894,-974.804"/>
</g>
<!-- O9_2_0 -->
<g id="node36" class="node"><title>O9_2_0</title>
<polygon fill="white" stroke="black" points="1175.5,-1060.53 987.5,-1060.53 987.5,-1024.53 1175.5,-1024.53 1175.5,-1060.53"/>
<text text-anchor="middle" x="1081.5" y="-1038.83" font-family="Times,serif" font-size="14.00">OTHER: stirring occasionally</text>
</g>
<!-- O9_2_0&#45;&gt;E9 -->
<g id="edge23" class="edge"><title>O9_2_0&#45;&gt;E9</title>
<path fill="none" stroke="black" d="M1049.53,-1024.33C1016.97,-1006.82 966.378,-979.606 931.026,-960.59"/>
<polygon fill="black" stroke="black" points="932.403,-957.356 921.938,-955.702 929.086,-963.521 932.403,-957.356"/>
</g>
<!-- P11_0_0 -->
<g id="node37" class="node"><title>P11_0_0</title>
<polygon fill="white" stroke="black" points="2163.5,-1060.53 1915.5,-1060.53 1915.5,-1024.53 2163.5,-1024.53 2163.5,-1060.53"/>
<text text-anchor="middle" x="2039.5" y="-1038.83" font-family="Times,serif" font-size="14.00">LOCATION:in a 9x13 inch baking dish</text>
</g>
<!-- P11_0_0&#45;&gt;E11 -->
<g id="edge25" class="edge"><title>P11_0_0&#45;&gt;E11</title>
<path fill="none" stroke="black" d="M2024.34,-1024.41C2011.71,-1011.16 1992.6,-993.334 1972.5,-982.661 1944.51,-967.8 1932.58,-977.266 1903.5,-964.661 1900.98,-963.569 1898.44,-962.335 1895.92,-961.013"/>
<polygon fill="black" stroke="black" points="1897.4,-957.831 1886.98,-955.938 1893.95,-963.919 1897.4,-957.831"/>
</g>
<!-- P11_1_0 -->
<g id="node38" class="node"><title>P11_1_0</title>
<polygon fill="white" stroke="black" points="2399.5,-1060.53 2181.5,-1060.53 2181.5,-1024.53 2399.5,-1024.53 2399.5,-1060.53"/>
<text text-anchor="middle" x="2290.5" y="-1038.83" font-family="Times,serif" font-size="14.00">LOCATION:on the bottom of dish</text>
</g>
<!-- P11_1_0&#45;&gt;E11 -->
<g id="edge26" class="edge"><title>P11_1_0&#45;&gt;E11</title>
<path fill="none" stroke="black" d="M2214.4,-1024.51C2200.47,-1021.5 2186.06,-1018.43 2172.5,-1015.66 2095.38,-999.898 2075.83,-997.321 1998.5,-982.661 1956.28,-974.657 1943.49,-980.404 1903.5,-964.661 1900.94,-963.655 1898.38,-962.485 1895.84,-961.21"/>
<polygon fill="black" stroke="black" points="1897.3,-958.019 1886.86,-956.232 1893.91,-964.142 1897.3,-958.019"/>
</g>
<!-- D12_1 -->
<g id="node39" class="node"><title>D12_1</title>
<polygon fill="white" stroke="black" points="2134,-955.791 1913,-955.791 1913,-919.791 2134,-919.791 2134,-955.791"/>
<text text-anchor="middle" x="2023.5" y="-934.091" font-family="Times,serif" font-size="14.00">DOBJ: 1/2 of the mozzarella cheese</text>
</g>
<!-- D12_1&#45;&gt;E12 -->
<g id="edge28" class="edge"><title>D12_1&#45;&gt;E12</title>
<path fill="none" stroke="black" d="M2008.57,-919.717C1995.66,-906.129 1975.78,-887.808 1954.5,-877.921 1909.97,-857.229 1892.87,-872.832 1845.5,-859.921 1835.77,-857.269 1825.5,-853.709 1816,-850.081"/>
<polygon fill="black" stroke="black" points="1817.02,-846.722 1806.43,-846.31 1814.45,-853.234 1817.02,-846.722"/>
</g>
<!-- O13_1_0 -->
<g id="node40" class="node"><title>O13_1_0</title>
<polygon fill="white" stroke="black" points="1960.5,-851.051 1854.5,-851.051 1854.5,-815.051 1960.5,-815.051 1960.5,-851.051"/>
<text text-anchor="middle" x="1907.5" y="-829.351" font-family="Times,serif" font-size="14.00">OTHER: layers</text>
</g>
<!-- O13_1_0&#45;&gt;E13 -->
<g id="edge32" class="edge"><title>O13_1_0&#45;&gt;E13</title>
<path fill="none" stroke="black" d="M1906.26,-815.006C1904.72,-802.642 1901.26,-785.922 1893.5,-773.181 1889.14,-766.027 1883.23,-759.438 1876.96,-753.659"/>
<polygon fill="black" stroke="black" points="1878.81,-750.633 1868.94,-746.791 1874.26,-755.952 1878.81,-750.633"/>
</g>
<!-- P14_0_0 -->
<g id="node41" class="node"><title>P14_0_0</title>
<polygon fill="white" stroke="black" points="2102,-746.311 1897,-746.311 1897,-710.311 2102,-710.311 2102,-746.311"/>
<text text-anchor="middle" x="1999.5" y="-724.611" font-family="Times,serif" font-size="14.00">COOBJECT:with aluminum foil</text>
</g>
<!-- P14_0_0&#45;&gt;E14 -->
<g id="edge34" class="edge"><title>P14_0_0&#45;&gt;E14</title>
<path fill="none" stroke="black" d="M1993.56,-709.882C1988.87,-696.099 1982.16,-676.416 1976.37,-659.428"/>
<polygon fill="black" stroke="black" points="1979.63,-658.14 1973.1,-649.802 1973.01,-660.397 1979.63,-658.14"/>
</g>
<!-- O15_0_0 -->
<g id="node42" class="node"><title>O15_0_0</title>
<polygon fill="white" stroke="black" points="2207,-641.571 2016,-641.571 2016,-605.571 2207,-605.571 2207,-641.571"/>
<text text-anchor="middle" x="2111.5" y="-619.871" font-family="Times,serif" font-size="14.00">OTHER: for 30 to 40 minutes</text>
</g>
<!-- O15_0_0&#45;&gt;E15 -->
<g id="edge37" class="edge"><title>O15_0_0&#45;&gt;E15</title>
<path fill="none" stroke="black" d="M2111.5,-605.142C2111.5,-591.678 2111.5,-572.582 2111.5,-555.87"/>
<polygon fill="black" stroke="black" points="2115,-555.843 2111.5,-545.843 2108,-555.843 2115,-555.843"/>
</g>
<!-- D16_0 -->
<g id="node43" class="node"><title>D16_0</title>
<polygon fill="white" stroke="black" points="2062.5,-536.831 1982.5,-536.831 1982.5,-500.831 2062.5,-500.831 2062.5,-536.831"/>
<text text-anchor="middle" x="2022.5" y="-515.131" font-family="Times,serif" font-size="14.00">DOBJ: foil</text>
</g>
<!-- D16_0&#45;&gt;E16 -->
<g id="edge38" class="edge"><title>D16_0&#45;&gt;E16</title>
<path fill="none" stroke="black" d="M2027.76,-500.402C2031.89,-486.715 2037.77,-467.208 2042.88,-450.302"/>
<polygon fill="black" stroke="black" points="2046.23,-451.297 2045.77,-440.712 2039.53,-449.274 2046.23,-451.297"/>
</g>
<!-- O17_0_0 -->
<g id="node44" class="node"><title>O17_0_0</title>
<polygon fill="white" stroke="black" points="1993.5,-432.09 1763.5,-432.09 1763.5,-396.09 1993.5,-396.09 1993.5,-432.09"/>
<text text-anchor="middle" x="1878.5" y="-410.39" font-family="Times,serif" font-size="14.00">OTHER: for another 5 to 10 minutes</text>
</g>
<!-- O17_0_0&#45;&gt;E17 -->
<g id="edge41" class="edge"><title>O17_0_0&#45;&gt;E17</title>
<path fill="none" stroke="black" d="M1887.32,-395.662C1894.51,-381.46 1904.87,-360.994 1913.64,-343.667"/>
<polygon fill="black" stroke="black" points="1916.92,-344.927 1918.32,-334.424 1910.68,-341.766 1916.92,-344.927"/>
</g>
<!-- O18_0_0 -->
<g id="node45" class="node"><title>O18_0_0</title>
<polygon fill="white" stroke="black" points="1881,-327.35 1640,-327.35 1640,-291.35 1881,-291.35 1881,-327.35"/>
<text text-anchor="middle" x="1760.5" y="-305.65" font-family="Times,serif" font-size="14.00">OTHER: for 10 minutes before cutting</text>
</g>
<!-- O18_0_0&#45;&gt;E18 -->
<g id="edge43" class="edge"><title>O18_0_0&#45;&gt;E18</title>
<path fill="none" stroke="black" d="M1768.98,-290.922C1775.75,-277.01 1785.45,-257.087 1793.77,-239.992"/>
<polygon fill="black" stroke="black" points="1796.99,-241.365 1798.22,-230.842 1790.7,-238.302 1796.99,-241.365"/>
</g>
</g>
</svg>
