<?xml version="1.0" encoding="UTF-8" standalone="no"?>
<!DOCTYPE svg PUBLIC "-//W3C//DTD SVG 1.1//EN"
 "http://www.w3.org/Graphics/SVG/1.1/DTD/svg11.dtd">
<!-- Generated by graphviz version 2.38.0 (20140413.2041)
 -->
<!-- Title: recipe Pages: 1 -->
<svg width="1276pt" height="627pt"
 viewBox="0.00 0.00 1275.50 626.70" xmlns="http://www.w3.org/2000/svg" xmlns:xlink="http://www.w3.org/1999/xlink">
<g id="graph0" class="graph" transform="scale(1 1) rotate(0) translate(4 622.701)">
<title>recipe</title>
<polygon fill="white" stroke="none" points="-4,4 -4,-622.701 1271.5,-622.701 1271.5,4 -4,4"/>
<!-- E0 -->
<g id="node1" class="node"><title>E0</title>
<ellipse fill="azure" stroke="black" cx="1066" cy="-204.61" rx="41.9398" ry="26.7407"/>
<text text-anchor="middle" x="1066" y="-208.41" font-family="Times,serif" font-size="14.00">preheat</text>
<text text-anchor="middle" x="1066" y="-193.41" font-family="Times,serif" font-size="14.00">0</text>
</g>
<!-- E5 -->
<g id="node6" class="node"><title>E5</title>
<ellipse fill="azure" stroke="black" cx="812" cy="-99.8701" rx="31.2258" ry="26.7407"/>
<text text-anchor="middle" x="812" y="-103.67" font-family="Times,serif" font-size="14.00">bake</text>
<text text-anchor="middle" x="812" y="-88.6701" font-family="Times,serif" font-size="14.00">5</text>
</g>
<!-- E0&#45;&gt;E5 -->
<g id="edge11" class="edge"><title>E0&#45;&gt;E5</title>
<path fill="none" stroke="black" d="M1034.42,-186.93C1028.05,-183.753 1021.36,-180.547 1015,-177.74 958.626,-152.855 891.447,-128.398 850.266,-113.975"/>
<polygon fill="black" stroke="black" points="851.225,-110.603 840.631,-110.617 848.922,-117.213 851.225,-110.603"/>
<text text-anchor="middle" x="1022.5" y="-148.54" font-family="Times,serif" font-size="14.00">IMPLICIT PREP</text>
</g>
<!-- E1 -->
<g id="node2" class="node"><title>E1</title>
<ellipse fill="azure" stroke="black" cx="281" cy="-518.831" rx="46.8387" ry="26.7407"/>
<text text-anchor="middle" x="281" y="-522.631" font-family="Times,serif" font-size="14.00">combine</text>
<text text-anchor="middle" x="281" y="-507.631" font-family="Times,serif" font-size="14.00">1</text>
</g>
<!-- E2 -->
<g id="node3" class="node"><title>E2</title>
<ellipse fill="azure" stroke="black" cx="339" cy="-414.09" rx="27.6545" ry="26.7407"/>
<text text-anchor="middle" x="339" y="-417.89" font-family="Times,serif" font-size="14.00">mix</text>
<text text-anchor="middle" x="339" y="-402.89" font-family="Times,serif" font-size="14.00">2</text>
</g>
<!-- E1&#45;&gt;E2 -->
<g id="edge4" class="edge"><title>E1&#45;&gt;E2</title>
<path fill="none" stroke="black" d="M276.676,-492.03C276.054,-481.288 276.949,-469.006 282,-458.96 287.38,-448.261 296.729,-439.421 306.318,-432.549"/>
<polygon fill="black" stroke="black" points="308.287,-435.443 314.713,-427.019 304.436,-429.597 308.287,-435.443"/>
<text text-anchor="middle" x="333" y="-462.76" font-family="Times,serif" font-size="14.00">IMPLICIT DOBJ</text>
</g>
<!-- E3 -->
<g id="node4" class="node"><title>E3</title>
<ellipse fill="azure" stroke="black" cx="464" cy="-309.35" rx="31.2258" ry="26.7407"/>
<text text-anchor="middle" x="464" y="-313.15" font-family="Times,serif" font-size="14.00">pour</text>
<text text-anchor="middle" x="464" y="-298.15" font-family="Times,serif" font-size="14.00">3</text>
</g>
<!-- E2&#45;&gt;E3 -->
<g id="edge6" class="edge"><title>E2&#45;&gt;E3</title>
<path fill="none" stroke="black" d="M352.904,-390.568C360.965,-378.754 371.901,-364.617 384,-354.22 396.812,-343.211 412.832,-333.762 427.164,-326.482"/>
<polygon fill="black" stroke="black" points="428.844,-329.557 436.288,-322.018 425.767,-323.269 428.844,-329.557"/>
<text text-anchor="middle" x="435" y="-358.02" font-family="Times,serif" font-size="14.00">IMPLICIT DOBJ</text>
</g>
<!-- E4 -->
<g id="node5" class="node"><title>E4</title>
<ellipse fill="azure" stroke="black" cx="591" cy="-204.61" rx="27" ry="26.7407"/>
<text text-anchor="middle" x="591" y="-208.41" font-family="Times,serif" font-size="14.00">top</text>
<text text-anchor="middle" x="591" y="-193.41" font-family="Times,serif" font-size="14.00">4</text>
</g>
<!-- E3&#45;&gt;E4 -->
<g id="edge8" class="edge"><title>E3&#45;&gt;E4</title>
<path fill="none" stroke="black" d="M484.123,-288.529C496.425,-276.748 512.69,-261.759 528,-249.48 538.154,-241.337 549.728,-233.022 560.162,-225.853"/>
<polygon fill="black" stroke="black" points="562.291,-228.638 568.602,-220.128 558.362,-222.845 562.291,-228.638"/>
<text text-anchor="middle" x="579" y="-253.28" font-family="Times,serif" font-size="14.00">IMPLICIT DOBJ</text>
</g>
<!-- E4&#45;&gt;E5 -->
<g id="edge10" class="edge"><title>E4&#45;&gt;E5</title>
<path fill="none" stroke="black" d="M607.429,-183.176C618.715,-170.405 634.734,-154.572 652,-144.74 689.427,-123.429 737.72,-112.046 771.416,-106.264"/>
<polygon fill="black" stroke="black" points="772.068,-109.704 781.377,-104.645 770.945,-102.795 772.068,-109.704"/>
<text text-anchor="middle" x="703" y="-148.54" font-family="Times,serif" font-size="14.00">IMPLICIT DOBJ</text>
</g>
<!-- EOR -->
<g id="node15" class="node"><title>EOR</title>
<ellipse fill="plum" stroke="black" cx="812" cy="-18" rx="57.3905" ry="18"/>
<text text-anchor="middle" x="812" y="-14.3" font-family="Times,serif" font-size="14.00">Bon appetit!</text>
</g>
<!-- E5&#45;&gt;EOR -->
<g id="edge14" class="edge"><title>E5&#45;&gt;EOR</title>
<path fill="none" stroke="black" d="M812,-72.7176C812,-64.2726 812,-54.8903 812,-46.3604"/>
<polygon fill="black" stroke="black" points="815.5,-46.1464 812,-36.1464 808.5,-46.1464 815.5,-46.1464"/>
</g>
<!-- D0 -->
<g id="node7" class="node"><title>D0</title>
<polygon fill="white" stroke="black" points="992,-327.35 904,-327.35 904,-291.35 992,-291.35 992,-327.35"/>
<text text-anchor="middle" x="948" y="-305.65" font-family="Times,serif" font-size="14.00">DOBJ: oven</text>
</g>
<!-- D0&#45;&gt;E0 -->
<g id="edge1" class="edge"><title>D0&#45;&gt;E0</title>
<path fill="none" stroke="black" d="M967.751,-291.154C985.785,-275.451 1012.77,-251.952 1033.9,-233.555"/>
<polygon fill="black" stroke="black" points="1036.44,-235.986 1041.69,-226.78 1031.85,-230.707 1036.44,-235.986"/>
</g>
<!-- O0_0 -->
<g id="node8" class="node"><title>O0_0</title>
<polygon fill="white" stroke="black" points="1267.5,-327.35 1010.5,-327.35 1010.5,-291.35 1267.5,-291.35 1267.5,-327.35"/>
<text text-anchor="middle" x="1139" y="-305.65" font-family="Times,serif" font-size="14.00">OTHER: to 350 degrees f (175 degrees c)</text>
</g>
<!-- O0_0&#45;&gt;E0 -->
<g id="edge2" class="edge"><title>O0_0&#45;&gt;E0</title>
<path fill="none" stroke="black" d="M1126.62,-290.922C1116.27,-276.359 1101.24,-255.208 1088.74,-237.611"/>
<polygon fill="black" stroke="black" points="1091.48,-235.426 1082.83,-229.302 1085.77,-239.481 1091.48,-235.426"/>
</g>
<!-- D1 -->
<g id="node9" class="node"><title>D1</title>
<polygon fill="peachpuff" stroke="black" points="562,-618.701 0,-618.701 0,-582.701 562,-582.701 562,-618.701"/>
<text text-anchor="middle" x="281" y="-597.001" font-family="Times,serif" font-size="14.00">DOBJ: pimento, almonds, celery, bell pepper, the chicken, mayonnaise, onion, lemon juice, salt</text>
</g>
<!-- D1&#45;&gt;E1 -->
<g id="edge3" class="edge"><title>D1&#45;&gt;E1</title>
<path fill="none" stroke="black" d="M281,-582.37C281,-574.636 281,-565.216 281,-556.059"/>
<polygon fill="black" stroke="black" points="284.5,-555.935 281,-545.935 277.5,-555.935 284.5,-555.935"/>
</g>
<!-- O2_0_0 -->
<g id="node10" class="node"><title>O2_0_0</title>
<polygon fill="white" stroke="black" points="446.5,-536.831 349.5,-536.831 349.5,-500.831 446.5,-500.831 446.5,-536.831"/>
<text text-anchor="middle" x="398" y="-515.131" font-family="Times,serif" font-size="14.00">OTHER: well</text>
</g>
<!-- O2_0_0&#45;&gt;E2 -->
<g id="edge5" class="edge"><title>O2_0_0&#45;&gt;E2</title>
<path fill="none" stroke="black" d="M396.486,-500.665C394.811,-488.396 391.306,-471.846 384,-458.96 379.838,-451.62 374.083,-444.71 368.078,-438.641"/>
<polygon fill="black" stroke="black" points="370.114,-435.751 360.439,-431.434 365.311,-440.843 370.114,-435.751"/>
</g>
<!-- P3_0_0 -->
<g id="node11" class="node"><title>P3_0_0</title>
<polygon fill="white" stroke="black" points="661,-432.09 385,-432.09 385,-396.09 661,-396.09 661,-432.09"/>
<text text-anchor="middle" x="523" y="-410.39" font-family="Times,serif" font-size="14.00">LOCATION:into a 1 1/2 quart casserole dish</text>
</g>
<!-- P3_0_0&#45;&gt;E3 -->
<g id="edge7" class="edge"><title>P3_0_0&#45;&gt;E3</title>
<path fill="none" stroke="black" d="M512.991,-395.662C504.648,-381.134 492.541,-360.05 482.449,-342.477"/>
<polygon fill="black" stroke="black" points="485.402,-340.59 477.387,-333.662 479.332,-344.076 485.402,-340.59"/>
</g>
<!-- P4_0_ing -->
<g id="node12" class="node"><title>P4_0_ing</title>
<polygon fill="peachpuff" stroke="black" points="863,-327.35 513,-327.35 513,-291.35 863,-291.35 863,-327.35"/>
<text text-anchor="middle" x="688" y="-305.65" font-family="Times,serif" font-size="14.00">COOBJECT: with the crushed potato chips, grated cheese</text>
</g>
<!-- P4_0_ing&#45;&gt;E4 -->
<g id="edge9" class="edge"><title>P4_0_ing&#45;&gt;E4</title>
<path fill="none" stroke="black" d="M671.545,-290.922C656.411,-274.892 633.741,-250.88 616.304,-232.411"/>
<polygon fill="black" stroke="black" points="618.598,-229.743 609.188,-224.875 613.508,-234.549 618.598,-229.743"/>
</g>
<!-- O5_0_0 -->
<g id="node13" class="node"><title>O5_0_0</title>
<polygon fill="white" stroke="black" points="793.5,-222.61 636.5,-222.61 636.5,-186.61 793.5,-186.61 793.5,-222.61"/>
<text text-anchor="middle" x="715" y="-200.91" font-family="Times,serif" font-size="14.00">OTHER: for 25 minutes</text>
</g>
<!-- O5_0_0&#45;&gt;E5 -->
<g id="edge12" class="edge"><title>O5_0_0&#45;&gt;E5</title>
<path fill="none" stroke="black" d="M731.455,-186.182C746.305,-170.452 768.412,-147.038 785.71,-128.716"/>
<polygon fill="black" stroke="black" points="788.474,-130.886 792.794,-121.212 783.384,-126.081 788.474,-130.886"/>
</g>
<!-- O5_1_0 -->
<g id="node14" class="node"><title>O5_1_0</title>
<polygon fill="white" stroke="black" points="1006,-222.61 812,-222.61 812,-186.61 1006,-186.61 1006,-222.61"/>
<text text-anchor="middle" x="909" y="-200.91" font-family="Times,serif" font-size="14.00">OTHER: until cheese is melted</text>
</g>
<!-- O5_1_0&#45;&gt;E5 -->
<g id="edge13" class="edge"><title>O5_1_0&#45;&gt;E5</title>
<path fill="none" stroke="black" d="M892.545,-186.182C877.695,-170.452 855.588,-147.038 838.29,-128.716"/>
<polygon fill="black" stroke="black" points="840.616,-126.081 831.206,-121.212 835.526,-130.886 840.616,-126.081"/>
</g>
</g>
</svg>
