<?xml version="1.0" encoding="UTF-8" standalone="no"?>
<!DOCTYPE svg PUBLIC "-//W3C//DTD SVG 1.1//EN"
 "http://www.w3.org/Graphics/SVG/1.1/DTD/svg11.dtd">
<!-- Generated by graphviz version 2.38.0 (20140413.2041)
 -->
<!-- Title: recipe Pages: 1 -->
<svg width="1586pt" height="836pt"
 viewBox="0.00 0.00 1586.00 836.18" xmlns="http://www.w3.org/2000/svg" xmlns:xlink="http://www.w3.org/1999/xlink">
<g id="graph0" class="graph" transform="scale(1 1) rotate(0) translate(4 832.181)">
<title>recipe</title>
<polygon fill="white" stroke="none" points="-4,4 -4,-832.181 1582,-832.181 1582,4 -4,4"/>
<!-- E0 -->
<g id="node1" class="node"><title>E0</title>
<ellipse fill="azure" stroke="black" cx="1354.5" cy="-204.61" rx="41.9398" ry="26.7407"/>
<text text-anchor="middle" x="1354.5" y="-208.41" font-family="Times,serif" font-size="14.00">preheat</text>
<text text-anchor="middle" x="1354.5" y="-193.41" font-family="Times,serif" font-size="14.00">0</text>
</g>
<!-- E8 -->
<g id="node9" class="node"><title>E8</title>
<ellipse fill="azure" stroke="black" cx="830.5" cy="-99.8701" rx="31.2258" ry="26.7407"/>
<text text-anchor="middle" x="830.5" y="-103.67" font-family="Times,serif" font-size="14.00">bake</text>
<text text-anchor="middle" x="830.5" y="-88.6701" font-family="Times,serif" font-size="14.00">8</text>
</g>
<!-- E0&#45;&gt;E8 -->
<g id="edge19" class="edge"><title>E0&#45;&gt;E8</title>
<path fill="none" stroke="black" d="M1323.87,-186.163C1317.3,-182.973 1310.3,-179.957 1303.5,-177.74 1149.14,-127.397 955.251,-109.137 871.801,-103.301"/>
<polygon fill="black" stroke="black" points="871.925,-99.8019 861.711,-102.619 871.453,-106.786 871.925,-99.8019"/>
<text text-anchor="middle" x="1321.5" y="-148.54" font-family="Times,serif" font-size="14.00">OTHER:the preheated oven</text>
</g>
<!-- E1 -->
<g id="node2" class="node"><title>E1</title>
<ellipse fill="azure" stroke="black" cx="336.5" cy="-414.09" rx="37.4533" ry="26.7407"/>
<text text-anchor="middle" x="336.5" y="-417.89" font-family="Times,serif" font-size="14.00">grease</text>
<text text-anchor="middle" x="336.5" y="-402.89" font-family="Times,serif" font-size="14.00">1</text>
</g>
<!-- E6 -->
<g id="node7" class="node"><title>E6</title>
<ellipse fill="azure" stroke="black" cx="466.5" cy="-309.35" rx="32.5538" ry="26.7407"/>
<text text-anchor="middle" x="466.5" y="-313.15" font-family="Times,serif" font-size="14.00">place</text>
<text text-anchor="middle" x="466.5" y="-298.15" font-family="Times,serif" font-size="14.00">6</text>
</g>
<!-- E1&#45;&gt;E6 -->
<g id="edge12" class="edge"><title>E1&#45;&gt;E6</title>
<path fill="none" stroke="black" d="M330.745,-387.537C329.686,-376.34 330.635,-363.636 337.5,-354.22 357.197,-327.205 394.465,-316.647 423.898,-312.61"/>
<polygon fill="black" stroke="black" points="424.414,-316.074 433.941,-311.438 423.603,-309.121 424.414,-316.074"/>
<text text-anchor="middle" x="456" y="-358.02" font-family="Times,serif" font-size="14.00">LOCATION:on the prepared baking pan</text>
</g>
<!-- E2 -->
<g id="node3" class="node"><title>E2</title>
<ellipse fill="azure" stroke="black" cx="299.5" cy="-728.311" rx="32.5538" ry="26.7407"/>
<text text-anchor="middle" x="299.5" y="-732.111" font-family="Times,serif" font-size="14.00">place</text>
<text text-anchor="middle" x="299.5" y="-717.111" font-family="Times,serif" font-size="14.00">2</text>
</g>
<!-- E3 -->
<g id="node4" class="node"><title>E3</title>
<ellipse fill="azure" stroke="black" cx="299.5" cy="-623.571" rx="27.6545" ry="26.7407"/>
<text text-anchor="middle" x="299.5" y="-627.371" font-family="Times,serif" font-size="14.00">mix</text>
<text text-anchor="middle" x="299.5" y="-612.371" font-family="Times,serif" font-size="14.00">3</text>
</g>
<!-- E2&#45;&gt;E3 -->
<g id="edge7" class="edge"><title>E2&#45;&gt;E3</title>
<path fill="none" stroke="black" d="M299.5,-701.385C299.5,-689.096 299.5,-674.207 299.5,-660.822"/>
<polygon fill="black" stroke="black" points="303,-660.488 299.5,-650.488 296,-660.488 303,-660.488"/>
<text text-anchor="middle" x="350.5" y="-672.241" font-family="Times,serif" font-size="14.00">IMPLICIT DOBJ</text>
</g>
<!-- E4 -->
<g id="node5" class="node"><title>E4</title>
<ellipse fill="azure" stroke="black" cx="527.5" cy="-518.831" rx="38.3684" ry="26.7407"/>
<text text-anchor="middle" x="527.5" y="-522.631" font-family="Times,serif" font-size="14.00">season</text>
<text text-anchor="middle" x="527.5" y="-507.631" font-family="Times,serif" font-size="14.00">4</text>
</g>
<!-- E3&#45;&gt;E4 -->
<g id="edge8" class="edge"><title>E3&#45;&gt;E4</title>
<path fill="none" stroke="black" d="M320.885,-606.395C325.873,-602.97 331.262,-599.538 336.5,-596.701 384.888,-570.492 444.153,-548.005 483.713,-534.243"/>
<polygon fill="black" stroke="black" points="485.011,-537.498 493.328,-530.935 482.733,-530.878 485.011,-537.498"/>
<text text-anchor="middle" x="459.5" y="-567.501" font-family="Times,serif" font-size="14.00">IMPLICIT DOBJ</text>
</g>
<!-- E5 -->
<g id="node6" class="node"><title>E5</title>
<ellipse fill="azure" stroke="black" cx="596.5" cy="-414.09" rx="31.6406" ry="26.7407"/>
<text text-anchor="middle" x="596.5" y="-417.89" font-family="Times,serif" font-size="14.00">form</text>
<text text-anchor="middle" x="596.5" y="-402.89" font-family="Times,serif" font-size="14.00">5</text>
</g>
<!-- E4&#45;&gt;E5 -->
<g id="edge10" class="edge"><title>E4&#45;&gt;E5</title>
<path fill="none" stroke="black" d="M534.748,-492.302C538.491,-481.487 543.716,-469.076 550.5,-458.96 554.995,-452.258 560.675,-445.806 566.497,-440.007"/>
<polygon fill="black" stroke="black" points="569.004,-442.453 573.868,-433.041 564.196,-437.366 569.004,-442.453"/>
<text text-anchor="middle" x="601.5" y="-462.76" font-family="Times,serif" font-size="14.00">IMPLICIT DOBJ</text>
</g>
<!-- E5&#45;&gt;E6 -->
<g id="edge13" class="edge"><title>E5&#45;&gt;E6</title>
<path fill="none" stroke="black" d="M592.346,-387.183C589.243,-375.639 583.849,-362.752 574.5,-354.22 552.041,-333.725 536.395,-348.317 508.5,-336.22 505.684,-334.999 502.833,-333.613 500.012,-332.131"/>
<polygon fill="black" stroke="black" points="501.616,-329.018 491.185,-327.162 498.182,-335.118 501.616,-329.018"/>
<text text-anchor="middle" x="643.5" y="-358.02" font-family="Times,serif" font-size="14.00">IMPLICIT OTHER</text>
</g>
<!-- E7 -->
<g id="node8" class="node"><title>E7</title>
<ellipse fill="azure" stroke="black" cx="599.5" cy="-204.61" rx="38.7821" ry="26.7407"/>
<text text-anchor="middle" x="599.5" y="-208.41" font-family="Times,serif" font-size="14.00">drizzle</text>
<text text-anchor="middle" x="599.5" y="-193.41" font-family="Times,serif" font-size="14.00">7</text>
</g>
<!-- E6&#45;&gt;E7 -->
<g id="edge14" class="edge"><title>E6&#45;&gt;E7</title>
<path fill="none" stroke="black" d="M483.344,-286.263C493.071,-274.437 506.023,-260.151 519.5,-249.48 531.292,-240.144 545.342,-231.698 558.354,-224.766"/>
<polygon fill="black" stroke="black" points="560.316,-227.692 567.597,-219.996 557.105,-221.472 560.316,-227.692"/>
<text text-anchor="middle" x="570.5" y="-253.28" font-family="Times,serif" font-size="14.00">IMPLICIT DOBJ</text>
</g>
<!-- E7&#45;&gt;E8 -->
<g id="edge16" class="edge"><title>E7&#45;&gt;E8</title>
<path fill="none" stroke="black" d="M617.554,-180.766C628.464,-168.404 643.357,-153.845 659.5,-144.74 700.32,-121.719 753.382,-110.547 789.5,-105.283"/>
<polygon fill="black" stroke="black" points="790.239,-108.715 799.672,-103.891 789.29,-101.779 790.239,-108.715"/>
<text text-anchor="middle" x="710.5" y="-148.54" font-family="Times,serif" font-size="14.00">IMPLICIT DOBJ</text>
</g>
<!-- EOR -->
<g id="node22" class="node"><title>EOR</title>
<ellipse fill="plum" stroke="black" cx="830.5" cy="-18" rx="57.3905" ry="18"/>
<text text-anchor="middle" x="830.5" y="-14.3" font-family="Times,serif" font-size="14.00">Bon appetit!</text>
</g>
<!-- E8&#45;&gt;EOR -->
<g id="edge21" class="edge"><title>E8&#45;&gt;EOR</title>
<path fill="none" stroke="black" d="M830.5,-72.7176C830.5,-64.2726 830.5,-54.8903 830.5,-46.3604"/>
<polygon fill="black" stroke="black" points="834,-46.1464 830.5,-36.1464 827,-46.1464 834,-46.1464"/>
</g>
<!-- D0 -->
<g id="node10" class="node"><title>D0</title>
<polygon fill="white" stroke="black" points="1302.5,-327.35 1214.5,-327.35 1214.5,-291.35 1302.5,-291.35 1302.5,-327.35"/>
<text text-anchor="middle" x="1258.5" y="-305.65" font-family="Times,serif" font-size="14.00">DOBJ: oven</text>
</g>
<!-- D0&#45;&gt;E0 -->
<g id="edge1" class="edge"><title>D0&#45;&gt;E0</title>
<path fill="none" stroke="black" d="M1274.79,-290.922C1288.92,-275.793 1309.7,-253.556 1326.5,-235.578"/>
<polygon fill="black" stroke="black" points="1329.15,-237.863 1333.42,-228.167 1324.04,-233.084 1329.15,-237.863"/>
</g>
<!-- O0_0 -->
<g id="node11" class="node"><title>O0_0</title>
<polygon fill="white" stroke="black" points="1578,-327.35 1321,-327.35 1321,-291.35 1578,-291.35 1578,-327.35"/>
<text text-anchor="middle" x="1449.5" y="-305.65" font-family="Times,serif" font-size="14.00">OTHER: to 350 degrees f (175 degrees c)</text>
</g>
<!-- O0_0&#45;&gt;E0 -->
<g id="edge2" class="edge"><title>O0_0&#45;&gt;E0</title>
<path fill="none" stroke="black" d="M1433.38,-290.922C1419.4,-275.793 1398.83,-253.556 1382.21,-235.578"/>
<polygon fill="black" stroke="black" points="1384.72,-233.133 1375.36,-228.167 1379.58,-237.885 1384.72,-233.133"/>
</g>
<!-- D2 -->
<g id="node12" class="node"><title>D2</title>
<polygon fill="peachpuff" stroke="black" points="327,-828.181 0,-828.181 0,-792.181 327,-792.181 327,-828.181"/>
<text text-anchor="middle" x="163.5" y="-806.481" font-family="Times,serif" font-size="14.00">DOBJ: eggs, 1/2 cup ketchup, the ground beef, panko</text>
</g>
<!-- D2&#45;&gt;E2 -->
<g id="edge3" class="edge"><title>D2&#45;&gt;E2</title>
<path fill="none" stroke="black" d="M192.675,-792.047C213.666,-779.719 242.08,-763.032 264.327,-749.967"/>
<polygon fill="black" stroke="black" points="266.285,-752.876 273.135,-744.794 262.74,-746.84 266.285,-752.876"/>
</g>
<!-- P2_0 -->
<g id="node13" class="node"><title>P2_0</title>
<polygon fill="white" stroke="black" points="526,-828.181 345,-828.181 345,-792.181 526,-792.181 526,-828.181"/>
<text text-anchor="middle" x="435.5" y="-806.481" font-family="Times,serif" font-size="14.00">LOCATION:in a large bowl</text>
</g>
<!-- P2_0&#45;&gt;E2 -->
<g id="edge4" class="edge"><title>P2_0&#45;&gt;E2</title>
<path fill="none" stroke="black" d="M406.325,-792.047C385.334,-779.719 356.92,-763.032 334.673,-749.967"/>
<polygon fill="black" stroke="black" points="336.26,-746.84 325.865,-744.794 332.715,-752.876 336.26,-746.84"/>
</g>
<!-- D1 -->
<g id="node14" class="node"><title>D1</title>
<polygon fill="white" stroke="black" points="303,-536.831 178,-536.831 178,-500.831 303,-500.831 303,-536.831"/>
<text text-anchor="middle" x="240.5" y="-515.131" font-family="Times,serif" font-size="14.00">DOBJ: baking pan</text>
</g>
<!-- D1&#45;&gt;E1 -->
<g id="edge5" class="edge"><title>D1&#45;&gt;E1</title>
<path fill="none" stroke="black" d="M256.785,-500.402C271.108,-485.073 292.251,-462.446 309.164,-444.346"/>
<polygon fill="black" stroke="black" points="311.851,-446.597 316.121,-436.901 306.736,-441.818 311.851,-446.597"/>
</g>
<!-- O1_0 -->
<g id="node15" class="node"><title>O1_0</title>
<polygon fill="white" stroke="black" points="431.5,-536.831 321.5,-536.831 321.5,-500.831 431.5,-500.831 431.5,-536.831"/>
<text text-anchor="middle" x="376.5" y="-515.131" font-family="Times,serif" font-size="14.00">OTHER: lightly</text>
</g>
<!-- O1_0&#45;&gt;E1 -->
<g id="edge6" class="edge"><title>O1_0&#45;&gt;E1</title>
<path fill="none" stroke="black" d="M369.715,-500.402C364.348,-486.619 356.685,-466.935 350.071,-449.948"/>
<polygon fill="black" stroke="black" points="353.213,-448.371 346.324,-440.322 346.69,-450.911 353.213,-448.371"/>
</g>
<!-- P4_0_ing -->
<g id="node16" class="node"><title>P4_0_ing</title>
<polygon fill="peachpuff" stroke="black" points="863.5,-641.571 345.5,-641.571 345.5,-605.571 863.5,-605.571 863.5,-641.571"/>
<text text-anchor="middle" x="604.5" y="-619.871" font-family="Times,serif" font-size="14.00">COOBJECT: with salt&#45;free seasoning blend, garlic powder, onion powder, pepper, salt</text>
</g>
<!-- P4_0_ing&#45;&gt;E4 -->
<g id="edge9" class="edge"><title>P4_0_ing&#45;&gt;E4</title>
<path fill="none" stroke="black" d="M591.438,-605.142C580.45,-590.481 564.458,-569.143 551.216,-551.475"/>
<polygon fill="black" stroke="black" points="553.769,-549.045 544.971,-543.142 548.168,-553.243 553.769,-549.045"/>
</g>
<!-- O5_0_0 -->
<g id="node17" class="node"><title>O5_0_0</title>
<polygon fill="white" stroke="black" points="749.5,-536.831 583.5,-536.831 583.5,-500.831 749.5,-500.831 749.5,-536.831"/>
<text text-anchor="middle" x="666.5" y="-515.131" font-family="Times,serif" font-size="14.00">OTHER: into a loaf shape</text>
</g>
<!-- O5_0_0&#45;&gt;E5 -->
<g id="edge11" class="edge"><title>O5_0_0&#45;&gt;E5</title>
<path fill="none" stroke="black" d="M665.432,-500.678C663.976,-488.26 660.549,-471.521 652.5,-458.96 646.853,-450.148 638.807,-442.362 630.57,-435.889"/>
<polygon fill="black" stroke="black" points="632.486,-432.953 622.351,-429.864 628.347,-438.599 632.486,-432.953"/>
</g>
<!-- P7_0_ing -->
<g id="node18" class="node"><title>P7_0_ing</title>
<polygon fill="peachpuff" stroke="black" points="799.5,-327.35 517.5,-327.35 517.5,-291.35 799.5,-291.35 799.5,-327.35"/>
<text text-anchor="middle" x="658.5" y="-305.65" font-family="Times,serif" font-size="14.00">COOBJECT: with remaining 1/4 cup ketchup</text>
</g>
<!-- P7_0_ing&#45;&gt;E7 -->
<g id="edge15" class="edge"><title>P7_0_ing&#45;&gt;E7</title>
<path fill="none" stroke="black" d="M648.491,-290.922C640.316,-276.686 628.527,-256.156 618.561,-238.803"/>
<polygon fill="black" stroke="black" points="621.56,-236.997 613.545,-230.068 615.49,-240.483 621.56,-236.997"/>
</g>
<!-- O8_0_0 -->
<g id="node19" class="node"><title>O8_0_0</title>
<polygon fill="white" stroke="black" points="769,-222.61 658,-222.61 658,-186.61 769,-186.61 769,-222.61"/>
<text text-anchor="middle" x="713.5" y="-200.91" font-family="Times,serif" font-size="14.00">OTHER: 1 hour</text>
</g>
<!-- O8_0_0&#45;&gt;E8 -->
<g id="edge17" class="edge"><title>O8_0_0&#45;&gt;E8</title>
<path fill="none" stroke="black" d="M733.083,-186.414C751.773,-170.002 780.161,-145.074 801.479,-126.354"/>
<polygon fill="black" stroke="black" points="804.063,-128.743 809.268,-119.515 799.444,-123.483 804.063,-128.743"/>
</g>
<!-- O8_1_0 -->
<g id="node20" class="node"><title>O8_1_0</title>
<polygon fill="white" stroke="black" points="874,-222.61 787,-222.61 787,-186.61 874,-186.61 874,-222.61"/>
<text text-anchor="middle" x="830.5" y="-200.91" font-family="Times,serif" font-size="14.00">OTHER: in </text>
</g>
<!-- O8_1_0&#45;&gt;E8 -->
<g id="edge18" class="edge"><title>O8_1_0&#45;&gt;E8</title>
<path fill="none" stroke="black" d="M830.5,-186.182C830.5,-172.717 830.5,-153.621 830.5,-136.909"/>
<polygon fill="black" stroke="black" points="834,-136.883 830.5,-126.883 827,-136.883 834,-136.883"/>
</g>
<!-- O8_2_0 -->
<g id="node21" class="node"><title>O8_2_0</title>
<polygon fill="white" stroke="black" points="1294.5,-222.61 892.5,-222.61 892.5,-186.61 1294.5,-186.61 1294.5,-222.61"/>
<text text-anchor="middle" x="1093.5" y="-200.91" font-family="Times,serif" font-size="14.00">OTHER: to an internal temperature of 160 degrees f (70 degrees c)</text>
</g>
<!-- O8_2_0&#45;&gt;E8 -->
<g id="edge20" class="edge"><title>O8_2_0&#45;&gt;E8</title>
<path fill="none" stroke="black" d="M1049.78,-186.529C998.942,-166.671 915.901,-134.232 867.925,-115.49"/>
<polygon fill="black" stroke="black" points="869.119,-112.199 858.531,-111.82 866.572,-118.719 869.119,-112.199"/>
</g>
</g>
</svg>
