<?xml version="1.0" encoding="UTF-8" standalone="no"?>
<!DOCTYPE svg PUBLIC "-//W3C//DTD SVG 1.1//EN"
 "http://www.w3.org/Graphics/SVG/1.1/DTD/svg11.dtd">
<!-- Generated by graphviz version 2.38.0 (20140413.2041)
 -->
<!-- Title: recipe Pages: 1 -->
<svg width="1732pt" height="1046pt"
 viewBox="0.00 0.00 1731.50 1045.66" xmlns="http://www.w3.org/2000/svg" xmlns:xlink="http://www.w3.org/1999/xlink">
<g id="graph0" class="graph" transform="scale(1 1) rotate(0) translate(4 1041.66)">
<title>recipe</title>
<polygon fill="white" stroke="none" points="-4,4 -4,-1041.66 1727.5,-1041.66 1727.5,4 -4,4"/>
<!-- E0 -->
<g id="node1" class="node"><title>E0</title>
<ellipse fill="azure" stroke="black" cx="1500" cy="-309.35" rx="41.9398" ry="26.7407"/>
<text text-anchor="middle" x="1500" y="-313.15" font-family="Times,serif" font-size="14.00">preheat</text>
<text text-anchor="middle" x="1500" y="-298.15" font-family="Times,serif" font-size="14.00">0</text>
</g>
<!-- E10 -->
<g id="node11" class="node"><title>E10</title>
<ellipse fill="azure" stroke="black" cx="1299" cy="-204.61" rx="31.2258" ry="26.7407"/>
<text text-anchor="middle" x="1299" y="-208.41" font-family="Times,serif" font-size="14.00">bake</text>
<text text-anchor="middle" x="1299" y="-193.41" font-family="Times,serif" font-size="14.00">10</text>
</g>
<!-- E0&#45;&gt;E10 -->
<g id="edge29" class="edge"><title>E0&#45;&gt;E10</title>
<path fill="none" stroke="black" d="M1467.71,-291.843C1431.29,-273.227 1372.24,-243.046 1334.54,-223.775"/>
<polygon fill="black" stroke="black" points="1335.94,-220.559 1325.44,-219.124 1332.75,-226.792 1335.94,-220.559"/>
<text text-anchor="middle" x="1507" y="-253.28" font-family="Times,serif" font-size="14.00">LOCATION:in a preheated oven</text>
</g>
<!-- E1 -->
<g id="node2" class="node"><title>E1</title>
<ellipse fill="azure" stroke="black" cx="957" cy="-937.791" rx="39.6962" ry="26.7407"/>
<text text-anchor="middle" x="957" y="-941.591" font-family="Times,serif" font-size="14.00">brown</text>
<text text-anchor="middle" x="957" y="-926.591" font-family="Times,serif" font-size="14.00">1</text>
</g>
<!-- E2 -->
<g id="node3" class="node"><title>E2</title>
<ellipse fill="azure" stroke="black" cx="1015" cy="-833.051" rx="33.4697" ry="26.7407"/>
<text text-anchor="middle" x="1015" y="-836.851" font-family="Times,serif" font-size="14.00">drain</text>
<text text-anchor="middle" x="1015" y="-821.851" font-family="Times,serif" font-size="14.00">2</text>
</g>
<!-- E1&#45;&gt;E2 -->
<g id="edge10" class="edge"><title>E1&#45;&gt;E2</title>
<path fill="none" stroke="black" d="M950.216,-911.256C948.694,-900.44 948.818,-888.03 954,-877.921 959.285,-867.611 968.244,-859.175 977.693,-852.553"/>
<polygon fill="black" stroke="black" points="979.874,-855.313 986.416,-846.98 976.105,-849.414 979.874,-855.313"/>
<text text-anchor="middle" x="1004.5" y="-881.721" font-family="Times,serif" font-size="14.00">IMPLICIT PREP</text>
</g>
<!-- E3 -->
<g id="node4" class="node"><title>E3</title>
<ellipse fill="azure" stroke="black" cx="1077" cy="-728.311" rx="41.9398" ry="26.7407"/>
<text text-anchor="middle" x="1077" y="-732.111" font-family="Times,serif" font-size="14.00">pour in</text>
<text text-anchor="middle" x="1077" y="-717.111" font-family="Times,serif" font-size="14.00">3</text>
</g>
<!-- E2&#45;&gt;E3 -->
<g id="edge12" class="edge"><title>E2&#45;&gt;E3</title>
<path fill="none" stroke="black" d="M1012.19,-806.121C1012.15,-795.357 1013.64,-783.094 1019,-773.181 1023.41,-765.024 1030.06,-757.937 1037.31,-751.977"/>
<polygon fill="black" stroke="black" points="1039.43,-754.76 1045.32,-745.955 1035.23,-749.163 1039.43,-754.76"/>
<text text-anchor="middle" x="1069.5" y="-776.981" font-family="Times,serif" font-size="14.00">IMPLICIT PREP</text>
</g>
<!-- E4 -->
<g id="node5" class="node"><title>E4</title>
<ellipse fill="azure" stroke="black" cx="1139" cy="-623.571" rx="41.9398" ry="26.7407"/>
<text text-anchor="middle" x="1139" y="-627.371" font-family="Times,serif" font-size="14.00">simmer</text>
<text text-anchor="middle" x="1139" y="-612.371" font-family="Times,serif" font-size="14.00">4</text>
</g>
<!-- E3&#45;&gt;E4 -->
<g id="edge13" class="edge"><title>E3&#45;&gt;E4</title>
<path fill="none" stroke="black" d="M1076.42,-701.36C1077.18,-690.593 1079.44,-678.333 1085,-668.441 1089.03,-661.258 1094.75,-654.789 1100.97,-649.163"/>
<polygon fill="black" stroke="black" points="1103.55,-651.569 1109.02,-642.497 1099.09,-646.176 1103.55,-651.569"/>
<text text-anchor="middle" x="1136" y="-672.241" font-family="Times,serif" font-size="14.00">IMPLICIT DOBJ</text>
</g>
<!-- E7 -->
<g id="node8" class="node"><title>E7</title>
<ellipse fill="azure" stroke="black" cx="840" cy="-518.831" rx="38.3684" ry="26.7407"/>
<text text-anchor="middle" x="840" y="-522.631" font-family="Times,serif" font-size="14.00">spread</text>
<text text-anchor="middle" x="840" y="-507.631" font-family="Times,serif" font-size="14.00">7</text>
</g>
<!-- E4&#45;&gt;E7 -->
<g id="edge20" class="edge"><title>E4&#45;&gt;E7</title>
<path fill="none" stroke="black" d="M1107.55,-605.579C1101.17,-602.428 1094.44,-599.311 1088,-596.701 1019.02,-568.747 935.845,-544.873 885.488,-531.446"/>
<polygon fill="black" stroke="black" points="886.126,-527.994 875.563,-528.821 884.336,-534.761 886.126,-527.994"/>
<text text-anchor="middle" x="1050.5" y="-567.501" font-family="Times,serif" font-size="14.00">sauce</text>
</g>
<!-- E9 -->
<g id="node10" class="node"><title>E9</title>
<ellipse fill="azure" stroke="black" cx="1105" cy="-309.35" rx="34.7971" ry="26.7407"/>
<text text-anchor="middle" x="1105" y="-313.15" font-family="Times,serif" font-size="14.00">finish</text>
<text text-anchor="middle" x="1105" y="-298.15" font-family="Times,serif" font-size="14.00">9</text>
</g>
<!-- E4&#45;&gt;E9 -->
<g id="edge26" class="edge"><title>E4&#45;&gt;E9</title>
<path fill="none" stroke="black" d="M1136.19,-596.755C1130.13,-541.119 1115.83,-409.812 1108.9,-346.171"/>
<polygon fill="black" stroke="black" points="1112.38,-345.759 1107.81,-336.196 1105.42,-346.517 1112.38,-345.759"/>
<text text-anchor="middle" x="1192" y="-462.76" font-family="Times,serif" font-size="14.00">COOBJECT:with sauce</text>
</g>
<!-- E5 -->
<g id="node6" class="node"><title>E5</title>
<ellipse fill="azure" stroke="black" cx="236" cy="-728.311" rx="38.3684" ry="26.7407"/>
<text text-anchor="middle" x="236" y="-732.111" font-family="Times,serif" font-size="14.00">spread</text>
<text text-anchor="middle" x="236" y="-717.111" font-family="Times,serif" font-size="14.00">5</text>
</g>
<!-- E6 -->
<g id="node7" class="node"><title>E6</title>
<ellipse fill="azure" stroke="black" cx="444" cy="-623.571" rx="27" ry="26.7407"/>
<text text-anchor="middle" x="444" y="-627.371" font-family="Times,serif" font-size="14.00">put</text>
<text text-anchor="middle" x="444" y="-612.371" font-family="Times,serif" font-size="14.00">6</text>
</g>
<!-- E5&#45;&gt;E6 -->
<g id="edge16" class="edge"><title>E5&#45;&gt;E6</title>
<path fill="none" stroke="black" d="M254.942,-704.737C266.308,-692.463 281.695,-677.9 298,-668.441 332.451,-648.453 376.851,-636.805 407.597,-630.599"/>
<polygon fill="black" stroke="black" points="408.309,-634.026 417.467,-628.698 406.985,-627.152 408.309,-634.026"/>
<text text-anchor="middle" x="348.5" y="-672.241" font-family="Times,serif" font-size="14.00">IMPLICIT PREP</text>
</g>
<!-- E6&#45;&gt;E7 -->
<g id="edge22" class="edge"><title>E6&#45;&gt;E7</title>
<path fill="none" stroke="black" d="M466.24,-607.834C472.501,-603.973 479.405,-599.978 486,-596.701 522.291,-578.666 531.9,-574.353 571,-563.701 646.915,-543.018 737.703,-530.694 792.013,-524.597"/>
<polygon fill="black" stroke="black" points="792.488,-528.066 802.046,-523.496 791.723,-521.108 792.488,-528.066"/>
<text text-anchor="middle" x="621.5" y="-567.501" font-family="Times,serif" font-size="14.00">IMPLICIT PREP</text>
</g>
<!-- E8 -->
<g id="node9" class="node"><title>E8</title>
<ellipse fill="azure" stroke="black" cx="889" cy="-414.09" rx="67.3507" ry="26.7407"/>
<text text-anchor="middle" x="889" y="-417.89" font-family="Times,serif" font-size="14.00">keep layering</text>
<text text-anchor="middle" x="889" y="-402.89" font-family="Times,serif" font-size="14.00">8</text>
</g>
<!-- E7&#45;&gt;E8 -->
<g id="edge24" class="edge"><title>E7&#45;&gt;E8</title>
<path fill="none" stroke="black" d="M851.737,-493.222C857.961,-480.171 865.71,-463.922 872.528,-449.629"/>
<polygon fill="black" stroke="black" points="875.702,-451.104 876.847,-440.571 869.383,-448.091 875.702,-451.104"/>
<text text-anchor="middle" x="919" y="-462.76" font-family="Times,serif" font-size="14.00">IMPLICIT DOBJ</text>
</g>
<!-- E8&#45;&gt;E9 -->
<g id="edge25" class="edge"><title>E8&#45;&gt;E9</title>
<path fill="none" stroke="black" d="M923.374,-390.886C942.305,-379.164 966.471,-365.015 989,-354.22 1013.19,-342.631 1041.3,-331.933 1063.79,-324.003"/>
<polygon fill="black" stroke="black" points="1065.08,-327.261 1073.38,-320.671 1062.78,-320.649 1065.08,-327.261"/>
<text text-anchor="middle" x="1040" y="-358.02" font-family="Times,serif" font-size="14.00">IMPLICIT DOBJ</text>
</g>
<!-- E9&#45;&gt;E10 -->
<g id="edge28" class="edge"><title>E9&#45;&gt;E10</title>
<path fill="none" stroke="black" d="M1118.26,-284.402C1126.38,-272.012 1137.92,-257.782 1152,-249.48 1193.17,-225.215 1213.37,-248.562 1258,-231.48 1260.89,-230.373 1263.8,-229.049 1266.66,-227.594"/>
<polygon fill="black" stroke="black" points="1268.55,-230.549 1275.56,-222.603 1265.12,-224.445 1268.55,-230.549"/>
<text text-anchor="middle" x="1203" y="-253.28" font-family="Times,serif" font-size="14.00">IMPLICIT DOBJ</text>
</g>
<!-- E11 -->
<g id="node12" class="node"><title>E11</title>
<ellipse fill="azure" stroke="black" cx="1214" cy="-99.8701" rx="33.4697" ry="26.7407"/>
<text text-anchor="middle" x="1214" y="-103.67" font-family="Times,serif" font-size="14.00">let sit</text>
<text text-anchor="middle" x="1214" y="-88.6701" font-family="Times,serif" font-size="14.00">11</text>
</g>
<!-- E10&#45;&gt;E11 -->
<g id="edge32" class="edge"><title>E10&#45;&gt;E11</title>
<path fill="none" stroke="black" d="M1281.39,-182.322C1269.02,-167.371 1252.31,-147.171 1238.62,-130.628"/>
<polygon fill="black" stroke="black" points="1241.25,-128.313 1232.18,-122.839 1235.85,-132.776 1241.25,-128.313"/>
<text text-anchor="middle" x="1313" y="-148.54" font-family="Times,serif" font-size="14.00">IMPLICIT DOBJ</text>
</g>
<!-- EOR -->
<g id="node34" class="node"><title>EOR</title>
<ellipse fill="plum" stroke="black" cx="1214" cy="-18" rx="57.3905" ry="18"/>
<text text-anchor="middle" x="1214" y="-14.3" font-family="Times,serif" font-size="14.00">Bon appetit!</text>
</g>
<!-- E11&#45;&gt;EOR -->
<g id="edge34" class="edge"><title>E11&#45;&gt;EOR</title>
<path fill="none" stroke="black" d="M1214,-72.7176C1214,-64.2726 1214,-54.8903 1214,-46.3604"/>
<polygon fill="black" stroke="black" points="1217.5,-46.1464 1214,-36.1464 1210.5,-46.1464 1217.5,-46.1464"/>
</g>
<!-- D0 -->
<g id="node13" class="node"><title>D0</title>
<polygon fill="white" stroke="black" points="1448,-432.09 1360,-432.09 1360,-396.09 1448,-396.09 1448,-432.09"/>
<text text-anchor="middle" x="1404" y="-410.39" font-family="Times,serif" font-size="14.00">DOBJ: oven</text>
</g>
<!-- D0&#45;&gt;E0 -->
<g id="edge1" class="edge"><title>D0&#45;&gt;E0</title>
<path fill="none" stroke="black" d="M1420.29,-395.662C1434.42,-380.534 1455.2,-358.296 1472,-340.318"/>
<polygon fill="black" stroke="black" points="1474.65,-342.603 1478.92,-332.907 1469.54,-337.824 1474.65,-342.603"/>
</g>
<!-- O0_0 -->
<g id="node14" class="node"><title>O0_0</title>
<polygon fill="white" stroke="black" points="1723.5,-432.09 1466.5,-432.09 1466.5,-396.09 1723.5,-396.09 1723.5,-432.09"/>
<text text-anchor="middle" x="1595" y="-410.39" font-family="Times,serif" font-size="14.00">OTHER: to 375 degrees f (190 degrees c)</text>
</g>
<!-- O0_0&#45;&gt;E0 -->
<g id="edge2" class="edge"><title>O0_0&#45;&gt;E0</title>
<path fill="none" stroke="black" d="M1578.88,-395.662C1564.9,-380.534 1544.33,-358.296 1527.71,-340.318"/>
<polygon fill="black" stroke="black" points="1530.22,-337.873 1520.86,-332.907 1525.08,-342.625 1530.22,-337.873"/>
</g>
<!-- D1 -->
<g id="node15" class="node"><title>D1</title>
<polygon fill="peachpuff" stroke="black" points="776.5,-1037.66 645.5,-1037.66 645.5,-1001.66 776.5,-1001.66 776.5,-1037.66"/>
<text text-anchor="middle" x="711" y="-1015.96" font-family="Times,serif" font-size="14.00">DOBJ: ground beef</text>
</g>
<!-- D1&#45;&gt;E1 -->
<g id="edge3" class="edge"><title>D1&#45;&gt;E1</title>
<path fill="none" stroke="black" d="M763.471,-1001.62C807.626,-987.289 870.096,-967.007 912.001,-953.401"/>
<polygon fill="black" stroke="black" points="913.233,-956.681 921.663,-950.264 911.071,-950.023 913.233,-956.681"/>
</g>
<!-- P1_0 -->
<g id="node16" class="node"><title>P1_0</title>
<polygon fill="white" stroke="black" points="947,-1037.66 795,-1037.66 795,-1001.66 947,-1001.66 947,-1037.66"/>
<text text-anchor="middle" x="871" y="-1015.96" font-family="Times,serif" font-size="14.00">LOCATION:in a skillet</text>
</g>
<!-- P1_0&#45;&gt;E1 -->
<g id="edge4" class="edge"><title>P1_0&#45;&gt;E1</title>
<path fill="none" stroke="black" d="M889.661,-1001.33C900.461,-991.3 914.316,-978.433 926.647,-966.98"/>
<polygon fill="black" stroke="black" points="929.142,-969.44 934.088,-960.07 924.379,-964.311 929.142,-969.44"/>
</g>
<!-- P1_1 -->
<g id="node17" class="node"><title>P1_1</title>
<polygon fill="peachpuff" stroke="black" points="1122.5,-1037.66 965.5,-1037.66 965.5,-1001.66 1122.5,-1001.66 1122.5,-1037.66"/>
<text text-anchor="middle" x="1044" y="-1015.96" font-family="Times,serif" font-size="14.00">COOBJECT:with onion</text>
</g>
<!-- P1_1&#45;&gt;E1 -->
<g id="edge5" class="edge"><title>P1_1&#45;&gt;E1</title>
<path fill="none" stroke="black" d="M1025.12,-1001.33C1014.11,-991.224 999.968,-978.238 987.422,-966.72"/>
<polygon fill="black" stroke="black" points="989.593,-963.962 979.86,-959.778 984.86,-969.119 989.593,-963.962"/>
</g>
<!-- O1_0 -->
<g id="node18" class="node"><title>O1_0</title>
<polygon fill="white" stroke="black" points="1317,-1037.66 1141,-1037.66 1141,-1001.66 1317,-1001.66 1317,-1037.66"/>
<text text-anchor="middle" x="1229" y="-1015.96" font-family="Times,serif" font-size="14.00">OTHER: over medium heat</text>
</g>
<!-- O1_0&#45;&gt;E1 -->
<g id="edge6" class="edge"><title>O1_0&#45;&gt;E1</title>
<path fill="none" stroke="black" d="M1148.68,-1001.6C1108.39,-992.216 1059.12,-979.466 1016,-964.661 1010.1,-962.635 1003.97,-960.263 997.989,-957.793"/>
<polygon fill="black" stroke="black" points="999.342,-954.566 988.771,-953.866 996.599,-961.006 999.342,-954.566"/>
</g>
<!-- P5_0 -->
<g id="node19" class="node"><title>P5_0</title>
<polygon fill="white" stroke="black" points="248,-851.051 0,-851.051 0,-815.051 248,-815.051 248,-851.051"/>
<text text-anchor="middle" x="124" y="-829.351" font-family="Times,serif" font-size="14.00">LOCATION:in a 9x13 inch baking dish</text>
</g>
<!-- P5_0&#45;&gt;E5 -->
<g id="edge7" class="edge"><title>P5_0&#45;&gt;E5</title>
<path fill="none" stroke="black" d="M142.746,-814.854C159.974,-799.051 185.812,-775.35 205.924,-756.9"/>
<polygon fill="black" stroke="black" points="208.319,-759.452 213.322,-750.113 203.587,-754.294 208.319,-759.452"/>
</g>
<!-- O5_0 -->
<g id="node20" class="node"><title>O5_0</title>
<polygon fill="white" stroke="black" points="430,-851.051 266,-851.051 266,-815.051 430,-815.051 430,-851.051"/>
<text text-anchor="middle" x="348" y="-829.351" font-family="Times,serif" font-size="14.00">OTHER: to cover bottom</text>
</g>
<!-- O5_0&#45;&gt;E5 -->
<g id="edge8" class="edge"><title>O5_0&#45;&gt;E5</title>
<path fill="none" stroke="black" d="M329.254,-814.854C312.026,-799.051 286.188,-775.35 266.076,-756.9"/>
<polygon fill="black" stroke="black" points="268.413,-754.294 258.678,-750.113 263.681,-759.452 268.413,-754.294"/>
</g>
<!-- D2_0 -->
<g id="node21" class="node"><title>D2_0</title>
<polygon fill="white" stroke="black" points="1121,-955.791 1025,-955.791 1025,-919.791 1121,-919.791 1121,-955.791"/>
<text text-anchor="middle" x="1073" y="-934.091" font-family="Times,serif" font-size="14.00">DOBJ: grease</text>
</g>
<!-- D2_0&#45;&gt;E2 -->
<g id="edge9" class="edge"><title>D2_0&#45;&gt;E2</title>
<path fill="none" stroke="black" d="M1071.44,-919.65C1069.75,-907.393 1066.23,-890.847 1059,-877.921 1055.38,-871.449 1050.53,-865.289 1045.37,-859.741"/>
<polygon fill="black" stroke="black" points="1047.77,-857.193 1038.24,-852.582 1042.82,-862.135 1047.77,-857.193"/>
</g>
<!-- D3_ing -->
<g id="node22" class="node"><title>D3_ing</title>
<polygon fill="peachpuff" stroke="black" points="1212,-851.051 1066,-851.051 1066,-815.051 1212,-815.051 1212,-851.051"/>
<text text-anchor="middle" x="1139" y="-829.351" font-family="Times,serif" font-size="14.00">DOBJ: spaghetti sauce</text>
</g>
<!-- D3_ing&#45;&gt;E3 -->
<g id="edge11" class="edge"><title>D3_ing&#45;&gt;E3</title>
<path fill="none" stroke="black" d="M1137.23,-814.831C1135.36,-802.536 1131.58,-785.977 1124,-773.181 1120.48,-767.244 1115.93,-761.617 1111.03,-756.495"/>
<polygon fill="black" stroke="black" points="1113.32,-753.837 1103.71,-749.377 1108.44,-758.856 1113.32,-753.837"/>
</g>
<!-- O4_0_0 -->
<g id="node23" class="node"><title>O4_0_0</title>
<polygon fill="white" stroke="black" points="1265,-746.311 1137,-746.311 1137,-710.311 1265,-710.311 1265,-746.311"/>
<text text-anchor="middle" x="1201" y="-724.611" font-family="Times,serif" font-size="14.00">OTHER: 5 minutes</text>
</g>
<!-- O4_0_0&#45;&gt;E4 -->
<g id="edge14" class="edge"><title>O4_0_0&#45;&gt;E4</title>
<path fill="none" stroke="black" d="M1199.61,-710.073C1198,-697.769 1194.51,-681.207 1187,-668.441 1183.42,-662.361 1178.73,-656.636 1173.68,-651.454"/>
<polygon fill="black" stroke="black" points="1175.78,-648.621 1166.12,-644.273 1170.96,-653.697 1175.78,-648.621"/>
</g>
<!-- D6_ing -->
<g id="node24" class="node"><title>D6_ing</title>
<polygon fill="peachpuff" stroke="black" points="447.5,-746.311 292.5,-746.311 292.5,-710.311 447.5,-710.311 447.5,-746.311"/>
<text text-anchor="middle" x="370" y="-724.611" font-family="Times,serif" font-size="14.00">DOBJ: a layer of ravioli</text>
</g>
<!-- D6_ing&#45;&gt;E6 -->
<g id="edge15" class="edge"><title>D6_ing&#45;&gt;E6</title>
<path fill="none" stroke="black" d="M382.553,-709.882C393.468,-694.729 409.519,-672.443 422.48,-654.449"/>
<polygon fill="black" stroke="black" points="425.553,-656.171 428.558,-646.011 419.873,-652.079 425.553,-656.171"/>
</g>
<!-- O6_0_0 -->
<g id="node25" class="node"><title>O6_0_0</title>
<polygon fill="white" stroke="black" points="572,-746.311 466,-746.311 466,-710.311 572,-710.311 572,-746.311"/>
<text text-anchor="middle" x="519" y="-724.611" font-family="Times,serif" font-size="14.00">OTHER: down</text>
</g>
<!-- O6_0_0&#45;&gt;E6 -->
<g id="edge17" class="edge"><title>O6_0_0&#45;&gt;E6</title>
<path fill="none" stroke="black" d="M506.277,-709.882C495.215,-694.729 478.947,-672.443 465.811,-654.449"/>
<polygon fill="black" stroke="black" points="468.374,-652.024 459.651,-646.011 462.72,-656.151 468.374,-652.024"/>
</g>
<!-- O6_1_0 -->
<g id="node26" class="node"><title>O6_1_0</title>
<polygon fill="white" stroke="black" points="723.5,-746.311 590.5,-746.311 590.5,-710.311 723.5,-710.311 723.5,-746.311"/>
<text text-anchor="middle" x="657" y="-724.611" font-family="Times,serif" font-size="14.00">OTHER: end to end</text>
</g>
<!-- O6_1_0&#45;&gt;E6 -->
<g id="edge18" class="edge"><title>O6_1_0&#45;&gt;E6</title>
<path fill="none" stroke="black" d="M615.164,-710.298C580.093,-695.613 528.998,-673.224 486,-650.441 482.441,-648.555 478.772,-646.489 475.154,-644.372"/>
<polygon fill="black" stroke="black" points="476.729,-641.236 466.356,-639.082 473.122,-647.235 476.729,-641.236"/>
</g>
<!-- D7_0 -->
<g id="node27" class="node"><title>D7_0</title>
<polygon fill="white" stroke="black" points="613,-641.571 495,-641.571 495,-605.571 613,-605.571 613,-641.571"/>
<text text-anchor="middle" x="554" y="-619.871" font-family="Times,serif" font-size="14.00">DOBJ: a layer of </text>
</g>
<!-- D7_0&#45;&gt;E7 -->
<g id="edge19" class="edge"><title>D7_0&#45;&gt;E7</title>
<path fill="none" stroke="black" d="M598.566,-605.437C606.365,-602.49 614.41,-599.482 622,-596.701 682.254,-574.62 752.291,-550.131 796.38,-534.859"/>
<polygon fill="black" stroke="black" points="797.617,-538.134 805.923,-531.557 795.328,-531.519 797.617,-538.134"/>
</g>
<!-- D7_2 -->
<g id="node28" class="node"><title>D7_2</title>
<polygon fill="white" stroke="black" points="756.5,-641.571 631.5,-641.571 631.5,-605.571 756.5,-605.571 756.5,-641.571"/>
<text text-anchor="middle" x="694" y="-619.871" font-family="Times,serif" font-size="14.00">DOBJ: &#160;and cheese</text>
</g>
<!-- D7_2&#45;&gt;E7 -->
<g id="edge21" class="edge"><title>D7_2&#45;&gt;E7</title>
<path fill="none" stroke="black" d="M718.437,-605.374C742.17,-588.673 778.436,-563.153 805.183,-544.331"/>
<polygon fill="black" stroke="black" points="807.341,-547.092 813.505,-538.475 803.313,-541.368 807.341,-547.092"/>
</g>
<!-- O7_0_0 -->
<g id="node29" class="node"><title>O7_0_0</title>
<polygon fill="white" stroke="black" points="1079.5,-641.571 774.5,-641.571 774.5,-605.571 1079.5,-605.571 1079.5,-641.571"/>
<text text-anchor="middle" x="927" y="-619.871" font-family="Times,serif" font-size="14.00">OTHER: just like you would with regular lasagna</text>
</g>
<!-- O7_0_0&#45;&gt;E7 -->
<g id="edge23" class="edge"><title>O7_0_0&#45;&gt;E7</title>
<path fill="none" stroke="black" d="M912.242,-605.142C899.545,-590.149 880.936,-568.173 865.785,-550.281"/>
<polygon fill="black" stroke="black" points="868.234,-547.757 859.101,-542.387 862.892,-552.28 868.234,-547.757"/>
</g>
<!-- O9_0_0 -->
<g id="node30" class="node"><title>O9_0_0</title>
<polygon fill="white" stroke="black" points="1243,-432.09 1133,-432.09 1133,-396.09 1243,-396.09 1243,-432.09"/>
<text text-anchor="middle" x="1188" y="-410.39" font-family="Times,serif" font-size="14.00">OTHER: on top</text>
</g>
<!-- O9_0_0&#45;&gt;E9 -->
<g id="edge27" class="edge"><title>O9_0_0&#45;&gt;E9</title>
<path fill="none" stroke="black" d="M1173.92,-395.662C1161.73,-380.569 1143.82,-358.401 1129.31,-340.446"/>
<polygon fill="black" stroke="black" points="1131.93,-338.112 1122.92,-332.533 1126.48,-342.511 1131.93,-338.112"/>
</g>
<!-- O10_0_0 -->
<g id="node31" class="node"><title>O10_0_0</title>
<polygon fill="white" stroke="black" points="1290,-327.35 1158,-327.35 1158,-291.35 1290,-291.35 1290,-327.35"/>
<text text-anchor="middle" x="1224" y="-305.65" font-family="Times,serif" font-size="14.00">OTHER: uncovered</text>
</g>
<!-- O10_0_0&#45;&gt;E10 -->
<g id="edge30" class="edge"><title>O10_0_0&#45;&gt;E10</title>
<path fill="none" stroke="black" d="M1236.72,-290.922C1247.64,-275.965 1263.63,-254.06 1276.68,-236.192"/>
<polygon fill="black" stroke="black" points="1279.74,-237.933 1282.81,-227.793 1274.08,-233.806 1279.74,-237.933"/>
</g>
<!-- O10_1_0 -->
<g id="node32" class="node"><title>O10_1_0</title>
<polygon fill="white" stroke="black" points="1440,-327.35 1308,-327.35 1308,-291.35 1440,-291.35 1440,-327.35"/>
<text text-anchor="middle" x="1374" y="-305.65" font-family="Times,serif" font-size="14.00">OTHER: for 1 hour</text>
</g>
<!-- O10_1_0&#45;&gt;E10 -->
<g id="edge31" class="edge"><title>O10_1_0&#45;&gt;E10</title>
<path fill="none" stroke="black" d="M1361.28,-290.922C1350.36,-275.965 1334.37,-254.06 1321.32,-236.192"/>
<polygon fill="black" stroke="black" points="1323.92,-233.806 1315.19,-227.793 1318.26,-237.933 1323.92,-233.806"/>
</g>
<!-- O11_0_0 -->
<g id="node33" class="node"><title>O11_0_0</title>
<polygon fill="white" stroke="black" points="1249.5,-222.61 1100.5,-222.61 1100.5,-186.61 1249.5,-186.61 1249.5,-222.61"/>
<text text-anchor="middle" x="1175" y="-200.91" font-family="Times,serif" font-size="14.00">OTHER: for 5 minutes</text>
</g>
<!-- O11_0_0&#45;&gt;E11 -->
<g id="edge33" class="edge"><title>O11_0_0&#45;&gt;E11</title>
<path fill="none" stroke="black" d="M1181.62,-186.182C1186.88,-172.303 1194.42,-152.441 1200.9,-135.374"/>
<polygon fill="black" stroke="black" points="1204.29,-136.305 1204.57,-125.714 1197.75,-133.821 1204.29,-136.305"/>
</g>
</g>
</svg>
