<?xml version="1.0" encoding="UTF-8" standalone="no"?>
<!DOCTYPE svg PUBLIC "-//W3C//DTD SVG 1.1//EN"
 "http://www.w3.org/Graphics/SVG/1.1/DTD/svg11.dtd">
<!-- Generated by graphviz version 2.38.0 (20140413.2041)
 -->
<!-- Title: recipe Pages: 1 -->
<svg width="3054pt" height="1255pt"
 viewBox="0.00 0.00 3054.00 1255.14" xmlns="http://www.w3.org/2000/svg" xmlns:xlink="http://www.w3.org/1999/xlink">
<g id="graph0" class="graph" transform="scale(1 1) rotate(0) translate(4 1251.14)">
<title>recipe</title>
<polygon fill="white" stroke="none" points="-4,4 -4,-1251.14 3050,-1251.14 3050,4 -4,4"/>
<!-- E0 -->
<g id="node1" class="node"><title>E0</title>
<ellipse fill="azure" stroke="black" cx="2399.5" cy="-1147.27" rx="33.8824" ry="26.7407"/>
<text text-anchor="middle" x="2399.5" y="-1151.07" font-family="Times,serif" font-size="14.00">spray</text>
<text text-anchor="middle" x="2399.5" y="-1136.07" font-family="Times,serif" font-size="14.00">0</text>
</g>
<!-- E1 -->
<g id="node2" class="node"><title>E1</title>
<ellipse fill="azure" stroke="black" cx="1976.5" cy="-1042.53" rx="31.6406" ry="26.7407"/>
<text text-anchor="middle" x="1976.5" y="-1046.33" font-family="Times,serif" font-size="14.00">cook</text>
<text text-anchor="middle" x="1976.5" y="-1031.33" font-family="Times,serif" font-size="14.00">1</text>
</g>
<!-- E0&#45;&gt;E1 -->
<g id="edge6" class="edge"><title>E0&#45;&gt;E1</title>
<path fill="none" stroke="black" d="M2374.31,-1129.18C2368.64,-1125.88 2362.51,-1122.74 2356.5,-1120.4 2238.94,-1074.72 2089.89,-1054.73 2018.43,-1047.29"/>
<polygon fill="black" stroke="black" points="2018.35,-1043.77 2008.05,-1046.25 2017.65,-1050.73 2018.35,-1043.77"/>
<text text-anchor="middle" x="2347" y="-1091.2" font-family="Times,serif" font-size="14.00">IMPLICIT PREP</text>
</g>
<!-- E2 -->
<g id="node3" class="node"><title>E2</title>
<ellipse fill="azure" stroke="black" cx="1866.5" cy="-937.791" rx="42.3529" ry="26.7407"/>
<text text-anchor="middle" x="1866.5" y="-941.591" font-family="Times,serif" font-size="14.00">transfer</text>
<text text-anchor="middle" x="1866.5" y="-926.591" font-family="Times,serif" font-size="14.00">2</text>
</g>
<!-- E1&#45;&gt;E2 -->
<g id="edge9" class="edge"><title>E1&#45;&gt;E2</title>
<path fill="none" stroke="black" d="M1955.55,-1021.96C1939.08,-1006.58 1915.89,-984.92 1897.3,-967.561"/>
<polygon fill="black" stroke="black" points="1899.35,-964.684 1889.65,-960.416 1894.57,-969.799 1899.35,-964.684"/>
<text text-anchor="middle" x="1979" y="-986.461" font-family="Times,serif" font-size="14.00">steak and peppers</text>
</g>
<!-- E3 -->
<g id="node4" class="node"><title>E3</title>
<ellipse fill="azure" stroke="black" cx="1723.5" cy="-833.051" rx="35.2113" ry="26.7407"/>
<text text-anchor="middle" x="1723.5" y="-836.851" font-family="Times,serif" font-size="14.00">stir in</text>
<text text-anchor="middle" x="1723.5" y="-821.851" font-family="Times,serif" font-size="14.00">3</text>
</g>
<!-- E2&#45;&gt;E3 -->
<g id="edge12" class="edge"><title>E2&#45;&gt;E3</title>
<path fill="none" stroke="black" d="M1838.93,-916.982C1815.55,-900.186 1781.94,-876.041 1757.02,-858.132"/>
<polygon fill="black" stroke="black" points="1758.76,-855.072 1748.59,-852.079 1754.67,-860.756 1758.76,-855.072"/>
<text text-anchor="middle" x="1854" y="-881.721" font-family="Times,serif" font-size="14.00">IMPLICIT PREP</text>
</g>
<!-- E4 -->
<g id="node5" class="node"><title>E4</title>
<ellipse fill="azure" stroke="black" cx="1647.5" cy="-728.311" rx="33.8824" ry="26.7407"/>
<text text-anchor="middle" x="1647.5" y="-732.111" font-family="Times,serif" font-size="14.00">bring</text>
<text text-anchor="middle" x="1647.5" y="-717.111" font-family="Times,serif" font-size="14.00">4</text>
</g>
<!-- E3&#45;&gt;E4 -->
<g id="edge13" class="edge"><title>E3&#45;&gt;E4</title>
<path fill="none" stroke="black" d="M1706.63,-809.25C1696.01,-794.884 1682.15,-776.148 1670.52,-760.426"/>
<polygon fill="black" stroke="black" points="1673.08,-758.006 1664.32,-752.048 1667.45,-762.169 1673.08,-758.006"/>
<text text-anchor="middle" x="1740.5" y="-776.981" font-family="Times,serif" font-size="14.00">IMPLICIT DOBJ</text>
</g>
<!-- E5 -->
<g id="node6" class="node"><title>E5</title>
<ellipse fill="azure" stroke="black" cx="1525.5" cy="-623.571" rx="38.7821" ry="26.7407"/>
<text text-anchor="middle" x="1525.5" y="-627.371" font-family="Times,serif" font-size="14.00">reduce</text>
<text text-anchor="middle" x="1525.5" y="-612.371" font-family="Times,serif" font-size="14.00">5</text>
</g>
<!-- E4&#45;&gt;E5 -->
<g id="edge16" class="edge"><title>E4&#45;&gt;E5</title>
<path fill="none" stroke="black" d="M1624.84,-708.227C1605.9,-692.275 1578.66,-669.339 1557.5,-651.515"/>
<polygon fill="black" stroke="black" points="1559.62,-648.724 1549.71,-644.96 1555.11,-654.079 1559.62,-648.724"/>
<text text-anchor="middle" x="1644" y="-672.241" font-family="Times,serif" font-size="14.00">IMPLICIT PREP</text>
</g>
<!-- E6 -->
<g id="node7" class="node"><title>E6</title>
<ellipse fill="azure" stroke="black" cx="1461.5" cy="-518.831" rx="33.8824" ry="26.7407"/>
<text text-anchor="middle" x="1461.5" y="-522.631" font-family="Times,serif" font-size="14.00">cover</text>
<text text-anchor="middle" x="1461.5" y="-507.631" font-family="Times,serif" font-size="14.00">6</text>
</g>
<!-- E5&#45;&gt;E6 -->
<g id="edge19" class="edge"><title>E5&#45;&gt;E6</title>
<path fill="none" stroke="black" d="M1510.49,-598.483C1501.85,-584.6 1490.87,-566.973 1481.49,-551.927"/>
<polygon fill="black" stroke="black" points="1484.45,-550.051 1476.19,-543.413 1478.51,-553.752 1484.45,-550.051"/>
<text text-anchor="middle" x="1548" y="-567.501" font-family="Times,serif" font-size="14.00">IMPLICIT PREP</text>
</g>
<!-- E7 -->
<g id="node8" class="node"><title>E7</title>
<ellipse fill="azure" stroke="black" cx="1290.5" cy="-414.09" rx="41.9398" ry="26.7407"/>
<text text-anchor="middle" x="1290.5" y="-417.89" font-family="Times,serif" font-size="14.00">simmer</text>
<text text-anchor="middle" x="1290.5" y="-402.89" font-family="Times,serif" font-size="14.00">7</text>
</g>
<!-- E6&#45;&gt;E7 -->
<g id="edge20" class="edge"><title>E6&#45;&gt;E7</title>
<path fill="none" stroke="black" d="M1434.66,-501.681C1429.31,-498.46 1423.73,-495.102 1418.5,-491.96 1388.39,-473.862 1354.29,-453.384 1328.86,-438.116"/>
<polygon fill="black" stroke="black" points="1330.62,-435.092 1320.25,-432.946 1327.02,-441.094 1330.62,-435.092"/>
<text text-anchor="middle" x="1438.5" y="-462.76" font-family="Times,serif" font-size="14.00">IMPLICIT DOBJ</text>
</g>
<!-- E8 -->
<g id="node9" class="node"><title>E8</title>
<ellipse fill="azure" stroke="black" cx="1223.5" cy="-309.35" rx="43.2674" ry="26.7407"/>
<text text-anchor="middle" x="1223.5" y="-313.15" font-family="Times,serif" font-size="14.00">turn off</text>
<text text-anchor="middle" x="1223.5" y="-298.15" font-family="Times,serif" font-size="14.00">8</text>
</g>
<!-- E7&#45;&gt;E8 -->
<g id="edge23" class="edge"><title>E7&#45;&gt;E8</title>
<path fill="none" stroke="black" d="M1274.79,-389.002C1265.87,-375.318 1254.57,-357.996 1244.85,-343.093"/>
<polygon fill="black" stroke="black" points="1247.74,-341.108 1239.34,-334.643 1241.87,-344.932 1247.74,-341.108"/>
<text text-anchor="middle" x="1312" y="-358.02" font-family="Times,serif" font-size="14.00">IMPLICIT PREP</text>
</g>
<!-- E15 -->
<g id="node16" class="node"><title>E15</title>
<ellipse fill="azure" stroke="black" cx="945.5" cy="-204.61" rx="27" ry="26.7407"/>
<text text-anchor="middle" x="945.5" y="-208.41" font-family="Times,serif" font-size="14.00">stir</text>
<text text-anchor="middle" x="945.5" y="-193.41" font-family="Times,serif" font-size="14.00">15</text>
</g>
<!-- E8&#45;&gt;E15 -->
<g id="edge38" class="edge"><title>E8&#45;&gt;E15</title>
<path fill="none" stroke="black" d="M1191.08,-291.388C1184.66,-288.269 1177.92,-285.156 1171.5,-282.48 1105.52,-254.993 1025.88,-229.655 980.918,-216.045"/>
<polygon fill="black" stroke="black" points="981.918,-212.691 971.333,-213.162 979.901,-219.394 981.918,-212.691"/>
<text text-anchor="middle" x="1223.5" y="-253.28" font-family="Times,serif" font-size="14.00">COOBJECT:into the meat mixture</text>
</g>
<!-- E9 -->
<g id="node10" class="node"><title>E9</title>
<ellipse fill="azure" stroke="black" cx="2832.5" cy="-1147.27" rx="27" ry="26.7407"/>
<text text-anchor="middle" x="2832.5" y="-1151.07" font-family="Times,serif" font-size="14.00">fill</text>
<text text-anchor="middle" x="2832.5" y="-1136.07" font-family="Times,serif" font-size="14.00">9</text>
</g>
<!-- E10 -->
<g id="node11" class="node"><title>E10</title>
<ellipse fill="azure" stroke="black" cx="2709.5" cy="-1042.53" rx="33.8824" ry="26.7407"/>
<text text-anchor="middle" x="2709.5" y="-1046.33" font-family="Times,serif" font-size="14.00">bring</text>
<text text-anchor="middle" x="2709.5" y="-1031.33" font-family="Times,serif" font-size="14.00">10</text>
</g>
<!-- E9&#45;&gt;E10 -->
<g id="edge24" class="edge"><title>E9&#45;&gt;E10</title>
<path fill="none" stroke="black" d="M2812.19,-1129.31C2792.62,-1112.96 2762.76,-1088.02 2740.27,-1069.23"/>
<polygon fill="black" stroke="black" points="2742.27,-1066.34 2732.35,-1062.62 2737.78,-1071.72 2742.27,-1066.34"/>
<text text-anchor="middle" x="2828.5" y="-1091.2" font-family="Times,serif" font-size="14.00">IMPLICIT DOBJ</text>
</g>
<!-- E11 -->
<g id="node12" class="node"><title>E11</title>
<ellipse fill="azure" stroke="black" cx="158.5" cy="-518.831" rx="35.2113" ry="26.7407"/>
<text text-anchor="middle" x="158.5" y="-522.631" font-family="Times,serif" font-size="14.00">stir in</text>
<text text-anchor="middle" x="158.5" y="-507.631" font-family="Times,serif" font-size="14.00">11</text>
</g>
<!-- E12 -->
<g id="node13" class="node"><title>E12</title>
<ellipse fill="azure" stroke="black" cx="216.5" cy="-414.09" rx="36.5405" ry="26.7407"/>
<text text-anchor="middle" x="216.5" y="-417.89" font-family="Times,serif" font-size="14.00">return</text>
<text text-anchor="middle" x="216.5" y="-402.89" font-family="Times,serif" font-size="14.00">12</text>
</g>
<!-- E11&#45;&gt;E12 -->
<g id="edge29" class="edge"><title>E11&#45;&gt;E12</title>
<path fill="none" stroke="black" d="M154.176,-492.03C153.554,-481.288 154.449,-469.006 159.5,-458.96 163.867,-450.276 170.848,-442.817 178.451,-436.64"/>
<polygon fill="black" stroke="black" points="180.88,-439.198 186.849,-430.445 176.724,-433.565 180.88,-439.198"/>
<text text-anchor="middle" x="210.5" y="-462.76" font-family="Times,serif" font-size="14.00">IMPLICIT DOBJ</text>
</g>
<!-- E13 -->
<g id="node14" class="node"><title>E13</title>
<ellipse fill="azure" stroke="black" cx="337.5" cy="-309.35" rx="31.6406" ry="26.7407"/>
<text text-anchor="middle" x="337.5" y="-313.15" font-family="Times,serif" font-size="14.00">cook</text>
<text text-anchor="middle" x="337.5" y="-298.15" font-family="Times,serif" font-size="14.00">13</text>
</g>
<!-- E12&#45;&gt;E13 -->
<g id="edge31" class="edge"><title>E12&#45;&gt;E13</title>
<path fill="none" stroke="black" d="M239.256,-392.707C252.134,-381.271 268.598,-366.813 283.5,-354.22 290.953,-347.923 299.079,-341.231 306.712,-335.022"/>
<polygon fill="black" stroke="black" points="309.178,-337.528 314.745,-328.514 304.772,-332.089 309.178,-337.528"/>
<text text-anchor="middle" x="308.5" y="-358.02" font-family="Times,serif" font-size="14.00">the pasta</text>
</g>
<!-- E14 -->
<g id="node15" class="node"><title>E14</title>
<ellipse fill="azure" stroke="black" cx="536.5" cy="-204.61" rx="33.4697" ry="26.7407"/>
<text text-anchor="middle" x="536.5" y="-208.41" font-family="Times,serif" font-size="14.00">drain</text>
<text text-anchor="middle" x="536.5" y="-193.41" font-family="Times,serif" font-size="14.00">14</text>
</g>
<!-- E13&#45;&gt;E14 -->
<g id="edge34" class="edge"><title>E13&#45;&gt;E14</title>
<path fill="none" stroke="black" d="M359.466,-289.547C374.936,-276.985 396.546,-260.759 417.5,-249.48 442.354,-236.102 472.154,-225.122 495.716,-217.493"/>
<polygon fill="black" stroke="black" points="496.92,-220.783 505.4,-214.431 494.81,-214.109 496.92,-220.783"/>
<text text-anchor="middle" x="468.5" y="-253.28" font-family="Times,serif" font-size="14.00">IMPLICIT DOBJ</text>
</g>
<!-- E16 -->
<g id="node17" class="node"><title>E16</title>
<ellipse fill="azure" stroke="black" cx="776.5" cy="-99.8701" rx="32.5538" ry="26.7407"/>
<text text-anchor="middle" x="776.5" y="-103.67" font-family="Times,serif" font-size="14.00">serve</text>
<text text-anchor="middle" x="776.5" y="-88.6701" font-family="Times,serif" font-size="14.00">16</text>
</g>
<!-- E14&#45;&gt;E16 -->
<g id="edge41" class="edge"><title>E14&#45;&gt;E16</title>
<path fill="none" stroke="black" d="M561.199,-186.032C580.038,-173.239 607.005,-156.214 632.5,-144.74 665.97,-129.677 706.055,-117.938 735.424,-110.409"/>
<polygon fill="black" stroke="black" points="736.489,-113.75 745.337,-107.923 734.786,-106.961 736.489,-113.75"/>
<text text-anchor="middle" x="741.5" y="-148.54" font-family="Times,serif" font-size="14.00">COOBJECT:over the cooked noodles</text>
</g>
<!-- E15&#45;&gt;E16 -->
<g id="edge40" class="edge"><title>E15&#45;&gt;E16</title>
<path fill="none" stroke="black" d="M923.306,-188.704C905.029,-176.563 878.339,-159.136 854.5,-144.74 840.885,-136.518 825.685,-127.856 812.345,-120.421"/>
<polygon fill="black" stroke="black" points="813.893,-117.277 803.45,-115.49 810.499,-123.4 813.893,-117.277"/>
<text text-anchor="middle" x="928.5" y="-148.54" font-family="Times,serif" font-size="14.00">IMPLICIT DOBJ</text>
</g>
<!-- EOR -->
<g id="node44" class="node"><title>EOR</title>
<ellipse fill="plum" stroke="black" cx="776.5" cy="-18" rx="57.3905" ry="18"/>
<text text-anchor="middle" x="776.5" y="-14.3" font-family="Times,serif" font-size="14.00">Bon appetit!</text>
</g>
<!-- E16&#45;&gt;EOR -->
<g id="edge42" class="edge"><title>E16&#45;&gt;EOR</title>
<path fill="none" stroke="black" d="M776.5,-72.7176C776.5,-64.2726 776.5,-54.8903 776.5,-46.3604"/>
<polygon fill="black" stroke="black" points="780,-46.1464 776.5,-36.1464 773,-46.1464 780,-46.1464"/>
</g>
<!-- D0 -->
<g id="node18" class="node"><title>D0</title>
<polygon fill="white" stroke="black" points="2306.5,-1247.14 2170.5,-1247.14 2170.5,-1211.14 2306.5,-1211.14 2306.5,-1247.14"/>
<text text-anchor="middle" x="2238.5" y="-1225.44" font-family="Times,serif" font-size="14.00">DOBJ: a large skillet</text>
</g>
<!-- D0&#45;&gt;E0 -->
<g id="edge1" class="edge"><title>D0&#45;&gt;E0</title>
<path fill="none" stroke="black" d="M2278.64,-1211.11C2301.72,-1200.99 2331.09,-1187.54 2356.5,-1174.14 2359.19,-1172.72 2361.94,-1171.21 2364.69,-1169.66"/>
<polygon fill="black" stroke="black" points="2366.49,-1172.66 2373.39,-1164.62 2362.98,-1166.6 2366.49,-1172.66"/>
</g>
<!-- P0_0 -->
<g id="node19" class="node"><title>P0_0</title>
<polygon fill="peachpuff" stroke="black" points="2530.5,-1247.14 2324.5,-1247.14 2324.5,-1211.14 2530.5,-1211.14 2530.5,-1247.14"/>
<text text-anchor="middle" x="2427.5" y="-1225.44" font-family="Times,serif" font-size="14.00">COOBJECT:with cooking spray</text>
</g>
<!-- P0_0&#45;&gt;E0 -->
<g id="edge2" class="edge"><title>P0_0&#45;&gt;E0</title>
<path fill="none" stroke="black" d="M2421.42,-1210.81C2418.58,-1202.71 2415.09,-1192.75 2411.74,-1183.18"/>
<polygon fill="black" stroke="black" points="2414.94,-1181.73 2408.33,-1173.45 2408.33,-1184.05 2414.94,-1181.73"/>
</g>
<!-- D9 -->
<g id="node20" class="node"><title>D9</title>
<polygon fill="white" stroke="black" points="2795,-1247.14 2674,-1247.14 2674,-1211.14 2795,-1211.14 2795,-1247.14"/>
<text text-anchor="middle" x="2734.5" y="-1225.44" font-family="Times,serif" font-size="14.00">DOBJ: a large pot</text>
</g>
<!-- D9&#45;&gt;E9 -->
<g id="edge3" class="edge"><title>D9&#45;&gt;E9</title>
<path fill="none" stroke="black" d="M2755.76,-1210.81C2769.82,-1199.35 2788.43,-1184.19 2803.79,-1171.67"/>
<polygon fill="black" stroke="black" points="2806.41,-1174.05 2811.95,-1165.02 2801.99,-1168.63 2806.41,-1174.05"/>
</g>
<!-- P9_0 -->
<g id="node21" class="node"><title>P9_0</title>
<polygon fill="peachpuff" stroke="black" points="3046,-1247.14 2813,-1247.14 2813,-1211.14 3046,-1211.14 3046,-1247.14"/>
<text text-anchor="middle" x="2929.5" y="-1225.44" font-family="Times,serif" font-size="14.00">COOBJECT:with lightly salted water</text>
</g>
<!-- P9_0&#45;&gt;E9 -->
<g id="edge4" class="edge"><title>P9_0&#45;&gt;E9</title>
<path fill="none" stroke="black" d="M2908.45,-1210.81C2894.54,-1199.35 2876.12,-1184.19 2860.91,-1171.67"/>
<polygon fill="black" stroke="black" points="2862.79,-1168.68 2852.84,-1165.02 2858.34,-1174.08 2862.79,-1168.68"/>
</g>
<!-- D1_ing -->
<g id="node22" class="node"><title>D1_ing</title>
<polygon fill="peachpuff" stroke="black" points="1711.5,-1165.27 1481.5,-1165.27 1481.5,-1129.27 1711.5,-1129.27 1711.5,-1165.27"/>
<text text-anchor="middle" x="1596.5" y="-1143.57" font-family="Times,serif" font-size="14.00">DOBJ: the flank steak, green peppers</text>
</g>
<!-- D1_ing&#45;&gt;E1 -->
<g id="edge5" class="edge"><title>D1_ing&#45;&gt;E1</title>
<path fill="none" stroke="black" d="M1675.07,-1129.23C1771.66,-1108.18 1924.37,-1074.51 1936.5,-1069.4 1938.99,-1068.35 1941.49,-1067.16 1943.96,-1065.86"/>
<polygon fill="black" stroke="black" points="1945.79,-1068.85 1952.72,-1060.83 1942.3,-1062.78 1945.79,-1068.85"/>
</g>
<!-- O1_0_0 -->
<g id="node23" class="node"><title>O1_0_0</title>
<polygon fill="white" stroke="black" points="1905.5,-1165.27 1729.5,-1165.27 1729.5,-1129.27 1905.5,-1129.27 1905.5,-1165.27"/>
<text text-anchor="middle" x="1817.5" y="-1143.57" font-family="Times,serif" font-size="14.00">OTHER: over medium heat</text>
</g>
<!-- O1_0_0&#45;&gt;E1 -->
<g id="edge7" class="edge"><title>O1_0_0&#45;&gt;E1</title>
<path fill="none" stroke="black" d="M1843.97,-1129.18C1868.09,-1113.6 1904.69,-1089.96 1936.5,-1069.4 1938.63,-1068.03 1940.82,-1066.61 1943.03,-1065.18"/>
<polygon fill="black" stroke="black" points="1945.04,-1068.05 1951.54,-1059.68 1941.24,-1062.17 1945.04,-1068.05"/>
</g>
<!-- O1_1_0 -->
<g id="node24" class="node"><title>O1_1_0</title>
<polygon fill="white" stroke="black" points="2347.5,-1165.27 1923.5,-1165.27 1923.5,-1129.27 2347.5,-1129.27 2347.5,-1165.27"/>
<text text-anchor="middle" x="2135.5" y="-1143.57" font-family="Times,serif" font-size="14.00">OTHER: until the steak pieces have begun to brown, about 10 minutes</text>
</g>
<!-- O1_1_0&#45;&gt;E1 -->
<g id="edge8" class="edge"><title>O1_1_0&#45;&gt;E1</title>
<path fill="none" stroke="black" d="M2108.89,-1129.07C2081.73,-1111.53 2039.5,-1084.24 2010.06,-1065.22"/>
<polygon fill="black" stroke="black" points="2011.66,-1062.09 2001.36,-1059.6 2007.86,-1067.96 2011.66,-1062.09"/>
</g>
<!-- P2_0_0 -->
<g id="node25" class="node"><title>P2_0_0</title>
<polygon fill="white" stroke="black" points="1927,-1060.53 1710,-1060.53 1710,-1024.53 1927,-1024.53 1927,-1060.53"/>
<text text-anchor="middle" x="1818.5" y="-1038.83" font-family="Times,serif" font-size="14.00">LOCATION:into a large saucepan,</text>
</g>
<!-- P2_0_0&#45;&gt;E2 -->
<g id="edge10" class="edge"><title>P2_0_0&#45;&gt;E2</title>
<path fill="none" stroke="black" d="M1826.64,-1024.1C1833.14,-1010.19 1842.45,-990.268 1850.44,-973.173"/>
<polygon fill="black" stroke="black" points="1853.65,-974.564 1854.71,-964.023 1847.31,-971.601 1853.65,-974.564"/>
</g>
<!-- D3_ing -->
<g id="node26" class="node"><title>D3_ing</title>
<polygon fill="peachpuff" stroke="black" points="1806.5,-955.791 1522.5,-955.791 1522.5,-919.791 1806.5,-919.791 1806.5,-955.791"/>
<text text-anchor="middle" x="1664.5" y="-934.091" font-family="Times,serif" font-size="14.00">DOBJ: the beef consomme, french onion soup</text>
</g>
<!-- D3_ing&#45;&gt;E3 -->
<g id="edge11" class="edge"><title>D3_ing&#45;&gt;E3</title>
<path fill="none" stroke="black" d="M1674.51,-919.363C1682.74,-905.029 1694.64,-884.315 1704.64,-866.887"/>
<polygon fill="black" stroke="black" points="1707.73,-868.539 1709.68,-858.125 1701.66,-865.054 1707.73,-868.539"/>
</g>
<!-- O4_0_0 -->
<g id="node27" class="node"><title>O4_0_0</title>
<polygon fill="white" stroke="black" points="1670,-851.051 1551,-851.051 1551,-815.051 1670,-815.051 1670,-851.051"/>
<text text-anchor="middle" x="1610.5" y="-829.351" font-family="Times,serif" font-size="14.00">OTHER: to a boil</text>
</g>
<!-- O4_0_0&#45;&gt;E4 -->
<g id="edge14" class="edge"><title>O4_0_0&#45;&gt;E4</title>
<path fill="none" stroke="black" d="M1616.78,-814.622C1621.74,-800.839 1628.83,-781.156 1634.95,-764.168"/>
<polygon fill="black" stroke="black" points="1638.32,-765.137 1638.41,-754.542 1631.73,-762.765 1638.32,-765.137"/>
</g>
<!-- D5_0 -->
<g id="node28" class="node"><title>D5_0</title>
<polygon fill="white" stroke="black" points="1437,-746.311 1354,-746.311 1354,-710.311 1437,-710.311 1437,-746.311"/>
<text text-anchor="middle" x="1395.5" y="-724.611" font-family="Times,serif" font-size="14.00">DOBJ: heat</text>
</g>
<!-- D5_0&#45;&gt;E5 -->
<g id="edge15" class="edge"><title>D5_0&#45;&gt;E5</title>
<path fill="none" stroke="black" d="M1417.26,-710.114C1437.82,-693.865 1468.95,-669.266 1492.55,-650.611"/>
<polygon fill="black" stroke="black" points="1494.88,-653.231 1500.56,-644.284 1490.54,-647.739 1494.88,-653.231"/>
</g>
<!-- O5_0_0 -->
<g id="node29" class="node"><title>O5_0_0</title>
<polygon fill="white" stroke="black" points="1595.5,-746.311 1455.5,-746.311 1455.5,-710.311 1595.5,-710.311 1595.5,-746.311"/>
<text text-anchor="middle" x="1525.5" y="-724.611" font-family="Times,serif" font-size="14.00">OTHER: to a simmer</text>
</g>
<!-- O5_0_0&#45;&gt;E5 -->
<g id="edge17" class="edge"><title>O5_0_0&#45;&gt;E5</title>
<path fill="none" stroke="black" d="M1525.5,-709.882C1525.5,-696.418 1525.5,-677.322 1525.5,-660.61"/>
<polygon fill="black" stroke="black" points="1529,-660.583 1525.5,-650.583 1522,-660.583 1529,-660.583"/>
</g>
<!-- D6_0 -->
<g id="node30" class="node"><title>D6_0</title>
<polygon fill="white" stroke="black" points="1469,-641.571 1388,-641.571 1388,-605.571 1469,-605.571 1469,-641.571"/>
<text text-anchor="middle" x="1428.5" y="-619.871" font-family="Times,serif" font-size="14.00">DOBJ: pan</text>
</g>
<!-- D6_0&#45;&gt;E6 -->
<g id="edge18" class="edge"><title>D6_0&#45;&gt;E6</title>
<path fill="none" stroke="black" d="M1434.1,-605.142C1438.53,-591.359 1444.85,-571.676 1450.3,-554.688"/>
<polygon fill="black" stroke="black" points="1453.67,-555.654 1453.4,-545.062 1447.01,-553.513 1453.67,-555.654"/>
</g>
<!-- O7_0_0 -->
<g id="node31" class="node"><title>O7_0_0</title>
<polygon fill="white" stroke="black" points="1409.5,-536.831 1035.5,-536.831 1035.5,-500.831 1409.5,-500.831 1409.5,-536.831"/>
<text text-anchor="middle" x="1222.5" y="-515.131" font-family="Times,serif" font-size="14.00">OTHER: until the beef is tender, about 1 hour and 20 minutes</text>
</g>
<!-- O7_0_0&#45;&gt;E7 -->
<g id="edge21" class="edge"><title>O7_0_0&#45;&gt;E7</title>
<path fill="none" stroke="black" d="M1234.04,-500.402C1243.52,-486.069 1257.23,-465.355 1268.77,-447.927"/>
<polygon fill="black" stroke="black" points="1271.97,-449.435 1274.57,-439.164 1266.13,-445.571 1271.97,-449.435"/>
</g>
<!-- D8_0 -->
<g id="node32" class="node"><title>D8_0</title>
<polygon fill="white" stroke="black" points="1231,-432.09 1148,-432.09 1148,-396.09 1231,-396.09 1231,-432.09"/>
<text text-anchor="middle" x="1189.5" y="-410.39" font-family="Times,serif" font-size="14.00">DOBJ: heat</text>
</g>
<!-- D8_0&#45;&gt;E8 -->
<g id="edge22" class="edge"><title>D8_0&#45;&gt;E8</title>
<path fill="none" stroke="black" d="M1195.27,-395.662C1199.8,-381.975 1206.25,-362.468 1211.85,-345.562"/>
<polygon fill="black" stroke="black" points="1215.2,-346.565 1215.02,-335.972 1208.56,-344.366 1215.2,-346.565"/>
</g>
<!-- O10_0_0 -->
<g id="node33" class="node"><title>O10_0_0</title>
<polygon fill="white" stroke="black" points="2613.5,-1165.27 2451.5,-1165.27 2451.5,-1129.27 2613.5,-1129.27 2613.5,-1165.27"/>
<text text-anchor="middle" x="2532.5" y="-1143.57" font-family="Times,serif" font-size="14.00">OTHER: to a rolling boil</text>
</g>
<!-- O10_0_0&#45;&gt;E10 -->
<g id="edge25" class="edge"><title>O10_0_0&#45;&gt;E10</title>
<path fill="none" stroke="black" d="M2562.13,-1129.07C2592.89,-1111.22 2641.03,-1083.28 2673.85,-1064.22"/>
<polygon fill="black" stroke="black" points="2675.79,-1067.15 2682.68,-1059.1 2672.27,-1061.09 2675.79,-1067.15"/>
</g>
<!-- O10_1_0 -->
<g id="node34" class="node"><title>O10_1_0</title>
<polygon fill="white" stroke="black" points="2787,-1165.27 2632,-1165.27 2632,-1129.27 2787,-1129.27 2787,-1165.27"/>
<text text-anchor="middle" x="2709.5" y="-1143.57" font-family="Times,serif" font-size="14.00">OTHER: over high heat</text>
</g>
<!-- O10_1_0&#45;&gt;E10 -->
<g id="edge26" class="edge"><title>O10_1_0&#45;&gt;E10</title>
<path fill="none" stroke="black" d="M2709.5,-1128.84C2709.5,-1115.38 2709.5,-1096.28 2709.5,-1079.57"/>
<polygon fill="black" stroke="black" points="2713,-1079.54 2709.5,-1069.54 2706,-1079.54 2713,-1079.54"/>
</g>
<!-- D11_ing -->
<g id="node35" class="node"><title>D11_ing</title>
<polygon fill="peachpuff" stroke="black" points="151,-641.571 0,-641.571 0,-605.571 151,-605.571 151,-641.571"/>
<text text-anchor="middle" x="75.5" y="-619.871" font-family="Times,serif" font-size="14.00">DOBJ: the egg noodles</text>
</g>
<!-- D11_ing&#45;&gt;E11 -->
<g id="edge27" class="edge"><title>D11_ing&#45;&gt;E11</title>
<path fill="none" stroke="black" d="M89.5798,-605.142C101.773,-590.05 119.681,-567.882 134.187,-549.926"/>
<polygon fill="black" stroke="black" points="137.018,-551.991 140.58,-542.013 131.573,-547.592 137.018,-551.991"/>
</g>
<!-- P11_0_0 -->
<g id="node36" class="node"><title>P11_0_0</title>
<polygon fill="white" stroke="black" points="315.5,-641.571 169.5,-641.571 169.5,-605.571 315.5,-605.571 315.5,-641.571"/>
<text text-anchor="middle" x="242.5" y="-619.871" font-family="Times,serif" font-size="14.00">COOBJECT:the water</text>
</g>
<!-- P11_0_0&#45;&gt;E11 -->
<g id="edge28" class="edge"><title>P11_0_0&#45;&gt;E11</title>
<path fill="none" stroke="black" d="M228.251,-605.142C215.911,-590.05 197.787,-567.882 183.106,-549.926"/>
<polygon fill="black" stroke="black" points="185.676,-547.539 176.636,-542.013 180.256,-551.97 185.676,-547.539"/>
</g>
<!-- O12_0_0 -->
<g id="node37" class="node"><title>O12_0_0</title>
<polygon fill="white" stroke="black" points="337,-536.831 214,-536.831 214,-500.831 337,-500.831 337,-536.831"/>
<text text-anchor="middle" x="275.5" y="-515.131" font-family="Times,serif" font-size="14.00">OTHER: to a boil.</text>
</g>
<!-- O12_0_0&#45;&gt;E12 -->
<g id="edge30" class="edge"><title>O12_0_0&#45;&gt;E12</title>
<path fill="none" stroke="black" d="M273.986,-500.665C272.311,-488.396 268.806,-471.846 261.5,-458.96 258.029,-452.839 253.45,-447.017 248.543,-441.732"/>
<polygon fill="black" stroke="black" points="250.755,-438.995 241.208,-434.402 245.807,-443.946 250.755,-438.995"/>
</g>
<!-- O13_0_0 -->
<g id="node38" class="node"><title>O13_0_0</title>
<polygon fill="white" stroke="black" points="403.5,-432.09 271.5,-432.09 271.5,-396.09 403.5,-396.09 403.5,-432.09"/>
<text text-anchor="middle" x="337.5" y="-410.39" font-family="Times,serif" font-size="14.00">OTHER: uncovered</text>
</g>
<!-- O13_0_0&#45;&gt;E13 -->
<g id="edge32" class="edge"><title>O13_0_0&#45;&gt;E13</title>
<path fill="none" stroke="black" d="M337.5,-395.662C337.5,-382.197 337.5,-363.102 337.5,-346.389"/>
<polygon fill="black" stroke="black" points="341,-346.363 337.5,-336.363 334,-346.363 341,-346.363"/>
</g>
<!-- O13_1_0 -->
<g id="node39" class="node"><title>O13_1_0</title>
<polygon fill="white" stroke="black" points="943,-432.09 422,-432.09 422,-396.09 943,-396.09 943,-432.09"/>
<text text-anchor="middle" x="682.5" y="-410.39" font-family="Times,serif" font-size="14.00">OTHER: until the pasta has cooked through, but is still firm to the bite, about 5 minutes</text>
</g>
<!-- O13_1_0&#45;&gt;E13 -->
<g id="edge33" class="edge"><title>O13_1_0&#45;&gt;E13</title>
<path fill="none" stroke="black" d="M580.529,-396.073C519.928,-383.855 442.467,-364.495 377.5,-336.22 375.026,-335.144 372.533,-333.921 370.066,-332.608"/>
<polygon fill="black" stroke="black" points="371.734,-329.529 361.326,-327.55 368.228,-335.588 371.734,-329.529"/>
</g>
<!-- P14_0_0 -->
<g id="node40" class="node"><title>P14_0_0</title>
<polygon fill="white" stroke="black" points="638,-327.35 387,-327.35 387,-291.35 638,-291.35 638,-327.35"/>
<text text-anchor="middle" x="512.5" y="-305.65" font-family="Times,serif" font-size="14.00">LOCATION:in a colander set in the sink</text>
</g>
<!-- P14_0_0&#45;&gt;E14 -->
<g id="edge35" class="edge"><title>P14_0_0&#45;&gt;E14</title>
<path fill="none" stroke="black" d="M516.571,-290.922C519.739,-277.362 524.24,-258.092 528.164,-241.296"/>
<polygon fill="black" stroke="black" points="531.648,-241.766 530.515,-231.232 524.832,-240.173 531.648,-241.766"/>
</g>
<!-- O14_0_0 -->
<g id="node41" class="node"><title>O14_0_0</title>
<polygon fill="white" stroke="black" points="753,-327.35 656,-327.35 656,-291.35 753,-291.35 753,-327.35"/>
<text text-anchor="middle" x="704.5" y="-305.65" font-family="Times,serif" font-size="14.00">OTHER: well</text>
</g>
<!-- O14_0_0&#45;&gt;E14 -->
<g id="edge36" class="edge"><title>O14_0_0&#45;&gt;E14</title>
<path fill="none" stroke="black" d="M676.381,-291.154C647.475,-273.477 602.412,-245.919 571.282,-226.881"/>
<polygon fill="black" stroke="black" points="572.857,-223.742 562.5,-221.51 569.205,-229.713 572.857,-223.742"/>
</g>
<!-- D15_ing -->
<g id="node42" class="node"><title>D15_ing</title>
<polygon fill="peachpuff" stroke="black" points="916,-327.35 771,-327.35 771,-291.35 916,-291.35 916,-327.35"/>
<text text-anchor="middle" x="843.5" y="-305.65" font-family="Times,serif" font-size="14.00">DOBJ: the sour cream</text>
</g>
<!-- D15_ing&#45;&gt;E15 -->
<g id="edge37" class="edge"><title>D15_ing&#45;&gt;E15</title>
<path fill="none" stroke="black" d="M860.803,-290.922C876.817,-274.792 900.854,-250.58 919.235,-232.065"/>
<polygon fill="black" stroke="black" points="922.165,-234.082 926.727,-224.52 917.197,-229.15 922.165,-234.082"/>
</g>
<!-- O15_0_0 -->
<g id="node43" class="node"><title>O15_0_0</title>
<polygon fill="white" stroke="black" points="1162.5,-327.35 934.5,-327.35 934.5,-291.35 1162.5,-291.35 1162.5,-327.35"/>
<text text-anchor="middle" x="1048.5" y="-305.65" font-family="Times,serif" font-size="14.00">OTHER: until thoroughly combined</text>
</g>
<!-- O15_0_0&#45;&gt;E15 -->
<g id="edge39" class="edge"><title>O15_0_0&#45;&gt;E15</title>
<path fill="none" stroke="black" d="M1031.03,-290.922C1014.76,-274.691 990.281,-250.279 971.677,-231.721"/>
<polygon fill="black" stroke="black" points="973.656,-228.751 964.104,-224.167 968.712,-233.707 973.656,-228.751"/>
</g>
</g>
</svg>
