<?xml version="1.0" encoding="UTF-8" standalone="no"?>
<!DOCTYPE svg PUBLIC "-//W3C//DTD SVG 1.1//EN"
 "http://www.w3.org/Graphics/SVG/1.1/DTD/svg11.dtd">
<!-- Generated by graphviz version 2.38.0 (20140413.2041)
 -->
<!-- Title: recipe Pages: 1 -->
<svg width="1276pt" height="1046pt"
 viewBox="0.00 0.00 1276.00 1045.66" xmlns="http://www.w3.org/2000/svg" xmlns:xlink="http://www.w3.org/1999/xlink">
<g id="graph0" class="graph" transform="scale(1 1) rotate(0) translate(4 1041.66)">
<title>recipe</title>
<polygon fill="white" stroke="none" points="-4,4 -4,-1041.66 1272,-1041.66 1272,4 -4,4"/>
<!-- E0 -->
<g id="node1" class="node"><title>E0</title>
<ellipse fill="azure" stroke="black" cx="504" cy="-937.791" rx="33.8824" ry="26.7407"/>
<text text-anchor="middle" x="504" y="-941.591" font-family="Times,serif" font-size="14.00">cover</text>
<text text-anchor="middle" x="504" y="-926.591" font-family="Times,serif" font-size="14.00">0</text>
</g>
<!-- E1 -->
<g id="node2" class="node"><title>E1</title>
<ellipse fill="azure" stroke="black" cx="412" cy="-833.051" rx="33.8824" ry="26.7407"/>
<text text-anchor="middle" x="412" y="-836.851" font-family="Times,serif" font-size="14.00">bring</text>
<text text-anchor="middle" x="412" y="-821.851" font-family="Times,serif" font-size="14.00">1</text>
</g>
<!-- E0&#45;&gt;E1 -->
<g id="edge7" class="edge"><title>E0&#45;&gt;E1</title>
<path fill="none" stroke="black" d="M484.938,-915.503C471.368,-900.35 452.971,-879.805 438.048,-863.14"/>
<polygon fill="black" stroke="black" points="440.316,-860.426 431.038,-855.311 435.102,-865.096 440.316,-860.426"/>
<text text-anchor="middle" x="480.5" y="-881.721" font-family="Times,serif" font-size="14.00">water</text>
</g>
<!-- E2 -->
<g id="node3" class="node"><title>E2</title>
<ellipse fill="azure" stroke="black" cx="240" cy="-728.311" rx="31.6406" ry="26.7407"/>
<text text-anchor="middle" x="240" y="-732.111" font-family="Times,serif" font-size="14.00">cook</text>
<text text-anchor="middle" x="240" y="-717.111" font-family="Times,serif" font-size="14.00">2</text>
</g>
<!-- E1&#45;&gt;E2 -->
<g id="edge9" class="edge"><title>E1&#45;&gt;E2</title>
<path fill="none" stroke="black" d="M385.173,-815.887C379.818,-812.668 374.232,-809.314 369,-806.181 336.986,-787.012 300.447,-765.25 274.45,-749.786"/>
<polygon fill="black" stroke="black" points="276.102,-746.696 265.718,-744.593 272.524,-752.713 276.102,-746.696"/>
<text text-anchor="middle" x="389" y="-776.981" font-family="Times,serif" font-size="14.00">IMPLICIT DOBJ</text>
</g>
<!-- E3 -->
<g id="node4" class="node"><title>E3</title>
<ellipse fill="azure" stroke="black" cx="143" cy="-623.571" rx="27" ry="26.7407"/>
<text text-anchor="middle" x="143" y="-627.371" font-family="Times,serif" font-size="14.00">let</text>
<text text-anchor="middle" x="143" y="-612.371" font-family="Times,serif" font-size="14.00">3</text>
</g>
<!-- E2&#45;&gt;E3 -->
<g id="edge11" class="edge"><title>E2&#45;&gt;E3</title>
<path fill="none" stroke="black" d="M220.371,-706.52C205.393,-690.655 184.639,-668.673 168.396,-651.47"/>
<polygon fill="black" stroke="black" points="170.698,-648.809 161.288,-643.941 165.608,-653.615 170.698,-648.809"/>
<text text-anchor="middle" x="249" y="-672.241" font-family="Times,serif" font-size="14.00">IMPLICIT DOBJ</text>
</g>
<!-- E4 -->
<g id="node5" class="node"><title>E4</title>
<ellipse fill="azure" stroke="black" cx="143" cy="-518.831" rx="33.4697" ry="26.7407"/>
<text text-anchor="middle" x="143" y="-522.631" font-family="Times,serif" font-size="14.00">mash</text>
<text text-anchor="middle" x="143" y="-507.631" font-family="Times,serif" font-size="14.00">4</text>
</g>
<!-- E3&#45;&gt;E4 -->
<g id="edge13" class="edge"><title>E3&#45;&gt;E4</title>
<path fill="none" stroke="black" d="M143,-596.645C143,-584.356 143,-569.467 143,-556.082"/>
<polygon fill="black" stroke="black" points="146.5,-555.748 143,-545.748 139.5,-555.748 146.5,-555.748"/>
<text text-anchor="middle" x="194" y="-567.501" font-family="Times,serif" font-size="14.00">IMPLICIT DOBJ</text>
</g>
<!-- E5 -->
<g id="node6" class="node"><title>E5</title>
<ellipse fill="azure" stroke="black" cx="1068" cy="-937.791" rx="28.0702" ry="26.7407"/>
<text text-anchor="middle" x="1068" y="-941.591" font-family="Times,serif" font-size="14.00">beat</text>
<text text-anchor="middle" x="1068" y="-926.591" font-family="Times,serif" font-size="14.00">5</text>
</g>
<!-- E6 -->
<g id="node7" class="node"><title>E6</title>
<ellipse fill="azure" stroke="black" cx="1030" cy="-833.051" rx="27" ry="26.7407"/>
<text text-anchor="middle" x="1030" y="-836.851" font-family="Times,serif" font-size="14.00">add</text>
<text text-anchor="middle" x="1030" y="-821.851" font-family="Times,serif" font-size="14.00">6</text>
</g>
<!-- E5&#45;&gt;E6 -->
<g id="edge15" class="edge"><title>E5&#45;&gt;E6</title>
<path fill="none" stroke="black" d="M1058.9,-912.182C1054.01,-898.966 1047.91,-882.471 1042.57,-868.048"/>
<polygon fill="black" stroke="black" points="1045.78,-866.624 1039.03,-858.459 1039.21,-869.052 1045.78,-866.624"/>
<text text-anchor="middle" x="1101.5" y="-881.721" font-family="Times,serif" font-size="14.00">IMPLICIT PREP</text>
</g>
<!-- E7 -->
<g id="node8" class="node"><title>E7</title>
<ellipse fill="azure" stroke="black" cx="1016" cy="-728.311" rx="27" ry="26.7407"/>
<text text-anchor="middle" x="1016" y="-732.111" font-family="Times,serif" font-size="14.00">add</text>
<text text-anchor="middle" x="1016" y="-717.111" font-family="Times,serif" font-size="14.00">7</text>
</g>
<!-- E6&#45;&gt;E7 -->
<g id="edge17" class="edge"><title>E6&#45;&gt;E7</title>
<path fill="none" stroke="black" d="M1026.5,-806.39C1024.8,-793.887 1022.72,-778.645 1020.87,-765.026"/>
<polygon fill="black" stroke="black" points="1024.32,-764.436 1019.5,-755 1017.38,-765.381 1024.32,-764.436"/>
<text text-anchor="middle" x="1073.5" y="-776.981" font-family="Times,serif" font-size="14.00">IMPLICIT PREP</text>
</g>
<!-- E8 -->
<g id="node9" class="node"><title>E8</title>
<ellipse fill="azure" stroke="black" cx="1001" cy="-623.571" rx="38.3684" ry="26.7407"/>
<text text-anchor="middle" x="1001" y="-627.371" font-family="Times,serif" font-size="14.00">mix in</text>
<text text-anchor="middle" x="1001" y="-612.371" font-family="Times,serif" font-size="14.00">8</text>
</g>
<!-- E7&#45;&gt;E8 -->
<g id="edge19" class="edge"><title>E7&#45;&gt;E8</title>
<path fill="none" stroke="black" d="M1012.25,-701.65C1010.44,-689.241 1008.24,-674.135 1006.26,-660.596"/>
<polygon fill="black" stroke="black" points="1009.71,-660.007 1004.8,-650.618 1002.78,-661.018 1009.71,-660.007"/>
<text text-anchor="middle" x="1059.5" y="-672.241" font-family="Times,serif" font-size="14.00">IMPLICIT PREP</text>
</g>
<!-- E9 -->
<g id="node10" class="node"><title>E9</title>
<ellipse fill="azure" stroke="black" cx="823" cy="-518.831" rx="31.2258" ry="26.7407"/>
<text text-anchor="middle" x="823" y="-522.631" font-family="Times,serif" font-size="14.00">pour</text>
<text text-anchor="middle" x="823" y="-507.631" font-family="Times,serif" font-size="14.00">9</text>
</g>
<!-- E8&#45;&gt;E9 -->
<g id="edge20" class="edge"><title>E8&#45;&gt;E9</title>
<path fill="none" stroke="black" d="M972.005,-605.835C940.669,-587.748 890.756,-558.939 857.444,-539.711"/>
<polygon fill="black" stroke="black" points="858.928,-536.527 848.518,-534.559 855.429,-542.59 858.928,-536.527"/>
<text text-anchor="middle" x="973" y="-567.501" font-family="Times,serif" font-size="14.00">IMPLICIT DOBJ</text>
</g>
<!-- E10 -->
<g id="node11" class="node"><title>E10</title>
<ellipse fill="azure" stroke="black" cx="628" cy="-414.09" rx="31.2258" ry="26.7407"/>
<text text-anchor="middle" x="628" y="-417.89" font-family="Times,serif" font-size="14.00">bake</text>
<text text-anchor="middle" x="628" y="-402.89" font-family="Times,serif" font-size="14.00">10</text>
</g>
<!-- E9&#45;&gt;E10 -->
<g id="edge22" class="edge"><title>E9&#45;&gt;E10</title>
<path fill="none" stroke="black" d="M798.734,-501.512C793.604,-498.239 788.176,-494.905 783,-491.96 743.369,-469.414 696.239,-446.579 664.438,-431.724"/>
<polygon fill="black" stroke="black" points="665.63,-428.418 655.086,-427.379 662.68,-434.767 665.63,-428.418"/>
<text text-anchor="middle" x="800" y="-462.76" font-family="Times,serif" font-size="14.00">IMPLICIT DOBJ</text>
</g>
<!-- E11 -->
<g id="node12" class="node"><title>E11</title>
<ellipse fill="azure" stroke="black" cx="543" cy="-309.35" rx="32.5538" ry="26.7407"/>
<text text-anchor="middle" x="543" y="-313.15" font-family="Times,serif" font-size="14.00">place</text>
<text text-anchor="middle" x="543" y="-298.15" font-family="Times,serif" font-size="14.00">11</text>
</g>
<!-- E10&#45;&gt;E11 -->
<g id="edge25" class="edge"><title>E10&#45;&gt;E11</title>
<path fill="none" stroke="black" d="M610.388,-391.803C597.935,-376.75 581.08,-356.378 567.343,-339.773"/>
<polygon fill="black" stroke="black" points="569.953,-337.438 560.882,-331.964 564.56,-341.9 569.953,-337.438"/>
<text text-anchor="middle" x="604" y="-358.02" font-family="Times,serif" font-size="14.00">cake</text>
</g>
<!-- E12 -->
<g id="node13" class="node"><title>E12</title>
<ellipse fill="azure" stroke="black" cx="439" cy="-204.61" rx="65.1077" ry="26.7407"/>
<text text-anchor="middle" x="439" y="-208.41" font-family="Times,serif" font-size="14.00">allow to cool</text>
<text text-anchor="middle" x="439" y="-193.41" font-family="Times,serif" font-size="14.00">12</text>
</g>
<!-- E11&#45;&gt;E12 -->
<g id="edge27" class="edge"><title>E11&#45;&gt;E12</title>
<path fill="none" stroke="black" d="M522.453,-288.052C507.771,-273.548 487.731,-253.751 470.969,-237.192"/>
<polygon fill="black" stroke="black" points="473.103,-234.38 463.529,-229.842 468.184,-239.36 473.103,-234.38"/>
<text text-anchor="middle" x="549" y="-253.28" font-family="Times,serif" font-size="14.00">IMPLICIT DOBJ</text>
</g>
<!-- E14 -->
<g id="node15" class="node"><title>E14</title>
<ellipse fill="azure" stroke="black" cx="366" cy="-99.8701" rx="38.3684" ry="26.7407"/>
<text text-anchor="middle" x="366" y="-103.67" font-family="Times,serif" font-size="14.00">spread</text>
<text text-anchor="middle" x="366" y="-88.6701" font-family="Times,serif" font-size="14.00">14</text>
</g>
<!-- E12&#45;&gt;E14 -->
<g id="edge29" class="edge"><title>E12&#45;&gt;E14</title>
<path fill="none" stroke="black" d="M426.95,-178.135C421.445,-167.448 414.484,-155.119 407,-144.74 403.319,-139.635 399.093,-134.498 394.785,-129.628"/>
<polygon fill="black" stroke="black" points="397.35,-127.246 388.014,-122.237 392.189,-131.975 397.35,-127.246"/>
<text text-anchor="middle" x="498.5" y="-148.54" font-family="Times,serif" font-size="14.00">COOBJECT:on cooled cake</text>
</g>
<!-- E13 -->
<g id="node14" class="node"><title>E13</title>
<ellipse fill="azure" stroke="black" cx="288" cy="-204.61" rx="46.8387" ry="26.7407"/>
<text text-anchor="middle" x="288" y="-208.41" font-family="Times,serif" font-size="14.00">combine</text>
<text text-anchor="middle" x="288" y="-193.41" font-family="Times,serif" font-size="14.00">13</text>
</g>
<!-- E13&#45;&gt;E14 -->
<g id="edge28" class="edge"><title>E13&#45;&gt;E14</title>
<path fill="none" stroke="black" d="M289.499,-177.592C291.155,-166.691 294.467,-154.347 301,-144.74 307.389,-135.345 316.52,-127.413 325.927,-120.989"/>
<polygon fill="black" stroke="black" points="327.996,-123.822 334.572,-115.515 324.251,-117.908 327.996,-123.822"/>
<text text-anchor="middle" x="352" y="-148.54" font-family="Times,serif" font-size="14.00">IMPLICIT DOBJ</text>
</g>
<!-- EOR -->
<g id="node32" class="node"><title>EOR</title>
<ellipse fill="plum" stroke="black" cx="366" cy="-18" rx="57.3905" ry="18"/>
<text text-anchor="middle" x="366" y="-14.3" font-family="Times,serif" font-size="14.00">Bon appetit!</text>
</g>
<!-- E14&#45;&gt;EOR -->
<g id="edge30" class="edge"><title>E14&#45;&gt;EOR</title>
<path fill="none" stroke="black" d="M366,-72.7176C366,-64.2726 366,-54.8903 366,-46.3604"/>
<polygon fill="black" stroke="black" points="369.5,-46.1464 366,-36.1464 362.5,-46.1464 369.5,-46.1464"/>
</g>
<!-- D0 -->
<g id="node16" class="node"><title>D0</title>
<polygon fill="peachpuff" stroke="black" points="383.5,-1037.66 284.5,-1037.66 284.5,-1001.66 383.5,-1001.66 383.5,-1037.66"/>
<text text-anchor="middle" x="334" y="-1015.96" font-family="Times,serif" font-size="14.00">DOBJ: carrots</text>
</g>
<!-- D0&#45;&gt;E0 -->
<g id="edge1" class="edge"><title>D0&#45;&gt;E0</title>
<path fill="none" stroke="black" d="M378.186,-1001.64C402.924,-991.678 434.11,-978.382 461,-964.661 463.706,-963.28 466.473,-961.795 469.234,-960.26"/>
<polygon fill="black" stroke="black" points="471.022,-963.27 477.95,-955.254 467.536,-957.2 471.022,-963.27"/>
</g>
<!-- P0_0 -->
<g id="node17" class="node"><title>P0_0</title>
<polygon fill="white" stroke="black" points="606,-1037.66 402,-1037.66 402,-1001.66 606,-1001.66 606,-1037.66"/>
<text text-anchor="middle" x="504" y="-1015.96" font-family="Times,serif" font-size="14.00">LOCATION:in a small saucepan</text>
</g>
<!-- P0_0&#45;&gt;E0 -->
<g id="edge2" class="edge"><title>P0_0&#45;&gt;E0</title>
<path fill="none" stroke="black" d="M504,-1001.33C504,-993.597 504,-984.177 504,-975.019"/>
<polygon fill="black" stroke="black" points="507.5,-974.895 504,-964.895 500.5,-974.895 507.5,-974.895"/>
</g>
<!-- P0_1 -->
<g id="node18" class="node"><title>P0_1</title>
<polygon fill="peachpuff" stroke="black" points="779.5,-1037.66 624.5,-1037.66 624.5,-1001.66 779.5,-1001.66 779.5,-1037.66"/>
<text text-anchor="middle" x="702" y="-1015.96" font-family="Times,serif" font-size="14.00">COOBJECT:with water</text>
</g>
<!-- P0_1&#45;&gt;E0 -->
<g id="edge3" class="edge"><title>P0_1&#45;&gt;E0</title>
<path fill="none" stroke="black" d="M659.524,-1001.53C625.085,-987.635 576.921,-968.206 543.349,-954.664"/>
<polygon fill="black" stroke="black" points="544.444,-951.332 533.861,-950.837 541.826,-957.823 544.444,-951.332"/>
</g>
<!-- D13 -->
<g id="node19" class="node"><title>D13</title>
<polygon fill="peachpuff" stroke="black" points="492,-327.35 0,-327.35 0,-291.35 492,-291.35 492,-327.35"/>
<text text-anchor="middle" x="246" y="-305.65" font-family="Times,serif" font-size="14.00">DOBJ: 1 teaspoon vanilla extract, confectioners&#39; sugar, cream cheese, melted butter</text>
</g>
<!-- D13&#45;&gt;E13 -->
<g id="edge4" class="edge"><title>D13&#45;&gt;E13</title>
<path fill="none" stroke="black" d="M253.125,-290.922C258.759,-277.139 266.806,-257.455 273.75,-240.467"/>
<polygon fill="black" stroke="black" points="277.141,-241.423 277.685,-230.842 270.661,-238.774 277.141,-241.423"/>
</g>
<!-- D5 -->
<g id="node20" class="node"><title>D5</title>
<polygon fill="peachpuff" stroke="black" points="1024,-1037.66 938,-1037.66 938,-1001.66 1024,-1001.66 1024,-1037.66"/>
<text text-anchor="middle" x="981" y="-1015.96" font-family="Times,serif" font-size="14.00">DOBJ: eggs</text>
</g>
<!-- D5&#45;&gt;E5 -->
<g id="edge5" class="edge"><title>D5&#45;&gt;E5</title>
<path fill="none" stroke="black" d="M999.878,-1001.33C1011.74,-990.438 1027.25,-976.201 1040.47,-964.063"/>
<polygon fill="black" stroke="black" points="1042.95,-966.54 1047.95,-957.199 1038.21,-961.384 1042.95,-966.54"/>
</g>
<!-- P5_0 -->
<g id="node21" class="node"><title>P5_0</title>
<polygon fill="white" stroke="black" points="1268,-1037.66 1042,-1037.66 1042,-1001.66 1268,-1001.66 1268,-1037.66"/>
<text text-anchor="middle" x="1155" y="-1015.96" font-family="Times,serif" font-size="14.00">LOCATION:in a large mixing bowl</text>
</g>
<!-- P5_0&#45;&gt;E5 -->
<g id="edge6" class="edge"><title>P5_0&#45;&gt;E5</title>
<path fill="none" stroke="black" d="M1136.12,-1001.33C1124.26,-990.438 1108.75,-976.201 1095.53,-964.063"/>
<polygon fill="black" stroke="black" points="1097.79,-961.384 1088.05,-957.199 1093.05,-966.54 1097.79,-961.384"/>
</g>
<!-- O1_0_0 -->
<g id="node22" class="node"><title>O1_0_0</title>
<polygon fill="white" stroke="black" points="452.5,-955.791 333.5,-955.791 333.5,-919.791 452.5,-919.791 452.5,-955.791"/>
<text text-anchor="middle" x="393" y="-934.091" font-family="Times,serif" font-size="14.00">OTHER: to a boil</text>
</g>
<!-- O1_0_0&#45;&gt;E1 -->
<g id="edge8" class="edge"><title>O1_0_0&#45;&gt;E1</title>
<path fill="none" stroke="black" d="M396.223,-919.363C398.731,-905.803 402.294,-886.533 405.4,-869.737"/>
<polygon fill="black" stroke="black" points="408.885,-870.142 407.262,-859.672 402.002,-868.869 408.885,-870.142"/>
</g>
<!-- O2_0_0 -->
<g id="node23" class="node"><title>O2_0_0</title>
<polygon fill="white" stroke="black" points="360.5,-851.051 115.5,-851.051 115.5,-815.051 360.5,-815.051 360.5,-851.051"/>
<text text-anchor="middle" x="238" y="-829.351" font-family="Times,serif" font-size="14.00">OTHER: until tender, about 15 minutes</text>
</g>
<!-- O2_0_0&#45;&gt;E2 -->
<g id="edge10" class="edge"><title>O2_0_0&#45;&gt;E2</title>
<path fill="none" stroke="black" d="M238.339,-814.622C238.601,-801.158 238.973,-782.062 239.298,-765.35"/>
<polygon fill="black" stroke="black" points="242.798,-765.39 239.494,-755.324 235.8,-765.254 242.798,-765.39"/>
</g>
<!-- O3_0_0 -->
<g id="node24" class="node"><title>O3_0_0</title>
<polygon fill="white" stroke="black" points="190.5,-746.311 93.5,-746.311 93.5,-710.311 190.5,-710.311 190.5,-746.311"/>
<text text-anchor="middle" x="142" y="-724.611" font-family="Times,serif" font-size="14.00">OTHER: cool</text>
</g>
<!-- O3_0_0&#45;&gt;E3 -->
<g id="edge12" class="edge"><title>O3_0_0&#45;&gt;E3</title>
<path fill="none" stroke="black" d="M142.17,-709.882C142.301,-696.418 142.487,-677.322 142.649,-660.61"/>
<polygon fill="black" stroke="black" points="146.149,-660.617 142.747,-650.583 139.15,-660.549 146.149,-660.617"/>
</g>
<!-- D6_ing -->
<g id="node25" class="node"><title>D6_ing</title>
<polygon fill="peachpuff" stroke="black" points="1022,-955.791 592,-955.791 592,-919.791 1022,-919.791 1022,-955.791"/>
<text text-anchor="middle" x="807" y="-934.091" font-family="Times,serif" font-size="14.00">DOBJ: vegetable oil, 2 teaspoons vanilla, 2 cups white sugar, buttermilk</text>
</g>
<!-- D6_ing&#45;&gt;E6 -->
<g id="edge14" class="edge"><title>D6_ing&#45;&gt;E6</title>
<path fill="none" stroke="black" d="M857.28,-919.751C895.786,-905.849 949.648,-884.53 994,-859.921 996.238,-858.679 998.501,-857.324 1000.75,-855.905"/>
<polygon fill="black" stroke="black" points="1002.86,-858.7 1009.22,-850.226 998.965,-852.886 1002.86,-858.7"/>
</g>
<!-- D7_ing -->
<g id="node26" class="node"><title>D7_ing</title>
<polygon fill="peachpuff" stroke="black" points="984.5,-851.051 683.5,-851.051 683.5,-815.051 984.5,-815.051 984.5,-851.051"/>
<text text-anchor="middle" x="834" y="-829.351" font-family="Times,serif" font-size="14.00">DOBJ: flour, ground cinnamon, salt, baking soda</text>
</g>
<!-- D7_ing&#45;&gt;E7 -->
<g id="edge16" class="edge"><title>D7_ing&#45;&gt;E7</title>
<path fill="none" stroke="black" d="M869.869,-814.904C899.903,-800.138 943.577,-777.706 980,-755.181 981.968,-753.964 983.97,-752.676 985.971,-751.351"/>
<polygon fill="black" stroke="black" points="988.368,-753.95 994.63,-745.403 984.405,-748.18 988.368,-753.95"/>
</g>
<!-- D8_ing -->
<g id="node27" class="node"><title>D8_ing</title>
<polygon fill="peachpuff" stroke="black" points="970.5,-746.311 771.5,-746.311 771.5,-710.311 970.5,-710.311 970.5,-746.311"/>
<text text-anchor="middle" x="871" y="-724.611" font-family="Times,serif" font-size="14.00">DOBJ: coconut, nuts, pineapple</text>
</g>
<!-- D8_ing&#45;&gt;E8 -->
<g id="edge18" class="edge"><title>D8_ing&#45;&gt;E8</title>
<path fill="none" stroke="black" d="M892.759,-710.114C913.32,-693.865 944.446,-669.266 968.05,-650.611"/>
<polygon fill="black" stroke="black" points="970.381,-653.231 976.056,-644.284 966.04,-647.739 970.381,-653.231"/>
</g>
<!-- P9_0_0 -->
<g id="node28" class="node"><title>P9_0_0</title>
<polygon fill="white" stroke="black" points="944.5,-641.571 581.5,-641.571 581.5,-605.571 944.5,-605.571 944.5,-641.571"/>
<text text-anchor="middle" x="763" y="-619.871" font-family="Times,serif" font-size="14.00">LOCATION:into paper towel&#45;lined 13 x 9 x 2&#45;1/2 inch pan</text>
</g>
<!-- P9_0_0&#45;&gt;E9 -->
<g id="edge21" class="edge"><title>P9_0_0&#45;&gt;E9</title>
<path fill="none" stroke="black" d="M773.178,-605.142C781.663,-590.614 793.976,-569.53 804.238,-551.958"/>
<polygon fill="black" stroke="black" points="807.366,-553.542 809.386,-543.142 801.321,-550.012 807.366,-553.542"/>
</g>
<!-- O10_0_0 -->
<g id="node29" class="node"><title>O10_0_0</title>
<polygon fill="white" stroke="black" points="464,-536.831 208,-536.831 208,-500.831 464,-500.831 464,-536.831"/>
<text text-anchor="middle" x="336" y="-515.131" font-family="Times,serif" font-size="14.00">OTHER: at 350 degrees f (175 degrees c)</text>
</g>
<!-- O10_0_0&#45;&gt;E10 -->
<g id="edge23" class="edge"><title>O10_0_0&#45;&gt;E10</title>
<path fill="none" stroke="black" d="M409.556,-500.816C460.618,-487.69 529.523,-467.323 587,-440.96 589.816,-439.669 592.67,-438.214 595.493,-436.669"/>
<polygon fill="black" stroke="black" points="597.445,-439.582 604.318,-431.519 593.917,-433.536 597.445,-439.582"/>
</g>
<!-- O10_1_0 -->
<g id="node30" class="node"><title>O10_1_0</title>
<polygon fill="white" stroke="black" points="773.5,-536.831 482.5,-536.831 482.5,-500.831 773.5,-500.831 773.5,-536.831"/>
<text text-anchor="middle" x="628" y="-515.131" font-family="Times,serif" font-size="14.00">OTHER: or 55 minutes, or until cake tests done</text>
</g>
<!-- O10_1_0&#45;&gt;E10 -->
<g id="edge24" class="edge"><title>O10_1_0&#45;&gt;E10</title>
<path fill="none" stroke="black" d="M628,-500.402C628,-486.937 628,-467.842 628,-451.129"/>
<polygon fill="black" stroke="black" points="631.5,-451.103 628,-441.103 624.5,-451.103 631.5,-451.103"/>
</g>
<!-- P11_0_0 -->
<g id="node31" class="node"><title>P11_0_0</title>
<polygon fill="white" stroke="black" points="578.5,-432.09 429.5,-432.09 429.5,-396.09 578.5,-396.09 578.5,-432.09"/>
<text text-anchor="middle" x="504" y="-410.39" font-family="Times,serif" font-size="14.00">LOCATION:on a plate</text>
</g>
<!-- P11_0_0&#45;&gt;E11 -->
<g id="edge26" class="edge"><title>P11_0_0&#45;&gt;E11</title>
<path fill="none" stroke="black" d="M510.616,-395.662C515.884,-381.783 523.424,-361.922 529.902,-344.854"/>
<polygon fill="black" stroke="black" points="533.293,-345.785 533.569,-335.194 526.748,-343.301 533.293,-345.785"/>
</g>
</g>
</svg>
