<?xml version="1.0" encoding="UTF-8" standalone="no"?>
<!DOCTYPE svg PUBLIC "-//W3C//DTD SVG 1.1//EN"
 "http://www.w3.org/Graphics/SVG/1.1/DTD/svg11.dtd">
<!-- Generated by graphviz version 2.38.0 (20140413.2041)
 -->
<!-- Title: recipe Pages: 1 -->
<svg width="2142pt" height="836pt"
 viewBox="0.00 0.00 2141.50 836.18" xmlns="http://www.w3.org/2000/svg" xmlns:xlink="http://www.w3.org/1999/xlink">
<g id="graph0" class="graph" transform="scale(1 1) rotate(0) translate(4 832.181)">
<title>recipe</title>
<polygon fill="white" stroke="none" points="-4,4 -4,-832.181 2137.5,-832.181 2137.5,4 -4,4"/>
<!-- E0 -->
<g id="node1" class="node"><title>E0</title>
<ellipse fill="azure" stroke="black" cx="1846.5" cy="-728.311" rx="28.9828" ry="26.7407"/>
<text text-anchor="middle" x="1846.5" y="-732.111" font-family="Times,serif" font-size="14.00">melt</text>
<text text-anchor="middle" x="1846.5" y="-717.111" font-family="Times,serif" font-size="14.00">0</text>
</g>
<!-- E1 -->
<g id="node2" class="node"><title>E1</title>
<ellipse fill="azure" stroke="black" cx="1555.5" cy="-623.571" rx="65.1077" ry="26.7407"/>
<text text-anchor="middle" x="1555.5" y="-627.371" font-family="Times,serif" font-size="14.00">cook and stir</text>
<text text-anchor="middle" x="1555.5" y="-612.371" font-family="Times,serif" font-size="14.00">1</text>
</g>
<!-- E0&#45;&gt;E1 -->
<g id="edge8" class="edge"><title>E0&#45;&gt;E1</title>
<path fill="none" stroke="black" d="M1824.27,-710.542C1819.25,-707.227 1813.83,-703.99 1808.5,-701.441 1748.2,-672.585 1674.64,-651.685 1622.42,-639.027"/>
<polygon fill="black" stroke="black" points="1623.14,-635.6 1612.6,-636.682 1621.51,-642.408 1623.14,-635.6"/>
<text text-anchor="middle" x="1835.5" y="-672.241" font-family="Times,serif" font-size="14.00">COOBJECT:in hot butter</text>
</g>
<!-- E2 -->
<g id="node3" class="node"><title>E2</title>
<ellipse fill="azure" stroke="black" cx="1445.5" cy="-518.831" rx="41.9398" ry="26.7407"/>
<text text-anchor="middle" x="1445.5" y="-522.631" font-family="Times,serif" font-size="14.00">remove</text>
<text text-anchor="middle" x="1445.5" y="-507.631" font-family="Times,serif" font-size="14.00">2</text>
</g>
<!-- E1&#45;&gt;E2 -->
<g id="edge10" class="edge"><title>E1&#45;&gt;E2</title>
<path fill="none" stroke="black" d="M1529.99,-598.742C1513.92,-583.731 1493.08,-564.267 1476.12,-548.425"/>
<polygon fill="black" stroke="black" points="1478.32,-545.699 1468.63,-541.431 1473.55,-550.815 1478.32,-545.699"/>
<text text-anchor="middle" x="1557.5" y="-567.501" font-family="Times,serif" font-size="14.00">IMPLICIT DOBJ</text>
</g>
<!-- E3 -->
<g id="node4" class="node"><title>E3</title>
<ellipse fill="azure" stroke="black" cx="1329.5" cy="-414.09" rx="42.3529" ry="26.7407"/>
<text text-anchor="middle" x="1329.5" y="-417.89" font-family="Times,serif" font-size="14.00">transfer</text>
<text text-anchor="middle" x="1329.5" y="-402.89" font-family="Times,serif" font-size="14.00">3</text>
</g>
<!-- E2&#45;&gt;E3 -->
<g id="edge12" class="edge"><title>E2&#45;&gt;E3</title>
<path fill="none" stroke="black" d="M1421.46,-496.543C1403.97,-481.045 1380.1,-459.908 1361.07,-443.049"/>
<polygon fill="black" stroke="black" points="1363.31,-440.361 1353.5,-436.351 1358.67,-445.601 1363.31,-440.361"/>
<text text-anchor="middle" x="1444.5" y="-462.76" font-family="Times,serif" font-size="14.00">IMPLICIT DOBJ</text>
</g>
<!-- E4 -->
<g id="node5" class="node"><title>E4</title>
<ellipse fill="azure" stroke="black" cx="1162.5" cy="-309.35" rx="27" ry="26.7407"/>
<text text-anchor="middle" x="1162.5" y="-313.15" font-family="Times,serif" font-size="14.00">stir</text>
<text text-anchor="middle" x="1162.5" y="-298.15" font-family="Times,serif" font-size="14.00">4</text>
</g>
<!-- E3&#45;&gt;E4 -->
<g id="edge15" class="edge"><title>E3&#45;&gt;E4</title>
<path fill="none" stroke="black" d="M1298.15,-395.866C1291.76,-392.734 1285,-389.684 1278.5,-387.22 1248.86,-375.987 1236.08,-386.486 1209.5,-369.22 1198.53,-362.096 1188.96,-351.554 1181.37,-341.353"/>
<polygon fill="black" stroke="black" points="1184.08,-339.121 1175.47,-332.946 1178.35,-343.142 1184.08,-339.121"/>
<text text-anchor="middle" x="1256" y="-358.02" font-family="Times,serif" font-size="14.00">sunflower seeds</text>
</g>
<!-- E3&#45;&gt;E4 -->
<g id="edge16" class="edge"><title>E3&#45;&gt;E4</title>
<path fill="none" stroke="black" d="M1322.89,-387.264C1318.75,-375.738 1312.29,-362.843 1302.5,-354.22 1273.65,-328.806 1230.15,-318.11 1199.31,-313.611"/>
<polygon fill="black" stroke="black" points="1199.74,-310.138 1189.37,-312.31 1198.83,-317.079 1199.74,-310.138"/>
<text text-anchor="middle" x="1357" y="-358.02" font-family="Times,serif" font-size="14.00">ramen noodles</text>
</g>
<!-- E6 -->
<g id="node7" class="node"><title>E6</title>
<ellipse fill="azure" stroke="black" cx="952.5" cy="-204.61" rx="31.2258" ry="26.7407"/>
<text text-anchor="middle" x="952.5" y="-208.41" font-family="Times,serif" font-size="14.00">pour</text>
<text text-anchor="middle" x="952.5" y="-193.41" font-family="Times,serif" font-size="14.00">6</text>
</g>
<!-- E4&#45;&gt;E6 -->
<g id="edge20" class="edge"><title>E4&#45;&gt;E6</title>
<path fill="none" stroke="black" d="M1138.41,-296.565C1101.65,-278.581 1031.32,-244.174 988.493,-223.219"/>
<polygon fill="black" stroke="black" points="989.794,-219.959 979.273,-218.709 986.718,-226.247 989.794,-219.959"/>
<text text-anchor="middle" x="1137" y="-253.28" font-family="Times,serif" font-size="14.00">COOBJECT:over salad</text>
</g>
<!-- E5 -->
<g id="node6" class="node"><title>E5</title>
<ellipse fill="azure" stroke="black" cx="484.5" cy="-309.35" rx="36.5405" ry="26.7407"/>
<text text-anchor="middle" x="484.5" y="-313.15" font-family="Times,serif" font-size="14.00">whisk</text>
<text text-anchor="middle" x="484.5" y="-298.15" font-family="Times,serif" font-size="14.00">5</text>
</g>
<!-- E5&#45;&gt;E6 -->
<g id="edge19" class="edge"><title>E5&#45;&gt;E6</title>
<path fill="none" stroke="black" d="M519.676,-300.628C605.031,-281.89 822.704,-234.104 912.665,-214.355"/>
<polygon fill="black" stroke="black" points="913.465,-217.763 922.482,-212.2 911.964,-210.926 913.465,-217.763"/>
<text text-anchor="middle" x="771" y="-253.28" font-family="Times,serif" font-size="14.00">dressing</text>
</g>
<!-- E7 -->
<g id="node8" class="node"><title>E7</title>
<ellipse fill="azure" stroke="black" cx="952.5" cy="-99.8701" rx="27" ry="26.7407"/>
<text text-anchor="middle" x="952.5" y="-103.67" font-family="Times,serif" font-size="14.00">toss</text>
<text text-anchor="middle" x="952.5" y="-88.6701" font-family="Times,serif" font-size="14.00">7</text>
</g>
<!-- E6&#45;&gt;E7 -->
<g id="edge21" class="edge"><title>E6&#45;&gt;E7</title>
<path fill="none" stroke="black" d="M952.5,-177.685C952.5,-165.395 952.5,-150.507 952.5,-137.121"/>
<polygon fill="black" stroke="black" points="956,-136.787 952.5,-126.787 949,-136.787 956,-136.787"/>
<text text-anchor="middle" x="1003.5" y="-148.54" font-family="Times,serif" font-size="14.00">IMPLICIT DOBJ</text>
</g>
<!-- EOR -->
<g id="node22" class="node"><title>EOR</title>
<ellipse fill="plum" stroke="black" cx="952.5" cy="-18" rx="57.3905" ry="18"/>
<text text-anchor="middle" x="952.5" y="-14.3" font-family="Times,serif" font-size="14.00">Bon appetit!</text>
</g>
<!-- E7&#45;&gt;EOR -->
<g id="edge22" class="edge"><title>E7&#45;&gt;EOR</title>
<path fill="none" stroke="black" d="M952.5,-72.7176C952.5,-64.2726 952.5,-54.8903 952.5,-46.3604"/>
<polygon fill="black" stroke="black" points="956,-46.1464 952.5,-36.1464 949,-46.1464 956,-46.1464"/>
</g>
<!-- D0 -->
<g id="node9" class="node"><title>D0</title>
<polygon fill="peachpuff" stroke="black" points="1735.5,-828.181 1641.5,-828.181 1641.5,-792.181 1735.5,-792.181 1735.5,-828.181"/>
<text text-anchor="middle" x="1688.5" y="-806.481" font-family="Times,serif" font-size="14.00">DOBJ: butter</text>
</g>
<!-- D0&#45;&gt;E0 -->
<g id="edge1" class="edge"><title>D0&#45;&gt;E0</title>
<path fill="none" stroke="black" d="M1731.31,-792.07C1754.62,-782.225 1783.68,-769.073 1808.5,-755.181 1810.75,-753.919 1813.05,-752.562 1815.33,-751.155"/>
<polygon fill="black" stroke="black" points="1817.49,-753.928 1824,-745.572 1813.7,-748.042 1817.49,-753.928"/>
</g>
<!-- P0_0 -->
<g id="node10" class="node"><title>P0_0</title>
<polygon fill="white" stroke="black" points="1939,-828.181 1754,-828.181 1754,-792.181 1939,-792.181 1939,-828.181"/>
<text text-anchor="middle" x="1846.5" y="-806.481" font-family="Times,serif" font-size="14.00">LOCATION:in a large skillet</text>
</g>
<!-- P0_0&#45;&gt;E0 -->
<g id="edge2" class="edge"><title>P0_0&#45;&gt;E0</title>
<path fill="none" stroke="black" d="M1846.5,-791.85C1846.5,-784.117 1846.5,-774.697 1846.5,-765.539"/>
<polygon fill="black" stroke="black" points="1850,-765.415 1846.5,-755.415 1843,-765.415 1850,-765.415"/>
</g>
<!-- O0_0 -->
<g id="node11" class="node"><title>O0_0</title>
<polygon fill="white" stroke="black" points="2133.5,-828.181 1957.5,-828.181 1957.5,-792.181 2133.5,-792.181 2133.5,-828.181"/>
<text text-anchor="middle" x="2045.5" y="-806.481" font-family="Times,serif" font-size="14.00">OTHER: over medium heat</text>
</g>
<!-- O0_0&#45;&gt;E0 -->
<g id="edge3" class="edge"><title>O0_0&#45;&gt;E0</title>
<path fill="none" stroke="black" d="M2002.81,-792.047C1966.95,-777.654 1916.28,-757.318 1882.46,-743.743"/>
<polygon fill="black" stroke="black" points="1883.55,-740.409 1872.97,-739.933 1880.94,-746.906 1883.55,-740.409"/>
</g>
<!-- D5 -->
<g id="node12" class="node"><title>D5</title>
<polygon fill="peachpuff" stroke="black" points="281,-432.09 0,-432.09 0,-396.09 281,-396.09 281,-432.09"/>
<text text-anchor="middle" x="140.5" y="-410.39" font-family="Times,serif" font-size="14.00">DOBJ: vegetable oil, soy sauce, vinegar, sugar</text>
</g>
<!-- D5&#45;&gt;E5 -->
<g id="edge4" class="edge"><title>D5&#45;&gt;E5</title>
<path fill="none" stroke="black" d="M197.691,-396.01C266.1,-375.578 379.1,-341.829 440.864,-323.383"/>
<polygon fill="black" stroke="black" points="442.106,-326.665 450.687,-320.449 440.103,-319.957 442.106,-326.665"/>
</g>
<!-- P5_0 -->
<g id="node13" class="node"><title>P5_0</title>
<polygon fill="white" stroke="black" points="497.5,-432.09 299.5,-432.09 299.5,-396.09 497.5,-396.09 497.5,-432.09"/>
<text text-anchor="middle" x="398.5" y="-410.39" font-family="Times,serif" font-size="14.00">LOCATION:in a separate bowl</text>
</g>
<!-- P5_0&#45;&gt;E5 -->
<g id="edge5" class="edge"><title>P5_0&#45;&gt;E5</title>
<path fill="none" stroke="black" d="M413.089,-395.662C425.639,-380.669 444.034,-358.693 459.011,-340.801"/>
<polygon fill="black" stroke="black" points="461.884,-342.822 465.619,-332.907 456.516,-338.329 461.884,-342.822"/>
</g>
<!-- O5_0 -->
<g id="node14" class="node"><title>O5_0</title>
<polygon fill="white" stroke="black" points="729,-432.09 516,-432.09 516,-396.09 729,-396.09 729,-432.09"/>
<text text-anchor="middle" x="622.5" y="-410.39" font-family="Times,serif" font-size="14.00">OTHER: until sugar has dissolved</text>
</g>
<!-- O5_0&#45;&gt;E5 -->
<g id="edge6" class="edge"><title>O5_0&#45;&gt;E5</title>
<path fill="none" stroke="black" d="M599.402,-395.894C577.204,-379.368 543.408,-354.207 518.207,-335.445"/>
<polygon fill="black" stroke="black" points="520.13,-332.513 510.019,-329.349 515.95,-338.128 520.13,-332.513"/>
</g>
<!-- D1_ing -->
<g id="node15" class="node"><title>D1_ing</title>
<polygon fill="peachpuff" stroke="black" points="1293,-746.311 1038,-746.311 1038,-710.311 1293,-710.311 1293,-746.311"/>
<text text-anchor="middle" x="1165.5" y="-724.611" font-family="Times,serif" font-size="14.00">DOBJ: sunflower kernels, ramen noodles</text>
</g>
<!-- D1_ing&#45;&gt;E1 -->
<g id="edge7" class="edge"><title>D1_ing&#45;&gt;E1</title>
<path fill="none" stroke="black" d="M1244.96,-710.242C1309.21,-695.9 1401.77,-674.013 1481.5,-650.441 1487.02,-648.809 1492.73,-647.011 1498.43,-645.145"/>
<polygon fill="black" stroke="black" points="1499.58,-648.45 1507.95,-641.96 1497.36,-641.812 1499.58,-648.45"/>
</g>
<!-- O1_0_0 -->
<g id="node16" class="node"><title>O1_0_0</title>
<polygon fill="white" stroke="black" points="1799.5,-746.311 1311.5,-746.311 1311.5,-710.311 1799.5,-710.311 1799.5,-746.311"/>
<text text-anchor="middle" x="1555.5" y="-724.611" font-family="Times,serif" font-size="14.00">OTHER: until sunflower kernels are lightly browned and fragrant, 3 to 5 minutes</text>
</g>
<!-- O1_0_0&#45;&gt;E1 -->
<g id="edge9" class="edge"><title>O1_0_0&#45;&gt;E1</title>
<path fill="none" stroke="black" d="M1555.5,-709.882C1555.5,-696.418 1555.5,-677.322 1555.5,-660.61"/>
<polygon fill="black" stroke="black" points="1559,-660.583 1555.5,-650.583 1552,-660.583 1559,-660.583"/>
</g>
<!-- P2_0_0 -->
<g id="node17" class="node"><title>P2_0_0</title>
<polygon fill="white" stroke="black" points="1472,-641.571 1323,-641.571 1323,-605.571 1472,-605.571 1472,-641.571"/>
<text text-anchor="middle" x="1397.5" y="-619.871" font-family="Times,serif" font-size="14.00">LOCATION:from heat</text>
</g>
<!-- P2_0_0&#45;&gt;E2 -->
<g id="edge11" class="edge"><title>P2_0_0&#45;&gt;E2</title>
<path fill="none" stroke="black" d="M1405.64,-605.142C1412.19,-591.134 1421.58,-571.03 1429.6,-553.857"/>
<polygon fill="black" stroke="black" points="1432.83,-555.216 1433.89,-544.674 1426.49,-552.253 1432.83,-555.216"/>
</g>
<!-- P3_0_0 -->
<g id="node18" class="node"><title>P3_0_0</title>
<polygon fill="white" stroke="black" points="1255.5,-536.831 1095.5,-536.831 1095.5,-500.831 1255.5,-500.831 1255.5,-536.831"/>
<text text-anchor="middle" x="1175.5" y="-515.131" font-family="Times,serif" font-size="14.00">LOCATION:into a bowl</text>
</g>
<!-- P3_0_0&#45;&gt;E3 -->
<g id="edge13" class="edge"><title>P3_0_0&#45;&gt;E3</title>
<path fill="none" stroke="black" d="M1201.28,-500.634C1226.26,-483.965 1264.42,-458.509 1292.62,-439.697"/>
<polygon fill="black" stroke="black" points="1294.65,-442.55 1301.02,-434.089 1290.76,-436.727 1294.65,-442.55"/>
</g>
<!-- O3_0_0 -->
<g id="node19" class="node"><title>O3_0_0</title>
<polygon fill="white" stroke="black" points="1385.5,-536.831 1273.5,-536.831 1273.5,-500.831 1385.5,-500.831 1385.5,-536.831"/>
<text text-anchor="middle" x="1329.5" y="-515.131" font-family="Times,serif" font-size="14.00">OTHER: to cool</text>
</g>
<!-- O3_0_0&#45;&gt;E3 -->
<g id="edge14" class="edge"><title>O3_0_0&#45;&gt;E3</title>
<path fill="none" stroke="black" d="M1329.5,-500.402C1329.5,-486.937 1329.5,-467.842 1329.5,-451.129"/>
<polygon fill="black" stroke="black" points="1333,-451.103 1329.5,-441.103 1326,-451.103 1333,-451.103"/>
</g>
<!-- P4_0_ing -->
<g id="node20" class="node"><title>P4_0_ing</title>
<polygon fill="peachpuff" stroke="black" points="1037.5,-432.09 747.5,-432.09 747.5,-396.09 1037.5,-396.09 1037.5,-432.09"/>
<text text-anchor="middle" x="892.5" y="-410.39" font-family="Times,serif" font-size="14.00">COOBJECT: with spring onions, napa cabbage</text>
</g>
<!-- P4_0_ing&#45;&gt;E4 -->
<g id="edge17" class="edge"><title>P4_0_ing&#45;&gt;E4</title>
<path fill="none" stroke="black" d="M937.388,-396.01C990.978,-375.618 1079.43,-341.959 1127.97,-323.489"/>
<polygon fill="black" stroke="black" points="1129.31,-326.725 1137.41,-319.897 1126.82,-320.183 1129.31,-326.725"/>
</g>
<!-- P4_1_0 -->
<g id="node21" class="node"><title>P4_1_0</title>
<polygon fill="white" stroke="black" points="1269,-432.09 1056,-432.09 1056,-396.09 1269,-396.09 1269,-432.09"/>
<text text-anchor="middle" x="1162.5" y="-410.39" font-family="Times,serif" font-size="14.00">LOCATION:in a large salad bowl</text>
</g>
<!-- P4_1_0&#45;&gt;E4 -->
<g id="edge18" class="edge"><title>P4_1_0&#45;&gt;E4</title>
<path fill="none" stroke="black" d="M1162.5,-395.662C1162.5,-382.197 1162.5,-363.102 1162.5,-346.389"/>
<polygon fill="black" stroke="black" points="1166,-346.363 1162.5,-336.363 1159,-346.363 1166,-346.363"/>
</g>
</g>
</svg>
