<?xml version="1.0" encoding="UTF-8" standalone="no"?>
<!DOCTYPE svg PUBLIC "-//W3C//DTD SVG 1.1//EN"
 "http://www.w3.org/Graphics/SVG/1.1/DTD/svg11.dtd">
<!-- Generated by graphviz version 2.38.0 (20140413.2041)
 -->
<!-- Title: recipe Pages: 1 -->
<svg width="2139pt" height="1569pt"
 viewBox="0.00 0.00 2138.50 1569.36" xmlns="http://www.w3.org/2000/svg" xmlns:xlink="http://www.w3.org/1999/xlink">
<g id="graph0" class="graph" transform="scale(1 1) rotate(0) translate(4 1565.36)">
<title>recipe</title>
<polygon fill="white" stroke="none" points="-4,4 -4,-1565.36 2134.5,-1565.36 2134.5,4 -4,4"/>
<!-- E0 -->
<g id="node1" class="node"><title>E0</title>
<ellipse fill="azure" stroke="black" cx="1854" cy="-1461.49" rx="46.8387" ry="26.7407"/>
<text text-anchor="middle" x="1854" y="-1465.29" font-family="Times,serif" font-size="14.00">combine</text>
<text text-anchor="middle" x="1854" y="-1450.29" font-family="Times,serif" font-size="14.00">0</text>
</g>
<!-- E1 -->
<g id="node2" class="node"><title>E1</title>
<ellipse fill="azure" stroke="black" cx="1755" cy="-1356.75" rx="35.2113" ry="26.7407"/>
<text text-anchor="middle" x="1755" y="-1360.55" font-family="Times,serif" font-size="14.00">stir in</text>
<text text-anchor="middle" x="1755" y="-1345.55" font-family="Times,serif" font-size="14.00">1</text>
</g>
<!-- E0&#45;&gt;E1 -->
<g id="edge11" class="edge"><title>E0&#45;&gt;E1</title>
<path fill="none" stroke="black" d="M1832.03,-1437.69C1817.54,-1422.65 1798.43,-1402.82 1782.87,-1386.68"/>
<polygon fill="black" stroke="black" points="1785.02,-1383.86 1775.56,-1379.09 1779.98,-1388.72 1785.02,-1383.86"/>
<text text-anchor="middle" x="1860.5" y="-1405.42" font-family="Times,serif" font-size="14.00">IMPLICIT PREP</text>
</g>
<!-- E2 -->
<g id="node3" class="node"><title>E2</title>
<ellipse fill="azure" stroke="black" cx="1458" cy="-1252.01" rx="31.6406" ry="26.7407"/>
<text text-anchor="middle" x="1458" y="-1255.81" font-family="Times,serif" font-size="14.00">cook</text>
<text text-anchor="middle" x="1458" y="-1240.81" font-family="Times,serif" font-size="14.00">2</text>
</g>
<!-- E1&#45;&gt;E2 -->
<g id="edge12" class="edge"><title>E1&#45;&gt;E2</title>
<path fill="none" stroke="black" d="M1728.54,-1338.84C1722.88,-1335.61 1716.84,-1332.44 1711,-1329.88 1638.83,-1298.23 1549.68,-1274.46 1498.78,-1262.24"/>
<polygon fill="black" stroke="black" points="1499.36,-1258.78 1488.82,-1259.88 1497.74,-1265.59 1499.36,-1258.78"/>
<text text-anchor="middle" x="1715" y="-1300.68" font-family="Times,serif" font-size="14.00">IMPLICIT DOBJ</text>
</g>
<!-- E4 -->
<g id="node5" class="node"><title>E4</title>
<ellipse fill="azure" stroke="black" cx="1296" cy="-1147.27" rx="27" ry="26.7407"/>
<text text-anchor="middle" x="1296" y="-1151.07" font-family="Times,serif" font-size="14.00">stir</text>
<text text-anchor="middle" x="1296" y="-1136.07" font-family="Times,serif" font-size="14.00">4</text>
</g>
<!-- E2&#45;&gt;E4 -->
<g id="edge16" class="edge"><title>E2&#45;&gt;E4</title>
<path fill="none" stroke="black" d="M1427.77,-1243.51C1387.74,-1233.32 1321.2,-1215.45 1313,-1207.14 1306.82,-1200.88 1302.86,-1192.53 1300.33,-1184.09"/>
<polygon fill="black" stroke="black" points="1303.71,-1183.16 1297.97,-1174.25 1296.9,-1184.79 1303.71,-1183.16"/>
<text text-anchor="middle" x="1378.5" y="-1195.94" font-family="Times,serif" font-size="14.00">1/2 cup of hot mixture</text>
</g>
<!-- E5 -->
<g id="node6" class="node"><title>E5</title>
<ellipse fill="azure" stroke="black" cx="1393" cy="-1042.53" rx="53.066" ry="26.7407"/>
<text text-anchor="middle" x="1393" y="-1046.33" font-family="Times,serif" font-size="14.00">pour back</text>
<text text-anchor="middle" x="1393" y="-1031.33" font-family="Times,serif" font-size="14.00">5</text>
</g>
<!-- E2&#45;&gt;E5 -->
<g id="edge20" class="edge"><title>E2&#45;&gt;E5</title>
<path fill="none" stroke="black" d="M1461.54,-1225.29C1464.93,-1191.62 1466.66,-1131.69 1444,-1087.4 1441.03,-1081.6 1436.94,-1076.25 1432.35,-1071.42"/>
<polygon fill="black" stroke="black" points="1434.48,-1068.62 1424.81,-1064.27 1429.66,-1073.69 1434.48,-1068.62"/>
<text text-anchor="middle" x="1583.5" y="-1143.57" font-family="Times,serif" font-size="14.00">COOBJECT:into remaining milk mixture</text>
</g>
<!-- E3 -->
<g id="node4" class="node"><title>E3</title>
<ellipse fill="azure" stroke="black" cx="891" cy="-1252.01" rx="28.0702" ry="26.7407"/>
<text text-anchor="middle" x="891" y="-1255.81" font-family="Times,serif" font-size="14.00">beat</text>
<text text-anchor="middle" x="891" y="-1240.81" font-family="Times,serif" font-size="14.00">3</text>
</g>
<!-- E3&#45;&gt;E4 -->
<g id="edge17" class="edge"><title>E3&#45;&gt;E4</title>
<path fill="none" stroke="black" d="M918.202,-1244.11C989.151,-1226.11 1179.87,-1177.73 1259.88,-1157.43"/>
<polygon fill="black" stroke="black" points="1261.14,-1160.73 1269.97,-1154.87 1259.42,-1153.94 1261.14,-1160.73"/>
<text text-anchor="middle" x="1184.5" y="-1195.94" font-family="Times,serif" font-size="14.00">COOBJECT:into yolks</text>
</g>
<!-- E4&#45;&gt;E5 -->
<g id="edge19" class="edge"><title>E4&#45;&gt;E5</title>
<path fill="none" stroke="black" d="M1311.22,-1124.74C1319.76,-1113.21 1330.9,-1099.04 1342,-1087.4 1346.82,-1082.35 1352.17,-1077.26 1357.54,-1072.43"/>
<polygon fill="black" stroke="black" points="1360.15,-1074.8 1365.37,-1065.58 1355.54,-1069.54 1360.15,-1074.8"/>
<text text-anchor="middle" x="1393" y="-1091.2" font-family="Times,serif" font-size="14.00">IMPLICIT DOBJ</text>
</g>
<!-- E6 -->
<g id="node7" class="node"><title>E6</title>
<ellipse fill="azure" stroke="black" cx="1258" cy="-937.791" rx="31.6406" ry="26.7407"/>
<text text-anchor="middle" x="1258" y="-941.591" font-family="Times,serif" font-size="14.00">cook</text>
<text text-anchor="middle" x="1258" y="-926.591" font-family="Times,serif" font-size="14.00">6</text>
</g>
<!-- E5&#45;&gt;E6 -->
<g id="edge21" class="edge"><title>E5&#45;&gt;E6</title>
<path fill="none" stroke="black" d="M1364.37,-1019.74C1342.31,-1002.96 1311.85,-979.774 1289.18,-962.519"/>
<polygon fill="black" stroke="black" points="1291.28,-959.724 1281.21,-956.453 1287.05,-965.294 1291.28,-959.724"/>
<text text-anchor="middle" x="1384" y="-986.461" font-family="Times,serif" font-size="14.00">IMPLICIT DOBJ</text>
</g>
<!-- E7 -->
<g id="node8" class="node"><title>E7</title>
<ellipse fill="azure" stroke="black" cx="1173" cy="-833.051" rx="41.9398" ry="26.7407"/>
<text text-anchor="middle" x="1173" y="-836.851" font-family="Times,serif" font-size="14.00">remove</text>
<text text-anchor="middle" x="1173" y="-821.851" font-family="Times,serif" font-size="14.00">7</text>
</g>
<!-- E6&#45;&gt;E7 -->
<g id="edge24" class="edge"><title>E6&#45;&gt;E7</title>
<path fill="none" stroke="black" d="M1239.97,-915.002C1228.02,-900.556 1212.15,-881.376 1198.86,-865.311"/>
<polygon fill="black" stroke="black" points="1201.25,-862.71 1192.18,-857.236 1195.86,-867.172 1201.25,-862.71"/>
<text text-anchor="middle" x="1271" y="-881.721" font-family="Times,serif" font-size="14.00">IMPLICIT DOBJ</text>
</g>
<!-- E8 -->
<g id="node9" class="node"><title>E8</title>
<ellipse fill="azure" stroke="black" cx="1050" cy="-728.311" rx="35.2113" ry="26.7407"/>
<text text-anchor="middle" x="1050" y="-732.111" font-family="Times,serif" font-size="14.00">stir in</text>
<text text-anchor="middle" x="1050" y="-717.111" font-family="Times,serif" font-size="14.00">8</text>
</g>
<!-- E7&#45;&gt;E8 -->
<g id="edge27" class="edge"><title>E7&#45;&gt;E8</title>
<path fill="none" stroke="black" d="M1148.11,-811.26C1128.77,-795.11 1101.85,-772.619 1081.1,-755.285"/>
<polygon fill="black" stroke="black" points="1083.11,-752.405 1073.19,-748.681 1078.62,-757.778 1083.11,-752.405"/>
<text text-anchor="middle" x="1168.5" y="-776.981" font-family="Times,serif" font-size="14.00">IMPLICIT PREP</text>
</g>
<!-- E9 -->
<g id="node10" class="node"><title>E9</title>
<ellipse fill="azure" stroke="black" cx="930" cy="-623.571" rx="31.2258" ry="26.7407"/>
<text text-anchor="middle" x="930" y="-627.371" font-family="Times,serif" font-size="14.00">pour</text>
<text text-anchor="middle" x="930" y="-612.371" font-family="Times,serif" font-size="14.00">9</text>
</g>
<!-- E8&#45;&gt;E9 -->
<g id="edge28" class="edge"><title>E8&#45;&gt;E9</title>
<path fill="none" stroke="black" d="M1027.15,-707.744C1007.85,-691.224 980.105,-667.469 959.202,-649.572"/>
<polygon fill="black" stroke="black" points="961.43,-646.872 951.558,-643.027 956.877,-652.19 961.43,-646.872"/>
<text text-anchor="middle" x="1048" y="-672.241" font-family="Times,serif" font-size="14.00">IMPLICIT DOBJ</text>
</g>
<!-- E14 -->
<g id="node15" class="node"><title>E14</title>
<ellipse fill="azure" stroke="black" cx="775" cy="-518.831" rx="38.3684" ry="26.7407"/>
<text text-anchor="middle" x="775" y="-522.631" font-family="Times,serif" font-size="14.00">spread</text>
<text text-anchor="middle" x="775" y="-507.631" font-family="Times,serif" font-size="14.00">14</text>
</g>
<!-- E9&#45;&gt;E14 -->
<g id="edge35" class="edge"><title>E9&#45;&gt;E14</title>
<path fill="none" stroke="black" d="M905.781,-606.517C880.318,-589.639 839.981,-562.903 810.834,-543.583"/>
<polygon fill="black" stroke="black" points="812.445,-540.452 802.176,-537.844 808.578,-546.286 812.445,-540.452"/>
<text text-anchor="middle" x="931.5" y="-567.501" font-family="Times,serif" font-size="14.00">COOBJECT:over filling</text>
</g>
<!-- E10 -->
<g id="node11" class="node"><title>E10</title>
<ellipse fill="azure" stroke="black" cx="192" cy="-414.09" rx="41.9398" ry="26.7407"/>
<text text-anchor="middle" x="192" y="-417.89" font-family="Times,serif" font-size="14.00">preheat</text>
<text text-anchor="middle" x="192" y="-402.89" font-family="Times,serif" font-size="14.00">10</text>
</g>
<!-- E16 -->
<g id="node17" class="node"><title>E16</title>
<ellipse fill="azure" stroke="black" cx="408" cy="-309.35" rx="31.2258" ry="26.7407"/>
<text text-anchor="middle" x="408" y="-313.15" font-family="Times,serif" font-size="14.00">bake</text>
<text text-anchor="middle" x="408" y="-298.15" font-family="Times,serif" font-size="14.00">16</text>
</g>
<!-- E10&#45;&gt;E16 -->
<g id="edge40" class="edge"><title>E10&#45;&gt;E16</title>
<path fill="none" stroke="black" d="M190.316,-387.184C191.013,-375.496 194.077,-362.489 203,-354.22 230.054,-329.15 333.244,-348.569 368,-336.22 370.703,-335.26 373.408,-334.085 376.065,-332.771"/>
<polygon fill="black" stroke="black" points="377.809,-335.806 384.839,-327.878 374.4,-329.692 377.809,-335.806"/>
<text text-anchor="middle" x="303.5" y="-358.02" font-family="Times,serif" font-size="14.00">LOCATION:in the preheated oven</text>
</g>
<!-- E11 -->
<g id="node12" class="node"><title>E11</title>
<ellipse fill="azure" stroke="black" cx="456" cy="-833.051" rx="28.0702" ry="26.7407"/>
<text text-anchor="middle" x="456" y="-836.851" font-family="Times,serif" font-size="14.00">beat</text>
<text text-anchor="middle" x="456" y="-821.851" font-family="Times,serif" font-size="14.00">11</text>
</g>
<!-- E12 -->
<g id="node13" class="node"><title>E12</title>
<ellipse fill="azure" stroke="black" cx="514" cy="-728.311" rx="27" ry="26.7407"/>
<text text-anchor="middle" x="514" y="-732.111" font-family="Times,serif" font-size="14.00">add</text>
<text text-anchor="middle" x="514" y="-717.111" font-family="Times,serif" font-size="14.00">12</text>
</g>
<!-- E11&#45;&gt;E12 -->
<g id="edge31" class="edge"><title>E11&#45;&gt;E12</title>
<path fill="none" stroke="black" d="M449.257,-806.807C447.692,-795.924 447.772,-783.381 453,-773.181 459.057,-761.365 469.941,-752.009 480.856,-745.026"/>
<polygon fill="black" stroke="black" points="482.676,-748.016 489.525,-739.932 479.13,-741.981 482.676,-748.016"/>
<text text-anchor="middle" x="503.5" y="-776.981" font-family="Times,serif" font-size="14.00">IMPLICIT PREP</text>
</g>
<!-- E13 -->
<g id="node14" class="node"><title>E13</title>
<ellipse fill="azure" stroke="black" cx="609" cy="-623.571" rx="41.9398" ry="26.7407"/>
<text text-anchor="middle" x="609" y="-627.371" font-family="Times,serif" font-size="14.00">beating</text>
<text text-anchor="middle" x="609" y="-612.371" font-family="Times,serif" font-size="14.00">13</text>
</g>
<!-- E12&#45;&gt;E13 -->
<g id="edge32" class="edge"><title>E12&#45;&gt;E13</title>
<path fill="none" stroke="black" d="M514.472,-701.261C515.825,-690.228 518.997,-677.791 526,-668.441 535.209,-656.145 548.887,-646.957 562.496,-640.254"/>
<polygon fill="black" stroke="black" points="564.194,-643.327 571.85,-636.004 561.298,-636.954 564.194,-643.327"/>
<text text-anchor="middle" x="577" y="-672.241" font-family="Times,serif" font-size="14.00">IMPLICIT DOBJ</text>
</g>
<!-- E13&#45;&gt;E14 -->
<g id="edge34" class="edge"><title>E13&#45;&gt;E14</title>
<path fill="none" stroke="black" d="M638.295,-604.439C666.166,-587.189 708.196,-561.177 738.29,-542.551"/>
<polygon fill="black" stroke="black" points="740.167,-545.506 746.828,-537.267 736.483,-539.553 740.167,-545.506"/>
<text text-anchor="middle" x="728.5" y="-567.501" font-family="Times,serif" font-size="14.00">meringue</text>
</g>
<!-- E15 -->
<g id="node16" class="node"><title>E15</title>
<ellipse fill="azure" stroke="black" cx="617" cy="-414.09" rx="44.5955" ry="26.7407"/>
<text text-anchor="middle" x="617" y="-417.89" font-family="Times,serif" font-size="14.00">sprinkle</text>
<text text-anchor="middle" x="617" y="-402.89" font-family="Times,serif" font-size="14.00">15</text>
</g>
<!-- E14&#45;&gt;E15 -->
<g id="edge37" class="edge"><title>E14&#45;&gt;E15</title>
<path fill="none" stroke="black" d="M747.479,-499.935C721.919,-483.314 683.624,-458.413 655.125,-439.881"/>
<polygon fill="black" stroke="black" points="656.912,-436.868 646.62,-434.351 653.096,-442.737 656.912,-436.868"/>
<text text-anchor="middle" x="756" y="-462.76" font-family="Times,serif" font-size="14.00">IMPLICIT DOBJ</text>
</g>
<!-- E15&#45;&gt;E16 -->
<g id="edge39" class="edge"><title>E15&#45;&gt;E16</title>
<path fill="none" stroke="black" d="M582.955,-396.355C544.781,-377.589 483.127,-347.281 444.124,-328.108"/>
<polygon fill="black" stroke="black" points="445.242,-324.758 434.724,-323.487 442.154,-331.04 445.242,-324.758"/>
<text text-anchor="middle" x="576" y="-358.02" font-family="Times,serif" font-size="14.00">IMPLICIT DOBJ</text>
</g>
<!-- E17 -->
<g id="node18" class="node"><title>E17</title>
<ellipse fill="azure" stroke="black" cx="307" cy="-204.61" rx="28.9828" ry="26.7407"/>
<text text-anchor="middle" x="307" y="-208.41" font-family="Times,serif" font-size="14.00">cool</text>
<text text-anchor="middle" x="307" y="-193.41" font-family="Times,serif" font-size="14.00">17</text>
</g>
<!-- E16&#45;&gt;E17 -->
<g id="edge42" class="edge"><title>E16&#45;&gt;E17</title>
<path fill="none" stroke="black" d="M388.046,-288.052C372.491,-272.23 350.744,-250.108 333.692,-232.763"/>
<polygon fill="black" stroke="black" points="335.734,-229.847 326.228,-225.169 330.742,-234.754 335.734,-229.847"/>
<text text-anchor="middle" x="414" y="-253.28" font-family="Times,serif" font-size="14.00">IMPLICIT DOBJ</text>
</g>
<!-- E18 -->
<g id="node19" class="node"><title>E18</title>
<ellipse fill="azure" stroke="black" cx="307" cy="-99.8701" rx="28.9828" ry="26.7407"/>
<text text-anchor="middle" x="307" y="-103.67" font-family="Times,serif" font-size="14.00">chill</text>
<text text-anchor="middle" x="307" y="-88.6701" font-family="Times,serif" font-size="14.00">18</text>
</g>
<!-- E17&#45;&gt;E18 -->
<g id="edge44" class="edge"><title>E17&#45;&gt;E18</title>
<path fill="none" stroke="black" d="M307,-177.685C307,-165.395 307,-150.507 307,-137.121"/>
<polygon fill="black" stroke="black" points="310.5,-136.787 307,-126.787 303.5,-136.787 310.5,-136.787"/>
<text text-anchor="middle" x="358" y="-148.54" font-family="Times,serif" font-size="14.00">IMPLICIT DOBJ</text>
</g>
<!-- EOR -->
<g id="node45" class="node"><title>EOR</title>
<ellipse fill="plum" stroke="black" cx="307" cy="-18" rx="57.3905" ry="18"/>
<text text-anchor="middle" x="307" y="-14.3" font-family="Times,serif" font-size="14.00">Bon appetit!</text>
</g>
<!-- E18&#45;&gt;EOR -->
<g id="edge45" class="edge"><title>E18&#45;&gt;EOR</title>
<path fill="none" stroke="black" d="M307,-72.7176C307,-64.2726 307,-54.8903 307,-46.3604"/>
<polygon fill="black" stroke="black" points="310.5,-46.1464 307,-36.1464 303.5,-46.1464 310.5,-46.1464"/>
</g>
<!-- D0 -->
<g id="node20" class="node"><title>D0</title>
<polygon fill="peachpuff" stroke="black" points="1857,-1561.36 1553,-1561.36 1553,-1525.36 1857,-1525.36 1857,-1561.36"/>
<text text-anchor="middle" x="1705" y="-1539.66" font-family="Times,serif" font-size="14.00">DOBJ: cornstarch, brown sugar, 1/4 teaspoon salt</text>
</g>
<!-- D0&#45;&gt;E0 -->
<g id="edge1" class="edge"><title>D0&#45;&gt;E0</title>
<path fill="none" stroke="black" d="M1736.96,-1525.23C1758.71,-1513.57 1787.71,-1498.02 1811.41,-1485.32"/>
<polygon fill="black" stroke="black" points="1813.38,-1488.24 1820.54,-1480.43 1810.07,-1482.07 1813.38,-1488.24"/>
</g>
<!-- P0_0 -->
<g id="node21" class="node"><title>P0_0</title>
<polygon fill="white" stroke="black" points="2130.5,-1561.36 1875.5,-1561.36 1875.5,-1525.36 2130.5,-1525.36 2130.5,-1561.36"/>
<text text-anchor="middle" x="2003" y="-1539.66" font-family="Times,serif" font-size="14.00">LOCATION:in the top of a double boiler</text>
</g>
<!-- P0_0&#45;&gt;E0 -->
<g id="edge2" class="edge"><title>P0_0&#45;&gt;E0</title>
<path fill="none" stroke="black" d="M1971.04,-1525.23C1949.29,-1513.57 1920.29,-1498.02 1896.59,-1485.32"/>
<polygon fill="black" stroke="black" points="1897.93,-1482.07 1887.46,-1480.43 1894.62,-1488.24 1897.93,-1482.07"/>
</g>
<!-- D11 -->
<g id="node22" class="node"><title>D11</title>
<polygon fill="peachpuff" stroke="black" points="485,-955.791 195,-955.791 195,-919.791 485,-919.791 485,-955.791"/>
<text text-anchor="middle" x="340" y="-934.091" font-family="Times,serif" font-size="14.00">DOBJ: pinch of salt, cream of tartar, egg whites</text>
</g>
<!-- D11&#45;&gt;E11 -->
<g id="edge3" class="edge"><title>D11&#45;&gt;E11</title>
<path fill="none" stroke="black" d="M359.416,-919.595C378.174,-902.98 406.787,-877.638 428.006,-858.845"/>
<polygon fill="black" stroke="black" points="430.575,-861.245 435.74,-851.995 425.934,-856.005 430.575,-861.245"/>
</g>
<!-- O11_0 -->
<g id="node23" class="node"><title>O11_0</title>
<polygon fill="white" stroke="black" points="642.5,-955.791 503.5,-955.791 503.5,-919.791 642.5,-919.791 642.5,-955.791"/>
<text text-anchor="middle" x="573" y="-934.091" font-family="Times,serif" font-size="14.00">OTHER: until foamy</text>
</g>
<!-- O11_0&#45;&gt;E11 -->
<g id="edge4" class="edge"><title>O11_0&#45;&gt;E11</title>
<path fill="none" stroke="black" d="M553.417,-919.595C534.413,-902.907 505.382,-877.415 483.953,-858.597"/>
<polygon fill="black" stroke="black" points="486.258,-855.963 476.434,-851.995 481.639,-861.223 486.258,-855.963"/>
</g>
<!-- D10 -->
<g id="node24" class="node"><title>D10</title>
<polygon fill="white" stroke="black" points="88,-536.831 0,-536.831 0,-500.831 88,-500.831 88,-536.831"/>
<text text-anchor="middle" x="44" y="-515.131" font-family="Times,serif" font-size="14.00">DOBJ: oven</text>
</g>
<!-- D10&#45;&gt;E10 -->
<g id="edge5" class="edge"><title>D10&#45;&gt;E10</title>
<path fill="none" stroke="black" d="M68.7719,-500.634C92.6071,-484.088 128.913,-458.885 155.951,-440.116"/>
<polygon fill="black" stroke="black" points="158.157,-442.845 164.376,-434.267 154.165,-437.094 158.157,-442.845"/>
</g>
<!-- O10_0 -->
<g id="node25" class="node"><title>O10_0</title>
<polygon fill="white" stroke="black" points="352,-536.831 106,-536.831 106,-500.831 352,-500.831 352,-536.831"/>
<text text-anchor="middle" x="229" y="-515.131" font-family="Times,serif" font-size="14.00">OTHER: 350 degrees f (175 degrees c.)</text>
</g>
<!-- O10_0&#45;&gt;E10 -->
<g id="edge6" class="edge"><title>O10_0&#45;&gt;E10</title>
<path fill="none" stroke="black" d="M222.723,-500.402C217.76,-486.619 210.671,-466.935 204.553,-449.948"/>
<polygon fill="black" stroke="black" points="207.768,-448.545 201.087,-440.322 201.182,-450.917 207.768,-448.545"/>
</g>
<!-- D3 -->
<g id="node26" class="node"><title>D3</title>
<polygon fill="peachpuff" stroke="black" points="694,-1374.75 578,-1374.75 578,-1338.75 694,-1338.75 694,-1374.75"/>
<text text-anchor="middle" x="636" y="-1353.05" font-family="Times,serif" font-size="14.00">DOBJ: egg yolks</text>
</g>
<!-- D3&#45;&gt;E3 -->
<g id="edge7" class="edge"><title>D3&#45;&gt;E3</title>
<path fill="none" stroke="black" d="M678.394,-1338.67C728.108,-1318.64 809.591,-1285.81 855.912,-1267.15"/>
<polygon fill="black" stroke="black" points="857.271,-1270.37 865.238,-1263.39 854.655,-1263.88 857.271,-1270.37"/>
</g>
<!-- P3_0 -->
<g id="node27" class="node"><title>P3_0</title>
<polygon fill="white" stroke="black" points="912,-1374.75 712,-1374.75 712,-1338.75 912,-1338.75 912,-1374.75"/>
<text text-anchor="middle" x="812" y="-1353.05" font-family="Times,serif" font-size="14.00">LOCATION:in a medium bowl</text>
</g>
<!-- P3_0&#45;&gt;E3 -->
<g id="edge8" class="edge"><title>P3_0&#45;&gt;E3</title>
<path fill="none" stroke="black" d="M825.401,-1338.32C837.236,-1322.93 854.727,-1300.18 868.672,-1282.05"/>
<polygon fill="black" stroke="black" points="871.476,-1284.14 874.797,-1274.08 865.927,-1279.88 871.476,-1284.14"/>
</g>
<!-- O3_0 -->
<g id="node28" class="node"><title>O3_0</title>
<polygon fill="white" stroke="black" points="1154,-1374.75 930,-1374.75 930,-1338.75 1154,-1338.75 1154,-1374.75"/>
<text text-anchor="middle" x="1042" y="-1353.05" font-family="Times,serif" font-size="14.00">OTHER: until thick, lemon colored.</text>
</g>
<!-- O3_0&#45;&gt;E3 -->
<g id="edge9" class="edge"><title>O3_0&#45;&gt;E3</title>
<path fill="none" stroke="black" d="M1016.73,-1338.56C990.817,-1320.93 950.465,-1293.47 922.494,-1274.44"/>
<polygon fill="black" stroke="black" points="924.118,-1271.31 913.881,-1268.58 920.18,-1277.1 924.118,-1271.31"/>
</g>
<!-- D1_ing -->
<g id="node29" class="node"><title>D1_ing</title>
<polygon fill="peachpuff" stroke="black" points="1789,-1479.49 1633,-1479.49 1633,-1443.49 1789,-1443.49 1789,-1479.49"/>
<text text-anchor="middle" x="1711" y="-1457.79" font-family="Times,serif" font-size="14.00">DOBJ: corn syrup, milk</text>
</g>
<!-- D1_ing&#45;&gt;E1 -->
<g id="edge10" class="edge"><title>D1_ing&#45;&gt;E1</title>
<path fill="none" stroke="black" d="M1718.46,-1443.06C1724.41,-1429.18 1732.91,-1409.32 1740.22,-1392.26"/>
<polygon fill="black" stroke="black" points="1743.64,-1393.17 1744.36,-1382.6 1737.21,-1390.41 1743.64,-1393.17"/>
</g>
<!-- P2_0_0 -->
<g id="node30" class="node"><title>P2_0_0</title>
<polygon fill="white" stroke="black" points="1372,-1374.75 1172,-1374.75 1172,-1338.75 1372,-1338.75 1372,-1374.75"/>
<text text-anchor="middle" x="1272" y="-1353.05" font-family="Times,serif" font-size="14.00">LOCATION:over boiling water</text>
</g>
<!-- P2_0_0&#45;&gt;E2 -->
<g id="edge13" class="edge"><title>P2_0_0&#45;&gt;E2</title>
<path fill="none" stroke="black" d="M1303.13,-1338.56C1336.26,-1320.25 1388.57,-1291.36 1423.08,-1272.3"/>
<polygon fill="black" stroke="black" points="1424.82,-1275.34 1431.88,-1267.44 1421.43,-1269.21 1424.82,-1275.34"/>
</g>
<!-- O2_0_0 -->
<g id="node31" class="node"><title>O2_0_0</title>
<polygon fill="white" stroke="black" points="1526,-1374.75 1390,-1374.75 1390,-1338.75 1526,-1338.75 1526,-1374.75"/>
<text text-anchor="middle" x="1458" y="-1353.05" font-family="Times,serif" font-size="14.00">OTHER: 20 minutes</text>
</g>
<!-- O2_0_0&#45;&gt;E2 -->
<g id="edge14" class="edge"><title>O2_0_0&#45;&gt;E2</title>
<path fill="none" stroke="black" d="M1458,-1338.32C1458,-1324.86 1458,-1305.76 1458,-1289.05"/>
<polygon fill="black" stroke="black" points="1461.5,-1289.02 1458,-1279.02 1454.5,-1289.02 1461.5,-1289.02"/>
</g>
<!-- O2_1_0 -->
<g id="node32" class="node"><title>O2_1_0</title>
<polygon fill="white" stroke="black" points="1702,-1374.75 1544,-1374.75 1544,-1338.75 1702,-1338.75 1702,-1374.75"/>
<text text-anchor="middle" x="1623" y="-1353.05" font-family="Times,serif" font-size="14.00">OTHER: until thickened</text>
</g>
<!-- O2_1_0&#45;&gt;E2 -->
<g id="edge15" class="edge"><title>O2_1_0&#45;&gt;E2</title>
<path fill="none" stroke="black" d="M1595.38,-1338.56C1566.91,-1320.83 1522.47,-1293.16 1491.89,-1274.11"/>
<polygon fill="black" stroke="black" points="1493.61,-1271.06 1483.27,-1268.75 1489.91,-1277 1493.61,-1271.06"/>
</g>
<!-- O4_0_0 -->
<g id="node33" class="node"><title>O4_0_0</title>
<polygon fill="white" stroke="black" points="1342.5,-1270.01 1215.5,-1270.01 1215.5,-1234.01 1342.5,-1234.01 1342.5,-1270.01"/>
<text text-anchor="middle" x="1279" y="-1248.31" font-family="Times,serif" font-size="14.00">OTHER: gradually</text>
</g>
<!-- O4_0_0&#45;&gt;E4 -->
<g id="edge18" class="edge"><title>O4_0_0&#45;&gt;E4</title>
<path fill="none" stroke="black" d="M1281.88,-1233.58C1284.13,-1220.02 1287.32,-1200.75 1290.1,-1183.96"/>
<polygon fill="black" stroke="black" points="1293.58,-1184.33 1291.76,-1173.89 1286.67,-1183.19 1293.58,-1184.33"/>
</g>
<!-- P6_0_0 -->
<g id="node34" class="node"><title>P6_0_0</title>
<polygon fill="white" stroke="black" points="1176,-1060.53 976,-1060.53 976,-1024.53 1176,-1024.53 1176,-1060.53"/>
<text text-anchor="middle" x="1076" y="-1038.83" font-family="Times,serif" font-size="14.00">LOCATION:over boiling water</text>
</g>
<!-- P6_0_0&#45;&gt;E6 -->
<g id="edge22" class="edge"><title>P6_0_0&#45;&gt;E6</title>
<path fill="none" stroke="black" d="M1109.4,-1024.39C1138.44,-1009.26 1181.47,-986.319 1218,-964.661 1220.18,-963.369 1222.41,-962.017 1224.65,-960.636"/>
<polygon fill="black" stroke="black" points="1226.62,-963.528 1233.22,-955.241 1222.89,-957.603 1226.62,-963.528"/>
</g>
<!-- O6_0_0 -->
<g id="node35" class="node"><title>O6_0_0</title>
<polygon fill="white" stroke="black" points="1322,-1060.53 1194,-1060.53 1194,-1024.53 1322,-1024.53 1322,-1060.53"/>
<text text-anchor="middle" x="1258" y="-1038.83" font-family="Times,serif" font-size="14.00">OTHER: 5 minutes</text>
</g>
<!-- O6_0_0&#45;&gt;E6 -->
<g id="edge23" class="edge"><title>O6_0_0&#45;&gt;E6</title>
<path fill="none" stroke="black" d="M1258,-1024.1C1258,-1010.64 1258,-991.542 1258,-974.83"/>
<polygon fill="black" stroke="black" points="1261.5,-974.804 1258,-964.804 1254.5,-974.804 1261.5,-974.804"/>
</g>
<!-- P7_0_0 -->
<g id="node36" class="node"><title>P7_0_0</title>
<polygon fill="white" stroke="black" points="1208.5,-955.791 1059.5,-955.791 1059.5,-919.791 1208.5,-919.791 1208.5,-955.791"/>
<text text-anchor="middle" x="1134" y="-934.091" font-family="Times,serif" font-size="14.00">LOCATION:from heat</text>
</g>
<!-- P7_0_0&#45;&gt;E7 -->
<g id="edge25" class="edge"><title>P7_0_0&#45;&gt;E7</title>
<path fill="none" stroke="black" d="M1140.62,-919.363C1145.85,-905.579 1153.32,-885.896 1159.77,-868.908"/>
<polygon fill="black" stroke="black" points="1163.15,-869.874 1163.42,-859.283 1156.6,-867.39 1163.15,-869.874"/>
</g>
<!-- D8_ing -->
<g id="node37" class="node"><title>D8_ing</title>
<polygon fill="peachpuff" stroke="black" points="1113,-851.051 883,-851.051 883,-815.051 1113,-815.051 1113,-851.051"/>
<text text-anchor="middle" x="998" y="-829.351" font-family="Times,serif" font-size="14.00">DOBJ: butter, 3/4 cup pecans, vanilla</text>
</g>
<!-- D8_ing&#45;&gt;E8 -->
<g id="edge26" class="edge"><title>D8_ing&#45;&gt;E8</title>
<path fill="none" stroke="black" d="M1006.82,-814.622C1013.96,-800.517 1024.23,-780.233 1032.96,-762.982"/>
<polygon fill="black" stroke="black" points="1036.23,-764.272 1037.62,-753.769 1029.98,-761.11 1036.23,-764.272"/>
</g>
<!-- P9_0_ing -->
<g id="node38" class="node"><title>P9_0_ing</title>
<polygon fill="peachpuff" stroke="black" points="997,-746.311 809,-746.311 809,-710.311 997,-710.311 997,-746.311"/>
<text text-anchor="middle" x="903" y="-724.611" font-family="Times,serif" font-size="14.00">COOBJECT: into pastry shell</text>
</g>
<!-- P9_0_ing&#45;&gt;E9 -->
<g id="edge29" class="edge"><title>P9_0_ing&#45;&gt;E9</title>
<path fill="none" stroke="black" d="M907.58,-709.882C911.144,-696.323 916.208,-677.053 920.622,-660.257"/>
<polygon fill="black" stroke="black" points="924.11,-660.753 923.267,-650.192 917.34,-658.974 924.11,-660.753"/>
</g>
<!-- D12_ing -->
<g id="node39" class="node"><title>D12_ing</title>
<polygon fill="peachpuff" stroke="black" points="618,-851.051 526,-851.051 526,-815.051 618,-815.051 618,-851.051"/>
<text text-anchor="middle" x="572" y="-829.351" font-family="Times,serif" font-size="14.00">DOBJ: sugar</text>
</g>
<!-- D12_ing&#45;&gt;E12 -->
<g id="edge30" class="edge"><title>D12_ing&#45;&gt;E12</title>
<path fill="none" stroke="black" d="M570.442,-814.91C568.746,-802.653 565.234,-786.107 558,-773.181 553.926,-765.9 548.297,-759.014 542.425,-752.949"/>
<polygon fill="black" stroke="black" points="544.581,-750.166 534.956,-745.738 539.719,-755.202 544.581,-750.166"/>
</g>
<!-- O13_0_0 -->
<g id="node40" class="node"><title>O13_0_0</title>
<polygon fill="white" stroke="black" points="751,-746.311 559,-746.311 559,-710.311 751,-710.311 751,-746.311"/>
<text text-anchor="middle" x="655" y="-724.611" font-family="Times,serif" font-size="14.00">OTHER: until stiff peaks form</text>
</g>
<!-- O13_0_0&#45;&gt;E13 -->
<g id="edge33" class="edge"><title>O13_0_0&#45;&gt;E13</title>
<path fill="none" stroke="black" d="M648.848,-710.101C644.473,-698.25 638.28,-682.219 632,-668.441 630.529,-665.213 628.934,-661.886 627.295,-658.576"/>
<polygon fill="black" stroke="black" points="630.274,-656.714 622.62,-649.389 624.036,-659.889 630.274,-656.714"/>
</g>
<!-- O14_0_0 -->
<g id="node41" class="node"><title>O14_0_0</title>
<polygon fill="white" stroke="black" points="881,-641.571 669,-641.571 669,-605.571 881,-605.571 881,-641.571"/>
<text text-anchor="middle" x="775" y="-619.871" font-family="Times,serif" font-size="14.00">OTHER: sealing to edge of pastry</text>
</g>
<!-- O14_0_0&#45;&gt;E14 -->
<g id="edge36" class="edge"><title>O14_0_0&#45;&gt;E14</title>
<path fill="none" stroke="black" d="M775,-605.142C775,-591.678 775,-572.582 775,-555.87"/>
<polygon fill="black" stroke="black" points="778.5,-555.843 775,-545.843 771.5,-555.843 778.5,-555.843"/>
</g>
<!-- P15_0_ing -->
<g id="node42" class="node"><title>P15_0_ing</title>
<polygon fill="peachpuff" stroke="black" points="718.5,-536.831 443.5,-536.831 443.5,-500.831 718.5,-500.831 718.5,-536.831"/>
<text text-anchor="middle" x="581" y="-515.131" font-family="Times,serif" font-size="14.00">COOBJECT: with remaining 1/4 cup pecans</text>
</g>
<!-- P15_0_ing&#45;&gt;E15 -->
<g id="edge38" class="edge"><title>P15_0_ing&#45;&gt;E15</title>
<path fill="none" stroke="black" d="M587.107,-500.402C591.903,-486.715 598.738,-467.208 604.662,-450.302"/>
<polygon fill="black" stroke="black" points="608.018,-451.307 608.022,-440.712 601.412,-448.992 608.018,-451.307"/>
</g>
<!-- O16_0_0 -->
<g id="node43" class="node"><title>O16_0_0</title>
<polygon fill="white" stroke="black" points="554.5,-432.09 261.5,-432.09 261.5,-396.09 554.5,-396.09 554.5,-432.09"/>
<text text-anchor="middle" x="408" y="-410.39" font-family="Times,serif" font-size="14.00">OTHER: for 12 minutes, or until golden brown</text>
</g>
<!-- O16_0_0&#45;&gt;E16 -->
<g id="edge41" class="edge"><title>O16_0_0&#45;&gt;E16</title>
<path fill="none" stroke="black" d="M408,-395.662C408,-382.197 408,-363.102 408,-346.389"/>
<polygon fill="black" stroke="black" points="411.5,-346.363 408,-336.363 404.5,-346.363 411.5,-346.363"/>
</g>
<!-- O17_0_0 -->
<g id="node44" class="node"><title>O17_0_0</title>
<polygon fill="white" stroke="black" points="358.5,-327.35 167.5,-327.35 167.5,-291.35 358.5,-291.35 358.5,-327.35"/>
<text text-anchor="middle" x="263" y="-305.65" font-family="Times,serif" font-size="14.00">OTHER: to room temperature</text>
</g>
<!-- O17_0_0&#45;&gt;E17 -->
<g id="edge43" class="edge"><title>O17_0_0&#45;&gt;E17</title>
<path fill="none" stroke="black" d="M270.464,-290.922C276.505,-276.817 285.192,-256.532 292.58,-239.281"/>
<polygon fill="black" stroke="black" points="295.806,-240.638 296.526,-230.068 289.371,-237.883 295.806,-240.638"/>
</g>
</g>
</svg>
