<?xml version="1.0" encoding="UTF-8" standalone="no"?>
<!DOCTYPE svg PUBLIC "-//W3C//DTD SVG 1.1//EN"
 "http://www.w3.org/Graphics/SVG/1.1/DTD/svg11.dtd">
<!-- Generated by graphviz version 2.38.0 (20140413.2041)
 -->
<!-- Title: recipe Pages: 1 -->
<svg width="1233pt" height="522pt"
 viewBox="0.00 0.00 1232.50 521.96" xmlns="http://www.w3.org/2000/svg" xmlns:xlink="http://www.w3.org/1999/xlink">
<g id="graph0" class="graph" transform="scale(1 1) rotate(0) translate(4 517.96)">
<title>recipe</title>
<polygon fill="white" stroke="none" points="-4,4 -4,-517.96 1228.5,-517.96 1228.5,4 -4,4"/>
<!-- E0 -->
<g id="node1" class="node"><title>E0</title>
<ellipse fill="azure" stroke="black" cx="841" cy="-414.09" rx="46.8387" ry="26.7407"/>
<text text-anchor="middle" x="841" y="-417.89" font-family="Times,serif" font-size="14.00">combine</text>
<text text-anchor="middle" x="841" y="-402.89" font-family="Times,serif" font-size="14.00">0</text>
</g>
<!-- E2 -->
<g id="node3" class="node"><title>E2</title>
<ellipse fill="azure" stroke="black" cx="700" cy="-309.35" rx="31.2258" ry="26.7407"/>
<text text-anchor="middle" x="700" y="-313.15" font-family="Times,serif" font-size="14.00">pour</text>
<text text-anchor="middle" x="700" y="-298.15" font-family="Times,serif" font-size="14.00">2</text>
</g>
<!-- E0&#45;&gt;E2 -->
<g id="edge6" class="edge"><title>E0&#45;&gt;E2</title>
<path fill="none" stroke="black" d="M812.805,-392.546C789.369,-375.47 756.035,-351.181 731.681,-333.435"/>
<polygon fill="black" stroke="black" points="733.616,-330.514 723.473,-327.454 729.493,-336.171 733.616,-330.514"/>
<text text-anchor="middle" x="869.5" y="-358.02" font-family="Times,serif" font-size="14.00">COOBJECT:over slaw mixture</text>
</g>
<!-- E1 -->
<g id="node2" class="node"><title>E1</title>
<ellipse fill="azure" stroke="black" cx="507" cy="-414.09" rx="36.5405" ry="26.7407"/>
<text text-anchor="middle" x="507" y="-417.89" font-family="Times,serif" font-size="14.00">whisk</text>
<text text-anchor="middle" x="507" y="-402.89" font-family="Times,serif" font-size="14.00">1</text>
</g>
<!-- E1&#45;&gt;E2 -->
<g id="edge5" class="edge"><title>E1&#45;&gt;E2</title>
<path fill="none" stroke="black" d="M537.703,-398.874C568.966,-384.118 618.591,-359.92 660,-336.22 662.261,-334.926 664.571,-333.559 666.884,-332.156"/>
<polygon fill="black" stroke="black" points="669.086,-334.908 675.722,-326.648 665.384,-328.967 669.086,-334.908"/>
<text text-anchor="middle" x="679" y="-358.02" font-family="Times,serif" font-size="14.00">IMPLICIT DOBJ</text>
</g>
<!-- E3 -->
<g id="node4" class="node"><title>E3</title>
<ellipse fill="azure" stroke="black" cx="623" cy="-204.61" rx="38.7821" ry="26.7407"/>
<text text-anchor="middle" x="623" y="-208.41" font-family="Times,serif" font-size="14.00">fold in</text>
<text text-anchor="middle" x="623" y="-193.41" font-family="Times,serif" font-size="14.00">3</text>
</g>
<!-- E2&#45;&gt;E3 -->
<g id="edge8" class="edge"><title>E2&#45;&gt;E3</title>
<path fill="none" stroke="black" d="M683.482,-286.31C672.644,-271.85 658.312,-252.726 646.319,-236.725"/>
<polygon fill="black" stroke="black" points="649.09,-234.586 640.292,-228.683 643.489,-238.784 649.09,-234.586"/>
<text text-anchor="middle" x="717.5" y="-253.28" font-family="Times,serif" font-size="14.00">IMPLICIT PREP</text>
</g>
<!-- E4 -->
<g id="node5" class="node"><title>E4</title>
<ellipse fill="azure" stroke="black" cx="486" cy="-99.8701" rx="28.9828" ry="26.7407"/>
<text text-anchor="middle" x="486" y="-103.67" font-family="Times,serif" font-size="14.00">chill</text>
<text text-anchor="middle" x="486" y="-88.6701" font-family="Times,serif" font-size="14.00">4</text>
</g>
<!-- E3&#45;&gt;E4 -->
<g id="edge9" class="edge"><title>E3&#45;&gt;E4</title>
<path fill="none" stroke="black" d="M597.231,-184.286C574.212,-167.023 540.473,-141.721 516.195,-123.514"/>
<polygon fill="black" stroke="black" points="518.135,-120.594 508.035,-117.395 513.936,-126.195 518.135,-120.594"/>
<text text-anchor="middle" x="614" y="-148.54" font-family="Times,serif" font-size="14.00">IMPLICIT DOBJ</text>
</g>
<!-- EOR -->
<g id="node13" class="node"><title>EOR</title>
<ellipse fill="plum" stroke="black" cx="486" cy="-18" rx="57.3905" ry="18"/>
<text text-anchor="middle" x="486" y="-14.3" font-family="Times,serif" font-size="14.00">Bon appetit!</text>
</g>
<!-- E4&#45;&gt;EOR -->
<g id="edge12" class="edge"><title>E4&#45;&gt;EOR</title>
<path fill="none" stroke="black" d="M486,-72.7176C486,-64.2726 486,-54.8903 486,-46.3604"/>
<polygon fill="black" stroke="black" points="489.5,-46.1464 486,-36.1464 482.5,-46.1464 489.5,-46.1464"/>
</g>
<!-- D1 -->
<g id="node6" class="node"><title>D1</title>
<polygon fill="peachpuff" stroke="black" points="390,-513.96 0,-513.96 0,-477.96 390,-477.96 390,-513.96"/>
<text text-anchor="middle" x="195" y="-492.26" font-family="Times,serif" font-size="14.00">DOBJ: canola oil, vinegar, ramen noodle seasoning packet, sugar</text>
</g>
<!-- D1&#45;&gt;E1 -->
<g id="edge1" class="edge"><title>D1&#45;&gt;E1</title>
<path fill="none" stroke="black" d="M261.549,-477.924C322.244,-462.387 410.225,-439.864 462.714,-426.427"/>
<polygon fill="black" stroke="black" points="463.584,-429.818 472.404,-423.947 461.848,-423.036 463.584,-429.818"/>
</g>
<!-- P1_0 -->
<g id="node7" class="node"><title>P1_0</title>
<polygon fill="white" stroke="black" points="606,-513.96 408,-513.96 408,-477.96 606,-477.96 606,-513.96"/>
<text text-anchor="middle" x="507" y="-492.26" font-family="Times,serif" font-size="14.00">LOCATION:in a separate bowl</text>
</g>
<!-- P1_0&#45;&gt;E1 -->
<g id="edge2" class="edge"><title>P1_0&#45;&gt;E1</title>
<path fill="none" stroke="black" d="M507,-477.63C507,-469.896 507,-460.476 507,-451.319"/>
<polygon fill="black" stroke="black" points="510.5,-451.194 507,-441.194 503.5,-451.195 510.5,-451.194"/>
</g>
<!-- D0 -->
<g id="node8" class="node"><title>D0</title>
<polygon fill="peachpuff" stroke="black" points="1057.5,-513.96 624.5,-513.96 624.5,-477.96 1057.5,-477.96 1057.5,-513.96"/>
<text text-anchor="middle" x="841" y="-492.26" font-family="Times,serif" font-size="14.00">DOBJ: almonds, ramen noodles, broccoli coleslaw mix, sunflower seeds</text>
</g>
<!-- D0&#45;&gt;E0 -->
<g id="edge3" class="edge"><title>D0&#45;&gt;E0</title>
<path fill="none" stroke="black" d="M841,-477.63C841,-469.896 841,-460.476 841,-451.319"/>
<polygon fill="black" stroke="black" points="844.5,-451.194 841,-441.194 837.5,-451.195 844.5,-451.194"/>
</g>
<!-- P0_0 -->
<g id="node9" class="node"><title>P0_0</title>
<polygon fill="white" stroke="black" points="1224.5,-513.96 1075.5,-513.96 1075.5,-477.96 1224.5,-477.96 1224.5,-513.96"/>
<text text-anchor="middle" x="1150" y="-492.26" font-family="Times,serif" font-size="14.00">LOCATION:in a bowl</text>
</g>
<!-- P0_0&#45;&gt;E0 -->
<g id="edge4" class="edge"><title>P0_0&#45;&gt;E0</title>
<path fill="none" stroke="black" d="M1084.09,-477.924C1026.98,-463.161 945.466,-442.093 892.89,-428.503"/>
<polygon fill="black" stroke="black" points="893.658,-425.086 883.1,-425.972 891.906,-431.864 893.658,-425.086"/>
</g>
<!-- D3_ing -->
<g id="node10" class="node"><title>D3_ing</title>
<polygon fill="peachpuff" stroke="black" points="651,-327.35 521,-327.35 521,-291.35 651,-291.35 651,-327.35"/>
<text text-anchor="middle" x="586" y="-305.65" font-family="Times,serif" font-size="14.00">DOBJ: green onion</text>
</g>
<!-- D3_ing&#45;&gt;E3 -->
<g id="edge7" class="edge"><title>D3_ing&#45;&gt;E3</title>
<path fill="none" stroke="black" d="M592.277,-290.922C597.24,-277.139 604.329,-257.455 610.447,-240.467"/>
<polygon fill="black" stroke="black" points="613.818,-241.436 613.913,-230.842 607.232,-239.064 613.818,-241.436"/>
</g>
<!-- P4_0_0 -->
<g id="node11" class="node"><title>P4_0_0</title>
<polygon fill="white" stroke="black" points="387.5,-222.61 212.5,-222.61 212.5,-186.61 387.5,-186.61 387.5,-222.61"/>
<text text-anchor="middle" x="300" y="-200.91" font-family="Times,serif" font-size="14.00">LOCATION:in refrigerator</text>
</g>
<!-- P4_0_0&#45;&gt;E4 -->
<g id="edge10" class="edge"><title>P4_0_0&#45;&gt;E4</title>
<path fill="none" stroke="black" d="M331.132,-186.414C364.739,-167.851 418.071,-138.392 452.552,-119.345"/>
<polygon fill="black" stroke="black" points="454.256,-122.403 461.317,-114.504 450.871,-116.275 454.256,-122.403"/>
</g>
<!-- O4_0_0 -->
<g id="node12" class="node"><title>O4_0_0</title>
<polygon fill="white" stroke="black" points="566,-222.61 406,-222.61 406,-186.61 566,-186.61 566,-222.61"/>
<text text-anchor="middle" x="486" y="-200.91" font-family="Times,serif" font-size="14.00">OTHER: for 1 1/2 hours</text>
</g>
<!-- O4_0_0&#45;&gt;E4 -->
<g id="edge11" class="edge"><title>O4_0_0&#45;&gt;E4</title>
<path fill="none" stroke="black" d="M486,-186.182C486,-172.717 486,-153.621 486,-136.909"/>
<polygon fill="black" stroke="black" points="489.5,-136.883 486,-126.883 482.5,-136.883 489.5,-136.883"/>
</g>
</g>
</svg>
