<?xml version="1.0" encoding="UTF-8" standalone="no"?>
<!DOCTYPE svg PUBLIC "-//W3C//DTD SVG 1.1//EN"
 "http://www.w3.org/Graphics/SVG/1.1/DTD/svg11.dtd">
<!-- Generated by graphviz version 2.38.0 (20140413.2041)
 -->
<!-- Title: recipe Pages: 1 -->
<svg width="1166pt" height="836pt"
 viewBox="0.00 0.00 1165.50 836.18" xmlns="http://www.w3.org/2000/svg" xmlns:xlink="http://www.w3.org/1999/xlink">
<g id="graph0" class="graph" transform="scale(1 1) rotate(0) translate(4 832.181)">
<title>recipe</title>
<polygon fill="white" stroke="none" points="-4,4 -4,-832.181 1161.5,-832.181 1161.5,4 -4,4"/>
<!-- E0 -->
<g id="node1" class="node"><title>E0</title>
<ellipse fill="azure" stroke="black" cx="856.5" cy="-728.311" rx="39.6962" ry="26.7407"/>
<text text-anchor="middle" x="856.5" y="-732.111" font-family="Times,serif" font-size="14.00">brown</text>
<text text-anchor="middle" x="856.5" y="-717.111" font-family="Times,serif" font-size="14.00">0</text>
</g>
<!-- E1 -->
<g id="node2" class="node"><title>E1</title>
<ellipse fill="azure" stroke="black" cx="796.5" cy="-623.571" rx="33.4697" ry="26.7407"/>
<text text-anchor="middle" x="796.5" y="-627.371" font-family="Times,serif" font-size="14.00">drain</text>
<text text-anchor="middle" x="796.5" y="-612.371" font-family="Times,serif" font-size="14.00">1</text>
</g>
<!-- E0&#45;&gt;E1 -->
<g id="edge4" class="edge"><title>E0&#45;&gt;E1</title>
<path fill="none" stroke="black" d="M825.211,-711.769C814.436,-704.705 803.562,-695.251 797.5,-683.441 793.93,-676.485 792.404,-668.431 792.019,-660.555"/>
<polygon fill="black" stroke="black" points="795.52,-660.439 792.095,-650.413 788.52,-660.386 795.52,-660.439"/>
<text text-anchor="middle" x="816" y="-672.241" font-family="Times,serif" font-size="14.00">grease</text>
</g>
<!-- E0&#45;&gt;E1 -->
<g id="edge5" class="edge"><title>E0&#45;&gt;E1</title>
<path fill="none" stroke="black" d="M849.173,-701.778C845.55,-691.082 840.627,-678.761 834.5,-668.441 831.403,-663.223 827.66,-658.033 823.746,-653.145"/>
<polygon fill="black" stroke="black" points="826.21,-650.637 817.084,-645.255 820.861,-655.154 826.21,-650.637"/>
<text text-anchor="middle" x="892" y="-672.241" font-family="Times,serif" font-size="14.00">IMPLICIT PREP</text>
</g>
<!-- E2 -->
<g id="node3" class="node"><title>E2</title>
<ellipse fill="azure" stroke="black" cx="618.5" cy="-518.831" rx="27" ry="26.7407"/>
<text text-anchor="middle" x="618.5" y="-522.631" font-family="Times,serif" font-size="14.00">add</text>
<text text-anchor="middle" x="618.5" y="-507.631" font-family="Times,serif" font-size="14.00">2</text>
</g>
<!-- E1&#45;&gt;E2 -->
<g id="edge8" class="edge"><title>E1&#45;&gt;E2</title>
<path fill="none" stroke="black" d="M770.379,-606.272C765.142,-603.063 759.662,-599.748 754.5,-596.701 719.247,-575.891 678.287,-552.898 650.605,-537.53"/>
<polygon fill="black" stroke="black" points="652.196,-534.41 641.753,-532.625 648.803,-540.533 652.196,-534.41"/>
<text text-anchor="middle" x="771" y="-567.501" font-family="Times,serif" font-size="14.00">IMPLICIT PREP</text>
</g>
<!-- E3 -->
<g id="node4" class="node"><title>E3</title>
<ellipse fill="azure" stroke="black" cx="551.5" cy="-414.09" rx="33.8824" ry="26.7407"/>
<text text-anchor="middle" x="551.5" y="-417.89" font-family="Times,serif" font-size="14.00">bring</text>
<text text-anchor="middle" x="551.5" y="-402.89" font-family="Times,serif" font-size="14.00">3</text>
</g>
<!-- E2&#45;&gt;E3 -->
<g id="edge9" class="edge"><title>E2&#45;&gt;E3</title>
<path fill="none" stroke="black" d="M604.127,-495.79C594.848,-481.562 582.625,-462.819 572.295,-446.978"/>
<polygon fill="black" stroke="black" points="575.175,-444.988 566.781,-438.523 569.312,-448.811 575.175,-444.988"/>
<text text-anchor="middle" x="639.5" y="-462.76" font-family="Times,serif" font-size="14.00">IMPLICIT DOBJ</text>
</g>
<!-- E4 -->
<g id="node5" class="node"><title>E4</title>
<ellipse fill="azure" stroke="black" cx="490.5" cy="-309.35" rx="38.7821" ry="26.7407"/>
<text text-anchor="middle" x="490.5" y="-313.15" font-family="Times,serif" font-size="14.00">reduce</text>
<text text-anchor="middle" x="490.5" y="-298.15" font-family="Times,serif" font-size="14.00">4</text>
</g>
<!-- E3&#45;&gt;E4 -->
<g id="edge12" class="edge"><title>E3&#45;&gt;E4</title>
<path fill="none" stroke="black" d="M537.505,-389.52C529.408,-375.881 519.088,-358.501 510.183,-343.501"/>
<polygon fill="black" stroke="black" points="512.968,-341.336 504.853,-334.525 506.949,-344.91 512.968,-341.336"/>
<text text-anchor="middle" x="575" y="-358.02" font-family="Times,serif" font-size="14.00">IMPLICIT PREP</text>
</g>
<!-- E5 -->
<g id="node6" class="node"><title>E5</title>
<ellipse fill="azure" stroke="black" cx="400.5" cy="-204.61" rx="41.9398" ry="26.7407"/>
<text text-anchor="middle" x="400.5" y="-208.41" font-family="Times,serif" font-size="14.00">simmer</text>
<text text-anchor="middle" x="400.5" y="-193.41" font-family="Times,serif" font-size="14.00">5</text>
</g>
<!-- E4&#45;&gt;E5 -->
<g id="edge13" class="edge"><title>E4&#45;&gt;E5</title>
<path fill="none" stroke="black" d="M470.971,-286.057C458.176,-271.451 441.284,-252.167 427.246,-236.142"/>
<polygon fill="black" stroke="black" points="429.836,-233.787 420.614,-228.571 424.57,-238.399 429.836,-233.787"/>
<text text-anchor="middle" x="501.5" y="-253.28" font-family="Times,serif" font-size="14.00">IMPLICIT DOBJ</text>
</g>
<!-- E6 -->
<g id="node7" class="node"><title>E6</title>
<ellipse fill="azure" stroke="black" cx="235.5" cy="-99.8701" rx="27" ry="26.7407"/>
<text text-anchor="middle" x="235.5" y="-103.67" font-family="Times,serif" font-size="14.00">top</text>
<text text-anchor="middle" x="235.5" y="-88.6701" font-family="Times,serif" font-size="14.00">6</text>
</g>
<!-- E5&#45;&gt;E6 -->
<g id="edge15" class="edge"><title>E5&#45;&gt;E6</title>
<path fill="none" stroke="black" d="M371.001,-185.242C341.684,-166.987 296.88,-139.089 266.911,-120.428"/>
<polygon fill="black" stroke="black" points="268.458,-117.269 258.119,-114.954 264.758,-123.211 268.458,-117.269"/>
<text text-anchor="middle" x="379.5" y="-148.54" font-family="Times,serif" font-size="14.00">IMPLICIT DOBJ</text>
</g>
<!-- EOR -->
<g id="node17" class="node"><title>EOR</title>
<ellipse fill="plum" stroke="black" cx="235.5" cy="-18" rx="57.3905" ry="18"/>
<text text-anchor="middle" x="235.5" y="-14.3" font-family="Times,serif" font-size="14.00">Bon appetit!</text>
</g>
<!-- E6&#45;&gt;EOR -->
<g id="edge17" class="edge"><title>E6&#45;&gt;EOR</title>
<path fill="none" stroke="black" d="M235.5,-72.7176C235.5,-64.2726 235.5,-54.8903 235.5,-46.3604"/>
<polygon fill="black" stroke="black" points="239,-46.1464 235.5,-36.1464 232,-46.1464 239,-46.1464"/>
</g>
<!-- D0 -->
<g id="node8" class="node"><title>D0</title>
<polygon fill="peachpuff" stroke="black" points="727,-828.181 602,-828.181 602,-792.181 727,-792.181 727,-828.181"/>
<text text-anchor="middle" x="664.5" y="-806.481" font-family="Times,serif" font-size="14.00">DOBJ: beef, onion</text>
</g>
<!-- D0&#45;&gt;E0 -->
<g id="edge1" class="edge"><title>D0&#45;&gt;E0</title>
<path fill="none" stroke="black" d="M715.162,-792.079C743.071,-782.187 778.115,-768.989 808.5,-755.181 811.473,-753.83 814.517,-752.373 817.558,-750.863"/>
<polygon fill="black" stroke="black" points="819.297,-753.905 826.601,-746.23 816.105,-747.675 819.297,-753.905"/>
</g>
<!-- P0_0 -->
<g id="node9" class="node"><title>P0_0</title>
<polygon fill="white" stroke="black" points="967.5,-828.181 745.5,-828.181 745.5,-792.181 967.5,-792.181 967.5,-828.181"/>
<text text-anchor="middle" x="856.5" y="-806.481" font-family="Times,serif" font-size="14.00">LOCATION:in a medium stock pot</text>
</g>
<!-- P0_0&#45;&gt;E0 -->
<g id="edge2" class="edge"><title>P0_0&#45;&gt;E0</title>
<path fill="none" stroke="black" d="M856.5,-791.85C856.5,-784.117 856.5,-774.697 856.5,-765.539"/>
<polygon fill="black" stroke="black" points="860,-765.415 856.5,-755.415 853,-765.415 860,-765.415"/>
</g>
<!-- O0_0 -->
<g id="node10" class="node"><title>O0_0</title>
<polygon fill="white" stroke="black" points="1157.5,-828.181 985.5,-828.181 985.5,-792.181 1157.5,-792.181 1157.5,-828.181"/>
<text text-anchor="middle" x="1071.5" y="-806.481" font-family="Times,serif" font-size="14.00">OTHER: about 10 minutes</text>
</g>
<!-- O0_0&#45;&gt;E0 -->
<g id="edge3" class="edge"><title>O0_0&#45;&gt;E0</title>
<path fill="none" stroke="black" d="M1025.64,-792.145C988.508,-778.35 936.555,-759.05 900.054,-745.49"/>
<polygon fill="black" stroke="black" points="901.253,-742.202 890.66,-742.001 898.815,-748.764 901.253,-742.202"/>
</g>
<!-- O1_0_0 -->
<g id="node11" class="node"><title>O1_0_0</title>
<polygon fill="white" stroke="black" points="799,-746.311 674,-746.311 674,-710.311 799,-710.311 799,-746.311"/>
<text text-anchor="middle" x="736.5" y="-724.611" font-family="Times,serif" font-size="14.00">OTHER: if needed</text>
</g>
<!-- O1_0_0&#45;&gt;E1 -->
<g id="edge6" class="edge"><title>O1_0_0&#45;&gt;E1</title>
<path fill="none" stroke="black" d="M746.678,-709.882C755.106,-695.452 767.311,-674.553 777.531,-657.052"/>
<polygon fill="black" stroke="black" points="780.643,-658.663 782.664,-648.262 774.599,-655.132 780.643,-658.663"/>
</g>
<!-- D2_ing -->
<g id="node12" class="node"><title>D2_ing</title>
<polygon fill="peachpuff" stroke="black" points="745,-641.571 352,-641.571 352,-605.571 745,-605.571 745,-641.571"/>
<text text-anchor="middle" x="548.5" y="-619.871" font-family="Times,serif" font-size="14.00">DOBJ: water, taco seasoning, tomato sauce, beans, tomatoes, corn</text>
</g>
<!-- D2_ing&#45;&gt;E2 -->
<g id="edge7" class="edge"><title>D2_ing&#45;&gt;E2</title>
<path fill="none" stroke="black" d="M560.375,-605.142C570.632,-590.087 585.686,-567.992 597.904,-550.06"/>
<polygon fill="black" stroke="black" points="600.902,-551.876 603.64,-541.641 595.117,-547.934 600.902,-551.876"/>
</g>
<!-- O3_0_0 -->
<g id="node13" class="node"><title>O3_0_0</title>
<polygon fill="white" stroke="black" points="573.5,-536.831 463.5,-536.831 463.5,-500.831 573.5,-500.831 573.5,-536.831"/>
<text text-anchor="middle" x="518.5" y="-515.131" font-family="Times,serif" font-size="14.00">OTHER: to boil</text>
</g>
<!-- O3_0_0&#45;&gt;E3 -->
<g id="edge10" class="edge"><title>O3_0_0&#45;&gt;E3</title>
<path fill="none" stroke="black" d="M524.098,-500.402C528.525,-486.619 534.847,-466.935 540.304,-449.948"/>
<polygon fill="black" stroke="black" points="543.67,-450.913 543.396,-440.322 537.005,-448.773 543.67,-450.913"/>
</g>
<!-- D4_0 -->
<g id="node14" class="node"><title>D4_0</title>
<polygon fill="white" stroke="black" points="500,-432.09 417,-432.09 417,-396.09 500,-396.09 500,-432.09"/>
<text text-anchor="middle" x="458.5" y="-410.39" font-family="Times,serif" font-size="14.00">DOBJ: heat</text>
</g>
<!-- D4_0&#45;&gt;E4 -->
<g id="edge11" class="edge"><title>D4_0&#45;&gt;E4</title>
<path fill="none" stroke="black" d="M463.928,-395.662C468.191,-381.975 474.267,-362.468 479.533,-345.562"/>
<polygon fill="black" stroke="black" points="482.888,-346.56 482.52,-335.972 476.204,-344.478 482.888,-346.56"/>
</g>
<!-- O5_0_0 -->
<g id="node15" class="node"><title>O5_0_0</title>
<polygon fill="white" stroke="black" points="434,-327.35 285,-327.35 285,-291.35 434,-291.35 434,-327.35"/>
<text text-anchor="middle" x="359.5" y="-305.65" font-family="Times,serif" font-size="14.00">OTHER: for 5 minutes</text>
</g>
<!-- O5_0_0&#45;&gt;E5 -->
<g id="edge14" class="edge"><title>O5_0_0&#45;&gt;E5</title>
<path fill="none" stroke="black" d="M366.455,-290.922C371.955,-277.139 379.81,-257.455 386.59,-240.467"/>
<polygon fill="black" stroke="black" points="389.975,-241.427 390.431,-230.842 383.474,-238.832 389.975,-241.427"/>
</g>
<!-- P6_0_ing -->
<g id="node16" class="node"><title>P6_0_ing</title>
<polygon fill="peachpuff" stroke="black" points="341,-222.61 0,-222.61 0,-186.61 341,-186.61 341,-222.61"/>
<text text-anchor="middle" x="170.5" y="-200.91" font-family="Times,serif" font-size="14.00">COOBJECT: with sour cream, corn chips, cheese, olives</text>
</g>
<!-- P6_0_ing&#45;&gt;E6 -->
<g id="edge16" class="edge"><title>P6_0_ing&#45;&gt;E6</title>
<path fill="none" stroke="black" d="M181.526,-186.182C190.903,-171.361 204.596,-149.718 215.843,-131.94"/>
<polygon fill="black" stroke="black" points="219.077,-133.374 221.466,-123.052 213.162,-129.632 219.077,-133.374"/>
</g>
</g>
</svg>
