<?xml version="1.0" encoding="UTF-8" standalone="no"?>
<!DOCTYPE svg PUBLIC "-//W3C//DTD SVG 1.1//EN"
 "http://www.w3.org/Graphics/SVG/1.1/DTD/svg11.dtd">
<!-- Generated by graphviz version 2.38.0 (20140413.2041)
 -->
<!-- Title: recipe Pages: 1 -->
<svg width="1985pt" height="868pt"
 viewBox="0.00 0.00 1984.50 867.92" xmlns="http://www.w3.org/2000/svg" xmlns:xlink="http://www.w3.org/1999/xlink">
<g id="graph0" class="graph" transform="scale(1 1) rotate(0) translate(4 863.921)">
<title>recipe</title>
<polygon fill="white" stroke="none" points="-4,4 -4,-863.921 1980.5,-863.921 1980.5,4 -4,4"/>
<!-- E0 -->
<g id="node1" class="node"><title>E0</title>
<ellipse fill="azure" stroke="black" cx="678" cy="-760.051" rx="46.8387" ry="26.7407"/>
<text text-anchor="middle" x="678" y="-763.851" font-family="Times,serif" font-size="14.00">marinate</text>
<text text-anchor="middle" x="678" y="-748.851" font-family="Times,serif" font-size="14.00">0</text>
</g>
<!-- E2 -->
<g id="node3" class="node"><title>E2</title>
<ellipse fill="azure" stroke="black" cx="678" cy="-655.311" rx="41.9398" ry="26.7407"/>
<text text-anchor="middle" x="678" y="-659.111" font-family="Times,serif" font-size="14.00">remove</text>
<text text-anchor="middle" x="678" y="-644.111" font-family="Times,serif" font-size="14.00">2</text>
</g>
<!-- E0&#45;&gt;E2 -->
<g id="edge7" class="edge"><title>E0&#45;&gt;E2</title>
<path fill="none" stroke="black" d="M656.421,-736.073C651.752,-729.758 647.477,-722.593 645,-715.181 641.742,-705.429 644.595,-695.446 649.752,-686.536"/>
<polygon fill="black" stroke="black" points="652.806,-688.268 655.536,-678.031 647.018,-684.332 652.806,-688.268"/>
<text text-anchor="middle" x="667.5" y="-703.981" font-family="Times,serif" font-size="14.00">chicken</text>
</g>
<!-- E0&#45;&gt;E2 -->
<g id="edge8" class="edge"><title>E0&#45;&gt;E2</title>
<path fill="none" stroke="black" d="M686.973,-733.679C689.633,-723.342 691.486,-711.242 690,-700.181 689.638,-697.486 689.156,-694.722 688.594,-691.957"/>
<polygon fill="black" stroke="black" points="691.962,-690.992 686.27,-682.056 685.147,-692.591 691.962,-690.992"/>
<text text-anchor="middle" x="772.5" y="-703.981" font-family="Times,serif" font-size="14.00">COOBJECT:from marinade</text>
</g>
<!-- E1 -->
<g id="node2" class="node"><title>E1</title>
<ellipse fill="azure" stroke="black" cx="512" cy="-550.571" rx="41.9398" ry="26.7407"/>
<text text-anchor="middle" x="512" y="-554.371" font-family="Times,serif" font-size="14.00">preheat</text>
<text text-anchor="middle" x="512" y="-539.371" font-family="Times,serif" font-size="14.00">1</text>
</g>
<!-- E4 -->
<g id="node5" class="node"><title>E4</title>
<ellipse fill="azure" stroke="black" cx="595" cy="-445.831" rx="32.5538" ry="26.7407"/>
<text text-anchor="middle" x="595" y="-449.631" font-family="Times,serif" font-size="14.00">place</text>
<text text-anchor="middle" x="595" y="-434.631" font-family="Times,serif" font-size="14.00">4</text>
</g>
<!-- E1&#45;&gt;E4 -->
<g id="edge11" class="edge"><title>E1&#45;&gt;E4</title>
<path fill="none" stroke="black" d="M504.204,-523.973C502.383,-512.897 502.554,-500.302 509,-490.701 520.777,-473.158 534.164,-482.273 553,-472.701 555.737,-471.31 558.53,-469.801 561.311,-468.235"/>
<polygon fill="black" stroke="black" points="563.203,-471.184 570.066,-463.112 559.667,-465.142 563.203,-471.184"/>
<text text-anchor="middle" x="580.5" y="-494.501" font-family="Times,serif" font-size="14.00">LOCATION:on hot grill</text>
</g>
<!-- E3 -->
<g id="node4" class="node"><title>E3</title>
<ellipse fill="azure" stroke="black" cx="678" cy="-550.571" rx="33.4697" ry="26.7407"/>
<text text-anchor="middle" x="678" y="-554.371" font-family="Times,serif" font-size="14.00">drain</text>
<text text-anchor="middle" x="678" y="-539.371" font-family="Times,serif" font-size="14.00">3</text>
</g>
<!-- E2&#45;&gt;E3 -->
<g id="edge9" class="edge"><title>E2&#45;&gt;E3</title>
<path fill="none" stroke="black" d="M678,-628.385C678,-616.096 678,-601.207 678,-587.822"/>
<polygon fill="black" stroke="black" points="681.5,-587.488 678,-577.488 674.5,-587.488 681.5,-587.488"/>
<text text-anchor="middle" x="729" y="-599.241" font-family="Times,serif" font-size="14.00">IMPLICIT DOBJ</text>
</g>
<!-- E3&#45;&gt;E4 -->
<g id="edge10" class="edge"><title>E3&#45;&gt;E4</title>
<path fill="none" stroke="black" d="M671.991,-523.862C668.558,-512.892 663.42,-500.411 656,-490.701 649.027,-481.574 639.634,-473.537 630.312,-466.918"/>
<polygon fill="black" stroke="black" points="632.098,-463.902 621.841,-461.248 628.205,-469.719 632.098,-463.902"/>
<text text-anchor="middle" x="687.5" y="-494.501" font-family="Times,serif" font-size="14.00">chicken</text>
</g>
<!-- E5 -->
<g id="node6" class="node"><title>E5</title>
<ellipse fill="azure" stroke="black" cx="358" cy="-341.09" rx="31.6406" ry="26.7407"/>
<text text-anchor="middle" x="358" y="-344.89" font-family="Times,serif" font-size="14.00">cook</text>
<text text-anchor="middle" x="358" y="-329.89" font-family="Times,serif" font-size="14.00">5</text>
</g>
<!-- E4&#45;&gt;E5 -->
<g id="edge12" class="edge"><title>E4&#45;&gt;E5</title>
<path fill="none" stroke="black" d="M570.093,-428.494C564.568,-425.153 558.668,-421.795 553,-418.96 500.645,-392.774 437.088,-369.144 397.082,-355.198"/>
<polygon fill="black" stroke="black" points="398.034,-351.824 387.439,-351.866 395.747,-358.44 398.034,-351.824"/>
<text text-anchor="middle" x="563" y="-389.76" font-family="Times,serif" font-size="14.00">IMPLICIT DOBJ</text>
</g>
<!-- E6 -->
<g id="node7" class="node"><title>E6</title>
<ellipse fill="azure" stroke="black" cx="358" cy="-236.35" rx="41.9398" ry="26.7407"/>
<text text-anchor="middle" x="358" y="-240.15" font-family="Times,serif" font-size="14.00">remove</text>
<text text-anchor="middle" x="358" y="-225.15" font-family="Times,serif" font-size="14.00">6</text>
</g>
<!-- E5&#45;&gt;E6 -->
<g id="edge16" class="edge"><title>E5&#45;&gt;E6</title>
<path fill="none" stroke="black" d="M358,-314.165C358,-301.875 358,-286.987 358,-273.602"/>
<polygon fill="black" stroke="black" points="361.5,-273.268 358,-263.268 354.5,-273.268 361.5,-273.268"/>
<text text-anchor="middle" x="409" y="-285.02" font-family="Times,serif" font-size="14.00">IMPLICIT DOBJ</text>
</g>
<!-- E7 -->
<g id="node8" class="node"><title>E7</title>
<ellipse fill="azure" stroke="black" cx="358" cy="-131.61" rx="28.9828" ry="26.7407"/>
<text text-anchor="middle" x="358" y="-135.41" font-family="Times,serif" font-size="14.00">cool</text>
<text text-anchor="middle" x="358" y="-120.41" font-family="Times,serif" font-size="14.00">7</text>
</g>
<!-- E6&#45;&gt;E7 -->
<g id="edge17" class="edge"><title>E6&#45;&gt;E7</title>
<path fill="none" stroke="black" d="M358,-209.425C358,-197.135 358,-182.247 358,-168.862"/>
<polygon fill="black" stroke="black" points="361.5,-168.528 358,-158.528 354.5,-168.528 361.5,-168.528"/>
<text text-anchor="middle" x="409" y="-180.28" font-family="Times,serif" font-size="14.00">IMPLICIT DOBJ</text>
</g>
<!-- E8 -->
<g id="node9" class="node"><title>E8</title>
<ellipse fill="azure" stroke="black" cx="283" cy="-26.8701" rx="27" ry="26.7407"/>
<text text-anchor="middle" x="283" y="-30.6701" font-family="Times,serif" font-size="14.00">cut</text>
<text text-anchor="middle" x="283" y="-15.6701" font-family="Times,serif" font-size="14.00">8</text>
</g>
<!-- E7&#45;&gt;E8 -->
<g id="edge18" class="edge"><title>E7&#45;&gt;E8</title>
<path fill="none" stroke="black" d="M342.094,-108.822C331.183,-93.874 316.571,-73.8574 304.607,-57.4685"/>
<polygon fill="black" stroke="black" points="307.349,-55.2881 298.625,-49.2749 301.695,-59.4154 307.349,-55.2881"/>
<text text-anchor="middle" x="376" y="-75.5401" font-family="Times,serif" font-size="14.00">IMPLICIT DOBJ</text>
</g>
<!-- E9 -->
<g id="node10" class="node"><title>E9</title>
<ellipse fill="azure" stroke="black" cx="1788" cy="-760.051" rx="72.6644" ry="26.7407"/>
<text text-anchor="middle" x="1788" y="-763.851" font-family="Times,serif" font-size="14.00">whisk together</text>
<text text-anchor="middle" x="1788" y="-748.851" font-family="Times,serif" font-size="14.00">9</text>
</g>
<!-- E10 -->
<g id="node11" class="node"><title>E10</title>
<ellipse fill="azure" stroke="black" cx="1543" cy="-655.311" rx="34.7971" ry="26.7407"/>
<text text-anchor="middle" x="1543" y="-659.111" font-family="Times,serif" font-size="14.00">allow</text>
<text text-anchor="middle" x="1543" y="-644.111" font-family="Times,serif" font-size="14.00">10</text>
</g>
<!-- E9&#45;&gt;E10 -->
<g id="edge21" class="edge"><title>E9&#45;&gt;E10</title>
<path fill="none" stroke="black" d="M1741.05,-739.363C1695.06,-720.079 1625.77,-691.022 1582.52,-672.885"/>
<polygon fill="black" stroke="black" points="1583.75,-669.605 1573.18,-668.966 1581.05,-676.061 1583.75,-669.605"/>
<text text-anchor="middle" x="1750" y="-703.981" font-family="Times,serif" font-size="14.00">COOBJECT:in dressing</text>
</g>
<!-- E11 -->
<g id="node12" class="node"><title>E11</title>
<ellipse fill="azure" stroke="black" cx="1375" cy="-550.571" rx="41.9398" ry="26.7407"/>
<text text-anchor="middle" x="1375" y="-554.371" font-family="Times,serif" font-size="14.00">remove</text>
<text text-anchor="middle" x="1375" y="-539.371" font-family="Times,serif" font-size="14.00">11</text>
</g>
<!-- E10&#45;&gt;E11 -->
<g id="edge24" class="edge"><title>E10&#45;&gt;E11</title>
<path fill="none" stroke="black" d="M1516.38,-638.031C1488.56,-621.016 1444.64,-594.161 1413.14,-574.895"/>
<polygon fill="black" stroke="black" points="1414.96,-571.908 1404.61,-569.677 1411.31,-577.88 1414.96,-571.908"/>
<text text-anchor="middle" x="1520" y="-599.241" font-family="Times,serif" font-size="14.00">IMPLICIT DOBJ</text>
</g>
<!-- E13 -->
<g id="node14" class="node"><title>E13</title>
<ellipse fill="azure" stroke="black" cx="1263" cy="-445.831" rx="31.2258" ry="26.7407"/>
<text text-anchor="middle" x="1263" y="-449.631" font-family="Times,serif" font-size="14.00">pour</text>
<text text-anchor="middle" x="1263" y="-434.631" font-family="Times,serif" font-size="14.00">13</text>
</g>
<!-- E11&#45;&gt;E13 -->
<g id="edge28" class="edge"><title>E11&#45;&gt;E13</title>
<path fill="none" stroke="black" d="M1356.56,-526.43C1347.07,-515.124 1334.99,-501.634 1323,-490.701 1314.53,-482.979 1304.72,-475.335 1295.51,-468.644"/>
<polygon fill="black" stroke="black" points="1297.46,-465.735 1287.28,-462.792 1293.4,-471.44 1297.46,-465.735"/>
<text text-anchor="middle" x="1360.5" y="-494.501" font-family="Times,serif" font-size="14.00">dressing</text>
</g>
<!-- E12 -->
<g id="node13" class="node"><title>E12</title>
<ellipse fill="azure" stroke="black" cx="1151" cy="-550.571" rx="46.8387" ry="26.7407"/>
<text text-anchor="middle" x="1151" y="-554.371" font-family="Times,serif" font-size="14.00">combine</text>
<text text-anchor="middle" x="1151" y="-539.371" font-family="Times,serif" font-size="14.00">12</text>
</g>
<!-- E12&#45;&gt;E13 -->
<g id="edge29" class="edge"><title>E12&#45;&gt;E13</title>
<path fill="none" stroke="black" d="M1161.32,-524.32C1166.82,-513.055 1174.45,-500.209 1184,-490.701 1195.85,-478.894 1211.54,-469.312 1225.81,-462.149"/>
<polygon fill="black" stroke="black" points="1227.41,-465.261 1234.93,-457.792 1224.4,-458.945 1227.41,-465.261"/>
<text text-anchor="middle" x="1251.5" y="-494.501" font-family="Times,serif" font-size="14.00">COOBJECT:over salad</text>
</g>
<!-- E14 -->
<g id="node15" class="node"><title>E14</title>
<ellipse fill="azure" stroke="black" cx="1263" cy="-341.09" rx="27" ry="26.7407"/>
<text text-anchor="middle" x="1263" y="-344.89" font-family="Times,serif" font-size="14.00">toss</text>
<text text-anchor="middle" x="1263" y="-329.89" font-family="Times,serif" font-size="14.00">14</text>
</g>
<!-- E13&#45;&gt;E14 -->
<g id="edge30" class="edge"><title>E13&#45;&gt;E14</title>
<path fill="none" stroke="black" d="M1263,-418.905C1263,-406.615 1263,-391.727 1263,-378.342"/>
<polygon fill="black" stroke="black" points="1266.5,-378.008 1263,-368.008 1259.5,-378.008 1266.5,-378.008"/>
<text text-anchor="middle" x="1314" y="-389.76" font-family="Times,serif" font-size="14.00">IMPLICIT DOBJ</text>
</g>
<!-- E15 -->
<g id="node16" class="node"><title>E15</title>
<ellipse fill="azure" stroke="black" cx="1263" cy="-236.35" rx="32.5538" ry="26.7407"/>
<text text-anchor="middle" x="1263" y="-240.15" font-family="Times,serif" font-size="14.00">serve</text>
<text text-anchor="middle" x="1263" y="-225.15" font-family="Times,serif" font-size="14.00">15</text>
</g>
<!-- E14&#45;&gt;E15 -->
<g id="edge31" class="edge"><title>E14&#45;&gt;E15</title>
<path fill="none" stroke="black" d="M1263,-314.165C1263,-301.875 1263,-286.987 1263,-273.602"/>
<polygon fill="black" stroke="black" points="1266.5,-273.268 1263,-263.268 1259.5,-273.268 1266.5,-273.268"/>
<text text-anchor="middle" x="1314" y="-285.02" font-family="Times,serif" font-size="14.00">IMPLICIT DOBJ</text>
</g>
<!-- EOR -->
<g id="node33" class="node"><title>EOR</title>
<ellipse fill="plum" stroke="black" cx="1263" cy="-131.61" rx="57.3905" ry="18"/>
<text text-anchor="middle" x="1263" y="-127.91" font-family="Times,serif" font-size="14.00">Bon appetit!</text>
</g>
<!-- E15&#45;&gt;EOR -->
<g id="edge32" class="edge"><title>E15&#45;&gt;EOR</title>
<path fill="none" stroke="black" d="M1263,-209.425C1263,-194.405 1263,-175.502 1263,-160.206"/>
<polygon fill="black" stroke="black" points="1266.5,-159.814 1263,-149.814 1259.5,-159.814 1266.5,-159.814"/>
</g>
<!-- D9 -->
<g id="node17" class="node"><title>D9</title>
<polygon fill="peachpuff" stroke="black" points="1976.5,-859.921 1599.5,-859.921 1599.5,-823.921 1976.5,-823.921 1976.5,-859.921"/>
<text text-anchor="middle" x="1788" y="-838.221" font-family="Times,serif" font-size="14.00">DOBJ: vegetable oil, garlic cloves, the lemon juice, pepper, salt</text>
</g>
<!-- D9&#45;&gt;E9 -->
<g id="edge1" class="edge"><title>D9&#45;&gt;E9</title>
<path fill="none" stroke="black" d="M1788,-823.59C1788,-815.857 1788,-806.437 1788,-797.279"/>
<polygon fill="black" stroke="black" points="1791.5,-797.155 1788,-787.155 1784.5,-797.155 1791.5,-797.155"/>
</g>
<!-- D0 -->
<g id="node18" class="node"><title>D0</title>
<polygon fill="peachpuff" stroke="black" points="432,-859.921 328,-859.921 328,-823.921 432,-823.921 432,-859.921"/>
<text text-anchor="middle" x="380" y="-838.221" font-family="Times,serif" font-size="14.00">DOBJ: chicken</text>
</g>
<!-- D0&#45;&gt;E0 -->
<g id="edge2" class="edge"><title>D0&#45;&gt;E0</title>
<path fill="none" stroke="black" d="M432.232,-826.318C435.197,-825.504 438.136,-824.7 441,-823.921 504.66,-806.607 578.099,-787.216 626.147,-774.607"/>
<polygon fill="black" stroke="black" points="627.217,-777.945 636.002,-772.022 625.442,-771.174 627.217,-777.945"/>
</g>
<!-- P0_0 -->
<g id="node19" class="node"><title>P0_0</title>
<polygon fill="peachpuff" stroke="black" points="905.5,-859.921 450.5,-859.921 450.5,-823.921 905.5,-823.921 905.5,-859.921"/>
<text text-anchor="middle" x="678" y="-838.221" font-family="Times,serif" font-size="14.00">COOBJECT:in soy sauce, lemon&#45;lime carbonated beverage, the orange juice</text>
</g>
<!-- P0_0&#45;&gt;E0 -->
<g id="edge3" class="edge"><title>P0_0&#45;&gt;E0</title>
<path fill="none" stroke="black" d="M678,-823.59C678,-815.857 678,-806.437 678,-797.279"/>
<polygon fill="black" stroke="black" points="681.5,-797.155 678,-787.155 674.5,-797.155 681.5,-797.155"/>
</g>
<!-- O0_0 -->
<g id="node20" class="node"><title>O0_0</title>
<polygon fill="white" stroke="black" points="1168.5,-859.921 923.5,-859.921 923.5,-823.921 1168.5,-823.921 1168.5,-859.921"/>
<text text-anchor="middle" x="1046" y="-838.221" font-family="Times,serif" font-size="14.00">OTHER: for several hours or overnight</text>
</g>
<!-- O0_0&#45;&gt;E0 -->
<g id="edge4" class="edge"><title>O0_0&#45;&gt;E0</title>
<path fill="none" stroke="black" d="M967.506,-823.885C896.321,-808.435 793.316,-786.079 731.288,-772.616"/>
<polygon fill="black" stroke="black" points="731.837,-769.154 721.322,-770.453 730.352,-775.995 731.837,-769.154"/>
</g>
<!-- D1 -->
<g id="node21" class="node"><title>D1</title>
<polygon fill="white" stroke="black" points="402,-673.311 318,-673.311 318,-637.311 402,-637.311 402,-673.311"/>
<text text-anchor="middle" x="360" y="-651.611" font-family="Times,serif" font-size="14.00">DOBJ: grill</text>
</g>
<!-- D1&#45;&gt;E1 -->
<g id="edge5" class="edge"><title>D1&#45;&gt;E1</title>
<path fill="none" stroke="black" d="M385.441,-637.114C410.103,-620.445 447.764,-594.989 475.596,-576.177"/>
<polygon fill="black" stroke="black" points="477.567,-579.069 483.892,-570.569 473.647,-573.269 477.567,-579.069"/>
</g>
<!-- O1_0 -->
<g id="node22" class="node"><title>O1_0</title>
<polygon fill="white" stroke="black" points="613.5,-673.311 420.5,-673.311 420.5,-637.311 613.5,-637.311 613.5,-673.311"/>
<text text-anchor="middle" x="517" y="-651.611" font-family="Times,serif" font-size="14.00">OTHER: to medium&#45;high heat</text>
</g>
<!-- O1_0&#45;&gt;E1 -->
<g id="edge6" class="edge"><title>O1_0&#45;&gt;E1</title>
<path fill="none" stroke="black" d="M516.152,-636.882C515.497,-623.418 514.567,-604.322 513.754,-587.61"/>
<polygon fill="black" stroke="black" points="517.248,-587.401 513.266,-577.583 510.256,-587.742 517.248,-587.401"/>
</g>
<!-- O5_0_0 -->
<g id="node23" class="node"><title>O5_0_0</title>
<polygon fill="white" stroke="black" points="176,-463.831 0,-463.831 0,-427.831 176,-427.831 176,-463.831"/>
<text text-anchor="middle" x="88" y="-442.131" font-family="Times,serif" font-size="14.00">OTHER: for 6 to 8 minutes</text>
</g>
<!-- O5_0_0&#45;&gt;E5 -->
<g id="edge13" class="edge"><title>O5_0_0&#45;&gt;E5</title>
<path fill="none" stroke="black" d="M132.888,-427.75C185.075,-407.892 270.326,-375.452 319.579,-356.71"/>
<polygon fill="black" stroke="black" points="321.122,-359.868 329.223,-353.041 318.632,-353.326 321.122,-359.868"/>
</g>
<!-- O5_1_0 -->
<g id="node24" class="node"><title>O5_1_0</title>
<polygon fill="white" stroke="black" points="337.5,-463.831 194.5,-463.831 194.5,-427.831 337.5,-427.831 337.5,-463.831"/>
<text text-anchor="middle" x="266" y="-442.131" font-family="Times,serif" font-size="14.00">OTHER: on each side</text>
</g>
<!-- O5_1_0&#45;&gt;E5 -->
<g id="edge14" class="edge"><title>O5_1_0&#45;&gt;E5</title>
<path fill="none" stroke="black" d="M281.607,-427.402C295.512,-411.873 316.126,-388.853 332.436,-370.639"/>
<polygon fill="black" stroke="black" points="335.067,-372.947 339.131,-363.162 329.852,-368.277 335.067,-372.947"/>
</g>
<!-- O5_2_0 -->
<g id="node25" class="node"><title>O5_2_0</title>
<polygon fill="white" stroke="black" points="544.5,-463.831 355.5,-463.831 355.5,-427.831 544.5,-427.831 544.5,-463.831"/>
<text text-anchor="middle" x="450" y="-442.131" font-family="Times,serif" font-size="14.00">OTHER: until juices run clear</text>
</g>
<!-- O5_2_0&#45;&gt;E5 -->
<g id="edge15" class="edge"><title>O5_2_0&#45;&gt;E5</title>
<path fill="none" stroke="black" d="M434.393,-427.402C420.488,-411.873 399.874,-388.853 383.564,-370.639"/>
<polygon fill="black" stroke="black" points="386.148,-368.277 376.869,-363.162 380.933,-372.947 386.148,-368.277"/>
</g>
<!-- O8_0_0 -->
<g id="node26" class="node"><title>O8_0_0</title>
<polygon fill="white" stroke="black" points="311.5,-149.61 182.5,-149.61 182.5,-113.61 311.5,-113.61 311.5,-149.61"/>
<text text-anchor="middle" x="247" y="-127.91" font-family="Times,serif" font-size="14.00">OTHER: into strips</text>
</g>
<!-- O8_0_0&#45;&gt;E8 -->
<g id="edge19" class="edge"><title>O8_0_0&#45;&gt;E8</title>
<path fill="none" stroke="black" d="M253.107,-113.182C257.97,-99.303 264.929,-79.4414 270.91,-62.3738"/>
<polygon fill="black" stroke="black" points="274.291,-63.3088 274.295,-52.714 267.685,-60.9939 274.291,-63.3088"/>
</g>
<!-- D10_0 -->
<g id="node27" class="node"><title>D10_0</title>
<polygon fill="white" stroke="black" points="1399.5,-778.051 1268.5,-778.051 1268.5,-742.051 1399.5,-742.051 1399.5,-778.051"/>
<text text-anchor="middle" x="1334" y="-756.351" font-family="Times,serif" font-size="14.00">DOBJ: garlic cloves</text>
</g>
<!-- D10_0&#45;&gt;E10 -->
<g id="edge20" class="edge"><title>D10_0&#45;&gt;E10</title>
<path fill="none" stroke="black" d="M1374.17,-741.908C1408.16,-727.057 1457.91,-704.502 1500,-682.181 1502.53,-680.841 1505.11,-679.42 1507.7,-677.961"/>
<polygon fill="black" stroke="black" points="1509.52,-680.95 1516.42,-672.911 1506.01,-674.892 1509.52,-680.95"/>
</g>
<!-- O10_0_0 -->
<g id="node28" class="node"><title>O10_0_0</title>
<polygon fill="white" stroke="black" points="1518,-778.051 1418,-778.051 1418,-742.051 1518,-742.051 1518,-778.051"/>
<text text-anchor="middle" x="1468" y="-756.351" font-family="Times,serif" font-size="14.00">OTHER: to sit</text>
</g>
<!-- O10_0_0&#45;&gt;E10 -->
<g id="edge22" class="edge"><title>O10_0_0&#45;&gt;E10</title>
<path fill="none" stroke="black" d="M1480.72,-741.622C1491.5,-726.863 1507.21,-705.336 1520.16,-687.6"/>
<polygon fill="black" stroke="black" points="1523.19,-689.384 1526.26,-679.244 1517.54,-685.257 1523.19,-689.384"/>
</g>
<!-- O10_1_0 -->
<g id="node29" class="node"><title>O10_1_0</title>
<polygon fill="white" stroke="black" points="1697.5,-778.051 1536.5,-778.051 1536.5,-742.051 1697.5,-742.051 1697.5,-778.051"/>
<text text-anchor="middle" x="1617" y="-756.351" font-family="Times,serif" font-size="14.00">OTHER: for a few hours</text>
</g>
<!-- O10_1_0&#45;&gt;E10 -->
<g id="edge23" class="edge"><title>O10_1_0&#45;&gt;E10</title>
<path fill="none" stroke="black" d="M1604.45,-741.622C1593.82,-726.863 1578.31,-705.336 1565.54,-687.6"/>
<polygon fill="black" stroke="black" points="1568.2,-685.313 1559.52,-679.244 1562.52,-689.404 1568.2,-685.313"/>
</g>
<!-- O11_0_0 -->
<g id="node30" class="node"><title>O11_0_0</title>
<polygon fill="white" stroke="black" points="1490.5,-673.311 1259.5,-673.311 1259.5,-637.311 1490.5,-637.311 1490.5,-673.311"/>
<text text-anchor="middle" x="1375" y="-651.611" font-family="Times,serif" font-size="14.00">OTHER: before pouring on the salad</text>
</g>
<!-- O11_0_0&#45;&gt;E11 -->
<g id="edge25" class="edge"><title>O11_0_0&#45;&gt;E11</title>
<path fill="none" stroke="black" d="M1375,-636.882C1375,-623.418 1375,-604.322 1375,-587.61"/>
<polygon fill="black" stroke="black" points="1378.5,-587.583 1375,-577.583 1371.5,-587.583 1378.5,-587.583"/>
</g>
<!-- D12_ing -->
<g id="node31" class="node"><title>D12_ing</title>
<polygon fill="peachpuff" stroke="black" points="1042.5,-673.311 737.5,-673.311 737.5,-637.311 1042.5,-637.311 1042.5,-673.311"/>
<text text-anchor="middle" x="890" y="-651.611" font-family="Times,serif" font-size="14.00">DOBJ: the lettuce, parmesan, mozzarella, tomatoes</text>
</g>
<!-- D12_ing&#45;&gt;E12 -->
<g id="edge26" class="edge"><title>D12_ing&#45;&gt;E12</title>
<path fill="none" stroke="black" d="M933.392,-637.23C980.411,-618.721 1055.2,-589.283 1103.69,-570.193"/>
<polygon fill="black" stroke="black" points="1105,-573.439 1113.03,-566.519 1102.44,-566.925 1105,-573.439"/>
</g>
<!-- P12_0_0 -->
<g id="node32" class="node"><title>P12_0_0</title>
<polygon fill="white" stroke="black" points="1241.5,-673.311 1060.5,-673.311 1060.5,-637.311 1241.5,-637.311 1241.5,-673.311"/>
<text text-anchor="middle" x="1151" y="-651.611" font-family="Times,serif" font-size="14.00">LOCATION:in a salad bowl</text>
</g>
<!-- P12_0_0&#45;&gt;E12 -->
<g id="edge27" class="edge"><title>P12_0_0&#45;&gt;E12</title>
<path fill="none" stroke="black" d="M1151,-636.882C1151,-623.418 1151,-604.322 1151,-587.61"/>
<polygon fill="black" stroke="black" points="1154.5,-587.583 1151,-577.583 1147.5,-587.583 1154.5,-587.583"/>
</g>
</g>
</svg>
