<?xml version="1.0" encoding="UTF-8" standalone="no"?>
<!DOCTYPE svg PUBLIC "-//W3C//DTD SVG 1.1//EN"
 "http://www.w3.org/Graphics/SVG/1.1/DTD/svg11.dtd">
<!-- Generated by graphviz version 2.38.0 (20140413.2041)
 -->
<!-- Title: recipe Pages: 1 -->
<svg width="1718pt" height="941pt"
 viewBox="0.00 0.00 1718.00 940.92" xmlns="http://www.w3.org/2000/svg" xmlns:xlink="http://www.w3.org/1999/xlink">
<g id="graph0" class="graph" transform="scale(1 1) rotate(0) translate(4 936.921)">
<title>recipe</title>
<polygon fill="white" stroke="none" points="-4,4 -4,-936.921 1714,-936.921 1714,4 -4,4"/>
<!-- E0 -->
<g id="node1" class="node"><title>E0</title>
<ellipse fill="azure" stroke="black" cx="1373.5" cy="-518.831" rx="28.0702" ry="26.7407"/>
<text text-anchor="middle" x="1373.5" y="-522.631" font-family="Times,serif" font-size="14.00">heat</text>
<text text-anchor="middle" x="1373.5" y="-507.631" font-family="Times,serif" font-size="14.00">0</text>
</g>
<!-- E1 -->
<g id="node2" class="node"><title>E1</title>
<ellipse fill="azure" stroke="black" cx="1254.5" cy="-414.09" rx="27" ry="26.7407"/>
<text text-anchor="middle" x="1254.5" y="-417.89" font-family="Times,serif" font-size="14.00">slip</text>
<text text-anchor="middle" x="1254.5" y="-402.89" font-family="Times,serif" font-size="14.00">1</text>
</g>
<!-- E0&#45;&gt;E1 -->
<g id="edge9" class="edge"><title>E0&#45;&gt;E1</title>
<path fill="none" stroke="black" d="M1353.04,-500.169C1333.51,-483.307 1303.93,-457.769 1282.28,-439.072"/>
<polygon fill="black" stroke="black" points="1284.55,-436.407 1274.69,-432.522 1279.97,-441.706 1284.55,-436.407"/>
<text text-anchor="middle" x="1402.5" y="-462.76" font-family="Times,serif" font-size="14.00">COOBJECT:into the hot oil</text>
</g>
<!-- E2 -->
<g id="node3" class="node"><title>E2</title>
<ellipse fill="azure" stroke="black" cx="1107.5" cy="-309.35" rx="41.9398" ry="26.7407"/>
<text text-anchor="middle" x="1107.5" y="-313.15" font-family="Times,serif" font-size="14.00">remove</text>
<text text-anchor="middle" x="1107.5" y="-298.15" font-family="Times,serif" font-size="14.00">2</text>
</g>
<!-- E1&#45;&gt;E2 -->
<g id="edge11" class="edge"><title>E1&#45;&gt;E2</title>
<path fill="none" stroke="black" d="M1232.81,-397.931C1209.29,-381.491 1171.36,-354.983 1143.39,-335.431"/>
<polygon fill="black" stroke="black" points="1145.25,-332.465 1135.05,-329.605 1141.24,-338.203 1145.25,-332.465"/>
<text text-anchor="middle" x="1241.5" y="-358.02" font-family="Times,serif" font-size="14.00">IMPLICIT DOBJ</text>
</g>
<!-- E3 -->
<g id="node4" class="node"><title>E3</title>
<ellipse fill="azure" stroke="black" cx="933.5" cy="-204.61" rx="36.125" ry="26.7407"/>
<text text-anchor="middle" x="933.5" y="-208.41" font-family="Times,serif" font-size="14.00">repeat</text>
<text text-anchor="middle" x="933.5" y="-193.41" font-family="Times,serif" font-size="14.00">3</text>
</g>
<!-- E2&#45;&gt;E3 -->
<g id="edge15" class="edge"><title>E2&#45;&gt;E3</title>
<path fill="none" stroke="black" d="M1077.19,-290.454C1047.42,-272.873 1001.95,-246.025 970.154,-227.253"/>
<polygon fill="black" stroke="black" points="971.557,-224.017 961.167,-221.946 967.998,-230.045 971.557,-224.017"/>
<text text-anchor="middle" x="1088.5" y="-253.28" font-family="Times,serif" font-size="14.00">IMPLICIT OTHER</text>
</g>
<!-- E12 -->
<g id="node13" class="node"><title>E12</title>
<ellipse fill="azure" stroke="black" cx="850.5" cy="-99.8701" rx="38.3684" ry="26.7407"/>
<text text-anchor="middle" x="850.5" y="-103.67" font-family="Times,serif" font-size="14.00">spread</text>
<text text-anchor="middle" x="850.5" y="-88.6701" font-family="Times,serif" font-size="14.00">12</text>
</g>
<!-- E3&#45;&gt;E12 -->
<g id="edge29" class="edge"><title>E3&#45;&gt;E12</title>
<path fill="none" stroke="black" d="M915.49,-181.317C903.716,-166.743 888.181,-147.512 875.251,-131.508"/>
<polygon fill="black" stroke="black" points="877.768,-129.054 868.761,-123.474 872.323,-133.453 877.768,-129.054"/>
<text text-anchor="middle" x="978.5" y="-148.54" font-family="Times,serif" font-size="14.00">COOBJECT:on the tostadas</text>
</g>
<!-- E4 -->
<g id="node5" class="node"><title>E4</title>
<ellipse fill="azure" stroke="black" cx="139.5" cy="-833.051" rx="32.5538" ry="26.7407"/>
<text text-anchor="middle" x="139.5" y="-836.851" font-family="Times,serif" font-size="14.00">place</text>
<text text-anchor="middle" x="139.5" y="-821.851" font-family="Times,serif" font-size="14.00">4</text>
</g>
<!-- E5 -->
<g id="node6" class="node"><title>E5</title>
<ellipse fill="azure" stroke="black" cx="199.5" cy="-728.311" rx="43.6818" ry="26.7407"/>
<text text-anchor="middle" x="199.5" y="-732.111" font-family="Times,serif" font-size="14.00">separate</text>
<text text-anchor="middle" x="199.5" y="-717.111" font-family="Times,serif" font-size="14.00">5</text>
</g>
<!-- E4&#45;&gt;E5 -->
<g id="edge16" class="edge"><title>E4&#45;&gt;E5</title>
<path fill="none" stroke="black" d="M133.92,-806.504C132.825,-795.687 133.324,-783.278 138.5,-773.181 142.826,-764.741 149.615,-757.557 157.119,-751.595"/>
<polygon fill="black" stroke="black" points="159.378,-754.282 165.459,-745.605 155.295,-748.596 159.378,-754.282"/>
<text text-anchor="middle" x="189.5" y="-776.981" font-family="Times,serif" font-size="14.00">IMPLICIT DOBJ</text>
</g>
<!-- E6 -->
<g id="node7" class="node"><title>E6</title>
<ellipse fill="azure" stroke="black" cx="318.5" cy="-623.571" rx="35.2113" ry="26.7407"/>
<text text-anchor="middle" x="318.5" y="-627.371" font-family="Times,serif" font-size="14.00">stir in</text>
<text text-anchor="middle" x="318.5" y="-612.371" font-family="Times,serif" font-size="14.00">6</text>
</g>
<!-- E5&#45;&gt;E6 -->
<g id="edge19" class="edge"><title>E5&#45;&gt;E6</title>
<path fill="none" stroke="black" d="M204.456,-701.452C207.713,-690.194 213.005,-677.526 221.5,-668.441 235.904,-653.036 256.74,-642.648 275.411,-635.865"/>
<polygon fill="black" stroke="black" points="276.585,-639.163 284.933,-632.639 274.338,-632.533 276.585,-639.163"/>
<text text-anchor="middle" x="272" y="-672.241" font-family="Times,serif" font-size="14.00">IMPLICIT PREP</text>
</g>
<!-- E8 -->
<g id="node9" class="node"><title>E8</title>
<ellipse fill="azure" stroke="black" cx="449.5" cy="-518.831" rx="27" ry="26.7407"/>
<text text-anchor="middle" x="449.5" y="-522.631" font-family="Times,serif" font-size="14.00">stir</text>
<text text-anchor="middle" x="449.5" y="-507.631" font-family="Times,serif" font-size="14.00">8</text>
</g>
<!-- E6&#45;&gt;E8 -->
<g id="edge21" class="edge"><title>E6&#45;&gt;E8</title>
<path fill="none" stroke="black" d="M310.486,-597.339C308.497,-586.077 308.593,-573.229 315.5,-563.701 337.378,-533.518 380.644,-523.72 412.112,-520.736"/>
<polygon fill="black" stroke="black" points="412.576,-524.211 422.283,-519.965 412.047,-517.231 412.576,-524.211"/>
<text text-anchor="middle" x="405.5" y="-567.501" font-family="Times,serif" font-size="14.00">COOBJECT:into chicken salad</text>
</g>
<!-- E7 -->
<g id="node8" class="node"><title>E7</title>
<ellipse fill="azure" stroke="black" cx="543.5" cy="-623.571" rx="28.0702" ry="26.7407"/>
<text text-anchor="middle" x="543.5" y="-627.371" font-family="Times,serif" font-size="14.00">dice</text>
<text text-anchor="middle" x="543.5" y="-612.371" font-family="Times,serif" font-size="14.00">7</text>
</g>
<!-- E7&#45;&gt;E8 -->
<g id="edge20" class="edge"><title>E7&#45;&gt;E8</title>
<path fill="none" stroke="black" d="M528.641,-600.463C520.556,-589.037 510.068,-575.131 499.5,-563.701 492.937,-556.602 485.319,-549.454 478.038,-543.049"/>
<polygon fill="black" stroke="black" points="480.2,-540.292 470.336,-536.427 475.637,-545.601 480.2,-540.292"/>
<text text-anchor="middle" x="526" y="-567.501" font-family="Times,serif" font-size="14.00">them</text>
</g>
<!-- E9 -->
<g id="node10" class="node"><title>E9</title>
<ellipse fill="azure" stroke="black" cx="507.5" cy="-414.09" rx="41.9398" ry="26.7407"/>
<text text-anchor="middle" x="507.5" y="-417.89" font-family="Times,serif" font-size="14.00">pour in</text>
<text text-anchor="middle" x="507.5" y="-402.89" font-family="Times,serif" font-size="14.00">9</text>
</g>
<!-- E7&#45;&gt;E9 -->
<g id="edge22" class="edge"><title>E7&#45;&gt;E9</title>
<path fill="none" stroke="black" d="M551.126,-597.602C559.835,-564.503 570.579,-504.925 551.5,-458.96 549.058,-453.076 545.4,-447.572 541.218,-442.585"/>
<polygon fill="black" stroke="black" points="543.699,-440.114 534.314,-435.196 538.584,-444.892 543.699,-440.114"/>
<text text-anchor="middle" x="641" y="-515.131" font-family="Times,serif" font-size="14.00">1 tablespoon jalapeno juice</text>
</g>
<!-- E8&#45;&gt;E9 -->
<g id="edge23" class="edge"><title>E8&#45;&gt;E9</title>
<path fill="none" stroke="black" d="M445.176,-492.03C444.554,-481.288 445.449,-469.006 450.5,-458.96 454.492,-451.022 460.668,-444.107 467.506,-438.26"/>
<polygon fill="black" stroke="black" points="469.976,-440.775 475.747,-431.89 465.694,-435.237 469.976,-440.775"/>
<text text-anchor="middle" x="501" y="-462.76" font-family="Times,serif" font-size="14.00">IMPLICIT PREP</text>
</g>
<!-- E10 -->
<g id="node11" class="node"><title>E10</title>
<ellipse fill="azure" stroke="black" cx="635.5" cy="-309.35" rx="38.3684" ry="26.7407"/>
<text text-anchor="middle" x="635.5" y="-313.15" font-family="Times,serif" font-size="14.00">season</text>
<text text-anchor="middle" x="635.5" y="-298.15" font-family="Times,serif" font-size="14.00">10</text>
</g>
<!-- E9&#45;&gt;E10 -->
<g id="edge24" class="edge"><title>E9&#45;&gt;E10</title>
<path fill="none" stroke="black" d="M518.295,-387.851C524.149,-376.453 532.292,-363.496 542.5,-354.22 556.416,-341.575 574.624,-331.909 591.237,-324.911"/>
<polygon fill="black" stroke="black" points="592.8,-328.056 600.789,-321.097 590.204,-321.555 592.8,-328.056"/>
<text text-anchor="middle" x="593.5" y="-358.02" font-family="Times,serif" font-size="14.00">IMPLICIT DOBJ</text>
</g>
<!-- E11 -->
<g id="node12" class="node"><title>E11</title>
<ellipse fill="azure" stroke="black" cx="752.5" cy="-204.61" rx="27" ry="26.7407"/>
<text text-anchor="middle" x="752.5" y="-208.41" font-family="Times,serif" font-size="14.00">stir</text>
<text text-anchor="middle" x="752.5" y="-193.41" font-family="Times,serif" font-size="14.00">11</text>
</g>
<!-- E10&#45;&gt;E11 -->
<g id="edge26" class="edge"><title>E10&#45;&gt;E11</title>
<path fill="none" stroke="black" d="M635.034,-282.306C636.087,-271.144 639.098,-258.604 646.5,-249.48 663.551,-228.462 692.368,-217.396 715.655,-211.639"/>
<polygon fill="black" stroke="black" points="716.581,-215.019 725.574,-209.417 715.05,-208.188 716.581,-215.019"/>
<text text-anchor="middle" x="697.5" y="-253.28" font-family="Times,serif" font-size="14.00">IMPLICIT DOBJ</text>
</g>
<!-- E11&#45;&gt;E12 -->
<g id="edge28" class="edge"><title>E11&#45;&gt;E12</title>
<path fill="none" stroke="black" d="M762.767,-179.601C768.394,-168.215 776.137,-154.913 785.5,-144.74 793.195,-136.381 802.78,-128.809 812.206,-122.401"/>
<polygon fill="black" stroke="black" points="814.273,-125.231 820.758,-116.853 810.464,-119.359 814.273,-125.231"/>
<text text-anchor="middle" x="834.5" y="-148.54" font-family="Times,serif" font-size="14.00">the chicken salad</text>
</g>
<!-- EOR -->
<g id="node30" class="node"><title>EOR</title>
<ellipse fill="plum" stroke="black" cx="850.5" cy="-18" rx="57.3905" ry="18"/>
<text text-anchor="middle" x="850.5" y="-14.3" font-family="Times,serif" font-size="14.00">Bon appetit!</text>
</g>
<!-- E12&#45;&gt;EOR -->
<g id="edge30" class="edge"><title>E12&#45;&gt;EOR</title>
<path fill="none" stroke="black" d="M850.5,-72.7176C850.5,-64.2726 850.5,-54.8903 850.5,-46.3604"/>
<polygon fill="black" stroke="black" points="854,-46.1464 850.5,-36.1464 847,-46.1464 854,-46.1464"/>
</g>
<!-- D7 -->
<g id="node14" class="node"><title>D7</title>
<polygon fill="peachpuff" stroke="black" points="578.5,-746.311 444.5,-746.311 444.5,-710.311 578.5,-710.311 578.5,-746.311"/>
<text text-anchor="middle" x="511.5" y="-724.611" font-family="Times,serif" font-size="14.00">DOBJ: the jalapenos</text>
</g>
<!-- D7&#45;&gt;E7 -->
<g id="edge1" class="edge"><title>D7&#45;&gt;E7</title>
<path fill="none" stroke="black" d="M516.928,-709.882C521.221,-696.099 527.352,-676.416 532.643,-659.428"/>
<polygon fill="black" stroke="black" points="536.009,-660.391 535.641,-649.802 529.326,-658.309 536.009,-660.391"/>
</g>
<!-- O7_0 -->
<g id="node15" class="node"><title>O7_0</title>
<polygon fill="white" stroke="black" points="780.5,-746.311 596.5,-746.311 596.5,-710.311 780.5,-710.311 780.5,-746.311"/>
<text text-anchor="middle" x="688.5" y="-724.611" font-family="Times,serif" font-size="14.00">OTHER: reserving the liquid</text>
</g>
<!-- O7_0&#45;&gt;E7 -->
<g id="edge2" class="edge"><title>O7_0&#45;&gt;E7</title>
<path fill="none" stroke="black" d="M664.23,-710.114C639.496,-692.589 601.055,-665.351 574.215,-646.334"/>
<polygon fill="black" stroke="black" points="576.123,-643.396 565.94,-640.471 572.076,-649.108 576.123,-643.396"/>
</g>
<!-- D0 -->
<g id="node16" class="node"><title>D0</title>
<polygon fill="peachpuff" stroke="black" points="1244,-641.571 1169,-641.571 1169,-605.571 1244,-605.571 1244,-641.571"/>
<text text-anchor="middle" x="1206.5" y="-619.871" font-family="Times,serif" font-size="14.00">DOBJ: oil</text>
</g>
<!-- D0&#45;&gt;E0 -->
<g id="edge3" class="edge"><title>D0&#45;&gt;E0</title>
<path fill="none" stroke="black" d="M1236.27,-605.516C1262.62,-590.261 1301.98,-567.073 1335.5,-545.701 1337.9,-544.172 1340.36,-542.568 1342.83,-540.939"/>
<polygon fill="black" stroke="black" points="1344.78,-543.848 1351.14,-535.378 1340.89,-538.03 1344.78,-543.848"/>
</g>
<!-- P0_0 -->
<g id="node17" class="node"><title>P0_0</title>
<polygon fill="white" stroke="black" points="1484.5,-641.571 1262.5,-641.571 1262.5,-605.571 1484.5,-605.571 1484.5,-641.571"/>
<text text-anchor="middle" x="1373.5" y="-619.871" font-family="Times,serif" font-size="14.00">LOCATION:in a large heavy skillet</text>
</g>
<!-- P0_0&#45;&gt;E0 -->
<g id="edge4" class="edge"><title>P0_0&#45;&gt;E0</title>
<path fill="none" stroke="black" d="M1373.5,-605.142C1373.5,-591.678 1373.5,-572.582 1373.5,-555.87"/>
<polygon fill="black" stroke="black" points="1377,-555.843 1373.5,-545.843 1370,-555.843 1377,-555.843"/>
</g>
<!-- O0_0 -->
<g id="node18" class="node"><title>O0_0</title>
<polygon fill="white" stroke="black" points="1710,-641.571 1503,-641.571 1503,-605.571 1710,-605.571 1710,-641.571"/>
<text text-anchor="middle" x="1606.5" y="-619.871" font-family="Times,serif" font-size="14.00">OTHER: over medium&#45;high heat</text>
</g>
<!-- O0_0&#45;&gt;E0 -->
<g id="edge5" class="edge"><title>O0_0&#45;&gt;E0</title>
<path fill="none" stroke="black" d="M1567.76,-605.49C1523.25,-585.862 1450.86,-553.944 1408.15,-535.109"/>
<polygon fill="black" stroke="black" points="1409.55,-531.903 1398.99,-531.071 1406.73,-538.308 1409.55,-531.903"/>
</g>
<!-- D4 -->
<g id="node19" class="node"><title>D4</title>
<polygon fill="peachpuff" stroke="black" points="125,-932.921 0,-932.921 0,-896.921 125,-896.921 125,-932.921"/>
<text text-anchor="middle" x="62.5" y="-911.221" font-family="Times,serif" font-size="14.00">DOBJ: the chicken</text>
</g>
<!-- D4&#45;&gt;E4 -->
<g id="edge6" class="edge"><title>D4&#45;&gt;E4</title>
<path fill="none" stroke="black" d="M79.2079,-896.59C89.0043,-886.429 101.608,-873.356 112.756,-861.791"/>
<polygon fill="black" stroke="black" points="115.407,-864.084 119.828,-854.456 110.368,-859.226 115.407,-864.084"/>
</g>
<!-- P4_0 -->
<g id="node20" class="node"><title>P4_0</title>
<polygon fill="white" stroke="black" points="292,-932.921 143,-932.921 143,-896.921 292,-896.921 292,-932.921"/>
<text text-anchor="middle" x="217.5" y="-911.221" font-family="Times,serif" font-size="14.00">LOCATION:in a bowl</text>
</g>
<!-- P4_0&#45;&gt;E4 -->
<g id="edge7" class="edge"><title>P4_0&#45;&gt;E4</title>
<path fill="none" stroke="black" d="M200.575,-896.59C190.651,-886.429 177.884,-873.356 166.591,-861.791"/>
<polygon fill="black" stroke="black" points="168.918,-859.165 159.427,-854.456 163.91,-864.056 168.918,-859.165"/>
</g>
<!-- D1_ing -->
<g id="node21" class="node"><title>D1_ing</title>
<polygon fill="peachpuff" stroke="black" points="1164,-536.831 1057,-536.831 1057,-500.831 1164,-500.831 1164,-536.831"/>
<text text-anchor="middle" x="1110.5" y="-515.131" font-family="Times,serif" font-size="14.00">DOBJ: a tortilla</text>
</g>
<!-- D1_ing&#45;&gt;E1 -->
<g id="edge8" class="edge"><title>D1_ing&#45;&gt;E1</title>
<path fill="none" stroke="black" d="M1134.6,-500.634C1159.31,-483.006 1197.79,-455.55 1224.47,-436.519"/>
<polygon fill="black" stroke="black" points="1226.57,-439.316 1232.68,-430.659 1222.51,-433.618 1226.57,-439.316"/>
</g>
<!-- O1_0_0 -->
<g id="node22" class="node"><title>O1_0_0</title>
<polygon fill="white" stroke="black" points="1327,-536.831 1182,-536.831 1182,-500.831 1327,-500.831 1327,-536.831"/>
<text text-anchor="middle" x="1254.5" y="-515.131" font-family="Times,serif" font-size="14.00">OTHER: one at a time</text>
</g>
<!-- O1_0_0&#45;&gt;E1 -->
<g id="edge10" class="edge"><title>O1_0_0&#45;&gt;E1</title>
<path fill="none" stroke="black" d="M1254.5,-500.402C1254.5,-486.937 1254.5,-467.842 1254.5,-451.129"/>
<polygon fill="black" stroke="black" points="1258,-451.103 1254.5,-441.103 1251,-451.103 1258,-451.103"/>
</g>
<!-- P2_0_0 -->
<g id="node23" class="node"><title>P2_0_0</title>
<polygon fill="white" stroke="black" points="987.5,-432.09 805.5,-432.09 805.5,-396.09 987.5,-396.09 987.5,-432.09"/>
<text text-anchor="middle" x="896.5" y="-410.39" font-family="Times,serif" font-size="14.00">LOCATION:to paper towels</text>
</g>
<!-- P2_0_0&#45;&gt;E2 -->
<g id="edge12" class="edge"><title>P2_0_0&#45;&gt;E2</title>
<path fill="none" stroke="black" d="M932.511,-396.062C965.009,-380.629 1014.08,-357.164 1056.5,-336.22 1059.67,-334.656 1062.94,-333.028 1066.23,-331.382"/>
<polygon fill="black" stroke="black" points="1068.09,-334.362 1075.45,-326.74 1064.94,-328.109 1068.09,-334.362"/>
</g>
<!-- O2_0_0 -->
<g id="node24" class="node"><title>O2_0_0</title>
<polygon fill="white" stroke="black" points="1209,-432.09 1006,-432.09 1006,-396.09 1209,-396.09 1209,-432.09"/>
<text text-anchor="middle" x="1107.5" y="-410.39" font-family="Times,serif" font-size="14.00">OTHER: when crisp and brown</text>
</g>
<!-- O2_0_0&#45;&gt;E2 -->
<g id="edge13" class="edge"><title>O2_0_0&#45;&gt;E2</title>
<path fill="none" stroke="black" d="M1107.5,-395.662C1107.5,-382.197 1107.5,-363.102 1107.5,-346.389"/>
<polygon fill="black" stroke="black" points="1111,-346.363 1107.5,-336.363 1104,-346.363 1111,-346.363"/>
</g>
<!-- P3_0_0 -->
<g id="node25" class="node"><title>P3_0_0</title>
<polygon fill="white" stroke="black" points="1047.5,-327.35 819.5,-327.35 819.5,-291.35 1047.5,-291.35 1047.5,-327.35"/>
<text text-anchor="middle" x="933.5" y="-305.65" font-family="Times,serif" font-size="14.00">COOBJECT:with remaining tortillas</text>
</g>
<!-- P3_0_0&#45;&gt;E3 -->
<g id="edge14" class="edge"><title>P3_0_0&#45;&gt;E3</title>
<path fill="none" stroke="black" d="M933.5,-290.922C933.5,-277.457 933.5,-258.362 933.5,-241.649"/>
<polygon fill="black" stroke="black" points="937,-241.623 933.5,-231.623 930,-241.623 937,-241.623"/>
</g>
<!-- O5_0_0 -->
<g id="node26" class="node"><title>O5_0_0</title>
<polygon fill="white" stroke="black" points="327,-851.051 190,-851.051 190,-815.051 327,-815.051 327,-851.051"/>
<text text-anchor="middle" x="258.5" y="-829.351" font-family="Times,serif" font-size="14.00">OTHER: with a fork</text>
</g>
<!-- O5_0_0&#45;&gt;E5 -->
<g id="edge17" class="edge"><title>O5_0_0&#45;&gt;E5</title>
<path fill="none" stroke="black" d="M256.986,-814.886C255.311,-802.617 251.806,-786.066 244.5,-773.181 241.322,-767.575 237.214,-762.221 232.776,-757.3"/>
<polygon fill="black" stroke="black" points="235.101,-754.671 225.616,-749.952 230.088,-759.556 235.101,-754.671"/>
</g>
<!-- D6_ing -->
<g id="node27" class="node"><title>D6_ing</title>
<polygon fill="peachpuff" stroke="black" points="410,-746.311 261,-746.311 261,-710.311 410,-710.311 410,-746.311"/>
<text text-anchor="middle" x="335.5" y="-724.611" font-family="Times,serif" font-size="14.00">DOBJ: the mayonnaise</text>
</g>
<!-- D6_ing&#45;&gt;E6 -->
<g id="edge18" class="edge"><title>D6_ing&#45;&gt;E6</title>
<path fill="none" stroke="black" d="M332.616,-709.882C330.388,-696.418 327.229,-677.322 324.463,-660.61"/>
<polygon fill="black" stroke="black" points="327.89,-659.878 322.804,-650.583 320.984,-661.021 327.89,-659.878"/>
</g>
<!-- P10_0_ing -->
<g id="node28" class="node"><title>P10_0_ing</title>
<polygon fill="peachpuff" stroke="black" points="759.5,-432.09 567.5,-432.09 567.5,-396.09 759.5,-396.09 759.5,-432.09"/>
<text text-anchor="middle" x="663.5" y="-410.39" font-family="Times,serif" font-size="14.00">COOBJECT: with pepper, salt</text>
</g>
<!-- P10_0_ing&#45;&gt;E10 -->
<g id="edge25" class="edge"><title>P10_0_ing&#45;&gt;E10</title>
<path fill="none" stroke="black" d="M658.75,-395.662C655.055,-382.103 649.803,-362.832 645.226,-346.037"/>
<polygon fill="black" stroke="black" points="648.489,-344.699 642.483,-335.972 641.735,-346.54 648.489,-344.699"/>
</g>
<!-- O11_0_0 -->
<g id="node29" class="node"><title>O11_0_0</title>
<polygon fill="white" stroke="black" points="801,-327.35 704,-327.35 704,-291.35 801,-291.35 801,-327.35"/>
<text text-anchor="middle" x="752.5" y="-305.65" font-family="Times,serif" font-size="14.00">OTHER: well</text>
</g>
<!-- O11_0_0&#45;&gt;E11 -->
<g id="edge27" class="edge"><title>O11_0_0&#45;&gt;E11</title>
<path fill="none" stroke="black" d="M752.5,-290.922C752.5,-277.457 752.5,-258.362 752.5,-241.649"/>
<polygon fill="black" stroke="black" points="756,-241.623 752.5,-231.623 749,-241.623 756,-241.623"/>
</g>
</g>
</svg>
