<?xml version="1.0" encoding="UTF-8" standalone="no"?>
<!DOCTYPE svg PUBLIC "-//W3C//DTD SVG 1.1//EN"
 "http://www.w3.org/Graphics/SVG/1.1/DTD/svg11.dtd">
<!-- Generated by graphviz version 2.38.0 (20140413.2041)
 -->
<!-- Title: recipe Pages: 1 -->
<svg width="1726pt" height="1150pt"
 viewBox="0.00 0.00 1725.50 1150.40" xmlns="http://www.w3.org/2000/svg" xmlns:xlink="http://www.w3.org/1999/xlink">
<g id="graph0" class="graph" transform="scale(1 1) rotate(0) translate(4 1146.4)">
<title>recipe</title>
<polygon fill="white" stroke="none" points="-4,4 -4,-1146.4 1721.5,-1146.4 1721.5,4 -4,4"/>
<!-- E0 -->
<g id="node1" class="node"><title>E0</title>
<ellipse fill="azure" stroke="black" cx="1494" cy="-414.09" rx="41.9398" ry="26.7407"/>
<text text-anchor="middle" x="1494" y="-417.89" font-family="Times,serif" font-size="14.00">preheat</text>
<text text-anchor="middle" x="1494" y="-402.89" font-family="Times,serif" font-size="14.00">0</text>
</g>
<!-- E11 -->
<g id="node12" class="node"><title>E11</title>
<ellipse fill="azure" stroke="black" cx="1183" cy="-309.35" rx="31.2258" ry="26.7407"/>
<text text-anchor="middle" x="1183" y="-313.15" font-family="Times,serif" font-size="14.00">bake</text>
<text text-anchor="middle" x="1183" y="-298.15" font-family="Times,serif" font-size="14.00">11</text>
</g>
<!-- E0&#45;&gt;E11 -->
<g id="edge27" class="edge"><title>E0&#45;&gt;E11</title>
<path fill="none" stroke="black" d="M1462.96,-395.869C1456.77,-392.772 1450.26,-389.734 1444,-387.22 1367.77,-356.602 1274.66,-332.109 1222.79,-319.549"/>
<polygon fill="black" stroke="black" points="1223.52,-316.126 1212.98,-317.198 1221.89,-322.933 1223.52,-316.126"/>
<text text-anchor="middle" x="1495.5" y="-358.02" font-family="Times,serif" font-size="14.00">LOCATION:in the preheated oven</text>
</g>
<!-- E1 -->
<g id="node2" class="node"><title>E1</title>
<ellipse fill="azure" stroke="black" cx="742" cy="-518.831" rx="42.3529" ry="26.7407"/>
<text text-anchor="middle" x="742" y="-522.631" font-family="Times,serif" font-size="14.00">prepare</text>
<text text-anchor="middle" x="742" y="-507.631" font-family="Times,serif" font-size="14.00">1</text>
</g>
<!-- E10 -->
<g id="node11" class="node"><title>E10</title>
<ellipse fill="azure" stroke="black" cx="882" cy="-414.09" rx="31.2258" ry="26.7407"/>
<text text-anchor="middle" x="882" y="-417.89" font-family="Times,serif" font-size="14.00">pour</text>
<text text-anchor="middle" x="882" y="-402.89" font-family="Times,serif" font-size="14.00">10</text>
</g>
<!-- E1&#45;&gt;E10 -->
<g id="edge25" class="edge"><title>E1&#45;&gt;E10</title>
<path fill="none" stroke="black" d="M742.236,-491.809C743.617,-480.518 747.063,-467.87 755,-458.96 776.767,-434.528 812.81,-423.7 840.949,-418.902"/>
<polygon fill="black" stroke="black" points="841.554,-422.35 850.918,-417.393 840.507,-415.429 841.554,-422.35"/>
<text text-anchor="middle" x="855.5" y="-462.76" font-family="Times,serif" font-size="14.00">LOCATION:into the prepared pan</text>
</g>
<!-- E2 -->
<g id="node3" class="node"><title>E2</title>
<ellipse fill="azure" stroke="black" cx="816" cy="-728.311" rx="72.6644" ry="26.7407"/>
<text text-anchor="middle" x="816" y="-732.111" font-family="Times,serif" font-size="14.00">whisk together</text>
<text text-anchor="middle" x="816" y="-717.111" font-family="Times,serif" font-size="14.00">2</text>
</g>
<!-- E3 -->
<g id="node4" class="node"><title>E3</title>
<ellipse fill="azure" stroke="black" cx="908" cy="-623.571" rx="45.011" ry="26.7407"/>
<text text-anchor="middle" x="908" y="-627.371" font-family="Times,serif" font-size="14.00">set aside</text>
<text text-anchor="middle" x="908" y="-612.371" font-family="Times,serif" font-size="14.00">3</text>
</g>
<!-- E2&#45;&gt;E3 -->
<g id="edge10" class="edge"><title>E2&#45;&gt;E3</title>
<path fill="none" stroke="black" d="M838.271,-702.44C850.951,-688.28 866.943,-670.421 880.413,-655.379"/>
<polygon fill="black" stroke="black" points="883.132,-657.588 887.196,-647.804 877.917,-652.919 883.132,-657.588"/>
<text text-anchor="middle" x="918" y="-672.241" font-family="Times,serif" font-size="14.00">IMPLICIT DOBJ</text>
</g>
<!-- E9 -->
<g id="node10" class="node"><title>E9</title>
<ellipse fill="azure" stroke="black" cx="1015" cy="-518.831" rx="35.2113" ry="26.7407"/>
<text text-anchor="middle" x="1015" y="-522.631" font-family="Times,serif" font-size="14.00">stir in</text>
<text text-anchor="middle" x="1015" y="-507.631" font-family="Times,serif" font-size="14.00">9</text>
</g>
<!-- E3&#45;&gt;E9 -->
<g id="edge21" class="edge"><title>E3&#45;&gt;E9</title>
<path fill="none" stroke="black" d="M909.731,-596.606C911.626,-585.46 915.435,-572.91 923,-563.701 935.509,-548.472 954.548,-538.19 972.066,-531.434"/>
<polygon fill="black" stroke="black" points="973.35,-534.692 981.591,-528.034 970.996,-528.099 973.35,-534.692"/>
<text text-anchor="middle" x="968.5" y="-567.501" font-family="Times,serif" font-size="14.00">the dry mixture</text>
</g>
<!-- E4 -->
<g id="node5" class="node"><title>E4</title>
<ellipse fill="azure" stroke="black" cx="741" cy="-1042.53" rx="31.2258" ry="26.7407"/>
<text text-anchor="middle" x="741" y="-1046.33" font-family="Times,serif" font-size="14.00">pour</text>
<text text-anchor="middle" x="741" y="-1031.33" font-family="Times,serif" font-size="14.00">4</text>
</g>
<!-- E5 -->
<g id="node6" class="node"><title>E5</title>
<ellipse fill="azure" stroke="black" cx="831" cy="-937.791" rx="44.5955" ry="26.7407"/>
<text text-anchor="middle" x="831" y="-941.591" font-family="Times,serif" font-size="14.00">sprinkle</text>
<text text-anchor="middle" x="831" y="-926.591" font-family="Times,serif" font-size="14.00">5</text>
</g>
<!-- E4&#45;&gt;E5 -->
<g id="edge11" class="edge"><title>E4&#45;&gt;E5</title>
<path fill="none" stroke="black" d="M743.673,-1015.57C745.856,-1004.55 749.816,-992.101 757,-982.661 764.49,-972.819 774.878,-964.753 785.505,-958.345"/>
<polygon fill="black" stroke="black" points="787.413,-961.288 794.43,-953.35 783.994,-955.18 787.413,-961.288"/>
<text text-anchor="middle" x="808" y="-986.461" font-family="Times,serif" font-size="14.00">IMPLICIT DOBJ</text>
</g>
<!-- E6 -->
<g id="node7" class="node"><title>E6</title>
<ellipse fill="azure" stroke="black" cx="965" cy="-833.051" rx="27" ry="26.7407"/>
<text text-anchor="middle" x="965" y="-836.851" font-family="Times,serif" font-size="14.00">stir</text>
<text text-anchor="middle" x="965" y="-821.851" font-family="Times,serif" font-size="14.00">6</text>
</g>
<!-- E5&#45;&gt;E6 -->
<g id="edge13" class="edge"><title>E5&#45;&gt;E6</title>
<path fill="none" stroke="black" d="M837.762,-911.019C842.054,-899.363 848.781,-886.342 859,-877.921 883.79,-857.492 899.901,-873.528 929,-859.921 931.318,-858.837 933.641,-857.598 935.929,-856.263"/>
<polygon fill="black" stroke="black" points="937.973,-859.11 944.493,-850.76 934.188,-853.221 937.973,-859.11"/>
<text text-anchor="middle" x="910" y="-881.721" font-family="Times,serif" font-size="14.00">IMPLICIT DOBJ</text>
</g>
<!-- E7 -->
<g id="node8" class="node"><title>E7</title>
<ellipse fill="azure" stroke="black" cx="1022" cy="-728.311" rx="35.2113" ry="26.7407"/>
<text text-anchor="middle" x="1022" y="-732.111" font-family="Times,serif" font-size="14.00">stir in</text>
<text text-anchor="middle" x="1022" y="-717.111" font-family="Times,serif" font-size="14.00">7</text>
</g>
<!-- E6&#45;&gt;E7 -->
<g id="edge17" class="edge"><title>E6&#45;&gt;E7</title>
<path fill="none" stroke="black" d="M976.401,-808.616C981.833,-797.732 988.543,-784.684 995,-773.181 997.118,-769.408 999.399,-765.495 1001.71,-761.629"/>
<polygon fill="black" stroke="black" points="1004.88,-763.147 1007.07,-752.782 998.895,-759.516 1004.88,-763.147"/>
<text text-anchor="middle" x="1045.5" y="-776.981" font-family="Times,serif" font-size="14.00">IMPLICIT PREP</text>
</g>
<!-- E8 -->
<g id="node9" class="node"><title>E8</title>
<ellipse fill="azure" stroke="black" cx="1022" cy="-623.571" rx="27" ry="26.7407"/>
<text text-anchor="middle" x="1022" y="-627.371" font-family="Times,serif" font-size="14.00">add</text>
<text text-anchor="middle" x="1022" y="-612.371" font-family="Times,serif" font-size="14.00">8</text>
</g>
<!-- E7&#45;&gt;E8 -->
<g id="edge20" class="edge"><title>E7&#45;&gt;E8</title>
<path fill="none" stroke="black" d="M1022,-701.385C1022,-689.096 1022,-674.207 1022,-660.822"/>
<polygon fill="black" stroke="black" points="1025.5,-660.488 1022,-650.488 1018.5,-660.488 1025.5,-660.488"/>
<text text-anchor="middle" x="1072.5" y="-672.241" font-family="Times,serif" font-size="14.00">IMPLICIT PREP</text>
</g>
<!-- E8&#45;&gt;E9 -->
<g id="edge22" class="edge"><title>E8&#45;&gt;E9</title>
<path fill="none" stroke="black" d="M1020.23,-596.645C1019.4,-584.356 1018.38,-569.467 1017.47,-556.082"/>
<polygon fill="black" stroke="black" points="1020.94,-555.487 1016.77,-545.748 1013.95,-555.963 1020.94,-555.487"/>
<text text-anchor="middle" x="1068.5" y="-567.501" font-family="Times,serif" font-size="14.00">IMPLICIT PREP</text>
</g>
<!-- E9&#45;&gt;E10 -->
<g id="edge24" class="edge"><title>E9&#45;&gt;E10</title>
<path fill="none" stroke="black" d="M997.774,-495.158C987.943,-483.299 974.841,-469.168 961,-458.96 945.96,-447.869 939.376,-449.963 923,-440.96 920.442,-439.554 917.824,-438.054 915.21,-436.511"/>
<polygon fill="black" stroke="black" points="916.791,-433.376 906.427,-431.176 913.157,-439.359 916.791,-433.376"/>
<text text-anchor="middle" x="1028" y="-462.76" font-family="Times,serif" font-size="14.00">IMPLICIT DOBJ</text>
</g>
<!-- E10&#45;&gt;E11 -->
<g id="edge26" class="edge"><title>E10&#45;&gt;E11</title>
<path fill="none" stroke="black" d="M905.55,-396.36C911.085,-392.965 917.097,-389.684 923,-387.22 969.314,-367.893 1096.79,-355.807 1143,-336.22 1145.64,-335.101 1148.3,-333.81 1150.93,-332.414"/>
<polygon fill="black" stroke="black" points="1152.74,-335.407 1159.64,-327.363 1149.23,-329.351 1152.74,-335.407"/>
<text text-anchor="middle" x="1125" y="-358.02" font-family="Times,serif" font-size="14.00">IMPLICIT DOBJ</text>
</g>
<!-- E12 -->
<g id="node13" class="node"><title>E12</title>
<ellipse fill="azure" stroke="black" cx="1055" cy="-204.61" rx="28.9828" ry="26.7407"/>
<text text-anchor="middle" x="1055" y="-208.41" font-family="Times,serif" font-size="14.00">cool</text>
<text text-anchor="middle" x="1055" y="-193.41" font-family="Times,serif" font-size="14.00">12</text>
</g>
<!-- E11&#45;&gt;E12 -->
<g id="edge29" class="edge"><title>E11&#45;&gt;E12</title>
<path fill="none" stroke="black" d="M1160.7,-290.454C1139.56,-273.483 1107.66,-247.878 1084.44,-229.237"/>
<polygon fill="black" stroke="black" points="1086.6,-226.489 1076.61,-222.959 1082.22,-231.948 1086.6,-226.489"/>
<text text-anchor="middle" x="1177" y="-253.28" font-family="Times,serif" font-size="14.00">IMPLICIT DOBJ</text>
</g>
<!-- E13 -->
<g id="node14" class="node"><title>E13</title>
<ellipse fill="azure" stroke="black" cx="919" cy="-99.8701" rx="50.8235" ry="26.7407"/>
<text text-anchor="middle" x="919" y="-103.67" font-family="Times,serif" font-size="14.00">removing</text>
<text text-anchor="middle" x="919" y="-88.6701" font-family="Times,serif" font-size="14.00">13</text>
</g>
<!-- E12&#45;&gt;E13 -->
<g id="edge32" class="edge"><title>E12&#45;&gt;E13</title>
<path fill="none" stroke="black" d="M1032.85,-186.875C1011.88,-171.038 980.039,-146.981 955.354,-128.334"/>
<polygon fill="black" stroke="black" points="957.373,-125.472 947.284,-122.237 953.153,-131.057 957.373,-125.472"/>
<text text-anchor="middle" x="1046" y="-148.54" font-family="Times,serif" font-size="14.00">IMPLICIT DOBJ</text>
</g>
<!-- EOR -->
<g id="node36" class="node"><title>EOR</title>
<ellipse fill="plum" stroke="black" cx="919" cy="-18" rx="57.3905" ry="18"/>
<text text-anchor="middle" x="919" y="-14.3" font-family="Times,serif" font-size="14.00">Bon appetit!</text>
</g>
<!-- E13&#45;&gt;EOR -->
<g id="edge35" class="edge"><title>E13&#45;&gt;EOR</title>
<path fill="none" stroke="black" d="M919,-72.7176C919,-64.2726 919,-54.8903 919,-46.3604"/>
<polygon fill="black" stroke="black" points="922.5,-46.1464 919,-36.1464 915.5,-46.1464 922.5,-46.1464"/>
</g>
<!-- D0 -->
<g id="node15" class="node"><title>D0</title>
<polygon fill="white" stroke="black" points="1442,-536.831 1354,-536.831 1354,-500.831 1442,-500.831 1442,-536.831"/>
<text text-anchor="middle" x="1398" y="-515.131" font-family="Times,serif" font-size="14.00">DOBJ: oven</text>
</g>
<!-- D0&#45;&gt;E0 -->
<g id="edge1" class="edge"><title>D0&#45;&gt;E0</title>
<path fill="none" stroke="black" d="M1414.29,-500.402C1428.42,-485.274 1449.2,-463.036 1466,-445.058"/>
<polygon fill="black" stroke="black" points="1468.65,-447.343 1472.92,-437.647 1463.54,-442.564 1468.65,-447.343"/>
</g>
<!-- O0_0 -->
<g id="node16" class="node"><title>O0_0</title>
<polygon fill="white" stroke="black" points="1717.5,-536.831 1460.5,-536.831 1460.5,-500.831 1717.5,-500.831 1717.5,-536.831"/>
<text text-anchor="middle" x="1589" y="-515.131" font-family="Times,serif" font-size="14.00">OTHER: to 350 degrees f (175 degrees c)</text>
</g>
<!-- O0_0&#45;&gt;E0 -->
<g id="edge2" class="edge"><title>O0_0&#45;&gt;E0</title>
<path fill="none" stroke="black" d="M1572.88,-500.402C1558.9,-485.274 1538.33,-463.036 1521.71,-445.058"/>
<polygon fill="black" stroke="black" points="1524.22,-442.613 1514.86,-437.647 1519.08,-447.366 1524.22,-442.613"/>
</g>
<!-- D1 -->
<g id="node17" class="node"><title>D1</title>
<polygon fill="white" stroke="black" points="620.5,-641.571 423.5,-641.571 423.5,-605.571 620.5,-605.571 620.5,-641.571"/>
<text text-anchor="middle" x="522" y="-619.871" font-family="Times,serif" font-size="14.00">DOBJ: a 9x13 inch baking pan</text>
</g>
<!-- D1&#45;&gt;E1 -->
<g id="edge3" class="edge"><title>D1&#45;&gt;E1</title>
<path fill="none" stroke="black" d="M558.823,-605.374C597.52,-587.303 658.33,-558.904 699.153,-539.84"/>
<polygon fill="black" stroke="black" points="700.729,-542.967 708.309,-535.564 697.767,-536.624 700.729,-542.967"/>
</g>
<!-- P1_0 -->
<g id="node18" class="node"><title>P1_0</title>
<polygon fill="peachpuff" stroke="black" points="845,-641.571 639,-641.571 639,-605.571 845,-605.571 845,-641.571"/>
<text text-anchor="middle" x="742" y="-619.871" font-family="Times,serif" font-size="14.00">COOBJECT:with cooking spray</text>
</g>
<!-- P1_0&#45;&gt;E1 -->
<g id="edge4" class="edge"><title>P1_0&#45;&gt;E1</title>
<path fill="none" stroke="black" d="M742,-605.142C742,-591.678 742,-572.582 742,-555.87"/>
<polygon fill="black" stroke="black" points="745.5,-555.843 742,-545.843 738.5,-555.843 745.5,-555.843"/>
</g>
<!-- D4 -->
<g id="node19" class="node"><title>D4</title>
<polygon fill="peachpuff" stroke="black" points="715,-1142.4 579,-1142.4 579,-1106.4 715,-1106.4 715,-1142.4"/>
<text text-anchor="middle" x="647" y="-1120.7" font-family="Times,serif" font-size="14.00">DOBJ: the hot water</text>
</g>
<!-- D4&#45;&gt;E4 -->
<g id="edge5" class="edge"><title>D4&#45;&gt;E4</title>
<path fill="none" stroke="black" d="M667.397,-1106.07C680.335,-1095.08 697.285,-1080.67 711.657,-1068.46"/>
<polygon fill="black" stroke="black" points="713.981,-1071.08 719.335,-1061.94 709.448,-1065.75 713.981,-1071.08"/>
</g>
<!-- P4_0 -->
<g id="node20" class="node"><title>P4_0</title>
<polygon fill="white" stroke="black" points="938.5,-1142.4 733.5,-1142.4 733.5,-1106.4 938.5,-1106.4 938.5,-1142.4"/>
<text text-anchor="middle" x="836" y="-1120.7" font-family="Times,serif" font-size="14.00">LOCATION:into a mixing bowl</text>
</g>
<!-- P4_0&#45;&gt;E4 -->
<g id="edge6" class="edge"><title>P4_0&#45;&gt;E4</title>
<path fill="none" stroke="black" d="M815.386,-1106.07C802.31,-1095.08 785.18,-1080.67 770.655,-1068.46"/>
<polygon fill="black" stroke="black" points="772.802,-1065.7 762.896,-1061.94 768.297,-1071.05 772.802,-1065.7"/>
</g>
<!-- D2 -->
<g id="node21" class="node"><title>D2</title>
<polygon fill="peachpuff" stroke="black" points="586,-851.051 0,-851.051 0,-815.051 586,-815.051 586,-851.051"/>
<text text-anchor="middle" x="293" y="-829.351" font-family="Times,serif" font-size="14.00">DOBJ: soy flour, cinnamon, the whole wheat flour, tapioca starch, salt, baking soda, ground cloves</text>
</g>
<!-- D2&#45;&gt;E2 -->
<g id="edge7" class="edge"><title>D2&#45;&gt;E2</title>
<path fill="none" stroke="black" d="M379.656,-815.028C481.152,-795.09 647.501,-762.411 742.803,-743.69"/>
<polygon fill="black" stroke="black" points="743.511,-747.118 752.649,-741.756 742.161,-740.249 743.511,-747.118"/>
</g>
<!-- P2_0 -->
<g id="node22" class="node"><title>P2_0</title>
<polygon fill="white" stroke="black" points="753.5,-851.051 604.5,-851.051 604.5,-815.051 753.5,-815.051 753.5,-851.051"/>
<text text-anchor="middle" x="679" y="-829.351" font-family="Times,serif" font-size="14.00">LOCATION:in a bowl</text>
</g>
<!-- P2_0&#45;&gt;E2 -->
<g id="edge8" class="edge"><title>P2_0&#45;&gt;E2</title>
<path fill="none" stroke="black" d="M701.931,-814.854C722.236,-799.627 752.319,-777.067 776.493,-758.938"/>
<polygon fill="black" stroke="black" points="778.872,-761.529 784.772,-752.73 774.672,-755.929 778.872,-761.529"/>
</g>
<!-- O2_0 -->
<g id="node23" class="node"><title>O2_0</title>
<polygon fill="white" stroke="black" points="920,-851.051 772,-851.051 772,-815.051 920,-815.051 920,-851.051"/>
<text text-anchor="middle" x="846" y="-829.351" font-family="Times,serif" font-size="14.00">OTHER: until blended</text>
</g>
<!-- O2_0&#45;&gt;E2 -->
<g id="edge9" class="edge"><title>O2_0&#45;&gt;E2</title>
<path fill="none" stroke="black" d="M840.911,-814.622C836.979,-801.158 831.403,-782.062 826.523,-765.35"/>
<polygon fill="black" stroke="black" points="829.758,-763.942 823.596,-755.324 823.039,-765.904 829.758,-763.942"/>
</g>
<!-- P5_0_ing -->
<g id="node24" class="node"><title>P5_0_ing</title>
<polygon fill="peachpuff" stroke="black" points="990,-1060.53 790,-1060.53 790,-1024.53 990,-1024.53 990,-1060.53"/>
<text text-anchor="middle" x="890" y="-1038.83" font-family="Times,serif" font-size="14.00">COOBJECT: with the flax meal</text>
</g>
<!-- P5_0_ing&#45;&gt;E5 -->
<g id="edge12" class="edge"><title>P5_0_ing&#45;&gt;E5</title>
<path fill="none" stroke="black" d="M883.188,-1024.33C878.184,-1012.34 870.903,-996.145 863,-982.661 860.685,-978.711 858.097,-974.681 855.423,-970.744"/>
<polygon fill="black" stroke="black" points="858.122,-968.499 849.503,-962.339 852.399,-972.53 858.122,-968.499"/>
</g>
<!-- O6_0_0 -->
<g id="node25" class="node"><title>O6_0_0</title>
<polygon fill="white" stroke="black" points="1036.5,-955.791 893.5,-955.791 893.5,-919.791 1036.5,-919.791 1036.5,-955.791"/>
<text text-anchor="middle" x="965" y="-934.091" font-family="Times,serif" font-size="14.00">OTHER: for a minute</text>
</g>
<!-- O6_0_0&#45;&gt;E6 -->
<g id="edge14" class="edge"><title>O6_0_0&#45;&gt;E6</title>
<path fill="none" stroke="black" d="M965,-919.363C965,-905.898 965,-886.802 965,-870.09"/>
<polygon fill="black" stroke="black" points="968.5,-870.064 965,-860.064 961.5,-870.064 968.5,-870.064"/>
</g>
<!-- O6_1_0 -->
<g id="node26" class="node"><title>O6_1_0</title>
<polygon fill="white" stroke="black" points="1551,-955.791 1055,-955.791 1055,-919.791 1551,-919.791 1551,-955.791"/>
<text text-anchor="middle" x="1303" y="-934.091" font-family="Times,serif" font-size="14.00">OTHER: until the flax begins to absorb the water, and the mixture slightly thickens</text>
</g>
<!-- O6_1_0&#45;&gt;E6 -->
<g id="edge15" class="edge"><title>O6_1_0&#45;&gt;E6</title>
<path fill="none" stroke="black" d="M1196.26,-919.735C1136.91,-907.792 1062.79,-888.721 1001,-859.921 998.681,-858.84 996.356,-857.603 994.068,-856.269"/>
<polygon fill="black" stroke="black" points="995.808,-853.228 985.502,-850.769 992.026,-859.118 995.808,-853.228"/>
</g>
<!-- D7_ing -->
<g id="node27" class="node"><title>D7_ing</title>
<polygon fill="peachpuff" stroke="black" points="1210,-851.051 1010,-851.051 1010,-815.051 1210,-815.051 1210,-851.051"/>
<text text-anchor="middle" x="1110" y="-829.351" font-family="Times,serif" font-size="14.00">DOBJ: vanilla, the brown sugar</text>
</g>
<!-- D7_ing&#45;&gt;E7 -->
<g id="edge16" class="edge"><title>D7_ing&#45;&gt;E7</title>
<path fill="none" stroke="black" d="M1109.43,-814.838C1108.23,-802.23 1104.91,-785.279 1096,-773.181 1095.29,-772.218 1076.78,-761.243 1058.45,-750.512"/>
<polygon fill="black" stroke="black" points="1059.94,-747.332 1049.54,-745.309 1056.41,-753.376 1059.94,-747.332"/>
</g>
<!-- O7_0_0 -->
<g id="node28" class="node"><title>O7_0_0</title>
<polygon fill="white" stroke="black" points="1462,-851.051 1228,-851.051 1228,-815.051 1462,-815.051 1462,-851.051"/>
<text text-anchor="middle" x="1345" y="-829.351" font-family="Times,serif" font-size="14.00">OTHER: until the sugar has dissolved</text>
</g>
<!-- O7_0_0&#45;&gt;E7 -->
<g id="edge18" class="edge"><title>O7_0_0&#45;&gt;E7</title>
<path fill="none" stroke="black" d="M1262.59,-815.02C1206.29,-802.004 1130.65,-781.773 1067,-755.181 1063.83,-753.855 1060.6,-752.35 1057.41,-750.748"/>
<polygon fill="black" stroke="black" points="1059.04,-747.651 1048.56,-746.048 1055.75,-753.832 1059.04,-747.651"/>
</g>
<!-- D8_ing -->
<g id="node29" class="node"><title>D8_ing</title>
<polygon fill="peachpuff" stroke="black" points="1304.5,-746.311 1075.5,-746.311 1075.5,-710.311 1304.5,-710.311 1304.5,-746.311"/>
<text text-anchor="middle" x="1190" y="-724.611" font-family="Times,serif" font-size="14.00">DOBJ: almonds, carrots, the currants</text>
</g>
<!-- D8_ing&#45;&gt;E8 -->
<g id="edge19" class="edge"><title>D8_ing&#45;&gt;E8</title>
<path fill="none" stroke="black" d="M1175.94,-710.173C1164.17,-696.92 1146.26,-679.09 1127,-668.441 1099.64,-653.311 1087.36,-663.6 1059,-650.441 1056.4,-649.234 1053.79,-647.845 1051.22,-646.349"/>
<polygon fill="black" stroke="black" points="1053.06,-643.373 1042.75,-640.967 1049.31,-649.282 1053.06,-643.373"/>
</g>
<!-- O9_0_0 -->
<g id="node30" class="node"><title>O9_0_0</title>
<polygon fill="white" stroke="black" points="1252.5,-641.571 1067.5,-641.571 1067.5,-605.571 1252.5,-605.571 1252.5,-641.571"/>
<text text-anchor="middle" x="1160" y="-619.871" font-family="Times,serif" font-size="14.00">OTHER: until just moistened</text>
</g>
<!-- O9_0_0&#45;&gt;E9 -->
<g id="edge23" class="edge"><title>O9_0_0&#45;&gt;E9</title>
<path fill="none" stroke="black" d="M1152.73,-605.308C1146.5,-592.34 1136.41,-574.947 1123,-563.701 1104.39,-548.098 1079.5,-537.483 1058.3,-530.609"/>
<polygon fill="black" stroke="black" points="1059.14,-527.204 1048.55,-527.619 1057.08,-533.896 1059.14,-527.204"/>
</g>
<!-- O11_0_0 -->
<g id="node31" class="node"><title>O11_0_0</title>
<polygon fill="white" stroke="black" points="1434.5,-432.09 931.5,-432.09 931.5,-396.09 1434.5,-396.09 1434.5,-432.09"/>
<text text-anchor="middle" x="1183" y="-410.39" font-family="Times,serif" font-size="14.00">OTHER: until a toothpick inserted into the center comes out clean, about 30 minutes</text>
</g>
<!-- O11_0_0&#45;&gt;E11 -->
<g id="edge28" class="edge"><title>O11_0_0&#45;&gt;E11</title>
<path fill="none" stroke="black" d="M1183,-395.662C1183,-382.197 1183,-363.102 1183,-346.389"/>
<polygon fill="black" stroke="black" points="1186.5,-346.363 1183,-336.363 1179.5,-346.363 1186.5,-346.363"/>
</g>
<!-- P12_0_0 -->
<g id="node32" class="node"><title>P12_0_0</title>
<polygon fill="white" stroke="black" points="958.5,-327.35 807.5,-327.35 807.5,-291.35 958.5,-291.35 958.5,-327.35"/>
<text text-anchor="middle" x="883" y="-305.65" font-family="Times,serif" font-size="14.00">LOCATION:in the pan</text>
</g>
<!-- P12_0_0&#45;&gt;E12 -->
<g id="edge30" class="edge"><title>P12_0_0&#45;&gt;E12</title>
<path fill="none" stroke="black" d="M914.857,-291.298C942.526,-276.232 983.466,-253.32 1018,-231.48 1019.94,-230.255 1021.92,-228.972 1023.9,-227.66"/>
<polygon fill="black" stroke="black" points="1026.21,-230.323 1032.53,-221.818 1022.28,-224.527 1026.21,-230.323"/>
</g>
<!-- O12_0_0 -->
<g id="node33" class="node"><title>O12_0_0</title>
<polygon fill="white" stroke="black" points="1133.5,-327.35 976.5,-327.35 976.5,-291.35 1133.5,-291.35 1133.5,-327.35"/>
<text text-anchor="middle" x="1055" y="-305.65" font-family="Times,serif" font-size="14.00">OTHER: for 10 minutes</text>
</g>
<!-- O12_0_0&#45;&gt;E12 -->
<g id="edge31" class="edge"><title>O12_0_0&#45;&gt;E12</title>
<path fill="none" stroke="black" d="M1055,-290.922C1055,-277.457 1055,-258.362 1055,-241.649"/>
<polygon fill="black" stroke="black" points="1058.5,-241.623 1055,-231.623 1051.5,-241.623 1058.5,-241.623"/>
</g>
<!-- P13_0_0 -->
<g id="node34" class="node"><title>P13_0_0</title>
<polygon fill="white" stroke="black" points="811.5,-222.61 634.5,-222.61 634.5,-186.61 811.5,-186.61 811.5,-222.61"/>
<text text-anchor="middle" x="723" y="-200.91" font-family="Times,serif" font-size="14.00">LOCATION:on a wire rack</text>
</g>
<!-- P13_0_0&#45;&gt;E13 -->
<g id="edge33" class="edge"><title>P13_0_0&#45;&gt;E13</title>
<path fill="none" stroke="black" d="M755.806,-186.414C788.457,-169.299 838.777,-142.922 874.907,-123.983"/>
<polygon fill="black" stroke="black" points="876.535,-127.081 883.767,-119.338 873.285,-120.881 876.535,-127.081"/>
</g>
<!-- O13_0_0 -->
<g id="node35" class="node"><title>O13_0_0</title>
<polygon fill="white" stroke="black" points="1008.5,-222.61 829.5,-222.61 829.5,-186.61 1008.5,-186.61 1008.5,-222.61"/>
<text text-anchor="middle" x="919" y="-200.91" font-family="Times,serif" font-size="14.00">OTHER: to cool completely</text>
</g>
<!-- O13_0_0&#45;&gt;E13 -->
<g id="edge34" class="edge"><title>O13_0_0&#45;&gt;E13</title>
<path fill="none" stroke="black" d="M919,-186.182C919,-172.717 919,-153.621 919,-136.909"/>
<polygon fill="black" stroke="black" points="922.5,-136.883 919,-126.883 915.5,-136.883 922.5,-136.883"/>
</g>
</g>
</svg>
