<?xml version="1.0" encoding="UTF-8" standalone="no"?>
<!DOCTYPE svg PUBLIC "-//W3C//DTD SVG 1.1//EN"
 "http://www.w3.org/Graphics/SVG/1.1/DTD/svg11.dtd">
<!-- Generated by graphviz version 2.38.0 (20140413.2041)
 -->
<!-- Title: recipe Pages: 1 -->
<svg width="1630pt" height="810pt"
 viewBox="0.00 0.00 1629.50 810.00" xmlns="http://www.w3.org/2000/svg" xmlns:xlink="http://www.w3.org/1999/xlink">
<g id="graph0" class="graph" transform="scale(1 1) rotate(0) translate(4 806)">
<title>recipe</title>
<polygon fill="white" stroke="none" points="-4,4 -4,-806 1625.5,-806 1625.5,4 -4,4"/>
<!-- E0 -->
<g id="node1" class="node"><title>E0</title>
<ellipse fill="azure" stroke="black" cx="1473.5" cy="-604" rx="68.7879" ry="18"/>
<text text-anchor="middle" x="1473.5" y="-600.3" font-family="Times,serif" font-size="14.00">preheat (S0,P0)</text>
</g>
<!-- E8 -->
<g id="node9" class="node"><title>E8</title>
<ellipse fill="azure" stroke="black" cx="1268.5" cy="-500" rx="68.7879" ry="18"/>
<text text-anchor="middle" x="1268.5" y="-496.3" font-family="Times,serif" font-size="14.00">bake (S5,P286)</text>
</g>
<!-- E0&#45;&gt;E8 -->
<g id="edge16" class="edge"><title>E0&#45;&gt;E8</title>
<path fill="none" stroke="black" d="M1442.81,-587.73C1406.93,-569.876 1347.45,-540.283 1308.12,-520.711"/>
<polygon fill="black" stroke="black" points="1309.58,-517.529 1299.07,-516.208 1306.46,-523.796 1309.58,-517.529"/>
<text text-anchor="middle" x="1462.5" y="-555.8" font-family="Times,serif" font-size="14.00">OUTPUT: </text>
<text text-anchor="middle" x="1462.5" y="-540.8" font-family="Times,serif" font-size="14.00">INPUT: 15&#45;20 minutes</text>
</g>
<!-- E1 -->
<g id="node2" class="node"><title>E1</title>
<ellipse fill="azure" stroke="black" cx="756.5" cy="-708" rx="74.9875" ry="18"/>
<text text-anchor="middle" x="756.5" y="-704.3" font-family="Times,serif" font-size="14.00">prepare (S1,P25)</text>
</g>
<!-- E2 -->
<g id="node3" class="node"><title>E2</title>
<ellipse fill="azure" stroke="black" cx="1004.5" cy="-604" rx="74.9875" ry="18"/>
<text text-anchor="middle" x="1004.5" y="-600.3" font-family="Times,serif" font-size="14.00">prepare (S2,P58)</text>
</g>
<!-- E1&#45;&gt;E2 -->
<g id="edge6" class="edge"><title>E1&#45;&gt;E2</title>
<path fill="none" stroke="black" d="M792.561,-692.168C836.55,-674.076 910.958,-643.473 958.885,-623.761"/>
<polygon fill="black" stroke="black" points="960.478,-626.89 968.395,-619.85 957.815,-620.416 960.478,-626.89"/>
<text text-anchor="middle" x="957.5" y="-659.8" font-family="Times,serif" font-size="14.00">OUTPUT: </text>
<text text-anchor="middle" x="957.5" y="-644.8" font-family="Times,serif" font-size="14.00">INPUT: muffins</text>
</g>
<!-- E3 -->
<g id="node4" class="node"><title>E3</title>
<ellipse fill="azure" stroke="black" cx="1061.5" cy="-500" rx="63.8893" ry="18"/>
<text text-anchor="middle" x="1061.5" y="-496.3" font-family="Times,serif" font-size="14.00">use (S2,P127)</text>
</g>
<!-- E2&#45;&gt;E3 -->
<g id="edge8" class="edge"><title>E2&#45;&gt;E3</title>
<path fill="none" stroke="black" d="M1004.03,-585.848C1004.39,-571.798 1006.66,-551.882 1015.5,-537 1018.55,-531.861 1022.64,-527.18 1027.12,-523.019"/>
<polygon fill="black" stroke="black" points="1029.48,-525.608 1034.92,-516.517 1025,-520.231 1029.48,-525.608"/>
<text text-anchor="middle" x="1140" y="-555.8" font-family="Times,serif" font-size="14.00">OUTPUT: </text>
<text text-anchor="middle" x="1140" y="-540.8" font-family="Times,serif" font-size="14.00">INPUT: only 1/4 cup oil instead of 1/2 cup</text>
</g>
<!-- E9 -->
<g id="node10" class="node"><title>E9</title>
<ellipse fill="azure" stroke="black" cx="1165.5" cy="-397" rx="67.6881" ry="18"/>
<text text-anchor="middle" x="1165.5" y="-393.3" font-family="Times,serif" font-size="14.00">cool (S6,P329)</text>
</g>
<!-- E3&#45;&gt;E9 -->
<g id="edge18" class="edge"><title>E3&#45;&gt;E9</title>
<path fill="none" stroke="black" d="M1065.39,-481.908C1069.47,-467.32 1077.2,-446.603 1090.5,-433 1097.28,-426.061 1105.71,-420.347 1114.44,-415.695"/>
<polygon fill="black" stroke="black" points="1116.14,-418.759 1123.58,-411.224 1113.06,-412.47 1116.14,-418.759"/>
<text text-anchor="middle" x="1144.5" y="-451.8" font-family="Times,serif" font-size="14.00">OUTPUT: </text>
<text text-anchor="middle" x="1144.5" y="-436.8" font-family="Times,serif" font-size="14.00">INPUT: muffin tin</text>
</g>
<!-- E4 -->
<g id="node5" class="node"><title>E4</title>
<ellipse fill="azure" stroke="black" cx="117.5" cy="-500" rx="64.9885" ry="18"/>
<text text-anchor="middle" x="117.5" y="-496.3" font-family="Times,serif" font-size="14.00">add (S2,P162)</text>
</g>
<!-- E5 -->
<g id="node6" class="node"><title>E5</title>
<ellipse fill="azure" stroke="black" cx="250.5" cy="-397" rx="63.0888" ry="18"/>
<text text-anchor="middle" x="250.5" y="-393.3" font-family="Times,serif" font-size="14.00">stir (S3,P182)</text>
</g>
<!-- E4&#45;&gt;E5 -->
<g id="edge9" class="edge"><title>E4&#45;&gt;E5</title>
<path fill="none" stroke="black" d="M138.869,-482.773C161.167,-465.839 196.284,-439.171 221.17,-420.273"/>
<polygon fill="black" stroke="black" points="223.337,-423.022 229.184,-414.187 219.104,-417.448 223.337,-423.022"/>
<text text-anchor="middle" x="236.5" y="-451.8" font-family="Times,serif" font-size="14.00">OUTPUT: </text>
<text text-anchor="middle" x="236.5" y="-436.8" font-family="Times,serif" font-size="14.00">INPUT: </text>
</g>
<!-- E6 -->
<g id="node7" class="node"><title>E6</title>
<ellipse fill="azure" stroke="black" cx="417.5" cy="-295" rx="74.187" ry="18"/>
<text text-anchor="middle" x="417.5" y="-291.3" font-family="Times,serif" font-size="14.00">divide (S4,P221)</text>
</g>
<!-- E5&#45;&gt;E6 -->
<g id="edge11" class="edge"><title>E5&#45;&gt;E6</title>
<path fill="none" stroke="black" d="M273.268,-380.062C293.058,-366.449 322.683,-346.646 349.5,-331 358.273,-325.881 367.875,-320.696 377.028,-315.942"/>
<polygon fill="black" stroke="black" points="378.682,-319.027 385.982,-311.349 375.487,-312.798 378.682,-319.027"/>
<text text-anchor="middle" x="381.5" y="-349.8" font-family="Times,serif" font-size="14.00">OUTPUT: </text>
<text text-anchor="middle" x="381.5" y="-334.8" font-family="Times,serif" font-size="14.00">INPUT: </text>
</g>
<!-- E7 -->
<g id="node8" class="node"><title>E7</title>
<ellipse fill="azure" stroke="black" cx="614.5" cy="-193" rx="81.4863" ry="18"/>
<text text-anchor="middle" x="614.5" y="-189.3" font-family="Times,serif" font-size="14.00">sprinkle (S4,P251)</text>
</g>
<!-- E6&#45;&gt;E7 -->
<g id="edge14" class="edge"><title>E6&#45;&gt;E7</title>
<path fill="none" stroke="black" d="M448.281,-278.375C482.3,-261.107 537.205,-233.236 574.525,-214.292"/>
<polygon fill="black" stroke="black" points="576.278,-217.327 583.61,-209.68 573.109,-211.085 576.278,-217.327"/>
<text text-anchor="middle" x="577.5" y="-247.8" font-family="Times,serif" font-size="14.00">OUTPUT: </text>
<text text-anchor="middle" x="577.5" y="-232.8" font-family="Times,serif" font-size="14.00">INPUT: </text>
</g>
<!-- E12 -->
<g id="node13" class="node"><title>E12</title>
<ellipse fill="azure" stroke="black" cx="762.5" cy="-91" rx="69.5877" ry="18"/>
<text text-anchor="middle" x="762.5" y="-87.3" font-family="Times,serif" font-size="14.00">store (S7,P404)</text>
</g>
<!-- E7&#45;&gt;E12 -->
<g id="edge24" class="edge"><title>E7&#45;&gt;E12</title>
<path fill="none" stroke="black" d="M632.447,-175.294C647.91,-161.387 671.2,-141.577 693.5,-127 701.932,-121.488 711.346,-116.202 720.443,-111.482"/>
<polygon fill="black" stroke="black" points="722.038,-114.597 729.385,-106.963 718.882,-108.349 722.038,-114.597"/>
<text text-anchor="middle" x="726" y="-145.8" font-family="Times,serif" font-size="14.00">OUTPUT: </text>
<text text-anchor="middle" x="726" y="-130.8" font-family="Times,serif" font-size="14.00">INPUT: air</text>
</g>
<!-- E8&#45;&gt;E9 -->
<g id="edge19" class="edge"><title>E8&#45;&gt;E9</title>
<path fill="none" stroke="black" d="M1251.49,-482.322C1234.64,-465.801 1208.68,-440.343 1189.69,-421.721"/>
<polygon fill="black" stroke="black" points="1192.12,-419.205 1182.53,-414.703 1187.22,-424.203 1192.12,-419.205"/>
<text text-anchor="middle" x="1325.5" y="-451.8" font-family="Times,serif" font-size="14.00">OUTPUT: </text>
<text text-anchor="middle" x="1325.5" y="-436.8" font-family="Times,serif" font-size="14.00">INPUT: on a rack for 10 minutes</text>
</g>
<!-- E10 -->
<g id="node11" class="node"><title>E10</title>
<ellipse fill="azure" stroke="black" cx="1073.5" cy="-295" rx="79.0865" ry="18"/>
<text text-anchor="middle" x="1073.5" y="-291.3" font-family="Times,serif" font-size="14.00">remove (S6,P366)</text>
</g>
<!-- E9&#45;&gt;E10 -->
<g id="edge20" class="edge"><title>E9&#45;&gt;E10</title>
<path fill="none" stroke="black" d="M1149.89,-379.036C1135,-362.849 1112.41,-338.299 1095.66,-320.087"/>
<polygon fill="black" stroke="black" points="1098.22,-317.703 1088.88,-312.713 1093.07,-322.442 1098.22,-317.703"/>
<text text-anchor="middle" x="1180.5" y="-349.8" font-family="Times,serif" font-size="14.00">OUTPUT: </text>
<text text-anchor="middle" x="1180.5" y="-334.8" font-family="Times,serif" font-size="14.00">INPUT: muffins</text>
</g>
<!-- E11 -->
<g id="node12" class="node"><title>E11</title>
<ellipse fill="azure" stroke="black" cx="912.5" cy="-193" rx="83.3857" ry="18"/>
<text text-anchor="middle" x="912.5" y="-189.3" font-family="Times,serif" font-size="14.00">continue (S6,P382)</text>
</g>
<!-- E10&#45;&gt;E11 -->
<g id="edge22" class="edge"><title>E10&#45;&gt;E11</title>
<path fill="none" stroke="black" d="M1047.63,-277.933C1020.37,-260.999 977.274,-234.232 947.1,-215.491"/>
<polygon fill="black" stroke="black" points="948.912,-212.496 938.57,-210.193 945.218,-218.442 948.912,-212.496"/>
<text text-anchor="middle" x="1049.5" y="-247.8" font-family="Times,serif" font-size="14.00">OUTPUT: </text>
<text text-anchor="middle" x="1049.5" y="-232.8" font-family="Times,serif" font-size="14.00">INPUT: </text>
</g>
<!-- E11&#45;&gt;E12 -->
<g id="edge25" class="edge"><title>E11&#45;&gt;E12</title>
<path fill="none" stroke="black" d="M888.066,-175.711C862.747,-158.831 823.036,-132.357 795.064,-113.709"/>
<polygon fill="black" stroke="black" points="796.689,-110.586 786.427,-107.952 792.806,-116.411 796.689,-110.586"/>
<text text-anchor="middle" x="992" y="-145.8" font-family="Times,serif" font-size="14.00">OUTPUT: </text>
<text text-anchor="middle" x="992" y="-130.8" font-family="Times,serif" font-size="14.00">INPUT: at room temperature for up to 4 days</text>
</g>
<!-- EOR -->
<g id="node28" class="node"><title>EOR</title>
<ellipse fill="plum" stroke="black" cx="762.5" cy="-18" rx="57.3905" ry="18"/>
<text text-anchor="middle" x="762.5" y="-14.3" font-family="Times,serif" font-size="14.00">Bon appetit!</text>
</g>
<!-- E12&#45;&gt;EOR -->
<g id="edge27" class="edge"><title>E12&#45;&gt;EOR</title>
<path fill="none" stroke="black" d="M762.5,-72.8129C762.5,-64.7895 762.5,-55.0475 762.5,-46.0691"/>
<polygon fill="black" stroke="black" points="766,-46.0288 762.5,-36.0288 759,-46.0289 766,-46.0288"/>
</g>
<!-- D4 -->
<g id="node14" class="node"><title>D4</title>
<polygon fill="peachpuff" stroke="black" points="235,-623 0,-623 0,-585 235,-585 235,-623"/>
<text text-anchor="middle" x="117.5" y="-607.8" font-family="Times,serif" font-size="14.00">DOBJ: cinnamon&#45;flavored applesauce</text>
<text text-anchor="middle" x="117.5" y="-592.8" font-family="Times,serif" font-size="14.00">(text: 1/4 cup applesauce)</text>
</g>
<!-- D4&#45;&gt;E4 -->
<g id="edge1" class="edge"><title>D4&#45;&gt;E4</title>
<path fill="none" stroke="black" d="M117.5,-584.764C117.5,-569.031 117.5,-546.083 117.5,-528.183"/>
<polygon fill="black" stroke="black" points="121,-528.06 117.5,-518.06 114,-528.06 121,-528.06"/>
</g>
<!-- D0 -->
<g id="node15" class="node"><title>D0</title>
<polygon fill="white" stroke="black" points="1447.5,-726 1359.5,-726 1359.5,-690 1447.5,-690 1447.5,-726"/>
<text text-anchor="middle" x="1403.5" y="-704.3" font-family="Times,serif" font-size="14.00">DOBJ: oven</text>
</g>
<!-- D0&#45;&gt;E0 -->
<g id="edge2" class="edge"><title>D0&#45;&gt;E0</title>
<path fill="none" stroke="black" d="M1415.37,-689.697C1426.55,-673.407 1443.43,-648.814 1456.12,-630.319"/>
<polygon fill="black" stroke="black" points="1459.03,-632.273 1461.8,-622.047 1453.26,-628.312 1459.03,-632.273"/>
</g>
<!-- P0_0 -->
<g id="node16" class="node"><title>P0_0</title>
<polygon fill="white" stroke="black" points="1621.5,-726 1465.5,-726 1465.5,-690 1621.5,-690 1621.5,-726"/>
<text text-anchor="middle" x="1543.5" y="-704.3" font-family="Times,serif" font-size="14.00">PREP: to 400 degrees f.</text>
</g>
<!-- P0_0&#45;&gt;E0 -->
<g id="edge3" class="edge"><title>P0_0&#45;&gt;E0</title>
<path fill="none" stroke="black" d="M1531.63,-689.697C1520.45,-673.407 1503.57,-648.814 1490.88,-630.319"/>
<polygon fill="black" stroke="black" points="1493.74,-628.312 1485.2,-622.047 1487.97,-632.273 1493.74,-628.312"/>
</g>
<!-- D1 -->
<g id="node17" class="node"><title>D1</title>
<polygon fill="peachpuff" stroke="black" points="798,-802 439,-802 439,-764 798,-764 798,-802"/>
<text text-anchor="middle" x="618.5" y="-786.8" font-family="Times,serif" font-size="14.00">DOBJ: (14 ounce) box banana quick bread and muffin mix</text>
<text text-anchor="middle" x="618.5" y="-771.8" font-family="Times,serif" font-size="14.00">(text: a muffin tin)</text>
</g>
<!-- D1&#45;&gt;E1 -->
<g id="edge4" class="edge"><title>D1&#45;&gt;E1</title>
<path fill="none" stroke="black" d="M652.612,-763.955C672.408,-753.483 697.402,-740.262 717.914,-729.411"/>
<polygon fill="black" stroke="black" points="719.785,-732.381 726.988,-724.611 716.512,-726.194 719.785,-732.381"/>
</g>
<!-- P1_0 -->
<g id="node18" class="node"><title>P1_0</title>
<polygon fill="white" stroke="black" points="973,-801 816,-801 816,-765 973,-765 973,-801"/>
<text text-anchor="middle" x="894.5" y="-779.3" font-family="Times,serif" font-size="14.00">PREP: with paper liners</text>
</g>
<!-- P1_0&#45;&gt;E1 -->
<g id="edge5" class="edge"><title>P1_0&#45;&gt;E1</title>
<path fill="none" stroke="black" d="M862.145,-764.885C842.159,-754.312 816.395,-740.683 795.313,-729.531"/>
<polygon fill="black" stroke="black" points="796.771,-726.343 786.295,-724.761 793.498,-732.531 796.771,-726.343"/>
</g>
<!-- P2_0_ing -->
<g id="node19" class="node"><title>P2_0_ing</title>
<polygon fill="peachpuff" stroke="black" points="1233.5,-727 849.5,-727 849.5,-689 1233.5,-689 1233.5,-727"/>
<text text-anchor="middle" x="1041.5" y="-711.8" font-family="Times,serif" font-size="14.00">PREP: according vegetable oil, water, eggs</text>
<text text-anchor="middle" x="1041.5" y="-696.8" font-family="Times,serif" font-size="14.00">(text: according to package instructions using water , &#160;oil, &#160;eggs)</text>
</g>
<!-- P2_0_ing&#45;&gt;E2 -->
<g id="edge7" class="edge"><title>P2_0_ing&#45;&gt;E2</title>
<path fill="none" stroke="black" d="M1034.89,-688.764C1029.12,-672.883 1020.7,-649.651 1014.18,-631.68"/>
<polygon fill="black" stroke="black" points="1017.39,-630.267 1010.69,-622.06 1010.81,-632.654 1017.39,-630.267"/>
</g>
<!-- P5_0_ing -->
<g id="node20" class="node"><title>P5_0_ing</title>
<polygon fill="peachpuff" stroke="black" points="843,-519 200,-519 200,-481 843,-481 843,-519"/>
<text text-anchor="middle" x="521.5" y="-503.8" font-family="Times,serif" font-size="14.00">PREP: in sliced California Almonds, medium banana, semi&#45;sweet chocolate chips or chopped dark chocolate</text>
<text text-anchor="middle" x="521.5" y="-488.8" font-family="Times,serif" font-size="14.00">(text: in &#160;chocolate, banana , &#160;3/4 cup almonds)</text>
</g>
<!-- P5_0_ing&#45;&gt;E5 -->
<g id="edge10" class="edge"><title>P5_0_ing&#45;&gt;E5</title>
<path fill="none" stroke="black" d="M473.051,-480.943C423.095,-462.325 345.765,-433.505 296.665,-415.205"/>
<polygon fill="black" stroke="black" points="297.83,-411.905 287.238,-411.692 295.386,-418.464 297.83,-411.905"/>
</g>
<!-- P6_0_0 -->
<g id="node21" class="node"><title>P6_0_0</title>
<polygon fill="white" stroke="black" points="503.5,-415 331.5,-415 331.5,-379 503.5,-379 503.5,-415"/>
<text text-anchor="middle" x="417.5" y="-393.3" font-family="Times,serif" font-size="14.00">PREP: among muffin cups</text>
</g>
<!-- P6_0_0&#45;&gt;E6 -->
<g id="edge12" class="edge"><title>P6_0_0&#45;&gt;E6</title>
<path fill="none" stroke="black" d="M417.5,-378.581C417.5,-363.382 417.5,-341.067 417.5,-323.464"/>
<polygon fill="black" stroke="black" points="421,-323.219 417.5,-313.219 414,-323.219 421,-323.219"/>
</g>
<!-- O6_0_0 -->
<g id="node22" class="node"><title>O6_0_0</title>
<polygon fill="white" stroke="black" points="631.5,-415 521.5,-415 521.5,-379 631.5,-379 631.5,-415"/>
<text text-anchor="middle" x="576.5" y="-393.3" font-family="Times,serif" font-size="14.00">OTHER: evenly</text>
</g>
<!-- O6_0_0&#45;&gt;E6 -->
<g id="edge13" class="edge"><title>O6_0_0&#45;&gt;E6</title>
<path fill="none" stroke="black" d="M549.167,-378.809C522.13,-361.805 480.682,-335.737 451.527,-317.4"/>
<polygon fill="black" stroke="black" points="453.231,-314.338 442.903,-311.977 449.504,-320.263 453.231,-314.338"/>
</g>
<!-- P7_0_0 -->
<g id="node23" class="node"><title>P7_0_0</title>
<polygon fill="white" stroke="black" points="757.5,-313 509.5,-313 509.5,-277 757.5,-277 757.5,-313"/>
<text text-anchor="middle" x="633.5" y="-291.3" font-family="Times,serif" font-size="14.00">PREP: with remaining 1/4 cup almonds</text>
</g>
<!-- P7_0_0&#45;&gt;E7 -->
<g id="edge15" class="edge"><title>P7_0_0&#45;&gt;E7</title>
<path fill="none" stroke="black" d="M630.19,-276.581C627.303,-261.382 623.063,-239.067 619.718,-221.464"/>
<polygon fill="black" stroke="black" points="623.077,-220.39 617.772,-211.219 616.2,-221.697 623.077,-220.39"/>
</g>
<!-- O8_0_0 -->
<g id="node24" class="node"><title>O8_0_0</title>
<polygon fill="white" stroke="black" points="1387,-622 1150,-622 1150,-586 1387,-586 1387,-622"/>
<text text-anchor="middle" x="1268.5" y="-600.3" font-family="Times,serif" font-size="14.00">OTHER: until a tester comes out clean</text>
</g>
<!-- O8_0_0&#45;&gt;E8 -->
<g id="edge17" class="edge"><title>O8_0_0&#45;&gt;E8</title>
<path fill="none" stroke="black" d="M1268.5,-585.697C1268.5,-569.923 1268.5,-546.364 1268.5,-528.094"/>
<polygon fill="black" stroke="black" points="1272,-528.047 1268.5,-518.047 1265,-528.047 1272,-528.047"/>
</g>
<!-- O10_0_0 -->
<g id="node25" class="node"><title>O10_0_0</title>
<polygon fill="white" stroke="black" points="1080,-415 983,-415 983,-379 1080,-379 1080,-415"/>
<text text-anchor="middle" x="1031.5" y="-393.3" font-family="Times,serif" font-size="14.00">OTHER: then</text>
</g>
<!-- O10_0_0&#45;&gt;E10 -->
<g id="edge21" class="edge"><title>O10_0_0&#45;&gt;E10</title>
<path fill="none" stroke="black" d="M1038.82,-378.581C1045.32,-363.095 1054.93,-340.222 1062.38,-322.473"/>
<polygon fill="black" stroke="black" points="1065.62,-323.794 1066.27,-313.219 1059.17,-321.084 1065.62,-323.794"/>
</g>
<!-- O11_0_0 -->
<g id="node26" class="node"><title>O11_0_0</title>
<polygon fill="white" stroke="black" points="976,-313 813,-313 813,-277 976,-277 976,-313"/>
<text text-anchor="middle" x="894.5" y="-291.3" font-family="Times,serif" font-size="14.00">OTHER: cooling on rack</text>
</g>
<!-- O11_0_0&#45;&gt;E11 -->
<g id="edge23" class="edge"><title>O11_0_0&#45;&gt;E11</title>
<path fill="none" stroke="black" d="M897.635,-276.581C900.371,-261.382 904.388,-239.067 907.556,-221.464"/>
<polygon fill="black" stroke="black" points="911.074,-221.681 909.401,-211.219 904.184,-220.441 911.074,-221.681"/>
</g>
<!-- O12_0_0 -->
<g id="node27" class="node"><title>O12_0_0</title>
<polygon fill="white" stroke="black" points="811.5,-211 713.5,-211 713.5,-175 811.5,-175 811.5,-211"/>
<text text-anchor="middle" x="762.5" y="-189.3" font-family="Times,serif" font-size="14.00">OTHER: tight</text>
</g>
<!-- O12_0_0&#45;&gt;E12 -->
<g id="edge26" class="edge"><title>O12_0_0&#45;&gt;E12</title>
<path fill="none" stroke="black" d="M762.5,-174.581C762.5,-159.382 762.5,-137.067 762.5,-119.464"/>
<polygon fill="black" stroke="black" points="766,-119.219 762.5,-109.219 759,-119.219 766,-119.219"/>
</g>
</g>
</svg>
