<?xml version="1.0" encoding="UTF-8" standalone="no"?>
<!DOCTYPE svg PUBLIC "-//W3C//DTD SVG 1.1//EN"
 "http://www.w3.org/Graphics/SVG/1.1/DTD/svg11.dtd">
<!-- Generated by graphviz version 2.38.0 (20140413.2041)
 -->
<!-- Title: recipe Pages: 1 -->
<svg width="1360pt" height="706pt"
 viewBox="0.00 0.00 1359.50 706.00" xmlns="http://www.w3.org/2000/svg" xmlns:xlink="http://www.w3.org/1999/xlink">
<g id="graph0" class="graph" transform="scale(1 1) rotate(0) translate(4 702)">
<title>recipe</title>
<polygon fill="white" stroke="none" points="-4,4 -4,-702 1355.5,-702 1355.5,4 -4,4"/>
<!-- E0 -->
<g id="node1" class="node"><title>E0</title>
<ellipse fill="azure" stroke="black" cx="1207.5" cy="-398" rx="56.59" ry="18"/>
<text text-anchor="middle" x="1207.5" y="-394.3" font-family="Times,serif" font-size="14.00">heat (S0,P0)</text>
</g>
<!-- E1 -->
<g id="node2" class="node"><title>E1</title>
<ellipse fill="azure" stroke="black" cx="1056.5" cy="-295" rx="69.5877" ry="18"/>
<text text-anchor="middle" x="1056.5" y="-291.3" font-family="Times,serif" font-size="14.00">grease (S1,P22)</text>
</g>
<!-- E0&#45;&gt;E1 -->
<g id="edge5" class="edge"><title>E0&#45;&gt;E1</title>
<path fill="none" stroke="black" d="M1184.24,-381.44C1158.75,-364.39 1117.67,-336.918 1089.01,-317.743"/>
<polygon fill="black" stroke="black" points="1090.8,-314.729 1080.54,-312.079 1086.9,-320.548 1090.8,-314.729"/>
<text text-anchor="middle" x="1250.5" y="-349.8" font-family="Times,serif" font-size="14.00">OUTPUT: </text>
<text text-anchor="middle" x="1250.5" y="-334.8" font-family="Times,serif" font-size="14.00">INPUT: 12 muffin tin wells or line</text>
</g>
<!-- E6 -->
<g id="node7" class="node"><title>E6</title>
<ellipse fill="azure" stroke="black" cx="975.5" cy="-193" rx="74.187" ry="18"/>
<text text-anchor="middle" x="975.5" y="-189.3" font-family="Times,serif" font-size="14.00">spoon (S7,P210)</text>
</g>
<!-- E1&#45;&gt;E6 -->
<g id="edge15" class="edge"><title>E1&#45;&gt;E6</title>
<path fill="none" stroke="black" d="M1042.76,-277.036C1029.76,-260.993 1010.12,-236.737 995.407,-218.577"/>
<polygon fill="black" stroke="black" points="998.052,-216.281 989.038,-210.713 992.612,-220.687 998.052,-216.281"/>
<text text-anchor="middle" x="1122" y="-247.8" font-family="Times,serif" font-size="14.00">OUTPUT: </text>
<text text-anchor="middle" x="1122" y="-232.8" font-family="Times,serif" font-size="14.00">INPUT: into prepared muffin tin</text>
</g>
<!-- E2 -->
<g id="node3" class="node"><title>E2</title>
<ellipse fill="azure" stroke="black" cx="427.5" cy="-604" rx="61.1893" ry="18"/>
<text text-anchor="middle" x="427.5" y="-600.3" font-family="Times,serif" font-size="14.00">mix (S2,P77)</text>
</g>
<!-- E3 -->
<g id="node4" class="node"><title>E3</title>
<ellipse fill="azure" stroke="black" cx="655.5" cy="-501" rx="98.5829" ry="18"/>
<text text-anchor="middle" x="655.5" y="-497.3" font-family="Times,serif" font-size="14.00">whisk or sift (S3,P124)</text>
</g>
<!-- E2&#45;&gt;E3 -->
<g id="edge8" class="edge"><title>E2&#45;&gt;E3</title>
<path fill="none" stroke="black" d="M440.658,-586.237C453.516,-571.035 474.473,-549.194 497.5,-537 517.939,-526.177 541.57,-518.695 564.228,-513.525"/>
<polygon fill="black" stroke="black" points="565.168,-516.903 574.209,-511.379 563.696,-510.06 565.168,-516.903"/>
<text text-anchor="middle" x="574.5" y="-555.8" font-family="Times,serif" font-size="14.00">OUTPUT: </text>
<text text-anchor="middle" x="574.5" y="-540.8" font-family="Times,serif" font-size="14.00">INPUT: in a separate bowl</text>
</g>
<!-- E4 -->
<g id="node5" class="node"><title>E4</title>
<ellipse fill="azure" stroke="black" cx="707.5" cy="-398" rx="63.0888" ry="18"/>
<text text-anchor="middle" x="707.5" y="-394.3" font-family="Times,serif" font-size="14.00">stir (S4,P173)</text>
</g>
<!-- E3&#45;&gt;E4 -->
<g id="edge10" class="edge"><title>E3&#45;&gt;E4</title>
<path fill="none" stroke="black" d="M664.321,-482.867C672.513,-466.955 684.824,-443.044 694.207,-424.82"/>
<polygon fill="black" stroke="black" points="697.343,-426.373 698.809,-415.88 691.12,-423.169 697.343,-426.373"/>
<text text-anchor="middle" x="720.5" y="-453.8" font-family="Times,serif" font-size="14.00">OUTPUT: </text>
<text text-anchor="middle" x="720.5" y="-438.8" font-family="Times,serif" font-size="14.00">INPUT: </text>
</g>
<!-- E5 -->
<g id="node6" class="node"><title>E5</title>
<ellipse fill="azure" stroke="black" cx="875.5" cy="-295" rx="63.0888" ry="18"/>
<text text-anchor="middle" x="875.5" y="-291.3" font-family="Times,serif" font-size="14.00">stir (S6,P196)</text>
</g>
<!-- E4&#45;&gt;E5 -->
<g id="edge12" class="edge"><title>E4&#45;&gt;E5</title>
<path fill="none" stroke="black" d="M730.09,-381.078C750.072,-367.24 780.209,-346.967 807.5,-331 816.525,-325.72 826.432,-320.376 835.825,-315.508"/>
<polygon fill="black" stroke="black" points="837.685,-318.488 844.994,-310.818 834.497,-312.256 837.685,-318.488"/>
<text text-anchor="middle" x="839.5" y="-349.8" font-family="Times,serif" font-size="14.00">OUTPUT: </text>
<text text-anchor="middle" x="839.5" y="-334.8" font-family="Times,serif" font-size="14.00">INPUT: </text>
</g>
<!-- E5&#45;&gt;E6 -->
<g id="edge14" class="edge"><title>E5&#45;&gt;E6</title>
<path fill="none" stroke="black" d="M883.698,-277.013C891.099,-262.935 903.032,-243.03 917.5,-229 922.84,-223.821 929.082,-219.065 935.454,-214.839"/>
<polygon fill="black" stroke="black" points="937.519,-217.676 944.151,-209.414 933.814,-211.737 937.519,-217.676"/>
<text text-anchor="middle" x="958.5" y="-247.8" font-family="Times,serif" font-size="14.00">OUTPUT: </text>
<text text-anchor="middle" x="958.5" y="-232.8" font-family="Times,serif" font-size="14.00">INPUT: batter</text>
</g>
<!-- E7 -->
<g id="node8" class="node"><title>E7</title>
<ellipse fill="azure" stroke="black" cx="728.5" cy="-91" rx="94.7833" ry="18"/>
<text text-anchor="middle" x="728.5" y="-87.3" font-family="Times,serif" font-size="14.00">bake comes (S8,P315)</text>
</g>
<!-- E6&#45;&gt;E7 -->
<g id="edge16" class="edge"><title>E6&#45;&gt;E7</title>
<path fill="none" stroke="black" d="M939.054,-177.245C895.993,-159.811 824.201,-130.745 776.607,-111.476"/>
<polygon fill="black" stroke="black" points="777.715,-108.149 767.132,-107.64 775.088,-114.637 777.715,-108.149"/>
<text text-anchor="middle" x="962.5" y="-145.8" font-family="Times,serif" font-size="14.00">OUTPUT: </text>
<text text-anchor="middle" x="962.5" y="-130.8" font-family="Times,serif" font-size="14.00">INPUT: 15 to 20 minutes</text>
</g>
<!-- EOR -->
<g id="node21" class="node"><title>EOR</title>
<ellipse fill="plum" stroke="black" cx="728.5" cy="-18" rx="57.3905" ry="18"/>
<text text-anchor="middle" x="728.5" y="-14.3" font-family="Times,serif" font-size="14.00">Bon appetit!</text>
</g>
<!-- E7&#45;&gt;EOR -->
<g id="edge20" class="edge"><title>E7&#45;&gt;EOR</title>
<path fill="none" stroke="black" d="M728.5,-72.8129C728.5,-64.7895 728.5,-55.0475 728.5,-46.0691"/>
<polygon fill="black" stroke="black" points="732,-46.0288 728.5,-36.0288 725,-46.0289 732,-46.0288"/>
</g>
<!-- D0 -->
<g id="node9" class="node"><title>D0</title>
<polygon fill="white" stroke="black" points="1163.5,-519 1075.5,-519 1075.5,-483 1163.5,-483 1163.5,-519"/>
<text text-anchor="middle" x="1119.5" y="-497.3" font-family="Times,serif" font-size="14.00">DOBJ: oven</text>
</g>
<!-- D0&#45;&gt;E0 -->
<g id="edge1" class="edge"><title>D0&#45;&gt;E0</title>
<path fill="none" stroke="black" d="M1134.43,-482.867C1148.63,-466.566 1170.15,-441.869 1186.16,-423.491"/>
<polygon fill="black" stroke="black" points="1189.15,-425.384 1193.08,-415.546 1183.88,-420.786 1189.15,-425.384"/>
</g>
<!-- P0_0 -->
<g id="node10" class="node"><title>P0_0</title>
<polygon fill="white" stroke="black" points="1337.5,-519 1181.5,-519 1181.5,-483 1337.5,-483 1337.5,-519"/>
<text text-anchor="middle" x="1259.5" y="-497.3" font-family="Times,serif" font-size="14.00">PREP: to 375 degrees f.</text>
</g>
<!-- P0_0&#45;&gt;E0 -->
<g id="edge2" class="edge"><title>P0_0&#45;&gt;E0</title>
<path fill="none" stroke="black" d="M1250.68,-482.867C1242.49,-466.955 1230.18,-443.044 1220.79,-424.82"/>
<polygon fill="black" stroke="black" points="1223.88,-423.169 1216.19,-415.88 1217.66,-426.373 1223.88,-423.169"/>
</g>
<!-- D2 -->
<g id="node11" class="node"><title>D2</title>
<polygon fill="peachpuff" stroke="black" points="509,-698 2.84217e-14,-698 2.84217e-14,-660 509,-660 509,-698"/>
<text text-anchor="middle" x="254.5" y="-682.8" font-family="Times,serif" font-size="14.00">DOBJ: low&#45;fat milk, mashed ripe bananas, large eggs, mashed Avocado from Mexico</text>
<text text-anchor="middle" x="254.5" y="-667.8" font-family="Times,serif" font-size="14.00">(text: avocado , bananas , eggs, milk)</text>
</g>
<!-- D2&#45;&gt;E2 -->
<g id="edge3" class="edge"><title>D2&#45;&gt;E2</title>
<path fill="none" stroke="black" d="M297.264,-659.955C323.82,-648.749 357.84,-634.394 384.45,-623.166"/>
<polygon fill="black" stroke="black" points="386.038,-626.294 393.891,-619.182 383.317,-619.845 386.038,-626.294"/>
</g>
<!-- P2_0 -->
<g id="node12" class="node"><title>P2_0</title>
<polygon fill="white" stroke="black" points="673.5,-697 527.5,-697 527.5,-661 673.5,-661 673.5,-697"/>
<text text-anchor="middle" x="600.5" y="-675.3" font-family="Times,serif" font-size="14.00">PREP: in a large bowl</text>
</g>
<!-- P2_0&#45;&gt;E2 -->
<g id="edge4" class="edge"><title>P2_0&#45;&gt;E2</title>
<path fill="none" stroke="black" d="M559.939,-660.885C533.049,-649.538 497.814,-634.67 470.448,-623.123"/>
<polygon fill="black" stroke="black" points="471.697,-619.851 461.123,-619.188 468.976,-626.3 471.697,-619.851"/>
</g>
<!-- P1_0_0 -->
<g id="node13" class="node"><title>P1_0_0</title>
<polygon fill="white" stroke="black" points="1132.5,-416 980.5,-416 980.5,-380 1132.5,-380 1132.5,-416"/>
<text text-anchor="middle" x="1056.5" y="-394.3" font-family="Times,serif" font-size="14.00">PREP: with paper cups</text>
</g>
<!-- P1_0_0&#45;&gt;E1 -->
<g id="edge6" class="edge"><title>P1_0_0&#45;&gt;E1</title>
<path fill="none" stroke="black" d="M1056.5,-379.867C1056.5,-364.414 1056.5,-341.416 1056.5,-323.409"/>
<polygon fill="black" stroke="black" points="1060,-323.217 1056.5,-313.217 1053,-323.217 1060,-323.217"/>
</g>
<!-- D3_ing -->
<g id="node14" class="node"><title>D3_ing</title>
<polygon fill="peachpuff" stroke="black" points="804.5,-623 506.5,-623 506.5,-585 804.5,-585 804.5,-623"/>
<text text-anchor="middle" x="655.5" y="-607.8" font-family="Times,serif" font-size="14.00">DOBJ: all&#45;purpose flour, baking soda, sugar, salt</text>
<text text-anchor="middle" x="655.5" y="-592.8" font-family="Times,serif" font-size="14.00">(text: &#160;salt, flour , &#160;sugar , &#160;baking soda)</text>
</g>
<!-- D3_ing&#45;&gt;E3 -->
<g id="edge7" class="edge"><title>D3_ing&#45;&gt;E3</title>
<path fill="none" stroke="black" d="M655.5,-584.943C655.5,-569.531 655.5,-547.127 655.5,-529.488"/>
<polygon fill="black" stroke="black" points="659,-529.226 655.5,-519.226 652,-529.226 659,-529.226"/>
</g>
<!-- O3_0_0 -->
<g id="node15" class="node"><title>O3_0_0</title>
<polygon fill="white" stroke="black" points="942,-622 823,-622 823,-586 942,-586 942,-622"/>
<text text-anchor="middle" x="882.5" y="-600.3" font-family="Times,serif" font-size="14.00">OTHER: together</text>
</g>
<!-- O3_0_0&#45;&gt;E3 -->
<g id="edge9" class="edge"><title>O3_0_0&#45;&gt;E3</title>
<path fill="none" stroke="black" d="M844.249,-585.981C804.544,-568.315 742.479,-540.7 700.456,-522.003"/>
<polygon fill="black" stroke="black" points="701.843,-518.789 691.284,-517.921 698.998,-525.184 701.843,-518.789"/>
</g>
<!-- P4_0_0 -->
<g id="node16" class="node"><title>P4_0_0</title>
<polygon fill="white" stroke="black" points="954.5,-519 772.5,-519 772.5,-483 954.5,-483 954.5,-519"/>
<text text-anchor="middle" x="863.5" y="-497.3" font-family="Times,serif" font-size="14.00">PREP: into avocado mixture</text>
</g>
<!-- P4_0_0&#45;&gt;E4 -->
<g id="edge11" class="edge"><title>P4_0_0&#45;&gt;E4</title>
<path fill="none" stroke="black" d="M837.037,-482.867C810.331,-465.576 769.035,-438.84 740.274,-420.219"/>
<polygon fill="black" stroke="black" points="742.076,-417.217 731.78,-414.72 738.272,-423.093 742.076,-417.217"/>
</g>
<!-- P5_0_ing -->
<g id="node17" class="node"><title>P5_0_ing</title>
<polygon fill="peachpuff" stroke="black" points="962,-417 789,-417 789,-379 962,-379 962,-417"/>
<text text-anchor="middle" x="875.5" y="-401.8" font-family="Times,serif" font-size="14.00">PREP: in chopped walnuts</text>
<text text-anchor="middle" x="875.5" y="-386.8" font-family="Times,serif" font-size="14.00">(text: in walnuts)</text>
</g>
<!-- P5_0_ing&#45;&gt;E5 -->
<g id="edge13" class="edge"><title>P5_0_ing&#45;&gt;E5</title>
<path fill="none" stroke="black" d="M875.5,-378.943C875.5,-363.531 875.5,-341.127 875.5,-323.488"/>
<polygon fill="black" stroke="black" points="879,-323.226 875.5,-313.226 872,-323.226 879,-323.226"/>
</g>
<!-- O7_0_0 -->
<g id="node18" class="node"><title>O7_0_0</title>
<polygon fill="white" stroke="black" points="511.5,-211 243.5,-211 243.5,-175 511.5,-175 511.5,-211"/>
<text text-anchor="middle" x="377.5" y="-189.3" font-family="Times,serif" font-size="14.00">OTHER: &#160;a toothpick inserted into a muffin</text>
</g>
<!-- O7_0_0&#45;&gt;E7 -->
<g id="edge17" class="edge"><title>O7_0_0&#45;&gt;E7</title>
<path fill="none" stroke="black" d="M437.44,-174.923C501.972,-156.538 604.03,-127.462 668.561,-109.077"/>
<polygon fill="black" stroke="black" points="669.534,-112.439 678.192,-106.333 667.616,-105.707 669.534,-112.439"/>
</g>
<!-- O7_0_1 -->
<g id="node19" class="node"><title>O7_0_1</title>
<polygon fill="white" stroke="black" points="741.5,-211 529.5,-211 529.5,-175 741.5,-175 741.5,-211"/>
<text text-anchor="middle" x="635.5" y="-189.3" font-family="Times,serif" font-size="14.00">OTHER: until tops start to brown</text>
</g>
<!-- O7_0_1&#45;&gt;E7 -->
<g id="edge18" class="edge"><title>O7_0_1&#45;&gt;E7</title>
<path fill="none" stroke="black" d="M651.699,-174.581C666.592,-158.568 688.83,-134.656 705.549,-116.679"/>
<polygon fill="black" stroke="black" points="708.549,-118.592 712.796,-108.886 703.423,-113.825 708.549,-118.592"/>
</g>
<!-- O7_1_0 -->
<g id="node20" class="node"><title>O7_1_0</title>
<polygon fill="white" stroke="black" points="883.5,-211 759.5,-211 759.5,-175 883.5,-175 883.5,-211"/>
<text text-anchor="middle" x="821.5" y="-189.3" font-family="Times,serif" font-size="14.00">OTHER: out clean</text>
</g>
<!-- O7_1_0&#45;&gt;E7 -->
<g id="edge19" class="edge"><title>O7_1_0&#45;&gt;E7</title>
<path fill="none" stroke="black" d="M805.301,-174.581C790.408,-158.568 768.17,-134.656 751.451,-116.679"/>
<polygon fill="black" stroke="black" points="753.577,-113.825 744.204,-108.886 748.451,-118.592 753.577,-113.825"/>
</g>
</g>
</svg>
