<?xml version="1.0" encoding="UTF-8" standalone="no"?>
<!DOCTYPE svg PUBLIC "-//W3C//DTD SVG 1.1//EN"
 "http://www.w3.org/Graphics/SVG/1.1/DTD/svg11.dtd">
<!-- Generated by graphviz version 2.38.0 (20140413.2041)
 -->
<!-- Title: recipe Pages: 1 -->
<svg width="1672pt" height="810pt"
 viewBox="0.00 0.00 1672.00 810.00" xmlns="http://www.w3.org/2000/svg" xmlns:xlink="http://www.w3.org/1999/xlink">
<g id="graph0" class="graph" transform="scale(1 1) rotate(0) translate(4 806)">
<title>recipe</title>
<polygon fill="white" stroke="none" points="-4,4 -4,-806 1668,-806 1668,4 -4,4"/>
<!-- E0 -->
<g id="node1" class="node"><title>E0</title>
<ellipse fill="azure" stroke="black" cx="1477" cy="-193" rx="68.7879" ry="18"/>
<text text-anchor="middle" x="1477" y="-189.3" font-family="Times,serif" font-size="14.00">preheat (S0,P0)</text>
</g>
<!-- E8 -->
<g id="node9" class="node"><title>E8</title>
<ellipse fill="azure" stroke="black" cx="1314" cy="-91" rx="68.7879" ry="18"/>
<text text-anchor="middle" x="1314" y="-87.3" font-family="Times,serif" font-size="14.00">bake (S8,P373)</text>
</g>
<!-- E0&#45;&gt;E8 -->
<g id="edge22" class="edge"><title>E0&#45;&gt;E8</title>
<path fill="none" stroke="black" d="M1451.17,-176.155C1423.39,-159.112 1379.08,-131.929 1348.37,-113.089"/>
<polygon fill="black" stroke="black" points="1350.06,-110.017 1339.71,-107.771 1346.4,-115.984 1350.06,-110.017"/>
<text text-anchor="middle" x="1542" y="-145.8" font-family="Times,serif" font-size="14.00">OUTPUT: </text>
<text text-anchor="middle" x="1542" y="-130.8" font-family="Times,serif" font-size="14.00">INPUT: in preheated oven for 20 minutes </text>
</g>
<!-- E1 -->
<g id="node2" class="node"><title>E1</title>
<ellipse fill="azure" stroke="black" cx="857" cy="-295" rx="69.5877" ry="18"/>
<text text-anchor="middle" x="857" y="-291.3" font-family="Times,serif" font-size="14.00">grease (S1,P38)</text>
</g>
<!-- E7 -->
<g id="node8" class="node"><title>E7</title>
<ellipse fill="azure" stroke="black" cx="1145" cy="-193" rx="74.187" ry="18"/>
<text text-anchor="middle" x="1145" y="-189.3" font-family="Times,serif" font-size="14.00">spoon (S7,P347)</text>
</g>
<!-- E1&#45;&gt;E7 -->
<g id="edge20" class="edge"><title>E1&#45;&gt;E7</title>
<path fill="none" stroke="black" d="M889.374,-278.994C920.586,-264.891 969.377,-243.796 1013,-229 1035.79,-221.272 1061.25,-214.171 1083.69,-208.414"/>
<polygon fill="black" stroke="black" points="1084.59,-211.795 1093.43,-205.949 1082.88,-205.009 1084.59,-211.795"/>
<text text-anchor="middle" x="1085.5" y="-247.8" font-family="Times,serif" font-size="14.00">OUTPUT: </text>
<text text-anchor="middle" x="1085.5" y="-232.8" font-family="Times,serif" font-size="14.00">INPUT: into muffin cups</text>
</g>
<!-- E2 -->
<g id="node3" class="node"><title>E2</title>
<ellipse fill="azure" stroke="black" cx="221" cy="-708" rx="61.1893" ry="18"/>
<text text-anchor="middle" x="221" y="-704.3" font-family="Times,serif" font-size="14.00">mix (S2,P96)</text>
</g>
<!-- E3 -->
<g id="node4" class="node"><title>E3</title>
<ellipse fill="azure" stroke="black" cx="514" cy="-604" rx="66.0889" ry="18"/>
<text text-anchor="middle" x="514" y="-600.3" font-family="Times,serif" font-size="14.00">beat (S3,P137)</text>
</g>
<!-- E2&#45;&gt;E3 -->
<g id="edge7" class="edge"><title>E2&#45;&gt;E3</title>
<path fill="none" stroke="black" d="M249.933,-692.133C279.133,-677.581 325.815,-655.538 368,-641 395.248,-631.61 426.146,-623.624 452.479,-617.577"/>
<polygon fill="black" stroke="black" points="453.346,-620.969 462.331,-615.355 451.806,-614.141 453.346,-620.969"/>
<text text-anchor="middle" x="439" y="-659.8" font-family="Times,serif" font-size="14.00">OUTPUT: </text>
<text text-anchor="middle" x="439" y="-644.8" font-family="Times,serif" font-size="14.00">INPUT: in another bowl</text>
</g>
<!-- E4 -->
<g id="node5" class="node"><title>E4</title>
<ellipse fill="azure" stroke="black" cx="794" cy="-501" rx="63.0888" ry="18"/>
<text text-anchor="middle" x="794" y="-497.3" font-family="Times,serif" font-size="14.00">stir (S4,P194)</text>
</g>
<!-- E3&#45;&gt;E4 -->
<g id="edge10" class="edge"><title>E3&#45;&gt;E4</title>
<path fill="none" stroke="black" d="M542.04,-587.635C569.622,-573.018 613.255,-551.207 653,-537 678.999,-527.706 708.545,-519.961 733.851,-514.139"/>
<polygon fill="black" stroke="black" points="734.7,-517.536 743.686,-511.923 733.161,-510.707 734.7,-517.536"/>
<text text-anchor="middle" x="721.5" y="-555.8" font-family="Times,serif" font-size="14.00">OUTPUT: </text>
<text text-anchor="middle" x="721.5" y="-540.8" font-family="Times,serif" font-size="14.00">INPUT: in a large bowl</text>
</g>
<!-- E5 -->
<g id="node6" class="node"><title>E5</title>
<ellipse fill="azure" stroke="black" cx="1047" cy="-398" rx="63.0888" ry="18"/>
<text text-anchor="middle" x="1047" y="-394.3" font-family="Times,serif" font-size="14.00">stir (S5,P247)</text>
</g>
<!-- E4&#45;&gt;E5 -->
<g id="edge14" class="edge"><title>E4&#45;&gt;E5</title>
<path fill="none" stroke="black" d="M799.707,-482.831C805.719,-467.615 816.743,-446.136 834,-435 887.083,-400.746 912.914,-428.681 975,-417 980.759,-415.916 986.745,-414.65 992.695,-413.299"/>
<polygon fill="black" stroke="black" points="993.694,-416.66 1002.63,-410.964 992.092,-409.845 993.694,-416.66"/>
<text text-anchor="middle" x="911" y="-453.8" font-family="Times,serif" font-size="14.00">OUTPUT: </text>
<text text-anchor="middle" x="911" y="-438.8" font-family="Times,serif" font-size="14.00">INPUT: into flour mixture</text>
</g>
<!-- E6 -->
<g id="node7" class="node"><title>E6</title>
<ellipse fill="azure" stroke="black" cx="1191" cy="-295" rx="63.0888" ry="18"/>
<text text-anchor="middle" x="1191" y="-291.3" font-family="Times,serif" font-size="14.00">stir (S6,P323)</text>
</g>
<!-- E5&#45;&gt;E6 -->
<g id="edge16" class="edge"><title>E5&#45;&gt;E6</title>
<path fill="none" stroke="black" d="M1066.4,-380.813C1083.3,-366.988 1108.68,-346.879 1132,-331 1139.22,-326.086 1147.14,-321.116 1154.77,-316.525"/>
<polygon fill="black" stroke="black" points="1156.71,-319.442 1163.54,-311.336 1153.15,-313.418 1156.71,-319.442"/>
<text text-anchor="middle" x="1164" y="-349.8" font-family="Times,serif" font-size="14.00">OUTPUT: </text>
<text text-anchor="middle" x="1164" y="-334.8" font-family="Times,serif" font-size="14.00">INPUT: </text>
</g>
<!-- E6&#45;&gt;E7 -->
<g id="edge19" class="edge"><title>E6&#45;&gt;E7</title>
<path fill="none" stroke="black" d="M1183.2,-277.036C1176.06,-261.521 1165.39,-238.323 1157.14,-220.388"/>
<polygon fill="black" stroke="black" points="1160.2,-218.669 1152.84,-211.047 1153.84,-221.594 1160.2,-218.669"/>
<text text-anchor="middle" x="1216" y="-247.8" font-family="Times,serif" font-size="14.00">OUTPUT: </text>
<text text-anchor="middle" x="1216" y="-232.8" font-family="Times,serif" font-size="14.00">INPUT: batter</text>
</g>
<!-- E7&#45;&gt;E8 -->
<g id="edge21" class="edge"><title>E7&#45;&gt;E8</title>
<path fill="none" stroke="black" d="M1168.68,-175.84C1188.89,-162.267 1218.91,-142.639 1246,-127 1254.88,-121.872 1264.6,-116.651 1273.83,-111.861"/>
<polygon fill="black" stroke="black" points="1275.55,-114.911 1282.86,-107.234 1272.36,-108.682 1275.55,-114.911"/>
<text text-anchor="middle" x="1278" y="-145.8" font-family="Times,serif" font-size="14.00">OUTPUT: </text>
<text text-anchor="middle" x="1278" y="-130.8" font-family="Times,serif" font-size="14.00">INPUT: </text>
</g>
<!-- EOR -->
<g id="node25" class="node"><title>EOR</title>
<ellipse fill="plum" stroke="black" cx="1314" cy="-18" rx="57.3905" ry="18"/>
<text text-anchor="middle" x="1314" y="-14.3" font-family="Times,serif" font-size="14.00">Bon appetit!</text>
</g>
<!-- E8&#45;&gt;EOR -->
<g id="edge24" class="edge"><title>E8&#45;&gt;EOR</title>
<path fill="none" stroke="black" d="M1314,-72.8129C1314,-64.7895 1314,-55.0475 1314,-46.0691"/>
<polygon fill="black" stroke="black" points="1317.5,-46.0288 1314,-36.0288 1310.5,-46.0289 1317.5,-46.0288"/>
</g>
<!-- D2 -->
<g id="node10" class="node"><title>D2</title>
<polygon fill="peachpuff" stroke="black" points="120,-802 0,-802 0,-764 120,-764 120,-802"/>
<text text-anchor="middle" x="60" y="-786.8" font-family="Times,serif" font-size="14.00">DOBJ: buttermilk</text>
<text text-anchor="middle" x="60" y="-771.8" font-family="Times,serif" font-size="14.00">(text: buttermilk)</text>
</g>
<!-- D2&#45;&gt;E2 -->
<g id="edge1" class="edge"><title>D2&#45;&gt;E2</title>
<path fill="none" stroke="black" d="M99.7978,-763.955C124.131,-752.922 155.197,-738.836 179.785,-727.687"/>
<polygon fill="black" stroke="black" points="181.541,-730.734 189.204,-723.417 178.651,-724.359 181.541,-730.734"/>
</g>
<!-- P2_0 -->
<g id="node11" class="node"><title>P2_0</title>
<polygon fill="white" stroke="black" points="303.5,-801 138.5,-801 138.5,-765 303.5,-765 303.5,-801"/>
<text text-anchor="middle" x="221" y="-779.3" font-family="Times,serif" font-size="14.00">PREP: in a medium bowl</text>
</g>
<!-- P2_0&#45;&gt;E2 -->
<g id="edge2" class="edge"><title>P2_0&#45;&gt;E2</title>
<path fill="none" stroke="black" d="M221,-764.7C221,-756.245 221,-745.869 221,-736.373"/>
<polygon fill="black" stroke="black" points="224.5,-736.176 221,-726.176 217.5,-736.176 224.5,-736.176"/>
</g>
<!-- P2_1 -->
<g id="node12" class="node"><title>P2_1</title>
<polygon fill="peachpuff" stroke="black" points="476,-802 322,-802 322,-764 476,-764 476,-802"/>
<text text-anchor="middle" x="399" y="-786.8" font-family="Times,serif" font-size="14.00">PREP: with wheat bran</text>
<text text-anchor="middle" x="399" y="-771.8" font-family="Times,serif" font-size="14.00">(text: with wheat bran)</text>
</g>
<!-- P2_1&#45;&gt;E2 -->
<g id="edge3" class="edge"><title>P2_1&#45;&gt;E2</title>
<path fill="none" stroke="black" d="M355,-763.955C327.464,-752.662 292.13,-738.171 264.659,-726.905"/>
<polygon fill="black" stroke="black" points="265.876,-723.621 255.295,-723.065 263.22,-730.098 265.876,-723.621"/>
</g>
<!-- D0 -->
<g id="node13" class="node"><title>D0</title>
<polygon fill="white" stroke="black" points="1636,-313 1318,-313 1318,-277 1636,-277 1636,-313"/>
<text text-anchor="middle" x="1477" y="-291.3" font-family="Times,serif" font-size="14.00">DOBJ: oven to 400 degrees F &#45;LRB&#45; 200 degrees C</text>
</g>
<!-- D0&#45;&gt;E0 -->
<g id="edge4" class="edge"><title>D0&#45;&gt;E0</title>
<path fill="none" stroke="black" d="M1477,-276.581C1477,-261.382 1477,-239.067 1477,-221.464"/>
<polygon fill="black" stroke="black" points="1480.5,-221.219 1477,-211.219 1473.5,-221.219 1480.5,-221.219"/>
</g>
<!-- D1 -->
<g id="node14" class="node"><title>D1</title>
<polygon fill="white" stroke="black" points="966,-416 652,-416 652,-380 966,-380 966,-416"/>
<text text-anchor="middle" x="809" y="-394.3" font-family="Times,serif" font-size="14.00">DOBJ: muffin cups or line with paper muffin liners</text>
</g>
<!-- D1&#45;&gt;E1 -->
<g id="edge5" class="edge"><title>D1&#45;&gt;E1</title>
<path fill="none" stroke="black" d="M817.143,-379.867C824.67,-364.028 835.964,-340.263 844.61,-322.071"/>
<polygon fill="black" stroke="black" points="847.846,-323.415 848.978,-312.88 841.524,-320.41 847.846,-323.415"/>
</g>
<!-- D3_ing -->
<g id="node15" class="node"><title>D3_ing</title>
<polygon fill="peachpuff" stroke="black" points="728,-727 300,-727 300,-689 728,-689 728,-727"/>
<text text-anchor="middle" x="514" y="-711.8" font-family="Times,serif" font-size="14.00">DOBJ: canola oil, vanilla extract, ripe banana, egg, packed brown sugar</text>
<text text-anchor="middle" x="514" y="-696.8" font-family="Times,serif" font-size="14.00">(text: &#160;oil , &#160;vanilla, &#160;banana , &#160;sugar , egg )</text>
</g>
<!-- D3_ing&#45;&gt;E3 -->
<g id="edge6" class="edge"><title>D3_ing&#45;&gt;E3</title>
<path fill="none" stroke="black" d="M514,-688.764C514,-673.031 514,-650.083 514,-632.183"/>
<polygon fill="black" stroke="black" points="517.5,-632.06 514,-622.06 510.5,-632.06 517.5,-632.06"/>
</g>
<!-- O3_0_0 -->
<g id="node16" class="node"><title>O3_0_0</title>
<polygon fill="white" stroke="black" points="865.5,-726 746.5,-726 746.5,-690 865.5,-690 865.5,-726"/>
<text text-anchor="middle" x="806" y="-704.3" font-family="Times,serif" font-size="14.00">OTHER: together</text>
</g>
<!-- O3_0_0&#45;&gt;E3 -->
<g id="edge8" class="edge"><title>O3_0_0&#45;&gt;E3</title>
<path fill="none" stroke="black" d="M757.126,-689.927C703.173,-671.081 616.834,-640.922 562.879,-622.074"/>
<polygon fill="black" stroke="black" points="563.792,-618.686 553.197,-618.692 561.483,-625.294 563.792,-618.686"/>
</g>
<!-- D4_ing -->
<g id="node17" class="node"><title>D4_ing</title>
<polygon fill="peachpuff" stroke="black" points="990,-623 598,-623 598,-585 990,-585 990,-623"/>
<text text-anchor="middle" x="794" y="-607.8" font-family="Times,serif" font-size="14.00">DOBJ: baking powder, oat bran, whole wheat flour, baking soda</text>
<text text-anchor="middle" x="794" y="-592.8" font-family="Times,serif" font-size="14.00">(text: &#160;baking powder, flour , &#160;baking soda , &#160;oat bran )</text>
</g>
<!-- D4_ing&#45;&gt;E4 -->
<g id="edge9" class="edge"><title>D4_ing&#45;&gt;E4</title>
<path fill="none" stroke="black" d="M794,-584.943C794,-569.531 794,-547.127 794,-529.488"/>
<polygon fill="black" stroke="black" points="797.5,-529.226 794,-519.226 790.5,-529.226 797.5,-529.226"/>
</g>
<!-- O4_0_0 -->
<g id="node18" class="node"><title>O4_0_0</title>
<polygon fill="white" stroke="black" points="1127.5,-622 1008.5,-622 1008.5,-586 1127.5,-586 1127.5,-622"/>
<text text-anchor="middle" x="1068" y="-600.3" font-family="Times,serif" font-size="14.00">OTHER: together</text>
</g>
<!-- O4_0_0&#45;&gt;E4 -->
<g id="edge11" class="edge"><title>O4_0_0&#45;&gt;E4</title>
<path fill="none" stroke="black" d="M1021.83,-585.981C971.395,-567.39 891.069,-537.781 840.503,-519.142"/>
<polygon fill="black" stroke="black" points="841.707,-515.855 831.113,-515.68 839.285,-522.423 841.707,-515.855"/>
</g>
<!-- D5_0 -->
<g id="node19" class="node"><title>D5_0</title>
<polygon fill="white" stroke="black" points="1045.5,-519 876.5,-519 876.5,-483 1045.5,-483 1045.5,-519"/>
<text text-anchor="middle" x="961" y="-497.3" font-family="Times,serif" font-size="14.00">DOBJ: buttermilk mixture</text>
</g>
<!-- D5_0&#45;&gt;E5 -->
<g id="edge12" class="edge"><title>D5_0&#45;&gt;E5</title>
<path fill="none" stroke="black" d="M975.589,-482.867C989.469,-466.566 1010.5,-441.869 1026.15,-423.491"/>
<polygon fill="black" stroke="black" points="1029.09,-425.428 1032.91,-415.546 1023.76,-420.89 1029.09,-425.428"/>
</g>
<!-- D5_1 -->
<g id="node20" class="node"><title>D5_1</title>
<polygon fill="white" stroke="black" points="1198,-519 1064,-519 1064,-483 1198,-483 1198,-519"/>
<text text-anchor="middle" x="1131" y="-497.3" font-family="Times,serif" font-size="14.00">DOBJ: &#160;egg mixture</text>
</g>
<!-- D5_1&#45;&gt;E5 -->
<g id="edge13" class="edge"><title>D5_1&#45;&gt;E5</title>
<path fill="none" stroke="black" d="M1116.75,-482.867C1103.27,-466.663 1082.9,-442.164 1067.64,-423.822"/>
<polygon fill="black" stroke="black" points="1070.12,-421.331 1061.04,-415.88 1064.74,-425.807 1070.12,-421.331"/>
</g>
<!-- O5_0_0 -->
<g id="node21" class="node"><title>O5_0_0</title>
<polygon fill="white" stroke="black" points="1446,-519 1216,-519 1216,-483 1446,-483 1446,-519"/>
<text text-anchor="middle" x="1331" y="-497.3" font-family="Times,serif" font-size="14.00">OTHER: until flour is just moistened</text>
</g>
<!-- O5_0_0&#45;&gt;E5 -->
<g id="edge15" class="edge"><title>O5_0_0&#45;&gt;E5</title>
<path fill="none" stroke="black" d="M1283.14,-482.981C1230.72,-464.337 1147.14,-434.613 1094.75,-415.983"/>
<polygon fill="black" stroke="black" points="1095.63,-412.578 1085.03,-412.525 1093.28,-419.174 1095.63,-412.578"/>
</g>
<!-- P6_0_ing -->
<g id="node22" class="node"><title>P6_0_ing</title>
<polygon fill="peachpuff" stroke="black" points="1301.5,-417 1128.5,-417 1128.5,-379 1301.5,-379 1301.5,-417"/>
<text text-anchor="middle" x="1215" y="-401.8" font-family="Times,serif" font-size="14.00">PREP: in chopped walnuts</text>
<text text-anchor="middle" x="1215" y="-386.8" font-family="Times,serif" font-size="14.00">(text: in &#160;walnuts)</text>
</g>
<!-- P6_0_ing&#45;&gt;E6 -->
<g id="edge17" class="edge"><title>P6_0_ing&#45;&gt;E6</title>
<path fill="none" stroke="black" d="M1210.71,-378.943C1207.01,-363.386 1201.62,-340.704 1197.41,-322.99"/>
<polygon fill="black" stroke="black" points="1200.81,-322.146 1195.09,-313.226 1194,-323.765 1200.81,-322.146"/>
</g>
<!-- P6_0_0 -->
<g id="node23" class="node"><title>P6_0_0</title>
<polygon fill="white" stroke="black" points="1432.5,-416 1319.5,-416 1319.5,-380 1432.5,-380 1432.5,-416"/>
<text text-anchor="middle" x="1376" y="-394.3" font-family="Times,serif" font-size="14.00">PREP: in berries</text>
</g>
<!-- P6_0_0&#45;&gt;E6 -->
<g id="edge18" class="edge"><title>P6_0_0&#45;&gt;E6</title>
<path fill="none" stroke="black" d="M1344.62,-379.867C1312.39,-362.273 1262.25,-334.899 1228.08,-316.246"/>
<polygon fill="black" stroke="black" points="1229.35,-312.952 1218.9,-311.232 1226,-319.096 1229.35,-312.952"/>
</g>
<!-- P8_0_1 -->
<g id="node24" class="node"><title>P8_0_1</title>
<polygon fill="white" stroke="black" points="1390.5,-211 1237.5,-211 1237.5,-175 1390.5,-175 1390.5,-211"/>
<text text-anchor="middle" x="1314" y="-189.3" font-family="Times,serif" font-size="14.00">PREP: in &#160;or until done</text>
</g>
<!-- P8_0_1&#45;&gt;E8 -->
<g id="edge23" class="edge"><title>P8_0_1&#45;&gt;E8</title>
<path fill="none" stroke="black" d="M1314,-174.581C1314,-159.382 1314,-137.067 1314,-119.464"/>
<polygon fill="black" stroke="black" points="1317.5,-119.219 1314,-109.219 1310.5,-119.219 1317.5,-119.219"/>
</g>
</g>
</svg>
