<?xml version="1.0" encoding="UTF-8" standalone="no"?>
<!DOCTYPE svg PUBLIC "-//W3C//DTD SVG 1.1//EN"
 "http://www.w3.org/Graphics/SVG/1.1/DTD/svg11.dtd">
<!-- Generated by graphviz version 2.38.0 (20140413.2041)
 -->
<!-- Title: recipe Pages: 1 -->
<svg width="1222pt" height="604pt"
 viewBox="0.00 0.00 1221.50 604.00" xmlns="http://www.w3.org/2000/svg" xmlns:xlink="http://www.w3.org/1999/xlink">
<g id="graph0" class="graph" transform="scale(1 1) rotate(0) translate(4 600)">
<title>recipe</title>
<polygon fill="white" stroke="none" points="-4,4 -4,-600 1217.5,-600 1217.5,4 -4,4"/>
<!-- E0 -->
<g id="node1" class="node"><title>E0</title>
<ellipse fill="azure" stroke="black" cx="965.5" cy="-295" rx="73.387" ry="18"/>
<text text-anchor="middle" x="965.5" y="-291.3" font-family="Times,serif" font-size="14.00">combine (S0,P0)</text>
</g>
<!-- E5 -->
<g id="node6" class="node"><title>E5</title>
<ellipse fill="azure" stroke="black" cx="757.5" cy="-193" rx="63.0888" ry="18"/>
<text text-anchor="middle" x="757.5" y="-189.3" font-family="Times,serif" font-size="14.00">stir (S4,P150)</text>
</g>
<!-- E0&#45;&gt;E5 -->
<g id="edge10" class="edge"><title>E0&#45;&gt;E5</title>
<path fill="none" stroke="black" d="M933.456,-278.594C896.848,-260.994 836.909,-232.177 797.328,-213.148"/>
<polygon fill="black" stroke="black" points="798.753,-209.95 788.223,-208.771 795.719,-216.258 798.753,-209.95"/>
<text text-anchor="middle" x="966.5" y="-247.8" font-family="Times,serif" font-size="14.00">OUTPUT: </text>
<text text-anchor="middle" x="966.5" y="-232.8" font-family="Times,serif" font-size="14.00">INPUT: the flour mixture</text>
</g>
<!-- E1 -->
<g id="node2" class="node"><title>E1</title>
<ellipse fill="azure" stroke="black" cx="278.5" cy="-502" rx="61.99" ry="18"/>
<text text-anchor="middle" x="278.5" y="-498.3" font-family="Times,serif" font-size="14.00">beat (S1,P63)</text>
</g>
<!-- E2 -->
<g id="node3" class="node"><title>E2</title>
<ellipse fill="azure" stroke="black" cx="382.5" cy="-398" rx="57.6901" ry="18"/>
<text text-anchor="middle" x="382.5" y="-394.3" font-family="Times,serif" font-size="14.00">stir (S2,P81)</text>
</g>
<!-- E1&#45;&gt;E2 -->
<g id="edge6" class="edge"><title>E1&#45;&gt;E2</title>
<path fill="none" stroke="black" d="M295.209,-484.612C312.343,-467.808 339.154,-441.513 358.543,-422.496"/>
<polygon fill="black" stroke="black" points="361.143,-424.848 365.832,-415.347 356.242,-419.851 361.143,-424.848"/>
<text text-anchor="middle" x="375.5" y="-453.8" font-family="Times,serif" font-size="14.00">OUTPUT: </text>
<text text-anchor="middle" x="375.5" y="-438.8" font-family="Times,serif" font-size="14.00">INPUT: </text>
</g>
<!-- E6 -->
<g id="node7" class="node"><title>E6</title>
<ellipse fill="azure" stroke="black" cx="393.5" cy="-295" rx="64.9885" ry="18"/>
<text text-anchor="middle" x="393.5" y="-291.3" font-family="Times,serif" font-size="14.00">line (S5,P207)</text>
</g>
<!-- E2&#45;&gt;E6 -->
<g id="edge13" class="edge"><title>E2&#45;&gt;E6</title>
<path fill="none" stroke="black" d="M381.531,-379.807C381.073,-366.429 381.071,-347.438 383.5,-331 383.88,-328.429 384.396,-325.781 384.994,-323.147"/>
<polygon fill="black" stroke="black" points="388.439,-323.81 387.598,-313.249 381.669,-322.029 388.439,-323.81"/>
<text text-anchor="middle" x="465" y="-349.8" font-family="Times,serif" font-size="14.00">OUTPUT: </text>
<text text-anchor="middle" x="465" y="-334.8" font-family="Times,serif" font-size="14.00">INPUT: a 12&#45;cup muffin tin</text>
</g>
<!-- E3 -->
<g id="node4" class="node"><title>E3</title>
<ellipse fill="azure" stroke="black" cx="81.5" cy="-398" rx="64.9885" ry="18"/>
<text text-anchor="middle" x="81.5" y="-394.3" font-family="Times,serif" font-size="14.00">add (S3,P110)</text>
</g>
<!-- E4 -->
<g id="node5" class="node"><title>E4</title>
<ellipse fill="azure" stroke="black" cx="227.5" cy="-295" rx="83.3857" ry="18"/>
<text text-anchor="middle" x="227.5" y="-291.3" font-family="Times,serif" font-size="14.00">combine (S3,P132)</text>
</g>
<!-- E3&#45;&gt;E4 -->
<g id="edge8" class="edge"><title>E3&#45;&gt;E4</title>
<path fill="none" stroke="black" d="M99.4231,-380.418C115.118,-366.347 138.889,-346.097 161.5,-331 169.184,-325.87 177.702,-320.885 185.994,-316.361"/>
<polygon fill="black" stroke="black" points="187.669,-319.435 194.855,-311.649 184.382,-313.254 187.669,-319.435"/>
<text text-anchor="middle" x="193.5" y="-349.8" font-family="Times,serif" font-size="14.00">OUTPUT: </text>
<text text-anchor="middle" x="193.5" y="-334.8" font-family="Times,serif" font-size="14.00">INPUT: </text>
</g>
<!-- E7 -->
<g id="node8" class="node"><title>E7</title>
<ellipse fill="azure" stroke="black" cx="393.5" cy="-193" rx="74.187" ry="18"/>
<text text-anchor="middle" x="393.5" y="-189.3" font-family="Times,serif" font-size="14.00">divide (S5,P248)</text>
</g>
<!-- E4&#45;&gt;E7 -->
<g id="edge15" class="edge"><title>E4&#45;&gt;E7</title>
<path fill="none" stroke="black" d="M238.964,-277.058C249.679,-262.421 266.931,-241.68 286.5,-229 299.753,-220.412 315.3,-213.759 330.372,-208.674"/>
<polygon fill="black" stroke="black" points="331.71,-211.921 340.179,-205.555 329.588,-205.251 331.71,-211.921"/>
<text text-anchor="middle" x="338" y="-247.8" font-family="Times,serif" font-size="14.00">OUTPUT: </text>
<text text-anchor="middle" x="338" y="-232.8" font-family="Times,serif" font-size="14.00">INPUT: the batter</text>
</g>
<!-- E8 -->
<g id="node9" class="node"><title>E8</title>
<ellipse fill="azure" stroke="black" cx="550.5" cy="-91" rx="68.7879" ry="18"/>
<text text-anchor="middle" x="550.5" y="-87.3" font-family="Times,serif" font-size="14.00">bake (S6,P273)</text>
</g>
<!-- E5&#45;&gt;E8 -->
<g id="edge17" class="edge"><title>E5&#45;&gt;E8</title>
<path fill="none" stroke="black" d="M730.787,-176.39C706.762,-162.628 670.306,-142.423 637.5,-127 624.937,-121.094 611.092,-115.24 598.211,-110.057"/>
<polygon fill="black" stroke="black" points="599.173,-106.673 588.587,-106.236 596.59,-113.179 599.173,-106.673"/>
<text text-anchor="middle" x="832" y="-145.8" font-family="Times,serif" font-size="14.00">OUTPUT: </text>
<text text-anchor="middle" x="832" y="-130.8" font-family="Times,serif" font-size="14.00">INPUT: at 400 degrees F &#45;LRB&#45; 205 degrees C</text>
</g>
<!-- E6&#45;&gt;E7 -->
<g id="edge16" class="edge"><title>E6&#45;&gt;E7</title>
<path fill="none" stroke="black" d="M393.5,-276.581C393.5,-261.382 393.5,-239.067 393.5,-221.464"/>
<polygon fill="black" stroke="black" points="397,-221.219 393.5,-211.219 390,-221.219 397,-221.219"/>
<text text-anchor="middle" x="454.5" y="-247.8" font-family="Times,serif" font-size="14.00">OUTPUT: </text>
<text text-anchor="middle" x="454.5" y="-232.8" font-family="Times,serif" font-size="14.00">INPUT: among them</text>
</g>
<!-- E7&#45;&gt;E8 -->
<g id="edge18" class="edge"><title>E7&#45;&gt;E8</title>
<path fill="none" stroke="black" d="M409.582,-175.408C424.016,-161.196 446.293,-140.884 468.5,-127 478.856,-120.525 490.619,-114.717 501.936,-109.779"/>
<polygon fill="black" stroke="black" points="503.438,-112.944 511.298,-105.84 500.723,-106.492 503.438,-112.944"/>
<text text-anchor="middle" x="553" y="-145.8" font-family="Times,serif" font-size="14.00">OUTPUT: </text>
<text text-anchor="middle" x="553" y="-130.8" font-family="Times,serif" font-size="14.00">INPUT: for 18 to 20 minutes</text>
</g>
<!-- EOR -->
<g id="node20" class="node"><title>EOR</title>
<ellipse fill="plum" stroke="black" cx="550.5" cy="-18" rx="57.3905" ry="18"/>
<text text-anchor="middle" x="550.5" y="-14.3" font-family="Times,serif" font-size="14.00">Bon appetit!</text>
</g>
<!-- E8&#45;&gt;EOR -->
<g id="edge19" class="edge"><title>E8&#45;&gt;EOR</title>
<path fill="none" stroke="black" d="M550.5,-72.8129C550.5,-64.7895 550.5,-55.0475 550.5,-46.0691"/>
<polygon fill="black" stroke="black" points="554,-46.0288 550.5,-36.0288 547,-46.0289 554,-46.0288"/>
</g>
<!-- D3 -->
<g id="node10" class="node"><title>D3</title>
<polygon fill="peachpuff" stroke="black" points="163,-521 0,-521 0,-483 163,-483 163,-521"/>
<text text-anchor="middle" x="81.5" y="-505.8" font-family="Times,serif" font-size="14.00">DOBJ: mashed bananas</text>
<text text-anchor="middle" x="81.5" y="-490.8" font-family="Times,serif" font-size="14.00">(text: the mashed banana)</text>
</g>
<!-- D3&#45;&gt;E3 -->
<g id="edge1" class="edge"><title>D3&#45;&gt;E3</title>
<path fill="none" stroke="black" d="M81.5,-482.764C81.5,-467.031 81.5,-444.083 81.5,-426.183"/>
<polygon fill="black" stroke="black" points="85.0001,-426.06 81.5,-416.06 78.0001,-426.06 85.0001,-426.06"/>
</g>
<!-- D0 -->
<g id="node11" class="node"><title>D0</title>
<polygon fill="peachpuff" stroke="black" points="1213.5,-417 717.5,-417 717.5,-379 1213.5,-379 1213.5,-417"/>
<text text-anchor="middle" x="965.5" y="-401.8" font-family="Times,serif" font-size="14.00">DOBJ: baking powder, white sugar, rolled oats, all&#45;purpose flour, baking soda, salt</text>
<text text-anchor="middle" x="965.5" y="-386.8" font-family="Times,serif" font-size="14.00">(text: flour , oats , sugar , baking powder , soda , salt)</text>
</g>
<!-- D0&#45;&gt;E0 -->
<g id="edge2" class="edge"><title>D0&#45;&gt;E0</title>
<path fill="none" stroke="black" d="M965.5,-378.943C965.5,-363.531 965.5,-341.127 965.5,-323.488"/>
<polygon fill="black" stroke="black" points="969,-323.226 965.5,-313.226 962,-323.226 969,-323.226"/>
</g>
<!-- D1 -->
<g id="node12" class="node"><title>D1</title>
<polygon fill="peachpuff" stroke="black" points="187.5,-596 91.5,-596 91.5,-558 187.5,-558 187.5,-596"/>
<text text-anchor="middle" x="139.5" y="-580.8" font-family="Times,serif" font-size="14.00">DOBJ: egg</text>
<text text-anchor="middle" x="139.5" y="-565.8" font-family="Times,serif" font-size="14.00">(text: the egg)</text>
</g>
<!-- D1&#45;&gt;E1 -->
<g id="edge3" class="edge"><title>D1&#45;&gt;E1</title>
<path fill="none" stroke="black" d="M173.86,-557.955C194.169,-547.289 219.91,-533.77 240.78,-522.81"/>
<polygon fill="black" stroke="black" points="242.465,-525.878 249.691,-518.13 239.21,-519.681 242.465,-525.878"/>
</g>
<!-- P1_0 -->
<g id="node13" class="node"><title>P1_0</title>
<polygon fill="white" stroke="black" points="351.5,-595 205.5,-595 205.5,-559 351.5,-559 351.5,-595"/>
<text text-anchor="middle" x="278.5" y="-573.3" font-family="Times,serif" font-size="14.00">PREP: in a large bowl</text>
</g>
<!-- P1_0&#45;&gt;E1 -->
<g id="edge4" class="edge"><title>P1_0&#45;&gt;E1</title>
<path fill="none" stroke="black" d="M278.5,-558.7C278.5,-550.245 278.5,-539.869 278.5,-530.373"/>
<polygon fill="black" stroke="black" points="282,-530.176 278.5,-520.176 275,-530.176 282,-530.176"/>
</g>
<!-- O1_0 -->
<g id="node14" class="node"><title>O1_0</title>
<polygon fill="white" stroke="black" points="479.5,-595 369.5,-595 369.5,-559 479.5,-559 479.5,-595"/>
<text text-anchor="middle" x="424.5" y="-573.3" font-family="Times,serif" font-size="14.00">OTHER: lightly</text>
</g>
<!-- O1_0&#45;&gt;E1 -->
<g id="edge5" class="edge"><title>O1_0&#45;&gt;E1</title>
<path fill="none" stroke="black" d="M390.269,-558.885C368.491,-547.995 340.226,-533.863 317.57,-522.535"/>
<polygon fill="black" stroke="black" points="319.066,-519.37 308.556,-518.028 315.935,-525.631 319.066,-519.37"/>
</g>
<!-- P2_0_ing -->
<g id="node15" class="node"><title>P2_0_ing</title>
<polygon fill="peachpuff" stroke="black" points="624.5,-521 358.5,-521 358.5,-483 624.5,-483 624.5,-521"/>
<text text-anchor="middle" x="491.5" y="-505.8" font-family="Times,serif" font-size="14.00">PREP: in vegetable oil, vanilla extract, milk</text>
<text text-anchor="middle" x="491.5" y="-490.8" font-family="Times,serif" font-size="14.00">(text: in &#160;oil , the milk , &#160;vanilla)</text>
</g>
<!-- P2_0_ing&#45;&gt;E2 -->
<g id="edge7" class="edge"><title>P2_0_ing&#45;&gt;E2</title>
<path fill="none" stroke="black" d="M472.264,-482.999C454.243,-466.136 427.208,-440.837 407.517,-422.411"/>
<polygon fill="black" stroke="black" points="409.796,-419.749 400.103,-415.472 405.013,-424.861 409.796,-419.749"/>
</g>
<!-- O4_0_0 -->
<g id="node16" class="node"><title>O4_0_0</title>
<polygon fill="white" stroke="black" points="301,-416 164,-416 164,-380 301,-380 301,-416"/>
<text text-anchor="middle" x="232.5" y="-394.3" font-family="Times,serif" font-size="14.00">OTHER: thoroughly</text>
</g>
<!-- O4_0_0&#45;&gt;E4 -->
<g id="edge9" class="edge"><title>O4_0_0&#45;&gt;E4</title>
<path fill="none" stroke="black" d="M231.652,-379.867C230.887,-364.414 229.748,-341.416 228.857,-323.409"/>
<polygon fill="black" stroke="black" points="232.343,-323.032 228.352,-313.217 225.351,-323.378 232.343,-323.032"/>
</g>
<!-- P5_0_0 -->
<g id="node17" class="node"><title>P5_0_0</title>
<polygon fill="white" stroke="black" points="672.5,-313 476.5,-313 476.5,-277 672.5,-277 672.5,-313"/>
<text text-anchor="middle" x="574.5" y="-291.3" font-family="Times,serif" font-size="14.00">PREP: into the banana mixture</text>
</g>
<!-- P5_0_0&#45;&gt;E5 -->
<g id="edge11" class="edge"><title>P5_0_0&#45;&gt;E5</title>
<path fill="none" stroke="black" d="M605.959,-276.809C637.812,-259.403 687.045,-232.5 720.692,-214.114"/>
<polygon fill="black" stroke="black" points="722.644,-217.035 729.741,-209.169 719.288,-210.893 722.644,-217.035"/>
</g>
<!-- O5_0_0 -->
<g id="node18" class="node"><title>O5_0_0</title>
<polygon fill="white" stroke="black" points="874,-313 691,-313 691,-277 874,-277 874,-313"/>
<text text-anchor="middle" x="782.5" y="-291.3" font-family="Times,serif" font-size="14.00">OTHER: until just combined</text>
</g>
<!-- O5_0_0&#45;&gt;E5 -->
<g id="edge12" class="edge"><title>O5_0_0&#45;&gt;E5</title>
<path fill="none" stroke="black" d="M778.145,-276.581C774.31,-261.238 768.661,-238.645 764.242,-220.968"/>
<polygon fill="black" stroke="black" points="767.626,-220.072 761.805,-211.219 760.835,-221.769 767.626,-220.072"/>
</g>
<!-- P6_0_0 -->
<g id="node19" class="node"><title>P6_0_0</title>
<polygon fill="white" stroke="black" points="651.5,-416 469.5,-416 469.5,-380 651.5,-380 651.5,-416"/>
<text text-anchor="middle" x="560.5" y="-394.3" font-family="Times,serif" font-size="14.00">PREP: with paper bake cups</text>
</g>
<!-- P6_0_0&#45;&gt;E6 -->
<g id="edge14" class="edge"><title>P6_0_0&#45;&gt;E6</title>
<path fill="none" stroke="black" d="M561.633,-379.745C561.621,-364.848 559.077,-343.767 546.5,-331 521.228,-305.346 502.604,-321.031 467.5,-313 462.489,-311.853 457.287,-310.662 452.068,-309.465"/>
<polygon fill="black" stroke="black" points="452.589,-305.994 442.06,-307.169 451.024,-312.816 452.589,-305.994"/>
</g>
</g>
</svg>
