<?xml version="1.0" encoding="UTF-8" standalone="no"?>
<!DOCTYPE svg PUBLIC "-//W3C//DTD SVG 1.1//EN"
 "http://www.w3.org/Graphics/SVG/1.1/DTD/svg11.dtd">
<!-- Generated by graphviz version 2.38.0 (20140413.2041)
 -->
<!-- Title: recipe Pages: 1 -->
<svg width="2378pt" height="808pt"
 viewBox="0.00 0.00 2377.50 808.00" xmlns="http://www.w3.org/2000/svg" xmlns:xlink="http://www.w3.org/1999/xlink">
<g id="graph0" class="graph" transform="scale(1 1) rotate(0) translate(4 804)">
<title>recipe</title>
<polygon fill="white" stroke="none" points="-4,4 -4,-804 2373.5,-804 2373.5,4 -4,4"/>
<!-- E0 -->
<g id="node1" class="node"><title>E0</title>
<ellipse fill="azure" stroke="black" cx="2210.5" cy="-193" rx="68.7879" ry="18"/>
<text text-anchor="middle" x="2210.5" y="-189.3" font-family="Times,serif" font-size="14.00">preheat (S0,P0)</text>
</g>
<!-- E10 -->
<g id="node11" class="node"><title>E10</title>
<ellipse fill="azure" stroke="black" cx="1737.5" cy="-91" rx="68.7879" ry="18"/>
<text text-anchor="middle" x="1737.5" y="-87.3" font-family="Times,serif" font-size="14.00">bake (S9,P457)</text>
</g>
<!-- E0&#45;&gt;E10 -->
<g id="edge26" class="edge"><title>E0&#45;&gt;E10</title>
<path fill="none" stroke="black" d="M2159.32,-180.789C2150.39,-178.847 2141.17,-176.856 2132.5,-175 2014.95,-149.841 1877.57,-121.13 1799.72,-104.924"/>
<polygon fill="black" stroke="black" points="1800.11,-101.43 1789.6,-102.819 1798.68,-108.283 1800.11,-101.43"/>
<text text-anchor="middle" x="2122.5" y="-145.8" font-family="Times,serif" font-size="14.00">OUTPUT: </text>
<text text-anchor="middle" x="2122.5" y="-130.8" font-family="Times,serif" font-size="14.00">INPUT: in preheated oven</text>
</g>
<!-- E1 -->
<g id="node2" class="node"><title>E1</title>
<ellipse fill="azure" stroke="black" cx="868.5" cy="-706" rx="69.5877" ry="18"/>
<text text-anchor="middle" x="868.5" y="-702.3" font-family="Times,serif" font-size="14.00">grease (S1,P45)</text>
</g>
<!-- E2 -->
<g id="node3" class="node"><title>E2</title>
<ellipse fill="azure" stroke="black" cx="976.5" cy="-603" rx="59.5901" ry="18"/>
<text text-anchor="middle" x="976.5" y="-599.3" font-family="Times,serif" font-size="14.00">line (S1,P66)</text>
</g>
<!-- E1&#45;&gt;E2 -->
<g id="edge6" class="edge"><title>E1&#45;&gt;E2</title>
<path fill="none" stroke="black" d="M883.14,-688.342C895.52,-674.587 913.989,-654.825 931.5,-639 936.223,-634.732 941.412,-630.4 946.537,-626.305"/>
<polygon fill="black" stroke="black" points="948.738,-629.026 954.458,-620.108 944.425,-623.513 948.738,-629.026"/>
<text text-anchor="middle" x="963.5" y="-657.8" font-family="Times,serif" font-size="14.00">OUTPUT: </text>
<text text-anchor="middle" x="963.5" y="-642.8" font-family="Times,serif" font-size="14.00">INPUT: </text>
</g>
<!-- E6 -->
<g id="node7" class="node"><title>E6</title>
<ellipse fill="azure" stroke="black" cx="930.5" cy="-500" rx="74.187" ry="18"/>
<text text-anchor="middle" x="930.5" y="-496.3" font-family="Times,serif" font-size="14.00">spoon (S5,P274)</text>
</g>
<!-- E2&#45;&gt;E6 -->
<g id="edge15" class="edge"><title>E2&#45;&gt;E6</title>
<path fill="none" stroke="black" d="M948.817,-586.635C941.917,-581.366 935.386,-574.795 931.5,-567 925.648,-555.26 924.829,-540.823 925.713,-528.448"/>
<polygon fill="black" stroke="black" points="929.223,-528.548 926.844,-518.224 922.265,-527.779 929.223,-528.548"/>
<text text-anchor="middle" x="1031.5" y="-555.8" font-family="Times,serif" font-size="14.00">OUTPUT: </text>
<text text-anchor="middle" x="1031.5" y="-540.8" font-family="Times,serif" font-size="14.00">INPUT: into prepared muffin cups</text>
</g>
<!-- E3 -->
<g id="node4" class="node"><title>E3</title>
<ellipse fill="azure" stroke="black" cx="210.5" cy="-706" rx="65.7887" ry="18"/>
<text text-anchor="middle" x="210.5" y="-702.3" font-family="Times,serif" font-size="14.00">mix (S2,P100)</text>
</g>
<!-- E4 -->
<g id="node5" class="node"><title>E4</title>
<ellipse fill="azure" stroke="black" cx="427.5" cy="-603" rx="66.0889" ry="18"/>
<text text-anchor="middle" x="427.5" y="-599.3" font-family="Times,serif" font-size="14.00">beat (S3,P171)</text>
</g>
<!-- E3&#45;&gt;E4 -->
<g id="edge9" class="edge"><title>E3&#45;&gt;E4</title>
<path fill="none" stroke="black" d="M223.945,-688.334C237.058,-673.199 258.361,-651.405 281.5,-639 305.025,-626.388 333.092,-618.266 358.302,-613.059"/>
<polygon fill="black" stroke="black" points="359.027,-616.484 368.174,-611.136 357.689,-609.613 359.027,-616.484"/>
<text text-anchor="middle" x="352.5" y="-657.8" font-family="Times,serif" font-size="14.00">OUTPUT: </text>
<text text-anchor="middle" x="352.5" y="-642.8" font-family="Times,serif" font-size="14.00">INPUT: in another bowl</text>
</g>
<!-- E5 -->
<g id="node6" class="node"><title>E5</title>
<ellipse fill="azure" stroke="black" cx="712.5" cy="-500" rx="63.0888" ry="18"/>
<text text-anchor="middle" x="712.5" y="-496.3" font-family="Times,serif" font-size="14.00">stir (S4,P216)</text>
</g>
<!-- E4&#45;&gt;E5 -->
<g id="edge11" class="edge"><title>E4&#45;&gt;E5</title>
<path fill="none" stroke="black" d="M436.089,-584.871C444.659,-569.683 459.307,-548.222 478.5,-537 505.53,-521.196 583.264,-511.453 641.779,-506.153"/>
<polygon fill="black" stroke="black" points="642.441,-509.609 652.096,-505.247 641.828,-502.636 642.441,-509.609"/>
<text text-anchor="middle" x="558.5" y="-555.8" font-family="Times,serif" font-size="14.00">OUTPUT: </text>
<text text-anchor="middle" x="558.5" y="-540.8" font-family="Times,serif" font-size="14.00">INPUT: the banana mixture</text>
</g>
<!-- E7 -->
<g id="node8" class="node"><title>E7</title>
<ellipse fill="azure" stroke="black" cx="1077.5" cy="-397" rx="65.7887" ry="18"/>
<text text-anchor="middle" x="1077.5" y="-393.3" font-family="Times,serif" font-size="14.00">mix (S6,P321)</text>
</g>
<!-- E5&#45;&gt;E7 -->
<g id="edge17" class="edge"><title>E5&#45;&gt;E7</title>
<path fill="none" stroke="black" d="M726.291,-482.315C740.229,-466.718 763.264,-444.203 788.5,-433 825.779,-416.45 930.936,-406.856 1003.56,-402.026"/>
<polygon fill="black" stroke="black" points="1003.83,-405.516 1013.58,-401.375 1003.37,-398.53 1003.83,-405.516"/>
<text text-anchor="middle" x="871" y="-451.8" font-family="Times,serif" font-size="14.00">OUTPUT: </text>
<text text-anchor="middle" x="871" y="-436.8" font-family="Times,serif" font-size="14.00">INPUT: &#160;2 tablespoons flour</text>
</g>
<!-- E6&#45;&gt;E7 -->
<g id="edge18" class="edge"><title>E6&#45;&gt;E7</title>
<path fill="none" stroke="black" d="M941.836,-482.059C952.414,-467.368 969.401,-446.413 988.5,-433 999.327,-425.396 1012.04,-419.135 1024.41,-414.117"/>
<polygon fill="black" stroke="black" points="1025.69,-417.375 1033.77,-410.521 1023.18,-410.841 1025.69,-417.375"/>
<text text-anchor="middle" x="1058" y="-451.8" font-family="Times,serif" font-size="14.00">OUTPUT: </text>
<text text-anchor="middle" x="1058" y="-436.8" font-family="Times,serif" font-size="14.00">INPUT: in a small bowl</text>
</g>
<!-- E8 -->
<g id="node9" class="node"><title>E8</title>
<ellipse fill="azure" stroke="black" cx="1253.5" cy="-295" rx="62.2891" ry="18"/>
<text text-anchor="middle" x="1253.5" y="-291.3" font-family="Times,serif" font-size="14.00">cut (S7,P372)</text>
</g>
<!-- E7&#45;&gt;E8 -->
<g id="edge20" class="edge"><title>E7&#45;&gt;E8</title>
<path fill="none" stroke="black" d="M1102.54,-380.286C1124.25,-366.814 1156.64,-347.09 1185.5,-331 1194.82,-325.807 1204.98,-320.426 1214.54,-315.488"/>
<polygon fill="black" stroke="black" points="1216.18,-318.584 1223.48,-310.909 1212.99,-312.354 1216.18,-318.584"/>
<text text-anchor="middle" x="1217.5" y="-349.8" font-family="Times,serif" font-size="14.00">OUTPUT: </text>
<text text-anchor="middle" x="1217.5" y="-334.8" font-family="Times,serif" font-size="14.00">INPUT: </text>
</g>
<!-- E9 -->
<g id="node10" class="node"><title>E9</title>
<ellipse fill="azure" stroke="black" cx="1385.5" cy="-193" rx="81.4863" ry="18"/>
<text text-anchor="middle" x="1385.5" y="-189.3" font-family="Times,serif" font-size="14.00">sprinkle (S8,P430)</text>
</g>
<!-- E8&#45;&gt;E9 -->
<g id="edge23" class="edge"><title>E8&#45;&gt;E9</title>
<path fill="none" stroke="black" d="M1272.51,-277.742C1288.49,-264.284 1312.07,-244.867 1333.5,-229 1339.39,-224.637 1345.79,-220.146 1352.01,-215.897"/>
<polygon fill="black" stroke="black" points="1353.99,-218.782 1360.32,-210.287 1350.07,-212.979 1353.99,-218.782"/>
<text text-anchor="middle" x="1365.5" y="-247.8" font-family="Times,serif" font-size="14.00">OUTPUT: </text>
<text text-anchor="middle" x="1365.5" y="-232.8" font-family="Times,serif" font-size="14.00">INPUT: </text>
</g>
<!-- E9&#45;&gt;E10 -->
<g id="edge25" class="edge"><title>E9&#45;&gt;E10</title>
<path fill="none" stroke="black" d="M1422.12,-176.77C1457.74,-162.405 1513.62,-141.036 1563.5,-127 1598.44,-117.166 1638.08,-108.971 1670.68,-102.989"/>
<polygon fill="black" stroke="black" points="1671.34,-106.426 1680.56,-101.204 1670.1,-99.5376 1671.34,-106.426"/>
<text text-anchor="middle" x="1595.5" y="-145.8" font-family="Times,serif" font-size="14.00">OUTPUT: </text>
<text text-anchor="middle" x="1595.5" y="-130.8" font-family="Times,serif" font-size="14.00">INPUT: </text>
</g>
<!-- EOR -->
<g id="node30" class="node"><title>EOR</title>
<ellipse fill="plum" stroke="black" cx="1737.5" cy="-18" rx="57.3905" ry="18"/>
<text text-anchor="middle" x="1737.5" y="-14.3" font-family="Times,serif" font-size="14.00">Bon appetit!</text>
</g>
<!-- E10&#45;&gt;EOR -->
<g id="edge29" class="edge"><title>E10&#45;&gt;EOR</title>
<path fill="none" stroke="black" d="M1737.5,-72.8129C1737.5,-64.7895 1737.5,-55.0475 1737.5,-46.0691"/>
<polygon fill="black" stroke="black" points="1741,-46.0288 1737.5,-36.0288 1734,-46.0289 1741,-46.0288"/>
</g>
<!-- D3 -->
<g id="node12" class="node"><title>D3</title>
<polygon fill="peachpuff" stroke="black" points="407,-800 2.84217e-14,-800 2.84217e-14,-762 407,-762 407,-800"/>
<text text-anchor="middle" x="203.5" y="-784.8" font-family="Times,serif" font-size="14.00">DOBJ: baking powder, all&#45;purpose flour, baking soda, salt</text>
<text text-anchor="middle" x="203.5" y="-769.8" font-family="Times,serif" font-size="14.00">(text: together 1Ê1/2 cups flour , baking soda , baking powder, salt)</text>
</g>
<!-- D3&#45;&gt;E3 -->
<g id="edge1" class="edge"><title>D3&#45;&gt;E3</title>
<path fill="none" stroke="black" d="M205.23,-761.955C206.022,-753.701 206.977,-743.738 207.856,-734.574"/>
<polygon fill="black" stroke="black" points="211.367,-734.623 208.838,-724.335 204.399,-733.955 211.367,-734.623"/>
</g>
<!-- P3_0 -->
<g id="node13" class="node"><title>P3_0</title>
<polygon fill="white" stroke="black" points="571.5,-799 425.5,-799 425.5,-763 571.5,-763 571.5,-799"/>
<text text-anchor="middle" x="498.5" y="-777.3" font-family="Times,serif" font-size="14.00">PREP: in a large bowl</text>
</g>
<!-- P3_0&#45;&gt;E3 -->
<g id="edge2" class="edge"><title>P3_0&#45;&gt;E3</title>
<path fill="none" stroke="black" d="M431.34,-762.977C381.373,-750.312 313.95,-733.222 266.795,-721.269"/>
<polygon fill="black" stroke="black" points="267.607,-717.864 257.053,-718.8 265.887,-724.65 267.607,-717.864"/>
</g>
<!-- D0 -->
<g id="node14" class="node"><title>D0</title>
<polygon fill="white" stroke="black" points="2369.5,-313 2051.5,-313 2051.5,-277 2369.5,-277 2369.5,-313"/>
<text text-anchor="middle" x="2210.5" y="-291.3" font-family="Times,serif" font-size="14.00">DOBJ: oven to 375 degrees F &#45;LRB&#45; 190 degrees C</text>
</g>
<!-- D0&#45;&gt;E0 -->
<g id="edge3" class="edge"><title>D0&#45;&gt;E0</title>
<path fill="none" stroke="black" d="M2210.5,-276.581C2210.5,-261.382 2210.5,-239.067 2210.5,-221.464"/>
<polygon fill="black" stroke="black" points="2214,-221.219 2210.5,-211.219 2207,-221.219 2214,-221.219"/>
</g>
<!-- D1 -->
<g id="node15" class="node"><title>D1</title>
<polygon fill="white" stroke="black" points="798.5,-799 650.5,-799 650.5,-763 798.5,-763 798.5,-799"/>
<text text-anchor="middle" x="724.5" y="-777.3" font-family="Times,serif" font-size="14.00">DOBJ: 10 muffin cups</text>
</g>
<!-- D1&#45;&gt;E1 -->
<g id="edge4" class="edge"><title>D1&#45;&gt;E1</title>
<path fill="none" stroke="black" d="M758.262,-762.885C779.501,-752.118 806.995,-738.18 829.211,-726.917"/>
<polygon fill="black" stroke="black" points="831.039,-729.915 838.376,-722.271 827.874,-723.671 831.039,-729.915"/>
</g>
<!-- O1_0 -->
<g id="node16" class="node"><title>O1_0</title>
<polygon fill="white" stroke="black" points="926.5,-799 816.5,-799 816.5,-763 926.5,-763 926.5,-799"/>
<text text-anchor="middle" x="871.5" y="-777.3" font-family="Times,serif" font-size="14.00">OTHER: lightly</text>
</g>
<!-- O1_0&#45;&gt;E1 -->
<g id="edge5" class="edge"><title>O1_0&#45;&gt;E1</title>
<path fill="none" stroke="black" d="M870.789,-762.7C870.442,-754.245 870.015,-743.869 869.625,-734.373"/>
<polygon fill="black" stroke="black" points="873.114,-734.024 869.206,-724.176 866.12,-734.311 873.114,-734.024"/>
</g>
<!-- P2_0_0 -->
<g id="node17" class="node"><title>P2_0_0</title>
<polygon fill="white" stroke="black" points="1126.5,-724 956.5,-724 956.5,-688 1126.5,-688 1126.5,-724"/>
<text text-anchor="middle" x="1041.5" y="-702.3" font-family="Times,serif" font-size="14.00">PREP: with muffin papers</text>
</g>
<!-- P2_0_0&#45;&gt;E2 -->
<g id="edge7" class="edge"><title>P2_0_0&#45;&gt;E2</title>
<path fill="none" stroke="black" d="M1030.47,-687.867C1020.14,-671.809 1004.56,-647.605 992.795,-629.32"/>
<polygon fill="black" stroke="black" points="995.719,-627.395 987.364,-620.88 989.832,-631.183 995.719,-627.395"/>
</g>
<!-- D4_ing -->
<g id="node18" class="node"><title>D4_ing</title>
<polygon fill="peachpuff" stroke="black" points="561,-725 294,-725 294,-687 561,-687 561,-725"/>
<text text-anchor="middle" x="427.5" y="-709.8" font-family="Times,serif" font-size="14.00">DOBJ: white sugar, bananas, butter, egg</text>
<text text-anchor="middle" x="427.5" y="-694.8" font-family="Times,serif" font-size="14.00">(text: &#160;melted butter, bananas , &#160;sugar , &#160;egg)</text>
</g>
<!-- D4_ing&#45;&gt;E4 -->
<g id="edge8" class="edge"><title>D4_ing&#45;&gt;E4</title>
<path fill="none" stroke="black" d="M427.5,-686.943C427.5,-671.531 427.5,-649.127 427.5,-631.488"/>
<polygon fill="black" stroke="black" points="431,-631.226 427.5,-621.226 424,-631.226 431,-631.226"/>
</g>
<!-- O4_0_0 -->
<g id="node19" class="node"><title>O4_0_0</title>
<polygon fill="white" stroke="black" points="698,-724 579,-724 579,-688 698,-688 698,-724"/>
<text text-anchor="middle" x="638.5" y="-702.3" font-family="Times,serif" font-size="14.00">OTHER: together</text>
</g>
<!-- O4_0_0&#45;&gt;E4 -->
<g id="edge10" class="edge"><title>O4_0_0&#45;&gt;E4</title>
<path fill="none" stroke="black" d="M602.707,-687.867C565.42,-670.019 507.107,-642.106 468.119,-623.443"/>
<polygon fill="black" stroke="black" points="469.179,-620.07 458.648,-618.91 466.157,-626.384 469.179,-620.07"/>
</g>
<!-- P5_0_0 -->
<g id="node20" class="node"><title>P5_0_0</title>
<polygon fill="white" stroke="black" points="695.5,-621 511.5,-621 511.5,-585 695.5,-585 695.5,-621"/>
<text text-anchor="middle" x="603.5" y="-599.3" font-family="Times,serif" font-size="14.00">PREP: into the flour mixture</text>
</g>
<!-- P5_0_0&#45;&gt;E5 -->
<g id="edge12" class="edge"><title>P5_0_0&#45;&gt;E5</title>
<path fill="none" stroke="black" d="M621.99,-584.867C639.9,-568.272 667.199,-542.976 687.134,-524.504"/>
<polygon fill="black" stroke="black" points="689.688,-526.91 694.644,-517.546 684.93,-521.775 689.688,-526.91"/>
</g>
<!-- O5_0_0 -->
<g id="node21" class="node"><title>O5_0_0</title>
<polygon fill="white" stroke="black" points="899,-621 714,-621 714,-585 899,-585 899,-621"/>
<text text-anchor="middle" x="806.5" y="-599.3" font-family="Times,serif" font-size="14.00">OTHER: just until moistened</text>
</g>
<!-- O5_0_0&#45;&gt;E5 -->
<g id="edge13" class="edge"><title>O5_0_0&#45;&gt;E5</title>
<path fill="none" stroke="black" d="M790.554,-584.867C775.246,-568.419 751.983,-543.423 734.833,-524.996"/>
<polygon fill="black" stroke="black" points="737.274,-522.481 727.899,-517.546 732.15,-527.25 737.274,-522.481"/>
</g>
<!-- D6_0 -->
<g id="node22" class="node"><title>D6_0</title>
<polygon fill="white" stroke="black" points="1191.5,-621 1099.5,-621 1099.5,-585 1191.5,-585 1191.5,-621"/>
<text text-anchor="middle" x="1145.5" y="-599.3" font-family="Times,serif" font-size="14.00">DOBJ: batter</text>
</g>
<!-- D6_0&#45;&gt;E6 -->
<g id="edge14" class="edge"><title>D6_0&#45;&gt;E6</title>
<path fill="none" stroke="black" d="M1146.77,-584.778C1146.85,-569.957 1144.36,-549.103 1131.5,-537 1112.18,-518.822 1039.59,-523.813 1013.5,-519 1006.78,-517.76 999.769,-516.378 992.796,-514.948"/>
<polygon fill="black" stroke="black" points="993.15,-511.446 982.646,-512.827 991.719,-518.298 993.15,-511.446"/>
</g>
<!-- D7_ing -->
<g id="node23" class="node"><title>D7_ing</title>
<polygon fill="peachpuff" stroke="black" points="1312,-519 1023,-519 1023,-481 1312,-481 1312,-519"/>
<text text-anchor="middle" x="1167.5" y="-503.8" font-family="Times,serif" font-size="14.00">DOBJ: ground cinnamon, packed brown sugar</text>
<text text-anchor="middle" x="1167.5" y="-488.8" font-family="Times,serif" font-size="14.00">(text: &#160;cinnamon, brown sugar )</text>
</g>
<!-- D7_ing&#45;&gt;E7 -->
<g id="edge16" class="edge"><title>D7_ing&#45;&gt;E7</title>
<path fill="none" stroke="black" d="M1160.57,-480.946C1154.48,-466.744 1144.54,-447.071 1131.5,-433 1126.75,-427.881 1121.11,-423.175 1115.28,-418.987"/>
<polygon fill="black" stroke="black" points="1116.96,-415.897 1106.71,-413.232 1113.06,-421.71 1116.96,-415.897"/>
</g>
<!-- O7_0_0 -->
<g id="node24" class="node"><title>O7_0_0</title>
<polygon fill="white" stroke="black" points="1449,-518 1330,-518 1330,-482 1449,-482 1449,-518"/>
<text text-anchor="middle" x="1389.5" y="-496.3" font-family="Times,serif" font-size="14.00">OTHER: together</text>
</g>
<!-- O7_0_0&#45;&gt;E7 -->
<g id="edge19" class="edge"><title>O7_0_0&#45;&gt;E7</title>
<path fill="none" stroke="black" d="M1336.93,-481.981C1278.65,-463.115 1185.31,-432.901 1127.92,-414.321"/>
<polygon fill="black" stroke="black" points="1128.92,-410.967 1118.33,-411.217 1126.77,-417.627 1128.92,-410.967"/>
</g>
<!-- P8_0_0 -->
<g id="node25" class="node"><title>P8_0_0</title>
<polygon fill="white" stroke="black" points="1346,-415 1161,-415 1161,-379 1346,-379 1346,-415"/>
<text text-anchor="middle" x="1253.5" y="-393.3" font-family="Times,serif" font-size="14.00">PREP: in 1 tablespoon butter</text>
</g>
<!-- P8_0_0&#45;&gt;E8 -->
<g id="edge21" class="edge"><title>P8_0_0&#45;&gt;E8</title>
<path fill="none" stroke="black" d="M1253.5,-378.581C1253.5,-363.382 1253.5,-341.067 1253.5,-323.464"/>
<polygon fill="black" stroke="black" points="1257,-323.219 1253.5,-313.219 1250,-323.219 1257,-323.219"/>
</g>
<!-- O8_0_0 -->
<g id="node26" class="node"><title>O8_0_0</title>
<polygon fill="white" stroke="black" points="1668.5,-415 1364.5,-415 1364.5,-379 1668.5,-379 1668.5,-415"/>
<text text-anchor="middle" x="1516.5" y="-393.3" font-family="Times,serif" font-size="14.00">OTHER: until mixture resembles coarse cornmeal</text>
</g>
<!-- O8_0_0&#45;&gt;E8 -->
<g id="edge22" class="edge"><title>O8_0_0&#45;&gt;E8</title>
<path fill="none" stroke="black" d="M1471.59,-378.923C1423.55,-360.657 1347.76,-331.839 1299.36,-313.436"/>
<polygon fill="black" stroke="black" points="1300.35,-310.07 1289.76,-309.788 1297.86,-316.613 1300.35,-310.07"/>
</g>
<!-- O9_0_0 -->
<g id="node27" class="node"><title>O9_0_0</title>
<polygon fill="white" stroke="black" points="1527.5,-313 1333.5,-313 1333.5,-277 1527.5,-277 1527.5,-313"/>
<text text-anchor="middle" x="1430.5" y="-291.3" font-family="Times,serif" font-size="14.00">OTHER: topping over muffins</text>
</g>
<!-- O9_0_0&#45;&gt;E9 -->
<g id="edge24" class="edge"><title>O9_0_0&#45;&gt;E9</title>
<path fill="none" stroke="black" d="M1422.66,-276.581C1415.69,-261.095 1405.4,-238.222 1397.41,-220.473"/>
<polygon fill="black" stroke="black" points="1400.54,-218.902 1393.25,-211.219 1394.16,-221.775 1400.54,-218.902"/>
</g>
<!-- P10_1_0 -->
<g id="node28" class="node"><title>P10_1_0</title>
<polygon fill="white" stroke="black" points="1662.5,-211 1484.5,-211 1484.5,-175 1662.5,-175 1662.5,-211"/>
<text text-anchor="middle" x="1573.5" y="-189.3" font-family="Times,serif" font-size="14.00">PREP: for 18 to 20 minutes</text>
</g>
<!-- P10_1_0&#45;&gt;E10 -->
<g id="edge27" class="edge"><title>P10_1_0&#45;&gt;E10</title>
<path fill="none" stroke="black" d="M1601.69,-174.809C1629.66,-157.755 1672.59,-131.582 1702.67,-113.237"/>
<polygon fill="black" stroke="black" points="1704.85,-116.008 1711.57,-107.814 1701.21,-110.032 1704.85,-116.008"/>
</g>
<!-- O10_0_0 -->
<g id="node29" class="node"><title>O10_0_0</title>
<polygon fill="white" stroke="black" points="2124,-211 1681,-211 1681,-175 2124,-175 2124,-211"/>
<text text-anchor="middle" x="1902.5" y="-189.3" font-family="Times,serif" font-size="14.00">OTHER: until a toothpick inserted into center of a muffin comes out clean</text>
</g>
<!-- O10_0_0&#45;&gt;E10 -->
<g id="edge28" class="edge"><title>O10_0_0&#45;&gt;E10</title>
<path fill="none" stroke="black" d="M1874.14,-174.809C1845.87,-157.681 1802.44,-131.356 1772.15,-113"/>
<polygon fill="black" stroke="black" points="1773.96,-110.004 1763.59,-107.814 1770.33,-115.99 1773.96,-110.004"/>
</g>
</g>
</svg>
