<?xml version="1.0" encoding="UTF-8" standalone="no"?>
<!DOCTYPE svg PUBLIC "-//W3C//DTD SVG 1.1//EN"
 "http://www.w3.org/Graphics/SVG/1.1/DTD/svg11.dtd">
<!-- Generated by graphviz version 2.38.0 (20140413.2041)
 -->
<!-- Title: recipe Pages: 1 -->
<svg width="1623pt" height="910pt"
 viewBox="0.00 0.00 1623.00 910.00" xmlns="http://www.w3.org/2000/svg" xmlns:xlink="http://www.w3.org/1999/xlink">
<g id="graph0" class="graph" transform="scale(1 1) rotate(0) translate(4 906)">
<title>recipe</title>
<polygon fill="white" stroke="none" points="-4,4 -4,-906 1619,-906 1619,4 -4,4"/>
<!-- E0 -->
<g id="node1" class="node"><title>E0</title>
<ellipse fill="azure" stroke="black" cx="1360" cy="-809" rx="72.2875" ry="18"/>
<text text-anchor="middle" x="1360" y="-805.3" font-family="Times,serif" font-size="14.00">measure (S0,P0)</text>
</g>
<!-- E1 -->
<g id="node2" class="node"><title>E1</title>
<ellipse fill="azure" stroke="black" cx="1249" cy="-707" rx="61.1893" ry="18"/>
<text text-anchor="middle" x="1249" y="-703.3" font-family="Times,serif" font-size="14.00">mix (S1,P69)</text>
</g>
<!-- E0&#45;&gt;E1 -->
<g id="edge5" class="edge"><title>E0&#45;&gt;E1</title>
<path fill="none" stroke="black" d="M1341.67,-791.487C1323.32,-774.959 1294.95,-749.397 1274.43,-730.911"/>
<polygon fill="black" stroke="black" points="1276.76,-728.299 1266.99,-724.206 1272.08,-733.499 1276.76,-728.299"/>
<text text-anchor="middle" x="1352" y="-761.8" font-family="Times,serif" font-size="14.00">OUTPUT: </text>
<text text-anchor="middle" x="1352" y="-746.8" font-family="Times,serif" font-size="14.00">INPUT: </text>
</g>
<!-- E2 -->
<g id="node3" class="node"><title>E2</title>
<ellipse fill="azure" stroke="black" cx="1249" cy="-605" rx="66.0889" ry="18"/>
<text text-anchor="middle" x="1249" y="-601.3" font-family="Times,serif" font-size="14.00">make (S1,P86)</text>
</g>
<!-- E1&#45;&gt;E2 -->
<g id="edge7" class="edge"><title>E1&#45;&gt;E2</title>
<path fill="none" stroke="black" d="M1249,-688.581C1249,-673.382 1249,-651.067 1249,-633.464"/>
<polygon fill="black" stroke="black" points="1252.5,-633.219 1249,-623.219 1245.5,-633.219 1252.5,-633.219"/>
<text text-anchor="middle" x="1328.5" y="-659.8" font-family="Times,serif" font-size="14.00">OUTPUT: </text>
<text text-anchor="middle" x="1328.5" y="-644.8" font-family="Times,serif" font-size="14.00">INPUT: a well in the center</text>
</g>
<!-- E5 -->
<g id="node6" class="node"><title>E5</title>
<ellipse fill="azure" stroke="black" cx="1145" cy="-503" rx="69.5877" ry="18"/>
<text text-anchor="middle" x="1145" y="-499.3" font-family="Times,serif" font-size="14.00">pour (S4,P173)</text>
</g>
<!-- E2&#45;&gt;E5 -->
<g id="edge10" class="edge"><title>E2&#45;&gt;E5</title>
<path fill="none" stroke="black" d="M1231.83,-587.487C1214.82,-571.13 1188.6,-545.924 1169.43,-527.486"/>
<polygon fill="black" stroke="black" points="1171.83,-524.946 1162.2,-520.537 1166.98,-529.992 1171.83,-524.946"/>
<text text-anchor="middle" x="1259.5" y="-557.8" font-family="Times,serif" font-size="14.00">OUTPUT: </text>
<text text-anchor="middle" x="1259.5" y="-542.8" font-family="Times,serif" font-size="14.00">INPUT: mixture</text>
</g>
<!-- E3 -->
<g id="node4" class="node"><title>E3</title>
<ellipse fill="azure" stroke="black" cx="181" cy="-296" rx="66.0889" ry="18"/>
<text text-anchor="middle" x="181" y="-292.3" font-family="Times,serif" font-size="14.00">beat (S2,P107)</text>
</g>
<!-- E4 -->
<g id="node5" class="node"><title>E4</title>
<ellipse fill="azure" stroke="black" cx="399" cy="-193" rx="65.7887" ry="18"/>
<text text-anchor="middle" x="399" y="-189.3" font-family="Times,serif" font-size="14.00">mix (S3,P141)</text>
</g>
<!-- E3&#45;&gt;E4 -->
<g id="edge8" class="edge"><title>E3&#45;&gt;E4</title>
<path fill="none" stroke="black" d="M213.167,-280.097C251.595,-262.293 315.948,-232.478 357.935,-213.026"/>
<polygon fill="black" stroke="black" points="359.454,-216.179 367.057,-208.8 356.512,-209.828 359.454,-216.179"/>
<text text-anchor="middle" x="355" y="-247.8" font-family="Times,serif" font-size="14.00">OUTPUT: </text>
<text text-anchor="middle" x="355" y="-232.8" font-family="Times,serif" font-size="14.00">INPUT: </text>
</g>
<!-- E9 -->
<g id="node10" class="node"><title>E9</title>
<ellipse fill="azure" stroke="black" cx="548" cy="-91" rx="68.7879" ry="18"/>
<text text-anchor="middle" x="548" y="-87.3" font-family="Times,serif" font-size="14.00">bake (S8,P261)</text>
</g>
<!-- E4&#45;&gt;E9 -->
<g id="edge19" class="edge"><title>E4&#45;&gt;E9</title>
<path fill="none" stroke="black" d="M393.979,-174.87C390.895,-160.511 389.324,-140.284 400,-127 409.968,-114.597 443.358,-106.115 475.904,-100.611"/>
<polygon fill="black" stroke="black" points="476.633,-104.038 485.951,-98.9969 475.523,-97.1271 476.633,-104.038"/>
<text text-anchor="middle" x="537.5" y="-145.8" font-family="Times,serif" font-size="14.00">OUTPUT: </text>
<text text-anchor="middle" x="537.5" y="-130.8" font-family="Times,serif" font-size="14.00">INPUT: at 400 degrees F &#45;LRB&#45; 205 degrees C</text>
</g>
<!-- E6 -->
<g id="node7" class="node"><title>E6</title>
<ellipse fill="azure" stroke="black" cx="1008" cy="-400" rx="63.0888" ry="18"/>
<text text-anchor="middle" x="1008" y="-396.3" font-family="Times,serif" font-size="14.00">stir (S5,P196)</text>
</g>
<!-- E5&#45;&gt;E6 -->
<g id="edge12" class="edge"><title>E5&#45;&gt;E6</title>
<path fill="none" stroke="black" d="M1122.99,-485.773C1100.02,-468.839 1063.85,-442.171 1038.21,-423.273"/>
<polygon fill="black" stroke="black" points="1040.08,-420.304 1029.96,-417.187 1035.93,-425.938 1040.08,-420.304"/>
<text text-anchor="middle" x="1128" y="-455.8" font-family="Times,serif" font-size="14.00">OUTPUT: </text>
<text text-anchor="middle" x="1128" y="-440.8" font-family="Times,serif" font-size="14.00">INPUT: </text>
</g>
<!-- E7 -->
<g id="node8" class="node"><title>E7</title>
<ellipse fill="azure" stroke="black" cx="898" cy="-296" rx="72.2875" ry="18"/>
<text text-anchor="middle" x="898" y="-292.3" font-family="Times,serif" font-size="14.00">batter (S6,P214)</text>
</g>
<!-- E6&#45;&gt;E7 -->
<g id="edge15" class="edge"><title>E6&#45;&gt;E7</title>
<path fill="none" stroke="black" d="M990.327,-382.612C972.232,-365.834 943.933,-339.593 923.433,-320.583"/>
<polygon fill="black" stroke="black" points="925.707,-317.919 915.995,-313.686 920.948,-323.052 925.707,-317.919"/>
<text text-anchor="middle" x="998" y="-351.8" font-family="Times,serif" font-size="14.00">OUTPUT: </text>
<text text-anchor="middle" x="998" y="-336.8" font-family="Times,serif" font-size="14.00">INPUT: </text>
</g>
<!-- E8 -->
<g id="node9" class="node"><title>E8</title>
<ellipse fill="azure" stroke="black" cx="697" cy="-193" rx="61.99" ry="18"/>
<text text-anchor="middle" x="697" y="-189.3" font-family="Times,serif" font-size="14.00">fill (S7,P232)</text>
</g>
<!-- E7&#45;&gt;E8 -->
<g id="edge17" class="edge"><title>E7&#45;&gt;E8</title>
<path fill="none" stroke="black" d="M867.472,-279.66C832.24,-261.956 774.231,-232.807 735.82,-213.507"/>
<polygon fill="black" stroke="black" points="737.01,-210.187 726.503,-208.825 733.867,-216.442 737.01,-210.187"/>
<text text-anchor="middle" x="853" y="-247.8" font-family="Times,serif" font-size="14.00">OUTPUT: </text>
<text text-anchor="middle" x="853" y="-232.8" font-family="Times,serif" font-size="14.00">INPUT: </text>
</g>
<!-- E8&#45;&gt;E9 -->
<g id="edge20" class="edge"><title>E8&#45;&gt;E9</title>
<path fill="none" stroke="black" d="M695.618,-174.977C693.523,-160.287 688.254,-139.514 675,-127 660.626,-113.429 641.481,-105.032 622.425,-99.8629"/>
<polygon fill="black" stroke="black" points="623.039,-96.4099 612.494,-97.4434 621.382,-103.211 623.039,-96.4099"/>
<text text-anchor="middle" x="776.5" y="-145.8" font-family="Times,serif" font-size="14.00">OUTPUT: </text>
<text text-anchor="middle" x="776.5" y="-130.8" font-family="Times,serif" font-size="14.00">INPUT: for 20 to 25 minutes</text>
</g>
<!-- EOR -->
<g id="node22" class="node"><title>EOR</title>
<ellipse fill="plum" stroke="black" cx="548" cy="-18" rx="57.3905" ry="18"/>
<text text-anchor="middle" x="548" y="-14.3" font-family="Times,serif" font-size="14.00">Bon appetit!</text>
</g>
<!-- E9&#45;&gt;EOR -->
<g id="edge21" class="edge"><title>E9&#45;&gt;EOR</title>
<path fill="none" stroke="black" d="M548,-72.8129C548,-64.7895 548,-55.0475 548,-46.0691"/>
<polygon fill="black" stroke="black" points="551.5,-46.0288 548,-36.0288 544.5,-46.0289 551.5,-46.0288"/>
</g>
<!-- D3 -->
<g id="node11" class="node"><title>D3</title>
<polygon fill="peachpuff" stroke="black" points="188,-419 -1.42109e-14,-419 -1.42109e-14,-381 188,-381 188,-419"/>
<text text-anchor="middle" x="94" y="-403.8" font-family="Times,serif" font-size="14.00">DOBJ: egg</text>
<text text-anchor="middle" x="94" y="-388.8" font-family="Times,serif" font-size="14.00">(text: the egg in a small bowl)</text>
</g>
<!-- D3&#45;&gt;E3 -->
<g id="edge1" class="edge"><title>D3&#45;&gt;E3</title>
<path fill="none" stroke="black" d="M109.554,-380.764C123.625,-364.267 144.463,-339.837 160.008,-321.612"/>
<polygon fill="black" stroke="black" points="162.908,-323.605 166.734,-313.725 157.582,-319.062 162.908,-323.605"/>
</g>
<!-- P3_0 -->
<g id="node12" class="node"><title>P3_0</title>
<polygon fill="white" stroke="black" points="331.5,-418 206.5,-418 206.5,-382 331.5,-382 331.5,-418"/>
<text text-anchor="middle" x="269" y="-396.3" font-family="Times,serif" font-size="14.00">PREP: until frothy</text>
</g>
<!-- P3_0&#45;&gt;E3 -->
<g id="edge2" class="edge"><title>P3_0&#45;&gt;E3</title>
<path fill="none" stroke="black" d="M254.072,-381.697C239.805,-365.16 218.157,-340.068 202.123,-321.484"/>
<polygon fill="black" stroke="black" points="204.598,-318.995 195.416,-313.709 199.298,-323.567 204.598,-318.995"/>
</g>
<!-- D0 -->
<g id="node13" class="node"><title>D0</title>
<polygon fill="peachpuff" stroke="black" points="1438.5,-902 929.5,-902 929.5,-864 1438.5,-864 1438.5,-902"/>
<text text-anchor="middle" x="1184" y="-886.8" font-family="Times,serif" font-size="14.00">DOBJ: baking powder, white sugar, semisweet chocolate chips, all&#45;purpose flour, salt</text>
<text text-anchor="middle" x="1184" y="-871.8" font-family="Times,serif" font-size="14.00">(text: flour , sugar , baking powder , salt , chocolate chips)</text>
</g>
<!-- D0&#45;&gt;E0 -->
<g id="edge3" class="edge"><title>D0&#45;&gt;E0</title>
<path fill="none" stroke="black" d="M1228.41,-863.831C1254.8,-853.035 1288.19,-839.375 1314.74,-828.517"/>
<polygon fill="black" stroke="black" points="1316.25,-831.68 1324.18,-824.654 1313.6,-825.201 1316.25,-831.68"/>
</g>
<!-- P0_0 -->
<g id="node14" class="node"><title>P0_0</title>
<polygon fill="white" stroke="black" points="1615,-901 1457,-901 1457,-865 1615,-865 1615,-901"/>
<text text-anchor="middle" x="1536" y="-879.3" font-family="Times,serif" font-size="14.00">PREP: into a large bowl</text>
</g>
<!-- P0_0&#45;&gt;E0 -->
<g id="edge4" class="edge"><title>P0_0&#45;&gt;E0</title>
<path fill="none" stroke="black" d="M1494.29,-864.937C1467.56,-854.001 1432.86,-839.805 1405.43,-828.583"/>
<polygon fill="black" stroke="black" points="1406.63,-825.295 1396.05,-824.748 1403.98,-831.774 1406.63,-825.295"/>
</g>
<!-- O1_0_0 -->
<g id="node15" class="node"><title>O1_0_0</title>
<polygon fill="white" stroke="black" points="1269.5,-827 1132.5,-827 1132.5,-791 1269.5,-791 1269.5,-827"/>
<text text-anchor="middle" x="1201" y="-805.3" font-family="Times,serif" font-size="14.00">OTHER: thoroughly</text>
</g>
<!-- O1_0_0&#45;&gt;E1 -->
<g id="edge6" class="edge"><title>O1_0_0&#45;&gt;E1</title>
<path fill="none" stroke="black" d="M1209.36,-790.581C1216.84,-775 1227.91,-751.943 1236.45,-734.149"/>
<polygon fill="black" stroke="black" points="1239.72,-735.416 1240.89,-724.886 1233.41,-732.387 1239.72,-735.416"/>
</g>
<!-- P4_0_ing -->
<g id="node16" class="node"><title>P4_0_ing</title>
<polygon fill="peachpuff" stroke="black" points="544.5,-315 265.5,-315 265.5,-277 544.5,-277 544.5,-315"/>
<text text-anchor="middle" x="405" y="-299.8" font-family="Times,serif" font-size="14.00">PREP: in vegetable oil, mashed bananas, milk</text>
<text text-anchor="middle" x="405" y="-284.8" font-family="Times,serif" font-size="14.00">(text: in &#160;milk , &#160;bananas, cooking oil )</text>
</g>
<!-- P4_0_ing&#45;&gt;E4 -->
<g id="edge9" class="edge"><title>P4_0_ing&#45;&gt;E4</title>
<path fill="none" stroke="black" d="M403.927,-276.943C403.012,-261.531 401.681,-239.127 400.633,-221.488"/>
<polygon fill="black" stroke="black" points="404.11,-221.001 400.023,-211.226 397.123,-221.416 404.11,-221.001"/>
</g>
<!-- P5_0_0 -->
<g id="node17" class="node"><title>P5_0_0</title>
<polygon fill="white" stroke="black" points="1164.5,-623 1033.5,-623 1033.5,-587 1164.5,-587 1164.5,-623"/>
<text text-anchor="middle" x="1099" y="-601.3" font-family="Times,serif" font-size="14.00">PREP: into the well</text>
</g>
<!-- P5_0_0&#45;&gt;E5 -->
<g id="edge11" class="edge"><title>P5_0_0&#45;&gt;E5</title>
<path fill="none" stroke="black" d="M1107.01,-586.581C1114.14,-571.095 1124.66,-548.222 1132.82,-530.473"/>
<polygon fill="black" stroke="black" points="1136.08,-531.767 1137.08,-521.219 1129.72,-528.841 1136.08,-531.767"/>
</g>
<!-- P6_0_0 -->
<g id="node18" class="node"><title>P6_0_0</title>
<polygon fill="white" stroke="black" points="940.5,-521 821.5,-521 821.5,-485 940.5,-485 940.5,-521"/>
<text text-anchor="middle" x="881" y="-499.3" font-family="Times,serif" font-size="14.00">PREP: to moisten</text>
</g>
<!-- P6_0_0&#45;&gt;E6 -->
<g id="edge13" class="edge"><title>P6_0_0&#45;&gt;E6</title>
<path fill="none" stroke="black" d="M902.544,-484.867C923.814,-467.951 956.453,-441.994 979.783,-423.44"/>
<polygon fill="black" stroke="black" points="981.965,-426.177 987.613,-417.213 977.608,-420.698 981.965,-426.177"/>
</g>
<!-- O6_0_0 -->
<g id="node19" class="node"><title>O6_0_0</title>
<polygon fill="white" stroke="black" points="1057,-521 959,-521 959,-485 1057,-485 1057,-521"/>
<text text-anchor="middle" x="1008" y="-499.3" font-family="Times,serif" font-size="14.00">OTHER: only</text>
</g>
<!-- O6_0_0&#45;&gt;E6 -->
<g id="edge14" class="edge"><title>O6_0_0&#45;&gt;E6</title>
<path fill="none" stroke="black" d="M1008,-484.867C1008,-469.414 1008,-446.416 1008,-428.409"/>
<polygon fill="black" stroke="black" points="1011.5,-428.217 1008,-418.217 1004.5,-428.217 1011.5,-428.217"/>
</g>
<!-- O7_0_0 -->
<g id="node20" class="node"><title>O7_0_0</title>
<polygon fill="white" stroke="black" points="926.5,-418 773.5,-418 773.5,-382 926.5,-382 926.5,-418"/>
<text text-anchor="middle" x="850" y="-396.3" font-family="Times,serif" font-size="14.00">OTHER: will be lumpy</text>
</g>
<!-- O7_0_0&#45;&gt;E7 -->
<g id="edge16" class="edge"><title>O7_0_0&#45;&gt;E7</title>
<path fill="none" stroke="black" d="M858.143,-381.697C865.67,-365.702 876.964,-341.702 885.61,-323.329"/>
<polygon fill="black" stroke="black" points="888.887,-324.586 889.978,-314.047 882.553,-321.605 888.887,-324.586"/>
</g>
<!-- O8_0_0 -->
<g id="node21" class="node"><title>O8_0_0</title>
<polygon fill="white" stroke="black" points="808,-314 574,-314 574,-278 808,-278 808,-314"/>
<text text-anchor="middle" x="691" y="-292.3" font-family="Times,serif" font-size="14.00">OTHER: greased muffin cups 3/4 full</text>
</g>
<!-- O8_0_0&#45;&gt;E8 -->
<g id="edge18" class="edge"><title>O8_0_0&#45;&gt;E8</title>
<path fill="none" stroke="black" d="M692.018,-277.867C692.936,-262.414 694.302,-239.416 695.372,-221.409"/>
<polygon fill="black" stroke="black" points="698.878,-221.407 695.977,-211.217 691.89,-220.992 698.878,-221.407"/>
</g>
</g>
</svg>
