<?xml version="1.0" encoding="UTF-8" standalone="no"?>
<!DOCTYPE svg PUBLIC "-//W3C//DTD SVG 1.1//EN"
 "http://www.w3.org/Graphics/SVG/1.1/DTD/svg11.dtd">
<!-- Generated by graphviz version 2.38.0 (20140413.2041)
 -->
<!-- Title: recipe Pages: 1 -->
<svg width="1971pt" height="602pt"
 viewBox="0.00 0.00 1971.00 602.00" xmlns="http://www.w3.org/2000/svg" xmlns:xlink="http://www.w3.org/1999/xlink">
<g id="graph0" class="graph" transform="scale(1 1) rotate(0) translate(4 598)">
<title>recipe</title>
<polygon fill="white" stroke="none" points="-4,4 -4,-598 1967,-598 1967,4 -4,4"/>
<!-- E0 -->
<g id="node1" class="node"><title>E0</title>
<ellipse fill="azure" stroke="black" cx="1804" cy="-193" rx="68.7879" ry="18"/>
<text text-anchor="middle" x="1804" y="-189.3" font-family="Times,serif" font-size="14.00">preheat (S0,P0)</text>
</g>
<!-- E9 -->
<g id="node10" class="node"><title>E9</title>
<ellipse fill="azure" stroke="black" cx="1397" cy="-91" rx="68.7879" ry="18"/>
<text text-anchor="middle" x="1397" y="-87.3" font-family="Times,serif" font-size="14.00">bake (S9,P337)</text>
</g>
<!-- E0&#45;&gt;E9 -->
<g id="edge18" class="edge"><title>E0&#45;&gt;E9</title>
<path fill="none" stroke="black" d="M1755.71,-180.136C1680.7,-161.704 1536.4,-126.25 1455.55,-106.387"/>
<polygon fill="black" stroke="black" points="1456.09,-102.913 1445.54,-103.926 1454.42,-109.711 1456.09,-102.913"/>
<text text-anchor="middle" x="1747.5" y="-145.8" font-family="Times,serif" font-size="14.00">OUTPUT: </text>
<text text-anchor="middle" x="1747.5" y="-130.8" font-family="Times,serif" font-size="14.00">INPUT: in the preheated oven</text>
</g>
<!-- E1 -->
<g id="node2" class="node"><title>E1</title>
<ellipse fill="azure" stroke="black" cx="1156" cy="-295" rx="66.8882" ry="18"/>
<text text-anchor="middle" x="1156" y="-291.3" font-family="Times,serif" font-size="14.00">spray (S1,P38)</text>
</g>
<!-- E8 -->
<g id="node9" class="node"><title>E8</title>
<ellipse fill="azure" stroke="black" cx="1156" cy="-193" rx="86.3847" ry="18"/>
<text text-anchor="middle" x="1156" y="-189.3" font-family="Times,serif" font-size="14.00">distribute (S8,P303)</text>
</g>
<!-- E1&#45;&gt;E8 -->
<g id="edge16" class="edge"><title>E1&#45;&gt;E8</title>
<path fill="none" stroke="black" d="M1156,-276.581C1156,-261.382 1156,-239.067 1156,-221.464"/>
<polygon fill="black" stroke="black" points="1159.5,-221.219 1156,-211.219 1152.5,-221.219 1159.5,-221.219"/>
<text text-anchor="middle" x="1239" y="-247.8" font-family="Times,serif" font-size="14.00">OUTPUT: </text>
<text text-anchor="middle" x="1239" y="-232.8" font-family="Times,serif" font-size="14.00">INPUT: into the muffin cups</text>
</g>
<!-- E2 -->
<g id="node3" class="node"><title>E2</title>
<ellipse fill="azure" stroke="black" cx="393" cy="-295" rx="61.1893" ry="18"/>
<text text-anchor="middle" x="393" y="-291.3" font-family="Times,serif" font-size="14.00">mix (S2,P76)</text>
</g>
<!-- E6 -->
<g id="node7" class="node"><title>E6</title>
<ellipse fill="azure" stroke="black" cx="778" cy="-193" rx="63.0888" ry="18"/>
<text text-anchor="middle" x="778" y="-189.3" font-family="Times,serif" font-size="14.00">stir (S6,P230)</text>
</g>
<!-- E2&#45;&gt;E6 -->
<g id="edge11" class="edge"><title>E2&#45;&gt;E6</title>
<path fill="none" stroke="black" d="M436.202,-282.084C484.551,-268.82 565.263,-246.897 635,-229 663.428,-221.704 695.125,-213.911 721.438,-207.535"/>
<polygon fill="black" stroke="black" points="722.344,-210.917 731.242,-205.165 720.699,-204.113 722.344,-210.917"/>
<text text-anchor="middle" x="704.5" y="-247.8" font-family="Times,serif" font-size="14.00">OUTPUT: </text>
<text text-anchor="middle" x="704.5" y="-232.8" font-family="Times,serif" font-size="14.00">INPUT: banana mixture</text>
</g>
<!-- E3 -->
<g id="node4" class="node"><title>E3</title>
<ellipse fill="azure" stroke="black" cx="1383" cy="-501" rx="64.9885" ry="18"/>
<text text-anchor="middle" x="1383" y="-497.3" font-family="Times,serif" font-size="14.00">add (S3,P126)</text>
</g>
<!-- E4 -->
<g id="node5" class="node"><title>E4</title>
<ellipse fill="azure" stroke="black" cx="1474" cy="-398" rx="65.7887" ry="18"/>
<text text-anchor="middle" x="1474" y="-394.3" font-family="Times,serif" font-size="14.00">mix (S4,P161)</text>
</g>
<!-- E3&#45;&gt;E4 -->
<g id="edge9" class="edge"><title>E3&#45;&gt;E4</title>
<path fill="none" stroke="black" d="M1390.72,-482.926C1397.58,-468.981 1408.59,-449.309 1422,-435 1426.84,-429.832 1432.55,-424.983 1438.37,-420.62"/>
<polygon fill="black" stroke="black" points="1440.75,-423.223 1446.9,-414.595 1436.71,-417.505 1440.75,-423.223"/>
<text text-anchor="middle" x="1454" y="-453.8" font-family="Times,serif" font-size="14.00">OUTPUT: </text>
<text text-anchor="middle" x="1454" y="-438.8" font-family="Times,serif" font-size="14.00">INPUT: </text>
</g>
<!-- E7 -->
<g id="node8" class="node"><title>E7</title>
<ellipse fill="azure" stroke="black" cx="1474" cy="-295" rx="66.0889" ry="18"/>
<text text-anchor="middle" x="1474" y="-291.3" font-family="Times,serif" font-size="14.00">fold (S7,P264)</text>
</g>
<!-- E4&#45;&gt;E7 -->
<g id="edge14" class="edge"><title>E4&#45;&gt;E7</title>
<path fill="none" stroke="black" d="M1474,-379.867C1474,-364.414 1474,-341.416 1474,-323.409"/>
<polygon fill="black" stroke="black" points="1477.5,-323.217 1474,-313.217 1470.5,-323.217 1477.5,-323.217"/>
<text text-anchor="middle" x="1528.5" y="-349.8" font-family="Times,serif" font-size="14.00">OUTPUT: </text>
<text text-anchor="middle" x="1528.5" y="-334.8" font-family="Times,serif" font-size="14.00">INPUT: into batter</text>
</g>
<!-- E5 -->
<g id="node6" class="node"><title>E5</title>
<ellipse fill="azure" stroke="black" cx="778" cy="-295" rx="65.7887" ry="18"/>
<text text-anchor="middle" x="778" y="-291.3" font-family="Times,serif" font-size="14.00">mix (S5,P169)</text>
</g>
<!-- E5&#45;&gt;E6 -->
<g id="edge12" class="edge"><title>E5&#45;&gt;E6</title>
<path fill="none" stroke="black" d="M778,-276.581C778,-261.382 778,-239.067 778,-221.464"/>
<polygon fill="black" stroke="black" points="781.5,-221.219 778,-211.219 774.5,-221.219 781.5,-221.219"/>
<text text-anchor="middle" x="855" y="-247.8" font-family="Times,serif" font-size="14.00">OUTPUT: </text>
<text text-anchor="middle" x="855" y="-232.8" font-family="Times,serif" font-size="14.00">INPUT: into flour mixture</text>
</g>
<!-- E6&#45;&gt;E9 -->
<g id="edge19" class="edge"><title>E6&#45;&gt;E9</title>
<path fill="none" stroke="black" d="M824.441,-180.745C884.508,-166.524 992.529,-142.087 1086,-127 1166.28,-114.042 1258.99,-104.272 1322.16,-98.3921"/>
<polygon fill="black" stroke="black" points="1322.79,-101.849 1332.43,-97.4463 1322.15,-94.8784 1322.79,-101.849"/>
<text text-anchor="middle" x="1161.5" y="-145.8" font-family="Times,serif" font-size="14.00">OUTPUT: </text>
<text text-anchor="middle" x="1161.5" y="-130.8" font-family="Times,serif" font-size="14.00">INPUT: &#160;35 to 40 minutes</text>
</g>
<!-- E7&#45;&gt;E8 -->
<g id="edge15" class="edge"><title>E7&#45;&gt;E8</title>
<path fill="none" stroke="black" d="M1444.39,-278.772C1415.02,-264.202 1368.38,-242.503 1326,-229 1307.88,-223.227 1266.3,-214.638 1228.8,-207.414"/>
<polygon fill="black" stroke="black" points="1229.35,-203.955 1218.87,-205.513 1228.03,-210.83 1229.35,-203.955"/>
<text text-anchor="middle" x="1442" y="-247.8" font-family="Times,serif" font-size="14.00">OUTPUT: </text>
<text text-anchor="middle" x="1442" y="-232.8" font-family="Times,serif" font-size="14.00">INPUT: batter</text>
</g>
<!-- E8&#45;&gt;E9 -->
<g id="edge17" class="edge"><title>E8&#45;&gt;E9</title>
<path fill="none" stroke="black" d="M1192.87,-176.703C1235.7,-158.928 1306.37,-129.605 1352.3,-110.547"/>
<polygon fill="black" stroke="black" points="1353.81,-113.709 1361.71,-106.644 1351.13,-107.244 1353.81,-113.709"/>
<text text-anchor="middle" x="1345" y="-145.8" font-family="Times,serif" font-size="14.00">OUTPUT: </text>
<text text-anchor="middle" x="1345" y="-130.8" font-family="Times,serif" font-size="14.00">INPUT: </text>
</g>
<!-- EOR -->
<g id="node22" class="node"><title>EOR</title>
<ellipse fill="plum" stroke="black" cx="1397" cy="-18" rx="57.3905" ry="18"/>
<text text-anchor="middle" x="1397" y="-14.3" font-family="Times,serif" font-size="14.00">Bon appetit!</text>
</g>
<!-- E9&#45;&gt;EOR -->
<g id="edge21" class="edge"><title>E9&#45;&gt;EOR</title>
<path fill="none" stroke="black" d="M1397,-72.8129C1397,-64.7895 1397,-55.0475 1397,-46.0691"/>
<polygon fill="black" stroke="black" points="1400.5,-46.0288 1397,-36.0288 1393.5,-46.0289 1400.5,-46.0288"/>
</g>
<!-- D3 -->
<g id="node11" class="node"><title>D3</title>
<polygon fill="peachpuff" stroke="black" points="1496.5,-594 1269.5,-594 1269.5,-556 1496.5,-556 1496.5,-594"/>
<text text-anchor="middle" x="1383" y="-578.8" font-family="Times,serif" font-size="14.00">DOBJ: olive oil, eggs, vanilla extract</text>
<text text-anchor="middle" x="1383" y="-563.8" font-family="Times,serif" font-size="14.00">(text: eggs , olive oil , vanilla extract)</text>
</g>
<!-- D3&#45;&gt;E3 -->
<g id="edge1" class="edge"><title>D3&#45;&gt;E3</title>
<path fill="none" stroke="black" d="M1383,-555.831C1383,-547.894 1383,-538.409 1383,-529.628"/>
<polygon fill="black" stroke="black" points="1386.5,-529.418 1383,-519.418 1379.5,-529.418 1386.5,-529.418"/>
</g>
<!-- D0 -->
<g id="node12" class="node"><title>D0</title>
<polygon fill="white" stroke="black" points="1963,-313 1645,-313 1645,-277 1963,-277 1963,-313"/>
<text text-anchor="middle" x="1804" y="-291.3" font-family="Times,serif" font-size="14.00">DOBJ: oven to 350 degrees F &#45;LRB&#45; 175 degrees C</text>
</g>
<!-- D0&#45;&gt;E0 -->
<g id="edge2" class="edge"><title>D0&#45;&gt;E0</title>
<path fill="none" stroke="black" d="M1804,-276.581C1804,-261.382 1804,-239.067 1804,-221.464"/>
<polygon fill="black" stroke="black" points="1807.5,-221.219 1804,-211.219 1800.5,-221.219 1807.5,-221.219"/>
</g>
<!-- D5 -->
<g id="node13" class="node"><title>D5</title>
<polygon fill="peachpuff" stroke="black" points="1008.5,-417 547.5,-417 547.5,-379 1008.5,-379 1008.5,-417"/>
<text text-anchor="middle" x="778" y="-401.8" font-family="Times,serif" font-size="14.00">DOBJ: baking powder, ground cinnamon, whole wheat flour, cocoa powder</text>
<text text-anchor="middle" x="778" y="-386.8" font-family="Times,serif" font-size="14.00">(text: flour , cocoa powder , baking powder , cinnamon in a separate bowl)</text>
</g>
<!-- D5&#45;&gt;E5 -->
<g id="edge3" class="edge"><title>D5&#45;&gt;E5</title>
<path fill="none" stroke="black" d="M778,-378.943C778,-363.531 778,-341.127 778,-323.488"/>
<polygon fill="black" stroke="black" points="781.5,-323.226 778,-313.226 774.5,-323.226 781.5,-323.226"/>
</g>
<!-- D2 -->
<g id="node14" class="node"><title>D2</title>
<polygon fill="peachpuff" stroke="black" points="228,-417 0,-417 0,-379 228,-379 228,-417"/>
<text text-anchor="middle" x="114" y="-401.8" font-family="Times,serif" font-size="14.00">DOBJ: brown sugar, bananas</text>
<text text-anchor="middle" x="114" y="-386.8" font-family="Times,serif" font-size="14.00">(text: mashed bananas, brown sugar)</text>
</g>
<!-- D2&#45;&gt;E2 -->
<g id="edge4" class="edge"><title>D2&#45;&gt;E2</title>
<path fill="none" stroke="black" d="M163.88,-378.943C215.603,-360.219 295.833,-331.175 346.336,-312.893"/>
<polygon fill="black" stroke="black" points="347.812,-316.081 356.023,-309.386 345.429,-309.499 347.812,-316.081"/>
</g>
<!-- P2_0 -->
<g id="node15" class="node"><title>P2_0</title>
<polygon fill="white" stroke="black" points="392,-416 246,-416 246,-380 392,-380 392,-416"/>
<text text-anchor="middle" x="319" y="-394.3" font-family="Times,serif" font-size="14.00">PREP: in a large bowl</text>
</g>
<!-- P2_0&#45;&gt;E2 -->
<g id="edge5" class="edge"><title>P2_0&#45;&gt;E2</title>
<path fill="none" stroke="black" d="M331.553,-379.867C343.318,-363.809 361.052,-339.605 374.449,-321.32"/>
<polygon fill="black" stroke="black" points="377.545,-323.015 380.632,-312.88 371.899,-318.878 377.545,-323.015"/>
</g>
<!-- O2_0 -->
<g id="node16" class="node"><title>O2_0</title>
<polygon fill="white" stroke="black" points="529.5,-416 410.5,-416 410.5,-380 529.5,-380 529.5,-416"/>
<text text-anchor="middle" x="470" y="-394.3" font-family="Times,serif" font-size="14.00">OTHER: together</text>
</g>
<!-- O2_0&#45;&gt;E2 -->
<g id="edge6" class="edge"><title>O2_0&#45;&gt;E2</title>
<path fill="none" stroke="black" d="M456.938,-379.867C444.696,-363.809 426.243,-339.605 412.303,-321.32"/>
<polygon fill="black" stroke="black" points="414.715,-318.711 405.869,-312.88 409.149,-322.955 414.715,-318.711"/>
</g>
<!-- D1 -->
<g id="node17" class="node"><title>D1</title>
<polygon fill="white" stroke="black" points="1199.5,-416 1026.5,-416 1026.5,-380 1199.5,-380 1199.5,-416"/>
<text text-anchor="middle" x="1113" y="-394.3" font-family="Times,serif" font-size="14.00">DOBJ: a 12&#45;cup muffin tin</text>
</g>
<!-- D1&#45;&gt;E1 -->
<g id="edge7" class="edge"><title>D1&#45;&gt;E1</title>
<path fill="none" stroke="black" d="M1120.29,-379.867C1126.97,-364.196 1136.94,-340.766 1144.65,-322.651"/>
<polygon fill="black" stroke="black" points="1147.97,-323.789 1148.67,-313.217 1141.53,-321.047 1147.97,-323.789"/>
</g>
<!-- P1_0 -->
<g id="node18" class="node"><title>P1_0</title>
<polygon fill="peachpuff" stroke="black" points="1390,-417 1218,-417 1218,-379 1390,-379 1390,-417"/>
<text text-anchor="middle" x="1304" y="-401.8" font-family="Times,serif" font-size="14.00">PREP: with cooking spray</text>
<text text-anchor="middle" x="1304" y="-386.8" font-family="Times,serif" font-size="14.00">(text: with cooking spray)</text>
</g>
<!-- P1_0&#45;&gt;E1 -->
<g id="edge8" class="edge"><title>P1_0&#45;&gt;E1</title>
<path fill="none" stroke="black" d="M1277.54,-378.943C1252.33,-361.74 1214.36,-335.827 1187.58,-317.551"/>
<polygon fill="black" stroke="black" points="1189.54,-314.652 1179.31,-311.906 1185.6,-320.434 1189.54,-314.652"/>
</g>
<!-- O4_0_0 -->
<g id="node19" class="node"><title>O4_0_0</title>
<polygon fill="white" stroke="black" points="1562.5,-519 1465.5,-519 1465.5,-483 1562.5,-483 1562.5,-519"/>
<text text-anchor="middle" x="1514" y="-497.3" font-family="Times,serif" font-size="14.00">OTHER: well</text>
</g>
<!-- O4_0_0&#45;&gt;E4 -->
<g id="edge10" class="edge"><title>O4_0_0&#45;&gt;E4</title>
<path fill="none" stroke="black" d="M1507.21,-482.867C1501.01,-467.196 1491.73,-443.766 1484.56,-425.651"/>
<polygon fill="black" stroke="black" points="1487.76,-424.226 1480.82,-416.217 1481.25,-426.804 1487.76,-424.226"/>
</g>
<!-- D7_ing -->
<g id="node20" class="node"><title>D7_ing</title>
<polygon fill="peachpuff" stroke="black" points="1810.5,-417 1557.5,-417 1557.5,-379 1810.5,-379 1810.5,-417"/>
<text text-anchor="middle" x="1684" y="-401.8" font-family="Times,serif" font-size="14.00">DOBJ: chocolate chips, chopped walnuts</text>
<text text-anchor="middle" x="1684" y="-386.8" font-family="Times,serif" font-size="14.00">(text: &#160;walnuts, chocolate chips)</text>
</g>
<!-- D7_ing&#45;&gt;E7 -->
<g id="edge13" class="edge"><title>D7_ing&#45;&gt;E7</title>
<path fill="none" stroke="black" d="M1661.66,-378.951C1642.72,-364.369 1614.34,-344.171 1587,-331 1569.59,-322.614 1549.71,-315.664 1531.54,-310.228"/>
<polygon fill="black" stroke="black" points="1532.5,-306.864 1521.92,-307.444 1530.55,-313.588 1532.5,-306.864"/>
</g>
<!-- O9_0_1 -->
<g id="node21" class="node"><title>O9_0_1</title>
<polygon fill="white" stroke="black" points="1717.5,-211 1260.5,-211 1260.5,-175 1717.5,-175 1717.5,-211"/>
<text text-anchor="middle" x="1489" y="-189.3" font-family="Times,serif" font-size="14.00">OTHER: until a toothpick inserted in the center of a muffin comes out clean </text>
</g>
<!-- O9_0_1&#45;&gt;E9 -->
<g id="edge20" class="edge"><title>O9_0_1&#45;&gt;E9</title>
<path fill="none" stroke="black" d="M1472.97,-174.581C1458.15,-158.471 1435.98,-134.366 1419.4,-116.352"/>
<polygon fill="black" stroke="black" points="1421.58,-113.545 1412.23,-108.555 1416.43,-118.284 1421.58,-113.545"/>
</g>
</g>
</svg>
