<?xml version="1.0" encoding="UTF-8" standalone="no"?>
<!DOCTYPE svg PUBLIC "-//W3C//DTD SVG 1.1//EN"
 "http://www.w3.org/Graphics/SVG/1.1/DTD/svg11.dtd">
<!-- Generated by graphviz version 2.38.0 (20140413.2041)
 -->
<!-- Title: recipe Pages: 1 -->
<svg width="1156pt" height="908pt"
 viewBox="0.00 0.00 1156.00 908.00" xmlns="http://www.w3.org/2000/svg" xmlns:xlink="http://www.w3.org/1999/xlink">
<g id="graph0" class="graph" transform="scale(1 1) rotate(0) translate(4 904)">
<title>recipe</title>
<polygon fill="white" stroke="none" points="-4,4 -4,-904 1152,-904 1152,4 -4,4"/>
<!-- E0 -->
<g id="node1" class="node"><title>E0</title>
<ellipse fill="azure" stroke="black" cx="970" cy="-397" rx="68.7879" ry="18"/>
<text text-anchor="middle" x="970" y="-393.3" font-family="Times,serif" font-size="14.00">preheat (S0,P0)</text>
</g>
<!-- E9 -->
<g id="node10" class="node"><title>E9</title>
<ellipse fill="azure" stroke="black" cx="868" cy="-295" rx="68.7879" ry="18"/>
<text text-anchor="middle" x="868" y="-291.3" font-family="Times,serif" font-size="14.00">bake (S7,P260)</text>
</g>
<!-- E0&#45;&gt;E9 -->
<g id="edge17" class="edge"><title>E0&#45;&gt;E9</title>
<path fill="none" stroke="black" d="M953.157,-379.487C936.62,-363.275 911.217,-338.369 892.456,-319.977"/>
<polygon fill="black" stroke="black" points="894.459,-317.039 884.868,-312.537 889.559,-322.038 894.459,-317.039"/>
<text text-anchor="middle" x="1010" y="-349.8" font-family="Times,serif" font-size="14.00">OUTPUT: </text>
<text text-anchor="middle" x="1010" y="-334.8" font-family="Times,serif" font-size="14.00">INPUT: in preheated oven</text>
</g>
<!-- E1 -->
<g id="node2" class="node"><title>E1</title>
<ellipse fill="azure" stroke="black" cx="572" cy="-499" rx="61.99" ry="18"/>
<text text-anchor="middle" x="572" y="-495.3" font-family="Times,serif" font-size="14.00">coat (S1,P38)</text>
</g>
<!-- E8 -->
<g id="node9" class="node"><title>E8</title>
<ellipse fill="azure" stroke="black" cx="746" cy="-397" rx="73.387" ry="18"/>
<text text-anchor="middle" x="746" y="-393.3" font-family="Times,serif" font-size="14.00">scoop (S6,P240)</text>
</g>
<!-- E1&#45;&gt;E8 -->
<g id="edge15" class="edge"><title>E1&#45;&gt;E8</title>
<path fill="none" stroke="black" d="M574.114,-480.805C576.851,-466.001 583.058,-445.158 597,-433 615.487,-416.878 640.016,-407.832 663.825,-402.855"/>
<polygon fill="black" stroke="black" points="664.777,-406.238 673.965,-400.963 663.493,-399.357 664.777,-406.238"/>
<text text-anchor="middle" x="669.5" y="-451.8" font-family="Times,serif" font-size="14.00">OUTPUT: </text>
<text text-anchor="middle" x="669.5" y="-436.8" font-family="Times,serif" font-size="14.00">INPUT: into muffin pans</text>
</g>
<!-- E2 -->
<g id="node3" class="node"><title>E2</title>
<ellipse fill="azure" stroke="black" cx="422" cy="-295" rx="58.4896" ry="18"/>
<text text-anchor="middle" x="422" y="-291.3" font-family="Times,serif" font-size="14.00">use (S1,P73)</text>
</g>
<!-- E10 -->
<g id="node11" class="node"><title>E10</title>
<ellipse fill="azure" stroke="black" cx="640" cy="-193" rx="68.7879" ry="18"/>
<text text-anchor="middle" x="640" y="-189.3" font-family="Times,serif" font-size="14.00">bake (S8,P280)</text>
</g>
<!-- E2&#45;&gt;E10 -->
<g id="edge18" class="edge"><title>E2&#45;&gt;E10</title>
<path fill="none" stroke="black" d="M440.388,-277.651C457.742,-263.001 485.05,-241.892 512,-229 524.494,-223.023 553.487,-214.94 580.725,-208.048"/>
<polygon fill="black" stroke="black" points="581.793,-211.388 590.647,-205.568 580.096,-204.597 581.793,-211.388"/>
<text text-anchor="middle" x="574" y="-247.8" font-family="Times,serif" font-size="14.00">OUTPUT: </text>
<text text-anchor="middle" x="574" y="-232.8" font-family="Times,serif" font-size="14.00">INPUT: mini muffins</text>
</g>
<!-- E3 -->
<g id="node4" class="node"><title>E3</title>
<ellipse fill="azure" stroke="black" cx="528" cy="-806" rx="57.6901" ry="18"/>
<text text-anchor="middle" x="528" y="-802.3" font-family="Times,serif" font-size="14.00">sift (S2,P88)</text>
</g>
<!-- E4 -->
<g id="node5" class="node"><title>E4</title>
<ellipse fill="azure" stroke="black" cx="654" cy="-703" rx="61.1893" ry="18"/>
<text text-anchor="middle" x="654" y="-699.3" font-family="Times,serif" font-size="14.00">set (S3,P141)</text>
</g>
<!-- E3&#45;&gt;E4 -->
<g id="edge8" class="edge"><title>E3&#45;&gt;E4</title>
<path fill="none" stroke="black" d="M539.889,-788.234C550.7,-773.856 567.72,-753.263 586,-739 593.692,-732.999 602.57,-727.559 611.32,-722.853"/>
<polygon fill="black" stroke="black" points="613.04,-725.904 620.336,-718.222 609.842,-719.677 613.04,-725.904"/>
<text text-anchor="middle" x="618" y="-757.8" font-family="Times,serif" font-size="14.00">OUTPUT: </text>
<text text-anchor="middle" x="618" y="-742.8" font-family="Times,serif" font-size="14.00">INPUT: </text>
</g>
<!-- E6 -->
<g id="node7" class="node"><title>E6</title>
<ellipse fill="azure" stroke="black" cx="746" cy="-601" rx="66.0889" ry="18"/>
<text text-anchor="middle" x="746" y="-597.3" font-family="Times,serif" font-size="14.00">fold (S5,P203)</text>
</g>
<!-- E4&#45;&gt;E6 -->
<g id="edge11" class="edge"><title>E4&#45;&gt;E6</title>
<path fill="none" stroke="black" d="M665.39,-685.164C674.965,-671.539 689.394,-652.187 704,-637 707.948,-632.895 712.352,-628.792 716.782,-624.915"/>
<polygon fill="black" stroke="black" points="719.313,-627.358 724.691,-618.229 714.794,-622.012 719.313,-627.358"/>
<text text-anchor="middle" x="775" y="-655.8" font-family="Times,serif" font-size="14.00">OUTPUT: </text>
<text text-anchor="middle" x="775" y="-640.8" font-family="Times,serif" font-size="14.00">INPUT: in flour mixture</text>
</g>
<!-- E5 -->
<g id="node6" class="node"><title>E5</title>
<ellipse fill="azure" stroke="black" cx="888" cy="-703" rx="83.3857" ry="18"/>
<text text-anchor="middle" x="888" y="-699.3" font-family="Times,serif" font-size="14.00">combine (S4,P150)</text>
</g>
<!-- E5&#45;&gt;E6 -->
<g id="edge10" class="edge"><title>E5&#45;&gt;E6</title>
<path fill="none" stroke="black" d="M880.782,-684.788C873.844,-670.179 862.046,-649.632 846,-637 834.433,-627.894 820.325,-621.061 806.395,-615.97"/>
<polygon fill="black" stroke="black" points="807.408,-612.618 796.814,-612.717 805.158,-619.246 807.408,-612.618"/>
<text text-anchor="middle" x="902" y="-655.8" font-family="Times,serif" font-size="14.00">OUTPUT: </text>
<text text-anchor="middle" x="902" y="-640.8" font-family="Times,serif" font-size="14.00">INPUT: </text>
</g>
<!-- E7 -->
<g id="node8" class="node"><title>E7</title>
<ellipse fill="azure" stroke="black" cx="746" cy="-499" rx="65.7887" ry="18"/>
<text text-anchor="middle" x="746" y="-495.3" font-family="Times,serif" font-size="14.00">mix (S5,P225)</text>
</g>
<!-- E6&#45;&gt;E7 -->
<g id="edge12" class="edge"><title>E6&#45;&gt;E7</title>
<path fill="none" stroke="black" d="M746,-582.581C746,-567.382 746,-545.067 746,-527.464"/>
<polygon fill="black" stroke="black" points="749.5,-527.219 746,-517.219 742.5,-527.219 749.5,-527.219"/>
<text text-anchor="middle" x="778" y="-553.8" font-family="Times,serif" font-size="14.00">OUTPUT: </text>
<text text-anchor="middle" x="778" y="-538.8" font-family="Times,serif" font-size="14.00">INPUT: </text>
</g>
<!-- E7&#45;&gt;E8 -->
<g id="edge14" class="edge"><title>E7&#45;&gt;E8</title>
<path fill="none" stroke="black" d="M746,-480.581C746,-465.382 746,-443.067 746,-425.464"/>
<polygon fill="black" stroke="black" points="749.5,-425.219 746,-415.219 742.5,-425.219 749.5,-425.219"/>
<text text-anchor="middle" x="778" y="-451.8" font-family="Times,serif" font-size="14.00">OUTPUT: </text>
<text text-anchor="middle" x="778" y="-436.8" font-family="Times,serif" font-size="14.00">INPUT: </text>
</g>
<!-- E8&#45;&gt;E9 -->
<g id="edge16" class="edge"><title>E8&#45;&gt;E9</title>
<path fill="none" stroke="black" d="M766.146,-379.487C786.278,-362.985 817.398,-337.477 839.943,-318.998"/>
<polygon fill="black" stroke="black" points="842.309,-321.584 847.824,-312.537 837.872,-316.17 842.309,-321.584"/>
<text text-anchor="middle" x="857" y="-349.8" font-family="Times,serif" font-size="14.00">OUTPUT: </text>
<text text-anchor="middle" x="857" y="-334.8" font-family="Times,serif" font-size="14.00">INPUT: </text>
</g>
<!-- E9&#45;&gt;E10 -->
<g id="edge19" class="edge"><title>E9&#45;&gt;E10</title>
<path fill="none" stroke="black" d="M834.358,-279.245C794.197,-261.63 726.966,-232.143 683.051,-212.882"/>
<polygon fill="black" stroke="black" points="684.344,-209.627 673.78,-208.816 681.532,-216.038 684.344,-209.627"/>
<text text-anchor="middle" x="873" y="-247.8" font-family="Times,serif" font-size="14.00">OUTPUT: </text>
<text text-anchor="middle" x="873" y="-232.8" font-family="Times,serif" font-size="14.00">INPUT: for 10 to 15 minutes </text>
</g>
<!-- E11 -->
<g id="node12" class="node"><title>E11</title>
<ellipse fill="azure" stroke="black" cx="297" cy="-91" rx="75.2868" ry="18"/>
<text text-anchor="middle" x="297" y="-87.3" font-family="Times,serif" font-size="14.00">spring (S9,P355)</text>
</g>
<!-- E10&#45;&gt;E11 -->
<g id="edge21" class="edge"><title>E10&#45;&gt;E11</title>
<path fill="none" stroke="black" d="M595.861,-179.131C533.691,-161.006 420.367,-127.967 352.547,-108.194"/>
<polygon fill="black" stroke="black" points="353.462,-104.816 342.882,-105.377 351.503,-111.536 353.462,-104.816"/>
<text text-anchor="middle" x="551" y="-145.8" font-family="Times,serif" font-size="14.00">OUTPUT: </text>
<text text-anchor="middle" x="551" y="-130.8" font-family="Times,serif" font-size="14.00">INPUT: </text>
</g>
<!-- EOR -->
<g id="node27" class="node"><title>EOR</title>
<ellipse fill="plum" stroke="black" cx="297" cy="-18" rx="57.3905" ry="18"/>
<text text-anchor="middle" x="297" y="-14.3" font-family="Times,serif" font-size="14.00">Bon appetit!</text>
</g>
<!-- E11&#45;&gt;EOR -->
<g id="edge26" class="edge"><title>E11&#45;&gt;EOR</title>
<path fill="none" stroke="black" d="M297,-72.8129C297,-64.7895 297,-55.0475 297,-46.0691"/>
<polygon fill="black" stroke="black" points="300.5,-46.0288 297,-36.0288 293.5,-46.0289 300.5,-46.0288"/>
</g>
<!-- D0 -->
<g id="node13" class="node"><title>D0</title>
<polygon fill="white" stroke="black" points="1148,-517 830,-517 830,-481 1148,-481 1148,-517"/>
<text text-anchor="middle" x="989" y="-495.3" font-family="Times,serif" font-size="14.00">DOBJ: oven to 350 degrees F &#45;LRB&#45; 175 degrees C</text>
</g>
<!-- D0&#45;&gt;E0 -->
<g id="edge1" class="edge"><title>D0&#45;&gt;E0</title>
<path fill="none" stroke="black" d="M985.69,-480.581C982.803,-465.382 978.563,-443.067 975.218,-425.464"/>
<polygon fill="black" stroke="black" points="978.577,-424.39 973.272,-415.219 971.7,-425.697 978.577,-424.39"/>
</g>
<!-- D2 -->
<g id="node14" class="node"><title>D2</title>
<polygon fill="white" stroke="black" points="486,-415 358,-415 358,-379 486,-379 486,-415"/>
<text text-anchor="middle" x="422" y="-393.3" font-family="Times,serif" font-size="14.00">DOBJ: paper liners</text>
</g>
<!-- D2&#45;&gt;E2 -->
<g id="edge2" class="edge"><title>D2&#45;&gt;E2</title>
<path fill="none" stroke="black" d="M422,-378.581C422,-363.382 422,-341.067 422,-323.464"/>
<polygon fill="black" stroke="black" points="425.5,-323.219 422,-313.219 418.5,-323.219 425.5,-323.219"/>
</g>
<!-- D1 -->
<g id="node15" class="node"><title>D1</title>
<polygon fill="white" stroke="black" points="464.5,-619 335.5,-619 335.5,-583 464.5,-583 464.5,-619"/>
<text text-anchor="middle" x="400" y="-597.3" font-family="Times,serif" font-size="14.00">DOBJ: muffin pans</text>
</g>
<!-- D1&#45;&gt;E1 -->
<g id="edge3" class="edge"><title>D1&#45;&gt;E1</title>
<path fill="none" stroke="black" d="M429.568,-582.809C459.291,-565.529 505.115,-538.887 536.72,-520.512"/>
<polygon fill="black" stroke="black" points="538.748,-523.381 545.634,-515.329 535.23,-517.33 538.748,-523.381"/>
</g>
<!-- P1_0 -->
<g id="node16" class="node"><title>P1_0</title>
<polygon fill="white" stroke="black" points="661.5,-619 482.5,-619 482.5,-583 661.5,-583 661.5,-619"/>
<text text-anchor="middle" x="572" y="-597.3" font-family="Times,serif" font-size="14.00">PREP: with non&#45;stick spray</text>
</g>
<!-- P1_0&#45;&gt;E1 -->
<g id="edge4" class="edge"><title>P1_0&#45;&gt;E1</title>
<path fill="none" stroke="black" d="M572,-582.581C572,-567.382 572,-545.067 572,-527.464"/>
<polygon fill="black" stroke="black" points="575.5,-527.219 572,-517.219 568.5,-527.219 575.5,-527.219"/>
</g>
<!-- D3 -->
<g id="node17" class="node"><title>D3</title>
<polygon fill="peachpuff" stroke="black" points="578.5,-900 223.5,-900 223.5,-862 578.5,-862 578.5,-900"/>
<text text-anchor="middle" x="401" y="-884.8" font-family="Times,serif" font-size="14.00">DOBJ: baking powder, all&#45;purpose flour, baking soda, salt</text>
<text text-anchor="middle" x="401" y="-869.8" font-family="Times,serif" font-size="14.00">(text: the flour , baking powder , baking soda , salt)</text>
</g>
<!-- D3&#45;&gt;E3 -->
<g id="edge5" class="edge"><title>D3&#45;&gt;E3</title>
<path fill="none" stroke="black" d="M432.393,-861.955C450.699,-851.433 473.836,-838.133 492.764,-827.254"/>
<polygon fill="black" stroke="black" points="494.753,-830.148 501.678,-822.13 491.264,-824.079 494.753,-830.148"/>
</g>
<!-- O3_0 -->
<g id="node18" class="node"><title>O3_0</title>
<polygon fill="white" stroke="black" points="715.5,-899 596.5,-899 596.5,-863 715.5,-863 715.5,-899"/>
<text text-anchor="middle" x="656" y="-877.3" font-family="Times,serif" font-size="14.00">OTHER: together</text>
</g>
<!-- O3_0&#45;&gt;E3 -->
<g id="edge6" class="edge"><title>O3_0&#45;&gt;E3</title>
<path fill="none" stroke="black" d="M625.99,-862.885C607.151,-852.141 582.776,-838.239 563.05,-826.99"/>
<polygon fill="black" stroke="black" points="564.771,-823.942 554.351,-822.028 561.303,-830.023 564.771,-823.942"/>
</g>
<!-- D5 -->
<g id="node19" class="node"><title>D5</title>
<polygon fill="peachpuff" stroke="black" points="1073,-825 723,-825 723,-787 1073,-787 1073,-825"/>
<text text-anchor="middle" x="898" y="-809.8" font-family="Times,serif" font-size="14.00">DOBJ: large bananas, white sugar, butter, egg</text>
<text text-anchor="middle" x="898" y="-794.8" font-family="Times,serif" font-size="14.00">(text: bananas , sugar , egg , melted butter in a large bowl)</text>
</g>
<!-- D5&#45;&gt;E5 -->
<g id="edge7" class="edge"><title>D5&#45;&gt;E5</title>
<path fill="none" stroke="black" d="M896.212,-786.943C894.686,-771.531 892.468,-749.127 890.722,-731.488"/>
<polygon fill="black" stroke="black" points="894.174,-730.833 889.706,-721.226 887.208,-731.522 894.174,-730.833"/>
</g>
<!-- O4_0_0 -->
<g id="node20" class="node"><title>O4_0_0</title>
<polygon fill="white" stroke="black" points="704.5,-824 603.5,-824 603.5,-788 704.5,-788 704.5,-824"/>
<text text-anchor="middle" x="654" y="-802.3" font-family="Times,serif" font-size="14.00">OTHER: aside</text>
</g>
<!-- O4_0_0&#45;&gt;E4 -->
<g id="edge9" class="edge"><title>O4_0_0&#45;&gt;E4</title>
<path fill="none" stroke="black" d="M654,-787.867C654,-772.414 654,-749.416 654,-731.409"/>
<polygon fill="black" stroke="black" points="657.5,-731.217 654,-721.217 650.5,-731.217 657.5,-731.217"/>
</g>
<!-- P7_0_0 -->
<g id="node21" class="node"><title>P7_0_0</title>
<polygon fill="white" stroke="black" points="962,-619 830,-619 830,-583 962,-583 962,-619"/>
<text text-anchor="middle" x="896" y="-597.3" font-family="Times,serif" font-size="14.00">PREP: until smooth</text>
</g>
<!-- P7_0_0&#45;&gt;E7 -->
<g id="edge13" class="edge"><title>P7_0_0&#45;&gt;E7</title>
<path fill="none" stroke="black" d="M876.595,-582.836C860.471,-569.02 836.595,-549.572 814,-535 805.464,-529.495 795.957,-524.154 786.822,-519.372"/>
<polygon fill="black" stroke="black" points="788.358,-516.226 777.861,-514.79 785.171,-522.459 788.358,-516.226"/>
</g>
<!-- P10_0_1 -->
<g id="node22" class="node"><title>P10_0_1</title>
<polygon fill="white" stroke="black" points="781.5,-313 498.5,-313 498.5,-277 781.5,-277 781.5,-313"/>
<text text-anchor="middle" x="640" y="-291.3" font-family="Times,serif" font-size="14.00">PREP: for &#160;large muffins for 25 to 30 minutes</text>
</g>
<!-- P10_0_1&#45;&gt;E10 -->
<g id="edge20" class="edge"><title>P10_0_1&#45;&gt;E10</title>
<path fill="none" stroke="black" d="M640,-276.581C640,-261.382 640,-239.067 640,-221.464"/>
<polygon fill="black" stroke="black" points="643.5,-221.219 640,-211.219 636.5,-221.219 643.5,-221.219"/>
</g>
<!-- O11_0_0 -->
<g id="node23" class="node"><title>O11_0_0</title>
<polygon fill="white" stroke="black" points="116,-211 0,-211 0,-175 116,-175 116,-211"/>
<text text-anchor="middle" x="58" y="-189.3" font-family="Times,serif" font-size="14.00">OTHER: muffins</text>
</g>
<!-- O11_0_0&#45;&gt;E11 -->
<g id="edge22" class="edge"><title>O11_0_0&#45;&gt;E11</title>
<path fill="none" stroke="black" d="M98.814,-174.923C141.418,-157.097 208.041,-129.221 252.106,-110.784"/>
<polygon fill="black" stroke="black" points="253.549,-113.974 261.423,-106.886 250.847,-107.517 253.549,-113.974"/>
</g>
<!-- O11_1_0 -->
<g id="node24" class="node"><title>O11_1_0</title>
<polygon fill="white" stroke="black" points="229.5,-211 134.5,-211 134.5,-175 229.5,-175 229.5,-211"/>
<text text-anchor="middle" x="182" y="-189.3" font-family="Times,serif" font-size="14.00">OTHER: will</text>
</g>
<!-- O11_1_0&#45;&gt;E11 -->
<g id="edge23" class="edge"><title>O11_1_0&#45;&gt;E11</title>
<path fill="none" stroke="black" d="M201.769,-174.809C220.675,-158.37 249.323,-133.458 270.26,-115.252"/>
<polygon fill="black" stroke="black" points="272.621,-117.837 277.871,-108.634 268.028,-112.555 272.621,-117.837"/>
</g>
<!-- O11_2_0 -->
<g id="node25" class="node"><title>O11_2_0</title>
<polygon fill="white" stroke="black" points="346.5,-211 247.5,-211 247.5,-175 346.5,-175 346.5,-211"/>
<text text-anchor="middle" x="297" y="-189.3" font-family="Times,serif" font-size="14.00">OTHER: back</text>
</g>
<!-- O11_2_0&#45;&gt;E11 -->
<g id="edge24" class="edge"><title>O11_2_0&#45;&gt;E11</title>
<path fill="none" stroke="black" d="M297,-174.581C297,-159.382 297,-137.067 297,-119.464"/>
<polygon fill="black" stroke="black" points="300.5,-119.219 297,-109.219 293.5,-119.219 300.5,-119.219"/>
</g>
<!-- O11_3_0 -->
<g id="node26" class="node"><title>O11_3_0</title>
<polygon fill="white" stroke="black" points="553,-211 365,-211 365,-175 553,-175 553,-211"/>
<text text-anchor="middle" x="459" y="-189.3" font-family="Times,serif" font-size="14.00">OTHER: when lightly tapped</text>
</g>
<!-- O11_3_0&#45;&gt;E11 -->
<g id="edge25" class="edge"><title>O11_3_0&#45;&gt;E11</title>
<path fill="none" stroke="black" d="M431.151,-174.809C403.605,-157.805 361.374,-131.737 331.669,-113.4"/>
<polygon fill="black" stroke="black" points="333.23,-110.251 322.882,-107.977 329.553,-116.208 333.23,-110.251"/>
</g>
</g>
</svg>
