<?xml version="1.0" encoding="UTF-8" standalone="no"?>
<!DOCTYPE svg PUBLIC "-//W3C//DTD SVG 1.1//EN"
 "http://www.w3.org/Graphics/SVG/1.1/DTD/svg11.dtd">
<!-- Generated by graphviz version 2.38.0 (20140413.2041)
 -->
<!-- Title: recipe Pages: 1 -->
<svg width="2200pt" height="912pt"
 viewBox="0.00 0.00 2200.00 912.00" xmlns="http://www.w3.org/2000/svg" xmlns:xlink="http://www.w3.org/1999/xlink">
<g id="graph0" class="graph" transform="scale(1 1) rotate(0) translate(4 908)">
<title>recipe</title>
<polygon fill="white" stroke="none" points="-4,4 -4,-908 2196,-908 2196,4 -4,4"/>
<!-- E0 -->
<g id="node1" class="node"><title>E0</title>
<ellipse fill="azure" stroke="black" cx="2033" cy="-295" rx="68.7879" ry="18"/>
<text text-anchor="middle" x="2033" y="-291.3" font-family="Times,serif" font-size="14.00">preheat (S0,P0)</text>
</g>
<!-- E1 -->
<g id="node2" class="node"><title>E1</title>
<ellipse fill="azure" stroke="black" cx="1831" cy="-193" rx="66.8882" ry="18"/>
<text text-anchor="middle" x="1831" y="-189.3" font-family="Times,serif" font-size="14.00">spray (S1,P38)</text>
</g>
<!-- E0&#45;&gt;E1 -->
<g id="edge6" class="edge"><title>E0&#45;&gt;E1</title>
<path fill="none" stroke="black" d="M2002.32,-278.812C1967.22,-261.435 1909.62,-232.92 1871.02,-213.81"/>
<polygon fill="black" stroke="black" points="1872.15,-210.467 1861.64,-209.167 1869.05,-216.74 1872.15,-210.467"/>
<text text-anchor="middle" x="2018.5" y="-247.8" font-family="Times,serif" font-size="14.00">OUTPUT: </text>
<text text-anchor="middle" x="2018.5" y="-232.8" font-family="Times,serif" font-size="14.00">INPUT: muffin tins</text>
</g>
<!-- E9 -->
<g id="node10" class="node"><title>E9</title>
<ellipse fill="azure" stroke="black" cx="1666" cy="-91" rx="79.0865" ry="18"/>
<text text-anchor="middle" x="1666" y="-87.3" font-family="Times,serif" font-size="14.00">remove (S9,P346)</text>
</g>
<!-- E1&#45;&gt;E9 -->
<g id="edge23" class="edge"><title>E1&#45;&gt;E9</title>
<path fill="none" stroke="black" d="M1805.22,-176.375C1777.25,-159.426 1732.44,-132.264 1701.23,-113.353"/>
<polygon fill="black" stroke="black" points="1702.78,-110.201 1692.42,-108.011 1699.16,-116.188 1702.78,-110.201"/>
<text text-anchor="middle" x="1820" y="-145.8" font-family="Times,serif" font-size="14.00">OUTPUT: </text>
<text text-anchor="middle" x="1820" y="-130.8" font-family="Times,serif" font-size="14.00">INPUT: muffins</text>
</g>
<!-- E2 -->
<g id="node3" class="node"><title>E2</title>
<ellipse fill="azure" stroke="black" cx="318" cy="-810" rx="57.6901" ry="18"/>
<text text-anchor="middle" x="318" y="-806.3" font-family="Times,serif" font-size="14.00">stir (S2,P91)</text>
</g>
<!-- E3 -->
<g id="node4" class="node"><title>E3</title>
<ellipse fill="azure" stroke="black" cx="489" cy="-706" rx="66.0889" ry="18"/>
<text text-anchor="middle" x="489" y="-702.3" font-family="Times,serif" font-size="14.00">beat (S3,P149)</text>
</g>
<!-- E2&#45;&gt;E3 -->
<g id="edge9" class="edge"><title>E2&#45;&gt;E3</title>
<path fill="none" stroke="black" d="M315.98,-791.817C315.246,-776.968 316.79,-755.915 329,-743 341.515,-729.761 381.499,-720.763 418.362,-715.073"/>
<polygon fill="black" stroke="black" points="419.269,-718.477 428.651,-713.555 418.247,-711.552 419.269,-718.477"/>
<text text-anchor="middle" x="407" y="-761.8" font-family="Times,serif" font-size="14.00">OUTPUT: </text>
<text text-anchor="middle" x="407" y="-746.8" font-family="Times,serif" font-size="14.00">INPUT: in a medium bowl</text>
</g>
<!-- E4 -->
<g id="node5" class="node"><title>E4</title>
<ellipse fill="azure" stroke="black" cx="697" cy="-603" rx="63.0888" ry="18"/>
<text text-anchor="middle" x="697" y="-599.3" font-family="Times,serif" font-size="14.00">stir (S4,P171)</text>
</g>
<!-- E3&#45;&gt;E4 -->
<g id="edge11" class="edge"><title>E3&#45;&gt;E4</title>
<path fill="none" stroke="black" d="M520.14,-689.879C556.651,-672.15 617.241,-642.729 657.15,-623.35"/>
<polygon fill="black" stroke="black" points="658.86,-626.411 666.326,-618.894 655.802,-620.114 658.86,-626.411"/>
<text text-anchor="middle" x="656" y="-657.8" font-family="Times,serif" font-size="14.00">OUTPUT: </text>
<text text-anchor="middle" x="656" y="-642.8" font-family="Times,serif" font-size="14.00">INPUT: </text>
</g>
<!-- E5 -->
<g id="node6" class="node"><title>E5</title>
<ellipse fill="azure" stroke="black" cx="854" cy="-500" rx="64.9885" ry="18"/>
<text text-anchor="middle" x="854" y="-496.3" font-family="Times,serif" font-size="14.00">add (S5,P208)</text>
</g>
<!-- E4&#45;&gt;E5 -->
<g id="edge13" class="edge"><title>E4&#45;&gt;E5</title>
<path fill="none" stroke="black" d="M717.272,-585.897C734.941,-572.181 761.504,-552.319 786,-537 795.012,-531.364 804.991,-525.754 814.466,-520.698"/>
<polygon fill="black" stroke="black" points="816.118,-523.783 823.347,-516.037 812.866,-517.585 816.118,-523.783"/>
<text text-anchor="middle" x="818" y="-555.8" font-family="Times,serif" font-size="14.00">OUTPUT: </text>
<text text-anchor="middle" x="818" y="-540.8" font-family="Times,serif" font-size="14.00">INPUT: </text>
</g>
<!-- E6 -->
<g id="node7" class="node"><title>E6</title>
<ellipse fill="azure" stroke="black" cx="980" cy="-397" rx="63.0888" ry="18"/>
<text text-anchor="middle" x="980" y="-393.3" font-family="Times,serif" font-size="14.00">stir (S6,P252)</text>
</g>
<!-- E5&#45;&gt;E6 -->
<g id="edge16" class="edge"><title>E5&#45;&gt;E6</title>
<path fill="none" stroke="black" d="M871.066,-482.571C885.706,-468.776 907.607,-448.839 928,-433 933.909,-428.411 940.394,-423.762 946.72,-419.417"/>
<polygon fill="black" stroke="black" points="948.844,-422.206 955.179,-413.714 944.931,-416.402 948.844,-422.206"/>
<text text-anchor="middle" x="960" y="-451.8" font-family="Times,serif" font-size="14.00">OUTPUT: </text>
<text text-anchor="middle" x="960" y="-436.8" font-family="Times,serif" font-size="14.00">INPUT: </text>
</g>
<!-- E7 -->
<g id="node8" class="node"><title>E7</title>
<ellipse fill="azure" stroke="black" cx="1093" cy="-295" rx="77.1866" ry="18"/>
<text text-anchor="middle" x="1093" y="-291.3" font-family="Times,serif" font-size="14.00">fill pan (S7,P266)</text>
</g>
<!-- E6&#45;&gt;E7 -->
<g id="edge18" class="edge"><title>E6&#45;&gt;E7</title>
<path fill="none" stroke="black" d="M993.546,-379.193C1005.1,-365.408 1022.57,-345.82 1040,-331 1045.42,-326.394 1051.47,-321.887 1057.5,-317.721"/>
<polygon fill="black" stroke="black" points="1059.85,-320.357 1066.22,-311.892 1055.96,-314.537 1059.85,-320.357"/>
<text text-anchor="middle" x="1072" y="-349.8" font-family="Times,serif" font-size="14.00">OUTPUT: </text>
<text text-anchor="middle" x="1072" y="-334.8" font-family="Times,serif" font-size="14.00">INPUT: </text>
</g>
<!-- E8 -->
<g id="node9" class="node"><title>E8</title>
<ellipse fill="azure" stroke="black" cx="1348" cy="-193" rx="68.7879" ry="18"/>
<text text-anchor="middle" x="1348" y="-189.3" font-family="Times,serif" font-size="14.00">bake (S8,P291)</text>
</g>
<!-- E7&#45;&gt;E8 -->
<g id="edge20" class="edge"><title>E7&#45;&gt;E8</title>
<path fill="none" stroke="black" d="M1127.29,-278.76C1158.33,-265.152 1205.41,-244.963 1247,-229 1263.21,-222.777 1281.07,-216.427 1297.2,-210.874"/>
<polygon fill="black" stroke="black" points="1298.66,-214.074 1306.99,-207.528 1296.4,-207.45 1298.66,-214.074"/>
<text text-anchor="middle" x="1279" y="-247.8" font-family="Times,serif" font-size="14.00">OUTPUT: </text>
<text text-anchor="middle" x="1279" y="-232.8" font-family="Times,serif" font-size="14.00">INPUT: </text>
</g>
<!-- E8&#45;&gt;E9 -->
<g id="edge24" class="edge"><title>E8&#45;&gt;E9</title>
<path fill="none" stroke="black" d="M1390.23,-178.721C1447.32,-160.767 1549.18,-128.737 1611.84,-109.031"/>
<polygon fill="black" stroke="black" points="1613.06,-112.317 1621.55,-105.979 1610.96,-105.64 1613.06,-112.317"/>
<text text-anchor="middle" x="1606.5" y="-145.8" font-family="Times,serif" font-size="14.00">OUTPUT: </text>
<text text-anchor="middle" x="1606.5" y="-130.8" font-family="Times,serif" font-size="14.00">INPUT: from pan</text>
</g>
<!-- EOR -->
<g id="node26" class="node"><title>EOR</title>
<ellipse fill="plum" stroke="black" cx="1666" cy="-18" rx="57.3905" ry="18"/>
<text text-anchor="middle" x="1666" y="-14.3" font-family="Times,serif" font-size="14.00">Bon appetit!</text>
</g>
<!-- E9&#45;&gt;EOR -->
<g id="edge25" class="edge"><title>E9&#45;&gt;EOR</title>
<path fill="none" stroke="black" d="M1666,-72.8129C1666,-64.7895 1666,-55.0475 1666,-46.0691"/>
<polygon fill="black" stroke="black" points="1669.5,-46.0288 1666,-36.0288 1662.5,-46.0289 1669.5,-46.0288"/>
</g>
<!-- D2 -->
<g id="node11" class="node"><title>D2</title>
<polygon fill="peachpuff" stroke="black" points="158,-904 0,-904 0,-866 158,-866 158,-904"/>
<text text-anchor="middle" x="79" y="-888.8" font-family="Times,serif" font-size="14.00">DOBJ: all&#45;purpose flour</text>
<text text-anchor="middle" x="79" y="-873.8" font-family="Times,serif" font-size="14.00">(text: flour)</text>
</g>
<!-- D2&#45;&gt;E2 -->
<g id="edge1" class="edge"><title>D2&#45;&gt;E2</title>
<path fill="none" stroke="black" d="M138.079,-865.955C178.177,-853.708 230.592,-837.698 268.496,-826.12"/>
<polygon fill="black" stroke="black" points="269.75,-829.397 278.291,-823.129 267.705,-822.703 269.75,-829.397"/>
</g>
<!-- P2_0 -->
<g id="node12" class="node"><title>P2_0</title>
<polygon fill="white" stroke="black" points="313.5,-903 176.5,-903 176.5,-867 313.5,-867 313.5,-903"/>
<text text-anchor="middle" x="245" y="-881.3" font-family="Times,serif" font-size="14.00">PREP: in large bowl</text>
</g>
<!-- P2_0&#45;&gt;E2 -->
<g id="edge2" class="edge"><title>P2_0&#45;&gt;E2</title>
<path fill="none" stroke="black" d="M262.3,-866.7C271.8,-857.2 283.725,-845.275 294.102,-834.898"/>
<polygon fill="black" stroke="black" points="296.73,-837.219 301.327,-827.673 291.781,-832.27 296.73,-837.219"/>
</g>
<!-- O2_0 -->
<g id="node13" class="node"><title>O2_0</title>
<polygon fill="white" stroke="black" points="450.5,-903 331.5,-903 331.5,-867 450.5,-867 450.5,-903"/>
<text text-anchor="middle" x="391" y="-881.3" font-family="Times,serif" font-size="14.00">OTHER: together</text>
</g>
<!-- O2_0&#45;&gt;E2 -->
<g id="edge3" class="edge"><title>O2_0&#45;&gt;E2</title>
<path fill="none" stroke="black" d="M373.7,-866.7C364.2,-857.2 352.275,-845.275 341.898,-834.898"/>
<polygon fill="black" stroke="black" points="344.219,-832.27 334.673,-827.673 339.27,-837.219 344.219,-832.27"/>
</g>
<!-- O2_1 -->
<g id="node14" class="node"><title>O2_1</title>
<polygon fill="peachpuff" stroke="black" points="731.5,-904 468.5,-904 468.5,-866 731.5,-866 731.5,-904"/>
<text text-anchor="middle" x="600" y="-888.8" font-family="Times,serif" font-size="14.00">OTHER: baking powder, baking soda, salt</text>
<text text-anchor="middle" x="600" y="-873.8" font-family="Times,serif" font-size="14.00">(text: baking powder , soda , salt)</text>
</g>
<!-- O2_1&#45;&gt;E2 -->
<g id="edge4" class="edge"><title>O2_1&#45;&gt;E2</title>
<path fill="none" stroke="black" d="M530.292,-865.955C481.011,-853.198 415.962,-836.359 370.919,-824.699"/>
<polygon fill="black" stroke="black" points="371.616,-821.264 361.057,-822.146 369.861,-828.041 371.616,-821.264"/>
</g>
<!-- D0 -->
<g id="node15" class="node"><title>D0</title>
<polygon fill="white" stroke="black" points="2192,-415 1874,-415 1874,-379 2192,-379 2192,-415"/>
<text text-anchor="middle" x="2033" y="-393.3" font-family="Times,serif" font-size="14.00">DOBJ: oven to 350 degrees F &#45;LRB&#45; 175 degrees C</text>
</g>
<!-- D0&#45;&gt;E0 -->
<g id="edge5" class="edge"><title>D0&#45;&gt;E0</title>
<path fill="none" stroke="black" d="M2033,-378.581C2033,-363.382 2033,-341.067 2033,-323.464"/>
<polygon fill="black" stroke="black" points="2036.5,-323.219 2033,-313.219 2029.5,-323.219 2036.5,-323.219"/>
</g>
<!-- P1_0_0 -->
<g id="node16" class="node"><title>P1_0_0</title>
<polygon fill="white" stroke="black" points="1946,-313 1716,-313 1716,-277 1946,-277 1946,-313"/>
<text text-anchor="middle" x="1831" y="-291.3" font-family="Times,serif" font-size="14.00">PREP: with non&#45;stick cooking spray</text>
</g>
<!-- P1_0_0&#45;&gt;E1 -->
<g id="edge7" class="edge"><title>P1_0_0&#45;&gt;E1</title>
<path fill="none" stroke="black" d="M1831,-276.581C1831,-261.382 1831,-239.067 1831,-221.464"/>
<polygon fill="black" stroke="black" points="1834.5,-221.219 1831,-211.219 1827.5,-221.219 1834.5,-221.219"/>
</g>
<!-- D3_ing -->
<g id="node17" class="node"><title>D3_ing</title>
<polygon fill="peachpuff" stroke="black" points="550,-829 428,-829 428,-791 550,-791 550,-829"/>
<text text-anchor="middle" x="489" y="-813.8" font-family="Times,serif" font-size="14.00">DOBJ: egg whites</text>
<text text-anchor="middle" x="489" y="-798.8" font-family="Times,serif" font-size="14.00">(text: egg whites)</text>
</g>
<!-- D3_ing&#45;&gt;E3 -->
<g id="edge8" class="edge"><title>D3_ing&#45;&gt;E3</title>
<path fill="none" stroke="black" d="M489,-790.764C489,-775.031 489,-752.083 489,-734.183"/>
<polygon fill="black" stroke="black" points="492.5,-734.06 489,-724.06 485.5,-734.06 492.5,-734.06"/>
</g>
<!-- O3_0_0 -->
<g id="node18" class="node"><title>O3_0_0</title>
<polygon fill="white" stroke="black" points="683.5,-828 568.5,-828 568.5,-792 683.5,-792 683.5,-828"/>
<text text-anchor="middle" x="626" y="-806.3" font-family="Times,serif" font-size="14.00">OTHER: slightly</text>
</g>
<!-- O3_0_0&#45;&gt;E3 -->
<g id="edge10" class="edge"><title>O3_0_0&#45;&gt;E3</title>
<path fill="none" stroke="black" d="M603.069,-791.927C579.938,-774.705 544.118,-748.037 518.798,-729.186"/>
<polygon fill="black" stroke="black" points="520.759,-726.282 510.648,-723.117 516.579,-731.897 520.759,-726.282"/>
</g>
<!-- P4_0_ing -->
<g id="node19" class="node"><title>P4_0_ing</title>
<polygon fill="peachpuff" stroke="black" points="961,-725 573,-725 573,-687 961,-687 961,-725"/>
<text text-anchor="middle" x="767" y="-709.8" font-family="Times,serif" font-size="14.00">PREP: in vegetable oil, lemon zest, white sugar, mashed bananas</text>
<text text-anchor="middle" x="767" y="-694.8" font-family="Times,serif" font-size="14.00">(text: in bananas , &#160;oil , &#160;sugar , &#160;lemon peel)</text>
</g>
<!-- P4_0_ing&#45;&gt;E4 -->
<g id="edge12" class="edge"><title>P4_0_ing&#45;&gt;E4</title>
<path fill="none" stroke="black" d="M754.485,-686.943C743.333,-670.852 726.899,-647.14 714.455,-629.185"/>
<polygon fill="black" stroke="black" points="717.281,-627.118 708.708,-620.893 711.528,-631.105 717.281,-627.118"/>
</g>
<!-- P5_0_0 -->
<g id="node20" class="node"><title>P5_0_0</title>
<polygon fill="white" stroke="black" points="930,-621 778,-621 778,-585 930,-585 930,-621"/>
<text text-anchor="middle" x="854" y="-599.3" font-family="Times,serif" font-size="14.00">PREP: to flour mixture</text>
</g>
<!-- P5_0_0&#45;&gt;E5 -->
<g id="edge14" class="edge"><title>P5_0_0&#45;&gt;E5</title>
<path fill="none" stroke="black" d="M854,-584.867C854,-569.414 854,-546.416 854,-528.409"/>
<polygon fill="black" stroke="black" points="857.5,-528.217 854,-518.217 850.5,-528.217 857.5,-528.217"/>
</g>
<!-- O5_0_0 -->
<g id="node21" class="node"><title>O5_0_0</title>
<polygon fill="white" stroke="black" points="1177.5,-621 948.5,-621 948.5,-585 1177.5,-585 1177.5,-621"/>
<text text-anchor="middle" x="1063" y="-599.3" font-family="Times,serif" font-size="14.00">OTHER: stirring just until combined</text>
</g>
<!-- O5_0_0&#45;&gt;E5 -->
<g id="edge15" class="edge"><title>O5_0_0&#45;&gt;E5</title>
<path fill="none" stroke="black" d="M1027.55,-584.867C990.613,-567.019 932.853,-539.106 894.234,-520.443"/>
<polygon fill="black" stroke="black" points="895.379,-517.11 884.853,-515.91 892.334,-523.412 895.379,-517.11"/>
</g>
<!-- P6_0_ing -->
<g id="node22" class="node"><title>P6_0_ing</title>
<polygon fill="peachpuff" stroke="black" points="1109.5,-519 936.5,-519 936.5,-481 1109.5,-481 1109.5,-519"/>
<text text-anchor="middle" x="1023" y="-503.8" font-family="Times,serif" font-size="14.00">PREP: in chopped walnuts</text>
<text text-anchor="middle" x="1023" y="-488.8" font-family="Times,serif" font-size="14.00">(text: in walnuts)</text>
</g>
<!-- P6_0_ing&#45;&gt;E6 -->
<g id="edge17" class="edge"><title>P6_0_ing&#45;&gt;E6</title>
<path fill="none" stroke="black" d="M1015.31,-480.943C1008.59,-465.145 998.732,-441.999 991.142,-424.17"/>
<polygon fill="black" stroke="black" points="994.329,-422.723 987.192,-414.893 987.889,-425.465 994.329,-422.723"/>
</g>
<!-- O7_0_0 -->
<g id="node23" class="node"><title>O7_0_0</title>
<polygon fill="white" stroke="black" points="1205,-415 1061,-415 1061,-379 1205,-379 1205,-415"/>
<text text-anchor="middle" x="1133" y="-393.3" font-family="Times,serif" font-size="14.00">OTHER: cups 2/3 full</text>
</g>
<!-- O7_0_0&#45;&gt;E7 -->
<g id="edge19" class="edge"><title>O7_0_0&#45;&gt;E7</title>
<path fill="none" stroke="black" d="M1126.03,-378.581C1119.9,-363.238 1110.86,-340.645 1103.79,-322.968"/>
<polygon fill="black" stroke="black" points="1106.85,-321.204 1099.89,-313.219 1100.35,-323.804 1106.85,-321.204"/>
</g>
<!-- P8_0_0 -->
<g id="node24" class="node"><title>P8_0_0</title>
<polygon fill="white" stroke="black" points="1406,-313 1188,-313 1188,-277 1406,-277 1406,-313"/>
<text text-anchor="middle" x="1297" y="-291.3" font-family="Times,serif" font-size="14.00">PREP: for about 20 to 25 minutes </text>
</g>
<!-- P8_0_0&#45;&gt;E8 -->
<g id="edge21" class="edge"><title>P8_0_0&#45;&gt;E8</title>
<path fill="none" stroke="black" d="M1305.88,-276.581C1313.83,-261 1325.59,-237.943 1334.66,-220.149"/>
<polygon fill="black" stroke="black" points="1337.96,-221.384 1339.39,-210.886 1331.73,-218.204 1337.96,-221.384"/>
</g>
<!-- P8_0_1 -->
<g id="node25" class="node"><title>P8_0_1</title>
<polygon fill="white" stroke="black" points="1697.5,-313 1424.5,-313 1424.5,-277 1697.5,-277 1697.5,-313"/>
<text text-anchor="middle" x="1561" y="-291.3" font-family="Times,serif" font-size="14.00">PREP: for &#160;or until tops are lightly browned</text>
</g>
<!-- P8_0_1&#45;&gt;E8 -->
<g id="edge22" class="edge"><title>P8_0_1&#45;&gt;E8</title>
<path fill="none" stroke="black" d="M1524.38,-276.809C1486.88,-259.203 1428.68,-231.88 1389.5,-213.483"/>
<polygon fill="black" stroke="black" points="1390.51,-210.091 1379.97,-209.009 1387.53,-216.427 1390.51,-210.091"/>
</g>
</g>
</svg>
