<?xml version="1.0" encoding="UTF-8" standalone="no"?>
<!DOCTYPE svg PUBLIC "-//W3C//DTD SVG 1.1//EN"
 "http://www.w3.org/Graphics/SVG/1.1/DTD/svg11.dtd">
<!-- Generated by graphviz version 2.38.0 (20140413.2041)
 -->
<!-- Title: recipe Pages: 1 -->
<svg width="2263pt" height="908pt"
 viewBox="0.00 0.00 2262.50 908.00" xmlns="http://www.w3.org/2000/svg" xmlns:xlink="http://www.w3.org/1999/xlink">
<g id="graph0" class="graph" transform="scale(1 1) rotate(0) translate(4 904)">
<title>recipe</title>
<polygon fill="white" stroke="none" points="-4,4 -4,-904 2258.5,-904 2258.5,4 -4,4"/>
<!-- E0 -->
<g id="node1" class="node"><title>E0</title>
<ellipse fill="azure" stroke="black" cx="1801" cy="-806" rx="73.387" ry="18"/>
<text text-anchor="middle" x="1801" y="-802.3" font-family="Times,serif" font-size="14.00">combine (S0,P0)</text>
</g>
<!-- E3 -->
<g id="node4" class="node"><title>E3</title>
<ellipse fill="azure" stroke="black" cx="1623" cy="-703" rx="75.2868" ry="18"/>
<text text-anchor="middle" x="1623" y="-699.3" font-family="Times,serif" font-size="14.00">raisins (S2,P160)</text>
</g>
<!-- E0&#45;&gt;E3 -->
<g id="edge10" class="edge"><title>E0&#45;&gt;E3</title>
<path fill="none" stroke="black" d="M1773.19,-789.219C1742.71,-771.926 1693.68,-744.105 1659.98,-724.983"/>
<polygon fill="black" stroke="black" points="1661.34,-721.728 1650.91,-719.837 1657.88,-727.816 1661.34,-721.728"/>
<text text-anchor="middle" x="1801.5" y="-757.8" font-family="Times,serif" font-size="14.00">OUTPUT: </text>
<text text-anchor="middle" x="1801.5" y="-742.8" font-family="Times,serif" font-size="14.00">INPUT: in a large bowl</text>
</g>
<!-- E1 -->
<g id="node2" class="node"><title>E1</title>
<ellipse fill="azure" stroke="black" cx="335" cy="-499" rx="55.4913" ry="18"/>
<text text-anchor="middle" x="335" y="-495.3" font-family="Times,serif" font-size="14.00">let (S1,P48)</text>
</g>
<!-- E9 -->
<g id="node10" class="node"><title>E9</title>
<ellipse fill="azure" stroke="black" cx="961" cy="-397" rx="68.7879" ry="18"/>
<text text-anchor="middle" x="961" y="-393.3" font-family="Times,serif" font-size="14.00">bake (S7,P325)</text>
</g>
<!-- E1&#45;&gt;E9 -->
<g id="edge24" class="edge"><title>E1&#45;&gt;E9</title>
<path fill="none" stroke="black" d="M348.392,-481.407C362.2,-465.694 385.291,-443.055 411,-433 459.877,-413.883 830.936,-421.614 883,-415 889.316,-414.198 895.877,-413.136 902.391,-411.934"/>
<polygon fill="black" stroke="black" points="903.407,-415.301 912.548,-409.946 902.062,-408.432 903.407,-415.301"/>
<text text-anchor="middle" x="503" y="-451.8" font-family="Times,serif" font-size="14.00">OUTPUT: </text>
<text text-anchor="middle" x="503" y="-436.8" font-family="Times,serif" font-size="14.00">INPUT: about 17 to 20 minutes</text>
</g>
<!-- E2 -->
<g id="node3" class="node"><title>E2</title>
<ellipse fill="azure" stroke="black" cx="1445" cy="-806" rx="83.3857" ry="18"/>
<text text-anchor="middle" x="1445" y="-802.3" font-family="Times,serif" font-size="14.00">combine (S2,P105)</text>
</g>
<!-- E2&#45;&gt;E3 -->
<g id="edge9" class="edge"><title>E2&#45;&gt;E3</title>
<path fill="none" stroke="black" d="M1473.2,-788.996C1503.76,-771.659 1552.63,-743.93 1586.19,-724.887"/>
<polygon fill="black" stroke="black" points="1588.25,-727.742 1595.22,-719.763 1584.8,-721.654 1588.25,-727.742"/>
<text text-anchor="middle" x="1592" y="-757.8" font-family="Times,serif" font-size="14.00">OUTPUT: </text>
<text text-anchor="middle" x="1592" y="-742.8" font-family="Times,serif" font-size="14.00">INPUT: </text>
</g>
<!-- E4 -->
<g id="node5" class="node"><title>E4</title>
<ellipse fill="azure" stroke="black" cx="1523" cy="-601" rx="61.1893" ry="18"/>
<text text-anchor="middle" x="1523" y="-597.3" font-family="Times,serif" font-size="14.00">set (S3,P180)</text>
</g>
<!-- E3&#45;&gt;E4 -->
<g id="edge11" class="edge"><title>E3&#45;&gt;E4</title>
<path fill="none" stroke="black" d="M1606.04,-685.036C1589.75,-668.751 1565,-644.003 1546.76,-625.759"/>
<polygon fill="black" stroke="black" points="1548.93,-622.978 1539.38,-618.382 1543.98,-627.928 1548.93,-622.978"/>
<text text-anchor="middle" x="1619" y="-655.8" font-family="Times,serif" font-size="14.00">OUTPUT: </text>
<text text-anchor="middle" x="1619" y="-640.8" font-family="Times,serif" font-size="14.00">INPUT: </text>
</g>
<!-- E8 -->
<g id="node9" class="node"><title>E8</title>
<ellipse fill="azure" stroke="black" cx="1320" cy="-499" rx="74.187" ry="18"/>
<text text-anchor="middle" x="1320" y="-495.3" font-family="Times,serif" font-size="14.00">spoon (S6,P271)</text>
</g>
<!-- E4&#45;&gt;E8 -->
<g id="edge19" class="edge"><title>E4&#45;&gt;E8</title>
<path fill="none" stroke="black" d="M1493.05,-585.245C1457.92,-567.942 1399.54,-539.184 1360.43,-519.915"/>
<polygon fill="black" stroke="black" points="1361.93,-516.754 1351.41,-515.474 1358.84,-523.033 1361.93,-516.754"/>
<text text-anchor="middle" x="1492" y="-553.8" font-family="Times,serif" font-size="14.00">OUTPUT: </text>
<text text-anchor="middle" x="1492" y="-538.8" font-family="Times,serif" font-size="14.00">INPUT: batter</text>
</g>
<!-- E5 -->
<g id="node6" class="node"><title>E5</title>
<ellipse fill="azure" stroke="black" cx="360" cy="-703" rx="63.0888" ry="18"/>
<text text-anchor="middle" x="360" y="-699.3" font-family="Times,serif" font-size="14.00">stir (S4,P189)</text>
</g>
<!-- E6 -->
<g id="node7" class="node"><title>E6</title>
<ellipse fill="azure" stroke="black" cx="522" cy="-601" rx="64.9885" ry="18"/>
<text text-anchor="middle" x="522" y="-597.3" font-family="Times,serif" font-size="14.00">add (S4,P229)</text>
</g>
<!-- E5&#45;&gt;E6 -->
<g id="edge13" class="edge"><title>E5&#45;&gt;E6</title>
<path fill="none" stroke="black" d="M381.501,-685.942C400.218,-672.254 428.306,-652.408 454,-637 462.882,-631.674 472.664,-626.344 481.974,-621.507"/>
<polygon fill="black" stroke="black" points="483.765,-624.523 491.075,-616.854 480.578,-618.29 483.765,-624.523"/>
<text text-anchor="middle" x="486" y="-655.8" font-family="Times,serif" font-size="14.00">OUTPUT: </text>
<text text-anchor="middle" x="486" y="-640.8" font-family="Times,serif" font-size="14.00">INPUT: </text>
</g>
<!-- E7 -->
<g id="node8" class="node"><title>E7</title>
<ellipse fill="azure" stroke="black" cx="656" cy="-499" rx="63.0888" ry="18"/>
<text text-anchor="middle" x="656" y="-495.3" font-family="Times,serif" font-size="14.00">stir (S5,P249)</text>
</g>
<!-- E6&#45;&gt;E7 -->
<g id="edge16" class="edge"><title>E6&#45;&gt;E7</title>
<path fill="none" stroke="black" d="M538.852,-583.509C553.361,-569.734 575.19,-549.995 596,-535 603.103,-529.882 611.002,-524.852 618.674,-520.272"/>
<polygon fill="black" stroke="black" points="620.636,-523.18 627.516,-515.124 617.113,-517.131 620.636,-523.18"/>
<text text-anchor="middle" x="628" y="-553.8" font-family="Times,serif" font-size="14.00">OUTPUT: </text>
<text text-anchor="middle" x="628" y="-538.8" font-family="Times,serif" font-size="14.00">INPUT: </text>
</g>
<!-- E7&#45;&gt;E9 -->
<g id="edge22" class="edge"><title>E7&#45;&gt;E9</title>
<path fill="none" stroke="black" d="M624.023,-483.485C616.051,-478.231 608.5,-471.453 604,-463 597.735,-451.23 594.88,-442.727 604,-433 625.247,-410.338 852.237,-419.32 883,-415 889.215,-414.127 895.671,-413.031 902.09,-411.819"/>
<polygon fill="black" stroke="black" points="902.977,-415.211 912.104,-409.832 901.614,-408.345 902.977,-415.211"/>
<text text-anchor="middle" x="767" y="-451.8" font-family="Times,serif" font-size="14.00">OUTPUT: </text>
<text text-anchor="middle" x="767" y="-436.8" font-family="Times,serif" font-size="14.00">INPUT: in a preheated 400 degrees f &#45;lrb&#45; 200 degrees c</text>
</g>
<!-- E8&#45;&gt;E9 -->
<g id="edge21" class="edge"><title>E8&#45;&gt;E9</title>
<path fill="none" stroke="black" d="M1273.07,-484.927C1206.95,-466.509 1086.6,-432.987 1016.25,-413.39"/>
<polygon fill="black" stroke="black" points="1016.82,-409.915 1006.25,-410.603 1014.94,-416.658 1016.82,-409.915"/>
<text text-anchor="middle" x="1226" y="-451.8" font-family="Times,serif" font-size="14.00">OUTPUT: </text>
<text text-anchor="middle" x="1226" y="-436.8" font-family="Times,serif" font-size="14.00">INPUT: </text>
</g>
<!-- E10 -->
<g id="node11" class="node"><title>E10</title>
<ellipse fill="azure" stroke="black" cx="829" cy="-295" rx="78.7863" ry="18"/>
<text text-anchor="middle" x="829" y="-291.3" font-family="Times,serif" font-size="14.00">let cool (S8,P415)</text>
</g>
<!-- E9&#45;&gt;E10 -->
<g id="edge27" class="edge"><title>E9&#45;&gt;E10</title>
<path fill="none" stroke="black" d="M939.498,-379.711C917.671,-363.175 883.691,-337.433 859.174,-318.859"/>
<polygon fill="black" stroke="black" points="861.017,-315.864 850.933,-312.616 856.79,-321.444 861.017,-315.864"/>
<text text-anchor="middle" x="947" y="-349.8" font-family="Times,serif" font-size="14.00">OUTPUT: </text>
<text text-anchor="middle" x="947" y="-334.8" font-family="Times,serif" font-size="14.00">INPUT: </text>
</g>
<!-- E11 -->
<g id="node12" class="node"><title>E11</title>
<ellipse fill="azure" stroke="black" cx="574" cy="-193" rx="79.0865" ry="18"/>
<text text-anchor="middle" x="574" y="-189.3" font-family="Times,serif" font-size="14.00">remove (S8,P453)</text>
</g>
<!-- E10&#45;&gt;E11 -->
<g id="edge29" class="edge"><title>E10&#45;&gt;E11</title>
<path fill="none" stroke="black" d="M791.099,-279.137C745.965,-261.437 670.542,-231.86 621.54,-212.643"/>
<polygon fill="black" stroke="black" points="622.696,-209.337 612.109,-208.945 620.141,-215.854 622.696,-209.337"/>
<text text-anchor="middle" x="772" y="-247.8" font-family="Times,serif" font-size="14.00">OUTPUT: </text>
<text text-anchor="middle" x="772" y="-232.8" font-family="Times,serif" font-size="14.00">INPUT: </text>
</g>
<!-- E12 -->
<g id="node13" class="node"><title>E12</title>
<ellipse fill="azure" stroke="black" cx="438" cy="-91" rx="69.5877" ry="18"/>
<text text-anchor="middle" x="438" y="-87.3" font-family="Times,serif" font-size="14.00">store (S9,P486)</text>
</g>
<!-- E11&#45;&gt;E12 -->
<g id="edge33" class="edge"><title>E11&#45;&gt;E12</title>
<path fill="none" stroke="black" d="M551.847,-175.711C529.125,-159.004 493.621,-132.897 468.305,-114.283"/>
<polygon fill="black" stroke="black" points="470.274,-111.386 460.144,-108.282 466.127,-117.026 470.274,-111.386"/>
<text text-anchor="middle" x="559" y="-145.8" font-family="Times,serif" font-size="14.00">OUTPUT: </text>
<text text-anchor="middle" x="559" y="-130.8" font-family="Times,serif" font-size="14.00">INPUT: </text>
</g>
<!-- EOR -->
<g id="node36" class="node"><title>EOR</title>
<ellipse fill="plum" stroke="black" cx="438" cy="-18" rx="57.3905" ry="18"/>
<text text-anchor="middle" x="438" y="-14.3" font-family="Times,serif" font-size="14.00">Bon appetit!</text>
</g>
<!-- E12&#45;&gt;EOR -->
<g id="edge35" class="edge"><title>E12&#45;&gt;EOR</title>
<path fill="none" stroke="black" d="M438,-72.8129C438,-64.7895 438,-55.0475 438,-46.0691"/>
<polygon fill="black" stroke="black" points="441.5,-46.0288 438,-36.0288 434.5,-46.0289 441.5,-46.0288"/>
</g>
<!-- D1 -->
<g id="node14" class="node"><title>D1</title>
<polygon fill="white" stroke="black" points="212,-619 0,-619 0,-583 212,-583 212,-619"/>
<text text-anchor="middle" x="106" y="-597.3" font-family="Times,serif" font-size="14.00">DOBJ: stand for a couple minutes</text>
</g>
<!-- D1&#45;&gt;E1 -->
<g id="edge1" class="edge"><title>D1&#45;&gt;E1</title>
<path fill="none" stroke="black" d="M145.106,-582.923C186.586,-564.81 251.829,-536.319 294.011,-517.899"/>
<polygon fill="black" stroke="black" points="295.662,-520.997 303.426,-513.788 292.861,-514.582 295.662,-520.997"/>
</g>
<!-- O1_0 -->
<g id="node15" class="node"><title>O1_0</title>
<polygon fill="white" stroke="black" points="439.5,-619 230.5,-619 230.5,-583 439.5,-583 439.5,-619"/>
<text text-anchor="middle" x="335" y="-597.3" font-family="Times,serif" font-size="14.00">OTHER: to allow cereal to soften</text>
</g>
<!-- O1_0&#45;&gt;E1 -->
<g id="edge2" class="edge"><title>O1_0&#45;&gt;E1</title>
<path fill="none" stroke="black" d="M335,-582.581C335,-567.382 335,-545.067 335,-527.464"/>
<polygon fill="black" stroke="black" points="338.5,-527.219 335,-517.219 331.5,-527.219 338.5,-527.219"/>
</g>
<!-- D2 -->
<g id="node16" class="node"><title>D2</title>
<polygon fill="peachpuff" stroke="black" points="1359.5,-900 838.5,-900 838.5,-862 1359.5,-862 1359.5,-900"/>
<text text-anchor="middle" x="1099" y="-884.8" font-family="Times,serif" font-size="14.00">DOBJ: baking powder, all&#45;purpose flour, baking soda, chopped nuts and/or raisins, salt</text>
<text text-anchor="middle" x="1099" y="-869.8" font-family="Times,serif" font-size="14.00">(text: flour , baking powder , baking soda , salt , nuts)</text>
</g>
<!-- D2&#45;&gt;E2 -->
<g id="edge3" class="edge"><title>D2&#45;&gt;E2</title>
<path fill="none" stroke="black" d="M1184.53,-861.955C1244.15,-849.375 1322.59,-832.826 1377.76,-821.187"/>
<polygon fill="black" stroke="black" points="1378.71,-824.562 1387.78,-819.073 1377.27,-817.713 1378.71,-824.562"/>
</g>
<!-- O2_0 -->
<g id="node17" class="node"><title>O2_0</title>
<polygon fill="white" stroke="black" points="1512.5,-899 1377.5,-899 1377.5,-863 1512.5,-863 1512.5,-899"/>
<text text-anchor="middle" x="1445" y="-877.3" font-family="Times,serif" font-size="14.00">OTHER: meanwhile</text>
</g>
<!-- O2_0&#45;&gt;E2 -->
<g id="edge4" class="edge"><title>O2_0&#45;&gt;E2</title>
<path fill="none" stroke="black" d="M1445,-862.7C1445,-854.245 1445,-843.869 1445,-834.373"/>
<polygon fill="black" stroke="black" points="1448.5,-834.176 1445,-824.176 1441.5,-834.176 1448.5,-834.176"/>
</g>
<!-- D0 -->
<g id="node18" class="node"><title>D0</title>
<polygon fill="peachpuff" stroke="black" points="2071.5,-900 1530.5,-900 1530.5,-862 2071.5,-862 2071.5,-900"/>
<text text-anchor="middle" x="1801" y="-884.8" font-family="Times,serif" font-size="14.00">DOBJ: plain yogurt, bran cereal (such as Kellogg&#39;s® All Bran® Original), mashed bananas</text>
<text text-anchor="middle" x="1801" y="-869.8" font-family="Times,serif" font-size="14.00">(text: bran cereal , bananas, yogurt)</text>
</g>
<!-- D0&#45;&gt;E0 -->
<g id="edge5" class="edge"><title>D0&#45;&gt;E0</title>
<path fill="none" stroke="black" d="M1801,-861.955C1801,-853.701 1801,-843.738 1801,-834.574"/>
<polygon fill="black" stroke="black" points="1804.5,-834.335 1801,-824.335 1797.5,-834.335 1804.5,-834.335"/>
</g>
<!-- P0_0 -->
<g id="node19" class="node"><title>P0_0</title>
<polygon fill="white" stroke="black" points="2254.5,-899 2089.5,-899 2089.5,-863 2254.5,-863 2254.5,-899"/>
<text text-anchor="middle" x="2172" y="-877.3" font-family="Times,serif" font-size="14.00">PREP: in a medium bowl</text>
</g>
<!-- P0_0&#45;&gt;E0 -->
<g id="edge6" class="edge"><title>P0_0&#45;&gt;E0</title>
<path fill="none" stroke="black" d="M2089.17,-863.612C2086.42,-863.068 2083.69,-862.529 2081,-862 2007.52,-847.516 1923.18,-830.959 1866.44,-819.828"/>
<polygon fill="black" stroke="black" points="1867.01,-816.374 1856.52,-817.883 1865.66,-823.243 1867.01,-816.374"/>
</g>
<!-- D5 -->
<g id="node20" class="node"><title>D5</title>
<polygon fill="peachpuff" stroke="black" points="382,-825 98,-825 98,-787 382,-787 382,-825"/>
<text text-anchor="middle" x="240" y="-809.8" font-family="Times,serif" font-size="14.00">DOBJ: eggs, cooking oil, packed brown sugar</text>
<text text-anchor="middle" x="240" y="-794.8" font-family="Times,serif" font-size="14.00">(text: eggs , sugar, oil)</text>
</g>
<!-- D5&#45;&gt;E5 -->
<g id="edge7" class="edge"><title>D5&#45;&gt;E5</title>
<path fill="none" stroke="black" d="M261.454,-786.943C281.419,-770.139 311.26,-745.022 332.872,-726.833"/>
<polygon fill="black" stroke="black" points="335.317,-729.35 340.714,-720.233 330.809,-723.994 335.317,-729.35"/>
</g>
<!-- P5_0 -->
<g id="node21" class="node"><title>P5_0</title>
<polygon fill="white" stroke="black" points="561.5,-824 400.5,-824 400.5,-788 561.5,-788 561.5,-824"/>
<text text-anchor="middle" x="481" y="-802.3" font-family="Times,serif" font-size="14.00">PREP: into bran mixture</text>
</g>
<!-- P5_0&#45;&gt;E5 -->
<g id="edge8" class="edge"><title>P5_0&#45;&gt;E5</title>
<path fill="none" stroke="black" d="M460.474,-787.867C440.297,-771.025 409.383,-745.221 387.176,-726.684"/>
<polygon fill="black" stroke="black" points="389.344,-723.935 379.424,-720.213 384.858,-729.308 389.344,-723.935"/>
</g>
<!-- O4_0_0 -->
<g id="node22" class="node"><title>O4_0_0</title>
<polygon fill="white" stroke="black" points="1529.5,-721 1428.5,-721 1428.5,-685 1529.5,-685 1529.5,-721"/>
<text text-anchor="middle" x="1479" y="-699.3" font-family="Times,serif" font-size="14.00">OTHER: aside</text>
</g>
<!-- O4_0_0&#45;&gt;E4 -->
<g id="edge12" class="edge"><title>O4_0_0&#45;&gt;E4</title>
<path fill="none" stroke="black" d="M1486.66,-684.581C1493.52,-669 1503.67,-645.943 1511.49,-628.149"/>
<polygon fill="black" stroke="black" points="1514.75,-629.449 1515.57,-618.886 1508.34,-626.629 1514.75,-629.449"/>
</g>
<!-- P6_0_0 -->
<g id="node23" class="node"><title>P6_0_0</title>
<polygon fill="white" stroke="black" points="603,-721 441,-721 441,-685 603,-685 603,-721"/>
<text text-anchor="middle" x="522" y="-699.3" font-family="Times,serif" font-size="14.00">PREP: to dry ingredients</text>
</g>
<!-- P6_0_0&#45;&gt;E6 -->
<g id="edge14" class="edge"><title>P6_0_0&#45;&gt;E6</title>
<path fill="none" stroke="black" d="M522,-684.581C522,-669.382 522,-647.067 522,-629.464"/>
<polygon fill="black" stroke="black" points="525.5,-629.219 522,-619.219 518.5,-629.219 525.5,-629.219"/>
</g>
<!-- O6_0_0 -->
<g id="node24" class="node"><title>O6_0_0</title>
<polygon fill="white" stroke="black" points="718.5,-721 621.5,-721 621.5,-685 718.5,-685 718.5,-721"/>
<text text-anchor="middle" x="670" y="-699.3" font-family="Times,serif" font-size="14.00">OTHER: then</text>
</g>
<!-- O6_0_0&#45;&gt;E6 -->
<g id="edge15" class="edge"><title>O6_0_0&#45;&gt;E6</title>
<path fill="none" stroke="black" d="M644.558,-684.809C619.5,-667.879 581.143,-641.962 554.024,-623.638"/>
<polygon fill="black" stroke="black" points="555.891,-620.675 545.645,-617.977 551.972,-626.475 555.891,-620.675"/>
</g>
<!-- P7_0_0 -->
<g id="node25" class="node"><title>P7_0_0</title>
<polygon fill="white" stroke="black" points="751,-619 605,-619 605,-583 751,-583 751,-619"/>
<text text-anchor="middle" x="678" y="-597.3" font-family="Times,serif" font-size="14.00">PREP: until combined</text>
</g>
<!-- P7_0_0&#45;&gt;E7 -->
<g id="edge17" class="edge"><title>P7_0_0&#45;&gt;E7</title>
<path fill="none" stroke="black" d="M674.168,-582.581C670.824,-567.382 665.915,-545.067 662.042,-527.464"/>
<polygon fill="black" stroke="black" points="665.355,-526.233 659.788,-517.219 658.519,-527.738 665.355,-526.233"/>
</g>
<!-- O7_0_0 -->
<g id="node26" class="node"><title>O7_0_0</title>
<polygon fill="white" stroke="black" points="861,-619 769,-619 769,-583 861,-583 861,-619"/>
<text text-anchor="middle" x="815" y="-597.3" font-family="Times,serif" font-size="14.00">OTHER: just</text>
</g>
<!-- O7_0_0&#45;&gt;E7 -->
<g id="edge18" class="edge"><title>O7_0_0&#45;&gt;E7</title>
<path fill="none" stroke="black" d="M787.667,-582.809C760.469,-565.704 718.688,-539.426 689.507,-521.074"/>
<polygon fill="black" stroke="black" points="691.214,-518.013 680.886,-515.652 687.488,-523.938 691.214,-518.013"/>
</g>
<!-- O8_0_0 -->
<g id="node27" class="node"><title>O8_0_0</title>
<polygon fill="white" stroke="black" points="1443.5,-619 1082.5,-619 1082.5,-583 1443.5,-583 1443.5,-619"/>
<text text-anchor="middle" x="1263" y="-597.3" font-family="Times,serif" font-size="14.00">OTHER: evenly into 12 greased or paper&#45;lined muffin cups</text>
</g>
<!-- O8_0_0&#45;&gt;E8 -->
<g id="edge20" class="edge"><title>O8_0_0&#45;&gt;E8</title>
<path fill="none" stroke="black" d="M1272.93,-582.581C1281.89,-566.856 1295.2,-543.516 1305.38,-525.656"/>
<polygon fill="black" stroke="black" points="1308.46,-527.307 1310.38,-516.886 1302.38,-523.84 1308.46,-527.307"/>
</g>
<!-- P9_1_0 -->
<g id="node28" class="node"><title>P9_1_0</title>
<polygon fill="white" stroke="black" points="900.5,-517 787.5,-517 787.5,-481 900.5,-481 900.5,-517"/>
<text text-anchor="middle" x="844" y="-495.3" font-family="Times,serif" font-size="14.00">PREP: until tops</text>
</g>
<!-- P9_1_0&#45;&gt;E9 -->
<g id="edge23" class="edge"><title>P9_1_0&#45;&gt;E9</title>
<path fill="none" stroke="black" d="M900.931,-483.829C912.948,-478.785 924.768,-472.023 934,-463 944.481,-452.756 951.067,-437.843 955.108,-424.885"/>
<polygon fill="black" stroke="black" points="958.539,-425.609 957.829,-415.038 951.792,-423.745 958.539,-425.609"/>
</g>
<!-- O9_0_0 -->
<g id="node29" class="node"><title>O9_0_0</title>
<polygon fill="white" stroke="black" points="1027.5,-517 918.5,-517 918.5,-481 1027.5,-481 1027.5,-517"/>
<text text-anchor="middle" x="973" y="-495.3" font-family="Times,serif" font-size="14.00">OTHER: spring</text>
</g>
<!-- O9_0_0&#45;&gt;E9 -->
<g id="edge25" class="edge"><title>O9_0_0&#45;&gt;E9</title>
<path fill="none" stroke="black" d="M970.91,-480.581C969.086,-465.382 966.408,-443.067 964.296,-425.464"/>
<polygon fill="black" stroke="black" points="967.733,-424.731 963.066,-415.219 960.783,-425.565 967.733,-424.731"/>
</g>
<!-- O9_1_0 -->
<g id="node30" class="node"><title>O9_1_0</title>
<polygon fill="white" stroke="black" points="1228,-517 1046,-517 1046,-481 1228,-481 1228,-517"/>
<text text-anchor="middle" x="1137" y="-495.3" font-family="Times,serif" font-size="14.00">OTHER: back when pressed</text>
</g>
<!-- O9_1_0&#45;&gt;E9 -->
<g id="edge26" class="edge"><title>O9_1_0&#45;&gt;E9</title>
<path fill="none" stroke="black" d="M1106.74,-480.809C1076.38,-463.557 1029.59,-436.973 997.258,-418.601"/>
<polygon fill="black" stroke="black" points="998.97,-415.549 988.547,-413.652 995.512,-421.635 998.97,-415.549"/>
</g>
<!-- P10_0_0 -->
<g id="node31" class="node"><title>P10_0_0</title>
<polygon fill="white" stroke="black" points="874,-415 674,-415 674,-379 874,-379 874,-415"/>
<text text-anchor="middle" x="774" y="-393.3" font-family="Times,serif" font-size="14.00">PREP: in pan for a few minutes</text>
</g>
<!-- P10_0_0&#45;&gt;E10 -->
<g id="edge28" class="edge"><title>P10_0_0&#45;&gt;E10</title>
<path fill="none" stroke="black" d="M783.58,-378.581C792.229,-362.856 805.066,-339.516 814.889,-321.656"/>
<polygon fill="black" stroke="black" points="817.96,-323.335 819.713,-312.886 811.827,-319.961 817.96,-323.335"/>
</g>
<!-- P11_0_0 -->
<g id="node32" class="node"><title>P11_0_0</title>
<polygon fill="white" stroke="black" points="432.5,-313 293.5,-313 293.5,-277 432.5,-277 432.5,-313"/>
<text text-anchor="middle" x="363" y="-291.3" font-family="Times,serif" font-size="14.00">PREP: to a wire rack</text>
</g>
<!-- P11_0_0&#45;&gt;E11 -->
<g id="edge30" class="edge"><title>P11_0_0&#45;&gt;E11</title>
<path fill="none" stroke="black" d="M399.272,-276.809C436.095,-259.358 493.064,-232.358 531.866,-213.969"/>
<polygon fill="black" stroke="black" points="533.778,-216.936 541.316,-209.49 530.781,-210.61 533.778,-216.936"/>
</g>
<!-- O11_0_0 -->
<g id="node33" class="node"><title>O11_0_0</title>
<polygon fill="white" stroke="black" points="547.5,-313 450.5,-313 450.5,-277 547.5,-277 547.5,-313"/>
<text text-anchor="middle" x="499" y="-291.3" font-family="Times,serif" font-size="14.00">OTHER: then</text>
</g>
<!-- O11_0_0&#45;&gt;E11 -->
<g id="edge31" class="edge"><title>O11_0_0&#45;&gt;E11</title>
<path fill="none" stroke="black" d="M512.064,-276.581C523.966,-260.712 541.685,-237.087 555.125,-219.166"/>
<polygon fill="black" stroke="black" points="558.136,-220.986 561.336,-210.886 552.536,-216.786 558.136,-220.986"/>
</g>
<!-- O11_1_0 -->
<g id="node34" class="node"><title>O11_1_0</title>
<polygon fill="white" stroke="black" points="732.5,-313 565.5,-313 565.5,-277 732.5,-277 732.5,-313"/>
<text text-anchor="middle" x="649" y="-291.3" font-family="Times,serif" font-size="14.00">OTHER: to finish cooling</text>
</g>
<!-- O11_1_0&#45;&gt;E11 -->
<g id="edge32" class="edge"><title>O11_1_0&#45;&gt;E11</title>
<path fill="none" stroke="black" d="M635.936,-276.581C624.034,-260.712 606.315,-237.087 592.875,-219.166"/>
<polygon fill="black" stroke="black" points="595.464,-216.786 586.664,-210.886 589.864,-220.986 595.464,-216.786"/>
</g>
<!-- P12_0_0 -->
<g id="node35" class="node"><title>P12_0_0</title>
<polygon fill="white" stroke="black" points="477,-211 287,-211 287,-175 477,-175 477,-211"/>
<text text-anchor="middle" x="382" y="-189.3" font-family="Times,serif" font-size="14.00">PREP: in an airtight container</text>
</g>
<!-- P12_0_0&#45;&gt;E12 -->
<g id="edge34" class="edge"><title>P12_0_0&#45;&gt;E12</title>
<path fill="none" stroke="black" d="M391.754,-174.581C400.561,-158.856 413.631,-135.516 423.633,-117.656"/>
<polygon fill="black" stroke="black" points="426.712,-119.321 428.544,-108.886 420.604,-115.901 426.712,-119.321"/>
</g>
</g>
</svg>
