<?xml version="1.0" encoding="UTF-8" standalone="no"?>
<!DOCTYPE svg PUBLIC "-//W3C//DTD SVG 1.1//EN"
 "http://www.w3.org/Graphics/SVG/1.1/DTD/svg11.dtd">
<!-- Generated by graphviz version 2.38.0 (20140413.2041)
 -->
<!-- Title: recipe Pages: 1 -->
<svg width="1354pt" height="704pt"
 viewBox="0.00 0.00 1353.50 704.00" xmlns="http://www.w3.org/2000/svg" xmlns:xlink="http://www.w3.org/1999/xlink">
<g id="graph0" class="graph" transform="scale(1 1) rotate(0) translate(4 700)">
<title>recipe</title>
<polygon fill="white" stroke="none" points="-4,4 -4,-700 1349.5,-700 1349.5,4 -4,4"/>
<!-- E0 -->
<g id="node1" class="node"><title>E0</title>
<ellipse fill="azure" stroke="black" cx="1132" cy="-603" rx="67.6881" ry="18"/>
<text text-anchor="middle" x="1132" y="-599.3" font-family="Times,serif" font-size="14.00">blend (S1,P14)</text>
</g>
<!-- E1 -->
<g id="node2" class="node"><title>E1</title>
<ellipse fill="azure" stroke="black" cx="938" cy="-500" rx="59.5901" ry="18"/>
<text text-anchor="middle" x="938" y="-496.3" font-family="Times,serif" font-size="14.00">add (S2,P48)</text>
</g>
<!-- E0&#45;&gt;E1 -->
<g id="edge4" class="edge"><title>E0&#45;&gt;E1</title>
<path fill="none" stroke="black" d="M1102.54,-586.66C1068.63,-569.007 1012.86,-539.975 975.788,-520.673"/>
<polygon fill="black" stroke="black" points="977.276,-517.502 966.79,-515.989 974.044,-523.711 977.276,-517.502"/>
<text text-anchor="middle" x="1095" y="-555.8" font-family="Times,serif" font-size="14.00">OUTPUT: </text>
<text text-anchor="middle" x="1095" y="-540.8" font-family="Times,serif" font-size="14.00">INPUT: </text>
</g>
<!-- E2 -->
<g id="node3" class="node"><title>E2</title>
<ellipse fill="azure" stroke="black" cx="802" cy="-397" rx="61.99" ry="18"/>
<text text-anchor="middle" x="802" y="-393.3" font-family="Times,serif" font-size="14.00">fold (S3,P91)</text>
</g>
<!-- E1&#45;&gt;E2 -->
<g id="edge7" class="edge"><title>E1&#45;&gt;E2</title>
<path fill="none" stroke="black" d="M916.45,-482.996C893.571,-466.005 857.253,-439.034 831.676,-420.039"/>
<polygon fill="black" stroke="black" points="833.564,-417.081 823.449,-413.929 829.39,-422.701 833.564,-417.081"/>
<text text-anchor="middle" x="918" y="-451.8" font-family="Times,serif" font-size="14.00">OUTPUT: </text>
<text text-anchor="middle" x="918" y="-436.8" font-family="Times,serif" font-size="14.00">INPUT: </text>
</g>
<!-- E3 -->
<g id="node4" class="node"><title>E3</title>
<ellipse fill="azure" stroke="black" cx="618" cy="-295" rx="74.187" ry="18"/>
<text text-anchor="middle" x="618" y="-291.3" font-family="Times,serif" font-size="14.00">spoon (S4,P115)</text>
</g>
<!-- E2&#45;&gt;E3 -->
<g id="edge9" class="edge"><title>E2&#45;&gt;E3</title>
<path fill="none" stroke="black" d="M774.054,-380.812C742.492,-363.659 690.962,-335.654 655.819,-316.554"/>
<polygon fill="black" stroke="black" points="657.274,-313.361 646.816,-311.661 653.931,-319.511 657.274,-313.361"/>
<text text-anchor="middle" x="788.5" y="-349.8" font-family="Times,serif" font-size="14.00">OUTPUT: </text>
<text text-anchor="middle" x="788.5" y="-334.8" font-family="Times,serif" font-size="14.00">INPUT: the batter</text>
</g>
<!-- E4 -->
<g id="node5" class="node"><title>E4</title>
<ellipse fill="azure" stroke="black" cx="437" cy="-193" rx="68.7879" ry="18"/>
<text text-anchor="middle" x="437" y="-189.3" font-family="Times,serif" font-size="14.00">bake (S5,P176)</text>
</g>
<!-- E3&#45;&gt;E4 -->
<g id="edge12" class="edge"><title>E3&#45;&gt;E4</title>
<path fill="none" stroke="black" d="M589.32,-278.155C558.25,-260.989 508.558,-233.535 474.432,-214.681"/>
<polygon fill="black" stroke="black" points="475.693,-211.379 465.248,-209.607 472.308,-217.506 475.693,-211.379"/>
<text text-anchor="middle" x="586" y="-247.8" font-family="Times,serif" font-size="14.00">OUTPUT: </text>
<text text-anchor="middle" x="586" y="-232.8" font-family="Times,serif" font-size="14.00">INPUT: </text>
</g>
<!-- E5 -->
<g id="node6" class="node"><title>E5</title>
<ellipse fill="azure" stroke="black" cx="261" cy="-91" rx="79.0865" ry="18"/>
<text text-anchor="middle" x="261" y="-87.3" font-family="Times,serif" font-size="14.00">remove (S6,P232)</text>
</g>
<!-- E4&#45;&gt;E5 -->
<g id="edge15" class="edge"><title>E4&#45;&gt;E5</title>
<path fill="none" stroke="black" d="M409.5,-176.375C379.542,-159.353 331.453,-132.03 298.153,-113.11"/>
<polygon fill="black" stroke="black" points="299.603,-109.908 289.18,-108.011 296.145,-115.995 299.603,-109.908"/>
<text text-anchor="middle" x="432.5" y="-145.8" font-family="Times,serif" font-size="14.00">OUTPUT: </text>
<text text-anchor="middle" x="432.5" y="-130.8" font-family="Times,serif" font-size="14.00">INPUT: the muffins</text>
</g>
<!-- EOR -->
<g id="node19" class="node"><title>EOR</title>
<ellipse fill="plum" stroke="black" cx="261" cy="-18" rx="57.3905" ry="18"/>
<text text-anchor="middle" x="261" y="-14.3" font-family="Times,serif" font-size="14.00">Bon appetit!</text>
</g>
<!-- E5&#45;&gt;EOR -->
<g id="edge18" class="edge"><title>E5&#45;&gt;EOR</title>
<path fill="none" stroke="black" d="M261,-72.8129C261,-64.7895 261,-55.0475 261,-46.0691"/>
<polygon fill="black" stroke="black" points="264.5,-46.0288 261,-36.0288 257.5,-46.0289 264.5,-46.0288"/>
</g>
<!-- D0 -->
<g id="node7" class="node"><title>D0</title>
<polygon fill="peachpuff" stroke="black" points="1037.5,-696 794.5,-696 794.5,-658 1037.5,-658 1037.5,-696"/>
<text text-anchor="middle" x="916" y="-680.8" font-family="Times,serif" font-size="14.00">DOBJ: canola oil, mashed bananas, egg</text>
<text text-anchor="middle" x="916" y="-665.8" font-family="Times,serif" font-size="14.00">(text: the bananas , oil, egg)</text>
</g>
<!-- D0&#45;&gt;E0 -->
<g id="edge1" class="edge"><title>D0&#45;&gt;E0</title>
<path fill="none" stroke="black" d="M970.227,-657.924C1004.46,-646.512 1048.38,-631.874 1081.81,-620.73"/>
<polygon fill="black" stroke="black" points="1083.01,-624.021 1091.39,-617.538 1080.79,-617.38 1083.01,-624.021"/>
</g>
<!-- P0_0 -->
<g id="node8" class="node"><title>P0_0</title>
<polygon fill="white" stroke="black" points="1208,-695 1056,-695 1056,-659 1208,-659 1208,-695"/>
<text text-anchor="middle" x="1132" y="-673.3" font-family="Times,serif" font-size="14.00">PREP: in another bowl</text>
</g>
<!-- P0_0&#45;&gt;E0 -->
<g id="edge2" class="edge"><title>P0_0&#45;&gt;E0</title>
<path fill="none" stroke="black" d="M1132,-658.937C1132,-650.807 1132,-640.876 1132,-631.705"/>
<polygon fill="black" stroke="black" points="1135.5,-631.441 1132,-621.441 1128.5,-631.441 1135.5,-631.441"/>
</g>
<!-- O0_0 -->
<g id="node9" class="node"><title>O0_0</title>
<polygon fill="white" stroke="black" points="1345.5,-695 1226.5,-695 1226.5,-659 1345.5,-659 1345.5,-695"/>
<text text-anchor="middle" x="1286" y="-673.3" font-family="Times,serif" font-size="14.00">OTHER: together</text>
</g>
<!-- O0_0&#45;&gt;E0 -->
<g id="edge3" class="edge"><title>O0_0&#45;&gt;E0</title>
<path fill="none" stroke="black" d="M1249.5,-658.937C1226.58,-648.217 1196.95,-634.366 1173.18,-623.253"/>
<polygon fill="black" stroke="black" points="1174.6,-620.052 1164.06,-618.987 1171.63,-626.393 1174.6,-620.052"/>
</g>
<!-- P1_0_0 -->
<g id="node10" class="node"><title>P1_0_0</title>
<polygon fill="white" stroke="black" points="811,-621 649,-621 649,-585 811,-585 811,-621"/>
<text text-anchor="middle" x="730" y="-599.3" font-family="Times,serif" font-size="14.00">PREP: to dry ingredients</text>
</g>
<!-- P1_0_0&#45;&gt;E1 -->
<g id="edge5" class="edge"><title>P1_0_0&#45;&gt;E1</title>
<path fill="none" stroke="black" d="M765.284,-584.867C802.254,-566.915 860.194,-538.781 898.627,-520.119"/>
<polygon fill="black" stroke="black" points="900.486,-523.107 907.953,-515.59 897.428,-516.81 900.486,-523.107"/>
</g>
<!-- O1_0_0 -->
<g id="node11" class="node"><title>O1_0_0</title>
<polygon fill="white" stroke="black" points="1046.5,-621 829.5,-621 829.5,-585 1046.5,-585 1046.5,-621"/>
<text text-anchor="middle" x="938" y="-599.3" font-family="Times,serif" font-size="14.00">OTHER: mixing just until blended</text>
</g>
<!-- O1_0_0&#45;&gt;E1 -->
<g id="edge6" class="edge"><title>O1_0_0&#45;&gt;E1</title>
<path fill="none" stroke="black" d="M938,-584.867C938,-569.414 938,-546.416 938,-528.409"/>
<polygon fill="black" stroke="black" points="941.5,-528.217 938,-518.217 934.5,-528.217 941.5,-528.217"/>
</g>
<!-- P2_0_ing -->
<g id="node12" class="node"><title>P2_0_ing</title>
<polygon fill="peachpuff" stroke="black" points="860,-519 630,-519 630,-481 860,-481 860,-519"/>
<text text-anchor="middle" x="745" y="-503.8" font-family="Times,serif" font-size="14.00">PREP: in semi&#45;sweet chocolate chips</text>
<text text-anchor="middle" x="745" y="-488.8" font-family="Times,serif" font-size="14.00">(text: in the chocolate chips)</text>
</g>
<!-- P2_0_ing&#45;&gt;E2 -->
<g id="edge8" class="edge"><title>P2_0_ing&#45;&gt;E2</title>
<path fill="none" stroke="black" d="M755.19,-480.943C764.189,-464.998 777.411,-441.57 787.509,-423.676"/>
<polygon fill="black" stroke="black" points="790.6,-425.322 792.467,-414.893 784.503,-421.881 790.6,-425.322"/>
</g>
<!-- P3_0_0 -->
<g id="node13" class="node"><title>P3_0_0</title>
<polygon fill="white" stroke="black" points="495,-415 289,-415 289,-379 495,-379 495,-415"/>
<text text-anchor="middle" x="392" y="-393.3" font-family="Times,serif" font-size="14.00">PREP: into a greased muffin pan</text>
</g>
<!-- P3_0_0&#45;&gt;E3 -->
<g id="edge10" class="edge"><title>P3_0_0&#45;&gt;E3</title>
<path fill="none" stroke="black" d="M430.594,-378.923C470.594,-361.224 532.987,-333.616 574.658,-315.178"/>
<polygon fill="black" stroke="black" points="576.27,-318.292 583.998,-311.045 573.437,-311.891 576.27,-318.292"/>
</g>
<!-- O3_0_0 -->
<g id="node14" class="node"><title>O3_0_0</title>
<polygon fill="white" stroke="black" points="722.5,-415 513.5,-415 513.5,-379 722.5,-379 722.5,-415"/>
<text text-anchor="middle" x="618" y="-393.3" font-family="Times,serif" font-size="14.00">OTHER: filling three&#45;fourths full</text>
</g>
<!-- O3_0_0&#45;&gt;E3 -->
<g id="edge11" class="edge"><title>O3_0_0&#45;&gt;E3</title>
<path fill="none" stroke="black" d="M618,-378.581C618,-363.382 618,-341.067 618,-323.464"/>
<polygon fill="black" stroke="black" points="621.5,-323.219 618,-313.219 614.5,-323.219 621.5,-323.219"/>
</g>
<!-- P4_0_0 -->
<g id="node15" class="node"><title>P4_0_0</title>
<polygon fill="white" stroke="black" points="330,-313 0,-313 0,-277 330,-277 330,-313"/>
<text text-anchor="middle" x="165" y="-291.3" font-family="Times,serif" font-size="14.00">PREP: in a preheated 425 degree f &#45;lrb&#45; 220 degrees c</text>
</g>
<!-- P4_0_0&#45;&gt;E4 -->
<g id="edge13" class="edge"><title>P4_0_0&#45;&gt;E4</title>
<path fill="none" stroke="black" d="M211.449,-276.923C260.952,-258.724 338.949,-230.048 389.026,-211.637"/>
<polygon fill="black" stroke="black" points="390.475,-214.834 398.653,-208.098 388.06,-208.264 390.475,-214.834"/>
</g>
<!-- P4_1_0 -->
<g id="node16" class="node"><title>P4_1_0</title>
<polygon fill="white" stroke="black" points="526,-313 348,-313 348,-277 526,-277 526,-313"/>
<text text-anchor="middle" x="437" y="-291.3" font-family="Times,serif" font-size="14.00">PREP: for 15 to 20 minutes</text>
</g>
<!-- P4_1_0&#45;&gt;E4 -->
<g id="edge14" class="edge"><title>P4_1_0&#45;&gt;E4</title>
<path fill="none" stroke="black" d="M437,-276.581C437,-261.382 437,-239.067 437,-221.464"/>
<polygon fill="black" stroke="black" points="440.5,-221.219 437,-211.219 433.5,-221.219 440.5,-221.219"/>
</g>
<!-- P5_0_0 -->
<g id="node17" class="node"><title>P5_0_0</title>
<polygon fill="white" stroke="black" points="153.5,-211 14.5,-211 14.5,-175 153.5,-175 153.5,-211"/>
<text text-anchor="middle" x="84" y="-189.3" font-family="Times,serif" font-size="14.00">PREP: to a wire rack</text>
</g>
<!-- P5_0_0&#45;&gt;E5 -->
<g id="edge16" class="edge"><title>P5_0_0&#45;&gt;E5</title>
<path fill="none" stroke="black" d="M114.427,-174.809C144.784,-157.659 191.462,-131.287 223.957,-112.928"/>
<polygon fill="black" stroke="black" points="225.736,-115.943 232.721,-107.977 222.293,-109.848 225.736,-115.943"/>
</g>
<!-- O5_0_0 -->
<g id="node18" class="node"><title>O5_0_0</title>
<polygon fill="white" stroke="black" points="350.5,-211 171.5,-211 171.5,-175 350.5,-175 350.5,-211"/>
<text text-anchor="middle" x="261" y="-189.3" font-family="Times,serif" font-size="14.00">OTHER: to cool completely</text>
</g>
<!-- O5_0_0&#45;&gt;E5 -->
<g id="edge17" class="edge"><title>O5_0_0&#45;&gt;E5</title>
<path fill="none" stroke="black" d="M261,-174.581C261,-159.382 261,-137.067 261,-119.464"/>
<polygon fill="black" stroke="black" points="264.5,-119.219 261,-109.219 257.5,-119.219 264.5,-119.219"/>
</g>
</g>
</svg>
