<?xml version="1.0" encoding="UTF-8" standalone="no"?>
<!DOCTYPE svg PUBLIC "-//W3C//DTD SVG 1.1//EN"
 "http://www.w3.org/Graphics/SVG/1.1/DTD/svg11.dtd">
<!-- Generated by graphviz version 2.38.0 (20140413.2041)
 -->
<!-- Title: recipe Pages: 1 -->
<svg width="2334pt" height="910pt"
 viewBox="0.00 0.00 2334.00 910.00" xmlns="http://www.w3.org/2000/svg" xmlns:xlink="http://www.w3.org/1999/xlink">
<g id="graph0" class="graph" transform="scale(1 1) rotate(0) translate(4 906)">
<title>recipe</title>
<polygon fill="white" stroke="none" points="-4,4 -4,-906 2330,-906 2330,4 -4,4"/>
<!-- E0 -->
<g id="node1" class="node"><title>E0</title>
<ellipse fill="azure" stroke="black" cx="2156.5" cy="-499" rx="68.7879" ry="18"/>
<text text-anchor="middle" x="2156.5" y="-495.3" font-family="Times,serif" font-size="14.00">preheat (S0,P0)</text>
</g>
<!-- E1 -->
<g id="node2" class="node"><title>E1</title>
<ellipse fill="azure" stroke="black" cx="1855.5" cy="-397" rx="85.5853" ry="18"/>
<text text-anchor="middle" x="1855.5" y="-393.3" font-family="Times,serif" font-size="14.00">grease pan (S1,P41)</text>
</g>
<!-- E0&#45;&gt;E1 -->
<g id="edge4" class="edge"><title>E0&#45;&gt;E1</title>
<path fill="none" stroke="black" d="M2115.59,-484.409C2062,-466.603 1967.9,-435.341 1908.78,-415.702"/>
<polygon fill="black" stroke="black" points="1909.84,-412.366 1899.25,-412.534 1907.63,-419.009 1909.84,-412.366"/>
<text text-anchor="middle" x="2082.5" y="-451.8" font-family="Times,serif" font-size="14.00">OUTPUT: </text>
<text text-anchor="middle" x="2082.5" y="-436.8" font-family="Times,serif" font-size="14.00">INPUT: </text>
</g>
<!-- E7 -->
<g id="node8" class="node"><title>E7</title>
<ellipse fill="azure" stroke="black" cx="1626.5" cy="-295" rx="74.187" ry="18"/>
<text text-anchor="middle" x="1626.5" y="-291.3" font-family="Times,serif" font-size="14.00">spoon (S7,P331)</text>
</g>
<!-- E1&#45;&gt;E7 -->
<g id="edge20" class="edge"><title>E1&#45;&gt;E7</title>
<path fill="none" stroke="black" d="M1819.72,-380.375C1779.29,-362.719 1713.47,-333.979 1670.08,-315.03"/>
<polygon fill="black" stroke="black" points="1671.47,-311.82 1660.91,-311.025 1668.67,-318.235 1671.47,-311.82"/>
<text text-anchor="middle" x="1874.5" y="-349.8" font-family="Times,serif" font-size="14.00">OUTPUT: </text>
<text text-anchor="middle" x="1874.5" y="-334.8" font-family="Times,serif" font-size="14.00">INPUT: into prepared muffin cups</text>
</g>
<!-- E2 -->
<g id="node3" class="node"><title>E2</title>
<ellipse fill="azure" stroke="black" cx="330.5" cy="-809" rx="62.2891" ry="18"/>
<text text-anchor="middle" x="330.5" y="-805.3" font-family="Times,serif" font-size="14.00">sift (S2,P103)</text>
</g>
<!-- E3 -->
<g id="node4" class="node"><title>E3</title>
<ellipse fill="azure" stroke="black" cx="421.5" cy="-706" rx="61.1893" ry="18"/>
<text text-anchor="middle" x="421.5" y="-702.3" font-family="Times,serif" font-size="14.00">set (S3,P153)</text>
</g>
<!-- E2&#45;&gt;E3 -->
<g id="edge7" class="edge"><title>E2&#45;&gt;E3</title>
<path fill="none" stroke="black" d="M338.218,-790.926C345.081,-776.981 356.093,-757.309 369.5,-743 374.558,-737.601 380.555,-732.551 386.647,-728.039"/>
<polygon fill="black" stroke="black" points="388.749,-730.841 394.934,-722.239 384.735,-725.106 388.749,-730.841"/>
<text text-anchor="middle" x="401.5" y="-761.8" font-family="Times,serif" font-size="14.00">OUTPUT: </text>
<text text-anchor="middle" x="401.5" y="-746.8" font-family="Times,serif" font-size="14.00">INPUT: </text>
</g>
<!-- E4 -->
<g id="node5" class="node"><title>E4</title>
<ellipse fill="azure" stroke="black" cx="921.5" cy="-602" rx="73.387" ry="18"/>
<text text-anchor="middle" x="921.5" y="-598.3" font-family="Times,serif" font-size="14.00">cream (S4,P176)</text>
</g>
<!-- E3&#45;&gt;E4 -->
<g id="edge10" class="edge"><title>E3&#45;&gt;E4</title>
<path fill="none" stroke="black" d="M454.234,-690.736C490.683,-675.469 551.693,-651.731 606.5,-639 684.749,-620.824 776.155,-611.672 840.286,-607.162"/>
<polygon fill="black" stroke="black" points="840.599,-610.649 850.339,-606.477 840.124,-603.665 840.599,-610.649"/>
<text text-anchor="middle" x="684.5" y="-657.8" font-family="Times,serif" font-size="14.00">OUTPUT: </text>
<text text-anchor="middle" x="684.5" y="-642.8" font-family="Times,serif" font-size="14.00">INPUT: in a medium bowl</text>
</g>
<!-- E5 -->
<g id="node6" class="node"><title>E5</title>
<ellipse fill="azure" stroke="black" cx="1149.5" cy="-499" rx="65.7887" ry="18"/>
<text text-anchor="middle" x="1149.5" y="-495.3" font-family="Times,serif" font-size="14.00">mix (S5,P252)</text>
</g>
<!-- E4&#45;&gt;E5 -->
<g id="edge14" class="edge"><title>E4&#45;&gt;E5</title>
<path fill="none" stroke="black" d="M955.634,-585.879C996.025,-567.987 1063.3,-538.186 1107.02,-518.817"/>
<polygon fill="black" stroke="black" points="1108.52,-521.981 1116.25,-514.731 1105.69,-515.581 1108.52,-521.981"/>
<text text-anchor="middle" x="1101.5" y="-553.8" font-family="Times,serif" font-size="14.00">OUTPUT: </text>
<text text-anchor="middle" x="1101.5" y="-538.8" font-family="Times,serif" font-size="14.00">INPUT: </text>
</g>
<!-- E6 -->
<g id="node7" class="node"><title>E6</title>
<ellipse fill="azure" stroke="black" cx="1363.5" cy="-397" rx="72.2875" ry="18"/>
<text text-anchor="middle" x="1363.5" y="-393.3" font-family="Times,serif" font-size="14.00">blend (S6,P288)</text>
</g>
<!-- E5&#45;&gt;E6 -->
<g id="edge16" class="edge"><title>E5&#45;&gt;E6</title>
<path fill="none" stroke="black" d="M1174.17,-482.193C1196.8,-468.112 1231.57,-447.544 1263.5,-433 1278.19,-426.307 1294.57,-420.09 1309.74,-414.808"/>
<polygon fill="black" stroke="black" points="1311.17,-418.017 1319.51,-411.476 1308.91,-411.392 1311.17,-418.017"/>
<text text-anchor="middle" x="1295.5" y="-451.8" font-family="Times,serif" font-size="14.00">OUTPUT: </text>
<text text-anchor="middle" x="1295.5" y="-436.8" font-family="Times,serif" font-size="14.00">INPUT: </text>
</g>
<!-- E6&#45;&gt;E7 -->
<g id="edge19" class="edge"><title>E6&#45;&gt;E7</title>
<path fill="none" stroke="black" d="M1401.46,-381.566C1448.24,-363.781 1527.74,-333.55 1578.65,-314.193"/>
<polygon fill="black" stroke="black" points="1580.02,-317.418 1588.12,-310.592 1577.53,-310.875 1580.02,-317.418"/>
<text text-anchor="middle" x="1565.5" y="-349.8" font-family="Times,serif" font-size="14.00">OUTPUT: </text>
<text text-anchor="middle" x="1565.5" y="-334.8" font-family="Times,serif" font-size="14.00">INPUT: </text>
</g>
<!-- E8 -->
<g id="node9" class="node"><title>E8</title>
<ellipse fill="azure" stroke="black" cx="1183.5" cy="-193" rx="68.7879" ry="18"/>
<text text-anchor="middle" x="1183.5" y="-189.3" font-family="Times,serif" font-size="14.00">bake (S8,P373)</text>
</g>
<!-- E7&#45;&gt;E8 -->
<g id="edge22" class="edge"><title>E7&#45;&gt;E8</title>
<path fill="none" stroke="black" d="M1573.94,-282.136C1491.19,-263.455 1330.96,-227.287 1243.7,-207.589"/>
<polygon fill="black" stroke="black" points="1244.47,-204.175 1233.94,-205.387 1242.93,-211.003 1244.47,-204.175"/>
<text text-anchor="middle" x="1502.5" y="-247.8" font-family="Times,serif" font-size="14.00">OUTPUT: </text>
<text text-anchor="middle" x="1502.5" y="-232.8" font-family="Times,serif" font-size="14.00">INPUT: </text>
</g>
<!-- E9 -->
<g id="node10" class="node"><title>E9</title>
<ellipse fill="azure" stroke="black" cx="920.5" cy="-91" rx="67.6881" ry="18"/>
<text text-anchor="middle" x="920.5" y="-87.3" font-family="Times,serif" font-size="14.00">cool (S9,P462)</text>
</g>
<!-- E8&#45;&gt;E9 -->
<g id="edge26" class="edge"><title>E8&#45;&gt;E9</title>
<path fill="none" stroke="black" d="M1146.1,-177.779C1099.07,-159.897 1018.32,-129.193 967.258,-109.779"/>
<polygon fill="black" stroke="black" points="968.364,-106.455 957.773,-106.172 965.876,-112.998 968.364,-106.455"/>
<text text-anchor="middle" x="1123.5" y="-145.8" font-family="Times,serif" font-size="14.00">OUTPUT: </text>
<text text-anchor="middle" x="1123.5" y="-130.8" font-family="Times,serif" font-size="14.00">INPUT: </text>
</g>
<!-- EOR -->
<g id="node29" class="node"><title>EOR</title>
<ellipse fill="plum" stroke="black" cx="920.5" cy="-18" rx="57.3905" ry="18"/>
<text text-anchor="middle" x="920.5" y="-14.3" font-family="Times,serif" font-size="14.00">Bon appetit!</text>
</g>
<!-- E9&#45;&gt;EOR -->
<g id="edge28" class="edge"><title>E9&#45;&gt;EOR</title>
<path fill="none" stroke="black" d="M920.5,-72.8129C920.5,-64.7895 920.5,-55.0475 920.5,-46.0691"/>
<polygon fill="black" stroke="black" points="924,-46.0288 920.5,-36.0288 917,-46.0289 924,-46.0288"/>
</g>
<!-- D0 -->
<g id="node11" class="node"><title>D0</title>
<polygon fill="white" stroke="black" points="2326,-620 1987,-620 1987,-584 2326,-584 2326,-620"/>
<text text-anchor="middle" x="2156.5" y="-598.3" font-family="Times,serif" font-size="14.00">DOBJ: the oven to 400 degrees F &#45;LRB&#45; 200 degrees C</text>
</g>
<!-- D0&#45;&gt;E0 -->
<g id="edge1" class="edge"><title>D0&#45;&gt;E0</title>
<path fill="none" stroke="black" d="M2156.5,-583.867C2156.5,-568.414 2156.5,-545.416 2156.5,-527.409"/>
<polygon fill="black" stroke="black" points="2160,-527.217 2156.5,-517.217 2153,-527.217 2160,-527.217"/>
</g>
<!-- D2 -->
<g id="node12" class="node"><title>D2</title>
<polygon fill="peachpuff" stroke="black" points="389,-902 0,-902 0,-864 389,-864 389,-902"/>
<text text-anchor="middle" x="194.5" y="-886.8" font-family="Times,serif" font-size="14.00">DOBJ: baking powder, ground cinnamon, all&#45;purpose flour, salt</text>
<text text-anchor="middle" x="194.5" y="-871.8" font-family="Times,serif" font-size="14.00">(text: the flour , baking powder , cinnamon, salt)</text>
</g>
<!-- D2&#45;&gt;E2 -->
<g id="edge2" class="edge"><title>D2&#45;&gt;E2</title>
<path fill="none" stroke="black" d="M228.819,-863.831C248.335,-853.499 272.803,-840.546 292.846,-829.935"/>
<polygon fill="black" stroke="black" points="294.51,-833.014 301.71,-825.242 291.234,-826.828 294.51,-833.014"/>
</g>
<!-- O2_0 -->
<g id="node13" class="node"><title>O2_0</title>
<polygon fill="white" stroke="black" points="526,-901 407,-901 407,-865 526,-865 526,-901"/>
<text text-anchor="middle" x="466.5" y="-879.3" font-family="Times,serif" font-size="14.00">OTHER: together</text>
</g>
<!-- O2_0&#45;&gt;E2 -->
<g id="edge3" class="edge"><title>O2_0&#45;&gt;E2</title>
<path fill="none" stroke="black" d="M434.27,-864.937C414.427,-854.432 388.903,-840.919 368.135,-829.925"/>
<polygon fill="black" stroke="black" points="369.737,-826.812 359.262,-825.227 366.462,-832.999 369.737,-826.812"/>
</g>
<!-- P1_0_0 -->
<g id="node14" class="node"><title>P1_0_0</title>
<polygon fill="white" stroke="black" points="1851.5,-517 1631.5,-517 1631.5,-481 1851.5,-481 1851.5,-517"/>
<text text-anchor="middle" x="1741.5" y="-495.3" font-family="Times,serif" font-size="14.00">PREP: with non&#45;stick spray or line</text>
</g>
<!-- P1_0_0&#45;&gt;E1 -->
<g id="edge5" class="edge"><title>P1_0_0&#45;&gt;E1</title>
<path fill="none" stroke="black" d="M1761.1,-480.809C1779.84,-464.37 1808.24,-439.458 1828.99,-421.252"/>
<polygon fill="black" stroke="black" points="1831.33,-423.86 1836.54,-414.634 1826.71,-418.597 1831.33,-423.86"/>
</g>
<!-- P1_1_0 -->
<g id="node15" class="node"><title>P1_1_0</title>
<polygon fill="white" stroke="black" points="2069.5,-517 1869.5,-517 1869.5,-481 2069.5,-481 2069.5,-517"/>
<text text-anchor="middle" x="1969.5" y="-495.3" font-family="Times,serif" font-size="14.00">PREP: with paper muffin liners</text>
</g>
<!-- P1_1_0&#45;&gt;E1 -->
<g id="edge6" class="edge"><title>P1_1_0&#45;&gt;E1</title>
<path fill="none" stroke="black" d="M1949.9,-480.809C1931.16,-464.37 1902.76,-439.458 1882.01,-421.252"/>
<polygon fill="black" stroke="black" points="1884.29,-418.597 1874.46,-414.634 1879.67,-423.86 1884.29,-418.597"/>
</g>
<!-- O3_0_0 -->
<g id="node16" class="node"><title>O3_0_0</title>
<polygon fill="white" stroke="black" points="512,-827 411,-827 411,-791 512,-791 512,-827"/>
<text text-anchor="middle" x="461.5" y="-805.3" font-family="Times,serif" font-size="14.00">OTHER: aside</text>
</g>
<!-- O3_0_0&#45;&gt;E3 -->
<g id="edge8" class="edge"><title>O3_0_0&#45;&gt;E3</title>
<path fill="none" stroke="black" d="M454.715,-790.867C448.508,-775.196 439.229,-751.766 432.055,-733.651"/>
<polygon fill="black" stroke="black" points="435.255,-732.226 428.319,-724.217 428.747,-734.804 435.255,-732.226"/>
</g>
<!-- D4_ing -->
<g id="node17" class="node"><title>D4_ing</title>
<polygon fill="peachpuff" stroke="black" points="840.5,-725 500.5,-725 500.5,-687 840.5,-687 840.5,-725"/>
<text text-anchor="middle" x="670.5" y="-709.8" font-family="Times,serif" font-size="14.00">DOBJ: egg, sugar, reduced&#45;calorie margarine</text>
<text text-anchor="middle" x="670.5" y="-694.8" font-family="Times,serif" font-size="14.00">(text: &#160;egg with an electric mixer, &#160;margarine, the sugar )</text>
</g>
<!-- D4_ing&#45;&gt;E4 -->
<g id="edge9" class="edge"><title>D4_ing&#45;&gt;E4</title>
<path fill="none" stroke="black" d="M714.796,-686.999C760.126,-668.578 830.225,-640.092 875.991,-621.494"/>
<polygon fill="black" stroke="black" points="877.423,-624.69 885.37,-617.682 874.788,-618.205 877.423,-624.69"/>
</g>
<!-- P4_1_0 -->
<g id="node18" class="node"><title>P4_1_0</title>
<polygon fill="white" stroke="black" points="984,-724 859,-724 859,-688 984,-688 984,-724"/>
<text text-anchor="middle" x="921.5" y="-702.3" font-family="Times,serif" font-size="14.00">PREP: until &#160;fluffy</text>
</g>
<!-- P4_1_0&#45;&gt;E4 -->
<g id="edge11" class="edge"><title>P4_1_0&#45;&gt;E4</title>
<path fill="none" stroke="black" d="M921.5,-687.697C921.5,-671.923 921.5,-648.364 921.5,-630.094"/>
<polygon fill="black" stroke="black" points="925,-630.047 921.5,-620.047 918,-630.047 925,-630.047"/>
</g>
<!-- P4_1_1 -->
<g id="node19" class="node"><title>P4_1_1</title>
<polygon fill="white" stroke="black" points="1118.5,-724 1002.5,-724 1002.5,-688 1118.5,-688 1118.5,-724"/>
<text text-anchor="middle" x="1060.5" y="-702.3" font-family="Times,serif" font-size="14.00">PREP: until light</text>
</g>
<!-- P4_1_1&#45;&gt;E4 -->
<g id="edge12" class="edge"><title>P4_1_1&#45;&gt;E4</title>
<path fill="none" stroke="black" d="M1037.23,-687.927C1013.9,-670.807 977.852,-644.352 952.191,-625.521"/>
<polygon fill="black" stroke="black" points="954.052,-622.546 943.92,-619.452 949.911,-628.19 954.052,-622.546"/>
</g>
<!-- O4_0_0 -->
<g id="node20" class="node"><title>O4_0_0</title>
<polygon fill="white" stroke="black" points="1256,-724 1137,-724 1137,-688 1256,-688 1256,-724"/>
<text text-anchor="middle" x="1196.5" y="-702.3" font-family="Times,serif" font-size="14.00">OTHER: together</text>
</g>
<!-- O4_0_0&#45;&gt;E4 -->
<g id="edge13" class="edge"><title>O4_0_0&#45;&gt;E4</title>
<path fill="none" stroke="black" d="M1150.47,-687.927C1100.34,-669.333 1020.52,-639.727 969.59,-620.837"/>
<polygon fill="black" stroke="black" points="970.712,-617.52 960.119,-617.324 968.278,-624.083 970.712,-617.52"/>
</g>
<!-- P5_0_ing -->
<g id="node21" class="node"><title>P5_0_ing</title>
<polygon fill="peachpuff" stroke="black" points="1438,-621 1013,-621 1013,-583 1438,-583 1438,-621"/>
<text text-anchor="middle" x="1225.5" y="-605.8" font-family="Times,serif" font-size="14.00">PREP: in dates, vanilla extract, bran flakes cereal, medium ripe bananas</text>
<text text-anchor="middle" x="1225.5" y="-590.8" font-family="Times,serif" font-size="14.00">(text: in &#160;vanilla , bananas , &#160;cereal, &#160;dates)</text>
</g>
<!-- P5_0_ing&#45;&gt;E5 -->
<g id="edge15" class="edge"><title>P5_0_ing&#45;&gt;E5</title>
<path fill="none" stroke="black" d="M1211.91,-582.943C1199.8,-566.852 1181.96,-543.14 1168.45,-525.185"/>
<polygon fill="black" stroke="black" points="1171.02,-522.779 1162.21,-516.893 1165.43,-526.988 1171.02,-522.779"/>
</g>
<!-- P6_0_0 -->
<g id="node22" class="node"><title>P6_0_0</title>
<polygon fill="white" stroke="black" points="1395.5,-517 1233.5,-517 1233.5,-481 1395.5,-481 1395.5,-517"/>
<text text-anchor="middle" x="1314.5" y="-495.3" font-family="Times,serif" font-size="14.00">PREP: in dry ingredients</text>
</g>
<!-- P6_0_0&#45;&gt;E6 -->
<g id="edge17" class="edge"><title>P6_0_0&#45;&gt;E6</title>
<path fill="none" stroke="black" d="M1323.04,-480.581C1330.67,-465 1341.97,-441.943 1350.69,-424.149"/>
<polygon fill="black" stroke="black" points="1353.97,-425.406 1355.23,-414.886 1347.68,-422.326 1353.97,-425.406"/>
</g>
<!-- O6_0_0 -->
<g id="node23" class="node"><title>O6_0_0</title>
<polygon fill="white" stroke="black" points="1613.5,-517 1413.5,-517 1413.5,-481 1613.5,-481 1613.5,-517"/>
<text text-anchor="middle" x="1513.5" y="-495.3" font-family="Times,serif" font-size="14.00">OTHER: until just incorporated</text>
</g>
<!-- O6_0_0&#45;&gt;E6 -->
<g id="edge18" class="edge"><title>O6_0_0&#45;&gt;E6</title>
<path fill="none" stroke="black" d="M1487.71,-480.809C1462.47,-463.979 1423.9,-438.27 1396.45,-419.966"/>
<polygon fill="black" stroke="black" points="1398.22,-416.939 1387.96,-414.304 1394.34,-422.763 1398.22,-416.939"/>
</g>
<!-- P7_1_0 -->
<g id="node24" class="node"><title>P7_1_0</title>
<polygon fill="white" stroke="black" points="1702.5,-415 1550.5,-415 1550.5,-379 1702.5,-379 1702.5,-415"/>
<text text-anchor="middle" x="1626.5" y="-393.3" font-family="Times,serif" font-size="14.00">PREP: to about 2/3 full</text>
</g>
<!-- P7_1_0&#45;&gt;E7 -->
<g id="edge21" class="edge"><title>P7_1_0&#45;&gt;E7</title>
<path fill="none" stroke="black" d="M1626.5,-378.581C1626.5,-363.382 1626.5,-341.067 1626.5,-323.464"/>
<polygon fill="black" stroke="black" points="1630,-323.219 1626.5,-313.219 1623,-323.219 1630,-323.219"/>
</g>
<!-- P8_0_0 -->
<g id="node25" class="node"><title>P8_0_0</title>
<polygon fill="white" stroke="black" points="920.5,-313 742.5,-313 742.5,-277 920.5,-277 920.5,-313"/>
<text text-anchor="middle" x="831.5" y="-291.3" font-family="Times,serif" font-size="14.00">PREP: for 20 to 25 minutes</text>
</g>
<!-- P8_0_0&#45;&gt;E8 -->
<g id="edge23" class="edge"><title>P8_0_0&#45;&gt;E8</title>
<path fill="none" stroke="black" d="M891.611,-276.923C958.151,-258.02 1064.47,-227.814 1128.77,-209.548"/>
<polygon fill="black" stroke="black" points="1130.05,-212.822 1138.72,-206.722 1128.14,-206.088 1130.05,-212.822"/>
</g>
<!-- P8_1_0 -->
<g id="node26" class="node"><title>P8_1_0</title>
<polygon fill="white" stroke="black" points="1120.5,-313 938.5,-313 938.5,-277 1120.5,-277 1120.5,-313"/>
<text text-anchor="middle" x="1029.5" y="-291.3" font-family="Times,serif" font-size="14.00">PREP: in the preheated oven</text>
</g>
<!-- P8_1_0&#45;&gt;E8 -->
<g id="edge24" class="edge"><title>P8_1_0&#45;&gt;E8</title>
<path fill="none" stroke="black" d="M1055.97,-276.809C1082.05,-259.879 1121.96,-233.962 1150.18,-215.638"/>
<polygon fill="black" stroke="black" points="1152.42,-218.358 1158.9,-209.977 1148.6,-212.487 1152.42,-218.358"/>
</g>
<!-- O8_0_0 -->
<g id="node27" class="node"><title>O8_0_0</title>
<polygon fill="white" stroke="black" points="1534.5,-313 1138.5,-313 1138.5,-277 1534.5,-277 1534.5,-313"/>
<text text-anchor="middle" x="1336.5" y="-291.3" font-family="Times,serif" font-size="14.00">OTHER: until a toothpick inserted into the center comes out clean</text>
</g>
<!-- O8_0_0&#45;&gt;E8 -->
<g id="edge25" class="edge"><title>O8_0_0&#45;&gt;E8</title>
<path fill="none" stroke="black" d="M1310.2,-276.809C1284.29,-259.879 1244.64,-233.962 1216.61,-215.638"/>
<polygon fill="black" stroke="black" points="1218.23,-212.518 1207.94,-209.977 1214.4,-218.377 1218.23,-212.518"/>
</g>
<!-- P9_0_0 -->
<g id="node28" class="node"><title>P9_0_0</title>
<polygon fill="white" stroke="black" points="1097,-211 548,-211 548,-175 1097,-175 1097,-211"/>
<text text-anchor="middle" x="822.5" y="-189.3" font-family="Times,serif" font-size="14.00">PREP: in pan over a wire rack for at least 10 minutes before removing muffins from the pan</text>
</g>
<!-- P9_0_0&#45;&gt;E9 -->
<g id="edge27" class="edge"><title>P9_0_0&#45;&gt;E9</title>
<path fill="none" stroke="black" d="M839.57,-174.581C855.501,-158.325 879.407,-133.931 897.11,-115.867"/>
<polygon fill="black" stroke="black" points="899.777,-118.147 904.276,-108.555 894.777,-113.247 899.777,-118.147"/>
</g>
</g>
</svg>
