<?xml version="1.0" encoding="UTF-8" standalone="no"?>
<!DOCTYPE svg PUBLIC "-//W3C//DTD SVG 1.1//EN"
 "http://www.w3.org/Graphics/SVG/1.1/DTD/svg11.dtd">
<!-- Generated by graphviz version 2.38.0 (20140413.2041)
 -->
<!-- Title: recipe Pages: 1 -->
<svg width="1565pt" height="704pt"
 viewBox="0.00 0.00 1564.50 704.00" xmlns="http://www.w3.org/2000/svg" xmlns:xlink="http://www.w3.org/1999/xlink">
<g id="graph0" class="graph" transform="scale(1 1) rotate(0) translate(4 700)">
<title>recipe</title>
<polygon fill="white" stroke="none" points="-4,4 -4,-700 1560.5,-700 1560.5,4 -4,4"/>
<!-- E0 -->
<g id="node1" class="node"><title>E0</title>
<ellipse fill="azure" stroke="black" cx="1358.5" cy="-397" rx="68.7879" ry="18"/>
<text text-anchor="middle" x="1358.5" y="-393.3" font-family="Times,serif" font-size="14.00">preheat (S0,P0)</text>
</g>
<!-- E7 -->
<g id="node8" class="node"><title>E7</title>
<ellipse fill="azure" stroke="black" cx="1133.5" cy="-295" rx="68.7879" ry="18"/>
<text text-anchor="middle" x="1133.5" y="-291.3" font-family="Times,serif" font-size="14.00">bake (S7,P282)</text>
</g>
<!-- E0&#45;&gt;E7 -->
<g id="edge16" class="edge"><title>E0&#45;&gt;E7</title>
<path fill="none" stroke="black" d="M1324.82,-381.029C1285.27,-363.452 1219.6,-334.268 1176.43,-315.082"/>
<polygon fill="black" stroke="black" points="1177.61,-311.773 1167.05,-310.91 1174.76,-318.17 1177.61,-311.773"/>
<text text-anchor="middle" x="1417.5" y="-349.8" font-family="Times,serif" font-size="14.00">OUTPUT: </text>
<text text-anchor="middle" x="1417.5" y="-334.8" font-family="Times,serif" font-size="14.00">INPUT: in preheated oven for 15 to 20 minutes </text>
</g>
<!-- E1 -->
<g id="node2" class="node"><title>E1</title>
<ellipse fill="azure" stroke="black" cx="965.5" cy="-499" rx="69.5877" ry="18"/>
<text text-anchor="middle" x="965.5" y="-495.3" font-family="Times,serif" font-size="14.00">grease (S1,P38)</text>
</g>
<!-- E6 -->
<g id="node7" class="node"><title>E6</title>
<ellipse fill="azure" stroke="black" cx="1133.5" cy="-397" rx="73.387" ry="18"/>
<text text-anchor="middle" x="1133.5" y="-393.3" font-family="Times,serif" font-size="14.00">scoop (S6,P248)</text>
</g>
<!-- E1&#45;&gt;E6 -->
<g id="edge14" class="edge"><title>E1&#45;&gt;E6</title>
<path fill="none" stroke="black" d="M944.412,-481.489C939.196,-476.202 934.303,-469.908 931.5,-463 926.487,-450.645 922.914,-443.201 931.5,-433 947.018,-414.562 1002.64,-405.837 1051.6,-401.708"/>
<polygon fill="black" stroke="black" points="1051.92,-405.194 1061.61,-400.919 1051.37,-398.216 1051.92,-405.194"/>
<text text-anchor="middle" x="1031.5" y="-451.8" font-family="Times,serif" font-size="14.00">OUTPUT: </text>
<text text-anchor="middle" x="1031.5" y="-436.8" font-family="Times,serif" font-size="14.00">INPUT: into prepared muffin cups</text>
</g>
<!-- E2 -->
<g id="node3" class="node"><title>E2</title>
<ellipse fill="azure" stroke="black" cx="432.5" cy="-499" rx="61.1893" ry="18"/>
<text text-anchor="middle" x="432.5" y="-495.3" font-family="Times,serif" font-size="14.00">mix (S2,P82)</text>
</g>
<!-- E5 -->
<g id="node6" class="node"><title>E5</title>
<ellipse fill="azure" stroke="black" cx="605.5" cy="-397" rx="63.0888" ry="18"/>
<text text-anchor="middle" x="605.5" y="-393.3" font-family="Times,serif" font-size="14.00">stir (S5,P204)</text>
</g>
<!-- E2&#45;&gt;E5 -->
<g id="edge11" class="edge"><title>E2&#45;&gt;E5</title>
<path fill="none" stroke="black" d="M443.18,-481.225C453.386,-466.492 470.065,-445.511 489.5,-433 505.767,-422.528 525.318,-415.063 543.694,-409.796"/>
<polygon fill="black" stroke="black" points="544.716,-413.145 553.461,-407.164 542.895,-406.386 544.716,-413.145"/>
<text text-anchor="middle" x="542" y="-451.8" font-family="Times,serif" font-size="14.00">OUTPUT: </text>
<text text-anchor="middle" x="542" y="-436.8" font-family="Times,serif" font-size="14.00">INPUT: into flour</text>
</g>
<!-- E3 -->
<g id="node4" class="node"><title>E3</title>
<ellipse fill="azure" stroke="black" cx="576.5" cy="-602" rx="66.0889" ry="18"/>
<text text-anchor="middle" x="576.5" y="-598.3" font-family="Times,serif" font-size="14.00">beat (S3,P146)</text>
</g>
<!-- E4 -->
<g id="node5" class="node"><title>E4</title>
<ellipse fill="azure" stroke="black" cx="594.5" cy="-499" rx="63.0888" ry="18"/>
<text text-anchor="middle" x="594.5" y="-495.3" font-family="Times,serif" font-size="14.00">stir (S4,P185)</text>
</g>
<!-- E3&#45;&gt;E4 -->
<g id="edge8" class="edge"><title>E3&#45;&gt;E4</title>
<path fill="none" stroke="black" d="M579.553,-583.867C582.32,-568.341 586.445,-545.2 589.66,-527.156"/>
<polygon fill="black" stroke="black" points="593.123,-527.676 591.432,-517.217 586.231,-526.448 593.123,-527.676"/>
<text text-anchor="middle" x="620.5" y="-553.8" font-family="Times,serif" font-size="14.00">OUTPUT: </text>
<text text-anchor="middle" x="620.5" y="-538.8" font-family="Times,serif" font-size="14.00">INPUT: </text>
</g>
<!-- E4&#45;&gt;E5 -->
<g id="edge10" class="edge"><title>E4&#45;&gt;E5</title>
<path fill="none" stroke="black" d="M596.416,-480.581C598.088,-465.382 600.543,-443.067 602.479,-425.464"/>
<polygon fill="black" stroke="black" points="605.991,-425.542 603.606,-415.219 599.033,-424.776 605.991,-425.542"/>
<text text-anchor="middle" x="672" y="-451.8" font-family="Times,serif" font-size="14.00">OUTPUT: </text>
<text text-anchor="middle" x="672" y="-436.8" font-family="Times,serif" font-size="14.00">INPUT: banana mixture</text>
</g>
<!-- E5&#45;&gt;E7 -->
<g id="edge17" class="edge"><title>E5&#45;&gt;E7</title>
<path fill="none" stroke="black" d="M617.107,-379.189C628.987,-363.548 649.001,-341.173 672.5,-331 750.896,-297.062 971.817,-324.249 1056.5,-313 1062.65,-312.184 1069.03,-311.124 1075.37,-309.933"/>
<polygon fill="black" stroke="black" points="1076.13,-313.35 1085.26,-307.97 1074.77,-306.484 1076.13,-313.35"/>
<text text-anchor="middle" x="901" y="-349.8" font-family="Times,serif" font-size="14.00">OUTPUT: </text>
<text text-anchor="middle" x="901" y="-334.8" font-family="Times,serif" font-size="14.00">INPUT: in &#160;or until a toothpick inserted into center of a muffin comes out clean</text>
</g>
<!-- E6&#45;&gt;E7 -->
<g id="edge15" class="edge"><title>E6&#45;&gt;E7</title>
<path fill="none" stroke="black" d="M1133.5,-378.581C1133.5,-363.382 1133.5,-341.067 1133.5,-323.464"/>
<polygon fill="black" stroke="black" points="1137,-323.219 1133.5,-313.219 1130,-323.219 1137,-323.219"/>
<text text-anchor="middle" x="1165.5" y="-349.8" font-family="Times,serif" font-size="14.00">OUTPUT: </text>
<text text-anchor="middle" x="1165.5" y="-334.8" font-family="Times,serif" font-size="14.00">INPUT: </text>
</g>
<!-- E8 -->
<g id="node9" class="node"><title>E8</title>
<ellipse fill="azure" stroke="black" cx="1008.5" cy="-193" rx="59.5901" ry="18"/>
<text text-anchor="middle" x="1008.5" y="-189.3" font-family="Times,serif" font-size="14.00">let (S8,P376)</text>
</g>
<!-- E7&#45;&gt;E8 -->
<g id="edge18" class="edge"><title>E7&#45;&gt;E8</title>
<path fill="none" stroke="black" d="M1113.14,-277.711C1092.44,-261.149 1060.19,-235.351 1036.96,-216.771"/>
<polygon fill="black" stroke="black" points="1038.85,-213.796 1028.85,-210.282 1034.48,-219.262 1038.85,-213.796"/>
<text text-anchor="middle" x="1121.5" y="-247.8" font-family="Times,serif" font-size="14.00">OUTPUT: </text>
<text text-anchor="middle" x="1121.5" y="-232.8" font-family="Times,serif" font-size="14.00">INPUT: </text>
</g>
<!-- E9 -->
<g id="node10" class="node"><title>E9</title>
<ellipse fill="azure" stroke="black" cx="767.5" cy="-91" rx="70.3881" ry="18"/>
<text text-anchor="middle" x="767.5" y="-87.3" font-family="Times,serif" font-size="14.00">place (S9,P411)</text>
</g>
<!-- E8&#45;&gt;E9 -->
<g id="edge20" class="edge"><title>E8&#45;&gt;E9</title>
<path fill="none" stroke="black" d="M974.736,-177.99C932.318,-160.389 859.395,-130.131 812.334,-110.604"/>
<polygon fill="black" stroke="black" points="813.572,-107.328 802.995,-106.728 810.89,-113.793 813.572,-107.328"/>
<text text-anchor="middle" x="955.5" y="-145.8" font-family="Times,serif" font-size="14.00">OUTPUT: </text>
<text text-anchor="middle" x="955.5" y="-130.8" font-family="Times,serif" font-size="14.00">INPUT: </text>
</g>
<!-- EOR -->
<g id="node25" class="node"><title>EOR</title>
<ellipse fill="plum" stroke="black" cx="767.5" cy="-18" rx="57.3905" ry="18"/>
<text text-anchor="middle" x="767.5" y="-14.3" font-family="Times,serif" font-size="14.00">Bon appetit!</text>
</g>
<!-- E9&#45;&gt;EOR -->
<g id="edge24" class="edge"><title>E9&#45;&gt;EOR</title>
<path fill="none" stroke="black" d="M767.5,-72.8129C767.5,-64.7895 767.5,-55.0475 767.5,-46.0691"/>
<polygon fill="black" stroke="black" points="771,-46.0288 767.5,-36.0288 764,-46.0289 771,-46.0288"/>
</g>
<!-- D2 -->
<g id="node11" class="node"><title>D2</title>
<polygon fill="peachpuff" stroke="black" points="355,-621 0,-621 0,-583 355,-583 355,-621"/>
<text text-anchor="middle" x="177.5" y="-605.8" font-family="Times,serif" font-size="14.00">DOBJ: baking powder, all&#45;purpose flour, baking soda, salt</text>
<text text-anchor="middle" x="177.5" y="-590.8" font-family="Times,serif" font-size="14.00">(text: flour , baking powder , baking soda, salt)</text>
</g>
<!-- D2&#45;&gt;E2 -->
<g id="edge1" class="edge"><title>D2&#45;&gt;E2</title>
<path fill="none" stroke="black" d="M223.089,-582.943C269.765,-564.456 341.84,-535.908 388.085,-517.592"/>
<polygon fill="black" stroke="black" points="389.534,-520.782 397.543,-513.846 386.956,-514.274 389.534,-520.782"/>
</g>
<!-- O2_0 -->
<g id="node12" class="node"><title>O2_0</title>
<polygon fill="white" stroke="black" points="492,-620 373,-620 373,-584 492,-584 492,-620"/>
<text text-anchor="middle" x="432.5" y="-598.3" font-family="Times,serif" font-size="14.00">OTHER: together</text>
</g>
<!-- O2_0&#45;&gt;E2 -->
<g id="edge2" class="edge"><title>O2_0&#45;&gt;E2</title>
<path fill="none" stroke="black" d="M432.5,-583.867C432.5,-568.414 432.5,-545.416 432.5,-527.409"/>
<polygon fill="black" stroke="black" points="436,-527.217 432.5,-517.217 429,-527.217 436,-527.217"/>
</g>
<!-- D3 -->
<g id="node13" class="node"><title>D3</title>
<polygon fill="peachpuff" stroke="black" points="476.5,-696 114.5,-696 114.5,-658 476.5,-658 476.5,-696"/>
<text text-anchor="middle" x="295.5" y="-680.8" font-family="Times,serif" font-size="14.00">DOBJ: white sugar, vanilla extract, mashed ripe banana, egg</text>
<text text-anchor="middle" x="295.5" y="-665.8" font-family="Times,serif" font-size="14.00">(text: banana , sugar , egg, vanilla)</text>
</g>
<!-- D3&#45;&gt;E3 -->
<g id="edge3" class="edge"><title>D3&#45;&gt;E3</title>
<path fill="none" stroke="black" d="M364.961,-657.955C412.858,-645.512 475.703,-629.186 520.419,-617.569"/>
<polygon fill="black" stroke="black" points="521.44,-620.92 530.239,-615.018 519.68,-614.145 521.44,-620.92"/>
</g>
<!-- P3_0 -->
<g id="node14" class="node"><title>P3_0</title>
<polygon fill="white" stroke="black" points="658.5,-695 494.5,-695 494.5,-659 658.5,-659 658.5,-695"/>
<text text-anchor="middle" x="576.5" y="-673.3" font-family="Times,serif" font-size="14.00">PREP: in a separate bowl</text>
</g>
<!-- P3_0&#45;&gt;E3 -->
<g id="edge4" class="edge"><title>P3_0&#45;&gt;E3</title>
<path fill="none" stroke="black" d="M576.5,-658.7C576.5,-650.245 576.5,-639.869 576.5,-630.373"/>
<polygon fill="black" stroke="black" points="580,-630.176 576.5,-620.176 573,-630.176 580,-630.176"/>
</g>
<!-- O3_0 -->
<g id="node15" class="node"><title>O3_0</title>
<polygon fill="white" stroke="black" points="796,-695 677,-695 677,-659 796,-659 796,-695"/>
<text text-anchor="middle" x="736.5" y="-673.3" font-family="Times,serif" font-size="14.00">OTHER: together</text>
</g>
<!-- O3_0&#45;&gt;E3 -->
<g id="edge5" class="edge"><title>O3_0&#45;&gt;E3</title>
<path fill="none" stroke="black" d="M698.987,-658.885C674.744,-647.824 643.168,-633.417 618.148,-622.002"/>
<polygon fill="black" stroke="black" points="619.459,-618.753 608.908,-617.786 616.553,-625.122 619.459,-618.753"/>
</g>
<!-- D1 -->
<g id="node16" class="node"><title>D1</title>
<polygon fill="white" stroke="black" points="1146.5,-620 832.5,-620 832.5,-584 1146.5,-584 1146.5,-620"/>
<text text-anchor="middle" x="989.5" y="-598.3" font-family="Times,serif" font-size="14.00">DOBJ: muffin cups or line with paper muffin liners</text>
</g>
<!-- D1&#45;&gt;E1 -->
<g id="edge6" class="edge"><title>D1&#45;&gt;E1</title>
<path fill="none" stroke="black" d="M985.429,-583.867C981.739,-568.341 976.241,-545.2 971.953,-527.156"/>
<polygon fill="black" stroke="black" points="975.308,-526.137 969.591,-517.217 968.498,-527.756 975.308,-526.137"/>
</g>
<!-- D0 -->
<g id="node17" class="node"><title>D0</title>
<polygon fill="white" stroke="black" points="1521.5,-517 1203.5,-517 1203.5,-481 1521.5,-481 1521.5,-517"/>
<text text-anchor="middle" x="1362.5" y="-495.3" font-family="Times,serif" font-size="14.00">DOBJ: oven to 350 degrees F &#45;LRB&#45; 175 degrees C</text>
</g>
<!-- D0&#45;&gt;E0 -->
<g id="edge7" class="edge"><title>D0&#45;&gt;E0</title>
<path fill="none" stroke="black" d="M1361.8,-480.581C1361.2,-465.382 1360.3,-443.067 1359.6,-425.464"/>
<polygon fill="black" stroke="black" points="1363.09,-425.071 1359.19,-415.219 1356.09,-425.351 1363.09,-425.071"/>
</g>
<!-- P4_0_ing -->
<g id="node18" class="node"><title>P4_0_ing</title>
<polygon fill="peachpuff" stroke="black" points="814.5,-621 660.5,-621 660.5,-583 814.5,-583 814.5,-621"/>
<text text-anchor="middle" x="737.5" y="-605.8" font-family="Times,serif" font-size="14.00">PREP: in sour cream</text>
<text text-anchor="middle" x="737.5" y="-590.8" font-family="Times,serif" font-size="14.00">(text: in the sour cream)</text>
</g>
<!-- P4_0_ing&#45;&gt;E4 -->
<g id="edge9" class="edge"><title>P4_0_ing&#45;&gt;E4</title>
<path fill="none" stroke="black" d="M717.275,-582.897C701.327,-569.031 678.226,-549.826 656.5,-535 648.934,-529.837 640.552,-524.73 632.461,-520.079"/>
<polygon fill="black" stroke="black" points="633.941,-516.896 623.51,-515.044 630.509,-522.997 633.941,-516.896"/>
</g>
<!-- O5_0_0 -->
<g id="node19" class="node"><title>O5_0_0</title>
<polygon fill="white" stroke="black" points="859,-517 676,-517 676,-481 859,-481 859,-517"/>
<text text-anchor="middle" x="767.5" y="-495.3" font-family="Times,serif" font-size="14.00">OTHER: until just combined</text>
</g>
<!-- O5_0_0&#45;&gt;E5 -->
<g id="edge12" class="edge"><title>O5_0_0&#45;&gt;E5</title>
<path fill="none" stroke="black" d="M766.191,-480.9C764.143,-466.159 758.903,-445.354 745.5,-433 727.042,-415.987 701.587,-406.929 677.439,-402.207"/>
<polygon fill="black" stroke="black" points="678.005,-398.753 667.554,-400.492 676.809,-405.65 678.005,-398.753"/>
</g>
<!-- D6_0 -->
<g id="node20" class="node"><title>D6_0</title>
<polygon fill="white" stroke="black" points="1185.5,-517 1093.5,-517 1093.5,-481 1185.5,-481 1185.5,-517"/>
<text text-anchor="middle" x="1139.5" y="-495.3" font-family="Times,serif" font-size="14.00">DOBJ: batter</text>
</g>
<!-- D6_0&#45;&gt;E6 -->
<g id="edge13" class="edge"><title>D6_0&#45;&gt;E6</title>
<path fill="none" stroke="black" d="M1138.45,-480.581C1137.54,-465.382 1136.2,-443.067 1135.15,-425.464"/>
<polygon fill="black" stroke="black" points="1138.63,-424.991 1134.53,-415.219 1131.64,-425.411 1138.63,-424.991"/>
</g>
<!-- O8_0_0 -->
<g id="node21" class="node"><title>O8_0_0</title>
<polygon fill="white" stroke="black" points="1047,-313 864,-313 864,-277 1047,-277 1047,-313"/>
<text text-anchor="middle" x="955.5" y="-291.3" font-family="Times,serif" font-size="14.00">OTHER: cool before serving</text>
</g>
<!-- O8_0_0&#45;&gt;E8 -->
<g id="edge19" class="edge"><title>O8_0_0&#45;&gt;E8</title>
<path fill="none" stroke="black" d="M964.732,-276.581C972.99,-261 985.21,-237.943 994.641,-220.149"/>
<polygon fill="black" stroke="black" points="997.96,-221.361 999.55,-210.886 991.775,-218.083 997.96,-221.361"/>
</g>
<!-- P9_0_0 -->
<g id="node22" class="node"><title>P9_0_0</title>
<polygon fill="white" stroke="black" points="534.5,-211 394.5,-211 394.5,-175 534.5,-175 534.5,-211"/>
<text text-anchor="middle" x="464.5" y="-189.3" font-family="Times,serif" font-size="14.00">PREP: for best flavor</text>
</g>
<!-- P9_0_0&#45;&gt;E9 -->
<g id="edge21" class="edge"><title>P9_0_0&#45;&gt;E9</title>
<path fill="none" stroke="black" d="M516.243,-174.923C572.21,-156.452 660.874,-127.19 716.536,-108.82"/>
<polygon fill="black" stroke="black" points="717.791,-112.091 726.191,-105.633 715.597,-105.444 717.791,-112.091"/>
</g>
<!-- P9_1_0 -->
<g id="node23" class="node"><title>P9_1_0</title>
<polygon fill="white" stroke="black" points="784,-211 553,-211 553,-175 784,-175 784,-211"/>
<text text-anchor="middle" x="668.5" y="-189.3" font-family="Times,serif" font-size="14.00">PREP: in an airtight container or bag</text>
</g>
<!-- P9_1_0&#45;&gt;E9 -->
<g id="edge22" class="edge"><title>P9_1_0&#45;&gt;E9</title>
<path fill="none" stroke="black" d="M685.744,-174.581C701.838,-158.325 725.988,-133.931 743.872,-115.867"/>
<polygon fill="black" stroke="black" points="746.562,-118.124 751.111,-108.555 741.588,-113.199 746.562,-118.124"/>
</g>
<!-- O9_0_0 -->
<g id="node24" class="node"><title>O9_0_0</title>
<polygon fill="white" stroke="black" points="930.5,-211 802.5,-211 802.5,-175 930.5,-175 930.5,-211"/>
<text text-anchor="middle" x="866.5" y="-189.3" font-family="Times,serif" font-size="14.00">OTHER: overnight</text>
</g>
<!-- O9_0_0&#45;&gt;E9 -->
<g id="edge23" class="edge"><title>O9_0_0&#45;&gt;E9</title>
<path fill="none" stroke="black" d="M849.256,-174.581C833.162,-158.325 809.012,-133.931 791.128,-115.867"/>
<polygon fill="black" stroke="black" points="793.412,-113.199 783.889,-108.555 788.438,-118.124 793.412,-113.199"/>
</g>
</g>
</svg>
