<?xml version="1.0" encoding="UTF-8" standalone="no"?>
<!DOCTYPE svg PUBLIC "-//W3C//DTD SVG 1.1//EN"
 "http://www.w3.org/Graphics/SVG/1.1/DTD/svg11.dtd">
<!-- Generated by graphviz version 2.38.0 (20140413.2041)
 -->
<!-- Title: recipe Pages: 1 -->
<svg width="1952pt" height="706pt"
 viewBox="0.00 0.00 1952.00 706.00" xmlns="http://www.w3.org/2000/svg" xmlns:xlink="http://www.w3.org/1999/xlink">
<g id="graph0" class="graph" transform="scale(1 1) rotate(0) translate(4 702)">
<title>recipe</title>
<polygon fill="white" stroke="none" points="-4,4 -4,-702 1948,-702 1948,4 -4,4"/>
<!-- E0 -->
<g id="node1" class="node"><title>E0</title>
<ellipse fill="azure" stroke="black" cx="1785" cy="-399" rx="68.7879" ry="18"/>
<text text-anchor="middle" x="1785" y="-395.3" font-family="Times,serif" font-size="14.00">preheat (S0,P0)</text>
</g>
<!-- E6 -->
<g id="node7" class="node"><title>E6</title>
<ellipse fill="azure" stroke="black" cx="1304" cy="-296" rx="68.7879" ry="18"/>
<text text-anchor="middle" x="1304" y="-292.3" font-family="Times,serif" font-size="14.00">bake (S6,P322)</text>
</g>
<!-- E0&#45;&gt;E6 -->
<g id="edge18" class="edge"><title>E0&#45;&gt;E6</title>
<path fill="none" stroke="black" d="M1734.49,-386.755C1725.66,-384.817 1716.57,-382.836 1708,-381 1587.25,-355.119 1445.94,-326.006 1366.51,-309.749"/>
<polygon fill="black" stroke="black" points="1367.16,-306.31 1356.66,-307.734 1365.76,-313.168 1367.16,-306.31"/>
<text text-anchor="middle" x="1705.5" y="-351.8" font-family="Times,serif" font-size="14.00">OUTPUT: </text>
<text text-anchor="middle" x="1705.5" y="-336.8" font-family="Times,serif" font-size="14.00">INPUT: in the preheated oven</text>
</g>
<!-- E1 -->
<g id="node2" class="node"><title>E1</title>
<ellipse fill="azure" stroke="black" cx="540" cy="-501" rx="59.5901" ry="18"/>
<text text-anchor="middle" x="540" y="-497.3" font-family="Times,serif" font-size="14.00">line (S1,P38)</text>
</g>
<!-- E5 -->
<g id="node6" class="node"><title>E5</title>
<ellipse fill="azure" stroke="black" cx="963" cy="-399" rx="69.5877" ry="18"/>
<text text-anchor="middle" x="963" y="-395.3" font-family="Times,serif" font-size="14.00">pour (S5,P286)</text>
</g>
<!-- E1&#45;&gt;E5 -->
<g id="edge16" class="edge"><title>E1&#45;&gt;E5</title>
<path fill="none" stroke="black" d="M580.485,-487.662C627.103,-473.721 706.121,-450.907 775,-435 814.917,-425.782 860.034,-417.318 896.062,-411.024"/>
<polygon fill="black" stroke="black" points="896.716,-414.463 905.972,-409.307 895.521,-407.565 896.716,-414.463"/>
<text text-anchor="middle" x="885.5" y="-453.8" font-family="Times,serif" font-size="14.00">OUTPUT: </text>
<text text-anchor="middle" x="885.5" y="-438.8" font-family="Times,serif" font-size="14.00">INPUT: into the prepared muffin cups</text>
</g>
<!-- E2 -->
<g id="node3" class="node"><title>E2</title>
<ellipse fill="azure" stroke="black" cx="704" cy="-604" rx="67.6881" ry="18"/>
<text text-anchor="middle" x="704" y="-600.3" font-family="Times,serif" font-size="14.00">blend (S2,P68)</text>
</g>
<!-- E4 -->
<g id="node5" class="node"><title>E4</title>
<ellipse fill="azure" stroke="black" cx="1069" cy="-501" rx="65.7887" ry="18"/>
<text text-anchor="middle" x="1069" y="-497.3" font-family="Times,serif" font-size="14.00">mix (S4,P215)</text>
</g>
<!-- E2&#45;&gt;E4 -->
<g id="edge12" class="edge"><title>E2&#45;&gt;E4</title>
<path fill="none" stroke="black" d="M737.196,-588.231C771.579,-573.439 827.153,-550.924 877,-537 917.567,-525.668 964.01,-517.089 1001.06,-511.261"/>
<polygon fill="black" stroke="black" points="1001.89,-514.673 1011.24,-509.69 1000.83,-507.755 1001.89,-514.673"/>
<text text-anchor="middle" x="971" y="-555.8" font-family="Times,serif" font-size="14.00">OUTPUT: </text>
<text text-anchor="middle" x="971" y="-540.8" font-family="Times,serif" font-size="14.00">INPUT: &#160;mango&#45;banana mixture</text>
</g>
<!-- E3 -->
<g id="node4" class="node"><title>E3</title>
<ellipse fill="azure" stroke="black" cx="1069" cy="-604" rx="74.187" ry="18"/>
<text text-anchor="middle" x="1069" y="-600.3" font-family="Times,serif" font-size="14.00">whisk (S3,P137)</text>
</g>
<!-- E3&#45;&gt;E4 -->
<g id="edge13" class="edge"><title>E3&#45;&gt;E4</title>
<path fill="none" stroke="black" d="M1069,-585.867C1069,-570.414 1069,-547.416 1069,-529.409"/>
<polygon fill="black" stroke="black" points="1072.5,-529.217 1069,-519.217 1065.5,-529.217 1072.5,-529.217"/>
<text text-anchor="middle" x="1146" y="-555.8" font-family="Times,serif" font-size="14.00">OUTPUT: </text>
<text text-anchor="middle" x="1146" y="-540.8" font-family="Times,serif" font-size="14.00">INPUT: into flour mixture</text>
</g>
<!-- E4&#45;&gt;E5 -->
<g id="edge15" class="edge"><title>E4&#45;&gt;E5</title>
<path fill="none" stroke="black" d="M1051.5,-483.487C1034.16,-467.13 1007.44,-441.924 987.895,-423.486"/>
<polygon fill="black" stroke="black" points="990.205,-420.854 980.53,-416.537 985.402,-425.946 990.205,-420.854"/>
<text text-anchor="middle" x="1072" y="-453.8" font-family="Times,serif" font-size="14.00">OUTPUT: </text>
<text text-anchor="middle" x="1072" y="-438.8" font-family="Times,serif" font-size="14.00">INPUT: batter</text>
</g>
<!-- E5&#45;&gt;E6 -->
<g id="edge17" class="edge"><title>E5&#45;&gt;E6</title>
<path fill="none" stroke="black" d="M995.316,-382.964C1027.92,-368.329 1080.02,-346.393 1127,-333 1170.43,-320.619 1182.78,-324.143 1227,-315 1232.86,-313.789 1238.95,-312.469 1245.03,-311.112"/>
<polygon fill="black" stroke="black" points="1246.22,-314.43 1255.2,-308.807 1244.68,-307.603 1246.22,-314.43"/>
<text text-anchor="middle" x="1159" y="-351.8" font-family="Times,serif" font-size="14.00">OUTPUT: </text>
<text text-anchor="middle" x="1159" y="-336.8" font-family="Times,serif" font-size="14.00">INPUT: </text>
</g>
<!-- E7 -->
<g id="node8" class="node"><title>E7</title>
<ellipse fill="azure" stroke="black" cx="891" cy="-193" rx="67.6881" ry="18"/>
<text text-anchor="middle" x="891" y="-189.3" font-family="Times,serif" font-size="14.00">cool (S7,P415)</text>
</g>
<!-- E6&#45;&gt;E7 -->
<g id="edge21" class="edge"><title>E6&#45;&gt;E7</title>
<path fill="none" stroke="black" d="M1255.41,-283.117C1178.96,-264.42 1030.88,-228.207 948.979,-208.179"/>
<polygon fill="black" stroke="black" points="949.632,-204.736 939.087,-205.76 947.969,-211.535 949.632,-204.736"/>
<text text-anchor="middle" x="1178" y="-247.8" font-family="Times,serif" font-size="14.00">OUTPUT: </text>
<text text-anchor="middle" x="1178" y="-232.8" font-family="Times,serif" font-size="14.00">INPUT: </text>
</g>
<!-- E9 -->
<g id="node10" class="node"><title>E9</title>
<ellipse fill="azure" stroke="black" cx="705" cy="-91" rx="74.187" ry="18"/>
<text text-anchor="middle" x="705" y="-87.3" font-family="Times,serif" font-size="14.00">spoon (S9,P569)</text>
</g>
<!-- E7&#45;&gt;E9 -->
<g id="edge25" class="edge"><title>E7&#45;&gt;E9</title>
<path fill="none" stroke="black" d="M862.345,-176.594C830.353,-159.394 778.435,-131.481 743.056,-112.46"/>
<polygon fill="black" stroke="black" points="744.459,-109.241 733.994,-107.588 741.144,-115.406 744.459,-109.241"/>
<text text-anchor="middle" x="908" y="-145.8" font-family="Times,serif" font-size="14.00">OUTPUT: </text>
<text text-anchor="middle" x="908" y="-130.8" font-family="Times,serif" font-size="14.00">INPUT: onto cooled muffins</text>
</g>
<!-- E8 -->
<g id="node9" class="node"><title>E8</title>
<ellipse fill="azure" stroke="black" cx="426" cy="-193" rx="74.187" ry="18"/>
<text text-anchor="middle" x="426" y="-189.3" font-family="Times,serif" font-size="14.00">whisk (S8,P482)</text>
</g>
<!-- E8&#45;&gt;E9 -->
<g id="edge24" class="edge"><title>E8&#45;&gt;E9</title>
<path fill="none" stroke="black" d="M465.678,-177.779C515.531,-159.91 601.102,-129.239 655.274,-109.823"/>
<polygon fill="black" stroke="black" points="656.775,-113.003 665.008,-106.334 654.413,-106.414 656.775,-113.003"/>
<text text-anchor="middle" x="638" y="-145.8" font-family="Times,serif" font-size="14.00">OUTPUT: </text>
<text text-anchor="middle" x="638" y="-130.8" font-family="Times,serif" font-size="14.00">INPUT: </text>
</g>
<!-- EOR -->
<g id="node27" class="node"><title>EOR</title>
<ellipse fill="plum" stroke="black" cx="705" cy="-18" rx="57.3905" ry="18"/>
<text text-anchor="middle" x="705" y="-14.3" font-family="Times,serif" font-size="14.00">Bon appetit!</text>
</g>
<!-- E9&#45;&gt;EOR -->
<g id="edge26" class="edge"><title>E9&#45;&gt;EOR</title>
<path fill="none" stroke="black" d="M705,-72.8129C705,-64.7895 705,-55.0475 705,-46.0691"/>
<polygon fill="black" stroke="black" points="708.5,-46.0288 705,-36.0288 701.5,-46.0289 708.5,-46.0288"/>
</g>
<!-- D1 -->
<g id="node11" class="node"><title>D1</title>
<polygon fill="white" stroke="black" points="443.5,-622 314.5,-622 314.5,-586 443.5,-586 443.5,-622"/>
<text text-anchor="middle" x="379" y="-600.3" font-family="Times,serif" font-size="14.00">DOBJ: muffin cups</text>
</g>
<!-- D1&#45;&gt;E1 -->
<g id="edge1" class="edge"><title>D1&#45;&gt;E1</title>
<path fill="none" stroke="black" d="M406.311,-585.867C433.955,-568.525 476.744,-541.682 506.438,-523.054"/>
<polygon fill="black" stroke="black" points="508.591,-525.836 515.202,-517.556 504.871,-519.906 508.591,-525.836"/>
</g>
<!-- P1_0 -->
<g id="node12" class="node"><title>P1_0</title>
<polygon fill="white" stroke="black" points="618.5,-622 461.5,-622 461.5,-586 618.5,-586 618.5,-622"/>
<text text-anchor="middle" x="540" y="-600.3" font-family="Times,serif" font-size="14.00">PREP: with paper liners</text>
</g>
<!-- P1_0&#45;&gt;E1 -->
<g id="edge2" class="edge"><title>P1_0&#45;&gt;E1</title>
<path fill="none" stroke="black" d="M540,-585.867C540,-570.414 540,-547.416 540,-529.409"/>
<polygon fill="black" stroke="black" points="543.5,-529.217 540,-519.217 536.5,-529.217 543.5,-529.217"/>
</g>
<!-- D0 -->
<g id="node13" class="node"><title>D0</title>
<polygon fill="white" stroke="black" points="1944,-519 1626,-519 1626,-483 1944,-483 1944,-519"/>
<text text-anchor="middle" x="1785" y="-497.3" font-family="Times,serif" font-size="14.00">DOBJ: oven to 350 degrees F &#45;LRB&#45; 175 degrees C</text>
</g>
<!-- D0&#45;&gt;E0 -->
<g id="edge3" class="edge"><title>D0&#45;&gt;E0</title>
<path fill="none" stroke="black" d="M1785,-482.581C1785,-467.382 1785,-445.067 1785,-427.464"/>
<polygon fill="black" stroke="black" points="1788.5,-427.219 1785,-417.219 1781.5,-427.219 1788.5,-427.219"/>
</g>
<!-- D3 -->
<g id="node14" class="node"><title>D3</title>
<polygon fill="peachpuff" stroke="black" points="1385,-698 753,-698 753,-660 1385,-660 1385,-698"/>
<text text-anchor="middle" x="1069" y="-682.8" font-family="Times,serif" font-size="14.00">DOBJ: baking powder, ground nutmeg, ground cinnamon, all&#45;purpose flour, ground allspice, baking soda</text>
<text text-anchor="middle" x="1069" y="-667.8" font-family="Times,serif" font-size="14.00">(text: flour , baking soda , baking powder , cinnamon , nutmeg , allspice)</text>
</g>
<!-- D3&#45;&gt;E3 -->
<g id="edge4" class="edge"><title>D3&#45;&gt;E3</title>
<path fill="none" stroke="black" d="M1069,-659.955C1069,-651.701 1069,-641.738 1069,-632.574"/>
<polygon fill="black" stroke="black" points="1072.5,-632.335 1069,-622.335 1065.5,-632.335 1072.5,-632.335"/>
</g>
<!-- P3_0 -->
<g id="node15" class="node"><title>P3_0</title>
<polygon fill="white" stroke="black" points="1517,-697 1403,-697 1403,-661 1517,-661 1517,-697"/>
<text text-anchor="middle" x="1460" y="-675.3" font-family="Times,serif" font-size="14.00">PREP: in a bowl</text>
</g>
<!-- P3_0&#45;&gt;E3 -->
<g id="edge5" class="edge"><title>P3_0&#45;&gt;E3</title>
<path fill="none" stroke="black" d="M1402.86,-661.988C1399.87,-661.285 1396.9,-660.617 1394,-660 1288,-637.485 1259.58,-642.584 1153,-623 1146.2,-621.75 1139.11,-620.363 1132.05,-618.929"/>
<polygon fill="black" stroke="black" points="1132.28,-615.403 1121.78,-616.805 1130.86,-622.258 1132.28,-615.403"/>
</g>
<!-- O3_0 -->
<g id="node16" class="node"><title>O3_0</title>
<polygon fill="white" stroke="black" points="1654.5,-697 1535.5,-697 1535.5,-661 1654.5,-661 1654.5,-697"/>
<text text-anchor="middle" x="1595" y="-675.3" font-family="Times,serif" font-size="14.00">OTHER: together</text>
</g>
<!-- O3_0&#45;&gt;E3 -->
<g id="edge6" class="edge"><title>O3_0&#45;&gt;E3</title>
<path fill="none" stroke="black" d="M1535.29,-661.813C1532.16,-661.155 1529.05,-660.545 1526,-660 1362.01,-630.663 1317.59,-648.716 1153,-623 1145.73,-621.863 1138.13,-620.496 1130.62,-619.029"/>
<polygon fill="black" stroke="black" points="1131.3,-615.597 1120.81,-617.053 1129.92,-622.459 1131.3,-615.597"/>
</g>
<!-- D2 -->
<g id="node17" class="node"><title>D2</title>
<polygon fill="peachpuff" stroke="black" points="584.5,-698 173.5,-698 173.5,-660 584.5,-660 584.5,-698"/>
<text text-anchor="middle" x="379" y="-682.8" font-family="Times,serif" font-size="14.00">DOBJ: brown sugar, ripe bananas, lime juice, ripe mango</text>
<text text-anchor="middle" x="379" y="-667.8" font-family="Times,serif" font-size="14.00">(text: mango , bananas , brown sugar , juice of 1/2 lime in a blender)</text>
</g>
<!-- D2&#45;&gt;E2 -->
<g id="edge7" class="edge"><title>D2&#45;&gt;E2</title>
<path fill="none" stroke="black" d="M462.071,-659.981C510.511,-649.391 572.761,-635.641 628,-623 633.673,-621.702 639.581,-620.333 645.484,-618.953"/>
<polygon fill="black" stroke="black" points="646.437,-622.325 655.373,-616.633 644.838,-615.51 646.437,-622.325"/>
</g>
<!-- P2_0 -->
<g id="node18" class="node"><title>P2_0</title>
<polygon fill="white" stroke="black" points="735,-697 603,-697 603,-661 735,-661 735,-697"/>
<text text-anchor="middle" x="669" y="-675.3" font-family="Times,serif" font-size="14.00">PREP: until smooth</text>
</g>
<!-- P2_0&#45;&gt;E2 -->
<g id="edge8" class="edge"><title>P2_0&#45;&gt;E2</title>
<path fill="none" stroke="black" d="M677.295,-660.7C681.509,-651.909 686.72,-641.041 691.417,-631.245"/>
<polygon fill="black" stroke="black" points="694.718,-632.454 695.886,-621.924 688.406,-629.428 694.718,-632.454"/>
</g>
<!-- D8 -->
<g id="node19" class="node"><title>D8</title>
<polygon fill="peachpuff" stroke="black" points="216,-315 0,-315 0,-277 216,-277 216,-315"/>
<text text-anchor="middle" x="108" y="-299.8" font-family="Times,serif" font-size="14.00">DOBJ: water, confectioners&#39; sugar</text>
<text text-anchor="middle" x="108" y="-284.8" font-family="Times,serif" font-size="14.00">(text: confectioners &#39; sugar , water)</text>
</g>
<!-- D8&#45;&gt;E8 -->
<g id="edge9" class="edge"><title>D8&#45;&gt;E8</title>
<path fill="none" stroke="black" d="M164.852,-276.943C223.96,-258.17 315.727,-229.024 373.262,-210.75"/>
<polygon fill="black" stroke="black" points="374.42,-214.055 382.891,-207.692 372.301,-207.383 374.42,-214.055"/>
</g>
<!-- O8_0 -->
<g id="node20" class="node"><title>O8_0</title>
<polygon fill="peachpuff" stroke="black" points="618,-315 234,-315 234,-277 618,-277 618,-315"/>
<text text-anchor="middle" x="426" y="-299.8" font-family="Times,serif" font-size="14.00">OTHER: lime</text>
<text text-anchor="middle" x="426" y="-284.8" font-family="Times,serif" font-size="14.00">(text: 1 teaspoon lime juice together until glaze is smooth, thick)</text>
</g>
<!-- O8_0&#45;&gt;E8 -->
<g id="edge10" class="edge"><title>O8_0&#45;&gt;E8</title>
<path fill="none" stroke="black" d="M426,-276.943C426,-261.531 426,-239.127 426,-221.488"/>
<polygon fill="black" stroke="black" points="429.5,-221.226 426,-211.226 422.5,-221.226 429.5,-221.226"/>
</g>
<!-- D4_ing -->
<g id="node21" class="node"><title>D4_ing</title>
<polygon fill="peachpuff" stroke="black" points="1320.5,-623 1161.5,-623 1161.5,-585 1320.5,-585 1320.5,-623"/>
<text text-anchor="middle" x="1241" y="-607.8" font-family="Times,serif" font-size="14.00">DOBJ: butter, large eggs</text>
<text text-anchor="middle" x="1241" y="-592.8" font-family="Times,serif" font-size="14.00">(text: &#160;eggs , butter )</text>
</g>
<!-- D4_ing&#45;&gt;E4 -->
<g id="edge11" class="edge"><title>D4_ing&#45;&gt;E4</title>
<path fill="none" stroke="black" d="M1242.15,-584.843C1242.05,-569.994 1239.37,-549.479 1227,-537 1214.39,-524.277 1175.14,-515.545 1138.92,-509.985"/>
<polygon fill="black" stroke="black" points="1139.21,-506.49 1128.81,-508.5 1138.2,-513.416 1139.21,-506.49"/>
</g>
<!-- O4_0_0 -->
<g id="node22" class="node"><title>O4_0_0</title>
<polygon fill="white" stroke="black" points="1521.5,-622 1338.5,-622 1338.5,-586 1521.5,-586 1521.5,-622"/>
<text text-anchor="middle" x="1430" y="-600.3" font-family="Times,serif" font-size="14.00">OTHER: until just combined</text>
</g>
<!-- O4_0_0&#45;&gt;E4 -->
<g id="edge14" class="edge"><title>O4_0_0&#45;&gt;E4</title>
<path fill="none" stroke="black" d="M1388.43,-585.956C1351.71,-571.399 1296.47,-550.7 1247,-537 1210.28,-526.831 1168.51,-518.457 1134.67,-512.452"/>
<polygon fill="black" stroke="black" points="1134.89,-508.937 1124.43,-510.665 1133.68,-515.833 1134.89,-508.937"/>
</g>
<!-- O6_0_0 -->
<g id="node23" class="node"><title>O6_0_0</title>
<polygon fill="white" stroke="black" points="1223.5,-417 1050.5,-417 1050.5,-381 1223.5,-381 1223.5,-417"/>
<text text-anchor="middle" x="1137" y="-395.3" font-family="Times,serif" font-size="14.00">OTHER: &#160;25 to 30 minutes</text>
</g>
<!-- O6_0_0&#45;&gt;E6 -->
<g id="edge19" class="edge"><title>O6_0_0&#45;&gt;E6</title>
<path fill="none" stroke="black" d="M1165.33,-380.867C1194.04,-363.502 1238.51,-336.609 1269.31,-317.978"/>
<polygon fill="black" stroke="black" points="1271.26,-320.89 1278.01,-312.72 1267.64,-314.9 1271.26,-320.89"/>
</g>
<!-- O6_0_1 -->
<g id="node24" class="node"><title>O6_0_1</title>
<polygon fill="white" stroke="black" points="1698.5,-417 1241.5,-417 1241.5,-381 1698.5,-381 1698.5,-417"/>
<text text-anchor="middle" x="1470" y="-395.3" font-family="Times,serif" font-size="14.00">OTHER: until a toothpick inserted in the center of a muffin comes out clean </text>
</g>
<!-- O6_0_1&#45;&gt;E6 -->
<g id="edge20" class="edge"><title>O6_0_1&#45;&gt;E6</title>
<path fill="none" stroke="black" d="M1441.84,-380.867C1413.3,-363.502 1369.1,-336.609 1338.48,-317.978"/>
<polygon fill="black" stroke="black" points="1340.2,-314.928 1329.84,-312.72 1336.56,-320.908 1340.2,-314.928"/>
</g>
<!-- P7_0_0 -->
<g id="node25" class="node"><title>P7_0_0</title>
<polygon fill="white" stroke="black" points="846,-314 636,-314 636,-278 846,-278 846,-314"/>
<text text-anchor="middle" x="741" y="-292.3" font-family="Times,serif" font-size="14.00">PREP: in the pans for 10 minutes</text>
</g>
<!-- P7_0_0&#45;&gt;E7 -->
<g id="edge22" class="edge"><title>P7_0_0&#45;&gt;E7</title>
<path fill="none" stroke="black" d="M766.445,-277.867C791.938,-260.702 831.257,-234.227 858.884,-215.625"/>
<polygon fill="black" stroke="black" points="861.07,-218.372 867.41,-209.884 857.161,-212.566 861.07,-218.372"/>
</g>
<!-- P7_1_0 -->
<g id="node26" class="node"><title>P7_1_0</title>
<polygon fill="white" stroke="black" points="1217.5,-314 864.5,-314 864.5,-278 1217.5,-278 1217.5,-314"/>
<text text-anchor="middle" x="1041" y="-292.3" font-family="Times,serif" font-size="14.00">PREP: before removing to cool completely on a wire rack</text>
</g>
<!-- P7_1_0&#45;&gt;E7 -->
<g id="edge23" class="edge"><title>P7_1_0&#45;&gt;E7</title>
<path fill="none" stroke="black" d="M1015.55,-277.867C990.062,-260.702 950.743,-234.227 923.116,-215.625"/>
<polygon fill="black" stroke="black" points="924.839,-212.566 914.59,-209.884 920.93,-218.372 924.839,-212.566"/>
</g>
</g>
</svg>
