<?xml version="1.0" encoding="UTF-8" standalone="no"?>
<!DOCTYPE svg PUBLIC "-//W3C//DTD SVG 1.1//EN"
 "http://www.w3.org/Graphics/SVG/1.1/DTD/svg11.dtd">
<!-- Generated by graphviz version 2.38.0 (20140413.2041)
 -->
<!-- Title: recipe Pages: 1 -->
<svg width="1371pt" height="708pt"
 viewBox="0.00 0.00 1370.50 708.00" xmlns="http://www.w3.org/2000/svg" xmlns:xlink="http://www.w3.org/1999/xlink">
<g id="graph0" class="graph" transform="scale(1 1) rotate(0) translate(4 704)">
<title>recipe</title>
<polygon fill="white" stroke="none" points="-4,4 -4,-704 1366.5,-704 1366.5,4 -4,4"/>
<!-- E0 -->
<g id="node1" class="node"><title>E0</title>
<ellipse fill="azure" stroke="black" cx="1203.5" cy="-193" rx="68.7879" ry="18"/>
<text text-anchor="middle" x="1203.5" y="-189.3" font-family="Times,serif" font-size="14.00">preheat (S0,P0)</text>
</g>
<!-- E7 -->
<g id="node8" class="node"><title>E7</title>
<ellipse fill="azure" stroke="black" cx="891.5" cy="-91" rx="68.7879" ry="18"/>
<text text-anchor="middle" x="891.5" y="-87.3" font-family="Times,serif" font-size="14.00">bake (S7,P280)</text>
</g>
<!-- E0&#45;&gt;E7 -->
<g id="edge15" class="edge"><title>E0&#45;&gt;E7</title>
<path fill="none" stroke="black" d="M1161.75,-178.617C1105.2,-160.493 1004.32,-128.16 943.097,-108.538"/>
<polygon fill="black" stroke="black" points="943.847,-105.102 933.256,-105.383 941.71,-111.768 943.847,-105.102"/>
<text text-anchor="middle" x="1183" y="-145.8" font-family="Times,serif" font-size="14.00">OUTPUT: </text>
<text text-anchor="middle" x="1183" y="-130.8" font-family="Times,serif" font-size="14.00">INPUT: in the preheated oven </text>
</g>
<!-- E1 -->
<g id="node2" class="node"><title>E1</title>
<ellipse fill="azure" stroke="black" cx="318.5" cy="-399" rx="59.5901" ry="18"/>
<text text-anchor="middle" x="318.5" y="-395.3" font-family="Times,serif" font-size="14.00">line (S1,P38)</text>
</g>
<!-- E5 -->
<g id="node6" class="node"><title>E5</title>
<ellipse fill="azure" stroke="black" cx="440.5" cy="-296" rx="73.387" ry="18"/>
<text text-anchor="middle" x="440.5" y="-292.3" font-family="Times,serif" font-size="14.00">scoop (S5,P225)</text>
</g>
<!-- E1&#45;&gt;E5 -->
<g id="edge11" class="edge"><title>E1&#45;&gt;E5</title>
<path fill="none" stroke="black" d="M312.223,-381.044C308.129,-366.795 305.242,-346.629 315.5,-333 326.443,-318.461 342.881,-309.507 360.271,-304.064"/>
<polygon fill="black" stroke="black" points="361.288,-307.415 370.002,-301.388 359.431,-300.665 361.288,-307.415"/>
<text text-anchor="middle" x="426" y="-351.8" font-family="Times,serif" font-size="14.00">OUTPUT: </text>
<text text-anchor="middle" x="426" y="-336.8" font-family="Times,serif" font-size="14.00">INPUT: into the prepared muffin cups</text>
</g>
<!-- E2 -->
<g id="node3" class="node"><title>E2</title>
<ellipse fill="azure" stroke="black" cx="359.5" cy="-606" rx="61.1893" ry="18"/>
<text text-anchor="middle" x="359.5" y="-602.3" font-family="Times,serif" font-size="14.00">mix (S2,P78)</text>
</g>
<!-- E3 -->
<g id="node4" class="node"><title>E3</title>
<ellipse fill="azure" stroke="black" cx="531.5" cy="-502" rx="65.7887" ry="18"/>
<text text-anchor="middle" x="531.5" y="-498.3" font-family="Times,serif" font-size="14.00">mix (S3,P128)</text>
</g>
<!-- E2&#45;&gt;E3 -->
<g id="edge6" class="edge"><title>E2&#45;&gt;E3</title>
<path fill="none" stroke="black" d="M385.623,-589.508C415.173,-571.985 463.447,-543.357 496.302,-523.873"/>
<polygon fill="black" stroke="black" points="498.315,-526.749 505.131,-518.637 494.744,-520.728 498.315,-526.749"/>
<text text-anchor="middle" x="498.5" y="-557.8" font-family="Times,serif" font-size="14.00">OUTPUT: </text>
<text text-anchor="middle" x="498.5" y="-542.8" font-family="Times,serif" font-size="14.00">INPUT: </text>
</g>
<!-- E4 -->
<g id="node5" class="node"><title>E4</title>
<ellipse fill="azure" stroke="black" cx="562.5" cy="-399" rx="66.0889" ry="18"/>
<text text-anchor="middle" x="562.5" y="-395.3" font-family="Times,serif" font-size="14.00">fold (S4,P164)</text>
</g>
<!-- E3&#45;&gt;E4 -->
<g id="edge8" class="edge"><title>E3&#45;&gt;E4</title>
<path fill="none" stroke="black" d="M536.759,-483.867C541.546,-468.269 548.693,-444.983 554.243,-426.903"/>
<polygon fill="black" stroke="black" points="557.627,-427.804 557.215,-417.217 550.935,-425.75 557.627,-427.804"/>
<text text-anchor="middle" x="584.5" y="-453.8" font-family="Times,serif" font-size="14.00">OUTPUT: </text>
<text text-anchor="middle" x="584.5" y="-438.8" font-family="Times,serif" font-size="14.00">INPUT: </text>
</g>
<!-- E4&#45;&gt;E5 -->
<g id="edge10" class="edge"><title>E4&#45;&gt;E5</title>
<path fill="none" stroke="black" d="M560.836,-380.934C558.559,-366.418 553.181,-345.927 540.5,-333 531.13,-323.448 519.044,-316.419 506.534,-311.25"/>
<polygon fill="black" stroke="black" points="507.514,-307.88 496.922,-307.649 505.058,-314.435 507.514,-307.88"/>
<text text-anchor="middle" x="588.5" y="-351.8" font-family="Times,serif" font-size="14.00">OUTPUT: </text>
<text text-anchor="middle" x="588.5" y="-336.8" font-family="Times,serif" font-size="14.00">INPUT: </text>
</g>
<!-- E6 -->
<g id="node7" class="node"><title>E6</title>
<ellipse fill="azure" stroke="black" cx="567.5" cy="-193" rx="81.4863" ry="18"/>
<text text-anchor="middle" x="567.5" y="-189.3" font-family="Times,serif" font-size="14.00">sprinkle (S6,P256)</text>
</g>
<!-- E5&#45;&gt;E6 -->
<g id="edge12" class="edge"><title>E5&#45;&gt;E6</title>
<path fill="none" stroke="black" d="M458.13,-278.321C472.987,-264.553 495.037,-244.785 515.5,-229 521.116,-224.668 527.242,-220.274 533.255,-216.129"/>
<polygon fill="black" stroke="black" points="535.591,-218.775 541.912,-210.272 531.668,-212.977 535.591,-218.775"/>
<text text-anchor="middle" x="547.5" y="-247.8" font-family="Times,serif" font-size="14.00">OUTPUT: </text>
<text text-anchor="middle" x="547.5" y="-232.8" font-family="Times,serif" font-size="14.00">INPUT: </text>
</g>
<!-- E6&#45;&gt;E7 -->
<g id="edge14" class="edge"><title>E6&#45;&gt;E7</title>
<path fill="none" stroke="black" d="M611.634,-177.831C653.3,-164.513 717.558,-144.121 773.5,-127 794.484,-120.578 817.621,-113.676 837.807,-107.713"/>
<polygon fill="black" stroke="black" points="838.856,-111.053 847.457,-104.867 836.876,-104.338 838.856,-111.053"/>
<text text-anchor="middle" x="830.5" y="-145.8" font-family="Times,serif" font-size="14.00">OUTPUT: </text>
<text text-anchor="middle" x="830.5" y="-130.8" font-family="Times,serif" font-size="14.00">INPUT: 25 minutes</text>
</g>
<!-- EOR -->
<g id="node18" class="node"><title>EOR</title>
<ellipse fill="plum" stroke="black" cx="891.5" cy="-18" rx="57.3905" ry="18"/>
<text text-anchor="middle" x="891.5" y="-14.3" font-family="Times,serif" font-size="14.00">Bon appetit!</text>
</g>
<!-- E7&#45;&gt;EOR -->
<g id="edge17" class="edge"><title>E7&#45;&gt;EOR</title>
<path fill="none" stroke="black" d="M891.5,-72.8129C891.5,-64.7895 891.5,-55.0475 891.5,-46.0691"/>
<polygon fill="black" stroke="black" points="895,-46.0288 891.5,-36.0288 888,-46.0289 895,-46.0288"/>
</g>
<!-- D2 -->
<g id="node9" class="node"><title>D2</title>
<polygon fill="peachpuff" stroke="black" points="429,-700 0,-700 0,-662 429,-662 429,-700"/>
<text text-anchor="middle" x="214.5" y="-684.8" font-family="Times,serif" font-size="14.00">DOBJ: baking powder, white sugar, all&#45;purpose flour, baking soda, salt</text>
<text text-anchor="middle" x="214.5" y="-669.8" font-family="Times,serif" font-size="14.00">(text: the flour , sugar , baking powder , baking soda , salt)</text>
</g>
<!-- D2&#45;&gt;E2 -->
<g id="edge1" class="edge"><title>D2&#45;&gt;E2</title>
<path fill="none" stroke="black" d="M250.343,-661.955C271.77,-651.167 298.995,-637.461 320.895,-626.436"/>
<polygon fill="black" stroke="black" points="322.564,-629.514 329.922,-621.891 319.416,-623.262 322.564,-629.514"/>
</g>
<!-- P2_0 -->
<g id="node10" class="node"><title>P2_0</title>
<polygon fill="white" stroke="black" points="561.5,-699 447.5,-699 447.5,-663 561.5,-663 561.5,-699"/>
<text text-anchor="middle" x="504.5" y="-677.3" font-family="Times,serif" font-size="14.00">PREP: in a bowl</text>
</g>
<!-- P2_0&#45;&gt;E2 -->
<g id="edge2" class="edge"><title>P2_0&#45;&gt;E2</title>
<path fill="none" stroke="black" d="M470.504,-662.885C448.727,-651.921 420.421,-637.671 397.844,-626.304"/>
<polygon fill="black" stroke="black" points="399.376,-623.157 388.87,-621.786 396.228,-629.409 399.376,-623.157"/>
</g>
<!-- D1 -->
<g id="node11" class="node"><title>D1</title>
<polygon fill="white" stroke="black" points="262.5,-520 114.5,-520 114.5,-484 262.5,-484 262.5,-520"/>
<text text-anchor="middle" x="188.5" y="-498.3" font-family="Times,serif" font-size="14.00">DOBJ: 24 muffin cups</text>
</g>
<!-- D1&#45;&gt;E1 -->
<g id="edge3" class="edge"><title>D1&#45;&gt;E1</title>
<path fill="none" stroke="black" d="M210.553,-483.867C232.326,-466.951 265.735,-440.994 289.616,-422.44"/>
<polygon fill="black" stroke="black" points="291.882,-425.113 297.631,-416.213 287.587,-419.585 291.882,-425.113"/>
</g>
<!-- P1_0 -->
<g id="node12" class="node"><title>P1_0</title>
<polygon fill="white" stroke="black" points="438,-520 281,-520 281,-484 438,-484 438,-520"/>
<text text-anchor="middle" x="359.5" y="-498.3" font-family="Times,serif" font-size="14.00">PREP: with paper liners</text>
</g>
<!-- P1_0&#45;&gt;E1 -->
<g id="edge4" class="edge"><title>P1_0&#45;&gt;E1</title>
<path fill="none" stroke="black" d="M352.545,-483.867C346.184,-468.196 336.673,-444.766 329.319,-426.651"/>
<polygon fill="black" stroke="black" points="332.494,-425.167 325.489,-417.217 326.008,-427.799 332.494,-425.167"/>
</g>
<!-- D0 -->
<g id="node13" class="node"><title>D0</title>
<polygon fill="white" stroke="black" points="1362.5,-314 1044.5,-314 1044.5,-278 1362.5,-278 1362.5,-314"/>
<text text-anchor="middle" x="1203.5" y="-292.3" font-family="Times,serif" font-size="14.00">DOBJ: oven to 350 degrees F &#45;LRB&#45; 175 degrees C</text>
</g>
<!-- D0&#45;&gt;E0 -->
<g id="edge5" class="edge"><title>D0&#45;&gt;E0</title>
<path fill="none" stroke="black" d="M1203.5,-277.867C1203.5,-262.414 1203.5,-239.416 1203.5,-221.409"/>
<polygon fill="black" stroke="black" points="1207,-221.217 1203.5,-211.217 1200,-221.217 1207,-221.217"/>
</g>
<!-- P3_0_ing -->
<g id="node14" class="node"><title>P3_0_ing</title>
<polygon fill="peachpuff" stroke="black" points="740.5,-625 438.5,-625 438.5,-587 740.5,-587 740.5,-625"/>
<text text-anchor="middle" x="589.5" y="-609.8" font-family="Times,serif" font-size="14.00">PREP: in eggs, milk, vanilla extract, melted butter</text>
<text text-anchor="middle" x="589.5" y="-594.8" font-family="Times,serif" font-size="14.00">(text: in &#160;vanilla , &#160;milk , &#160;butter, the eggs )</text>
</g>
<!-- P3_0_ing&#45;&gt;E3 -->
<g id="edge7" class="edge"><title>P3_0_ing&#45;&gt;E3</title>
<path fill="none" stroke="black" d="M579.131,-586.764C569.974,-570.662 556.52,-547.001 546.245,-528.931"/>
<polygon fill="black" stroke="black" points="549.186,-527.023 541.201,-520.06 543.101,-530.483 549.186,-527.023"/>
</g>
<!-- P4_0_ing -->
<g id="node15" class="node"><title>P4_0_ing</title>
<polygon fill="peachpuff" stroke="black" points="1075.5,-521 615.5,-521 615.5,-483 1075.5,-483 1075.5,-521"/>
<text text-anchor="middle" x="845.5" y="-505.8" font-family="Times,serif" font-size="14.00">PREP: in shredded coconut, banana, banana chips, chopped walnuts, granola</text>
<text text-anchor="middle" x="845.5" y="-490.8" font-family="Times,serif" font-size="14.00">(text: in &#160;chopped banana , mashed bananas , &#160;granola , &#160;coconut, &#160;walnuts )</text>
</g>
<!-- P4_0_ing&#45;&gt;E4 -->
<g id="edge9" class="edge"><title>P4_0_ing&#45;&gt;E4</title>
<path fill="none" stroke="black" d="M794.905,-482.943C742.629,-464.286 661.647,-435.385 610.389,-417.091"/>
<polygon fill="black" stroke="black" points="611.459,-413.757 600.864,-413.692 609.106,-420.35 611.459,-413.757"/>
</g>
<!-- P6_0_ing -->
<g id="node16" class="node"><title>P6_0_ing</title>
<polygon fill="peachpuff" stroke="black" points="689.5,-315 531.5,-315 531.5,-277 689.5,-277 689.5,-315"/>
<text text-anchor="middle" x="610.5" y="-299.8" font-family="Times,serif" font-size="14.00">PREP: with bananas</text>
<text text-anchor="middle" x="610.5" y="-284.8" font-family="Times,serif" font-size="14.00">(text: with banana chips)</text>
</g>
<!-- P6_0_ing&#45;&gt;E6 -->
<g id="edge13" class="edge"><title>P6_0_ing&#45;&gt;E6</title>
<path fill="none" stroke="black" d="M602.812,-276.943C596.127,-261.24 586.352,-238.28 578.78,-220.495"/>
<polygon fill="black" stroke="black" points="581.972,-219.056 574.834,-211.226 575.531,-221.798 581.972,-219.056"/>
</g>
<!-- P7_0_1 -->
<g id="node17" class="node"><title>P7_0_1</title>
<polygon fill="white" stroke="black" points="1116.5,-211 666.5,-211 666.5,-175 1116.5,-175 1116.5,-211"/>
<text text-anchor="middle" x="891.5" y="-189.3" font-family="Times,serif" font-size="14.00">PREP: in &#160;or until a knife inserted in the center of a muffin comes out clean</text>
</g>
<!-- P7_0_1&#45;&gt;E7 -->
<g id="edge16" class="edge"><title>P7_0_1&#45;&gt;E7</title>
<path fill="none" stroke="black" d="M891.5,-174.581C891.5,-159.382 891.5,-137.067 891.5,-119.464"/>
<polygon fill="black" stroke="black" points="895,-119.219 891.5,-109.219 888,-119.219 895,-119.219"/>
</g>
</g>
</svg>
