<?xml version="1.0" encoding="UTF-8" standalone="no"?>
<!DOCTYPE svg PUBLIC "-//W3C//DTD SVG 1.1//EN"
 "http://www.w3.org/Graphics/SVG/1.1/DTD/svg11.dtd">
<!-- Generated by graphviz version 2.38.0 (20140413.2041)
 -->
<!-- Title: recipe Pages: 1 -->
<svg width="3015pt" height="1222pt"
 viewBox="0.00 0.00 3014.50 1222.00" xmlns="http://www.w3.org/2000/svg" xmlns:xlink="http://www.w3.org/1999/xlink">
<g id="graph0" class="graph" transform="scale(1 1) rotate(0) translate(4 1218)">
<title>recipe</title>
<polygon fill="white" stroke="none" points="-4,4 -4,-1218 3010.5,-1218 3010.5,4 -4,4"/>
<!-- E0 -->
<g id="node1" class="node"><title>E0</title>
<ellipse fill="azure" stroke="black" cx="2847.5" cy="-193" rx="68.7879" ry="18"/>
<text text-anchor="middle" x="2847.5" y="-189.3" font-family="Times,serif" font-size="14.00">preheat (S0,P0)</text>
</g>
<!-- E15 -->
<g id="node16" class="node"><title>E15</title>
<ellipse fill="azure" stroke="black" cx="2287.5" cy="-91" rx="73.387" ry="18"/>
<text text-anchor="middle" x="2287.5" y="-87.3" font-family="Times,serif" font-size="14.00">bake (S14,P631)</text>
</g>
<!-- E0&#45;&gt;E15 -->
<g id="edge39" class="edge"><title>E0&#45;&gt;E15</title>
<path fill="none" stroke="black" d="M2796.8,-180.61C2787.72,-178.669 2778.34,-176.724 2769.5,-175 2623.35,-146.504 2451.26,-118.102 2357.34,-103.036"/>
<polygon fill="black" stroke="black" points="2357.82,-99.568 2347.39,-101.443 2356.71,-106.48 2357.82,-99.568"/>
<text text-anchor="middle" x="2740.5" y="-145.8" font-family="Times,serif" font-size="14.00">OUTPUT: </text>
<text text-anchor="middle" x="2740.5" y="-130.8" font-family="Times,serif" font-size="14.00">INPUT: in preheated oven</text>
</g>
<!-- E1 -->
<g id="node2" class="node"><title>E1</title>
<ellipse fill="azure" stroke="black" cx="1248.5" cy="-397" rx="69.5877" ry="18"/>
<text text-anchor="middle" x="1248.5" y="-393.3" font-family="Times,serif" font-size="14.00">grease (S1,P38)</text>
</g>
<!-- E10 -->
<g id="node11" class="node"><title>E10</title>
<ellipse fill="azure" stroke="black" cx="1560.5" cy="-295" rx="74.187" ry="18"/>
<text text-anchor="middle" x="1560.5" y="-291.3" font-family="Times,serif" font-size="14.00">spoon (S8,P417)</text>
</g>
<!-- E1&#45;&gt;E10 -->
<g id="edge29" class="edge"><title>E1&#45;&gt;E10</title>
<path fill="none" stroke="black" d="M1270.01,-379.726C1290.97,-364.705 1324.29,-342.97 1356.5,-331 1396.08,-316.29 1442.3,-307.71 1480.73,-302.732"/>
<polygon fill="black" stroke="black" points="1481.34,-306.183 1490.84,-301.482 1480.48,-299.236 1481.34,-306.183"/>
<text text-anchor="middle" x="1456.5" y="-349.8" font-family="Times,serif" font-size="14.00">OUTPUT: </text>
<text text-anchor="middle" x="1456.5" y="-334.8" font-family="Times,serif" font-size="14.00">INPUT: into prepared muffin pans</text>
</g>
<!-- E2 -->
<g id="node3" class="node"><title>E2</title>
<ellipse fill="azure" stroke="black" cx="132.5" cy="-1121" rx="65.7887" ry="18"/>
<text text-anchor="middle" x="132.5" y="-1117.3" font-family="Times,serif" font-size="14.00">place (S2,P84)</text>
</g>
<!-- E3 -->
<g id="node4" class="node"><title>E3</title>
<ellipse fill="azure" stroke="black" cx="242.5" cy="-1018" rx="79.0865" ry="18"/>
<text text-anchor="middle" x="242.5" y="-1014.3" font-family="Times,serif" font-size="14.00">process (S2,P122)</text>
</g>
<!-- E2&#45;&gt;E3 -->
<g id="edge7" class="edge"><title>E2&#45;&gt;E3</title>
<path fill="none" stroke="black" d="M145.579,-1103.25C156.738,-1089.5 173.616,-1069.93 190.5,-1055 196.043,-1050.1 202.27,-1045.29 208.437,-1040.85"/>
<polygon fill="black" stroke="black" points="210.535,-1043.66 216.74,-1035.07 206.534,-1037.91 210.535,-1043.66"/>
<text text-anchor="middle" x="222.5" y="-1073.8" font-family="Times,serif" font-size="14.00">OUTPUT: </text>
<text text-anchor="middle" x="222.5" y="-1058.8" font-family="Times,serif" font-size="14.00">INPUT: </text>
</g>
<!-- E4 -->
<g id="node5" class="node"><title>E4</title>
<ellipse fill="azure" stroke="black" cx="588.5" cy="-914" rx="83.3857" ry="18"/>
<text text-anchor="middle" x="588.5" y="-910.3" font-family="Times,serif" font-size="14.00">combine (S3,P154)</text>
</g>
<!-- E3&#45;&gt;E4 -->
<g id="edge9" class="edge"><title>E3&#45;&gt;E4</title>
<path fill="none" stroke="black" d="M265.069,-1000.69C287.421,-985.37 323.184,-963.054 357.5,-951 403.063,-934.995 456.173,-926.091 499.971,-921.144"/>
<polygon fill="black" stroke="black" points="500.462,-924.612 510.029,-920.059 499.711,-917.652 500.462,-924.612"/>
<text text-anchor="middle" x="417" y="-969.8" font-family="Times,serif" font-size="14.00">OUTPUT: </text>
<text text-anchor="middle" x="417" y="-954.8" font-family="Times,serif" font-size="14.00">INPUT: ground oats</text>
</g>
<!-- E5 -->
<g id="node6" class="node"><title>E5</title>
<ellipse fill="azure" stroke="black" cx="945.5" cy="-810" rx="73.387" ry="18"/>
<text text-anchor="middle" x="945.5" y="-806.3" font-family="Times,serif" font-size="14.00">cream (S4,P263)</text>
</g>
<!-- E4&#45;&gt;E5 -->
<g id="edge14" class="edge"><title>E4&#45;&gt;E5</title>
<path fill="none" stroke="black" d="M607.182,-896.17C625.492,-880.697 654.891,-858.473 684.5,-847 741.28,-824.998 809.586,-816.144 862.076,-812.713"/>
<polygon fill="black" stroke="black" points="862.583,-816.189 872.355,-812.097 862.164,-809.202 862.583,-816.189"/>
<text text-anchor="middle" x="761.5" y="-865.8" font-family="Times,serif" font-size="14.00">OUTPUT: </text>
<text text-anchor="middle" x="761.5" y="-850.8" font-family="Times,serif" font-size="14.00">INPUT: in a separate bowl</text>
</g>
<!-- E6 -->
<g id="node7" class="node"><title>E6</title>
<ellipse fill="azure" stroke="black" cx="1107.5" cy="-706" rx="66.0889" ry="18"/>
<text text-anchor="middle" x="1107.5" y="-702.3" font-family="Times,serif" font-size="14.00">beat (S5,P313)</text>
</g>
<!-- E5&#45;&gt;E6 -->
<g id="edge18" class="edge"><title>E5&#45;&gt;E6</title>
<path fill="none" stroke="black" d="M967.01,-792.735C985.733,-778.863 1013.82,-758.726 1039.5,-743 1048.56,-737.449 1058.56,-731.87 1068.04,-726.818"/>
<polygon fill="black" stroke="black" points="1069.69,-729.903 1076.92,-722.153 1066.44,-723.706 1069.69,-729.903"/>
<text text-anchor="middle" x="1071.5" y="-761.8" font-family="Times,serif" font-size="14.00">OUTPUT: </text>
<text text-anchor="middle" x="1071.5" y="-746.8" font-family="Times,serif" font-size="14.00">INPUT: </text>
</g>
<!-- E7 -->
<g id="node8" class="node"><title>E7</title>
<ellipse fill="azure" stroke="black" cx="1329.5" cy="-602" rx="63.0888" ry="18"/>
<text text-anchor="middle" x="1329.5" y="-598.3" font-family="Times,serif" font-size="14.00">stir (S5,P341)</text>
</g>
<!-- E6&#45;&gt;E7 -->
<g id="edge21" class="edge"><title>E6&#45;&gt;E7</title>
<path fill="none" stroke="black" d="M1139.78,-690.168C1179.02,-672.138 1245.31,-641.682 1288.23,-621.964"/>
<polygon fill="black" stroke="black" points="1289.91,-625.04 1297.54,-617.684 1286.99,-618.679 1289.91,-625.04"/>
<text text-anchor="middle" x="1277.5" y="-657.8" font-family="Times,serif" font-size="14.00">OUTPUT: </text>
<text text-anchor="middle" x="1277.5" y="-642.8" font-family="Times,serif" font-size="14.00">INPUT: </text>
</g>
<!-- E8 -->
<g id="node9" class="node"><title>E8</title>
<ellipse fill="azure" stroke="black" cx="1429.5" cy="-499" rx="63.0888" ry="18"/>
<text text-anchor="middle" x="1429.5" y="-495.3" font-family="Times,serif" font-size="14.00">stir (S6,P367)</text>
</g>
<!-- E7&#45;&gt;E8 -->
<g id="edge24" class="edge"><title>E7&#45;&gt;E8</title>
<path fill="none" stroke="black" d="M1340.13,-584.117C1349.47,-570.046 1363.97,-549.958 1379.5,-535 1384.42,-530.259 1390.04,-525.685 1395.69,-521.495"/>
<polygon fill="black" stroke="black" points="1397.78,-524.301 1403.91,-515.657 1393.73,-518.594 1397.78,-524.301"/>
<text text-anchor="middle" x="1411.5" y="-553.8" font-family="Times,serif" font-size="14.00">OUTPUT: </text>
<text text-anchor="middle" x="1411.5" y="-538.8" font-family="Times,serif" font-size="14.00">INPUT: </text>
</g>
<!-- E9 -->
<g id="node10" class="node"><title>E9</title>
<ellipse fill="azure" stroke="black" cx="1560.5" cy="-397" rx="65.7887" ry="18"/>
<text text-anchor="middle" x="1560.5" y="-393.3" font-family="Times,serif" font-size="14.00">mix (S7,P383)</text>
</g>
<!-- E8&#45;&gt;E9 -->
<g id="edge26" class="edge"><title>E8&#45;&gt;E9</title>
<path fill="none" stroke="black" d="M1422.38,-480.982C1417.65,-466.694 1414.03,-446.507 1424.5,-433 1433.36,-421.574 1463.19,-413.223 1492.67,-407.551"/>
<polygon fill="black" stroke="black" points="1493.42,-410.972 1502.63,-405.729 1492.16,-404.087 1493.42,-410.972"/>
<text text-anchor="middle" x="1498.5" y="-451.8" font-family="Times,serif" font-size="14.00">OUTPUT: </text>
<text text-anchor="middle" x="1498.5" y="-436.8" font-family="Times,serif" font-size="14.00">INPUT: oat/flour mixture</text>
</g>
<!-- E9&#45;&gt;E10 -->
<g id="edge28" class="edge"><title>E9&#45;&gt;E10</title>
<path fill="none" stroke="black" d="M1560.5,-378.581C1560.5,-363.382 1560.5,-341.067 1560.5,-323.464"/>
<polygon fill="black" stroke="black" points="1564,-323.219 1560.5,-313.219 1557,-323.219 1564,-323.219"/>
<text text-anchor="middle" x="1601.5" y="-349.8" font-family="Times,serif" font-size="14.00">OUTPUT: </text>
<text text-anchor="middle" x="1601.5" y="-334.8" font-family="Times,serif" font-size="14.00">INPUT: batter</text>
</g>
<!-- E14 -->
<g id="node15" class="node"><title>E14</title>
<ellipse fill="azure" stroke="black" cx="1894.5" cy="-193" rx="86.3847" ry="18"/>
<text text-anchor="middle" x="1894.5" y="-189.3" font-family="Times,serif" font-size="14.00">sprinkle (S13,P604)</text>
</g>
<!-- E10&#45;&gt;E14 -->
<g id="edge35" class="edge"><title>E10&#45;&gt;E14</title>
<path fill="none" stroke="black" d="M1605.2,-280.617C1665.22,-262.646 1771.9,-230.705 1837.59,-211.037"/>
<polygon fill="black" stroke="black" points="1838.8,-214.33 1847.38,-208.109 1836.79,-207.624 1838.8,-214.33"/>
<text text-anchor="middle" x="1824.5" y="-247.8" font-family="Times,serif" font-size="14.00">OUTPUT: </text>
<text text-anchor="middle" x="1824.5" y="-232.8" font-family="Times,serif" font-size="14.00">INPUT: muffins</text>
</g>
<!-- E11 -->
<g id="node12" class="node"><title>E11</title>
<ellipse fill="azure" stroke="black" cx="1774.5" cy="-499" rx="88.2844" ry="18"/>
<text text-anchor="middle" x="1774.5" y="-495.3" font-family="Times,serif" font-size="14.00">combine (S10,P478)</text>
</g>
<!-- E12 -->
<g id="node13" class="node"><title>E12</title>
<ellipse fill="azure" stroke="black" cx="1894.5" cy="-397" rx="67.6881" ry="18"/>
<text text-anchor="middle" x="1894.5" y="-393.3" font-family="Times,serif" font-size="14.00">cut (S11,P522)</text>
</g>
<!-- E11&#45;&gt;E12 -->
<g id="edge30" class="edge"><title>E11&#45;&gt;E12</title>
<path fill="none" stroke="black" d="M1790.23,-481.077C1803.33,-467.402 1822.8,-448.025 1841.5,-433 1847.29,-428.346 1853.7,-423.718 1860.01,-419.424"/>
<polygon fill="black" stroke="black" points="1862.08,-422.25 1868.48,-413.804 1858.21,-416.418 1862.08,-422.25"/>
<text text-anchor="middle" x="1873.5" y="-451.8" font-family="Times,serif" font-size="14.00">OUTPUT: </text>
<text text-anchor="middle" x="1873.5" y="-436.8" font-family="Times,serif" font-size="14.00">INPUT: </text>
</g>
<!-- E13 -->
<g id="node14" class="node"><title>E13</title>
<ellipse fill="azure" stroke="black" cx="1894.5" cy="-295" rx="67.6881" ry="18"/>
<text text-anchor="middle" x="1894.5" y="-291.3" font-family="Times,serif" font-size="14.00">stir (S12,P567)</text>
</g>
<!-- E12&#45;&gt;E13 -->
<g id="edge33" class="edge"><title>E12&#45;&gt;E13</title>
<path fill="none" stroke="black" d="M1894.5,-378.581C1894.5,-363.382 1894.5,-341.067 1894.5,-323.464"/>
<polygon fill="black" stroke="black" points="1898,-323.219 1894.5,-313.219 1891,-323.219 1898,-323.219"/>
<text text-anchor="middle" x="1926.5" y="-349.8" font-family="Times,serif" font-size="14.00">OUTPUT: </text>
<text text-anchor="middle" x="1926.5" y="-334.8" font-family="Times,serif" font-size="14.00">INPUT: </text>
</g>
<!-- E13&#45;&gt;E14 -->
<g id="edge36" class="edge"><title>E13&#45;&gt;E14</title>
<path fill="none" stroke="black" d="M1894.5,-276.581C1894.5,-261.382 1894.5,-239.067 1894.5,-221.464"/>
<polygon fill="black" stroke="black" points="1898,-221.219 1894.5,-211.219 1891,-221.219 1898,-221.219"/>
<text text-anchor="middle" x="1957" y="-247.8" font-family="Times,serif" font-size="14.00">OUTPUT: </text>
<text text-anchor="middle" x="1957" y="-232.8" font-family="Times,serif" font-size="14.00">INPUT: with topping</text>
</g>
<!-- E14&#45;&gt;E15 -->
<g id="edge38" class="edge"><title>E14&#45;&gt;E15</title>
<path fill="none" stroke="black" d="M1934.17,-176.967C1973.41,-162.542 2035.42,-140.949 2090.5,-127 2131.28,-116.672 2177.57,-108.283 2215.03,-102.309"/>
<polygon fill="black" stroke="black" points="2216.01,-105.698 2225.34,-100.689 2214.92,-98.7825 2216.01,-105.698"/>
<text text-anchor="middle" x="2122.5" y="-145.8" font-family="Times,serif" font-size="14.00">OUTPUT: </text>
<text text-anchor="middle" x="2122.5" y="-130.8" font-family="Times,serif" font-size="14.00">INPUT: </text>
</g>
<!-- EOR -->
<g id="node44" class="node"><title>EOR</title>
<ellipse fill="plum" stroke="black" cx="2287.5" cy="-18" rx="57.3905" ry="18"/>
<text text-anchor="middle" x="2287.5" y="-14.3" font-family="Times,serif" font-size="14.00">Bon appetit!</text>
</g>
<!-- E15&#45;&gt;EOR -->
<g id="edge43" class="edge"><title>E15&#45;&gt;EOR</title>
<path fill="none" stroke="black" d="M2287.5,-72.8129C2287.5,-64.7895 2287.5,-55.0475 2287.5,-46.0691"/>
<polygon fill="black" stroke="black" points="2291,-46.0288 2287.5,-36.0288 2284,-46.0289 2291,-46.0288"/>
</g>
<!-- D1 -->
<g id="node17" class="node"><title>D1</title>
<polygon fill="white" stroke="black" points="1130,-517 941,-517 941,-481 1130,-481 1130,-517"/>
<text text-anchor="middle" x="1035.5" y="-495.3" font-family="Times,serif" font-size="14.00">DOBJ: 12 muffin cups or line</text>
</g>
<!-- D1&#45;&gt;E1 -->
<g id="edge1" class="edge"><title>D1&#45;&gt;E1</title>
<path fill="none" stroke="black" d="M1072.12,-480.809C1109.62,-463.203 1167.82,-435.88 1207,-417.483"/>
<polygon fill="black" stroke="black" points="1208.97,-420.427 1216.53,-413.009 1205.99,-414.091 1208.97,-420.427"/>
</g>
<!-- P1_0 -->
<g id="node18" class="node"><title>P1_0</title>
<polygon fill="white" stroke="black" points="1348.5,-517 1148.5,-517 1148.5,-481 1348.5,-481 1348.5,-517"/>
<text text-anchor="middle" x="1248.5" y="-495.3" font-family="Times,serif" font-size="14.00">PREP: with paper muffin liners</text>
</g>
<!-- P1_0&#45;&gt;E1 -->
<g id="edge2" class="edge"><title>P1_0&#45;&gt;E1</title>
<path fill="none" stroke="black" d="M1248.5,-480.581C1248.5,-465.382 1248.5,-443.067 1248.5,-425.464"/>
<polygon fill="black" stroke="black" points="1252,-425.219 1248.5,-415.219 1245,-425.219 1252,-425.219"/>
</g>
<!-- D2 -->
<g id="node19" class="node"><title>D2</title>
<polygon fill="peachpuff" stroke="black" points="265,-1214 0,-1214 0,-1176 265,-1176 265,-1214"/>
<text text-anchor="middle" x="132.5" y="-1198.8" font-family="Times,serif" font-size="14.00">DOBJ: rolled oats</text>
<text text-anchor="middle" x="132.5" y="-1183.8" font-family="Times,serif" font-size="14.00">(text: 1 cup rolled oats in a food processor)</text>
</g>
<!-- D2&#45;&gt;E2 -->
<g id="edge3" class="edge"><title>D2&#45;&gt;E2</title>
<path fill="none" stroke="black" d="M132.5,-1175.83C132.5,-1167.89 132.5,-1158.41 132.5,-1149.63"/>
<polygon fill="black" stroke="black" points="136,-1149.42 132.5,-1139.42 129,-1149.42 136,-1149.42"/>
</g>
<!-- D11 -->
<g id="node20" class="node"><title>D11</title>
<polygon fill="peachpuff" stroke="black" points="1905.5,-621 1591.5,-621 1591.5,-583 1905.5,-583 1905.5,-621"/>
<text text-anchor="middle" x="1748.5" y="-605.8" font-family="Times,serif" font-size="14.00">DOBJ: white sugar</text>
<text text-anchor="middle" x="1748.5" y="-590.8" font-family="Times,serif" font-size="14.00">(text: 1/3 cup rolled oats , brown sugar , cinnamon)</text>
</g>
<!-- D11&#45;&gt;E11 -->
<g id="edge4" class="edge"><title>D11&#45;&gt;E11</title>
<path fill="none" stroke="black" d="M1753.15,-582.943C1757.15,-567.386 1762.99,-544.704 1767.55,-526.99"/>
<polygon fill="black" stroke="black" points="1770.96,-527.783 1770.07,-517.226 1764.18,-526.038 1770.96,-527.783"/>
</g>
<!-- P11_0 -->
<g id="node21" class="node"><title>P11_0</title>
<polygon fill="white" stroke="black" points="2071.5,-620 1923.5,-620 1923.5,-584 2071.5,-584 2071.5,-620"/>
<text text-anchor="middle" x="1997.5" y="-598.3" font-family="Times,serif" font-size="14.00">PREP: in a small bowl</text>
</g>
<!-- P11_0&#45;&gt;E11 -->
<g id="edge5" class="edge"><title>P11_0&#45;&gt;E11</title>
<path fill="none" stroke="black" d="M1959.92,-583.981C1920.77,-566.248 1859.48,-538.49 1818.19,-519.79"/>
<polygon fill="black" stroke="black" points="1819.48,-516.531 1808.93,-515.594 1816.59,-522.908 1819.48,-516.531"/>
</g>
<!-- D0 -->
<g id="node22" class="node"><title>D0</title>
<polygon fill="white" stroke="black" points="3006.5,-313 2688.5,-313 2688.5,-277 3006.5,-277 3006.5,-313"/>
<text text-anchor="middle" x="2847.5" y="-291.3" font-family="Times,serif" font-size="14.00">DOBJ: oven to 350 degrees F &#45;LRB&#45; 175 degrees C</text>
</g>
<!-- D0&#45;&gt;E0 -->
<g id="edge6" class="edge"><title>D0&#45;&gt;E0</title>
<path fill="none" stroke="black" d="M2847.5,-276.581C2847.5,-261.382 2847.5,-239.067 2847.5,-221.464"/>
<polygon fill="black" stroke="black" points="2851,-221.219 2847.5,-211.219 2844,-221.219 2851,-221.219"/>
</g>
<!-- P3_0_0 -->
<g id="node23" class="node"><title>P3_0_0</title>
<polygon fill="white" stroke="black" points="348.5,-1139 216.5,-1139 216.5,-1103 348.5,-1103 348.5,-1139"/>
<text text-anchor="middle" x="282.5" y="-1117.3" font-family="Times,serif" font-size="14.00">PREP: until ground</text>
</g>
<!-- P3_0_0&#45;&gt;E3 -->
<g id="edge8" class="edge"><title>P3_0_0&#45;&gt;E3</title>
<path fill="none" stroke="black" d="M275.715,-1102.87C269.508,-1087.2 260.229,-1063.77 253.055,-1045.65"/>
<polygon fill="black" stroke="black" points="256.255,-1044.23 249.319,-1036.22 249.747,-1046.8 256.255,-1044.23"/>
</g>
<!-- P4_0_0 -->
<g id="node24" class="node"><title>P4_0_0</title>
<polygon fill="white" stroke="black" points="485.5,-1036 339.5,-1036 339.5,-1000 485.5,-1000 485.5,-1036"/>
<text text-anchor="middle" x="412.5" y="-1014.3" font-family="Times,serif" font-size="14.00">PREP: in a large bowl</text>
</g>
<!-- P4_0_0&#45;&gt;E4 -->
<g id="edge10" class="edge"><title>P4_0_0&#45;&gt;E4</title>
<path fill="none" stroke="black" d="M441.958,-999.927C472.192,-982.406 519.297,-955.106 551.903,-936.209"/>
<polygon fill="black" stroke="black" points="553.793,-939.16 560.69,-931.117 550.283,-933.103 553.793,-939.16"/>
</g>
<!-- P4_1_ing -->
<g id="node25" class="node"><title>P4_1_ing</title>
<polygon fill="peachpuff" stroke="black" points="1027,-1037 504,-1037 504,-999 1027,-999 1027,-1037"/>
<text text-anchor="middle" x="765.5" y="-1021.8" font-family="Times,serif" font-size="14.00">PREP: with baking powder, ground cinnamon, chopped walnuts, all&#45;purpose flour, salt</text>
<text text-anchor="middle" x="765.5" y="-1006.8" font-family="Times,serif" font-size="14.00">(text: with &#160;salt, &#160;baking powder , flour , &#160;chopped walnuts , &#160;cinnamon)</text>
</g>
<!-- P4_1_ing&#45;&gt;E4 -->
<g id="edge11" class="edge"><title>P4_1_ing&#45;&gt;E4</title>
<path fill="none" stroke="black" d="M734.263,-998.999C703.692,-981.382 657.145,-954.558 624.911,-935.982"/>
<polygon fill="black" stroke="black" points="626.636,-932.937 616.224,-930.976 623.141,-939.002 626.636,-932.937"/>
</g>
<!-- P4_1_0 -->
<g id="node26" class="node"><title>P4_1_0</title>
<polygon fill="white" stroke="black" points="1279.5,-1036 1045.5,-1036 1045.5,-1000 1279.5,-1000 1279.5,-1036"/>
<text text-anchor="middle" x="1162.5" y="-1014.3" font-family="Times,serif" font-size="14.00">PREP: with &#160;1 tablespoon rolled oats </text>
</g>
<!-- P4_1_0&#45;&gt;E4 -->
<g id="edge12" class="edge"><title>P4_1_0&#45;&gt;E4</title>
<path fill="none" stroke="black" d="M1061.3,-999.989C963.694,-983.434 811.844,-957.291 680.5,-933 673.156,-931.642 665.488,-930.192 657.849,-928.727"/>
<polygon fill="black" stroke="black" points="658.335,-925.257 647.853,-926.8 657.01,-932.13 658.335,-925.257"/>
</g>
<!-- D5_ing -->
<g id="node27" class="node"><title>D5_ing</title>
<polygon fill="peachpuff" stroke="black" points="865,-933 690,-933 690,-895 865,-895 865,-933"/>
<text text-anchor="middle" x="777.5" y="-917.8" font-family="Times,serif" font-size="14.00">DOBJ: brown sugar, butter</text>
<text text-anchor="middle" x="777.5" y="-902.8" font-family="Times,serif" font-size="14.00">(text: &#160;sugar, the butter)</text>
</g>
<!-- D5_ing&#45;&gt;E5 -->
<g id="edge13" class="edge"><title>D5_ing&#45;&gt;E5</title>
<path fill="none" stroke="black" d="M807.148,-894.999C836.041,-877.457 879.968,-850.787 910.548,-832.221"/>
<polygon fill="black" stroke="black" points="912.454,-835.158 919.186,-826.976 908.821,-829.175 912.454,-835.158"/>
</g>
<!-- P5_1_0 -->
<g id="node28" class="node"><title>P5_1_0</title>
<polygon fill="white" stroke="black" points="1008,-932 883,-932 883,-896 1008,-896 1008,-932"/>
<text text-anchor="middle" x="945.5" y="-910.3" font-family="Times,serif" font-size="14.00">PREP: until &#160;fluffy</text>
</g>
<!-- P5_1_0&#45;&gt;E5 -->
<g id="edge15" class="edge"><title>P5_1_0&#45;&gt;E5</title>
<path fill="none" stroke="black" d="M945.5,-895.697C945.5,-879.923 945.5,-856.364 945.5,-838.094"/>
<polygon fill="black" stroke="black" points="949,-838.047 945.5,-828.047 942,-838.047 949,-838.047"/>
</g>
<!-- P5_1_1 -->
<g id="node29" class="node"><title>P5_1_1</title>
<polygon fill="white" stroke="black" points="1142.5,-932 1026.5,-932 1026.5,-896 1142.5,-896 1142.5,-932"/>
<text text-anchor="middle" x="1084.5" y="-910.3" font-family="Times,serif" font-size="14.00">PREP: until light</text>
</g>
<!-- P5_1_1&#45;&gt;E5 -->
<g id="edge16" class="edge"><title>P5_1_1&#45;&gt;E5</title>
<path fill="none" stroke="black" d="M1061.23,-895.927C1037.9,-878.807 1001.85,-852.352 976.191,-833.521"/>
<polygon fill="black" stroke="black" points="978.052,-830.546 967.92,-827.452 973.911,-836.19 978.052,-830.546"/>
</g>
<!-- O5_0_0 -->
<g id="node30" class="node"><title>O5_0_0</title>
<polygon fill="white" stroke="black" points="1280,-932 1161,-932 1161,-896 1280,-896 1280,-932"/>
<text text-anchor="middle" x="1220.5" y="-910.3" font-family="Times,serif" font-size="14.00">OTHER: together</text>
</g>
<!-- O5_0_0&#45;&gt;E5 -->
<g id="edge17" class="edge"><title>O5_0_0&#45;&gt;E5</title>
<path fill="none" stroke="black" d="M1174.47,-895.927C1124.34,-877.333 1044.52,-847.727 993.59,-828.837"/>
<polygon fill="black" stroke="black" points="994.712,-825.52 984.119,-825.324 992.278,-832.083 994.712,-825.52"/>
</g>
<!-- P6_0_ing -->
<g id="node31" class="node"><title>P6_0_ing</title>
<polygon fill="peachpuff" stroke="black" points="1178,-829 1037,-829 1037,-791 1178,-791 1178,-829"/>
<text text-anchor="middle" x="1107.5" y="-813.8" font-family="Times,serif" font-size="14.00">PREP: in eggs</text>
<text text-anchor="middle" x="1107.5" y="-798.8" font-family="Times,serif" font-size="14.00">(text: in the eggs one)</text>
</g>
<!-- P6_0_ing&#45;&gt;E6 -->
<g id="edge19" class="edge"><title>P6_0_ing&#45;&gt;E6</title>
<path fill="none" stroke="black" d="M1107.5,-790.764C1107.5,-775.031 1107.5,-752.083 1107.5,-734.183"/>
<polygon fill="black" stroke="black" points="1111,-734.06 1107.5,-724.06 1104,-734.06 1111,-734.06"/>
</g>
<!-- P6_1_0 -->
<g id="node32" class="node"><title>P6_1_0</title>
<polygon fill="white" stroke="black" points="1303,-828 1196,-828 1196,-792 1303,-792 1303,-828"/>
<text text-anchor="middle" x="1249.5" y="-806.3" font-family="Times,serif" font-size="14.00">PREP: at a time</text>
</g>
<!-- P6_1_0&#45;&gt;E6 -->
<g id="edge20" class="edge"><title>P6_1_0&#45;&gt;E6</title>
<path fill="none" stroke="black" d="M1225.73,-791.927C1201.76,-774.705 1164.63,-748.037 1138.39,-729.186"/>
<polygon fill="black" stroke="black" points="1140.1,-726.109 1129.94,-723.117 1136.02,-731.794 1140.1,-726.109"/>
</g>
<!-- P7_0_ing -->
<g id="node33" class="node"><title>P7_0_ing</title>
<polygon fill="peachpuff" stroke="black" points="1467,-725 1192,-725 1192,-687 1467,-687 1467,-725"/>
<text text-anchor="middle" x="1329.5" y="-709.8" font-family="Times,serif" font-size="14.00">PREP: in vanilla extract, mashed ripe banana</text>
<text text-anchor="middle" x="1329.5" y="-694.8" font-family="Times,serif" font-size="14.00">(text: in the banana, &#160;vanilla)</text>
</g>
<!-- P7_0_ing&#45;&gt;E7 -->
<g id="edge22" class="edge"><title>P7_0_ing&#45;&gt;E7</title>
<path fill="none" stroke="black" d="M1329.5,-686.764C1329.5,-671.031 1329.5,-648.083 1329.5,-630.183"/>
<polygon fill="black" stroke="black" points="1333,-630.06 1329.5,-620.06 1326,-630.06 1333,-630.06"/>
</g>
<!-- O7_0_0 -->
<g id="node34" class="node"><title>O7_0_0</title>
<polygon fill="white" stroke="black" points="1582,-724 1485,-724 1485,-688 1582,-688 1582,-724"/>
<text text-anchor="middle" x="1533.5" y="-702.3" font-family="Times,serif" font-size="14.00">OTHER: then</text>
</g>
<!-- O7_0_0&#45;&gt;E7 -->
<g id="edge23" class="edge"><title>O7_0_0&#45;&gt;E7</title>
<path fill="none" stroke="black" d="M1499.35,-687.927C1463.28,-669.89 1406.48,-641.491 1368.63,-622.563"/>
<polygon fill="black" stroke="black" points="1369.94,-619.309 1359.43,-617.967 1366.81,-625.57 1369.94,-619.309"/>
</g>
<!-- P8_0_ing -->
<g id="node35" class="node"><title>P8_0_ing</title>
<polygon fill="peachpuff" stroke="black" points="1548.5,-621 1410.5,-621 1410.5,-583 1548.5,-583 1548.5,-621"/>
<text text-anchor="middle" x="1479.5" y="-605.8" font-family="Times,serif" font-size="14.00">PREP: in sour cream</text>
<text text-anchor="middle" x="1479.5" y="-590.8" font-family="Times,serif" font-size="14.00">(text: in sour cream)</text>
</g>
<!-- P8_0_ing&#45;&gt;E8 -->
<g id="edge25" class="edge"><title>P8_0_ing&#45;&gt;E8</title>
<path fill="none" stroke="black" d="M1470.56,-582.943C1462.74,-567.145 1451.28,-543.999 1442.46,-526.17"/>
<polygon fill="black" stroke="black" points="1445.44,-524.302 1437.86,-516.893 1439.16,-527.407 1445.44,-524.302"/>
</g>
<!-- P9_0_0 -->
<g id="node36" class="node"><title>P9_0_0</title>
<polygon fill="white" stroke="black" points="1668,-517 1513,-517 1513,-481 1668,-481 1668,-517"/>
<text text-anchor="middle" x="1590.5" y="-495.3" font-family="Times,serif" font-size="14.00">PREP: into egg mixture</text>
</g>
<!-- P9_0_0&#45;&gt;E9 -->
<g id="edge27" class="edge"><title>P9_0_0&#45;&gt;E9</title>
<path fill="none" stroke="black" d="M1587.86,-480.896C1585.56,-467.629 1581.77,-448.886 1576.5,-433 1575.57,-430.206 1574.49,-427.337 1573.33,-424.501"/>
<polygon fill="black" stroke="black" points="1576.46,-422.902 1569.24,-415.148 1570.04,-425.712 1576.46,-422.902"/>
</g>
<!-- P12_0_0 -->
<g id="node37" class="node"><title>P12_0_0</title>
<polygon fill="white" stroke="black" points="1988.5,-517 1880.5,-517 1880.5,-481 1988.5,-481 1988.5,-517"/>
<text text-anchor="middle" x="1934.5" y="-495.3" font-family="Times,serif" font-size="14.00">PREP: in butter</text>
</g>
<!-- P12_0_0&#45;&gt;E12 -->
<g id="edge31" class="edge"><title>P12_0_0&#45;&gt;E12</title>
<path fill="none" stroke="black" d="M1927.53,-480.581C1921.4,-465.238 1912.36,-442.645 1905.29,-424.968"/>
<polygon fill="black" stroke="black" points="1908.35,-423.204 1901.39,-415.219 1901.85,-425.804 1908.35,-423.204"/>
</g>
<!-- O12_0_0 -->
<g id="node38" class="node"><title>O12_0_0</title>
<polygon fill="white" stroke="black" points="2300,-517 2007,-517 2007,-481 2300,-481 2300,-517"/>
<text text-anchor="middle" x="2153.5" y="-495.3" font-family="Times,serif" font-size="14.00">OTHER: until mixture resembles coarse crumbs</text>
</g>
<!-- O12_0_0&#45;&gt;E12 -->
<g id="edge32" class="edge"><title>O12_0_0&#45;&gt;E12</title>
<path fill="none" stroke="black" d="M2109.27,-480.923C2062.37,-462.814 1988.6,-434.332 1940.89,-415.912"/>
<polygon fill="black" stroke="black" points="1942.01,-412.591 1931.42,-412.254 1939.49,-419.121 1942.01,-412.591"/>
</g>
<!-- P13_0_0 -->
<g id="node39" class="node"><title>P13_0_0</title>
<polygon fill="white" stroke="black" points="2200.5,-415 1980.5,-415 1980.5,-379 2200.5,-379 2200.5,-415"/>
<text text-anchor="middle" x="2090.5" y="-393.3" font-family="Times,serif" font-size="14.00">PREP: in 1/4 cup chopped walnuts</text>
</g>
<!-- P13_0_0&#45;&gt;E13 -->
<g id="edge34" class="edge"><title>P13_0_0&#45;&gt;E13</title>
<path fill="none" stroke="black" d="M2056.81,-378.809C2022.55,-361.329 1969.51,-334.27 1933.46,-315.879"/>
<polygon fill="black" stroke="black" points="1934.73,-312.596 1924.23,-311.169 1931.55,-318.831 1934.73,-312.596"/>
</g>
<!-- O14_0_0 -->
<g id="node40" class="node"><title>O14_0_0</title>
<polygon fill="white" stroke="black" points="2116.5,-313 1980.5,-313 1980.5,-277 2116.5,-277 2116.5,-313"/>
<text text-anchor="middle" x="2048.5" y="-291.3" font-family="Times,serif" font-size="14.00">OTHER: generously</text>
</g>
<!-- O14_0_0&#45;&gt;E14 -->
<g id="edge37" class="edge"><title>O14_0_0&#45;&gt;E14</title>
<path fill="none" stroke="black" d="M2046.28,-276.92C2043.48,-262.192 2037.23,-241.395 2023.5,-229 2014.53,-220.903 1991.51,-213.601 1967.35,-207.788"/>
<polygon fill="black" stroke="black" points="1967.87,-204.315 1957.33,-205.471 1966.29,-211.135 1967.87,-204.315"/>
</g>
<!-- P15_1_0 -->
<g id="node41" class="node"><title>P15_1_0</title>
<polygon fill="white" stroke="black" points="2176.5,-211 1998.5,-211 1998.5,-175 2176.5,-175 2176.5,-211"/>
<text text-anchor="middle" x="2087.5" y="-189.3" font-family="Times,serif" font-size="14.00">PREP: for 25 to 30 minutes</text>
</g>
<!-- P15_1_0&#45;&gt;E15 -->
<g id="edge40" class="edge"><title>P15_1_0&#45;&gt;E15</title>
<path fill="none" stroke="black" d="M2121.88,-174.809C2156.78,-157.358 2210.78,-130.358 2247.56,-111.969"/>
<polygon fill="black" stroke="black" points="2249.14,-115.093 2256.52,-107.49 2246.01,-108.832 2249.14,-115.093"/>
</g>
<!-- O15_0_0 -->
<g id="node42" class="node"><title>O15_0_0</title>
<polygon fill="white" stroke="black" points="2380,-211 2195,-211 2195,-175 2380,-175 2380,-211"/>
<text text-anchor="middle" x="2287.5" y="-189.3" font-family="Times,serif" font-size="14.00">OTHER: until golden brown</text>
</g>
<!-- O15_0_0&#45;&gt;E15 -->
<g id="edge41" class="edge"><title>O15_0_0&#45;&gt;E15</title>
<path fill="none" stroke="black" d="M2287.5,-174.581C2287.5,-159.382 2287.5,-137.067 2287.5,-119.464"/>
<polygon fill="black" stroke="black" points="2291,-119.219 2287.5,-109.219 2284,-119.219 2291,-119.219"/>
</g>
<!-- O15_0_1 -->
<g id="node43" class="node"><title>O15_0_1</title>
<polygon fill="white" stroke="black" points="2761,-211 2398,-211 2398,-175 2761,-175 2761,-211"/>
<text text-anchor="middle" x="2579.5" y="-189.3" font-family="Times,serif" font-size="14.00">OTHER: &#160;a toothpick inserted into a muffin comes out clean</text>
</g>
<!-- O15_0_1&#45;&gt;E15 -->
<g id="edge42" class="edge"><title>O15_0_1&#45;&gt;E15</title>
<path fill="none" stroke="black" d="M2529.64,-174.923C2476.27,-156.648 2392.06,-127.809 2338.33,-109.408"/>
<polygon fill="black" stroke="black" points="2339.26,-106.027 2328.67,-106.098 2336.99,-112.649 2339.26,-106.027"/>
</g>
</g>
</svg>
