<?xml version="1.0" encoding="UTF-8" standalone="no"?>
<!DOCTYPE svg PUBLIC "-//W3C//DTD SVG 1.1//EN"
 "http://www.w3.org/Graphics/SVG/1.1/DTD/svg11.dtd">
<!-- Generated by graphviz version 2.38.0 (20140413.2041)
 -->
<!-- Title: recipe Pages: 1 -->
<svg width="1683pt" height="1010pt"
 viewBox="0.00 0.00 1682.50 1010.00" xmlns="http://www.w3.org/2000/svg" xmlns:xlink="http://www.w3.org/1999/xlink">
<g id="graph0" class="graph" transform="scale(1 1) rotate(0) translate(4 1006)">
<title>recipe</title>
<polygon fill="white" stroke="none" points="-4,4 -4,-1006 1678.5,-1006 1678.5,4 -4,4"/>
<!-- E0 -->
<g id="node1" class="node"><title>E0</title>
<ellipse fill="azure" stroke="black" cx="1515.5" cy="-703" rx="68.7879" ry="18"/>
<text text-anchor="middle" x="1515.5" y="-699.3" font-family="Times,serif" font-size="14.00">preheat (S0,P0)</text>
</g>
<!-- E1 -->
<g id="node2" class="node"><title>E1</title>
<ellipse fill="azure" stroke="black" cx="1342.5" cy="-601" rx="66.8882" ry="18"/>
<text text-anchor="middle" x="1342.5" y="-597.3" font-family="Times,serif" font-size="14.00">spray (S1,P38)</text>
</g>
<!-- E0&#45;&gt;E1 -->
<g id="edge4" class="edge"><title>E0&#45;&gt;E1</title>
<path fill="none" stroke="black" d="M1488.47,-686.375C1458.76,-669.203 1410.91,-641.546 1378.15,-622.609"/>
<polygon fill="black" stroke="black" points="1379.75,-619.49 1369.34,-617.515 1376.25,-625.55 1379.75,-619.49"/>
<text text-anchor="middle" x="1540.5" y="-655.8" font-family="Times,serif" font-size="14.00">OUTPUT: </text>
<text text-anchor="middle" x="1540.5" y="-640.8" font-family="Times,serif" font-size="14.00">INPUT: non&#45;stick muffin pan</text>
</g>
<!-- E6 -->
<g id="node7" class="node"><title>E6</title>
<ellipse fill="azure" stroke="black" cx="1257.5" cy="-499" rx="74.187" ry="18"/>
<text text-anchor="middle" x="1257.5" y="-495.3" font-family="Times,serif" font-size="14.00">spoon (S5,P261)</text>
</g>
<!-- E1&#45;&gt;E6 -->
<g id="edge14" class="edge"><title>E1&#45;&gt;E6</title>
<path fill="none" stroke="black" d="M1328.08,-583.036C1314.44,-566.993 1293.83,-542.737 1278.39,-524.577"/>
<polygon fill="black" stroke="black" points="1280.85,-522.066 1271.71,-516.713 1275.52,-526.599 1280.85,-522.066"/>
<text text-anchor="middle" x="1410" y="-553.8" font-family="Times,serif" font-size="14.00">OUTPUT: </text>
<text text-anchor="middle" x="1410" y="-538.8" font-family="Times,serif" font-size="14.00">INPUT: into prepared muffin pan</text>
</g>
<!-- E2 -->
<g id="node3" class="node"><title>E2</title>
<ellipse fill="azure" stroke="black" cx="409.5" cy="-908" rx="78.7863" ry="18"/>
<text text-anchor="middle" x="409.5" y="-904.3" font-family="Times,serif" font-size="14.00">combine (S2,P91)</text>
</g>
<!-- E3 -->
<g id="node4" class="node"><title>E3</title>
<ellipse fill="azure" stroke="black" cx="832.5" cy="-805" rx="74.187" ry="18"/>
<text text-anchor="middle" x="832.5" y="-801.3" font-family="Times,serif" font-size="14.00">whisk (S3,P150)</text>
</g>
<!-- E2&#45;&gt;E3 -->
<g id="edge7" class="edge"><title>E2&#45;&gt;E3</title>
<path fill="none" stroke="black" d="M461.792,-894.514C540.383,-875.749 688.589,-840.362 771.826,-820.487"/>
<polygon fill="black" stroke="black" points="772.732,-823.869 781.646,-818.143 771.106,-817.061 772.732,-823.869"/>
<text text-anchor="middle" x="754.5" y="-859.8" font-family="Times,serif" font-size="14.00">OUTPUT: </text>
<text text-anchor="middle" x="754.5" y="-844.8" font-family="Times,serif" font-size="14.00">INPUT: in another bowl</text>
</g>
<!-- E4 -->
<g id="node5" class="node"><title>E4</title>
<ellipse fill="azure" stroke="black" cx="967.5" cy="-703" rx="69.5877" ry="18"/>
<text text-anchor="middle" x="967.5" y="-699.3" font-family="Times,serif" font-size="14.00">pour (S4,P214)</text>
</g>
<!-- E3&#45;&gt;E4 -->
<g id="edge9" class="edge"><title>E3&#45;&gt;E4</title>
<path fill="none" stroke="black" d="M852.344,-787.477C868.722,-774.034 892.727,-754.773 914.5,-739 920.639,-734.552 927.303,-729.97 933.768,-725.645"/>
<polygon fill="black" stroke="black" points="935.979,-728.378 942.391,-719.944 932.119,-722.539 935.979,-728.378"/>
<text text-anchor="middle" x="946.5" y="-757.8" font-family="Times,serif" font-size="14.00">OUTPUT: </text>
<text text-anchor="middle" x="946.5" y="-742.8" font-family="Times,serif" font-size="14.00">INPUT: </text>
</g>
<!-- E5 -->
<g id="node6" class="node"><title>E5</title>
<ellipse fill="azure" stroke="black" cx="1146.5" cy="-601" rx="63.0888" ry="18"/>
<text text-anchor="middle" x="1146.5" y="-597.3" font-family="Times,serif" font-size="14.00">stir (S4,P239)</text>
</g>
<!-- E4&#45;&gt;E5 -->
<g id="edge11" class="edge"><title>E4&#45;&gt;E5</title>
<path fill="none" stroke="black" d="M993.733,-686.095C1016.08,-672.677 1049.14,-653.135 1078.5,-637 1087.85,-631.863 1098.02,-626.503 1107.59,-621.567"/>
<polygon fill="black" stroke="black" points="1109.22,-624.662 1116.52,-616.985 1106.03,-618.433 1109.22,-624.662"/>
<text text-anchor="middle" x="1110.5" y="-655.8" font-family="Times,serif" font-size="14.00">OUTPUT: </text>
<text text-anchor="middle" x="1110.5" y="-640.8" font-family="Times,serif" font-size="14.00">INPUT: </text>
</g>
<!-- E5&#45;&gt;E6 -->
<g id="edge13" class="edge"><title>E5&#45;&gt;E6</title>
<path fill="none" stroke="black" d="M1164.54,-583.69C1179.09,-570.535 1200.1,-551.561 1218.5,-535 1222.64,-531.272 1227.03,-527.325 1231.32,-523.476"/>
<polygon fill="black" stroke="black" points="1233.74,-526.008 1238.84,-516.724 1229.06,-520.799 1233.74,-526.008"/>
<text text-anchor="middle" x="1250.5" y="-553.8" font-family="Times,serif" font-size="14.00">OUTPUT: </text>
<text text-anchor="middle" x="1250.5" y="-538.8" font-family="Times,serif" font-size="14.00">INPUT: </text>
</g>
<!-- E7 -->
<g id="node8" class="node"><title>E7</title>
<ellipse fill="azure" stroke="black" cx="984.5" cy="-397" rx="68.7879" ry="18"/>
<text text-anchor="middle" x="984.5" y="-393.3" font-family="Times,serif" font-size="14.00">bake (S6,P288)</text>
</g>
<!-- E6&#45;&gt;E7 -->
<g id="edge15" class="edge"><title>E6&#45;&gt;E7</title>
<path fill="none" stroke="black" d="M1218.39,-483.672C1169.39,-465.725 1085.47,-434.984 1032.6,-415.618"/>
<polygon fill="black" stroke="black" points="1033.69,-412.293 1023.1,-412.139 1031.29,-418.865 1033.69,-412.293"/>
<text text-anchor="middle" x="1192.5" y="-451.8" font-family="Times,serif" font-size="14.00">OUTPUT: </text>
<text text-anchor="middle" x="1192.5" y="-436.8" font-family="Times,serif" font-size="14.00">INPUT: </text>
</g>
<!-- E8 -->
<g id="node9" class="node"><title>E8</title>
<ellipse fill="azure" stroke="black" cx="829.5" cy="-295" rx="59.5901" ry="18"/>
<text text-anchor="middle" x="829.5" y="-291.3" font-family="Times,serif" font-size="14.00">let (S7,P366)</text>
</g>
<!-- E7&#45;&gt;E8 -->
<g id="edge17" class="edge"><title>E7&#45;&gt;E8</title>
<path fill="none" stroke="black" d="M959.94,-380.155C933.56,-363.135 891.505,-336.003 862.307,-317.166"/>
<polygon fill="black" stroke="black" points="863.991,-314.087 853.69,-311.607 860.196,-319.969 863.991,-314.087"/>
<text text-anchor="middle" x="961.5" y="-349.8" font-family="Times,serif" font-size="14.00">OUTPUT: </text>
<text text-anchor="middle" x="961.5" y="-334.8" font-family="Times,serif" font-size="14.00">INPUT: </text>
</g>
<!-- E9 -->
<g id="node10" class="node"><title>E9</title>
<ellipse fill="azure" stroke="black" cx="696.5" cy="-193" rx="79.0865" ry="18"/>
<text text-anchor="middle" x="696.5" y="-189.3" font-family="Times,serif" font-size="14.00">transfer (S8,P391)</text>
</g>
<!-- E8&#45;&gt;E9 -->
<g id="edge20" class="edge"><title>E8&#45;&gt;E9</title>
<path fill="none" stroke="black" d="M808.426,-278.155C786.314,-261.53 751.368,-235.254 726.409,-216.488"/>
<polygon fill="black" stroke="black" points="728.456,-213.648 718.36,-210.436 724.249,-219.243 728.456,-213.648"/>
<text text-anchor="middle" x="814.5" y="-247.8" font-family="Times,serif" font-size="14.00">OUTPUT: </text>
<text text-anchor="middle" x="814.5" y="-232.8" font-family="Times,serif" font-size="14.00">INPUT: </text>
</g>
<!-- E10 -->
<g id="node11" class="node"><title>E10</title>
<ellipse fill="azure" stroke="black" cx="506.5" cy="-91" rx="75.2868" ry="18"/>
<text text-anchor="middle" x="506.5" y="-87.3" font-family="Times,serif" font-size="14.00">spread (S9,P422)</text>
</g>
<!-- E9&#45;&gt;E10 -->
<g id="edge22" class="edge"><title>E9&#45;&gt;E10</title>
<path fill="none" stroke="black" d="M666.394,-176.155C633.639,-158.915 581.169,-131.3 545.335,-112.439"/>
<polygon fill="black" stroke="black" points="546.632,-109.167 536.152,-107.607 543.372,-115.361 546.632,-109.167"/>
<text text-anchor="middle" x="688.5" y="-145.8" font-family="Times,serif" font-size="14.00">OUTPUT: </text>
<text text-anchor="middle" x="688.5" y="-130.8" font-family="Times,serif" font-size="14.00">INPUT: each muffin</text>
</g>
<!-- EOR -->
<g id="node25" class="node"><title>EOR</title>
<ellipse fill="plum" stroke="black" cx="506.5" cy="-18" rx="57.3905" ry="18"/>
<text text-anchor="middle" x="506.5" y="-14.3" font-family="Times,serif" font-size="14.00">Bon appetit!</text>
</g>
<!-- E10&#45;&gt;EOR -->
<g id="edge24" class="edge"><title>E10&#45;&gt;EOR</title>
<path fill="none" stroke="black" d="M506.5,-72.8129C506.5,-64.7895 506.5,-55.0475 506.5,-46.0691"/>
<polygon fill="black" stroke="black" points="510,-46.0288 506.5,-36.0288 503,-46.0289 510,-46.0288"/>
</g>
<!-- D2 -->
<g id="node12" class="node"><title>D2</title>
<polygon fill="peachpuff" stroke="black" points="485,-1002 0,-1002 0,-964 485,-964 485,-1002"/>
<text text-anchor="middle" x="242.5" y="-986.8" font-family="Times,serif" font-size="14.00">DOBJ: baking powder, quick&#45;cooking rolled oats, all&#45;purpose flour, baking soda</text>
<text text-anchor="middle" x="242.5" y="-971.8" font-family="Times,serif" font-size="14.00">(text: flours , oats , baking powder, baking soda)</text>
</g>
<!-- D2&#45;&gt;E2 -->
<g id="edge1" class="edge"><title>D2&#45;&gt;E2</title>
<path fill="none" stroke="black" d="M283.781,-963.955C308.533,-953.135 340.002,-939.379 365.263,-928.337"/>
<polygon fill="black" stroke="black" points="366.853,-931.462 374.614,-924.25 364.049,-925.048 366.853,-931.462"/>
</g>
<!-- P2_0 -->
<g id="node13" class="node"><title>P2_0</title>
<polygon fill="white" stroke="black" points="649.5,-1001 503.5,-1001 503.5,-965 649.5,-965 649.5,-1001"/>
<text text-anchor="middle" x="576.5" y="-979.3" font-family="Times,serif" font-size="14.00">PREP: in a large bowl</text>
</g>
<!-- P2_0&#45;&gt;E2 -->
<g id="edge2" class="edge"><title>P2_0&#45;&gt;E2</title>
<path fill="none" stroke="black" d="M537.346,-964.885C512.274,-953.925 479.688,-939.681 453.69,-928.316"/>
<polygon fill="black" stroke="black" points="455,-925.07 444.436,-924.271 452.197,-931.484 455,-925.07"/>
</g>
<!-- D0 -->
<g id="node14" class="node"><title>D0</title>
<polygon fill="white" stroke="black" points="1674.5,-823 1356.5,-823 1356.5,-787 1674.5,-787 1674.5,-823"/>
<text text-anchor="middle" x="1515.5" y="-801.3" font-family="Times,serif" font-size="14.00">DOBJ: oven to 350 degrees F &#45;LRB&#45; 180 degrees C</text>
</g>
<!-- D0&#45;&gt;E0 -->
<g id="edge3" class="edge"><title>D0&#45;&gt;E0</title>
<path fill="none" stroke="black" d="M1515.5,-786.581C1515.5,-771.382 1515.5,-749.067 1515.5,-731.464"/>
<polygon fill="black" stroke="black" points="1519,-731.219 1515.5,-721.219 1512,-731.219 1519,-731.219"/>
</g>
<!-- P1_0_0 -->
<g id="node15" class="node"><title>P1_0_0</title>
<polygon fill="white" stroke="black" points="1428.5,-721 1256.5,-721 1256.5,-685 1428.5,-685 1428.5,-721"/>
<text text-anchor="middle" x="1342.5" y="-699.3" font-family="Times,serif" font-size="14.00">PREP: with cooking spray</text>
</g>
<!-- P1_0_0&#45;&gt;E1 -->
<g id="edge5" class="edge"><title>P1_0_0&#45;&gt;E1</title>
<path fill="none" stroke="black" d="M1342.5,-684.581C1342.5,-669.382 1342.5,-647.067 1342.5,-629.464"/>
<polygon fill="black" stroke="black" points="1346,-629.219 1342.5,-619.219 1339,-629.219 1346,-629.219"/>
</g>
<!-- D3_ing -->
<g id="node16" class="node"><title>D3_ing</title>
<polygon fill="peachpuff" stroke="black" points="1159,-927 506,-927 506,-889 1159,-889 1159,-927"/>
<text text-anchor="middle" x="832.5" y="-911.8" font-family="Times,serif" font-size="14.00">DOBJ: eggs, vanilla or maple extract, buttermilk, unsweetened applesauce, over&#45;ripe bananas, granulated sugar</text>
<text text-anchor="middle" x="832.5" y="-896.8" font-family="Times,serif" font-size="14.00">(text: bananas , &#160;eggs , &#160;applesauce , &#160;vanilla, &#160;sugar , &#160;buttermilk)</text>
</g>
<!-- D3_ing&#45;&gt;E3 -->
<g id="edge6" class="edge"><title>D3_ing&#45;&gt;E3</title>
<path fill="none" stroke="black" d="M832.5,-888.943C832.5,-873.531 832.5,-851.127 832.5,-833.488"/>
<polygon fill="black" stroke="black" points="836,-833.226 832.5,-823.226 829,-833.226 836,-833.226"/>
</g>
<!-- O3_0_0 -->
<g id="node17" class="node"><title>O3_0_0</title>
<polygon fill="white" stroke="black" points="1296,-926 1177,-926 1177,-890 1296,-890 1296,-926"/>
<text text-anchor="middle" x="1236.5" y="-904.3" font-family="Times,serif" font-size="14.00">OTHER: together</text>
</g>
<!-- O3_0_0&#45;&gt;E3 -->
<g id="edge8" class="edge"><title>O3_0_0&#45;&gt;E3</title>
<path fill="none" stroke="black" d="M1176.81,-891.14C1174,-890.413 1171.22,-889.696 1168.5,-889 1072.3,-864.387 960.273,-836.961 892.95,-820.613"/>
<polygon fill="black" stroke="black" points="893.487,-817.141 882.943,-818.184 891.836,-823.944 893.487,-817.141"/>
</g>
<!-- P4_0_0 -->
<g id="node18" class="node"><title>P4_0_0</title>
<polygon fill="white" stroke="black" points="1100.5,-823 924.5,-823 924.5,-787 1100.5,-787 1100.5,-823"/>
<text text-anchor="middle" x="1012.5" y="-801.3" font-family="Times,serif" font-size="14.00">PREP: over dry ingredients</text>
</g>
<!-- P4_0_0&#45;&gt;E4 -->
<g id="edge10" class="edge"><title>P4_0_0&#45;&gt;E4</title>
<path fill="none" stroke="black" d="M1004.66,-786.581C997.693,-771.095 987.4,-748.222 979.413,-730.473"/>
<polygon fill="black" stroke="black" points="982.544,-728.902 975.249,-721.219 976.161,-731.775 982.544,-728.902"/>
</g>
<!-- O5_0_0 -->
<g id="node19" class="node"><title>O5_0_0</title>
<polygon fill="white" stroke="black" points="1238,-721 1055,-721 1055,-685 1238,-685 1238,-721"/>
<text text-anchor="middle" x="1146.5" y="-699.3" font-family="Times,serif" font-size="14.00">OTHER: until just combined</text>
</g>
<!-- O5_0_0&#45;&gt;E5 -->
<g id="edge12" class="edge"><title>O5_0_0&#45;&gt;E5</title>
<path fill="none" stroke="black" d="M1146.5,-684.581C1146.5,-669.382 1146.5,-647.067 1146.5,-629.464"/>
<polygon fill="black" stroke="black" points="1150,-629.219 1146.5,-619.219 1143,-629.219 1150,-629.219"/>
</g>
<!-- P7_0_0 -->
<g id="node20" class="node"><title>P7_0_0</title>
<polygon fill="white" stroke="black" points="1165.5,-517 599.5,-517 599.5,-481 1165.5,-481 1165.5,-517"/>
<text text-anchor="middle" x="882.5" y="-495.3" font-family="Times,serif" font-size="14.00">PREP: for 20 to 25 minutes or until a tester inserted into the center of a muffin comes out clean</text>
</g>
<!-- P7_0_0&#45;&gt;E7 -->
<g id="edge16" class="edge"><title>P7_0_0&#45;&gt;E7</title>
<path fill="none" stroke="black" d="M900.267,-480.581C916.848,-464.325 941.73,-439.931 960.156,-421.867"/>
<polygon fill="black" stroke="black" points="962.923,-424.055 967.614,-414.555 958.023,-419.057 962.923,-424.055"/>
</g>
<!-- P8_0_0 -->
<g id="node21" class="node"><title>P8_0_0</title>
<polygon fill="white" stroke="black" points="742.5,-415 598.5,-415 598.5,-379 742.5,-379 742.5,-415"/>
<text text-anchor="middle" x="670.5" y="-393.3" font-family="Times,serif" font-size="14.00">PREP: for 10 minutes</text>
</g>
<!-- P8_0_0&#45;&gt;E8 -->
<g id="edge18" class="edge"><title>P8_0_0&#45;&gt;E8</title>
<path fill="none" stroke="black" d="M697.833,-378.809C725.111,-361.653 767.059,-335.271 796.251,-316.911"/>
<polygon fill="black" stroke="black" points="798.269,-319.777 804.871,-311.49 794.542,-313.851 798.269,-319.777"/>
</g>
<!-- O8_0_0 -->
<g id="node22" class="node"><title>O8_0_0</title>
<polygon fill="white" stroke="black" points="898,-415 761,-415 761,-379 898,-379 898,-415"/>
<text text-anchor="middle" x="829.5" y="-393.3" font-family="Times,serif" font-size="14.00">OTHER: cool in pan</text>
</g>
<!-- O8_0_0&#45;&gt;E8 -->
<g id="edge19" class="edge"><title>O8_0_0&#45;&gt;E8</title>
<path fill="none" stroke="black" d="M829.5,-378.581C829.5,-363.382 829.5,-341.067 829.5,-323.464"/>
<polygon fill="black" stroke="black" points="833,-323.219 829.5,-313.219 826,-323.219 833,-323.219"/>
</g>
<!-- O9_0_0 -->
<g id="node23" class="node"><title>O9_0_0</title>
<polygon fill="white" stroke="black" points="751.5,-313 529.5,-313 529.5,-277 751.5,-277 751.5,-313"/>
<text text-anchor="middle" x="640.5" y="-291.3" font-family="Times,serif" font-size="14.00">OTHER: to rack to cool completely</text>
</g>
<!-- O9_0_0&#45;&gt;E9 -->
<g id="edge21" class="edge"><title>O9_0_0&#45;&gt;E9</title>
<path fill="none" stroke="black" d="M650.254,-276.581C659.061,-260.856 672.131,-237.516 682.133,-219.656"/>
<polygon fill="black" stroke="black" points="685.212,-221.321 687.044,-210.886 679.104,-217.901 685.212,-221.321"/>
</g>
<!-- P10_0_0 -->
<g id="node24" class="node"><title>P10_0_0</title>
<polygon fill="white" stroke="black" points="599,-211 266,-211 266,-175 599,-175 599,-211"/>
<text text-anchor="middle" x="432.5" y="-189.3" font-family="Times,serif" font-size="14.00">PREP: with 1 tablespoon &#45;lrb&#45; 15 ml &#45;rrb&#45; of nutella ¨</text>
</g>
<!-- P10_0_0&#45;&gt;E10 -->
<g id="edge23" class="edge"><title>P10_0_0&#45;&gt;E10</title>
<path fill="none" stroke="black" d="M445.39,-174.581C457.133,-158.712 474.616,-135.087 487.877,-117.166"/>
<polygon fill="black" stroke="black" points="490.869,-119.006 494.004,-108.886 485.243,-114.842 490.869,-119.006"/>
</g>
</g>
</svg>
