<?xml version="1.0" encoding="UTF-8" standalone="no"?>
<!DOCTYPE svg PUBLIC "-//W3C//DTD SVG 1.1//EN"
 "http://www.w3.org/Graphics/SVG/1.1/DTD/svg11.dtd">
<!-- Generated by graphviz version 2.38.0 (20140413.2041)
 -->
<!-- Title: recipe Pages: 1 -->
<svg width="1461pt" height="604pt"
 viewBox="0.00 0.00 1460.50 604.00" xmlns="http://www.w3.org/2000/svg" xmlns:xlink="http://www.w3.org/1999/xlink">
<g id="graph0" class="graph" transform="scale(1 1) rotate(0) translate(4 600)">
<title>recipe</title>
<polygon fill="white" stroke="none" points="-4,4 -4,-600 1456.5,-600 1456.5,4 -4,4"/>
<!-- E0 -->
<g id="node1" class="node"><title>E0</title>
<ellipse fill="azure" stroke="black" cx="1293.5" cy="-398" rx="68.7879" ry="18"/>
<text text-anchor="middle" x="1293.5" y="-394.3" font-family="Times,serif" font-size="14.00">preheat (S0,P0)</text>
</g>
<!-- E1 -->
<g id="node2" class="node"><title>E1</title>
<ellipse fill="azure" stroke="black" cx="1133.5" cy="-295" rx="61.99" ry="18"/>
<text text-anchor="middle" x="1133.5" y="-291.3" font-family="Times,serif" font-size="14.00">coat (S1,P38)</text>
</g>
<!-- E0&#45;&gt;E1 -->
<g id="edge4" class="edge"><title>E0&#45;&gt;E1</title>
<path fill="none" stroke="black" d="M1268.5,-381.219C1241.14,-363.949 1197.15,-336.18 1166.86,-317.061"/>
<polygon fill="black" stroke="black" points="1168.65,-314.049 1158.32,-311.67 1164.91,-319.968 1168.65,-314.049"/>
<text text-anchor="middle" x="1313" y="-349.8" font-family="Times,serif" font-size="14.00">OUTPUT: </text>
<text text-anchor="middle" x="1313" y="-334.8" font-family="Times,serif" font-size="14.00">INPUT: a 12 cup muffin tin</text>
</g>
<!-- E5 -->
<g id="node6" class="node"><title>E5</title>
<ellipse fill="azure" stroke="black" cx="1000.5" cy="-193" rx="72.2875" ry="18"/>
<text text-anchor="middle" x="1000.5" y="-189.3" font-family="Times,serif" font-size="14.00">batter (S5,P220)</text>
</g>
<!-- E1&#45;&gt;E5 -->
<g id="edge12" class="edge"><title>E1&#45;&gt;E5</title>
<path fill="none" stroke="black" d="M1112.13,-277.933C1089.96,-261.267 1055.13,-235.076 1030.27,-216.385"/>
<polygon fill="black" stroke="black" points="1032.35,-213.571 1022.26,-210.359 1028.15,-219.166 1032.35,-213.571"/>
<text text-anchor="middle" x="1160" y="-247.8" font-family="Times,serif" font-size="14.00">OUTPUT: </text>
<text text-anchor="middle" x="1160" y="-232.8" font-family="Times,serif" font-size="14.00">INPUT: into muffin cups</text>
</g>
<!-- E2 -->
<g id="node3" class="node"><title>E2</title>
<ellipse fill="azure" stroke="black" cx="442.5" cy="-502" rx="69.5877" ry="18"/>
<text text-anchor="middle" x="442.5" y="-498.3" font-family="Times,serif" font-size="14.00">whisk (S2,P75)</text>
</g>
<!-- E3 -->
<g id="node4" class="node"><title>E3</title>
<ellipse fill="azure" stroke="black" cx="682.5" cy="-398" rx="65.7887" ry="18"/>
<text text-anchor="middle" x="682.5" y="-394.3" font-family="Times,serif" font-size="14.00">mix (S3,P135)</text>
</g>
<!-- E2&#45;&gt;E3 -->
<g id="edge6" class="edge"><title>E2&#45;&gt;E3</title>
<path fill="none" stroke="black" d="M477.142,-486.277C519.89,-468.109 592.603,-437.206 639.05,-417.466"/>
<polygon fill="black" stroke="black" points="640.423,-420.686 648.257,-413.553 637.685,-414.243 640.423,-420.686"/>
<text text-anchor="middle" x="623.5" y="-453.8" font-family="Times,serif" font-size="14.00">OUTPUT: </text>
<text text-anchor="middle" x="623.5" y="-438.8" font-family="Times,serif" font-size="14.00">INPUT: </text>
</g>
<!-- E4 -->
<g id="node5" class="node"><title>E4</title>
<ellipse fill="azure" stroke="black" cx="865.5" cy="-295" rx="63.0888" ry="18"/>
<text text-anchor="middle" x="865.5" y="-291.3" font-family="Times,serif" font-size="14.00">stir (S4,P193)</text>
</g>
<!-- E3&#45;&gt;E4 -->
<g id="edge9" class="edge"><title>E3&#45;&gt;E4</title>
<path fill="none" stroke="black" d="M710.294,-381.66C741.96,-364.183 793.835,-335.553 828.802,-316.254"/>
<polygon fill="black" stroke="black" points="830.681,-319.215 837.745,-311.318 827.299,-313.086 830.681,-319.215"/>
<text text-anchor="middle" x="833.5" y="-349.8" font-family="Times,serif" font-size="14.00">OUTPUT: </text>
<text text-anchor="middle" x="833.5" y="-334.8" font-family="Times,serif" font-size="14.00">INPUT: </text>
</g>
<!-- E4&#45;&gt;E5 -->
<g id="edge11" class="edge"><title>E4&#45;&gt;E5</title>
<path fill="none" stroke="black" d="M880.036,-277.37C892.884,-263.324 912.623,-243.275 932.5,-229 940.182,-223.483 948.855,-218.326 957.371,-213.757"/>
<polygon fill="black" stroke="black" points="959.22,-216.74 966.496,-209.039 956.006,-210.522 959.22,-216.74"/>
<text text-anchor="middle" x="964.5" y="-247.8" font-family="Times,serif" font-size="14.00">OUTPUT: </text>
<text text-anchor="middle" x="964.5" y="-232.8" font-family="Times,serif" font-size="14.00">INPUT: </text>
</g>
<!-- E6 -->
<g id="node7" class="node"><title>E6</title>
<ellipse fill="azure" stroke="black" cx="874.5" cy="-91" rx="68.7879" ry="18"/>
<text text-anchor="middle" x="874.5" y="-87.3" font-family="Times,serif" font-size="14.00">bake (S6,P241)</text>
</g>
<!-- E5&#45;&gt;E6 -->
<g id="edge14" class="edge"><title>E5&#45;&gt;E6</title>
<path fill="none" stroke="black" d="M979.975,-175.711C959.016,-159.076 926.317,-133.124 902.883,-114.527"/>
<polygon fill="black" stroke="black" points="905.024,-111.757 895.016,-108.282 900.673,-117.24 905.024,-111.757"/>
<text text-anchor="middle" x="988.5" y="-145.8" font-family="Times,serif" font-size="14.00">OUTPUT: </text>
<text text-anchor="middle" x="988.5" y="-130.8" font-family="Times,serif" font-size="14.00">INPUT: </text>
</g>
<!-- EOR -->
<g id="node17" class="node"><title>EOR</title>
<ellipse fill="plum" stroke="black" cx="874.5" cy="-18" rx="57.3905" ry="18"/>
<text text-anchor="middle" x="874.5" y="-14.3" font-family="Times,serif" font-size="14.00">Bon appetit!</text>
</g>
<!-- E6&#45;&gt;EOR -->
<g id="edge16" class="edge"><title>E6&#45;&gt;EOR</title>
<path fill="none" stroke="black" d="M874.5,-72.8129C874.5,-64.7895 874.5,-55.0475 874.5,-46.0691"/>
<polygon fill="black" stroke="black" points="878,-46.0288 874.5,-36.0288 871,-46.0289 878,-46.0288"/>
</g>
<!-- D0 -->
<g id="node8" class="node"><title>D0</title>
<polygon fill="white" stroke="black" points="1452.5,-520 1134.5,-520 1134.5,-484 1452.5,-484 1452.5,-520"/>
<text text-anchor="middle" x="1293.5" y="-498.3" font-family="Times,serif" font-size="14.00">DOBJ: oven to 400 degrees F &#45;LRB&#45; 205 degrees C</text>
</g>
<!-- D0&#45;&gt;E0 -->
<g id="edge1" class="edge"><title>D0&#45;&gt;E0</title>
<path fill="none" stroke="black" d="M1293.5,-483.697C1293.5,-467.923 1293.5,-444.364 1293.5,-426.094"/>
<polygon fill="black" stroke="black" points="1297,-426.047 1293.5,-416.047 1290,-426.047 1297,-426.047"/>
</g>
<!-- D2 -->
<g id="node9" class="node"><title>D2</title>
<polygon fill="peachpuff" stroke="black" points="539,-596 0,-596 0,-558 539,-558 539,-596"/>
<text text-anchor="middle" x="269.5" y="-580.8" font-family="Times,serif" font-size="14.00">DOBJ: baking powder, white sugar, ground cinnamon, all&#45;purpose flour, baking soda, salt</text>
<text text-anchor="middle" x="269.5" y="-565.8" font-family="Times,serif" font-size="14.00">(text: flour , baking powder , soda , cinnamon , salt , sugar)</text>
</g>
<!-- D2&#45;&gt;E2 -->
<g id="edge2" class="edge"><title>D2&#45;&gt;E2</title>
<path fill="none" stroke="black" d="M312.264,-557.955C338.464,-546.9 371.928,-532.779 398.374,-521.619"/>
<polygon fill="black" stroke="black" points="399.921,-524.766 407.774,-517.653 397.2,-518.316 399.921,-524.766"/>
</g>
<!-- O2_0 -->
<g id="node10" class="node"><title>O2_0</title>
<polygon fill="white" stroke="black" points="676,-595 557,-595 557,-559 676,-559 676,-595"/>
<text text-anchor="middle" x="616.5" y="-573.3" font-family="Times,serif" font-size="14.00">OTHER: together</text>
</g>
<!-- O2_0&#45;&gt;E2 -->
<g id="edge3" class="edge"><title>O2_0&#45;&gt;E2</title>
<path fill="none" stroke="black" d="M575.705,-558.885C549.018,-547.689 514.161,-533.065 486.798,-521.585"/>
<polygon fill="black" stroke="black" points="488.033,-518.307 477.457,-517.666 485.325,-524.762 488.033,-518.307"/>
</g>
<!-- P1_0_0 -->
<g id="node11" class="node"><title>P1_0_0</title>
<polygon fill="white" stroke="black" points="1207,-416 1034,-416 1034,-380 1207,-380 1207,-416"/>
<text text-anchor="middle" x="1120.5" y="-394.3" font-family="Times,serif" font-size="14.00">PREP: with nonstick spray</text>
</g>
<!-- P1_0_0&#45;&gt;E1 -->
<g id="edge5" class="edge"><title>P1_0_0&#45;&gt;E1</title>
<path fill="none" stroke="black" d="M1122.71,-379.867C1124.7,-364.341 1127.68,-341.2 1130,-323.156"/>
<polygon fill="black" stroke="black" points="1133.48,-323.582 1131.28,-313.217 1126.54,-322.689 1133.48,-323.582"/>
</g>
<!-- P3_0_ing -->
<g id="node12" class="node"><title>P3_0_ing</title>
<polygon fill="peachpuff" stroke="black" points="835,-521 530,-521 530,-483 835,-483 835,-521"/>
<text text-anchor="middle" x="682.5" y="-505.8" font-family="Times,serif" font-size="14.00">PREP: in mashed bananas, applesauce, egg whites</text>
<text text-anchor="middle" x="682.5" y="-490.8" font-family="Times,serif" font-size="14.00">(text: in &#160;applesauce , egg whites , &#160;banana mash)</text>
</g>
<!-- P3_0_ing&#45;&gt;E3 -->
<g id="edge7" class="edge"><title>P3_0_ing&#45;&gt;E3</title>
<path fill="none" stroke="black" d="M682.5,-482.764C682.5,-467.031 682.5,-444.083 682.5,-426.183"/>
<polygon fill="black" stroke="black" points="686,-426.06 682.5,-416.06 679,-426.06 686,-426.06"/>
</g>
<!-- O3_0_0 -->
<g id="node13" class="node"><title>O3_0_0</title>
<polygon fill="white" stroke="black" points="1038,-520 853,-520 853,-484 1038,-484 1038,-520"/>
<text text-anchor="middle" x="945.5" y="-498.3" font-family="Times,serif" font-size="14.00">OTHER: until just moistened</text>
</g>
<!-- O3_0_0&#45;&gt;E3 -->
<g id="edge8" class="edge"><title>O3_0_0&#45;&gt;E3</title>
<path fill="none" stroke="black" d="M901.48,-483.927C853.498,-465.319 777.078,-435.681 728.378,-416.793"/>
<polygon fill="black" stroke="black" points="729.613,-413.518 719.024,-413.165 727.081,-420.044 729.613,-413.518"/>
</g>
<!-- P4_0_ing -->
<g id="node14" class="node"><title>P4_0_ing</title>
<polygon fill="peachpuff" stroke="black" points="990.5,-417 766.5,-417 766.5,-379 990.5,-379 990.5,-417"/>
<text text-anchor="middle" x="878.5" y="-401.8" font-family="Times,serif" font-size="14.00">PREP: in semisweet chocolate chips</text>
<text text-anchor="middle" x="878.5" y="-386.8" font-family="Times,serif" font-size="14.00">(text: in chocolate chips)</text>
</g>
<!-- P4_0_ing&#45;&gt;E4 -->
<g id="edge10" class="edge"><title>P4_0_ing&#45;&gt;E4</title>
<path fill="none" stroke="black" d="M876.176,-378.943C874.192,-363.531 871.308,-341.127 869.038,-323.488"/>
<polygon fill="black" stroke="black" points="872.465,-322.698 867.717,-313.226 865.523,-323.591 872.465,-322.698"/>
</g>
<!-- O5_0_0 -->
<g id="node15" class="node"><title>O5_0_0</title>
<polygon fill="white" stroke="black" points="1054,-313 947,-313 947,-277 1054,-277 1054,-313"/>
<text text-anchor="middle" x="1000.5" y="-291.3" font-family="Times,serif" font-size="14.00">OTHER: divide</text>
</g>
<!-- O5_0_0&#45;&gt;E5 -->
<g id="edge13" class="edge"><title>O5_0_0&#45;&gt;E5</title>
<path fill="none" stroke="black" d="M1000.5,-276.581C1000.5,-261.382 1000.5,-239.067 1000.5,-221.464"/>
<polygon fill="black" stroke="black" points="1004,-221.219 1000.5,-211.219 997,-221.219 1004,-221.219"/>
</g>
<!-- P6_0_0 -->
<g id="node16" class="node"><title>P6_0_0</title>
<polygon fill="white" stroke="black" points="910.5,-211 732.5,-211 732.5,-175 910.5,-175 910.5,-211"/>
<text text-anchor="middle" x="821.5" y="-189.3" font-family="Times,serif" font-size="14.00">PREP: for 15 to 18 minutes</text>
</g>
<!-- P6_0_0&#45;&gt;E6 -->
<g id="edge15" class="edge"><title>P6_0_0&#45;&gt;E6</title>
<path fill="none" stroke="black" d="M830.732,-174.581C838.99,-159 851.21,-135.943 860.641,-118.149"/>
<polygon fill="black" stroke="black" points="863.96,-119.361 865.55,-108.886 857.775,-116.083 863.96,-119.361"/>
</g>
</g>
</svg>
