<?xml version="1.0" encoding="UTF-8" standalone="no"?>
<!DOCTYPE svg PUBLIC "-//W3C//DTD SVG 1.1//EN"
 "http://www.w3.org/Graphics/SVG/1.1/DTD/svg11.dtd">
<!-- Generated by graphviz version 2.38.0 (20140413.2041)
 -->
<!-- Title: recipe Pages: 1 -->
<svg width="1482pt" height="706pt"
 viewBox="0.00 0.00 1482.00 706.00" xmlns="http://www.w3.org/2000/svg" xmlns:xlink="http://www.w3.org/1999/xlink">
<g id="graph0" class="graph" transform="scale(1 1) rotate(0) translate(4 702)">
<title>recipe</title>
<polygon fill="white" stroke="none" points="-4,4 -4,-702 1478,-702 1478,4 -4,4"/>
<!-- E0 -->
<g id="node1" class="node"><title>E0</title>
<ellipse fill="azure" stroke="black" cx="1315" cy="-193" rx="68.7879" ry="18"/>
<text text-anchor="middle" x="1315" y="-189.3" font-family="Times,serif" font-size="14.00">preheat (S0,P0)</text>
</g>
<!-- E7 -->
<g id="node8" class="node"><title>E7</title>
<ellipse fill="azure" stroke="black" cx="1166" cy="-91" rx="68.7879" ry="18"/>
<text text-anchor="middle" x="1166" y="-87.3" font-family="Times,serif" font-size="14.00">bake (S7,P317)</text>
</g>
<!-- E0&#45;&gt;E7 -->
<g id="edge16" class="edge"><title>E0&#45;&gt;E7</title>
<path fill="none" stroke="black" d="M1291.06,-175.933C1265.97,-159.095 1226.4,-132.534 1198.5,-113.809"/>
<polygon fill="black" stroke="black" points="1200.13,-110.693 1189.88,-108.027 1196.23,-116.506 1200.13,-110.693"/>
<text text-anchor="middle" x="1351.5" y="-145.8" font-family="Times,serif" font-size="14.00">OUTPUT: </text>
<text text-anchor="middle" x="1351.5" y="-130.8" font-family="Times,serif" font-size="14.00">INPUT: in the preheated oven </text>
</g>
<!-- E1 -->
<g id="node2" class="node"><title>E1</title>
<ellipse fill="azure" stroke="black" cx="566" cy="-295" rx="69.5877" ry="18"/>
<text text-anchor="middle" x="566" y="-291.3" font-family="Times,serif" font-size="14.00">grease (S1,P45)</text>
</g>
<!-- E6 -->
<g id="node7" class="node"><title>E6</title>
<ellipse fill="azure" stroke="black" cx="685" cy="-193" rx="74.187" ry="18"/>
<text text-anchor="middle" x="685" y="-189.3" font-family="Times,serif" font-size="14.00">spoon (S6,P278)</text>
</g>
<!-- E1&#45;&gt;E6 -->
<g id="edge14" class="edge"><title>E1&#45;&gt;E6</title>
<path fill="none" stroke="black" d="M561.169,-277.018C558.204,-262.753 556.701,-242.578 567,-229 576.731,-216.17 590.959,-207.861 606.192,-202.522"/>
<polygon fill="black" stroke="black" points="607.25,-205.859 615.776,-199.569 605.188,-199.169 607.25,-205.859"/>
<text text-anchor="middle" x="675" y="-247.8" font-family="Times,serif" font-size="14.00">OUTPUT: </text>
<text text-anchor="middle" x="675" y="-232.8" font-family="Times,serif" font-size="14.00">INPUT: into the prepared muffin pan</text>
</g>
<!-- E2 -->
<g id="node3" class="node"><title>E2</title>
<ellipse fill="azure" stroke="black" cx="443" cy="-604" rx="61.1893" ry="18"/>
<text text-anchor="middle" x="443" y="-600.3" font-family="Times,serif" font-size="14.00">mix (S2,P80)</text>
</g>
<!-- E3 -->
<g id="node4" class="node"><title>E3</title>
<ellipse fill="azure" stroke="black" cx="591" cy="-501" rx="65.7887" ry="18"/>
<text text-anchor="middle" x="591" y="-497.3" font-family="Times,serif" font-size="14.00">mix (S3,P165)</text>
</g>
<!-- E2&#45;&gt;E3 -->
<g id="edge7" class="edge"><title>E2&#45;&gt;E3</title>
<path fill="none" stroke="black" d="M447.086,-585.977C451.53,-571.025 460.08,-549.726 475,-537 488.647,-525.361 506.071,-517.592 523.243,-512.407"/>
<polygon fill="black" stroke="black" points="524.58,-515.669 533.294,-509.642 522.724,-508.92 524.58,-515.669"/>
<text text-anchor="middle" x="552" y="-555.8" font-family="Times,serif" font-size="14.00">OUTPUT: </text>
<text text-anchor="middle" x="552" y="-540.8" font-family="Times,serif" font-size="14.00">INPUT: in a separate bowl</text>
</g>
<!-- E4 -->
<g id="node5" class="node"><title>E4</title>
<ellipse fill="azure" stroke="black" cx="767" cy="-398" rx="65.7887" ry="18"/>
<text text-anchor="middle" x="767" y="-394.3" font-family="Times,serif" font-size="14.00">mix (S4,P207)</text>
</g>
<!-- E3&#45;&gt;E4 -->
<g id="edge8" class="edge"><title>E3&#45;&gt;E4</title>
<path fill="none" stroke="black" d="M589.329,-482.742C588.918,-468.103 590.875,-447.539 603,-435 604.888,-433.048 660.181,-421.163 706.045,-411.575"/>
<polygon fill="black" stroke="black" points="706.889,-414.975 715.964,-409.507 705.46,-408.122 706.889,-414.975"/>
<text text-anchor="middle" x="683" y="-453.8" font-family="Times,serif" font-size="14.00">OUTPUT: </text>
<text text-anchor="middle" x="683" y="-438.8" font-family="Times,serif" font-size="14.00">INPUT: the banana mixture</text>
</g>
<!-- E5 -->
<g id="node6" class="node"><title>E5</title>
<ellipse fill="azure" stroke="black" cx="805" cy="-295" rx="66.0889" ry="18"/>
<text text-anchor="middle" x="805" y="-291.3" font-family="Times,serif" font-size="14.00">fold (S5,P257)</text>
</g>
<!-- E4&#45;&gt;E5 -->
<g id="edge11" class="edge"><title>E4&#45;&gt;E5</title>
<path fill="none" stroke="black" d="M773.446,-379.867C779.342,-364.196 788.157,-340.766 794.973,-322.651"/>
<polygon fill="black" stroke="black" points="798.277,-323.809 798.522,-313.217 791.725,-321.344 798.277,-323.809"/>
<text text-anchor="middle" x="824" y="-349.8" font-family="Times,serif" font-size="14.00">OUTPUT: </text>
<text text-anchor="middle" x="824" y="-334.8" font-family="Times,serif" font-size="14.00">INPUT: </text>
</g>
<!-- E5&#45;&gt;E6 -->
<g id="edge13" class="edge"><title>E5&#45;&gt;E6</title>
<path fill="none" stroke="black" d="M803.344,-276.926C801.073,-262.405 795.698,-241.911 783,-229 774.154,-220.005 762.841,-213.313 751.067,-208.337"/>
<polygon fill="black" stroke="black" points="752.154,-205.005 741.563,-204.703 749.653,-211.544 752.154,-205.005"/>
<text text-anchor="middle" x="850.5" y="-247.8" font-family="Times,serif" font-size="14.00">OUTPUT: </text>
<text text-anchor="middle" x="850.5" y="-232.8" font-family="Times,serif" font-size="14.00">INPUT: the batter</text>
</g>
<!-- E6&#45;&gt;E7 -->
<g id="edge17" class="edge"><title>E6&#45;&gt;E7</title>
<path fill="none" stroke="black" d="M682.641,-174.919C681.635,-159.98 682.969,-138.868 696,-127 724.197,-101.318 960.635,-94.4797 1087.02,-92.6596"/>
<polygon fill="black" stroke="black" points="1087.09,-96.1591 1097.04,-92.5225 1087,-89.1598 1087.09,-96.1591"/>
<text text-anchor="middle" x="929" y="-145.8" font-family="Times,serif" font-size="14.00">OUTPUT: </text>
<text text-anchor="middle" x="929" y="-130.8" font-family="Times,serif" font-size="14.00">INPUT: in &#160;or until a toothpick inserted in the center of a muffin comes out clean</text>
</g>
<!-- EOR -->
<g id="node19" class="node"><title>EOR</title>
<ellipse fill="plum" stroke="black" cx="1166" cy="-18" rx="57.3905" ry="18"/>
<text text-anchor="middle" x="1166" y="-14.3" font-family="Times,serif" font-size="14.00">Bon appetit!</text>
</g>
<!-- E7&#45;&gt;EOR -->
<g id="edge18" class="edge"><title>E7&#45;&gt;EOR</title>
<path fill="none" stroke="black" d="M1166,-72.8129C1166,-64.7895 1166,-55.0475 1166,-46.0691"/>
<polygon fill="black" stroke="black" points="1169.5,-46.0288 1166,-36.0288 1162.5,-46.0289 1169.5,-46.0288"/>
</g>
<!-- D0 -->
<g id="node9" class="node"><title>D0</title>
<polygon fill="white" stroke="black" points="1474,-313 1156,-313 1156,-277 1474,-277 1474,-313"/>
<text text-anchor="middle" x="1315" y="-291.3" font-family="Times,serif" font-size="14.00">DOBJ: oven to 350 degrees F &#45;LRB&#45; 175 degrees C</text>
</g>
<!-- D0&#45;&gt;E0 -->
<g id="edge1" class="edge"><title>D0&#45;&gt;E0</title>
<path fill="none" stroke="black" d="M1315,-276.581C1315,-261.382 1315,-239.067 1315,-221.464"/>
<polygon fill="black" stroke="black" points="1318.5,-221.219 1315,-211.219 1311.5,-221.219 1318.5,-221.219"/>
</g>
<!-- D2 -->
<g id="node10" class="node"><title>D2</title>
<polygon fill="peachpuff" stroke="black" points="530,-698 0,-698 0,-660 530,-660 530,-698"/>
<text text-anchor="middle" x="265" y="-682.8" font-family="Times,serif" font-size="14.00">DOBJ: baking powder, brown sugar, ground cinnamon, whole wheat flour, baking soda</text>
<text text-anchor="middle" x="265" y="-667.8" font-family="Times,serif" font-size="14.00">(text: the whole wheat flour , brown sugar , cinnamon , baking powder , baking soda)</text>
</g>
<!-- D2&#45;&gt;E2 -->
<g id="edge2" class="edge"><title>D2&#45;&gt;E2</title>
<path fill="none" stroke="black" d="M309,-659.955C336.536,-648.662 371.87,-634.171 399.341,-622.905"/>
<polygon fill="black" stroke="black" points="400.78,-626.098 408.705,-619.065 398.124,-619.621 400.78,-626.098"/>
</g>
<!-- P2_0 -->
<g id="node11" class="node"><title>P2_0</title>
<polygon fill="white" stroke="black" points="694,-697 548,-697 548,-661 694,-661 694,-697"/>
<text text-anchor="middle" x="621" y="-675.3" font-family="Times,serif" font-size="14.00">PREP: in a large bowl</text>
</g>
<!-- P2_0&#45;&gt;E2 -->
<g id="edge3" class="edge"><title>P2_0&#45;&gt;E2</title>
<path fill="none" stroke="black" d="M579.267,-660.885C551.507,-649.5 515.105,-634.571 486.909,-623.008"/>
<polygon fill="black" stroke="black" points="487.886,-619.625 477.305,-619.069 485.229,-626.102 487.886,-619.625"/>
</g>
<!-- D1 -->
<g id="node12" class="node"><title>D1</title>
<polygon fill="white" stroke="black" points="542.5,-416 365.5,-416 365.5,-380 542.5,-380 542.5,-416"/>
<text text-anchor="middle" x="454" y="-394.3" font-family="Times,serif" font-size="14.00">DOBJ: a 12 cup muffin pan</text>
</g>
<!-- D1&#45;&gt;E1 -->
<g id="edge4" class="edge"><title>D1&#45;&gt;E1</title>
<path fill="none" stroke="black" d="M472.999,-379.867C491.483,-363.198 519.701,-337.752 540.207,-319.26"/>
<polygon fill="black" stroke="black" points="542.57,-321.842 547.652,-312.546 537.882,-316.643 542.57,-321.842"/>
</g>
<!-- O1_0 -->
<g id="node13" class="node"><title>O1_0</title>
<polygon fill="white" stroke="black" points="671,-416 561,-416 561,-380 671,-380 671,-416"/>
<text text-anchor="middle" x="616" y="-394.3" font-family="Times,serif" font-size="14.00">OTHER: lightly</text>
</g>
<!-- O1_0&#45;&gt;E1 -->
<g id="edge5" class="edge"><title>O1_0&#45;&gt;E1</title>
<path fill="none" stroke="black" d="M607.518,-379.867C599.677,-364.028 587.913,-340.263 578.906,-322.071"/>
<polygon fill="black" stroke="black" points="581.93,-320.289 574.357,-312.88 575.657,-323.395 581.93,-320.289"/>
</g>
<!-- D3_ing -->
<g id="node14" class="node"><title>D3_ing</title>
<polygon fill="peachpuff" stroke="black" points="830,-623 522,-623 522,-585 830,-585 830,-623"/>
<text text-anchor="middle" x="676" y="-607.8" font-family="Times,serif" font-size="14.00">DOBJ: vanilla extract, mashed bananas, egg whites</text>
<text text-anchor="middle" x="676" y="-592.8" font-family="Times,serif" font-size="14.00">(text: the bananas , &#160;egg whites , &#160;vanilla extract)</text>
</g>
<!-- D3_ing&#45;&gt;E3 -->
<g id="edge6" class="edge"><title>D3_ing&#45;&gt;E3</title>
<path fill="none" stroke="black" d="M666.189,-584.894C658.221,-571.025 646.176,-551.82 633,-537 629.295,-532.833 625.078,-528.735 620.78,-524.894"/>
<polygon fill="black" stroke="black" points="622.928,-522.125 613.048,-518.298 618.385,-527.451 622.928,-522.125"/>
</g>
<!-- P4_0_0 -->
<g id="node15" class="node"><title>P4_0_0</title>
<polygon fill="white" stroke="black" points="859,-519 675,-519 675,-483 859,-483 859,-519"/>
<text text-anchor="middle" x="767" y="-497.3" font-family="Times,serif" font-size="14.00">PREP: into the flour mixture</text>
</g>
<!-- P4_0_0&#45;&gt;E4 -->
<g id="edge9" class="edge"><title>P4_0_0&#45;&gt;E4</title>
<path fill="none" stroke="black" d="M767,-482.867C767,-467.414 767,-444.416 767,-426.409"/>
<polygon fill="black" stroke="black" points="770.5,-426.217 767,-416.217 763.5,-426.217 770.5,-426.217"/>
</g>
<!-- P4_1_0 -->
<g id="node16" class="node"><title>P4_1_0</title>
<polygon fill="white" stroke="black" points="1009,-519 877,-519 877,-483 1009,-483 1009,-519"/>
<text text-anchor="middle" x="943" y="-497.3" font-family="Times,serif" font-size="14.00">PREP: until smooth</text>
</g>
<!-- P4_1_0&#45;&gt;E4 -->
<g id="edge10" class="edge"><title>P4_1_0&#45;&gt;E4</title>
<path fill="none" stroke="black" d="M913.144,-482.867C882.665,-465.376 835.341,-438.219 802.852,-419.574"/>
<polygon fill="black" stroke="black" points="804.524,-416.498 794.108,-414.556 801.04,-422.569 804.524,-416.498"/>
</g>
<!-- P5_0_ing -->
<g id="node17" class="node"><title>P5_0_ing</title>
<polygon fill="peachpuff" stroke="black" points="1021,-417 851,-417 851,-379 1021,-379 1021,-417"/>
<text text-anchor="middle" x="936" y="-401.8" font-family="Times,serif" font-size="14.00">PREP: in fresh blueberries</text>
<text text-anchor="middle" x="936" y="-386.8" font-family="Times,serif" font-size="14.00">(text: in the blueberries)</text>
</g>
<!-- P5_0_ing&#45;&gt;E5 -->
<g id="edge12" class="edge"><title>P5_0_ing&#45;&gt;E5</title>
<path fill="none" stroke="black" d="M916.67,-378.795C901.696,-365.048 880.171,-346.046 860,-331 853.621,-326.242 846.597,-321.457 839.764,-317.019"/>
<polygon fill="black" stroke="black" points="841.588,-314.031 831.273,-311.612 837.828,-319.936 841.588,-314.031"/>
</g>
<!-- D7_0 -->
<g id="node18" class="node"><title>D7_0</title>
<polygon fill="white" stroke="black" points="1228,-211 1104,-211 1104,-175 1228,-175 1228,-211"/>
<text text-anchor="middle" x="1166" y="-189.3" font-family="Times,serif" font-size="14.00">DOBJ: 16 minutes</text>
</g>
<!-- D7_0&#45;&gt;E7 -->
<g id="edge15" class="edge"><title>D7_0&#45;&gt;E7</title>
<path fill="none" stroke="black" d="M1166,-174.581C1166,-159.382 1166,-137.067 1166,-119.464"/>
<polygon fill="black" stroke="black" points="1169.5,-119.219 1166,-109.219 1162.5,-119.219 1169.5,-119.219"/>
</g>
</g>
</svg>
