<?xml version="1.0" encoding="UTF-8" standalone="no"?>
<!DOCTYPE svg PUBLIC "-//W3C//DTD SVG 1.1//EN"
 "http://www.w3.org/Graphics/SVG/1.1/DTD/svg11.dtd">
<!-- Generated by graphviz version 2.38.0 (20140413.2041)
 -->
<!-- Title: recipe Pages: 1 -->
<svg width="1757pt" height="910pt"
 viewBox="0.00 0.00 1757.00 910.00" xmlns="http://www.w3.org/2000/svg" xmlns:xlink="http://www.w3.org/1999/xlink">
<g id="graph0" class="graph" transform="scale(1 1) rotate(0) translate(4 906)">
<title>recipe</title>
<polygon fill="white" stroke="none" points="-4,4 -4,-906 1753,-906 1753,4 -4,4"/>
<!-- E0 -->
<g id="node1" class="node"><title>E0</title>
<ellipse fill="azure" stroke="black" cx="1566" cy="-193" rx="68.7879" ry="18"/>
<text text-anchor="middle" x="1566" y="-189.3" font-family="Times,serif" font-size="14.00">preheat (S0,P0)</text>
</g>
<!-- E10 -->
<g id="node11" class="node"><title>E10</title>
<ellipse fill="azure" stroke="black" cx="1236" cy="-91" rx="68.7879" ry="18"/>
<text text-anchor="middle" x="1236" y="-87.3" font-family="Times,serif" font-size="14.00">bake (S8,P290)</text>
</g>
<!-- E0&#45;&gt;E10 -->
<g id="edge21" class="edge"><title>E0&#45;&gt;E10</title>
<path fill="none" stroke="black" d="M1522.86,-178.927C1462.7,-160.698 1353.72,-127.673 1288.79,-107.997"/>
<polygon fill="black" stroke="black" points="1289.74,-104.627 1279.15,-105.076 1287.71,-111.326 1289.74,-104.627"/>
<text text-anchor="middle" x="1599.5" y="-145.8" font-family="Times,serif" font-size="14.00">OUTPUT: </text>
<text text-anchor="middle" x="1599.5" y="-130.8" font-family="Times,serif" font-size="14.00">INPUT: in the preheated oven for 20 to 25 minutes </text>
</g>
<!-- E1 -->
<g id="node2" class="node"><title>E1</title>
<ellipse fill="azure" stroke="black" cx="806" cy="-295" rx="106.681" ry="18"/>
<text text-anchor="middle" x="806" y="-291.3" font-family="Times,serif" font-size="14.00">grease and flour (S1,P38)</text>
</g>
<!-- E9 -->
<g id="node10" class="node"><title>E9</title>
<ellipse fill="azure" stroke="black" cx="900" cy="-193" rx="74.187" ry="18"/>
<text text-anchor="middle" x="900" y="-189.3" font-family="Times,serif" font-size="14.00">spoon (S7,P270)</text>
</g>
<!-- E1&#45;&gt;E9 -->
<g id="edge19" class="edge"><title>E1&#45;&gt;E9</title>
<path fill="none" stroke="black" d="M806.507,-276.964C807.778,-262.665 811.653,-242.471 823,-229 828.905,-221.989 836.508,-216.316 844.631,-211.746"/>
<polygon fill="black" stroke="black" points="846.252,-214.848 853.592,-207.208 843.09,-208.603 846.252,-214.848"/>
<text text-anchor="middle" x="895.5" y="-247.8" font-family="Times,serif" font-size="14.00">OUTPUT: </text>
<text text-anchor="middle" x="895.5" y="-232.8" font-family="Times,serif" font-size="14.00">INPUT: into muffin cups</text>
</g>
<!-- E2 -->
<g id="node3" class="node"><title>E2</title>
<ellipse fill="azure" stroke="black" cx="64" cy="-810" rx="58.4896" ry="18"/>
<text text-anchor="middle" x="64" y="-806.3" font-family="Times,serif" font-size="14.00">use (S1,P65)</text>
</g>
<!-- E3 -->
<g id="node4" class="node"><title>E3</title>
<ellipse fill="azure" stroke="black" cx="180" cy="-707" rx="78.7863" ry="18"/>
<text text-anchor="middle" x="180" y="-703.3" font-family="Times,serif" font-size="14.00">combine (S2,P93)</text>
</g>
<!-- E2&#45;&gt;E3 -->
<g id="edge7" class="edge"><title>E2&#45;&gt;E3</title>
<path fill="none" stroke="black" d="M65.0279,-791.718C66.787,-777.009 71.4927,-756.22 84,-743 92.0152,-734.528 102.245,-728.099 113.023,-723.223"/>
<polygon fill="black" stroke="black" points="114.653,-726.338 122.594,-719.325 112.012,-719.855 114.653,-726.338"/>
<text text-anchor="middle" x="152.5" y="-761.8" font-family="Times,serif" font-size="14.00">OUTPUT: </text>
<text text-anchor="middle" x="152.5" y="-746.8" font-family="Times,serif" font-size="14.00">INPUT: in a large bowl</text>
</g>
<!-- E4 -->
<g id="node5" class="node"><title>E4</title>
<ellipse fill="azure" stroke="black" cx="302" cy="-604" rx="66.0889" ry="18"/>
<text text-anchor="middle" x="302" y="-600.3" font-family="Times,serif" font-size="14.00">beat (S3,P117)</text>
</g>
<!-- E3&#45;&gt;E4 -->
<g id="edge8" class="edge"><title>E3&#45;&gt;E4</title>
<path fill="none" stroke="black" d="M196.648,-689.265C210.461,-675.698 230.868,-656.375 250,-641 256.002,-636.177 262.617,-631.294 269.06,-626.748"/>
<polygon fill="black" stroke="black" points="271.434,-629.361 277.665,-620.792 267.45,-623.605 271.434,-629.361"/>
<text text-anchor="middle" x="282" y="-659.8" font-family="Times,serif" font-size="14.00">OUTPUT: </text>
<text text-anchor="middle" x="282" y="-644.8" font-family="Times,serif" font-size="14.00">INPUT: </text>
</g>
<!-- E5 -->
<g id="node6" class="node"><title>E5</title>
<ellipse fill="azure" stroke="black" cx="510" cy="-501" rx="72.2875" ry="18"/>
<text text-anchor="middle" x="510" y="-497.3" font-family="Times,serif" font-size="14.00">blend (S4,P133)</text>
</g>
<!-- E4&#45;&gt;E5 -->
<g id="edge10" class="edge"><title>E4&#45;&gt;E5</title>
<path fill="none" stroke="black" d="M333.14,-587.879C369.442,-570.252 429.545,-541.067 469.46,-521.685"/>
<polygon fill="black" stroke="black" points="471.181,-524.741 478.647,-517.224 468.123,-518.444 471.181,-524.741"/>
<text text-anchor="middle" x="469" y="-555.8" font-family="Times,serif" font-size="14.00">OUTPUT: </text>
<text text-anchor="middle" x="469" y="-540.8" font-family="Times,serif" font-size="14.00">INPUT: </text>
</g>
<!-- E7 -->
<g id="node8" class="node"><title>E7</title>
<ellipse fill="azure" stroke="black" cx="964" cy="-398" rx="63.0888" ry="18"/>
<text text-anchor="middle" x="964" y="-394.3" font-family="Times,serif" font-size="14.00">stir (S5,P218)</text>
</g>
<!-- E5&#45;&gt;E7 -->
<g id="edge13" class="edge"><title>E5&#45;&gt;E7</title>
<path fill="none" stroke="black" d="M553.391,-486.432C601.153,-471.924 680.405,-449.108 750,-435 808.029,-423.236 823.703,-427.356 882,-417 890.06,-415.568 898.53,-413.898 906.842,-412.164"/>
<polygon fill="black" stroke="black" points="907.815,-415.535 916.866,-410.027 906.356,-408.689 907.815,-415.535"/>
<text text-anchor="middle" x="823" y="-453.8" font-family="Times,serif" font-size="14.00">OUTPUT: </text>
<text text-anchor="middle" x="823" y="-438.8" font-family="Times,serif" font-size="14.00">INPUT: into egg mixture</text>
</g>
<!-- E6 -->
<g id="node7" class="node"><title>E6</title>
<ellipse fill="azure" stroke="black" cx="885" cy="-501" rx="65.7887" ry="18"/>
<text text-anchor="middle" x="885" y="-497.3" font-family="Times,serif" font-size="14.00">mix (S5,P157)</text>
</g>
<!-- E6&#45;&gt;E7 -->
<g id="edge12" class="edge"><title>E6&#45;&gt;E7</title>
<path fill="none" stroke="black" d="M890.866,-483.018C896.22,-469.129 905.109,-449.486 917,-435 921.108,-429.995 926.041,-425.273 931.144,-420.998"/>
<polygon fill="black" stroke="black" points="933.5,-423.598 939.207,-414.672 929.179,-418.09 933.5,-423.598"/>
<text text-anchor="middle" x="949" y="-453.8" font-family="Times,serif" font-size="14.00">OUTPUT: </text>
<text text-anchor="middle" x="949" y="-438.8" font-family="Times,serif" font-size="14.00">INPUT: </text>
</g>
<!-- E8 -->
<g id="node9" class="node"><title>E8</title>
<ellipse fill="azure" stroke="black" cx="996" cy="-295" rx="65.7887" ry="18"/>
<text text-anchor="middle" x="996" y="-291.3" font-family="Times,serif" font-size="14.00">mix (S6,P255)</text>
</g>
<!-- E7&#45;&gt;E8 -->
<g id="edge16" class="edge"><title>E7&#45;&gt;E8</title>
<path fill="none" stroke="black" d="M969.428,-379.867C974.37,-364.269 981.748,-340.983 987.476,-322.903"/>
<polygon fill="black" stroke="black" points="990.861,-323.807 990.545,-313.217 984.188,-321.693 990.861,-323.807"/>
<text text-anchor="middle" x="1017" y="-349.8" font-family="Times,serif" font-size="14.00">OUTPUT: </text>
<text text-anchor="middle" x="1017" y="-334.8" font-family="Times,serif" font-size="14.00">INPUT: </text>
</g>
<!-- E8&#45;&gt;E9 -->
<g id="edge18" class="edge"><title>E8&#45;&gt;E9</title>
<path fill="none" stroke="black" d="M992.123,-277.01C988.128,-262.739 980.662,-242.562 968,-229 962.393,-222.995 955.525,-217.848 948.331,-213.495"/>
<polygon fill="black" stroke="black" points="949.562,-210.177 939.117,-208.402 946.175,-216.303 949.562,-210.177"/>
<text text-anchor="middle" x="1018" y="-247.8" font-family="Times,serif" font-size="14.00">OUTPUT: </text>
<text text-anchor="middle" x="1018" y="-232.8" font-family="Times,serif" font-size="14.00">INPUT: </text>
</g>
<!-- E9&#45;&gt;E10 -->
<g id="edge20" class="edge"><title>E9&#45;&gt;E10</title>
<path fill="none" stroke="black" d="M944.966,-178.617C1006.54,-160.292 1116.92,-127.44 1182.61,-107.888"/>
<polygon fill="black" stroke="black" points="1183.78,-111.194 1192.37,-104.986 1181.78,-104.484 1183.78,-111.194"/>
<text text-anchor="middle" x="1150" y="-145.8" font-family="Times,serif" font-size="14.00">OUTPUT: </text>
<text text-anchor="middle" x="1150" y="-130.8" font-family="Times,serif" font-size="14.00">INPUT: </text>
</g>
<!-- EOR -->
<g id="node24" class="node"><title>EOR</title>
<ellipse fill="plum" stroke="black" cx="1236" cy="-18" rx="57.3905" ry="18"/>
<text text-anchor="middle" x="1236" y="-14.3" font-family="Times,serif" font-size="14.00">Bon appetit!</text>
</g>
<!-- E10&#45;&gt;EOR -->
<g id="edge23" class="edge"><title>E10&#45;&gt;EOR</title>
<path fill="none" stroke="black" d="M1236,-72.8129C1236,-64.7895 1236,-55.0475 1236,-46.0691"/>
<polygon fill="black" stroke="black" points="1239.5,-46.0288 1236,-36.0288 1232.5,-46.0289 1239.5,-46.0288"/>
</g>
<!-- D2 -->
<g id="node12" class="node"><title>D2</title>
<polygon fill="white" stroke="black" points="128,-902 0,-902 0,-866 128,-866 128,-902"/>
<text text-anchor="middle" x="64" y="-880.3" font-family="Times,serif" font-size="14.00">DOBJ: paper liners</text>
</g>
<!-- D2&#45;&gt;E2 -->
<g id="edge1" class="edge"><title>D2&#45;&gt;E2</title>
<path fill="none" stroke="black" d="M64,-865.937C64,-857.807 64,-847.876 64,-838.705"/>
<polygon fill="black" stroke="black" points="67.5001,-838.441 64,-828.441 60.5001,-838.441 67.5001,-838.441"/>
</g>
<!-- D6 -->
<g id="node13" class="node"><title>D6</title>
<polygon fill="peachpuff" stroke="black" points="1117.5,-623 652.5,-623 652.5,-585 1117.5,-585 1117.5,-623"/>
<text text-anchor="middle" x="885" y="-607.8" font-family="Times,serif" font-size="14.00">DOBJ: baking powder, ground cinnamon, all&#45;purpose flour, baking soda, salt</text>
<text text-anchor="middle" x="885" y="-592.8" font-family="Times,serif" font-size="14.00">(text: flour , baking powder , baking soda , salt, cinnamon)</text>
</g>
<!-- D6&#45;&gt;E6 -->
<g id="edge2" class="edge"><title>D6&#45;&gt;E6</title>
<path fill="none" stroke="black" d="M885,-584.943C885,-569.531 885,-547.127 885,-529.488"/>
<polygon fill="black" stroke="black" points="888.5,-529.226 885,-519.226 881.5,-529.226 888.5,-529.226"/>
</g>
<!-- O6_0 -->
<g id="node14" class="node"><title>O6_0</title>
<polygon fill="white" stroke="black" points="1254.5,-622 1135.5,-622 1135.5,-586 1254.5,-586 1254.5,-622"/>
<text text-anchor="middle" x="1195" y="-600.3" font-family="Times,serif" font-size="14.00">OTHER: together</text>
</g>
<!-- O6_0&#45;&gt;E6 -->
<g id="edge3" class="edge"><title>O6_0&#45;&gt;E6</title>
<path fill="none" stroke="black" d="M1142.76,-585.981C1084.86,-567.115 992.123,-536.901 935.093,-518.321"/>
<polygon fill="black" stroke="black" points="936.16,-514.987 925.568,-515.217 933.991,-521.643 936.16,-514.987"/>
</g>
<!-- D0 -->
<g id="node15" class="node"><title>D0</title>
<polygon fill="white" stroke="black" points="1725,-313 1407,-313 1407,-277 1725,-277 1725,-313"/>
<text text-anchor="middle" x="1566" y="-291.3" font-family="Times,serif" font-size="14.00">DOBJ: oven to 350 degrees F &#45;LRB&#45; 175 degrees C</text>
</g>
<!-- D0&#45;&gt;E0 -->
<g id="edge4" class="edge"><title>D0&#45;&gt;E0</title>
<path fill="none" stroke="black" d="M1566,-276.581C1566,-261.382 1566,-239.067 1566,-221.464"/>
<polygon fill="black" stroke="black" points="1569.5,-221.219 1566,-211.219 1562.5,-221.219 1569.5,-221.219"/>
</g>
<!-- D1 -->
<g id="node16" class="node"><title>D1</title>
<polygon fill="white" stroke="black" points="873,-416 739,-416 739,-380 873,-380 873,-416"/>
<text text-anchor="middle" x="806" y="-394.3" font-family="Times,serif" font-size="14.00">DOBJ: a muffin pan</text>
</g>
<!-- D1&#45;&gt;E1 -->
<g id="edge5" class="edge"><title>D1&#45;&gt;E1</title>
<path fill="none" stroke="black" d="M806,-379.867C806,-364.414 806,-341.416 806,-323.409"/>
<polygon fill="black" stroke="black" points="809.5,-323.217 806,-313.217 802.5,-323.217 809.5,-323.217"/>
</g>
<!-- D3_ing -->
<g id="node17" class="node"><title>D3_ing</title>
<polygon fill="peachpuff" stroke="black" points="374,-829 140,-829 140,-791 374,-791 374,-829"/>
<text text-anchor="middle" x="257" y="-813.8" font-family="Times,serif" font-size="14.00">DOBJ: vegetable oil, white sugar, egg</text>
<text text-anchor="middle" x="257" y="-798.8" font-family="Times,serif" font-size="14.00">(text: &#160;eggs, &#160;oil, sugar )</text>
</g>
<!-- D3_ing&#45;&gt;E3 -->
<g id="edge6" class="edge"><title>D3_ing&#45;&gt;E3</title>
<path fill="none" stroke="black" d="M250.833,-790.919C245.462,-776.884 236.699,-757.449 225,-743 221.497,-738.673 217.36,-734.558 213.038,-730.77"/>
<polygon fill="black" stroke="black" points="215.114,-727.946 205.155,-724.331 210.686,-733.368 215.114,-727.946"/>
</g>
<!-- P4_0_0 -->
<g id="node18" class="node"><title>P4_0_0</title>
<polygon fill="white" stroke="black" points="409,-725 277,-725 277,-689 409,-689 409,-725"/>
<text text-anchor="middle" x="343" y="-703.3" font-family="Times,serif" font-size="14.00">PREP: until smooth</text>
</g>
<!-- P4_0_0&#45;&gt;E4 -->
<g id="edge9" class="edge"><title>P4_0_0&#45;&gt;E4</title>
<path fill="none" stroke="black" d="M336.045,-688.867C329.684,-673.196 320.173,-649.766 312.819,-631.651"/>
<polygon fill="black" stroke="black" points="315.994,-630.167 308.989,-622.217 309.508,-632.799 315.994,-630.167"/>
</g>
<!-- P5_0_ing -->
<g id="node19" class="node"><title>P5_0_ing</title>
<polygon fill="peachpuff" stroke="black" points="634,-623 386,-623 386,-585 634,-585 634,-623"/>
<text text-anchor="middle" x="510" y="-607.8" font-family="Times,serif" font-size="14.00">PREP: in vanilla extract, mashed banana</text>
<text text-anchor="middle" x="510" y="-592.8" font-family="Times,serif" font-size="14.00">(text: in banana, &#160;vanilla)</text>
</g>
<!-- P5_0_ing&#45;&gt;E5 -->
<g id="edge11" class="edge"><title>P5_0_ing&#45;&gt;E5</title>
<path fill="none" stroke="black" d="M510,-584.943C510,-569.531 510,-547.127 510,-529.488"/>
<polygon fill="black" stroke="black" points="513.5,-529.226 510,-519.226 506.5,-529.226 513.5,-529.226"/>
</g>
<!-- O7_0_0 -->
<g id="node20" class="node"><title>O7_0_0</title>
<polygon fill="white" stroke="black" points="1065.5,-519 968.5,-519 968.5,-483 1065.5,-483 1065.5,-519"/>
<text text-anchor="middle" x="1017" y="-497.3" font-family="Times,serif" font-size="14.00">OTHER: then</text>
</g>
<!-- O7_0_0&#45;&gt;E7 -->
<g id="edge14" class="edge"><title>O7_0_0&#45;&gt;E7</title>
<path fill="none" stroke="black" d="M1008.01,-482.867C999.66,-466.955 987.112,-443.044 977.549,-424.82"/>
<polygon fill="black" stroke="black" points="980.604,-423.109 972.858,-415.88 974.405,-426.361 980.604,-423.109"/>
</g>
<!-- O7_1_0 -->
<g id="node21" class="node"><title>O7_1_0</title>
<polygon fill="white" stroke="black" points="1268.5,-519 1083.5,-519 1083.5,-483 1268.5,-483 1268.5,-519"/>
<text text-anchor="middle" x="1176" y="-497.3" font-family="Times,serif" font-size="14.00">OTHER: until just moistened</text>
</g>
<!-- O7_1_0&#45;&gt;E7 -->
<g id="edge15" class="edge"><title>O7_1_0&#45;&gt;E7</title>
<path fill="none" stroke="black" d="M1140.04,-482.867C1102.46,-464.967 1043.64,-436.943 1004.47,-418.281"/>
<polygon fill="black" stroke="black" points="1005.49,-414.891 994.96,-413.75 1002.48,-421.21 1005.49,-414.891"/>
</g>
<!-- P8_0_ing -->
<g id="node22" class="node"><title>P8_0_ing</title>
<polygon fill="peachpuff" stroke="black" points="1248.5,-417 1045.5,-417 1045.5,-379 1248.5,-379 1248.5,-417"/>
<text text-anchor="middle" x="1147" y="-401.8" font-family="Times,serif" font-size="14.00">PREP: in chopped pitted prunes</text>
<text text-anchor="middle" x="1147" y="-386.8" font-family="Times,serif" font-size="14.00">(text: in the prunes)</text>
</g>
<!-- P8_0_ing&#45;&gt;E8 -->
<g id="edge17" class="edge"><title>P8_0_ing&#45;&gt;E8</title>
<path fill="none" stroke="black" d="M1122.15,-378.928C1103.37,-365.419 1076.83,-346.66 1053,-331 1046.04,-326.426 1038.51,-321.668 1031.27,-317.188"/>
<polygon fill="black" stroke="black" points="1032.67,-313.944 1022.32,-311.696 1029.01,-319.91 1032.67,-313.944"/>
</g>
<!-- P10_0_1 -->
<g id="node23" class="node"><title>P10_0_1</title>
<polygon fill="white" stroke="black" points="1479.5,-211 992.5,-211 992.5,-175 1479.5,-175 1479.5,-211"/>
<text text-anchor="middle" x="1236" y="-189.3" font-family="Times,serif" font-size="14.00">PREP: in &#160;or until a toothpick inserted into the center of a muffin comes out clean</text>
</g>
<!-- P10_0_1&#45;&gt;E10 -->
<g id="edge22" class="edge"><title>P10_0_1&#45;&gt;E10</title>
<path fill="none" stroke="black" d="M1236,-174.581C1236,-159.382 1236,-137.067 1236,-119.464"/>
<polygon fill="black" stroke="black" points="1239.5,-119.219 1236,-109.219 1232.5,-119.219 1239.5,-119.219"/>
</g>
</g>
</svg>
