<?xml version="1.0" encoding="UTF-8" standalone="no"?>
<!DOCTYPE svg PUBLIC "-//W3C//DTD SVG 1.1//EN"
 "http://www.w3.org/Graphics/SVG/1.1/DTD/svg11.dtd">
<!-- Generated by graphviz version 2.38.0 (20140413.2041)
 -->
<!-- Title: recipe Pages: 1 -->
<svg width="2018pt" height="1012pt"
 viewBox="0.00 0.00 2018.00 1012.00" xmlns="http://www.w3.org/2000/svg" xmlns:xlink="http://www.w3.org/1999/xlink">
<g id="graph0" class="graph" transform="scale(1 1) rotate(0) translate(4 1008)">
<title>recipe</title>
<polygon fill="white" stroke="none" points="-4,4 -4,-1008 2014,-1008 2014,4 -4,4"/>
<!-- E0 -->
<g id="node1" class="node"><title>E0</title>
<ellipse fill="azure" stroke="black" cx="1655" cy="-602" rx="68.7879" ry="18"/>
<text text-anchor="middle" x="1655" y="-598.3" font-family="Times,serif" font-size="14.00">preheat (S0,P0)</text>
</g>
<!-- E5 -->
<g id="node6" class="node"><title>E5</title>
<ellipse fill="azure" stroke="black" cx="1352" cy="-499" rx="120.779" ry="18"/>
<text text-anchor="middle" x="1352" y="-495.3" font-family="Times,serif" font-size="14.00">do like bowl mash (S8,P231)</text>
</g>
<!-- E0&#45;&gt;E5 -->
<g id="edge15" class="edge"><title>E0&#45;&gt;E5</title>
<path fill="none" stroke="black" d="M1614.14,-587.379C1561.12,-569.705 1468.34,-538.782 1408.58,-518.86"/>
<polygon fill="black" stroke="black" points="1409.51,-515.481 1398.92,-515.639 1407.3,-522.122 1409.51,-515.481"/>
<text text-anchor="middle" x="1598.5" y="-553.8" font-family="Times,serif" font-size="14.00">OUTPUT: </text>
<text text-anchor="middle" x="1598.5" y="-538.8" font-family="Times,serif" font-size="14.00">INPUT: the bananas</text>
</g>
<!-- E1 -->
<g id="node2" class="node"><title>E1</title>
<ellipse fill="azure" stroke="black" cx="567" cy="-911" rx="78.7863" ry="18"/>
<text text-anchor="middle" x="567" y="-907.3" font-family="Times,serif" font-size="14.00">combine (S2,P78)</text>
</g>
<!-- E2 -->
<g id="node3" class="node"><title>E2</title>
<ellipse fill="azure" stroke="black" cx="674" cy="-808" rx="90.9839" ry="18"/>
<text text-anchor="middle" x="674" y="-804.3" font-family="Times,serif" font-size="14.00">stir and set (S3,P109)</text>
</g>
<!-- E1&#45;&gt;E2 -->
<g id="edge8" class="edge"><title>E1&#45;&gt;E2</title>
<path fill="none" stroke="black" d="M579.246,-893.185C589.735,-879.394 605.691,-859.804 622,-845 627.244,-840.24 633.147,-835.593 639.043,-831.305"/>
<polygon fill="black" stroke="black" points="641.42,-833.913 647.6,-825.307 637.402,-828.181 641.42,-833.913"/>
<text text-anchor="middle" x="654" y="-863.8" font-family="Times,serif" font-size="14.00">OUTPUT: </text>
<text text-anchor="middle" x="654" y="-848.8" font-family="Times,serif" font-size="14.00">INPUT: </text>
</g>
<!-- E3 -->
<g id="node4" class="node"><title>E3</title>
<ellipse fill="azure" stroke="black" cx="1062" cy="-705" rx="65.7887" ry="18"/>
<text text-anchor="middle" x="1062" y="-701.3" font-family="Times,serif" font-size="14.00">mix (S4,P139)</text>
</g>
<!-- E2&#45;&gt;E3 -->
<g id="edge11" class="edge"><title>E2&#45;&gt;E3</title>
<path fill="none" stroke="black" d="M707.905,-791.27C741.519,-776.275 794.823,-754.095 843,-741 891.673,-727.77 947.877,-718.915 991.161,-713.422"/>
<polygon fill="black" stroke="black" points="991.817,-716.868 1001.31,-712.166 990.957,-709.921 991.817,-716.868"/>
<text text-anchor="middle" x="914" y="-759.8" font-family="Times,serif" font-size="14.00">OUTPUT: </text>
<text text-anchor="middle" x="914" y="-744.8" font-family="Times,serif" font-size="14.00">INPUT: in a larger bowl</text>
</g>
<!-- E4 -->
<g id="node5" class="node"><title>E4</title>
<ellipse fill="azure" stroke="black" cx="1062" cy="-602" rx="67.6881" ry="18"/>
<text text-anchor="middle" x="1062" y="-598.3" font-family="Times,serif" font-size="14.00">note (S5,P182)</text>
</g>
<!-- E3&#45;&gt;E4 -->
<g id="edge14" class="edge"><title>E3&#45;&gt;E4</title>
<path fill="none" stroke="black" d="M1062,-686.867C1062,-671.414 1062,-648.416 1062,-630.409"/>
<polygon fill="black" stroke="black" points="1065.5,-630.217 1062,-620.217 1058.5,-630.217 1065.5,-630.217"/>
<text text-anchor="middle" x="1094" y="-657.8" font-family="Times,serif" font-size="14.00">OUTPUT: </text>
<text text-anchor="middle" x="1094" y="-642.8" font-family="Times,serif" font-size="14.00">INPUT: </text>
</g>
<!-- E4&#45;&gt;E5 -->
<g id="edge16" class="edge"><title>E4&#45;&gt;E5</title>
<path fill="none" stroke="black" d="M1074.04,-584.199C1086.09,-568.746 1106.11,-546.536 1129,-535 1140.51,-529.2 1199.09,-520.117 1253.31,-512.658"/>
<polygon fill="black" stroke="black" points="1253.94,-516.105 1263.37,-511.285 1252.99,-509.169 1253.94,-516.105"/>
<text text-anchor="middle" x="1189.5" y="-553.8" font-family="Times,serif" font-size="14.00">OUTPUT: </text>
<text text-anchor="middle" x="1189.5" y="-538.8" font-family="Times,serif" font-size="14.00">INPUT: in a separate</text>
</g>
<!-- E6 -->
<g id="node7" class="node"><title>E6</title>
<ellipse fill="azure" stroke="black" cx="1183" cy="-397" rx="64.9885" ry="18"/>
<text text-anchor="middle" x="1183" y="-393.3" font-family="Times,serif" font-size="14.00">add (S8,P239)</text>
</g>
<!-- E5&#45;&gt;E6 -->
<g id="edge21" class="edge"><title>E5&#45;&gt;E6</title>
<path fill="none" stroke="black" d="M1323.71,-481.262C1294.72,-464.107 1249.57,-437.391 1218.27,-418.867"/>
<polygon fill="black" stroke="black" points="1219.82,-415.719 1209.43,-413.638 1216.25,-421.743 1219.82,-415.719"/>
<text text-anchor="middle" x="1325" y="-451.8" font-family="Times,serif" font-size="14.00">OUTPUT: </text>
<text text-anchor="middle" x="1325" y="-436.8" font-family="Times,serif" font-size="14.00">INPUT: </text>
</g>
<!-- E7 -->
<g id="node8" class="node"><title>E7</title>
<ellipse fill="azure" stroke="black" cx="1075" cy="-295" rx="69.5877" ry="18"/>
<text text-anchor="middle" x="1075" y="-291.3" font-family="Times,serif" font-size="14.00">add (S10,P349)</text>
</g>
<!-- E6&#45;&gt;E7 -->
<g id="edge23" class="edge"><title>E6&#45;&gt;E7</title>
<path fill="none" stroke="black" d="M1165.17,-379.487C1147.5,-363.13 1120.28,-337.924 1100.36,-319.486"/>
<polygon fill="black" stroke="black" points="1102.58,-316.763 1092.86,-312.537 1097.82,-321.9 1102.58,-316.763"/>
<text text-anchor="middle" x="1208.5" y="-349.8" font-family="Times,serif" font-size="14.00">OUTPUT: </text>
<text text-anchor="middle" x="1208.5" y="-334.8" font-family="Times,serif" font-size="14.00">INPUT: flour mixture</text>
</g>
<!-- E8 -->
<g id="node9" class="node"><title>E8</title>
<ellipse fill="azure" stroke="black" cx="968" cy="-193" rx="67.6881" ry="18"/>
<text text-anchor="middle" x="968" y="-189.3" font-family="Times,serif" font-size="14.00">stir (S10,P379)</text>
</g>
<!-- E7&#45;&gt;E8 -->
<g id="edge25" class="edge"><title>E7&#45;&gt;E8</title>
<path fill="none" stroke="black" d="M1057.33,-277.487C1039.83,-261.13 1012.86,-235.924 993.13,-217.486"/>
<polygon fill="black" stroke="black" points="995.391,-214.808 985.695,-210.537 990.611,-219.923 995.391,-214.808"/>
<text text-anchor="middle" x="1070" y="-247.8" font-family="Times,serif" font-size="14.00">OUTPUT: </text>
<text text-anchor="middle" x="1070" y="-232.8" font-family="Times,serif" font-size="14.00">INPUT: </text>
</g>
<!-- E13 -->
<g id="node14" class="node"><title>E13</title>
<ellipse fill="azure" stroke="black" cx="735" cy="-91" rx="73.387" ry="18"/>
<text text-anchor="middle" x="735" y="-87.3" font-family="Times,serif" font-size="14.00">bake (S15,P492)</text>
</g>
<!-- E8&#45;&gt;E13 -->
<g id="edge33" class="edge"><title>E8&#45;&gt;E13</title>
<path fill="none" stroke="black" d="M933.62,-177.245C892.611,-159.644 823.981,-130.189 779.1,-110.927"/>
<polygon fill="black" stroke="black" points="780.472,-107.707 769.902,-106.979 777.711,-114.14 780.472,-107.707"/>
<text text-anchor="middle" x="963.5" y="-145.8" font-family="Times,serif" font-size="14.00">OUTPUT: </text>
<text text-anchor="middle" x="963.5" y="-130.8" font-family="Times,serif" font-size="14.00">INPUT: for 20&#45;25 minutes</text>
</g>
<!-- E9 -->
<g id="node10" class="node"><title>E9</title>
<ellipse fill="azure" stroke="black" cx="195" cy="-499" rx="69.5877" ry="18"/>
<text text-anchor="middle" x="195" y="-495.3" font-family="Times,serif" font-size="14.00">add (S10,P395)</text>
</g>
<!-- E10 -->
<g id="node11" class="node"><title>E10</title>
<ellipse fill="azure" stroke="black" cx="338" cy="-397" rx="67.6881" ry="18"/>
<text text-anchor="middle" x="338" y="-393.3" font-family="Times,serif" font-size="14.00">stir (S11,P415)</text>
</g>
<!-- E9&#45;&gt;E10 -->
<g id="edge27" class="edge"><title>E9&#45;&gt;E10</title>
<path fill="none" stroke="black" d="M217.975,-481.933C242.055,-465.095 280.037,-438.534 306.813,-419.809"/>
<polygon fill="black" stroke="black" points="308.892,-422.626 315.082,-414.027 304.881,-416.889 308.892,-422.626"/>
<text text-anchor="middle" x="320" y="-451.8" font-family="Times,serif" font-size="14.00">OUTPUT: </text>
<text text-anchor="middle" x="320" y="-436.8" font-family="Times,serif" font-size="14.00">INPUT: </text>
</g>
<!-- E11 -->
<g id="node12" class="node"><title>E11</title>
<ellipse fill="azure" stroke="black" cx="338" cy="-295" rx="72.2875" ry="18"/>
<text text-anchor="middle" x="338" y="-291.3" font-family="Times,serif" font-size="14.00">note (S12,P449)</text>
</g>
<!-- E10&#45;&gt;E11 -->
<g id="edge29" class="edge"><title>E10&#45;&gt;E11</title>
<path fill="none" stroke="black" d="M338,-378.581C338,-363.382 338,-341.067 338,-323.464"/>
<polygon fill="black" stroke="black" points="341.5,-323.219 338,-313.219 334.5,-323.219 341.5,-323.219"/>
<text text-anchor="middle" x="370" y="-349.8" font-family="Times,serif" font-size="14.00">OUTPUT: </text>
<text text-anchor="middle" x="370" y="-334.8" font-family="Times,serif" font-size="14.00">INPUT: </text>
</g>
<!-- E12 -->
<g id="node13" class="node"><title>E12</title>
<ellipse fill="azure" stroke="black" cx="490" cy="-193" rx="79.0865" ry="18"/>
<text text-anchor="middle" x="490" y="-189.3" font-family="Times,serif" font-size="14.00">spoon (S14,P454)</text>
</g>
<!-- E11&#45;&gt;E12 -->
<g id="edge30" class="edge"><title>E11&#45;&gt;E12</title>
<path fill="none" stroke="black" d="M362.421,-277.933C388.051,-261.072 428.498,-234.462 456.966,-215.733"/>
<polygon fill="black" stroke="black" points="458.957,-218.613 465.387,-210.193 455.109,-212.765 458.957,-218.613"/>
<text text-anchor="middle" x="469" y="-247.8" font-family="Times,serif" font-size="14.00">OUTPUT: </text>
<text text-anchor="middle" x="469" y="-232.8" font-family="Times,serif" font-size="14.00">INPUT: </text>
</g>
<!-- E12&#45;&gt;E13 -->
<g id="edge32" class="edge"><title>E12&#45;&gt;E13</title>
<path fill="none" stroke="black" d="M526.679,-177.029C570.139,-159.29 642.562,-129.73 689.54,-110.555"/>
<polygon fill="black" stroke="black" points="690.934,-113.766 698.87,-106.747 688.289,-107.286 690.934,-113.766"/>
<text text-anchor="middle" x="681" y="-145.8" font-family="Times,serif" font-size="14.00">OUTPUT: </text>
<text text-anchor="middle" x="681" y="-130.8" font-family="Times,serif" font-size="14.00">INPUT: </text>
</g>
<!-- EOR -->
<g id="node36" class="node"><title>EOR</title>
<ellipse fill="plum" stroke="black" cx="735" cy="-18" rx="57.3905" ry="18"/>
<text text-anchor="middle" x="735" y="-14.3" font-family="Times,serif" font-size="14.00">Bon appetit!</text>
</g>
<!-- E13&#45;&gt;EOR -->
<g id="edge35" class="edge"><title>E13&#45;&gt;EOR</title>
<path fill="none" stroke="black" d="M735,-72.8129C735,-64.7895 735,-55.0475 735,-46.0691"/>
<polygon fill="black" stroke="black" points="738.5,-46.0288 735,-36.0288 731.5,-46.0289 738.5,-46.0288"/>
</g>
<!-- D0 -->
<g id="node15" class="node"><title>D0</title>
<polygon fill="white" stroke="black" points="1514,-723 1426,-723 1426,-687 1514,-687 1514,-723"/>
<text text-anchor="middle" x="1470" y="-701.3" font-family="Times,serif" font-size="14.00">DOBJ: oven</text>
</g>
<!-- D0&#45;&gt;E0 -->
<g id="edge1" class="edge"><title>D0&#45;&gt;E0</title>
<path fill="none" stroke="black" d="M1501.38,-686.867C1533.42,-669.376 1583.16,-642.219 1617.31,-623.574"/>
<polygon fill="black" stroke="black" points="1619.41,-626.42 1626.51,-618.556 1616.05,-620.276 1619.41,-626.42"/>
</g>
<!-- P0_0 -->
<g id="node16" class="node"><title>P0_0</title>
<polygon fill="white" stroke="black" points="1777.5,-723 1532.5,-723 1532.5,-687 1777.5,-687 1777.5,-723"/>
<text text-anchor="middle" x="1655" y="-701.3" font-family="Times,serif" font-size="14.00">PREP: to 350 degrees, line muffin pans</text>
</g>
<!-- P0_0&#45;&gt;E0 -->
<g id="edge2" class="edge"><title>P0_0&#45;&gt;E0</title>
<path fill="none" stroke="black" d="M1655,-686.867C1655,-671.414 1655,-648.416 1655,-630.409"/>
<polygon fill="black" stroke="black" points="1658.5,-630.217 1655,-620.217 1651.5,-630.217 1658.5,-630.217"/>
</g>
<!-- P0_1 -->
<g id="node17" class="node"><title>P0_1</title>
<polygon fill="white" stroke="black" points="2010,-723 1796,-723 1796,-687 2010,-687 2010,-723"/>
<text text-anchor="middle" x="1903" y="-701.3" font-family="Times,serif" font-size="14.00">PREP: with muffin/cupcake liners</text>
</g>
<!-- P0_1&#45;&gt;E0 -->
<g id="edge3" class="edge"><title>P0_1&#45;&gt;E0</title>
<path fill="none" stroke="black" d="M1861.21,-686.981C1816.49,-668.768 1745.81,-639.982 1699.92,-621.293"/>
<polygon fill="black" stroke="black" points="1701.1,-617.996 1690.52,-617.466 1698.46,-624.479 1701.1,-617.996"/>
</g>
<!-- D9 -->
<g id="node18" class="node"><title>D9</title>
<polygon fill="peachpuff" stroke="black" points="216,-621 0,-621 0,-583 216,-583 216,-621"/>
<text text-anchor="middle" x="108" y="-605.8" font-family="Times,serif" font-size="14.00">DOBJ: whole pecans and/or pecan</text>
<text text-anchor="middle" x="108" y="-590.8" font-family="Times,serif" font-size="14.00">(text: pecans)</text>
</g>
<!-- D9&#45;&gt;E9 -->
<g id="edge4" class="edge"><title>D9&#45;&gt;E9</title>
<path fill="none" stroke="black" d="M123.554,-582.943C137.541,-566.706 158.212,-542.708 173.726,-524.697"/>
<polygon fill="black" stroke="black" points="176.574,-526.754 180.449,-516.893 171.271,-522.185 176.574,-526.754"/>
</g>
<!-- O9_0 -->
<g id="node19" class="node"><title>O9_0</title>
<polygon fill="white" stroke="black" points="331.5,-620 234.5,-620 234.5,-584 331.5,-584 331.5,-620"/>
<text text-anchor="middle" x="283" y="-598.3" font-family="Times,serif" font-size="14.00">OTHER: then</text>
</g>
<!-- O9_0&#45;&gt;E9 -->
<g id="edge5" class="edge"><title>O9_0&#45;&gt;E9</title>
<path fill="none" stroke="black" d="M268.072,-583.867C253.954,-567.663 232.608,-543.164 216.627,-524.822"/>
<polygon fill="black" stroke="black" points="218.916,-522.121 209.708,-516.88 213.638,-526.719 218.916,-522.121"/>
</g>
<!-- D1 -->
<g id="node20" class="node"><title>D1</title>
<polygon fill="peachpuff" stroke="black" points="603.5,-1004 274.5,-1004 274.5,-966 603.5,-966 603.5,-1004"/>
<text text-anchor="middle" x="439" y="-988.8" font-family="Times,serif" font-size="14.00">DOBJ: unbleached all&#45;purpose flour, baking soda, salt</text>
<text text-anchor="middle" x="439" y="-973.8" font-family="Times,serif" font-size="14.00">(text: flour , baking soda, salt)</text>
</g>
<!-- D1&#45;&gt;E1 -->
<g id="edge6" class="edge"><title>D1&#45;&gt;E1</title>
<path fill="none" stroke="black" d="M471.3,-965.831C489.121,-955.807 511.328,-943.315 529.864,-932.889"/>
<polygon fill="black" stroke="black" points="531.633,-935.91 538.632,-927.957 528.201,-929.809 531.633,-935.91"/>
</g>
<!-- P1_0 -->
<g id="node21" class="node"><title>P1_0</title>
<polygon fill="white" stroke="black" points="770,-1003 622,-1003 622,-967 770,-967 770,-1003"/>
<text text-anchor="middle" x="696" y="-981.3" font-family="Times,serif" font-size="14.00">PREP: in a small bowl</text>
</g>
<!-- P1_0&#45;&gt;E1 -->
<g id="edge7" class="edge"><title>P1_0&#45;&gt;E1</title>
<path fill="none" stroke="black" d="M665.429,-966.937C647.162,-956.742 623.82,-943.713 604.451,-932.903"/>
<polygon fill="black" stroke="black" points="606.022,-929.772 595.584,-927.954 602.61,-935.884 606.022,-929.772"/>
</g>
<!-- O2_0_0 -->
<g id="node22" class="node"><title>O2_0_0</title>
<polygon fill="white" stroke="black" points="764.5,-929 663.5,-929 663.5,-893 764.5,-893 764.5,-929"/>
<text text-anchor="middle" x="714" y="-907.3" font-family="Times,serif" font-size="14.00">OTHER: aside</text>
</g>
<!-- O2_0_0&#45;&gt;E2 -->
<g id="edge9" class="edge"><title>O2_0_0&#45;&gt;E2</title>
<path fill="none" stroke="black" d="M707.215,-892.867C701.008,-877.196 691.729,-853.766 684.555,-835.651"/>
<polygon fill="black" stroke="black" points="687.755,-834.226 680.819,-826.217 681.247,-836.804 687.755,-834.226"/>
</g>
<!-- D3_ing -->
<g id="node23" class="node"><title>D3_ing</title>
<polygon fill="peachpuff" stroke="black" points="1103,-827 783,-827 783,-789 1103,-789 1103,-827"/>
<text text-anchor="middle" x="943" y="-811.8" font-family="Times,serif" font-size="14.00">DOBJ: ripe bananas, extra virgin olive oil, raw sugar</text>
<text text-anchor="middle" x="943" y="-796.8" font-family="Times,serif" font-size="14.00">(text: &#160;oil, &#160;mashed bananas, sugar)</text>
</g>
<!-- D3_ing&#45;&gt;E3 -->
<g id="edge10" class="edge"><title>D3_ing&#45;&gt;E3</title>
<path fill="none" stroke="black" d="M964.275,-788.943C984.074,-772.139 1013.67,-747.022 1035.1,-728.833"/>
<polygon fill="black" stroke="black" points="1037.52,-731.372 1042.87,-722.233 1032.99,-726.035 1037.52,-731.372"/>
</g>
<!-- O3_0_0 -->
<g id="node24" class="node"><title>O3_0_0</title>
<polygon fill="white" stroke="black" points="1240.5,-826 1121.5,-826 1121.5,-790 1240.5,-790 1240.5,-826"/>
<text text-anchor="middle" x="1181" y="-804.3" font-family="Times,serif" font-size="14.00">OTHER: together</text>
</g>
<!-- O3_0_0&#45;&gt;E3 -->
<g id="edge12" class="edge"><title>O3_0_0&#45;&gt;E3</title>
<path fill="none" stroke="black" d="M1160.81,-789.867C1141.17,-773.198 1111.19,-747.752 1089.4,-729.26"/>
<polygon fill="black" stroke="black" points="1091.38,-726.348 1081.49,-722.546 1086.85,-731.685 1091.38,-726.348"/>
</g>
<!-- O3_1_0 -->
<g id="node25" class="node"><title>O3_1_0</title>
<polygon fill="white" stroke="black" points="1355.5,-826 1258.5,-826 1258.5,-790 1355.5,-790 1355.5,-826"/>
<text text-anchor="middle" x="1307" y="-804.3" font-family="Times,serif" font-size="14.00">OTHER: then</text>
</g>
<!-- O3_1_0&#45;&gt;E3 -->
<g id="edge13" class="edge"><title>O3_1_0&#45;&gt;E3</title>
<path fill="none" stroke="black" d="M1265.72,-789.981C1221.41,-771.716 1151.31,-742.816 1105.98,-724.132"/>
<polygon fill="black" stroke="black" points="1107.29,-720.883 1096.71,-720.308 1104.62,-727.355 1107.29,-720.883"/>
</g>
<!-- O5_0_0 -->
<g id="node26" class="node"><title>O5_0_0</title>
<polygon fill="white" stroke="black" points="1233,-620 1153,-620 1153,-584 1233,-584 1233,-620"/>
<text text-anchor="middle" x="1193" y="-598.3" font-family="Times,serif" font-size="14.00">OTHER: if</text>
</g>
<!-- O5_0_0&#45;&gt;E5 -->
<g id="edge17" class="edge"><title>O5_0_0&#45;&gt;E5</title>
<path fill="none" stroke="black" d="M1219.97,-583.867C1246.71,-566.882 1287.8,-540.783 1317.03,-522.215"/>
<polygon fill="black" stroke="black" points="1319.13,-525.029 1325.69,-516.713 1315.37,-519.12 1319.13,-525.029"/>
</g>
<!-- O5_1_0 -->
<g id="node27" class="node"><title>O5_1_0</title>
<polygon fill="white" stroke="black" points="1342.5,-620 1251.5,-620 1251.5,-584 1342.5,-584 1342.5,-620"/>
<text text-anchor="middle" x="1297" y="-598.3" font-family="Times,serif" font-size="14.00">OTHER: not</text>
</g>
<!-- O5_1_0&#45;&gt;E5 -->
<g id="edge18" class="edge"><title>O5_1_0&#45;&gt;E5</title>
<path fill="none" stroke="black" d="M1306.33,-583.867C1314.94,-568.051 1327.86,-544.332 1337.76,-526.15"/>
<polygon fill="black" stroke="black" points="1340.92,-527.673 1342.62,-517.217 1334.77,-524.326 1340.92,-527.673"/>
</g>
<!-- O5_2_0 -->
<g id="node28" class="node"><title>O5_2_0</title>
<polygon fill="white" stroke="black" points="1453.5,-620 1360.5,-620 1360.5,-584 1453.5,-584 1453.5,-620"/>
<text text-anchor="middle" x="1407" y="-598.3" font-family="Times,serif" font-size="14.00">OTHER: that</text>
</g>
<!-- O5_2_0&#45;&gt;E5 -->
<g id="edge19" class="edge"><title>O5_2_0&#45;&gt;E5</title>
<path fill="none" stroke="black" d="M1397.67,-583.867C1389.06,-568.051 1376.14,-544.332 1366.24,-526.15"/>
<polygon fill="black" stroke="black" points="1369.23,-524.326 1361.38,-517.217 1363.08,-527.673 1369.23,-524.326"/>
</g>
<!-- O5_3_0 -->
<g id="node29" class="node"><title>O5_3_0</title>
<polygon fill="white" stroke="black" points="1568.5,-620 1471.5,-620 1471.5,-584 1568.5,-584 1568.5,-620"/>
<text text-anchor="middle" x="1520" y="-598.3" font-family="Times,serif" font-size="14.00">OTHER: then</text>
</g>
<!-- O5_3_0&#45;&gt;E5 -->
<g id="edge20" class="edge"><title>O5_3_0&#45;&gt;E5</title>
<path fill="none" stroke="black" d="M1491.5,-583.867C1463.04,-566.758 1419.2,-540.4 1388.27,-521.808"/>
<polygon fill="black" stroke="black" points="1389.9,-518.698 1379.52,-516.546 1386.29,-524.698 1389.9,-518.698"/>
</g>
<!-- P6_0_0 -->
<g id="node30" class="node"><title>P6_0_0</title>
<polygon fill="white" stroke="black" points="1213,-517 1019,-517 1019,-481 1213,-481 1213,-517"/>
<text text-anchor="middle" x="1116" y="-495.3" font-family="Times,serif" font-size="14.00">PREP: to the sugar/oil mixture</text>
</g>
<!-- P6_0_0&#45;&gt;E6 -->
<g id="edge22" class="edge"><title>P6_0_0&#45;&gt;E6</title>
<path fill="none" stroke="black" d="M1127.67,-480.581C1138.21,-464.856 1153.84,-441.516 1165.81,-423.656"/>
<polygon fill="black" stroke="black" points="1169.03,-425.142 1171.69,-414.886 1163.21,-421.245 1169.03,-425.142"/>
</g>
<!-- P7_0_0 -->
<g id="node31" class="node"><title>P7_0_0</title>
<polygon fill="white" stroke="black" points="1100,-415 956,-415 956,-379 1100,-379 1100,-415"/>
<text text-anchor="middle" x="1028" y="-393.3" font-family="Times,serif" font-size="14.00">PREP: to wet mixture</text>
</g>
<!-- P7_0_0&#45;&gt;E7 -->
<g id="edge24" class="edge"><title>P7_0_0&#45;&gt;E7</title>
<path fill="none" stroke="black" d="M1036.19,-378.581C1043.51,-363 1054.35,-339.943 1062.71,-322.149"/>
<polygon fill="black" stroke="black" points="1065.98,-323.425 1067.06,-312.886 1059.64,-320.447 1065.98,-323.425"/>
</g>
<!-- O8_0_0 -->
<g id="node32" class="node"><title>O8_0_0</title>
<polygon fill="white" stroke="black" points="987,-313 877,-313 877,-277 987,-277 987,-313"/>
<text text-anchor="middle" x="932" y="-291.3" font-family="Times,serif" font-size="14.00">OTHER: lightly</text>
</g>
<!-- O8_0_0&#45;&gt;E8 -->
<g id="edge26" class="edge"><title>O8_0_0&#45;&gt;E8</title>
<path fill="none" stroke="black" d="M938.271,-276.581C943.794,-261.238 951.928,-238.645 958.292,-220.968"/>
<polygon fill="black" stroke="black" points="961.707,-221.813 961.801,-211.219 955.121,-219.442 961.707,-221.813"/>
</g>
<!-- O10_0_0 -->
<g id="node33" class="node"><title>O10_0_0</title>
<polygon fill="white" stroke="black" points="543.5,-517 282.5,-517 282.5,-481 543.5,-481 543.5,-517"/>
<text text-anchor="middle" x="413" y="-495.3" font-family="Times,serif" font-size="14.00">OTHER: until everything is just combined</text>
</g>
<!-- O10_0_0&#45;&gt;E10 -->
<g id="edge28" class="edge"><title>O10_0_0&#45;&gt;E10</title>
<path fill="none" stroke="black" d="M399.936,-480.581C388.034,-464.712 370.315,-441.087 356.875,-423.166"/>
<polygon fill="black" stroke="black" points="359.464,-420.786 350.664,-414.886 353.864,-424.986 359.464,-420.786"/>
</g>
<!-- O12_0_0 -->
<g id="node34" class="node"><title>O12_0_0</title>
<polygon fill="white" stroke="black" points="707.5,-313 428.5,-313 428.5,-277 707.5,-277 707.5,-313"/>
<text text-anchor="middle" x="568" y="-291.3" font-family="Times,serif" font-size="14.00">OTHER: batter into muffin tins about 3/4 full</text>
</g>
<!-- O12_0_0&#45;&gt;E12 -->
<g id="edge31" class="edge"><title>O12_0_0&#45;&gt;E12</title>
<path fill="none" stroke="black" d="M554.413,-276.581C542.035,-260.712 523.608,-237.087 509.629,-219.166"/>
<polygon fill="black" stroke="black" points="512.081,-216.618 503.171,-210.886 506.562,-220.924 512.081,-216.618"/>
</g>
<!-- O13_0_0 -->
<g id="node35" class="node"><title>O13_0_0</title>
<polygon fill="white" stroke="black" points="882.5,-211 587.5,-211 587.5,-175 882.5,-175 882.5,-211"/>
<text text-anchor="middle" x="735" y="-189.3" font-family="Times,serif" font-size="14.00">OTHER: until muffins are golden brown on top</text>
</g>
<!-- O13_0_0&#45;&gt;E13 -->
<g id="edge34" class="edge"><title>O13_0_0&#45;&gt;E13</title>
<path fill="none" stroke="black" d="M735,-174.581C735,-159.382 735,-137.067 735,-119.464"/>
<polygon fill="black" stroke="black" points="738.5,-119.219 735,-109.219 731.5,-119.219 738.5,-119.219"/>
</g>
</g>
</svg>
