<?xml version="1.0" encoding="UTF-8" standalone="no"?>
<!DOCTYPE svg PUBLIC "-//W3C//DTD SVG 1.1//EN"
 "http://www.w3.org/Graphics/SVG/1.1/DTD/svg11.dtd">
<!-- Generated by graphviz version 2.38.0 (20140413.2041)
 -->
<!-- Title: recipe Pages: 1 -->
<svg width="2024pt" height="910pt"
 viewBox="0.00 0.00 2024.00 910.00" xmlns="http://www.w3.org/2000/svg" xmlns:xlink="http://www.w3.org/1999/xlink">
<g id="graph0" class="graph" transform="scale(1 1) rotate(0) translate(4 906)">
<title>recipe</title>
<polygon fill="white" stroke="none" points="-4,4 -4,-906 2020,-906 2020,4 -4,4"/>
<!-- E0 -->
<g id="node1" class="node"><title>E0</title>
<ellipse fill="azure" stroke="black" cx="1857" cy="-295" rx="68.7879" ry="18"/>
<text text-anchor="middle" x="1857" y="-291.3" font-family="Times,serif" font-size="14.00">preheat (S0,P0)</text>
</g>
<!-- E8 -->
<g id="node9" class="node"><title>E8</title>
<ellipse fill="azure" stroke="black" cx="1395" cy="-193" rx="68.7879" ry="18"/>
<text text-anchor="middle" x="1395" y="-189.3" font-family="Times,serif" font-size="14.00">bake (S8,P328)</text>
</g>
<!-- E0&#45;&gt;E8 -->
<g id="edge19" class="edge"><title>E0&#45;&gt;E8</title>
<path fill="none" stroke="black" d="M1805.82,-282.831C1796.88,-280.885 1787.67,-278.881 1779,-277 1664.98,-252.251 1531.87,-223.515 1456.1,-207.173"/>
<polygon fill="black" stroke="black" points="1456.76,-203.735 1446.25,-205.048 1455.29,-210.578 1456.76,-203.735"/>
<text text-anchor="middle" x="1780.5" y="-247.8" font-family="Times,serif" font-size="14.00">OUTPUT: </text>
<text text-anchor="middle" x="1780.5" y="-232.8" font-family="Times,serif" font-size="14.00">INPUT: in the preheated oven</text>
</g>
<!-- E1 -->
<g id="node2" class="node"><title>E1</title>
<ellipse fill="azure" stroke="black" cx="856" cy="-397" rx="66.8882" ry="18"/>
<text text-anchor="middle" x="856" y="-393.3" font-family="Times,serif" font-size="14.00">spray (S1,P38)</text>
</g>
<!-- E7 -->
<g id="node8" class="node"><title>E7</title>
<ellipse fill="azure" stroke="black" cx="962" cy="-295" rx="74.187" ry="18"/>
<text text-anchor="middle" x="962" y="-291.3" font-family="Times,serif" font-size="14.00">spoon (S7,P295)</text>
</g>
<!-- E1&#45;&gt;E7 -->
<g id="edge17" class="edge"><title>E1&#45;&gt;E7</title>
<path fill="none" stroke="black" d="M849.748,-378.839C845.762,-364.654 843.016,-344.692 853,-331 861.245,-319.693 873.2,-311.958 886.201,-306.685"/>
<polygon fill="black" stroke="black" points="887.566,-309.915 895.814,-303.265 885.219,-303.32 887.566,-309.915"/>
<text text-anchor="middle" x="947.5" y="-349.8" font-family="Times,serif" font-size="14.00">OUTPUT: </text>
<text text-anchor="middle" x="947.5" y="-334.8" font-family="Times,serif" font-size="14.00">INPUT: into prepared muffin tin</text>
</g>
<!-- E2 -->
<g id="node3" class="node"><title>E2</title>
<ellipse fill="azure" stroke="black" cx="645" cy="-808" rx="78.7863" ry="18"/>
<text text-anchor="middle" x="645" y="-804.3" font-family="Times,serif" font-size="14.00">combine (S2,P76)</text>
</g>
<!-- E3 -->
<g id="node4" class="node"><title>E3</title>
<ellipse fill="azure" stroke="black" cx="881" cy="-705" rx="65.7887" ry="18"/>
<text text-anchor="middle" x="881" y="-701.3" font-family="Times,serif" font-size="14.00">mix (S3,P168)</text>
</g>
<!-- E2&#45;&gt;E3 -->
<g id="edge8" class="edge"><title>E2&#45;&gt;E3</title>
<path fill="none" stroke="black" d="M660.057,-790.281C674.665,-775.109 698.205,-753.288 723,-741 750.128,-727.555 782.415,-719.227 810.711,-714.091"/>
<polygon fill="black" stroke="black" points="811.672,-717.478 820.938,-712.34 810.491,-710.578 811.672,-717.478"/>
<text text-anchor="middle" x="800" y="-759.8" font-family="Times,serif" font-size="14.00">OUTPUT: </text>
<text text-anchor="middle" x="800" y="-744.8" font-family="Times,serif" font-size="14.00">INPUT: in a separate bowl</text>
</g>
<!-- E4 -->
<g id="node5" class="node"><title>E4</title>
<ellipse fill="azure" stroke="black" cx="964" cy="-603" rx="64.9885" ry="18"/>
<text text-anchor="middle" x="964" y="-599.3" font-family="Times,serif" font-size="14.00">add (S4,P224)</text>
</g>
<!-- E3&#45;&gt;E4 -->
<g id="edge10" class="edge"><title>E3&#45;&gt;E4</title>
<path fill="none" stroke="black" d="M877.18,-686.979C875.021,-672.88 874.401,-652.964 884,-639 889.668,-630.755 897.731,-624.435 906.577,-619.595"/>
<polygon fill="black" stroke="black" points="908.137,-622.728 915.625,-615.232 905.097,-616.423 908.137,-622.728"/>
<text text-anchor="middle" x="953.5" y="-657.8" font-family="Times,serif" font-size="14.00">OUTPUT: </text>
<text text-anchor="middle" x="953.5" y="-642.8" font-family="Times,serif" font-size="14.00">INPUT: banana mixture</text>
</g>
<!-- E5 -->
<g id="node6" class="node"><title>E5</title>
<ellipse fill="azure" stroke="black" cx="1051" cy="-500" rx="63.0888" ry="18"/>
<text text-anchor="middle" x="1051" y="-496.3" font-family="Times,serif" font-size="14.00">stir (S5,P255)</text>
</g>
<!-- E4&#45;&gt;E5 -->
<g id="edge12" class="edge"><title>E4&#45;&gt;E5</title>
<path fill="none" stroke="black" d="M978.366,-585.322C992.408,-569.021 1013.95,-544.017 1029.93,-525.466"/>
<polygon fill="black" stroke="black" points="1032.74,-527.564 1036.61,-517.703 1027.43,-522.995 1032.74,-527.564"/>
<text text-anchor="middle" x="1050" y="-555.8" font-family="Times,serif" font-size="14.00">OUTPUT: </text>
<text text-anchor="middle" x="1050" y="-540.8" font-family="Times,serif" font-size="14.00">INPUT: </text>
</g>
<!-- E6 -->
<g id="node7" class="node"><title>E6</title>
<ellipse fill="azure" stroke="black" cx="1068" cy="-397" rx="66.0889" ry="18"/>
<text text-anchor="middle" x="1068" y="-393.3" font-family="Times,serif" font-size="14.00">fold (S6,P277)</text>
</g>
<!-- E5&#45;&gt;E6 -->
<g id="edge14" class="edge"><title>E5&#45;&gt;E6</title>
<path fill="none" stroke="black" d="M1053.88,-481.867C1056.5,-466.341 1060.39,-443.2 1063.43,-425.156"/>
<polygon fill="black" stroke="black" points="1066.89,-425.66 1065.1,-415.217 1059.99,-424.498 1066.89,-425.66"/>
<text text-anchor="middle" x="1095" y="-451.8" font-family="Times,serif" font-size="14.00">OUTPUT: </text>
<text text-anchor="middle" x="1095" y="-436.8" font-family="Times,serif" font-size="14.00">INPUT: </text>
</g>
<!-- E6&#45;&gt;E7 -->
<g id="edge16" class="edge"><title>E6&#45;&gt;E7</title>
<path fill="none" stroke="black" d="M1066.13,-378.801C1063.73,-364.4 1058.28,-344.148 1046,-331 1038.89,-323.387 1029.87,-317.374 1020.4,-312.642"/>
<polygon fill="black" stroke="black" points="1021.78,-309.424 1011.22,-308.487 1018.89,-315.801 1021.78,-309.424"/>
<text text-anchor="middle" x="1103" y="-349.8" font-family="Times,serif" font-size="14.00">OUTPUT: </text>
<text text-anchor="middle" x="1103" y="-334.8" font-family="Times,serif" font-size="14.00">INPUT: batter</text>
</g>
<!-- E7&#45;&gt;E8 -->
<g id="edge18" class="edge"><title>E7&#45;&gt;E8</title>
<path fill="none" stroke="black" d="M997.939,-279.124C1035.83,-264.069 1097.61,-241.31 1153,-229 1224.58,-213.093 1244.63,-222.824 1317,-211 1323.1,-210.003 1329.45,-208.837 1335.77,-207.591"/>
<polygon fill="black" stroke="black" points="1336.54,-211.006 1345.64,-205.58 1335.14,-204.147 1336.54,-211.006"/>
<text text-anchor="middle" x="1185" y="-247.8" font-family="Times,serif" font-size="14.00">OUTPUT: </text>
<text text-anchor="middle" x="1185" y="-232.8" font-family="Times,serif" font-size="14.00">INPUT: </text>
</g>
<!-- E9 -->
<g id="node10" class="node"><title>E9</title>
<ellipse fill="azure" stroke="black" cx="1244" cy="-91" rx="67.6881" ry="18"/>
<text text-anchor="middle" x="1244" y="-87.3" font-family="Times,serif" font-size="14.00">cool (S9,P422)</text>
</g>
<!-- E8&#45;&gt;E9 -->
<g id="edge23" class="edge"><title>E8&#45;&gt;E9</title>
<path fill="none" stroke="black" d="M1370.74,-175.933C1345.2,-159.022 1304.86,-132.304 1276.56,-113.566"/>
<polygon fill="black" stroke="black" points="1278.47,-110.63 1268.2,-108.027 1274.61,-116.467 1278.47,-110.63"/>
<text text-anchor="middle" x="1446.5" y="-145.8" font-family="Times,serif" font-size="14.00">OUTPUT: </text>
<text text-anchor="middle" x="1446.5" y="-130.8" font-family="Times,serif" font-size="14.00">INPUT: muffins in tin for 5 minutes</text>
</g>
<!-- EOR -->
<g id="node26" class="node"><title>EOR</title>
<ellipse fill="plum" stroke="black" cx="1244" cy="-18" rx="57.3905" ry="18"/>
<text text-anchor="middle" x="1244" y="-14.3" font-family="Times,serif" font-size="14.00">Bon appetit!</text>
</g>
<!-- E9&#45;&gt;EOR -->
<g id="edge25" class="edge"><title>E9&#45;&gt;EOR</title>
<path fill="none" stroke="black" d="M1244,-72.8129C1244,-64.7895 1244,-55.0475 1244,-46.0691"/>
<polygon fill="black" stroke="black" points="1247.5,-46.0288 1244,-36.0288 1240.5,-46.0289 1247.5,-46.0288"/>
</g>
<!-- D1 -->
<g id="node11" class="node"><title>D1</title>
<polygon fill="white" stroke="black" points="773.5,-518 600.5,-518 600.5,-482 773.5,-482 773.5,-518"/>
<text text-anchor="middle" x="687" y="-496.3" font-family="Times,serif" font-size="14.00">DOBJ: a 12&#45;cup muffin tin</text>
</g>
<!-- D1&#45;&gt;E1 -->
<g id="edge1" class="edge"><title>D1&#45;&gt;E1</title>
<path fill="none" stroke="black" d="M715.669,-481.867C744.725,-464.502 789.723,-437.609 820.898,-418.978"/>
<polygon fill="black" stroke="black" points="822.908,-421.854 829.697,-413.72 819.317,-415.845 822.908,-421.854"/>
</g>
<!-- P1_0 -->
<g id="node12" class="node"><title>P1_0</title>
<polygon fill="peachpuff" stroke="black" points="964,-519 792,-519 792,-481 964,-481 964,-519"/>
<text text-anchor="middle" x="878" y="-503.8" font-family="Times,serif" font-size="14.00">PREP: with cooking spray</text>
<text text-anchor="middle" x="878" y="-488.8" font-family="Times,serif" font-size="14.00">(text: with cooking spray)</text>
</g>
<!-- P1_0&#45;&gt;E1 -->
<g id="edge2" class="edge"><title>P1_0&#45;&gt;E1</title>
<path fill="none" stroke="black" d="M874.067,-480.943C870.71,-465.531 865.83,-443.127 861.988,-425.488"/>
<polygon fill="black" stroke="black" points="865.3,-424.252 859.752,-415.226 858.461,-425.742 865.3,-424.252"/>
</g>
<!-- D2 -->
<g id="node13" class="node"><title>D2</title>
<polygon fill="peachpuff" stroke="black" points="570,-902 0,-902 0,-864 570,-864 570,-902"/>
<text text-anchor="middle" x="285" y="-886.8" font-family="Times,serif" font-size="14.00">DOBJ: baking powder, white sugar, lavender flowers, all&#45;purpose flour, whole&#45;wheat flour, salt</text>
<text text-anchor="middle" x="285" y="-871.8" font-family="Times,serif" font-size="14.00">(text: all&#45;purpose flour , whole&#45;wheat flour , sugar , baking powder , lavender , salt)</text>
</g>
<!-- D2&#45;&gt;E2 -->
<g id="edge3" class="edge"><title>D2&#45;&gt;E2</title>
<path fill="none" stroke="black" d="M373.989,-863.955C437.138,-851.15 520.569,-834.232 578.095,-822.567"/>
<polygon fill="black" stroke="black" points="579.061,-825.942 588.166,-820.525 577.67,-819.082 579.061,-825.942"/>
</g>
<!-- P2_0 -->
<g id="node14" class="node"><title>P2_0</title>
<polygon fill="white" stroke="black" points="702,-901 588,-901 588,-865 702,-865 702,-901"/>
<text text-anchor="middle" x="645" y="-879.3" font-family="Times,serif" font-size="14.00">PREP: in a bowl</text>
</g>
<!-- P2_0&#45;&gt;E2 -->
<g id="edge4" class="edge"><title>P2_0&#45;&gt;E2</title>
<path fill="none" stroke="black" d="M645,-864.7C645,-856.245 645,-845.869 645,-836.373"/>
<polygon fill="black" stroke="black" points="648.5,-836.176 645,-826.176 641.5,-836.176 648.5,-836.176"/>
</g>
<!-- O2_0 -->
<g id="node15" class="node"><title>O2_0</title>
<polygon fill="white" stroke="black" points="839.5,-901 720.5,-901 720.5,-865 839.5,-865 839.5,-901"/>
<text text-anchor="middle" x="780" y="-879.3" font-family="Times,serif" font-size="14.00">OTHER: together</text>
</g>
<!-- O2_0&#45;&gt;E2 -->
<g id="edge5" class="edge"><title>O2_0&#45;&gt;E2</title>
<path fill="none" stroke="black" d="M748.348,-864.885C728.797,-854.312 703.593,-840.683 682.969,-829.531"/>
<polygon fill="black" stroke="black" points="684.609,-826.439 674.148,-824.761 681.279,-832.597 684.609,-826.439"/>
</g>
<!-- D0 -->
<g id="node16" class="node"><title>D0</title>
<polygon fill="white" stroke="black" points="2016,-415 1698,-415 1698,-379 2016,-379 2016,-415"/>
<text text-anchor="middle" x="1857" y="-393.3" font-family="Times,serif" font-size="14.00">DOBJ: oven to 400 degrees F &#45;LRB&#45; 200 degrees C</text>
</g>
<!-- D0&#45;&gt;E0 -->
<g id="edge6" class="edge"><title>D0&#45;&gt;E0</title>
<path fill="none" stroke="black" d="M1857,-378.581C1857,-363.382 1857,-341.067 1857,-323.464"/>
<polygon fill="black" stroke="black" points="1860.5,-323.219 1857,-313.219 1853.5,-323.219 1860.5,-323.219"/>
</g>
<!-- D3_ing -->
<g id="node17" class="node"><title>D3_ing</title>
<polygon fill="peachpuff" stroke="black" points="1020,-827 742,-827 742,-789 1020,-789 1020,-827"/>
<text text-anchor="middle" x="881" y="-811.8" font-family="Times,serif" font-size="14.00">DOBJ: 1% milk, ripe bananas, canola oil, egg</text>
<text text-anchor="middle" x="881" y="-796.8" font-family="Times,serif" font-size="14.00">(text: &#160;canola oil , &#160;milk , bananas , &#160;egg)</text>
</g>
<!-- D3_ing&#45;&gt;E3 -->
<g id="edge7" class="edge"><title>D3_ing&#45;&gt;E3</title>
<path fill="none" stroke="black" d="M881,-788.943C881,-773.531 881,-751.127 881,-733.488"/>
<polygon fill="black" stroke="black" points="884.5,-733.226 881,-723.226 877.5,-733.226 884.5,-733.226"/>
</g>
<!-- O3_0_0 -->
<g id="node18" class="node"><title>O3_0_0</title>
<polygon fill="white" stroke="black" points="1157.5,-826 1038.5,-826 1038.5,-790 1157.5,-790 1157.5,-826"/>
<text text-anchor="middle" x="1098" y="-804.3" font-family="Times,serif" font-size="14.00">OTHER: together</text>
</g>
<!-- O3_0_0&#45;&gt;E3 -->
<g id="edge9" class="edge"><title>O3_0_0&#45;&gt;E3</title>
<path fill="none" stroke="black" d="M1061.19,-789.867C1022.68,-771.943 962.362,-743.869 922.266,-725.207"/>
<polygon fill="black" stroke="black" points="923.577,-721.956 913.034,-720.91 920.623,-728.303 923.577,-721.956"/>
</g>
<!-- P4_0_0 -->
<g id="node19" class="node"><title>P4_0_0</title>
<polygon fill="white" stroke="black" points="1117,-723 965,-723 965,-687 1117,-687 1117,-723"/>
<text text-anchor="middle" x="1041" y="-701.3" font-family="Times,serif" font-size="14.00">PREP: to flour mixture</text>
</g>
<!-- P4_0_0&#45;&gt;E4 -->
<g id="edge11" class="edge"><title>P4_0_0&#45;&gt;E4</title>
<path fill="none" stroke="black" d="M1041.09,-686.951C1040.35,-672.835 1037.31,-652.91 1027,-639 1022.34,-632.71 1016.19,-627.404 1009.56,-622.976"/>
<polygon fill="black" stroke="black" points="1011.36,-619.974 1000.98,-617.83 1007.76,-625.976 1011.36,-619.974"/>
</g>
<!-- O5_0_0 -->
<g id="node20" class="node"><title>O5_0_0</title>
<polygon fill="white" stroke="black" points="1229.5,-621 1046.5,-621 1046.5,-585 1229.5,-585 1229.5,-621"/>
<text text-anchor="middle" x="1138" y="-599.3" font-family="Times,serif" font-size="14.00">OTHER: until just combined</text>
</g>
<!-- O5_0_0&#45;&gt;E5 -->
<g id="edge13" class="edge"><title>O5_0_0&#45;&gt;E5</title>
<path fill="none" stroke="black" d="M1124.97,-584.798C1114.71,-571.478 1099.86,-552.712 1086,-537 1082.49,-533.017 1078.66,-528.891 1074.87,-524.914"/>
<polygon fill="black" stroke="black" points="1077.2,-522.281 1067.73,-517.531 1072.17,-527.15 1077.2,-522.281"/>
</g>
<!-- P6_0_ing -->
<g id="node21" class="node"><title>P6_0_ing</title>
<polygon fill="peachpuff" stroke="black" points="1302,-519 1132,-519 1132,-481 1302,-481 1302,-519"/>
<text text-anchor="middle" x="1217" y="-503.8" font-family="Times,serif" font-size="14.00">PREP: in fresh blueberries</text>
<text text-anchor="middle" x="1217" y="-488.8" font-family="Times,serif" font-size="14.00">(text: in blueberries)</text>
</g>
<!-- P6_0_ing&#45;&gt;E6 -->
<g id="edge15" class="edge"><title>P6_0_ing&#45;&gt;E6</title>
<path fill="none" stroke="black" d="M1195.38,-480.981C1178.37,-467.16 1153.81,-447.975 1131,-433 1123.16,-427.857 1114.52,-422.727 1106.21,-418.043"/>
<polygon fill="black" stroke="black" points="1107.83,-414.937 1097.38,-413.156 1104.44,-421.061 1107.83,-414.937"/>
</g>
<!-- O8_0_0 -->
<g id="node22" class="node"><title>O8_0_0</title>
<polygon fill="white" stroke="black" points="1196,-313 1054,-313 1054,-277 1196,-277 1196,-313"/>
<text text-anchor="middle" x="1125" y="-291.3" font-family="Times,serif" font-size="14.00">OTHER: until golden</text>
</g>
<!-- O8_0_0&#45;&gt;E8 -->
<g id="edge20" class="edge"><title>O8_0_0&#45;&gt;E8</title>
<path fill="none" stroke="black" d="M1171.11,-276.923C1220.25,-258.724 1297.67,-230.048 1347.38,-211.637"/>
<polygon fill="black" stroke="black" points="1348.77,-214.853 1356.94,-208.098 1346.34,-208.289 1348.77,-214.853"/>
</g>
<!-- O8_0_1 -->
<g id="node23" class="node"><title>O8_0_1</title>
<polygon fill="white" stroke="black" points="1576,-313 1214,-313 1214,-277 1576,-277 1576,-313"/>
<text text-anchor="middle" x="1395" y="-291.3" font-family="Times,serif" font-size="14.00">OTHER: &#160;a toothpick inserted in the center comes out clean </text>
</g>
<!-- O8_0_1&#45;&gt;E8 -->
<g id="edge21" class="edge"><title>O8_0_1&#45;&gt;E8</title>
<path fill="none" stroke="black" d="M1395,-276.581C1395,-261.382 1395,-239.067 1395,-221.464"/>
<polygon fill="black" stroke="black" points="1398.5,-221.219 1395,-211.219 1391.5,-221.219 1398.5,-221.219"/>
</g>
<!-- O8_0_2 -->
<g id="node24" class="node"><title>O8_0_2</title>
<polygon fill="white" stroke="black" points="1770,-313 1594,-313 1594,-277 1770,-277 1770,-313"/>
<text text-anchor="middle" x="1682" y="-291.3" font-family="Times,serif" font-size="14.00">OTHER: &#160;about 20 minutes</text>
</g>
<!-- O8_0_2&#45;&gt;E8 -->
<g id="edge22" class="edge"><title>O8_0_2&#45;&gt;E8</title>
<path fill="none" stroke="black" d="M1632.99,-276.923C1580.24,-258.543 1496.82,-229.477 1444.05,-211.091"/>
<polygon fill="black" stroke="black" points="1445.17,-207.773 1434.57,-207.788 1442.86,-214.383 1445.17,-207.773"/>
</g>
<!-- P9_0_0 -->
<g id="node25" class="node"><title>P9_0_0</title>
<polygon fill="white" stroke="black" points="1308.5,-211 1057.5,-211 1057.5,-175 1308.5,-175 1308.5,-211"/>
<text text-anchor="middle" x="1183" y="-189.3" font-family="Times,serif" font-size="14.00">PREP: before transferring to a wire rack</text>
</g>
<!-- P9_0_0&#45;&gt;E9 -->
<g id="edge24" class="edge"><title>P9_0_0&#45;&gt;E9</title>
<path fill="none" stroke="black" d="M1193.63,-174.581C1203.22,-158.856 1217.46,-135.516 1228.35,-117.656"/>
<polygon fill="black" stroke="black" points="1231.48,-119.246 1233.7,-108.886 1225.5,-115.6 1231.48,-119.246"/>
</g>
</g>
</svg>
