<?xml version="1.0" encoding="UTF-8" standalone="no"?>
<!DOCTYPE svg PUBLIC "-//W3C//DTD SVG 1.1//EN"
 "http://www.w3.org/Graphics/SVG/1.1/DTD/svg11.dtd">
<!-- Generated by graphviz version 2.38.0 (20140413.2041)
 -->
<!-- Title: recipe Pages: 1 -->
<svg width="1444pt" height="810pt"
 viewBox="0.00 0.00 1443.50 810.00" xmlns="http://www.w3.org/2000/svg" xmlns:xlink="http://www.w3.org/1999/xlink">
<g id="graph0" class="graph" transform="scale(1 1) rotate(0) translate(4 806)">
<title>recipe</title>
<polygon fill="white" stroke="none" points="-4,4 -4,-806 1439.5,-806 1439.5,4 -4,4"/>
<!-- E0 -->
<g id="node1" class="node"><title>E0</title>
<ellipse fill="azure" stroke="black" cx="1276.5" cy="-193" rx="68.7879" ry="18"/>
<text text-anchor="middle" x="1276.5" y="-189.3" font-family="Times,serif" font-size="14.00">preheat (S0,P0)</text>
</g>
<!-- E9 -->
<g id="node10" class="node"><title>E9</title>
<ellipse fill="azure" stroke="black" cx="810.5" cy="-91" rx="68.7879" ry="18"/>
<text text-anchor="middle" x="810.5" y="-87.3" font-family="Times,serif" font-size="14.00">bake (S8,P304)</text>
</g>
<!-- E0&#45;&gt;E9 -->
<g id="edge21" class="edge"><title>E0&#45;&gt;E9</title>
<path fill="none" stroke="black" d="M1225.32,-180.816C1216.38,-178.871 1207.17,-176.872 1198.5,-175 1083.31,-150.128 948.812,-121.433 872.246,-105.132"/>
<polygon fill="black" stroke="black" points="872.8,-101.671 862.29,-103.013 871.342,-108.518 872.8,-101.671"/>
<text text-anchor="middle" x="1189.5" y="-145.8" font-family="Times,serif" font-size="14.00">OUTPUT: </text>
<text text-anchor="middle" x="1189.5" y="-130.8" font-family="Times,serif" font-size="14.00">INPUT: in preheated oven</text>
</g>
<!-- E1 -->
<g id="node2" class="node"><title>E1</title>
<ellipse fill="azure" stroke="black" cx="531.5" cy="-398" rx="69.5877" ry="18"/>
<text text-anchor="middle" x="531.5" y="-394.3" font-family="Times,serif" font-size="14.00">grease (S1,P38)</text>
</g>
<!-- E7 -->
<g id="node8" class="node"><title>E7</title>
<ellipse fill="azure" stroke="black" cx="660.5" cy="-295" rx="63.0888" ry="18"/>
<text text-anchor="middle" x="660.5" y="-291.3" font-family="Times,serif" font-size="14.00">stir (S6,P233)</text>
</g>
<!-- E1&#45;&gt;E7 -->
<g id="edge17" class="edge"><title>E1&#45;&gt;E7</title>
<path fill="none" stroke="black" d="M522.528,-380.052C516.227,-365.556 510.671,-344.894 521.5,-331 530.852,-319.001 562.978,-310.48 593.991,-304.851"/>
<polygon fill="black" stroke="black" points="594.732,-308.275 603.99,-303.125 593.541,-301.377 594.732,-308.275"/>
<text text-anchor="middle" x="634.5" y="-349.8" font-family="Times,serif" font-size="14.00">OUTPUT: </text>
<text text-anchor="middle" x="634.5" y="-334.8" font-family="Times,serif" font-size="14.00">INPUT: in &#160;then spoon into muffin pan</text>
</g>
<!-- E2 -->
<g id="node3" class="node"><title>E2</title>
<ellipse fill="azure" stroke="black" cx="461.5" cy="-708" rx="68.7879" ry="18"/>
<text text-anchor="middle" x="461.5" y="-704.3" font-family="Times,serif" font-size="14.00">cream (S2,P97)</text>
</g>
<!-- E3 -->
<g id="node4" class="node"><title>E3</title>
<ellipse fill="azure" stroke="black" cx="555.5" cy="-604" rx="66.0889" ry="18"/>
<text text-anchor="middle" x="555.5" y="-600.3" font-family="Times,serif" font-size="14.00">beat (S3,P129)</text>
</g>
<!-- E2&#45;&gt;E3 -->
<g id="edge9" class="edge"><title>E2&#45;&gt;E3</title>
<path fill="none" stroke="black" d="M469.875,-689.976C477.385,-675.818 489.377,-655.682 503.5,-641 508.576,-635.723 514.536,-630.752 520.576,-626.286"/>
<polygon fill="black" stroke="black" points="522.608,-629.136 528.784,-620.528 518.588,-623.406 522.608,-629.136"/>
<text text-anchor="middle" x="535.5" y="-659.8" font-family="Times,serif" font-size="14.00">OUTPUT: </text>
<text text-anchor="middle" x="535.5" y="-644.8" font-family="Times,serif" font-size="14.00">INPUT: </text>
</g>
<!-- E4 -->
<g id="node5" class="node"><title>E4</title>
<ellipse fill="azure" stroke="black" cx="725.5" cy="-501" rx="72.2875" ry="18"/>
<text text-anchor="middle" x="725.5" y="-497.3" font-family="Times,serif" font-size="14.00">blend (S4,P139)</text>
</g>
<!-- E3&#45;&gt;E4 -->
<g id="edge11" class="edge"><title>E3&#45;&gt;E4</title>
<path fill="none" stroke="black" d="M581.69,-587.44C610.806,-570.142 657.978,-542.116 690.304,-522.911"/>
<polygon fill="black" stroke="black" points="692.191,-525.861 699,-517.744 688.615,-519.843 692.191,-525.861"/>
<text text-anchor="middle" x="698.5" y="-555.8" font-family="Times,serif" font-size="14.00">OUTPUT: </text>
<text text-anchor="middle" x="698.5" y="-540.8" font-family="Times,serif" font-size="14.00">INPUT: </text>
</g>
<!-- E6 -->
<g id="node7" class="node"><title>E6</title>
<ellipse fill="azure" stroke="black" cx="744.5" cy="-398" rx="65.7887" ry="18"/>
<text text-anchor="middle" x="744.5" y="-394.3" font-family="Times,serif" font-size="14.00">mix (S5,P214)</text>
</g>
<!-- E4&#45;&gt;E6 -->
<g id="edge13" class="edge"><title>E4&#45;&gt;E6</title>
<path fill="none" stroke="black" d="M728.723,-482.867C731.644,-467.341 735.997,-444.2 739.391,-426.156"/>
<polygon fill="black" stroke="black" points="742.852,-426.692 741.261,-416.217 735.973,-425.398 742.852,-426.692"/>
<text text-anchor="middle" x="778.5" y="-453.8" font-family="Times,serif" font-size="14.00">OUTPUT: </text>
<text text-anchor="middle" x="778.5" y="-438.8" font-family="Times,serif" font-size="14.00">INPUT: batter</text>
</g>
<!-- E5 -->
<g id="node6" class="node"><title>E5</title>
<ellipse fill="azure" stroke="black" cx="395.5" cy="-295" rx="64.9885" ry="18"/>
<text text-anchor="middle" x="395.5" y="-291.3" font-family="Times,serif" font-size="14.00">add (S4,P179)</text>
</g>
<!-- E8 -->
<g id="node9" class="node"><title>E8</title>
<ellipse fill="azure" stroke="black" cx="467.5" cy="-193" rx="74.187" ry="18"/>
<text text-anchor="middle" x="467.5" y="-189.3" font-family="Times,serif" font-size="14.00">spoon (S7,P270)</text>
</g>
<!-- E5&#45;&gt;E8 -->
<g id="edge18" class="edge"><title>E5&#45;&gt;E8</title>
<path fill="none" stroke="black" d="M401.382,-276.893C406.633,-263.11 415.234,-243.679 426.5,-229 429.694,-224.838 433.456,-220.82 437.383,-217.083"/>
<polygon fill="black" stroke="black" points="439.888,-219.54 445.034,-210.279 435.236,-214.309 439.888,-219.54"/>
<text text-anchor="middle" x="467.5" y="-247.8" font-family="Times,serif" font-size="14.00">OUTPUT: </text>
<text text-anchor="middle" x="467.5" y="-232.8" font-family="Times,serif" font-size="14.00">INPUT: batter</text>
</g>
<!-- E6&#45;&gt;E7 -->
<g id="edge15" class="edge"><title>E6&#45;&gt;E7</title>
<path fill="none" stroke="black" d="M752.038,-380.037C757.145,-365.728 761.35,-345.342 751.5,-331 744.612,-320.971 734.419,-313.815 723.319,-308.709"/>
<polygon fill="black" stroke="black" points="724.418,-305.378 713.835,-304.884 721.8,-311.87 724.418,-305.378"/>
<text text-anchor="middle" x="789.5" y="-349.8" font-family="Times,serif" font-size="14.00">OUTPUT: </text>
<text text-anchor="middle" x="789.5" y="-334.8" font-family="Times,serif" font-size="14.00">INPUT: </text>
</g>
<!-- E7&#45;&gt;E8 -->
<g id="edge19" class="edge"><title>E7&#45;&gt;E8</title>
<path fill="none" stroke="black" d="M631.187,-278.812C597.843,-261.535 543.253,-233.25 506.376,-214.143"/>
<polygon fill="black" stroke="black" points="507.896,-210.989 497.406,-209.496 504.675,-217.204 507.896,-210.989"/>
<text text-anchor="middle" x="693.5" y="-247.8" font-family="Times,serif" font-size="14.00">OUTPUT: </text>
<text text-anchor="middle" x="693.5" y="-232.8" font-family="Times,serif" font-size="14.00">INPUT: into prepared muffin cups</text>
</g>
<!-- E8&#45;&gt;E9 -->
<g id="edge20" class="edge"><title>E8&#45;&gt;E9</title>
<path fill="none" stroke="black" d="M501.978,-176.992C536.12,-162.587 590.149,-141.008 638.5,-127 672.57,-117.129 711.218,-108.999 743.237,-103.066"/>
<polygon fill="black" stroke="black" points="744.174,-106.453 753.385,-101.218 742.92,-99.5667 744.174,-106.453"/>
<text text-anchor="middle" x="670.5" y="-145.8" font-family="Times,serif" font-size="14.00">OUTPUT: </text>
<text text-anchor="middle" x="670.5" y="-130.8" font-family="Times,serif" font-size="14.00">INPUT: </text>
</g>
<!-- EOR -->
<g id="node25" class="node"><title>EOR</title>
<ellipse fill="plum" stroke="black" cx="810.5" cy="-18" rx="57.3905" ry="18"/>
<text text-anchor="middle" x="810.5" y="-14.3" font-family="Times,serif" font-size="14.00">Bon appetit!</text>
</g>
<!-- E9&#45;&gt;EOR -->
<g id="edge24" class="edge"><title>E9&#45;&gt;EOR</title>
<path fill="none" stroke="black" d="M810.5,-72.8129C810.5,-64.7895 810.5,-55.0475 810.5,-46.0691"/>
<polygon fill="black" stroke="black" points="814,-46.0288 810.5,-36.0288 807,-46.0289 814,-46.0288"/>
</g>
<!-- D2 -->
<g id="node11" class="node"><title>D2</title>
<polygon fill="peachpuff" stroke="black" points="370,-802 167,-802 167,-764 370,-764 370,-802"/>
<text text-anchor="middle" x="268.5" y="-786.8" font-family="Times,serif" font-size="14.00">DOBJ: brown sugar, shortening</text>
<text text-anchor="middle" x="268.5" y="-771.8" font-family="Times,serif" font-size="14.00">(text: shortening, sugar)</text>
</g>
<!-- D2&#45;&gt;E2 -->
<g id="edge1" class="edge"><title>D2&#45;&gt;E2</title>
<path fill="none" stroke="black" d="M316.208,-763.955C346.224,-752.602 384.787,-738.016 414.64,-726.724"/>
<polygon fill="black" stroke="black" points="415.89,-729.994 424.005,-723.182 413.414,-723.446 415.89,-729.994"/>
</g>
<!-- P2_0 -->
<g id="node12" class="node"><title>P2_0</title>
<polygon fill="white" stroke="black" points="534.5,-801 388.5,-801 388.5,-765 534.5,-765 534.5,-801"/>
<text text-anchor="middle" x="461.5" y="-779.3" font-family="Times,serif" font-size="14.00">PREP: in a large bowl</text>
</g>
<!-- P2_0&#45;&gt;E2 -->
<g id="edge2" class="edge"><title>P2_0&#45;&gt;E2</title>
<path fill="none" stroke="black" d="M461.5,-764.7C461.5,-756.245 461.5,-745.869 461.5,-736.373"/>
<polygon fill="black" stroke="black" points="465,-736.176 461.5,-726.176 458,-736.176 465,-736.176"/>
</g>
<!-- O2_0 -->
<g id="node13" class="node"><title>O2_0</title>
<polygon fill="white" stroke="black" points="672,-801 553,-801 553,-765 672,-765 672,-801"/>
<text text-anchor="middle" x="612.5" y="-779.3" font-family="Times,serif" font-size="14.00">OTHER: together</text>
</g>
<!-- O2_0&#45;&gt;E2 -->
<g id="edge3" class="edge"><title>O2_0&#45;&gt;E2</title>
<path fill="none" stroke="black" d="M577.097,-764.885C554.649,-754.032 525.539,-739.959 502.147,-728.651"/>
<polygon fill="black" stroke="black" points="503.363,-725.351 492.837,-724.15 500.316,-731.653 503.363,-725.351"/>
</g>
<!-- D0 -->
<g id="node14" class="node"><title>D0</title>
<polygon fill="white" stroke="black" points="1435.5,-313 1117.5,-313 1117.5,-277 1435.5,-277 1435.5,-313"/>
<text text-anchor="middle" x="1276.5" y="-291.3" font-family="Times,serif" font-size="14.00">DOBJ: oven to 350 degrees F &#45;LRB&#45; 175 degrees C</text>
</g>
<!-- D0&#45;&gt;E0 -->
<g id="edge4" class="edge"><title>D0&#45;&gt;E0</title>
<path fill="none" stroke="black" d="M1276.5,-276.581C1276.5,-261.382 1276.5,-239.067 1276.5,-221.464"/>
<polygon fill="black" stroke="black" points="1280,-221.219 1276.5,-211.219 1273,-221.219 1280,-221.219"/>
</g>
<!-- D1 -->
<g id="node15" class="node"><title>D1</title>
<polygon fill="white" stroke="black" points="415,-519 226,-519 226,-483 415,-483 415,-519"/>
<text text-anchor="middle" x="320.5" y="-497.3" font-family="Times,serif" font-size="14.00">DOBJ: 12 muffin cups or line</text>
</g>
<!-- D1&#45;&gt;E1 -->
<g id="edge5" class="edge"><title>D1&#45;&gt;E1</title>
<path fill="none" stroke="black" d="M356.293,-482.867C393.471,-465.071 451.554,-437.268 490.54,-418.606"/>
<polygon fill="black" stroke="black" points="492.508,-421.545 500.016,-414.07 489.485,-415.231 492.508,-421.545"/>
</g>
<!-- P1_0 -->
<g id="node16" class="node"><title>P1_0</title>
<polygon fill="white" stroke="black" points="633.5,-519 433.5,-519 433.5,-483 633.5,-483 633.5,-519"/>
<text text-anchor="middle" x="533.5" y="-497.3" font-family="Times,serif" font-size="14.00">PREP: with paper muffin liners</text>
</g>
<!-- P1_0&#45;&gt;E1 -->
<g id="edge6" class="edge"><title>P1_0&#45;&gt;E1</title>
<path fill="none" stroke="black" d="M533.161,-482.867C532.855,-467.414 532.399,-444.416 532.043,-426.409"/>
<polygon fill="black" stroke="black" points="535.538,-426.146 531.841,-416.217 528.54,-426.285 535.538,-426.146"/>
</g>
<!-- D5 -->
<g id="node17" class="node"><title>D5</title>
<polygon fill="peachpuff" stroke="black" points="329,-417 0,-417 0,-379 329,-379 329,-417"/>
<text text-anchor="middle" x="164.5" y="-401.8" font-family="Times,serif" font-size="14.00">DOBJ: baking powder, all&#45;purpose flour, baking soda</text>
<text text-anchor="middle" x="164.5" y="-386.8" font-family="Times,serif" font-size="14.00">(text: flour , baking powder, baking soda)</text>
</g>
<!-- D5&#45;&gt;E5 -->
<g id="edge7" class="edge"><title>D5&#45;&gt;E5</title>
<path fill="none" stroke="black" d="M205.798,-378.943C247.214,-360.835 310.704,-333.075 352.658,-314.732"/>
<polygon fill="black" stroke="black" points="354.289,-317.839 362.049,-310.626 351.485,-311.425 354.289,-317.839"/>
</g>
<!-- O5_0 -->
<g id="node18" class="node"><title>O5_0</title>
<polygon fill="white" stroke="black" points="444,-416 347,-416 347,-380 444,-380 444,-416"/>
<text text-anchor="middle" x="395.5" y="-394.3" font-family="Times,serif" font-size="14.00">OTHER: then</text>
</g>
<!-- O5_0&#45;&gt;E5 -->
<g id="edge8" class="edge"><title>O5_0&#45;&gt;E5</title>
<path fill="none" stroke="black" d="M395.5,-379.867C395.5,-364.414 395.5,-341.416 395.5,-323.409"/>
<polygon fill="black" stroke="black" points="399,-323.217 395.5,-313.217 392,-323.217 399,-323.217"/>
</g>
<!-- P3_0_ing -->
<g id="node19" class="node"><title>P3_0_ing</title>
<polygon fill="peachpuff" stroke="black" points="643,-727 548,-727 548,-689 643,-689 643,-727"/>
<text text-anchor="middle" x="595.5" y="-711.8" font-family="Times,serif" font-size="14.00">PREP: in egg</text>
<text text-anchor="middle" x="595.5" y="-696.8" font-family="Times,serif" font-size="14.00">(text: in egg)</text>
</g>
<!-- P3_0_ing&#45;&gt;E3 -->
<g id="edge10" class="edge"><title>P3_0_ing&#45;&gt;E3</title>
<path fill="none" stroke="black" d="M588.349,-688.764C582.092,-672.809 572.925,-649.435 565.864,-631.429"/>
<polygon fill="black" stroke="black" points="569.1,-630.092 562.19,-622.06 562.583,-632.648 569.1,-630.092"/>
</g>
<!-- O4_0_ing -->
<g id="node20" class="node"><title>O4_0_ing</title>
<polygon fill="peachpuff" stroke="black" points="925,-623 640,-623 640,-585 925,-585 925,-623"/>
<text text-anchor="middle" x="782.5" y="-607.8" font-family="Times,serif" font-size="14.00">OTHER: banana</text>
<text text-anchor="middle" x="782.5" y="-592.8" font-family="Times,serif" font-size="14.00">(text: null until banana is completely mixed in)</text>
</g>
<!-- O4_0_ing&#45;&gt;E4 -->
<g id="edge12" class="edge"><title>O4_0_ing&#45;&gt;E4</title>
<path fill="none" stroke="black" d="M772.31,-584.943C763.311,-568.998 750.089,-545.57 739.991,-527.676"/>
<polygon fill="black" stroke="black" points="742.997,-525.881 735.033,-518.893 736.9,-529.322 742.997,-525.881"/>
</g>
<!-- P6_0_0 -->
<g id="node21" class="node"><title>P6_0_0</title>
<polygon fill="white" stroke="black" points="941,-519 816,-519 816,-483 941,-483 941,-519"/>
<text text-anchor="middle" x="878.5" y="-497.3" font-family="Times,serif" font-size="14.00">PREP: with spoon</text>
</g>
<!-- P6_0_0&#45;&gt;E6 -->
<g id="edge14" class="edge"><title>P6_0_0&#45;&gt;E6</title>
<path fill="none" stroke="black" d="M867.314,-482.966C857.234,-468.668 841.296,-448.474 823.5,-435 814.206,-427.963 803.317,-421.892 792.645,-416.846"/>
<polygon fill="black" stroke="black" points="793.924,-413.583 783.368,-412.677 791.054,-419.968 793.924,-413.583"/>
</g>
<!-- P7_0_ing -->
<g id="node22" class="node"><title>P7_0_ing</title>
<polygon fill="peachpuff" stroke="black" points="953,-417 828,-417 828,-379 953,-379 953,-417"/>
<text text-anchor="middle" x="890.5" y="-401.8" font-family="Times,serif" font-size="14.00">PREP: in soy milk</text>
<text text-anchor="middle" x="890.5" y="-386.8" font-family="Times,serif" font-size="14.00">(text: in soy milk )</text>
</g>
<!-- P7_0_ing&#45;&gt;E7 -->
<g id="edge16" class="edge"><title>P7_0_ing&#45;&gt;E7</title>
<path fill="none" stroke="black" d="M877.649,-378.986C865.835,-363.808 846.94,-342.742 825.5,-331 796.771,-315.267 761.647,-306.601 731.201,-301.829"/>
<polygon fill="black" stroke="black" points="731.471,-298.332 721.071,-300.356 730.463,-305.259 731.471,-298.332"/>
</g>
<!-- P9_1_0 -->
<g id="node23" class="node"><title>P9_1_0</title>
<polygon fill="white" stroke="black" points="737.5,-211 559.5,-211 559.5,-175 737.5,-175 737.5,-211"/>
<text text-anchor="middle" x="648.5" y="-189.3" font-family="Times,serif" font-size="14.00">PREP: for 15 to 20 minutes</text>
</g>
<!-- P9_1_0&#45;&gt;E9 -->
<g id="edge22" class="edge"><title>P9_1_0&#45;&gt;E9</title>
<path fill="none" stroke="black" d="M676.349,-174.809C703.977,-157.755 746.377,-131.582 776.096,-113.237"/>
<polygon fill="black" stroke="black" points="778.211,-116.045 784.882,-107.814 774.534,-110.088 778.211,-116.045"/>
</g>
<!-- O9_0_0 -->
<g id="node24" class="node"><title>O9_0_0</title>
<polygon fill="white" stroke="black" points="1189.5,-211 755.5,-211 755.5,-175 1189.5,-175 1189.5,-211"/>
<text text-anchor="middle" x="972.5" y="-189.3" font-family="Times,serif" font-size="14.00">OTHER: until a toothpick inserted into center of muffin comes out clean</text>
</g>
<!-- O9_0_0&#45;&gt;E9 -->
<g id="edge23" class="edge"><title>O9_0_0&#45;&gt;E9</title>
<path fill="none" stroke="black" d="M944.651,-174.809C917.023,-157.755 874.623,-131.582 844.904,-113.237"/>
<polygon fill="black" stroke="black" points="846.466,-110.088 836.118,-107.814 842.789,-116.045 846.466,-110.088"/>
</g>
</g>
</svg>
