<?xml version="1.0" encoding="UTF-8" standalone="no"?>
<!DOCTYPE svg PUBLIC "-//W3C//DTD SVG 1.1//EN"
 "http://www.w3.org/Graphics/SVG/1.1/DTD/svg11.dtd">
<!-- Generated by graphviz version 2.38.0 (20140413.2041)
 -->
<!-- Title: recipe Pages: 1 -->
<svg width="2704pt" height="704pt"
 viewBox="0.00 0.00 2703.50 704.00" xmlns="http://www.w3.org/2000/svg" xmlns:xlink="http://www.w3.org/1999/xlink">
<g id="graph0" class="graph" transform="scale(1 1) rotate(0) translate(4 700)">
<title>recipe</title>
<polygon fill="white" stroke="none" points="-4,4 -4,-700 2699.5,-700 2699.5,4 -4,4"/>
<!-- E0 -->
<g id="node1" class="node"><title>E0</title>
<ellipse fill="azure" stroke="black" cx="2536.5" cy="-193" rx="68.7879" ry="18"/>
<text text-anchor="middle" x="2536.5" y="-189.3" font-family="Times,serif" font-size="14.00">preheat (S0,P0)</text>
</g>
<!-- E7 -->
<g id="node8" class="node"><title>E7</title>
<ellipse fill="azure" stroke="black" cx="2207.5" cy="-91" rx="68.7879" ry="18"/>
<text text-anchor="middle" x="2207.5" y="-87.3" font-family="Times,serif" font-size="14.00">bake (S7,P370)</text>
</g>
<!-- E0&#45;&gt;E7 -->
<g id="edge16" class="edge"><title>E0&#45;&gt;E7</title>
<path fill="none" stroke="black" d="M2493.49,-178.927C2433.52,-160.698 2324.86,-127.673 2260.13,-107.997"/>
<polygon fill="black" stroke="black" points="2261.11,-104.636 2250.52,-105.076 2259.07,-111.333 2261.11,-104.636"/>
<text text-anchor="middle" x="2508" y="-145.8" font-family="Times,serif" font-size="14.00">OUTPUT: </text>
<text text-anchor="middle" x="2508" y="-130.8" font-family="Times,serif" font-size="14.00">INPUT: in the preheated oven</text>
</g>
<!-- E1 -->
<g id="node2" class="node"><title>E1</title>
<ellipse fill="azure" stroke="black" cx="200.5" cy="-604" rx="69.5877" ry="18"/>
<text text-anchor="middle" x="200.5" y="-600.3" font-family="Times,serif" font-size="14.00">grease (S1,P38)</text>
</g>
<!-- E2 -->
<g id="node3" class="node"><title>E2</title>
<ellipse fill="azure" stroke="black" cx="764.5" cy="-501" rx="69.5877" ry="18"/>
<text text-anchor="middle" x="764.5" y="-497.3" font-family="Times,serif" font-size="14.00">whisk (S2,P84)</text>
</g>
<!-- E1&#45;&gt;E2 -->
<g id="edge7" class="edge"><title>E1&#45;&gt;E2</title>
<path fill="none" stroke="black" d="M249.922,-591.143C259.388,-589 269.234,-586.859 278.5,-585 426.683,-555.274 601.65,-527.07 695.964,-512.428"/>
<polygon fill="black" stroke="black" points="696.601,-515.872 705.947,-510.883 695.529,-508.954 696.601,-515.872"/>
<text text-anchor="middle" x="591" y="-555.8" font-family="Times,serif" font-size="14.00">OUTPUT: </text>
<text text-anchor="middle" x="591" y="-540.8" font-family="Times,serif" font-size="14.00">INPUT: together</text>
</g>
<!-- E4 -->
<g id="node5" class="node"><title>E4</title>
<ellipse fill="azure" stroke="black" cx="1516.5" cy="-398" rx="63.0888" ry="18"/>
<text text-anchor="middle" x="1516.5" y="-394.3" font-family="Times,serif" font-size="14.00">stir (S4,P258)</text>
</g>
<!-- E2&#45;&gt;E4 -->
<g id="edge8" class="edge"><title>E2&#45;&gt;E4</title>
<path fill="none" stroke="black" d="M824.768,-491.905C963.89,-473.22 1306.53,-427.2 1450.8,-407.825"/>
<polygon fill="black" stroke="black" points="1451.39,-411.276 1460.83,-406.476 1450.46,-404.339 1451.39,-411.276"/>
<text text-anchor="middle" x="1294" y="-453.8" font-family="Times,serif" font-size="14.00">OUTPUT: </text>
<text text-anchor="middle" x="1294" y="-438.8" font-family="Times,serif" font-size="14.00">INPUT: flour mixture</text>
</g>
<!-- E3 -->
<g id="node4" class="node"><title>E3</title>
<ellipse fill="azure" stroke="black" cx="1516.5" cy="-501" rx="74.187" ry="18"/>
<text text-anchor="middle" x="1516.5" y="-497.3" font-family="Times,serif" font-size="14.00">whisk (S3,P175)</text>
</g>
<!-- E3&#45;&gt;E4 -->
<g id="edge9" class="edge"><title>E3&#45;&gt;E4</title>
<path fill="none" stroke="black" d="M1516.5,-482.867C1516.5,-467.414 1516.5,-444.416 1516.5,-426.409"/>
<polygon fill="black" stroke="black" points="1520,-426.217 1516.5,-416.217 1513,-426.217 1520,-426.217"/>
<text text-anchor="middle" x="1599.5" y="-453.8" font-family="Times,serif" font-size="14.00">OUTPUT: </text>
<text text-anchor="middle" x="1599.5" y="-438.8" font-family="Times,serif" font-size="14.00">INPUT: into banana mixture</text>
</g>
<!-- E5 -->
<g id="node6" class="node"><title>E5</title>
<ellipse fill="azure" stroke="black" cx="1640.5" cy="-295" rx="66.0889" ry="18"/>
<text text-anchor="middle" x="1640.5" y="-291.3" font-family="Times,serif" font-size="14.00">fold (S5,P330)</text>
</g>
<!-- E4&#45;&gt;E5 -->
<g id="edge11" class="edge"><title>E4&#45;&gt;E5</title>
<path fill="none" stroke="black" d="M1532.73,-380.449C1546.69,-366.58 1567.65,-346.603 1587.5,-331 1593.4,-326.361 1599.91,-321.715 1606.29,-317.394"/>
<polygon fill="black" stroke="black" points="1608.43,-320.173 1614.83,-311.733 1604.56,-314.338 1608.43,-320.173"/>
<text text-anchor="middle" x="1619.5" y="-349.8" font-family="Times,serif" font-size="14.00">OUTPUT: </text>
<text text-anchor="middle" x="1619.5" y="-334.8" font-family="Times,serif" font-size="14.00">INPUT: </text>
</g>
<!-- E6 -->
<g id="node7" class="node"><title>E6</title>
<ellipse fill="azure" stroke="black" cx="1773.5" cy="-193" rx="61.99" ry="18"/>
<text text-anchor="middle" x="1773.5" y="-189.3" font-family="Times,serif" font-size="14.00">fill (S6,P348)</text>
</g>
<!-- E5&#45;&gt;E6 -->
<g id="edge13" class="edge"><title>E5&#45;&gt;E6</title>
<path fill="none" stroke="black" d="M1659.78,-277.771C1675.97,-264.329 1699.86,-244.922 1721.5,-229 1727.65,-224.477 1734.33,-219.806 1740.79,-215.407"/>
<polygon fill="black" stroke="black" points="1743.05,-218.104 1749.39,-209.617 1739.14,-212.297 1743.05,-218.104"/>
<text text-anchor="middle" x="1753.5" y="-247.8" font-family="Times,serif" font-size="14.00">OUTPUT: </text>
<text text-anchor="middle" x="1753.5" y="-232.8" font-family="Times,serif" font-size="14.00">INPUT: </text>
</g>
<!-- E6&#45;&gt;E7 -->
<g id="edge15" class="edge"><title>E6&#45;&gt;E7</title>
<path fill="none" stroke="black" d="M1818.75,-180.514C1871.77,-167.163 1962.33,-144.702 2040.5,-127 2074.91,-119.207 2113.45,-111.089 2144.83,-104.636"/>
<polygon fill="black" stroke="black" points="2145.66,-108.039 2154.76,-102.601 2144.26,-101.181 2145.66,-108.039"/>
<text text-anchor="middle" x="2072.5" y="-145.8" font-family="Times,serif" font-size="14.00">OUTPUT: </text>
<text text-anchor="middle" x="2072.5" y="-130.8" font-family="Times,serif" font-size="14.00">INPUT: </text>
</g>
<!-- EOR -->
<g id="node20" class="node"><title>EOR</title>
<ellipse fill="plum" stroke="black" cx="2207.5" cy="-18" rx="57.3905" ry="18"/>
<text text-anchor="middle" x="2207.5" y="-14.3" font-family="Times,serif" font-size="14.00">Bon appetit!</text>
</g>
<!-- E7&#45;&gt;EOR -->
<g id="edge19" class="edge"><title>E7&#45;&gt;EOR</title>
<path fill="none" stroke="black" d="M2207.5,-72.8129C2207.5,-64.7895 2207.5,-55.0475 2207.5,-46.0691"/>
<polygon fill="black" stroke="black" points="2211,-46.0288 2207.5,-36.0288 2204,-46.0289 2211,-46.0288"/>
</g>
<!-- D1 -->
<g id="node9" class="node"><title>D1</title>
<polygon fill="white" stroke="black" points="189,-696 0,-696 0,-660 189,-660 189,-696"/>
<text text-anchor="middle" x="94.5" y="-674.3" font-family="Times,serif" font-size="14.00">DOBJ: 24 muffin cups or line</text>
</g>
<!-- D1&#45;&gt;E1 -->
<g id="edge1" class="edge"><title>D1&#45;&gt;E1</title>
<path fill="none" stroke="black" d="M119.621,-659.937C134.291,-649.972 152.945,-637.301 168.641,-626.64"/>
<polygon fill="black" stroke="black" points="170.707,-629.468 177.012,-620.954 166.773,-623.678 170.707,-629.468"/>
</g>
<!-- P1_0 -->
<g id="node10" class="node"><title>P1_0</title>
<polygon fill="white" stroke="black" points="407.5,-696 207.5,-696 207.5,-660 407.5,-660 407.5,-696"/>
<text text-anchor="middle" x="307.5" y="-674.3" font-family="Times,serif" font-size="14.00">PREP: with paper muffin liners</text>
</g>
<!-- P1_0&#45;&gt;E1 -->
<g id="edge2" class="edge"><title>P1_0&#45;&gt;E1</title>
<path fill="none" stroke="black" d="M282.142,-659.937C267.334,-649.972 248.504,-637.301 232.66,-626.64"/>
<polygon fill="black" stroke="black" points="234.46,-623.633 224.209,-620.954 230.552,-629.441 234.46,-623.633"/>
</g>
<!-- D0 -->
<g id="node11" class="node"><title>D0</title>
<polygon fill="white" stroke="black" points="2695.5,-313 2377.5,-313 2377.5,-277 2695.5,-277 2695.5,-313"/>
<text text-anchor="middle" x="2536.5" y="-291.3" font-family="Times,serif" font-size="14.00">DOBJ: oven to 350 degrees F &#45;LRB&#45; 175 degrees C</text>
</g>
<!-- D0&#45;&gt;E0 -->
<g id="edge3" class="edge"><title>D0&#45;&gt;E0</title>
<path fill="none" stroke="black" d="M2536.5,-276.581C2536.5,-261.382 2536.5,-239.067 2536.5,-221.464"/>
<polygon fill="black" stroke="black" points="2540,-221.219 2536.5,-211.219 2533,-221.219 2540,-221.219"/>
</g>
<!-- D3 -->
<g id="node12" class="node"><title>D3</title>
<polygon fill="peachpuff" stroke="black" points="1774,-623 1259,-623 1259,-585 1774,-585 1774,-623"/>
<text text-anchor="middle" x="1516.5" y="-607.8" font-family="Times,serif" font-size="14.00">DOBJ: sour cream, eggs, vanilla extract, mashed ripe banana, applesauce, melted butter</text>
<text text-anchor="middle" x="1516.5" y="-592.8" font-family="Times,serif" font-size="14.00">(text: bananas , sour cream , applesauce , melted butter , eggs , vanilla in a large bowl)</text>
</g>
<!-- D3&#45;&gt;E3 -->
<g id="edge4" class="edge"><title>D3&#45;&gt;E3</title>
<path fill="none" stroke="black" d="M1516.5,-584.943C1516.5,-569.531 1516.5,-547.127 1516.5,-529.488"/>
<polygon fill="black" stroke="black" points="1520,-529.226 1516.5,-519.226 1513,-529.226 1520,-529.226"/>
</g>
<!-- O3_0 -->
<g id="node13" class="node"><title>O3_0</title>
<polygon fill="white" stroke="black" points="1911,-622 1792,-622 1792,-586 1911,-586 1911,-622"/>
<text text-anchor="middle" x="1851.5" y="-600.3" font-family="Times,serif" font-size="14.00">OTHER: together</text>
</g>
<!-- O3_0&#45;&gt;E3 -->
<g id="edge5" class="edge"><title>O3_0&#45;&gt;E3</title>
<path fill="none" stroke="black" d="M1795.05,-585.981C1732.61,-567.155 1632.7,-537.032 1571.03,-518.442"/>
<polygon fill="black" stroke="black" points="1571.69,-514.984 1561.1,-515.448 1569.67,-521.686 1571.69,-514.984"/>
</g>
<!-- D2_ing -->
<g id="node14" class="node"><title>D2_ing</title>
<polygon fill="peachpuff" stroke="black" points="1241,-623 288,-623 288,-585 1241,-585 1241,-623"/>
<text text-anchor="middle" x="764.5" y="-607.8" font-family="Times,serif" font-size="14.00">DOBJ: baking powder, white sugar, quick&#45;cooking rolled oats, ground cinnamon, ground flax seed, all&#45;purpose flour, sweetened flaked coconut, baking soda, salt</text>
<text text-anchor="middle" x="764.5" y="-592.8" font-family="Times,serif" font-size="14.00">(text: &#160;cinnamon , &#160;coconut , &#160;flax , &#160;baking powder , flour , &#160;salt in a bowl, &#160;sugar , &#160;oats , &#160;baking soda )</text>
</g>
<!-- D2_ing&#45;&gt;E2 -->
<g id="edge6" class="edge"><title>D2_ing&#45;&gt;E2</title>
<path fill="none" stroke="black" d="M764.5,-584.943C764.5,-569.531 764.5,-547.127 764.5,-529.488"/>
<polygon fill="black" stroke="black" points="768,-529.226 764.5,-519.226 761,-529.226 768,-529.226"/>
</g>
<!-- O4_0_0 -->
<g id="node15" class="node"><title>O4_0_0</title>
<polygon fill="white" stroke="black" points="1922.5,-519 1608.5,-519 1608.5,-483 1922.5,-483 1922.5,-519"/>
<text text-anchor="middle" x="1765.5" y="-497.3" font-family="Times,serif" font-size="14.00">OTHER: just until all dry ingredients are moistened</text>
</g>
<!-- O4_0_0&#45;&gt;E4 -->
<g id="edge10" class="edge"><title>O4_0_0&#45;&gt;E4</title>
<path fill="none" stroke="black" d="M1749.68,-482.756C1734.85,-467.708 1711.3,-446.528 1686.5,-435 1646.34,-416.336 1631.78,-426.375 1588.5,-417 1582.85,-415.777 1576.98,-414.43 1571.12,-413.04"/>
<polygon fill="black" stroke="black" points="1571.88,-409.622 1561.33,-410.675 1570.23,-416.426 1571.88,-409.622"/>
</g>
<!-- P5_0_ing -->
<g id="node16" class="node"><title>P5_0_ing</title>
<polygon fill="peachpuff" stroke="black" points="1767.5,-417 1597.5,-417 1597.5,-379 1767.5,-379 1767.5,-417"/>
<text text-anchor="middle" x="1682.5" y="-401.8" font-family="Times,serif" font-size="14.00">PREP: in fresh blueberries</text>
<text text-anchor="middle" x="1682.5" y="-386.8" font-family="Times,serif" font-size="14.00">(text: in blueberries)</text>
</g>
<!-- P5_0_ing&#45;&gt;E5 -->
<g id="edge12" class="edge"><title>P5_0_ing&#45;&gt;E5</title>
<path fill="none" stroke="black" d="M1674.99,-378.943C1668.46,-363.24 1658.91,-340.28 1651.52,-322.495"/>
<polygon fill="black" stroke="black" points="1654.73,-321.116 1647.66,-313.226 1648.27,-323.804 1654.73,-321.116"/>
</g>
<!-- O6_0_0 -->
<g id="node17" class="node"><title>O6_0_0</title>
<polygon fill="white" stroke="black" points="1912,-313 1725,-313 1725,-277 1912,-277 1912,-313"/>
<text text-anchor="middle" x="1818.5" y="-291.3" font-family="Times,serif" font-size="14.00">OTHER: muffin cups 2/3 full</text>
</g>
<!-- O6_0_0&#45;&gt;E6 -->
<g id="edge14" class="edge"><title>O6_0_0&#45;&gt;E6</title>
<path fill="none" stroke="black" d="M1810.66,-276.581C1803.65,-261 1793.27,-237.943 1785.27,-220.149"/>
<polygon fill="black" stroke="black" points="1788.39,-218.569 1781.1,-210.886 1782.01,-221.441 1788.39,-218.569"/>
</g>
<!-- O7_0_0 -->
<g id="node18" class="node"><title>O7_0_0</title>
<polygon fill="white" stroke="black" points="2255.5,-211 1853.5,-211 1853.5,-175 2255.5,-175 2255.5,-211"/>
<text text-anchor="middle" x="2054.5" y="-189.3" font-family="Times,serif" font-size="14.00">OTHER: until a toothpick inserted near the center comes out clean </text>
</g>
<!-- O7_0_0&#45;&gt;E7 -->
<g id="edge17" class="edge"><title>O7_0_0&#45;&gt;E7</title>
<path fill="none" stroke="black" d="M2080.8,-174.809C2106.71,-157.879 2146.36,-131.962 2174.39,-113.638"/>
<polygon fill="black" stroke="black" points="2176.6,-116.377 2183.06,-107.977 2172.77,-110.518 2176.6,-116.377"/>
</g>
<!-- O7_0_1 -->
<g id="node19" class="node"><title>O7_0_1</title>
<polygon fill="white" stroke="black" points="2449.5,-211 2273.5,-211 2273.5,-175 2449.5,-175 2449.5,-211"/>
<text text-anchor="middle" x="2361.5" y="-189.3" font-family="Times,serif" font-size="14.00">OTHER: &#160;about 20 minutes</text>
</g>
<!-- O7_0_1&#45;&gt;E7 -->
<g id="edge18" class="edge"><title>O7_0_1&#45;&gt;E7</title>
<path fill="none" stroke="black" d="M2335.03,-174.809C2308.95,-157.879 2269.04,-131.962 2240.82,-113.638"/>
<polygon fill="black" stroke="black" points="2242.4,-110.487 2232.1,-107.977 2238.58,-116.358 2242.4,-110.487"/>
</g>
</g>
</svg>
