<?xml version="1.0" encoding="UTF-8" standalone="no"?>
<!DOCTYPE svg PUBLIC "-//W3C//DTD SVG 1.1//EN"
 "http://www.w3.org/Graphics/SVG/1.1/DTD/svg11.dtd">
<!-- Generated by graphviz version 2.38.0 (20140413.2041)
 -->
<!-- Title: recipe Pages: 1 -->
<svg width="1573pt" height="810pt"
 viewBox="0.00 0.00 1572.50 810.00" xmlns="http://www.w3.org/2000/svg" xmlns:xlink="http://www.w3.org/1999/xlink">
<g id="graph0" class="graph" transform="scale(1 1) rotate(0) translate(4 806)">
<title>recipe</title>
<polygon fill="white" stroke="none" points="-4,4 -4,-806 1568.5,-806 1568.5,4 -4,4"/>
<!-- E0 -->
<g id="node1" class="node"><title>E0</title>
<ellipse fill="azure" stroke="black" cx="1421.5" cy="-708" rx="81.4863" ry="18"/>
<text text-anchor="middle" x="1421.5" y="-704.3" font-family="Times,serif" font-size="14.00">bring stir (S0,P12)</text>
</g>
<!-- E1 -->
<g id="node2" class="node"><title>E1</title>
<ellipse fill="azure" stroke="black" cx="1421.5" cy="-604" rx="64.9885" ry="18"/>
<text text-anchor="middle" x="1421.5" y="-600.3" font-family="Times,serif" font-size="14.00">cook (S0,P44)</text>
</g>
<!-- E0&#45;&gt;E1 -->
<g id="edge7" class="edge"><title>E0&#45;&gt;E1</title>
<path fill="none" stroke="black" d="M1421.5,-689.697C1421.5,-673.923 1421.5,-650.364 1421.5,-632.094"/>
<polygon fill="black" stroke="black" points="1425,-632.047 1421.5,-622.047 1418,-632.047 1425,-632.047"/>
<text text-anchor="middle" x="1472" y="-659.8" font-family="Times,serif" font-size="14.00">OUTPUT: </text>
<text text-anchor="middle" x="1472" y="-644.8" font-family="Times,serif" font-size="14.00">INPUT: 1 minute</text>
</g>
<!-- E2 -->
<g id="node3" class="node"><title>E2</title>
<ellipse fill="azure" stroke="black" cx="1421.5" cy="-500" rx="66.8882" ry="18"/>
<text text-anchor="middle" x="1421.5" y="-496.3" font-family="Times,serif" font-size="14.00">cover (S1,P56)</text>
</g>
<!-- E1&#45;&gt;E2 -->
<g id="edge8" class="edge"><title>E1&#45;&gt;E2</title>
<path fill="none" stroke="black" d="M1421.5,-585.697C1421.5,-569.923 1421.5,-546.364 1421.5,-528.094"/>
<polygon fill="black" stroke="black" points="1425,-528.047 1421.5,-518.047 1418,-528.047 1425,-528.047"/>
<text text-anchor="middle" x="1453.5" y="-555.8" font-family="Times,serif" font-size="14.00">OUTPUT: </text>
<text text-anchor="middle" x="1453.5" y="-540.8" font-family="Times,serif" font-size="14.00">INPUT: </text>
</g>
<!-- E3 -->
<g id="node4" class="node"><title>E3</title>
<ellipse fill="azure" stroke="black" cx="1327.5" cy="-397" rx="74.187" ry="18"/>
<text text-anchor="middle" x="1327.5" y="-393.3" font-family="Times,serif" font-size="14.00">remove (S1,P65)</text>
</g>
<!-- E2&#45;&gt;E3 -->
<g id="edge9" class="edge"><title>E2&#45;&gt;E3</title>
<path fill="none" stroke="black" d="M1405.98,-482.322C1390.74,-465.947 1367.33,-440.793 1350.04,-422.217"/>
<polygon fill="black" stroke="black" points="1352.42,-419.639 1343.05,-414.703 1347.3,-424.408 1352.42,-419.639"/>
<text text-anchor="middle" x="1418.5" y="-451.8" font-family="Times,serif" font-size="14.00">OUTPUT: </text>
<text text-anchor="middle" x="1418.5" y="-436.8" font-family="Times,serif" font-size="14.00">INPUT: </text>
</g>
<!-- E4 -->
<g id="node5" class="node"><title>E4</title>
<ellipse fill="azure" stroke="black" cx="1180.5" cy="-295" rx="67.6881" ry="18"/>
<text text-anchor="middle" x="1180.5" y="-291.3" font-family="Times,serif" font-size="14.00">allow (S2,P80)</text>
</g>
<!-- E3&#45;&gt;E4 -->
<g id="edge11" class="edge"><title>E3&#45;&gt;E4</title>
<path fill="none" stroke="black" d="M1303.88,-379.933C1279.13,-363.095 1240.08,-336.534 1212.56,-317.809"/>
<polygon fill="black" stroke="black" points="1214.3,-314.758 1204.06,-312.027 1210.36,-320.545 1214.3,-314.758"/>
<text text-anchor="middle" x="1308.5" y="-349.8" font-family="Times,serif" font-size="14.00">OUTPUT: </text>
<text text-anchor="middle" x="1308.5" y="-334.8" font-family="Times,serif" font-size="14.00">INPUT: </text>
</g>
<!-- E5 -->
<g id="node6" class="node"><title>E5</title>
<ellipse fill="azure" stroke="black" cx="1180.5" cy="-193" rx="73.387" ry="18"/>
<text text-anchor="middle" x="1180.5" y="-189.3" font-family="Times,serif" font-size="14.00">preheat (S3,P92)</text>
</g>
<!-- E4&#45;&gt;E5 -->
<g id="edge13" class="edge"><title>E4&#45;&gt;E5</title>
<path fill="none" stroke="black" d="M1180.5,-276.581C1180.5,-261.382 1180.5,-239.067 1180.5,-221.464"/>
<polygon fill="black" stroke="black" points="1184,-221.219 1180.5,-211.219 1177,-221.219 1184,-221.219"/>
<text text-anchor="middle" x="1334.5" y="-247.8" font-family="Times,serif" font-size="14.00">OUTPUT: </text>
<text text-anchor="middle" x="1334.5" y="-232.8" font-family="Times,serif" font-size="14.00">INPUT: oven to 375 degrees F &#45;LRB&#45; 190 degrees C</text>
</g>
<!-- E14 -->
<g id="node15" class="node"><title>E14</title>
<ellipse fill="azure" stroke="black" cx="945.5" cy="-91" rx="68.7879" ry="18"/>
<text text-anchor="middle" x="945.5" y="-87.3" font-family="Times,serif" font-size="14.00">bake (S9,P376)</text>
</g>
<!-- E5&#45;&gt;E14 -->
<g id="edge25" class="edge"><title>E5&#45;&gt;E14</title>
<path fill="none" stroke="black" d="M1145.57,-177.137C1103.91,-159.41 1034.25,-129.766 989.098,-110.553"/>
<polygon fill="black" stroke="black" points="990.426,-107.314 979.854,-106.619 987.685,-113.755 990.426,-107.314"/>
<text text-anchor="middle" x="1235.5" y="-145.8" font-family="Times,serif" font-size="14.00">OUTPUT: </text>
<text text-anchor="middle" x="1235.5" y="-130.8" font-family="Times,serif" font-size="14.00">INPUT: in preheated oven for 25 to 30 minutes</text>
</g>
<!-- E6 -->
<g id="node7" class="node"><title>E6</title>
<ellipse fill="azure" stroke="black" cx="703.5" cy="-295" rx="111.581" ry="18"/>
<text text-anchor="middle" x="703.5" y="-291.3" font-family="Times,serif" font-size="14.00">grease and flour (S4,P130)</text>
</g>
<!-- E13 -->
<g id="node14" class="node"><title>E13</title>
<ellipse fill="azure" stroke="black" cx="710.5" cy="-193" rx="73.387" ry="18"/>
<text text-anchor="middle" x="710.5" y="-189.3" font-family="Times,serif" font-size="14.00">scoop (S8,P354)</text>
</g>
<!-- E6&#45;&gt;E13 -->
<g id="edge23" class="edge"><title>E6&#45;&gt;E13</title>
<path fill="none" stroke="black" d="M704.719,-276.581C705.783,-261.382 707.345,-239.067 708.577,-221.464"/>
<polygon fill="black" stroke="black" points="712.088,-221.439 709.295,-211.219 705.105,-220.95 712.088,-221.439"/>
<text text-anchor="middle" x="790.5" y="-247.8" font-family="Times,serif" font-size="14.00">OUTPUT: </text>
<text text-anchor="middle" x="790.5" y="-232.8" font-family="Times,serif" font-size="14.00">INPUT: into 12 muffin cups</text>
</g>
<!-- E7 -->
<g id="node8" class="node"><title>E7</title>
<ellipse fill="azure" stroke="black" cx="750.5" cy="-708" rx="63.8893" ry="18"/>
<text text-anchor="middle" x="750.5" y="-704.3" font-family="Times,serif" font-size="14.00">use (S4,P157)</text>
</g>
<!-- E9 -->
<g id="node10" class="node"><title>E9</title>
<ellipse fill="azure" stroke="black" cx="750.5" cy="-604" rx="71.4873" ry="18"/>
<text text-anchor="middle" x="750.5" y="-600.3" font-family="Times,serif" font-size="14.00">make (S6,P232)</text>
</g>
<!-- E7&#45;&gt;E9 -->
<g id="edge14" class="edge"><title>E7&#45;&gt;E9</title>
<path fill="none" stroke="black" d="M750.5,-689.697C750.5,-673.923 750.5,-650.364 750.5,-632.094"/>
<polygon fill="black" stroke="black" points="754,-632.047 750.5,-622.047 747,-632.047 754,-632.047"/>
<text text-anchor="middle" x="830" y="-659.8" font-family="Times,serif" font-size="14.00">OUTPUT: </text>
<text text-anchor="middle" x="830" y="-644.8" font-family="Times,serif" font-size="14.00">INPUT: a well in the center</text>
</g>
<!-- E8 -->
<g id="node9" class="node"><title>E8</title>
<ellipse fill="azure" stroke="black" cx="577.5" cy="-604" rx="83.3857" ry="18"/>
<text text-anchor="middle" x="577.5" y="-600.3" font-family="Times,serif" font-size="14.00">combine (S5,P185)</text>
</g>
<!-- E10 -->
<g id="node11" class="node"><title>E10</title>
<ellipse fill="azure" stroke="black" cx="750.5" cy="-500" rx="64.9885" ry="18"/>
<text text-anchor="middle" x="750.5" y="-496.3" font-family="Times,serif" font-size="14.00">add (S6,P256)</text>
</g>
<!-- E8&#45;&gt;E10 -->
<g id="edge16" class="edge"><title>E8&#45;&gt;E10</title>
<path fill="none" stroke="black" d="M592.556,-586.075C606.386,-571.395 628.083,-550.447 650.5,-537 664.389,-528.669 680.509,-521.818 695.698,-516.413"/>
<polygon fill="black" stroke="black" points="697.176,-519.607 705.512,-513.068 694.918,-512.981 697.176,-519.607"/>
<text text-anchor="middle" x="698.5" y="-555.8" font-family="Times,serif" font-size="14.00">OUTPUT: </text>
<text text-anchor="middle" x="698.5" y="-540.8" font-family="Times,serif" font-size="14.00">INPUT: &#160;cooked</text>
</g>
<!-- E9&#45;&gt;E10 -->
<g id="edge17" class="edge"><title>E9&#45;&gt;E10</title>
<path fill="none" stroke="black" d="M750.5,-585.697C750.5,-569.923 750.5,-546.364 750.5,-528.094"/>
<polygon fill="black" stroke="black" points="754,-528.047 750.5,-518.047 747,-528.047 754,-528.047"/>
<text text-anchor="middle" x="822.5" y="-555.8" font-family="Times,serif" font-size="14.00">OUTPUT: </text>
<text text-anchor="middle" x="822.5" y="-540.8" font-family="Times,serif" font-size="14.00">INPUT: &#160;cooled oatmeal </text>
</g>
<!-- E11 -->
<g id="node12" class="node"><title>E11</title>
<ellipse fill="azure" stroke="black" cx="871.5" cy="-397" rx="81.4863" ry="18"/>
<text text-anchor="middle" x="871.5" y="-393.3" font-family="Times,serif" font-size="14.00">coconut (S6,P324)</text>
</g>
<!-- E10&#45;&gt;E11 -->
<g id="edge18" class="edge"><title>E10&#45;&gt;E11</title>
<path fill="none" stroke="black" d="M769.941,-482.773C789.932,-466.086 821.248,-439.946 843.822,-421.103"/>
<polygon fill="black" stroke="black" points="846.271,-423.618 851.706,-414.523 841.786,-418.244 846.271,-423.618"/>
<text text-anchor="middle" x="861.5" y="-451.8" font-family="Times,serif" font-size="14.00">OUTPUT: </text>
<text text-anchor="middle" x="861.5" y="-436.8" font-family="Times,serif" font-size="14.00">INPUT: </text>
</g>
<!-- E12 -->
<g id="node13" class="node"><title>E12</title>
<ellipse fill="azure" stroke="black" cx="898.5" cy="-295" rx="65.7887" ry="18"/>
<text text-anchor="middle" x="898.5" y="-291.3" font-family="Times,serif" font-size="14.00">mix (S7,P339)</text>
</g>
<!-- E11&#45;&gt;E12 -->
<g id="edge20" class="edge"><title>E11&#45;&gt;E12</title>
<path fill="none" stroke="black" d="M876.203,-378.581C880.346,-363.238 886.446,-340.645 891.219,-322.968"/>
<polygon fill="black" stroke="black" points="894.623,-323.786 893.851,-313.219 887.865,-321.961 894.623,-323.786"/>
<text text-anchor="middle" x="921.5" y="-349.8" font-family="Times,serif" font-size="14.00">OUTPUT: </text>
<text text-anchor="middle" x="921.5" y="-334.8" font-family="Times,serif" font-size="14.00">INPUT: </text>
</g>
<!-- E12&#45;&gt;E13 -->
<g id="edge22" class="edge"><title>E12&#45;&gt;E13</title>
<path fill="none" stroke="black" d="M897.301,-276.778C895.326,-261.956 890.13,-241.103 876.5,-229 875.993,-228.55 821.186,-217.046 774.691,-207.348"/>
<polygon fill="black" stroke="black" points="775.119,-203.863 764.616,-205.248 773.691,-210.715 775.119,-203.863"/>
<text text-anchor="middle" x="926.5" y="-247.8" font-family="Times,serif" font-size="14.00">OUTPUT: </text>
<text text-anchor="middle" x="926.5" y="-232.8" font-family="Times,serif" font-size="14.00">INPUT: </text>
</g>
<!-- E13&#45;&gt;E14 -->
<g id="edge24" class="edge"><title>E13&#45;&gt;E14</title>
<path fill="none" stroke="black" d="M745.428,-177.137C787.088,-159.41 856.749,-129.766 901.902,-110.553"/>
<polygon fill="black" stroke="black" points="903.315,-113.755 911.146,-106.619 900.574,-107.314 903.315,-113.755"/>
<text text-anchor="middle" x="895.5" y="-145.8" font-family="Times,serif" font-size="14.00">OUTPUT: </text>
<text text-anchor="middle" x="895.5" y="-130.8" font-family="Times,serif" font-size="14.00">INPUT: </text>
</g>
<!-- EOR -->
<g id="node28" class="node"><title>EOR</title>
<ellipse fill="plum" stroke="black" cx="945.5" cy="-18" rx="57.3905" ry="18"/>
<text text-anchor="middle" x="945.5" y="-14.3" font-family="Times,serif" font-size="14.00">Bon appetit!</text>
</g>
<!-- E14&#45;&gt;EOR -->
<g id="edge27" class="edge"><title>E14&#45;&gt;EOR</title>
<path fill="none" stroke="black" d="M945.5,-72.8129C945.5,-64.7895 945.5,-55.0475 945.5,-46.0691"/>
<polygon fill="black" stroke="black" points="949,-46.0288 945.5,-36.0288 942,-46.0289 949,-46.0288"/>
</g>
<!-- D6 -->
<g id="node16" class="node"><title>D6</title>
<polygon fill="white" stroke="black" points="770.5,-415 636.5,-415 636.5,-379 770.5,-379 770.5,-415"/>
<text text-anchor="middle" x="703.5" y="-393.3" font-family="Times,serif" font-size="14.00">DOBJ: a muffin pan</text>
</g>
<!-- D6&#45;&gt;E6 -->
<g id="edge1" class="edge"><title>D6&#45;&gt;E6</title>
<path fill="none" stroke="black" d="M703.5,-378.581C703.5,-363.382 703.5,-341.067 703.5,-323.464"/>
<polygon fill="black" stroke="black" points="707,-323.219 703.5,-313.219 700,-323.219 707,-323.219"/>
</g>
<!-- D8 -->
<g id="node17" class="node"><title>D8</title>
<polygon fill="peachpuff" stroke="black" points="495,-727 0,-727 0,-689 495,-689 495,-727"/>
<text text-anchor="middle" x="247.5" y="-711.8" font-family="Times,serif" font-size="14.00">DOBJ: baking powder, ground nutmeg, white sugar, all&#45;purpose flour, wheat bran</text>
<text text-anchor="middle" x="247.5" y="-696.8" font-family="Times,serif" font-size="14.00">(text: flour , bran , sugar , baking powder , nutmeg)</text>
</g>
<!-- D8&#45;&gt;E8 -->
<g id="edge2" class="edge"><title>D8&#45;&gt;E8</title>
<path fill="none" stroke="black" d="M305.738,-688.999C366.821,-670.119 462.114,-640.665 522.108,-622.121"/>
<polygon fill="black" stroke="black" points="523.267,-625.426 531.788,-619.129 521.2,-618.739 523.267,-625.426"/>
</g>
<!-- P8_0 -->
<g id="node18" class="node"><title>P8_0</title>
<polygon fill="white" stroke="black" points="659.5,-726 513.5,-726 513.5,-690 659.5,-690 659.5,-726"/>
<text text-anchor="middle" x="586.5" y="-704.3" font-family="Times,serif" font-size="14.00">PREP: in a large bowl</text>
</g>
<!-- P8_0&#45;&gt;E8 -->
<g id="edge3" class="edge"><title>P8_0&#45;&gt;E8</title>
<path fill="none" stroke="black" d="M584.973,-689.697C583.581,-673.923 581.503,-650.364 579.891,-632.094"/>
<polygon fill="black" stroke="black" points="583.37,-631.701 579.004,-622.047 576.397,-632.316 583.37,-631.701"/>
</g>
<!-- P0_0 -->
<g id="node19" class="node"><title>P0_0</title>
<polygon fill="white" stroke="black" points="1412.5,-801 1276.5,-801 1276.5,-765 1412.5,-765 1412.5,-801"/>
<text text-anchor="middle" x="1344.5" y="-779.3" font-family="Times,serif" font-size="14.00">PREP: in a saucepan</text>
</g>
<!-- P0_0&#45;&gt;E0 -->
<g id="edge4" class="edge"><title>P0_0&#45;&gt;E0</title>
<path fill="none" stroke="black" d="M1362.75,-764.7C1372.87,-755.108 1385.59,-743.043 1396.61,-732.597"/>
<polygon fill="black" stroke="black" points="1399.06,-735.093 1403.91,-725.673 1394.25,-730.013 1399.06,-735.093"/>
</g>
<!-- P0_1 -->
<g id="node20" class="node"><title>P0_1</title>
<polygon fill="peachpuff" stroke="black" points="1564.5,-802 1430.5,-802 1430.5,-764 1564.5,-764 1564.5,-802"/>
<text text-anchor="middle" x="1497.5" y="-786.8" font-family="Times,serif" font-size="14.00">PREP: in rolled oats</text>
<text text-anchor="middle" x="1497.5" y="-771.8" font-family="Times,serif" font-size="14.00">(text: in oats)</text>
</g>
<!-- P0_1&#45;&gt;E0 -->
<g id="edge5" class="edge"><title>P0_1&#45;&gt;E0</title>
<path fill="none" stroke="black" d="M1478.71,-763.955C1468.88,-754.51 1456.72,-742.828 1446.14,-732.666"/>
<polygon fill="black" stroke="black" points="1448.41,-729.992 1438.77,-725.589 1443.56,-735.041 1448.41,-729.992"/>
</g>
<!-- D7 -->
<g id="node21" class="node"><title>D7</title>
<polygon fill="white" stroke="black" points="814.5,-801 686.5,-801 686.5,-765 814.5,-765 814.5,-801"/>
<text text-anchor="middle" x="750.5" y="-779.3" font-family="Times,serif" font-size="14.00">DOBJ: paper liners</text>
</g>
<!-- D7&#45;&gt;E7 -->
<g id="edge6" class="edge"><title>D7&#45;&gt;E7</title>
<path fill="none" stroke="black" d="M750.5,-764.7C750.5,-756.245 750.5,-745.869 750.5,-736.373"/>
<polygon fill="black" stroke="black" points="754,-736.176 750.5,-726.176 747,-736.176 754,-736.176"/>
</g>
<!-- P3_0_0 -->
<g id="node22" class="node"><title>P3_0_0</title>
<polygon fill="white" stroke="black" points="1337,-518 1222,-518 1222,-482 1337,-482 1337,-518"/>
<text text-anchor="middle" x="1279.5" y="-496.3" font-family="Times,serif" font-size="14.00">PREP: from heat</text>
</g>
<!-- P3_0_0&#45;&gt;E3 -->
<g id="edge10" class="edge"><title>P3_0_0&#45;&gt;E3</title>
<path fill="none" stroke="black" d="M1287.64,-481.867C1295.09,-466.196 1306.22,-442.766 1314.83,-424.651"/>
<polygon fill="black" stroke="black" points="1318.19,-425.752 1319.32,-415.217 1311.86,-422.747 1318.19,-425.752"/>
</g>
<!-- O4_0_0 -->
<g id="node23" class="node"><title>O4_0_0</title>
<polygon fill="white" stroke="black" points="1235.5,-415 1123.5,-415 1123.5,-379 1235.5,-379 1235.5,-415"/>
<text text-anchor="middle" x="1179.5" y="-393.3" font-family="Times,serif" font-size="14.00">OTHER: to cool</text>
</g>
<!-- O4_0_0&#45;&gt;E4 -->
<g id="edge12" class="edge"><title>O4_0_0&#45;&gt;E4</title>
<path fill="none" stroke="black" d="M1179.67,-378.581C1179.83,-363.382 1180.05,-341.067 1180.23,-323.464"/>
<polygon fill="black" stroke="black" points="1183.73,-323.254 1180.33,-313.219 1176.73,-323.184 1183.73,-323.254"/>
</g>
<!-- D10_ing -->
<g id="node24" class="node"><title>D10_ing</title>
<polygon fill="peachpuff" stroke="black" points="1331,-623 840,-623 840,-585 1331,-585 1331,-623"/>
<text text-anchor="middle" x="1085.5" y="-607.8" font-family="Times,serif" font-size="14.00">DOBJ: (8 ounce) can crushed pineapple, beaten egg, mashed banana, coconut milk</text>
<text text-anchor="middle" x="1085.5" y="-592.8" font-family="Times,serif" font-size="14.00">(text: &#160;egg , mashed banana , &#160;pineapple , &#160;coconut milk)</text>
</g>
<!-- D10_ing&#45;&gt;E10 -->
<g id="edge15" class="edge"><title>D10_ing&#45;&gt;E10</title>
<path fill="none" stroke="black" d="M1038.67,-584.993C1001.1,-570.909 946.846,-551.372 898.5,-537 898.354,-536.957 849.136,-524.986 807.505,-514.862"/>
<polygon fill="black" stroke="black" points="808.212,-511.432 797.668,-512.47 806.557,-518.234 808.212,-511.432"/>
</g>
<!-- O11_0_ing -->
<g id="node25" class="node"><title>O11_0_ing</title>
<polygon fill="peachpuff" stroke="black" points="993.5,-519 833.5,-519 833.5,-481 993.5,-481 993.5,-519"/>
<text text-anchor="middle" x="913.5" y="-503.8" font-family="Times,serif" font-size="14.00">OTHER: coconut extract</text>
<text text-anchor="middle" x="913.5" y="-488.8" font-family="Times,serif" font-size="14.00">(text: null extract)</text>
</g>
<!-- O11_0_ing&#45;&gt;E11 -->
<g id="edge19" class="edge"><title>O11_0_ing&#45;&gt;E11</title>
<path fill="none" stroke="black" d="M911.54,-480.945C909.556,-467.277 905.711,-448.307 898.5,-433 896.901,-429.607 894.929,-426.234 892.784,-422.996"/>
<polygon fill="black" stroke="black" points="895.553,-420.853 886.84,-414.824 889.892,-424.97 895.553,-420.853"/>
</g>
<!-- P12_0_0 -->
<g id="node26" class="node"><title>P12_0_0</title>
<polygon fill="white" stroke="black" points="1102.5,-415 970.5,-415 970.5,-379 1102.5,-379 1102.5,-415"/>
<text text-anchor="middle" x="1036.5" y="-393.3" font-family="Times,serif" font-size="14.00">PREP: until smooth</text>
</g>
<!-- P12_0_0&#45;&gt;E12 -->
<g id="edge21" class="edge"><title>P12_0_0&#45;&gt;E12</title>
<path fill="none" stroke="black" d="M1017.35,-378.84C1001.75,-365.204 978.871,-345.999 957.5,-331 950.423,-326.033 942.616,-321.069 935.061,-316.505"/>
<polygon fill="black" stroke="black" points="936.755,-313.441 926.367,-311.355 933.187,-319.463 936.755,-313.441"/>
</g>
<!-- O14_0_0 -->
<g id="node27" class="node"><title>O14_0_0</title>
<polygon fill="white" stroke="black" points="1089,-211 802,-211 802,-175 1089,-175 1089,-211"/>
<text text-anchor="middle" x="945.5" y="-189.3" font-family="Times,serif" font-size="14.00">OTHER: tops spring back when lightly tapped</text>
</g>
<!-- O14_0_0&#45;&gt;E14 -->
<g id="edge26" class="edge"><title>O14_0_0&#45;&gt;E14</title>
<path fill="none" stroke="black" d="M945.5,-174.581C945.5,-159.382 945.5,-137.067 945.5,-119.464"/>
<polygon fill="black" stroke="black" points="949,-119.219 945.5,-109.219 942,-119.219 949,-119.219"/>
</g>
</g>
</svg>
