<?xml version="1.0" encoding="UTF-8" standalone="no"?>
<!DOCTYPE svg PUBLIC "-//W3C//DTD SVG 1.1//EN"
 "http://www.w3.org/Graphics/SVG/1.1/DTD/svg11.dtd">
<!-- Generated by graphviz version 2.38.0 (20140413.2041)
 -->
<!-- Title: recipe Pages: 1 -->
<svg width="1777pt" height="808pt"
 viewBox="0.00 0.00 1776.50 808.00" xmlns="http://www.w3.org/2000/svg" xmlns:xlink="http://www.w3.org/1999/xlink">
<g id="graph0" class="graph" transform="scale(1 1) rotate(0) translate(4 804)">
<title>recipe</title>
<polygon fill="white" stroke="none" points="-4,4 -4,-804 1772.5,-804 1772.5,4 -4,4"/>
<!-- E0 -->
<g id="node1" class="node"><title>E0</title>
<ellipse fill="azure" stroke="black" cx="1609.5" cy="-193" rx="68.7879" ry="18"/>
<text text-anchor="middle" x="1609.5" y="-189.3" font-family="Times,serif" font-size="14.00">preheat (S0,P0)</text>
</g>
<!-- E10 -->
<g id="node11" class="node"><title>E10</title>
<ellipse fill="azure" stroke="black" cx="1283.5" cy="-91" rx="73.387" ry="18"/>
<text text-anchor="middle" x="1283.5" y="-87.3" font-family="Times,serif" font-size="14.00">bake (S10,P424)</text>
</g>
<!-- E0&#45;&gt;E10 -->
<g id="edge29" class="edge"><title>E0&#45;&gt;E10</title>
<path fill="none" stroke="black" d="M1566.55,-178.824C1507.55,-160.726 1401.46,-128.184 1337.26,-108.491"/>
<polygon fill="black" stroke="black" points="1337.92,-105.032 1327.33,-105.445 1335.86,-111.724 1337.92,-105.032"/>
<text text-anchor="middle" x="1571.5" y="-145.8" font-family="Times,serif" font-size="14.00">OUTPUT: </text>
<text text-anchor="middle" x="1571.5" y="-130.8" font-family="Times,serif" font-size="14.00">INPUT: in preheated oven</text>
</g>
<!-- E1 -->
<g id="node2" class="node"><title>E1</title>
<ellipse fill="azure" stroke="black" cx="564.5" cy="-295" rx="74.9875" ry="18"/>
<text text-anchor="middle" x="564.5" y="-291.3" font-family="Times,serif" font-size="14.00">prepare (S1,P38)</text>
</g>
<!-- E9 -->
<g id="node10" class="node"><title>E9</title>
<ellipse fill="azure" stroke="black" cx="839.5" cy="-193" rx="74.187" ry="18"/>
<text text-anchor="middle" x="839.5" y="-189.3" font-family="Times,serif" font-size="14.00">divide (S9,P382)</text>
</g>
<!-- E1&#45;&gt;E9 -->
<g id="edge26" class="edge"><title>E1&#45;&gt;E9</title>
<path fill="none" stroke="black" d="M568.414,-276.97C572.826,-261.851 581.561,-240.435 597.5,-229 622.566,-211.017 697.174,-202.172 756.99,-197.885"/>
<polygon fill="black" stroke="black" points="757.473,-201.36 767.211,-197.186 756.995,-194.377 757.473,-201.36"/>
<text text-anchor="middle" x="716.5" y="-247.8" font-family="Times,serif" font-size="14.00">OUTPUT: </text>
<text text-anchor="middle" x="716.5" y="-232.8" font-family="Times,serif" font-size="14.00">INPUT: among the prepared muffin cups</text>
</g>
<!-- E2 -->
<g id="node3" class="node"><title>E2</title>
<ellipse fill="azure" stroke="black" cx="718.5" cy="-397" rx="57.6901" ry="18"/>
<text text-anchor="middle" x="718.5" y="-393.3" font-family="Times,serif" font-size="14.00">sift (S2,P73)</text>
</g>
<!-- E3 -->
<g id="node4" class="node"><title>E3</title>
<ellipse fill="azure" stroke="black" cx="839.5" cy="-295" rx="61.1893" ry="18"/>
<text text-anchor="middle" x="839.5" y="-291.3" font-family="Times,serif" font-size="14.00">set (S3,P127)</text>
</g>
<!-- E2&#45;&gt;E3 -->
<g id="edge10" class="edge"><title>E2&#45;&gt;E3</title>
<path fill="none" stroke="black" d="M729.894,-379.232C740.105,-365.101 756.116,-345.002 773.5,-331 780.844,-325.085 789.339,-319.707 797.74,-315.038"/>
<polygon fill="black" stroke="black" points="799.563,-318.033 806.76,-310.257 796.285,-311.848 799.563,-318.033"/>
<text text-anchor="middle" x="805.5" y="-349.8" font-family="Times,serif" font-size="14.00">OUTPUT: </text>
<text text-anchor="middle" x="805.5" y="-334.8" font-family="Times,serif" font-size="14.00">INPUT: </text>
</g>
<!-- E3&#45;&gt;E9 -->
<g id="edge25" class="edge"><title>E3&#45;&gt;E9</title>
<path fill="none" stroke="black" d="M839.5,-276.581C839.5,-261.382 839.5,-239.067 839.5,-221.464"/>
<polygon fill="black" stroke="black" points="843,-221.219 839.5,-211.219 836,-221.219 843,-221.219"/>
<text text-anchor="middle" x="891" y="-247.8" font-family="Times,serif" font-size="14.00">OUTPUT: </text>
<text text-anchor="middle" x="891" y="-232.8" font-family="Times,serif" font-size="14.00">INPUT: the batter</text>
</g>
<!-- E4 -->
<g id="node5" class="node"><title>E4</title>
<ellipse fill="azure" stroke="black" cx="350.5" cy="-706" rx="73.387" ry="18"/>
<text text-anchor="middle" x="350.5" y="-702.3" font-family="Times,serif" font-size="14.00">cream (S4,P149)</text>
</g>
<!-- E5 -->
<g id="node6" class="node"><title>E5</title>
<ellipse fill="azure" stroke="black" cx="751.5" cy="-603" rx="83.6854" ry="18"/>
<text text-anchor="middle" x="751.5" y="-599.3" font-family="Times,serif" font-size="14.00">beat beat (S5,P196)</text>
</g>
<!-- E4&#45;&gt;E5 -->
<g id="edge12" class="edge"><title>E4&#45;&gt;E5</title>
<path fill="none" stroke="black" d="M386.256,-690.143C423.274,-675.281 483.065,-652.711 536.5,-639 579.893,-627.865 629.165,-619.541 669.582,-613.811"/>
<polygon fill="black" stroke="black" points="670.235,-617.254 679.658,-612.409 669.271,-610.32 670.235,-617.254"/>
<text text-anchor="middle" x="568.5" y="-657.8" font-family="Times,serif" font-size="14.00">OUTPUT: </text>
<text text-anchor="middle" x="568.5" y="-642.8" font-family="Times,serif" font-size="14.00">INPUT: </text>
</g>
<!-- E6 -->
<g id="node7" class="node"><title>E6</title>
<ellipse fill="azure" stroke="black" cx="892.5" cy="-500" rx="63.0888" ry="18"/>
<text text-anchor="middle" x="892.5" y="-496.3" font-family="Times,serif" font-size="14.00">stir (S6,P282)</text>
</g>
<!-- E5&#45;&gt;E6 -->
<g id="edge18" class="edge"><title>E5&#45;&gt;E6</title>
<path fill="none" stroke="black" d="M774.468,-585.548C798.165,-568.573 835.273,-541.992 861.548,-523.171"/>
<polygon fill="black" stroke="black" points="863.917,-525.78 870.008,-517.111 859.841,-520.089 863.917,-525.78"/>
<text text-anchor="middle" x="871.5" y="-555.8" font-family="Times,serif" font-size="14.00">OUTPUT: </text>
<text text-anchor="middle" x="871.5" y="-540.8" font-family="Times,serif" font-size="14.00">INPUT: </text>
</g>
<!-- E7 -->
<g id="node8" class="node"><title>E7</title>
<ellipse fill="azure" stroke="black" cx="979.5" cy="-397" rx="66.0889" ry="18"/>
<text text-anchor="middle" x="979.5" y="-393.3" font-family="Times,serif" font-size="14.00">fold (S7,P304)</text>
</g>
<!-- E6&#45;&gt;E7 -->
<g id="edge20" class="edge"><title>E6&#45;&gt;E7</title>
<path fill="none" stroke="black" d="M906.866,-482.322C920.908,-466.021 942.446,-441.017 958.426,-422.466"/>
<polygon fill="black" stroke="black" points="961.238,-424.564 965.112,-414.703 955.934,-419.995 961.238,-424.564"/>
<text text-anchor="middle" x="981.5" y="-451.8" font-family="Times,serif" font-size="14.00">OUTPUT: </text>
<text text-anchor="middle" x="981.5" y="-436.8" font-family="Times,serif" font-size="14.00">INPUT: </text>
</g>
<!-- E8 -->
<g id="node9" class="node"><title>E8</title>
<ellipse fill="azure" stroke="black" cx="1073.5" cy="-295" rx="115.88" ry="18"/>
<text text-anchor="middle" x="1073.5" y="-291.3" font-family="Times,serif" font-size="14.00">mixing distribute (S8,P365)</text>
</g>
<!-- E7&#45;&gt;E8 -->
<g id="edge22" class="edge"><title>E7&#45;&gt;E8</title>
<path fill="none" stroke="black" d="M986.938,-379.07C993.704,-365.026 1004.73,-345.141 1018.5,-331 1023.01,-326.371 1028.24,-322.066 1033.65,-318.17"/>
<polygon fill="black" stroke="black" points="1035.88,-320.888 1042.22,-312.399 1031.97,-315.082 1035.88,-320.888"/>
<text text-anchor="middle" x="1050.5" y="-349.8" font-family="Times,serif" font-size="14.00">OUTPUT: </text>
<text text-anchor="middle" x="1050.5" y="-334.8" font-family="Times,serif" font-size="14.00">INPUT: </text>
</g>
<!-- E8&#45;&gt;E9 -->
<g id="edge27" class="edge"><title>E8&#45;&gt;E9</title>
<path fill="none" stroke="black" d="M1044.61,-277.561C1019.26,-263.542 981.141,-243.426 946.5,-229 930.06,-222.154 911.767,-215.747 895.024,-210.334"/>
<polygon fill="black" stroke="black" points="895.961,-206.96 885.371,-207.267 893.841,-213.631 895.961,-206.96"/>
<text text-anchor="middle" x="1054.5" y="-247.8" font-family="Times,serif" font-size="14.00">OUTPUT: </text>
<text text-anchor="middle" x="1054.5" y="-232.8" font-family="Times,serif" font-size="14.00">INPUT: evenly</text>
</g>
<!-- E9&#45;&gt;E10 -->
<g id="edge28" class="edge"><title>E9&#45;&gt;E10</title>
<path fill="none" stroke="black" d="M890.153,-179.806C945.816,-166.487 1037.91,-144.693 1117.5,-127 1150.95,-119.564 1188.28,-111.657 1219.06,-105.244"/>
<polygon fill="black" stroke="black" points="1220.15,-108.592 1229.23,-103.129 1218.73,-101.738 1220.15,-108.592"/>
<text text-anchor="middle" x="1149.5" y="-145.8" font-family="Times,serif" font-size="14.00">OUTPUT: </text>
<text text-anchor="middle" x="1149.5" y="-130.8" font-family="Times,serif" font-size="14.00">INPUT: </text>
</g>
<!-- EOR -->
<g id="node33" class="node"><title>EOR</title>
<ellipse fill="plum" stroke="black" cx="1283.5" cy="-18" rx="57.3905" ry="18"/>
<text text-anchor="middle" x="1283.5" y="-14.3" font-family="Times,serif" font-size="14.00">Bon appetit!</text>
</g>
<!-- E10&#45;&gt;EOR -->
<g id="edge32" class="edge"><title>E10&#45;&gt;EOR</title>
<path fill="none" stroke="black" d="M1283.5,-72.8129C1283.5,-64.7895 1283.5,-55.0475 1283.5,-46.0691"/>
<polygon fill="black" stroke="black" points="1287,-46.0288 1283.5,-36.0288 1280,-46.0289 1287,-46.0288"/>
</g>
<!-- D0 -->
<g id="node12" class="node"><title>D0</title>
<polygon fill="white" stroke="black" points="1768.5,-313 1450.5,-313 1450.5,-277 1768.5,-277 1768.5,-313"/>
<text text-anchor="middle" x="1609.5" y="-291.3" font-family="Times,serif" font-size="14.00">DOBJ: oven to 350 degrees F &#45;LRB&#45; 175 degrees C</text>
</g>
<!-- D0&#45;&gt;E0 -->
<g id="edge1" class="edge"><title>D0&#45;&gt;E0</title>
<path fill="none" stroke="black" d="M1609.5,-276.581C1609.5,-261.382 1609.5,-239.067 1609.5,-221.464"/>
<polygon fill="black" stroke="black" points="1613,-221.219 1609.5,-211.219 1606,-221.219 1613,-221.219"/>
</g>
<!-- D4 -->
<g id="node13" class="node"><title>D4</title>
<polygon fill="peachpuff" stroke="black" points="175,-800 0,-800 0,-762 175,-762 175,-800"/>
<text text-anchor="middle" x="87.5" y="-784.8" font-family="Times,serif" font-size="14.00">DOBJ: brown sugar, butter</text>
<text text-anchor="middle" x="87.5" y="-769.8" font-family="Times,serif" font-size="14.00">(text: butter, sugar)</text>
</g>
<!-- D4&#45;&gt;E4 -->
<g id="edge2" class="edge"><title>D4&#45;&gt;E4</title>
<path fill="none" stroke="black" d="M152.511,-761.955C195.885,-749.916 252.355,-734.242 293.881,-722.715"/>
<polygon fill="black" stroke="black" points="294.867,-726.074 303.566,-720.027 292.994,-719.329 294.867,-726.074"/>
</g>
<!-- P4_0 -->
<g id="node14" class="node"><title>P4_0</title>
<polygon fill="white" stroke="black" points="339.5,-799 193.5,-799 193.5,-763 339.5,-763 339.5,-799"/>
<text text-anchor="middle" x="266.5" y="-777.3" font-family="Times,serif" font-size="14.00">PREP: in a large bowl</text>
</g>
<!-- P4_0&#45;&gt;E4 -->
<g id="edge3" class="edge"><title>P4_0&#45;&gt;E4</title>
<path fill="none" stroke="black" d="M286.407,-762.7C297.63,-752.947 311.795,-740.636 323.953,-730.071"/>
<polygon fill="black" stroke="black" points="326.349,-732.625 331.601,-723.424 321.757,-727.342 326.349,-732.625"/>
</g>
<!-- P4_1 -->
<g id="node15" class="node"><title>P4_1</title>
<polygon fill="white" stroke="black" points="513,-799 358,-799 358,-763 513,-763 513,-799"/>
<text text-anchor="middle" x="435.5" y="-777.3" font-family="Times,serif" font-size="14.00">PREP: until light, fluffy</text>
</g>
<!-- P4_1&#45;&gt;E4 -->
<g id="edge4" class="edge"><title>P4_1&#45;&gt;E4</title>
<path fill="none" stroke="black" d="M415.356,-762.7C404,-752.947 389.666,-740.636 377.363,-730.071"/>
<polygon fill="black" stroke="black" points="379.49,-727.284 369.624,-723.424 374.93,-732.594 379.49,-727.284"/>
</g>
<!-- O4_0 -->
<g id="node16" class="node"><title>O4_0</title>
<polygon fill="white" stroke="black" points="650,-799 531,-799 531,-763 650,-763 650,-799"/>
<text text-anchor="middle" x="590.5" y="-777.3" font-family="Times,serif" font-size="14.00">OTHER: together</text>
</g>
<!-- O4_0&#45;&gt;E4 -->
<g id="edge5" class="edge"><title>O4_0&#45;&gt;E4</title>
<path fill="none" stroke="black" d="M534.534,-762.977C495.499,-751.104 443.679,-735.342 404.976,-723.57"/>
<polygon fill="black" stroke="black" points="405.518,-720.076 394.932,-720.515 403.481,-726.773 405.518,-720.076"/>
</g>
<!-- D2 -->
<g id="node17" class="node"><title>D2</title>
<polygon fill="peachpuff" stroke="black" points="653,-519 298,-519 298,-481 653,-481 653,-519"/>
<text text-anchor="middle" x="475.5" y="-503.8" font-family="Times,serif" font-size="14.00">DOBJ: baking powder, all&#45;purpose flour, baking soda, salt</text>
<text text-anchor="middle" x="475.5" y="-488.8" font-family="Times,serif" font-size="14.00">(text: the flour , baking soda , baking powder , salt)</text>
</g>
<!-- D2&#45;&gt;E2 -->
<g id="edge6" class="edge"><title>D2&#45;&gt;E2</title>
<path fill="none" stroke="black" d="M518.944,-480.943C563.33,-462.494 631.819,-434.028 675.898,-415.707"/>
<polygon fill="black" stroke="black" points="677.297,-418.916 685.188,-411.846 674.61,-412.452 677.297,-418.916"/>
</g>
<!-- P2_0 -->
<g id="node18" class="node"><title>P2_0</title>
<polygon fill="white" stroke="black" points="796,-518 671,-518 671,-482 796,-482 796,-518"/>
<text text-anchor="middle" x="733.5" y="-496.3" font-family="Times,serif" font-size="14.00">PREP: into a bowl</text>
</g>
<!-- P2_0&#45;&gt;E2 -->
<g id="edge7" class="edge"><title>P2_0&#45;&gt;E2</title>
<path fill="none" stroke="black" d="M730.955,-481.867C728.65,-466.341 725.213,-443.2 722.533,-425.156"/>
<polygon fill="black" stroke="black" points="725.988,-424.595 721.057,-415.217 719.064,-425.623 725.988,-424.595"/>
</g>
<!-- D1 -->
<g id="node19" class="node"><title>D1</title>
<polygon fill="white" stroke="black" points="467.5,-415 319.5,-415 319.5,-379 467.5,-379 467.5,-415"/>
<text text-anchor="middle" x="393.5" y="-393.3" font-family="Times,serif" font-size="14.00">DOBJ: 12 muffin cups</text>
</g>
<!-- D1&#45;&gt;E1 -->
<g id="edge8" class="edge"><title>D1&#45;&gt;E1</title>
<path fill="none" stroke="black" d="M422.896,-378.809C452.185,-361.681 497.201,-335.356 528.59,-317"/>
<polygon fill="black" stroke="black" points="530.593,-319.883 537.458,-311.814 527.059,-313.841 530.593,-319.883"/>
</g>
<!-- P1_0 -->
<g id="node20" class="node"><title>P1_0</title>
<polygon fill="white" stroke="black" points="643,-415 486,-415 486,-379 643,-379 643,-415"/>
<text text-anchor="middle" x="564.5" y="-393.3" font-family="Times,serif" font-size="14.00">PREP: with paper liners</text>
</g>
<!-- P1_0&#45;&gt;E1 -->
<g id="edge9" class="edge"><title>P1_0&#45;&gt;E1</title>
<path fill="none" stroke="black" d="M564.5,-378.581C564.5,-363.382 564.5,-341.067 564.5,-323.464"/>
<polygon fill="black" stroke="black" points="568,-323.219 564.5,-313.219 561,-323.219 568,-323.219"/>
</g>
<!-- O3_0_0 -->
<g id="node21" class="node"><title>O3_0_0</title>
<polygon fill="white" stroke="black" points="895,-415 794,-415 794,-379 895,-379 895,-415"/>
<text text-anchor="middle" x="844.5" y="-393.3" font-family="Times,serif" font-size="14.00">OTHER: aside</text>
</g>
<!-- O3_0_0&#45;&gt;E3 -->
<g id="edge11" class="edge"><title>O3_0_0&#45;&gt;E3</title>
<path fill="none" stroke="black" d="M843.629,-378.581C842.869,-363.382 841.753,-341.067 840.873,-323.464"/>
<polygon fill="black" stroke="black" points="844.356,-323.032 840.361,-313.219 837.365,-323.381 844.356,-323.032"/>
</g>
<!-- P5_0_ing -->
<g id="node22" class="node"><title>P5_0_ing</title>
<polygon fill="peachpuff" stroke="black" points="583,-725 442,-725 442,-687 583,-687 583,-725"/>
<text text-anchor="middle" x="512.5" y="-709.8" font-family="Times,serif" font-size="14.00">PREP: in large eggs</text>
<text text-anchor="middle" x="512.5" y="-694.8" font-family="Times,serif" font-size="14.00">(text: in the eggs one)</text>
</g>
<!-- P5_0_ing&#45;&gt;E5 -->
<g id="edge13" class="edge"><title>P5_0_ing&#45;&gt;E5</title>
<path fill="none" stroke="black" d="M555.228,-686.943C597.669,-669.008 662.515,-641.605 705.925,-623.26"/>
<polygon fill="black" stroke="black" points="707.539,-626.378 715.388,-619.261 704.814,-619.93 707.539,-626.378"/>
</g>
<!-- P5_1_0 -->
<g id="node23" class="node"><title>P5_1_0</title>
<polygon fill="white" stroke="black" points="708,-724 601,-724 601,-688 708,-688 708,-724"/>
<text text-anchor="middle" x="654.5" y="-702.3" font-family="Times,serif" font-size="14.00">PREP: at a time</text>
</g>
<!-- P5_1_0&#45;&gt;E5 -->
<g id="edge14" class="edge"><title>P5_1_0&#45;&gt;E5</title>
<path fill="none" stroke="black" d="M670.955,-687.867C686.657,-671.517 710.47,-646.722 728.135,-628.328"/>
<polygon fill="black" stroke="black" points="730.886,-630.517 735.288,-620.88 725.837,-625.668 730.886,-630.517"/>
</g>
<!-- P5_2_ing -->
<g id="node24" class="node"><title>P5_2_ing</title>
<polygon fill="peachpuff" stroke="black" points="970.5,-725 726.5,-725 726.5,-687 970.5,-687 970.5,-725"/>
<text text-anchor="middle" x="848.5" y="-709.8" font-family="Times,serif" font-size="14.00">PREP: in medium bananas, rum extract</text>
<text text-anchor="middle" x="848.5" y="-694.8" font-family="Times,serif" font-size="14.00">(text: in &#160;rum extract, the bananas)</text>
</g>
<!-- P5_2_ing&#45;&gt;E5 -->
<g id="edge15" class="edge"><title>P5_2_ing&#45;&gt;E5</title>
<path fill="none" stroke="black" d="M831.158,-686.943C815.423,-670.559 792.1,-646.275 774.753,-628.212"/>
<polygon fill="black" stroke="black" points="777.175,-625.681 767.724,-620.893 772.126,-630.53 777.175,-625.681"/>
</g>
<!-- O5_0_0 -->
<g id="node25" class="node"><title>O5_0_0</title>
<polygon fill="white" stroke="black" points="1240,-724 989,-724 989,-688 1240,-688 1240,-724"/>
<text text-anchor="middle" x="1114.5" y="-702.3" font-family="Times,serif" font-size="14.00">OTHER: mixing well after each addition</text>
</g>
<!-- O5_0_0&#45;&gt;E5 -->
<g id="edge16" class="edge"><title>O5_0_0&#45;&gt;E5</title>
<path fill="none" stroke="black" d="M1053.33,-687.981C985.682,-669.158 877.438,-639.041 810.62,-620.449"/>
<polygon fill="black" stroke="black" points="811.24,-616.989 800.668,-617.68 809.364,-623.733 811.24,-616.989"/>
</g>
<!-- O5_1_0 -->
<g id="node26" class="node"><title>O5_1_0</title>
<polygon fill="white" stroke="black" points="1355,-724 1258,-724 1258,-688 1355,-688 1355,-724"/>
<text text-anchor="middle" x="1306.5" y="-702.3" font-family="Times,serif" font-size="14.00">OTHER: then</text>
</g>
<!-- O5_1_0&#45;&gt;E5 -->
<g id="edge17" class="edge"><title>O5_1_0&#45;&gt;E5</title>
<path fill="none" stroke="black" d="M1257.9,-689.378C1254.73,-688.527 1251.58,-687.725 1248.5,-687 1070.98,-645.204 1023.18,-652.238 843.5,-621 836.726,-619.822 829.678,-618.569 822.63,-617.298"/>
<polygon fill="black" stroke="black" points="822.801,-613.772 812.337,-615.429 821.551,-620.66 822.801,-613.772"/>
</g>
<!-- P6_0_0 -->
<g id="node27" class="node"><title>P6_0_0</title>
<polygon fill="white" stroke="black" points="1026,-621 853,-621 853,-585 1026,-585 1026,-621"/>
<text text-anchor="middle" x="939.5" y="-599.3" font-family="Times,serif" font-size="14.00">PREP: in the flour mixture</text>
</g>
<!-- P6_0_0&#45;&gt;E6 -->
<g id="edge19" class="edge"><title>P6_0_0&#45;&gt;E6</title>
<path fill="none" stroke="black" d="M931.527,-584.867C924.157,-569.028 913.098,-545.263 904.632,-527.071"/>
<polygon fill="black" stroke="black" points="907.747,-525.47 900.355,-517.88 901.401,-528.423 907.747,-525.47"/>
</g>
<!-- P7_0_ing -->
<g id="node28" class="node"><title>P7_0_ing</title>
<polygon fill="peachpuff" stroke="black" points="1299.5,-519 973.5,-519 973.5,-481 1299.5,-481 1299.5,-519"/>
<text text-anchor="middle" x="1136.5" y="-503.8" font-family="Times,serif" font-size="14.00">PREP: in shredded coconut, chopped dried pineapple</text>
<text text-anchor="middle" x="1136.5" y="-488.8" font-family="Times,serif" font-size="14.00">(text: in &#160;pineapple, the shredded coconut)</text>
</g>
<!-- P7_0_ing&#45;&gt;E7 -->
<g id="edge21" class="edge"><title>P7_0_ing&#45;&gt;E7</title>
<path fill="none" stroke="black" d="M1108.43,-480.943C1081.69,-463.74 1041.41,-437.827 1013,-419.551"/>
<polygon fill="black" stroke="black" points="1014.53,-416.373 1004.23,-413.906 1010.74,-422.26 1014.53,-416.373"/>
</g>
<!-- O8_0_0 -->
<g id="node29" class="node"><title>O8_0_0</title>
<polygon fill="white" stroke="black" points="1155.5,-415 1063.5,-415 1063.5,-379 1155.5,-379 1155.5,-415"/>
<text text-anchor="middle" x="1109.5" y="-393.3" font-family="Times,serif" font-size="14.00">OTHER: just</text>
</g>
<!-- O8_0_0&#45;&gt;E8 -->
<g id="edge23" class="edge"><title>O8_0_0&#45;&gt;E8</title>
<path fill="none" stroke="black" d="M1103.23,-378.581C1097.71,-363.238 1089.57,-340.645 1083.21,-322.968"/>
<polygon fill="black" stroke="black" points="1086.38,-321.442 1079.7,-313.219 1079.79,-323.813 1086.38,-321.442"/>
</g>
<!-- O8_1_0 -->
<g id="node30" class="node"><title>O8_1_0</title>
<polygon fill="white" stroke="black" points="1345.5,-415 1173.5,-415 1173.5,-379 1345.5,-379 1345.5,-415"/>
<text text-anchor="middle" x="1259.5" y="-393.3" font-family="Times,serif" font-size="14.00">OTHER: enough to evenly</text>
</g>
<!-- O8_1_0&#45;&gt;E8 -->
<g id="edge24" class="edge"><title>O8_1_0&#45;&gt;E8</title>
<path fill="none" stroke="black" d="M1227.53,-378.809C1195.91,-361.812 1147.45,-335.757 1113.34,-317.422"/>
<polygon fill="black" stroke="black" points="1114.6,-314.121 1104.13,-312.469 1111.28,-320.287 1114.6,-314.121"/>
</g>
<!-- O10_0_0 -->
<g id="node31" class="node"><title>O10_0_0</title>
<polygon fill="white" stroke="black" points="1331.5,-211 931.5,-211 931.5,-175 1331.5,-175 1331.5,-211"/>
<text text-anchor="middle" x="1131.5" y="-189.3" font-family="Times,serif" font-size="14.00">OTHER: until a toothpick inserted into the center comes out clean </text>
</g>
<!-- O10_0_0&#45;&gt;E10 -->
<g id="edge30" class="edge"><title>O10_0_0&#45;&gt;E10</title>
<path fill="none" stroke="black" d="M1157.63,-174.809C1183.29,-157.929 1222.52,-132.116 1250.36,-113.802"/>
<polygon fill="black" stroke="black" points="1252.54,-116.56 1258.97,-108.14 1248.69,-110.712 1252.54,-116.56"/>
</g>
<!-- O10_0_1 -->
<g id="node32" class="node"><title>O10_0_1</title>
<polygon fill="white" stroke="black" points="1523,-211 1350,-211 1350,-175 1523,-175 1523,-211"/>
<text text-anchor="middle" x="1436.5" y="-189.3" font-family="Times,serif" font-size="14.00">OTHER: &#160;20 to 25 minutes</text>
</g>
<!-- O10_0_1&#45;&gt;E10 -->
<g id="edge31" class="edge"><title>O10_0_1&#45;&gt;E10</title>
<path fill="none" stroke="black" d="M1410.2,-174.809C1384.29,-157.879 1344.64,-131.962 1316.61,-113.638"/>
<polygon fill="black" stroke="black" points="1318.23,-110.518 1307.94,-107.977 1314.4,-116.377 1318.23,-110.518"/>
</g>
</g>
</svg>
