<?xml version="1.0" encoding="UTF-8" standalone="no"?>
<!DOCTYPE svg PUBLIC "-//W3C//DTD SVG 1.1//EN"
 "http://www.w3.org/Graphics/SVG/1.1/DTD/svg11.dtd">
<!-- Generated by graphviz version 2.38.0 (20140413.2041)
 -->
<!-- Title: recipe Pages: 1 -->
<svg width="1361pt" height="602pt"
 viewBox="0.00 0.00 1360.50 602.00" xmlns="http://www.w3.org/2000/svg" xmlns:xlink="http://www.w3.org/1999/xlink">
<g id="graph0" class="graph" transform="scale(1 1) rotate(0) translate(4 598)">
<title>recipe</title>
<polygon fill="white" stroke="none" points="-4,4 -4,-598 1356.5,-598 1356.5,4 -4,4"/>
<!-- E0 -->
<g id="node1" class="node"><title>E0</title>
<ellipse fill="azure" stroke="black" cx="1146.5" cy="-193" rx="68.7879" ry="18"/>
<text text-anchor="middle" x="1146.5" y="-189.3" font-family="Times,serif" font-size="14.00">preheat (S0,P0)</text>
</g>
<!-- E6 -->
<g id="node7" class="node"><title>E6</title>
<ellipse fill="azure" stroke="black" cx="933.5" cy="-91" rx="68.7879" ry="18"/>
<text text-anchor="middle" x="933.5" y="-87.3" font-family="Times,serif" font-size="14.00">bake (S6,P330)</text>
</g>
<!-- E0&#45;&gt;E6 -->
<g id="edge15" class="edge"><title>E0&#45;&gt;E6</title>
<path fill="none" stroke="black" d="M1114.61,-177.029C1077.36,-159.539 1015.63,-130.558 974.756,-111.369"/>
<polygon fill="black" stroke="black" points="976.146,-108.155 965.606,-107.073 973.171,-114.491 976.146,-108.155"/>
<text text-anchor="middle" x="1210" y="-145.8" font-family="Times,serif" font-size="14.00">OUTPUT: </text>
<text text-anchor="middle" x="1210" y="-130.8" font-family="Times,serif" font-size="14.00">INPUT: at 400 degrees F &#45;LRB&#45; 205 degrees C</text>
</g>
<!-- E1 -->
<g id="node2" class="node"><title>E1</title>
<ellipse fill="azure" stroke="black" cx="507.5" cy="-295" rx="96.6831" ry="18"/>
<text text-anchor="middle" x="507.5" y="-291.3" font-family="Times,serif" font-size="14.00">grease or line (S1,P45)</text>
</g>
<!-- E5 -->
<g id="node6" class="node"><title>E5</title>
<ellipse fill="azure" stroke="black" cx="780.5" cy="-193" rx="69.5877" ry="18"/>
<text text-anchor="middle" x="780.5" y="-189.3" font-family="Times,serif" font-size="14.00">pour (S5,P273)</text>
</g>
<!-- E1&#45;&gt;E5 -->
<g id="edge13" class="edge"><title>E1&#45;&gt;E5</title>
<path fill="none" stroke="black" d="M509.304,-276.786C511.841,-261.758 517.928,-240.59 532.5,-229 558.047,-208.681 638.933,-200.156 701.458,-196.581"/>
<polygon fill="black" stroke="black" points="701.92,-200.062 711.717,-196.029 701.544,-193.072 701.92,-200.062"/>
<text text-anchor="middle" x="637.5" y="-247.8" font-family="Times,serif" font-size="14.00">OUTPUT: </text>
<text text-anchor="middle" x="637.5" y="-232.8" font-family="Times,serif" font-size="14.00">INPUT: into the prepared muffin tin</text>
</g>
<!-- E2 -->
<g id="node3" class="node"><title>E2</title>
<ellipse fill="azure" stroke="black" cx="522.5" cy="-500" rx="88.2844" ry="18"/>
<text text-anchor="middle" x="522.5" y="-496.3" font-family="Times,serif" font-size="14.00">blend egg (S2,P116)</text>
</g>
<!-- E3 -->
<g id="node4" class="node"><title>E3</title>
<ellipse fill="azure" stroke="black" cx="726.5" cy="-397" rx="63.0888" ry="18"/>
<text text-anchor="middle" x="726.5" y="-393.3" font-family="Times,serif" font-size="14.00">stir (S3,P163)</text>
</g>
<!-- E2&#45;&gt;E3 -->
<g id="edge8" class="edge"><title>E2&#45;&gt;E3</title>
<path fill="none" stroke="black" d="M554.824,-482.996C590.66,-465.254 648.475,-436.63 686.975,-417.569"/>
<polygon fill="black" stroke="black" points="688.913,-420.515 696.322,-412.941 685.807,-414.241 688.913,-420.515"/>
<text text-anchor="middle" x="687.5" y="-451.8" font-family="Times,serif" font-size="14.00">OUTPUT: </text>
<text text-anchor="middle" x="687.5" y="-436.8" font-family="Times,serif" font-size="14.00">INPUT: </text>
</g>
<!-- E4 -->
<g id="node5" class="node"><title>E4</title>
<ellipse fill="azure" stroke="black" cx="726.5" cy="-295" rx="65.7887" ry="18"/>
<text text-anchor="middle" x="726.5" y="-291.3" font-family="Times,serif" font-size="14.00">mix (S4,P210)</text>
</g>
<!-- E3&#45;&gt;E4 -->
<g id="edge10" class="edge"><title>E3&#45;&gt;E4</title>
<path fill="none" stroke="black" d="M726.5,-378.581C726.5,-363.382 726.5,-341.067 726.5,-323.464"/>
<polygon fill="black" stroke="black" points="730,-323.219 726.5,-313.219 723,-323.219 730,-323.219"/>
<text text-anchor="middle" x="758.5" y="-349.8" font-family="Times,serif" font-size="14.00">OUTPUT: </text>
<text text-anchor="middle" x="758.5" y="-334.8" font-family="Times,serif" font-size="14.00">INPUT: </text>
</g>
<!-- E4&#45;&gt;E5 -->
<g id="edge12" class="edge"><title>E4&#45;&gt;E5</title>
<path fill="none" stroke="black" d="M735.66,-277.036C744.116,-261.377 756.798,-237.893 766.519,-219.891"/>
<polygon fill="black" stroke="black" points="769.623,-221.509 771.295,-211.047 763.463,-218.183 769.623,-221.509"/>
<text text-anchor="middle" x="802.5" y="-247.8" font-family="Times,serif" font-size="14.00">OUTPUT: </text>
<text text-anchor="middle" x="802.5" y="-232.8" font-family="Times,serif" font-size="14.00">INPUT: batter</text>
</g>
<!-- E5&#45;&gt;E6 -->
<g id="edge16" class="edge"><title>E5&#45;&gt;E6</title>
<path fill="none" stroke="black" d="M801.464,-175.774C819.396,-162.161 846.102,-142.511 870.5,-127 878.409,-121.972 887.084,-116.889 895.399,-112.215"/>
<polygon fill="black" stroke="black" points="897.175,-115.232 904.227,-107.325 893.783,-109.109 897.175,-115.232"/>
<text text-anchor="middle" x="938" y="-145.8" font-family="Times,serif" font-size="14.00">OUTPUT: </text>
<text text-anchor="middle" x="938" y="-130.8" font-family="Times,serif" font-size="14.00">INPUT: for 30 minutes</text>
</g>
<!-- EOR -->
<g id="node18" class="node"><title>EOR</title>
<ellipse fill="plum" stroke="black" cx="933.5" cy="-18" rx="57.3905" ry="18"/>
<text text-anchor="middle" x="933.5" y="-14.3" font-family="Times,serif" font-size="14.00">Bon appetit!</text>
</g>
<!-- E6&#45;&gt;EOR -->
<g id="edge17" class="edge"><title>E6&#45;&gt;EOR</title>
<path fill="none" stroke="black" d="M933.5,-72.8129C933.5,-64.7895 933.5,-55.0475 933.5,-46.0691"/>
<polygon fill="black" stroke="black" points="937,-46.0288 933.5,-36.0288 930,-46.0289 937,-46.0288"/>
</g>
<!-- D1 -->
<g id="node8" class="node"><title>D1</title>
<polygon fill="white" stroke="black" points="342,-415 169,-415 169,-379 342,-379 342,-415"/>
<text text-anchor="middle" x="255.5" y="-393.3" font-family="Times,serif" font-size="14.00">DOBJ: a 12&#45;cup muffin tin</text>
</g>
<!-- D1&#45;&gt;E1 -->
<g id="edge1" class="edge"><title>D1&#45;&gt;E1</title>
<path fill="none" stroke="black" d="M298.534,-378.923C343.024,-361.268 412.358,-333.755 458.821,-315.317"/>
<polygon fill="black" stroke="black" points="460.368,-318.469 468.372,-311.527 457.786,-311.962 460.368,-318.469"/>
</g>
<!-- P1_0 -->
<g id="node9" class="node"><title>P1_0</title>
<polygon fill="white" stroke="black" points="517,-415 360,-415 360,-379 517,-379 517,-415"/>
<text text-anchor="middle" x="438.5" y="-393.3" font-family="Times,serif" font-size="14.00">PREP: with paper liners</text>
</g>
<!-- P1_0&#45;&gt;E1 -->
<g id="edge2" class="edge"><title>P1_0&#45;&gt;E1</title>
<path fill="none" stroke="black" d="M450.519,-378.581C461.469,-362.712 477.77,-339.087 490.135,-321.166"/>
<polygon fill="black" stroke="black" points="493.05,-323.104 495.849,-312.886 487.289,-319.129 493.05,-323.104"/>
</g>
<!-- O1_0 -->
<g id="node10" class="node"><title>O1_0</title>
<polygon fill="white" stroke="black" points="645.5,-415 535.5,-415 535.5,-379 645.5,-379 645.5,-415"/>
<text text-anchor="middle" x="590.5" y="-393.3" font-family="Times,serif" font-size="14.00">OTHER: lightly</text>
</g>
<!-- O1_0&#45;&gt;E1 -->
<g id="edge3" class="edge"><title>O1_0&#45;&gt;E1</title>
<path fill="none" stroke="black" d="M576.043,-378.581C562.751,-362.568 542.905,-338.656 527.983,-320.679"/>
<polygon fill="black" stroke="black" points="530.595,-318.345 521.515,-312.886 525.209,-322.816 530.595,-318.345"/>
</g>
<!-- D0 -->
<g id="node11" class="node"><title>D0</title>
<polygon fill="white" stroke="black" points="1352.5,-313 1034.5,-313 1034.5,-277 1352.5,-277 1352.5,-313"/>
<text text-anchor="middle" x="1193.5" y="-291.3" font-family="Times,serif" font-size="14.00">DOBJ: oven to 400 degrees F &#45;LRB&#45; 205 degrees C</text>
</g>
<!-- D0&#45;&gt;E0 -->
<g id="edge4" class="edge"><title>D0&#45;&gt;E0</title>
<path fill="none" stroke="black" d="M1185.31,-276.581C1177.99,-261 1167.15,-237.943 1158.79,-220.149"/>
<polygon fill="black" stroke="black" points="1161.86,-218.447 1154.44,-210.886 1155.52,-221.425 1161.86,-218.447"/>
</g>
<!-- D2 -->
<g id="node12" class="node"><title>D2</title>
<polygon fill="peachpuff" stroke="black" points="431,-594 0,-594 0,-556 431,-556 431,-594"/>
<text text-anchor="middle" x="215.5" y="-578.8" font-family="Times,serif" font-size="14.00">DOBJ: vegetable oil, banana, egg substitute, applesauce, vanilla soy milk</text>
<text text-anchor="middle" x="215.5" y="-563.8" font-family="Times,serif" font-size="14.00">(text: substitute , soy milk , oil, applesauce, the banana)</text>
</g>
<!-- D2&#45;&gt;E2 -->
<g id="edge5" class="edge"><title>D2&#45;&gt;E2</title>
<path fill="none" stroke="black" d="M291.388,-555.955C342.386,-543.829 408.894,-528.014 457.463,-516.465"/>
<polygon fill="black" stroke="black" points="458.316,-519.86 467.235,-514.141 456.697,-513.05 458.316,-519.86"/>
</g>
<!-- P2_0 -->
<g id="node13" class="node"><title>P2_0</title>
<polygon fill="white" stroke="black" points="595.5,-593 449.5,-593 449.5,-557 595.5,-557 595.5,-593"/>
<text text-anchor="middle" x="522.5" y="-571.3" font-family="Times,serif" font-size="14.00">PREP: in a large bowl</text>
</g>
<!-- P2_0&#45;&gt;E2 -->
<g id="edge6" class="edge"><title>P2_0&#45;&gt;E2</title>
<path fill="none" stroke="black" d="M522.5,-556.7C522.5,-548.245 522.5,-537.869 522.5,-528.373"/>
<polygon fill="black" stroke="black" points="526,-528.176 522.5,-518.176 519,-528.176 526,-528.176"/>
</g>
<!-- O2_0 -->
<g id="node14" class="node"><title>O2_0</title>
<polygon fill="white" stroke="black" points="733,-593 614,-593 614,-557 733,-557 733,-593"/>
<text text-anchor="middle" x="673.5" y="-571.3" font-family="Times,serif" font-size="14.00">OTHER: together</text>
</g>
<!-- O2_0&#45;&gt;E2 -->
<g id="edge7" class="edge"><title>O2_0&#45;&gt;E2</title>
<path fill="none" stroke="black" d="M638.097,-556.885C616.032,-546.218 587.531,-532.439 564.35,-521.232"/>
<polygon fill="black" stroke="black" points="565.629,-517.963 555.102,-516.761 562.582,-524.265 565.629,-517.963"/>
</g>
<!-- P3_0_ing -->
<g id="node15" class="node"><title>P3_0_ing</title>
<polygon fill="peachpuff" stroke="black" points="962,-519 629,-519 629,-481 962,-481 962,-519"/>
<text text-anchor="middle" x="795.5" y="-503.8" font-family="Times,serif" font-size="14.00">PREP: in baking powder, white rice flour, sucanat, salt</text>
<text text-anchor="middle" x="795.5" y="-488.8" font-family="Times,serif" font-size="14.00">(text: in &#160;baking powder, &#160;salt, the rice flour , &#160;sucanat )</text>
</g>
<!-- P3_0_ing&#45;&gt;E3 -->
<g id="edge9" class="edge"><title>P3_0_ing&#45;&gt;E3</title>
<path fill="none" stroke="black" d="M783.164,-480.943C772.171,-464.852 755.972,-441.14 743.706,-423.185"/>
<polygon fill="black" stroke="black" points="746.572,-421.175 738.041,-414.893 740.792,-425.124 746.572,-421.175"/>
</g>
<!-- O4_0_0 -->
<g id="node16" class="node"><title>O4_0_0</title>
<polygon fill="white" stroke="black" points="1021,-415 808,-415 808,-379 1021,-379 1021,-415"/>
<text text-anchor="middle" x="914.5" y="-393.3" font-family="Times,serif" font-size="14.00">OTHER: until just moistened then</text>
</g>
<!-- O4_0_0&#45;&gt;E4 -->
<g id="edge11" class="edge"><title>O4_0_0&#45;&gt;E4</title>
<path fill="none" stroke="black" d="M883.517,-378.985C859.342,-365.766 824.879,-347.044 794.5,-331 785.069,-326.019 774.861,-320.718 765.293,-315.788"/>
<polygon fill="black" stroke="black" points="766.855,-312.656 756.361,-311.198 763.655,-318.882 766.855,-312.656"/>
</g>
<!-- O5_0_0 -->
<g id="node17" class="node"><title>O5_0_0</title>
<polygon fill="white" stroke="black" points="1016.5,-313 810.5,-313 810.5,-277 1016.5,-277 1016.5,-313"/>
<text text-anchor="middle" x="913.5" y="-291.3" font-family="Times,serif" font-size="14.00">OTHER: filling each cup 2/3 full</text>
</g>
<!-- O5_0_0&#45;&gt;E5 -->
<g id="edge14" class="edge"><title>O5_0_0&#45;&gt;E5</title>
<path fill="none" stroke="black" d="M898.699,-276.821C886.049,-262.814 866.868,-243.109 847.5,-229 839.866,-223.439 831.229,-218.238 822.756,-213.635"/>
<polygon fill="black" stroke="black" points="824.165,-210.422 813.682,-208.886 820.919,-216.624 824.165,-210.422"/>
</g>
</g>
</svg>
