<?xml version="1.0" encoding="UTF-8" standalone="no"?>
<!DOCTYPE svg PUBLIC "-//W3C//DTD SVG 1.1//EN"
 "http://www.w3.org/Graphics/SVG/1.1/DTD/svg11.dtd">
<!-- Generated by graphviz version 2.38.0 (20140413.2041)
 -->
<!-- Title: recipe Pages: 1 -->
<svg width="1888pt" height="708pt"
 viewBox="0.00 0.00 1888.00 708.00" xmlns="http://www.w3.org/2000/svg" xmlns:xlink="http://www.w3.org/1999/xlink">
<g id="graph0" class="graph" transform="scale(1 1) rotate(0) translate(4 704)">
<title>recipe</title>
<polygon fill="white" stroke="none" points="-4,4 -4,-704 1884,-704 1884,4 -4,4"/>
<!-- E0 -->
<g id="node1" class="node"><title>E0</title>
<ellipse fill="azure" stroke="black" cx="1650" cy="-193" rx="68.7879" ry="18"/>
<text text-anchor="middle" x="1650" y="-189.3" font-family="Times,serif" font-size="14.00">preheat (S0,P0)</text>
</g>
<!-- E7 -->
<g id="node8" class="node"><title>E7</title>
<ellipse fill="azure" stroke="black" cx="1192" cy="-91" rx="68.7879" ry="18"/>
<text text-anchor="middle" x="1192" y="-87.3" font-family="Times,serif" font-size="14.00">bake (S7,P338)</text>
</g>
<!-- E0&#45;&gt;E7 -->
<g id="edge20" class="edge"><title>E0&#45;&gt;E7</title>
<path fill="none" stroke="black" d="M1598.79,-180.82C1513.86,-162.275 1344.2,-125.231 1253.13,-105.347"/>
<polygon fill="black" stroke="black" points="1253.74,-101.898 1243.23,-103.185 1252.25,-108.737 1253.74,-101.898"/>
<text text-anchor="middle" x="1612.5" y="-145.8" font-family="Times,serif" font-size="14.00">OUTPUT: </text>
<text text-anchor="middle" x="1612.5" y="-130.8" font-family="Times,serif" font-size="14.00">INPUT: in the preheated oven until golden</text>
</g>
<!-- E1 -->
<g id="node2" class="node"><title>E1</title>
<ellipse fill="azure" stroke="black" cx="605" cy="-295" rx="69.5877" ry="18"/>
<text text-anchor="middle" x="605" y="-291.3" font-family="Times,serif" font-size="14.00">grease (S1,P38)</text>
</g>
<!-- E6 -->
<g id="node7" class="node"><title>E6</title>
<ellipse fill="azure" stroke="black" cx="803" cy="-193" rx="74.187" ry="18"/>
<text text-anchor="middle" x="803" y="-189.3" font-family="Times,serif" font-size="14.00">spoon (S6,P310)</text>
</g>
<!-- E1&#45;&gt;E6 -->
<g id="edge17" class="edge"><title>E1&#45;&gt;E6</title>
<path fill="none" stroke="black" d="M635.504,-278.594C669.805,-261.27 725.623,-233.079 763.298,-214.051"/>
<polygon fill="black" stroke="black" points="765.113,-217.056 772.462,-209.423 761.958,-210.807 765.113,-217.056"/>
<text text-anchor="middle" x="775" y="-247.8" font-family="Times,serif" font-size="14.00">OUTPUT: </text>
<text text-anchor="middle" x="775" y="-232.8" font-family="Times,serif" font-size="14.00">INPUT: batter</text>
</g>
<!-- E2 -->
<g id="node3" class="node"><title>E2</title>
<ellipse fill="azure" stroke="black" cx="436" cy="-606" rx="57.6901" ry="18"/>
<text text-anchor="middle" x="436" y="-602.3" font-family="Times,serif" font-size="14.00">stir (S2,P94)</text>
</g>
<!-- E3 -->
<g id="node4" class="node"><title>E3</title>
<ellipse fill="azure" stroke="black" cx="572" cy="-502" rx="65.7887" ry="18"/>
<text text-anchor="middle" x="572" y="-498.3" font-family="Times,serif" font-size="14.00">mix (S3,P160)</text>
</g>
<!-- E2&#45;&gt;E3 -->
<g id="edge9" class="edge"><title>E2&#45;&gt;E3</title>
<path fill="none" stroke="black" d="M450.536,-588.454C463.594,-574.216 483.774,-553.706 504,-539 512.265,-532.99 521.663,-527.358 530.778,-522.414"/>
<polygon fill="black" stroke="black" points="532.516,-525.454 539.747,-517.71 529.265,-519.255 532.516,-525.454"/>
<text text-anchor="middle" x="536" y="-557.8" font-family="Times,serif" font-size="14.00">OUTPUT: </text>
<text text-anchor="middle" x="536" y="-542.8" font-family="Times,serif" font-size="14.00">INPUT: </text>
</g>
<!-- E4 -->
<g id="node5" class="node"><title>E4</title>
<ellipse fill="azure" stroke="black" cx="966" cy="-398" rx="63.0888" ry="18"/>
<text text-anchor="middle" x="966" y="-394.3" font-family="Times,serif" font-size="14.00">stir (S4,P190)</text>
</g>
<!-- E3&#45;&gt;E4 -->
<g id="edge13" class="edge"><title>E3&#45;&gt;E4</title>
<path fill="none" stroke="black" d="M612.53,-487.661C657.135,-473.31 731.128,-450.47 796,-435 839.076,-424.728 850.72,-426.375 894,-417 899.647,-415.777 905.525,-414.43 911.38,-413.04"/>
<polygon fill="black" stroke="black" points="912.268,-416.426 921.166,-410.675 910.623,-409.622 912.268,-416.426"/>
<text text-anchor="middle" x="879" y="-453.8" font-family="Times,serif" font-size="14.00">OUTPUT: </text>
<text text-anchor="middle" x="879" y="-438.8" font-family="Times,serif" font-size="14.00">INPUT: into banana mixture</text>
</g>
<!-- E5 -->
<g id="node6" class="node"><title>E5</title>
<ellipse fill="azure" stroke="black" cx="966" cy="-295" rx="65.7887" ry="18"/>
<text text-anchor="middle" x="966" y="-291.3" font-family="Times,serif" font-size="14.00">mix (S5,P280)</text>
</g>
<!-- E4&#45;&gt;E5 -->
<g id="edge15" class="edge"><title>E4&#45;&gt;E5</title>
<path fill="none" stroke="black" d="M966,-379.867C966,-364.414 966,-341.416 966,-323.409"/>
<polygon fill="black" stroke="black" points="969.5,-323.217 966,-313.217 962.5,-323.217 969.5,-323.217"/>
<text text-anchor="middle" x="998" y="-349.8" font-family="Times,serif" font-size="14.00">OUTPUT: </text>
<text text-anchor="middle" x="998" y="-334.8" font-family="Times,serif" font-size="14.00">INPUT: </text>
</g>
<!-- E5&#45;&gt;E6 -->
<g id="edge18" class="edge"><title>E5&#45;&gt;E6</title>
<path fill="none" stroke="black" d="M940.531,-278.375C912.905,-261.426 868.63,-234.264 837.805,-215.353"/>
<polygon fill="black" stroke="black" points="839.452,-212.257 829.098,-210.011 835.792,-218.224 839.452,-212.257"/>
<text text-anchor="middle" x="987.5" y="-247.8" font-family="Times,serif" font-size="14.00">OUTPUT: </text>
<text text-anchor="middle" x="987.5" y="-232.8" font-family="Times,serif" font-size="14.00">INPUT: into prepared pans</text>
</g>
<!-- E6&#45;&gt;E7 -->
<g id="edge19" class="edge"><title>E6&#45;&gt;E7</title>
<path fill="none" stroke="black" d="M836.296,-176.801C869.89,-162.04 923.577,-140.01 972,-127 1020.24,-114.04 1075.79,-105.249 1119.01,-99.7185"/>
<polygon fill="black" stroke="black" points="1119.67,-103.164 1129.16,-98.4508 1118.8,-96.2177 1119.67,-103.164"/>
<text text-anchor="middle" x="1004" y="-145.8" font-family="Times,serif" font-size="14.00">OUTPUT: </text>
<text text-anchor="middle" x="1004" y="-130.8" font-family="Times,serif" font-size="14.00">INPUT: </text>
</g>
<!-- EOR -->
<g id="node26" class="node"><title>EOR</title>
<ellipse fill="plum" stroke="black" cx="1192" cy="-18" rx="57.3905" ry="18"/>
<text text-anchor="middle" x="1192" y="-14.3" font-family="Times,serif" font-size="14.00">Bon appetit!</text>
</g>
<!-- E7&#45;&gt;EOR -->
<g id="edge25" class="edge"><title>E7&#45;&gt;EOR</title>
<path fill="none" stroke="black" d="M1192,-72.8129C1192,-64.7895 1192,-55.0475 1192,-46.0691"/>
<polygon fill="black" stroke="black" points="1195.5,-46.0288 1192,-36.0288 1188.5,-46.0289 1195.5,-46.0288"/>
</g>
<!-- D2 -->
<g id="node9" class="node"><title>D2</title>
<polygon fill="peachpuff" stroke="black" points="314,-700 0,-700 0,-662 314,-662 314,-700"/>
<text text-anchor="middle" x="157" y="-684.8" font-family="Times,serif" font-size="14.00">DOBJ: vegetable oil, eggs, white sugar, mayonnaise</text>
<text text-anchor="middle" x="157" y="-669.8" font-family="Times,serif" font-size="14.00">(text: sugar , oil , mayonnaise , eggs)</text>
</g>
<!-- D2&#45;&gt;E2 -->
<g id="edge1" class="edge"><title>D2&#45;&gt;E2</title>
<path fill="none" stroke="black" d="M225.966,-661.955C274.573,-649.237 338.684,-632.463 383.232,-620.807"/>
<polygon fill="black" stroke="black" points="384.201,-624.171 392.989,-618.254 382.429,-617.399 384.201,-624.171"/>
</g>
<!-- P2_0 -->
<g id="node10" class="node"><title>P2_0</title>
<polygon fill="white" stroke="black" points="540,-699 332,-699 332,-663 540,-663 540,-699"/>
<text text-anchor="middle" x="436" y="-677.3" font-family="Times,serif" font-size="14.00">PREP: until creamy, light yellow</text>
</g>
<!-- P2_0&#45;&gt;E2 -->
<g id="edge2" class="edge"><title>P2_0&#45;&gt;E2</title>
<path fill="none" stroke="black" d="M436,-662.7C436,-654.245 436,-643.869 436,-634.373"/>
<polygon fill="black" stroke="black" points="439.5,-634.176 436,-624.176 432.5,-634.176 439.5,-634.176"/>
</g>
<!-- O2_0 -->
<g id="node11" class="node"><title>O2_0</title>
<polygon fill="white" stroke="black" points="677.5,-699 558.5,-699 558.5,-663 677.5,-663 677.5,-699"/>
<text text-anchor="middle" x="618" y="-677.3" font-family="Times,serif" font-size="14.00">OTHER: together</text>
</g>
<!-- O2_0&#45;&gt;E2 -->
<g id="edge3" class="edge"><title>O2_0&#45;&gt;E2</title>
<path fill="none" stroke="black" d="M575.329,-662.885C546.444,-651.299 508.407,-636.043 479.375,-624.398"/>
<polygon fill="black" stroke="black" points="480.485,-621.072 469.901,-620.598 477.879,-627.569 480.485,-621.072"/>
</g>
<!-- D0 -->
<g id="node12" class="node"><title>D0</title>
<polygon fill="white" stroke="black" points="1596,-313 1508,-313 1508,-277 1596,-277 1596,-313"/>
<text text-anchor="middle" x="1552" y="-291.3" font-family="Times,serif" font-size="14.00">DOBJ: oven</text>
</g>
<!-- D0&#45;&gt;E0 -->
<g id="edge4" class="edge"><title>D0&#45;&gt;E0</title>
<path fill="none" stroke="black" d="M1569.07,-276.581C1585,-260.325 1608.91,-235.931 1626.61,-217.867"/>
<polygon fill="black" stroke="black" points="1629.28,-220.147 1633.78,-210.555 1624.28,-215.247 1629.28,-220.147"/>
</g>
<!-- P0_0 -->
<g id="node13" class="node"><title>P0_0</title>
<polygon fill="white" stroke="black" points="1880,-313 1614,-313 1614,-277 1880,-277 1880,-313"/>
<text text-anchor="middle" x="1747" y="-291.3" font-family="Times,serif" font-size="14.00">PREP: to 325 degrees f &#45;lrb&#45; 165 degrees c</text>
</g>
<!-- P0_0&#45;&gt;E0 -->
<g id="edge5" class="edge"><title>P0_0&#45;&gt;E0</title>
<path fill="none" stroke="black" d="M1730.1,-276.581C1714.34,-260.325 1690.67,-235.931 1673.15,-217.867"/>
<polygon fill="black" stroke="black" points="1675.53,-215.296 1666.06,-210.555 1670.51,-220.17 1675.53,-215.296"/>
</g>
<!-- D1 -->
<g id="node14" class="node"><title>D1</title>
<polygon fill="white" stroke="black" points="451,-416 303,-416 303,-380 451,-380 451,-416"/>
<text text-anchor="middle" x="377" y="-394.3" font-family="Times,serif" font-size="14.00">DOBJ: 12 muffin cups</text>
</g>
<!-- D1&#45;&gt;E1 -->
<g id="edge6" class="edge"><title>D1&#45;&gt;E1</title>
<path fill="none" stroke="black" d="M415.419,-379.981C456.007,-362.001 519.858,-333.716 562.074,-315.015"/>
<polygon fill="black" stroke="black" points="563.537,-318.196 571.262,-310.945 560.701,-311.796 563.537,-318.196"/>
</g>
<!-- P1_0 -->
<g id="node15" class="node"><title>P1_0</title>
<polygon fill="peachpuff" stroke="black" points="666.5,-417 469.5,-417 469.5,-379 666.5,-379 666.5,-417"/>
<text text-anchor="middle" x="568" y="-401.8" font-family="Times,serif" font-size="14.00">PREP: with butter for greasing</text>
<text text-anchor="middle" x="568" y="-386.8" font-family="Times,serif" font-size="14.00">(text: with butter or line)</text>
</g>
<!-- P1_0&#45;&gt;E1 -->
<g id="edge7" class="edge"><title>P1_0&#45;&gt;E1</title>
<path fill="none" stroke="black" d="M574.615,-378.943C580.314,-363.386 588.623,-340.704 595.112,-322.99"/>
<polygon fill="black" stroke="black" points="598.536,-323.82 598.689,-313.226 591.963,-321.412 598.536,-323.82"/>
</g>
<!-- P1_1 -->
<g id="node16" class="node"><title>P1_1</title>
<polygon fill="white" stroke="black" points="885,-416 685,-416 685,-380 885,-380 885,-416"/>
<text text-anchor="middle" x="785" y="-394.3" font-family="Times,serif" font-size="14.00">PREP: with paper muffin liners</text>
</g>
<!-- P1_1&#45;&gt;E1 -->
<g id="edge8" class="edge"><title>P1_1&#45;&gt;E1</title>
<path fill="none" stroke="black" d="M754.465,-379.867C723.293,-362.376 674.894,-335.219 641.667,-316.574"/>
<polygon fill="black" stroke="black" points="643.158,-313.398 632.724,-311.556 639.733,-319.502 643.158,-313.398"/>
</g>
<!-- P3_0_ing -->
<g id="node17" class="node"><title>P3_0_ing</title>
<polygon fill="peachpuff" stroke="black" points="632,-625 512,-625 512,-587 632,-587 632,-625"/>
<text text-anchor="middle" x="572" y="-609.8" font-family="Times,serif" font-size="14.00">PREP: in bananas</text>
<text text-anchor="middle" x="572" y="-594.8" font-family="Times,serif" font-size="14.00">(text: in bananas)</text>
</g>
<!-- P3_0_ing&#45;&gt;E3 -->
<g id="edge10" class="edge"><title>P3_0_ing&#45;&gt;E3</title>
<path fill="none" stroke="black" d="M572,-586.764C572,-571.031 572,-548.083 572,-530.183"/>
<polygon fill="black" stroke="black" points="575.5,-530.06 572,-520.06 568.5,-530.06 575.5,-530.06"/>
</g>
<!-- P3_1_0 -->
<g id="node18" class="node"><title>P3_1_0</title>
<polygon fill="white" stroke="black" points="813.5,-624 650.5,-624 650.5,-588 813.5,-588 813.5,-624"/>
<text text-anchor="middle" x="732" y="-602.3" font-family="Times,serif" font-size="14.00">PREP: until incorporated</text>
</g>
<!-- P3_1_0&#45;&gt;E3 -->
<g id="edge11" class="edge"><title>P3_1_0&#45;&gt;E3</title>
<path fill="none" stroke="black" d="M705.22,-587.927C677.808,-570.453 635.141,-543.253 605.508,-524.361"/>
<polygon fill="black" stroke="black" points="607.075,-521.21 596.761,-518.785 603.312,-527.112 607.075,-521.21"/>
</g>
<!-- D4_ing -->
<g id="node19" class="node"><title>D4_ing</title>
<polygon fill="peachpuff" stroke="black" points="1276.5,-521 655.5,-521 655.5,-483 1276.5,-483 1276.5,-521"/>
<text text-anchor="middle" x="966" y="-505.8" font-family="Times,serif" font-size="14.00">DOBJ: baking powder, wheat germ, quick cooking oats, all&#45;purpose flour, baking soda, salt, ground flax</text>
<text text-anchor="middle" x="966" y="-490.8" font-family="Times,serif" font-size="14.00">(text: &#160;flax , &#160;salt, &#160;baking powder , flour , &#160;oats , &#160;wheat germ , &#160;baking soda )</text>
</g>
<!-- D4_ing&#45;&gt;E4 -->
<g id="edge12" class="edge"><title>D4_ing&#45;&gt;E4</title>
<path fill="none" stroke="black" d="M966,-482.764C966,-467.031 966,-444.083 966,-426.183"/>
<polygon fill="black" stroke="black" points="969.5,-426.06 966,-416.06 962.5,-426.06 969.5,-426.06"/>
</g>
<!-- P4_1_0 -->
<g id="node20" class="node"><title>P4_1_0</title>
<polygon fill="white" stroke="black" points="1427,-520 1295,-520 1295,-484 1427,-484 1427,-520"/>
<text text-anchor="middle" x="1361" y="-498.3" font-family="Times,serif" font-size="14.00">PREP: until smooth</text>
</g>
<!-- P4_1_0&#45;&gt;E4 -->
<g id="edge14" class="edge"><title>P4_1_0&#45;&gt;E4</title>
<path fill="none" stroke="black" d="M1294.89,-483.927C1218.01,-464.076 1092.53,-431.673 1020.83,-413.159"/>
<polygon fill="black" stroke="black" points="1021.64,-409.753 1011.08,-410.642 1019.89,-416.531 1021.64,-409.753"/>
</g>
<!-- P5_0_ing -->
<g id="node21" class="node"><title>P5_0_ing</title>
<polygon fill="peachpuff" stroke="black" points="1382.5,-417 1047.5,-417 1047.5,-379 1382.5,-379 1382.5,-417"/>
<text text-anchor="middle" x="1215" y="-401.8" font-family="Times,serif" font-size="14.00">PREP: in miniature semisweet chocolate chips, walnuts</text>
<text text-anchor="middle" x="1215" y="-386.8" font-family="Times,serif" font-size="14.00">(text: in &#160;walnuts, chocolate chips)</text>
</g>
<!-- P5_0_ing&#45;&gt;E5 -->
<g id="edge16" class="edge"><title>P5_0_ing&#45;&gt;E5</title>
<path fill="none" stroke="black" d="M1170.48,-378.943C1125.39,-360.653 1056.03,-332.516 1010.82,-314.182"/>
<polygon fill="black" stroke="black" points="1011.87,-310.827 1001.28,-310.312 1009.23,-317.314 1011.87,-310.827"/>
</g>
<!-- P7_0_1 -->
<g id="node22" class="node"><title>P7_0_1</title>
<polygon fill="white" stroke="black" points="1018.5,-211 895.5,-211 895.5,-175 1018.5,-175 1018.5,-211"/>
<text text-anchor="middle" x="957" y="-189.3" font-family="Times,serif" font-size="14.00">PREP: in &#160;the tops</text>
</g>
<!-- P7_0_1&#45;&gt;E7 -->
<g id="edge21" class="edge"><title>P7_0_1&#45;&gt;E7</title>
<path fill="none" stroke="black" d="M997.131,-174.923C1039.06,-157.083 1104.64,-129.176 1147.96,-110.739"/>
<polygon fill="black" stroke="black" points="1149.56,-113.863 1157.39,-106.727 1146.82,-107.422 1149.56,-113.863"/>
</g>
<!-- P7_1_0 -->
<g id="node23" class="node"><title>P7_1_0</title>
<polygon fill="white" stroke="black" points="1195.5,-211 1036.5,-211 1036.5,-175 1195.5,-175 1195.5,-211"/>
<text text-anchor="middle" x="1116" y="-189.3" font-family="Times,serif" font-size="14.00">PREP: about 25 minutes</text>
</g>
<!-- P7_1_0&#45;&gt;E7 -->
<g id="edge22" class="edge"><title>P7_1_0&#45;&gt;E7</title>
<path fill="none" stroke="black" d="M1129.24,-174.581C1141.3,-158.712 1159.25,-135.087 1172.87,-117.166"/>
<polygon fill="black" stroke="black" points="1175.9,-118.965 1179.17,-108.886 1170.33,-114.73 1175.9,-118.965"/>
</g>
<!-- O7_0_0 -->
<g id="node24" class="node"><title>O7_0_0</title>
<polygon fill="white" stroke="black" points="1322.5,-211 1213.5,-211 1213.5,-175 1322.5,-175 1322.5,-211"/>
<text text-anchor="middle" x="1268" y="-189.3" font-family="Times,serif" font-size="14.00">OTHER: spring</text>
</g>
<!-- O7_0_0&#45;&gt;E7 -->
<g id="edge23" class="edge"><title>O7_0_0&#45;&gt;E7</title>
<path fill="none" stroke="black" d="M1254.76,-174.581C1242.7,-158.712 1224.75,-135.087 1211.13,-117.166"/>
<polygon fill="black" stroke="black" points="1213.67,-114.73 1204.83,-108.886 1208.1,-118.965 1213.67,-114.73"/>
</g>
<!-- O7_1_0 -->
<g id="node25" class="node"><title>O7_1_0</title>
<polygon fill="white" stroke="black" points="1563.5,-211 1340.5,-211 1340.5,-175 1563.5,-175 1563.5,-211"/>
<text text-anchor="middle" x="1452" y="-189.3" font-family="Times,serif" font-size="14.00">OTHER: back when lightly pressed</text>
</g>
<!-- O7_1_0&#45;&gt;E7 -->
<g id="edge24" class="edge"><title>O7_1_0&#45;&gt;E7</title>
<path fill="none" stroke="black" d="M1407.6,-174.923C1360.52,-156.814 1286.46,-128.332 1238.57,-109.912"/>
<polygon fill="black" stroke="black" points="1239.65,-106.577 1229.06,-106.254 1237.14,-113.111 1239.65,-106.577"/>
</g>
</g>
</svg>
