<?xml version="1.0" encoding="UTF-8" standalone="no"?>
<!DOCTYPE svg PUBLIC "-//W3C//DTD SVG 1.1//EN"
 "http://www.w3.org/Graphics/SVG/1.1/DTD/svg11.dtd">
<!-- Generated by graphviz version 2.38.0 (20140413.2041)
 -->
<!-- Title: recipe Pages: 1 -->
<svg width="1265pt" height="706pt"
 viewBox="0.00 0.00 1264.50 706.00" xmlns="http://www.w3.org/2000/svg" xmlns:xlink="http://www.w3.org/1999/xlink">
<g id="graph0" class="graph" transform="scale(1 1) rotate(0) translate(4 702)">
<title>recipe</title>
<polygon fill="white" stroke="none" points="-4,4 -4,-702 1260.5,-702 1260.5,4 -4,4"/>
<!-- E0 -->
<g id="node1" class="node"><title>E0</title>
<ellipse fill="azure" stroke="black" cx="1001.5" cy="-295" rx="68.7879" ry="18"/>
<text text-anchor="middle" x="1001.5" y="-291.3" font-family="Times,serif" font-size="14.00">preheat (S0,P0)</text>
</g>
<!-- E6 -->
<g id="node7" class="node"><title>E6</title>
<ellipse fill="azure" stroke="black" cx="890.5" cy="-193" rx="68.7879" ry="18"/>
<text text-anchor="middle" x="890.5" y="-189.3" font-family="Times,serif" font-size="14.00">bake (S7,P246)</text>
</g>
<!-- E0&#45;&gt;E6 -->
<g id="edge15" class="edge"><title>E0&#45;&gt;E6</title>
<path fill="none" stroke="black" d="M983.171,-277.487C964.934,-261.058 936.788,-235.701 916.298,-217.241"/>
<polygon fill="black" stroke="black" points="918.629,-214.631 908.857,-210.537 913.944,-219.831 918.629,-214.631"/>
<text text-anchor="middle" x="1109" y="-247.8" font-family="Times,serif" font-size="14.00">OUTPUT: </text>
<text text-anchor="middle" x="1109" y="-232.8" font-family="Times,serif" font-size="14.00">INPUT: in the preheated oven for 15 to 20 minutes</text>
</g>
<!-- E1 -->
<g id="node2" class="node"><title>E1</title>
<ellipse fill="azure" stroke="black" cx="450.5" cy="-397" rx="69.5877" ry="18"/>
<text text-anchor="middle" x="450.5" y="-393.3" font-family="Times,serif" font-size="14.00">grease (S1,P45)</text>
</g>
<!-- E5 -->
<g id="node6" class="node"><title>E5</title>
<ellipse fill="azure" stroke="black" cx="735.5" cy="-295" rx="74.187" ry="18"/>
<text text-anchor="middle" x="735.5" y="-291.3" font-family="Times,serif" font-size="14.00">spoon (S6,P192)</text>
</g>
<!-- E1&#45;&gt;E5 -->
<g id="edge12" class="edge"><title>E1&#45;&gt;E5</title>
<path fill="none" stroke="black" d="M443.78,-378.897C439.307,-364.358 436.114,-343.853 447.5,-331 461.072,-315.679 573.52,-305.703 653.81,-300.462"/>
<polygon fill="black" stroke="black" points="654.168,-303.946 663.925,-299.815 653.722,-296.96 654.168,-303.946"/>
<text text-anchor="middle" x="552.5" y="-349.8" font-family="Times,serif" font-size="14.00">OUTPUT: </text>
<text text-anchor="middle" x="552.5" y="-334.8" font-family="Times,serif" font-size="14.00">INPUT: into the prepared muffin tin</text>
</g>
<!-- E2 -->
<g id="node3" class="node"><title>E2</title>
<ellipse fill="azure" stroke="black" cx="434.5" cy="-604" rx="78.7863" ry="18"/>
<text text-anchor="middle" x="434.5" y="-600.3" font-family="Times,serif" font-size="14.00">combine (S3,P81)</text>
</g>
<!-- E3 -->
<g id="node4" class="node"><title>E3</title>
<ellipse fill="azure" stroke="black" cx="620.5" cy="-500" rx="63.0888" ry="18"/>
<text text-anchor="middle" x="620.5" y="-496.3" font-family="Times,serif" font-size="14.00">stir (S4,P129)</text>
</g>
<!-- E2&#45;&gt;E3 -->
<g id="edge6" class="edge"><title>E2&#45;&gt;E3</title>
<path fill="none" stroke="black" d="M462.533,-587.081C486.378,-573.598 521.575,-553.832 552.5,-537 562.191,-531.725 572.708,-526.106 582.509,-520.915"/>
<polygon fill="black" stroke="black" points="584.428,-523.859 591.636,-516.093 581.159,-517.67 584.428,-523.859"/>
<text text-anchor="middle" x="584.5" y="-555.8" font-family="Times,serif" font-size="14.00">OUTPUT: </text>
<text text-anchor="middle" x="584.5" y="-540.8" font-family="Times,serif" font-size="14.00">INPUT: </text>
</g>
<!-- E4 -->
<g id="node5" class="node"><title>E4</title>
<ellipse fill="azure" stroke="black" cx="641.5" cy="-397" rx="66.0889" ry="18"/>
<text text-anchor="middle" x="641.5" y="-393.3" font-family="Times,serif" font-size="14.00">fold (S5,P168)</text>
</g>
<!-- E3&#45;&gt;E4 -->
<g id="edge9" class="edge"><title>E3&#45;&gt;E4</title>
<path fill="none" stroke="black" d="M624.062,-481.867C627.29,-466.341 632.102,-443.2 635.854,-425.156"/>
<polygon fill="black" stroke="black" points="639.311,-425.72 637.92,-415.217 632.458,-424.295 639.311,-425.72"/>
<text text-anchor="middle" x="665.5" y="-451.8" font-family="Times,serif" font-size="14.00">OUTPUT: </text>
<text text-anchor="middle" x="665.5" y="-436.8" font-family="Times,serif" font-size="14.00">INPUT: </text>
</g>
<!-- E4&#45;&gt;E5 -->
<g id="edge11" class="edge"><title>E4&#45;&gt;E5</title>
<path fill="none" stroke="black" d="M651.159,-378.998C661.422,-361.081 676.689,-334.912 680.5,-331 685.381,-325.988 691.112,-321.357 696.997,-317.213"/>
<polygon fill="black" stroke="black" points="699.23,-319.933 705.649,-311.505 695.375,-314.09 699.23,-319.933"/>
<text text-anchor="middle" x="732" y="-349.8" font-family="Times,serif" font-size="14.00">OUTPUT: </text>
<text text-anchor="middle" x="732" y="-334.8" font-family="Times,serif" font-size="14.00">INPUT: the batter</text>
</g>
<!-- E5&#45;&gt;E6 -->
<g id="edge14" class="edge"><title>E5&#45;&gt;E6</title>
<path fill="none" stroke="black" d="M760.403,-277.933C786.694,-260.972 828.274,-234.146 857.33,-215.4"/>
<polygon fill="black" stroke="black" points="859.409,-218.224 865.914,-209.862 855.614,-212.342 859.409,-218.224"/>
<text text-anchor="middle" x="867.5" y="-247.8" font-family="Times,serif" font-size="14.00">OUTPUT: </text>
<text text-anchor="middle" x="867.5" y="-232.8" font-family="Times,serif" font-size="14.00">INPUT: </text>
</g>
<!-- E7 -->
<g id="node8" class="node"><title>E7</title>
<ellipse fill="azure" stroke="black" cx="714.5" cy="-91" rx="79.0865" ry="18"/>
<text text-anchor="middle" x="714.5" y="-87.3" font-family="Times,serif" font-size="14.00">remove (S8,P285)</text>
</g>
<!-- E6&#45;&gt;E7 -->
<g id="edge16" class="edge"><title>E6&#45;&gt;E7</title>
<path fill="none" stroke="black" d="M863,-176.375C833.042,-159.353 784.953,-132.03 751.653,-113.11"/>
<polygon fill="black" stroke="black" points="753.103,-109.908 742.68,-108.011 749.645,-115.995 753.103,-109.908"/>
<text text-anchor="middle" x="875.5" y="-145.8" font-family="Times,serif" font-size="14.00">OUTPUT: </text>
<text text-anchor="middle" x="875.5" y="-130.8" font-family="Times,serif" font-size="14.00">INPUT: muffins</text>
</g>
<!-- EOR -->
<g id="node20" class="node"><title>EOR</title>
<ellipse fill="plum" stroke="black" cx="714.5" cy="-18" rx="57.3905" ry="18"/>
<text text-anchor="middle" x="714.5" y="-14.3" font-family="Times,serif" font-size="14.00">Bon appetit!</text>
</g>
<!-- E7&#45;&gt;EOR -->
<g id="edge19" class="edge"><title>E7&#45;&gt;EOR</title>
<path fill="none" stroke="black" d="M714.5,-72.8129C714.5,-64.7895 714.5,-55.0475 714.5,-46.0691"/>
<polygon fill="black" stroke="black" points="718,-46.0288 714.5,-36.0288 711,-46.0289 718,-46.0288"/>
</g>
<!-- D1 -->
<g id="node9" class="node"><title>D1</title>
<polygon fill="white" stroke="black" points="404,-518 231,-518 231,-482 404,-482 404,-518"/>
<text text-anchor="middle" x="317.5" y="-496.3" font-family="Times,serif" font-size="14.00">DOBJ: a 12&#45;cup muffin tin</text>
</g>
<!-- D1&#45;&gt;E1 -->
<g id="edge1" class="edge"><title>D1&#45;&gt;E1</title>
<path fill="none" stroke="black" d="M340.062,-481.867C362.337,-464.951 396.518,-438.994 420.95,-420.44"/>
<polygon fill="black" stroke="black" points="423.302,-423.049 429.15,-414.213 419.069,-417.474 423.302,-423.049"/>
</g>
<!-- O1_0 -->
<g id="node10" class="node"><title>O1_0</title>
<polygon fill="white" stroke="black" points="532.5,-518 422.5,-518 422.5,-482 532.5,-482 532.5,-518"/>
<text text-anchor="middle" x="477.5" y="-496.3" font-family="Times,serif" font-size="14.00">OTHER: lightly</text>
</g>
<!-- O1_0&#45;&gt;E1 -->
<g id="edge2" class="edge"><title>O1_0&#45;&gt;E1</title>
<path fill="none" stroke="black" d="M472.92,-481.867C468.75,-466.269 462.525,-442.983 457.692,-424.903"/>
<polygon fill="black" stroke="black" points="461.067,-423.974 455.103,-415.217 454.304,-425.782 461.067,-423.974"/>
</g>
<!-- D0 -->
<g id="node11" class="node"><title>D0</title>
<polygon fill="white" stroke="black" points="1213.5,-415 895.5,-415 895.5,-379 1213.5,-379 1213.5,-415"/>
<text text-anchor="middle" x="1054.5" y="-393.3" font-family="Times,serif" font-size="14.00">DOBJ: oven to 425 degrees F &#45;LRB&#45; 220 degrees C</text>
</g>
<!-- D0&#45;&gt;E0 -->
<g id="edge3" class="edge"><title>D0&#45;&gt;E0</title>
<path fill="none" stroke="black" d="M1045.27,-378.581C1037.01,-363 1024.79,-339.943 1015.36,-322.149"/>
<polygon fill="black" stroke="black" points="1018.23,-320.083 1010.45,-312.886 1012.04,-323.361 1018.23,-320.083"/>
</g>
<!-- D2 -->
<g id="node12" class="node"><title>D2</title>
<polygon fill="peachpuff" stroke="black" points="519,-698 0,-698 0,-660 519,-660 519,-698"/>
<text text-anchor="middle" x="259.5" y="-682.8" font-family="Times,serif" font-size="14.00">DOBJ: baking powder, white sugar, all&#45;purpose flour, unsweetened cocoa powder, salt</text>
<text text-anchor="middle" x="259.5" y="-667.8" font-family="Times,serif" font-size="14.00">(text: the flour , sugar , cocoa , baking powder, salt)</text>
</g>
<!-- D2&#45;&gt;E2 -->
<g id="edge4" class="edge"><title>D2&#45;&gt;E2</title>
<path fill="none" stroke="black" d="M302.758,-659.955C328.991,-649.012 362.422,-635.067 389.043,-623.962"/>
<polygon fill="black" stroke="black" points="390.635,-627.09 398.517,-620.01 387.94,-620.63 390.635,-627.09"/>
</g>
<!-- P2_0 -->
<g id="node13" class="node"><title>P2_0</title>
<polygon fill="white" stroke="black" points="683.5,-697 537.5,-697 537.5,-661 683.5,-661 683.5,-697"/>
<text text-anchor="middle" x="610.5" y="-675.3" font-family="Times,serif" font-size="14.00">PREP: in a large bowl</text>
</g>
<!-- P2_0&#45;&gt;E2 -->
<g id="edge5" class="edge"><title>P2_0&#45;&gt;E2</title>
<path fill="none" stroke="black" d="M569.236,-660.885C542.515,-649.802 507.696,-635.36 480.148,-623.934"/>
<polygon fill="black" stroke="black" points="481.31,-620.627 470.732,-620.028 478.628,-627.092 481.31,-620.627"/>
</g>
<!-- P3_0_ing -->
<g id="node14" class="node"><title>P3_0_ing</title>
<polygon fill="peachpuff" stroke="black" points="710,-623 531,-623 531,-585 710,-585 710,-623"/>
<text text-anchor="middle" x="620.5" y="-607.8" font-family="Times,serif" font-size="14.00">PREP: in mashed bananas</text>
<text text-anchor="middle" x="620.5" y="-592.8" font-family="Times,serif" font-size="14.00">(text: in the banana mixture)</text>
</g>
<!-- P3_0_ing&#45;&gt;E3 -->
<g id="edge7" class="edge"><title>P3_0_ing&#45;&gt;E3</title>
<path fill="none" stroke="black" d="M620.5,-584.764C620.5,-569.031 620.5,-546.083 620.5,-528.183"/>
<polygon fill="black" stroke="black" points="624,-528.06 620.5,-518.06 617,-528.06 624,-528.06"/>
</g>
<!-- P3_1_0 -->
<g id="node15" class="node"><title>P3_1_0</title>
<polygon fill="white" stroke="black" points="887,-622 728,-622 728,-586 887,-586 887,-622"/>
<text text-anchor="middle" x="807.5" y="-600.3" font-family="Times,serif" font-size="14.00">PREP: until just blended</text>
</g>
<!-- P3_1_0&#45;&gt;E3 -->
<g id="edge8" class="edge"><title>P3_1_0&#45;&gt;E3</title>
<path fill="none" stroke="black" d="M776.2,-585.927C743.463,-568.071 692.107,-540.058 657.413,-521.134"/>
<polygon fill="black" stroke="black" points="658.991,-518.008 648.536,-516.292 655.639,-524.154 658.991,-518.008"/>
</g>
<!-- P4_0_ing -->
<g id="node16" class="node"><title>P4_0_ing</title>
<polygon fill="peachpuff" stroke="black" points="925.5,-519 701.5,-519 701.5,-481 925.5,-481 925.5,-519"/>
<text text-anchor="middle" x="813.5" y="-503.8" font-family="Times,serif" font-size="14.00">PREP: in semisweet chocolate chips</text>
<text text-anchor="middle" x="813.5" y="-488.8" font-family="Times,serif" font-size="14.00">(text: in the chocolate chips)</text>
</g>
<!-- P4_0_ing&#45;&gt;E4 -->
<g id="edge10" class="edge"><title>P4_0_ing&#45;&gt;E4</title>
<path fill="none" stroke="black" d="M782.621,-480.754C760.141,-467.483 728.952,-449.095 701.5,-433 693.639,-428.391 685.191,-423.454 677.188,-418.783"/>
<polygon fill="black" stroke="black" points="678.797,-415.67 668.396,-413.655 675.271,-421.717 678.797,-415.67"/>
</g>
<!-- O5_0_0 -->
<g id="node17" class="node"><title>O5_0_0</title>
<polygon fill="white" stroke="black" points="877.5,-415 725.5,-415 725.5,-379 877.5,-379 877.5,-415"/>
<text text-anchor="middle" x="801.5" y="-393.3" font-family="Times,serif" font-size="14.00">OTHER: filling 3/4 full</text>
</g>
<!-- O5_0_0&#45;&gt;E5 -->
<g id="edge13" class="edge"><title>O5_0_0&#45;&gt;E5</title>
<path fill="none" stroke="black" d="M801.262,-378.89C800.305,-364.924 797.144,-345.242 787.5,-331 784.099,-325.978 779.714,-321.484 774.935,-317.526"/>
<polygon fill="black" stroke="black" points="776.744,-314.51 766.624,-311.372 772.578,-320.135 776.744,-314.51"/>
</g>
<!-- P7_0_0 -->
<g id="node18" class="node"><title>P7_0_0</title>
<polygon fill="white" stroke="black" points="607,-211 468,-211 468,-175 607,-175 607,-211"/>
<text text-anchor="middle" x="537.5" y="-189.3" font-family="Times,serif" font-size="14.00">PREP: to a wire rack</text>
</g>
<!-- P7_0_0&#45;&gt;E7 -->
<g id="edge17" class="edge"><title>P7_0_0&#45;&gt;E7</title>
<path fill="none" stroke="black" d="M567.927,-174.809C598.284,-157.659 644.962,-131.287 677.457,-112.928"/>
<polygon fill="black" stroke="black" points="679.236,-115.943 686.221,-107.977 675.793,-109.848 679.236,-115.943"/>
</g>
<!-- O7_0_0 -->
<g id="node19" class="node"><title>O7_0_0</title>
<polygon fill="white" stroke="black" points="804,-211 625,-211 625,-175 804,-175 804,-211"/>
<text text-anchor="middle" x="714.5" y="-189.3" font-family="Times,serif" font-size="14.00">OTHER: to cool completely</text>
</g>
<!-- O7_0_0&#45;&gt;E7 -->
<g id="edge18" class="edge"><title>O7_0_0&#45;&gt;E7</title>
<path fill="none" stroke="black" d="M714.5,-174.581C714.5,-159.382 714.5,-137.067 714.5,-119.464"/>
<polygon fill="black" stroke="black" points="718,-119.219 714.5,-109.219 711,-119.219 718,-119.219"/>
</g>
</g>
</svg>
