<?xml version="1.0" encoding="UTF-8" standalone="no"?>
<!DOCTYPE svg PUBLIC "-//W3C//DTD SVG 1.1//EN"
 "http://www.w3.org/Graphics/SVG/1.1/DTD/svg11.dtd">
<!-- Generated by graphviz version 2.38.0 (20140413.2041)
 -->
<!-- Title: recipe Pages: 1 -->
<svg width="1625pt" height="808pt"
 viewBox="0.00 0.00 1625.00 808.00" xmlns="http://www.w3.org/2000/svg" xmlns:xlink="http://www.w3.org/1999/xlink">
<g id="graph0" class="graph" transform="scale(1 1) rotate(0) translate(4 804)">
<title>recipe</title>
<polygon fill="white" stroke="none" points="-4,4 -4,-804 1621,-804 1621,4 -4,4"/>
<!-- E0 -->
<g id="node1" class="node"><title>E0</title>
<ellipse fill="azure" stroke="black" cx="1196" cy="-499" rx="68.7879" ry="18"/>
<text text-anchor="middle" x="1196" y="-495.3" font-family="Times,serif" font-size="14.00">preheat (S0,P0)</text>
</g>
<!-- E5 -->
<g id="node6" class="node"><title>E5</title>
<ellipse fill="azure" stroke="black" cx="873" cy="-397" rx="68.7879" ry="18"/>
<text text-anchor="middle" x="873" y="-393.3" font-family="Times,serif" font-size="14.00">bake (S5,P237)</text>
</g>
<!-- E0&#45;&gt;E5 -->
<g id="edge16" class="edge"><title>E0&#45;&gt;E5</title>
<path fill="none" stroke="black" d="M1153.44,-484.824C1094.74,-466.65 988.996,-433.912 925.472,-414.245"/>
<polygon fill="black" stroke="black" points="926.241,-410.819 915.653,-411.205 924.171,-417.506 926.241,-410.819"/>
<text text-anchor="middle" x="1218" y="-451.8" font-family="Times,serif" font-size="14.00">OUTPUT: </text>
<text text-anchor="middle" x="1218" y="-436.8" font-family="Times,serif" font-size="14.00">INPUT: in preheated oven until golden brown </text>
</g>
<!-- E1 -->
<g id="node2" class="node"><title>E1</title>
<ellipse fill="azure" stroke="black" cx="714" cy="-602" rx="69.5877" ry="18"/>
<text text-anchor="middle" x="714" y="-598.3" font-family="Times,serif" font-size="14.00">grease (S1,P38)</text>
</g>
<!-- E4 -->
<g id="node5" class="node"><title>E4</title>
<ellipse fill="azure" stroke="black" cx="805" cy="-499" rx="74.187" ry="18"/>
<text text-anchor="middle" x="805" y="-495.3" font-family="Times,serif" font-size="14.00">spoon (S4,P203)</text>
</g>
<!-- E1&#45;&gt;E4 -->
<g id="edge13" class="edge"><title>E1&#45;&gt;E4</title>
<path fill="none" stroke="black" d="M711.317,-583.838C710.031,-569.403 710.598,-548.947 721,-535 726.819,-527.199 734.701,-521.125 743.316,-516.4"/>
<polygon fill="black" stroke="black" points="745.032,-519.458 752.505,-511.948 741.979,-513.159 745.032,-519.458"/>
<text text-anchor="middle" x="821" y="-553.8" font-family="Times,serif" font-size="14.00">OUTPUT: </text>
<text text-anchor="middle" x="821" y="-538.8" font-family="Times,serif" font-size="14.00">INPUT: into prepared muffin cups</text>
</g>
<!-- E2 -->
<g id="node3" class="node"><title>E2</title>
<ellipse fill="azure" stroke="black" cx="945" cy="-706" rx="57.6901" ry="18"/>
<text text-anchor="middle" x="945" y="-702.3" font-family="Times,serif" font-size="14.00">stir (S2,P95)</text>
</g>
<!-- E3 -->
<g id="node4" class="node"><title>E3</title>
<ellipse fill="azure" stroke="black" cx="945" cy="-602" rx="63.0888" ry="18"/>
<text text-anchor="middle" x="945" y="-598.3" font-family="Times,serif" font-size="14.00">stir (S3,P150)</text>
</g>
<!-- E2&#45;&gt;E3 -->
<g id="edge10" class="edge"><title>E2&#45;&gt;E3</title>
<path fill="none" stroke="black" d="M945,-687.697C945,-671.923 945,-648.364 945,-630.094"/>
<polygon fill="black" stroke="black" points="948.5,-630.047 945,-620.047 941.5,-630.047 948.5,-630.047"/>
<text text-anchor="middle" x="977" y="-657.8" font-family="Times,serif" font-size="14.00">OUTPUT: </text>
<text text-anchor="middle" x="977" y="-642.8" font-family="Times,serif" font-size="14.00">INPUT: </text>
</g>
<!-- E3&#45;&gt;E4 -->
<g id="edge12" class="edge"><title>E3&#45;&gt;E4</title>
<path fill="none" stroke="black" d="M943.053,-583.77C940.479,-568.889 934.553,-547.818 921,-535 912.846,-527.288 891.335,-519.924 869.018,-513.958"/>
<polygon fill="black" stroke="black" points="869.656,-510.508 859.099,-511.404 867.911,-517.287 869.656,-510.508"/>
<text text-anchor="middle" x="979" y="-553.8" font-family="Times,serif" font-size="14.00">OUTPUT: </text>
<text text-anchor="middle" x="979" y="-538.8" font-family="Times,serif" font-size="14.00">INPUT: batter</text>
</g>
<!-- E4&#45;&gt;E5 -->
<g id="edge14" class="edge"><title>E4&#45;&gt;E5</title>
<path fill="none" stroke="black" d="M816.535,-481.036C827.281,-465.234 843.446,-441.461 855.73,-423.397"/>
<polygon fill="black" stroke="black" points="858.679,-425.284 861.408,-415.047 852.891,-421.348 858.679,-425.284"/>
<text text-anchor="middle" x="881" y="-451.8" font-family="Times,serif" font-size="14.00">OUTPUT: </text>
<text text-anchor="middle" x="881" y="-436.8" font-family="Times,serif" font-size="14.00">INPUT: </text>
</g>
<!-- E9 -->
<g id="node10" class="node"><title>E9</title>
<ellipse fill="azure" stroke="black" cx="782" cy="-295" rx="69.5877" ry="18"/>
<text text-anchor="middle" x="782" y="-291.3" font-family="Times,serif" font-size="14.00">cook (S9,P448)</text>
</g>
<!-- E5&#45;&gt;E9 -->
<g id="edge20" class="edge"><title>E5&#45;&gt;E9</title>
<path fill="none" stroke="black" d="M857.563,-379.036C842.964,-362.993 820.89,-338.737 804.365,-320.577"/>
<polygon fill="black" stroke="black" points="806.528,-317.754 797.209,-312.713 801.351,-322.465 806.528,-317.754"/>
<text text-anchor="middle" x="901" y="-349.8" font-family="Times,serif" font-size="14.00">OUTPUT: </text>
<text text-anchor="middle" x="901" y="-334.8" font-family="Times,serif" font-size="14.00">INPUT: for 1 minute</text>
</g>
<!-- E6 -->
<g id="node7" class="node"><title>E6</title>
<ellipse fill="azure" stroke="black" cx="259" cy="-193" rx="72.5877" ry="18"/>
<text text-anchor="middle" x="259" y="-189.3" font-family="Times,serif" font-size="14.00">check (S6,P292)</text>
</g>
<!-- E11 -->
<g id="node12" class="node"><title>E11</title>
<ellipse fill="azure" stroke="black" cx="518" cy="-91" rx="75.2868" ry="18"/>
<text text-anchor="middle" x="518" y="-87.3" font-family="Times,serif" font-size="14.00">glaze (S10,P468)</text>
</g>
<!-- E6&#45;&gt;E11 -->
<g id="edge22" class="edge"><title>E6&#45;&gt;E11</title>
<path fill="none" stroke="black" d="M284.789,-175.909C308.908,-161.438 346.316,-140.446 381,-127 403.63,-118.227 429.215,-111.01 452.096,-105.456"/>
<polygon fill="black" stroke="black" points="453.133,-108.807 462.059,-103.099 451.522,-101.995 453.133,-108.807"/>
<text text-anchor="middle" x="447.5" y="-145.8" font-family="Times,serif" font-size="14.00">OUTPUT: </text>
<text text-anchor="middle" x="447.5" y="-130.8" font-family="Times,serif" font-size="14.00">INPUT: baked muffins</text>
</g>
<!-- E7 -->
<g id="node8" class="node"><title>E7</title>
<ellipse fill="azure" stroke="black" cx="504" cy="-499" rx="83.3857" ry="18"/>
<text text-anchor="middle" x="504" y="-495.3" font-family="Times,serif" font-size="14.00">combine (S8,P366)</text>
</g>
<!-- E8 -->
<g id="node9" class="node"><title>E8</title>
<ellipse fill="azure" stroke="black" cx="659" cy="-397" rx="71.4873" ry="18"/>
<text text-anchor="middle" x="659" y="-393.3" font-family="Times,serif" font-size="14.00">bring (S9,P426)</text>
</g>
<!-- E7&#45;&gt;E8 -->
<g id="edge17" class="edge"><title>E7&#45;&gt;E8</title>
<path fill="none" stroke="black" d="M514.765,-481.147C524.859,-466.568 541.187,-445.863 560,-433 571.867,-424.886 585.817,-418.45 599.441,-413.427"/>
<polygon fill="black" stroke="black" points="600.97,-416.602 609.269,-410.017 598.675,-409.989 600.97,-416.602"/>
<text text-anchor="middle" x="607.5" y="-451.8" font-family="Times,serif" font-size="14.00">OUTPUT: </text>
<text text-anchor="middle" x="607.5" y="-436.8" font-family="Times,serif" font-size="14.00">INPUT: mixture</text>
</g>
<!-- E8&#45;&gt;E9 -->
<g id="edge19" class="edge"><title>E8&#45;&gt;E9</title>
<path fill="none" stroke="black" d="M679.036,-379.711C699.407,-363.149 731.139,-337.351 753.992,-318.771"/>
<polygon fill="black" stroke="black" points="756.421,-321.306 761.973,-312.282 752.006,-315.875 756.421,-321.306"/>
<text text-anchor="middle" x="770" y="-349.8" font-family="Times,serif" font-size="14.00">OUTPUT: </text>
<text text-anchor="middle" x="770" y="-334.8" font-family="Times,serif" font-size="14.00">INPUT: </text>
</g>
<!-- E10 -->
<g id="node11" class="node"><title>E10</title>
<ellipse fill="azure" stroke="black" cx="782" cy="-193" rx="77.1866" ry="18"/>
<text text-anchor="middle" x="782" y="-189.3" font-family="Times,serif" font-size="14.00">brush (S10,P463)</text>
</g>
<!-- E9&#45;&gt;E10 -->
<g id="edge21" class="edge"><title>E9&#45;&gt;E10</title>
<path fill="none" stroke="black" d="M782,-276.581C782,-261.382 782,-239.067 782,-221.464"/>
<polygon fill="black" stroke="black" points="785.5,-221.219 782,-211.219 778.5,-221.219 785.5,-221.219"/>
<text text-anchor="middle" x="814" y="-247.8" font-family="Times,serif" font-size="14.00">OUTPUT: </text>
<text text-anchor="middle" x="814" y="-232.8" font-family="Times,serif" font-size="14.00">INPUT: </text>
</g>
<!-- E10&#45;&gt;E11 -->
<g id="edge23" class="edge"><title>E10&#45;&gt;E11</title>
<path fill="none" stroke="black" d="M743.329,-177.352C696.237,-159.514 616.699,-129.386 565.811,-110.11"/>
<polygon fill="black" stroke="black" points="566.936,-106.794 556.345,-106.525 564.457,-113.34 566.936,-106.794"/>
<text text-anchor="middle" x="727" y="-145.8" font-family="Times,serif" font-size="14.00">OUTPUT: </text>
<text text-anchor="middle" x="727" y="-130.8" font-family="Times,serif" font-size="14.00">INPUT: over</text>
</g>
<!-- EOR -->
<g id="node26" class="node"><title>EOR</title>
<ellipse fill="plum" stroke="black" cx="518" cy="-18" rx="57.3905" ry="18"/>
<text text-anchor="middle" x="518" y="-14.3" font-family="Times,serif" font-size="14.00">Bon appetit!</text>
</g>
<!-- E11&#45;&gt;EOR -->
<g id="edge25" class="edge"><title>E11&#45;&gt;EOR</title>
<path fill="none" stroke="black" d="M518,-72.8129C518,-64.7895 518,-55.0475 518,-46.0691"/>
<polygon fill="black" stroke="black" points="521.5,-46.0288 518,-36.0288 514.5,-46.0289 521.5,-46.0288"/>
</g>
<!-- D1 -->
<g id="node13" class="node"><title>D1</title>
<polygon fill="white" stroke="black" points="869,-724 555,-724 555,-688 869,-688 869,-724"/>
<text text-anchor="middle" x="712" y="-702.3" font-family="Times,serif" font-size="14.00">DOBJ: muffin cups or line with paper muffin liners</text>
</g>
<!-- D1&#45;&gt;E1 -->
<g id="edge1" class="edge"><title>D1&#45;&gt;E1</title>
<path fill="none" stroke="black" d="M712.339,-687.697C712.649,-671.923 713.111,-648.364 713.469,-630.094"/>
<polygon fill="black" stroke="black" points="716.969,-630.114 713.666,-620.047 709.97,-629.977 716.969,-630.114"/>
</g>
<!-- D7 -->
<g id="node14" class="node"><title>D7</title>
<polygon fill="peachpuff" stroke="black" points="404,-621 0,-621 0,-583 404,-583 404,-621"/>
<text text-anchor="middle" x="202" y="-605.8" font-family="Times,serif" font-size="14.00">DOBJ: water</text>
<text text-anchor="middle" x="202" y="-590.8" font-family="Times,serif" font-size="14.00">(text: 1/4 cup white sugar, 3 tablespoons water in a small saucepan)</text>
</g>
<!-- D7&#45;&gt;E7 -->
<g id="edge2" class="edge"><title>D7&#45;&gt;E7</title>
<path fill="none" stroke="black" d="M255.992,-582.943C311.209,-564.476 396.439,-535.972 451.214,-517.653"/>
<polygon fill="black" stroke="black" points="452.365,-520.959 460.738,-514.468 450.144,-514.321 452.365,-520.959"/>
</g>
<!-- O7_0 -->
<g id="node15" class="node"><title>O7_0</title>
<polygon fill="white" stroke="black" points="605.5,-620 422.5,-620 422.5,-584 605.5,-584 605.5,-620"/>
<text text-anchor="middle" x="514" y="-598.3" font-family="Times,serif" font-size="14.00">OTHER: while muffins bake</text>
</g>
<!-- O7_0&#45;&gt;E7 -->
<g id="edge3" class="edge"><title>O7_0&#45;&gt;E7</title>
<path fill="none" stroke="black" d="M512.304,-583.867C510.774,-568.414 508.497,-545.416 506.714,-527.409"/>
<polygon fill="black" stroke="black" points="510.173,-526.824 505.705,-517.217 503.207,-527.514 510.173,-526.824"/>
</g>
<!-- D6 -->
<g id="node16" class="node"><title>D6</title>
<polygon fill="white" stroke="black" points="192,-313 76,-313 76,-277 192,-277 192,-313"/>
<text text-anchor="middle" x="134" y="-291.3" font-family="Times,serif" font-size="14.00">DOBJ: bake time</text>
</g>
<!-- D6&#45;&gt;E6 -->
<g id="edge4" class="edge"><title>D6&#45;&gt;E6</title>
<path fill="none" stroke="black" d="M155.488,-276.809C176.253,-260.198 207.83,-234.936 230.646,-216.683"/>
<polygon fill="black" stroke="black" points="232.998,-219.284 238.62,-210.304 228.625,-213.818 232.998,-219.284"/>
</g>
<!-- P6_0 -->
<g id="node17" class="node"><title>P6_0</title>
<polygon fill="white" stroke="black" points="560,-313 210,-313 210,-277 560,-277 560,-313"/>
<text text-anchor="middle" x="385" y="-291.3" font-family="Times,serif" font-size="14.00">PREP: by inserting a toothpick into the center of a muffin</text>
</g>
<!-- P6_0&#45;&gt;E6 -->
<g id="edge5" class="edge"><title>P6_0&#45;&gt;E6</title>
<path fill="none" stroke="black" d="M363.34,-276.809C342.409,-260.198 310.58,-234.936 287.58,-216.683"/>
<polygon fill="black" stroke="black" points="289.552,-213.779 279.543,-210.304 285.2,-219.262 289.552,-213.779"/>
</g>
<!-- D2 -->
<g id="node18" class="node"><title>D2</title>
<polygon fill="peachpuff" stroke="black" points="854,-800 494,-800 494,-762 854,-762 854,-800"/>
<text text-anchor="middle" x="674" y="-784.8" font-family="Times,serif" font-size="14.00">DOBJ: white sugar, ground cinnamon, self&#45;rising flour, salt</text>
<text text-anchor="middle" x="674" y="-769.8" font-family="Times,serif" font-size="14.00">(text: flour , 1/2 cup sugar , salt, 1 teaspoon cinnamon)</text>
</g>
<!-- D2&#45;&gt;E2 -->
<g id="edge6" class="edge"><title>D2&#45;&gt;E2</title>
<path fill="none" stroke="black" d="M740.989,-761.955C787.957,-749.303 849.829,-732.636 893.071,-720.988"/>
<polygon fill="black" stroke="black" points="894.076,-724.342 902.821,-718.362 892.255,-717.583 894.076,-724.342"/>
</g>
<!-- P2_0 -->
<g id="node19" class="node"><title>P2_0</title>
<polygon fill="white" stroke="black" points="1018,-799 872,-799 872,-763 1018,-763 1018,-799"/>
<text text-anchor="middle" x="945" y="-777.3" font-family="Times,serif" font-size="14.00">PREP: in a large bowl</text>
</g>
<!-- P2_0&#45;&gt;E2 -->
<g id="edge7" class="edge"><title>P2_0&#45;&gt;E2</title>
<path fill="none" stroke="black" d="M945,-762.7C945,-754.245 945,-743.869 945,-734.373"/>
<polygon fill="black" stroke="black" points="948.5,-734.176 945,-724.176 941.5,-734.176 948.5,-734.176"/>
</g>
<!-- O2_0 -->
<g id="node20" class="node"><title>O2_0</title>
<polygon fill="white" stroke="black" points="1155.5,-799 1036.5,-799 1036.5,-763 1155.5,-763 1155.5,-799"/>
<text text-anchor="middle" x="1096" y="-777.3" font-family="Times,serif" font-size="14.00">OTHER: together</text>
</g>
<!-- O2_0&#45;&gt;E2 -->
<g id="edge8" class="edge"><title>O2_0&#45;&gt;E2</title>
<path fill="none" stroke="black" d="M1060.6,-762.885C1037.66,-751.798 1007.78,-737.35 984.141,-725.922"/>
<polygon fill="black" stroke="black" points="985.615,-722.747 975.088,-721.546 982.568,-729.05 985.615,-722.747"/>
</g>
<!-- D0 -->
<g id="node21" class="node"><title>D0</title>
<polygon fill="white" stroke="black" points="1355,-620 1037,-620 1037,-584 1355,-584 1355,-620"/>
<text text-anchor="middle" x="1196" y="-598.3" font-family="Times,serif" font-size="14.00">DOBJ: oven to 350 degrees F &#45;LRB&#45; 175 degrees C</text>
</g>
<!-- D0&#45;&gt;E0 -->
<g id="edge9" class="edge"><title>D0&#45;&gt;E0</title>
<path fill="none" stroke="black" d="M1196,-583.867C1196,-568.414 1196,-545.416 1196,-527.409"/>
<polygon fill="black" stroke="black" points="1199.5,-527.217 1196,-517.217 1192.5,-527.217 1199.5,-527.217"/>
</g>
<!-- P3_0_ing -->
<g id="node22" class="node"><title>P3_0_ing</title>
<polygon fill="peachpuff" stroke="black" points="1617,-725 1021,-725 1021,-687 1617,-687 1617,-725"/>
<text text-anchor="middle" x="1319" y="-709.8" font-family="Times,serif" font-size="14.00">PREP: in large banana, vanilla extract, grated orange zest, nonfat milk, Granny Smith apples &#45; peeled</text>
<text text-anchor="middle" x="1319" y="-694.8" font-family="Times,serif" font-size="14.00">(text: in &#160;apples , &#160;banana , &#160;orange zest, &#160;vanilla extract, milk )</text>
</g>
<!-- P3_0_ing&#45;&gt;E3 -->
<g id="edge11" class="edge"><title>P3_0_ing&#45;&gt;E3</title>
<path fill="none" stroke="black" d="M1253,-686.999C1180.69,-667.28 1066.09,-636.025 998.952,-617.714"/>
<polygon fill="black" stroke="black" points="999.569,-614.255 989,-615 997.727,-621.008 999.569,-614.255"/>
</g>
<!-- P5_0_0 -->
<g id="node23" class="node"><title>P5_0_0</title>
<polygon fill="white" stroke="black" points="1109,-517 897,-517 897,-481 1109,-481 1109,-517"/>
<text text-anchor="middle" x="1003" y="-495.3" font-family="Times,serif" font-size="14.00">PREP: in &#160;about 25 to 30 minutes</text>
</g>
<!-- P5_0_0&#45;&gt;E5 -->
<g id="edge15" class="edge"><title>P5_0_0&#45;&gt;E5</title>
<path fill="none" stroke="black" d="M980.652,-480.809C958.963,-464.125 925.929,-438.714 902.176,-420.443"/>
<polygon fill="black" stroke="black" points="904.256,-417.627 894.195,-414.304 899.988,-423.175 904.256,-417.627"/>
</g>
<!-- P8_0_0 -->
<g id="node24" class="node"><title>P8_0_0</title>
<polygon fill="white" stroke="black" points="712.5,-517 605.5,-517 605.5,-481 712.5,-481 712.5,-517"/>
<text text-anchor="middle" x="659" y="-495.3" font-family="Times,serif" font-size="14.00">PREP: to a boil</text>
</g>
<!-- P8_0_0&#45;&gt;E8 -->
<g id="edge18" class="edge"><title>P8_0_0&#45;&gt;E8</title>
<path fill="none" stroke="black" d="M659,-480.581C659,-465.382 659,-443.067 659,-425.464"/>
<polygon fill="black" stroke="black" points="662.5,-425.219 659,-415.219 655.5,-425.219 662.5,-425.219"/>
</g>
<!-- O11_1_0 -->
<g id="node25" class="node"><title>O11_1_0</title>
<polygon fill="white" stroke="black" points="686.5,-211 349.5,-211 349.5,-175 686.5,-175 686.5,-211"/>
<text text-anchor="middle" x="518" y="-189.3" font-family="Times,serif" font-size="14.00">OTHER: then sprinkle muffins with as much cinnamon</text>
</g>
<!-- O11_1_0&#45;&gt;E11 -->
<g id="edge24" class="edge"><title>O11_1_0&#45;&gt;E11</title>
<path fill="none" stroke="black" d="M518,-174.581C518,-159.382 518,-137.067 518,-119.464"/>
<polygon fill="black" stroke="black" points="521.5,-119.219 518,-109.219 514.5,-119.219 521.5,-119.219"/>
</g>
</g>
</svg>
