<?xml version="1.0" encoding="UTF-8" standalone="no"?>
<!DOCTYPE svg PUBLIC "-//W3C//DTD SVG 1.1//EN"
 "http://www.w3.org/Graphics/SVG/1.1/DTD/svg11.dtd">
<!-- Generated by graphviz version 2.38.0 (20140413.2041)
 -->
<!-- Title: recipe Pages: 1 -->
<svg width="1683pt" height="498pt"
 viewBox="0.00 0.00 1683.00 498.00" xmlns="http://www.w3.org/2000/svg" xmlns:xlink="http://www.w3.org/1999/xlink">
<g id="graph0" class="graph" transform="scale(1 1) rotate(0) translate(4 494)">
<title>recipe</title>
<polygon fill="white" stroke="none" points="-4,4 -4,-494 1679,-494 1679,4 -4,4"/>
<!-- E0 -->
<g id="node1" class="node"><title>E0</title>
<ellipse fill="azure" stroke="black" cx="1516" cy="-193" rx="68.7879" ry="18"/>
<text text-anchor="middle" x="1516" y="-189.3" font-family="Times,serif" font-size="14.00">preheat (S0,P0)</text>
</g>
<!-- E6 -->
<g id="node7" class="node"><title>E6</title>
<ellipse fill="azure" stroke="black" cx="1173" cy="-91" rx="68.7879" ry="18"/>
<text text-anchor="middle" x="1173" y="-87.3" font-family="Times,serif" font-size="14.00">bake (S7,P445)</text>
</g>
<!-- E0&#45;&gt;E6 -->
<g id="edge15" class="edge"><title>E0&#45;&gt;E6</title>
<path fill="none" stroke="black" d="M1471.86,-179.131C1409.17,-160.855 1294.48,-127.416 1226.86,-107.704"/>
<polygon fill="black" stroke="black" points="1227.82,-104.337 1217.24,-104.898 1225.86,-111.057 1227.82,-104.337"/>
<text text-anchor="middle" x="1482.5" y="-145.8" font-family="Times,serif" font-size="14.00">OUTPUT: </text>
<text text-anchor="middle" x="1482.5" y="-130.8" font-family="Times,serif" font-size="14.00">INPUT: in the preheated oven</text>
</g>
<!-- E1 -->
<g id="node2" class="node"><title>E1</title>
<ellipse fill="azure" stroke="black" cx="245" cy="-295" rx="59.5901" ry="18"/>
<text text-anchor="middle" x="245" y="-291.3" font-family="Times,serif" font-size="14.00">line (S1,P38)</text>
</g>
<!-- E5 -->
<g id="node6" class="node"><title>E5</title>
<ellipse fill="azure" stroke="black" cx="678" cy="-193" rx="74.187" ry="18"/>
<text text-anchor="middle" x="678" y="-189.3" font-family="Times,serif" font-size="14.00">spoon (S5,P286)</text>
</g>
<!-- E1&#45;&gt;E5 -->
<g id="edge12" class="edge"><title>E1&#45;&gt;E5</title>
<path fill="none" stroke="black" d="M284.385,-281.434C329.751,-267.285 406.696,-244.28 474,-229 517.266,-219.178 566.25,-210.688 605.372,-204.531"/>
<polygon fill="black" stroke="black" points="606.27,-207.934 615.613,-202.937 605.194,-201.017 606.27,-207.934"/>
<text text-anchor="middle" x="574" y="-247.8" font-family="Times,serif" font-size="14.00">OUTPUT: </text>
<text text-anchor="middle" x="574" y="-232.8" font-family="Times,serif" font-size="14.00">INPUT: into prepared muffin cups</text>
</g>
<!-- E2 -->
<g id="node3" class="node"><title>E2</title>
<ellipse fill="azure" stroke="black" cx="409" cy="-397" rx="67.6881" ry="18"/>
<text text-anchor="middle" x="409" y="-393.3" font-family="Times,serif" font-size="14.00">puree (S2,P70)</text>
</g>
<!-- E4 -->
<g id="node5" class="node"><title>E4</title>
<ellipse fill="azure" stroke="black" cx="678" cy="-295" rx="70.6878" ry="18"/>
<text text-anchor="middle" x="678" y="-291.3" font-family="Times,serif" font-size="14.00">pulse (S4,P219)</text>
</g>
<!-- E2&#45;&gt;E4 -->
<g id="edge9" class="edge"><title>E2&#45;&gt;E4</title>
<path fill="none" stroke="black" d="M402.302,-378.917C397.843,-364.391 394.659,-343.893 406,-331 418.733,-316.523 524.246,-306.354 600.033,-300.837"/>
<polygon fill="black" stroke="black" points="600.324,-304.325 610.05,-300.122 599.826,-297.343 600.324,-304.325"/>
<text text-anchor="middle" x="564.5" y="-349.8" font-family="Times,serif" font-size="14.00">OUTPUT: </text>
<text text-anchor="middle" x="564.5" y="-334.8" font-family="Times,serif" font-size="14.00">INPUT: &#160;scraping sides to fully incorporate ingredients</text>
</g>
<!-- E3 -->
<g id="node4" class="node"><title>E3</title>
<ellipse fill="azure" stroke="black" cx="749" cy="-397" rx="64.9885" ry="18"/>
<text text-anchor="middle" x="749" y="-393.3" font-family="Times,serif" font-size="14.00">add (S3,P118)</text>
</g>
<!-- E3&#45;&gt;E4 -->
<g id="edge8" class="edge"><title>E3&#45;&gt;E4</title>
<path fill="none" stroke="black" d="M746.227,-378.897C743.296,-364.935 737.579,-345.255 727,-331 723.408,-326.16 718.948,-321.724 714.194,-317.757"/>
<polygon fill="black" stroke="black" points="716.094,-314.805 706.017,-311.533 711.855,-320.375 716.094,-314.805"/>
<text text-anchor="middle" x="773" y="-349.8" font-family="Times,serif" font-size="14.00">OUTPUT: </text>
<text text-anchor="middle" x="773" y="-334.8" font-family="Times,serif" font-size="14.00">INPUT: </text>
</g>
<!-- E4&#45;&gt;E5 -->
<g id="edge11" class="edge"><title>E4&#45;&gt;E5</title>
<path fill="none" stroke="black" d="M678,-276.581C678,-261.382 678,-239.067 678,-221.464"/>
<polygon fill="black" stroke="black" points="681.5,-221.219 678,-211.219 674.5,-221.219 681.5,-221.219"/>
<text text-anchor="middle" x="719" y="-247.8" font-family="Times,serif" font-size="14.00">OUTPUT: </text>
<text text-anchor="middle" x="719" y="-232.8" font-family="Times,serif" font-size="14.00">INPUT: batter</text>
</g>
<!-- E5&#45;&gt;E6 -->
<g id="edge14" class="edge"><title>E5&#45;&gt;E6</title>
<path fill="none" stroke="black" d="M732.914,-180.748C742.284,-178.829 751.921,-176.857 761,-175 865.439,-153.638 891.489,-148.006 996,-127 1033.57,-119.448 1075.66,-111.121 1109.36,-104.484"/>
<polygon fill="black" stroke="black" points="1110.4,-107.846 1119.54,-102.481 1109.05,-100.978 1110.4,-107.846"/>
<text text-anchor="middle" x="1028" y="-145.8" font-family="Times,serif" font-size="14.00">OUTPUT: </text>
<text text-anchor="middle" x="1028" y="-130.8" font-family="Times,serif" font-size="14.00">INPUT: </text>
</g>
<!-- EOR -->
<g id="node19" class="node"><title>EOR</title>
<ellipse fill="plum" stroke="black" cx="1173" cy="-18" rx="57.3905" ry="18"/>
<text text-anchor="middle" x="1173" y="-14.3" font-family="Times,serif" font-size="14.00">Bon appetit!</text>
</g>
<!-- E6&#45;&gt;EOR -->
<g id="edge18" class="edge"><title>E6&#45;&gt;EOR</title>
<path fill="none" stroke="black" d="M1173,-72.8129C1173,-64.7895 1173,-55.0475 1173,-46.0691"/>
<polygon fill="black" stroke="black" points="1176.5,-46.0288 1173,-36.0288 1169.5,-46.0289 1176.5,-46.0288"/>
</g>
<!-- D0 -->
<g id="node8" class="node"><title>D0</title>
<polygon fill="white" stroke="black" points="1675,-313 1357,-313 1357,-277 1675,-277 1675,-313"/>
<text text-anchor="middle" x="1516" y="-291.3" font-family="Times,serif" font-size="14.00">DOBJ: oven to 350 degrees F &#45;LRB&#45; 175 degrees C</text>
</g>
<!-- D0&#45;&gt;E0 -->
<g id="edge1" class="edge"><title>D0&#45;&gt;E0</title>
<path fill="none" stroke="black" d="M1516,-276.581C1516,-261.382 1516,-239.067 1516,-221.464"/>
<polygon fill="black" stroke="black" points="1519.5,-221.219 1516,-211.219 1512.5,-221.219 1519.5,-221.219"/>
</g>
<!-- D3 -->
<g id="node9" class="node"><title>D3</title>
<polygon fill="peachpuff" stroke="black" points="1273.5,-490 578.5,-490 578.5,-452 1273.5,-452 1273.5,-490"/>
<text text-anchor="middle" x="926" y="-474.8" font-family="Times,serif" font-size="14.00">DOBJ: palm shortening, vanilla extract, almond butter, coconut oil, coconut flour, baking soda, cocoa powder, salt</text>
<text text-anchor="middle" x="926" y="-459.8" font-family="Times,serif" font-size="14.00">(text: almond butter , coconut flour , coconut oil , palm shortening , cocoa powder , baking soda , vanilla extract , salt)</text>
</g>
<!-- D3&#45;&gt;E3 -->
<g id="edge2" class="edge"><title>D3&#45;&gt;E3</title>
<path fill="none" stroke="black" d="M881.335,-451.831C854.428,-440.886 820.289,-426.999 793.425,-416.071"/>
<polygon fill="black" stroke="black" points="794.465,-412.716 783.884,-412.19 791.828,-419.2 794.465,-412.716"/>
</g>
<!-- D1 -->
<g id="node10" class="node"><title>D1</title>
<polygon fill="white" stroke="black" points="148,-415 0,-415 0,-379 148,-379 148,-415"/>
<text text-anchor="middle" x="74" y="-393.3" font-family="Times,serif" font-size="14.00">DOBJ: 12 muffin cups</text>
</g>
<!-- D1&#45;&gt;E1 -->
<g id="edge3" class="edge"><title>D1&#45;&gt;E1</title>
<path fill="none" stroke="black" d="M103.396,-378.809C132.946,-361.529 178.504,-334.887 209.925,-316.512"/>
<polygon fill="black" stroke="black" points="211.922,-319.399 218.787,-311.329 208.388,-313.356 211.922,-319.399"/>
</g>
<!-- P1_0 -->
<g id="node11" class="node"><title>P1_0</title>
<polygon fill="white" stroke="black" points="323.5,-415 166.5,-415 166.5,-379 323.5,-379 323.5,-415"/>
<text text-anchor="middle" x="245" y="-393.3" font-family="Times,serif" font-size="14.00">PREP: with paper liners</text>
</g>
<!-- P1_0&#45;&gt;E1 -->
<g id="edge4" class="edge"><title>P1_0&#45;&gt;E1</title>
<path fill="none" stroke="black" d="M245,-378.581C245,-363.382 245,-341.067 245,-323.464"/>
<polygon fill="black" stroke="black" points="248.5,-323.219 245,-313.219 241.5,-323.219 248.5,-323.219"/>
</g>
<!-- D2 -->
<g id="node12" class="node"><title>D2</title>
<polygon fill="peachpuff" stroke="black" points="221.5,-490 18.5,-490 18.5,-452 221.5,-452 221.5,-490"/>
<text text-anchor="middle" x="120" y="-474.8" font-family="Times,serif" font-size="14.00">DOBJ: ripe bananas, pitted dates</text>
<text text-anchor="middle" x="120" y="-459.8" font-family="Times,serif" font-size="14.00">(text: bananas, dates)</text>
</g>
<!-- D2&#45;&gt;E2 -->
<g id="edge5" class="edge"><title>D2&#45;&gt;E2</title>
<path fill="none" stroke="black" d="M192.554,-451.924C241.778,-439.661 305.956,-423.672 351.617,-412.296"/>
<polygon fill="black" stroke="black" points="352.499,-415.684 361.356,-409.87 350.806,-408.891 352.499,-415.684"/>
</g>
<!-- P2_0 -->
<g id="node13" class="node"><title>P2_0</title>
<polygon fill="white" stroke="black" points="410,-489 240,-489 240,-453 410,-453 410,-489"/>
<text text-anchor="middle" x="325" y="-467.3" font-family="Times,serif" font-size="14.00">PREP: in a food processor</text>
</g>
<!-- P2_0&#45;&gt;E2 -->
<g id="edge6" class="edge"><title>P2_0&#45;&gt;E2</title>
<path fill="none" stroke="black" d="M344.907,-452.937C356.05,-443.386 370.094,-431.348 382.194,-420.977"/>
<polygon fill="black" stroke="black" points="384.499,-423.61 389.814,-414.445 379.944,-418.295 384.499,-423.61"/>
</g>
<!-- P2_1 -->
<g id="node14" class="node"><title>P2_1</title>
<polygon fill="white" stroke="black" points="560,-489 428,-489 428,-453 560,-453 560,-489"/>
<text text-anchor="middle" x="494" y="-467.3" font-family="Times,serif" font-size="14.00">PREP: until smooth</text>
</g>
<!-- P2_1&#45;&gt;E2 -->
<g id="edge7" class="edge"><title>P2_1&#45;&gt;E2</title>
<path fill="none" stroke="black" d="M473.856,-452.937C462.58,-443.386 448.369,-431.348 436.125,-420.977"/>
<polygon fill="black" stroke="black" points="438.307,-418.238 428.414,-414.445 433.782,-423.579 438.307,-418.238"/>
</g>
<!-- O4_0_1 -->
<g id="node15" class="node"><title>O4_0_1</title>
<polygon fill="white" stroke="black" points="1032,-415 832,-415 832,-379 1032,-379 1032,-415"/>
<text text-anchor="middle" x="932" y="-393.3" font-family="Times,serif" font-size="14.00">OTHER: to make a thick batter </text>
</g>
<!-- O4_0_1&#45;&gt;E4 -->
<g id="edge10" class="edge"><title>O4_0_1&#45;&gt;E4</title>
<path fill="none" stroke="black" d="M904.034,-378.883C879.647,-364.534 842.954,-344.311 809,-331 787.143,-322.432 762.435,-315.227 740.415,-309.625"/>
<polygon fill="black" stroke="black" points="741.055,-306.178 730.506,-307.165 739.368,-312.971 741.055,-306.178"/>
</g>
<!-- O5_0_0 -->
<g id="node16" class="node"><title>O5_0_0</title>
<polygon fill="white" stroke="black" points="951.5,-313 766.5,-313 766.5,-277 951.5,-277 951.5,-313"/>
<text text-anchor="middle" x="859" y="-291.3" font-family="Times,serif" font-size="14.00">OTHER: filling them 2/3 full</text>
</g>
<!-- O5_0_0&#45;&gt;E5 -->
<g id="edge13" class="edge"><title>O5_0_0&#45;&gt;E5</title>
<path fill="none" stroke="black" d="M836.83,-276.816C818.106,-262.806 790.227,-243.1 764,-229 752.573,-222.857 739.83,-217.117 727.729,-212.134"/>
<polygon fill="black" stroke="black" points="728.783,-208.785 718.199,-208.306 726.175,-215.281 728.783,-208.785"/>
</g>
<!-- O6_0_0 -->
<g id="node17" class="node"><title>O6_0_0</title>
<polygon fill="white" stroke="black" points="1238,-211 770,-211 770,-175 1238,-175 1238,-211"/>
<text text-anchor="middle" x="1004" y="-189.3" font-family="Times,serif" font-size="14.00">OTHER: until a toothpick inserted into the center of a muffin comes out clean </text>
</g>
<!-- O6_0_0&#45;&gt;E6 -->
<g id="edge16" class="edge"><title>O6_0_0&#45;&gt;E6</title>
<path fill="none" stroke="black" d="M1033.05,-174.809C1062.08,-157.63 1106.75,-131.2 1137.79,-112.837"/>
<polygon fill="black" stroke="black" points="1139.72,-115.756 1146.55,-107.652 1136.16,-109.732 1139.72,-115.756"/>
</g>
<!-- O6_0_1 -->
<g id="node18" class="node"><title>O6_0_1</title>
<polygon fill="white" stroke="black" points="1429.5,-211 1256.5,-211 1256.5,-175 1429.5,-175 1429.5,-211"/>
<text text-anchor="middle" x="1343" y="-189.3" font-family="Times,serif" font-size="14.00">OTHER: &#160;16 to 18 minutes</text>
</g>
<!-- O6_0_1&#45;&gt;E6 -->
<g id="edge17" class="edge"><title>O6_0_1&#45;&gt;E6</title>
<path fill="none" stroke="black" d="M1313.78,-174.809C1284.57,-157.63 1239.64,-131.2 1208.42,-112.837"/>
<polygon fill="black" stroke="black" points="1210,-109.705 1199.61,-107.652 1206.45,-115.739 1210,-109.705"/>
</g>
</g>
</svg>
