<?xml version="1.0" encoding="UTF-8" standalone="no"?>
<!DOCTYPE svg PUBLIC "-//W3C//DTD SVG 1.1//EN"
 "http://www.w3.org/Graphics/SVG/1.1/DTD/svg11.dtd">
<!-- Generated by graphviz version 2.38.0 (20140413.2041)
 -->
<!-- Title: recipe Pages: 1 -->
<svg width="1618pt" height="912pt"
 viewBox="0.00 0.00 1618.00 912.00" xmlns="http://www.w3.org/2000/svg" xmlns:xlink="http://www.w3.org/1999/xlink">
<g id="graph0" class="graph" transform="scale(1 1) rotate(0) translate(4 908)">
<title>recipe</title>
<polygon fill="white" stroke="none" points="-4,4 -4,-908 1614,-908 1614,4 -4,4"/>
<!-- E0 -->
<g id="node1" class="node"><title>E0</title>
<ellipse fill="azure" stroke="black" cx="1451" cy="-193" rx="68.7879" ry="18"/>
<text text-anchor="middle" x="1451" y="-189.3" font-family="Times,serif" font-size="14.00">preheat (S0,P0)</text>
</g>
<!-- E12 -->
<g id="node13" class="node"><title>E12</title>
<ellipse fill="azure" stroke="black" cx="1158" cy="-91" rx="73.387" ry="18"/>
<text text-anchor="middle" x="1158" y="-87.3" font-family="Times,serif" font-size="14.00">bake (S12,P473)</text>
</g>
<!-- E0&#45;&gt;E12 -->
<g id="edge29" class="edge"><title>E0&#45;&gt;E12</title>
<path fill="none" stroke="black" d="M1410.87,-178.305C1358.28,-160.354 1265.99,-128.858 1208.64,-109.284"/>
<polygon fill="black" stroke="black" points="1209.65,-105.93 1199.05,-106.012 1207.39,-112.554 1209.65,-105.93"/>
<text text-anchor="middle" x="1468.5" y="-145.8" font-family="Times,serif" font-size="14.00">OUTPUT: </text>
<text text-anchor="middle" x="1468.5" y="-130.8" font-family="Times,serif" font-size="14.00">INPUT: in preheated oven for 20 minutes</text>
</g>
<!-- E1 -->
<g id="node2" class="node"><title>E1</title>
<ellipse fill="azure" stroke="black" cx="304" cy="-810" rx="61.99" ry="18"/>
<text text-anchor="middle" x="304" y="-806.3" font-family="Times,serif" font-size="14.00">coat (S1,P45)</text>
</g>
<!-- E4 -->
<g id="node5" class="node"><title>E4</title>
<ellipse fill="azure" stroke="black" cx="605" cy="-706" rx="83.3857" ry="18"/>
<text text-anchor="middle" x="605" y="-702.3" font-family="Times,serif" font-size="14.00">combine (S4,P190)</text>
</g>
<!-- E1&#45;&gt;E4 -->
<g id="edge9" class="edge"><title>E1&#45;&gt;E4</title>
<path fill="none" stroke="black" d="M342.734,-795.874C396.129,-777.78 492.521,-745.116 552.396,-724.826"/>
<polygon fill="black" stroke="black" points="553.695,-728.081 562.043,-721.557 551.448,-721.452 553.695,-728.081"/>
<text text-anchor="middle" x="535.5" y="-761.8" font-family="Times,serif" font-size="14.00">OUTPUT: </text>
<text text-anchor="middle" x="535.5" y="-746.8" font-family="Times,serif" font-size="14.00">INPUT: &#160;sugar </text>
</g>
<!-- E2 -->
<g id="node3" class="node"><title>E2</title>
<ellipse fill="azure" stroke="black" cx="148" cy="-603" rx="83.3857" ry="18"/>
<text text-anchor="middle" x="148" y="-599.3" font-family="Times,serif" font-size="14.00">combine (S2,P112)</text>
</g>
<!-- E3 -->
<g id="node4" class="node"><title>E3</title>
<ellipse fill="azure" stroke="black" cx="356" cy="-500" rx="59.5901" ry="18"/>
<text text-anchor="middle" x="356" y="-496.3" font-family="Times,serif" font-size="14.00">let (S3,P133)</text>
</g>
<!-- E2&#45;&gt;E3 -->
<g id="edge6" class="edge"><title>E2&#45;&gt;E3</title>
<path fill="none" stroke="black" d="M180.5,-586.219C217.311,-568.344 277.284,-539.223 316.695,-520.085"/>
<polygon fill="black" stroke="black" points="318.288,-523.203 325.755,-515.686 315.231,-516.906 318.288,-523.203"/>
<text text-anchor="middle" x="309" y="-555.8" font-family="Times,serif" font-size="14.00">OUTPUT: </text>
<text text-anchor="middle" x="309" y="-540.8" font-family="Times,serif" font-size="14.00">INPUT: </text>
</g>
<!-- E6 -->
<g id="node7" class="node"><title>E6</title>
<ellipse fill="azure" stroke="black" cx="630" cy="-397" rx="64.9885" ry="18"/>
<text text-anchor="middle" x="630" y="-393.3" font-family="Times,serif" font-size="14.00">add (S6,P261)</text>
</g>
<!-- E3&#45;&gt;E6 -->
<g id="edge14" class="edge"><title>E3&#45;&gt;E6</title>
<path fill="none" stroke="black" d="M380.521,-483.321C404.712,-468.471 443.166,-446.493 479,-433 506.7,-422.569 538.473,-414.641 565.705,-408.99"/>
<polygon fill="black" stroke="black" points="566.406,-412.419 575.516,-407.01 565.021,-405.557 566.406,-412.419"/>
<text text-anchor="middle" x="552.5" y="-451.8" font-family="Times,serif" font-size="14.00">OUTPUT: </text>
<text text-anchor="middle" x="552.5" y="-436.8" font-family="Times,serif" font-size="14.00">INPUT: to cereal mixture</text>
</g>
<!-- E5 -->
<g id="node6" class="node"><title>E5</title>
<ellipse fill="azure" stroke="black" cx="749" cy="-603" rx="61.1893" ry="18"/>
<text text-anchor="middle" x="749" y="-599.3" font-family="Times,serif" font-size="14.00">set (S5,P252)</text>
</g>
<!-- E4&#45;&gt;E5 -->
<g id="edge11" class="edge"><title>E4&#45;&gt;E5</title>
<path fill="none" stroke="black" d="M622.998,-688.152C638.492,-674.102 661.799,-654.025 684,-639 692.035,-633.562 701.003,-628.279 709.648,-623.536"/>
<polygon fill="black" stroke="black" points="711.323,-626.609 718.488,-618.804 708.019,-620.438 711.323,-626.609"/>
<text text-anchor="middle" x="716" y="-657.8" font-family="Times,serif" font-size="14.00">OUTPUT: </text>
<text text-anchor="middle" x="716" y="-642.8" font-family="Times,serif" font-size="14.00">INPUT: </text>
</g>
<!-- E8 -->
<g id="node9" class="node"><title>E8</title>
<ellipse fill="azure" stroke="black" cx="909" cy="-500" rx="64.9885" ry="18"/>
<text text-anchor="middle" x="909" y="-496.3" font-family="Times,serif" font-size="14.00">add (S8,P312)</text>
</g>
<!-- E5&#45;&gt;E8 -->
<g id="edge17" class="edge"><title>E5&#45;&gt;E8</title>
<path fill="none" stroke="black" d="M750.629,-584.923C752.939,-570.197 758.523,-549.401 772,-537 773.609,-535.519 815.751,-524.564 852.872,-515.123"/>
<polygon fill="black" stroke="black" points="853.839,-518.488 862.671,-512.636 852.117,-511.703 853.839,-518.488"/>
<text text-anchor="middle" x="838.5" y="-555.8" font-family="Times,serif" font-size="14.00">OUTPUT: </text>
<text text-anchor="middle" x="838.5" y="-540.8" font-family="Times,serif" font-size="14.00">INPUT: liquid mixture</text>
</g>
<!-- E7 -->
<g id="node8" class="node"><title>E7</title>
<ellipse fill="azure" stroke="black" cx="768" cy="-295" rx="66.0889" ry="18"/>
<text text-anchor="middle" x="768" y="-291.3" font-family="Times,serif" font-size="14.00">beat (S7,P303)</text>
</g>
<!-- E6&#45;&gt;E7 -->
<g id="edge15" class="edge"><title>E6&#45;&gt;E7</title>
<path fill="none" stroke="black" d="M645.322,-379.425C658.83,-365.414 679.501,-345.384 700,-331 708.067,-325.34 717.172,-320.02 726.035,-315.318"/>
<polygon fill="black" stroke="black" points="727.828,-318.332 735.13,-310.655 724.634,-312.103 727.828,-318.332"/>
<text text-anchor="middle" x="732" y="-349.8" font-family="Times,serif" font-size="14.00">OUTPUT: </text>
<text text-anchor="middle" x="732" y="-334.8" font-family="Times,serif" font-size="14.00">INPUT: </text>
</g>
<!-- E11 -->
<g id="node12" class="node"><title>E11</title>
<ellipse fill="azure" stroke="black" cx="924" cy="-193" rx="68.4888" ry="18"/>
<text text-anchor="middle" x="924" y="-189.3" font-family="Times,serif" font-size="14.00">top (S11,P438)</text>
</g>
<!-- E7&#45;&gt;E11 -->
<g id="edge26" class="edge"><title>E7&#45;&gt;E11</title>
<path fill="none" stroke="black" d="M792.719,-278.155C819.113,-261.235 861.099,-234.321 890.463,-215.498"/>
<polygon fill="black" stroke="black" points="892.609,-218.28 899.139,-209.936 888.832,-212.387 892.609,-218.28"/>
<text text-anchor="middle" x="920" y="-247.8" font-family="Times,serif" font-size="14.00">OUTPUT: </text>
<text text-anchor="middle" x="920" y="-232.8" font-family="Times,serif" font-size="14.00">INPUT: each cup</text>
</g>
<!-- E9 -->
<g id="node10" class="node"><title>E9</title>
<ellipse fill="azure" stroke="black" cx="909" cy="-397" rx="66.0889" ry="18"/>
<text text-anchor="middle" x="909" y="-393.3" font-family="Times,serif" font-size="14.00">fold (S9,P375)</text>
</g>
<!-- E8&#45;&gt;E9 -->
<g id="edge20" class="edge"><title>E8&#45;&gt;E9</title>
<path fill="none" stroke="black" d="M909,-481.867C909,-466.414 909,-443.416 909,-425.409"/>
<polygon fill="black" stroke="black" points="912.5,-425.217 909,-415.217 905.5,-425.217 912.5,-425.217"/>
<text text-anchor="middle" x="941" y="-451.8" font-family="Times,serif" font-size="14.00">OUTPUT: </text>
<text text-anchor="middle" x="941" y="-436.8" font-family="Times,serif" font-size="14.00">INPUT: </text>
</g>
<!-- E10 -->
<g id="node11" class="node"><title>E10</title>
<ellipse fill="azure" stroke="black" cx="1098" cy="-295" rx="77.1866" ry="18"/>
<text text-anchor="middle" x="1098" y="-291.3" font-family="Times,serif" font-size="14.00">batter (S10,P403)</text>
</g>
<!-- E9&#45;&gt;E10 -->
<g id="edge22" class="edge"><title>E9&#45;&gt;E10</title>
<path fill="none" stroke="black" d="M937.285,-380.624C961.759,-367.363 998.131,-347.76 1030,-331 1039.17,-326.18 1049.06,-321.047 1058.39,-316.241"/>
<polygon fill="black" stroke="black" points="1060.18,-319.252 1067.48,-311.567 1056.98,-313.027 1060.18,-319.252"/>
<text text-anchor="middle" x="1062" y="-349.8" font-family="Times,serif" font-size="14.00">OUTPUT: </text>
<text text-anchor="middle" x="1062" y="-334.8" font-family="Times,serif" font-size="14.00">INPUT: </text>
</g>
<!-- E10&#45;&gt;E11 -->
<g id="edge27" class="edge"><title>E10&#45;&gt;E11</title>
<path fill="none" stroke="black" d="M1070.43,-278.155C1040.56,-260.989 992.79,-233.535 959.984,-214.681"/>
<polygon fill="black" stroke="black" points="961.57,-211.555 951.155,-209.607 958.082,-217.624 961.57,-211.555"/>
<text text-anchor="middle" x="1142.5" y="-247.8" font-family="Times,serif" font-size="14.00">OUTPUT: </text>
<text text-anchor="middle" x="1142.5" y="-232.8" font-family="Times,serif" font-size="14.00">INPUT: with a reserved banana slice</text>
</g>
<!-- E11&#45;&gt;E12 -->
<g id="edge28" class="edge"><title>E11&#45;&gt;E12</title>
<path fill="none" stroke="black" d="M946.14,-175.837C966.911,-161.316 999.293,-140.291 1030,-127 1050.26,-118.231 1073.29,-111.123 1094.17,-105.661"/>
<polygon fill="black" stroke="black" points="1095.08,-109.041 1103.91,-103.189 1093.36,-102.256 1095.08,-109.041"/>
<text text-anchor="middle" x="1062" y="-145.8" font-family="Times,serif" font-size="14.00">OUTPUT: </text>
<text text-anchor="middle" x="1062" y="-130.8" font-family="Times,serif" font-size="14.00">INPUT: </text>
</g>
<!-- EOR -->
<g id="node33" class="node"><title>EOR</title>
<ellipse fill="plum" stroke="black" cx="1158" cy="-18" rx="57.3905" ry="18"/>
<text text-anchor="middle" x="1158" y="-14.3" font-family="Times,serif" font-size="14.00">Bon appetit!</text>
</g>
<!-- E12&#45;&gt;EOR -->
<g id="edge32" class="edge"><title>E12&#45;&gt;EOR</title>
<path fill="none" stroke="black" d="M1158,-72.8129C1158,-64.7895 1158,-55.0475 1158,-46.0691"/>
<polygon fill="black" stroke="black" points="1161.5,-46.0288 1158,-36.0288 1154.5,-46.0289 1161.5,-46.0288"/>
</g>
<!-- D2 -->
<g id="node14" class="node"><title>D2</title>
<polygon fill="peachpuff" stroke="black" points="264,-725 0,-725 0,-687 264,-687 264,-725"/>
<text text-anchor="middle" x="132" y="-709.8" font-family="Times,serif" font-size="14.00">DOBJ: 1% milk, All&#45;Bran Original* cereal</text>
<text text-anchor="middle" x="132" y="-694.8" font-family="Times,serif" font-size="14.00">(text: cereal, milk)</text>
</g>
<!-- D2&#45;&gt;E2 -->
<g id="edge1" class="edge"><title>D2&#45;&gt;E2</title>
<path fill="none" stroke="black" d="M134.86,-686.943C137.302,-671.531 140.851,-649.127 143.645,-631.488"/>
<polygon fill="black" stroke="black" points="147.163,-631.651 145.271,-621.226 140.249,-630.555 147.163,-631.651"/>
</g>
<!-- P2_0 -->
<g id="node15" class="node"><title>P2_0</title>
<polygon fill="white" stroke="black" points="437.5,-724 282.5,-724 282.5,-688 437.5,-688 437.5,-724"/>
<text text-anchor="middle" x="360" y="-702.3" font-family="Times,serif" font-size="14.00">PREP: in medium bowl</text>
</g>
<!-- P2_0&#45;&gt;E2 -->
<g id="edge2" class="edge"><title>P2_0&#45;&gt;E2</title>
<path fill="none" stroke="black" d="M324.037,-687.867C286.853,-670.151 228.855,-642.521 189.689,-623.861"/>
<polygon fill="black" stroke="black" points="191.186,-620.698 180.653,-619.556 188.176,-627.017 191.186,-620.698"/>
</g>
<!-- D1 -->
<g id="node16" class="node"><title>D1</title>
<polygon fill="white" stroke="black" points="281,-903 105,-903 105,-867 281,-867 281,-903"/>
<text text-anchor="middle" x="193" y="-881.3" font-family="Times,serif" font-size="14.00">DOBJ: 12 &#45;LRB&#45; 2/6 .5 cm</text>
</g>
<!-- D1&#45;&gt;E1 -->
<g id="edge3" class="edge"><title>D1&#45;&gt;E1</title>
<path fill="none" stroke="black" d="M219.025,-866.885C234.74,-856.549 254.897,-843.293 271.635,-832.285"/>
<polygon fill="black" stroke="black" points="273.602,-835.18 280.034,-826.761 269.756,-829.332 273.602,-835.18"/>
</g>
<!-- O1_0 -->
<g id="node17" class="node"><title>O1_0</title>
<polygon fill="peachpuff" stroke="black" points="531,-904 299,-904 299,-866 531,-866 531,-904"/>
<text text-anchor="middle" x="415" y="-888.8" font-family="Times,serif" font-size="14.00">OTHER: lightly packed brown sugar</text>
<text text-anchor="middle" x="415" y="-873.8" font-family="Times,serif" font-size="14.00">(text: lightly)</text>
</g>
<!-- O1_0&#45;&gt;E1 -->
<g id="edge4" class="edge"><title>O1_0&#45;&gt;E1</title>
<path fill="none" stroke="black" d="M387.562,-865.955C372.178,-855.838 352.89,-843.153 336.723,-832.521"/>
<polygon fill="black" stroke="black" points="338.385,-829.425 328.107,-826.854 334.539,-835.273 338.385,-829.425"/>
</g>
<!-- D0 -->
<g id="node18" class="node"><title>D0</title>
<polygon fill="white" stroke="black" points="1610,-313 1292,-313 1292,-277 1610,-277 1610,-313"/>
<text text-anchor="middle" x="1451" y="-291.3" font-family="Times,serif" font-size="14.00">DOBJ: oven to 400 degrees F &#45;LRB&#45; 200 degrees C</text>
</g>
<!-- D0&#45;&gt;E0 -->
<g id="edge5" class="edge"><title>D0&#45;&gt;E0</title>
<path fill="none" stroke="black" d="M1451,-276.581C1451,-261.382 1451,-239.067 1451,-221.464"/>
<polygon fill="black" stroke="black" points="1454.5,-221.219 1451,-211.219 1447.5,-221.219 1454.5,-221.219"/>
</g>
<!-- O3_0_0 -->
<g id="node19" class="node"><title>O3_0_0</title>
<polygon fill="white" stroke="black" points="595,-621 249,-621 249,-585 595,-585 595,-621"/>
<text text-anchor="middle" x="422" y="-599.3" font-family="Times,serif" font-size="14.00">OTHER: stand for about 2 minutes or until cereal softens</text>
</g>
<!-- O3_0_0&#45;&gt;E3 -->
<g id="edge7" class="edge"><title>O3_0_0&#45;&gt;E3</title>
<path fill="none" stroke="black" d="M410.804,-584.867C400.311,-568.809 384.494,-544.605 372.545,-526.32"/>
<polygon fill="black" stroke="black" points="375.431,-524.337 367.031,-517.88 369.571,-528.166 375.431,-524.337"/>
</g>
<!-- D4_ing -->
<g id="node20" class="node"><title>D4_ing</title>
<polygon fill="peachpuff" stroke="black" points="826.5,-829 383.5,-829 383.5,-791 826.5,-791 826.5,-829"/>
<text text-anchor="middle" x="605" y="-813.8" font-family="Times,serif" font-size="14.00">DOBJ: baking powder, all&#45;purpose flour, baking soda, cocoa powder, salt</text>
<text text-anchor="middle" x="605" y="-798.8" font-family="Times,serif" font-size="14.00">(text: &#160;salt, &#160;baking powder , &#160;cocoa powder , flour , &#160;baking soda)</text>
</g>
<!-- D4_ing&#45;&gt;E4 -->
<g id="edge8" class="edge"><title>D4_ing&#45;&gt;E4</title>
<path fill="none" stroke="black" d="M605,-790.764C605,-775.031 605,-752.083 605,-734.183"/>
<polygon fill="black" stroke="black" points="608.5,-734.06 605,-724.06 601.5,-734.06 608.5,-734.06"/>
</g>
<!-- P4_0_0 -->
<g id="node21" class="node"><title>P4_0_0</title>
<polygon fill="white" stroke="black" points="981.5,-828 844.5,-828 844.5,-792 981.5,-792 981.5,-828"/>
<text text-anchor="middle" x="913" y="-806.3" font-family="Times,serif" font-size="14.00">PREP: in large bowl</text>
</g>
<!-- P4_0_0&#45;&gt;E4 -->
<g id="edge10" class="edge"><title>P4_0_0&#45;&gt;E4</title>
<path fill="none" stroke="black" d="M861.448,-791.927C805.112,-773.271 715.301,-743.528 658.288,-724.647"/>
<polygon fill="black" stroke="black" points="659.329,-721.305 648.735,-721.484 657.128,-727.95 659.329,-721.305"/>
</g>
<!-- O5_0_0 -->
<g id="node22" class="node"><title>O5_0_0</title>
<polygon fill="white" stroke="black" points="807.5,-724 706.5,-724 706.5,-688 807.5,-688 807.5,-724"/>
<text text-anchor="middle" x="757" y="-702.3" font-family="Times,serif" font-size="14.00">OTHER: aside</text>
</g>
<!-- O5_0_0&#45;&gt;E5 -->
<g id="edge12" class="edge"><title>O5_0_0&#45;&gt;E5</title>
<path fill="none" stroke="black" d="M755.643,-687.867C754.419,-672.414 752.597,-649.416 751.171,-631.409"/>
<polygon fill="black" stroke="black" points="754.643,-630.91 750.364,-621.217 747.664,-631.462 754.643,-630.91"/>
</g>
<!-- D6_ing -->
<g id="node23" class="node"><title>D6_ing</title>
<polygon fill="peachpuff" stroke="black" points="826,-519 434,-519 434,-481 826,-481 826,-519"/>
<text text-anchor="middle" x="630" y="-503.8" font-family="Times,serif" font-size="14.00">DOBJ: canola oil, egg, large very ripe bananas (reserve thin slices</text>
<text text-anchor="middle" x="630" y="-488.8" font-family="Times,serif" font-size="14.00">(text: &#160;oil, &#160;mashed bananas, egg )</text>
</g>
<!-- D6_ing&#45;&gt;E6 -->
<g id="edge13" class="edge"><title>D6_ing&#45;&gt;E6</title>
<path fill="none" stroke="black" d="M630,-480.943C630,-465.531 630,-443.127 630,-425.488"/>
<polygon fill="black" stroke="black" points="633.5,-425.226 630,-415.226 626.5,-425.226 633.5,-425.226"/>
</g>
<!-- O7_0_0 -->
<g id="node24" class="node"><title>O7_0_0</title>
<polygon fill="white" stroke="black" points="816.5,-415 719.5,-415 719.5,-379 816.5,-379 816.5,-415"/>
<text text-anchor="middle" x="768" y="-393.3" font-family="Times,serif" font-size="14.00">OTHER: well</text>
</g>
<!-- O7_0_0&#45;&gt;E7 -->
<g id="edge16" class="edge"><title>O7_0_0&#45;&gt;E7</title>
<path fill="none" stroke="black" d="M768,-378.581C768,-363.382 768,-341.067 768,-323.464"/>
<polygon fill="black" stroke="black" points="771.5,-323.219 768,-313.219 764.5,-323.219 771.5,-323.219"/>
</g>
<!-- P8_0_0 -->
<g id="node25" class="node"><title>P8_0_0</title>
<polygon fill="white" stroke="black" points="990,-621 828,-621 828,-585 990,-585 990,-621"/>
<text text-anchor="middle" x="909" y="-599.3" font-family="Times,serif" font-size="14.00">PREP: to dry ingredients</text>
</g>
<!-- P8_0_0&#45;&gt;E8 -->
<g id="edge18" class="edge"><title>P8_0_0&#45;&gt;E8</title>
<path fill="none" stroke="black" d="M909,-584.867C909,-569.414 909,-546.416 909,-528.409"/>
<polygon fill="black" stroke="black" points="912.5,-528.217 909,-518.217 905.5,-528.217 912.5,-528.217"/>
</g>
<!-- O8_0_0 -->
<g id="node26" class="node"><title>O8_0_0</title>
<polygon fill="white" stroke="black" points="1267.5,-621 1008.5,-621 1008.5,-585 1267.5,-585 1267.5,-621"/>
<text text-anchor="middle" x="1138" y="-599.3" font-family="Times,serif" font-size="14.00">OTHER: stirring only until just combined</text>
</g>
<!-- O8_0_0&#45;&gt;E8 -->
<g id="edge19" class="edge"><title>O8_0_0&#45;&gt;E8</title>
<path fill="none" stroke="black" d="M1099.41,-584.981C1058.41,-566.897 993.769,-538.387 951.377,-519.69"/>
<polygon fill="black" stroke="black" points="952.722,-516.458 942.16,-515.625 949.897,-522.863 952.722,-516.458"/>
</g>
<!-- P9_0_ing -->
<g id="node27" class="node"><title>P9_0_ing</title>
<polygon fill="peachpuff" stroke="black" points="1222,-519 992,-519 992,-481 1222,-481 1222,-519"/>
<text text-anchor="middle" x="1107" y="-503.8" font-family="Times,serif" font-size="14.00">PREP: in semi&#45;sweet chocolate chips</text>
<text text-anchor="middle" x="1107" y="-488.8" font-family="Times,serif" font-size="14.00">(text: in chocolate chips)</text>
</g>
<!-- P9_0_ing&#45;&gt;E9 -->
<g id="edge21" class="edge"><title>P9_0_ing&#45;&gt;E9</title>
<path fill="none" stroke="black" d="M1071.6,-480.943C1036.88,-463.234 984.071,-436.294 948.125,-417.958"/>
<polygon fill="black" stroke="black" points="949.416,-414.687 938.917,-413.261 946.235,-420.923 949.416,-414.687"/>
</g>
<!-- P10_0_0 -->
<g id="node28" class="node"><title>P10_0_0</title>
<polygon fill="white" stroke="black" points="1202.5,-415 993.5,-415 993.5,-379 1202.5,-379 1202.5,-415"/>
<text text-anchor="middle" x="1098" y="-393.3" font-family="Times,serif" font-size="14.00">PREP: into prepared muffin cups</text>
</g>
<!-- P10_0_0&#45;&gt;E10 -->
<g id="edge23" class="edge"><title>P10_0_0&#45;&gt;E10</title>
<path fill="none" stroke="black" d="M1098,-378.581C1098,-363.382 1098,-341.067 1098,-323.464"/>
<polygon fill="black" stroke="black" points="1101.5,-323.219 1098,-313.219 1094.5,-323.219 1101.5,-323.219"/>
</g>
<!-- O10_0_0 -->
<g id="node29" class="node"><title>O10_0_0</title>
<polygon fill="white" stroke="black" points="1335.5,-415 1220.5,-415 1220.5,-379 1335.5,-379 1335.5,-415"/>
<text text-anchor="middle" x="1278" y="-393.3" font-family="Times,serif" font-size="14.00">OTHER: portion</text>
</g>
<!-- O10_0_0&#45;&gt;E10 -->
<g id="edge24" class="edge"><title>O10_0_0&#45;&gt;E10</title>
<path fill="none" stroke="black" d="M1247.06,-378.809C1216.09,-361.608 1168.43,-335.13 1135.38,-316.764"/>
<polygon fill="black" stroke="black" points="1136.91,-313.611 1126.46,-311.814 1133.51,-319.73 1136.91,-313.611"/>
</g>
<!-- O10_1_0 -->
<g id="node30" class="node"><title>O10_1_0</title>
<polygon fill="white" stroke="black" points="1464,-415 1354,-415 1354,-379 1464,-379 1464,-415"/>
<text text-anchor="middle" x="1409" y="-393.3" font-family="Times,serif" font-size="14.00">OTHER: evenly</text>
</g>
<!-- O10_1_0&#45;&gt;E10 -->
<g id="edge25" class="edge"><title>O10_1_0&#45;&gt;E10</title>
<path fill="none" stroke="black" d="M1355.89,-378.923C1298.65,-360.519 1208.1,-331.403 1150.94,-313.021"/>
<polygon fill="black" stroke="black" points="1151.95,-309.672 1141.36,-309.943 1149.81,-316.336 1151.95,-309.672"/>
</g>
<!-- O12_0_0 -->
<g id="node31" class="node"><title>O12_0_0</title>
<polygon fill="white" stroke="black" points="1119.5,-211 1010.5,-211 1010.5,-175 1119.5,-175 1119.5,-211"/>
<text text-anchor="middle" x="1065" y="-189.3" font-family="Times,serif" font-size="14.00">OTHER: spring</text>
</g>
<!-- O12_0_0&#45;&gt;E12 -->
<g id="edge30" class="edge"><title>O12_0_0&#45;&gt;E12</title>
<path fill="none" stroke="black" d="M1081.2,-174.581C1096.09,-158.568 1118.33,-134.656 1135.05,-116.679"/>
<polygon fill="black" stroke="black" points="1138.05,-118.592 1142.3,-108.886 1132.92,-113.825 1138.05,-118.592"/>
</g>
<!-- O12_1_0 -->
<g id="node32" class="node"><title>O12_1_0</title>
<polygon fill="white" stroke="black" points="1364,-211 1138,-211 1138,-175 1364,-175 1364,-211"/>
<text text-anchor="middle" x="1251" y="-189.3" font-family="Times,serif" font-size="14.00">OTHER: back when lightly touched</text>
</g>
<!-- O12_1_0&#45;&gt;E12 -->
<g id="edge31" class="edge"><title>O12_1_0&#45;&gt;E12</title>
<path fill="none" stroke="black" d="M1234.8,-174.581C1219.91,-158.568 1197.67,-134.656 1180.95,-116.679"/>
<polygon fill="black" stroke="black" points="1183.08,-113.825 1173.7,-108.886 1177.95,-118.592 1183.08,-113.825"/>
</g>
</g>
</svg>
