<?xml version="1.0" encoding="UTF-8" standalone="no"?>
<!DOCTYPE svg PUBLIC "-//W3C//DTD SVG 1.1//EN"
 "http://www.w3.org/Graphics/SVG/1.1/DTD/svg11.dtd">
<!-- Generated by graphviz version 2.38.0 (20140413.2041)
 -->
<!-- Title: recipe Pages: 1 -->
<svg width="2374pt" height="604pt"
 viewBox="0.00 0.00 2374.00 604.00" xmlns="http://www.w3.org/2000/svg" xmlns:xlink="http://www.w3.org/1999/xlink">
<g id="graph0" class="graph" transform="scale(1 1) rotate(0) translate(4 600)">
<title>recipe</title>
<polygon fill="white" stroke="none" points="-4,4 -4,-600 2370,-600 2370,4 -4,4"/>
<!-- E0 -->
<g id="node1" class="node"><title>E0</title>
<ellipse fill="azure" stroke="black" cx="2207" cy="-193" rx="68.7879" ry="18"/>
<text text-anchor="middle" x="2207" y="-189.3" font-family="Times,serif" font-size="14.00">preheat (S0,P0)</text>
</g>
<!-- E6 -->
<g id="node7" class="node"><title>E6</title>
<ellipse fill="azure" stroke="black" cx="1788" cy="-91" rx="68.7879" ry="18"/>
<text text-anchor="middle" x="1788" y="-87.3" font-family="Times,serif" font-size="14.00">bake (S7,P387)</text>
</g>
<!-- E0&#45;&gt;E6 -->
<g id="edge15" class="edge"><title>E0&#45;&gt;E6</title>
<path fill="none" stroke="black" d="M2157.7,-180.235C2080.17,-161.729 1930,-125.891 1846.9,-106.058"/>
<polygon fill="black" stroke="black" points="1847.65,-102.638 1837.11,-103.721 1846.02,-109.446 1847.65,-102.638"/>
<text text-anchor="middle" x="2146.5" y="-145.8" font-family="Times,serif" font-size="14.00">OUTPUT: </text>
<text text-anchor="middle" x="2146.5" y="-130.8" font-family="Times,serif" font-size="14.00">INPUT: in the preheated oven</text>
</g>
<!-- E1 -->
<g id="node2" class="node"><title>E1</title>
<ellipse fill="azure" stroke="black" cx="951" cy="-295" rx="69.5877" ry="18"/>
<text text-anchor="middle" x="951" y="-291.3" font-family="Times,serif" font-size="14.00">grease (S1,P38)</text>
</g>
<!-- E5 -->
<g id="node6" class="node"><title>E5</title>
<ellipse fill="azure" stroke="black" cx="1174" cy="-193" rx="74.187" ry="18"/>
<text text-anchor="middle" x="1174" y="-189.3" font-family="Times,serif" font-size="14.00">spoon (S6,P329)</text>
</g>
<!-- E1&#45;&gt;E5 -->
<g id="edge12" class="edge"><title>E1&#45;&gt;E5</title>
<path fill="none" stroke="black" d="M945.116,-276.986C941.289,-262.504 938.845,-242.033 950,-229 968.071,-207.886 1034.36,-199.416 1090.18,-196.065"/>
<polygon fill="black" stroke="black" points="1090.67,-199.543 1100.46,-195.497 1090.29,-192.554 1090.67,-199.543"/>
<text text-anchor="middle" x="1050" y="-247.8" font-family="Times,serif" font-size="14.00">OUTPUT: </text>
<text text-anchor="middle" x="1050" y="-232.8" font-family="Times,serif" font-size="14.00">INPUT: into prepared muffin cups</text>
</g>
<!-- E2 -->
<g id="node3" class="node"><title>E2</title>
<ellipse fill="azure" stroke="black" cx="1023" cy="-502" rx="69.5877" ry="18"/>
<text text-anchor="middle" x="1023" y="-498.3" font-family="Times,serif" font-size="14.00">whisk (S2,P78)</text>
</g>
<!-- E3 -->
<g id="node4" class="node"><title>E3</title>
<ellipse fill="azure" stroke="black" cx="1119" cy="-398" rx="63.0888" ry="18"/>
<text text-anchor="middle" x="1119" y="-394.3" font-family="Times,serif" font-size="14.00">stir (S4,P245)</text>
</g>
<!-- E2&#45;&gt;E3 -->
<g id="edge7" class="edge"><title>E2&#45;&gt;E3</title>
<path fill="none" stroke="black" d="M1021.24,-483.763C1020.69,-469.282 1022.24,-448.799 1033,-435 1040.24,-425.721 1050.3,-418.808 1061,-413.667"/>
<polygon fill="black" stroke="black" points="1062.7,-416.747 1070.51,-409.59 1059.94,-410.313 1062.7,-416.747"/>
<text text-anchor="middle" x="1102" y="-453.8" font-family="Times,serif" font-size="14.00">OUTPUT: </text>
<text text-anchor="middle" x="1102" y="-438.8" font-family="Times,serif" font-size="14.00">INPUT: dry ingredients</text>
</g>
<!-- E4 -->
<g id="node5" class="node"><title>E4</title>
<ellipse fill="azure" stroke="black" cx="1143" cy="-295" rx="66.0889" ry="18"/>
<text text-anchor="middle" x="1143" y="-291.3" font-family="Times,serif" font-size="14.00">fold (S5,P281)</text>
</g>
<!-- E3&#45;&gt;E4 -->
<g id="edge10" class="edge"><title>E3&#45;&gt;E4</title>
<path fill="none" stroke="black" d="M1123.07,-379.867C1126.76,-364.341 1132.26,-341.2 1136.55,-323.156"/>
<polygon fill="black" stroke="black" points="1140,-323.756 1138.91,-313.217 1133.19,-322.137 1140,-323.756"/>
<text text-anchor="middle" x="1189.5" y="-349.8" font-family="Times,serif" font-size="14.00">OUTPUT: </text>
<text text-anchor="middle" x="1189.5" y="-334.8" font-family="Times,serif" font-size="14.00">INPUT: into batter</text>
</g>
<!-- E4&#45;&gt;E5 -->
<g id="edge11" class="edge"><title>E4&#45;&gt;E5</title>
<path fill="none" stroke="black" d="M1148.26,-277.036C1153.05,-261.593 1160.19,-238.538 1165.74,-220.637"/>
<polygon fill="black" stroke="black" points="1169.1,-221.635 1168.72,-211.047 1162.41,-219.562 1169.1,-221.635"/>
<text text-anchor="middle" x="1205" y="-247.8" font-family="Times,serif" font-size="14.00">OUTPUT: </text>
<text text-anchor="middle" x="1205" y="-232.8" font-family="Times,serif" font-size="14.00">INPUT: batter</text>
</g>
<!-- E5&#45;&gt;E6 -->
<g id="edge14" class="edge"><title>E5&#45;&gt;E6</title>
<path fill="none" stroke="black" d="M1225.25,-179.893C1287.03,-165.64 1394.13,-142.011 1487,-127 1563.96,-114.56 1652.67,-104.795 1713.75,-98.7762"/>
<polygon fill="black" stroke="black" points="1714.45,-102.224 1724.06,-97.7694 1713.77,-95.2575 1714.45,-102.224"/>
<text text-anchor="middle" x="1534" y="-145.8" font-family="Times,serif" font-size="14.00">OUTPUT: </text>
<text text-anchor="middle" x="1534" y="-130.8" font-family="Times,serif" font-size="14.00">INPUT: muffins</text>
</g>
<!-- EOR -->
<g id="node20" class="node"><title>EOR</title>
<ellipse fill="plum" stroke="black" cx="1788" cy="-18" rx="57.3905" ry="18"/>
<text text-anchor="middle" x="1788" y="-14.3" font-family="Times,serif" font-size="14.00">Bon appetit!</text>
</g>
<!-- E6&#45;&gt;EOR -->
<g id="edge19" class="edge"><title>E6&#45;&gt;EOR</title>
<path fill="none" stroke="black" d="M1788,-72.8129C1788,-64.7895 1788,-55.0475 1788,-46.0691"/>
<polygon fill="black" stroke="black" points="1791.5,-46.0288 1788,-36.0288 1784.5,-46.0289 1791.5,-46.0288"/>
</g>
<!-- D2 -->
<g id="node8" class="node"><title>D2</title>
<polygon fill="peachpuff" stroke="black" points="948,-596 0,-596 0,-558 948,-558 948,-596"/>
<text text-anchor="middle" x="474" y="-580.8" font-family="Times,serif" font-size="14.00">DOBJ: baking powder, flax seeds, ground nutmeg, ground cinnamon, ground ginger, rolled oats, all&#45;purpose flour, ground allspice, wheat bran, baking soda, salt</text>
<text text-anchor="middle" x="474" y="-565.8" font-family="Times,serif" font-size="14.00">(text: flour , bran , rolled oats , flax seeds , baking powder , baking soda , cinnamon , salt , ginger , allspice , nutmeg)</text>
</g>
<!-- D2&#45;&gt;E2 -->
<g id="edge1" class="edge"><title>D2&#45;&gt;E2</title>
<path fill="none" stroke="black" d="M609.708,-557.955C718.443,-543.497 866.607,-523.795 952.817,-512.332"/>
<polygon fill="black" stroke="black" points="953.308,-515.798 962.759,-511.01 952.385,-508.859 953.308,-515.798"/>
</g>
<!-- P2_0 -->
<g id="node9" class="node"><title>P2_0</title>
<polygon fill="white" stroke="black" points="1080,-595 966,-595 966,-559 1080,-559 1080,-595"/>
<text text-anchor="middle" x="1023" y="-573.3" font-family="Times,serif" font-size="14.00">PREP: in a bowl</text>
</g>
<!-- P2_0&#45;&gt;E2 -->
<g id="edge2" class="edge"><title>P2_0&#45;&gt;E2</title>
<path fill="none" stroke="black" d="M1023,-558.7C1023,-550.245 1023,-539.869 1023,-530.373"/>
<polygon fill="black" stroke="black" points="1026.5,-530.176 1023,-520.176 1019.5,-530.176 1026.5,-530.176"/>
</g>
<!-- O2_0 -->
<g id="node10" class="node"><title>O2_0</title>
<polygon fill="white" stroke="black" points="1217.5,-595 1098.5,-595 1098.5,-559 1217.5,-559 1217.5,-595"/>
<text text-anchor="middle" x="1158" y="-573.3" font-family="Times,serif" font-size="14.00">OTHER: together</text>
</g>
<!-- O2_0&#45;&gt;E2 -->
<g id="edge3" class="edge"><title>O2_0&#45;&gt;E2</title>
<path fill="none" stroke="black" d="M1126.35,-558.885C1106.66,-548.239 1081.24,-534.494 1060.54,-523.299"/>
<polygon fill="black" stroke="black" points="1062.15,-520.193 1051.69,-518.516 1058.82,-526.351 1062.15,-520.193"/>
</g>
<!-- D0 -->
<g id="node11" class="node"><title>D0</title>
<polygon fill="white" stroke="black" points="2366,-313 2048,-313 2048,-277 2366,-277 2366,-313"/>
<text text-anchor="middle" x="2207" y="-291.3" font-family="Times,serif" font-size="14.00">DOBJ: oven to 350 degrees F &#45;LRB&#45; 175 degrees C</text>
</g>
<!-- D0&#45;&gt;E0 -->
<g id="edge4" class="edge"><title>D0&#45;&gt;E0</title>
<path fill="none" stroke="black" d="M2207,-276.581C2207,-261.382 2207,-239.067 2207,-221.464"/>
<polygon fill="black" stroke="black" points="2210.5,-221.219 2207,-211.219 2203.5,-221.219 2210.5,-221.219"/>
</g>
<!-- D1 -->
<g id="node12" class="node"><title>D1</title>
<polygon fill="white" stroke="black" points="858.5,-416 669.5,-416 669.5,-380 858.5,-380 858.5,-416"/>
<text text-anchor="middle" x="764" y="-394.3" font-family="Times,serif" font-size="14.00">DOBJ: 16 muffin cups or line</text>
</g>
<!-- D1&#45;&gt;E1 -->
<g id="edge5" class="edge"><title>D1&#45;&gt;E1</title>
<path fill="none" stroke="black" d="M795.722,-379.867C828.245,-362.301 878.818,-334.986 913.349,-316.336"/>
<polygon fill="black" stroke="black" points="915.062,-319.388 922.197,-311.556 911.735,-313.229 915.062,-319.388"/>
</g>
<!-- P1_0 -->
<g id="node13" class="node"><title>P1_0</title>
<polygon fill="white" stroke="black" points="1033.5,-416 876.5,-416 876.5,-380 1033.5,-380 1033.5,-416"/>
<text text-anchor="middle" x="955" y="-394.3" font-family="Times,serif" font-size="14.00">PREP: with paper liners</text>
</g>
<!-- P1_0&#45;&gt;E1 -->
<g id="edge6" class="edge"><title>P1_0&#45;&gt;E1</title>
<path fill="none" stroke="black" d="M954.321,-379.867C953.709,-364.414 952.799,-341.416 952.086,-323.409"/>
<polygon fill="black" stroke="black" points="955.575,-323.071 951.682,-313.217 948.58,-323.348 955.575,-323.071"/>
</g>
<!-- P3_0_ing -->
<g id="node14" class="node"><title>P3_0_ing</title>
<polygon fill="peachpuff" stroke="black" points="1281,-521 1111,-521 1111,-483 1281,-483 1281,-521"/>
<text text-anchor="middle" x="1196" y="-505.8" font-family="Times,serif" font-size="14.00">PREP: into ripe bananas</text>
<text text-anchor="middle" x="1196" y="-490.8" font-family="Times,serif" font-size="14.00">(text: into banana mixture)</text>
</g>
<!-- P3_0_ing&#45;&gt;E3 -->
<g id="edge8" class="edge"><title>P3_0_ing&#45;&gt;E3</title>
<path fill="none" stroke="black" d="M1193.67,-482.925C1191.08,-468.71 1185.75,-449.031 1175,-435 1170.51,-429.134 1164.76,-423.952 1158.68,-419.479"/>
<polygon fill="black" stroke="black" points="1160.5,-416.489 1150.25,-413.821 1156.6,-422.301 1160.5,-416.489"/>
</g>
<!-- D4_ing -->
<g id="node15" class="node"><title>D4_ing</title>
<polygon fill="peachpuff" stroke="black" points="1526,-417 1200,-417 1200,-379 1526,-379 1526,-417"/>
<text text-anchor="middle" x="1363" y="-401.8" font-family="Times,serif" font-size="14.00">DOBJ: dark chocolate chips, raisins, chopped walnuts</text>
<text text-anchor="middle" x="1363" y="-386.8" font-family="Times,serif" font-size="14.00">(text: walnuts , &#160;chocolate chips , &#160;raisins)</text>
</g>
<!-- D4_ing&#45;&gt;E4 -->
<g id="edge9" class="edge"><title>D4_ing&#45;&gt;E4</title>
<path fill="none" stroke="black" d="M1335,-378.821C1312.21,-364.548 1278.88,-344.841 1248,-331 1231.66,-323.674 1213.3,-317.044 1196.55,-311.573"/>
<polygon fill="black" stroke="black" points="1197.5,-308.201 1186.91,-308.489 1195.37,-314.868 1197.5,-308.201"/>
</g>
<!-- O5_0_0 -->
<g id="node16" class="node"><title>O5_0_0</title>
<polygon fill="white" stroke="black" points="1448.5,-313 1227.5,-313 1227.5,-277 1448.5,-277 1448.5,-313"/>
<text text-anchor="middle" x="1338" y="-291.3" font-family="Times,serif" font-size="14.00">OTHER: filling them about 2/3 full</text>
</g>
<!-- O5_0_0&#45;&gt;E5 -->
<g id="edge13" class="edge"><title>O5_0_0&#45;&gt;E5</title>
<path fill="none" stroke="black" d="M1317.5,-276.974C1300.18,-263.058 1274.36,-243.401 1250,-229 1240.33,-223.284 1229.57,-217.827 1219.26,-212.995"/>
<polygon fill="black" stroke="black" points="1220.5,-209.718 1209.96,-208.744 1217.59,-216.085 1220.5,-209.718"/>
</g>
<!-- O6_0_0 -->
<g id="node17" class="node"><title>O6_0_0</title>
<polygon fill="white" stroke="black" points="1682,-211 1266,-211 1266,-175 1682,-175 1682,-211"/>
<text text-anchor="middle" x="1474" y="-189.3" font-family="Times,serif" font-size="14.00">OTHER: &#160;a knife inserted into the center of a muffin comes out clean </text>
</g>
<!-- O6_0_0&#45;&gt;E6 -->
<g id="edge16" class="edge"><title>O6_0_0&#45;&gt;E6</title>
<path fill="none" stroke="black" d="M1527.62,-174.923C1586.07,-156.308 1678.93,-126.734 1736.53,-108.393"/>
<polygon fill="black" stroke="black" points="1737.69,-111.697 1746.15,-105.327 1735.56,-105.027 1737.69,-111.697"/>
</g>
<!-- O6_0_1 -->
<g id="node18" class="node"><title>O6_0_1</title>
<polygon fill="white" stroke="black" points="1876,-211 1700,-211 1700,-175 1876,-175 1876,-211"/>
<text text-anchor="middle" x="1788" y="-189.3" font-family="Times,serif" font-size="14.00">OTHER: &#160;about 30 minutes</text>
</g>
<!-- O6_0_1&#45;&gt;E6 -->
<g id="edge17" class="edge"><title>O6_0_1&#45;&gt;E6</title>
<path fill="none" stroke="black" d="M1788,-174.581C1788,-159.382 1788,-137.067 1788,-119.464"/>
<polygon fill="black" stroke="black" points="1791.5,-119.219 1788,-109.219 1784.5,-119.219 1791.5,-119.219"/>
</g>
<!-- O6_0_2 -->
<g id="node19" class="node"><title>O6_0_2</title>
<polygon fill="white" stroke="black" points="2120,-211 1894,-211 1894,-175 2120,-175 2120,-211"/>
<text text-anchor="middle" x="2007" y="-189.3" font-family="Times,serif" font-size="14.00">OTHER: until lightly golden brown</text>
</g>
<!-- O6_0_2&#45;&gt;E6 -->
<g id="edge18" class="edge"><title>O6_0_2&#45;&gt;E6</title>
<path fill="none" stroke="black" d="M1969.35,-174.809C1930.63,-157.129 1870.45,-129.648 1830.16,-111.249"/>
<polygon fill="black" stroke="black" points="1831.42,-107.979 1820.87,-107.009 1828.51,-114.347 1831.42,-107.979"/>
</g>
</g>
</svg>
