<?xml version="1.0" encoding="UTF-8" standalone="no"?>
<!DOCTYPE svg PUBLIC "-//W3C//DTD SVG 1.1//EN"
 "http://www.w3.org/Graphics/SVG/1.1/DTD/svg11.dtd">
<!-- Generated by graphviz version 2.38.0 (20140413.2041)
 -->
<!-- Title: recipe Pages: 1 -->
<svg width="1823pt" height="806pt"
 viewBox="0.00 0.00 1823.00 806.00" xmlns="http://www.w3.org/2000/svg" xmlns:xlink="http://www.w3.org/1999/xlink">
<g id="graph0" class="graph" transform="scale(1 1) rotate(0) translate(4 802)">
<title>recipe</title>
<polygon fill="white" stroke="none" points="-4,4 -4,-802 1819,-802 1819,4 -4,4"/>
<!-- E0 -->
<g id="node1" class="node"><title>E0</title>
<ellipse fill="azure" stroke="black" cx="1636" cy="-295" rx="68.7879" ry="18"/>
<text text-anchor="middle" x="1636" y="-291.3" font-family="Times,serif" font-size="14.00">preheat (S0,P0)</text>
</g>
<!-- E8 -->
<g id="node9" class="node"><title>E8</title>
<ellipse fill="azure" stroke="black" cx="1295" cy="-193" rx="68.7879" ry="18"/>
<text text-anchor="middle" x="1295" y="-189.3" font-family="Times,serif" font-size="14.00">bake (S6,P325)</text>
</g>
<!-- E0&#45;&gt;E8 -->
<g id="edge18" class="edge"><title>E0&#45;&gt;E8</title>
<path fill="none" stroke="black" d="M1591.77,-281.029C1529.55,-262.783 1416.29,-229.568 1349.12,-209.87"/>
<polygon fill="black" stroke="black" points="1349.73,-206.403 1339.15,-206.948 1347.76,-213.12 1349.73,-206.403"/>
<text text-anchor="middle" x="1665.5" y="-247.8" font-family="Times,serif" font-size="14.00">OUTPUT: </text>
<text text-anchor="middle" x="1665.5" y="-232.8" font-family="Times,serif" font-size="14.00">INPUT: for 15 to 18 minutes in the preheated oven </text>
</g>
<!-- E1 -->
<g id="node2" class="node"><title>E1</title>
<ellipse fill="azure" stroke="black" cx="727" cy="-295" rx="69.5877" ry="18"/>
<text text-anchor="middle" x="727" y="-291.3" font-family="Times,serif" font-size="14.00">grease (S1,P41)</text>
</g>
<!-- E2 -->
<g id="node3" class="node"><title>E2</title>
<ellipse fill="azure" stroke="black" cx="915" cy="-193" rx="59.5901" ry="18"/>
<text text-anchor="middle" x="915" y="-189.3" font-family="Times,serif" font-size="14.00">line (S1,P65)</text>
</g>
<!-- E1&#45;&gt;E2 -->
<g id="edge6" class="edge"><title>E1&#45;&gt;E2</title>
<path fill="none" stroke="black" d="M755.519,-278.333C779.776,-265.06 815.573,-245.597 847,-229 856.609,-223.925 867.024,-218.518 876.748,-213.51"/>
<polygon fill="black" stroke="black" points="878.515,-216.537 885.81,-208.854 875.316,-210.31 878.515,-216.537"/>
<text text-anchor="middle" x="879" y="-247.8" font-family="Times,serif" font-size="14.00">OUTPUT: </text>
<text text-anchor="middle" x="879" y="-232.8" font-family="Times,serif" font-size="14.00">INPUT: </text>
</g>
<!-- E9 -->
<g id="node10" class="node"><title>E9</title>
<ellipse fill="azure" stroke="black" cx="1137" cy="-91" rx="72.2875" ry="18"/>
<text text-anchor="middle" x="1137" y="-87.3" font-family="Times,serif" font-size="14.00">allow (S7,P407)</text>
</g>
<!-- E2&#45;&gt;E9 -->
<g id="edge20" class="edge"><title>E2&#45;&gt;E9</title>
<path fill="none" stroke="black" d="M946.807,-177.672C985.485,-160.25 1050.93,-130.771 1094.05,-111.345"/>
<polygon fill="black" stroke="black" points="1095.76,-114.417 1103.44,-107.119 1092.88,-108.035 1095.76,-114.417"/>
<text text-anchor="middle" x="1106" y="-145.8" font-family="Times,serif" font-size="14.00">OUTPUT: </text>
<text text-anchor="middle" x="1106" y="-130.8" font-family="Times,serif" font-size="14.00">INPUT: muffins</text>
</g>
<!-- E3 -->
<g id="node4" class="node"><title>E3</title>
<ellipse fill="azure" stroke="black" cx="541" cy="-704" rx="63.0888" ry="18"/>
<text text-anchor="middle" x="541" y="-700.3" font-family="Times,serif" font-size="14.00">stir (S2,P104)</text>
</g>
<!-- E4 -->
<g id="node5" class="node"><title>E4</title>
<ellipse fill="azure" stroke="black" cx="778" cy="-601" rx="65.7887" ry="18"/>
<text text-anchor="middle" x="778" y="-597.3" font-family="Times,serif" font-size="14.00">mix (S3,P193)</text>
</g>
<!-- E3&#45;&gt;E4 -->
<g id="edge9" class="edge"><title>E3&#45;&gt;E4</title>
<path fill="none" stroke="black" d="M556.293,-686.287C571.118,-671.119 594.981,-649.302 620,-637 647.17,-623.64 679.464,-615.326 707.753,-610.177"/>
<polygon fill="black" stroke="black" points="708.715,-613.563 717.977,-608.42 707.529,-606.664 708.715,-613.563"/>
<text text-anchor="middle" x="697" y="-655.8" font-family="Times,serif" font-size="14.00">OUTPUT: </text>
<text text-anchor="middle" x="697" y="-640.8" font-family="Times,serif" font-size="14.00">INPUT: in a separate bowl</text>
</g>
<!-- E5 -->
<g id="node6" class="node"><title>E5</title>
<ellipse fill="azure" stroke="black" cx="865" cy="-499" rx="64.9885" ry="18"/>
<text text-anchor="middle" x="865" y="-495.3" font-family="Times,serif" font-size="14.00">add (S4,P243)</text>
</g>
<!-- E4&#45;&gt;E5 -->
<g id="edge11" class="edge"><title>E4&#45;&gt;E5</title>
<path fill="none" stroke="black" d="M773.457,-582.984C770.743,-568.888 769.443,-548.974 779,-535 785.201,-525.933 794.193,-519.214 804.052,-514.234"/>
<polygon fill="black" stroke="black" points="805.574,-517.388 813.295,-510.132 802.735,-510.989 805.574,-517.388"/>
<text text-anchor="middle" x="859" y="-553.8" font-family="Times,serif" font-size="14.00">OUTPUT: </text>
<text text-anchor="middle" x="859" y="-538.8" font-family="Times,serif" font-size="14.00">INPUT: the wet ingredients</text>
</g>
<!-- E6 -->
<g id="node7" class="node"><title>E6</title>
<ellipse fill="azure" stroke="black" cx="946" cy="-397" rx="65.7887" ry="18"/>
<text text-anchor="middle" x="946" y="-393.3" font-family="Times,serif" font-size="14.00">mix (S4,P275)</text>
</g>
<!-- E5&#45;&gt;E6 -->
<g id="edge13" class="edge"><title>E5&#45;&gt;E6</title>
<path fill="none" stroke="black" d="M878.741,-481.036C891.735,-464.993 911.383,-440.737 926.093,-422.577"/>
<polygon fill="black" stroke="black" points="928.888,-424.687 932.462,-414.713 923.448,-420.281 928.888,-424.687"/>
<text text-anchor="middle" x="950" y="-451.8" font-family="Times,serif" font-size="14.00">OUTPUT: </text>
<text text-anchor="middle" x="950" y="-436.8" font-family="Times,serif" font-size="14.00">INPUT: </text>
</g>
<!-- E7 -->
<g id="node8" class="node"><title>E7</title>
<ellipse fill="azure" stroke="black" cx="1095" cy="-295" rx="61.99" ry="18"/>
<text text-anchor="middle" x="1095" y="-291.3" font-family="Times,serif" font-size="14.00">fill (S5,P295)</text>
</g>
<!-- E6&#45;&gt;E7 -->
<g id="edge15" class="edge"><title>E6&#45;&gt;E7</title>
<path fill="none" stroke="black" d="M969.609,-380.155C994.785,-363.259 1034.81,-336.395 1062.85,-317.576"/>
<polygon fill="black" stroke="black" points="1065.15,-320.25 1071.5,-311.771 1061.25,-314.438 1065.15,-320.25"/>
<text text-anchor="middle" x="1075" y="-349.8" font-family="Times,serif" font-size="14.00">OUTPUT: </text>
<text text-anchor="middle" x="1075" y="-334.8" font-family="Times,serif" font-size="14.00">INPUT: </text>
</g>
<!-- E7&#45;&gt;E8 -->
<g id="edge17" class="edge"><title>E7&#45;&gt;E8</title>
<path fill="none" stroke="black" d="M1124.94,-279.029C1159.6,-261.7 1216.82,-233.09 1255.2,-213.901"/>
<polygon fill="black" stroke="black" points="1257.15,-216.84 1264.52,-209.238 1254.02,-210.579 1257.15,-216.84"/>
<text text-anchor="middle" x="1257" y="-247.8" font-family="Times,serif" font-size="14.00">OUTPUT: </text>
<text text-anchor="middle" x="1257" y="-232.8" font-family="Times,serif" font-size="14.00">INPUT: </text>
</g>
<!-- E8&#45;&gt;E9 -->
<g id="edge21" class="edge"><title>E8&#45;&gt;E9</title>
<path fill="none" stroke="black" d="M1269.96,-176.155C1243.23,-159.235 1200.71,-132.321 1170.97,-113.498"/>
<polygon fill="black" stroke="black" points="1172.5,-110.327 1162.18,-107.936 1168.76,-116.242 1172.5,-110.327"/>
<text text-anchor="middle" x="1513.5" y="-145.8" font-family="Times,serif" font-size="14.00">OUTPUT: </text>
<text text-anchor="middle" x="1513.5" y="-130.8" font-family="Times,serif" font-size="14.00">INPUT: to cool in the pan over a wire rack for a little while before tapping them out of the pan</text>
</g>
<!-- EOR -->
<g id="node23" class="node"><title>EOR</title>
<ellipse fill="plum" stroke="black" cx="1137" cy="-18" rx="57.3905" ry="18"/>
<text text-anchor="middle" x="1137" y="-14.3" font-family="Times,serif" font-size="14.00">Bon appetit!</text>
</g>
<!-- E9&#45;&gt;EOR -->
<g id="edge22" class="edge"><title>E9&#45;&gt;EOR</title>
<path fill="none" stroke="black" d="M1137,-72.8129C1137,-64.7895 1137,-55.0475 1137,-46.0691"/>
<polygon fill="black" stroke="black" points="1140.5,-46.0288 1137,-36.0288 1133.5,-46.0289 1140.5,-46.0288"/>
</g>
<!-- D1 -->
<g id="node11" class="node"><title>D1</title>
<polygon fill="white" stroke="black" points="812.5,-415 641.5,-415 641.5,-379 812.5,-379 812.5,-415"/>
<text text-anchor="middle" x="727" y="-393.3" font-family="Times,serif" font-size="14.00">DOBJ: a 12 cup muffin tin</text>
</g>
<!-- D1&#45;&gt;E1 -->
<g id="edge1" class="edge"><title>D1&#45;&gt;E1</title>
<path fill="none" stroke="black" d="M727,-378.581C727,-363.382 727,-341.067 727,-323.464"/>
<polygon fill="black" stroke="black" points="730.5,-323.219 727,-313.219 723.5,-323.219 730.5,-323.219"/>
</g>
<!-- D0 -->
<g id="node12" class="node"><title>D0</title>
<polygon fill="white" stroke="black" points="1805.5,-415 1466.5,-415 1466.5,-379 1805.5,-379 1805.5,-415"/>
<text text-anchor="middle" x="1636" y="-393.3" font-family="Times,serif" font-size="14.00">DOBJ: the oven to 375 degrees F &#45;LRB&#45; 190 degrees C</text>
</g>
<!-- D0&#45;&gt;E0 -->
<g id="edge2" class="edge"><title>D0&#45;&gt;E0</title>
<path fill="none" stroke="black" d="M1636,-378.581C1636,-363.382 1636,-341.067 1636,-323.464"/>
<polygon fill="black" stroke="black" points="1639.5,-323.219 1636,-313.219 1632.5,-323.219 1639.5,-323.219"/>
</g>
<!-- D3 -->
<g id="node13" class="node"><title>D3</title>
<polygon fill="peachpuff" stroke="black" points="450,-798 0,-798 0,-760 450,-760 450,-798"/>
<text text-anchor="middle" x="225" y="-782.8" font-family="Times,serif" font-size="14.00">DOBJ: baking powder, ground cinnamon, all&#45;purpose flour, baking soda</text>
<text text-anchor="middle" x="225" y="-767.8" font-family="Times,serif" font-size="14.00">(text: the flour , sugar substitute , baking powder , baking soda , cinnamon)</text>
</g>
<!-- D3&#45;&gt;E3 -->
<g id="edge3" class="edge"><title>D3&#45;&gt;E3</title>
<path fill="none" stroke="black" d="M303.112,-759.955C359.142,-747.012 433.36,-729.866 483.899,-718.191"/>
<polygon fill="black" stroke="black" points="484.723,-721.593 493.678,-715.932 483.147,-714.773 484.723,-721.593"/>
</g>
<!-- P3_0 -->
<g id="node14" class="node"><title>P3_0</title>
<polygon fill="white" stroke="black" points="614,-797 468,-797 468,-761 614,-761 614,-797"/>
<text text-anchor="middle" x="541" y="-775.3" font-family="Times,serif" font-size="14.00">PREP: in a large bowl</text>
</g>
<!-- P3_0&#45;&gt;E3 -->
<g id="edge4" class="edge"><title>P3_0&#45;&gt;E3</title>
<path fill="none" stroke="black" d="M541,-760.7C541,-752.245 541,-741.869 541,-732.373"/>
<polygon fill="black" stroke="black" points="544.5,-732.176 541,-722.176 537.5,-732.176 544.5,-732.176"/>
</g>
<!-- O3_0 -->
<g id="node15" class="node"><title>O3_0</title>
<polygon fill="white" stroke="black" points="751.5,-797 632.5,-797 632.5,-761 751.5,-761 751.5,-797"/>
<text text-anchor="middle" x="692" y="-775.3" font-family="Times,serif" font-size="14.00">OTHER: together</text>
</g>
<!-- O3_0&#45;&gt;E3 -->
<g id="edge5" class="edge"><title>O3_0&#45;&gt;E3</title>
<path fill="none" stroke="black" d="M656.597,-760.885C633.819,-749.873 604.18,-735.544 580.617,-724.153"/>
<polygon fill="black" stroke="black" points="582.112,-720.988 571.586,-719.786 579.065,-727.29 582.112,-720.988"/>
</g>
<!-- P2_0_0 -->
<g id="node16" class="node"><title>P2_0_0</title>
<polygon fill="white" stroke="black" points="1015,-313 815,-313 815,-277 1015,-277 1015,-313"/>
<text text-anchor="middle" x="915" y="-291.3" font-family="Times,serif" font-size="14.00">PREP: with paper muffin liners</text>
</g>
<!-- P2_0_0&#45;&gt;E2 -->
<g id="edge7" class="edge"><title>P2_0_0&#45;&gt;E2</title>
<path fill="none" stroke="black" d="M915,-276.581C915,-261.382 915,-239.067 915,-221.464"/>
<polygon fill="black" stroke="black" points="918.5,-221.219 915,-211.219 911.5,-221.219 918.5,-221.219"/>
</g>
<!-- D4_ing -->
<g id="node17" class="node"><title>D4_ing</title>
<polygon fill="peachpuff" stroke="black" points="933.5,-723 622.5,-723 622.5,-685 933.5,-685 933.5,-723"/>
<text text-anchor="middle" x="778" y="-707.8" font-family="Times,serif" font-size="14.00">DOBJ: mashed ripe banana, applesauce, egg whites</text>
<text text-anchor="middle" x="778" y="-692.8" font-family="Times,serif" font-size="14.00">(text: &#160;applesauce, &#160;mashed banana, the egg whites )</text>
</g>
<!-- D4_ing&#45;&gt;E4 -->
<g id="edge8" class="edge"><title>D4_ing&#45;&gt;E4</title>
<path fill="none" stroke="black" d="M778,-684.943C778,-669.531 778,-647.127 778,-629.488"/>
<polygon fill="black" stroke="black" points="781.5,-629.226 778,-619.226 774.5,-629.226 781.5,-629.226"/>
</g>
<!-- O4_0_0 -->
<g id="node18" class="node"><title>O4_0_0</title>
<polygon fill="white" stroke="black" points="1070.5,-722 951.5,-722 951.5,-686 1070.5,-686 1070.5,-722"/>
<text text-anchor="middle" x="1011" y="-700.3" font-family="Times,serif" font-size="14.00">OTHER: together</text>
</g>
<!-- O4_0_0&#45;&gt;E4 -->
<g id="edge10" class="edge"><title>O4_0_0&#45;&gt;E4</title>
<path fill="none" stroke="black" d="M971.738,-685.981C930.019,-667.897 864.25,-639.387 821.117,-620.69"/>
<polygon fill="black" stroke="black" points="822.306,-617.391 811.739,-616.625 819.522,-623.814 822.306,-617.391"/>
</g>
<!-- P5_0_0 -->
<g id="node19" class="node"><title>P5_0_0</title>
<polygon fill="white" stroke="black" points="1011,-619 895,-619 895,-583 1011,-583 1011,-619"/>
<text text-anchor="middle" x="953" y="-597.3" font-family="Times,serif" font-size="14.00">PREP: to the dry</text>
</g>
<!-- P5_0_0&#45;&gt;E5 -->
<g id="edge12" class="edge"><title>P5_0_0&#45;&gt;E5</title>
<path fill="none" stroke="black" d="M953.321,-582.774C952.717,-568.55 949.76,-548.566 939,-535 933.228,-527.723 925.579,-521.88 917.389,-517.213"/>
<polygon fill="black" stroke="black" points="918.85,-514.03 908.352,-512.599 915.667,-520.264 918.85,-514.03"/>
</g>
<!-- P6_0_0 -->
<g id="node20" class="node"><title>P6_0_0</title>
<polygon fill="white" stroke="black" points="1106.5,-517 947.5,-517 947.5,-481 1106.5,-481 1106.5,-517"/>
<text text-anchor="middle" x="1027" y="-495.3" font-family="Times,serif" font-size="14.00">PREP: until just blended</text>
</g>
<!-- P6_0_0&#45;&gt;E6 -->
<g id="edge14" class="edge"><title>P6_0_0&#45;&gt;E6</title>
<path fill="none" stroke="black" d="M1017.96,-480.791C1010.37,-467.127 998.745,-447.907 986,-433 982.565,-428.982 978.665,-425.01 974.679,-421.265"/>
<polygon fill="black" stroke="black" points="976.792,-418.458 967.01,-414.388 972.119,-423.67 976.792,-418.458"/>
</g>
<!-- O7_0_0 -->
<g id="node21" class="node"><title>O7_0_0</title>
<polygon fill="white" stroke="black" points="1272,-415 1030,-415 1030,-379 1272,-379 1272,-415"/>
<text text-anchor="middle" x="1151" y="-393.3" font-family="Times,serif" font-size="14.00">OTHER: prepared muffin cups 3/4 full</text>
</g>
<!-- O7_0_0&#45;&gt;E7 -->
<g id="edge16" class="edge"><title>O7_0_0&#45;&gt;E7</title>
<path fill="none" stroke="black" d="M1141.25,-378.581C1132.44,-362.856 1119.37,-339.516 1109.37,-321.656"/>
<polygon fill="black" stroke="black" points="1112.4,-319.901 1104.46,-312.886 1106.29,-323.321 1112.4,-319.901"/>
</g>
<!-- P8_0_1 -->
<g id="node22" class="node"><title>P8_0_1</title>
<polygon fill="white" stroke="black" points="1549,-313 1175,-313 1175,-277 1549,-277 1549,-313"/>
<text text-anchor="middle" x="1362" y="-291.3" font-family="Times,serif" font-size="14.00">PREP: for &#160;or until the top springs back when lightly touched</text>
</g>
<!-- P8_0_1&#45;&gt;E8 -->
<g id="edge19" class="edge"><title>P8_0_1&#45;&gt;E8</title>
<path fill="none" stroke="black" d="M1350.33,-276.581C1339.79,-260.856 1324.16,-237.516 1312.19,-219.656"/>
<polygon fill="black" stroke="black" points="1314.79,-217.245 1306.31,-210.886 1308.97,-221.142 1314.79,-217.245"/>
</g>
</g>
</svg>
