<?xml version="1.0" encoding="UTF-8" standalone="no"?>
<!DOCTYPE svg PUBLIC "-//W3C//DTD SVG 1.1//EN"
 "http://www.w3.org/Graphics/SVG/1.1/DTD/svg11.dtd">
<!-- Generated by graphviz version 2.38.0 (20140413.2041)
 -->
<!-- Title: recipe Pages: 1 -->
<svg width="2001pt" height="1014pt"
 viewBox="0.00 0.00 2000.50 1014.00" xmlns="http://www.w3.org/2000/svg" xmlns:xlink="http://www.w3.org/1999/xlink">
<g id="graph0" class="graph" transform="scale(1 1) rotate(0) translate(4 1010)">
<title>recipe</title>
<polygon fill="white" stroke="none" points="-4,4 -4,-1010 1996.5,-1010 1996.5,4 -4,4"/>
<!-- E0 -->
<g id="node1" class="node"><title>E0</title>
<ellipse fill="azure" stroke="black" cx="1825" cy="-295" rx="68.7879" ry="18"/>
<text text-anchor="middle" x="1825" y="-291.3" font-family="Times,serif" font-size="14.00">preheat (S0,P0)</text>
</g>
<!-- E10 -->
<g id="node11" class="node"><title>E10</title>
<ellipse fill="azure" stroke="black" cx="1497" cy="-193" rx="68.7879" ry="18"/>
<text text-anchor="middle" x="1497" y="-189.3" font-family="Times,serif" font-size="14.00">bake (S9,P382)</text>
</g>
<!-- E0&#45;&gt;E10 -->
<g id="edge23" class="edge"><title>E0&#45;&gt;E10</title>
<path fill="none" stroke="black" d="M1781.78,-280.824C1721.97,-262.588 1614.05,-229.686 1549.62,-210.042"/>
<polygon fill="black" stroke="black" points="1550.64,-206.694 1540.05,-207.126 1548.6,-213.39 1550.64,-206.694"/>
<text text-anchor="middle" x="1795.5" y="-247.8" font-family="Times,serif" font-size="14.00">OUTPUT: </text>
<text text-anchor="middle" x="1795.5" y="-232.8" font-family="Times,serif" font-size="14.00">INPUT: in the preheated oven</text>
</g>
<!-- E1 -->
<g id="node2" class="node"><title>E1</title>
<ellipse fill="azure" stroke="black" cx="591" cy="-500" rx="69.5877" ry="18"/>
<text text-anchor="middle" x="591" y="-496.3" font-family="Times,serif" font-size="14.00">grease (S1,P40)</text>
</g>
<!-- E2 -->
<g id="node3" class="node"><title>E2</title>
<ellipse fill="azure" stroke="black" cx="779" cy="-397" rx="59.5901" ry="18"/>
<text text-anchor="middle" x="779" y="-393.3" font-family="Times,serif" font-size="14.00">line (S1,P61)</text>
</g>
<!-- E1&#45;&gt;E2 -->
<g id="edge6" class="edge"><title>E1&#45;&gt;E2</title>
<path fill="none" stroke="black" d="M619.007,-483.312C643.252,-469.799 679.307,-449.868 711,-433 720.593,-427.894 731.002,-422.476 740.726,-417.467"/>
<polygon fill="black" stroke="black" points="742.492,-420.494 749.789,-412.813 739.294,-414.267 742.492,-420.494"/>
<text text-anchor="middle" x="743" y="-451.8" font-family="Times,serif" font-size="14.00">OUTPUT: </text>
<text text-anchor="middle" x="743" y="-436.8" font-family="Times,serif" font-size="14.00">INPUT: </text>
</g>
<!-- E9 -->
<g id="node10" class="node"><title>E9</title>
<ellipse fill="azure" stroke="black" cx="1056" cy="-295" rx="69.5877" ry="18"/>
<text text-anchor="middle" x="1056" y="-291.3" font-family="Times,serif" font-size="14.00">pour (S8,P364)</text>
</g>
<!-- E2&#45;&gt;E9 -->
<g id="edge21" class="edge"><title>E2&#45;&gt;E9</title>
<path fill="none" stroke="black" d="M812.544,-381.96C845.695,-368.281 897.979,-347.232 944,-331 962.809,-324.366 983.613,-317.687 1002.13,-311.968"/>
<polygon fill="black" stroke="black" points="1003.34,-315.26 1011.87,-308.983 1001.29,-308.567 1003.34,-315.26"/>
<text text-anchor="middle" x="1014" y="-349.8" font-family="Times,serif" font-size="14.00">OUTPUT: </text>
<text text-anchor="middle" x="1014" y="-334.8" font-family="Times,serif" font-size="14.00">INPUT: into muffin pan</text>
</g>
<!-- E3 -->
<g id="node4" class="node"><title>E3</title>
<ellipse fill="azure" stroke="black" cx="335" cy="-913" rx="69.5877" ry="18"/>
<text text-anchor="middle" x="335" y="-909.3" font-family="Times,serif" font-size="14.00">whisk (S2,P87)</text>
</g>
<!-- E4 -->
<g id="node5" class="node"><title>E4</title>
<ellipse fill="azure" stroke="black" cx="433" cy="-810" rx="61.1893" ry="18"/>
<text text-anchor="middle" x="433" y="-806.3" font-family="Times,serif" font-size="14.00">set (S3,P135)</text>
</g>
<!-- E3&#45;&gt;E4 -->
<g id="edge8" class="edge"><title>E3&#45;&gt;E4</title>
<path fill="none" stroke="black" d="M344.718,-895.021C353.178,-881.132 366.359,-861.49 381,-847 386.312,-841.743 392.475,-836.736 398.661,-832.219"/>
<polygon fill="black" stroke="black" points="400.83,-834.974 407.033,-826.384 396.827,-829.231 400.83,-834.974"/>
<text text-anchor="middle" x="413" y="-865.8" font-family="Times,serif" font-size="14.00">OUTPUT: </text>
<text text-anchor="middle" x="413" y="-850.8" font-family="Times,serif" font-size="14.00">INPUT: </text>
</g>
<!-- E5 -->
<g id="node6" class="node"><title>E5</title>
<ellipse fill="azure" stroke="black" cx="655" cy="-706" rx="66.0889" ry="18"/>
<text text-anchor="middle" x="655" y="-702.3" font-family="Times,serif" font-size="14.00">beat (S4,P144)</text>
</g>
<!-- E4&#45;&gt;E5 -->
<g id="edge11" class="edge"><title>E4&#45;&gt;E5</title>
<path fill="none" stroke="black" d="M459.561,-793.493C484.315,-779.373 522.494,-758.434 557,-743 572.346,-736.136 589.437,-729.52 604.992,-723.874"/>
<polygon fill="black" stroke="black" points="606.214,-727.154 614.451,-720.49 603.856,-720.563 606.214,-727.154"/>
<text text-anchor="middle" x="618.5" y="-761.8" font-family="Times,serif" font-size="14.00">OUTPUT: </text>
<text text-anchor="middle" x="618.5" y="-746.8" font-family="Times,serif" font-size="14.00">INPUT: until smooth</text>
</g>
<!-- E6 -->
<g id="node7" class="node"><title>E6</title>
<ellipse fill="azure" stroke="black" cx="792" cy="-603" rx="66.0889" ry="18"/>
<text text-anchor="middle" x="792" y="-599.3" font-family="Times,serif" font-size="14.00">beat (S5,P217)</text>
</g>
<!-- E5&#45;&gt;E6 -->
<g id="edge12" class="edge"><title>E5&#45;&gt;E6</title>
<path fill="none" stroke="black" d="M677.011,-688.773C699.981,-671.839 736.154,-645.171 761.788,-626.273"/>
<polygon fill="black" stroke="black" points="764.071,-628.938 770.043,-620.187 759.917,-623.304 764.071,-628.938"/>
<text text-anchor="middle" x="776" y="-657.8" font-family="Times,serif" font-size="14.00">OUTPUT: </text>
<text text-anchor="middle" x="776" y="-642.8" font-family="Times,serif" font-size="14.00">INPUT: </text>
</g>
<!-- E7 -->
<g id="node8" class="node"><title>E7</title>
<ellipse fill="azure" stroke="black" cx="963" cy="-500" rx="65.7887" ry="18"/>
<text text-anchor="middle" x="963" y="-496.3" font-family="Times,serif" font-size="14.00">mix (S6,P256)</text>
</g>
<!-- E6&#45;&gt;E7 -->
<g id="edge14" class="edge"><title>E6&#45;&gt;E7</title>
<path fill="none" stroke="black" d="M816.236,-585.972C836.908,-572.479 867.553,-552.895 895,-537 904.373,-531.572 914.631,-525.971 924.272,-520.851"/>
<polygon fill="black" stroke="black" points="926.059,-523.865 933.278,-516.11 922.799,-517.671 926.059,-523.865"/>
<text text-anchor="middle" x="927" y="-555.8" font-family="Times,serif" font-size="14.00">OUTPUT: </text>
<text text-anchor="middle" x="927" y="-540.8" font-family="Times,serif" font-size="14.00">INPUT: </text>
</g>
<!-- E8 -->
<g id="node9" class="node"><title>E8</title>
<ellipse fill="azure" stroke="black" cx="1145" cy="-397" rx="66.0889" ry="18"/>
<text text-anchor="middle" x="1145" y="-393.3" font-family="Times,serif" font-size="14.00">fold (S7,P298)</text>
</g>
<!-- E7&#45;&gt;E8 -->
<g id="edge17" class="edge"><title>E7&#45;&gt;E8</title>
<path fill="none" stroke="black" d="M990.642,-483.66C1022.04,-466.234 1073.43,-437.719 1108.2,-418.422"/>
<polygon fill="black" stroke="black" points="1110.05,-421.397 1117.1,-413.484 1106.66,-415.276 1110.05,-421.397"/>
<text text-anchor="middle" x="1113" y="-451.8" font-family="Times,serif" font-size="14.00">OUTPUT: </text>
<text text-anchor="middle" x="1113" y="-436.8" font-family="Times,serif" font-size="14.00">INPUT: </text>
</g>
<!-- E8&#45;&gt;E9 -->
<g id="edge20" class="edge"><title>E8&#45;&gt;E9</title>
<path fill="none" stroke="black" d="M1129.9,-379.036C1115.62,-362.993 1094.04,-338.737 1077.87,-320.577"/>
<polygon fill="black" stroke="black" points="1080.14,-317.856 1070.87,-312.713 1074.91,-322.51 1080.14,-317.856"/>
<text text-anchor="middle" x="1146" y="-349.8" font-family="Times,serif" font-size="14.00">OUTPUT: </text>
<text text-anchor="middle" x="1146" y="-334.8" font-family="Times,serif" font-size="14.00">INPUT: </text>
</g>
<!-- E9&#45;&gt;E10 -->
<g id="edge22" class="edge"><title>E9&#45;&gt;E10</title>
<path fill="none" stroke="black" d="M1104.2,-281.931C1158.65,-268.436 1249.98,-246.216 1329,-229 1369.28,-220.224 1379.65,-219.445 1420,-211 1425.36,-209.878 1430.92,-208.692 1436.5,-207.489"/>
<polygon fill="black" stroke="black" points="1437.47,-210.859 1446.5,-205.315 1435.99,-204.019 1437.47,-210.859"/>
<text text-anchor="middle" x="1361" y="-247.8" font-family="Times,serif" font-size="14.00">OUTPUT: </text>
<text text-anchor="middle" x="1361" y="-232.8" font-family="Times,serif" font-size="14.00">INPUT: </text>
</g>
<!-- E11 -->
<g id="node12" class="node"><title>E11</title>
<ellipse fill="azure" stroke="black" cx="1234" cy="-91" rx="72.2875" ry="18"/>
<text text-anchor="middle" x="1234" y="-87.3" font-family="Times,serif" font-size="14.00">cool (S10,P469)</text>
</g>
<!-- E10&#45;&gt;E11 -->
<g id="edge26" class="edge"><title>E10&#45;&gt;E11</title>
<path fill="none" stroke="black" d="M1459.6,-177.779C1412.83,-159.998 1332.73,-129.54 1281.63,-110.11"/>
<polygon fill="black" stroke="black" points="1282.72,-106.779 1272.13,-106.497 1280.23,-113.322 1282.72,-106.779"/>
<text text-anchor="middle" x="1436" y="-145.8" font-family="Times,serif" font-size="14.00">OUTPUT: </text>
<text text-anchor="middle" x="1436" y="-130.8" font-family="Times,serif" font-size="14.00">INPUT: </text>
</g>
<!-- EOR -->
<g id="node30" class="node"><title>EOR</title>
<ellipse fill="plum" stroke="black" cx="1234" cy="-18" rx="57.3905" ry="18"/>
<text text-anchor="middle" x="1234" y="-14.3" font-family="Times,serif" font-size="14.00">Bon appetit!</text>
</g>
<!-- E11&#45;&gt;EOR -->
<g id="edge29" class="edge"><title>E11&#45;&gt;EOR</title>
<path fill="none" stroke="black" d="M1234,-72.8129C1234,-64.7895 1234,-55.0475 1234,-46.0691"/>
<polygon fill="black" stroke="black" points="1237.5,-46.0288 1234,-36.0288 1230.5,-46.0289 1237.5,-46.0288"/>
</g>
<!-- D1 -->
<g id="node13" class="node"><title>D1</title>
<polygon fill="white" stroke="black" points="665,-621 517,-621 517,-585 665,-585 665,-621"/>
<text text-anchor="middle" x="591" y="-599.3" font-family="Times,serif" font-size="14.00">DOBJ: 12 muffin cups</text>
</g>
<!-- D1&#45;&gt;E1 -->
<g id="edge1" class="edge"><title>D1&#45;&gt;E1</title>
<path fill="none" stroke="black" d="M591,-584.867C591,-569.414 591,-546.416 591,-528.409"/>
<polygon fill="black" stroke="black" points="594.5,-528.217 591,-518.217 587.5,-528.217 594.5,-528.217"/>
</g>
<!-- D3 -->
<g id="node14" class="node"><title>D3</title>
<polygon fill="peachpuff" stroke="black" points="260,-1006 0,-1006 0,-968 260,-968 260,-1006"/>
<text text-anchor="middle" x="130" y="-990.8" font-family="Times,serif" font-size="14.00">DOBJ: all&#45;purpose flour, baking soda, salt</text>
<text text-anchor="middle" x="130" y="-975.8" font-family="Times,serif" font-size="14.00">(text: the flour , baking soda , salt)</text>
</g>
<!-- D3&#45;&gt;E3 -->
<g id="edge2" class="edge"><title>D3&#45;&gt;E3</title>
<path fill="none" stroke="black" d="M181.466,-967.924C213.496,-956.675 254.453,-942.29 286.008,-931.207"/>
<polygon fill="black" stroke="black" points="287.204,-934.497 295.479,-927.881 284.884,-927.892 287.204,-934.497"/>
</g>
<!-- P3_0 -->
<g id="node15" class="node"><title>P3_0</title>
<polygon fill="white" stroke="black" points="392,-1005 278,-1005 278,-969 392,-969 392,-1005"/>
<text text-anchor="middle" x="335" y="-983.3" font-family="Times,serif" font-size="14.00">PREP: in a bowl</text>
</g>
<!-- P3_0&#45;&gt;E3 -->
<g id="edge3" class="edge"><title>P3_0&#45;&gt;E3</title>
<path fill="none" stroke="black" d="M335,-968.937C335,-960.807 335,-950.876 335,-941.705"/>
<polygon fill="black" stroke="black" points="338.5,-941.441 335,-931.441 331.5,-941.441 338.5,-941.441"/>
</g>
<!-- O3_0 -->
<g id="node16" class="node"><title>O3_0</title>
<polygon fill="white" stroke="black" points="529.5,-1005 410.5,-1005 410.5,-969 529.5,-969 529.5,-1005"/>
<text text-anchor="middle" x="470" y="-983.3" font-family="Times,serif" font-size="14.00">OTHER: together</text>
</g>
<!-- O3_0&#45;&gt;E3 -->
<g id="edge4" class="edge"><title>O3_0&#45;&gt;E3</title>
<path fill="none" stroke="black" d="M438.007,-968.937C418.534,-958.551 393.548,-945.226 373.062,-934.3"/>
<polygon fill="black" stroke="black" points="374.473,-931.086 364.002,-929.468 371.179,-937.262 374.473,-931.086"/>
</g>
<!-- D0 -->
<g id="node17" class="node"><title>D0</title>
<polygon fill="white" stroke="black" points="1992.5,-415 1657.5,-415 1657.5,-379 1992.5,-379 1992.5,-415"/>
<text text-anchor="middle" x="1825" y="-393.3" font-family="Times,serif" font-size="14.00">DOBJ: an oven to 350 degrees F &#45;LRB&#45; 175 degrees C</text>
</g>
<!-- D0&#45;&gt;E0 -->
<g id="edge5" class="edge"><title>D0&#45;&gt;E0</title>
<path fill="none" stroke="black" d="M1825,-378.581C1825,-363.382 1825,-341.067 1825,-323.464"/>
<polygon fill="black" stroke="black" points="1828.5,-323.219 1825,-313.219 1821.5,-323.219 1828.5,-323.219"/>
</g>
<!-- P2_0_0 -->
<g id="node18" class="node"><title>P2_0_0</title>
<polygon fill="white" stroke="black" points="879,-518 679,-518 679,-482 879,-482 879,-518"/>
<text text-anchor="middle" x="779" y="-496.3" font-family="Times,serif" font-size="14.00">PREP: with paper muffin liners</text>
</g>
<!-- P2_0_0&#45;&gt;E2 -->
<g id="edge7" class="edge"><title>P2_0_0&#45;&gt;E2</title>
<path fill="none" stroke="black" d="M779,-481.867C779,-466.414 779,-443.416 779,-425.409"/>
<polygon fill="black" stroke="black" points="782.5,-425.217 779,-415.217 775.5,-425.217 782.5,-425.217"/>
</g>
<!-- O4_0_0 -->
<g id="node19" class="node"><title>O4_0_0</title>
<polygon fill="white" stroke="black" points="523.5,-931 422.5,-931 422.5,-895 523.5,-895 523.5,-931"/>
<text text-anchor="middle" x="473" y="-909.3" font-family="Times,serif" font-size="14.00">OTHER: aside</text>
</g>
<!-- O4_0_0&#45;&gt;E4 -->
<g id="edge9" class="edge"><title>O4_0_0&#45;&gt;E4</title>
<path fill="none" stroke="black" d="M466.215,-894.867C460.008,-879.196 450.729,-855.766 443.555,-837.651"/>
<polygon fill="black" stroke="black" points="446.755,-836.226 439.819,-828.217 440.247,-838.804 446.755,-836.226"/>
</g>
<!-- D5_ing -->
<g id="node20" class="node"><title>D5_ing</title>
<polygon fill="peachpuff" stroke="black" points="946,-829 512,-829 512,-791 946,-791 946,-829"/>
<text text-anchor="middle" x="729" y="-813.8" font-family="Times,serif" font-size="14.00">DOBJ: ripe bananas, white sugar, softened unsalted butter</text>
<text text-anchor="middle" x="729" y="-798.8" font-family="Times,serif" font-size="14.00">(text: &#160;sugar with an electric mixer in a large bowl, the bananas , &#160;butter )</text>
</g>
<!-- D5_ing&#45;&gt;E5 -->
<g id="edge10" class="edge"><title>D5_ing&#45;&gt;E5</title>
<path fill="none" stroke="black" d="M715.77,-790.764C703.909,-774.415 686.396,-750.276 673.214,-732.106"/>
<polygon fill="black" stroke="black" points="675.839,-729.764 667.134,-723.725 670.173,-733.875 675.839,-729.764"/>
</g>
<!-- P6_0_ing -->
<g id="node21" class="node"><title>P6_0_ing</title>
<polygon fill="peachpuff" stroke="black" points="1119,-725 739,-725 739,-687 1119,-687 1119,-725"/>
<text text-anchor="middle" x="929" y="-709.8" font-family="Times,serif" font-size="14.00">PREP: in whiskey (such as Jack Daniel&#39;s®), vanilla extract, egg</text>
<text text-anchor="middle" x="929" y="-694.8" font-family="Times,serif" font-size="14.00">(text: in the egg , &#160;whiskey, &#160;vanilla extract )</text>
</g>
<!-- P6_0_ing&#45;&gt;E6 -->
<g id="edge13" class="edge"><title>P6_0_ing&#45;&gt;E6</title>
<path fill="none" stroke="black" d="M904.507,-686.943C881.512,-669.991 847.043,-644.579 822.322,-626.354"/>
<polygon fill="black" stroke="black" points="824.145,-623.35 814.019,-620.233 819.991,-628.984 824.145,-623.35"/>
</g>
<!-- P7_0_0 -->
<g id="node22" class="node"><title>P7_0_0</title>
<polygon fill="white" stroke="black" points="1049.5,-621 876.5,-621 876.5,-585 1049.5,-585 1049.5,-621"/>
<text text-anchor="middle" x="963" y="-599.3" font-family="Times,serif" font-size="14.00">PREP: in the flour mixture</text>
</g>
<!-- P7_0_0&#45;&gt;E7 -->
<g id="edge15" class="edge"><title>P7_0_0&#45;&gt;E7</title>
<path fill="none" stroke="black" d="M963,-584.867C963,-569.414 963,-546.416 963,-528.409"/>
<polygon fill="black" stroke="black" points="966.5,-528.217 963,-518.217 959.5,-528.217 966.5,-528.217"/>
</g>
<!-- O7_0_0 -->
<g id="node23" class="node"><title>O7_0_0</title>
<polygon fill="white" stroke="black" points="1268,-621 1068,-621 1068,-585 1268,-585 1268,-621"/>
<text text-anchor="middle" x="1168" y="-599.3" font-family="Times,serif" font-size="14.00">OTHER: until just incorporated</text>
</g>
<!-- O7_0_0&#45;&gt;E7 -->
<g id="edge16" class="edge"><title>O7_0_0&#45;&gt;E7</title>
<path fill="none" stroke="black" d="M1133.22,-584.867C1097.1,-567.071 1040.67,-539.268 1002.8,-520.606"/>
<polygon fill="black" stroke="black" points="1004.11,-517.35 993.588,-516.07 1001.01,-523.63 1004.11,-517.35"/>
</g>
<!-- P8_0_ing -->
<g id="node24" class="node"><title>P8_0_ing</title>
<polygon fill="peachpuff" stroke="black" points="1409,-519 1047,-519 1047,-481 1409,-481 1409,-519"/>
<text text-anchor="middle" x="1228" y="-503.8" font-family="Times,serif" font-size="14.00">PREP: in mini chocolate chips, unsweetened flaked coconut</text>
<text text-anchor="middle" x="1228" y="-488.8" font-family="Times,serif" font-size="14.00">(text: in &#160;chocolate chips, the coconut)</text>
</g>
<!-- P8_0_ing&#45;&gt;E8 -->
<g id="edge18" class="edge"><title>P8_0_ing&#45;&gt;E8</title>
<path fill="none" stroke="black" d="M1213.13,-480.766C1202.3,-467.5 1187.27,-449.115 1174,-433 1171.23,-429.642 1168.32,-426.107 1165.44,-422.627"/>
<polygon fill="black" stroke="black" points="1167.96,-420.187 1158.89,-414.717 1162.57,-424.651 1167.96,-420.187"/>
</g>
<!-- O8_0_0 -->
<g id="node25" class="node"><title>O8_0_0</title>
<polygon fill="white" stroke="black" points="1721,-518 1427,-518 1427,-482 1721,-482 1721,-518"/>
<text text-anchor="middle" x="1574" y="-496.3" font-family="Times,serif" font-size="14.00">OTHER: mixing just enough to evenly combine</text>
</g>
<!-- O8_0_0&#45;&gt;E8 -->
<g id="edge19" class="edge"><title>O8_0_0&#45;&gt;E8</title>
<path fill="none" stroke="black" d="M1501.71,-481.981C1417.73,-462.208 1280.8,-429.972 1203.3,-411.726"/>
<polygon fill="black" stroke="black" points="1203.77,-408.24 1193.23,-409.355 1202.16,-415.054 1203.77,-408.24"/>
</g>
<!-- O10_0_0 -->
<g id="node26" class="node"><title>O10_0_0</title>
<polygon fill="white" stroke="black" points="1544,-313 1144,-313 1144,-277 1544,-277 1544,-313"/>
<text text-anchor="middle" x="1344" y="-291.3" font-family="Times,serif" font-size="14.00">OTHER: until a toothpick inserted into the center comes out clean </text>
</g>
<!-- O10_0_0&#45;&gt;E10 -->
<g id="edge24" class="edge"><title>O10_0_0&#45;&gt;E10</title>
<path fill="none" stroke="black" d="M1370.3,-276.809C1396.21,-259.879 1435.86,-233.962 1463.89,-215.638"/>
<polygon fill="black" stroke="black" points="1466.1,-218.377 1472.56,-209.977 1462.27,-212.518 1466.1,-218.377"/>
</g>
<!-- O10_0_1 -->
<g id="node27" class="node"><title>O10_0_1</title>
<polygon fill="white" stroke="black" points="1738,-313 1562,-313 1562,-277 1738,-277 1738,-313"/>
<text text-anchor="middle" x="1650" y="-291.3" font-family="Times,serif" font-size="14.00">OTHER: &#160;about 25 minutes</text>
</g>
<!-- O10_0_1&#45;&gt;E10 -->
<g id="edge25" class="edge"><title>O10_0_1&#45;&gt;E10</title>
<path fill="none" stroke="black" d="M1623.7,-276.809C1597.79,-259.879 1558.14,-233.962 1530.11,-215.638"/>
<polygon fill="black" stroke="black" points="1531.73,-212.518 1521.44,-209.977 1527.9,-218.377 1531.73,-212.518"/>
</g>
<!-- P11_0_0 -->
<g id="node28" class="node"><title>P11_0_0</title>
<polygon fill="white" stroke="black" points="1039,-211 829,-211 829,-175 1039,-175 1039,-211"/>
<text text-anchor="middle" x="934" y="-189.3" font-family="Times,serif" font-size="14.00">PREP: in the pans for 10 minutes</text>
</g>
<!-- P11_0_0&#45;&gt;E11 -->
<g id="edge27" class="edge"><title>P11_0_0&#45;&gt;E11</title>
<path fill="none" stroke="black" d="M985.231,-174.923C1040.49,-156.505 1127.93,-127.357 1183.07,-108.977"/>
<polygon fill="black" stroke="black" points="1184.26,-112.27 1192.64,-105.788 1182.04,-105.63 1184.26,-112.27"/>
</g>
<!-- P11_1_0 -->
<g id="node29" class="node"><title>P11_1_0</title>
<polygon fill="white" stroke="black" points="1410.5,-211 1057.5,-211 1057.5,-175 1410.5,-175 1410.5,-211"/>
<text text-anchor="middle" x="1234" y="-189.3" font-family="Times,serif" font-size="14.00">PREP: before removing to cool completely on a wire rack</text>
</g>
<!-- P11_1_0&#45;&gt;E11 -->
<g id="edge28" class="edge"><title>P11_1_0&#45;&gt;E11</title>
<path fill="none" stroke="black" d="M1234,-174.581C1234,-159.382 1234,-137.067 1234,-119.464"/>
<polygon fill="black" stroke="black" points="1237.5,-119.219 1234,-109.219 1230.5,-119.219 1237.5,-119.219"/>
</g>
</g>
</svg>
