<?xml version="1.0" encoding="UTF-8" standalone="no"?>
<!DOCTYPE svg PUBLIC "-//W3C//DTD SVG 1.1//EN"
 "http://www.w3.org/Graphics/SVG/1.1/DTD/svg11.dtd">
<!-- Generated by graphviz version 2.38.0 (20140413.2041)
 -->
<!-- Title: recipe Pages: 1 -->
<svg width="1816pt" height="500pt"
 viewBox="0.00 0.00 1816.00 500.00" xmlns="http://www.w3.org/2000/svg" xmlns:xlink="http://www.w3.org/1999/xlink">
<g id="graph0" class="graph" transform="scale(1 1) rotate(0) translate(4 496)">
<title>recipe</title>
<polygon fill="white" stroke="none" points="-4,4 -4,-496 1812,-496 1812,4 -4,4"/>
<!-- E0 -->
<g id="node1" class="node"><title>E0</title>
<ellipse fill="azure" stroke="black" cx="1649" cy="-193" rx="68.7879" ry="18"/>
<text text-anchor="middle" x="1649" y="-189.3" font-family="Times,serif" font-size="14.00">preheat (S0,P0)</text>
</g>
<!-- E4 -->
<g id="node5" class="node"><title>E4</title>
<ellipse fill="azure" stroke="black" cx="1321" cy="-91" rx="68.7879" ry="18"/>
<text text-anchor="middle" x="1321" y="-87.3" font-family="Times,serif" font-size="14.00">bake (S4,P202)</text>
</g>
<!-- E0&#45;&gt;E4 -->
<g id="edge12" class="edge"><title>E0&#45;&gt;E4</title>
<path fill="none" stroke="black" d="M1605.78,-178.824C1545.97,-160.588 1438.05,-127.686 1373.62,-108.042"/>
<polygon fill="black" stroke="black" points="1374.64,-104.694 1364.05,-105.126 1372.6,-111.39 1374.64,-104.694"/>
<text text-anchor="middle" x="1620.5" y="-145.8" font-family="Times,serif" font-size="14.00">OUTPUT: </text>
<text text-anchor="middle" x="1620.5" y="-130.8" font-family="Times,serif" font-size="14.00">INPUT: in the preheated oven</text>
</g>
<!-- E1 -->
<g id="node2" class="node"><title>E1</title>
<ellipse fill="azure" stroke="black" cx="423" cy="-398" rx="61.1893" ry="18"/>
<text text-anchor="middle" x="423" y="-394.3" font-family="Times,serif" font-size="14.00">mix (S1,P38)</text>
</g>
<!-- E2 -->
<g id="node3" class="node"><title>E2</title>
<ellipse fill="azure" stroke="black" cx="637" cy="-295" rx="57.6901" ry="18"/>
<text text-anchor="middle" x="637" y="-291.3" font-family="Times,serif" font-size="14.00">stir (S2,P95)</text>
</g>
<!-- E1&#45;&gt;E2 -->
<g id="edge5" class="edge"><title>E1&#45;&gt;E2</title>
<path fill="none" stroke="black" d="M429.876,-379.856C436.902,-364.607 449.298,-342.927 467,-331 496.894,-310.858 535.97,-301.897 569.12,-298.067"/>
<polygon fill="black" stroke="black" points="569.609,-301.535 579.201,-297.036 568.897,-294.572 569.609,-301.535"/>
<text text-anchor="middle" x="550" y="-349.8" font-family="Times,serif" font-size="14.00">OUTPUT: </text>
<text text-anchor="middle" x="550" y="-334.8" font-family="Times,serif" font-size="14.00">INPUT: into banana mixture</text>
</g>
<!-- E3 -->
<g id="node4" class="node"><title>E3</title>
<ellipse fill="azure" stroke="black" cx="878" cy="-193" rx="72.2875" ry="18"/>
<text text-anchor="middle" x="878" y="-189.3" font-family="Times,serif" font-size="14.00">batter (S3,P173)</text>
</g>
<!-- E2&#45;&gt;E3 -->
<g id="edge7" class="edge"><title>E2&#45;&gt;E3</title>
<path fill="none" stroke="black" d="M661.975,-278.748C686.136,-264.467 724.119,-243.248 759,-229 777.929,-221.268 799.186,-214.457 818.442,-208.947"/>
<polygon fill="black" stroke="black" points="819.619,-212.252 828.305,-206.186 817.732,-205.511 819.619,-212.252"/>
<text text-anchor="middle" x="791" y="-247.8" font-family="Times,serif" font-size="14.00">OUTPUT: </text>
<text text-anchor="middle" x="791" y="-232.8" font-family="Times,serif" font-size="14.00">INPUT: </text>
</g>
<!-- E3&#45;&gt;E4 -->
<g id="edge11" class="edge"><title>E3&#45;&gt;E4</title>
<path fill="none" stroke="black" d="M927.775,-179.887C982.976,-166.545 1074.71,-144.642 1154,-127 1188.44,-119.336 1226.99,-111.228 1258.36,-104.747"/>
<polygon fill="black" stroke="black" points="1259.19,-108.149 1268.28,-102.702 1257.78,-101.293 1259.19,-108.149"/>
<text text-anchor="middle" x="1186" y="-145.8" font-family="Times,serif" font-size="14.00">OUTPUT: </text>
<text text-anchor="middle" x="1186" y="-130.8" font-family="Times,serif" font-size="14.00">INPUT: </text>
</g>
<!-- EOR -->
<g id="node16" class="node"><title>EOR</title>
<ellipse fill="plum" stroke="black" cx="1321" cy="-18" rx="57.3905" ry="18"/>
<text text-anchor="middle" x="1321" y="-14.3" font-family="Times,serif" font-size="14.00">Bon appetit!</text>
</g>
<!-- E4&#45;&gt;EOR -->
<g id="edge15" class="edge"><title>E4&#45;&gt;EOR</title>
<path fill="none" stroke="black" d="M1321,-72.8129C1321,-64.7895 1321,-55.0475 1321,-46.0691"/>
<polygon fill="black" stroke="black" points="1324.5,-46.0288 1321,-36.0288 1317.5,-46.0289 1324.5,-46.0288"/>
</g>
<!-- D1 -->
<g id="node6" class="node"><title>D1</title>
<polygon fill="peachpuff" stroke="black" points="508,-492 -2.84217e-14,-492 -2.84217e-14,-454 508,-454 508,-492"/>
<text text-anchor="middle" x="254" y="-476.8" font-family="Times,serif" font-size="14.00">DOBJ: white sugar, mashed bananas, creamy salad dressing (such as Miracle Whip®)</text>
<text text-anchor="middle" x="254" y="-461.8" font-family="Times,serif" font-size="14.00">(text: bananas , salad dressing , sugar in a large bowl)</text>
</g>
<!-- D1&#45;&gt;E1 -->
<g id="edge1" class="edge"><title>D1&#45;&gt;E1</title>
<path fill="none" stroke="black" d="M295.775,-453.955C321.718,-442.749 354.951,-428.394 380.945,-417.166"/>
<polygon fill="black" stroke="black" points="382.375,-420.361 390.168,-413.182 379.6,-413.934 382.375,-420.361"/>
</g>
<!-- P1_0 -->
<g id="node7" class="node"><title>P1_0</title>
<polygon fill="white" stroke="black" points="658,-491 526,-491 526,-455 658,-455 658,-491"/>
<text text-anchor="middle" x="592" y="-469.3" font-family="Times,serif" font-size="14.00">PREP: until smooth</text>
</g>
<!-- P1_0&#45;&gt;E1 -->
<g id="edge2" class="edge"><title>P1_0&#45;&gt;E1</title>
<path fill="none" stroke="black" d="M552.377,-454.885C526.223,-443.587 491.989,-428.8 465.306,-417.274"/>
<polygon fill="black" stroke="black" points="466.414,-413.94 455.846,-413.188 463.638,-420.366 466.414,-413.94"/>
</g>
<!-- D0 -->
<g id="node8" class="node"><title>D0</title>
<polygon fill="white" stroke="black" points="1808,-313 1490,-313 1490,-277 1808,-277 1808,-313"/>
<text text-anchor="middle" x="1649" y="-291.3" font-family="Times,serif" font-size="14.00">DOBJ: oven to 350 degrees F &#45;LRB&#45; 175 degrees C</text>
</g>
<!-- D0&#45;&gt;E0 -->
<g id="edge3" class="edge"><title>D0&#45;&gt;E0</title>
<path fill="none" stroke="black" d="M1649,-276.581C1649,-261.382 1649,-239.067 1649,-221.464"/>
<polygon fill="black" stroke="black" points="1652.5,-221.219 1649,-211.219 1645.5,-221.219 1652.5,-221.219"/>
</g>
<!-- D2_ing -->
<g id="node9" class="node"><title>D2_ing</title>
<polygon fill="peachpuff" stroke="black" points="771.5,-417 502.5,-417 502.5,-379 771.5,-379 771.5,-417"/>
<text text-anchor="middle" x="637" y="-401.8" font-family="Times,serif" font-size="14.00">DOBJ: whole wheat flour, baking soda, salt</text>
<text text-anchor="middle" x="637" y="-386.8" font-family="Times,serif" font-size="14.00">(text: &#160;salt, flour , &#160;baking soda )</text>
</g>
<!-- D2_ing&#45;&gt;E2 -->
<g id="edge4" class="edge"><title>D2_ing&#45;&gt;E2</title>
<path fill="none" stroke="black" d="M637,-378.943C637,-363.531 637,-341.127 637,-323.488"/>
<polygon fill="black" stroke="black" points="640.5,-323.226 637,-313.226 633.5,-323.226 640.5,-323.226"/>
</g>
<!-- O2_0_0 -->
<g id="node10" class="node"><title>O2_0_0</title>
<polygon fill="white" stroke="black" points="1022.5,-416 789.5,-416 789.5,-380 1022.5,-380 1022.5,-416"/>
<text text-anchor="middle" x="906" y="-394.3" font-family="Times,serif" font-size="14.00">OTHER: until batter is just moistened</text>
</g>
<!-- O2_0_0&#45;&gt;E2 -->
<g id="edge6" class="edge"><title>O2_0_0&#45;&gt;E2</title>
<path fill="none" stroke="black" d="M860.672,-379.981C810.98,-361.323 731.731,-331.568 682.121,-312.941"/>
<polygon fill="black" stroke="black" points="683.204,-309.609 672.612,-309.371 680.743,-316.163 683.204,-309.609"/>
</g>
<!-- P3_0_0 -->
<g id="node11" class="node"><title>P3_0_0</title>
<polygon fill="white" stroke="black" points="885.5,-313 712.5,-313 712.5,-277 885.5,-277 885.5,-313"/>
<text text-anchor="middle" x="799" y="-291.3" font-family="Times,serif" font-size="14.00">PREP: into 24 muffin cups</text>
</g>
<!-- P3_0_0&#45;&gt;E3 -->
<g id="edge8" class="edge"><title>P3_0_0&#45;&gt;E3</title>
<path fill="none" stroke="black" d="M812.761,-276.581C825.298,-260.712 843.962,-237.087 858.119,-219.166"/>
<polygon fill="black" stroke="black" points="861.208,-220.902 864.66,-210.886 855.715,-216.563 861.208,-220.902"/>
</g>
<!-- O3_0_0 -->
<g id="node12" class="node"><title>O3_0_0</title>
<polygon fill="white" stroke="black" points="1010.5,-313 903.5,-313 903.5,-277 1010.5,-277 1010.5,-313"/>
<text text-anchor="middle" x="957" y="-291.3" font-family="Times,serif" font-size="14.00">OTHER: divide</text>
</g>
<!-- O3_0_0&#45;&gt;E3 -->
<g id="edge9" class="edge"><title>O3_0_0&#45;&gt;E3</title>
<path fill="none" stroke="black" d="M943.239,-276.581C930.702,-260.712 912.038,-237.087 897.881,-219.166"/>
<polygon fill="black" stroke="black" points="900.285,-216.563 891.34,-210.886 894.792,-220.902 900.285,-216.563"/>
</g>
<!-- O3_1_0 -->
<g id="node13" class="node"><title>O3_1_0</title>
<polygon fill="white" stroke="black" points="1139,-313 1029,-313 1029,-277 1139,-277 1139,-313"/>
<text text-anchor="middle" x="1084" y="-291.3" font-family="Times,serif" font-size="14.00">OTHER: evenly</text>
</g>
<!-- O3_1_0&#45;&gt;E3 -->
<g id="edge10" class="edge"><title>O3_1_0&#45;&gt;E3</title>
<path fill="none" stroke="black" d="M1048.59,-276.809C1012.53,-259.306 956.69,-232.199 918.801,-213.806"/>
<polygon fill="black" stroke="black" points="920.102,-210.548 909.578,-209.329 917.045,-216.845 920.102,-210.548"/>
</g>
<!-- O4_0_0 -->
<g id="node14" class="node"><title>O4_0_0</title>
<polygon fill="white" stroke="black" points="1368,-211 968,-211 968,-175 1368,-175 1368,-211"/>
<text text-anchor="middle" x="1168" y="-189.3" font-family="Times,serif" font-size="14.00">OTHER: until a toothpick inserted into the center comes out clean </text>
</g>
<!-- O4_0_0&#45;&gt;E4 -->
<g id="edge13" class="edge"><title>O4_0_0&#45;&gt;E4</title>
<path fill="none" stroke="black" d="M1194.3,-174.809C1220.21,-157.879 1259.86,-131.962 1287.89,-113.638"/>
<polygon fill="black" stroke="black" points="1290.1,-116.377 1296.56,-107.977 1286.27,-110.518 1290.1,-116.377"/>
</g>
<!-- O4_0_1 -->
<g id="node15" class="node"><title>O4_0_1</title>
<polygon fill="white" stroke="black" points="1562,-211 1386,-211 1386,-175 1562,-175 1562,-211"/>
<text text-anchor="middle" x="1474" y="-189.3" font-family="Times,serif" font-size="14.00">OTHER: &#160;about 17 minutes</text>
</g>
<!-- O4_0_1&#45;&gt;E4 -->
<g id="edge14" class="edge"><title>O4_0_1&#45;&gt;E4</title>
<path fill="none" stroke="black" d="M1447.7,-174.809C1421.79,-157.879 1382.14,-131.962 1354.11,-113.638"/>
<polygon fill="black" stroke="black" points="1355.73,-110.518 1345.44,-107.977 1351.9,-116.377 1355.73,-110.518"/>
</g>
</g>
</svg>
