<?xml version="1.0" encoding="UTF-8" standalone="no"?>
<!DOCTYPE svg PUBLIC "-//W3C//DTD SVG 1.1//EN"
 "http://www.w3.org/Graphics/SVG/1.1/DTD/svg11.dtd">
<!-- Generated by graphviz version 2.38.0 (20140413.2041)
 -->
<!-- Title: recipe Pages: 1 -->
<svg width="1484pt" height="500pt"
 viewBox="0.00 0.00 1483.50 500.00" xmlns="http://www.w3.org/2000/svg" xmlns:xlink="http://www.w3.org/1999/xlink">
<g id="graph0" class="graph" transform="scale(1 1) rotate(0) translate(4 496)">
<title>recipe</title>
<polygon fill="white" stroke="none" points="-4,4 -4,-496 1479.5,-496 1479.5,4 -4,4"/>
<!-- E0 -->
<g id="node1" class="node"><title>E0</title>
<ellipse fill="azure" stroke="black" cx="1316.5" cy="-193" rx="68.7879" ry="18"/>
<text text-anchor="middle" x="1316.5" y="-189.3" font-family="Times,serif" font-size="14.00">preheat (S0,P0)</text>
</g>
<!-- E5 -->
<g id="node6" class="node"><title>E5</title>
<ellipse fill="azure" stroke="black" cx="861.5" cy="-91" rx="68.7879" ry="18"/>
<text text-anchor="middle" x="861.5" y="-87.3" font-family="Times,serif" font-size="14.00">bake (S6,P250)</text>
</g>
<!-- E0&#45;&gt;E5 -->
<g id="edge13" class="edge"><title>E0&#45;&gt;E5</title>
<path fill="none" stroke="black" d="M1265.63,-180.82C1181.25,-162.275 1012.7,-125.231 922.227,-105.347"/>
<polygon fill="black" stroke="black" points="922.908,-101.913 912.39,-103.185 921.406,-108.75 922.908,-101.913"/>
<text text-anchor="middle" x="1243" y="-145.8" font-family="Times,serif" font-size="14.00">OUTPUT: </text>
<text text-anchor="middle" x="1243" y="-130.8" font-family="Times,serif" font-size="14.00">INPUT: in the preheated oven</text>
</g>
<!-- E1 -->
<g id="node2" class="node"><title>E1</title>
<ellipse fill="azure" stroke="black" cx="338.5" cy="-295" rx="66.8882" ry="18"/>
<text text-anchor="middle" x="338.5" y="-291.3" font-family="Times,serif" font-size="14.00">spray (S1,P38)</text>
</g>
<!-- E4 -->
<g id="node5" class="node"><title>E4</title>
<ellipse fill="azure" stroke="black" cx="526.5" cy="-193" rx="73.387" ry="18"/>
<text text-anchor="middle" x="526.5" y="-189.3" font-family="Times,serif" font-size="14.00">scoop (S5,P216)</text>
</g>
<!-- E1&#45;&gt;E4 -->
<g id="edge11" class="edge"><title>E1&#45;&gt;E4</title>
<path fill="none" stroke="black" d="M344.075,-276.957C349.839,-262.044 360.3,-240.949 376.5,-229 396.644,-214.142 422.111,-205.471 446.315,-200.447"/>
<polygon fill="black" stroke="black" points="447.055,-203.87 456.23,-198.572 445.754,-196.991 447.055,-203.87"/>
<text text-anchor="middle" x="476.5" y="-247.8" font-family="Times,serif" font-size="14.00">OUTPUT: </text>
<text text-anchor="middle" x="476.5" y="-232.8" font-family="Times,serif" font-size="14.00">INPUT: into prepared muffin cups</text>
</g>
<!-- E2 -->
<g id="node3" class="node"><title>E2</title>
<ellipse fill="azure" stroke="black" cx="568.5" cy="-398" rx="57.6901" ry="18"/>
<text text-anchor="middle" x="568.5" y="-394.3" font-family="Times,serif" font-size="14.00">sift (S2,P72)</text>
</g>
<!-- E3 -->
<g id="node4" class="node"><title>E3</title>
<ellipse fill="azure" stroke="black" cx="649.5" cy="-295" rx="66.0889" ry="18"/>
<text text-anchor="middle" x="649.5" y="-291.3" font-family="Times,serif" font-size="14.00">fold (S4,P161)</text>
</g>
<!-- E2&#45;&gt;E3 -->
<g id="edge8" class="edge"><title>E2&#45;&gt;E3</title>
<path fill="none" stroke="black" d="M558.261,-380.121C551.072,-365.864 544.384,-345.508 554.5,-331 561.639,-320.761 572.128,-313.509 583.559,-308.376"/>
<polygon fill="black" stroke="black" points="584.866,-311.623 592.882,-304.696 582.296,-305.112 584.866,-311.623"/>
<text text-anchor="middle" x="631.5" y="-349.8" font-family="Times,serif" font-size="14.00">OUTPUT: </text>
<text text-anchor="middle" x="631.5" y="-334.8" font-family="Times,serif" font-size="14.00">INPUT: into flour mixture</text>
</g>
<!-- E3&#45;&gt;E4 -->
<g id="edge10" class="edge"><title>E3&#45;&gt;E4</title>
<path fill="none" stroke="black" d="M633.525,-277.36C620.001,-263.673 599.792,-244.137 580.5,-229 574.578,-224.353 568.033,-219.728 561.603,-215.435"/>
<polygon fill="black" stroke="black" points="563.265,-212.341 552.975,-209.816 559.445,-218.207 563.265,-212.341"/>
<text text-anchor="middle" x="655.5" y="-247.8" font-family="Times,serif" font-size="14.00">OUTPUT: </text>
<text text-anchor="middle" x="655.5" y="-232.8" font-family="Times,serif" font-size="14.00">INPUT: batter</text>
</g>
<!-- E4&#45;&gt;E5 -->
<g id="edge12" class="edge"><title>E4&#45;&gt;E5</title>
<path fill="none" stroke="black" d="M560.246,-176.838C593.377,-162.42 645.623,-140.923 692.5,-127 725.675,-117.147 763.315,-109.06 794.639,-103.151"/>
<polygon fill="black" stroke="black" points="795.379,-106.574 804.574,-101.31 794.103,-99.6913 795.379,-106.574"/>
<text text-anchor="middle" x="724.5" y="-145.8" font-family="Times,serif" font-size="14.00">OUTPUT: </text>
<text text-anchor="middle" x="724.5" y="-130.8" font-family="Times,serif" font-size="14.00">INPUT: </text>
</g>
<!-- EOR -->
<g id="node17" class="node"><title>EOR</title>
<ellipse fill="plum" stroke="black" cx="861.5" cy="-18" rx="57.3905" ry="18"/>
<text text-anchor="middle" x="861.5" y="-14.3" font-family="Times,serif" font-size="14.00">Bon appetit!</text>
</g>
<!-- E5&#45;&gt;EOR -->
<g id="edge16" class="edge"><title>E5&#45;&gt;EOR</title>
<path fill="none" stroke="black" d="M861.5,-72.8129C861.5,-64.7895 861.5,-55.0475 861.5,-46.0691"/>
<polygon fill="black" stroke="black" points="865,-46.0288 861.5,-36.0288 858,-46.0289 865,-46.0288"/>
</g>
<!-- D0 -->
<g id="node7" class="node"><title>D0</title>
<polygon fill="white" stroke="black" points="1475.5,-313 1157.5,-313 1157.5,-277 1475.5,-277 1475.5,-313"/>
<text text-anchor="middle" x="1316.5" y="-291.3" font-family="Times,serif" font-size="14.00">DOBJ: oven to 350 degrees F &#45;LRB&#45; 175 degrees C</text>
</g>
<!-- D0&#45;&gt;E0 -->
<g id="edge1" class="edge"><title>D0&#45;&gt;E0</title>
<path fill="none" stroke="black" d="M1316.5,-276.581C1316.5,-261.382 1316.5,-239.067 1316.5,-221.464"/>
<polygon fill="black" stroke="black" points="1320,-221.219 1316.5,-211.219 1313,-221.219 1320,-221.219"/>
</g>
<!-- D2 -->
<g id="node8" class="node"><title>D2</title>
<polygon fill="peachpuff" stroke="black" points="477,-492 -2.84217e-14,-492 -2.84217e-14,-454 477,-454 477,-492"/>
<text text-anchor="middle" x="238.5" y="-476.8" font-family="Times,serif" font-size="14.00">DOBJ: baking powder, all&#45;purpose flour, whole wheat flour, baking soda, salt</text>
<text text-anchor="middle" x="238.5" y="-461.8" font-family="Times,serif" font-size="14.00">(text: all&#45;purpose flour , whole wheat flour , baking powder , baking soda , salt)</text>
</g>
<!-- D2&#45;&gt;E2 -->
<g id="edge2" class="edge"><title>D2&#45;&gt;E2</title>
<path fill="none" stroke="black" d="M330.982,-453.984C381.519,-443.807 445.124,-430.456 501.5,-417 506.497,-415.807 511.689,-414.512 516.873,-413.182"/>
<polygon fill="black" stroke="black" points="517.983,-416.509 526.776,-410.599 516.216,-409.736 517.983,-416.509"/>
</g>
<!-- P2_0 -->
<g id="node9" class="node"><title>P2_0</title>
<polygon fill="white" stroke="black" points="641.5,-491 495.5,-491 495.5,-455 641.5,-455 641.5,-491"/>
<text text-anchor="middle" x="568.5" y="-469.3" font-family="Times,serif" font-size="14.00">PREP: in a large bowl</text>
</g>
<!-- P2_0&#45;&gt;E2 -->
<g id="edge3" class="edge"><title>P2_0&#45;&gt;E2</title>
<path fill="none" stroke="black" d="M568.5,-454.7C568.5,-446.245 568.5,-435.869 568.5,-426.373"/>
<polygon fill="black" stroke="black" points="572,-426.176 568.5,-416.176 565,-426.176 572,-426.176"/>
</g>
<!-- O2_0 -->
<g id="node10" class="node"><title>O2_0</title>
<polygon fill="white" stroke="black" points="779,-491 660,-491 660,-455 779,-455 779,-491"/>
<text text-anchor="middle" x="719.5" y="-469.3" font-family="Times,serif" font-size="14.00">OTHER: together</text>
</g>
<!-- O2_0&#45;&gt;E2 -->
<g id="edge4" class="edge"><title>O2_0&#45;&gt;E2</title>
<path fill="none" stroke="black" d="M684.097,-454.885C661.165,-443.798 631.279,-429.35 607.641,-417.922"/>
<polygon fill="black" stroke="black" points="609.115,-414.747 598.588,-413.546 606.068,-421.05 609.115,-414.747"/>
</g>
<!-- D1 -->
<g id="node11" class="node"><title>D1</title>
<polygon fill="white" stroke="black" points="166.5,-416 18.5,-416 18.5,-380 166.5,-380 166.5,-416"/>
<text text-anchor="middle" x="92.5" y="-394.3" font-family="Times,serif" font-size="14.00">DOBJ: 16 muffin cups</text>
</g>
<!-- D1&#45;&gt;E1 -->
<g id="edge5" class="edge"><title>D1&#45;&gt;E1</title>
<path fill="none" stroke="black" d="M133.952,-379.981C178.312,-361.768 248.426,-332.982 293.944,-314.293"/>
<polygon fill="black" stroke="black" points="295.345,-317.502 303.266,-310.466 292.686,-311.026 295.345,-317.502"/>
</g>
<!-- P1_0 -->
<g id="node12" class="node"><title>P1_0</title>
<polygon fill="peachpuff" stroke="black" points="492.5,-417 184.5,-417 184.5,-379 492.5,-379 492.5,-417"/>
<text text-anchor="middle" x="338.5" y="-401.8" font-family="Times,serif" font-size="14.00">PREP: with cooking spray (such as Baker&#39;s Joy®)</text>
<text text-anchor="middle" x="338.5" y="-386.8" font-family="Times,serif" font-size="14.00">(text: with cooking spray)</text>
</g>
<!-- P1_0&#45;&gt;E1 -->
<g id="edge6" class="edge"><title>P1_0&#45;&gt;E1</title>
<path fill="none" stroke="black" d="M338.5,-378.943C338.5,-363.531 338.5,-341.127 338.5,-323.488"/>
<polygon fill="black" stroke="black" points="342,-323.226 338.5,-313.226 335,-323.226 342,-323.226"/>
</g>
<!-- D3_ing -->
<g id="node13" class="node"><title>D3_ing</title>
<polygon fill="peachpuff" stroke="black" points="798,-417 655,-417 655,-379 798,-379 798,-417"/>
<text text-anchor="middle" x="726.5" y="-401.8" font-family="Times,serif" font-size="14.00">DOBJ: bananas</text>
<text text-anchor="middle" x="726.5" y="-386.8" font-family="Times,serif" font-size="14.00">(text: banana mixture)</text>
</g>
<!-- D3_ing&#45;&gt;E3 -->
<g id="edge7" class="edge"><title>D3_ing&#45;&gt;E3</title>
<path fill="none" stroke="black" d="M726.612,-378.825C725.83,-364.555 722.732,-344.848 712.5,-331 708.001,-324.912 702.111,-319.747 695.737,-315.408"/>
<polygon fill="black" stroke="black" points="697.194,-312.198 686.831,-309.995 693.559,-318.18 697.194,-312.198"/>
</g>
<!-- P3_1_0 -->
<g id="node14" class="node"><title>P3_1_0</title>
<polygon fill="white" stroke="black" points="1003,-416 816,-416 816,-380 1003,-380 1003,-416"/>
<text text-anchor="middle" x="909.5" y="-394.3" font-family="Times,serif" font-size="14.00">PREP: until just incorporated</text>
</g>
<!-- P3_1_0&#45;&gt;E3 -->
<g id="edge9" class="edge"><title>P3_1_0&#45;&gt;E3</title>
<path fill="none" stroke="black" d="M865.689,-379.981C818.436,-361.625 743.532,-332.528 695.461,-313.854"/>
<polygon fill="black" stroke="black" points="696.514,-310.508 685.925,-310.15 693.979,-317.033 696.514,-310.508"/>
</g>
<!-- O5_0_0 -->
<g id="node15" class="node"><title>O5_0_0</title>
<polygon fill="white" stroke="black" points="791,-211 618,-211 618,-175 791,-175 791,-211"/>
<text text-anchor="middle" x="704.5" y="-189.3" font-family="Times,serif" font-size="14.00">OTHER: &#160;14 to 16 minutes</text>
</g>
<!-- O5_0_0&#45;&gt;E5 -->
<g id="edge14" class="edge"><title>O5_0_0&#45;&gt;E5</title>
<path fill="none" stroke="black" d="M731.489,-174.809C758.265,-157.755 799.356,-131.582 828.158,-113.237"/>
<polygon fill="black" stroke="black" points="830.118,-116.138 836.672,-107.814 826.358,-110.234 830.118,-116.138"/>
</g>
<!-- O5_0_1 -->
<g id="node16" class="node"><title>O5_0_1</title>
<polygon fill="white" stroke="black" points="1229.5,-211 809.5,-211 809.5,-175 1229.5,-175 1229.5,-211"/>
<text text-anchor="middle" x="1019.5" y="-189.3" font-family="Times,serif" font-size="14.00">OTHER: until muffins spring back when lightly tapped in the middle </text>
</g>
<!-- O5_0_1&#45;&gt;E5 -->
<g id="edge15" class="edge"><title>O5_0_1&#45;&gt;E5</title>
<path fill="none" stroke="black" d="M992.339,-174.809C965.392,-157.755 924.039,-131.582 895.054,-113.237"/>
<polygon fill="black" stroke="black" points="896.807,-110.204 886.486,-107.814 893.064,-116.119 896.807,-110.204"/>
</g>
</g>
</svg>
