<?xml version="1.0" encoding="UTF-8" standalone="no"?>
<!DOCTYPE svg PUBLIC "-//W3C//DTD SVG 1.1//EN"
 "http://www.w3.org/Graphics/SVG/1.1/DTD/svg11.dtd">
<!-- Generated by graphviz version 2.38.0 (20140413.2041)
 -->
<!-- Title: recipe Pages: 1 -->
<svg width="1784pt" height="600pt"
 viewBox="0.00 0.00 1783.50 600.00" xmlns="http://www.w3.org/2000/svg" xmlns:xlink="http://www.w3.org/1999/xlink">
<g id="graph0" class="graph" transform="scale(1 1) rotate(0) translate(4 596)">
<title>recipe</title>
<polygon fill="white" stroke="none" points="-4,4 -4,-596 1779.5,-596 1779.5,4 -4,4"/>
<!-- E0 -->
<g id="node1" class="node"><title>E0</title>
<ellipse fill="azure" stroke="black" cx="1606" cy="-499" rx="68.7879" ry="18"/>
<text text-anchor="middle" x="1606" y="-495.3" font-family="Times,serif" font-size="14.00">preheat (S0,P0)</text>
</g>
<!-- E1 -->
<g id="node2" class="node"><title>E1</title>
<ellipse fill="azure" stroke="black" cx="1331" cy="-397" rx="76.0865" ry="18"/>
<text text-anchor="middle" x="1331" y="-393.3" font-family="Times,serif" font-size="14.00">line pan (S1,P41)</text>
</g>
<!-- E0&#45;&gt;E1 -->
<g id="edge6" class="edge"><title>E0&#45;&gt;E1</title>
<path fill="none" stroke="black" d="M1567.47,-483.99C1518.49,-466.178 1433.86,-435.402 1380.24,-415.904"/>
<polygon fill="black" stroke="black" points="1381.2,-412.529 1370.6,-412.401 1378.8,-419.108 1381.2,-412.529"/>
<text text-anchor="middle" x="1541" y="-451.8" font-family="Times,serif" font-size="14.00">OUTPUT: </text>
<text text-anchor="middle" x="1541" y="-436.8" font-family="Times,serif" font-size="14.00">INPUT: </text>
</g>
<!-- E5 -->
<g id="node6" class="node"><title>E5</title>
<ellipse fill="azure" stroke="black" cx="1170" cy="-295" rx="74.187" ry="18"/>
<text text-anchor="middle" x="1170" y="-291.3" font-family="Times,serif" font-size="14.00">spoon (S5,P273)</text>
</g>
<!-- E1&#45;&gt;E5 -->
<g id="edge12" class="edge"><title>E1&#45;&gt;E5</title>
<path fill="none" stroke="black" d="M1314.44,-379.392C1299.59,-365.17 1276.7,-344.852 1254,-331 1243.57,-324.635 1231.77,-318.921 1220.39,-314.046"/>
<polygon fill="black" stroke="black" points="1221.54,-310.735 1210.96,-310.152 1218.87,-317.205 1221.54,-310.735"/>
<text text-anchor="middle" x="1344.5" y="-349.8" font-family="Times,serif" font-size="14.00">OUTPUT: </text>
<text text-anchor="middle" x="1344.5" y="-334.8" font-family="Times,serif" font-size="14.00">INPUT: the batter</text>
</g>
<!-- E2 -->
<g id="node3" class="node"><title>E2</title>
<ellipse fill="azure" stroke="black" cx="513" cy="-499" rx="63.0888" ry="18"/>
<text text-anchor="middle" x="513" y="-495.3" font-family="Times,serif" font-size="14.00">stir (S2,P111)</text>
</g>
<!-- E4 -->
<g id="node5" class="node"><title>E4</title>
<ellipse fill="azure" stroke="black" cx="952" cy="-397" rx="63.0888" ry="18"/>
<text text-anchor="middle" x="952" y="-393.3" font-family="Times,serif" font-size="14.00">stir (S4,P236)</text>
</g>
<!-- E2&#45;&gt;E4 -->
<g id="edge10" class="edge"><title>E2&#45;&gt;E4</title>
<path fill="none" stroke="black" d="M548.765,-484.093C587.828,-469.403 652.507,-446.533 710,-433 767.674,-419.425 834.394,-410.249 883.152,-404.71"/>
<polygon fill="black" stroke="black" points="883.723,-408.168 893.274,-403.583 882.948,-401.211 883.723,-408.168"/>
<text text-anchor="middle" x="803.5" y="-451.8" font-family="Times,serif" font-size="14.00">OUTPUT: </text>
<text text-anchor="middle" x="803.5" y="-436.8" font-family="Times,serif" font-size="14.00">INPUT: into the banana mixture</text>
</g>
<!-- E3 -->
<g id="node4" class="node"><title>E3</title>
<ellipse fill="azure" stroke="black" cx="874" cy="-499" rx="83.3857" ry="18"/>
<text text-anchor="middle" x="874" y="-495.3" font-family="Times,serif" font-size="14.00">combine (S3,P163)</text>
</g>
<!-- E3&#45;&gt;E4 -->
<g id="edge9" class="edge"><title>E3&#45;&gt;E4</title>
<path fill="none" stroke="black" d="M887.232,-481.036C899.633,-465.138 918.325,-441.173 932.446,-423.069"/>
<polygon fill="black" stroke="black" points="935.573,-424.751 938.964,-414.713 930.054,-420.446 935.573,-424.751"/>
<text text-anchor="middle" x="956" y="-451.8" font-family="Times,serif" font-size="14.00">OUTPUT: </text>
<text text-anchor="middle" x="956" y="-436.8" font-family="Times,serif" font-size="14.00">INPUT: </text>
</g>
<!-- E4&#45;&gt;E5 -->
<g id="edge13" class="edge"><title>E4&#45;&gt;E5</title>
<path fill="none" stroke="black" d="M967.222,-379.39C981.717,-364.561 1004.85,-343.334 1029,-331 1042.52,-324.094 1074.51,-315.943 1104.6,-309.245"/>
<polygon fill="black" stroke="black" points="1105.69,-312.591 1114.71,-307.033 1104.19,-305.753 1105.69,-312.591"/>
<text text-anchor="middle" x="1139.5" y="-349.8" font-family="Times,serif" font-size="14.00">OUTPUT: </text>
<text text-anchor="middle" x="1139.5" y="-334.8" font-family="Times,serif" font-size="14.00">INPUT: into the prepared muffin cups</text>
</g>
<!-- E6 -->
<g id="node7" class="node"><title>E6</title>
<ellipse fill="azure" stroke="black" cx="782" cy="-193" rx="68.7879" ry="18"/>
<text text-anchor="middle" x="782" y="-189.3" font-family="Times,serif" font-size="14.00">bake (S6,P313)</text>
</g>
<!-- E5&#45;&gt;E6 -->
<g id="edge14" class="edge"><title>E5&#45;&gt;E6</title>
<path fill="none" stroke="black" d="M1121.25,-281.436C1049.47,-262.936 915.62,-228.438 839.261,-208.758"/>
<polygon fill="black" stroke="black" points="839.892,-205.306 829.335,-206.2 838.145,-212.085 839.892,-205.306"/>
<text text-anchor="middle" x="1065" y="-247.8" font-family="Times,serif" font-size="14.00">OUTPUT: </text>
<text text-anchor="middle" x="1065" y="-232.8" font-family="Times,serif" font-size="14.00">INPUT: </text>
</g>
<!-- E7 -->
<g id="node8" class="node"><title>E7</title>
<ellipse fill="azure" stroke="black" cx="568" cy="-91" rx="67.6881" ry="18"/>
<text text-anchor="middle" x="568" y="-87.3" font-family="Times,serif" font-size="14.00">cool (S7,P391)</text>
</g>
<!-- E6&#45;&gt;E7 -->
<g id="edge19" class="edge"><title>E6&#45;&gt;E7</title>
<path fill="none" stroke="black" d="M749.962,-177.029C712.426,-159.489 650.156,-130.391 609.095,-111.203"/>
<polygon fill="black" stroke="black" points="610.448,-107.972 599.907,-106.91 607.485,-114.314 610.448,-107.972"/>
<text text-anchor="middle" x="738" y="-145.8" font-family="Times,serif" font-size="14.00">OUTPUT: </text>
<text text-anchor="middle" x="738" y="-130.8" font-family="Times,serif" font-size="14.00">INPUT: </text>
</g>
<!-- EOR -->
<g id="node23" class="node"><title>EOR</title>
<ellipse fill="plum" stroke="black" cx="568" cy="-18" rx="57.3905" ry="18"/>
<text text-anchor="middle" x="568" y="-14.3" font-family="Times,serif" font-size="14.00">Bon appetit!</text>
</g>
<!-- E7&#45;&gt;EOR -->
<g id="edge22" class="edge"><title>E7&#45;&gt;EOR</title>
<path fill="none" stroke="black" d="M568,-72.8129C568,-64.7895 568,-55.0475 568,-46.0691"/>
<polygon fill="black" stroke="black" points="571.5,-46.0288 568,-36.0288 564.5,-46.0289 571.5,-46.0288"/>
</g>
<!-- D3 -->
<g id="node9" class="node"><title>D3</title>
<polygon fill="peachpuff" stroke="black" points="1286,-592 726,-592 726,-554 1286,-554 1286,-592"/>
<text text-anchor="middle" x="1006" y="-576.8" font-family="Times,serif" font-size="14.00">DOBJ: baking powder, ginger, ground cinnamon, rolled oats, whole wheat flour, baking soda</text>
<text text-anchor="middle" x="1006" y="-561.8" font-family="Times,serif" font-size="14.00">(text: the whole wheat flour , oats , cinnamon , ginger , baking powder, baking soda)</text>
</g>
<!-- D3&#45;&gt;E3 -->
<g id="edge1" class="edge"><title>D3&#45;&gt;E3</title>
<path fill="none" stroke="black" d="M972.691,-553.831C954.23,-543.762 931.203,-531.202 912.036,-520.747"/>
<polygon fill="black" stroke="black" points="913.709,-517.673 903.254,-515.957 910.357,-523.818 913.709,-517.673"/>
</g>
<!-- D0 -->
<g id="node10" class="node"><title>D0</title>
<polygon fill="white" stroke="black" points="1775.5,-591 1436.5,-591 1436.5,-555 1775.5,-555 1775.5,-591"/>
<text text-anchor="middle" x="1606" y="-569.3" font-family="Times,serif" font-size="14.00">DOBJ: the oven to 350 degrees F &#45;LRB&#45; 175 degrees C</text>
</g>
<!-- D0&#45;&gt;E0 -->
<g id="edge2" class="edge"><title>D0&#45;&gt;E0</title>
<path fill="none" stroke="black" d="M1606,-554.937C1606,-546.807 1606,-536.876 1606,-527.705"/>
<polygon fill="black" stroke="black" points="1609.5,-527.441 1606,-517.441 1602.5,-527.441 1609.5,-527.441"/>
</g>
<!-- D2 -->
<g id="node11" class="node"><title>D2</title>
<polygon fill="peachpuff" stroke="black" points="406,-592 0,-592 0,-554 406,-554 406,-592"/>
<text text-anchor="middle" x="203" y="-576.8" font-family="Times,serif" font-size="14.00">DOBJ: vegetable oil, brown sugar, ripe bananas, vanilla extract, egg</text>
<text text-anchor="middle" x="203" y="-561.8" font-family="Times,serif" font-size="14.00">(text: the bananas , brown sugar , egg , vanilla, oil)</text>
</g>
<!-- D2&#45;&gt;E2 -->
<g id="edge3" class="edge"><title>D2&#45;&gt;E2</title>
<path fill="none" stroke="black" d="M280.826,-553.924C335.19,-541.298 406.56,-524.721 455.746,-513.298"/>
<polygon fill="black" stroke="black" points="456.634,-516.685 465.583,-511.013 455.05,-509.866 456.634,-516.685"/>
</g>
<!-- P2_0 -->
<g id="node12" class="node"><title>P2_0</title>
<polygon fill="white" stroke="black" points="570,-591 424,-591 424,-555 570,-555 570,-591"/>
<text text-anchor="middle" x="497" y="-569.3" font-family="Times,serif" font-size="14.00">PREP: in a large bowl</text>
</g>
<!-- P2_0&#45;&gt;E2 -->
<g id="edge4" class="edge"><title>P2_0&#45;&gt;E2</title>
<path fill="none" stroke="black" d="M500.792,-554.937C502.618,-546.719 504.853,-536.66 506.91,-527.406"/>
<polygon fill="black" stroke="black" points="510.372,-527.962 509.124,-517.441 503.538,-526.443 510.372,-527.962"/>
</g>
<!-- O2_0 -->
<g id="node13" class="node"><title>O2_0</title>
<polygon fill="white" stroke="black" points="707.5,-591 588.5,-591 588.5,-555 707.5,-555 707.5,-591"/>
<text text-anchor="middle" x="648" y="-569.3" font-family="Times,serif" font-size="14.00">OTHER: together</text>
</g>
<!-- O2_0&#45;&gt;E2 -->
<g id="edge5" class="edge"><title>O2_0&#45;&gt;E2</title>
<path fill="none" stroke="black" d="M616.007,-554.937C596.398,-544.479 571.201,-531.041 550.636,-520.073"/>
<polygon fill="black" stroke="black" points="552.021,-516.844 541.55,-515.227 548.727,-523.021 552.021,-516.844"/>
</g>
<!-- P1_0_0 -->
<g id="node14" class="node"><title>P1_0_0</title>
<polygon fill="white" stroke="black" points="1329,-517 1129,-517 1129,-481 1329,-481 1329,-517"/>
<text text-anchor="middle" x="1229" y="-495.3" font-family="Times,serif" font-size="14.00">PREP: with paper liners or coat</text>
</g>
<!-- P1_0_0&#45;&gt;E1 -->
<g id="edge7" class="edge"><title>P1_0_0&#45;&gt;E1</title>
<path fill="none" stroke="black" d="M1246.77,-480.581C1263.35,-464.325 1288.23,-439.931 1306.66,-421.867"/>
<polygon fill="black" stroke="black" points="1309.42,-424.055 1314.11,-414.555 1304.52,-419.057 1309.42,-424.055"/>
</g>
<!-- P1_1_0 -->
<g id="node15" class="node"><title>P1_1_0</title>
<polygon fill="white" stroke="black" points="1519,-517 1347,-517 1347,-481 1519,-481 1519,-517"/>
<text text-anchor="middle" x="1433" y="-495.3" font-family="Times,serif" font-size="14.00">PREP: with cooking spray</text>
</g>
<!-- P1_1_0&#45;&gt;E1 -->
<g id="edge8" class="edge"><title>P1_1_0&#45;&gt;E1</title>
<path fill="none" stroke="black" d="M1415.23,-480.581C1398.65,-464.325 1373.77,-439.931 1355.34,-421.867"/>
<polygon fill="black" stroke="black" points="1357.48,-419.057 1347.89,-414.555 1352.58,-424.055 1357.48,-419.057"/>
</g>
<!-- P4_1_0 -->
<g id="node16" class="node"><title>P4_1_0</title>
<polygon fill="white" stroke="black" points="1110.5,-517 975.5,-517 975.5,-481 1110.5,-481 1110.5,-517"/>
<text text-anchor="middle" x="1043" y="-495.3" font-family="Times,serif" font-size="14.00">PREP: until blended</text>
</g>
<!-- P4_1_0&#45;&gt;E4 -->
<g id="edge11" class="edge"><title>P4_1_0&#45;&gt;E4</title>
<path fill="none" stroke="black" d="M1030.82,-480.729C1020.97,-467.203 1006.41,-448.199 992,-433 988.191,-428.982 983.971,-424.924 979.74,-421.067"/>
<polygon fill="black" stroke="black" points="982.009,-418.401 972.202,-414.391 977.368,-423.642 982.009,-418.401"/>
</g>
<!-- P6_0_0 -->
<g id="node17" class="node"><title>P6_0_0</title>
<polygon fill="white" stroke="black" points="532.5,-313 271.5,-313 271.5,-277 532.5,-277 532.5,-313"/>
<text text-anchor="middle" x="402" y="-291.3" font-family="Times,serif" font-size="14.00">PREP: in the preheated oven until the tops</text>
</g>
<!-- P6_0_0&#45;&gt;E6 -->
<g id="edge15" class="edge"><title>P6_0_0&#45;&gt;E6</title>
<path fill="none" stroke="black" d="M466.893,-276.923C539.627,-257.782 656.395,-227.054 725.51,-208.866"/>
<polygon fill="black" stroke="black" points="726.571,-212.206 735.351,-206.276 724.79,-205.436 726.571,-212.206"/>
</g>
<!-- P6_1_0 -->
<g id="node18" class="node"><title>P6_1_0</title>
<polygon fill="white" stroke="black" points="709.5,-313 550.5,-313 550.5,-277 709.5,-277 709.5,-313"/>
<text text-anchor="middle" x="630" y="-291.3" font-family="Times,serif" font-size="14.00">PREP: about 25 minutes</text>
</g>
<!-- P6_1_0&#45;&gt;E6 -->
<g id="edge16" class="edge"><title>P6_1_0&#45;&gt;E6</title>
<path fill="none" stroke="black" d="M656.13,-276.809C681.865,-259.879 721.258,-233.962 749.11,-215.638"/>
<polygon fill="black" stroke="black" points="751.285,-218.397 757.716,-209.977 747.438,-212.549 751.285,-218.397"/>
</g>
<!-- O6_0_0 -->
<g id="node19" class="node"><title>O6_0_0</title>
<polygon fill="white" stroke="black" points="836.5,-313 727.5,-313 727.5,-277 836.5,-277 836.5,-313"/>
<text text-anchor="middle" x="782" y="-291.3" font-family="Times,serif" font-size="14.00">OTHER: spring</text>
</g>
<!-- O6_0_0&#45;&gt;E6 -->
<g id="edge17" class="edge"><title>O6_0_0&#45;&gt;E6</title>
<path fill="none" stroke="black" d="M782,-276.581C782,-261.382 782,-239.067 782,-221.464"/>
<polygon fill="black" stroke="black" points="785.5,-221.219 782,-211.219 778.5,-221.219 785.5,-221.219"/>
</g>
<!-- O6_1_0 -->
<g id="node20" class="node"><title>O6_1_0</title>
<polygon fill="white" stroke="black" points="1077.5,-313 854.5,-313 854.5,-277 1077.5,-277 1077.5,-313"/>
<text text-anchor="middle" x="966" y="-291.3" font-family="Times,serif" font-size="14.00">OTHER: back when lightly pressed</text>
</g>
<!-- O6_1_0&#45;&gt;E6 -->
<g id="edge18" class="edge"><title>O6_1_0&#45;&gt;E6</title>
<path fill="none" stroke="black" d="M934.369,-276.809C902.53,-259.506 853.42,-232.815 819.606,-214.438"/>
<polygon fill="black" stroke="black" points="820.959,-211.19 810.502,-209.49 817.617,-217.34 820.959,-211.19"/>
</g>
<!-- P7_0_0 -->
<g id="node21" class="node"><title>P7_0_0</title>
<polygon fill="white" stroke="black" points="422.5,-211 201.5,-211 201.5,-175 422.5,-175 422.5,-211"/>
<text text-anchor="middle" x="312" y="-189.3" font-family="Times,serif" font-size="14.00">PREP: for a few minutes in the pan</text>
</g>
<!-- P7_0_0&#45;&gt;E7 -->
<g id="edge20" class="edge"><title>P7_0_0&#45;&gt;E7</title>
<path fill="none" stroke="black" d="M355.717,-174.923C402.077,-156.814 474.99,-128.332 522.147,-109.912"/>
<polygon fill="black" stroke="black" points="523.468,-113.153 531.509,-106.254 520.921,-106.633 523.468,-113.153"/>
</g>
<!-- P7_1_0 -->
<g id="node22" class="node"><title>P7_1_0</title>
<polygon fill="white" stroke="black" points="695,-211 441,-211 441,-175 695,-175 695,-211"/>
<text text-anchor="middle" x="568" y="-189.3" font-family="Times,serif" font-size="14.00">PREP: before attempting to remove them</text>
</g>
<!-- P7_1_0&#45;&gt;E7 -->
<g id="edge21" class="edge"><title>P7_1_0&#45;&gt;E7</title>
<path fill="none" stroke="black" d="M568,-174.581C568,-159.382 568,-137.067 568,-119.464"/>
<polygon fill="black" stroke="black" points="571.5,-119.219 568,-109.219 564.5,-119.219 571.5,-119.219"/>
</g>
</g>
</svg>
