<?xml version="1.0" encoding="UTF-8" standalone="no"?>
<!DOCTYPE svg PUBLIC "-//W3C//DTD SVG 1.1//EN"
 "http://www.w3.org/Graphics/SVG/1.1/DTD/svg11.dtd">
<!-- Generated by graphviz version 2.38.0 (20140413.2041)
 -->
<!-- Title: recipe Pages: 1 -->
<svg width="2353pt" height="908pt"
 viewBox="0.00 0.00 2352.50 908.00" xmlns="http://www.w3.org/2000/svg" xmlns:xlink="http://www.w3.org/1999/xlink">
<g id="graph0" class="graph" transform="scale(1 1) rotate(0) translate(4 904)">
<title>recipe</title>
<polygon fill="white" stroke="none" points="-4,4 -4,-904 2348.5,-904 2348.5,4 -4,4"/>
<!-- E0 -->
<g id="node1" class="node"><title>E0</title>
<ellipse fill="azure" stroke="black" cx="2185.5" cy="-397" rx="68.7879" ry="18"/>
<text text-anchor="middle" x="2185.5" y="-393.3" font-family="Times,serif" font-size="14.00">preheat (S0,P0)</text>
</g>
<!-- E7 -->
<g id="node8" class="node"><title>E7</title>
<ellipse fill="azure" stroke="black" cx="1622.5" cy="-295" rx="68.7879" ry="18"/>
<text text-anchor="middle" x="1622.5" y="-291.3" font-family="Times,serif" font-size="14.00">bake (S6,P393)</text>
</g>
<!-- E0&#45;&gt;E7 -->
<g id="edge17" class="edge"><title>E0&#45;&gt;E7</title>
<path fill="none" stroke="black" d="M2135.22,-384.692C2126.01,-382.722 2116.48,-380.746 2107.5,-379 1959.04,-350.133 1783.95,-321.495 1690.07,-306.577"/>
<polygon fill="black" stroke="black" points="1690.57,-303.111 1680.14,-305.001 1689.47,-310.025 1690.57,-303.111"/>
<text text-anchor="middle" x="2088" y="-349.8" font-family="Times,serif" font-size="14.00">OUTPUT: </text>
<text text-anchor="middle" x="2088" y="-334.8" font-family="Times,serif" font-size="14.00">INPUT: in the preheated oven</text>
</g>
<!-- E1 -->
<g id="node2" class="node"><title>E1</title>
<ellipse fill="azure" stroke="black" cx="445.5" cy="-806" rx="69.5877" ry="18"/>
<text text-anchor="middle" x="445.5" y="-802.3" font-family="Times,serif" font-size="14.00">whisk (S1,P38)</text>
</g>
<!-- E2 -->
<g id="node3" class="node"><title>E2</title>
<ellipse fill="azure" stroke="black" cx="633.5" cy="-703" rx="63.0888" ry="18"/>
<text text-anchor="middle" x="633.5" y="-699.3" font-family="Times,serif" font-size="14.00">stir (S2,P122)</text>
</g>
<!-- E1&#45;&gt;E2 -->
<g id="edge6" class="edge"><title>E1&#45;&gt;E2</title>
<path fill="none" stroke="black" d="M473.507,-789.312C497.752,-775.799 533.807,-755.868 565.5,-739 575.004,-733.942 585.309,-728.576 594.955,-723.606"/>
<polygon fill="black" stroke="black" points="596.657,-726.667 603.953,-718.985 593.459,-720.44 596.657,-726.667"/>
<text text-anchor="middle" x="597.5" y="-757.8" font-family="Times,serif" font-size="14.00">OUTPUT: </text>
<text text-anchor="middle" x="597.5" y="-742.8" font-family="Times,serif" font-size="14.00">INPUT: </text>
</g>
<!-- E4 -->
<g id="node5" class="node"><title>E4</title>
<ellipse fill="azure" stroke="black" cx="877.5" cy="-601" rx="63.0888" ry="18"/>
<text text-anchor="middle" x="877.5" y="-597.3" font-family="Times,serif" font-size="14.00">stir (S4,P219)</text>
</g>
<!-- E2&#45;&gt;E4 -->
<g id="edge8" class="edge"><title>E2&#45;&gt;E4</title>
<path fill="none" stroke="black" d="M654.248,-685.896C674.097,-671.209 705.386,-649.892 735.5,-637 760.433,-626.325 789.283,-618.465 814.439,-612.929"/>
<polygon fill="black" stroke="black" points="815.19,-616.348 824.244,-610.846 813.735,-609.501 815.19,-616.348"/>
<text text-anchor="middle" x="822" y="-655.8" font-family="Times,serif" font-size="14.00">OUTPUT: </text>
<text text-anchor="middle" x="822" y="-640.8" font-family="Times,serif" font-size="14.00">INPUT: the cornmeal mixture</text>
</g>
<!-- E3 -->
<g id="node4" class="node"><title>E3</title>
<ellipse fill="azure" stroke="black" cx="976.5" cy="-703" rx="74.187" ry="18"/>
<text text-anchor="middle" x="976.5" y="-699.3" font-family="Times,serif" font-size="14.00">whisk (S3,P142)</text>
</g>
<!-- E3&#45;&gt;E4 -->
<g id="edge9" class="edge"><title>E3&#45;&gt;E4</title>
<path fill="none" stroke="black" d="M959.706,-685.036C943.68,-668.849 919.376,-644.299 901.346,-626.087"/>
<polygon fill="black" stroke="black" points="903.569,-623.357 894.046,-618.713 898.594,-628.282 903.569,-623.357"/>
<text text-anchor="middle" x="1036" y="-655.8" font-family="Times,serif" font-size="14.00">OUTPUT: </text>
<text text-anchor="middle" x="1036" y="-640.8" font-family="Times,serif" font-size="14.00">INPUT: into the banana mixture</text>
</g>
<!-- E5 -->
<g id="node6" class="node"><title>E5</title>
<ellipse fill="azure" stroke="black" cx="1042.5" cy="-499" rx="59.5901" ry="18"/>
<text text-anchor="middle" x="1042.5" y="-495.3" font-family="Times,serif" font-size="14.00">let (S4,P265)</text>
</g>
<!-- E4&#45;&gt;E5 -->
<g id="edge10" class="edge"><title>E4&#45;&gt;E5</title>
<path fill="none" stroke="black" d="M882.195,-582.813C887.114,-568.015 896.288,-547.176 911.5,-535 929.669,-520.458 953.341,-511.928 975.557,-506.935"/>
<polygon fill="black" stroke="black" points="976.536,-510.307 985.636,-504.881 975.139,-503.448 976.536,-510.307"/>
<text text-anchor="middle" x="975" y="-553.8" font-family="Times,serif" font-size="14.00">OUTPUT: </text>
<text text-anchor="middle" x="975" y="-538.8" font-family="Times,serif" font-size="14.00">INPUT: the batter rest</text>
</g>
<!-- E6 -->
<g id="node7" class="node"><title>E6</title>
<ellipse fill="azure" stroke="black" cx="1228.5" cy="-397" rx="74.187" ry="18"/>
<text text-anchor="middle" x="1228.5" y="-393.3" font-family="Times,serif" font-size="14.00">spoon (S5,P336)</text>
</g>
<!-- E5&#45;&gt;E6 -->
<g id="edge13" class="edge"><title>E5&#45;&gt;E6</title>
<path fill="none" stroke="black" d="M1058.71,-481.538C1073.81,-467.016 1097.53,-446.169 1121.5,-433 1136.04,-425.013 1152.7,-418.474 1168.48,-413.302"/>
<polygon fill="black" stroke="black" points="1169.67,-416.596 1178.16,-410.257 1167.57,-409.918 1169.67,-416.596"/>
<text text-anchor="middle" x="1173" y="-451.8" font-family="Times,serif" font-size="14.00">OUTPUT: </text>
<text text-anchor="middle" x="1173" y="-436.8" font-family="Times,serif" font-size="14.00">INPUT: the batter</text>
</g>
<!-- E6&#45;&gt;E7 -->
<g id="edge16" class="edge"><title>E6&#45;&gt;E7</title>
<path fill="none" stroke="black" d="M1265.84,-381.289C1304.49,-366.587 1366.88,-344.31 1422.5,-331 1475.8,-318.244 1490.58,-322.842 1544.5,-313 1550.26,-311.948 1556.25,-310.779 1562.23,-309.562"/>
<polygon fill="black" stroke="black" points="1563.17,-312.942 1572.25,-307.479 1561.75,-306.088 1563.17,-312.942"/>
<text text-anchor="middle" x="1454.5" y="-349.8" font-family="Times,serif" font-size="14.00">OUTPUT: </text>
<text text-anchor="middle" x="1454.5" y="-334.8" font-family="Times,serif" font-size="14.00">INPUT: </text>
</g>
<!-- E8 -->
<g id="node9" class="node"><title>E8</title>
<ellipse fill="azure" stroke="black" cx="1458.5" cy="-193" rx="67.6881" ry="18"/>
<text text-anchor="middle" x="1458.5" y="-189.3" font-family="Times,serif" font-size="14.00">cool (S7,P498)</text>
</g>
<!-- E7&#45;&gt;E8 -->
<g id="edge21" class="edge"><title>E7&#45;&gt;E8</title>
<path fill="none" stroke="black" d="M1596.51,-278.155C1568.56,-261.112 1523.98,-233.929 1493.09,-215.089"/>
<polygon fill="black" stroke="black" points="1494.72,-211.989 1484.36,-209.771 1491.08,-217.966 1494.72,-211.989"/>
<text text-anchor="middle" x="1597.5" y="-247.8" font-family="Times,serif" font-size="14.00">OUTPUT: </text>
<text text-anchor="middle" x="1597.5" y="-232.8" font-family="Times,serif" font-size="14.00">INPUT: </text>
</g>
<!-- E9 -->
<g id="node10" class="node"><title>E9</title>
<ellipse fill="azure" stroke="black" cx="1311.5" cy="-91" rx="70.3881" ry="18"/>
<text text-anchor="middle" x="1311.5" y="-87.3" font-family="Times,serif" font-size="14.00">serve (S8,P538)</text>
</g>
<!-- E8&#45;&gt;E9 -->
<g id="edge24" class="edge"><title>E8&#45;&gt;E9</title>
<path fill="none" stroke="black" d="M1434.88,-175.933C1410.13,-159.095 1371.08,-132.534 1343.56,-113.809"/>
<polygon fill="black" stroke="black" points="1345.3,-110.758 1335.06,-108.027 1341.36,-116.545 1345.3,-110.758"/>
<text text-anchor="middle" x="1439.5" y="-145.8" font-family="Times,serif" font-size="14.00">OUTPUT: </text>
<text text-anchor="middle" x="1439.5" y="-130.8" font-family="Times,serif" font-size="14.00">INPUT: </text>
</g>
<!-- EOR -->
<g id="node27" class="node"><title>EOR</title>
<ellipse fill="plum" stroke="black" cx="1311.5" cy="-18" rx="57.3905" ry="18"/>
<text text-anchor="middle" x="1311.5" y="-14.3" font-family="Times,serif" font-size="14.00">Bon appetit!</text>
</g>
<!-- E9&#45;&gt;EOR -->
<g id="edge26" class="edge"><title>E9&#45;&gt;EOR</title>
<path fill="none" stroke="black" d="M1311.5,-72.8129C1311.5,-64.7895 1311.5,-55.0475 1311.5,-46.0691"/>
<polygon fill="black" stroke="black" points="1315,-46.0288 1311.5,-36.0288 1308,-46.0289 1315,-46.0288"/>
</g>
<!-- D3 -->
<g id="node11" class="node"><title>D3</title>
<polygon fill="peachpuff" stroke="black" points="1200.5,-825 752.5,-825 752.5,-787 1200.5,-787 1200.5,-825"/>
<text text-anchor="middle" x="976.5" y="-809.8" font-family="Times,serif" font-size="14.00">DOBJ: vegetable oil, eggs, vanilla extract, buttermilk, very ripe bananas</text>
<text text-anchor="middle" x="976.5" y="-794.8" font-family="Times,serif" font-size="14.00">(text: the mashed bananas , eggs , vegetable oil , vanilla extract , buttermilk)</text>
</g>
<!-- D3&#45;&gt;E3 -->
<g id="edge1" class="edge"><title>D3&#45;&gt;E3</title>
<path fill="none" stroke="black" d="M976.5,-786.943C976.5,-771.531 976.5,-749.127 976.5,-731.488"/>
<polygon fill="black" stroke="black" points="980,-731.226 976.5,-721.226 973,-731.226 980,-731.226"/>
</g>
<!-- O3_0 -->
<g id="node12" class="node"><title>O3_0</title>
<polygon fill="white" stroke="black" points="1338,-824 1219,-824 1219,-788 1338,-788 1338,-824"/>
<text text-anchor="middle" x="1278.5" y="-802.3" font-family="Times,serif" font-size="14.00">OTHER: together</text>
</g>
<!-- O3_0&#45;&gt;E3 -->
<g id="edge2" class="edge"><title>O3_0&#45;&gt;E3</title>
<path fill="none" stroke="black" d="M1227.61,-787.981C1172.11,-769.419 1083.76,-739.873 1028.01,-721.228"/>
<polygon fill="black" stroke="black" points="1028.93,-717.845 1018.34,-717.993 1026.71,-724.484 1028.93,-717.845"/>
</g>
<!-- D1 -->
<g id="node13" class="node"><title>D1</title>
<polygon fill="peachpuff" stroke="black" points="543,-900 0,-900 0,-862 543,-862 543,-900"/>
<text text-anchor="middle" x="271.5" y="-884.8" font-family="Times,serif" font-size="14.00">DOBJ: baking powder, couscous, brown sugar, cornmeal, baking soda, salt</text>
<text text-anchor="middle" x="271.5" y="-869.8" font-family="Times,serif" font-size="14.00">(text: the cornmeal , couscous , brown sugar , baking powder , baking soda , salt in a bowl)</text>
</g>
<!-- D1&#45;&gt;E1 -->
<g id="edge3" class="edge"><title>D1&#45;&gt;E1</title>
<path fill="none" stroke="black" d="M314.511,-861.955C340.863,-850.9 374.52,-836.779 401.119,-825.619"/>
<polygon fill="black" stroke="black" points="402.706,-828.75 410.573,-821.653 399.998,-822.295 402.706,-828.75"/>
</g>
<!-- O1_0 -->
<g id="node14" class="node"><title>O1_0</title>
<polygon fill="white" stroke="black" points="680,-899 561,-899 561,-863 680,-863 680,-899"/>
<text text-anchor="middle" x="620.5" y="-877.3" font-family="Times,serif" font-size="14.00">OTHER: together</text>
</g>
<!-- O1_0&#45;&gt;E1 -->
<g id="edge4" class="edge"><title>O1_0&#45;&gt;E1</title>
<path fill="none" stroke="black" d="M579.47,-862.885C552.63,-851.689 517.573,-837.065 490.052,-825.585"/>
<polygon fill="black" stroke="black" points="491.235,-822.286 480.658,-821.666 488.54,-828.746 491.235,-822.286"/>
</g>
<!-- D0 -->
<g id="node15" class="node"><title>D0</title>
<polygon fill="white" stroke="black" points="2344.5,-517 2026.5,-517 2026.5,-481 2344.5,-481 2344.5,-517"/>
<text text-anchor="middle" x="2185.5" y="-495.3" font-family="Times,serif" font-size="14.00">DOBJ: oven to 400 degrees F &#45;LRB&#45; 200 degrees C</text>
</g>
<!-- D0&#45;&gt;E0 -->
<g id="edge5" class="edge"><title>D0&#45;&gt;E0</title>
<path fill="none" stroke="black" d="M2185.5,-480.581C2185.5,-465.382 2185.5,-443.067 2185.5,-425.464"/>
<polygon fill="black" stroke="black" points="2189,-425.219 2185.5,-415.219 2182,-425.219 2189,-425.219"/>
</g>
<!-- P2_0_ing -->
<g id="node16" class="node"><title>P2_0_ing</title>
<polygon fill="peachpuff" stroke="black" points="734,-825 533,-825 533,-787 734,-787 734,-825"/>
<text text-anchor="middle" x="633.5" y="-809.8" font-family="Times,serif" font-size="14.00">PREP: in chopped dried mango</text>
<text text-anchor="middle" x="633.5" y="-794.8" font-family="Times,serif" font-size="14.00">(text: in the dried mango)</text>
</g>
<!-- P2_0_ing&#45;&gt;E2 -->
<g id="edge7" class="edge"><title>P2_0_ing&#45;&gt;E2</title>
<path fill="none" stroke="black" d="M633.5,-786.943C633.5,-771.531 633.5,-749.127 633.5,-731.488"/>
<polygon fill="black" stroke="black" points="637,-731.226 633.5,-721.226 630,-731.226 637,-731.226"/>
</g>
<!-- O5_0_0 -->
<g id="node17" class="node"><title>O5_0_0</title>
<polygon fill="white" stroke="black" points="1126.5,-619 958.5,-619 958.5,-583 1126.5,-583 1126.5,-619"/>
<text text-anchor="middle" x="1042.5" y="-597.3" font-family="Times,serif" font-size="14.00">OTHER: &#160;about 5 minutes</text>
</g>
<!-- O5_0_0&#45;&gt;E5 -->
<g id="edge11" class="edge"><title>O5_0_0&#45;&gt;E5</title>
<path fill="none" stroke="black" d="M1042.5,-582.581C1042.5,-567.382 1042.5,-545.067 1042.5,-527.464"/>
<polygon fill="black" stroke="black" points="1046,-527.219 1042.5,-517.219 1039,-527.219 1046,-527.219"/>
</g>
<!-- O5_0_1 -->
<g id="node18" class="node"><title>O5_0_1</title>
<polygon fill="white" stroke="black" points="1496.5,-619 1144.5,-619 1144.5,-583 1496.5,-583 1496.5,-619"/>
<text text-anchor="middle" x="1320.5" y="-597.3" font-family="Times,serif" font-size="14.00">OTHER: until the couscous absorbs some of the moisture </text>
</g>
<!-- O5_0_1&#45;&gt;E5 -->
<g id="edge12" class="edge"><title>O5_0_1&#45;&gt;E5</title>
<path fill="none" stroke="black" d="M1273.03,-582.923C1221.6,-564.424 1140.08,-535.1 1089.02,-516.735"/>
<polygon fill="black" stroke="black" points="1090.14,-513.419 1079.55,-513.327 1087.77,-520.005 1090.14,-513.419"/>
</g>
<!-- P6_0_0 -->
<g id="node19" class="node"><title>P6_0_0</title>
<polygon fill="white" stroke="black" points="1337,-517 1120,-517 1120,-481 1337,-481 1337,-517"/>
<text text-anchor="middle" x="1228.5" y="-495.3" font-family="Times,serif" font-size="14.00">PREP: into ungreased muffin cups</text>
</g>
<!-- P6_0_0&#45;&gt;E6 -->
<g id="edge14" class="edge"><title>P6_0_0&#45;&gt;E6</title>
<path fill="none" stroke="black" d="M1228.5,-480.581C1228.5,-465.382 1228.5,-443.067 1228.5,-425.464"/>
<polygon fill="black" stroke="black" points="1232,-425.219 1228.5,-415.219 1225,-425.219 1232,-425.219"/>
</g>
<!-- O6_0_0 -->
<g id="node20" class="node"><title>O6_0_0</title>
<polygon fill="white" stroke="black" points="1540,-517 1355,-517 1355,-481 1540,-481 1540,-517"/>
<text text-anchor="middle" x="1447.5" y="-495.3" font-family="Times,serif" font-size="14.00">OTHER: filling them 2/3 full</text>
</g>
<!-- O6_0_0&#45;&gt;E6 -->
<g id="edge15" class="edge"><title>O6_0_0&#45;&gt;E6</title>
<path fill="none" stroke="black" d="M1409.85,-480.809C1371.24,-463.18 1311.3,-435.809 1271.01,-417.411"/>
<polygon fill="black" stroke="black" points="1272.27,-414.139 1261.72,-413.169 1269.36,-420.506 1272.27,-414.139"/>
</g>
<!-- O7_0_0 -->
<g id="node21" class="node"><title>O7_0_0</title>
<polygon fill="white" stroke="black" points="1516.5,-415 1320.5,-415 1320.5,-379 1516.5,-379 1516.5,-415"/>
<text text-anchor="middle" x="1418.5" y="-393.3" font-family="Times,serif" font-size="14.00">OTHER: until lightly browned</text>
</g>
<!-- O7_0_0&#45;&gt;E7 -->
<g id="edge18" class="edge"><title>O7_0_0&#45;&gt;E7</title>
<path fill="none" stroke="black" d="M1453.57,-378.809C1489.38,-361.255 1544.9,-334.039 1582.43,-315.644"/>
<polygon fill="black" stroke="black" points="1584.12,-318.713 1591.56,-311.169 1581.04,-312.428 1584.12,-318.713"/>
</g>
<!-- O7_1_0 -->
<g id="node22" class="node"><title>O7_1_0</title>
<polygon fill="white" stroke="black" points="1710.5,-415 1534.5,-415 1534.5,-379 1710.5,-379 1710.5,-415"/>
<text text-anchor="middle" x="1622.5" y="-393.3" font-family="Times,serif" font-size="14.00">OTHER: &#160;about 15 minutes</text>
</g>
<!-- O7_1_0&#45;&gt;E7 -->
<g id="edge19" class="edge"><title>O7_1_0&#45;&gt;E7</title>
<path fill="none" stroke="black" d="M1622.5,-378.581C1622.5,-363.382 1622.5,-341.067 1622.5,-323.464"/>
<polygon fill="black" stroke="black" points="1626,-323.219 1622.5,-313.219 1619,-323.219 1626,-323.219"/>
</g>
<!-- O7_1_1 -->
<g id="node23" class="node"><title>O7_1_1</title>
<polygon fill="white" stroke="black" points="2098.5,-415 1728.5,-415 1728.5,-379 2098.5,-379 2098.5,-415"/>
<text text-anchor="middle" x="1913.5" y="-393.3" font-family="Times,serif" font-size="14.00">OTHER: a toothpick inserted into the center comes out clean </text>
</g>
<!-- O7_1_1&#45;&gt;E7 -->
<g id="edge20" class="edge"><title>O7_1_1&#45;&gt;E7</title>
<path fill="none" stroke="black" d="M1863.81,-378.923C1810.32,-360.543 1725.74,-331.477 1672.24,-313.091"/>
<polygon fill="black" stroke="black" points="1673.22,-309.728 1662.62,-309.788 1670.94,-316.348 1673.22,-309.728"/>
</g>
<!-- P8_0_0 -->
<g id="node24" class="node"><title>P8_0_0</title>
<polygon fill="white" stroke="black" points="1362.5,-313 1152.5,-313 1152.5,-277 1362.5,-277 1362.5,-313"/>
<text text-anchor="middle" x="1257.5" y="-291.3" font-family="Times,serif" font-size="14.00">PREP: in the pans for 10 minutes</text>
</g>
<!-- P8_0_0&#45;&gt;E8 -->
<g id="edge22" class="edge"><title>P8_0_0&#45;&gt;E8</title>
<path fill="none" stroke="black" d="M1292.05,-276.809C1327.34,-259.255 1382.04,-232.039 1419.02,-213.644"/>
<polygon fill="black" stroke="black" points="1420.62,-216.757 1428.01,-209.169 1417.5,-210.489 1420.62,-216.757"/>
</g>
<!-- P8_1_0 -->
<g id="node25" class="node"><title>P8_1_0</title>
<polygon fill="white" stroke="black" points="1536,-313 1381,-313 1381,-277 1536,-277 1536,-313"/>
<text text-anchor="middle" x="1458.5" y="-291.3" font-family="Times,serif" font-size="14.00">PREP: before removing</text>
</g>
<!-- P8_1_0&#45;&gt;E8 -->
<g id="edge23" class="edge"><title>P8_1_0&#45;&gt;E8</title>
<path fill="none" stroke="black" d="M1458.5,-276.581C1458.5,-261.382 1458.5,-239.067 1458.5,-221.464"/>
<polygon fill="black" stroke="black" points="1462,-221.219 1458.5,-211.219 1455,-221.219 1462,-221.219"/>
</g>
<!-- O9_0_0 -->
<g id="node26" class="node"><title>O9_0_0</title>
<polygon fill="white" stroke="black" points="1373,-211 1130,-211 1130,-175 1373,-175 1373,-211"/>
<text text-anchor="middle" x="1251.5" y="-189.3" font-family="Times,serif" font-size="14.00">OTHER: warm or at room temperature</text>
</g>
<!-- O9_0_0&#45;&gt;E9 -->
<g id="edge25" class="edge"><title>O9_0_0&#45;&gt;E9</title>
<path fill="none" stroke="black" d="M1261.95,-174.581C1271.39,-158.856 1285.39,-135.516 1296.11,-117.656"/>
<polygon fill="black" stroke="black" points="1299.22,-119.262 1301.37,-108.886 1293.22,-115.66 1299.22,-119.262"/>
</g>
</g>
</svg>
