<?xml version="1.0" encoding="UTF-8" standalone="no"?>
<!DOCTYPE svg PUBLIC "-//W3C//DTD SVG 1.1//EN"
 "http://www.w3.org/Graphics/SVG/1.1/DTD/svg11.dtd">
<!-- Generated by graphviz version 2.38.0 (20140413.2041)
 -->
<!-- Title: recipe Pages: 1 -->
<svg width="1925pt" height="704pt"
 viewBox="0.00 0.00 1924.50 704.00" xmlns="http://www.w3.org/2000/svg" xmlns:xlink="http://www.w3.org/1999/xlink">
<g id="graph0" class="graph" transform="scale(1 1) rotate(0) translate(4 700)">
<title>recipe</title>
<polygon fill="white" stroke="none" points="-4,4 -4,-700 1920.5,-700 1920.5,4 -4,4"/>
<!-- E0 -->
<g id="node1" class="node"><title>E0</title>
<ellipse fill="azure" stroke="black" cx="1757.5" cy="-193" rx="68.7879" ry="18"/>
<text text-anchor="middle" x="1757.5" y="-189.3" font-family="Times,serif" font-size="14.00">preheat (S0,P0)</text>
</g>
<!-- E9 -->
<g id="node10" class="node"><title>E9</title>
<ellipse fill="azure" stroke="black" cx="1365.5" cy="-91" rx="68.7879" ry="18"/>
<text text-anchor="middle" x="1365.5" y="-87.3" font-family="Times,serif" font-size="14.00">bake (S9,P432)</text>
</g>
<!-- E0&#45;&gt;E9 -->
<g id="edge20" class="edge"><title>E0&#45;&gt;E9</title>
<path fill="none" stroke="black" d="M1709.83,-179.838C1637.57,-161.407 1500.56,-126.455 1422.93,-106.651"/>
<polygon fill="black" stroke="black" points="1423.4,-103.158 1412.84,-104.077 1421.67,-109.941 1423.4,-103.158"/>
<text text-anchor="middle" x="1696.5" y="-145.8" font-family="Times,serif" font-size="14.00">OUTPUT: </text>
<text text-anchor="middle" x="1696.5" y="-130.8" font-family="Times,serif" font-size="14.00">INPUT: in preheated oven</text>
</g>
<!-- E1 -->
<g id="node2" class="node"><title>E1</title>
<ellipse fill="azure" stroke="black" cx="294.5" cy="-500" rx="69.5877" ry="18"/>
<text text-anchor="middle" x="294.5" y="-496.3" font-family="Times,serif" font-size="14.00">grease (S1,P45)</text>
</g>
<!-- E5 -->
<g id="node6" class="node"><title>E5</title>
<ellipse fill="azure" stroke="black" cx="518.5" cy="-397" rx="74.187" ry="18"/>
<text text-anchor="middle" x="518.5" y="-393.3" font-family="Times,serif" font-size="14.00">spoon (S5,P251)</text>
</g>
<!-- E1&#45;&gt;E5 -->
<g id="edge11" class="edge"><title>E1&#45;&gt;E5</title>
<path fill="none" stroke="black" d="M294.912,-481.728C296.248,-466.608 300.677,-445.203 314.5,-433 332.702,-416.931 388.534,-408.074 437.194,-403.293"/>
<polygon fill="black" stroke="black" points="437.823,-406.749 447.453,-402.333 437.171,-399.78 437.823,-406.749"/>
<text text-anchor="middle" x="414.5" y="-451.8" font-family="Times,serif" font-size="14.00">OUTPUT: </text>
<text text-anchor="middle" x="414.5" y="-436.8" font-family="Times,serif" font-size="14.00">INPUT: into prepared muffin cups</text>
</g>
<!-- E2 -->
<g id="node3" class="node"><title>E2</title>
<ellipse fill="azure" stroke="black" cx="584.5" cy="-603" rx="61.1893" ry="18"/>
<text text-anchor="middle" x="584.5" y="-599.3" font-family="Times,serif" font-size="14.00">mix (S2,P86)</text>
</g>
<!-- E4 -->
<g id="node5" class="node"><title>E4</title>
<ellipse fill="azure" stroke="black" cx="758.5" cy="-500" rx="63.0888" ry="18"/>
<text text-anchor="middle" x="758.5" y="-496.3" font-family="Times,serif" font-size="14.00">stir (S4,P199)</text>
</g>
<!-- E2&#45;&gt;E4 -->
<g id="edge8" class="edge"><title>E2&#45;&gt;E4</title>
<path fill="none" stroke="black" d="M584.613,-584.918C585.658,-570.188 589.56,-549.391 602.5,-537 615.529,-524.524 655.448,-515.445 691.641,-509.525"/>
<polygon fill="black" stroke="black" points="692.391,-512.95 701.725,-507.939 691.303,-506.035 692.391,-512.95"/>
<text text-anchor="middle" x="679.5" y="-555.8" font-family="Times,serif" font-size="14.00">OUTPUT: </text>
<text text-anchor="middle" x="679.5" y="-540.8" font-family="Times,serif" font-size="14.00">INPUT: into flour mixture</text>
</g>
<!-- E3 -->
<g id="node4" class="node"><title>E3</title>
<ellipse fill="azure" stroke="black" cx="761.5" cy="-603" rx="66.0889" ry="18"/>
<text text-anchor="middle" x="761.5" y="-599.3" font-family="Times,serif" font-size="14.00">beat (S3,P148)</text>
</g>
<!-- E3&#45;&gt;E4 -->
<g id="edge7" class="edge"><title>E3&#45;&gt;E4</title>
<path fill="none" stroke="black" d="M760.991,-584.867C760.532,-569.414 759.849,-546.416 759.314,-528.409"/>
<polygon fill="black" stroke="black" points="762.807,-528.109 759.011,-518.217 755.81,-528.317 762.807,-528.109"/>
<text text-anchor="middle" x="830" y="-555.8" font-family="Times,serif" font-size="14.00">OUTPUT: </text>
<text text-anchor="middle" x="830" y="-540.8" font-family="Times,serif" font-size="14.00">INPUT: banana mixture</text>
</g>
<!-- E6 -->
<g id="node7" class="node"><title>E6</title>
<ellipse fill="azure" stroke="black" cx="758.5" cy="-397" rx="83.3857" ry="18"/>
<text text-anchor="middle" x="758.5" y="-393.3" font-family="Times,serif" font-size="14.00">combine (S6,P285)</text>
</g>
<!-- E4&#45;&gt;E6 -->
<g id="edge13" class="edge"><title>E4&#45;&gt;E6</title>
<path fill="none" stroke="black" d="M758.5,-481.867C758.5,-466.414 758.5,-443.416 758.5,-425.409"/>
<polygon fill="black" stroke="black" points="762,-425.217 758.5,-415.217 755,-425.217 762,-425.217"/>
<text text-anchor="middle" x="843" y="-451.8" font-family="Times,serif" font-size="14.00">OUTPUT: </text>
<text text-anchor="middle" x="843" y="-436.8" font-family="Times,serif" font-size="14.00">INPUT: &#160;2 tablespoons flour </text>
</g>
<!-- E7 -->
<g id="node8" class="node"><title>E7</title>
<ellipse fill="azure" stroke="black" cx="758.5" cy="-295" rx="72.2875" ry="18"/>
<text text-anchor="middle" x="758.5" y="-291.3" font-family="Times,serif" font-size="14.00">blend (S7,P345)</text>
</g>
<!-- E5&#45;&gt;E7 -->
<g id="edge15" class="edge"><title>E5&#45;&gt;E7</title>
<path fill="none" stroke="black" d="M529.44,-379.045C540.1,-363.977 557.71,-342.594 578.5,-331 608.737,-314.138 645.767,-305.286 678.362,-300.681"/>
<polygon fill="black" stroke="black" points="678.858,-304.146 688.323,-299.385 677.955,-297.205 678.858,-304.146"/>
<text text-anchor="middle" x="666.5" y="-349.8" font-family="Times,serif" font-size="14.00">OUTPUT: </text>
<text text-anchor="middle" x="666.5" y="-334.8" font-family="Times,serif" font-size="14.00">INPUT: in 1 tablespoon butter</text>
</g>
<!-- E6&#45;&gt;E7 -->
<g id="edge14" class="edge"><title>E6&#45;&gt;E7</title>
<path fill="none" stroke="black" d="M758.5,-378.581C758.5,-363.382 758.5,-341.067 758.5,-323.464"/>
<polygon fill="black" stroke="black" points="762,-323.219 758.5,-313.219 755,-323.219 762,-323.219"/>
<text text-anchor="middle" x="790.5" y="-349.8" font-family="Times,serif" font-size="14.00">OUTPUT: </text>
<text text-anchor="middle" x="790.5" y="-334.8" font-family="Times,serif" font-size="14.00">INPUT: </text>
</g>
<!-- E8 -->
<g id="node9" class="node"><title>E8</title>
<ellipse fill="azure" stroke="black" cx="898.5" cy="-193" rx="81.4863" ry="18"/>
<text text-anchor="middle" x="898.5" y="-189.3" font-family="Times,serif" font-size="14.00">sprinkle (S8,P405)</text>
</g>
<!-- E7&#45;&gt;E8 -->
<g id="edge17" class="edge"><title>E7&#45;&gt;E8</title>
<path fill="none" stroke="black" d="M780.316,-277.793C798.254,-264.532 824.389,-245.364 847.5,-229 853.525,-224.734 859.993,-220.235 866.23,-215.935"/>
<polygon fill="black" stroke="black" points="868.266,-218.783 874.53,-210.237 864.304,-213.012 868.266,-218.783"/>
<text text-anchor="middle" x="879.5" y="-247.8" font-family="Times,serif" font-size="14.00">OUTPUT: </text>
<text text-anchor="middle" x="879.5" y="-232.8" font-family="Times,serif" font-size="14.00">INPUT: </text>
</g>
<!-- E8&#45;&gt;E9 -->
<g id="edge19" class="edge"><title>E8&#45;&gt;E9</title>
<path fill="none" stroke="black" d="M941.205,-177.597C985.755,-163.035 1057.85,-140.77 1121.5,-127 1178.51,-114.667 1243.99,-105.545 1292.75,-99.7106"/>
<polygon fill="black" stroke="black" points="1293.37,-103.162 1302.89,-98.5156 1292.55,-96.2098 1293.37,-103.162"/>
<text text-anchor="middle" x="1153.5" y="-145.8" font-family="Times,serif" font-size="14.00">OUTPUT: </text>
<text text-anchor="middle" x="1153.5" y="-130.8" font-family="Times,serif" font-size="14.00">INPUT: </text>
</g>
<!-- EOR -->
<g id="node25" class="node"><title>EOR</title>
<ellipse fill="plum" stroke="black" cx="1365.5" cy="-18" rx="57.3905" ry="18"/>
<text text-anchor="middle" x="1365.5" y="-14.3" font-family="Times,serif" font-size="14.00">Bon appetit!</text>
</g>
<!-- E9&#45;&gt;EOR -->
<g id="edge24" class="edge"><title>E9&#45;&gt;EOR</title>
<path fill="none" stroke="black" d="M1365.5,-72.8129C1365.5,-64.7895 1365.5,-55.0475 1365.5,-46.0691"/>
<polygon fill="black" stroke="black" points="1369,-46.0288 1365.5,-36.0288 1362,-46.0289 1369,-46.0288"/>
</g>
<!-- D0 -->
<g id="node11" class="node"><title>D0</title>
<polygon fill="white" stroke="black" points="1916.5,-313 1598.5,-313 1598.5,-277 1916.5,-277 1916.5,-313"/>
<text text-anchor="middle" x="1757.5" y="-291.3" font-family="Times,serif" font-size="14.00">DOBJ: oven to 375 degrees F &#45;LRB&#45; 190 degrees C</text>
</g>
<!-- D0&#45;&gt;E0 -->
<g id="edge1" class="edge"><title>D0&#45;&gt;E0</title>
<path fill="none" stroke="black" d="M1757.5,-276.581C1757.5,-261.382 1757.5,-239.067 1757.5,-221.464"/>
<polygon fill="black" stroke="black" points="1761,-221.219 1757.5,-211.219 1754,-221.219 1761,-221.219"/>
</g>
<!-- D2 -->
<g id="node12" class="node"><title>D2</title>
<polygon fill="peachpuff" stroke="black" points="687,-696 236,-696 236,-658 687,-658 687,-696"/>
<text text-anchor="middle" x="461.5" y="-680.8" font-family="Times,serif" font-size="14.00">DOBJ: baking powder, all&#45;purpose flour, baking soda, salt</text>
<text text-anchor="middle" x="461.5" y="-665.8" font-family="Times,serif" font-size="14.00">(text: 1Ê1/2 cups flour , baking soda , baking powder , salt in a large bowl)</text>
</g>
<!-- D2&#45;&gt;E2 -->
<g id="edge2" class="edge"><title>D2&#45;&gt;E2</title>
<path fill="none" stroke="black" d="M492.538,-657.831C509.749,-647.756 531.219,-635.189 549.085,-624.731"/>
<polygon fill="black" stroke="black" points="551.195,-627.551 558.057,-619.479 547.658,-621.51 551.195,-627.551"/>
</g>
<!-- D1 -->
<g id="node13" class="node"><title>D1</title>
<polygon fill="white" stroke="black" points="189,-621 0,-621 0,-585 189,-585 189,-621"/>
<text text-anchor="middle" x="94.5" y="-599.3" font-family="Times,serif" font-size="14.00">DOBJ: 10 muffin cups or line</text>
</g>
<!-- D1&#45;&gt;E1 -->
<g id="edge3" class="edge"><title>D1&#45;&gt;E1</title>
<path fill="none" stroke="black" d="M128.427,-584.867C163.564,-567.122 218.401,-539.43 255.352,-520.77"/>
<polygon fill="black" stroke="black" points="256.989,-523.864 264.338,-516.232 253.834,-517.615 256.989,-523.864"/>
</g>
<!-- P1_0 -->
<g id="node14" class="node"><title>P1_0</title>
<polygon fill="white" stroke="black" points="377.5,-621 207.5,-621 207.5,-585 377.5,-585 377.5,-621"/>
<text text-anchor="middle" x="292.5" y="-599.3" font-family="Times,serif" font-size="14.00">PREP: with muffin papers</text>
</g>
<!-- P1_0&#45;&gt;E1 -->
<g id="edge4" class="edge"><title>P1_0&#45;&gt;E1</title>
<path fill="none" stroke="black" d="M292.839,-584.867C293.145,-569.414 293.601,-546.416 293.957,-528.409"/>
<polygon fill="black" stroke="black" points="297.46,-528.285 294.159,-518.217 290.462,-528.146 297.46,-528.285"/>
</g>
<!-- O1_0 -->
<g id="node15" class="node"><title>O1_0</title>
<polygon fill="white" stroke="black" points="505.5,-621 395.5,-621 395.5,-585 505.5,-585 505.5,-621"/>
<text text-anchor="middle" x="450.5" y="-599.3" font-family="Times,serif" font-size="14.00">OTHER: lightly</text>
</g>
<!-- O1_0&#45;&gt;E1 -->
<g id="edge5" class="edge"><title>O1_0&#45;&gt;E1</title>
<path fill="none" stroke="black" d="M424.037,-584.867C397.409,-567.627 356.278,-540.998 327.528,-522.384"/>
<polygon fill="black" stroke="black" points="329.33,-519.38 319.033,-516.884 325.525,-525.256 329.33,-519.38"/>
</g>
<!-- D3 -->
<g id="node16" class="node"><title>D3</title>
<polygon fill="peachpuff" stroke="black" points="1061.5,-696 705.5,-696 705.5,-658 1061.5,-658 1061.5,-696"/>
<text text-anchor="middle" x="883.5" y="-680.8" font-family="Times,serif" font-size="14.00">DOBJ: white sugar, butter, bananas, egg</text>
<text text-anchor="middle" x="883.5" y="-665.8" font-family="Times,serif" font-size="14.00">(text: bananas , sugar , egg , melted butter in another bowl)</text>
</g>
<!-- D3&#45;&gt;E3 -->
<g id="edge6" class="edge"><title>D3&#45;&gt;E3</title>
<path fill="none" stroke="black" d="M852.714,-657.831C835.763,-647.827 814.647,-635.366 797.002,-624.952"/>
<polygon fill="black" stroke="black" points="798.523,-621.786 788.132,-619.717 794.965,-627.814 798.523,-621.786"/>
</g>
<!-- O4_0_0 -->
<g id="node17" class="node"><title>O4_0_0</title>
<polygon fill="white" stroke="black" points="1031,-621 846,-621 846,-585 1031,-585 1031,-621"/>
<text text-anchor="middle" x="938.5" y="-599.3" font-family="Times,serif" font-size="14.00">OTHER: just until moistened</text>
</g>
<!-- O4_0_0&#45;&gt;E4 -->
<g id="edge9" class="edge"><title>O4_0_0&#45;&gt;E4</title>
<path fill="none" stroke="black" d="M933.589,-584.734C928.474,-569.884 919,-549.012 903.5,-537 877.087,-516.53 862.931,-527.052 830.5,-519 825.185,-517.68 819.651,-516.303 814.116,-514.923"/>
<polygon fill="black" stroke="black" points="814.751,-511.474 804.201,-512.449 813.056,-518.266 814.751,-511.474"/>
</g>
<!-- D5_0 -->
<g id="node18" class="node"><title>D5_0</title>
<polygon fill="white" stroke="black" points="564.5,-518 472.5,-518 472.5,-482 564.5,-482 564.5,-518"/>
<text text-anchor="middle" x="518.5" y="-496.3" font-family="Times,serif" font-size="14.00">DOBJ: batter</text>
</g>
<!-- D5_0&#45;&gt;E5 -->
<g id="edge10" class="edge"><title>D5_0&#45;&gt;E5</title>
<path fill="none" stroke="black" d="M518.5,-481.867C518.5,-466.414 518.5,-443.416 518.5,-425.409"/>
<polygon fill="black" stroke="black" points="522,-425.217 518.5,-415.217 515,-425.217 522,-425.217"/>
</g>
<!-- D6_ing -->
<g id="node19" class="node"><title>D6_ing</title>
<polygon fill="peachpuff" stroke="black" points="1131.5,-519 839.5,-519 839.5,-481 1131.5,-481 1131.5,-519"/>
<text text-anchor="middle" x="985.5" y="-503.8" font-family="Times,serif" font-size="14.00">DOBJ: ground cinnamon, packed brown sugar</text>
<text text-anchor="middle" x="985.5" y="-488.8" font-family="Times,serif" font-size="14.00">(text: &#160;cinnamon in a small bowl, brown sugar )</text>
</g>
<!-- D6_ing&#45;&gt;E6 -->
<g id="edge12" class="edge"><title>D6_ing&#45;&gt;E6</title>
<path fill="none" stroke="black" d="M975.548,-480.923C966.197,-465.705 950.774,-444.615 931.5,-433 926.885,-430.219 875.1,-419.925 829.381,-411.215"/>
<polygon fill="black" stroke="black" points="829.914,-407.754 819.436,-409.327 828.608,-414.631 829.914,-407.754"/>
</g>
<!-- O7_0_0 -->
<g id="node20" class="node"><title>O7_0_0</title>
<polygon fill="white" stroke="black" points="1163.5,-415 859.5,-415 859.5,-379 1163.5,-379 1163.5,-415"/>
<text text-anchor="middle" x="1011.5" y="-393.3" font-family="Times,serif" font-size="14.00">OTHER: until mixture resembles coarse cornmeal</text>
</g>
<!-- O7_0_0&#45;&gt;E7 -->
<g id="edge16" class="edge"><title>O7_0_0&#45;&gt;E7</title>
<path fill="none" stroke="black" d="M968.295,-378.923C922.838,-360.956 851.548,-332.778 804.917,-314.347"/>
<polygon fill="black" stroke="black" points="805.945,-310.99 795.359,-310.569 803.372,-317.5 805.945,-310.99"/>
</g>
<!-- O8_0_0 -->
<g id="node21" class="node"><title>O8_0_0</title>
<polygon fill="white" stroke="black" points="1042.5,-313 848.5,-313 848.5,-277 1042.5,-277 1042.5,-313"/>
<text text-anchor="middle" x="945.5" y="-291.3" font-family="Times,serif" font-size="14.00">OTHER: topping over muffins</text>
</g>
<!-- O8_0_0&#45;&gt;E8 -->
<g id="edge18" class="edge"><title>O8_0_0&#45;&gt;E8</title>
<path fill="none" stroke="black" d="M937.313,-276.581C930.035,-261.095 919.285,-238.222 910.942,-220.473"/>
<polygon fill="black" stroke="black" points="914.014,-218.781 906.593,-211.219 907.679,-221.758 914.014,-218.781"/>
</g>
<!-- P9_1_0 -->
<g id="node22" class="node"><title>P9_1_0</title>
<polygon fill="white" stroke="black" points="1189,-211 998,-211 998,-175 1189,-175 1189,-211"/>
<text text-anchor="middle" x="1093.5" y="-189.3" font-family="Times,serif" font-size="14.00">PREP: until &#160;18 to 20 minutes</text>
</g>
<!-- P9_1_0&#45;&gt;E9 -->
<g id="edge21" class="edge"><title>P9_1_0&#45;&gt;E9</title>
<path fill="none" stroke="black" d="M1139.95,-174.923C1189.45,-156.724 1267.45,-128.048 1317.53,-109.637"/>
<polygon fill="black" stroke="black" points="1318.98,-112.834 1327.15,-106.098 1316.56,-106.264 1318.98,-112.834"/>
</g>
<!-- P9_1_1 -->
<g id="node23" class="node"><title>P9_1_1</title>
<polygon fill="white" stroke="black" points="1523.5,-211 1207.5,-211 1207.5,-175 1523.5,-175 1523.5,-211"/>
<text text-anchor="middle" x="1365.5" y="-189.3" font-family="Times,serif" font-size="14.00">PREP: until &#160;tops spring back when lightly pressed </text>
</g>
<!-- P9_1_1&#45;&gt;E9 -->
<g id="edge22" class="edge"><title>P9_1_1&#45;&gt;E9</title>
<path fill="none" stroke="black" d="M1365.5,-174.581C1365.5,-159.382 1365.5,-137.067 1365.5,-119.464"/>
<polygon fill="black" stroke="black" points="1369,-119.219 1365.5,-109.219 1362,-119.219 1369,-119.219"/>
</g>
<!-- P9_1_2 -->
<g id="node24" class="node"><title>P9_1_2</title>
<polygon fill="white" stroke="black" points="1671,-211 1542,-211 1542,-175 1671,-175 1671,-211"/>
<text text-anchor="middle" x="1606.5" y="-189.3" font-family="Times,serif" font-size="14.00">PREP: until golden</text>
</g>
<!-- P9_1_2&#45;&gt;E9 -->
<g id="edge23" class="edge"><title>P9_1_2&#45;&gt;E9</title>
<path fill="none" stroke="black" d="M1565.34,-174.923C1522.13,-156.993 1454.42,-128.896 1409.99,-110.462"/>
<polygon fill="black" stroke="black" points="1411.19,-107.169 1400.61,-106.569 1408.51,-113.634 1411.19,-107.169"/>
</g>
</g>
</svg>
