<?xml version="1.0" encoding="UTF-8" standalone="no"?>
<!DOCTYPE svg PUBLIC "-//W3C//DTD SVG 1.1//EN"
 "http://www.w3.org/Graphics/SVG/1.1/DTD/svg11.dtd">
<!-- Generated by graphviz version 2.38.0 (20140413.2041)
 -->
<!-- Title: recipe Pages: 1 -->
<svg width="2398pt" height="1112pt"
 viewBox="0.00 0.00 2397.50 1112.00" xmlns="http://www.w3.org/2000/svg" xmlns:xlink="http://www.w3.org/1999/xlink">
<g id="graph0" class="graph" transform="scale(1 1) rotate(0) translate(4 1108)">
<title>recipe</title>
<polygon fill="white" stroke="none" points="-4,4 -4,-1108 2393.5,-1108 2393.5,4 -4,4"/>
<!-- E0 -->
<g id="node1" class="node"><title>E0</title>
<ellipse fill="azure" stroke="black" cx="2230.5" cy="-295" rx="68.7879" ry="18"/>
<text text-anchor="middle" x="2230.5" y="-291.3" font-family="Times,serif" font-size="14.00">preheat (S0,P0)</text>
</g>
<!-- E10 -->
<g id="node11" class="node"><title>E10</title>
<ellipse fill="azure" stroke="black" cx="1878.5" cy="-193" rx="73.387" ry="18"/>
<text text-anchor="middle" x="1878.5" y="-189.3" font-family="Times,serif" font-size="14.00">bake (S10,P390)</text>
</g>
<!-- E0&#45;&gt;E10 -->
<g id="edge22" class="edge"><title>E0&#45;&gt;E10</title>
<path fill="none" stroke="black" d="M2185.56,-281.233C2121.52,-263.041 2004.08,-229.677 1934.48,-209.903"/>
<polygon fill="black" stroke="black" points="1935.14,-206.453 1924.57,-207.087 1933.23,-213.187 1935.14,-206.453"/>
<text text-anchor="middle" x="2193" y="-247.8" font-family="Times,serif" font-size="14.00">OUTPUT: </text>
<text text-anchor="middle" x="2193" y="-232.8" font-family="Times,serif" font-size="14.00">INPUT: in the preheated oven</text>
</g>
<!-- E1 -->
<g id="node2" class="node"><title>E1</title>
<ellipse fill="azure" stroke="black" cx="886.5" cy="-1013" rx="69.5877" ry="18"/>
<text text-anchor="middle" x="886.5" y="-1009.3" font-family="Times,serif" font-size="14.00">grease (S1,P38)</text>
</g>
<!-- E3 -->
<g id="node4" class="node"><title>E3</title>
<ellipse fill="azure" stroke="black" cx="886.5" cy="-910" rx="71.4873" ry="18"/>
<text text-anchor="middle" x="886.5" y="-906.3" font-family="Times,serif" font-size="14.00">make (S3,P172)</text>
</g>
<!-- E1&#45;&gt;E3 -->
<g id="edge7" class="edge"><title>E1&#45;&gt;E3</title>
<path fill="none" stroke="black" d="M886.5,-994.867C886.5,-979.414 886.5,-956.416 886.5,-938.409"/>
<polygon fill="black" stroke="black" points="890,-938.217 886.5,-928.217 883,-938.217 890,-938.217"/>
<text text-anchor="middle" x="966" y="-965.8" font-family="Times,serif" font-size="14.00">OUTPUT: </text>
<text text-anchor="middle" x="966" y="-950.8" font-family="Times,serif" font-size="14.00">INPUT: a well in the center</text>
</g>
<!-- E2 -->
<g id="node3" class="node"><title>E2</title>
<ellipse fill="azure" stroke="black" cx="730.5" cy="-703" rx="57.6901" ry="18"/>
<text text-anchor="middle" x="730.5" y="-699.3" font-family="Times,serif" font-size="14.00">stir (S2,P78)</text>
</g>
<!-- E6 -->
<g id="node7" class="node"><title>E6</title>
<ellipse fill="azure" stroke="black" cx="930.5" cy="-601" rx="69.5877" ry="18"/>
<text text-anchor="middle" x="930.5" y="-597.3" font-family="Times,serif" font-size="14.00">pour (S6,P270)</text>
</g>
<!-- E2&#45;&gt;E6 -->
<g id="edge12" class="edge"><title>E2&#45;&gt;E6</title>
<path fill="none" stroke="black" d="M744.833,-685.5C758.507,-670.746 780.395,-649.569 803.5,-637 822.233,-626.81 844.168,-619.4 864.487,-614.096"/>
<polygon fill="black" stroke="black" points="865.448,-617.464 874.311,-611.659 863.762,-610.67 865.448,-617.464"/>
<text text-anchor="middle" x="878" y="-655.8" font-family="Times,serif" font-size="14.00">OUTPUT: </text>
<text text-anchor="middle" x="878" y="-640.8" font-family="Times,serif" font-size="14.00">INPUT: moist ingredients</text>
</g>
<!-- E4 -->
<g id="node5" class="node"><title>E4</title>
<ellipse fill="azure" stroke="black" cx="1003.5" cy="-806" rx="74.187" ry="18"/>
<text text-anchor="middle" x="1003.5" y="-802.3" font-family="Times,serif" font-size="14.00">whisk (S4,P193)</text>
</g>
<!-- E3&#45;&gt;E4 -->
<g id="edge9" class="edge"><title>E3&#45;&gt;E4</title>
<path fill="none" stroke="black" d="M889.338,-891.731C892.587,-877.03 899.273,-856.246 912.5,-843 920.941,-834.547 931.61,-828.021 942.646,-823.002"/>
<polygon fill="black" stroke="black" points="944.071,-826.201 951.963,-819.131 941.385,-819.736 944.071,-826.201"/>
<text text-anchor="middle" x="970.5" y="-861.8" font-family="Times,serif" font-size="14.00">OUTPUT: </text>
<text text-anchor="middle" x="970.5" y="-846.8" font-family="Times,serif" font-size="14.00">INPUT: until frothy</text>
</g>
<!-- E5 -->
<g id="node6" class="node"><title>E5</title>
<ellipse fill="azure" stroke="black" cx="1003.5" cy="-703" rx="65.7887" ry="18"/>
<text text-anchor="middle" x="1003.5" y="-699.3" font-family="Times,serif" font-size="14.00">mix (S5,P229)</text>
</g>
<!-- E4&#45;&gt;E5 -->
<g id="edge11" class="edge"><title>E4&#45;&gt;E5</title>
<path fill="none" stroke="black" d="M1003.5,-787.867C1003.5,-772.414 1003.5,-749.416 1003.5,-731.409"/>
<polygon fill="black" stroke="black" points="1007,-731.217 1003.5,-721.217 1000,-731.217 1007,-731.217"/>
<text text-anchor="middle" x="1055" y="-757.8" font-family="Times,serif" font-size="14.00">OUTPUT: </text>
<text text-anchor="middle" x="1055" y="-742.8" font-family="Times,serif" font-size="14.00">INPUT: into eggs</text>
</g>
<!-- E5&#45;&gt;E6 -->
<g id="edge13" class="edge"><title>E5&#45;&gt;E6</title>
<path fill="none" stroke="black" d="M991.117,-685.036C979.58,-669.234 962.227,-645.461 949.04,-627.397"/>
<polygon fill="black" stroke="black" points="951.667,-625.06 942.944,-619.047 946.013,-629.187 951.667,-625.06"/>
<text text-anchor="middle" x="1099.5" y="-655.8" font-family="Times,serif" font-size="14.00">OUTPUT: </text>
<text text-anchor="middle" x="1099.5" y="-640.8" font-family="Times,serif" font-size="14.00">INPUT: into well made in dry ingredients</text>
</g>
<!-- E7 -->
<g id="node8" class="node"><title>E7</title>
<ellipse fill="azure" stroke="black" cx="1077.5" cy="-499" rx="63.0888" ry="18"/>
<text text-anchor="middle" x="1077.5" y="-495.3" font-family="Times,serif" font-size="14.00">stir (S7,P319)</text>
</g>
<!-- E6&#45;&gt;E7 -->
<g id="edge14" class="edge"><title>E6&#45;&gt;E7</title>
<path fill="none" stroke="black" d="M948.469,-583.328C963.946,-569.442 987.243,-549.643 1009.5,-535 1017.99,-529.417 1027.47,-524.046 1036.6,-519.258"/>
<polygon fill="black" stroke="black" points="1038.25,-522.345 1045.57,-514.678 1035.07,-516.111 1038.25,-522.345"/>
<text text-anchor="middle" x="1041.5" y="-553.8" font-family="Times,serif" font-size="14.00">OUTPUT: </text>
<text text-anchor="middle" x="1041.5" y="-538.8" font-family="Times,serif" font-size="14.00">INPUT: </text>
</g>
<!-- E8 -->
<g id="node9" class="node"><title>E8</title>
<ellipse fill="azure" stroke="black" cx="1195.5" cy="-397" rx="72.2875" ry="18"/>
<text text-anchor="middle" x="1195.5" y="-393.3" font-family="Times,serif" font-size="14.00">batter (S8,P337)</text>
</g>
<!-- E7&#45;&gt;E8 -->
<g id="edge17" class="edge"><title>E7&#45;&gt;E8</title>
<path fill="none" stroke="black" d="M1092.42,-481.306C1105.08,-467.588 1124.08,-448.035 1142.5,-433 1148.2,-428.35 1154.52,-423.748 1160.76,-419.484"/>
<polygon fill="black" stroke="black" points="1162.76,-422.358 1169.15,-413.906 1158.89,-416.529 1162.76,-422.358"/>
<text text-anchor="middle" x="1174.5" y="-451.8" font-family="Times,serif" font-size="14.00">OUTPUT: </text>
<text text-anchor="middle" x="1174.5" y="-436.8" font-family="Times,serif" font-size="14.00">INPUT: </text>
</g>
<!-- E9 -->
<g id="node10" class="node"><title>E9</title>
<ellipse fill="azure" stroke="black" cx="1366.5" cy="-295" rx="61.99" ry="18"/>
<text text-anchor="middle" x="1366.5" y="-291.3" font-family="Times,serif" font-size="14.00">fill (S9,P355)</text>
</g>
<!-- E8&#45;&gt;E9 -->
<g id="edge19" class="edge"><title>E8&#45;&gt;E9</title>
<path fill="none" stroke="black" d="M1222.6,-380.155C1252.04,-362.938 1299.17,-335.373 1331.42,-316.515"/>
<polygon fill="black" stroke="black" points="1333.23,-319.512 1340.09,-311.443 1329.69,-313.469 1333.23,-319.512"/>
<text text-anchor="middle" x="1338.5" y="-349.8" font-family="Times,serif" font-size="14.00">OUTPUT: </text>
<text text-anchor="middle" x="1338.5" y="-334.8" font-family="Times,serif" font-size="14.00">INPUT: </text>
</g>
<!-- E9&#45;&gt;E10 -->
<g id="edge21" class="edge"><title>E9&#45;&gt;E10</title>
<path fill="none" stroke="black" d="M1411.87,-282.771C1420.37,-280.772 1429.19,-278.766 1437.5,-277 1551.58,-252.746 1580.75,-249.899 1695.5,-229 1740.36,-220.83 1751.73,-219.629 1796.5,-211 1802.35,-209.872 1808.43,-208.669 1814.52,-207.444"/>
<polygon fill="black" stroke="black" points="1815.63,-210.792 1824.73,-205.372 1814.23,-203.932 1815.63,-210.792"/>
<text text-anchor="middle" x="1727.5" y="-247.8" font-family="Times,serif" font-size="14.00">OUTPUT: </text>
<text text-anchor="middle" x="1727.5" y="-232.8" font-family="Times,serif" font-size="14.00">INPUT: </text>
</g>
<!-- E11 -->
<g id="node12" class="node"><title>E11</title>
<ellipse fill="azure" stroke="black" cx="1619.5" cy="-91" rx="72.2875" ry="18"/>
<text text-anchor="middle" x="1619.5" y="-87.3" font-family="Times,serif" font-size="14.00">cool (S11,P492)</text>
</g>
<!-- E10&#45;&gt;E11 -->
<g id="edge25" class="edge"><title>E10&#45;&gt;E11</title>
<path fill="none" stroke="black" d="M1840.84,-177.459C1794.8,-159.685 1716.87,-129.593 1666.82,-110.272"/>
<polygon fill="black" stroke="black" points="1667.8,-106.895 1657.21,-106.558 1665.27,-113.425 1667.8,-106.895"/>
<text text-anchor="middle" x="1819.5" y="-145.8" font-family="Times,serif" font-size="14.00">OUTPUT: </text>
<text text-anchor="middle" x="1819.5" y="-130.8" font-family="Times,serif" font-size="14.00">INPUT: </text>
</g>
<!-- EOR -->
<g id="node29" class="node"><title>EOR</title>
<ellipse fill="plum" stroke="black" cx="1619.5" cy="-18" rx="57.3905" ry="18"/>
<text text-anchor="middle" x="1619.5" y="-14.3" font-family="Times,serif" font-size="14.00">Bon appetit!</text>
</g>
<!-- E11&#45;&gt;EOR -->
<g id="edge28" class="edge"><title>E11&#45;&gt;EOR</title>
<path fill="none" stroke="black" d="M1619.5,-72.8129C1619.5,-64.7895 1619.5,-55.0475 1619.5,-46.0691"/>
<polygon fill="black" stroke="black" points="1623,-46.0288 1619.5,-36.0288 1616,-46.0289 1623,-46.0288"/>
</g>
<!-- D2 -->
<g id="node13" class="node"><title>D2</title>
<polygon fill="peachpuff" stroke="black" points="641,-825 0,-825 0,-787 641,-787 641,-825"/>
<text text-anchor="middle" x="320.5" y="-809.8" font-family="Times,serif" font-size="14.00">DOBJ: baking powder, semi&#45;sweet chocolate chips, white sugar, rolled oats, whole wheat flour, baking soda</text>
<text text-anchor="middle" x="320.5" y="-794.8" font-family="Times,serif" font-size="14.00">(text: whole wheat flour , rolled oats , sugar , baking powder , baking soda , chocolate chips)</text>
</g>
<!-- D2&#45;&gt;E2 -->
<g id="edge1" class="edge"><title>D2&#45;&gt;E2</title>
<path fill="none" stroke="black" d="M393.8,-786.943C475.085,-766.919 604.276,-735.094 676.717,-717.249"/>
<polygon fill="black" stroke="black" points="677.679,-720.617 686.551,-714.826 676.004,-713.82 677.679,-720.617"/>
</g>
<!-- P2_0 -->
<g id="node14" class="node"><title>P2_0</title>
<polygon fill="white" stroke="black" points="773.5,-824 659.5,-824 659.5,-788 773.5,-788 773.5,-824"/>
<text text-anchor="middle" x="716.5" y="-802.3" font-family="Times,serif" font-size="14.00">PREP: in a bowl</text>
</g>
<!-- P2_0&#45;&gt;E2 -->
<g id="edge2" class="edge"><title>P2_0&#45;&gt;E2</title>
<path fill="none" stroke="black" d="M718.875,-787.867C721.027,-772.341 724.235,-749.2 726.736,-731.156"/>
<polygon fill="black" stroke="black" points="730.207,-731.603 728.113,-721.217 723.273,-730.642 730.207,-731.603"/>
</g>
<!-- O2_0 -->
<g id="node15" class="node"><title>O2_0</title>
<polygon fill="white" stroke="black" points="911,-824 792,-824 792,-788 911,-788 911,-824"/>
<text text-anchor="middle" x="851.5" y="-802.3" font-family="Times,serif" font-size="14.00">OTHER: together</text>
</g>
<!-- O2_0&#45;&gt;E2 -->
<g id="edge3" class="edge"><title>O2_0&#45;&gt;E2</title>
<path fill="none" stroke="black" d="M830.974,-787.867C810.797,-771.025 779.883,-745.221 757.676,-726.684"/>
<polygon fill="black" stroke="black" points="759.844,-723.935 749.924,-720.213 755.358,-729.308 759.844,-723.935"/>
</g>
<!-- D0 -->
<g id="node16" class="node"><title>D0</title>
<polygon fill="white" stroke="black" points="2389.5,-415 2071.5,-415 2071.5,-379 2389.5,-379 2389.5,-415"/>
<text text-anchor="middle" x="2230.5" y="-393.3" font-family="Times,serif" font-size="14.00">DOBJ: oven to 400 degrees F &#45;LRB&#45; 200 degrees C</text>
</g>
<!-- D0&#45;&gt;E0 -->
<g id="edge4" class="edge"><title>D0&#45;&gt;E0</title>
<path fill="none" stroke="black" d="M2230.5,-378.581C2230.5,-363.382 2230.5,-341.067 2230.5,-323.464"/>
<polygon fill="black" stroke="black" points="2234,-323.219 2230.5,-313.219 2227,-323.219 2234,-323.219"/>
</g>
<!-- D1 -->
<g id="node17" class="node"><title>D1</title>
<polygon fill="white" stroke="black" points="886,-1104 697,-1104 697,-1068 886,-1068 886,-1104"/>
<text text-anchor="middle" x="791.5" y="-1082.3" font-family="Times,serif" font-size="14.00">DOBJ: 12 muffin cups or line</text>
</g>
<!-- D1&#45;&gt;E1 -->
<g id="edge5" class="edge"><title>D1&#45;&gt;E1</title>
<path fill="none" stroke="black" d="M814.497,-1067.81C827.139,-1058.36 842.97,-1046.53 856.566,-1036.37"/>
<polygon fill="black" stroke="black" points="858.779,-1039.09 864.694,-1030.3 854.588,-1033.48 858.779,-1039.09"/>
</g>
<!-- P1_0 -->
<g id="node18" class="node"><title>P1_0</title>
<polygon fill="white" stroke="black" points="1061,-1104 904,-1104 904,-1068 1061,-1068 1061,-1104"/>
<text text-anchor="middle" x="982.5" y="-1082.3" font-family="Times,serif" font-size="14.00">PREP: with paper liners</text>
</g>
<!-- P1_0&#45;&gt;E1 -->
<g id="edge6" class="edge"><title>P1_0&#45;&gt;E1</title>
<path fill="none" stroke="black" d="M959.261,-1067.81C946.486,-1058.36 930.488,-1046.53 916.749,-1036.37"/>
<polygon fill="black" stroke="black" points="918.657,-1033.43 908.536,-1030.3 914.494,-1039.06 918.657,-1033.43"/>
</g>
<!-- D4_ing -->
<g id="node19" class="node"><title>D4_ing</title>
<polygon fill="peachpuff" stroke="black" points="1163.5,-929 975.5,-929 975.5,-891 1163.5,-891 1163.5,-929"/>
<text text-anchor="middle" x="1069.5" y="-913.8" font-family="Times,serif" font-size="14.00">DOBJ: large eggs</text>
<text text-anchor="middle" x="1069.5" y="-898.8" font-family="Times,serif" font-size="14.00">(text: eggs in a separate bowl)</text>
</g>
<!-- D4_ing&#45;&gt;E4 -->
<g id="edge8" class="edge"><title>D4_ing&#45;&gt;E4</title>
<path fill="none" stroke="black" d="M1060.39,-890.87C1053.33,-877.332 1043.02,-858.561 1032.5,-843 1029.95,-839.233 1027.11,-835.37 1024.23,-831.639"/>
<polygon fill="black" stroke="black" points="1026.94,-829.412 1017.97,-823.767 1021.46,-833.771 1026.94,-829.412"/>
</g>
<!-- D5_ing -->
<g id="node20" class="node"><title>D5_ing</title>
<polygon fill="peachpuff" stroke="black" points="1455,-825 1096,-825 1096,-787 1455,-787 1455,-825"/>
<text text-anchor="middle" x="1275.5" y="-809.8" font-family="Times,serif" font-size="14.00">DOBJ: skim milk, mashed banana, unsweetened applesauce</text>
<text text-anchor="middle" x="1275.5" y="-794.8" font-family="Times,serif" font-size="14.00">(text: &#160;skim milk , &#160;banana, applesauce )</text>
</g>
<!-- D5_ing&#45;&gt;E5 -->
<g id="edge10" class="edge"><title>D5_ing&#45;&gt;E5</title>
<path fill="none" stroke="black" d="M1232.37,-786.863C1199.25,-773.151 1152.26,-754.164 1110.5,-739 1092.44,-732.443 1072.48,-725.761 1054.73,-720.017"/>
<polygon fill="black" stroke="black" points="1055.72,-716.658 1045.12,-716.929 1053.57,-723.322 1055.72,-716.658"/>
</g>
<!-- P7_0_0 -->
<g id="node21" class="node"><title>P7_0_0</title>
<polygon fill="white" stroke="black" points="1137,-619 1018,-619 1018,-583 1137,-583 1137,-619"/>
<text text-anchor="middle" x="1077.5" y="-597.3" font-family="Times,serif" font-size="14.00">PREP: to moisten</text>
</g>
<!-- P7_0_0&#45;&gt;E7 -->
<g id="edge15" class="edge"><title>P7_0_0&#45;&gt;E7</title>
<path fill="none" stroke="black" d="M1077.5,-582.581C1077.5,-567.382 1077.5,-545.067 1077.5,-527.464"/>
<polygon fill="black" stroke="black" points="1081,-527.219 1077.5,-517.219 1074,-527.219 1081,-527.219"/>
</g>
<!-- O7_0_0 -->
<g id="node22" class="node"><title>O7_0_0</title>
<polygon fill="white" stroke="black" points="1247.5,-619 1155.5,-619 1155.5,-583 1247.5,-583 1247.5,-619"/>
<text text-anchor="middle" x="1201.5" y="-597.3" font-family="Times,serif" font-size="14.00">OTHER: just</text>
</g>
<!-- O7_0_0&#45;&gt;E7 -->
<g id="edge16" class="edge"><title>O7_0_0&#45;&gt;E7</title>
<path fill="none" stroke="black" d="M1180.18,-582.809C1159.59,-566.198 1128.26,-540.936 1105.63,-522.683"/>
<polygon fill="black" stroke="black" points="1107.7,-519.857 1097.72,-516.304 1103.3,-525.306 1107.7,-519.857"/>
</g>
<!-- O8_0_0 -->
<g id="node23" class="node"><title>O8_0_0</title>
<polygon fill="white" stroke="black" points="1312,-517 1159,-517 1159,-481 1312,-481 1312,-517"/>
<text text-anchor="middle" x="1235.5" y="-495.3" font-family="Times,serif" font-size="14.00">OTHER: will be lumpy</text>
</g>
<!-- O8_0_0&#45;&gt;E8 -->
<g id="edge18" class="edge"><title>O8_0_0&#45;&gt;E8</title>
<path fill="none" stroke="black" d="M1228.53,-480.581C1222.4,-465.238 1213.36,-442.645 1206.29,-424.968"/>
<polygon fill="black" stroke="black" points="1209.35,-423.204 1202.39,-415.219 1202.85,-425.804 1209.35,-423.204"/>
</g>
<!-- O9_0_0 -->
<g id="node24" class="node"><title>O9_0_0</title>
<polygon fill="white" stroke="black" points="1563.5,-415 1285.5,-415 1285.5,-379 1563.5,-379 1563.5,-415"/>
<text text-anchor="middle" x="1424.5" y="-393.3" font-family="Times,serif" font-size="14.00">OTHER: prepared muffin cups about 3/4 full</text>
</g>
<!-- O9_0_0&#45;&gt;E9 -->
<g id="edge20" class="edge"><title>O9_0_0&#45;&gt;E9</title>
<path fill="none" stroke="black" d="M1414.4,-378.581C1405.28,-362.856 1391.74,-339.516 1381.38,-321.656"/>
<polygon fill="black" stroke="black" points="1384.34,-319.78 1376.29,-312.886 1378.28,-323.292 1384.34,-319.78"/>
</g>
<!-- O10_0_0 -->
<g id="node25" class="node"><title>O10_0_0</title>
<polygon fill="white" stroke="black" points="1952.5,-313 1446.5,-313 1446.5,-277 1952.5,-277 1952.5,-313"/>
<text text-anchor="middle" x="1699.5" y="-291.3" font-family="Times,serif" font-size="14.00">OTHER: until a toothpick inserted into the center of several muffins comes out clean </text>
</g>
<!-- O10_0_0&#45;&gt;E10 -->
<g id="edge23" class="edge"><title>O10_0_0&#45;&gt;E10</title>
<path fill="none" stroke="black" d="M1730.27,-276.809C1761.15,-259.557 1808.74,-232.973 1841.62,-214.601"/>
<polygon fill="black" stroke="black" points="1843.46,-217.584 1850.48,-209.652 1840.05,-211.473 1843.46,-217.584"/>
</g>
<!-- O10_0_1 -->
<g id="node26" class="node"><title>O10_0_1</title>
<polygon fill="white" stroke="black" points="2144,-313 1971,-313 1971,-277 2144,-277 2144,-313"/>
<text text-anchor="middle" x="2057.5" y="-291.3" font-family="Times,serif" font-size="14.00">OTHER: &#160;16 to 18 minutes</text>
</g>
<!-- O10_0_1&#45;&gt;E10 -->
<g id="edge24" class="edge"><title>O10_0_1&#45;&gt;E10</title>
<path fill="none" stroke="black" d="M2026.73,-276.809C1995.85,-259.557 1948.26,-232.973 1915.38,-214.601"/>
<polygon fill="black" stroke="black" points="1916.95,-211.473 1906.52,-209.652 1913.54,-217.584 1916.95,-211.473"/>
</g>
<!-- P11_0_0 -->
<g id="node27" class="node"><title>P11_0_0</title>
<polygon fill="white" stroke="black" points="1433.5,-211 1257.5,-211 1257.5,-175 1433.5,-175 1433.5,-211"/>
<text text-anchor="middle" x="1345.5" y="-189.3" font-family="Times,serif" font-size="14.00">PREP: in pan for 5 minutes</text>
</g>
<!-- P11_0_0&#45;&gt;E11 -->
<g id="edge26" class="edge"><title>P11_0_0&#45;&gt;E11</title>
<path fill="none" stroke="black" d="M1392.29,-174.923C1442.01,-156.776 1520.28,-128.213 1570.74,-109.796"/>
<polygon fill="black" stroke="black" points="1572.25,-112.971 1580.44,-106.254 1569.85,-106.395 1572.25,-112.971"/>
</g>
<!-- P11_1_0 -->
<g id="node28" class="node"><title>P11_1_0</title>
<polygon fill="white" stroke="black" points="1787.5,-211 1451.5,-211 1451.5,-175 1787.5,-175 1787.5,-211"/>
<text text-anchor="middle" x="1619.5" y="-189.3" font-family="Times,serif" font-size="14.00">PREP: before removing to finish cooling on wire racks</text>
</g>
<!-- P11_1_0&#45;&gt;E11 -->
<g id="edge27" class="edge"><title>P11_1_0&#45;&gt;E11</title>
<path fill="none" stroke="black" d="M1619.5,-174.581C1619.5,-159.382 1619.5,-137.067 1619.5,-119.464"/>
<polygon fill="black" stroke="black" points="1623,-119.219 1619.5,-109.219 1616,-119.219 1623,-119.219"/>
</g>
</g>
</svg>
