<?xml version="1.0" encoding="UTF-8" standalone="no"?>
<!DOCTYPE svg PUBLIC "-//W3C//DTD SVG 1.1//EN"
 "http://www.w3.org/Graphics/SVG/1.1/DTD/svg11.dtd">
<!-- Generated by graphviz version 2.38.0 (20140413.2041)
 -->
<!-- Title: recipe Pages: 1 -->
<svg width="1999pt" height="704pt"
 viewBox="0.00 0.00 1998.50 704.00" xmlns="http://www.w3.org/2000/svg" xmlns:xlink="http://www.w3.org/1999/xlink">
<g id="graph0" class="graph" transform="scale(1 1) rotate(0) translate(4 700)">
<title>recipe</title>
<polygon fill="white" stroke="none" points="-4,4 -4,-700 1994.5,-700 1994.5,4 -4,4"/>
<!-- E0 -->
<g id="node1" class="node"><title>E0</title>
<ellipse fill="azure" stroke="black" cx="1706.5" cy="-295" rx="68.7879" ry="18"/>
<text text-anchor="middle" x="1706.5" y="-291.3" font-family="Times,serif" font-size="14.00">preheat (S0,P0)</text>
</g>
<!-- E7 -->
<g id="node8" class="node"><title>E7</title>
<ellipse fill="azure" stroke="black" cx="1319.5" cy="-193" rx="68.7879" ry="18"/>
<text text-anchor="middle" x="1319.5" y="-189.3" font-family="Times,serif" font-size="14.00">bake (S7,P409)</text>
</g>
<!-- E0&#45;&gt;E7 -->
<g id="edge17" class="edge"><title>E0&#45;&gt;E7</title>
<path fill="none" stroke="black" d="M1659.43,-281.838C1588.2,-263.432 1453.21,-228.55 1376.51,-208.731"/>
<polygon fill="black" stroke="black" points="1377.1,-205.269 1366.54,-206.155 1375.35,-212.046 1377.1,-205.269"/>
<text text-anchor="middle" x="1656" y="-247.8" font-family="Times,serif" font-size="14.00">OUTPUT: </text>
<text text-anchor="middle" x="1656" y="-232.8" font-family="Times,serif" font-size="14.00">INPUT: in the preheated oven</text>
</g>
<!-- E1 -->
<g id="node2" class="node"><title>E1</title>
<ellipse fill="azure" stroke="black" cx="471.5" cy="-397" rx="69.5877" ry="18"/>
<text text-anchor="middle" x="471.5" y="-393.3" font-family="Times,serif" font-size="14.00">grease (S1,P38)</text>
</g>
<!-- E6 -->
<g id="node7" class="node"><title>E6</title>
<ellipse fill="azure" stroke="black" cx="647.5" cy="-295" rx="73.387" ry="18"/>
<text text-anchor="middle" x="647.5" y="-291.3" font-family="Times,serif" font-size="14.00">scoop (S6,P372)</text>
</g>
<!-- E1&#45;&gt;E6 -->
<g id="edge15" class="edge"><title>E1&#45;&gt;E6</title>
<path fill="none" stroke="black" d="M481.377,-379.149C490.884,-364.366 506.583,-343.353 525.5,-331 541.295,-320.686 560.171,-313.356 578.299,-308.167"/>
<polygon fill="black" stroke="black" points="579.226,-311.543 587.979,-305.573 577.414,-304.781 579.226,-311.543"/>
<text text-anchor="middle" x="636" y="-349.8" font-family="Times,serif" font-size="14.00">OUTPUT: </text>
<text text-anchor="middle" x="636" y="-334.8" font-family="Times,serif" font-size="14.00">INPUT: into the prepared muffin cups</text>
</g>
<!-- E2 -->
<g id="node3" class="node"><title>E2</title>
<ellipse fill="azure" stroke="black" cx="629.5" cy="-499" rx="61.1893" ry="18"/>
<text text-anchor="middle" x="629.5" y="-495.3" font-family="Times,serif" font-size="14.00">mix (S2,P78)</text>
</g>
<!-- E5 -->
<g id="node6" class="node"><title>E5</title>
<ellipse fill="azure" stroke="black" cx="803.5" cy="-397" rx="63.0888" ry="18"/>
<text text-anchor="middle" x="803.5" y="-393.3" font-family="Times,serif" font-size="14.00">stir (S5,P320)</text>
</g>
<!-- E2&#45;&gt;E5 -->
<g id="edge11" class="edge"><title>E2&#45;&gt;E5</title>
<path fill="none" stroke="black" d="M635.41,-481.046C641.453,-466.193 652.269,-445.136 668.5,-433 687.503,-418.791 711.74,-410.332 734.419,-405.303"/>
<polygon fill="black" stroke="black" points="735.257,-408.704 744.363,-403.288 733.867,-401.843 735.257,-408.704"/>
<text text-anchor="middle" x="738" y="-451.8" font-family="Times,serif" font-size="14.00">OUTPUT: </text>
<text text-anchor="middle" x="738" y="-436.8" font-family="Times,serif" font-size="14.00">INPUT: wet ingredients</text>
</g>
<!-- E3 -->
<g id="node4" class="node"><title>E3</title>
<ellipse fill="azure" stroke="black" cx="824.5" cy="-602" rx="74.187" ry="18"/>
<text text-anchor="middle" x="824.5" y="-598.3" font-family="Times,serif" font-size="14.00">whisk (S3,P163)</text>
</g>
<!-- E4 -->
<g id="node5" class="node"><title>E4</title>
<ellipse fill="azure" stroke="black" cx="824.5" cy="-499" rx="65.7887" ry="18"/>
<text text-anchor="middle" x="824.5" y="-495.3" font-family="Times,serif" font-size="14.00">mix (S4,P202)</text>
</g>
<!-- E3&#45;&gt;E4 -->
<g id="edge9" class="edge"><title>E3&#45;&gt;E4</title>
<path fill="none" stroke="black" d="M824.5,-583.867C824.5,-568.414 824.5,-545.416 824.5,-527.409"/>
<polygon fill="black" stroke="black" points="828,-527.217 824.5,-517.217 821,-527.217 828,-527.217"/>
<text text-anchor="middle" x="901.5" y="-553.8" font-family="Times,serif" font-size="14.00">OUTPUT: </text>
<text text-anchor="middle" x="901.5" y="-538.8" font-family="Times,serif" font-size="14.00">INPUT: into flour mixture</text>
</g>
<!-- E4&#45;&gt;E5 -->
<g id="edge12" class="edge"><title>E4&#45;&gt;E5</title>
<path fill="none" stroke="black" d="M820.842,-480.581C817.65,-465.382 812.964,-443.067 809.268,-425.464"/>
<polygon fill="black" stroke="black" points="812.597,-424.286 807.116,-415.219 805.746,-425.725 812.597,-424.286"/>
<text text-anchor="middle" x="894.5" y="-451.8" font-family="Times,serif" font-size="14.00">OUTPUT: </text>
<text text-anchor="middle" x="894.5" y="-436.8" font-family="Times,serif" font-size="14.00">INPUT: into flour mixture</text>
</g>
<!-- E5&#45;&gt;E6 -->
<g id="edge14" class="edge"><title>E5&#45;&gt;E6</title>
<path fill="none" stroke="black" d="M793.55,-379.073C784.154,-364.445 768.796,-343.71 750.5,-331 738.276,-322.508 723.816,-315.927 709.656,-310.886"/>
<polygon fill="black" stroke="black" points="710.525,-307.486 699.932,-307.637 708.307,-314.126 710.525,-307.486"/>
<text text-anchor="middle" x="821.5" y="-349.8" font-family="Times,serif" font-size="14.00">OUTPUT: </text>
<text text-anchor="middle" x="821.5" y="-334.8" font-family="Times,serif" font-size="14.00">INPUT: batter</text>
</g>
<!-- E6&#45;&gt;E7 -->
<g id="edge16" class="edge"><title>E6&#45;&gt;E7</title>
<path fill="none" stroke="black" d="M700.809,-282.614C710.349,-280.672 720.209,-278.726 729.5,-277 858.807,-252.979 890.96,-245.018 1021.5,-229 1119.31,-216.997 1145.05,-225.657 1242.5,-211 1248.4,-210.113 1254.52,-209.036 1260.61,-207.858"/>
<polygon fill="black" stroke="black" points="1261.7,-211.21 1270.81,-205.799 1260.31,-204.349 1261.7,-211.21"/>
<text text-anchor="middle" x="1053.5" y="-247.8" font-family="Times,serif" font-size="14.00">OUTPUT: </text>
<text text-anchor="middle" x="1053.5" y="-232.8" font-family="Times,serif" font-size="14.00">INPUT: </text>
</g>
<!-- E8 -->
<g id="node9" class="node"><title>E8</title>
<ellipse fill="azure" stroke="black" cx="1056.5" cy="-91" rx="67.6881" ry="18"/>
<text text-anchor="middle" x="1056.5" y="-87.3" font-family="Times,serif" font-size="14.00">cool (S8,P526)</text>
</g>
<!-- E7&#45;&gt;E8 -->
<g id="edge21" class="edge"><title>E7&#45;&gt;E8</title>
<path fill="none" stroke="black" d="M1282.1,-177.779C1235.07,-159.897 1154.32,-129.193 1103.26,-109.779"/>
<polygon fill="black" stroke="black" points="1104.36,-106.455 1093.77,-106.172 1101.88,-112.998 1104.36,-106.455"/>
<text text-anchor="middle" x="1258.5" y="-145.8" font-family="Times,serif" font-size="14.00">OUTPUT: </text>
<text text-anchor="middle" x="1258.5" y="-130.8" font-family="Times,serif" font-size="14.00">INPUT: </text>
</g>
<!-- EOR -->
<g id="node25" class="node"><title>EOR</title>
<ellipse fill="plum" stroke="black" cx="1056.5" cy="-18" rx="57.3905" ry="18"/>
<text text-anchor="middle" x="1056.5" y="-14.3" font-family="Times,serif" font-size="14.00">Bon appetit!</text>
</g>
<!-- E8&#45;&gt;EOR -->
<g id="edge24" class="edge"><title>E8&#45;&gt;EOR</title>
<path fill="none" stroke="black" d="M1056.5,-72.8129C1056.5,-64.7895 1056.5,-55.0475 1056.5,-46.0691"/>
<polygon fill="black" stroke="black" points="1060,-46.0288 1056.5,-36.0288 1053,-46.0289 1060,-46.0288"/>
</g>
<!-- D1 -->
<g id="node10" class="node"><title>D1</title>
<polygon fill="white" stroke="black" points="375,-517 186,-517 186,-481 375,-481 375,-517"/>
<text text-anchor="middle" x="280.5" y="-495.3" font-family="Times,serif" font-size="14.00">DOBJ: 12 muffin cups or line</text>
</g>
<!-- D1&#45;&gt;E1 -->
<g id="edge1" class="edge"><title>D1&#45;&gt;E1</title>
<path fill="none" stroke="black" d="M313.334,-480.809C346.624,-463.38 398.101,-436.429 433.223,-418.041"/>
<polygon fill="black" stroke="black" points="434.986,-421.068 442.221,-413.329 431.739,-414.867 434.986,-421.068"/>
</g>
<!-- P1_0 -->
<g id="node11" class="node"><title>P1_0</title>
<polygon fill="white" stroke="black" points="550,-517 393,-517 393,-481 550,-481 550,-517"/>
<text text-anchor="middle" x="471.5" y="-495.3" font-family="Times,serif" font-size="14.00">PREP: with paper liners</text>
</g>
<!-- P1_0&#45;&gt;E1 -->
<g id="edge2" class="edge"><title>P1_0&#45;&gt;E1</title>
<path fill="none" stroke="black" d="M471.5,-480.581C471.5,-465.382 471.5,-443.067 471.5,-425.464"/>
<polygon fill="black" stroke="black" points="475,-425.219 471.5,-415.219 468,-425.219 475,-425.219"/>
</g>
<!-- D3 -->
<g id="node12" class="node"><title>D3</title>
<polygon fill="peachpuff" stroke="black" points="958,-696 691,-696 691,-658 958,-658 958,-696"/>
<text text-anchor="middle" x="824.5" y="-680.8" font-family="Times,serif" font-size="14.00">DOBJ: whole wheat flour, baking soda</text>
<text text-anchor="middle" x="824.5" y="-665.8" font-family="Times,serif" font-size="14.00">(text: flour, baking soda in a separate bowl)</text>
</g>
<!-- D3&#45;&gt;E3 -->
<g id="edge3" class="edge"><title>D3&#45;&gt;E3</title>
<path fill="none" stroke="black" d="M824.5,-657.955C824.5,-649.701 824.5,-639.738 824.5,-630.574"/>
<polygon fill="black" stroke="black" points="828,-630.335 824.5,-620.335 821,-630.335 828,-630.335"/>
</g>
<!-- D2 -->
<g id="node13" class="node"><title>D2</title>
<polygon fill="peachpuff" stroke="black" points="371,-621 0,-621 0,-583 371,-583 371,-621"/>
<text text-anchor="middle" x="185.5" y="-605.8" font-family="Times,serif" font-size="14.00">DOBJ: vegetable oil, yogurt, zucchini, eggs, bananas, carrots</text>
<text text-anchor="middle" x="185.5" y="-590.8" font-family="Times,serif" font-size="14.00">(text: carrots , banana , zucchini , vegetable oil , yogurt , eggs)</text>
</g>
<!-- D2&#45;&gt;E2 -->
<g id="edge4" class="edge"><title>D2&#45;&gt;E2</title>
<path fill="none" stroke="black" d="M267.067,-582.964C342.683,-566.164 458.282,-540.281 558.5,-517 563.465,-515.846 568.623,-514.636 573.79,-513.414"/>
<polygon fill="black" stroke="black" points="574.768,-516.78 583.69,-511.065 573.152,-509.969 574.768,-516.78"/>
</g>
<!-- O2_0 -->
<g id="node14" class="node"><title>O2_0</title>
<polygon fill="white" stroke="black" points="508,-620 389,-620 389,-584 508,-584 508,-620"/>
<text text-anchor="middle" x="448.5" y="-598.3" font-family="Times,serif" font-size="14.00">OTHER: together</text>
</g>
<!-- O2_0&#45;&gt;E2 -->
<g id="edge5" class="edge"><title>O2_0&#45;&gt;E2</title>
<path fill="none" stroke="black" d="M479.204,-583.867C510.734,-566.273 559.79,-538.899 593.217,-520.246"/>
<polygon fill="black" stroke="black" points="595.176,-523.161 602.203,-515.232 591.765,-517.048 595.176,-523.161"/>
</g>
<!-- O2_1 -->
<g id="node15" class="node"><title>O2_1</title>
<polygon fill="white" stroke="black" points="732.5,-620 526.5,-620 526.5,-584 732.5,-584 732.5,-620"/>
<text text-anchor="middle" x="629.5" y="-598.3" font-family="Times,serif" font-size="14.00">OTHER: until fully incorporated</text>
</g>
<!-- O2_1&#45;&gt;E2 -->
<g id="edge6" class="edge"><title>O2_1&#45;&gt;E2</title>
<path fill="none" stroke="black" d="M629.5,-583.867C629.5,-568.414 629.5,-545.416 629.5,-527.409"/>
<polygon fill="black" stroke="black" points="633,-527.217 629.5,-517.217 626,-527.217 633,-527.217"/>
</g>
<!-- D0 -->
<g id="node16" class="node"><title>D0</title>
<polygon fill="white" stroke="black" points="1865.5,-415 1547.5,-415 1547.5,-379 1865.5,-379 1865.5,-415"/>
<text text-anchor="middle" x="1706.5" y="-393.3" font-family="Times,serif" font-size="14.00">DOBJ: oven to 375 degrees F &#45;LRB&#45; 190 degrees C</text>
</g>
<!-- D0&#45;&gt;E0 -->
<g id="edge7" class="edge"><title>D0&#45;&gt;E0</title>
<path fill="none" stroke="black" d="M1706.5,-378.581C1706.5,-363.382 1706.5,-341.067 1706.5,-323.464"/>
<polygon fill="black" stroke="black" points="1710,-323.219 1706.5,-313.219 1703,-323.219 1710,-323.219"/>
</g>
<!-- D4_ing -->
<g id="node17" class="node"><title>D4_ing</title>
<polygon fill="peachpuff" stroke="black" points="1680.5,-621 916.5,-621 916.5,-583 1680.5,-583 1680.5,-621"/>
<text text-anchor="middle" x="1298.5" y="-605.8" font-family="Times,serif" font-size="14.00">DOBJ: shredded coconut, ground cinnamon, chopped pecans, ground ginger, rolled oats, dried cherries, packed brown sugar, salt</text>
<text text-anchor="middle" x="1298.5" y="-590.8" font-family="Times,serif" font-size="14.00">(text: &#160;salt , &#160;cinnamon , &#160;coconut , &#160;oats , &#160;ginger, &#160;pecans , &#160;cherries , brown sugar )</text>
</g>
<!-- D4_ing&#45;&gt;E4 -->
<g id="edge8" class="edge"><title>D4_ing&#45;&gt;E4</title>
<path fill="none" stroke="black" d="M1211.6,-582.95C1112.63,-562.358 957.062,-529.875 898.5,-517 893.479,-515.896 888.27,-514.734 883.048,-513.557"/>
<polygon fill="black" stroke="black" points="883.559,-510.084 873.033,-511.287 882.012,-516.911 883.559,-510.084"/>
</g>
<!-- O4_0_0 -->
<g id="node18" class="node"><title>O4_0_0</title>
<polygon fill="white" stroke="black" points="1990.5,-620 1698.5,-620 1698.5,-584 1990.5,-584 1990.5,-620"/>
<text text-anchor="middle" x="1844.5" y="-598.3" font-family="Times,serif" font-size="14.00">OTHER: until all ingredients are coated in flour</text>
</g>
<!-- O4_0_0&#45;&gt;E4 -->
<g id="edge10" class="edge"><title>O4_0_0&#45;&gt;E4</title>
<path fill="none" stroke="black" d="M1699.31,-583.994C1696.01,-583.655 1692.73,-583.323 1689.5,-583 1601.74,-574.245 985.643,-530.574 898.5,-517 892.826,-516.116 886.94,-515.041 881.079,-513.865"/>
<polygon fill="black" stroke="black" points="881.786,-510.437 871.28,-511.807 880.347,-517.288 881.786,-510.437"/>
</g>
<!-- O5_0_0 -->
<g id="node19" class="node"><title>O5_0_0</title>
<polygon fill="white" stroke="black" points="1091,-517 908,-517 908,-481 1091,-481 1091,-517"/>
<text text-anchor="middle" x="999.5" y="-495.3" font-family="Times,serif" font-size="14.00">OTHER: until just combined</text>
</g>
<!-- O5_0_0&#45;&gt;E5 -->
<g id="edge13" class="edge"><title>O5_0_0&#45;&gt;E5</title>
<path fill="none" stroke="black" d="M997.756,-480.719C995.315,-465.859 989.471,-444.982 975.5,-433 959.901,-419.621 912.993,-410.624 872.098,-405.106"/>
<polygon fill="black" stroke="black" points="872.493,-401.628 862.126,-403.811 871.592,-408.57 872.493,-401.628"/>
</g>
<!-- O7_0_0 -->
<g id="node20" class="node"><title>O7_0_0</title>
<polygon fill="white" stroke="black" points="1192,-313 739,-313 739,-277 1192,-277 1192,-313"/>
<text text-anchor="middle" x="965.5" y="-291.3" font-family="Times,serif" font-size="14.00">OTHER: until a toothpick inserted in the center of a muffin comes out clean</text>
</g>
<!-- O7_0_0&#45;&gt;E7 -->
<g id="edge18" class="edge"><title>O7_0_0&#45;&gt;E7</title>
<path fill="none" stroke="black" d="M1025.95,-276.923C1092.87,-258.02 1199.8,-227.814 1264.46,-209.548"/>
<polygon fill="black" stroke="black" points="1265.79,-212.809 1274.46,-206.722 1263.89,-206.073 1265.79,-212.809"/>
</g>
<!-- O7_1_0 -->
<g id="node21" class="node"><title>O7_1_0</title>
<polygon fill="white" stroke="black" points="1428.5,-313 1210.5,-313 1210.5,-277 1428.5,-277 1428.5,-313"/>
<text text-anchor="middle" x="1319.5" y="-291.3" font-family="Times,serif" font-size="14.00">OTHER: edges are slightly brown </text>
</g>
<!-- O7_1_0&#45;&gt;E7 -->
<g id="edge19" class="edge"><title>O7_1_0&#45;&gt;E7</title>
<path fill="none" stroke="black" d="M1319.5,-276.581C1319.5,-261.382 1319.5,-239.067 1319.5,-221.464"/>
<polygon fill="black" stroke="black" points="1323,-221.219 1319.5,-211.219 1316,-221.219 1323,-221.219"/>
</g>
<!-- O7_1_1 -->
<g id="node22" class="node"><title>O7_1_1</title>
<polygon fill="white" stroke="black" points="1620,-313 1447,-313 1447,-277 1620,-277 1620,-313"/>
<text text-anchor="middle" x="1533.5" y="-291.3" font-family="Times,serif" font-size="14.00">OTHER: &#160;17 to 22 minutes</text>
</g>
<!-- O7_1_1&#45;&gt;E7 -->
<g id="edge20" class="edge"><title>O7_1_1&#45;&gt;E7</title>
<path fill="none" stroke="black" d="M1496.71,-276.809C1458.88,-259.129 1400.07,-231.648 1360.69,-213.249"/>
<polygon fill="black" stroke="black" points="1362.16,-210.072 1351.62,-209.009 1359.2,-216.413 1362.16,-210.072"/>
</g>
<!-- P8_0_0 -->
<g id="node23" class="node"><title>P8_0_0</title>
<polygon fill="white" stroke="black" points="861.5,-211 651.5,-211 651.5,-175 861.5,-175 861.5,-211"/>
<text text-anchor="middle" x="756.5" y="-189.3" font-family="Times,serif" font-size="14.00">PREP: in the pans for 10 minutes</text>
</g>
<!-- P8_0_0&#45;&gt;E8 -->
<g id="edge22" class="edge"><title>P8_0_0&#45;&gt;E8</title>
<path fill="none" stroke="black" d="M807.731,-174.923C863.302,-156.399 951.43,-127.023 1006.51,-108.663"/>
<polygon fill="black" stroke="black" points="1007.68,-111.963 1016.06,-105.48 1005.47,-105.322 1007.68,-111.963"/>
</g>
<!-- P8_1_0 -->
<g id="node24" class="node"><title>P8_1_0</title>
<polygon fill="white" stroke="black" points="1233,-211 880,-211 880,-175 1233,-175 1233,-211"/>
<text text-anchor="middle" x="1056.5" y="-189.3" font-family="Times,serif" font-size="14.00">PREP: before removing to cool completely on a wire rack</text>
</g>
<!-- P8_1_0&#45;&gt;E8 -->
<g id="edge23" class="edge"><title>P8_1_0&#45;&gt;E8</title>
<path fill="none" stroke="black" d="M1056.5,-174.581C1056.5,-159.382 1056.5,-137.067 1056.5,-119.464"/>
<polygon fill="black" stroke="black" points="1060,-119.219 1056.5,-109.219 1053,-119.219 1060,-119.219"/>
</g>
</g>
</svg>
