<?xml version="1.0" encoding="UTF-8" standalone="no"?>
<!DOCTYPE svg PUBLIC "-//W3C//DTD SVG 1.1//EN"
 "http://www.w3.org/Graphics/SVG/1.1/DTD/svg11.dtd">
<!-- Generated by graphviz version 2.38.0 (20140413.2041)
 -->
<!-- Title: recipe Pages: 1 -->
<svg width="1701pt" height="910pt"
 viewBox="0.00 0.00 1701.00 910.00" xmlns="http://www.w3.org/2000/svg" xmlns:xlink="http://www.w3.org/1999/xlink">
<g id="graph0" class="graph" transform="scale(1 1) rotate(0) translate(4 906)">
<title>recipe</title>
<polygon fill="white" stroke="none" points="-4,4 -4,-906 1697,-906 1697,4 -4,4"/>
<!-- E0 -->
<g id="node1" class="node"><title>E0</title>
<ellipse fill="azure" stroke="black" cx="1430" cy="-809" rx="72.2875" ry="18"/>
<text text-anchor="middle" x="1430" y="-805.3" font-family="Times,serif" font-size="14.00">baking (S0,P22)</text>
</g>
<!-- E1 -->
<g id="node2" class="node"><title>E1</title>
<ellipse fill="azure" stroke="black" cx="1333" cy="-706" rx="55.7903" ry="18"/>
<text text-anchor="middle" x="1333" y="-702.3" font-family="Times,serif" font-size="14.00">set (S0,P65)</text>
</g>
<!-- E0&#45;&gt;E1 -->
<g id="edge3" class="edge"><title>E0&#45;&gt;E1</title>
<path fill="none" stroke="black" d="M1413.98,-791.322C1398.16,-774.849 1373.81,-749.491 1355.94,-730.884"/>
<polygon fill="black" stroke="black" points="1358.17,-728.156 1348.72,-723.368 1353.12,-733.005 1358.17,-728.156"/>
<text text-anchor="middle" x="1427" y="-761.8" font-family="Times,serif" font-size="14.00">OUTPUT: </text>
<text text-anchor="middle" x="1427" y="-746.8" font-family="Times,serif" font-size="14.00">INPUT: </text>
</g>
<!-- E2 -->
<g id="node3" class="node"><title>E2</title>
<ellipse fill="azure" stroke="black" cx="1076" cy="-602" rx="64.9885" ry="18"/>
<text text-anchor="middle" x="1076" y="-598.3" font-family="Times,serif" font-size="14.00">add (S1,P112)</text>
</g>
<!-- E1&#45;&gt;E2 -->
<g id="edge6" class="edge"><title>E1&#45;&gt;E2</title>
<path fill="none" stroke="black" d="M1299.14,-691.56C1253.42,-673.417 1171.85,-641.043 1121.02,-620.867"/>
<polygon fill="black" stroke="black" points="1122.18,-617.561 1111.59,-617.125 1119.59,-624.067 1122.18,-617.561"/>
<text text-anchor="middle" x="1273" y="-657.8" font-family="Times,serif" font-size="14.00">OUTPUT: </text>
<text text-anchor="middle" x="1273" y="-642.8" font-family="Times,serif" font-size="14.00">INPUT: &#160;mix</text>
</g>
<!-- E3 -->
<g id="node4" class="node"><title>E3</title>
<ellipse fill="azure" stroke="black" cx="940" cy="-499" rx="63.0888" ry="18"/>
<text text-anchor="middle" x="940" y="-495.3" font-family="Times,serif" font-size="14.00">stir (S2,P137)</text>
</g>
<!-- E2&#45;&gt;E3 -->
<g id="edge9" class="edge"><title>E2&#45;&gt;E3</title>
<path fill="none" stroke="black" d="M1054.45,-584.996C1031.57,-568.005 995.253,-541.034 969.676,-522.039"/>
<polygon fill="black" stroke="black" points="971.564,-519.081 961.449,-515.929 967.39,-524.701 971.564,-519.081"/>
<text text-anchor="middle" x="1056" y="-553.8" font-family="Times,serif" font-size="14.00">OUTPUT: </text>
<text text-anchor="middle" x="1056" y="-538.8" font-family="Times,serif" font-size="14.00">INPUT: </text>
</g>
<!-- E4 -->
<g id="node5" class="node"><title>E4</title>
<ellipse fill="azure" stroke="black" cx="851" cy="-397" rx="65.7887" ry="18"/>
<text text-anchor="middle" x="851" y="-393.3" font-family="Times,serif" font-size="14.00">mix (S2,P165)</text>
</g>
<!-- E3&#45;&gt;E4 -->
<g id="edge11" class="edge"><title>E3&#45;&gt;E4</title>
<path fill="none" stroke="black" d="M925.303,-481.487C911.089,-465.516 889.366,-441.108 873.073,-422.801"/>
<polygon fill="black" stroke="black" points="875.279,-420.015 866.016,-414.872 870.05,-424.669 875.279,-420.015"/>
<text text-anchor="middle" x="940" y="-451.8" font-family="Times,serif" font-size="14.00">OUTPUT: </text>
<text text-anchor="middle" x="940" y="-436.8" font-family="Times,serif" font-size="14.00">INPUT: </text>
</g>
<!-- E5 -->
<g id="node6" class="node"><title>E5</title>
<ellipse fill="azure" stroke="black" cx="596" cy="-295" rx="66.0889" ry="18"/>
<text text-anchor="middle" x="596" y="-291.3" font-family="Times,serif" font-size="14.00">fold (S3,P173)</text>
</g>
<!-- E4&#45;&gt;E5 -->
<g id="edge13" class="edge"><title>E4&#45;&gt;E5</title>
<path fill="none" stroke="black" d="M815.006,-381.885C769.572,-364.068 691.375,-333.402 641.749,-313.941"/>
<polygon fill="black" stroke="black" points="642.811,-310.598 632.223,-310.205 640.255,-317.115 642.811,-310.598"/>
<text text-anchor="middle" x="793" y="-349.8" font-family="Times,serif" font-size="14.00">OUTPUT: </text>
<text text-anchor="middle" x="793" y="-334.8" font-family="Times,serif" font-size="14.00">INPUT: </text>
</g>
<!-- E6 -->
<g id="node7" class="node"><title>E6</title>
<ellipse fill="azure" stroke="black" cx="596" cy="-193" rx="61.99" ry="18"/>
<text text-anchor="middle" x="596" y="-189.3" font-family="Times,serif" font-size="14.00">fill (S4,P229)</text>
</g>
<!-- E5&#45;&gt;E6 -->
<g id="edge17" class="edge"><title>E5&#45;&gt;E6</title>
<path fill="none" stroke="black" d="M596,-276.581C596,-261.382 596,-239.067 596,-221.464"/>
<polygon fill="black" stroke="black" points="599.5,-221.219 596,-211.219 592.5,-221.219 599.5,-221.219"/>
<text text-anchor="middle" x="752.5" y="-247.8" font-family="Times,serif" font-size="14.00">OUTPUT: </text>
<text text-anchor="middle" x="752.5" y="-232.8" font-family="Times,serif" font-size="14.00">INPUT: greased muffin tins two&#45;thirds of the way full</text>
</g>
<!-- E7 -->
<g id="node8" class="node"><title>E7</title>
<ellipse fill="azure" stroke="black" cx="350" cy="-91" rx="68.7879" ry="18"/>
<text text-anchor="middle" x="350" y="-87.3" font-family="Times,serif" font-size="14.00">bake (S5,P273)</text>
</g>
<!-- E6&#45;&gt;E7 -->
<g id="edge18" class="edge"><title>E6&#45;&gt;E7</title>
<path fill="none" stroke="black" d="M561.536,-177.99C518.114,-160.339 443.376,-129.958 395.354,-110.436"/>
<polygon fill="black" stroke="black" points="396.409,-107.088 385.828,-106.564 393.773,-113.572 396.409,-107.088"/>
<text text-anchor="middle" x="541" y="-145.8" font-family="Times,serif" font-size="14.00">OUTPUT: </text>
<text text-anchor="middle" x="541" y="-130.8" font-family="Times,serif" font-size="14.00">INPUT: </text>
</g>
<!-- EOR -->
<g id="node21" class="node"><title>EOR</title>
<ellipse fill="plum" stroke="black" cx="350" cy="-18" rx="57.3905" ry="18"/>
<text text-anchor="middle" x="350" y="-14.3" font-family="Times,serif" font-size="14.00">Bon appetit!</text>
</g>
<!-- E7&#45;&gt;EOR -->
<g id="edge20" class="edge"><title>E7&#45;&gt;EOR</title>
<path fill="none" stroke="black" d="M350,-72.8129C350,-64.7895 350,-55.0475 350,-46.0691"/>
<polygon fill="black" stroke="black" points="353.5,-46.0288 350,-36.0288 346.5,-46.0289 353.5,-46.0288"/>
</g>
<!-- D0 -->
<g id="node9" class="node"><title>D0</title>
<polygon fill="peachpuff" stroke="black" points="1456.5,-902 1095.5,-902 1095.5,-864 1456.5,-864 1456.5,-902"/>
<text text-anchor="middle" x="1276" y="-886.8" font-family="Times,serif" font-size="14.00">DOBJ: baking powder, ground cinnamon, baking soda, salt</text>
<text text-anchor="middle" x="1276" y="-871.8" font-family="Times,serif" font-size="14.00">(text: powder , baking soda , salt , cinnamon)</text>
</g>
<!-- D0&#45;&gt;E0 -->
<g id="edge1" class="edge"><title>D0&#45;&gt;E0</title>
<path fill="none" stroke="black" d="M1314.86,-863.831C1337.34,-853.323 1365.61,-840.103 1388.52,-829.394"/>
<polygon fill="black" stroke="black" points="1390.08,-832.53 1397.65,-825.124 1387.11,-826.188 1390.08,-832.53"/>
</g>
<!-- P0_0 -->
<g id="node10" class="node"><title>P0_0</title>
<polygon fill="peachpuff" stroke="black" points="1693,-902 1475,-902 1475,-864 1693,-864 1693,-902"/>
<text text-anchor="middle" x="1584" y="-886.8" font-family="Times,serif" font-size="14.00">PREP: in all&#45;purpose flour</text>
<text text-anchor="middle" x="1584" y="-871.8" font-family="Times,serif" font-size="14.00">(text: in a medium bowl mix flour)</text>
</g>
<!-- P0_0&#45;&gt;E0 -->
<g id="edge2" class="edge"><title>P0_0&#45;&gt;E0</title>
<path fill="none" stroke="black" d="M1545.14,-863.831C1522.66,-853.323 1494.39,-840.103 1471.48,-829.394"/>
<polygon fill="black" stroke="black" points="1472.89,-826.188 1462.35,-825.124 1469.92,-832.53 1472.89,-826.188"/>
</g>
<!-- O1_0_0 -->
<g id="node11" class="node"><title>O1_0_0</title>
<polygon fill="white" stroke="black" points="1339.5,-827 1238.5,-827 1238.5,-791 1339.5,-791 1339.5,-827"/>
<text text-anchor="middle" x="1289" y="-805.3" font-family="Times,serif" font-size="14.00">OTHER: aside</text>
</g>
<!-- O1_0_0&#45;&gt;E1 -->
<g id="edge4" class="edge"><title>O1_0_0&#45;&gt;E1</title>
<path fill="none" stroke="black" d="M1296.46,-790.867C1303.36,-775.028 1313.72,-751.263 1321.64,-733.071"/>
<polygon fill="black" stroke="black" points="1324.86,-734.446 1325.65,-723.88 1318.44,-731.65 1324.86,-734.446"/>
</g>
<!-- D2_ing -->
<g id="node12" class="node"><title>D2_ing</title>
<polygon fill="peachpuff" stroke="black" points="789,-725 703,-725 703,-687 789,-687 789,-725"/>
<text text-anchor="middle" x="746" y="-709.8" font-family="Times,serif" font-size="14.00">DOBJ: eggs</text>
<text text-anchor="middle" x="746" y="-694.8" font-family="Times,serif" font-size="14.00">(text: eggs)</text>
</g>
<!-- D2_ing&#45;&gt;E2 -->
<g id="edge5" class="edge"><title>D2_ing&#45;&gt;E2</title>
<path fill="none" stroke="black" d="M789.059,-690.244C792.419,-689.133 795.762,-688.041 799,-687 876.63,-662.055 967.131,-634.986 1023,-618.507"/>
<polygon fill="black" stroke="black" points="1024.08,-621.839 1032.68,-615.656 1022.1,-615.124 1024.08,-621.839"/>
</g>
<!-- P2_0_ing -->
<g id="node13" class="node"><title>P2_0_ing</title>
<polygon fill="peachpuff" stroke="black" points="1108.5,-725 807.5,-725 807.5,-687 1108.5,-687 1108.5,-725"/>
<text text-anchor="middle" x="958" y="-709.8" font-family="Times,serif" font-size="14.00">PREP: in margarine, white sugar</text>
<text text-anchor="middle" x="958" y="-694.8" font-family="Times,serif" font-size="14.00">(text: in &#160;sugar, a separate bowl cream margarine)</text>
</g>
<!-- P2_0_ing&#45;&gt;E2 -->
<g id="edge7" class="edge"><title>P2_0_ing&#45;&gt;E2</title>
<path fill="none" stroke="black" d="M978.824,-686.999C998.42,-670.061 1027.86,-644.612 1049.2,-626.167"/>
<polygon fill="black" stroke="black" points="1051.67,-628.66 1056.94,-619.472 1047.09,-623.364 1051.67,-628.66"/>
</g>
<!-- P2_1_0 -->
<g id="node14" class="node"><title>P2_1_0</title>
<polygon fill="white" stroke="black" points="1259,-724 1127,-724 1127,-688 1259,-688 1259,-724"/>
<text text-anchor="middle" x="1193" y="-702.3" font-family="Times,serif" font-size="14.00">PREP: until smooth</text>
</g>
<!-- P2_1_0&#45;&gt;E2 -->
<g id="edge8" class="edge"><title>P2_1_0&#45;&gt;E2</title>
<path fill="none" stroke="black" d="M1173.42,-687.927C1154.04,-671.031 1124.22,-645.041 1102.68,-626.262"/>
<polygon fill="black" stroke="black" points="1104.71,-623.385 1094.87,-619.452 1100.11,-628.661 1104.71,-623.385"/>
</g>
<!-- P3_0_ing -->
<g id="node15" class="node"><title>P3_0_ing</title>
<polygon fill="peachpuff" stroke="black" points="993.5,-621 772.5,-621 772.5,-583 993.5,-583 993.5,-621"/>
<text text-anchor="middle" x="883" y="-605.8" font-family="Times,serif" font-size="14.00">PREP: in milk, mashed ripe banana</text>
<text text-anchor="middle" x="883" y="-590.8" font-family="Times,serif" font-size="14.00">(text: in milk, &#160;mashed banana)</text>
</g>
<!-- P3_0_ing&#45;&gt;E3 -->
<g id="edge10" class="edge"><title>P3_0_ing&#45;&gt;E3</title>
<path fill="none" stroke="black" d="M893.19,-582.943C902.189,-566.998 915.411,-543.57 925.509,-525.676"/>
<polygon fill="black" stroke="black" points="928.6,-527.322 930.467,-516.893 922.503,-523.881 928.6,-527.322"/>
</g>
<!-- O4_0_0 -->
<g id="node16" class="node"><title>O4_0_0</title>
<polygon fill="white" stroke="black" points="858.5,-517 761.5,-517 761.5,-481 858.5,-481 858.5,-517"/>
<text text-anchor="middle" x="810" y="-495.3" font-family="Times,serif" font-size="14.00">OTHER: well</text>
</g>
<!-- O4_0_0&#45;&gt;E4 -->
<g id="edge12" class="edge"><title>O4_0_0&#45;&gt;E4</title>
<path fill="none" stroke="black" d="M817.142,-480.581C823.491,-465.095 832.869,-442.222 840.146,-424.473"/>
<polygon fill="black" stroke="black" points="843.385,-425.799 843.94,-415.219 836.908,-423.144 843.385,-425.799"/>
</g>
<!-- P5_0_0 -->
<g id="node17" class="node"><title>P5_0_0</title>
<polygon fill="white" stroke="black" points="377,-415 225,-415 225,-379 377,-379 377,-415"/>
<text text-anchor="middle" x="301" y="-393.3" font-family="Times,serif" font-size="14.00">PREP: in flour mixture</text>
</g>
<!-- P5_0_0&#45;&gt;E5 -->
<g id="edge14" class="edge"><title>P5_0_0&#45;&gt;E5</title>
<path fill="none" stroke="black" d="M351.377,-378.923C405.909,-360.438 492.323,-331.145 546.507,-312.777"/>
<polygon fill="black" stroke="black" points="547.887,-316.005 556.234,-309.48 545.64,-309.376 547.887,-316.005"/>
</g>
<!-- P5_1_0 -->
<g id="node18" class="node"><title>P5_1_0</title>
<polygon fill="white" stroke="black" points="603,-415 395,-415 395,-379 603,-379 603,-415"/>
<text text-anchor="middle" x="499" y="-393.3" font-family="Times,serif" font-size="14.00">PREP: into the liquid ingredients</text>
</g>
<!-- P5_1_0&#45;&gt;E5 -->
<g id="edge15" class="edge"><title>P5_1_0&#45;&gt;E5</title>
<path fill="none" stroke="black" d="M515.896,-378.581C531.664,-362.325 555.327,-337.931 572.849,-319.867"/>
<polygon fill="black" stroke="black" points="575.491,-322.17 579.942,-312.555 570.467,-317.296 575.491,-322.17"/>
</g>
<!-- P5_2_0 -->
<g id="node19" class="node"><title>P5_2_0</title>
<polygon fill="white" stroke="black" points="767,-415 621,-415 621,-379 767,-379 767,-415"/>
<text text-anchor="middle" x="694" y="-393.3" font-family="Times,serif" font-size="14.00">PREP: until combined</text>
</g>
<!-- P5_2_0&#45;&gt;E5 -->
<g id="edge16" class="edge"><title>P5_2_0&#45;&gt;E5</title>
<path fill="none" stroke="black" d="M676.93,-378.581C660.999,-362.325 637.093,-337.931 619.39,-319.867"/>
<polygon fill="black" stroke="black" points="621.723,-317.247 612.224,-312.555 616.723,-322.147 621.723,-317.247"/>
</g>
<!-- P7_0_0 -->
<g id="node20" class="node"><title>P7_0_0</title>
<polygon fill="white" stroke="black" points="516,-211 0,-211 0,-175 516,-175 516,-211"/>
<text text-anchor="middle" x="258" y="-189.3" font-family="Times,serif" font-size="14.00">PREP: in a preheated 350 degree f &#45;lrb&#45; 175 degrees c &#45;rrb&#45; oven for 25 to 30 minutes</text>
</g>
<!-- P7_0_0&#45;&gt;E7 -->
<g id="edge19" class="edge"><title>P7_0_0&#45;&gt;E7</title>
<path fill="none" stroke="black" d="M274.025,-174.581C288.847,-158.471 311.023,-134.366 327.596,-116.352"/>
<polygon fill="black" stroke="black" points="330.575,-118.284 334.769,-108.555 325.423,-113.545 330.575,-118.284"/>
</g>
</g>
</svg>
