<?xml version="1.0" encoding="UTF-8" standalone="no"?>
<!DOCTYPE svg PUBLIC "-//W3C//DTD SVG 1.1//EN"
 "http://www.w3.org/Graphics/SVG/1.1/DTD/svg11.dtd">
<!-- Generated by graphviz version 2.38.0 (20140413.2041)
 -->
<!-- Title: recipe Pages: 1 -->
<svg width="1530pt" height="810pt"
 viewBox="0.00 0.00 1530.00 810.00" xmlns="http://www.w3.org/2000/svg" xmlns:xlink="http://www.w3.org/1999/xlink">
<g id="graph0" class="graph" transform="scale(1 1) rotate(0) translate(4 806)">
<title>recipe</title>
<polygon fill="white" stroke="none" points="-4,4 -4,-806 1526,-806 1526,4 -4,4"/>
<!-- E0 -->
<g id="node1" class="node"><title>E0</title>
<ellipse fill="azure" stroke="black" cx="1352.5" cy="-295" rx="68.7879" ry="18"/>
<text text-anchor="middle" x="1352.5" y="-291.3" font-family="Times,serif" font-size="14.00">preheat (S0,P0)</text>
</g>
<!-- E10 -->
<g id="node11" class="node"><title>E10</title>
<ellipse fill="azure" stroke="black" cx="1024.5" cy="-193" rx="73.387" ry="18"/>
<text text-anchor="middle" x="1024.5" y="-189.3" font-family="Times,serif" font-size="14.00">bake (S10,P453)</text>
</g>
<!-- E0&#45;&gt;E10 -->
<g id="edge22" class="edge"><title>E0&#45;&gt;E10</title>
<path fill="none" stroke="black" d="M1309.28,-280.824C1249.8,-262.689 1142.74,-230.05 1078.19,-210.37"/>
<polygon fill="black" stroke="black" points="1079.19,-207.013 1068.6,-207.445 1077.14,-213.709 1079.19,-207.013"/>
<text text-anchor="middle" x="1323" y="-247.8" font-family="Times,serif" font-size="14.00">OUTPUT: </text>
<text text-anchor="middle" x="1323" y="-232.8" font-family="Times,serif" font-size="14.00">INPUT: in the preheated oven</text>
</g>
<!-- E1 -->
<g id="node2" class="node"><title>E1</title>
<ellipse fill="azure" stroke="black" cx="603.5" cy="-604" rx="69.5877" ry="18"/>
<text text-anchor="middle" x="603.5" y="-600.3" font-family="Times,serif" font-size="14.00">grease (S1,P41)</text>
</g>
<!-- E5 -->
<g id="node6" class="node"><title>E5</title>
<ellipse fill="azure" stroke="black" cx="778.5" cy="-500" rx="66.0889" ry="18"/>
<text text-anchor="middle" x="778.5" y="-496.3" font-family="Times,serif" font-size="14.00">beat (S5,P167)</text>
</g>
<!-- E1&#45;&gt;E5 -->
<g id="edge10" class="edge"><title>E1&#45;&gt;E5</title>
<path fill="none" stroke="black" d="M599.958,-585.939C597.955,-571.17 597.816,-550.167 609.5,-537 622.578,-522.262 666.736,-513.17 706.633,-507.81"/>
<polygon fill="black" stroke="black" points="707.188,-511.268 716.663,-506.527 706.299,-504.324 707.188,-511.268"/>
<text text-anchor="middle" x="692.5" y="-555.8" font-family="Times,serif" font-size="14.00">OUTPUT: </text>
<text text-anchor="middle" x="692.5" y="-540.8" font-family="Times,serif" font-size="14.00">INPUT: 1/4 cup coconut oil </text>
</g>
<!-- E2 -->
<g id="node3" class="node"><title>E2</title>
<ellipse fill="azure" stroke="black" cx="445.5" cy="-708" rx="63.8893" ry="18"/>
<text text-anchor="middle" x="445.5" y="-704.3" font-family="Times,serif" font-size="14.00">soak (S2,P84)</text>
</g>
<!-- E3 -->
<g id="node4" class="node"><title>E3</title>
<ellipse fill="azure" stroke="black" cx="445.5" cy="-604" rx="70.6878" ry="18"/>
<text text-anchor="middle" x="445.5" y="-600.3" font-family="Times,serif" font-size="14.00">drain (S3,P149)</text>
</g>
<!-- E2&#45;&gt;E3 -->
<g id="edge7" class="edge"><title>E2&#45;&gt;E3</title>
<path fill="none" stroke="black" d="M445.5,-689.697C445.5,-673.923 445.5,-650.364 445.5,-632.094"/>
<polygon fill="black" stroke="black" points="449,-632.047 445.5,-622.047 442,-632.047 449,-632.047"/>
<text text-anchor="middle" x="477.5" y="-659.8" font-family="Times,serif" font-size="14.00">OUTPUT: </text>
<text text-anchor="middle" x="477.5" y="-644.8" font-family="Times,serif" font-size="14.00">INPUT: </text>
</g>
<!-- E4 -->
<g id="node5" class="node"><title>E4</title>
<ellipse fill="azure" stroke="black" cx="536.5" cy="-500" rx="69.5877" ry="18"/>
<text text-anchor="middle" x="536.5" y="-496.3" font-family="Times,serif" font-size="14.00">chop (S4,P155)</text>
</g>
<!-- E3&#45;&gt;E4 -->
<g id="edge8" class="edge"><title>E3&#45;&gt;E4</title>
<path fill="none" stroke="black" d="M455.437,-586.011C464.029,-572.059 477.279,-552.193 491.5,-537 495.897,-532.302 500.925,-527.693 505.989,-523.424"/>
<polygon fill="black" stroke="black" points="508.318,-526.042 513.892,-517.032 503.915,-520.6 508.318,-526.042"/>
<text text-anchor="middle" x="535" y="-555.8" font-family="Times,serif" font-size="14.00">OUTPUT: </text>
<text text-anchor="middle" x="535" y="-540.8" font-family="Times,serif" font-size="14.00">INPUT: raisins</text>
</g>
<!-- E8 -->
<g id="node9" class="node"><title>E8</title>
<ellipse fill="azure" stroke="black" cx="778.5" cy="-397" rx="66.0889" ry="18"/>
<text text-anchor="middle" x="778.5" y="-393.3" font-family="Times,serif" font-size="14.00">fold (S8,P297)</text>
</g>
<!-- E4&#45;&gt;E8 -->
<g id="edge16" class="edge"><title>E4&#45;&gt;E8</title>
<path fill="none" stroke="black" d="M554.39,-482.418C571.61,-467.343 599.019,-445.588 626.5,-433 652.697,-421 683.376,-412.929 710.286,-407.594"/>
<polygon fill="black" stroke="black" points="711.223,-410.979 720.398,-405.681 709.922,-404.101 711.223,-410.979"/>
<text text-anchor="middle" x="700.5" y="-451.8" font-family="Times,serif" font-size="14.00">OUTPUT: </text>
<text text-anchor="middle" x="700.5" y="-436.8" font-family="Times,serif" font-size="14.00">INPUT: &#160;chopped raisins </text>
</g>
<!-- E5&#45;&gt;E8 -->
<g id="edge17" class="edge"><title>E5&#45;&gt;E8</title>
<path fill="none" stroke="black" d="M778.5,-481.867C778.5,-466.414 778.5,-443.416 778.5,-425.409"/>
<polygon fill="black" stroke="black" points="782,-425.217 778.5,-415.217 775,-425.217 782,-425.217"/>
<text text-anchor="middle" x="937.5" y="-451.8" font-family="Times,serif" font-size="14.00">OUTPUT: </text>
<text text-anchor="middle" x="937.5" y="-436.8" font-family="Times,serif" font-size="14.00">INPUT: into the banana mixture using a rubber spatula</text>
</g>
<!-- E6 -->
<g id="node7" class="node"><title>E6</title>
<ellipse fill="azure" stroke="black" cx="184.5" cy="-500" rx="64.9885" ry="18"/>
<text text-anchor="middle" x="184.5" y="-496.3" font-family="Times,serif" font-size="14.00">add (S6,P224)</text>
</g>
<!-- E7 -->
<g id="node8" class="node"><title>E7</title>
<ellipse fill="azure" stroke="black" cx="360.5" cy="-397" rx="66.0889" ry="18"/>
<text text-anchor="middle" x="360.5" y="-393.3" font-family="Times,serif" font-size="14.00">beat (S7,P273)</text>
</g>
<!-- E6&#45;&gt;E7 -->
<g id="edge13" class="edge"><title>E6&#45;&gt;E7</title>
<path fill="none" stroke="black" d="M209.074,-483.274C230.767,-469.562 263.382,-449.362 292.5,-433 301.616,-427.878 311.558,-422.595 320.955,-417.735"/>
<polygon fill="black" stroke="black" points="322.817,-420.714 330.12,-413.038 319.625,-414.484 322.817,-420.714"/>
<text text-anchor="middle" x="324.5" y="-451.8" font-family="Times,serif" font-size="14.00">OUTPUT: </text>
<text text-anchor="middle" x="324.5" y="-436.8" font-family="Times,serif" font-size="14.00">INPUT: </text>
</g>
<!-- E9 -->
<g id="node10" class="node"><title>E9</title>
<ellipse fill="azure" stroke="black" cx="583.5" cy="-295" rx="69.5877" ry="18"/>
<text text-anchor="middle" x="583.5" y="-291.3" font-family="Times,serif" font-size="14.00">pour (S9,P426)</text>
</g>
<!-- E7&#45;&gt;E9 -->
<g id="edge20" class="edge"><title>E7&#45;&gt;E9</title>
<path fill="none" stroke="black" d="M378.376,-379.548C395.272,-364.827 421.926,-343.671 448.5,-331 469.918,-320.788 494.72,-313.265 517.178,-307.87"/>
<polygon fill="black" stroke="black" points="518.017,-311.268 526.976,-305.612 516.445,-304.447 518.017,-311.268"/>
<text text-anchor="middle" x="548.5" y="-349.8" font-family="Times,serif" font-size="14.00">OUTPUT: </text>
<text text-anchor="middle" x="548.5" y="-334.8" font-family="Times,serif" font-size="14.00">INPUT: into prepared muffin cups</text>
</g>
<!-- E8&#45;&gt;E9 -->
<g id="edge19" class="edge"><title>E8&#45;&gt;E9</title>
<path fill="none" stroke="black" d="M748.884,-380.812C715.096,-363.485 659.716,-335.085 622.454,-315.976"/>
<polygon fill="black" stroke="black" points="623.89,-312.78 613.395,-311.331 620.696,-319.008 623.89,-312.78"/>
<text text-anchor="middle" x="741.5" y="-349.8" font-family="Times,serif" font-size="14.00">OUTPUT: </text>
<text text-anchor="middle" x="741.5" y="-334.8" font-family="Times,serif" font-size="14.00">INPUT: </text>
</g>
<!-- E9&#45;&gt;E10 -->
<g id="edge21" class="edge"><title>E9&#45;&gt;E10</title>
<path fill="none" stroke="black" d="M632.226,-281.958C686.761,-268.584 777.803,-246.563 856.5,-229 861.783,-227.821 915.214,-216.7 960.422,-207.306"/>
<polygon fill="black" stroke="black" points="961.14,-210.731 970.218,-205.27 959.716,-203.878 961.14,-210.731"/>
<text text-anchor="middle" x="888.5" y="-247.8" font-family="Times,serif" font-size="14.00">OUTPUT: </text>
<text text-anchor="middle" x="888.5" y="-232.8" font-family="Times,serif" font-size="14.00">INPUT: </text>
</g>
<!-- E11 -->
<g id="node12" class="node"><title>E11</title>
<ellipse fill="azure" stroke="black" cx="756.5" cy="-91" rx="72.2875" ry="18"/>
<text text-anchor="middle" x="756.5" y="-87.3" font-family="Times,serif" font-size="14.00">cool (S11,P540)</text>
</g>
<!-- E10&#45;&gt;E11 -->
<g id="edge25" class="edge"><title>E10&#45;&gt;E11</title>
<path fill="none" stroke="black" d="M985.817,-177.566C937.882,-159.68 856.206,-129.204 804.371,-109.862"/>
<polygon fill="black" stroke="black" points="805.33,-106.485 794.738,-106.268 802.883,-113.043 805.33,-106.485"/>
<text text-anchor="middle" x="961.5" y="-145.8" font-family="Times,serif" font-size="14.00">OUTPUT: </text>
<text text-anchor="middle" x="961.5" y="-130.8" font-family="Times,serif" font-size="14.00">INPUT: </text>
</g>
<!-- EOR -->
<g id="node29" class="node"><title>EOR</title>
<ellipse fill="plum" stroke="black" cx="756.5" cy="-18" rx="57.3905" ry="18"/>
<text text-anchor="middle" x="756.5" y="-14.3" font-family="Times,serif" font-size="14.00">Bon appetit!</text>
</g>
<!-- E11&#45;&gt;EOR -->
<g id="edge28" class="edge"><title>E11&#45;&gt;EOR</title>
<path fill="none" stroke="black" d="M756.5,-72.8129C756.5,-64.7895 756.5,-55.0475 756.5,-46.0691"/>
<polygon fill="black" stroke="black" points="760,-46.0288 756.5,-36.0288 753,-46.0289 760,-46.0288"/>
</g>
<!-- D1 -->
<g id="node13" class="node"><title>D1</title>
<polygon fill="white" stroke="black" points="676.5,-726 528.5,-726 528.5,-690 676.5,-690 676.5,-726"/>
<text text-anchor="middle" x="602.5" y="-704.3" font-family="Times,serif" font-size="14.00">DOBJ: 12 muffin cups</text>
</g>
<!-- D1&#45;&gt;E1 -->
<g id="edge1" class="edge"><title>D1&#45;&gt;E1</title>
<path fill="none" stroke="black" d="M602.67,-689.697C602.824,-673.923 603.055,-650.364 603.234,-632.094"/>
<polygon fill="black" stroke="black" points="606.735,-632.081 603.333,-622.047 599.735,-632.013 606.735,-632.081"/>
</g>
<!-- P1_0 -->
<g id="node14" class="node"><title>P1_0</title>
<polygon fill="peachpuff" stroke="black" points="914.5,-727 694.5,-727 694.5,-689 914.5,-689 914.5,-727"/>
<text text-anchor="middle" x="804.5" y="-711.8" font-family="Times,serif" font-size="14.00">PREP: with coconut oil</text>
<text text-anchor="middle" x="804.5" y="-696.8" font-family="Times,serif" font-size="14.00">(text: with 2 teaspoons coconut oil)</text>
</g>
<!-- P1_0&#45;&gt;E1 -->
<g id="edge2" class="edge"><title>P1_0&#45;&gt;E1</title>
<path fill="none" stroke="black" d="M769.028,-688.999C733.599,-671.02 679.276,-643.453 642.616,-624.85"/>
<polygon fill="black" stroke="black" points="644.199,-621.729 633.698,-620.324 641.032,-627.971 644.199,-621.729"/>
</g>
<!-- D2 -->
<g id="node15" class="node"><title>D2</title>
<polygon fill="peachpuff" stroke="black" points="393,-802 214,-802 214,-764 393,-764 393,-802"/>
<text text-anchor="middle" x="303.5" y="-786.8" font-family="Times,serif" font-size="14.00">DOBJ: raisins, warm water</text>
<text text-anchor="middle" x="303.5" y="-771.8" font-family="Times,serif" font-size="14.00">(text: raisins in warm water)</text>
</g>
<!-- D2&#45;&gt;E2 -->
<g id="edge3" class="edge"><title>D2&#45;&gt;E2</title>
<path fill="none" stroke="black" d="M338.601,-763.955C359.348,-753.289 385.646,-739.77 406.966,-728.81"/>
<polygon fill="black" stroke="black" points="408.776,-731.815 416.069,-724.13 405.576,-725.589 408.776,-731.815"/>
</g>
<!-- P2_0 -->
<g id="node16" class="node"><title>P2_0</title>
<polygon fill="white" stroke="black" points="765.5,-801 411.5,-801 411.5,-765 765.5,-765 765.5,-801"/>
<text text-anchor="middle" x="588.5" y="-779.3" font-family="Times,serif" font-size="14.00">PREP: in a small bowl until rehydrated , about 10 minutes</text>
</g>
<!-- P2_0&#45;&gt;E2 -->
<g id="edge4" class="edge"><title>P2_0&#45;&gt;E2</title>
<path fill="none" stroke="black" d="M554.973,-764.885C533.736,-754.044 506.204,-739.989 484.063,-728.686"/>
<polygon fill="black" stroke="black" points="485.437,-725.458 474.939,-724.028 482.254,-731.692 485.437,-725.458"/>
</g>
<!-- D0 -->
<g id="node17" class="node"><title>D0</title>
<polygon fill="white" stroke="black" points="1522,-415 1183,-415 1183,-379 1522,-379 1522,-415"/>
<text text-anchor="middle" x="1352.5" y="-393.3" font-family="Times,serif" font-size="14.00">DOBJ: the oven to 375 degrees F &#45;LRB&#45; 190 degrees C</text>
</g>
<!-- D0&#45;&gt;E0 -->
<g id="edge5" class="edge"><title>D0&#45;&gt;E0</title>
<path fill="none" stroke="black" d="M1352.5,-378.581C1352.5,-363.382 1352.5,-341.067 1352.5,-323.464"/>
<polygon fill="black" stroke="black" points="1356,-323.219 1352.5,-313.219 1349,-323.219 1356,-323.219"/>
</g>
<!-- D6 -->
<g id="node18" class="node"><title>D6</title>
<polygon fill="peachpuff" stroke="black" points="357,-623 0,-623 0,-585 357,-585 357,-623"/>
<text text-anchor="middle" x="178.5" y="-607.8" font-family="Times,serif" font-size="14.00">DOBJ: eggs, ripe bananas, grated carrot, ounces applesauce</text>
<text text-anchor="middle" x="178.5" y="-592.8" font-family="Times,serif" font-size="14.00">(text: eggs , mashed bananas , applesauce , grated carrot)</text>
</g>
<!-- D6&#45;&gt;E6 -->
<g id="edge6" class="edge"><title>D6&#45;&gt;E6</title>
<path fill="none" stroke="black" d="M179.573,-584.764C180.498,-569.031 181.848,-546.083 182.901,-528.183"/>
<polygon fill="black" stroke="black" points="186.403,-528.248 183.496,-518.06 179.415,-527.837 186.403,-528.248"/>
</g>
<!-- D5_ing -->
<g id="node19" class="node"><title>D5_ing</title>
<polygon fill="peachpuff" stroke="black" points="871.5,-623 691.5,-623 691.5,-585 871.5,-585 871.5,-623"/>
<text text-anchor="middle" x="781.5" y="-607.8" font-family="Times,serif" font-size="14.00">DOBJ: brown sugar, butter</text>
<text text-anchor="middle" x="781.5" y="-592.8" font-family="Times,serif" font-size="14.00">(text: &#160;butter , &#160;brown sugar)</text>
</g>
<!-- D5_ing&#45;&gt;E5 -->
<g id="edge9" class="edge"><title>D5_ing&#45;&gt;E5</title>
<path fill="none" stroke="black" d="M780.964,-584.764C780.501,-569.031 779.826,-546.083 779.299,-528.183"/>
<polygon fill="black" stroke="black" points="782.794,-527.953 779.002,-518.06 775.797,-528.159 782.794,-527.953"/>
</g>
<!-- P5_0_0 -->
<g id="node20" class="node"><title>P5_0_0</title>
<polygon fill="white" stroke="black" points="1003.5,-622 889.5,-622 889.5,-586 1003.5,-586 1003.5,-622"/>
<text text-anchor="middle" x="946.5" y="-600.3" font-family="Times,serif" font-size="14.00">PREP: in a bowl</text>
</g>
<!-- P5_0_0&#45;&gt;E5 -->
<g id="edge11" class="edge"><title>P5_0_0&#45;&gt;E5</title>
<path fill="none" stroke="black" d="M918.381,-585.927C889.39,-568.326 844.147,-540.857 813.008,-521.951"/>
<polygon fill="black" stroke="black" points="814.592,-518.819 804.228,-516.62 810.959,-524.802 814.592,-518.819"/>
</g>
<!-- O5_0_0 -->
<g id="node21" class="node"><title>O5_0_0</title>
<polygon fill="white" stroke="black" points="1141,-622 1022,-622 1022,-586 1141,-586 1141,-622"/>
<text text-anchor="middle" x="1081.5" y="-600.3" font-family="Times,serif" font-size="14.00">OTHER: together</text>
</g>
<!-- O5_0_0&#45;&gt;E5 -->
<g id="edge12" class="edge"><title>O5_0_0&#45;&gt;E5</title>
<path fill="none" stroke="black" d="M1030.78,-585.927C974.524,-566.988 884.327,-536.625 828.398,-517.797"/>
<polygon fill="black" stroke="black" points="829.303,-514.409 818.709,-514.536 827.07,-521.043 829.303,-514.409"/>
</g>
<!-- O7_0_0 -->
<g id="node22" class="node"><title>O7_0_0</title>
<polygon fill="white" stroke="black" points="437,-518 284,-518 284,-482 437,-482 437,-518"/>
<text text-anchor="middle" x="360.5" y="-496.3" font-family="Times,serif" font-size="14.00">OTHER: to incorporate</text>
</g>
<!-- O7_0_0&#45;&gt;E7 -->
<g id="edge14" class="edge"><title>O7_0_0&#45;&gt;E7</title>
<path fill="none" stroke="black" d="M360.5,-481.867C360.5,-466.414 360.5,-443.416 360.5,-425.409"/>
<polygon fill="black" stroke="black" points="364,-425.217 360.5,-415.217 357,-425.217 364,-425.217"/>
</g>
<!-- D8_ing -->
<g id="node23" class="node"><title>D8_ing</title>
<polygon fill="peachpuff" stroke="black" points="1394,-519 863,-519 863,-481 1394,-481 1394,-519"/>
<text text-anchor="middle" x="1128.5" y="-503.8" font-family="Times,serif" font-size="14.00">DOBJ: bread flour, vanilla extract, ground flax seed, whole&#45;wheat flour, baking soda, salt</text>
<text text-anchor="middle" x="1128.5" y="-488.8" font-family="Times,serif" font-size="14.00">(text: &#160;salt , &#160;flax seed , bread flour , &#160;vanilla extract, &#160;baking soda , &#160;whole&#45;wheat flour )</text>
</g>
<!-- D8_ing&#45;&gt;E8 -->
<g id="edge15" class="edge"><title>D8_ing&#45;&gt;E8</title>
<path fill="none" stroke="black" d="M1125.91,-480.758C1122.71,-465.434 1115.69,-444.282 1100.5,-433 1062.91,-405.075 937.936,-398.671 855.193,-397.605"/>
<polygon fill="black" stroke="black" points="855.106,-394.104 845.07,-397.499 855.032,-401.104 855.106,-394.104"/>
</g>
<!-- O8_0_0 -->
<g id="node24" class="node"><title>O8_0_0</title>
<polygon fill="white" stroke="black" points="1520.5,-518 1412.5,-518 1412.5,-482 1520.5,-482 1520.5,-518"/>
<text text-anchor="middle" x="1466.5" y="-496.3" font-family="Times,serif" font-size="14.00">OTHER: gently</text>
</g>
<!-- O8_0_0&#45;&gt;E8 -->
<g id="edge18" class="edge"><title>O8_0_0&#45;&gt;E8</title>
<path fill="none" stroke="black" d="M1412.3,-483.113C1409.33,-482.368 1406.38,-481.658 1403.5,-481 1206.94,-436.149 969.68,-412.871 852.043,-403.341"/>
<polygon fill="black" stroke="black" points="851.971,-399.824 841.723,-402.516 851.412,-406.802 851.971,-399.824"/>
</g>
<!-- O10_0_0 -->
<g id="node25" class="node"><title>O10_0_0</title>
<polygon fill="white" stroke="black" points="1071.5,-313 671.5,-313 671.5,-277 1071.5,-277 1071.5,-313"/>
<text text-anchor="middle" x="871.5" y="-291.3" font-family="Times,serif" font-size="14.00">OTHER: until a toothpick inserted into the center comes out clean </text>
</g>
<!-- O10_0_0&#45;&gt;E10 -->
<g id="edge23" class="edge"><title>O10_0_0&#45;&gt;E10</title>
<path fill="none" stroke="black" d="M897.802,-276.809C923.706,-259.879 963.359,-233.962 991.394,-215.638"/>
<polygon fill="black" stroke="black" points="993.6,-218.377 1000.06,-209.977 989.77,-212.518 993.6,-218.377"/>
</g>
<!-- O10_0_1 -->
<g id="node26" class="node"><title>O10_0_1</title>
<polygon fill="white" stroke="black" points="1265.5,-313 1089.5,-313 1089.5,-277 1265.5,-277 1265.5,-313"/>
<text text-anchor="middle" x="1177.5" y="-291.3" font-family="Times,serif" font-size="14.00">OTHER: &#160;about 18 minutes</text>
</g>
<!-- O10_0_1&#45;&gt;E10 -->
<g id="edge24" class="edge"><title>O10_0_1&#45;&gt;E10</title>
<path fill="none" stroke="black" d="M1151.2,-276.809C1125.29,-259.879 1085.64,-233.962 1057.61,-215.638"/>
<polygon fill="black" stroke="black" points="1059.23,-212.518 1048.94,-209.977 1055.4,-218.377 1059.23,-212.518"/>
</g>
<!-- P11_0_0 -->
<g id="node27" class="node"><title>P11_0_0</title>
<polygon fill="white" stroke="black" points="561.5,-211 351.5,-211 351.5,-175 561.5,-175 561.5,-211"/>
<text text-anchor="middle" x="456.5" y="-189.3" font-family="Times,serif" font-size="14.00">PREP: in the pans for 10 minutes</text>
</g>
<!-- P11_0_0&#45;&gt;E11 -->
<g id="edge26" class="edge"><title>P11_0_0&#45;&gt;E11</title>
<path fill="none" stroke="black" d="M507.731,-174.923C562.986,-156.505 650.43,-127.357 705.568,-108.977"/>
<polygon fill="black" stroke="black" points="706.757,-112.27 715.137,-105.788 704.543,-105.63 706.757,-112.27"/>
</g>
<!-- P11_1_0 -->
<g id="node28" class="node"><title>P11_1_0</title>
<polygon fill="white" stroke="black" points="933,-211 580,-211 580,-175 933,-175 933,-211"/>
<text text-anchor="middle" x="756.5" y="-189.3" font-family="Times,serif" font-size="14.00">PREP: before removing to cool completely on a wire rack</text>
</g>
<!-- P11_1_0&#45;&gt;E11 -->
<g id="edge27" class="edge"><title>P11_1_0&#45;&gt;E11</title>
<path fill="none" stroke="black" d="M756.5,-174.581C756.5,-159.382 756.5,-137.067 756.5,-119.464"/>
<polygon fill="black" stroke="black" points="760,-119.219 756.5,-109.219 753,-119.219 760,-119.219"/>
</g>
</g>
</svg>
