<?xml version="1.0" encoding="UTF-8" standalone="no"?>
<!DOCTYPE svg PUBLIC "-//W3C//DTD SVG 1.1//EN"
 "http://www.w3.org/Graphics/SVG/1.1/DTD/svg11.dtd">
<!-- Generated by graphviz version 2.38.0 (20140413.2041)
 -->
<!-- Title: recipe Pages: 1 -->
<svg width="1388pt" height="704pt"
 viewBox="0.00 0.00 1388.00 704.00" xmlns="http://www.w3.org/2000/svg" xmlns:xlink="http://www.w3.org/1999/xlink">
<g id="graph0" class="graph" transform="scale(1 1) rotate(0) translate(4 700)">
<title>recipe</title>
<polygon fill="white" stroke="none" points="-4,4 -4,-700 1384,-700 1384,4 -4,4"/>
<!-- E0 -->
<g id="node1" class="node"><title>E0</title>
<ellipse fill="azure" stroke="black" cx="1214" cy="-193" rx="68.7879" ry="18"/>
<text text-anchor="middle" x="1214" y="-189.3" font-family="Times,serif" font-size="14.00">preheat (S0,P0)</text>
</g>
<!-- E7 -->
<g id="node8" class="node"><title>E7</title>
<ellipse fill="azure" stroke="black" cx="894" cy="-91" rx="68.7879" ry="18"/>
<text text-anchor="middle" x="894" y="-87.3" font-family="Times,serif" font-size="14.00">bake (S7,P253)</text>
</g>
<!-- E0&#45;&gt;E7 -->
<g id="edge17" class="edge"><title>E0&#45;&gt;E7</title>
<path fill="none" stroke="black" d="M1171.51,-178.721C1113.33,-160.54 1008.96,-127.925 946.128,-108.29"/>
<polygon fill="black" stroke="black" points="947.003,-104.897 936.414,-105.254 944.915,-111.578 947.003,-104.897"/>
<text text-anchor="middle" x="1241" y="-145.8" font-family="Times,serif" font-size="14.00">OUTPUT: </text>
<text text-anchor="middle" x="1241" y="-130.8" font-family="Times,serif" font-size="14.00">INPUT: in preheated oven for 20 to 25 minutes </text>
</g>
<!-- E1 -->
<g id="node2" class="node"><title>E1</title>
<ellipse fill="azure" stroke="black" cx="408" cy="-295" rx="96.6831" ry="18"/>
<text text-anchor="middle" x="408" y="-291.3" font-family="Times,serif" font-size="14.00">grease or line (S1,P45)</text>
</g>
<!-- E6 -->
<g id="node7" class="node"><title>E6</title>
<ellipse fill="azure" stroke="black" cx="573" cy="-193" rx="69.5877" ry="18"/>
<text text-anchor="middle" x="573" y="-189.3" font-family="Times,serif" font-size="14.00">pour (S6,P220)</text>
</g>
<!-- E1&#45;&gt;E6 -->
<g id="edge15" class="edge"><title>E1&#45;&gt;E6</title>
<path fill="none" stroke="black" d="M410.726,-276.838C413.974,-262.055 420.855,-241.225 435,-229 452.108,-214.213 474.614,-205.525 496.473,-200.465"/>
<polygon fill="black" stroke="black" points="497.374,-203.853 506.45,-198.387 495.946,-197 497.374,-203.853"/>
<text text-anchor="middle" x="535" y="-247.8" font-family="Times,serif" font-size="14.00">OUTPUT: </text>
<text text-anchor="middle" x="535" y="-232.8" font-family="Times,serif" font-size="14.00">INPUT: into prepared muffin cups</text>
</g>
<!-- E2 -->
<g id="node3" class="node"><title>E2</title>
<ellipse fill="azure" stroke="black" cx="196" cy="-602" rx="78.7863" ry="18"/>
<text text-anchor="middle" x="196" y="-598.3" font-family="Times,serif" font-size="14.00">combine (S2,P84)</text>
</g>
<!-- E3 -->
<g id="node4" class="node"><title>E3</title>
<ellipse fill="azure" stroke="black" cx="460" cy="-499" rx="65.7887" ry="18"/>
<text text-anchor="middle" x="460" y="-495.3" font-family="Times,serif" font-size="14.00">mix (S3,P122)</text>
</g>
<!-- E2&#45;&gt;E3 -->
<g id="edge7" class="edge"><title>E2&#45;&gt;E3</title>
<path fill="none" stroke="black" d="M217.553,-584.505C238.176,-569.491 270.688,-547.778 302,-535 330.738,-523.273 364.096,-515.149 392.736,-509.703"/>
<polygon fill="black" stroke="black" points="393.448,-513.131 402.654,-507.887 392.187,-506.245 393.448,-513.131"/>
<text text-anchor="middle" x="379" y="-553.8" font-family="Times,serif" font-size="14.00">OUTPUT: </text>
<text text-anchor="middle" x="379" y="-538.8" font-family="Times,serif" font-size="14.00">INPUT: in a separate bowl</text>
</g>
<!-- E4 -->
<g id="node5" class="node"><title>E4</title>
<ellipse fill="azure" stroke="black" cx="544" cy="-397" rx="63.0888" ry="18"/>
<text text-anchor="middle" x="544" y="-393.3" font-family="Times,serif" font-size="14.00">stir (S4,P163)</text>
</g>
<!-- E3&#45;&gt;E4 -->
<g id="edge10" class="edge"><title>E3&#45;&gt;E4</title>
<path fill="none" stroke="black" d="M455.502,-481.014C452.815,-466.937 451.531,-447.033 461,-433 466.966,-424.158 475.644,-417.544 485.166,-412.597"/>
<polygon fill="black" stroke="black" points="486.844,-415.678 494.493,-408.347 483.941,-409.309 486.844,-415.678"/>
<text text-anchor="middle" x="538" y="-451.8" font-family="Times,serif" font-size="14.00">OUTPUT: </text>
<text text-anchor="middle" x="538" y="-436.8" font-family="Times,serif" font-size="14.00">INPUT: into flour mixture</text>
</g>
<!-- E5 -->
<g id="node6" class="node"><title>E5</title>
<ellipse fill="azure" stroke="black" cx="678" cy="-295" rx="66.0889" ry="18"/>
<text text-anchor="middle" x="678" y="-291.3" font-family="Times,serif" font-size="14.00">fold (S5,P197)</text>
</g>
<!-- E4&#45;&gt;E5 -->
<g id="edge11" class="edge"><title>E4&#45;&gt;E5</title>
<path fill="none" stroke="black" d="M559.129,-379.501C572.459,-365.538 592.843,-345.535 613,-331 620.558,-325.55 629.066,-320.373 637.374,-315.753"/>
<polygon fill="black" stroke="black" points="639.11,-318.793 646.257,-310.972 635.792,-312.629 639.11,-318.793"/>
<text text-anchor="middle" x="645" y="-349.8" font-family="Times,serif" font-size="14.00">OUTPUT: </text>
<text text-anchor="middle" x="645" y="-334.8" font-family="Times,serif" font-size="14.00">INPUT: </text>
</g>
<!-- E5&#45;&gt;E6 -->
<g id="edge14" class="edge"><title>E5&#45;&gt;E6</title>
<path fill="none" stroke="black" d="M670.976,-277.067C664.396,-262.833 653.418,-242.675 639,-229 632.778,-223.098 625.366,-217.91 617.795,-213.46"/>
<polygon fill="black" stroke="black" points="619.347,-210.319 608.896,-208.578 615.98,-216.456 619.347,-210.319"/>
<text text-anchor="middle" x="703" y="-247.8" font-family="Times,serif" font-size="14.00">OUTPUT: </text>
<text text-anchor="middle" x="703" y="-232.8" font-family="Times,serif" font-size="14.00">INPUT: batter</text>
</g>
<!-- E6&#45;&gt;E7 -->
<g id="edge16" class="edge"><title>E6&#45;&gt;E7</title>
<path fill="none" stroke="black" d="M615.626,-178.721C673.985,-160.54 778.682,-127.925 841.709,-108.29"/>
<polygon fill="black" stroke="black" points="842.947,-111.57 851.453,-105.254 840.865,-104.887 842.947,-111.57"/>
<text text-anchor="middle" x="814" y="-145.8" font-family="Times,serif" font-size="14.00">OUTPUT: </text>
<text text-anchor="middle" x="814" y="-130.8" font-family="Times,serif" font-size="14.00">INPUT: </text>
</g>
<!-- EOR -->
<g id="node20" class="node"><title>EOR</title>
<ellipse fill="plum" stroke="black" cx="894" cy="-18" rx="57.3905" ry="18"/>
<text text-anchor="middle" x="894" y="-14.3" font-family="Times,serif" font-size="14.00">Bon appetit!</text>
</g>
<!-- E7&#45;&gt;EOR -->
<g id="edge19" class="edge"><title>E7&#45;&gt;EOR</title>
<path fill="none" stroke="black" d="M894,-72.8129C894,-64.7895 894,-55.0475 894,-46.0691"/>
<polygon fill="black" stroke="black" points="897.5,-46.0288 894,-36.0288 890.5,-46.0289 897.5,-46.0288"/>
</g>
<!-- D1 -->
<g id="node9" class="node"><title>D1</title>
<polygon fill="white" stroke="black" points="335,-415 187,-415 187,-379 335,-379 335,-415"/>
<text text-anchor="middle" x="261" y="-393.3" font-family="Times,serif" font-size="14.00">DOBJ: 10 muffin cups</text>
</g>
<!-- D1&#45;&gt;E1 -->
<g id="edge1" class="edge"><title>D1&#45;&gt;E1</title>
<path fill="none" stroke="black" d="M286.27,-378.809C310.862,-362.08 348.351,-336.577 375.225,-318.296"/>
<polygon fill="black" stroke="black" points="377.248,-321.153 383.548,-312.634 373.311,-315.365 377.248,-321.153"/>
</g>
<!-- O1_0 -->
<g id="node10" class="node"><title>O1_0</title>
<polygon fill="white" stroke="black" points="463,-415 353,-415 353,-379 463,-379 463,-415"/>
<text text-anchor="middle" x="408" y="-393.3" font-family="Times,serif" font-size="14.00">OTHER: lightly</text>
</g>
<!-- O1_0&#45;&gt;E1 -->
<g id="edge2" class="edge"><title>O1_0&#45;&gt;E1</title>
<path fill="none" stroke="black" d="M408,-378.581C408,-363.382 408,-341.067 408,-323.464"/>
<polygon fill="black" stroke="black" points="411.5,-323.219 408,-313.219 404.5,-323.219 411.5,-323.219"/>
</g>
<!-- D0 -->
<g id="node11" class="node"><title>D0</title>
<polygon fill="white" stroke="black" points="1373,-313 1055,-313 1055,-277 1373,-277 1373,-313"/>
<text text-anchor="middle" x="1214" y="-291.3" font-family="Times,serif" font-size="14.00">DOBJ: oven to 350 degrees F &#45;LRB&#45; 175 degrees C</text>
</g>
<!-- D0&#45;&gt;E0 -->
<g id="edge3" class="edge"><title>D0&#45;&gt;E0</title>
<path fill="none" stroke="black" d="M1214,-276.581C1214,-261.382 1214,-239.067 1214,-221.464"/>
<polygon fill="black" stroke="black" points="1217.5,-221.219 1214,-211.219 1210.5,-221.219 1217.5,-221.219"/>
</g>
<!-- D2 -->
<g id="node12" class="node"><title>D2</title>
<polygon fill="peachpuff" stroke="black" points="194,-696 0,-696 0,-658 194,-658 194,-696"/>
<text text-anchor="middle" x="97" y="-680.8" font-family="Times,serif" font-size="14.00">DOBJ: eggs, very ripe bananas</text>
<text text-anchor="middle" x="97" y="-665.8" font-family="Times,serif" font-size="14.00">(text: eggs, bananas)</text>
</g>
<!-- D2&#45;&gt;E2 -->
<g id="edge4" class="edge"><title>D2&#45;&gt;E2</title>
<path fill="none" stroke="black" d="M121.472,-657.955C134.749,-648.165 151.286,-635.971 165.407,-625.558"/>
<polygon fill="black" stroke="black" points="167.865,-628.095 173.836,-619.343 163.711,-622.461 167.865,-628.095"/>
</g>
<!-- P2_0 -->
<g id="node13" class="node"><title>P2_0</title>
<polygon fill="white" stroke="black" points="377.5,-695 212.5,-695 212.5,-659 377.5,-659 377.5,-695"/>
<text text-anchor="middle" x="295" y="-673.3" font-family="Times,serif" font-size="14.00">PREP: in a medium bowl</text>
</g>
<!-- P2_0&#45;&gt;E2 -->
<g id="edge5" class="edge"><title>P2_0&#45;&gt;E2</title>
<path fill="none" stroke="black" d="M271.789,-658.885C258.316,-648.95 241.184,-636.317 226.617,-625.576"/>
<polygon fill="black" stroke="black" points="228.51,-622.624 218.384,-619.506 224.356,-628.257 228.51,-622.624"/>
</g>
<!-- D3_ing -->
<g id="node14" class="node"><title>D3_ing</title>
<polygon fill="peachpuff" stroke="black" points="627,-621 293,-621 293,-583 627,-583 627,-621"/>
<text text-anchor="middle" x="460" y="-605.8" font-family="Times,serif" font-size="14.00">DOBJ: white sugar, all&#45;purpose flour, baking soda, salt</text>
<text text-anchor="middle" x="460" y="-590.8" font-family="Times,serif" font-size="14.00">(text: &#160;salt , flour , &#160;sugar, &#160;baking soda)</text>
</g>
<!-- D3_ing&#45;&gt;E3 -->
<g id="edge6" class="edge"><title>D3_ing&#45;&gt;E3</title>
<path fill="none" stroke="black" d="M460,-582.943C460,-567.531 460,-545.127 460,-527.488"/>
<polygon fill="black" stroke="black" points="463.5,-527.226 460,-517.226 456.5,-527.226 463.5,-527.226"/>
</g>
<!-- O3_0_0 -->
<g id="node15" class="node"><title>O3_0_0</title>
<polygon fill="white" stroke="black" points="764.5,-620 645.5,-620 645.5,-584 764.5,-584 764.5,-620"/>
<text text-anchor="middle" x="705" y="-598.3" font-family="Times,serif" font-size="14.00">OTHER: together</text>
</g>
<!-- O3_0_0&#45;&gt;E3 -->
<g id="edge8" class="edge"><title>O3_0_0&#45;&gt;E3</title>
<path fill="none" stroke="black" d="M663.716,-583.981C619.41,-565.716 549.305,-536.816 503.983,-518.132"/>
<polygon fill="black" stroke="black" points="505.286,-514.883 494.706,-514.308 502.618,-521.355 505.286,-514.883"/>
</g>
<!-- D4_0 -->
<g id="node16" class="node"><title>D4_0</title>
<polygon fill="white" stroke="black" points="703.5,-517 554.5,-517 554.5,-481 703.5,-481 703.5,-517"/>
<text text-anchor="middle" x="629" y="-495.3" font-family="Times,serif" font-size="14.00">DOBJ: banana mixture</text>
</g>
<!-- D4_0&#45;&gt;E4 -->
<g id="edge9" class="edge"><title>D4_0&#45;&gt;E4</title>
<path fill="none" stroke="black" d="M629.265,-480.819C628.626,-466.622 625.65,-446.653 615,-433 609.473,-425.914 602.137,-420.165 594.277,-415.531"/>
<polygon fill="black" stroke="black" points="595.725,-412.338 585.248,-410.762 592.456,-418.528 595.725,-412.338"/>
</g>
<!-- P5_0_0 -->
<g id="node17" class="node"><title>P5_0_0</title>
<polygon fill="white" stroke="black" points="744.5,-415 625.5,-415 625.5,-379 744.5,-379 744.5,-415"/>
<text text-anchor="middle" x="685" y="-393.3" font-family="Times,serif" font-size="14.00">PREP: in walnuts</text>
</g>
<!-- P5_0_0&#45;&gt;E5 -->
<g id="edge12" class="edge"><title>P5_0_0&#45;&gt;E5</title>
<path fill="none" stroke="black" d="M683.781,-378.581C682.717,-363.382 681.155,-341.067 679.923,-323.464"/>
<polygon fill="black" stroke="black" points="683.395,-322.95 679.205,-313.219 676.412,-323.439 683.395,-322.95"/>
</g>
<!-- O5_0_0 -->
<g id="node18" class="node"><title>O5_0_0</title>
<polygon fill="white" stroke="black" points="887.5,-415 762.5,-415 762.5,-379 887.5,-379 887.5,-415"/>
<text text-anchor="middle" x="825" y="-393.3" font-family="Times,serif" font-size="14.00">OTHER: if desired</text>
</g>
<!-- O5_0_0&#45;&gt;E5 -->
<g id="edge13" class="edge"><title>O5_0_0&#45;&gt;E5</title>
<path fill="none" stroke="black" d="M799.73,-378.809C774.841,-361.879 736.744,-335.962 709.808,-317.638"/>
<polygon fill="black" stroke="black" points="711.723,-314.707 701.486,-311.977 707.785,-320.495 711.723,-314.707"/>
</g>
<!-- P7_0_1 -->
<g id="node19" class="node"><title>P7_0_1</title>
<polygon fill="white" stroke="black" points="1127,-211 661,-211 661,-175 1127,-175 1127,-211"/>
<text text-anchor="middle" x="894" y="-189.3" font-family="Times,serif" font-size="14.00">PREP: in &#160;or until a toothpick inserted into center of a muffin comes out clean</text>
</g>
<!-- P7_0_1&#45;&gt;E7 -->
<g id="edge18" class="edge"><title>P7_0_1&#45;&gt;E7</title>
<path fill="none" stroke="black" d="M894,-174.581C894,-159.382 894,-137.067 894,-119.464"/>
<polygon fill="black" stroke="black" points="897.5,-119.219 894,-109.219 890.5,-119.219 897.5,-119.219"/>
</g>
</g>
</svg>
