<?xml version="1.0" encoding="UTF-8" standalone="no"?>
<!DOCTYPE svg PUBLIC "-//W3C//DTD SVG 1.1//EN"
 "http://www.w3.org/Graphics/SVG/1.1/DTD/svg11.dtd">
<!-- Generated by graphviz version 2.38.0 (20140413.2041)
 -->
<!-- Title: recipe Pages: 1 -->
<svg width="2531pt" height="706pt"
 viewBox="0.00 0.00 2531.00 706.00" xmlns="http://www.w3.org/2000/svg" xmlns:xlink="http://www.w3.org/1999/xlink">
<g id="graph0" class="graph" transform="scale(1 1) rotate(0) translate(4 702)">
<title>recipe</title>
<polygon fill="white" stroke="none" points="-4,4 -4,-702 2527,-702 2527,4 -4,4"/>
<!-- E0 -->
<g id="node1" class="node"><title>E0</title>
<ellipse fill="azure" stroke="black" cx="2364" cy="-193" rx="68.7879" ry="18"/>
<text text-anchor="middle" x="2364" y="-189.3" font-family="Times,serif" font-size="14.00">preheat (S0,P0)</text>
</g>
<!-- E9 -->
<g id="node10" class="node"><title>E9</title>
<ellipse fill="azure" stroke="black" cx="1752" cy="-91" rx="68.7879" ry="18"/>
<text text-anchor="middle" x="1752" y="-87.3" font-family="Times,serif" font-size="14.00">bake (S9,P488)</text>
</g>
<!-- E0&#45;&gt;E9 -->
<g id="edge21" class="edge"><title>E0&#45;&gt;E9</title>
<path fill="none" stroke="black" d="M2313.74,-180.579C2304.53,-178.62 2294.99,-176.677 2286,-175 2120.37,-144.108 1924.34,-115.713 1822.06,-101.514"/>
<polygon fill="black" stroke="black" points="1822.25,-98.0062 1811.86,-100.102 1821.29,-104.94 1822.25,-98.0062"/>
<text text-anchor="middle" x="2271.5" y="-145.8" font-family="Times,serif" font-size="14.00">OUTPUT: </text>
<text text-anchor="middle" x="2271.5" y="-130.8" font-family="Times,serif" font-size="14.00">INPUT: in the preheated oven</text>
</g>
<!-- E1 -->
<g id="node2" class="node"><title>E1</title>
<ellipse fill="azure" stroke="black" cx="327" cy="-500" rx="69.5877" ry="18"/>
<text text-anchor="middle" x="327" y="-496.3" font-family="Times,serif" font-size="14.00">grease (S1,P38)</text>
</g>
<!-- E5 -->
<g id="node6" class="node"><title>E5</title>
<ellipse fill="azure" stroke="black" cx="671" cy="-397" rx="61.99" ry="18"/>
<text text-anchor="middle" x="671" y="-393.3" font-family="Times,serif" font-size="14.00">fill (S5,P296)</text>
</g>
<!-- E1&#45;&gt;E5 -->
<g id="edge10" class="edge"><title>E1&#45;&gt;E5</title>
<path fill="none" stroke="black" d="M370.561,-485.809C415.098,-472.365 486.301,-450.99 548,-433 571.104,-426.263 596.696,-418.956 618.525,-412.77"/>
<polygon fill="black" stroke="black" points="619.599,-416.103 628.268,-410.012 617.693,-409.368 619.599,-416.103"/>
<text text-anchor="middle" x="607.5" y="-451.8" font-family="Times,serif" font-size="14.00">OUTPUT: </text>
<text text-anchor="middle" x="607.5" y="-436.8" font-family="Times,serif" font-size="14.00">INPUT: muffin cups</text>
</g>
<!-- E2 -->
<g id="node3" class="node"><title>E2</title>
<ellipse fill="azure" stroke="black" cx="1102" cy="-500" rx="69.5877" ry="18"/>
<text text-anchor="middle" x="1102" y="-496.3" font-family="Times,serif" font-size="14.00">whisk (S2,P78)</text>
</g>
<!-- E6 -->
<g id="node7" class="node"><title>E6</title>
<ellipse fill="azure" stroke="black" cx="1189" cy="-397" rx="65.7887" ry="18"/>
<text text-anchor="middle" x="1189" y="-393.3" font-family="Times,serif" font-size="14.00">mix (S6,P331)</text>
</g>
<!-- E2&#45;&gt;E6 -->
<g id="edge14" class="edge"><title>E2&#45;&gt;E6</title>
<path fill="none" stroke="black" d="M1095.58,-482.01C1091.34,-467.683 1088.19,-447.288 1098,-433 1104.74,-423.189 1114.64,-416.127 1125.46,-411.045"/>
<polygon fill="black" stroke="black" points="1126.81,-414.275 1134.71,-407.224 1124.13,-407.805 1126.81,-414.275"/>
<text text-anchor="middle" x="1182.5" y="-451.8" font-family="Times,serif" font-size="14.00">OUTPUT: </text>
<text text-anchor="middle" x="1182.5" y="-436.8" font-family="Times,serif" font-size="14.00">INPUT: &#160;2 tablespoons flour </text>
</g>
<!-- E3 -->
<g id="node4" class="node"><title>E3</title>
<ellipse fill="azure" stroke="black" cx="490" cy="-604" rx="66.0889" ry="18"/>
<text text-anchor="middle" x="490" y="-600.3" font-family="Times,serif" font-size="14.00">beat (S3,P136)</text>
</g>
<!-- E4 -->
<g id="node5" class="node"><title>E4</title>
<ellipse fill="azure" stroke="black" cx="671" cy="-500" rx="63.0888" ry="18"/>
<text text-anchor="middle" x="671" y="-496.3" font-family="Times,serif" font-size="14.00">stir (S4,P238)</text>
</g>
<!-- E3&#45;&gt;E4 -->
<g id="edge7" class="edge"><title>E3&#45;&gt;E4</title>
<path fill="none" stroke="black" d="M495.445,-586.059C501.172,-570.949 511.654,-549.362 528,-537 548.818,-521.256 575.735,-512.342 600.591,-507.316"/>
<polygon fill="black" stroke="black" points="601.524,-510.703 610.726,-505.452 600.258,-503.818 601.524,-510.703"/>
<text text-anchor="middle" x="597.5" y="-555.8" font-family="Times,serif" font-size="14.00">OUTPUT: </text>
<text text-anchor="middle" x="597.5" y="-540.8" font-family="Times,serif" font-size="14.00">INPUT: banana mixture</text>
</g>
<!-- E4&#45;&gt;E5 -->
<g id="edge11" class="edge"><title>E4&#45;&gt;E5</title>
<path fill="none" stroke="black" d="M671,-481.867C671,-466.414 671,-443.416 671,-425.409"/>
<polygon fill="black" stroke="black" points="674.5,-425.217 671,-415.217 667.5,-425.217 674.5,-425.217"/>
<text text-anchor="middle" x="761" y="-451.8" font-family="Times,serif" font-size="14.00">OUTPUT: </text>
<text text-anchor="middle" x="761" y="-436.8" font-family="Times,serif" font-size="14.00">INPUT: about 2/3 full of batter</text>
</g>
<!-- E7 -->
<g id="node8" class="node"><title>E7</title>
<ellipse fill="azure" stroke="black" cx="1189" cy="-295" rx="63.0888" ry="18"/>
<text text-anchor="middle" x="1189" y="-291.3" font-family="Times,serif" font-size="14.00">stir (S7,P388)</text>
</g>
<!-- E5&#45;&gt;E7 -->
<g id="edge15" class="edge"><title>E5&#45;&gt;E7</title>
<path fill="none" stroke="black" d="M716.681,-384.636C773.303,-370.794 872.869,-347.252 959,-331 1013.98,-320.626 1076.8,-311.231 1122.88,-304.793"/>
<polygon fill="black" stroke="black" points="1123.62,-308.225 1133.04,-303.384 1122.65,-301.291 1123.62,-308.225"/>
<text text-anchor="middle" x="1072" y="-349.8" font-family="Times,serif" font-size="14.00">OUTPUT: </text>
<text text-anchor="middle" x="1072" y="-334.8" font-family="Times,serif" font-size="14.00">INPUT: 1Ê1/2 teaspoons of applesauce</text>
</g>
<!-- E6&#45;&gt;E7 -->
<g id="edge16" class="edge"><title>E6&#45;&gt;E7</title>
<path fill="none" stroke="black" d="M1189,-378.581C1189,-363.382 1189,-341.067 1189,-323.464"/>
<polygon fill="black" stroke="black" points="1192.5,-323.219 1189,-313.219 1185.5,-323.219 1192.5,-323.219"/>
<text text-anchor="middle" x="1260" y="-349.8" font-family="Times,serif" font-size="14.00">OUTPUT: </text>
<text text-anchor="middle" x="1260" y="-334.8" font-family="Times,serif" font-size="14.00">INPUT: into the mixture</text>
</g>
<!-- E8 -->
<g id="node9" class="node"><title>E8</title>
<ellipse fill="azure" stroke="black" cx="1322" cy="-193" rx="81.4863" ry="18"/>
<text text-anchor="middle" x="1322" y="-189.3" font-family="Times,serif" font-size="14.00">sprinkle (S8,P461)</text>
</g>
<!-- E7&#45;&gt;E8 -->
<g id="edge18" class="edge"><title>E7&#45;&gt;E8</title>
<path fill="none" stroke="black" d="M1208.28,-277.771C1224.47,-264.329 1248.36,-244.922 1270,-229 1275.97,-224.61 1282.44,-220.081 1288.72,-215.796"/>
<polygon fill="black" stroke="black" points="1290.77,-218.633 1297.11,-210.141 1286.86,-212.829 1290.77,-218.633"/>
<text text-anchor="middle" x="1302" y="-247.8" font-family="Times,serif" font-size="14.00">OUTPUT: </text>
<text text-anchor="middle" x="1302" y="-232.8" font-family="Times,serif" font-size="14.00">INPUT: </text>
</g>
<!-- E8&#45;&gt;E9 -->
<g id="edge20" class="edge"><title>E8&#45;&gt;E9</title>
<path fill="none" stroke="black" d="M1365.2,-177.617C1409.46,-163.28 1480.44,-141.383 1543,-127 1588.94,-116.437 1641.26,-107.679 1682.05,-101.566"/>
<polygon fill="black" stroke="black" points="1682.79,-104.996 1692.17,-100.069 1681.76,-98.0712 1682.79,-104.996"/>
<text text-anchor="middle" x="1575" y="-145.8" font-family="Times,serif" font-size="14.00">OUTPUT: </text>
<text text-anchor="middle" x="1575" y="-130.8" font-family="Times,serif" font-size="14.00">INPUT: </text>
</g>
<!-- EOR -->
<g id="node26" class="node"><title>EOR</title>
<ellipse fill="plum" stroke="black" cx="1752" cy="-18" rx="57.3905" ry="18"/>
<text text-anchor="middle" x="1752" y="-14.3" font-family="Times,serif" font-size="14.00">Bon appetit!</text>
</g>
<!-- E9&#45;&gt;EOR -->
<g id="edge25" class="edge"><title>E9&#45;&gt;EOR</title>
<path fill="none" stroke="black" d="M1752,-72.8129C1752,-64.7895 1752,-55.0475 1752,-46.0691"/>
<polygon fill="black" stroke="black" points="1755.5,-46.0288 1752,-36.0288 1748.5,-46.0289 1755.5,-46.0288"/>
</g>
<!-- D2 -->
<g id="node11" class="node"><title>D2</title>
<polygon fill="peachpuff" stroke="black" points="1427.5,-623 1014.5,-623 1014.5,-585 1427.5,-585 1427.5,-623"/>
<text text-anchor="middle" x="1221" y="-607.8" font-family="Times,serif" font-size="14.00">DOBJ: baking powder, all&#45;purpose flour, baking soda, salt</text>
<text text-anchor="middle" x="1221" y="-592.8" font-family="Times,serif" font-size="14.00">(text: 1Ê1/2 cup flour , baking soda , baking powder , salt in a bowl)</text>
</g>
<!-- D2&#45;&gt;E2 -->
<g id="edge1" class="edge"><title>D2&#45;&gt;E2</title>
<path fill="none" stroke="black" d="M1200,-584.999C1180.24,-568.061 1150.55,-542.612 1129.03,-524.167"/>
<polygon fill="black" stroke="black" points="1131.09,-521.323 1121.22,-517.472 1126.53,-526.638 1131.09,-521.323"/>
</g>
<!-- D3 -->
<g id="node12" class="node"><title>D3</title>
<polygon fill="peachpuff" stroke="black" points="570,-698 0,-698 0,-660 570,-660 570,-698"/>
<text text-anchor="middle" x="285" y="-682.8" font-family="Times,serif" font-size="14.00">DOBJ: unsweetened applesauce, agave syrup, egg, packed brown sugar, very ripe bananas</text>
<text text-anchor="middle" x="285" y="-667.8" font-family="Times,serif" font-size="14.00">(text: bananas , 3/4 cup brown sugar , agave syrup , egg , 1/3 cup applesauce in a separate bowl)</text>
</g>
<!-- D3&#45;&gt;E3 -->
<g id="edge2" class="edge"><title>D3&#45;&gt;E3</title>
<path fill="none" stroke="black" d="M335.674,-659.955C368.125,-648.4 409.979,-633.495 441.912,-622.124"/>
<polygon fill="black" stroke="black" points="443.236,-625.368 451.482,-618.716 440.888,-618.774 443.236,-625.368"/>
</g>
<!-- P3_0 -->
<g id="node13" class="node"><title>P3_0</title>
<polygon fill="white" stroke="black" points="803.5,-697 588.5,-697 588.5,-661 803.5,-661 803.5,-697"/>
<text text-anchor="middle" x="696" y="-675.3" font-family="Times,serif" font-size="14.00">PREP: until thoroughly combined</text>
</g>
<!-- P3_0&#45;&gt;E3 -->
<g id="edge3" class="edge"><title>P3_0&#45;&gt;E3</title>
<path fill="none" stroke="black" d="M647.962,-660.977C614.959,-649.281 571.308,-633.813 538.258,-622.101"/>
<polygon fill="black" stroke="black" points="539.395,-618.791 528.8,-618.75 537.057,-625.389 539.395,-618.791"/>
</g>
<!-- D0 -->
<g id="node14" class="node"><title>D0</title>
<polygon fill="white" stroke="black" points="2523,-313 2205,-313 2205,-277 2523,-277 2523,-313"/>
<text text-anchor="middle" x="2364" y="-291.3" font-family="Times,serif" font-size="14.00">DOBJ: oven to 375 degrees F &#45;LRB&#45; 190 degrees C</text>
</g>
<!-- D0&#45;&gt;E0 -->
<g id="edge4" class="edge"><title>D0&#45;&gt;E0</title>
<path fill="none" stroke="black" d="M2364,-276.581C2364,-261.382 2364,-239.067 2364,-221.464"/>
<polygon fill="black" stroke="black" points="2367.5,-221.219 2364,-211.219 2360.5,-221.219 2367.5,-221.219"/>
</g>
<!-- D1 -->
<g id="node15" class="node"><title>D1</title>
<polygon fill="white" stroke="black" points="230.5,-622 41.5,-622 41.5,-586 230.5,-586 230.5,-622"/>
<text text-anchor="middle" x="136" y="-600.3" font-family="Times,serif" font-size="14.00">DOBJ: 12 muffin cups or line</text>
</g>
<!-- D1&#45;&gt;E1 -->
<g id="edge5" class="edge"><title>D1&#45;&gt;E1</title>
<path fill="none" stroke="black" d="M167.969,-585.927C201.309,-568.123 253.556,-540.222 288.987,-521.3"/>
<polygon fill="black" stroke="black" points="290.885,-524.254 298.058,-516.456 287.588,-518.079 290.885,-524.254"/>
</g>
<!-- P1_0 -->
<g id="node16" class="node"><title>P1_0</title>
<polygon fill="white" stroke="black" points="405.5,-622 248.5,-622 248.5,-586 405.5,-586 405.5,-622"/>
<text text-anchor="middle" x="327" y="-600.3" font-family="Times,serif" font-size="14.00">PREP: with paper liners</text>
</g>
<!-- P1_0&#45;&gt;E1 -->
<g id="edge6" class="edge"><title>P1_0&#45;&gt;E1</title>
<path fill="none" stroke="black" d="M327,-585.697C327,-569.923 327,-546.364 327,-528.094"/>
<polygon fill="black" stroke="black" points="330.5,-528.047 327,-518.047 323.5,-528.047 330.5,-528.047"/>
</g>
<!-- P4_0_0 -->
<g id="node17" class="node"><title>P4_0_0</title>
<polygon fill="white" stroke="black" points="768,-622 574,-622 574,-586 768,-586 768,-622"/>
<text text-anchor="middle" x="671" y="-600.3" font-family="Times,serif" font-size="14.00">PREP: into the dry ingredients</text>
</g>
<!-- P4_0_0&#45;&gt;E4 -->
<g id="edge8" class="edge"><title>P4_0_0&#45;&gt;E4</title>
<path fill="none" stroke="black" d="M671,-585.697C671,-569.923 671,-546.364 671,-528.094"/>
<polygon fill="black" stroke="black" points="674.5,-528.047 671,-518.047 667.5,-528.047 674.5,-528.047"/>
</g>
<!-- O4_0_0 -->
<g id="node18" class="node"><title>O4_0_0</title>
<polygon fill="white" stroke="black" points="996,-622 786,-622 786,-586 996,-586 996,-622"/>
<text text-anchor="middle" x="891" y="-600.3" font-family="Times,serif" font-size="14.00">OTHER: to make a smooth batter</text>
</g>
<!-- O4_0_0&#45;&gt;E4 -->
<g id="edge9" class="edge"><title>O4_0_0&#45;&gt;E4</title>
<path fill="none" stroke="black" d="M854.177,-585.927C814.799,-567.67 752.523,-538.797 711.711,-519.875"/>
<polygon fill="black" stroke="black" points="713.13,-516.675 702.586,-515.644 710.186,-523.026 713.13,-516.675"/>
</g>
<!-- D6_ing -->
<g id="node19" class="node"><title>D6_ing</title>
<polygon fill="peachpuff" stroke="black" points="1367.5,-519 1194.5,-519 1194.5,-481 1367.5,-481 1367.5,-519"/>
<text text-anchor="middle" x="1281" y="-503.8" font-family="Times,serif" font-size="14.00">DOBJ: ground cinnamon</text>
<text text-anchor="middle" x="1281" y="-488.8" font-family="Times,serif" font-size="14.00">(text: &#160;cinnamon in a bowl)</text>
</g>
<!-- D6_ing&#45;&gt;E6 -->
<g id="edge12" class="edge"><title>D6_ing&#45;&gt;E6</title>
<path fill="none" stroke="black" d="M1281.44,-480.874C1280.87,-466.442 1277.89,-446.49 1267,-433 1260.84,-425.37 1252.67,-419.348 1243.93,-414.611"/>
<polygon fill="black" stroke="black" points="1245.21,-411.34 1234.68,-410.127 1242.15,-417.639 1245.21,-411.34"/>
</g>
<!-- D6_0 -->
<g id="node20" class="node"><title>D6_0</title>
<polygon fill="white" stroke="black" points="1570.5,-518 1385.5,-518 1385.5,-482 1570.5,-482 1570.5,-518"/>
<text text-anchor="middle" x="1478" y="-496.3" font-family="Times,serif" font-size="14.00">DOBJ: 1/3 cup brown sugar </text>
</g>
<!-- D6_0&#45;&gt;E6 -->
<g id="edge13" class="edge"><title>D6_0&#45;&gt;E6</title>
<path fill="none" stroke="black" d="M1429.3,-481.981C1376,-463.351 1291.03,-433.658 1237.72,-415.026"/>
<polygon fill="black" stroke="black" points="1238.74,-411.676 1228.14,-411.68 1236.43,-418.284 1238.74,-411.676"/>
</g>
<!-- O7_0_0 -->
<g id="node21" class="node"><title>O7_0_0</title>
<polygon fill="white" stroke="black" points="1529,-415 1273,-415 1273,-379 1529,-379 1529,-415"/>
<text text-anchor="middle" x="1401" y="-393.3" font-family="Times,serif" font-size="14.00">OTHER: until it resembles coarse crumbs</text>
</g>
<!-- O7_0_0&#45;&gt;E7 -->
<g id="edge17" class="edge"><title>O7_0_0&#45;&gt;E7</title>
<path fill="none" stroke="black" d="M1388.23,-378.989C1376.14,-364.097 1356.66,-343.015 1335,-331 1333.96,-330.421 1286.34,-319.054 1245.77,-309.429"/>
<polygon fill="black" stroke="black" points="1246.45,-305.993 1235.91,-307.091 1244.83,-312.804 1246.45,-305.993"/>
</g>
<!-- O8_0_0 -->
<g id="node22" class="node"><title>O8_0_0</title>
<polygon fill="white" stroke="black" points="1464,-313 1270,-313 1270,-277 1464,-277 1464,-313"/>
<text text-anchor="middle" x="1367" y="-291.3" font-family="Times,serif" font-size="14.00">OTHER: topping over muffins</text>
</g>
<!-- O8_0_0&#45;&gt;E8 -->
<g id="edge19" class="edge"><title>O8_0_0&#45;&gt;E8</title>
<path fill="none" stroke="black" d="M1359.16,-276.581C1352.19,-261.095 1341.9,-238.222 1333.91,-220.473"/>
<polygon fill="black" stroke="black" points="1337.04,-218.902 1329.75,-211.219 1330.66,-221.775 1337.04,-218.902"/>
</g>
<!-- O9_0_0 -->
<g id="node23" class="node"><title>O9_0_0</title>
<polygon fill="white" stroke="black" points="1647,-211 1421,-211 1421,-175 1647,-175 1647,-211"/>
<text text-anchor="middle" x="1534" y="-189.3" font-family="Times,serif" font-size="14.00">OTHER: until lightly golden brown</text>
</g>
<!-- O9_0_0&#45;&gt;E9 -->
<g id="edge22" class="edge"><title>O9_0_0&#45;&gt;E9</title>
<path fill="none" stroke="black" d="M1571.48,-174.809C1610.02,-157.129 1669.93,-129.648 1710.04,-111.249"/>
<polygon fill="black" stroke="black" points="1711.65,-114.36 1719.28,-107.009 1708.73,-107.997 1711.65,-114.36"/>
</g>
<!-- O9_0_1 -->
<g id="node24" class="node"><title>O9_0_1</title>
<polygon fill="white" stroke="black" points="1838.5,-211 1665.5,-211 1665.5,-175 1838.5,-175 1838.5,-211"/>
<text text-anchor="middle" x="1752" y="-189.3" font-family="Times,serif" font-size="14.00">OTHER: &#160;18 to 20 minutes</text>
</g>
<!-- O9_0_1&#45;&gt;E9 -->
<g id="edge23" class="edge"><title>O9_0_1&#45;&gt;E9</title>
<path fill="none" stroke="black" d="M1752,-174.581C1752,-159.382 1752,-137.067 1752,-119.464"/>
<polygon fill="black" stroke="black" points="1755.5,-119.219 1752,-109.219 1748.5,-119.219 1755.5,-119.219"/>
</g>
<!-- O9_0_2 -->
<g id="node25" class="node"><title>O9_0_2</title>
<polygon fill="white" stroke="black" points="2277.5,-211 1856.5,-211 1856.5,-175 2277.5,-175 2277.5,-211"/>
<text text-anchor="middle" x="2067" y="-189.3" font-family="Times,serif" font-size="14.00">OTHER: &#160;a toothpick inserted into center of a muffin comes out clean </text>
</g>
<!-- O9_0_2&#45;&gt;E9 -->
<g id="edge24" class="edge"><title>O9_0_2&#45;&gt;E9</title>
<path fill="none" stroke="black" d="M2013.21,-174.923C1954.57,-156.308 1861.41,-126.734 1803.64,-108.393"/>
<polygon fill="black" stroke="black" points="1804.57,-105.017 1793.98,-105.327 1802.45,-111.689 1804.57,-105.017"/>
</g>
</g>
</svg>
