<?xml version="1.0" encoding="UTF-8" standalone="no"?>
<!DOCTYPE svg PUBLIC "-//W3C//DTD SVG 1.1//EN"
 "http://www.w3.org/Graphics/SVG/1.1/DTD/svg11.dtd">
<!-- Generated by graphviz version 2.38.0 (20140413.2041)
 -->
<!-- Title: recipe Pages: 1 -->
<svg width="1794pt" height="704pt"
 viewBox="0.00 0.00 1794.00 704.00" xmlns="http://www.w3.org/2000/svg" xmlns:xlink="http://www.w3.org/1999/xlink">
<g id="graph0" class="graph" transform="scale(1 1) rotate(0) translate(4 700)">
<title>recipe</title>
<polygon fill="white" stroke="none" points="-4,4 -4,-700 1790,-700 1790,4 -4,4"/>
<!-- E0 -->
<g id="node1" class="node"><title>E0</title>
<ellipse fill="azure" stroke="black" cx="1616.5" cy="-295" rx="68.7879" ry="18"/>
<text text-anchor="middle" x="1616.5" y="-291.3" font-family="Times,serif" font-size="14.00">preheat (S0,P0)</text>
</g>
<!-- E8 -->
<g id="node9" class="node"><title>E8</title>
<ellipse fill="azure" stroke="black" cx="1326.5" cy="-193" rx="68.7879" ry="18"/>
<text text-anchor="middle" x="1326.5" y="-189.3" font-family="Times,serif" font-size="14.00">bake (S7,P333)</text>
</g>
<!-- E0&#45;&gt;E8 -->
<g id="edge19" class="edge"><title>E0&#45;&gt;E8</title>
<path fill="none" stroke="black" d="M1576.48,-280.2C1524.19,-262.169 1432.64,-230.601 1376.03,-211.08"/>
<polygon fill="black" stroke="black" points="1377.17,-207.77 1366.57,-207.818 1374.89,-214.387 1377.17,-207.77"/>
<text text-anchor="middle" x="1644.5" y="-247.8" font-family="Times,serif" font-size="14.00">OUTPUT: </text>
<text text-anchor="middle" x="1644.5" y="-232.8" font-family="Times,serif" font-size="14.00">INPUT: for 20 minutes in the preheated oven</text>
</g>
<!-- E1 -->
<g id="node2" class="node"><title>E1</title>
<ellipse fill="azure" stroke="black" cx="575.5" cy="-500" rx="69.5877" ry="18"/>
<text text-anchor="middle" x="575.5" y="-496.3" font-family="Times,serif" font-size="14.00">grease (S1,P41)</text>
</g>
<!-- E2 -->
<g id="node3" class="node"><title>E2</title>
<ellipse fill="azure" stroke="black" cx="750.5" cy="-397" rx="59.5901" ry="18"/>
<text text-anchor="middle" x="750.5" y="-393.3" font-family="Times,serif" font-size="14.00">line (S1,P67)</text>
</g>
<!-- E1&#45;&gt;E2 -->
<g id="edge7" class="edge"><title>E1&#45;&gt;E2</title>
<path fill="none" stroke="black" d="M600.252,-482.977C621.731,-469.255 653.802,-449.205 682.5,-433 691.875,-427.706 702.133,-422.255 711.775,-417.276"/>
<polygon fill="black" stroke="black" points="713.472,-420.34 720.78,-412.669 710.284,-414.108 713.472,-420.34"/>
<text text-anchor="middle" x="714.5" y="-451.8" font-family="Times,serif" font-size="14.00">OUTPUT: </text>
<text text-anchor="middle" x="714.5" y="-436.8" font-family="Times,serif" font-size="14.00">INPUT: </text>
</g>
<!-- E7 -->
<g id="node8" class="node"><title>E7</title>
<ellipse fill="azure" stroke="black" cx="1087.5" cy="-295" rx="74.187" ry="18"/>
<text text-anchor="middle" x="1087.5" y="-291.3" font-family="Times,serif" font-size="14.00">spoon (S6,P286)</text>
</g>
<!-- E2&#45;&gt;E7 -->
<g id="edge15" class="edge"><title>E2&#45;&gt;E7</title>
<path fill="none" stroke="black" d="M791.486,-383.838C852.009,-365.879 965.388,-332.235 1032.9,-312.202"/>
<polygon fill="black" stroke="black" points="1033.93,-315.549 1042.52,-309.348 1031.93,-308.838 1033.93,-315.549"/>
<text text-anchor="middle" x="1010.5" y="-349.8" font-family="Times,serif" font-size="14.00">OUTPUT: </text>
<text text-anchor="middle" x="1010.5" y="-334.8" font-family="Times,serif" font-size="14.00">INPUT: batter</text>
</g>
<!-- E3 -->
<g id="node4" class="node"><title>E3</title>
<ellipse fill="azure" stroke="black" cx="741.5" cy="-603" rx="74.187" ry="18"/>
<text text-anchor="middle" x="741.5" y="-599.3" font-family="Times,serif" font-size="14.00">whisk (S2,P100)</text>
</g>
<!-- E5 -->
<g id="node6" class="node"><title>E5</title>
<ellipse fill="azure" stroke="black" cx="943.5" cy="-500" rx="63.0888" ry="18"/>
<text text-anchor="middle" x="943.5" y="-496.3" font-family="Times,serif" font-size="14.00">stir (S4,P203)</text>
</g>
<!-- E3&#45;&gt;E5 -->
<g id="edge10" class="edge"><title>E3&#45;&gt;E5</title>
<path fill="none" stroke="black" d="M740.635,-584.873C740.877,-570.114 743.743,-549.298 756.5,-537 758.82,-534.763 827.708,-521.892 881.2,-512.173"/>
<polygon fill="black" stroke="black" points="882.114,-515.565 891.329,-510.337 880.865,-508.677 882.114,-515.565"/>
<text text-anchor="middle" x="850" y="-555.8" font-family="Times,serif" font-size="14.00">OUTPUT: </text>
<text text-anchor="middle" x="850" y="-540.8" font-family="Times,serif" font-size="14.00">INPUT: into the banana mixture</text>
</g>
<!-- E4 -->
<g id="node5" class="node"><title>E4</title>
<ellipse fill="azure" stroke="black" cx="951.5" cy="-603" rx="83.3857" ry="18"/>
<text text-anchor="middle" x="951.5" y="-599.3" font-family="Times,serif" font-size="14.00">combine (S3,P165)</text>
</g>
<!-- E4&#45;&gt;E5 -->
<g id="edge9" class="edge"><title>E4&#45;&gt;E5</title>
<path fill="none" stroke="black" d="M950.143,-584.867C948.919,-569.414 947.097,-546.416 945.671,-528.409"/>
<polygon fill="black" stroke="black" points="949.143,-527.91 944.864,-518.217 942.164,-528.462 949.143,-527.91"/>
<text text-anchor="middle" x="981.5" y="-555.8" font-family="Times,serif" font-size="14.00">OUTPUT: </text>
<text text-anchor="middle" x="981.5" y="-540.8" font-family="Times,serif" font-size="14.00">INPUT: </text>
</g>
<!-- E6 -->
<g id="node7" class="node"><title>E6</title>
<ellipse fill="azure" stroke="black" cx="1087.5" cy="-397" rx="63.0888" ry="18"/>
<text text-anchor="middle" x="1087.5" y="-393.3" font-family="Times,serif" font-size="14.00">stir (S5,P242)</text>
</g>
<!-- E5&#45;&gt;E6 -->
<g id="edge12" class="edge"><title>E5&#45;&gt;E6</title>
<path fill="none" stroke="black" d="M965.981,-482.897C984.773,-469.471 1012.31,-449.883 1036.5,-433 1042.74,-428.648 1049.42,-424.026 1055.84,-419.615"/>
<polygon fill="black" stroke="black" points="1058.08,-422.322 1064.34,-413.778 1054.12,-416.55 1058.08,-422.322"/>
<text text-anchor="middle" x="1068.5" y="-451.8" font-family="Times,serif" font-size="14.00">OUTPUT: </text>
<text text-anchor="middle" x="1068.5" y="-436.8" font-family="Times,serif" font-size="14.00">INPUT: </text>
</g>
<!-- E6&#45;&gt;E7 -->
<g id="edge16" class="edge"><title>E6&#45;&gt;E7</title>
<path fill="none" stroke="black" d="M1087.5,-378.581C1087.5,-363.382 1087.5,-341.067 1087.5,-323.464"/>
<polygon fill="black" stroke="black" points="1091,-323.219 1087.5,-313.219 1084,-323.219 1091,-323.219"/>
<text text-anchor="middle" x="1160" y="-349.8" font-family="Times,serif" font-size="14.00">OUTPUT: </text>
<text text-anchor="middle" x="1160" y="-334.8" font-family="Times,serif" font-size="14.00">INPUT: into muffin cups</text>
</g>
<!-- E7&#45;&gt;E8 -->
<g id="edge18" class="edge"><title>E7&#45;&gt;E8</title>
<path fill="none" stroke="black" d="M1111.04,-277.928C1133.09,-263.47 1167.37,-242.486 1199.5,-229 1220.25,-220.289 1243.82,-213.103 1264.97,-207.557"/>
<polygon fill="black" stroke="black" points="1265.99,-210.909 1274.81,-205.046 1264.26,-204.126 1265.99,-210.909"/>
<text text-anchor="middle" x="1231.5" y="-247.8" font-family="Times,serif" font-size="14.00">OUTPUT: </text>
<text text-anchor="middle" x="1231.5" y="-232.8" font-family="Times,serif" font-size="14.00">INPUT: </text>
</g>
<!-- E9 -->
<g id="node10" class="node"><title>E9</title>
<ellipse fill="azure" stroke="black" cx="1166.5" cy="-91" rx="67.6881" ry="18"/>
<text text-anchor="middle" x="1166.5" y="-87.3" font-family="Times,serif" font-size="14.00">cool (S8,P423)</text>
</g>
<!-- E8&#45;&gt;E9 -->
<g id="edge22" class="edge"><title>E8&#45;&gt;E9</title>
<path fill="none" stroke="black" d="M1301.15,-176.155C1273.88,-159.112 1230.39,-131.929 1200.24,-113.089"/>
<polygon fill="black" stroke="black" points="1202.07,-110.103 1191.73,-107.771 1198.36,-116.039 1202.07,-110.103"/>
<text text-anchor="middle" x="1302.5" y="-145.8" font-family="Times,serif" font-size="14.00">OUTPUT: </text>
<text text-anchor="middle" x="1302.5" y="-130.8" font-family="Times,serif" font-size="14.00">INPUT: </text>
</g>
<!-- EOR -->
<g id="node25" class="node"><title>EOR</title>
<ellipse fill="plum" stroke="black" cx="1166.5" cy="-18" rx="57.3905" ry="18"/>
<text text-anchor="middle" x="1166.5" y="-14.3" font-family="Times,serif" font-size="14.00">Bon appetit!</text>
</g>
<!-- E9&#45;&gt;EOR -->
<g id="edge24" class="edge"><title>E9&#45;&gt;EOR</title>
<path fill="none" stroke="black" d="M1166.5,-72.8129C1166.5,-64.7895 1166.5,-55.0475 1166.5,-46.0691"/>
<polygon fill="black" stroke="black" points="1170,-46.0288 1166.5,-36.0288 1163,-46.0289 1170,-46.0288"/>
</g>
<!-- D4 -->
<g id="node11" class="node"><title>D4</title>
<polygon fill="peachpuff" stroke="black" points="1248,-696 895,-696 895,-658 1248,-658 1248,-696"/>
<text text-anchor="middle" x="1071.5" y="-680.8" font-family="Times,serif" font-size="14.00">DOBJ: ground cinnamon, whole wheat flour, baking soda</text>
<text text-anchor="middle" x="1071.5" y="-665.8" font-family="Times,serif" font-size="14.00">(text: the flour , baking soda, cinnamon)</text>
</g>
<!-- D4&#45;&gt;E4 -->
<g id="edge1" class="edge"><title>D4&#45;&gt;E4</title>
<path fill="none" stroke="black" d="M1041.22,-657.831C1024.78,-647.969 1004.36,-635.719 987.161,-625.397"/>
<polygon fill="black" stroke="black" points="988.871,-622.341 978.496,-620.197 985.27,-628.344 988.871,-622.341"/>
</g>
<!-- D3 -->
<g id="node12" class="node"><title>D3</title>
<polygon fill="peachpuff" stroke="black" points="575,-696 0,-696 0,-658 575,-658 575,-696"/>
<text text-anchor="middle" x="287.5" y="-680.8" font-family="Times,serif" font-size="14.00">DOBJ: vegetable oil, eggs, bananas, vanilla extract, unsweetened applesauce, packed brown sugar</text>
<text text-anchor="middle" x="287.5" y="-665.8" font-family="Times,serif" font-size="14.00">(text: the eggs , applesauce , oil , brown sugar , vanilla, bananas)</text>
</g>
<!-- D3&#45;&gt;E3 -->
<g id="edge2" class="edge"><title>D3&#45;&gt;E3</title>
<path fill="none" stroke="black" d="M421.297,-657.972C491.983,-647.992 580.109,-634.828 658.5,-621 664.679,-619.91 671.103,-618.711 677.519,-617.47"/>
<polygon fill="black" stroke="black" points="678.423,-620.86 687.559,-615.495 677.071,-613.992 678.423,-620.86"/>
</g>
<!-- P3_0 -->
<g id="node13" class="node"><title>P3_0</title>
<polygon fill="white" stroke="black" points="739.5,-695 593.5,-695 593.5,-659 739.5,-659 739.5,-695"/>
<text text-anchor="middle" x="666.5" y="-673.3" font-family="Times,serif" font-size="14.00">PREP: in a large bowl</text>
</g>
<!-- P3_0&#45;&gt;E3 -->
<g id="edge3" class="edge"><title>P3_0&#45;&gt;E3</title>
<path fill="none" stroke="black" d="M684.274,-658.937C693.964,-649.634 706.111,-637.973 716.718,-627.791"/>
<polygon fill="black" stroke="black" points="719.322,-630.142 724.112,-620.692 714.475,-625.093 719.322,-630.142"/>
</g>
<!-- O3_0 -->
<g id="node14" class="node"><title>O3_0</title>
<polygon fill="white" stroke="black" points="877,-695 758,-695 758,-659 877,-659 877,-695"/>
<text text-anchor="middle" x="817.5" y="-673.3" font-family="Times,serif" font-size="14.00">OTHER: together</text>
</g>
<!-- O3_0&#45;&gt;E3 -->
<g id="edge4" class="edge"><title>O3_0&#45;&gt;E3</title>
<path fill="none" stroke="black" d="M799.489,-658.937C789.67,-649.634 777.361,-637.973 766.612,-627.791"/>
<polygon fill="black" stroke="black" points="768.786,-625.029 759.119,-620.692 763.972,-630.11 768.786,-625.029"/>
</g>
<!-- D1 -->
<g id="node15" class="node"><title>D1</title>
<polygon fill="white" stroke="black" points="649.5,-621 469.5,-621 469.5,-585 649.5,-585 649.5,-621"/>
<text text-anchor="middle" x="559.5" y="-599.3" font-family="Times,serif" font-size="14.00">DOBJ: 12 large muffin cups</text>
</g>
<!-- D1&#45;&gt;E1 -->
<g id="edge5" class="edge"><title>D1&#45;&gt;E1</title>
<path fill="none" stroke="black" d="M562.214,-584.867C564.674,-569.341 568.34,-546.2 571.198,-528.156"/>
<polygon fill="black" stroke="black" points="574.665,-528.642 572.773,-518.217 567.751,-527.547 574.665,-528.642"/>
</g>
<!-- D0 -->
<g id="node16" class="node"><title>D0</title>
<polygon fill="white" stroke="black" points="1786,-415 1447,-415 1447,-379 1786,-379 1786,-415"/>
<text text-anchor="middle" x="1616.5" y="-393.3" font-family="Times,serif" font-size="14.00">DOBJ: the oven to 375 degrees F &#45;LRB&#45; 190 degrees C</text>
</g>
<!-- D0&#45;&gt;E0 -->
<g id="edge6" class="edge"><title>D0&#45;&gt;E0</title>
<path fill="none" stroke="black" d="M1616.5,-378.581C1616.5,-363.382 1616.5,-341.067 1616.5,-323.464"/>
<polygon fill="black" stroke="black" points="1620,-323.219 1616.5,-313.219 1613,-323.219 1620,-323.219"/>
</g>
<!-- P2_0_0 -->
<g id="node17" class="node"><title>P2_0_0</title>
<polygon fill="white" stroke="black" points="829,-518 672,-518 672,-482 829,-482 829,-518"/>
<text text-anchor="middle" x="750.5" y="-496.3" font-family="Times,serif" font-size="14.00">PREP: with paper liners</text>
</g>
<!-- P2_0_0&#45;&gt;E2 -->
<g id="edge8" class="edge"><title>P2_0_0&#45;&gt;E2</title>
<path fill="none" stroke="black" d="M750.5,-481.867C750.5,-466.414 750.5,-443.416 750.5,-425.409"/>
<polygon fill="black" stroke="black" points="754,-425.217 750.5,-415.217 747,-425.217 754,-425.217"/>
</g>
<!-- P5_1_0 -->
<g id="node18" class="node"><title>P5_1_0</title>
<polygon fill="white" stroke="black" points="1200.5,-621 1052.5,-621 1052.5,-585 1200.5,-585 1200.5,-621"/>
<text text-anchor="middle" x="1126.5" y="-599.3" font-family="Times,serif" font-size="14.00">PREP: until moistened</text>
</g>
<!-- P5_1_0&#45;&gt;E5 -->
<g id="edge11" class="edge"><title>P5_1_0&#45;&gt;E5</title>
<path fill="none" stroke="black" d="M1099.1,-584.778C1077.28,-571.28 1045.8,-552.288 1017.5,-537 1006.9,-531.276 995.26,-525.418 984.409,-520.135"/>
<polygon fill="black" stroke="black" points="985.652,-516.848 975.124,-515.658 982.612,-523.153 985.652,-516.848"/>
</g>
<!-- P6_0_ing -->
<g id="node19" class="node"><title>P6_0_ing</title>
<polygon fill="peachpuff" stroke="black" points="1246,-519 1025,-519 1025,-481 1246,-481 1246,-519"/>
<text text-anchor="middle" x="1135.5" y="-503.8" font-family="Times,serif" font-size="14.00">PREP: in frozen sliced strawberries</text>
<text text-anchor="middle" x="1135.5" y="-488.8" font-family="Times,serif" font-size="14.00">(text: in the strawberries)</text>
</g>
<!-- P6_0_ing&#45;&gt;E6 -->
<g id="edge13" class="edge"><title>P6_0_ing&#45;&gt;E6</title>
<path fill="none" stroke="black" d="M1126.92,-480.943C1119.41,-465.145 1108.41,-441.999 1099.94,-424.17"/>
<polygon fill="black" stroke="black" points="1102.98,-422.422 1095.53,-414.893 1096.66,-425.427 1102.98,-422.422"/>
</g>
<!-- O6_0_0 -->
<g id="node20" class="node"><title>O6_0_0</title>
<polygon fill="white" stroke="black" points="1469,-518 1264,-518 1264,-482 1469,-482 1469,-518"/>
<text text-anchor="middle" x="1366.5" y="-496.3" font-family="Times,serif" font-size="14.00">OTHER: until evenly distributed</text>
</g>
<!-- O6_0_0&#45;&gt;E6 -->
<g id="edge14" class="edge"><title>O6_0_0&#45;&gt;E6</title>
<path fill="none" stroke="black" d="M1319.49,-481.981C1267.99,-463.337 1185.88,-433.613 1134.41,-414.983"/>
<polygon fill="black" stroke="black" points="1135.46,-411.638 1124.86,-411.525 1133.07,-418.22 1135.46,-411.638"/>
</g>
<!-- O7_0_0 -->
<g id="node21" class="node"><title>O7_0_0</title>
<polygon fill="white" stroke="black" points="1366.5,-415 1168.5,-415 1168.5,-379 1366.5,-379 1366.5,-415"/>
<text text-anchor="middle" x="1267.5" y="-393.3" font-family="Times,serif" font-size="14.00">OTHER: until completely filled</text>
</g>
<!-- O7_0_0&#45;&gt;E7 -->
<g id="edge17" class="edge"><title>O7_0_0&#45;&gt;E7</title>
<path fill="none" stroke="black" d="M1263.72,-378.729C1259.56,-363.875 1251.39,-343.002 1236.5,-331 1232.95,-328.14 1190.39,-318.288 1151.66,-309.762"/>
<polygon fill="black" stroke="black" points="1151.92,-306.236 1141.4,-307.515 1150.42,-313.074 1151.92,-306.236"/>
</g>
<!-- O8_0_0 -->
<g id="node22" class="node"><title>O8_0_0</title>
<polygon fill="white" stroke="black" points="1289,-313 1180,-313 1180,-277 1289,-277 1289,-313"/>
<text text-anchor="middle" x="1234.5" y="-291.3" font-family="Times,serif" font-size="14.00">OTHER: spring</text>
</g>
<!-- O8_0_0&#45;&gt;E8 -->
<g id="edge20" class="edge"><title>O8_0_0&#45;&gt;E8</title>
<path fill="none" stroke="black" d="M1250.53,-276.581C1265.35,-260.471 1287.52,-236.366 1304.1,-218.352"/>
<polygon fill="black" stroke="black" points="1307.07,-220.284 1311.27,-210.555 1301.92,-215.545 1307.07,-220.284"/>
</g>
<!-- O8_1_0 -->
<g id="node23" class="node"><title>O8_1_0</title>
<polygon fill="white" stroke="black" points="1530,-313 1307,-313 1307,-277 1530,-277 1530,-313"/>
<text text-anchor="middle" x="1418.5" y="-291.3" font-family="Times,serif" font-size="14.00">OTHER: back when pressed lightly</text>
</g>
<!-- O8_1_0&#45;&gt;E8 -->
<g id="edge21" class="edge"><title>O8_1_0&#45;&gt;E8</title>
<path fill="none" stroke="black" d="M1402.47,-276.581C1387.65,-260.471 1365.48,-236.366 1348.9,-218.352"/>
<polygon fill="black" stroke="black" points="1351.08,-215.545 1341.73,-210.555 1345.93,-220.284 1351.08,-215.545"/>
</g>
<!-- P9_0_0 -->
<g id="node24" class="node"><title>P9_0_0</title>
<polygon fill="white" stroke="black" points="1240,-211 965,-211 965,-175 1240,-175 1240,-211"/>
<text text-anchor="middle" x="1102.5" y="-189.3" font-family="Times,serif" font-size="14.00">PREP: before removing from the muffin tins</text>
</g>
<!-- P9_0_0&#45;&gt;E9 -->
<g id="edge23" class="edge"><title>P9_0_0&#45;&gt;E9</title>
<path fill="none" stroke="black" d="M1113.65,-174.581C1123.71,-158.856 1138.65,-135.516 1150.08,-117.656"/>
<polygon fill="black" stroke="black" points="1153.25,-119.195 1155.69,-108.886 1147.35,-115.422 1153.25,-119.195"/>
</g>
</g>
</svg>
