<?xml version="1.0" encoding="UTF-8" standalone="no"?>
<!DOCTYPE svg PUBLIC "-//W3C//DTD SVG 1.1//EN"
 "http://www.w3.org/Graphics/SVG/1.1/DTD/svg11.dtd">
<!-- Generated by graphviz version 2.38.0 (20140413.2041)
 -->
<!-- Title: recipe Pages: 1 -->
<svg width="1584pt" height="602pt"
 viewBox="0.00 0.00 1583.50 602.00" xmlns="http://www.w3.org/2000/svg" xmlns:xlink="http://www.w3.org/1999/xlink">
<g id="graph0" class="graph" transform="scale(1 1) rotate(0) translate(4 598)">
<title>recipe</title>
<polygon fill="white" stroke="none" points="-4,4 -4,-598 1579.5,-598 1579.5,4 -4,4"/>
<!-- E0 -->
<g id="node1" class="node"><title>E0</title>
<ellipse fill="azure" stroke="black" cx="1404.5" cy="-397" rx="68.7879" ry="18"/>
<text text-anchor="middle" x="1404.5" y="-393.3" font-family="Times,serif" font-size="14.00">preheat (S0,P0)</text>
</g>
<!-- E6 -->
<g id="node7" class="node"><title>E6</title>
<ellipse fill="azure" stroke="black" cx="1053.5" cy="-295" rx="74.187" ry="18"/>
<text text-anchor="middle" x="1053.5" y="-291.3" font-family="Times,serif" font-size="14.00">spoon (S4,P240)</text>
</g>
<!-- E0&#45;&gt;E6 -->
<g id="edge10" class="edge"><title>E0&#45;&gt;E6</title>
<path fill="none" stroke="black" d="M1389.68,-379.322C1375.01,-364.009 1351.09,-342.07 1325.5,-331 1292.14,-316.573 1201.84,-306.906 1134.37,-301.452"/>
<polygon fill="black" stroke="black" points="1134.42,-297.945 1124.18,-300.646 1133.87,-304.923 1134.42,-297.945"/>
<text text-anchor="middle" x="1416" y="-349.8" font-family="Times,serif" font-size="14.00">OUTPUT: </text>
<text text-anchor="middle" x="1416" y="-334.8" font-family="Times,serif" font-size="14.00">INPUT: mixture</text>
</g>
<!-- E1 -->
<g id="node2" class="node"><title>E1</title>
<ellipse fill="azure" stroke="black" cx="456.5" cy="-397" rx="67.6881" ry="18"/>
<text text-anchor="middle" x="456.5" y="-393.3" font-family="Times,serif" font-size="14.00">blend (S1,P38)</text>
</g>
<!-- E5 -->
<g id="node6" class="node"><title>E5</title>
<ellipse fill="azure" stroke="black" cx="785.5" cy="-295" rx="65.7887" ry="18"/>
<text text-anchor="middle" x="785.5" y="-291.3" font-family="Times,serif" font-size="14.00">mix (S3,P219)</text>
</g>
<!-- E1&#45;&gt;E5 -->
<g id="edge8" class="edge"><title>E1&#45;&gt;E5</title>
<path fill="none" stroke="black" d="M483.697,-380.464C510.73,-365.663 553.783,-343.795 593.5,-331 633.149,-318.227 678.997,-309.65 715.946,-304.185"/>
<polygon fill="black" stroke="black" points="716.717,-307.61 726.119,-302.725 715.723,-300.681 716.717,-307.61"/>
<text text-anchor="middle" x="676.5" y="-349.8" font-family="Times,serif" font-size="14.00">OUTPUT: </text>
<text text-anchor="middle" x="676.5" y="-334.8" font-family="Times,serif" font-size="14.00">INPUT: with wooden spoon</text>
</g>
<!-- E2 -->
<g id="node3" class="node"><title>E2</title>
<ellipse fill="azure" stroke="black" cx="938.5" cy="-500" rx="64.9885" ry="18"/>
<text text-anchor="middle" x="938.5" y="-496.3" font-family="Times,serif" font-size="14.00">add (S2,P131)</text>
</g>
<!-- E3 -->
<g id="node4" class="node"><title>E3</title>
<ellipse fill="azure" stroke="black" cx="1053.5" cy="-397" rx="72.2875" ry="18"/>
<text text-anchor="middle" x="1053.5" y="-393.3" font-family="Times,serif" font-size="14.00">blend (S2,P169)</text>
</g>
<!-- E2&#45;&gt;E3 -->
<g id="edge5" class="edge"><title>E2&#45;&gt;E3</title>
<path fill="none" stroke="black" d="M957.233,-482.548C976.195,-465.894 1005.69,-439.993 1027.03,-421.246"/>
<polygon fill="black" stroke="black" points="1029.57,-423.674 1034.78,-414.445 1024.95,-418.414 1029.57,-423.674"/>
<text text-anchor="middle" x="1045.5" y="-451.8" font-family="Times,serif" font-size="14.00">OUTPUT: </text>
<text text-anchor="middle" x="1045.5" y="-436.8" font-family="Times,serif" font-size="14.00">INPUT: </text>
</g>
<!-- E3&#45;&gt;E6 -->
<g id="edge11" class="edge"><title>E3&#45;&gt;E6</title>
<path fill="none" stroke="black" d="M1053.5,-378.581C1053.5,-363.382 1053.5,-341.067 1053.5,-323.464"/>
<polygon fill="black" stroke="black" points="1057,-323.219 1053.5,-313.219 1050,-323.219 1057,-323.219"/>
<text text-anchor="middle" x="1187.5" y="-349.8" font-family="Times,serif" font-size="14.00">OUTPUT: </text>
<text text-anchor="middle" x="1187.5" y="-334.8" font-family="Times,serif" font-size="14.00">INPUT: into 15 to 18 paper&#45;lined muffin cups</text>
</g>
<!-- E4 -->
<g id="node5" class="node"><title>E4</title>
<ellipse fill="azure" stroke="black" cx="750.5" cy="-397" rx="64.9885" ry="18"/>
<text text-anchor="middle" x="750.5" y="-393.3" font-family="Times,serif" font-size="14.00">add (S3,P199)</text>
</g>
<!-- E4&#45;&gt;E5 -->
<g id="edge7" class="edge"><title>E4&#45;&gt;E5</title>
<path fill="none" stroke="black" d="M756.437,-379.036C761.843,-363.593 769.912,-340.538 776.177,-322.637"/>
<polygon fill="black" stroke="black" points="779.534,-323.642 779.534,-313.047 772.927,-321.329 779.534,-323.642"/>
<text text-anchor="middle" x="805.5" y="-349.8" font-family="Times,serif" font-size="14.00">OUTPUT: </text>
<text text-anchor="middle" x="805.5" y="-334.8" font-family="Times,serif" font-size="14.00">INPUT: </text>
</g>
<!-- E7 -->
<g id="node8" class="node"><title>E7</title>
<ellipse fill="azure" stroke="black" cx="913.5" cy="-193" rx="68.7879" ry="18"/>
<text text-anchor="middle" x="913.5" y="-189.3" font-family="Times,serif" font-size="14.00">bake (S5,P284)</text>
</g>
<!-- E5&#45;&gt;E7 -->
<g id="edge13" class="edge"><title>E5&#45;&gt;E7</title>
<path fill="none" stroke="black" d="M802.829,-277.485C817.45,-263.873 839.185,-244.377 859.5,-229 865.563,-224.411 872.219,-219.788 878.724,-215.474"/>
<polygon fill="black" stroke="black" points="880.955,-218.198 887.432,-209.814 877.14,-212.329 880.955,-218.198"/>
<text text-anchor="middle" x="927" y="-247.8" font-family="Times,serif" font-size="14.00">OUTPUT: </text>
<text text-anchor="middle" x="927" y="-232.8" font-family="Times,serif" font-size="14.00">INPUT: for 25 minutes</text>
</g>
<!-- E6&#45;&gt;E7 -->
<g id="edge12" class="edge"><title>E6&#45;&gt;E7</title>
<path fill="none" stroke="black" d="M1041.53,-277.205C1030.61,-262.863 1013.34,-242.475 994.5,-229 985.055,-222.246 974.102,-216.423 963.363,-211.572"/>
<polygon fill="black" stroke="black" points="964.592,-208.291 954.023,-207.56 961.83,-214.723 964.592,-208.291"/>
<text text-anchor="middle" x="1058.5" y="-247.8" font-family="Times,serif" font-size="14.00">OUTPUT: </text>
<text text-anchor="middle" x="1058.5" y="-232.8" font-family="Times,serif" font-size="14.00">INPUT: </text>
</g>
<!-- E8 -->
<g id="node9" class="node"><title>E8</title>
<ellipse fill="azure" stroke="black" cx="804.5" cy="-91" rx="67.6881" ry="18"/>
<text text-anchor="middle" x="804.5" y="-87.3" font-family="Times,serif" font-size="14.00">cool (S6,P301)</text>
</g>
<!-- E7&#45;&gt;E8 -->
<g id="edge14" class="edge"><title>E7&#45;&gt;E8</title>
<path fill="none" stroke="black" d="M895.501,-175.487C877.672,-159.13 850.197,-133.924 830.099,-115.486"/>
<polygon fill="black" stroke="black" points="832.261,-112.719 822.526,-108.537 827.529,-117.877 832.261,-112.719"/>
<text text-anchor="middle" x="907.5" y="-145.8" font-family="Times,serif" font-size="14.00">OUTPUT: </text>
<text text-anchor="middle" x="907.5" y="-130.8" font-family="Times,serif" font-size="14.00">INPUT: </text>
</g>
<!-- EOR -->
<g id="node17" class="node"><title>EOR</title>
<ellipse fill="plum" stroke="black" cx="804.5" cy="-18" rx="57.3905" ry="18"/>
<text text-anchor="middle" x="804.5" y="-14.3" font-family="Times,serif" font-size="14.00">Bon appetit!</text>
</g>
<!-- E8&#45;&gt;EOR -->
<g id="edge16" class="edge"><title>E8&#45;&gt;EOR</title>
<path fill="none" stroke="black" d="M804.5,-72.8129C804.5,-64.7895 804.5,-55.0475 804.5,-46.0691"/>
<polygon fill="black" stroke="black" points="808,-46.0288 804.5,-36.0288 801,-46.0289 808,-46.0288"/>
</g>
<!-- D1 -->
<g id="node10" class="node"><title>D1</title>
<polygon fill="peachpuff" stroke="black" points="627,-519 0,-519 0,-481 627,-481 627,-519"/>
<text text-anchor="middle" x="313.5" y="-503.8" font-family="Times,serif" font-size="14.00">DOBJ: margarine, white sugar, ripe bananas, vanilla extract, egg, instant coffee granules</text>
<text text-anchor="middle" x="313.5" y="-488.8" font-family="Times,serif" font-size="14.00">(text: butter or margarine , sugar , egg , banana , dissolved coffee , vanilla in food processor for 2 minutes)</text>
</g>
<!-- D1&#45;&gt;E1 -->
<g id="edge1" class="edge"><title>D1&#45;&gt;E1</title>
<path fill="none" stroke="black" d="M339.066,-480.943C363.173,-463.917 399.361,-438.357 425.188,-420.116"/>
<polygon fill="black" stroke="black" points="427.368,-422.861 433.517,-414.233 423.33,-417.143 427.368,-422.861"/>
</g>
<!-- D4 -->
<g id="node11" class="node"><title>D4</title>
<polygon fill="peachpuff" stroke="black" points="855.5,-519 645.5,-519 645.5,-481 855.5,-481 855.5,-519"/>
<text text-anchor="middle" x="750.5" y="-503.8" font-family="Times,serif" font-size="14.00">DOBJ: semisweet chocolate chips</text>
<text text-anchor="middle" x="750.5" y="-488.8" font-family="Times,serif" font-size="14.00">(text: chocolate chips)</text>
</g>
<!-- D4&#45;&gt;E4 -->
<g id="edge2" class="edge"><title>D4&#45;&gt;E4</title>
<path fill="none" stroke="black" d="M750.5,-480.943C750.5,-465.531 750.5,-443.127 750.5,-425.488"/>
<polygon fill="black" stroke="black" points="754,-425.226 750.5,-415.226 747,-425.226 754,-425.226"/>
</g>
<!-- D0 -->
<g id="node12" class="node"><title>D0</title>
<polygon fill="white" stroke="black" points="1575.5,-518 1257.5,-518 1257.5,-482 1575.5,-482 1575.5,-518"/>
<text text-anchor="middle" x="1416.5" y="-496.3" font-family="Times,serif" font-size="14.00">DOBJ: oven to 350 degrees F &#45;LRB&#45; 175 degrees C</text>
</g>
<!-- D0&#45;&gt;E0 -->
<g id="edge3" class="edge"><title>D0&#45;&gt;E0</title>
<path fill="none" stroke="black" d="M1414.46,-481.867C1412.62,-466.341 1409.87,-443.2 1407.73,-425.156"/>
<polygon fill="black" stroke="black" points="1411.2,-424.735 1406.55,-415.217 1404.25,-425.56 1411.2,-424.735"/>
</g>
<!-- D2 -->
<g id="node13" class="node"><title>D2</title>
<polygon fill="peachpuff" stroke="black" points="1116,-594 761,-594 761,-556 1116,-556 1116,-594"/>
<text text-anchor="middle" x="938.5" y="-578.8" font-family="Times,serif" font-size="14.00">DOBJ: baking powder, all&#45;purpose flour, baking soda, salt</text>
<text text-anchor="middle" x="938.5" y="-563.8" font-family="Times,serif" font-size="14.00">(text: flour , salt , baking powder , soda)</text>
</g>
<!-- D2&#45;&gt;E2 -->
<g id="edge4" class="edge"><title>D2&#45;&gt;E2</title>
<path fill="none" stroke="black" d="M938.5,-555.955C938.5,-547.701 938.5,-537.738 938.5,-528.574"/>
<polygon fill="black" stroke="black" points="942,-528.335 938.5,-518.335 935,-528.335 942,-528.335"/>
</g>
<!-- O3_0_0 -->
<g id="node14" class="node"><title>O3_0_0</title>
<polygon fill="white" stroke="black" points="1239.5,-518 1021.5,-518 1021.5,-482 1239.5,-482 1239.5,-518"/>
<text text-anchor="middle" x="1130.5" y="-496.3" font-family="Times,serif" font-size="14.00">OTHER: just until flour disappears</text>
</g>
<!-- O3_0_0&#45;&gt;E3 -->
<g id="edge6" class="edge"><title>O3_0_0&#45;&gt;E3</title>
<path fill="none" stroke="black" d="M1124.32,-481.819C1118.73,-467.753 1109.52,-447.827 1097.5,-433 1093.97,-428.64 1089.8,-424.473 1085.46,-420.632"/>
<polygon fill="black" stroke="black" points="1087.51,-417.782 1077.57,-414.1 1083.04,-423.173 1087.51,-417.782"/>
</g>
<!-- O5_0_0 -->
<g id="node15" class="node"><title>O5_0_0</title>
<polygon fill="white" stroke="black" points="916,-415 833,-415 833,-379 916,-379 916,-415"/>
<text text-anchor="middle" x="874.5" y="-393.3" font-family="Times,serif" font-size="14.00">OTHER: in</text>
</g>
<!-- O5_0_0&#45;&gt;E5 -->
<g id="edge9" class="edge"><title>O5_0_0&#45;&gt;E5</title>
<path fill="none" stroke="black" d="M868.695,-378.718C863.32,-364.65 854.229,-344.913 841.5,-331 836.716,-325.771 830.978,-321.027 825.025,-316.838"/>
<polygon fill="black" stroke="black" points="826.523,-313.637 816.235,-311.107 822.7,-319.501 826.523,-313.637"/>
</g>
<!-- P8_0_0 -->
<g id="node16" class="node"><title>P8_0_0</title>
<polygon fill="white" stroke="black" points="826.5,-211 688.5,-211 688.5,-175 826.5,-175 826.5,-211"/>
<text text-anchor="middle" x="757.5" y="-189.3" font-family="Times,serif" font-size="14.00">PREP: on wire racks</text>
</g>
<!-- P8_0_0&#45;&gt;E8 -->
<g id="edge15" class="edge"><title>P8_0_0&#45;&gt;E8</title>
<path fill="none" stroke="black" d="M765.687,-174.581C773.01,-159 783.847,-135.943 792.21,-118.149"/>
<polygon fill="black" stroke="black" points="795.478,-119.425 796.564,-108.886 789.142,-116.447 795.478,-119.425"/>
</g>
</g>
</svg>
