<?xml version="1.0" encoding="UTF-8" standalone="no"?>
<!DOCTYPE svg PUBLIC "-//W3C//DTD SVG 1.1//EN"
 "http://www.w3.org/Graphics/SVG/1.1/DTD/svg11.dtd">
<!-- Generated by graphviz version 2.38.0 (20140413.2041)
 -->
<!-- Title: recipe Pages: 1 -->
<svg width="1846pt" height="500pt"
 viewBox="0.00 0.00 1845.50 500.00" xmlns="http://www.w3.org/2000/svg" xmlns:xlink="http://www.w3.org/1999/xlink">
<g id="graph0" class="graph" transform="scale(1 1) rotate(0) translate(4 496)">
<title>recipe</title>
<polygon fill="white" stroke="none" points="-4,4 -4,-496 1841.5,-496 1841.5,4 -4,4"/>
<!-- E0 -->
<g id="node1" class="node"><title>E0</title>
<ellipse fill="azure" stroke="black" cx="1678.5" cy="-193" rx="68.7879" ry="18"/>
<text text-anchor="middle" x="1678.5" y="-189.3" font-family="Times,serif" font-size="14.00">preheat (S0,P0)</text>
</g>
<!-- E6 -->
<g id="node7" class="node"><title>E6</title>
<ellipse fill="azure" stroke="black" cx="1220.5" cy="-91" rx="68.7879" ry="18"/>
<text text-anchor="middle" x="1220.5" y="-87.3" font-family="Times,serif" font-size="14.00">bake (S6,P251)</text>
</g>
<!-- E0&#45;&gt;E6 -->
<g id="edge14" class="edge"><title>E0&#45;&gt;E6</title>
<path fill="none" stroke="black" d="M1627.29,-180.82C1542.36,-162.275 1372.7,-125.231 1281.63,-105.347"/>
<polygon fill="black" stroke="black" points="1282.24,-101.898 1271.73,-103.185 1280.75,-108.737 1282.24,-101.898"/>
<text text-anchor="middle" x="1641" y="-145.8" font-family="Times,serif" font-size="14.00">OUTPUT: </text>
<text text-anchor="middle" x="1641" y="-130.8" font-family="Times,serif" font-size="14.00">INPUT: in the preheated oven until golden</text>
</g>
<!-- E1 -->
<g id="node2" class="node"><title>E1</title>
<ellipse fill="azure" stroke="black" cx="307.5" cy="-295" rx="69.5877" ry="18"/>
<text text-anchor="middle" x="307.5" y="-291.3" font-family="Times,serif" font-size="14.00">grease (S1,P38)</text>
</g>
<!-- E5 -->
<g id="node6" class="node"><title>E5</title>
<ellipse fill="azure" stroke="black" cx="836.5" cy="-193" rx="69.5877" ry="18"/>
<text text-anchor="middle" x="836.5" y="-189.3" font-family="Times,serif" font-size="14.00">pour (S5,P210)</text>
</g>
<!-- E1&#45;&gt;E5 -->
<g id="edge11" class="edge"><title>E1&#45;&gt;E5</title>
<path fill="none" stroke="black" d="M359.763,-283.087C423.907,-269.8 536.042,-246.917 632.5,-229 678.098,-220.53 729.569,-211.705 769.403,-205.035"/>
<polygon fill="black" stroke="black" points="769.982,-208.487 779.269,-203.387 768.829,-201.582 769.982,-208.487"/>
<text text-anchor="middle" x="732.5" y="-247.8" font-family="Times,serif" font-size="14.00">OUTPUT: </text>
<text text-anchor="middle" x="732.5" y="-232.8" font-family="Times,serif" font-size="14.00">INPUT: into prepared muffin cups</text>
</g>
<!-- E2 -->
<g id="node3" class="node"><title>E2</title>
<ellipse fill="azure" stroke="black" cx="836.5" cy="-295" rx="57.6901" ry="18"/>
<text text-anchor="middle" x="836.5" y="-291.3" font-family="Times,serif" font-size="14.00">stir (S2,P84)</text>
</g>
<!-- E2&#45;&gt;E5 -->
<g id="edge12" class="edge"><title>E2&#45;&gt;E5</title>
<path fill="none" stroke="black" d="M836.5,-276.581C836.5,-261.382 836.5,-239.067 836.5,-221.464"/>
<polygon fill="black" stroke="black" points="840,-221.219 836.5,-211.219 833,-221.219 840,-221.219"/>
<text text-anchor="middle" x="908" y="-247.8" font-family="Times,serif" font-size="14.00">OUTPUT: </text>
<text text-anchor="middle" x="908" y="-232.8" font-family="Times,serif" font-size="14.00">INPUT: to about 3/4 full</text>
</g>
<!-- E3 -->
<g id="node4" class="node"><title>E3</title>
<ellipse fill="azure" stroke="black" cx="1113.5" cy="-398" rx="64.9885" ry="18"/>
<text text-anchor="middle" x="1113.5" y="-394.3" font-family="Times,serif" font-size="14.00">add (S3,P145)</text>
</g>
<!-- E4 -->
<g id="node5" class="node"><title>E4</title>
<ellipse fill="azure" stroke="black" cx="1113.5" cy="-295" rx="63.0888" ry="18"/>
<text text-anchor="middle" x="1113.5" y="-291.3" font-family="Times,serif" font-size="14.00">stir (S4,P188)</text>
</g>
<!-- E3&#45;&gt;E4 -->
<g id="edge8" class="edge"><title>E3&#45;&gt;E4</title>
<path fill="none" stroke="black" d="M1113.5,-379.867C1113.5,-364.414 1113.5,-341.416 1113.5,-323.409"/>
<polygon fill="black" stroke="black" points="1117,-323.217 1113.5,-313.217 1110,-323.217 1117,-323.217"/>
<text text-anchor="middle" x="1145.5" y="-349.8" font-family="Times,serif" font-size="14.00">OUTPUT: </text>
<text text-anchor="middle" x="1145.5" y="-334.8" font-family="Times,serif" font-size="14.00">INPUT: </text>
</g>
<!-- E4&#45;&gt;E5 -->
<g id="edge10" class="edge"><title>E4&#45;&gt;E5</title>
<path fill="none" stroke="black" d="M1086.92,-278.429C1061.19,-263.917 1020.73,-242.536 983.5,-229 975.105,-225.948 934.036,-216.237 897.435,-207.816"/>
<polygon fill="black" stroke="black" points="897.791,-204.307 887.261,-205.482 896.225,-211.13 897.791,-204.307"/>
<text text-anchor="middle" x="1081.5" y="-247.8" font-family="Times,serif" font-size="14.00">OUTPUT: </text>
<text text-anchor="middle" x="1081.5" y="-232.8" font-family="Times,serif" font-size="14.00">INPUT: </text>
</g>
<!-- E5&#45;&gt;E6 -->
<g id="edge13" class="edge"><title>E5&#45;&gt;E6</title>
<path fill="none" stroke="black" d="M868.453,-176.899C900.993,-162.107 953.24,-139.955 1000.5,-127 1048.5,-113.842 1103.83,-105.069 1147,-99.5968"/>
<polygon fill="black" stroke="black" points="1147.64,-103.044 1157.13,-98.3437 1146.78,-96.097 1147.64,-103.044"/>
<text text-anchor="middle" x="1032.5" y="-145.8" font-family="Times,serif" font-size="14.00">OUTPUT: </text>
<text text-anchor="middle" x="1032.5" y="-130.8" font-family="Times,serif" font-size="14.00">INPUT: </text>
</g>
<!-- EOR -->
<g id="node20" class="node"><title>EOR</title>
<ellipse fill="plum" stroke="black" cx="1220.5" cy="-18" rx="57.3905" ry="18"/>
<text text-anchor="middle" x="1220.5" y="-14.3" font-family="Times,serif" font-size="14.00">Bon appetit!</text>
</g>
<!-- E6&#45;&gt;EOR -->
<g id="edge19" class="edge"><title>E6&#45;&gt;EOR</title>
<path fill="none" stroke="black" d="M1220.5,-72.8129C1220.5,-64.7895 1220.5,-55.0475 1220.5,-46.0691"/>
<polygon fill="black" stroke="black" points="1224,-46.0288 1220.5,-36.0288 1217,-46.0289 1224,-46.0288"/>
</g>
<!-- D2 -->
<g id="node8" class="node"><title>D2</title>
<polygon fill="peachpuff" stroke="black" points="761,-417 426,-417 426,-379 761,-379 761,-417"/>
<text text-anchor="middle" x="593.5" y="-401.8" font-family="Times,serif" font-size="14.00">DOBJ: baking powder, flour, white sugar, baking soda</text>
<text text-anchor="middle" x="593.5" y="-386.8" font-family="Times,serif" font-size="14.00">(text: the flour , baking soda , baking powder , sugar)</text>
</g>
<!-- D2&#45;&gt;E2 -->
<g id="edge1" class="edge"><title>D2&#45;&gt;E2</title>
<path fill="none" stroke="black" d="M636.944,-378.943C681.33,-360.494 749.819,-332.028 793.898,-313.707"/>
<polygon fill="black" stroke="black" points="795.297,-316.916 803.188,-309.846 792.61,-310.452 795.297,-316.916"/>
</g>
<!-- P2_0 -->
<g id="node9" class="node"><title>P2_0</title>
<polygon fill="white" stroke="black" points="893.5,-416 779.5,-416 779.5,-380 893.5,-380 893.5,-416"/>
<text text-anchor="middle" x="836.5" y="-394.3" font-family="Times,serif" font-size="14.00">PREP: in a bowl</text>
</g>
<!-- P2_0&#45;&gt;E2 -->
<g id="edge2" class="edge"><title>P2_0&#45;&gt;E2</title>
<path fill="none" stroke="black" d="M836.5,-379.867C836.5,-364.414 836.5,-341.416 836.5,-323.409"/>
<polygon fill="black" stroke="black" points="840,-323.217 836.5,-313.217 833,-323.217 840,-323.217"/>
</g>
<!-- O2_0 -->
<g id="node10" class="node"><title>O2_0</title>
<polygon fill="white" stroke="black" points="1031,-416 912,-416 912,-380 1031,-380 1031,-416"/>
<text text-anchor="middle" x="971.5" y="-394.3" font-family="Times,serif" font-size="14.00">OTHER: together</text>
</g>
<!-- O2_0&#45;&gt;E2 -->
<g id="edge3" class="edge"><title>O2_0&#45;&gt;E2</title>
<path fill="none" stroke="black" d="M948.599,-379.867C925.854,-362.85 890.88,-336.685 866.053,-318.11"/>
<polygon fill="black" stroke="black" points="867.834,-315.072 857.731,-311.884 863.641,-320.677 867.834,-315.072"/>
</g>
<!-- D0 -->
<g id="node11" class="node"><title>D0</title>
<polygon fill="white" stroke="black" points="1837.5,-313 1519.5,-313 1519.5,-277 1837.5,-277 1837.5,-313"/>
<text text-anchor="middle" x="1678.5" y="-291.3" font-family="Times,serif" font-size="14.00">DOBJ: oven to 375 degrees F &#45;LRB&#45; 190 degrees C</text>
</g>
<!-- D0&#45;&gt;E0 -->
<g id="edge4" class="edge"><title>D0&#45;&gt;E0</title>
<path fill="none" stroke="black" d="M1678.5,-276.581C1678.5,-261.382 1678.5,-239.067 1678.5,-221.464"/>
<polygon fill="black" stroke="black" points="1682,-221.219 1678.5,-211.219 1675,-221.219 1682,-221.219"/>
</g>
<!-- D3 -->
<g id="node12" class="node"><title>D3</title>
<polygon fill="peachpuff" stroke="black" points="1264.5,-492 962.5,-492 962.5,-454 1264.5,-454 1264.5,-492"/>
<text text-anchor="middle" x="1113.5" y="-476.8" font-family="Times,serif" font-size="14.00">DOBJ: chocolate chips, ripe bananas, mayonnaise</text>
<text text-anchor="middle" x="1113.5" y="-461.8" font-family="Times,serif" font-size="14.00">(text: the bananas , mayonnaise , chocolate chips)</text>
</g>
<!-- D3&#45;&gt;E3 -->
<g id="edge5" class="edge"><title>D3&#45;&gt;E3</title>
<path fill="none" stroke="black" d="M1113.5,-453.955C1113.5,-445.701 1113.5,-435.738 1113.5,-426.574"/>
<polygon fill="black" stroke="black" points="1117,-426.335 1113.5,-416.335 1110,-426.335 1117,-426.335"/>
</g>
<!-- D1 -->
<g id="node13" class="node"><title>D1</title>
<polygon fill="white" stroke="black" points="189,-416 0,-416 0,-380 189,-380 189,-416"/>
<text text-anchor="middle" x="94.5" y="-394.3" font-family="Times,serif" font-size="14.00">DOBJ: 12 muffin cups or line</text>
</g>
<!-- D1&#45;&gt;E1 -->
<g id="edge6" class="edge"><title>D1&#45;&gt;E1</title>
<path fill="none" stroke="black" d="M130.633,-379.867C168.322,-361.995 227.293,-334.032 266.651,-315.37"/>
<polygon fill="black" stroke="black" points="268.182,-318.517 275.718,-311.07 265.183,-312.193 268.182,-318.517"/>
</g>
<!-- P1_0 -->
<g id="node14" class="node"><title>P1_0</title>
<polygon fill="white" stroke="black" points="407.5,-416 207.5,-416 207.5,-380 407.5,-380 407.5,-416"/>
<text text-anchor="middle" x="307.5" y="-394.3" font-family="Times,serif" font-size="14.00">PREP: with paper muffin liners</text>
</g>
<!-- P1_0&#45;&gt;E1 -->
<g id="edge7" class="edge"><title>P1_0&#45;&gt;E1</title>
<path fill="none" stroke="black" d="M307.5,-379.867C307.5,-364.414 307.5,-341.416 307.5,-323.409"/>
<polygon fill="black" stroke="black" points="311,-323.217 307.5,-313.217 304,-323.217 311,-323.217"/>
</g>
<!-- O4_0_0 -->
<g id="node15" class="node"><title>O4_0_0</title>
<polygon fill="white" stroke="black" points="1384.5,-416 1196.5,-416 1196.5,-380 1384.5,-380 1384.5,-416"/>
<text text-anchor="middle" x="1290.5" y="-394.3" font-family="Times,serif" font-size="14.00">OTHER: until well combined</text>
</g>
<!-- O4_0_0&#45;&gt;E4 -->
<g id="edge9" class="edge"><title>O4_0_0&#45;&gt;E4</title>
<path fill="none" stroke="black" d="M1263.48,-379.926C1241.61,-366.278 1209.88,-346.873 1181.5,-331 1172.19,-325.794 1162.03,-320.409 1152.47,-315.47"/>
<polygon fill="black" stroke="black" points="1154.02,-312.336 1143.53,-310.892 1150.83,-318.566 1154.02,-312.336"/>
</g>
<!-- P6_0_1 -->
<g id="node16" class="node"><title>P6_0_1</title>
<polygon fill="white" stroke="black" points="1047,-211 924,-211 924,-175 1047,-175 1047,-211"/>
<text text-anchor="middle" x="985.5" y="-189.3" font-family="Times,serif" font-size="14.00">PREP: in &#160;the tops</text>
</g>
<!-- P6_0_1&#45;&gt;E6 -->
<g id="edge15" class="edge"><title>P6_0_1&#45;&gt;E6</title>
<path fill="none" stroke="black" d="M1025.63,-174.923C1067.56,-157.083 1133.14,-129.176 1176.46,-110.739"/>
<polygon fill="black" stroke="black" points="1178.06,-113.863 1185.89,-106.727 1175.32,-107.422 1178.06,-113.863"/>
</g>
<!-- P6_1_0 -->
<g id="node17" class="node"><title>P6_1_0</title>
<polygon fill="white" stroke="black" points="1224,-211 1065,-211 1065,-175 1224,-175 1224,-211"/>
<text text-anchor="middle" x="1144.5" y="-189.3" font-family="Times,serif" font-size="14.00">PREP: about 20 minutes</text>
</g>
<!-- P6_1_0&#45;&gt;E6 -->
<g id="edge16" class="edge"><title>P6_1_0&#45;&gt;E6</title>
<path fill="none" stroke="black" d="M1157.74,-174.581C1169.8,-158.712 1187.75,-135.087 1201.37,-117.166"/>
<polygon fill="black" stroke="black" points="1204.4,-118.965 1207.67,-108.886 1198.83,-114.73 1204.4,-118.965"/>
</g>
<!-- O6_0_0 -->
<g id="node18" class="node"><title>O6_0_0</title>
<polygon fill="white" stroke="black" points="1351,-211 1242,-211 1242,-175 1351,-175 1351,-211"/>
<text text-anchor="middle" x="1296.5" y="-189.3" font-family="Times,serif" font-size="14.00">OTHER: spring</text>
</g>
<!-- O6_0_0&#45;&gt;E6 -->
<g id="edge17" class="edge"><title>O6_0_0&#45;&gt;E6</title>
<path fill="none" stroke="black" d="M1283.26,-174.581C1271.2,-158.712 1253.25,-135.087 1239.63,-117.166"/>
<polygon fill="black" stroke="black" points="1242.17,-114.73 1233.33,-108.886 1236.6,-118.965 1242.17,-114.73"/>
</g>
<!-- O6_1_0 -->
<g id="node19" class="node"><title>O6_1_0</title>
<polygon fill="white" stroke="black" points="1592,-211 1369,-211 1369,-175 1592,-175 1592,-211"/>
<text text-anchor="middle" x="1480.5" y="-189.3" font-family="Times,serif" font-size="14.00">OTHER: back when lightly pressed</text>
</g>
<!-- O6_1_0&#45;&gt;E6 -->
<g id="edge18" class="edge"><title>O6_1_0&#45;&gt;E6</title>
<path fill="none" stroke="black" d="M1436.1,-174.923C1389.02,-156.814 1314.96,-128.332 1267.07,-109.912"/>
<polygon fill="black" stroke="black" points="1268.15,-106.577 1257.56,-106.254 1265.64,-113.111 1268.15,-106.577"/>
</g>
</g>
</svg>
