<?xml version="1.0" encoding="UTF-8" standalone="no"?>
<!DOCTYPE svg PUBLIC "-//W3C//DTD SVG 1.1//EN"
 "http://www.w3.org/Graphics/SVG/1.1/DTD/svg11.dtd">
<!-- Generated by graphviz version 2.38.0 (20140413.2041)
 -->
<!-- Title: recipe Pages: 1 -->
<svg width="1878pt" height="604pt"
 viewBox="0.00 0.00 1878.00 604.00" xmlns="http://www.w3.org/2000/svg" xmlns:xlink="http://www.w3.org/1999/xlink">
<g id="graph0" class="graph" transform="scale(1 1) rotate(0) translate(4 600)">
<title>recipe</title>
<polygon fill="white" stroke="none" points="-4,4 -4,-600 1874,-600 1874,4 -4,4"/>
<!-- E0 -->
<g id="node1" class="node"><title>E0</title>
<ellipse fill="azure" stroke="black" cx="1711" cy="-193" rx="68.7879" ry="18"/>
<text text-anchor="middle" x="1711" y="-189.3" font-family="Times,serif" font-size="14.00">preheat (S0,P0)</text>
</g>
<!-- E8 -->
<g id="node9" class="node"><title>E8</title>
<ellipse fill="azure" stroke="black" cx="1342" cy="-91" rx="73.387" ry="18"/>
<text text-anchor="middle" x="1342" y="-87.3" font-family="Times,serif" font-size="14.00">bake (S10,P608)</text>
</g>
<!-- E0&#45;&gt;E8 -->
<g id="edge22" class="edge"><title>E0&#45;&gt;E8</title>
<path fill="none" stroke="black" d="M1678.18,-177.08C1644.79,-162.429 1591.21,-140.384 1543,-127 1501.64,-115.519 1454.41,-107.066 1416.12,-101.345"/>
<polygon fill="black" stroke="black" points="1416.48,-97.8612 1406.08,-99.8772 1415.47,-104.788 1416.48,-97.8612"/>
<text text-anchor="middle" x="1713.5" y="-145.8" font-family="Times,serif" font-size="14.00">OUTPUT: </text>
<text text-anchor="middle" x="1713.5" y="-130.8" font-family="Times,serif" font-size="14.00">INPUT: in the preheated oven</text>
</g>
<!-- E1 -->
<g id="node2" class="node"><title>E1</title>
<ellipse fill="azure" stroke="black" cx="252" cy="-295" rx="66.8882" ry="18"/>
<text text-anchor="middle" x="252" y="-291.3" font-family="Times,serif" font-size="14.00">spray (S1,P38)</text>
</g>
<!-- E4 -->
<g id="node5" class="node"><title>E4</title>
<ellipse fill="azure" stroke="black" cx="769" cy="-193" rx="74.187" ry="18"/>
<text text-anchor="middle" x="769" y="-189.3" font-family="Times,serif" font-size="14.00">spoon (S6,P335)</text>
</g>
<!-- E1&#45;&gt;E4 -->
<g id="edge10" class="edge"><title>E1&#45;&gt;E4</title>
<path fill="none" stroke="black" d="M295.945,-281.321C347.023,-266.959 434.03,-243.655 510,-229 570.877,-217.257 640.554,-208.078 692.294,-202.072"/>
<polygon fill="black" stroke="black" points="692.859,-205.53 702.395,-200.913 692.062,-198.576 692.859,-205.53"/>
<text text-anchor="middle" x="610" y="-247.8" font-family="Times,serif" font-size="14.00">OUTPUT: </text>
<text text-anchor="middle" x="610" y="-232.8" font-family="Times,serif" font-size="14.00">INPUT: into prepared muffin cups</text>
</g>
<!-- E2 -->
<g id="node3" class="node"><title>E2</title>
<ellipse fill="azure" stroke="black" cx="708" cy="-502" rx="69.5877" ry="18"/>
<text text-anchor="middle" x="708" y="-498.3" font-family="Times,serif" font-size="14.00">whisk (S2,P72)</text>
</g>
<!-- E5 -->
<g id="node6" class="node"><title>E5</title>
<ellipse fill="azure" stroke="black" cx="1104" cy="-398" rx="65.7887" ry="18"/>
<text text-anchor="middle" x="1104" y="-394.3" font-family="Times,serif" font-size="14.00">mix (S7,P393)</text>
</g>
<!-- E2&#45;&gt;E5 -->
<g id="edge14" class="edge"><title>E2&#45;&gt;E5</title>
<path fill="none" stroke="black" d="M708.06,-483.952C709.119,-468.548 713.339,-446.571 728,-435 754.3,-414.243 995.86,-421.929 1029,-417 1035.59,-416.021 1042.44,-414.743 1049.22,-413.319"/>
<polygon fill="black" stroke="black" points="1050.03,-416.724 1059.04,-411.147 1048.52,-409.889 1050.03,-416.724"/>
<text text-anchor="middle" x="866.5" y="-453.8" font-family="Times,serif" font-size="14.00">OUTPUT: </text>
<text text-anchor="middle" x="866.5" y="-438.8" font-family="Times,serif" font-size="14.00">INPUT: with &#160;1/2 teaspoon cinnamon in a bowl</text>
</g>
<!-- E3 -->
<g id="node4" class="node"><title>E3</title>
<ellipse fill="azure" stroke="black" cx="683" cy="-295" rx="66.0889" ry="18"/>
<text text-anchor="middle" x="683" y="-291.3" font-family="Times,serif" font-size="14.00">fold (S4,P281)</text>
</g>
<!-- E3&#45;&gt;E4 -->
<g id="edge9" class="edge"><title>E3&#45;&gt;E4</title>
<path fill="none" stroke="black" d="M697.589,-277.036C711.386,-260.993 732.247,-236.737 747.864,-218.577"/>
<polygon fill="black" stroke="black" points="750.76,-220.577 754.627,-210.713 745.453,-216.013 750.76,-220.577"/>
<text text-anchor="middle" x="780" y="-247.8" font-family="Times,serif" font-size="14.00">OUTPUT: </text>
<text text-anchor="middle" x="780" y="-232.8" font-family="Times,serif" font-size="14.00">INPUT: batter</text>
</g>
<!-- E4&#45;&gt;E8 -->
<g id="edge21" class="edge"><title>E4&#45;&gt;E8</title>
<path fill="none" stroke="black" d="M816.878,-179.087C872.01,-164.619 965.474,-141.321 1047,-127 1120.11,-114.157 1204.25,-104.693 1263.92,-98.8668"/>
<polygon fill="black" stroke="black" points="1264.4,-102.336 1274.02,-97.8923 1263.73,-95.3687 1264.4,-102.336"/>
<text text-anchor="middle" x="1094" y="-145.8" font-family="Times,serif" font-size="14.00">OUTPUT: </text>
<text text-anchor="middle" x="1094" y="-130.8" font-family="Times,serif" font-size="14.00">INPUT: muffins</text>
</g>
<!-- E6 -->
<g id="node7" class="node"><title>E6</title>
<ellipse fill="azure" stroke="black" cx="1200" cy="-295" rx="70.6878" ry="18"/>
<text text-anchor="middle" x="1200" y="-291.3" font-family="Times,serif" font-size="14.00">mash (S8,P493)</text>
</g>
<!-- E5&#45;&gt;E6 -->
<g id="edge17" class="edge"><title>E5&#45;&gt;E6</title>
<path fill="none" stroke="black" d="M1092.81,-380.038C1084.92,-365.729 1077.45,-345.344 1088,-331 1097.11,-318.613 1110.58,-310.488 1125.05,-305.188"/>
<polygon fill="black" stroke="black" points="1126.22,-308.489 1134.67,-302.097 1124.07,-301.824 1126.22,-308.489"/>
<text text-anchor="middle" x="1193.5" y="-349.8" font-family="Times,serif" font-size="14.00">OUTPUT: </text>
<text text-anchor="middle" x="1193.5" y="-334.8" font-family="Times,serif" font-size="14.00">INPUT: into the mixture with a fork</text>
</g>
<!-- E7 -->
<g id="node8" class="node"><title>E7</title>
<ellipse fill="azure" stroke="black" cx="1200" cy="-193" rx="81.4863" ry="18"/>
<text text-anchor="middle" x="1200" y="-189.3" font-family="Times,serif" font-size="14.00">sprinkle (S9,P581)</text>
</g>
<!-- E6&#45;&gt;E7 -->
<g id="edge19" class="edge"><title>E6&#45;&gt;E7</title>
<path fill="none" stroke="black" d="M1200,-276.581C1200,-261.382 1200,-239.067 1200,-221.464"/>
<polygon fill="black" stroke="black" points="1203.5,-221.219 1200,-211.219 1196.5,-221.219 1203.5,-221.219"/>
<text text-anchor="middle" x="1232" y="-247.8" font-family="Times,serif" font-size="14.00">OUTPUT: </text>
<text text-anchor="middle" x="1232" y="-232.8" font-family="Times,serif" font-size="14.00">INPUT: </text>
</g>
<!-- E7&#45;&gt;E8 -->
<g id="edge23" class="edge"><title>E7&#45;&gt;E8</title>
<path fill="none" stroke="black" d="M1167.92,-176.339C1160.75,-171.222 1154.06,-164.801 1150,-157 1143.84,-145.174 1141.46,-137.239 1150,-127 1164.36,-109.79 1215.15,-101.02 1260.89,-96.5635"/>
<polygon fill="black" stroke="black" points="1261.22,-100.048 1270.85,-95.6505 1260.58,-93.0772 1261.22,-100.048"/>
<text text-anchor="middle" x="1336" y="-145.8" font-family="Times,serif" font-size="14.00">OUTPUT: </text>
<text text-anchor="middle" x="1336" y="-130.8" font-family="Times,serif" font-size="14.00">INPUT: until a toothpick comes out clean or with moist crumbs </text>
</g>
<!-- EOR -->
<g id="node26" class="node"><title>EOR</title>
<ellipse fill="plum" stroke="black" cx="1342" cy="-18" rx="57.3905" ry="18"/>
<text text-anchor="middle" x="1342" y="-14.3" font-family="Times,serif" font-size="14.00">Bon appetit!</text>
</g>
<!-- E8&#45;&gt;EOR -->
<g id="edge25" class="edge"><title>E8&#45;&gt;EOR</title>
<path fill="none" stroke="black" d="M1342,-72.8129C1342,-64.7895 1342,-55.0475 1342,-46.0691"/>
<polygon fill="black" stroke="black" points="1345.5,-46.0288 1342,-36.0288 1338.5,-46.0289 1345.5,-46.0288"/>
</g>
<!-- D3 -->
<g id="node10" class="node"><title>D3</title>
<polygon fill="peachpuff" stroke="black" points="499.5,-417 356.5,-417 356.5,-379 499.5,-379 499.5,-417"/>
<text text-anchor="middle" x="428" y="-401.8" font-family="Times,serif" font-size="14.00">DOBJ: ripe bananas</text>
<text text-anchor="middle" x="428" y="-386.8" font-family="Times,serif" font-size="14.00">(text: banana mixture)</text>
</g>
<!-- D3&#45;&gt;E3 -->
<g id="edge1" class="edge"><title>D3&#45;&gt;E3</title>
<path fill="none" stroke="black" d="M473.589,-378.943C519.864,-360.615 591.103,-332.398 637.387,-314.066"/>
<polygon fill="black" stroke="black" points="638.858,-317.248 646.866,-310.312 636.28,-310.74 638.858,-317.248"/>
</g>
<!-- P3_0 -->
<g id="node11" class="node"><title>P3_0</title>
<polygon fill="white" stroke="black" points="690.5,-416 517.5,-416 517.5,-380 690.5,-380 690.5,-416"/>
<text text-anchor="middle" x="604" y="-394.3" font-family="Times,serif" font-size="14.00">PREP: into dry ingredients</text>
</g>
<!-- P3_0&#45;&gt;E3 -->
<g id="edge2" class="edge"><title>P3_0&#45;&gt;E3</title>
<path fill="none" stroke="black" d="M617.401,-379.867C630.075,-363.663 649.238,-339.164 663.585,-320.822"/>
<polygon fill="black" stroke="black" points="666.392,-322.913 669.797,-312.88 660.879,-318.601 666.392,-322.913"/>
</g>
<!-- O3_0 -->
<g id="node12" class="node"><title>O3_0</title>
<polygon fill="white" stroke="black" points="817,-416 709,-416 709,-380 817,-380 817,-416"/>
<text text-anchor="middle" x="763" y="-394.3" font-family="Times,serif" font-size="14.00">OTHER: gently</text>
</g>
<!-- O3_0&#45;&gt;E3 -->
<g id="edge3" class="edge"><title>O3_0&#45;&gt;E3</title>
<path fill="none" stroke="black" d="M749.429,-379.867C736.595,-363.663 717.189,-339.164 702.661,-320.822"/>
<polygon fill="black" stroke="black" points="705.323,-318.546 696.37,-312.88 699.836,-322.892 705.323,-318.546"/>
</g>
<!-- O3_1 -->
<g id="node13" class="node"><title>O3_1</title>
<polygon fill="white" stroke="black" points="1020.5,-416 835.5,-416 835.5,-380 1020.5,-380 1020.5,-416"/>
<text text-anchor="middle" x="928" y="-394.3" font-family="Times,serif" font-size="14.00">OTHER: just until moistened</text>
</g>
<!-- O3_1&#45;&gt;E3 -->
<g id="edge4" class="edge"><title>O3_1&#45;&gt;E3</title>
<path fill="none" stroke="black" d="M886.716,-379.981C842.537,-361.768 772.708,-332.982 727.375,-314.293"/>
<polygon fill="black" stroke="black" points="728.67,-311.042 718.091,-310.466 726.002,-317.513 728.67,-311.042"/>
</g>
<!-- D0 -->
<g id="node14" class="node"><title>D0</title>
<polygon fill="white" stroke="black" points="1870,-313 1552,-313 1552,-277 1870,-277 1870,-313"/>
<text text-anchor="middle" x="1711" y="-291.3" font-family="Times,serif" font-size="14.00">DOBJ: oven to 375 degrees F &#45;LRB&#45; 190 degrees C</text>
</g>
<!-- D0&#45;&gt;E0 -->
<g id="edge5" class="edge"><title>D0&#45;&gt;E0</title>
<path fill="none" stroke="black" d="M1711,-276.581C1711,-261.382 1711,-239.067 1711,-221.464"/>
<polygon fill="black" stroke="black" points="1714.5,-221.219 1711,-211.219 1707.5,-221.219 1714.5,-221.219"/>
</g>
<!-- D2 -->
<g id="node15" class="node"><title>D2</title>
<polygon fill="peachpuff" stroke="black" points="1073.5,-596 342.5,-596 342.5,-558 1073.5,-558 1073.5,-596"/>
<text text-anchor="middle" x="708" y="-580.8" font-family="Times,serif" font-size="14.00">DOBJ: baking powder, ground cinnamon, sifted whole wheat flour, baking soda, salt</text>
<text text-anchor="middle" x="708" y="-565.8" font-family="Times,serif" font-size="14.00">(text: 1Ê1/2 cups sifted whole wheat flour with baking soda , baking powder , salt , 1/2 teaspoon cinnamon in a large bowl)</text>
</g>
<!-- D2&#45;&gt;E2 -->
<g id="edge6" class="edge"><title>D2&#45;&gt;E2</title>
<path fill="none" stroke="black" d="M708,-557.955C708,-549.701 708,-539.738 708,-530.574"/>
<polygon fill="black" stroke="black" points="711.5,-530.335 708,-520.335 704.5,-530.335 711.5,-530.335"/>
</g>
<!-- D1 -->
<g id="node16" class="node"><title>D1</title>
<polygon fill="white" stroke="black" points="148,-416 0,-416 0,-380 148,-380 148,-416"/>
<text text-anchor="middle" x="74" y="-394.3" font-family="Times,serif" font-size="14.00">DOBJ: 10 muffin cups</text>
</g>
<!-- D1&#45;&gt;E1 -->
<g id="edge7" class="edge"><title>D1&#45;&gt;E1</title>
<path fill="none" stroke="black" d="M104.195,-379.867C135.021,-362.376 182.882,-335.219 215.74,-316.574"/>
<polygon fill="black" stroke="black" points="217.614,-319.536 224.584,-311.556 214.159,-313.447 217.614,-319.536"/>
</g>
<!-- P1_0 -->
<g id="node17" class="node"><title>P1_0</title>
<polygon fill="peachpuff" stroke="black" points="338,-417 166,-417 166,-379 338,-379 338,-417"/>
<text text-anchor="middle" x="252" y="-401.8" font-family="Times,serif" font-size="14.00">PREP: with cooking spray</text>
<text text-anchor="middle" x="252" y="-386.8" font-family="Times,serif" font-size="14.00">(text: with cooking spray)</text>
</g>
<!-- P1_0&#45;&gt;E1 -->
<g id="edge8" class="edge"><title>P1_0&#45;&gt;E1</title>
<path fill="none" stroke="black" d="M252,-378.943C252,-363.531 252,-341.127 252,-323.488"/>
<polygon fill="black" stroke="black" points="255.5,-323.226 252,-313.226 248.5,-323.226 255.5,-323.226"/>
</g>
<!-- O4_0_0 -->
<g id="node18" class="node"><title>O4_0_0</title>
<polygon fill="white" stroke="black" points="988.5,-313 767.5,-313 767.5,-277 988.5,-277 988.5,-313"/>
<text text-anchor="middle" x="878" y="-291.3" font-family="Times,serif" font-size="14.00">OTHER: filling them about 3/4 full</text>
</g>
<!-- O4_0_0&#45;&gt;E4 -->
<g id="edge11" class="edge"><title>O4_0_0&#45;&gt;E4</title>
<path fill="none" stroke="black" d="M866.491,-276.947C856.557,-263.014 841.272,-243.349 825,-229 819.443,-224.1 813.123,-219.443 806.779,-215.219"/>
<polygon fill="black" stroke="black" points="808.498,-212.165 798.183,-209.746 804.738,-218.069 808.498,-212.165"/>
</g>
<!-- D5_ing -->
<g id="node19" class="node"><title>D5_ing</title>
<polygon fill="peachpuff" stroke="black" points="1054.5,-521 845.5,-521 845.5,-483 1054.5,-483 1054.5,-521"/>
<text text-anchor="middle" x="950" y="-505.8" font-family="Times,serif" font-size="14.00">DOBJ: packed dark brown sugar</text>
<text text-anchor="middle" x="950" y="-490.8" font-family="Times,serif" font-size="14.00">(text: dark brown sugar)</text>
</g>
<!-- D5_ing&#45;&gt;E5 -->
<g id="edge12" class="edge"><title>D5_ing&#45;&gt;E5</title>
<path fill="none" stroke="black" d="M977.178,-482.999C1003.51,-465.556 1043.48,-439.088 1071.48,-420.536"/>
<polygon fill="black" stroke="black" points="1073.72,-423.253 1080.13,-414.812 1069.86,-417.417 1073.72,-423.253"/>
</g>
<!-- P5_0_ing -->
<g id="node20" class="node"><title>P5_0_ing</title>
<polygon fill="peachpuff" stroke="black" points="1345.5,-521 1072.5,-521 1072.5,-483 1345.5,-483 1345.5,-521"/>
<text text-anchor="middle" x="1209" y="-505.8" font-family="Times,serif" font-size="14.00">PREP: with whole wheat flour</text>
<text text-anchor="middle" x="1209" y="-490.8" font-family="Times,serif" font-size="14.00">(text: with 2 tablespoons whole wheat flour)</text>
</g>
<!-- P5_0_ing&#45;&gt;E5 -->
<g id="edge13" class="edge"><title>P5_0_ing&#45;&gt;E5</title>
<path fill="none" stroke="black" d="M1190.23,-482.764C1173.09,-466.118 1147.64,-441.396 1128.83,-423.121"/>
<polygon fill="black" stroke="black" points="1130.83,-420.183 1121.22,-415.725 1125.95,-425.204 1130.83,-420.183"/>
</g>
<!-- O5_0_0 -->
<g id="node21" class="node"><title>O5_0_0</title>
<polygon fill="white" stroke="black" points="1568.5,-520 1363.5,-520 1363.5,-484 1568.5,-484 1568.5,-520"/>
<text text-anchor="middle" x="1466" y="-498.3" font-family="Times,serif" font-size="14.00">OTHER: stirring until combined</text>
</g>
<!-- O5_0_0&#45;&gt;E5 -->
<g id="edge15" class="edge"><title>O5_0_0&#45;&gt;E5</title>
<path fill="none" stroke="black" d="M1405.41,-483.927C1336.2,-464.427 1224.01,-432.815 1157.78,-414.154"/>
<polygon fill="black" stroke="black" points="1158.53,-410.729 1147.96,-411.386 1156.63,-417.467 1158.53,-410.729"/>
</g>
<!-- D6_ing -->
<g id="node22" class="node"><title>D6_ing</title>
<polygon fill="peachpuff" stroke="black" points="1421,-417 1205,-417 1205,-379 1421,-379 1421,-417"/>
<text text-anchor="middle" x="1313" y="-401.8" font-family="Times,serif" font-size="14.00">DOBJ: unsalted butter</text>
<text text-anchor="middle" x="1313" y="-386.8" font-family="Times,serif" font-size="14.00">(text: 1 tablespoon unsalted butter)</text>
</g>
<!-- D6_ing&#45;&gt;E6 -->
<g id="edge16" class="edge"><title>D6_ing&#45;&gt;E6</title>
<path fill="none" stroke="black" d="M1313.74,-378.925C1313.36,-364.327 1310.51,-344.121 1299,-331 1290.51,-321.321 1279.17,-314.319 1267.2,-309.253"/>
<polygon fill="black" stroke="black" points="1268.1,-305.851 1257.51,-305.591 1265.62,-312.399 1268.1,-305.851"/>
</g>
<!-- O6_0_0 -->
<g id="node23" class="node"><title>O6_0_0</title>
<polygon fill="white" stroke="black" points="1739,-416 1439,-416 1439,-380 1739,-380 1739,-416"/>
<text text-anchor="middle" x="1589" y="-394.3" font-family="Times,serif" font-size="14.00">OTHER: until streusel topping resembles crumbs</text>
</g>
<!-- O6_0_0&#45;&gt;E6 -->
<g id="edge18" class="edge"><title>O6_0_0&#45;&gt;E6</title>
<path fill="none" stroke="black" d="M1523.45,-379.981C1449.05,-360.664 1328.84,-329.452 1257.81,-311.009"/>
<polygon fill="black" stroke="black" points="1258.26,-307.51 1247.7,-308.384 1256.5,-314.285 1258.26,-307.51"/>
</g>
<!-- O7_0_0 -->
<g id="node24" class="node"><title>O7_0_0</title>
<polygon fill="white" stroke="black" points="1483,-313 1289,-313 1289,-277 1483,-277 1483,-313"/>
<text text-anchor="middle" x="1386" y="-291.3" font-family="Times,serif" font-size="14.00">OTHER: topping over muffins</text>
</g>
<!-- O7_0_0&#45;&gt;E7 -->
<g id="edge20" class="edge"><title>O7_0_0&#45;&gt;E7</title>
<path fill="none" stroke="black" d="M1355.57,-276.929C1331.81,-263.679 1297.93,-244.943 1268,-229 1258.95,-224.178 1249.17,-219.079 1239.92,-214.31"/>
<polygon fill="black" stroke="black" points="1241.39,-211.132 1230.9,-209.672 1238.19,-217.357 1241.39,-211.132"/>
</g>
<!-- O8_0_1 -->
<g id="node25" class="node"><title>O8_0_1</title>
<polygon fill="white" stroke="black" points="1624,-211 1448,-211 1448,-175 1624,-175 1624,-211"/>
<text text-anchor="middle" x="1536" y="-189.3" font-family="Times,serif" font-size="14.00">OTHER: &#160;about 20 minutes</text>
</g>
<!-- O8_0_1&#45;&gt;E8 -->
<g id="edge24" class="edge"><title>O8_0_1&#45;&gt;E8</title>
<path fill="none" stroke="black" d="M1537.15,-174.904C1537.15,-160.165 1534.61,-139.363 1522,-127 1507.4,-112.693 1462.16,-103.932 1420.69,-98.7539"/>
<polygon fill="black" stroke="black" points="1420.87,-95.2509 1410.53,-97.545 1420.04,-102.202 1420.87,-95.2509"/>
</g>
</g>
</svg>
