<?xml version="1.0" encoding="UTF-8" standalone="no"?>
<!DOCTYPE svg PUBLIC "-//W3C//DTD SVG 1.1//EN"
 "http://www.w3.org/Graphics/SVG/1.1/DTD/svg11.dtd">
<!-- Generated by graphviz version 2.38.0 (20140413.2041)
 -->
<!-- Title: recipe Pages: 1 -->
<svg width="2571pt" height="808pt"
 viewBox="0.00 0.00 2570.50 808.00" xmlns="http://www.w3.org/2000/svg" xmlns:xlink="http://www.w3.org/1999/xlink">
<g id="graph0" class="graph" transform="scale(1 1) rotate(0) translate(4 804)">
<title>recipe</title>
<polygon fill="white" stroke="none" points="-4,4 -4,-804 2566.5,-804 2566.5,4 -4,4"/>
<!-- E0 -->
<g id="node1" class="node"><title>E0</title>
<ellipse fill="azure" stroke="black" cx="2403.5" cy="-295" rx="68.7879" ry="18"/>
<text text-anchor="middle" x="2403.5" y="-291.3" font-family="Times,serif" font-size="14.00">preheat (S0,P0)</text>
</g>
<!-- E8 -->
<g id="node9" class="node"><title>E8</title>
<ellipse fill="azure" stroke="black" cx="2061.5" cy="-193" rx="68.7879" ry="18"/>
<text text-anchor="middle" x="2061.5" y="-189.3" font-family="Times,serif" font-size="14.00">bake (S8,P472)</text>
</g>
<!-- E0&#45;&gt;E8 -->
<g id="edge23" class="edge"><title>E0&#45;&gt;E8</title>
<path fill="none" stroke="black" d="M2359.49,-281.131C2297.11,-262.893 2183.09,-229.553 2115.62,-209.825"/>
<polygon fill="black" stroke="black" points="2116.19,-206.345 2105.61,-206.898 2114.23,-213.064 2116.19,-206.345"/>
<text text-anchor="middle" x="2369" y="-247.8" font-family="Times,serif" font-size="14.00">OUTPUT: </text>
<text text-anchor="middle" x="2369" y="-232.8" font-family="Times,serif" font-size="14.00">INPUT: in the preheated oven</text>
</g>
<!-- E1 -->
<g id="node2" class="node"><title>E1</title>
<ellipse fill="azure" stroke="black" cx="1328.5" cy="-397" rx="66.8882" ry="18"/>
<text text-anchor="middle" x="1328.5" y="-393.3" font-family="Times,serif" font-size="14.00">spray (S1,P38)</text>
</g>
<!-- E7 -->
<g id="node8" class="node"><title>E7</title>
<ellipse fill="azure" stroke="black" cx="1572.5" cy="-295" rx="74.187" ry="18"/>
<text text-anchor="middle" x="1572.5" y="-291.3" font-family="Times,serif" font-size="14.00">spoon (S7,P419)</text>
</g>
<!-- E1&#45;&gt;E7 -->
<g id="edge20" class="edge"><title>E1&#45;&gt;E7</title>
<path fill="none" stroke="black" d="M1328.38,-378.975C1329.25,-364.074 1333.03,-342.987 1346.5,-331 1367.48,-312.334 1434.27,-303.61 1489.84,-299.54"/>
<polygon fill="black" stroke="black" points="1490.34,-303.014 1500.07,-298.833 1489.86,-296.031 1490.34,-303.014"/>
<text text-anchor="middle" x="1457" y="-349.8" font-family="Times,serif" font-size="14.00">OUTPUT: </text>
<text text-anchor="middle" x="1457" y="-334.8" font-family="Times,serif" font-size="14.00">INPUT: into the prepared muffin cups</text>
</g>
<!-- E2 -->
<g id="node3" class="node"><title>E2</title>
<ellipse fill="azure" stroke="black" cx="760.5" cy="-707" rx="61.99" ry="18"/>
<text text-anchor="middle" x="760.5" y="-703.3" font-family="Times,serif" font-size="14.00">beat (S2,P91)</text>
</g>
<!-- E4 -->
<g id="node5" class="node"><title>E4</title>
<ellipse fill="azure" stroke="black" cx="1315.5" cy="-604" rx="65.7887" ry="18"/>
<text text-anchor="middle" x="1315.5" y="-600.3" font-family="Times,serif" font-size="14.00">mix (S4,P239)</text>
</g>
<!-- E2&#45;&gt;E4 -->
<g id="edge10" class="edge"><title>E2&#45;&gt;E4</title>
<path fill="none" stroke="black" d="M791.794,-691.438C826.044,-676.188 882.958,-652.843 934.5,-641 1038.61,-617.077 1162.23,-609.004 1239.79,-606.308"/>
<polygon fill="black" stroke="black" points="1240.07,-609.8 1249.95,-605.976 1239.84,-602.804 1240.07,-609.8"/>
<text text-anchor="middle" x="1027.5" y="-659.8" font-family="Times,serif" font-size="14.00">OUTPUT: </text>
<text text-anchor="middle" x="1027.5" y="-644.8" font-family="Times,serif" font-size="14.00">INPUT: creamed sugar mixture </text>
</g>
<!-- E3 -->
<g id="node4" class="node"><title>E3</title>
<ellipse fill="azure" stroke="black" cx="1132.5" cy="-707" rx="62.2891" ry="18"/>
<text text-anchor="middle" x="1132.5" y="-703.3" font-family="Times,serif" font-size="14.00">sift (S3,P187)</text>
</g>
<!-- E3&#45;&gt;E4 -->
<g id="edge11" class="edge"><title>E3&#45;&gt;E4</title>
<path fill="none" stroke="black" d="M1126.67,-688.805C1122.96,-674.407 1120.67,-654.157 1131.5,-641 1145.64,-623.829 1197.12,-614.731 1242.04,-609.981"/>
<polygon fill="black" stroke="black" points="1242.5,-613.453 1252.1,-608.976 1241.81,-606.488 1242.5,-613.453"/>
<text text-anchor="middle" x="1219" y="-659.8" font-family="Times,serif" font-size="14.00">OUTPUT: </text>
<text text-anchor="middle" x="1219" y="-644.8" font-family="Times,serif" font-size="14.00">INPUT: into the flour mixture</text>
</g>
<!-- E5 -->
<g id="node6" class="node"><title>E5</title>
<ellipse fill="azure" stroke="black" cx="1568.5" cy="-500" rx="66.0889" ry="18"/>
<text text-anchor="middle" x="1568.5" y="-496.3" font-family="Times,serif" font-size="14.00">beat (S5,P334)</text>
</g>
<!-- E4&#45;&gt;E5 -->
<g id="edge15" class="edge"><title>E4&#45;&gt;E5</title>
<path fill="none" stroke="black" d="M1313.15,-585.766C1312.16,-570.672 1313.49,-549.283 1326.5,-537 1353.48,-511.523 1455.93,-525.288 1492.5,-519 1498.81,-517.914 1505.39,-516.616 1511.91,-515.221"/>
<polygon fill="black" stroke="black" points="1513.06,-518.55 1522.07,-512.965 1511.54,-511.716 1513.06,-518.55"/>
<text text-anchor="middle" x="1445.5" y="-555.8" font-family="Times,serif" font-size="14.00">OUTPUT: </text>
<text text-anchor="middle" x="1445.5" y="-540.8" font-family="Times,serif" font-size="14.00">INPUT: into batter with an electric mixer</text>
</g>
<!-- E6 -->
<g id="node7" class="node"><title>E6</title>
<ellipse fill="azure" stroke="black" cx="1570.5" cy="-397" rx="66.0889" ry="18"/>
<text text-anchor="middle" x="1570.5" y="-393.3" font-family="Times,serif" font-size="14.00">fold (S6,P380)</text>
</g>
<!-- E5&#45;&gt;E6 -->
<g id="edge18" class="edge"><title>E5&#45;&gt;E6</title>
<path fill="none" stroke="black" d="M1568.84,-481.867C1569.15,-466.414 1569.6,-443.416 1569.96,-425.409"/>
<polygon fill="black" stroke="black" points="1573.46,-425.285 1570.16,-415.217 1566.46,-425.146 1573.46,-425.285"/>
<text text-anchor="middle" x="1625" y="-451.8" font-family="Times,serif" font-size="14.00">OUTPUT: </text>
<text text-anchor="middle" x="1625" y="-436.8" font-family="Times,serif" font-size="14.00">INPUT: into batter</text>
</g>
<!-- E6&#45;&gt;E7 -->
<g id="edge19" class="edge"><title>E6&#45;&gt;E7</title>
<path fill="none" stroke="black" d="M1570.85,-378.581C1571.15,-363.382 1571.6,-341.067 1571.95,-323.464"/>
<polygon fill="black" stroke="black" points="1575.45,-323.287 1572.16,-313.219 1568.46,-323.147 1575.45,-323.287"/>
<text text-anchor="middle" x="1604.5" y="-349.8" font-family="Times,serif" font-size="14.00">OUTPUT: </text>
<text text-anchor="middle" x="1604.5" y="-334.8" font-family="Times,serif" font-size="14.00">INPUT: </text>
</g>
<!-- E7&#45;&gt;E8 -->
<g id="edge22" class="edge"><title>E7&#45;&gt;E8</title>
<path fill="none" stroke="black" d="M1625.68,-282.458C1687.71,-269.105 1793.39,-246.688 1884.5,-229 1928.83,-220.394 1940.22,-219.87 1984.5,-211 1989.87,-209.924 1995.44,-208.77 2001.02,-207.588"/>
<polygon fill="black" stroke="black" points="2001.99,-210.96 2011.03,-205.44 2000.52,-204.116 2001.99,-210.96"/>
<text text-anchor="middle" x="1916.5" y="-247.8" font-family="Times,serif" font-size="14.00">OUTPUT: </text>
<text text-anchor="middle" x="1916.5" y="-232.8" font-family="Times,serif" font-size="14.00">INPUT: </text>
</g>
<!-- E9 -->
<g id="node10" class="node"><title>E9</title>
<ellipse fill="azure" stroke="black" cx="1798.5" cy="-91" rx="67.6881" ry="18"/>
<text text-anchor="middle" x="1798.5" y="-87.3" font-family="Times,serif" font-size="14.00">cool (S9,P566)</text>
</g>
<!-- E8&#45;&gt;E9 -->
<g id="edge26" class="edge"><title>E8&#45;&gt;E9</title>
<path fill="none" stroke="black" d="M2024.1,-177.779C1977.07,-159.897 1896.32,-129.193 1845.26,-109.779"/>
<polygon fill="black" stroke="black" points="1846.36,-106.455 1835.77,-106.172 1843.88,-112.998 1846.36,-106.455"/>
<text text-anchor="middle" x="2000.5" y="-145.8" font-family="Times,serif" font-size="14.00">OUTPUT: </text>
<text text-anchor="middle" x="2000.5" y="-130.8" font-family="Times,serif" font-size="14.00">INPUT: </text>
</g>
<!-- EOR -->
<g id="node30" class="node"><title>EOR</title>
<ellipse fill="plum" stroke="black" cx="1798.5" cy="-18" rx="57.3905" ry="18"/>
<text text-anchor="middle" x="1798.5" y="-14.3" font-family="Times,serif" font-size="14.00">Bon appetit!</text>
</g>
<!-- E9&#45;&gt;EOR -->
<g id="edge29" class="edge"><title>E9&#45;&gt;EOR</title>
<path fill="none" stroke="black" d="M1798.5,-72.8129C1798.5,-64.7895 1798.5,-55.0475 1798.5,-46.0691"/>
<polygon fill="black" stroke="black" points="1802,-46.0288 1798.5,-36.0288 1795,-46.0289 1802,-46.0288"/>
</g>
<!-- D1 -->
<g id="node11" class="node"><title>D1</title>
<polygon fill="white" stroke="black" points="1157,-518 1028,-518 1028,-482 1157,-482 1157,-518"/>
<text text-anchor="middle" x="1092.5" y="-496.3" font-family="Times,serif" font-size="14.00">DOBJ: muffin cups</text>
</g>
<!-- D1&#45;&gt;E1 -->
<g id="edge1" class="edge"><title>D1&#45;&gt;E1</title>
<path fill="none" stroke="black" d="M1132.27,-481.981C1174.61,-463.859 1241.42,-435.267 1285.1,-416.572"/>
<polygon fill="black" stroke="black" points="1286.51,-419.777 1294.33,-412.625 1283.76,-413.342 1286.51,-419.777"/>
</g>
<!-- P1_0 -->
<g id="node12" class="node"><title>P1_0</title>
<polygon fill="peachpuff" stroke="black" points="1484,-519 1175,-519 1175,-481 1484,-481 1484,-519"/>
<text text-anchor="middle" x="1329.5" y="-503.8" font-family="Times,serif" font-size="14.00">PREP: with cooking spray</text>
<text text-anchor="middle" x="1329.5" y="-488.8" font-family="Times,serif" font-size="14.00">(text: with cooking spray or line with paper liners)</text>
</g>
<!-- P1_0&#45;&gt;E1 -->
<g id="edge2" class="edge"><title>P1_0&#45;&gt;E1</title>
<path fill="none" stroke="black" d="M1329.32,-480.943C1329.17,-465.531 1328.95,-443.127 1328.77,-425.488"/>
<polygon fill="black" stroke="black" points="1332.27,-425.191 1328.67,-415.226 1325.27,-425.26 1332.27,-425.191"/>
</g>
<!-- D0 -->
<g id="node13" class="node"><title>D0</title>
<polygon fill="white" stroke="black" points="2562.5,-415 2244.5,-415 2244.5,-379 2562.5,-379 2562.5,-415"/>
<text text-anchor="middle" x="2403.5" y="-393.3" font-family="Times,serif" font-size="14.00">DOBJ: oven to 350 degrees F &#45;LRB&#45; 175 degrees C</text>
</g>
<!-- D0&#45;&gt;E0 -->
<g id="edge3" class="edge"><title>D0&#45;&gt;E0</title>
<path fill="none" stroke="black" d="M2403.5,-378.581C2403.5,-363.382 2403.5,-341.067 2403.5,-323.464"/>
<polygon fill="black" stroke="black" points="2407,-323.219 2403.5,-313.219 2400,-323.219 2407,-323.219"/>
</g>
<!-- D2 -->
<g id="node14" class="node"><title>D2</title>
<polygon fill="peachpuff" stroke="black" points="391,-800 0,-800 0,-762 391,-762 391,-800"/>
<text text-anchor="middle" x="195.5" y="-784.8" font-family="Times,serif" font-size="14.00">DOBJ: eggs, white sugar, butter, vanilla extract, ground flax seed</text>
<text text-anchor="middle" x="195.5" y="-769.8" font-family="Times,serif" font-size="14.00">(text: sugar , butter , flax seed , vanilla , eggs)</text>
</g>
<!-- D2&#45;&gt;E2 -->
<g id="edge4" class="edge"><title>D2&#45;&gt;E2</title>
<path fill="none" stroke="black" d="M336.98,-761.971C451.586,-747.366 607.838,-727.454 694.953,-716.353"/>
<polygon fill="black" stroke="black" points="695.491,-719.813 704.968,-715.077 694.606,-712.869 695.491,-719.813"/>
</g>
<!-- P2_0 -->
<g id="node15" class="node"><title>P2_0</title>
<polygon fill="white" stroke="black" points="652,-799 409,-799 409,-763 652,-763 652,-799"/>
<text text-anchor="middle" x="530.5" y="-777.3" font-family="Times,serif" font-size="14.00">PREP: in a bowl with an electric mixer</text>
</g>
<!-- P2_0&#45;&gt;E2 -->
<g id="edge5" class="edge"><title>P2_0&#45;&gt;E2</title>
<path fill="none" stroke="black" d="M585.007,-762.937C623.053,-751.027 673.448,-735.251 710.472,-723.661"/>
<polygon fill="black" stroke="black" points="711.561,-726.988 720.059,-720.66 709.47,-720.307 711.561,-726.988"/>
</g>
<!-- P2_1 -->
<g id="node16" class="node"><title>P2_1</title>
<polygon fill="white" stroke="black" points="851,-799 670,-799 670,-763 851,-763 851,-799"/>
<text text-anchor="middle" x="760.5" y="-777.3" font-family="Times,serif" font-size="14.00">PREP: until smooth, creamy</text>
</g>
<!-- P2_1&#45;&gt;E2 -->
<g id="edge6" class="edge"><title>P2_1&#45;&gt;E2</title>
<path fill="none" stroke="black" d="M760.5,-762.937C760.5,-754.807 760.5,-744.876 760.5,-735.705"/>
<polygon fill="black" stroke="black" points="764,-735.441 760.5,-725.441 757,-735.441 764,-735.441"/>
</g>
<!-- O2_0 -->
<g id="node17" class="node"><title>O2_0</title>
<polygon fill="white" stroke="black" points="988,-799 869,-799 869,-763 988,-763 988,-799"/>
<text text-anchor="middle" x="928.5" y="-777.3" font-family="Times,serif" font-size="14.00">OTHER: together</text>
</g>
<!-- O2_0&#45;&gt;E2 -->
<g id="edge7" class="edge"><title>O2_0&#45;&gt;E2</title>
<path fill="none" stroke="black" d="M888.686,-762.937C862.934,-751.9 829.435,-737.544 803.141,-726.275"/>
<polygon fill="black" stroke="black" points="804.378,-722.997 793.807,-722.275 801.62,-729.431 804.378,-722.997"/>
</g>
<!-- D3 -->
<g id="node18" class="node"><title>D3</title>
<polygon fill="peachpuff" stroke="black" points="1357,-800 1006,-800 1006,-762 1357,-762 1357,-800"/>
<text text-anchor="middle" x="1181.5" y="-784.8" font-family="Times,serif" font-size="14.00">DOBJ: all&#45;purpose flour, baking soda, salt</text>
<text text-anchor="middle" x="1181.5" y="-769.8" font-family="Times,serif" font-size="14.00">(text: flour , salt , baking soda together in a separate bowl)</text>
</g>
<!-- D3&#45;&gt;E3 -->
<g id="edge8" class="edge"><title>D3&#45;&gt;E3</title>
<path fill="none" stroke="black" d="M1169.14,-761.831C1163.23,-753.156 1156.07,-742.632 1149.65,-733.199"/>
<polygon fill="black" stroke="black" points="1152.54,-731.224 1144.02,-724.926 1146.75,-735.163 1152.54,-731.224"/>
</g>
<!-- D4_0 -->
<g id="node19" class="node"><title>D4_0</title>
<polygon fill="white" stroke="black" points="1387,-725 1228,-725 1228,-689 1387,-689 1387,-725"/>
<text text-anchor="middle" x="1307.5" y="-703.3" font-family="Times,serif" font-size="14.00">DOBJ: &#160;1/2 cup at a time</text>
</g>
<!-- D4_0&#45;&gt;E4 -->
<g id="edge9" class="edge"><title>D4_0&#45;&gt;E4</title>
<path fill="none" stroke="black" d="M1308.86,-688.867C1310.08,-673.414 1311.9,-650.416 1313.33,-632.409"/>
<polygon fill="black" stroke="black" points="1316.84,-632.462 1314.14,-622.217 1309.86,-631.91 1316.84,-632.462"/>
</g>
<!-- P4_1_0 -->
<g id="node20" class="node"><title>P4_1_0</title>
<polygon fill="white" stroke="black" points="1599.5,-725 1405.5,-725 1405.5,-689 1599.5,-689 1599.5,-725"/>
<text text-anchor="middle" x="1502.5" y="-703.3" font-family="Times,serif" font-size="14.00">PREP: until fully incorporated</text>
</g>
<!-- P4_1_0&#45;&gt;E4 -->
<g id="edge12" class="edge"><title>P4_1_0&#45;&gt;E4</title>
<path fill="none" stroke="black" d="M1470.78,-688.867C1438.16,-671.249 1387.38,-643.825 1352.85,-625.171"/>
<polygon fill="black" stroke="black" points="1354.46,-622.067 1344,-620.394 1351.14,-628.226 1354.46,-622.067"/>
</g>
<!-- O4_0_0 -->
<g id="node21" class="node"><title>O4_0_0</title>
<polygon fill="white" stroke="black" points="1761,-725 1618,-725 1618,-689 1761,-689 1761,-725"/>
<text text-anchor="middle" x="1689.5" y="-703.3" font-family="Times,serif" font-size="14.00">OTHER: batter is stiff</text>
</g>
<!-- O4_0_0&#45;&gt;E4 -->
<g id="edge13" class="edge"><title>O4_0_0&#45;&gt;E4</title>
<path fill="none" stroke="black" d="M1626.48,-688.981C1554.65,-669.584 1438.41,-638.192 1370.23,-619.78"/>
<polygon fill="black" stroke="black" points="1371.1,-616.389 1360.53,-617.161 1369.27,-623.147 1371.1,-616.389"/>
</g>
<!-- D5_ing -->
<g id="node22" class="node"><title>D5_ing</title>
<polygon fill="peachpuff" stroke="black" points="1634.5,-623 1502.5,-623 1502.5,-585 1634.5,-585 1634.5,-623"/>
<text text-anchor="middle" x="1568.5" y="-607.8" font-family="Times,serif" font-size="14.00">DOBJ: ripe bananas</text>
<text text-anchor="middle" x="1568.5" y="-592.8" font-family="Times,serif" font-size="14.00">(text: bananas)</text>
</g>
<!-- D5_ing&#45;&gt;E5 -->
<g id="edge14" class="edge"><title>D5_ing&#45;&gt;E5</title>
<path fill="none" stroke="black" d="M1568.5,-584.764C1568.5,-569.031 1568.5,-546.083 1568.5,-528.183"/>
<polygon fill="black" stroke="black" points="1572,-528.06 1568.5,-518.06 1565,-528.06 1572,-528.06"/>
</g>
<!-- P5_1_0 -->
<g id="node23" class="node"><title>P5_1_0</title>
<polygon fill="white" stroke="black" points="1754,-622 1653,-622 1653,-586 1754,-586 1754,-622"/>
<text text-anchor="middle" x="1703.5" y="-600.3" font-family="Times,serif" font-size="14.00">PREP: on low</text>
</g>
<!-- P5_1_0&#45;&gt;E5 -->
<g id="edge16" class="edge"><title>P5_1_0&#45;&gt;E5</title>
<path fill="none" stroke="black" d="M1680.9,-585.927C1658.11,-568.705 1622.81,-542.037 1597.86,-523.186"/>
<polygon fill="black" stroke="black" points="1599.92,-520.353 1589.83,-517.117 1595.7,-525.938 1599.92,-520.353"/>
</g>
<!-- D6_ing -->
<g id="node24" class="node"><title>D6_ing</title>
<polygon fill="peachpuff" stroke="black" points="1906,-519 1653,-519 1653,-481 1906,-481 1906,-519"/>
<text text-anchor="middle" x="1779.5" y="-503.8" font-family="Times,serif" font-size="14.00">DOBJ: chocolate chips, chopped walnuts</text>
<text text-anchor="middle" x="1779.5" y="-488.8" font-family="Times,serif" font-size="14.00">(text: &#160;walnuts, chocolate chips)</text>
</g>
<!-- D6_ing&#45;&gt;E6 -->
<g id="edge17" class="edge"><title>D6_ing&#45;&gt;E6</title>
<path fill="none" stroke="black" d="M1757.42,-480.937C1738.69,-466.346 1710.62,-446.144 1683.5,-433 1666.27,-424.648 1646.6,-417.738 1628.56,-412.326"/>
<polygon fill="black" stroke="black" points="1629.3,-408.899 1618.72,-409.474 1627.35,-415.621 1629.3,-408.899"/>
</g>
<!-- O7_0_0 -->
<g id="node25" class="node"><title>O7_0_0</title>
<polygon fill="white" stroke="black" points="1860.5,-415 1654.5,-415 1654.5,-379 1860.5,-379 1860.5,-415"/>
<text text-anchor="middle" x="1757.5" y="-393.3" font-family="Times,serif" font-size="14.00">OTHER: filling each cup 3/4 full</text>
</g>
<!-- O7_0_0&#45;&gt;E7 -->
<g id="edge21" class="edge"><title>O7_0_0&#45;&gt;E7</title>
<path fill="none" stroke="black" d="M1727.34,-378.9C1703.8,-365.635 1670.21,-346.893 1640.5,-331 1631.37,-326.115 1621.49,-320.957 1612.16,-316.147"/>
<polygon fill="black" stroke="black" points="1613.57,-312.933 1603.07,-311.475 1610.37,-319.159 1613.57,-312.933"/>
</g>
<!-- O8_0_0 -->
<g id="node26" class="node"><title>O8_0_0</title>
<polygon fill="white" stroke="black" points="2122,-313 1665,-313 1665,-277 2122,-277 2122,-313"/>
<text text-anchor="middle" x="1893.5" y="-291.3" font-family="Times,serif" font-size="14.00">OTHER: until a toothpick inserted in the center of a muffin comes out clean </text>
</g>
<!-- O8_0_0&#45;&gt;E8 -->
<g id="edge24" class="edge"><title>O8_0_0&#45;&gt;E8</title>
<path fill="none" stroke="black" d="M1922.38,-276.809C1951.24,-259.63 1995.64,-233.2 2026.49,-214.837"/>
<polygon fill="black" stroke="black" points="2028.4,-217.774 2035.21,-209.652 2024.82,-211.759 2028.4,-217.774"/>
</g>
<!-- O8_0_1 -->
<g id="node27" class="node"><title>O8_0_1</title>
<polygon fill="white" stroke="black" points="2316.5,-313 2140.5,-313 2140.5,-277 2316.5,-277 2316.5,-313"/>
<text text-anchor="middle" x="2228.5" y="-291.3" font-family="Times,serif" font-size="14.00">OTHER: &#160;about 25 minutes</text>
</g>
<!-- O8_0_1&#45;&gt;E8 -->
<g id="edge25" class="edge"><title>O8_0_1&#45;&gt;E8</title>
<path fill="none" stroke="black" d="M2199.79,-276.809C2171.19,-259.681 2127.22,-233.356 2096.57,-215"/>
<polygon fill="black" stroke="black" points="2098.29,-211.948 2087.91,-209.814 2094.69,-217.954 2098.29,-211.948"/>
</g>
<!-- P9_0_0 -->
<g id="node28" class="node"><title>P9_0_0</title>
<polygon fill="white" stroke="black" points="1603.5,-211 1399.5,-211 1399.5,-175 1603.5,-175 1603.5,-211"/>
<text text-anchor="middle" x="1501.5" y="-189.3" font-family="Times,serif" font-size="14.00">PREP: in the tins for 10 minutes</text>
</g>
<!-- P9_0_0&#45;&gt;E9 -->
<g id="edge27" class="edge"><title>P9_0_0&#45;&gt;E9</title>
<path fill="none" stroke="black" d="M1552.22,-174.923C1606.96,-156.49 1693.63,-127.311 1748.21,-108.934"/>
<polygon fill="black" stroke="black" points="1749.65,-112.142 1758.01,-105.633 1747.41,-105.508 1749.65,-112.142"/>
</g>
<!-- P9_1_0 -->
<g id="node29" class="node"><title>P9_1_0</title>
<polygon fill="white" stroke="black" points="1975,-211 1622,-211 1622,-175 1975,-175 1975,-211"/>
<text text-anchor="middle" x="1798.5" y="-189.3" font-family="Times,serif" font-size="14.00">PREP: before removing to cool completely on a wire rack</text>
</g>
<!-- P9_1_0&#45;&gt;E9 -->
<g id="edge28" class="edge"><title>P9_1_0&#45;&gt;E9</title>
<path fill="none" stroke="black" d="M1798.5,-174.581C1798.5,-159.382 1798.5,-137.067 1798.5,-119.464"/>
<polygon fill="black" stroke="black" points="1802,-119.219 1798.5,-109.219 1795,-119.219 1802,-119.219"/>
</g>
</g>
</svg>
