<?xml version="1.0" encoding="UTF-8" standalone="no"?>
<!DOCTYPE svg PUBLIC "-//W3C//DTD SVG 1.1//EN"
 "http://www.w3.org/Graphics/SVG/1.1/DTD/svg11.dtd">
<!-- Generated by graphviz version 2.38.0 (20140413.2041)
 -->
<!-- Title: recipe Pages: 1 -->
<svg width="2907pt" height="1016pt"
 viewBox="0.00 0.00 2906.50 1016.00" xmlns="http://www.w3.org/2000/svg" xmlns:xlink="http://www.w3.org/1999/xlink">
<g id="graph0" class="graph" transform="scale(1 1) rotate(0) translate(4 1012)">
<title>recipe</title>
<polygon fill="white" stroke="none" points="-4,4 -4,-1012 2902.5,-1012 2902.5,4 -4,4"/>
<!-- E0 -->
<g id="node1" class="node"><title>E0</title>
<ellipse fill="azure" stroke="black" cx="2691.5" cy="-502" rx="68.7879" ry="18"/>
<text text-anchor="middle" x="2691.5" y="-498.3" font-family="Times,serif" font-size="14.00">preheat (S0,P0)</text>
</g>
<!-- E1 -->
<g id="node2" class="node"><title>E1</title>
<ellipse fill="azure" stroke="black" cx="2691.5" cy="-398" rx="69.5877" ry="18"/>
<text text-anchor="middle" x="2691.5" y="-394.3" font-family="Times,serif" font-size="14.00">grease (S1,P41)</text>
</g>
<!-- E0&#45;&gt;E1 -->
<g id="edge7" class="edge"><title>E0&#45;&gt;E1</title>
<path fill="none" stroke="black" d="M2691.5,-483.697C2691.5,-467.923 2691.5,-444.364 2691.5,-426.094"/>
<polygon fill="black" stroke="black" points="2695,-426.047 2691.5,-416.047 2688,-426.047 2695,-426.047"/>
<text text-anchor="middle" x="2795" y="-453.8" font-family="Times,serif" font-size="14.00">OUTPUT: </text>
<text text-anchor="middle" x="2795" y="-438.8" font-family="Times,serif" font-size="14.00">INPUT: two twelve&#45;cup muffin tins</text>
</g>
<!-- E8 -->
<g id="node9" class="node"><title>E8</title>
<ellipse fill="azure" stroke="black" cx="2456.5" cy="-295" rx="74.187" ry="18"/>
<text text-anchor="middle" x="2456.5" y="-291.3" font-family="Times,serif" font-size="14.00">spoon (S6,P375)</text>
</g>
<!-- E1&#45;&gt;E8 -->
<g id="edge19" class="edge"><title>E1&#45;&gt;E8</title>
<path fill="none" stroke="black" d="M2657.33,-382.314C2615.97,-364.539 2546.24,-334.567 2500.79,-315.035"/>
<polygon fill="black" stroke="black" points="2502.05,-311.767 2491.48,-311.034 2499.28,-318.198 2502.05,-311.767"/>
<text text-anchor="middle" x="2671" y="-349.8" font-family="Times,serif" font-size="14.00">OUTPUT: </text>
<text text-anchor="middle" x="2671" y="-334.8" font-family="Times,serif" font-size="14.00">INPUT: into muffin tins</text>
</g>
<!-- E2 -->
<g id="node3" class="node"><title>E2</title>
<ellipse fill="azure" stroke="black" cx="595.5" cy="-914" rx="61.1893" ry="18"/>
<text text-anchor="middle" x="595.5" y="-910.3" font-family="Times,serif" font-size="14.00">mix (S2,P85)</text>
</g>
<!-- E3 -->
<g id="node4" class="node"><title>E3</title>
<ellipse fill="azure" stroke="black" cx="852.5" cy="-810" rx="74.187" ry="18"/>
<text text-anchor="middle" x="852.5" y="-806.3" font-family="Times,serif" font-size="14.00">whisk (S3,P176)</text>
</g>
<!-- E2&#45;&gt;E3 -->
<g id="edge9" class="edge"><title>E2&#45;&gt;E3</title>
<path fill="none" stroke="black" d="M618.992,-897.132C641.78,-882.355 677.767,-860.616 711.5,-847 735.283,-837.401 762.375,-829.754 786.413,-824.02"/>
<polygon fill="black" stroke="black" points="787.207,-827.429 796.157,-821.759 785.625,-820.61 787.207,-827.429"/>
<text text-anchor="middle" x="780" y="-865.8" font-family="Times,serif" font-size="14.00">OUTPUT: </text>
<text text-anchor="middle" x="780" y="-850.8" font-family="Times,serif" font-size="14.00">INPUT: in a large bowl</text>
</g>
<!-- E4 -->
<g id="node5" class="node"><title>E4</title>
<ellipse fill="azure" stroke="black" cx="1070.5" cy="-707" rx="73.387" ry="18"/>
<text text-anchor="middle" x="1070.5" y="-703.3" font-family="Times,serif" font-size="14.00">cream (S4,P246)</text>
</g>
<!-- E3&#45;&gt;E4 -->
<g id="edge13" class="edge"><title>E3&#45;&gt;E4</title>
<path fill="none" stroke="black" d="M866.441,-792.048C879.793,-776.93 901.292,-755.338 924.5,-743 946.751,-731.171 973.019,-723.285 997.096,-718.05"/>
<polygon fill="black" stroke="black" points="997.816,-721.476 1006.91,-716.034 996.407,-714.619 997.816,-721.476"/>
<text text-anchor="middle" x="995.5" y="-761.8" font-family="Times,serif" font-size="14.00">OUTPUT: </text>
<text text-anchor="middle" x="995.5" y="-746.8" font-family="Times,serif" font-size="14.00">INPUT: in another bowl</text>
</g>
<!-- E6 -->
<g id="node7" class="node"><title>E6</title>
<ellipse fill="azure" stroke="black" cx="1161.5" cy="-605" rx="82.5854" ry="18"/>
<text text-anchor="middle" x="1161.5" y="-601.3" font-family="Times,serif" font-size="14.00">creamed (S5,P320)</text>
</g>
<!-- E4&#45;&gt;E6 -->
<g id="edge14" class="edge"><title>E4&#45;&gt;E6</title>
<path fill="none" stroke="black" d="M1069.48,-688.746C1069.55,-674.505 1071.84,-654.512 1082.5,-641 1087.84,-634.229 1094.77,-628.734 1102.3,-624.284"/>
<polygon fill="black" stroke="black" points="1104.14,-627.273 1111.37,-619.525 1100.88,-621.076 1104.14,-627.273"/>
<text text-anchor="middle" x="1142.5" y="-659.8" font-family="Times,serif" font-size="14.00">OUTPUT: </text>
<text text-anchor="middle" x="1142.5" y="-644.8" font-family="Times,serif" font-size="14.00">INPUT: egg mixture</text>
</g>
<!-- E5 -->
<g id="node6" class="node"><title>E5</title>
<ellipse fill="azure" stroke="black" cx="2333.5" cy="-398" rx="69.5877" ry="18"/>
<text text-anchor="middle" x="2333.5" y="-394.3" font-family="Times,serif" font-size="14.00">pour (S5,P300)</text>
</g>
<!-- E5&#45;&gt;E8 -->
<g id="edge18" class="edge"><title>E5&#45;&gt;E8</title>
<path fill="none" stroke="black" d="M2341.17,-379.825C2348.45,-365.185 2360.64,-344.437 2376.5,-331 2384.48,-324.242 2393.96,-318.585 2403.56,-313.927"/>
<polygon fill="black" stroke="black" points="2405.09,-317.076 2412.76,-309.763 2402.2,-310.7 2405.09,-317.076"/>
<text text-anchor="middle" x="2424" y="-349.8" font-family="Times,serif" font-size="14.00">OUTPUT: </text>
<text text-anchor="middle" x="2424" y="-334.8" font-family="Times,serif" font-size="14.00">INPUT: mixture</text>
</g>
<!-- E7 -->
<g id="node8" class="node"><title>E7</title>
<ellipse fill="azure" stroke="black" cx="1305.5" cy="-502" rx="63.0888" ry="18"/>
<text text-anchor="middle" x="1305.5" y="-498.3" font-family="Times,serif" font-size="14.00">stir (S5,P353)</text>
</g>
<!-- E6&#45;&gt;E7 -->
<g id="edge16" class="edge"><title>E6&#45;&gt;E7</title>
<path fill="none" stroke="black" d="M1184.96,-587.548C1209.26,-570.5 1247.39,-543.761 1274.24,-524.926"/>
<polygon fill="black" stroke="black" points="1276.35,-527.719 1282.53,-519.111 1272.33,-521.988 1276.35,-527.719"/>
<text text-anchor="middle" x="1283.5" y="-557.8" font-family="Times,serif" font-size="14.00">OUTPUT: </text>
<text text-anchor="middle" x="1283.5" y="-542.8" font-family="Times,serif" font-size="14.00">INPUT: </text>
</g>
<!-- E9 -->
<g id="node10" class="node"><title>E9</title>
<ellipse fill="azure" stroke="black" cx="1666.5" cy="-398" rx="65.7887" ry="18"/>
<text text-anchor="middle" x="1666.5" y="-394.3" font-family="Times,serif" font-size="14.00">mix (S7,P434)</text>
</g>
<!-- E7&#45;&gt;E9 -->
<g id="edge22" class="edge"><title>E7&#45;&gt;E9</title>
<path fill="none" stroke="black" d="M1319.3,-484.343C1333.25,-468.768 1356.29,-446.268 1381.5,-435 1418.12,-418.632 1521.22,-408.621 1592.81,-403.44"/>
<polygon fill="black" stroke="black" points="1593.41,-406.907 1603.14,-402.71 1592.92,-399.924 1593.41,-406.907"/>
<text text-anchor="middle" x="1463.5" y="-453.8" font-family="Times,serif" font-size="14.00">OUTPUT: </text>
<text text-anchor="middle" x="1463.5" y="-438.8" font-family="Times,serif" font-size="14.00">INPUT: 1 cup brown sugar </text>
</g>
<!-- E11 -->
<g id="node12" class="node"><title>E11</title>
<ellipse fill="azure" stroke="black" cx="2277.5" cy="-193" rx="81.4863" ry="18"/>
<text text-anchor="middle" x="2277.5" y="-189.3" font-family="Times,serif" font-size="14.00">sprinkle (S9,P547)</text>
</g>
<!-- E8&#45;&gt;E11 -->
<g id="edge29" class="edge"><title>E8&#45;&gt;E11</title>
<path fill="none" stroke="black" d="M2428.14,-278.155C2397.59,-261.089 2348.84,-233.856 2315.11,-215.013"/>
<polygon fill="black" stroke="black" points="2316.46,-211.758 2306.03,-209.936 2313.05,-217.869 2316.46,-211.758"/>
<text text-anchor="middle" x="2474.5" y="-247.8" font-family="Times,serif" font-size="14.00">OUTPUT: </text>
<text text-anchor="middle" x="2474.5" y="-232.8" font-family="Times,serif" font-size="14.00">INPUT: batter in muffin tins</text>
</g>
<!-- E10 -->
<g id="node11" class="node"><title>E10</title>
<ellipse fill="azure" stroke="black" cx="1906.5" cy="-295" rx="62.2891" ry="18"/>
<text text-anchor="middle" x="1906.5" y="-291.3" font-family="Times,serif" font-size="14.00">cut (S8,P490)</text>
</g>
<!-- E9&#45;&gt;E10 -->
<g id="edge26" class="edge"><title>E9&#45;&gt;E10</title>
<path fill="none" stroke="black" d="M1694.49,-381.626C1721.04,-367.405 1762.28,-346.228 1799.5,-331 1817.13,-323.787 1836.84,-316.994 1854.5,-311.346"/>
<polygon fill="black" stroke="black" points="1855.58,-314.674 1864.07,-308.33 1853.48,-307.997 1855.58,-314.674"/>
<text text-anchor="middle" x="1831.5" y="-349.8" font-family="Times,serif" font-size="14.00">OUTPUT: </text>
<text text-anchor="middle" x="1831.5" y="-334.8" font-family="Times,serif" font-size="14.00">INPUT: </text>
</g>
<!-- E10&#45;&gt;E11 -->
<g id="edge30" class="edge"><title>E10&#45;&gt;E11</title>
<path fill="none" stroke="black" d="M1950.52,-282.136C2017.1,-264.187 2143.58,-230.097 2218.21,-209.98"/>
<polygon fill="black" stroke="black" points="2219.2,-213.34 2227.94,-207.358 2217.38,-206.581 2219.2,-213.34"/>
<text text-anchor="middle" x="2185.5" y="-247.8" font-family="Times,serif" font-size="14.00">OUTPUT: </text>
<text text-anchor="middle" x="2185.5" y="-232.8" font-family="Times,serif" font-size="14.00">INPUT: over</text>
</g>
<!-- E12 -->
<g id="node13" class="node"><title>E12</title>
<ellipse fill="azure" stroke="black" cx="2102.5" cy="-91" rx="73.387" ry="18"/>
<text text-anchor="middle" x="2102.5" y="-87.3" font-family="Times,serif" font-size="14.00">bake (S10,P578)</text>
</g>
<!-- E11&#45;&gt;E12 -->
<g id="edge31" class="edge"><title>E11&#45;&gt;E12</title>
<path fill="none" stroke="black" d="M2249.38,-175.933C2219.36,-158.775 2171.66,-131.522 2138.81,-112.751"/>
<polygon fill="black" stroke="black" points="2140.39,-109.62 2129.97,-107.697 2136.92,-115.697 2140.39,-109.62"/>
<text text-anchor="middle" x="2248.5" y="-145.8" font-family="Times,serif" font-size="14.00">OUTPUT: </text>
<text text-anchor="middle" x="2248.5" y="-130.8" font-family="Times,serif" font-size="14.00">INPUT: </text>
</g>
<!-- EOR -->
<g id="node35" class="node"><title>EOR</title>
<ellipse fill="plum" stroke="black" cx="2102.5" cy="-18" rx="57.3905" ry="18"/>
<text text-anchor="middle" x="2102.5" y="-14.3" font-family="Times,serif" font-size="14.00">Bon appetit!</text>
</g>
<!-- E12&#45;&gt;EOR -->
<g id="edge34" class="edge"><title>E12&#45;&gt;EOR</title>
<path fill="none" stroke="black" d="M2102.5,-72.8129C2102.5,-64.7895 2102.5,-55.0475 2102.5,-46.0691"/>
<polygon fill="black" stroke="black" points="2106,-46.0288 2102.5,-36.0288 2099,-46.0289 2106,-46.0288"/>
</g>
<!-- D5 -->
<g id="node14" class="node"><title>D5</title>
<polygon fill="white" stroke="black" points="2408,-520 2259,-520 2259,-484 2408,-484 2408,-520"/>
<text text-anchor="middle" x="2333.5" y="-498.3" font-family="Times,serif" font-size="14.00">DOBJ: banana mixture</text>
</g>
<!-- D5&#45;&gt;E5 -->
<g id="edge1" class="edge"><title>D5&#45;&gt;E5</title>
<path fill="none" stroke="black" d="M2333.5,-483.697C2333.5,-467.923 2333.5,-444.364 2333.5,-426.094"/>
<polygon fill="black" stroke="black" points="2337,-426.047 2333.5,-416.047 2330,-426.047 2337,-426.047"/>
</g>
<!-- D0 -->
<g id="node15" class="node"><title>D0</title>
<polygon fill="white" stroke="black" points="2861,-623 2522,-623 2522,-587 2861,-587 2861,-623"/>
<text text-anchor="middle" x="2691.5" y="-601.3" font-family="Times,serif" font-size="14.00">DOBJ: the oven to 375 degrees F &#45;LRB&#45; 190 degrees C</text>
</g>
<!-- D0&#45;&gt;E0 -->
<g id="edge2" class="edge"><title>D0&#45;&gt;E0</title>
<path fill="none" stroke="black" d="M2691.5,-586.867C2691.5,-571.414 2691.5,-548.416 2691.5,-530.409"/>
<polygon fill="black" stroke="black" points="2695,-530.217 2691.5,-520.217 2688,-530.217 2695,-530.217"/>
</g>
<!-- D2 -->
<g id="node16" class="node"><title>D2</title>
<polygon fill="peachpuff" stroke="black" points="403,-1008 0,-1008 0,-970 403,-970 403,-1008"/>
<text text-anchor="middle" x="201.5" y="-992.8" font-family="Times,serif" font-size="14.00">DOBJ: brown sugar, spiced rum, cognac, very ripe bananas, honey</text>
<text text-anchor="middle" x="201.5" y="-977.8" font-family="Times,serif" font-size="14.00">(text: bananas , 1/2 cup brown sugar , honey , rum , cognac)</text>
</g>
<!-- D2&#45;&gt;E2 -->
<g id="edge3" class="edge"><title>D2&#45;&gt;E2</title>
<path fill="none" stroke="black" d="M298.893,-969.955C372.826,-956.257 472.16,-937.852 535.016,-926.206"/>
<polygon fill="black" stroke="black" points="535.968,-929.59 545.163,-924.326 534.693,-922.707 535.968,-929.59"/>
</g>
<!-- P2_0 -->
<g id="node17" class="node"><title>P2_0</title>
<polygon fill="white" stroke="black" points="580,-1007 421,-1007 421,-971 580,-971 580,-1007"/>
<text text-anchor="middle" x="500.5" y="-985.3" font-family="Times,serif" font-size="14.00">PREP: in a mixing bowl</text>
</g>
<!-- P2_0&#45;&gt;E2 -->
<g id="edge4" class="edge"><title>P2_0&#45;&gt;E2</title>
<path fill="none" stroke="black" d="M523.014,-970.7C535.918,-960.784 552.262,-948.225 566.163,-937.543"/>
<polygon fill="black" stroke="black" points="568.653,-940.044 574.45,-931.176 564.388,-934.493 568.653,-940.044"/>
</g>
<!-- P2_1 -->
<g id="node18" class="node"><title>P2_1</title>
<polygon fill="white" stroke="black" points="783,-1007 598,-1007 598,-971 783,-971 783,-1007"/>
<text text-anchor="middle" x="690.5" y="-985.3" font-family="Times,serif" font-size="14.00">PREP: with an electric mixer</text>
</g>
<!-- P2_1&#45;&gt;E2 -->
<g id="edge5" class="edge"><title>P2_1&#45;&gt;E2</title>
<path fill="none" stroke="black" d="M667.986,-970.7C655.082,-960.784 638.738,-948.225 624.837,-937.543"/>
<polygon fill="black" stroke="black" points="626.612,-934.493 616.55,-931.176 622.347,-940.044 626.612,-934.493"/>
</g>
<!-- P2_2 -->
<g id="node19" class="node"><title>P2_2</title>
<polygon fill="white" stroke="black" points="933.5,-1007 801.5,-1007 801.5,-971 933.5,-971 933.5,-1007"/>
<text text-anchor="middle" x="867.5" y="-985.3" font-family="Times,serif" font-size="14.00">PREP: until smooth</text>
</g>
<!-- P2_2&#45;&gt;E2 -->
<g id="edge6" class="edge"><title>P2_2&#45;&gt;E2</title>
<path fill="none" stroke="black" d="M804.071,-970.977C756.932,-958.325 693.342,-941.259 648.813,-929.308"/>
<polygon fill="black" stroke="black" points="649.618,-925.9 639.052,-926.689 647.803,-932.661 649.618,-925.9"/>
</g>
<!-- D3_ing -->
<g id="node20" class="node"><title>D3_ing</title>
<polygon fill="peachpuff" stroke="black" points="1030,-933 675,-933 675,-895 1030,-895 1030,-933"/>
<text text-anchor="middle" x="852.5" y="-917.8" font-family="Times,serif" font-size="14.00">DOBJ: baking powder, all&#45;purpose flour, baking soda, salt</text>
<text text-anchor="middle" x="852.5" y="-902.8" font-family="Times,serif" font-size="14.00">(text: &#160;salt, &#160;baking powder , flour , &#160;baking soda )</text>
</g>
<!-- D3_ing&#45;&gt;E3 -->
<g id="edge8" class="edge"><title>D3_ing&#45;&gt;E3</title>
<path fill="none" stroke="black" d="M852.5,-894.764C852.5,-879.031 852.5,-856.083 852.5,-838.183"/>
<polygon fill="black" stroke="black" points="856,-838.06 852.5,-828.06 849,-838.06 856,-838.06"/>
</g>
<!-- O3_0_0 -->
<g id="node21" class="node"><title>O3_0_0</title>
<polygon fill="white" stroke="black" points="1209,-932 1048,-932 1048,-896 1209,-896 1209,-932"/>
<text text-anchor="middle" x="1128.5" y="-910.3" font-family="Times,serif" font-size="14.00">OTHER: together 3 cups</text>
</g>
<!-- O3_0_0&#45;&gt;E3 -->
<g id="edge10" class="edge"><title>O3_0_0&#45;&gt;E3</title>
<path fill="none" stroke="black" d="M1082.3,-895.927C1032.13,-877.386 952.337,-847.896 901.205,-829"/>
<polygon fill="black" stroke="black" points="902.285,-825.667 891.692,-825.484 899.858,-832.233 902.285,-825.667"/>
</g>
<!-- D4_ing -->
<g id="node22" class="node"><title>D4_ing</title>
<polygon fill="peachpuff" stroke="black" points="1196.5,-829 944.5,-829 944.5,-791 1196.5,-791 1196.5,-829"/>
<text text-anchor="middle" x="1070.5" y="-813.8" font-family="Times,serif" font-size="14.00">DOBJ: eggs, white sugar, butter</text>
<text text-anchor="middle" x="1070.5" y="-798.8" font-family="Times,serif" font-size="14.00">(text: &#160;melted butter, &#160;eggs , white sugar )</text>
</g>
<!-- D4_ing&#45;&gt;E4 -->
<g id="edge11" class="edge"><title>D4_ing&#45;&gt;E4</title>
<path fill="none" stroke="black" d="M1070.5,-790.943C1070.5,-775.531 1070.5,-753.127 1070.5,-735.488"/>
<polygon fill="black" stroke="black" points="1074,-735.226 1070.5,-725.226 1067,-735.226 1074,-735.226"/>
</g>
<!-- D4_0 -->
<g id="node23" class="node"><title>D4_0</title>
<polygon fill="white" stroke="black" points="1404,-828 1215,-828 1215,-792 1404,-792 1404,-828"/>
<text text-anchor="middle" x="1309.5" y="-806.3" font-family="Times,serif" font-size="14.00">DOBJ: &#160;2/3 cup brown sugar </text>
</g>
<!-- D4_0&#45;&gt;E4 -->
<g id="edge12" class="edge"><title>D4_0&#45;&gt;E4</title>
<path fill="none" stroke="black" d="M1269.23,-791.981C1226.59,-773.964 1159.47,-745.598 1115.22,-726.898"/>
<polygon fill="black" stroke="black" points="1116.44,-723.614 1105.87,-722.945 1113.71,-730.062 1116.44,-723.614"/>
</g>
<!-- P6_0_0 -->
<g id="node24" class="node"><title>P6_0_0</title>
<polygon fill="white" stroke="black" points="1297,-725 1162,-725 1162,-689 1297,-689 1297,-725"/>
<text text-anchor="middle" x="1229.5" y="-703.3" font-family="Times,serif" font-size="14.00">PREP: into the flour</text>
</g>
<!-- P6_0_0&#45;&gt;E6 -->
<g id="edge15" class="edge"><title>P6_0_0&#45;&gt;E6</title>
<path fill="none" stroke="black" d="M1226.21,-688.727C1222.93,-674.848 1216.86,-655.368 1206.5,-641 1203.39,-636.696 1199.62,-632.659 1195.58,-628.966"/>
<polygon fill="black" stroke="black" points="1197.54,-626.039 1187.62,-622.31 1193.05,-631.409 1197.54,-626.039"/>
</g>
<!-- O7_0_0 -->
<g id="node25" class="node"><title>O7_0_0</title>
<polygon fill="white" stroke="black" points="1445,-623 1262,-623 1262,-587 1445,-587 1445,-623"/>
<text text-anchor="middle" x="1353.5" y="-601.3" font-family="Times,serif" font-size="14.00">OTHER: until just combined</text>
</g>
<!-- O7_0_0&#45;&gt;E7 -->
<g id="edge17" class="edge"><title>O7_0_0&#45;&gt;E7</title>
<path fill="none" stroke="black" d="M1345.36,-586.867C1337.83,-571.028 1326.54,-547.263 1317.89,-529.071"/>
<polygon fill="black" stroke="black" points="1320.98,-527.41 1313.52,-519.88 1314.65,-530.415 1320.98,-527.41"/>
</g>
<!-- O8_0_0 -->
<g id="node26" class="node"><title>O8_0_0</title>
<polygon fill="white" stroke="black" points="2603.5,-416 2421.5,-416 2421.5,-380 2603.5,-380 2603.5,-416"/>
<text text-anchor="middle" x="2512.5" y="-394.3" font-family="Times,serif" font-size="14.00">OTHER: filling cups 3/4 full</text>
</g>
<!-- O8_0_0&#45;&gt;E8 -->
<g id="edge20" class="edge"><title>O8_0_0&#45;&gt;E8</title>
<path fill="none" stroke="black" d="M2503,-379.867C2494.18,-363.955 2480.92,-340.044 2470.82,-321.82"/>
<polygon fill="black" stroke="black" points="2473.77,-319.929 2465.86,-312.88 2467.65,-323.323 2473.77,-319.929"/>
</g>
<!-- D9_ing -->
<g id="node27" class="node"><title>D9_ing</title>
<polygon fill="peachpuff" stroke="black" points="1558.5,-521 1394.5,-521 1394.5,-483 1558.5,-483 1558.5,-521"/>
<text text-anchor="middle" x="1476.5" y="-505.8" font-family="Times,serif" font-size="14.00">DOBJ: ground cinnamon</text>
<text text-anchor="middle" x="1476.5" y="-490.8" font-family="Times,serif" font-size="14.00">(text: &#160;cinnamon)</text>
</g>
<!-- D9_ing&#45;&gt;E9 -->
<g id="edge21" class="edge"><title>D9_ing&#45;&gt;E9</title>
<path fill="none" stroke="black" d="M1510.03,-482.999C1543.38,-465.097 1594.44,-437.687 1629.08,-419.087"/>
<polygon fill="black" stroke="black" points="1630.8,-422.138 1637.95,-414.324 1627.49,-415.971 1630.8,-422.138"/>
</g>
<!-- D9_1 -->
<g id="node28" class="node"><title>D9_1</title>
<polygon fill="white" stroke="black" points="1756,-520 1577,-520 1577,-484 1756,-484 1756,-520"/>
<text text-anchor="middle" x="1666.5" y="-498.3" font-family="Times,serif" font-size="14.00">DOBJ: &#160;3 tablespoons flour </text>
</g>
<!-- D9_1&#45;&gt;E9 -->
<g id="edge23" class="edge"><title>D9_1&#45;&gt;E9</title>
<path fill="none" stroke="black" d="M1666.5,-483.697C1666.5,-467.923 1666.5,-444.364 1666.5,-426.094"/>
<polygon fill="black" stroke="black" points="1670,-426.047 1666.5,-416.047 1663,-426.047 1670,-426.047"/>
</g>
<!-- P9_0_0 -->
<g id="node29" class="node"><title>P9_0_0</title>
<polygon fill="white" stroke="black" points="1922.5,-520 1774.5,-520 1774.5,-484 1922.5,-484 1922.5,-520"/>
<text text-anchor="middle" x="1848.5" y="-498.3" font-family="Times,serif" font-size="14.00">PREP: in a small bowl</text>
</g>
<!-- P9_0_0&#45;&gt;E9 -->
<g id="edge24" class="edge"><title>P9_0_0&#45;&gt;E9</title>
<path fill="none" stroke="black" d="M1818.04,-483.927C1786.4,-466.199 1736.91,-438.459 1703.15,-419.542"/>
<polygon fill="black" stroke="black" points="1704.51,-416.292 1694.08,-414.456 1701.09,-422.398 1704.51,-416.292"/>
</g>
<!-- O9_0_0 -->
<g id="node30" class="node"><title>O9_0_0</title>
<polygon fill="white" stroke="black" points="2060,-520 1941,-520 1941,-484 2060,-484 2060,-520"/>
<text text-anchor="middle" x="2000.5" y="-498.3" font-family="Times,serif" font-size="14.00">OTHER: together</text>
</g>
<!-- O9_0_0&#45;&gt;E9 -->
<g id="edge25" class="edge"><title>O9_0_0&#45;&gt;E9</title>
<path fill="none" stroke="black" d="M1944.6,-483.927C1881.53,-464.668 1779.78,-433.595 1718.41,-414.852"/>
<polygon fill="black" stroke="black" points="1719.13,-411.414 1708.55,-411.841 1717.09,-418.109 1719.13,-411.414"/>
</g>
<!-- P10_0_ing -->
<g id="node31" class="node"><title>P10_0_ing</title>
<polygon fill="peachpuff" stroke="black" points="1935,-417 1750,-417 1750,-379 1935,-379 1935,-417"/>
<text text-anchor="middle" x="1842.5" y="-401.8" font-family="Times,serif" font-size="14.00">PREP: in unsalted butter</text>
<text text-anchor="middle" x="1842.5" y="-386.8" font-family="Times,serif" font-size="14.00">(text: in 3 tablespoons butter)</text>
</g>
<!-- P10_0_ing&#45;&gt;E10 -->
<g id="edge27" class="edge"><title>P10_0_ing&#45;&gt;E10</title>
<path fill="none" stroke="black" d="M1853.94,-378.943C1864.05,-362.998 1878.89,-339.57 1890.23,-321.676"/>
<polygon fill="black" stroke="black" points="1893.4,-323.213 1895.8,-312.893 1887.49,-319.466 1893.4,-323.213"/>
</g>
<!-- O10_0_0 -->
<g id="node32" class="node"><title>O10_0_0</title>
<polygon fill="white" stroke="black" points="2246,-416 1953,-416 1953,-380 2246,-380 2246,-416"/>
<text text-anchor="middle" x="2099.5" y="-394.3" font-family="Times,serif" font-size="14.00">OTHER: until mixture resembles coarse crumbs</text>
</g>
<!-- O10_0_0&#45;&gt;E10 -->
<g id="edge28" class="edge"><title>O10_0_0&#45;&gt;E10</title>
<path fill="none" stroke="black" d="M2066.76,-379.867C2032.9,-362.146 1980.08,-334.503 1944.42,-315.844"/>
<polygon fill="black" stroke="black" points="1945.78,-312.606 1935.3,-311.07 1942.54,-318.808 1945.78,-312.606"/>
</g>
<!-- O12_0_0 -->
<g id="node33" class="node"><title>O12_0_0</title>
<polygon fill="white" stroke="black" points="2008.5,-211 1694.5,-211 1694.5,-175 2008.5,-175 2008.5,-211"/>
<text text-anchor="middle" x="1851.5" y="-189.3" font-family="Times,serif" font-size="14.00">OTHER: muffins in preheated oven for 20 minutes </text>
</g>
<!-- O12_0_0&#45;&gt;E12 -->
<g id="edge32" class="edge"><title>O12_0_0&#45;&gt;E12</title>
<path fill="none" stroke="black" d="M1894.36,-174.923C1939.33,-157.008 2009.78,-128.941 2056.05,-110.507"/>
<polygon fill="black" stroke="black" points="2057.54,-113.679 2065.54,-106.727 2054.95,-107.177 2057.54,-113.679"/>
</g>
<!-- O12_0_1 -->
<g id="node34" class="node"><title>O12_0_1</title>
<polygon fill="white" stroke="black" points="2178,-211 2027,-211 2027,-175 2178,-175 2178,-211"/>
<text text-anchor="middle" x="2102.5" y="-189.3" font-family="Times,serif" font-size="14.00">OTHER: &#160;or until done</text>
</g>
<!-- O12_0_1&#45;&gt;E12 -->
<g id="edge33" class="edge"><title>O12_0_1&#45;&gt;E12</title>
<path fill="none" stroke="black" d="M2102.5,-174.581C2102.5,-159.382 2102.5,-137.067 2102.5,-119.464"/>
<polygon fill="black" stroke="black" points="2106,-119.219 2102.5,-109.219 2099,-119.219 2106,-119.219"/>
</g>
</g>
</svg>
