<?xml version="1.0" encoding="UTF-8" standalone="no"?>
<!DOCTYPE svg PUBLIC "-//W3C//DTD SVG 1.1//EN"
 "http://www.w3.org/Graphics/SVG/1.1/DTD/svg11.dtd">
<!-- Generated by graphviz version 2.38.0 (20140413.2041)
 -->
<!-- Title: recipe Pages: 1 -->
<svg width="2002pt" height="706pt"
 viewBox="0.00 0.00 2001.50 706.00" xmlns="http://www.w3.org/2000/svg" xmlns:xlink="http://www.w3.org/1999/xlink">
<g id="graph0" class="graph" transform="scale(1 1) rotate(0) translate(4 702)">
<title>recipe</title>
<polygon fill="white" stroke="none" points="-4,4 -4,-702 1997.5,-702 1997.5,4 -4,4"/>
<!-- E0 -->
<g id="node1" class="node"><title>E0</title>
<ellipse fill="azure" stroke="black" cx="1826" cy="-397" rx="68.7879" ry="18"/>
<text text-anchor="middle" x="1826" y="-393.3" font-family="Times,serif" font-size="14.00">preheat (S0,P0)</text>
</g>
<!-- E6 -->
<g id="node7" class="node"><title>E6</title>
<ellipse fill="azure" stroke="black" cx="1292" cy="-295" rx="68.7879" ry="18"/>
<text text-anchor="middle" x="1292" y="-291.3" font-family="Times,serif" font-size="14.00">bake (S6,P283)</text>
</g>
<!-- E0&#45;&gt;E6 -->
<g id="edge16" class="edge"><title>E0&#45;&gt;E6</title>
<path fill="none" stroke="black" d="M1775.53,-384.572C1766.7,-382.654 1757.59,-380.728 1749,-379 1610.27,-351.098 1446.99,-322.447 1358.01,-307.186"/>
<polygon fill="black" stroke="black" points="1358.51,-303.72 1348.06,-305.482 1357.32,-310.619 1358.51,-303.72"/>
<text text-anchor="middle" x="1772.5" y="-349.8" font-family="Times,serif" font-size="14.00">OUTPUT: </text>
<text text-anchor="middle" x="1772.5" y="-334.8" font-family="Times,serif" font-size="14.00">INPUT: in the preheated oven until golden</text>
</g>
<!-- E1 -->
<g id="node2" class="node"><title>E1</title>
<ellipse fill="azure" stroke="black" cx="615" cy="-397" rx="69.5877" ry="18"/>
<text text-anchor="middle" x="615" y="-393.3" font-family="Times,serif" font-size="14.00">grease (S1,P40)</text>
</g>
<!-- E2 -->
<g id="node3" class="node"><title>E2</title>
<ellipse fill="azure" stroke="black" cx="803" cy="-295" rx="59.5901" ry="18"/>
<text text-anchor="middle" x="803" y="-291.3" font-family="Times,serif" font-size="14.00">line (S1,P61)</text>
</g>
<!-- E1&#45;&gt;E2 -->
<g id="edge5" class="edge"><title>E1&#45;&gt;E2</title>
<path fill="none" stroke="black" d="M643.519,-380.333C667.776,-367.06 703.573,-347.597 735,-331 744.609,-325.925 755.024,-320.518 764.748,-315.51"/>
<polygon fill="black" stroke="black" points="766.515,-318.537 773.81,-310.854 763.316,-312.31 766.515,-318.537"/>
<text text-anchor="middle" x="767" y="-349.8" font-family="Times,serif" font-size="14.00">OUTPUT: </text>
<text text-anchor="middle" x="767" y="-334.8" font-family="Times,serif" font-size="14.00">INPUT: </text>
</g>
<!-- E7 -->
<g id="node8" class="node"><title>E7</title>
<ellipse fill="azure" stroke="black" cx="1094" cy="-193" rx="79.0865" ry="18"/>
<text text-anchor="middle" x="1094" y="-189.3" font-family="Times,serif" font-size="14.00">remove (S7,P370)</text>
</g>
<!-- E2&#45;&gt;E7 -->
<g id="edge21" class="edge"><title>E2&#45;&gt;E7</title>
<path fill="none" stroke="black" d="M840.745,-281.029C892.207,-263.345 984.586,-231.599 1042.41,-211.728"/>
<polygon fill="black" stroke="black" points="1043.77,-214.964 1052.09,-208.404 1041.49,-208.344 1043.77,-214.964"/>
<text text-anchor="middle" x="1039" y="-247.8" font-family="Times,serif" font-size="14.00">OUTPUT: </text>
<text text-anchor="middle" x="1039" y="-232.8" font-family="Times,serif" font-size="14.00">INPUT: muffins</text>
</g>
<!-- E3 -->
<g id="node4" class="node"><title>E3</title>
<ellipse fill="azure" stroke="black" cx="292" cy="-604" rx="61.1893" ry="18"/>
<text text-anchor="middle" x="292" y="-600.3" font-family="Times,serif" font-size="14.00">mix (S2,P87)</text>
</g>
<!-- E4 -->
<g id="node5" class="node"><title>E4</title>
<ellipse fill="azure" stroke="black" cx="797" cy="-500" rx="65.7887" ry="18"/>
<text text-anchor="middle" x="797" y="-496.3" font-family="Times,serif" font-size="14.00">mix (S3,P141)</text>
</g>
<!-- E3&#45;&gt;E4 -->
<g id="edge7" class="edge"><title>E3&#45;&gt;E4</title>
<path fill="none" stroke="black" d="M336.407,-591.458C344.897,-589.286 353.718,-587.054 362,-585 451.146,-562.896 472.696,-553.758 563,-537 622.515,-525.956 638.206,-528.417 698,-519 709.864,-517.132 722.496,-514.969 734.627,-512.804"/>
<polygon fill="black" stroke="black" points="735.452,-516.212 744.672,-510.992 734.21,-509.323 735.452,-516.212"/>
<text text-anchor="middle" x="595" y="-555.8" font-family="Times,serif" font-size="14.00">OUTPUT: </text>
<text text-anchor="middle" x="595" y="-540.8" font-family="Times,serif" font-size="14.00">INPUT: </text>
</g>
<!-- E5 -->
<g id="node6" class="node"><title>E5</title>
<ellipse fill="azure" stroke="black" cx="987" cy="-397" rx="66.0889" ry="18"/>
<text text-anchor="middle" x="987" y="-393.3" font-family="Times,serif" font-size="14.00">fold (S5,P251)</text>
</g>
<!-- E4&#45;&gt;E5 -->
<g id="edge13" class="edge"><title>E4&#45;&gt;E5</title>
<path fill="none" stroke="black" d="M807.065,-482.076C816.912,-466.978 833.282,-445.399 853,-433 859.733,-428.766 895.301,-419.559 928.1,-411.651"/>
<polygon fill="black" stroke="black" points="929.244,-414.976 938.155,-409.245 927.615,-408.168 929.244,-414.976"/>
<text text-anchor="middle" x="918" y="-451.8" font-family="Times,serif" font-size="14.00">OUTPUT: </text>
<text text-anchor="middle" x="918" y="-436.8" font-family="Times,serif" font-size="14.00">INPUT: into the batter</text>
</g>
<!-- E5&#45;&gt;E6 -->
<g id="edge15" class="edge"><title>E5&#45;&gt;E6</title>
<path fill="none" stroke="black" d="M1013.87,-380.482C1040.33,-365.799 1082.31,-344.113 1121,-331 1153.76,-319.897 1191.3,-311.737 1222.85,-306.103"/>
<polygon fill="black" stroke="black" points="1223.61,-309.523 1232.87,-304.362 1222.42,-302.626 1223.61,-309.523"/>
<text text-anchor="middle" x="1153" y="-349.8" font-family="Times,serif" font-size="14.00">OUTPUT: </text>
<text text-anchor="middle" x="1153" y="-334.8" font-family="Times,serif" font-size="14.00">INPUT: </text>
</g>
<!-- E6&#45;&gt;E7 -->
<g id="edge22" class="edge"><title>E6&#45;&gt;E7</title>
<path fill="none" stroke="black" d="M1261.5,-278.594C1227.3,-261.321 1171.7,-233.244 1134.03,-214.218"/>
<polygon fill="black" stroke="black" points="1135.37,-210.972 1124.86,-209.588 1132.21,-217.22 1135.37,-210.972"/>
<text text-anchor="middle" x="1274.5" y="-247.8" font-family="Times,serif" font-size="14.00">OUTPUT: </text>
<text text-anchor="middle" x="1274.5" y="-232.8" font-family="Times,serif" font-size="14.00">INPUT: from tins</text>
</g>
<!-- E8 -->
<g id="node9" class="node"><title>E8</title>
<ellipse fill="azure" stroke="black" cx="975" cy="-91" rx="67.6881" ry="18"/>
<text text-anchor="middle" x="975" y="-87.3" font-family="Times,serif" font-size="14.00">cool (S7,P395)</text>
</g>
<!-- E7&#45;&gt;E8 -->
<g id="edge23" class="edge"><title>E7&#45;&gt;E8</title>
<path fill="none" stroke="black" d="M1074.35,-175.487C1054.71,-158.985 1024.36,-133.477 1002.37,-114.998"/>
<polygon fill="black" stroke="black" points="1004.59,-112.291 994.68,-108.537 1000.08,-117.65 1004.59,-112.291"/>
<text text-anchor="middle" x="1085" y="-145.8" font-family="Times,serif" font-size="14.00">OUTPUT: </text>
<text text-anchor="middle" x="1085" y="-130.8" font-family="Times,serif" font-size="14.00">INPUT: </text>
</g>
<!-- EOR -->
<g id="node26" class="node"><title>EOR</title>
<ellipse fill="plum" stroke="black" cx="975" cy="-18" rx="57.3905" ry="18"/>
<text text-anchor="middle" x="975" y="-14.3" font-family="Times,serif" font-size="14.00">Bon appetit!</text>
</g>
<!-- E8&#45;&gt;EOR -->
<g id="edge25" class="edge"><title>E8&#45;&gt;EOR</title>
<path fill="none" stroke="black" d="M975,-72.8129C975,-64.7895 975,-55.0475 975,-46.0691"/>
<polygon fill="black" stroke="black" points="978.5,-46.0288 975,-36.0288 971.5,-46.0289 978.5,-46.0288"/>
</g>
<!-- D0 -->
<g id="node10" class="node"><title>D0</title>
<polygon fill="white" stroke="black" points="1993.5,-518 1658.5,-518 1658.5,-482 1993.5,-482 1993.5,-518"/>
<text text-anchor="middle" x="1826" y="-496.3" font-family="Times,serif" font-size="14.00">DOBJ: an oven to 350 degrees F &#45;LRB&#45; 175 degrees C</text>
</g>
<!-- D0&#45;&gt;E0 -->
<g id="edge1" class="edge"><title>D0&#45;&gt;E0</title>
<path fill="none" stroke="black" d="M1826,-481.867C1826,-466.414 1826,-443.416 1826,-425.409"/>
<polygon fill="black" stroke="black" points="1829.5,-425.217 1826,-415.217 1822.5,-425.217 1829.5,-425.217"/>
</g>
<!-- D1 -->
<g id="node11" class="node"><title>D1</title>
<polygon fill="white" stroke="black" points="689,-518 541,-518 541,-482 689,-482 689,-518"/>
<text text-anchor="middle" x="615" y="-496.3" font-family="Times,serif" font-size="14.00">DOBJ: 18 muffin cups</text>
</g>
<!-- D1&#45;&gt;E1 -->
<g id="edge2" class="edge"><title>D1&#45;&gt;E1</title>
<path fill="none" stroke="black" d="M615,-481.867C615,-466.414 615,-443.416 615,-425.409"/>
<polygon fill="black" stroke="black" points="618.5,-425.217 615,-415.217 611.5,-425.217 618.5,-425.217"/>
</g>
<!-- D3 -->
<g id="node12" class="node"><title>D3</title>
<polygon fill="peachpuff" stroke="black" points="338,-698 0,-698 0,-660 338,-660 338,-698"/>
<text text-anchor="middle" x="169" y="-682.8" font-family="Times,serif" font-size="14.00">DOBJ: water, vegetable oil, mashed bananas, egg</text>
<text text-anchor="middle" x="169" y="-667.8" font-family="Times,serif" font-size="14.00">(text: mashed bananas , egg , water , oil in a large bowl)</text>
</g>
<!-- D3&#45;&gt;E3 -->
<g id="edge3" class="edge"><title>D3&#45;&gt;E3</title>
<path fill="none" stroke="black" d="M199.405,-659.955C217.012,-649.505 239.233,-636.317 257.494,-625.479"/>
<polygon fill="black" stroke="black" points="259.29,-628.484 266.103,-620.37 255.717,-622.464 259.29,-628.484"/>
</g>
<!-- O3_0 -->
<g id="node13" class="node"><title>O3_0</title>
<polygon fill="white" stroke="black" points="475.5,-697 356.5,-697 356.5,-661 475.5,-661 475.5,-697"/>
<text text-anchor="middle" x="416" y="-675.3" font-family="Times,serif" font-size="14.00">OTHER: together</text>
</g>
<!-- O3_0&#45;&gt;E3 -->
<g id="edge4" class="edge"><title>O3_0&#45;&gt;E3</title>
<path fill="none" stroke="black" d="M386.928,-660.885C369.007,-650.334 345.915,-636.74 326.994,-625.601"/>
<polygon fill="black" stroke="black" points="328.749,-622.573 318.355,-620.516 325.197,-628.605 328.749,-622.573"/>
</g>
<!-- P2_0_0 -->
<g id="node14" class="node"><title>P2_0_0</title>
<polygon fill="white" stroke="black" points="903,-415 703,-415 703,-379 903,-379 903,-415"/>
<text text-anchor="middle" x="803" y="-393.3" font-family="Times,serif" font-size="14.00">PREP: with paper muffin liners</text>
</g>
<!-- P2_0_0&#45;&gt;E2 -->
<g id="edge6" class="edge"><title>P2_0_0&#45;&gt;E2</title>
<path fill="none" stroke="black" d="M803,-378.581C803,-363.382 803,-341.067 803,-323.464"/>
<polygon fill="black" stroke="black" points="806.5,-323.219 803,-313.219 799.5,-323.219 806.5,-323.219"/>
</g>
<!-- P4_0_ing -->
<g id="node15" class="node"><title>P4_0_ing</title>
<polygon fill="peachpuff" stroke="black" points="684.5,-623 371.5,-623 371.5,-585 684.5,-585 684.5,-623"/>
<text text-anchor="middle" x="528" y="-607.8" font-family="Times,serif" font-size="14.00">PREP: in baking powder, wheat flour, baking soda</text>
<text text-anchor="middle" x="528" y="-592.8" font-family="Times,serif" font-size="14.00">(text: in &#160;baking powder, flour , &#160;baking soda )</text>
</g>
<!-- P4_0_ing&#45;&gt;E4 -->
<g id="edge8" class="edge"><title>P4_0_ing&#45;&gt;E4</title>
<path fill="none" stroke="black" d="M575.473,-584.999C624.822,-566.287 701.564,-537.188 750.536,-518.618"/>
<polygon fill="black" stroke="black" points="751.835,-521.869 759.944,-515.051 749.353,-515.324 751.835,-521.869"/>
</g>
<!-- O4_0_0 -->
<g id="node16" class="node"><title>O4_0_0</title>
<polygon fill="white" stroke="black" points="891,-622 703,-622 703,-586 891,-586 891,-622"/>
<text text-anchor="middle" x="797" y="-600.3" font-family="Times,serif" font-size="14.00">OTHER: until mostly smooth</text>
</g>
<!-- O4_0_0&#45;&gt;E4 -->
<g id="edge9" class="edge"><title>O4_0_0&#45;&gt;E4</title>
<path fill="none" stroke="black" d="M797,-585.697C797,-569.923 797,-546.364 797,-528.094"/>
<polygon fill="black" stroke="black" points="800.5,-528.047 797,-518.047 793.5,-528.047 800.5,-528.047"/>
</g>
<!-- O4_1_0 -->
<g id="node17" class="node"><title>O4_1_0</title>
<polygon fill="white" stroke="black" points="1073,-622 909,-622 909,-586 1073,-586 1073,-622"/>
<text text-anchor="middle" x="991" y="-600.3" font-family="Times,serif" font-size="14.00">OTHER: &#160;but that &#39;s okay</text>
</g>
<!-- O4_1_0&#45;&gt;E4 -->
<g id="edge10" class="edge"><title>O4_1_0&#45;&gt;E4</title>
<path fill="none" stroke="black" d="M958.529,-585.927C924.566,-568.071 871.287,-540.058 835.295,-521.134"/>
<polygon fill="black" stroke="black" points="836.566,-517.848 826.086,-516.292 833.308,-524.044 836.566,-517.848"/>
</g>
<!-- O4_1_1 -->
<g id="node18" class="node"><title>O4_1_1</title>
<polygon fill="white" stroke="black" points="1397,-622 1091,-622 1091,-586 1397,-586 1397,-622"/>
<text text-anchor="middle" x="1244" y="-600.3" font-family="Times,serif" font-size="14.00">OTHER: you will still see lumps from the banana </text>
</g>
<!-- O4_1_1&#45;&gt;E4 -->
<g id="edge11" class="edge"><title>O4_1_1&#45;&gt;E4</title>
<path fill="none" stroke="black" d="M1166.4,-585.93C1090.89,-569.224 972.954,-542.878 871,-519 865.609,-517.737 860.002,-516.406 854.394,-515.063"/>
<polygon fill="black" stroke="black" points="854.885,-511.581 844.343,-512.643 853.246,-518.387 854.885,-511.581"/>
</g>
<!-- D5_ing -->
<g id="node19" class="node"><title>D5_ing</title>
<polygon fill="peachpuff" stroke="black" points="1093.5,-519 880.5,-519 880.5,-481 1093.5,-481 1093.5,-519"/>
<text text-anchor="middle" x="987" y="-503.8" font-family="Times,serif" font-size="14.00">DOBJ: fresh or frozen blueberries</text>
<text text-anchor="middle" x="987" y="-488.8" font-family="Times,serif" font-size="14.00">(text: the blueberries)</text>
</g>
<!-- D5_ing&#45;&gt;E5 -->
<g id="edge12" class="edge"><title>D5_ing&#45;&gt;E5</title>
<path fill="none" stroke="black" d="M987,-480.943C987,-465.531 987,-443.127 987,-425.488"/>
<polygon fill="black" stroke="black" points="990.5,-425.226 987,-415.226 983.5,-425.226 990.5,-425.226"/>
</g>
<!-- O5_0_0 -->
<g id="node20" class="node"><title>O5_0_0</title>
<polygon fill="white" stroke="black" points="1220,-518 1112,-518 1112,-482 1220,-482 1220,-518"/>
<text text-anchor="middle" x="1166" y="-496.3" font-family="Times,serif" font-size="14.00">OTHER: gently</text>
</g>
<!-- O5_0_0&#45;&gt;E5 -->
<g id="edge14" class="edge"><title>O5_0_0&#45;&gt;E5</title>
<path fill="none" stroke="black" d="M1135.64,-481.867C1104.64,-464.376 1056.51,-437.219 1023.46,-418.574"/>
<polygon fill="black" stroke="black" points="1025,-415.422 1014.57,-413.556 1021.56,-421.519 1025,-415.422"/>
</g>
<!-- P6_0_1 -->
<g id="node21" class="node"><title>P6_0_1</title>
<polygon fill="white" stroke="black" points="1194.5,-415 1071.5,-415 1071.5,-379 1194.5,-379 1194.5,-415"/>
<text text-anchor="middle" x="1133" y="-393.3" font-family="Times,serif" font-size="14.00">PREP: in &#160;the tops</text>
</g>
<!-- P6_0_1&#45;&gt;E6 -->
<g id="edge17" class="edge"><title>P6_0_1&#45;&gt;E6</title>
<path fill="none" stroke="black" d="M1160.33,-378.809C1187.45,-361.755 1229.06,-335.582 1258.23,-317.237"/>
<polygon fill="black" stroke="black" points="1260.25,-320.101 1266.86,-311.814 1256.53,-314.175 1260.25,-320.101"/>
</g>
<!-- P6_1_0 -->
<g id="node22" class="node"><title>P6_1_0</title>
<polygon fill="white" stroke="black" points="1371.5,-415 1212.5,-415 1212.5,-379 1371.5,-379 1371.5,-415"/>
<text text-anchor="middle" x="1292" y="-393.3" font-family="Times,serif" font-size="14.00">PREP: about 15 minutes</text>
</g>
<!-- P6_1_0&#45;&gt;E6 -->
<g id="edge18" class="edge"><title>P6_1_0&#45;&gt;E6</title>
<path fill="none" stroke="black" d="M1292,-378.581C1292,-363.382 1292,-341.067 1292,-323.464"/>
<polygon fill="black" stroke="black" points="1295.5,-323.219 1292,-313.219 1288.5,-323.219 1295.5,-323.219"/>
</g>
<!-- O6_0_0 -->
<g id="node23" class="node"><title>O6_0_0</title>
<polygon fill="white" stroke="black" points="1498.5,-415 1389.5,-415 1389.5,-379 1498.5,-379 1498.5,-415"/>
<text text-anchor="middle" x="1444" y="-393.3" font-family="Times,serif" font-size="14.00">OTHER: spring</text>
</g>
<!-- O6_0_0&#45;&gt;E6 -->
<g id="edge19" class="edge"><title>O6_0_0&#45;&gt;E6</title>
<path fill="none" stroke="black" d="M1417.87,-378.809C1392.14,-361.879 1352.74,-335.962 1324.89,-317.638"/>
<polygon fill="black" stroke="black" points="1326.56,-314.549 1316.28,-311.977 1322.72,-320.397 1326.56,-314.549"/>
</g>
<!-- O6_1_0 -->
<g id="node24" class="node"><title>O6_1_0</title>
<polygon fill="white" stroke="black" points="1739.5,-415 1516.5,-415 1516.5,-379 1739.5,-379 1739.5,-415"/>
<text text-anchor="middle" x="1628" y="-393.3" font-family="Times,serif" font-size="14.00">OTHER: back when lightly pressed</text>
</g>
<!-- O6_1_0&#45;&gt;E6 -->
<g id="edge20" class="edge"><title>O6_1_0&#45;&gt;E6</title>
<path fill="none" stroke="black" d="M1570.62,-378.923C1507.59,-360.164 1407.17,-330.275 1345.66,-311.969"/>
<polygon fill="black" stroke="black" points="1346.34,-308.521 1335.76,-309.023 1344.34,-315.231 1346.34,-308.521"/>
</g>
<!-- P8_0_0 -->
<g id="node25" class="node"><title>P8_0_0</title>
<polygon fill="white" stroke="black" points="996.5,-211 853.5,-211 853.5,-175 996.5,-175 996.5,-211"/>
<text text-anchor="middle" x="925" y="-189.3" font-family="Times,serif" font-size="14.00">PREP: on a wire rack</text>
</g>
<!-- P8_0_0&#45;&gt;E8 -->
<g id="edge24" class="edge"><title>P8_0_0&#45;&gt;E8</title>
<path fill="none" stroke="black" d="M933.709,-174.581C941.5,-159 953.028,-135.943 961.925,-118.149"/>
<polygon fill="black" stroke="black" points="965.215,-119.395 966.557,-108.886 958.954,-116.265 965.215,-119.395"/>
</g>
</g>
</svg>
