<?xml version="1.0" encoding="UTF-8" standalone="no"?>
<!DOCTYPE svg PUBLIC "-//W3C//DTD SVG 1.1//EN"
 "http://www.w3.org/Graphics/SVG/1.1/DTD/svg11.dtd">
<!-- Generated by graphviz version 2.38.0 (20140413.2041)
 -->
<!-- Title: recipe Pages: 1 -->
<svg width="3346pt" height="1118pt"
 viewBox="0.00 0.00 3346.00 1118.00" xmlns="http://www.w3.org/2000/svg" xmlns:xlink="http://www.w3.org/1999/xlink">
<g id="graph0" class="graph" transform="scale(1 1) rotate(0) translate(4 1114)">
<title>recipe</title>
<polygon fill="white" stroke="none" points="-4,4 -4,-1114 3342,-1114 3342,4 -4,4"/>
<!-- E0 -->
<g id="node1" class="node"><title>E0</title>
<ellipse fill="azure" stroke="black" cx="3179" cy="-193" rx="68.7879" ry="18"/>
<text text-anchor="middle" x="3179" y="-189.3" font-family="Times,serif" font-size="14.00">preheat (S0,P0)</text>
</g>
<!-- E12 -->
<g id="node13" class="node"><title>E12</title>
<ellipse fill="azure" stroke="black" cx="2681" cy="-91" rx="73.387" ry="18"/>
<text text-anchor="middle" x="2681" y="-87.3" font-family="Times,serif" font-size="14.00">bake (S11,P540)</text>
</g>
<!-- E0&#45;&gt;E12 -->
<g id="edge33" class="edge"><title>E0&#45;&gt;E12</title>
<path fill="none" stroke="black" d="M3128.26,-180.792C3119.19,-178.83 3109.82,-176.833 3101,-175 2976.13,-149.056 2829.96,-120.601 2747.14,-104.658"/>
<polygon fill="black" stroke="black" points="2747.6,-101.181 2737.12,-102.729 2746.28,-108.055 2747.6,-101.181"/>
<text text-anchor="middle" x="3152.5" y="-145.8" font-family="Times,serif" font-size="14.00">OUTPUT: </text>
<text text-anchor="middle" x="3152.5" y="-130.8" font-family="Times,serif" font-size="14.00">INPUT: on the middle rack in the preheated oven</text>
</g>
<!-- E1 -->
<g id="node2" class="node"><title>E1</title>
<ellipse fill="azure" stroke="black" cx="74" cy="-1019" rx="69.5877" ry="18"/>
<text text-anchor="middle" x="74" y="-1015.3" font-family="Times,serif" font-size="14.00">grease (S1,P38)</text>
</g>
<!-- E2 -->
<g id="node3" class="node"><title>E2</title>
<ellipse fill="azure" stroke="black" cx="198" cy="-916" rx="56.59" ry="18"/>
<text text-anchor="middle" x="198" y="-912.3" font-family="Times,serif" font-size="14.00">fill (S1,P58)</text>
</g>
<!-- E1&#45;&gt;E2 -->
<g id="edge8" class="edge"><title>E1&#45;&gt;E2</title>
<path fill="none" stroke="black" d="M91.5131,-1001.39C106.006,-987.902 127.331,-968.617 147,-953 153.069,-948.181 159.726,-943.246 166.169,-938.635"/>
<polygon fill="black" stroke="black" points="168.59,-941.212 174.748,-932.59 164.557,-935.49 168.59,-941.212"/>
<text text-anchor="middle" x="179" y="-971.8" font-family="Times,serif" font-size="14.00">OUTPUT: </text>
<text text-anchor="middle" x="179" y="-956.8" font-family="Times,serif" font-size="14.00">INPUT: </text>
</g>
<!-- E3 -->
<g id="node4" class="node"><title>E3</title>
<ellipse fill="azure" stroke="black" cx="602" cy="-812" rx="61.1893" ry="18"/>
<text text-anchor="middle" x="602" y="-808.3" font-family="Times,serif" font-size="14.00">mix (S2,P78)</text>
</g>
<!-- E2&#45;&gt;E3 -->
<g id="edge11" class="edge"><title>E2&#45;&gt;E3</title>
<path fill="none" stroke="black" d="M238.869,-903.499C246.861,-901.302 255.185,-899.05 263,-897 362.439,-870.917 478.858,-842.538 546.149,-826.345"/>
<polygon fill="black" stroke="black" points="547.21,-829.69 556.115,-823.95 545.574,-822.884 547.21,-829.69"/>
<text text-anchor="middle" x="500.5" y="-867.8" font-family="Times,serif" font-size="14.00">OUTPUT: </text>
<text text-anchor="middle" x="500.5" y="-852.8" font-family="Times,serif" font-size="14.00">INPUT: in a bowl</text>
</g>
<!-- E4 -->
<g id="node5" class="node"><title>E4</title>
<ellipse fill="azure" stroke="black" cx="933" cy="-708" rx="66.0889" ry="18"/>
<text text-anchor="middle" x="933" y="-704.3" font-family="Times,serif" font-size="14.00">beat (S3,P181)</text>
</g>
<!-- E3&#45;&gt;E4 -->
<g id="edge14" class="edge"><title>E3&#45;&gt;E4</title>
<path fill="none" stroke="black" d="M614.933,-794.107C627.835,-778.588 649.131,-756.332 673,-745 705.042,-729.788 794.257,-719.765 859.264,-714.245"/>
<polygon fill="black" stroke="black" points="859.8,-717.712 869.476,-713.397 859.221,-710.736 859.8,-717.712"/>
<text text-anchor="middle" x="750" y="-763.8" font-family="Times,serif" font-size="14.00">OUTPUT: </text>
<text text-anchor="middle" x="750" y="-748.8" font-family="Times,serif" font-size="14.00">INPUT: in a separate bowl</text>
</g>
<!-- E5 -->
<g id="node6" class="node"><title>E5</title>
<ellipse fill="azure" stroke="black" cx="1217" cy="-605" rx="64.9885" ry="18"/>
<text text-anchor="middle" x="1217" y="-601.3" font-family="Times,serif" font-size="14.00">add (S4,P242)</text>
</g>
<!-- E4&#45;&gt;E5 -->
<g id="edge18" class="edge"><title>E4&#45;&gt;E5</title>
<path fill="none" stroke="black" d="M958.367,-691.296C983.38,-676.428 1023.11,-654.437 1060,-641 1089.46,-630.27 1123.27,-622.22 1151.96,-616.563"/>
<polygon fill="black" stroke="black" points="1152.71,-619.982 1161.87,-614.662 1151.39,-613.108 1152.71,-619.982"/>
<text text-anchor="middle" x="1092" y="-659.8" font-family="Times,serif" font-size="14.00">OUTPUT: </text>
<text text-anchor="middle" x="1092" y="-644.8" font-family="Times,serif" font-size="14.00">INPUT: </text>
</g>
<!-- E8 -->
<g id="node9" class="node"><title>E8</title>
<ellipse fill="azure" stroke="black" cx="1917" cy="-502" rx="64.9885" ry="18"/>
<text text-anchor="middle" x="1917" y="-498.3" font-family="Times,serif" font-size="14.00">add (S7,P362)</text>
</g>
<!-- E5&#45;&gt;E8 -->
<g id="edge25" class="edge"><title>E5&#45;&gt;E8</title>
<path fill="none" stroke="black" d="M1272.33,-595.424C1354.62,-582.728 1514.16,-558.352 1650,-539 1717.75,-529.347 1795.28,-518.968 1849.28,-511.847"/>
<polygon fill="black" stroke="black" points="1849.96,-515.287 1859.41,-510.511 1849.04,-508.347 1849.96,-515.287"/>
<text text-anchor="middle" x="1739" y="-557.8" font-family="Times,serif" font-size="14.00">OUTPUT: </text>
<text text-anchor="middle" x="1739" y="-542.8" font-family="Times,serif" font-size="14.00">INPUT: until just incorporated</text>
</g>
<!-- E6 -->
<g id="node7" class="node"><title>E6</title>
<ellipse fill="azure" stroke="black" cx="1838" cy="-605" rx="63.0888" ry="18"/>
<text text-anchor="middle" x="1838" y="-601.3" font-family="Times,serif" font-size="14.00">stir (S5,P290)</text>
</g>
<!-- E6&#45;&gt;E8 -->
<g id="edge22" class="edge"><title>E6&#45;&gt;E8</title>
<path fill="none" stroke="black" d="M1833.57,-586.813C1830.99,-572.802 1829.83,-553.095 1839,-539 1844.49,-530.562 1852.51,-524.071 1861.34,-519.087"/>
<polygon fill="black" stroke="black" points="1862.98,-522.177 1870.38,-514.588 1859.87,-515.911 1862.98,-522.177"/>
<text text-anchor="middle" x="1907" y="-557.8" font-family="Times,serif" font-size="14.00">OUTPUT: </text>
<text text-anchor="middle" x="1907" y="-542.8" font-family="Times,serif" font-size="14.00">INPUT: butter mixture </text>
</g>
<!-- E7 -->
<g id="node8" class="node"><title>E7</title>
<ellipse fill="azure" stroke="black" cx="2049" cy="-605" rx="65.7887" ry="18"/>
<text text-anchor="middle" x="2049" y="-601.3" font-family="Times,serif" font-size="14.00">mix (S6,P322)</text>
</g>
<!-- E7&#45;&gt;E8 -->
<g id="edge23" class="edge"><title>E7&#45;&gt;E8</title>
<path fill="none" stroke="black" d="M2022.9,-588.389C2014.52,-582.791 2005.48,-576.095 1998,-569 1985.81,-557.437 1987.45,-550.28 1975,-539 1968.95,-533.517 1961.95,-528.378 1954.96,-523.794"/>
<polygon fill="black" stroke="black" points="1956.51,-520.634 1946.17,-518.301 1952.8,-526.57 1956.51,-520.634"/>
<text text-anchor="middle" x="2109.5" y="-557.8" font-family="Times,serif" font-size="14.00">OUTPUT: </text>
<text text-anchor="middle" x="2109.5" y="-542.8" font-family="Times,serif" font-size="14.00">INPUT: &#160;alternating with milk mixture</text>
</g>
<!-- E9 -->
<g id="node10" class="node"><title>E9</title>
<ellipse fill="azure" stroke="black" cx="2009" cy="-398" rx="63.0888" ry="18"/>
<text text-anchor="middle" x="2009" y="-394.3" font-family="Times,serif" font-size="14.00">stir (S8,P445)</text>
</g>
<!-- E8&#45;&gt;E9 -->
<g id="edge27" class="edge"><title>E8&#45;&gt;E9</title>
<path fill="none" stroke="black" d="M1916.88,-483.77C1917.65,-469.294 1920.86,-448.814 1932,-435 1938.46,-426.987 1947.12,-420.667 1956.29,-415.714"/>
<polygon fill="black" stroke="black" points="1958.11,-418.721 1965.58,-411.204 1955.05,-412.424 1958.11,-418.721"/>
<text text-anchor="middle" x="1986.5" y="-453.8" font-family="Times,serif" font-size="14.00">OUTPUT: </text>
<text text-anchor="middle" x="1986.5" y="-438.8" font-family="Times,serif" font-size="14.00">INPUT: into batter</text>
</g>
<!-- E10 -->
<g id="node11" class="node"><title>E10</title>
<ellipse fill="azure" stroke="black" cx="2180" cy="-295" rx="66.0889" ry="18"/>
<text text-anchor="middle" x="2180" y="-291.3" font-family="Times,serif" font-size="14.00">fold (S9,P472)</text>
</g>
<!-- E9&#45;&gt;E10 -->
<g id="edge28" class="edge"><title>E9&#45;&gt;E10</title>
<path fill="none" stroke="black" d="M2035.34,-381.44C2064.72,-364.091 2112.36,-335.952 2144.88,-316.742"/>
<polygon fill="black" stroke="black" points="2146.8,-319.677 2153.63,-311.578 2143.24,-313.65 2146.8,-319.677"/>
<text text-anchor="middle" x="2152" y="-349.8" font-family="Times,serif" font-size="14.00">OUTPUT: </text>
<text text-anchor="middle" x="2152" y="-334.8" font-family="Times,serif" font-size="14.00">INPUT: </text>
</g>
<!-- E11 -->
<g id="node12" class="node"><title>E11</title>
<ellipse fill="azure" stroke="black" cx="2338" cy="-193" rx="66.0889" ry="18"/>
<text text-anchor="middle" x="2338" y="-189.3" font-family="Times,serif" font-size="14.00">fill (S10,P507)</text>
</g>
<!-- E10&#45;&gt;E11 -->
<g id="edge30" class="edge"><title>E10&#45;&gt;E11</title>
<path fill="none" stroke="black" d="M2205.04,-278.155C2231.85,-261.185 2274.54,-234.162 2304.3,-215.332"/>
<polygon fill="black" stroke="black" points="2306.5,-218.077 2313.08,-209.771 2302.76,-212.162 2306.5,-218.077"/>
<text text-anchor="middle" x="2315" y="-247.8" font-family="Times,serif" font-size="14.00">OUTPUT: </text>
<text text-anchor="middle" x="2315" y="-232.8" font-family="Times,serif" font-size="14.00">INPUT: </text>
</g>
<!-- E11&#45;&gt;E12 -->
<g id="edge32" class="edge"><title>E11&#45;&gt;E12</title>
<path fill="none" stroke="black" d="M2370.36,-177.114C2403,-162.595 2455.12,-140.745 2502,-127 2536.97,-116.746 2576.68,-108.637 2609.79,-102.818"/>
<polygon fill="black" stroke="black" points="2610.59,-106.233 2619.85,-101.086 2609.4,-99.3347 2610.59,-106.233"/>
<text text-anchor="middle" x="2534" y="-145.8" font-family="Times,serif" font-size="14.00">OUTPUT: </text>
<text text-anchor="middle" x="2534" y="-130.8" font-family="Times,serif" font-size="14.00">INPUT: </text>
</g>
<!-- EOR -->
<g id="node37" class="node"><title>EOR</title>
<ellipse fill="plum" stroke="black" cx="2681" cy="-18" rx="57.3905" ry="18"/>
<text text-anchor="middle" x="2681" y="-14.3" font-family="Times,serif" font-size="14.00">Bon appetit!</text>
</g>
<!-- E12&#45;&gt;EOR -->
<g id="edge36" class="edge"><title>E12&#45;&gt;EOR</title>
<path fill="none" stroke="black" d="M2681,-72.8129C2681,-64.7895 2681,-55.0475 2681,-46.0691"/>
<polygon fill="black" stroke="black" points="2684.5,-46.0288 2681,-36.0288 2677.5,-46.0289 2684.5,-46.0288"/>
</g>
<!-- D6 -->
<g id="node14" class="node"><title>D6</title>
<polygon fill="peachpuff" stroke="black" points="1733,-727 1593,-727 1593,-689 1733,-689 1733,-727"/>
<text text-anchor="middle" x="1663" y="-711.8" font-family="Times,serif" font-size="14.00">DOBJ: vanilla extract</text>
<text text-anchor="middle" x="1663" y="-696.8" font-family="Times,serif" font-size="14.00">(text: vanilla)</text>
</g>
<!-- D6&#45;&gt;E6 -->
<g id="edge1" class="edge"><title>D6&#45;&gt;E6</title>
<path fill="none" stroke="black" d="M1694.29,-688.943C1724.62,-671.436 1770.58,-644.908 1802.32,-626.59"/>
<polygon fill="black" stroke="black" points="1804.37,-629.451 1811.28,-621.421 1800.87,-623.389 1804.37,-629.451"/>
</g>
<!-- P6_0 -->
<g id="node15" class="node"><title>P6_0</title>
<polygon fill="white" stroke="black" points="1940.5,-726 1751.5,-726 1751.5,-690 1940.5,-690 1940.5,-726"/>
<text text-anchor="middle" x="1846" y="-704.3" font-family="Times,serif" font-size="14.00">PREP: into the butter mixture</text>
</g>
<!-- P6_0&#45;&gt;E6 -->
<g id="edge2" class="edge"><title>P6_0&#45;&gt;E6</title>
<path fill="none" stroke="black" d="M1844.64,-689.867C1843.42,-674.414 1841.6,-651.416 1840.17,-633.409"/>
<polygon fill="black" stroke="black" points="1843.64,-632.91 1839.36,-623.217 1836.66,-633.462 1843.64,-632.91"/>
</g>
<!-- D7 -->
<g id="node16" class="node"><title>D7</title>
<polygon fill="peachpuff" stroke="black" points="2123,-727 1959,-727 1959,-689 2123,-689 2123,-727"/>
<text text-anchor="middle" x="2041" y="-711.8" font-family="Times,serif" font-size="14.00">DOBJ: plain yogurt, milk</text>
<text text-anchor="middle" x="2041" y="-696.8" font-family="Times,serif" font-size="14.00">(text: milk, yogurt)</text>
</g>
<!-- D7&#45;&gt;E7 -->
<g id="edge3" class="edge"><title>D7&#45;&gt;E7</title>
<path fill="none" stroke="black" d="M2042.43,-688.943C2043.65,-673.531 2045.43,-651.127 2046.82,-633.488"/>
<polygon fill="black" stroke="black" points="2050.33,-633.471 2047.64,-623.226 2043.36,-632.919 2050.33,-633.471"/>
</g>
<!-- P7_0 -->
<g id="node17" class="node"><title>P7_0</title>
<polygon fill="white" stroke="black" points="2305,-726 2141,-726 2141,-690 2305,-690 2305,-726"/>
<text text-anchor="middle" x="2223" y="-704.3" font-family="Times,serif" font-size="14.00">PREP: in a separate bowl</text>
</g>
<!-- P7_0&#45;&gt;E7 -->
<g id="edge4" class="edge"><title>P7_0&#45;&gt;E7</title>
<path fill="none" stroke="black" d="M2193.48,-689.867C2163.48,-672.45 2116.96,-645.45 2084.86,-626.814"/>
<polygon fill="black" stroke="black" points="2086.21,-623.55 2075.8,-621.556 2082.69,-629.604 2086.21,-623.55"/>
</g>
<!-- O7_0 -->
<g id="node18" class="node"><title>O7_0</title>
<polygon fill="white" stroke="black" points="2442.5,-726 2323.5,-726 2323.5,-690 2442.5,-690 2442.5,-726"/>
<text text-anchor="middle" x="2383" y="-704.3" font-family="Times,serif" font-size="14.00">OTHER: together</text>
</g>
<!-- O7_0&#45;&gt;E7 -->
<g id="edge5" class="edge"><title>O7_0&#45;&gt;E7</title>
<path fill="none" stroke="black" d="M2326.72,-689.981C2263.76,-670.942 2162.59,-640.349 2101.3,-621.815"/>
<polygon fill="black" stroke="black" points="2102.03,-618.38 2091.45,-618.836 2100.01,-625.081 2102.03,-618.38"/>
</g>
<!-- D1 -->
<g id="node19" class="node"><title>D1</title>
<polygon fill="white" stroke="black" points="148,-1110 0,-1110 0,-1074 148,-1074 148,-1110"/>
<text text-anchor="middle" x="74" y="-1088.3" font-family="Times,serif" font-size="14.00">DOBJ: 12 muffin cups</text>
</g>
<!-- D1&#45;&gt;E1 -->
<g id="edge6" class="edge"><title>D1&#45;&gt;E1</title>
<path fill="none" stroke="black" d="M74,-1073.81C74,-1065.79 74,-1056.05 74,-1047.07"/>
<polygon fill="black" stroke="black" points="77.5001,-1047.03 74,-1037.03 70.5001,-1047.03 77.5001,-1047.03"/>
</g>
<!-- D0 -->
<g id="node20" class="node"><title>D0</title>
<polygon fill="white" stroke="black" points="3338,-313 3020,-313 3020,-277 3338,-277 3338,-313"/>
<text text-anchor="middle" x="3179" y="-291.3" font-family="Times,serif" font-size="14.00">DOBJ: oven to 400 degrees F &#45;LRB&#45; 200 degrees C</text>
</g>
<!-- D0&#45;&gt;E0 -->
<g id="edge7" class="edge"><title>D0&#45;&gt;E0</title>
<path fill="none" stroke="black" d="M3179,-276.581C3179,-261.382 3179,-239.067 3179,-221.464"/>
<polygon fill="black" stroke="black" points="3182.5,-221.219 3179,-211.219 3175.5,-221.219 3182.5,-221.219"/>
</g>
<!-- P2_0_0 -->
<g id="node21" class="node"><title>P2_0_0</title>
<polygon fill="white" stroke="black" points="318.5,-1037 161.5,-1037 161.5,-1001 318.5,-1001 318.5,-1037"/>
<text text-anchor="middle" x="240" y="-1015.3" font-family="Times,serif" font-size="14.00">PREP: with paper liners</text>
</g>
<!-- P2_0_0&#45;&gt;E2 -->
<g id="edge9" class="edge"><title>P2_0_0&#45;&gt;E2</title>
<path fill="none" stroke="black" d="M232.875,-1000.87C226.319,-985.101 216.498,-961.482 208.946,-943.323"/>
<polygon fill="black" stroke="black" points="212.091,-941.77 205.02,-933.88 205.628,-944.458 212.091,-941.77"/>
</g>
<!-- D3_ing -->
<g id="node22" class="node"><title>D3_ing</title>
<polygon fill="peachpuff" stroke="black" points="931.5,-935 272.5,-935 272.5,-897 931.5,-897 931.5,-935"/>
<text text-anchor="middle" x="602" y="-919.8" font-family="Times,serif" font-size="14.00">DOBJ: baking powder, almond meal, ground cinnamon, all&#45;purpose flour, whole wheat flour, baking soda, salt</text>
<text text-anchor="middle" x="602" y="-904.8" font-family="Times,serif" font-size="14.00">(text: &#160;cinnamon , &#160;salt, &#160;baking powder , &#160;all&#45;purpose flour , almond meal , &#160;baking soda , &#160;whole wheat flour )</text>
</g>
<!-- D3_ing&#45;&gt;E3 -->
<g id="edge10" class="edge"><title>D3_ing&#45;&gt;E3</title>
<path fill="none" stroke="black" d="M602,-896.764C602,-881.031 602,-858.083 602,-840.183"/>
<polygon fill="black" stroke="black" points="605.5,-840.06 602,-830.06 598.5,-840.06 605.5,-840.06"/>
</g>
<!-- O3_0_0 -->
<g id="node23" class="node"><title>O3_0_0</title>
<polygon fill="white" stroke="black" points="1068.5,-934 949.5,-934 949.5,-898 1068.5,-898 1068.5,-934"/>
<text text-anchor="middle" x="1009" y="-912.3" font-family="Times,serif" font-size="14.00">OTHER: together</text>
</g>
<!-- O3_0_0&#45;&gt;E3 -->
<g id="edge12" class="edge"><title>O3_0_0&#45;&gt;E3</title>
<path fill="none" stroke="black" d="M949.172,-899.347C946.071,-898.55 942.999,-897.764 940,-897 886.758,-883.44 738.781,-846.803 657.399,-826.685"/>
<polygon fill="black" stroke="black" points="657.882,-823.199 647.335,-824.197 656.203,-829.995 657.882,-823.199"/>
</g>
<!-- D4_ing -->
<g id="node24" class="node"><title>D4_ing</title>
<polygon fill="peachpuff" stroke="black" points="852,-831 684,-831 684,-793 852,-793 852,-831"/>
<text text-anchor="middle" x="768" y="-815.8" font-family="Times,serif" font-size="14.00">DOBJ: white sugar, butter</text>
<text text-anchor="middle" x="768" y="-800.8" font-family="Times,serif" font-size="14.00">(text: butter, &#160;sugar)</text>
</g>
<!-- D4_ing&#45;&gt;E4 -->
<g id="edge13" class="edge"><title>D4_ing&#45;&gt;E4</title>
<path fill="none" stroke="black" d="M797.119,-792.999C825.542,-775.429 868.778,-748.701 898.817,-730.131"/>
<polygon fill="black" stroke="black" points="901.02,-732.884 907.685,-724.649 897.339,-726.93 901.02,-732.884"/>
</g>
<!-- P4_1_0 -->
<g id="node25" class="node"><title>P4_1_0</title>
<polygon fill="white" stroke="black" points="995.5,-830 870.5,-830 870.5,-794 995.5,-794 995.5,-830"/>
<text text-anchor="middle" x="933" y="-808.3" font-family="Times,serif" font-size="14.00">PREP: until &#160;fluffy</text>
</g>
<!-- P4_1_0&#45;&gt;E4 -->
<g id="edge15" class="edge"><title>P4_1_0&#45;&gt;E4</title>
<path fill="none" stroke="black" d="M933,-793.697C933,-777.923 933,-754.364 933,-736.094"/>
<polygon fill="black" stroke="black" points="936.5,-736.047 933,-726.047 929.5,-736.047 936.5,-736.047"/>
</g>
<!-- P4_1_1 -->
<g id="node26" class="node"><title>P4_1_1</title>
<polygon fill="white" stroke="black" points="1130,-830 1014,-830 1014,-794 1130,-794 1130,-830"/>
<text text-anchor="middle" x="1072" y="-808.3" font-family="Times,serif" font-size="14.00">PREP: until light</text>
</g>
<!-- P4_1_1&#45;&gt;E4 -->
<g id="edge16" class="edge"><title>P4_1_1&#45;&gt;E4</title>
<path fill="none" stroke="black" d="M1048.73,-793.927C1025.27,-776.705 988.923,-750.037 963.233,-731.186"/>
<polygon fill="black" stroke="black" points="965.097,-728.212 954.964,-725.117 960.955,-733.855 965.097,-728.212"/>
</g>
<!-- O4_0_0 -->
<g id="node27" class="node"><title>O4_0_0</title>
<polygon fill="white" stroke="black" points="1267.5,-830 1148.5,-830 1148.5,-794 1267.5,-794 1267.5,-830"/>
<text text-anchor="middle" x="1208" y="-808.3" font-family="Times,serif" font-size="14.00">OTHER: together</text>
</g>
<!-- O4_0_0&#45;&gt;E4 -->
<g id="edge17" class="edge"><title>O4_0_0&#45;&gt;E4</title>
<path fill="none" stroke="black" d="M1161.97,-793.927C1111.55,-775.227 1031.1,-745.387 980.217,-726.513"/>
<polygon fill="black" stroke="black" points="981.356,-723.203 970.763,-723.007 978.922,-729.766 981.356,-723.203"/>
</g>
<!-- O5_0_ing -->
<g id="node28" class="node"><title>O5_0_ing</title>
<polygon fill="peachpuff" stroke="black" points="1127,-727 1017,-727 1017,-689 1127,-689 1127,-727"/>
<text text-anchor="middle" x="1072" y="-711.8" font-family="Times,serif" font-size="14.00">OTHER: eggs</text>
<text text-anchor="middle" x="1072" y="-696.8" font-family="Times,serif" font-size="14.00">(text: null eggs )</text>
</g>
<!-- O5_0_ing&#45;&gt;E5 -->
<g id="edge19" class="edge"><title>O5_0_ing&#45;&gt;E5</title>
<path fill="none" stroke="black" d="M1097.92,-688.943C1122.51,-671.815 1159.5,-646.051 1185.72,-627.789"/>
<polygon fill="black" stroke="black" points="1187.96,-630.494 1194.16,-621.906 1183.96,-624.75 1187.96,-630.494"/>
</g>
<!-- O5_0_0 -->
<g id="node29" class="node"><title>O5_0_0</title>
<polygon fill="white" stroke="black" points="1289,-726 1145,-726 1145,-690 1289,-690 1289,-726"/>
<text text-anchor="middle" x="1217" y="-704.3" font-family="Times,serif" font-size="14.00">OTHER: &#160;one by one </text>
</g>
<!-- O5_0_0&#45;&gt;E5 -->
<g id="edge20" class="edge"><title>O5_0_0&#45;&gt;E5</title>
<path fill="none" stroke="black" d="M1217,-689.867C1217,-674.414 1217,-651.416 1217,-633.409"/>
<polygon fill="black" stroke="black" points="1220.5,-633.217 1217,-623.217 1213.5,-633.217 1220.5,-633.217"/>
</g>
<!-- O5_0_1 -->
<g id="node30" class="node"><title>O5_0_1</title>
<polygon fill="white" stroke="black" points="1574.5,-726 1307.5,-726 1307.5,-690 1574.5,-690 1574.5,-726"/>
<text text-anchor="middle" x="1441" y="-704.3" font-family="Times,serif" font-size="14.00">OTHER: &#160;beating until each is incorporated</text>
</g>
<!-- O5_0_1&#45;&gt;E5 -->
<g id="edge21" class="edge"><title>O5_0_1&#45;&gt;E5</title>
<path fill="none" stroke="black" d="M1403.25,-689.981C1363.23,-671.935 1300.18,-643.507 1258.71,-624.808"/>
<polygon fill="black" stroke="black" points="1259.99,-621.545 1249.44,-620.625 1257.11,-627.926 1259.99,-621.545"/>
</g>
<!-- P8_0_0 -->
<g id="node31" class="node"><title>P8_0_0</title>
<polygon fill="white" stroke="black" points="2321.5,-623 2148.5,-623 2148.5,-587 2321.5,-587 2321.5,-623"/>
<text text-anchor="middle" x="2235" y="-601.3" font-family="Times,serif" font-size="14.00">PREP: to the flour mixture</text>
</g>
<!-- P8_0_0&#45;&gt;E8 -->
<g id="edge24" class="edge"><title>P8_0_0&#45;&gt;E8</title>
<path fill="none" stroke="black" d="M2236.48,-586.838C2236.73,-571.846 2234.38,-550.7 2221,-539 2201.7,-522.129 2016.31,-525.042 1991,-521 1984.75,-520.001 1978.24,-518.746 1971.8,-517.365"/>
<polygon fill="black" stroke="black" points="1972.29,-513.889 1961.77,-515.11 1970.76,-520.719 1972.29,-513.889"/>
</g>
<!-- D9_ing -->
<g id="node32" class="node"><title>D9_ing</title>
<polygon fill="peachpuff" stroke="black" points="2142,-521 2000,-521 2000,-483 2142,-483 2142,-521"/>
<text text-anchor="middle" x="2071" y="-505.8" font-family="Times,serif" font-size="14.00">DOBJ: ripe banana</text>
<text text-anchor="middle" x="2071" y="-490.8" font-family="Times,serif" font-size="14.00">(text: mashed banana)</text>
</g>
<!-- D9_ing&#45;&gt;E9 -->
<g id="edge26" class="edge"><title>D9_ing&#45;&gt;E9</title>
<path fill="none" stroke="black" d="M2066.1,-482.958C2061.83,-469.124 2054.79,-449.934 2045,-435 2042.16,-430.676 2038.75,-426.448 2035.16,-422.498"/>
<polygon fill="black" stroke="black" points="2037.64,-420.027 2028.16,-415.294 2032.62,-424.905 2037.64,-420.027"/>
</g>
<!-- P10_0_ing -->
<g id="node33" class="node"><title>P10_0_ing</title>
<polygon fill="peachpuff" stroke="black" points="2384,-417 2090,-417 2090,-379 2384,-379 2384,-417"/>
<text text-anchor="middle" x="2237" y="-401.8" font-family="Times,serif" font-size="14.00">PREP: in dark chocolate chips, fresh raspberries</text>
<text text-anchor="middle" x="2237" y="-386.8" font-family="Times,serif" font-size="14.00">(text: in &#160;chocolate chips, raspberries)</text>
</g>
<!-- P10_0_ing&#45;&gt;E10 -->
<g id="edge29" class="edge"><title>P10_0_ing&#45;&gt;E10</title>
<path fill="none" stroke="black" d="M2226.81,-378.943C2217.81,-362.998 2204.59,-339.57 2194.49,-321.676"/>
<polygon fill="black" stroke="black" points="2197.5,-319.881 2189.53,-312.893 2191.4,-323.322 2197.5,-319.881"/>
</g>
<!-- O11_0_0 -->
<g id="node34" class="node"><title>O11_0_0</title>
<polygon fill="white" stroke="black" points="2518,-313 2264,-313 2264,-277 2518,-277 2518,-313"/>
<text text-anchor="middle" x="2391" y="-291.3" font-family="Times,serif" font-size="14.00">OTHER: muffin cups 3/4&#45;full with batter</text>
</g>
<!-- O11_0_0&#45;&gt;E11 -->
<g id="edge31" class="edge"><title>O11_0_0&#45;&gt;E11</title>
<path fill="none" stroke="black" d="M2381.77,-276.581C2373.51,-261 2361.29,-237.943 2351.86,-220.149"/>
<polygon fill="black" stroke="black" points="2354.73,-218.083 2346.95,-210.886 2348.54,-221.361 2354.73,-218.083"/>
</g>
<!-- O12_0_0 -->
<g id="node35" class="node"><title>O12_0_0</title>
<polygon fill="white" stroke="black" points="2595.5,-211 2422.5,-211 2422.5,-175 2595.5,-175 2595.5,-211"/>
<text text-anchor="middle" x="2509" y="-189.3" font-family="Times,serif" font-size="14.00">OTHER: &#160;18 to 25 minutes</text>
</g>
<!-- O12_0_0&#45;&gt;E12 -->
<g id="edge34" class="edge"><title>O12_0_0&#45;&gt;E12</title>
<path fill="none" stroke="black" d="M2538.57,-174.809C2568.03,-157.681 2613.31,-131.356 2644.88,-113"/>
<polygon fill="black" stroke="black" points="2646.91,-115.866 2653.8,-107.814 2643.4,-109.814 2646.91,-115.866"/>
</g>
<!-- O12_0_1 -->
<g id="node36" class="node"><title>O12_0_1</title>
<polygon fill="white" stroke="black" points="3092.5,-211 2613.5,-211 2613.5,-175 3092.5,-175 3092.5,-211"/>
<text text-anchor="middle" x="2853" y="-189.3" font-family="Times,serif" font-size="14.00">OTHER: until a toothpick inserted in the middle of the muffins comes out clean </text>
</g>
<!-- O12_0_1&#45;&gt;E12 -->
<g id="edge35" class="edge"><title>O12_0_1&#45;&gt;E12</title>
<path fill="none" stroke="black" d="M2823.43,-174.809C2793.97,-157.681 2748.69,-131.356 2717.12,-113"/>
<polygon fill="black" stroke="black" points="2718.6,-109.814 2708.2,-107.814 2715.09,-115.866 2718.6,-109.814"/>
</g>
</g>
</svg>
