<?xml version="1.0" encoding="UTF-8" standalone="no"?>
<!DOCTYPE svg PUBLIC "-//W3C//DTD SVG 1.1//EN"
 "http://www.w3.org/Graphics/SVG/1.1/DTD/svg11.dtd">
<!-- Generated by graphviz version 2.38.0 (20140413.2041)
 -->
<!-- Title: recipe Pages: 1 -->
<svg width="2150pt" height="710pt"
 viewBox="0.00 0.00 2150.00 710.00" xmlns="http://www.w3.org/2000/svg" xmlns:xlink="http://www.w3.org/1999/xlink">
<g id="graph0" class="graph" transform="scale(1 1) rotate(0) translate(4 706)">
<title>recipe</title>
<polygon fill="white" stroke="none" points="-4,4 -4,-706 2146,-706 2146,4 -4,4"/>
<!-- E0 -->
<g id="node1" class="node"><title>E0</title>
<ellipse fill="azure" stroke="black" cx="1973" cy="-193" rx="68.7879" ry="18"/>
<text text-anchor="middle" x="1973" y="-189.3" font-family="Times,serif" font-size="14.00">preheat (S0,P0)</text>
</g>
<!-- E9 -->
<g id="node10" class="node"><title>E9</title>
<ellipse fill="azure" stroke="black" cx="1480" cy="-91" rx="68.7879" ry="18"/>
<text text-anchor="middle" x="1480" y="-87.3" font-family="Times,serif" font-size="14.00">bake (S9,P345)</text>
</g>
<!-- E0&#45;&gt;E9 -->
<g id="edge22" class="edge"><title>E0&#45;&gt;E9</title>
<path fill="none" stroke="black" d="M1965.51,-174.855C1957.77,-159.433 1944.14,-137.618 1925,-127 1893.81,-109.691 1677.27,-99.1743 1558.14,-94.6339"/>
<polygon fill="black" stroke="black" points="1558.11,-91.1301 1547.98,-94.2521 1557.85,-98.1252 1558.11,-91.1301"/>
<text text-anchor="middle" x="2043.5" y="-145.8" font-family="Times,serif" font-size="14.00">OUTPUT: </text>
<text text-anchor="middle" x="2043.5" y="-130.8" font-family="Times,serif" font-size="14.00">INPUT: in the preheated oven </text>
</g>
<!-- E1 -->
<g id="node2" class="node"><title>E1</title>
<ellipse fill="azure" stroke="black" cx="1243" cy="-296" rx="69.5877" ry="18"/>
<text text-anchor="middle" x="1243" y="-292.3" font-family="Times,serif" font-size="14.00">grease (S1,P45)</text>
</g>
<!-- E8 -->
<g id="node9" class="node"><title>E8</title>
<ellipse fill="azure" stroke="black" cx="1480" cy="-193" rx="79.0865" ry="18"/>
<text text-anchor="middle" x="1480" y="-189.3" font-family="Times,serif" font-size="14.00">transfer (S8,P280)</text>
</g>
<!-- E1&#45;&gt;E8 -->
<g id="edge19" class="edge"><title>E1&#45;&gt;E8</title>
<path fill="none" stroke="black" d="M1244.19,-277.936C1246.21,-262.742 1251.6,-241.099 1266,-229 1285.35,-212.738 1343.3,-203.906 1394.01,-199.184"/>
<polygon fill="black" stroke="black" points="1394.39,-202.664 1404.05,-198.293 1393.77,-195.691 1394.39,-202.664"/>
<text text-anchor="middle" x="1371" y="-247.8" font-family="Times,serif" font-size="14.00">OUTPUT: </text>
<text text-anchor="middle" x="1371" y="-232.8" font-family="Times,serif" font-size="14.00">INPUT: to the prepared muffin cups</text>
</g>
<!-- E2 -->
<g id="node3" class="node"><title>E2</title>
<ellipse fill="azure" stroke="black" cx="293" cy="-608" rx="68.7879" ry="18"/>
<text text-anchor="middle" x="293" y="-604.3" font-family="Times,serif" font-size="14.00">cream (S2,P72)</text>
</g>
<!-- E3 -->
<g id="node4" class="node"><title>E3</title>
<ellipse fill="azure" stroke="black" cx="445" cy="-504" rx="65.7887" ry="18"/>
<text text-anchor="middle" x="445" y="-500.3" font-family="Times,serif" font-size="14.00">mix (S3,P112)</text>
</g>
<!-- E2&#45;&gt;E3 -->
<g id="edge9" class="edge"><title>E2&#45;&gt;E3</title>
<path fill="none" stroke="black" d="M316.75,-591.062C342.629,-573.697 384.173,-545.818 412.933,-526.519"/>
<polygon fill="black" stroke="black" points="415.063,-529.304 421.417,-520.826 411.163,-523.492 415.063,-529.304"/>
<text text-anchor="middle" x="420" y="-559.8" font-family="Times,serif" font-size="14.00">OUTPUT: </text>
<text text-anchor="middle" x="420" y="-544.8" font-family="Times,serif" font-size="14.00">INPUT: </text>
</g>
<!-- E4 -->
<g id="node5" class="node"><title>E4</title>
<ellipse fill="azure" stroke="black" cx="547" cy="-400" rx="63.0888" ry="18"/>
<text text-anchor="middle" x="547" y="-396.3" font-family="Times,serif" font-size="14.00">stir (S4,P136)</text>
</g>
<!-- E3&#45;&gt;E4 -->
<g id="edge11" class="edge"><title>E3&#45;&gt;E4</title>
<path fill="none" stroke="black" d="M455.61,-486.097C464.94,-472.013 479.43,-451.918 495,-437 500.396,-431.83 506.599,-426.864 512.798,-422.36"/>
<polygon fill="black" stroke="black" points="514.966,-425.114 521.172,-416.527 510.966,-419.37 514.966,-425.114"/>
<text text-anchor="middle" x="527" y="-455.8" font-family="Times,serif" font-size="14.00">OUTPUT: </text>
<text text-anchor="middle" x="527" y="-440.8" font-family="Times,serif" font-size="14.00">INPUT: </text>
</g>
<!-- E6 -->
<g id="node7" class="node"><title>E6</title>
<ellipse fill="azure" stroke="black" cx="756" cy="-296" rx="65.7887" ry="18"/>
<text text-anchor="middle" x="756" y="-292.3" font-family="Times,serif" font-size="14.00">mix (S6,P205)</text>
</g>
<!-- E4&#45;&gt;E6 -->
<g id="edge13" class="edge"><title>E4&#45;&gt;E6</title>
<path fill="none" stroke="black" d="M555.205,-381.919C563.406,-366.713 577.458,-345.062 596,-333 621.619,-316.334 653.885,-307.315 682.719,-302.46"/>
<polygon fill="black" stroke="black" points="683.41,-305.895 692.759,-300.911 682.342,-298.977 683.41,-305.895"/>
<text text-anchor="middle" x="665" y="-351.8" font-family="Times,serif" font-size="14.00">OUTPUT: </text>
<text text-anchor="middle" x="665" y="-336.8" font-family="Times,serif" font-size="14.00">INPUT: dry ingredients</text>
</g>
<!-- E5 -->
<g id="node6" class="node"><title>E5</title>
<ellipse fill="azure" stroke="black" cx="1480" cy="-296" rx="65.7887" ry="18"/>
<text text-anchor="middle" x="1480" y="-292.3" font-family="Times,serif" font-size="14.00">mix (S5,P166)</text>
</g>
<!-- E5&#45;&gt;E8 -->
<g id="edge18" class="edge"><title>E5&#45;&gt;E8</title>
<path fill="none" stroke="black" d="M1480,-277.867C1480,-262.414 1480,-239.416 1480,-221.409"/>
<polygon fill="black" stroke="black" points="1483.5,-221.217 1480,-211.217 1476.5,-221.217 1483.5,-221.217"/>
<text text-anchor="middle" x="1521" y="-247.8" font-family="Times,serif" font-size="14.00">OUTPUT: </text>
<text text-anchor="middle" x="1521" y="-232.8" font-family="Times,serif" font-size="14.00">INPUT: batter</text>
</g>
<!-- E7 -->
<g id="node8" class="node"><title>E7</title>
<ellipse fill="azure" stroke="black" cx="1012" cy="-193" rx="66.0889" ry="18"/>
<text text-anchor="middle" x="1012" y="-189.3" font-family="Times,serif" font-size="14.00">fold (S7,P259)</text>
</g>
<!-- E6&#45;&gt;E7 -->
<g id="edge16" class="edge"><title>E6&#45;&gt;E7</title>
<path fill="none" stroke="black" d="M791.865,-280.85C837.534,-262.832 916.489,-231.682 966.39,-211.994"/>
<polygon fill="black" stroke="black" points="967.947,-215.143 975.965,-208.217 965.378,-208.631 967.947,-215.143"/>
<text text-anchor="middle" x="954" y="-247.8" font-family="Times,serif" font-size="14.00">OUTPUT: </text>
<text text-anchor="middle" x="954" y="-232.8" font-family="Times,serif" font-size="14.00">INPUT: </text>
</g>
<!-- E7&#45;&gt;E9 -->
<g id="edge21" class="edge"><title>E7&#45;&gt;E9</title>
<path fill="none" stroke="black" d="M1062.53,-181.203C1148.96,-162.735 1324.88,-125.145 1418.38,-105.168"/>
<polygon fill="black" stroke="black" points="1419.21,-108.568 1428.26,-103.056 1417.75,-101.723 1419.21,-108.568"/>
<text text-anchor="middle" x="1373" y="-145.8" font-family="Times,serif" font-size="14.00">OUTPUT: </text>
<text text-anchor="middle" x="1373" y="-130.8" font-family="Times,serif" font-size="14.00">INPUT: 25 minutes</text>
</g>
<!-- E8&#45;&gt;E9 -->
<g id="edge23" class="edge"><title>E8&#45;&gt;E9</title>
<path fill="none" stroke="black" d="M1480,-174.581C1480,-159.382 1480,-137.067 1480,-119.464"/>
<polygon fill="black" stroke="black" points="1483.5,-119.219 1480,-109.219 1476.5,-119.219 1483.5,-119.219"/>
<text text-anchor="middle" x="1700.5" y="-145.8" font-family="Times,serif" font-size="14.00">OUTPUT: </text>
<text text-anchor="middle" x="1700.5" y="-130.8" font-family="Times,serif" font-size="14.00">INPUT: in &#160;or until a knife inserted in the center of a muffin comes out clean</text>
</g>
<!-- EOR -->
<g id="node25" class="node"><title>EOR</title>
<ellipse fill="plum" stroke="black" cx="1480" cy="-18" rx="57.3905" ry="18"/>
<text text-anchor="middle" x="1480" y="-14.3" font-family="Times,serif" font-size="14.00">Bon appetit!</text>
</g>
<!-- E9&#45;&gt;EOR -->
<g id="edge24" class="edge"><title>E9&#45;&gt;EOR</title>
<path fill="none" stroke="black" d="M1480,-72.8129C1480,-64.7895 1480,-55.0475 1480,-46.0691"/>
<polygon fill="black" stroke="black" points="1483.5,-46.0288 1480,-36.0288 1476.5,-46.0289 1483.5,-46.0288"/>
</g>
<!-- D2 -->
<g id="node11" class="node"><title>D2</title>
<polygon fill="peachpuff" stroke="black" points="218,-702 0,-702 0,-664 218,-664 218,-702"/>
<text text-anchor="middle" x="109" y="-686.8" font-family="Times,serif" font-size="14.00">DOBJ: vanilla extract, butter, sugar</text>
<text text-anchor="middle" x="109" y="-671.8" font-family="Times,serif" font-size="14.00">(text: the butter , sugar , vanilla)</text>
</g>
<!-- D2&#45;&gt;E2 -->
<g id="edge1" class="edge"><title>D2&#45;&gt;E2</title>
<path fill="none" stroke="black" d="M154.483,-663.955C182.662,-652.776 218.741,-638.462 247.012,-627.245"/>
<polygon fill="black" stroke="black" points="248.657,-630.358 256.661,-623.417 246.075,-623.852 248.657,-630.358"/>
</g>
<!-- P2_0 -->
<g id="node12" class="node"><title>P2_0</title>
<polygon fill="white" stroke="black" points="350,-701 236,-701 236,-665 350,-665 350,-701"/>
<text text-anchor="middle" x="293" y="-679.3" font-family="Times,serif" font-size="14.00">PREP: in a bowl</text>
</g>
<!-- P2_0&#45;&gt;E2 -->
<g id="edge2" class="edge"><title>P2_0&#45;&gt;E2</title>
<path fill="none" stroke="black" d="M293,-664.7C293,-656.245 293,-645.869 293,-636.373"/>
<polygon fill="black" stroke="black" points="296.5,-636.176 293,-626.176 289.5,-636.176 296.5,-636.176"/>
</g>
<!-- O2_0 -->
<g id="node13" class="node"><title>O2_0</title>
<polygon fill="white" stroke="black" points="487.5,-701 368.5,-701 368.5,-665 487.5,-665 487.5,-701"/>
<text text-anchor="middle" x="428" y="-679.3" font-family="Times,serif" font-size="14.00">OTHER: together</text>
</g>
<!-- O2_0&#45;&gt;E2 -->
<g id="edge3" class="edge"><title>O2_0&#45;&gt;E2</title>
<path fill="none" stroke="black" d="M396.348,-664.885C376.661,-654.239 351.242,-640.494 330.54,-629.299"/>
<polygon fill="black" stroke="black" points="332.154,-626.193 321.693,-624.516 328.825,-632.351 332.154,-626.193"/>
</g>
<!-- D5 -->
<g id="node14" class="node"><title>D5</title>
<polygon fill="peachpuff" stroke="black" points="1645.5,-419 1316.5,-419 1316.5,-381 1645.5,-381 1645.5,-419"/>
<text text-anchor="middle" x="1481" y="-403.8" font-family="Times,serif" font-size="14.00">DOBJ: baking powder, all&#45;purpose flour, baking soda</text>
<text text-anchor="middle" x="1481" y="-388.8" font-family="Times,serif" font-size="14.00">(text: the flour , baking powder , baking soda)</text>
</g>
<!-- D5&#45;&gt;E5 -->
<g id="edge4" class="edge"><title>D5&#45;&gt;E5</title>
<path fill="none" stroke="black" d="M1480.82,-380.764C1480.67,-365.031 1480.44,-342.083 1480.27,-324.183"/>
<polygon fill="black" stroke="black" points="1483.77,-324.025 1480.17,-314.06 1476.77,-324.094 1483.77,-324.025"/>
</g>
<!-- P5_0 -->
<g id="node15" class="node"><title>P5_0</title>
<polygon fill="white" stroke="black" points="1828,-418 1664,-418 1664,-382 1828,-382 1828,-418"/>
<text text-anchor="middle" x="1746" y="-396.3" font-family="Times,serif" font-size="14.00">PREP: in a separate bowl</text>
</g>
<!-- P5_0&#45;&gt;E5 -->
<g id="edge5" class="edge"><title>P5_0&#45;&gt;E5</title>
<path fill="none" stroke="black" d="M1701.48,-381.927C1652.81,-363.265 1575.22,-333.511 1525.98,-314.631"/>
<polygon fill="black" stroke="black" points="1527.12,-311.319 1516.53,-311.007 1524.61,-317.855 1527.12,-311.319"/>
</g>
<!-- D1 -->
<g id="node16" class="node"><title>D1</title>
<polygon fill="white" stroke="black" points="1170,-418 1022,-418 1022,-382 1170,-382 1170,-418"/>
<text text-anchor="middle" x="1096" y="-396.3" font-family="Times,serif" font-size="14.00">DOBJ: 24 muffin cups</text>
</g>
<!-- D1&#45;&gt;E1 -->
<g id="edge6" class="edge"><title>D1&#45;&gt;E1</title>
<path fill="none" stroke="black" d="M1120.6,-381.927C1145.53,-364.631 1184.19,-337.805 1211.38,-318.94"/>
<polygon fill="black" stroke="black" points="1213.55,-321.694 1219.77,-313.117 1209.56,-315.943 1213.55,-321.694"/>
</g>
<!-- O1_0 -->
<g id="node17" class="node"><title>O1_0</title>
<polygon fill="white" stroke="black" points="1298,-418 1188,-418 1188,-382 1298,-382 1298,-418"/>
<text text-anchor="middle" x="1243" y="-396.3" font-family="Times,serif" font-size="14.00">OTHER: lightly</text>
</g>
<!-- O1_0&#45;&gt;E1 -->
<g id="edge7" class="edge"><title>O1_0&#45;&gt;E1</title>
<path fill="none" stroke="black" d="M1243,-381.697C1243,-365.923 1243,-342.364 1243,-324.094"/>
<polygon fill="black" stroke="black" points="1246.5,-324.047 1243,-314.047 1239.5,-324.047 1246.5,-324.047"/>
</g>
<!-- D0 -->
<g id="node18" class="node"><title>D0</title>
<polygon fill="white" stroke="black" points="2142,-314 1824,-314 1824,-278 2142,-278 2142,-314"/>
<text text-anchor="middle" x="1983" y="-292.3" font-family="Times,serif" font-size="14.00">DOBJ: oven to 350 degrees F &#45;LRB&#45; 175 degrees C</text>
</g>
<!-- D0&#45;&gt;E0 -->
<g id="edge8" class="edge"><title>D0&#45;&gt;E0</title>
<path fill="none" stroke="black" d="M1981.3,-277.867C1979.77,-262.414 1977.5,-239.416 1975.71,-221.409"/>
<polygon fill="black" stroke="black" points="1979.17,-220.824 1974.7,-211.217 1972.21,-221.514 1979.17,-220.824"/>
</g>
<!-- P3_0_ing -->
<g id="node19" class="node"><title>P3_0_ing</title>
<polygon fill="peachpuff" stroke="black" points="612.5,-627 379.5,-627 379.5,-589 612.5,-589 612.5,-627"/>
<text text-anchor="middle" x="496" y="-611.8" font-family="Times,serif" font-size="14.00">PREP: in sour cream, mashed banana</text>
<text text-anchor="middle" x="496" y="-596.8" font-family="Times,serif" font-size="14.00">(text: in banana, &#160;sour cream)</text>
</g>
<!-- P3_0_ing&#45;&gt;E3 -->
<g id="edge10" class="edge"><title>P3_0_ing&#45;&gt;E3</title>
<path fill="none" stroke="black" d="M486.882,-588.764C478.905,-572.809 467.217,-549.435 458.215,-531.429"/>
<polygon fill="black" stroke="black" points="461.133,-529.439 453.53,-522.06 454.872,-532.569 461.133,-529.439"/>
</g>
<!-- P4_0_ing -->
<g id="node20" class="node"><title>P4_0_ing</title>
<polygon fill="peachpuff" stroke="black" points="645,-523 529,-523 529,-485 645,-485 645,-523"/>
<text text-anchor="middle" x="587" y="-507.8" font-family="Times,serif" font-size="14.00">PREP: in eggs</text>
<text text-anchor="middle" x="587" y="-492.8" font-family="Times,serif" font-size="14.00">(text: in the eggs)</text>
</g>
<!-- P4_0_ing&#45;&gt;E4 -->
<g id="edge12" class="edge"><title>P4_0_ing&#45;&gt;E4</title>
<path fill="none" stroke="black" d="M579.849,-484.764C573.592,-468.809 564.425,-445.435 557.364,-427.429"/>
<polygon fill="black" stroke="black" points="560.6,-426.092 553.69,-418.06 554.083,-428.648 560.6,-426.092"/>
</g>
<!-- P6_0_0 -->
<g id="node21" class="node"><title>P6_0_0</title>
<polygon fill="white" stroke="black" points="824,-418 628,-418 628,-382 824,-382 824,-418"/>
<text text-anchor="middle" x="726" y="-396.3" font-family="Times,serif" font-size="14.00">PREP: into the banana mixture</text>
</g>
<!-- P6_0_0&#45;&gt;E6 -->
<g id="edge14" class="edge"><title>P6_0_0&#45;&gt;E6</title>
<path fill="none" stroke="black" d="M731.089,-381.697C735.75,-365.849 742.723,-342.143 748.106,-323.838"/>
<polygon fill="black" stroke="black" points="751.522,-324.629 750.986,-314.047 744.807,-322.653 751.522,-324.629"/>
</g>
<!-- P6_1_0 -->
<g id="node22" class="node"><title>P6_1_0</title>
<polygon fill="white" stroke="black" points="1004,-418 842,-418 842,-382 1004,-382 1004,-418"/>
<text text-anchor="middle" x="923" y="-396.3" font-family="Times,serif" font-size="14.00">PREP: until evenly moist</text>
</g>
<!-- P6_1_0&#45;&gt;E6 -->
<g id="edge15" class="edge"><title>P6_1_0&#45;&gt;E6</title>
<path fill="none" stroke="black" d="M895.048,-381.927C866.23,-364.326 821.256,-336.857 790.302,-317.951"/>
<polygon fill="black" stroke="black" points="791.933,-314.846 781.575,-312.62 788.284,-320.82 791.933,-314.846"/>
</g>
<!-- P7_0_ing -->
<g id="node23" class="node"><title>P7_0_ing</title>
<polygon fill="peachpuff" stroke="black" points="1124,-315 900,-315 900,-277 1124,-277 1124,-315"/>
<text text-anchor="middle" x="1012" y="-299.8" font-family="Times,serif" font-size="14.00">PREP: in semisweet chocolate chips</text>
<text text-anchor="middle" x="1012" y="-284.8" font-family="Times,serif" font-size="14.00">(text: in chocolate chips)</text>
</g>
<!-- P7_0_ing&#45;&gt;E7 -->
<g id="edge17" class="edge"><title>P7_0_ing&#45;&gt;E7</title>
<path fill="none" stroke="black" d="M1012,-276.943C1012,-261.531 1012,-239.127 1012,-221.488"/>
<polygon fill="black" stroke="black" points="1015.5,-221.226 1012,-211.226 1008.5,-221.226 1015.5,-221.226"/>
</g>
<!-- O8_0_0 -->
<g id="node24" class="node"><title>O8_0_0</title>
<polygon fill="white" stroke="black" points="1806,-314 1564,-314 1564,-278 1806,-278 1806,-314"/>
<text text-anchor="middle" x="1685" y="-292.3" font-family="Times,serif" font-size="14.00">OTHER: filling each cup about 3/4 full</text>
</g>
<!-- O8_0_0&#45;&gt;E8 -->
<g id="edge20" class="edge"><title>O8_0_0&#45;&gt;E8</title>
<path fill="none" stroke="black" d="M1656.17,-277.732C1632.38,-263.797 1597.54,-244.096 1566,-229 1553.95,-223.232 1540.69,-217.531 1528.26,-212.457"/>
<polygon fill="black" stroke="black" points="1529.54,-209.199 1518.96,-208.709 1526.93,-215.692 1529.54,-209.199"/>
</g>
</g>
</svg>
