<?xml version="1.0" encoding="UTF-8" standalone="no"?>
<!DOCTYPE svg PUBLIC "-//W3C//DTD SVG 1.1//EN"
 "http://www.w3.org/Graphics/SVG/1.1/DTD/svg11.dtd">
<!-- Generated by graphviz version 2.38.0 (20140413.2041)
 -->
<!-- Title: recipe Pages: 1 -->
<svg width="1681pt" height="808pt"
 viewBox="0.00 0.00 1680.50 808.00" xmlns="http://www.w3.org/2000/svg" xmlns:xlink="http://www.w3.org/1999/xlink">
<g id="graph0" class="graph" transform="scale(1 1) rotate(0) translate(4 804)">
<title>recipe</title>
<polygon fill="white" stroke="none" points="-4,4 -4,-804 1676.5,-804 1676.5,4 -4,4"/>
<!-- E0 -->
<g id="node1" class="node"><title>E0</title>
<ellipse fill="azure" stroke="black" cx="1492.5" cy="-295" rx="68.7879" ry="18"/>
<text text-anchor="middle" x="1492.5" y="-291.3" font-family="Times,serif" font-size="14.00">preheat (S0,P0)</text>
</g>
<!-- E8 -->
<g id="node9" class="node"><title>E8</title>
<ellipse fill="azure" stroke="black" cx="1319.5" cy="-193" rx="68.7879" ry="18"/>
<text text-anchor="middle" x="1319.5" y="-189.3" font-family="Times,serif" font-size="14.00">bake (S8,P392)</text>
</g>
<!-- E0&#45;&gt;E8 -->
<g id="edge20" class="edge"><title>E0&#45;&gt;E8</title>
<path fill="none" stroke="black" d="M1465.47,-278.375C1435.85,-261.253 1388.19,-233.708 1355.44,-214.776"/>
<polygon fill="black" stroke="black" points="1357.04,-211.654 1346.63,-209.68 1353.53,-217.715 1357.04,-211.654"/>
<text text-anchor="middle" x="1552" y="-247.8" font-family="Times,serif" font-size="14.00">OUTPUT: </text>
<text text-anchor="middle" x="1552" y="-232.8" font-family="Times,serif" font-size="14.00">INPUT: in preheated oven for 18 minutes</text>
</g>
<!-- E1 -->
<g id="node2" class="node"><title>E1</title>
<ellipse fill="azure" stroke="black" cx="307.5" cy="-500" rx="69.5877" ry="18"/>
<text text-anchor="middle" x="307.5" y="-496.3" font-family="Times,serif" font-size="14.00">grease (S1,P38)</text>
</g>
<!-- E6 -->
<g id="node7" class="node"><title>E6</title>
<ellipse fill="azure" stroke="black" cx="967.5" cy="-397" rx="63.0888" ry="18"/>
<text text-anchor="middle" x="967.5" y="-393.3" font-family="Times,serif" font-size="14.00">stir (S6,P297)</text>
</g>
<!-- E1&#45;&gt;E6 -->
<g id="edge13" class="edge"><title>E1&#45;&gt;E6</title>
<path fill="none" stroke="black" d="M352.012,-486.1C405.713,-471.036 498.955,-446.47 580.5,-433 689.586,-414.981 817.613,-405.689 895.619,-401.335"/>
<polygon fill="black" stroke="black" points="896.023,-404.818 905.817,-400.778 895.641,-397.828 896.023,-404.818"/>
<text text-anchor="middle" x="645.5" y="-451.8" font-family="Times,serif" font-size="14.00">OUTPUT: </text>
<text text-anchor="middle" x="645.5" y="-436.8" font-family="Times,serif" font-size="14.00">INPUT: 1/4 cup flour </text>
</g>
<!-- E2 -->
<g id="node3" class="node"><title>E2</title>
<ellipse fill="azure" stroke="black" cx="683.5" cy="-500" rx="78.7863" ry="18"/>
<text text-anchor="middle" x="683.5" y="-496.3" font-family="Times,serif" font-size="14.00">combine (S2,P84)</text>
</g>
<!-- E2&#45;&gt;E6 -->
<g id="edge14" class="edge"><title>E2&#45;&gt;E6</title>
<path fill="none" stroke="black" d="M696.265,-481.935C708.795,-466.519 729.354,-444.533 752.5,-433 796.371,-411.14 850.929,-402.443 894.108,-399.184"/>
<polygon fill="black" stroke="black" points="894.52,-402.665 904.262,-398.502 894.05,-395.681 894.52,-402.665"/>
<text text-anchor="middle" x="858" y="-451.8" font-family="Times,serif" font-size="14.00">OUTPUT: </text>
<text text-anchor="middle" x="858" y="-436.8" font-family="Times,serif" font-size="14.00">INPUT: &#160;2 tablespoons brown sugar</text>
</g>
<!-- E3 -->
<g id="node4" class="node"><title>E3</title>
<ellipse fill="azure" stroke="black" cx="829.5" cy="-707" rx="74.187" ry="18"/>
<text text-anchor="middle" x="829.5" y="-703.3" font-family="Times,serif" font-size="14.00">whisk (S3,P139)</text>
</g>
<!-- E4 -->
<g id="node5" class="node"><title>E4</title>
<ellipse fill="azure" stroke="black" cx="1002.5" cy="-604" rx="64.9885" ry="18"/>
<text text-anchor="middle" x="1002.5" y="-600.3" font-family="Times,serif" font-size="14.00">add (S4,P196)</text>
</g>
<!-- E3&#45;&gt;E4 -->
<g id="edge7" class="edge"><title>E3&#45;&gt;E4</title>
<path fill="none" stroke="black" d="M833.054,-688.797C837.007,-673.987 844.864,-653.141 859.5,-641 860.394,-640.258 906.274,-628.777 945.824,-618.978"/>
<polygon fill="black" stroke="black" points="946.845,-622.331 955.711,-616.53 945.163,-615.536 946.845,-622.331"/>
<text text-anchor="middle" x="929" y="-659.8" font-family="Times,serif" font-size="14.00">OUTPUT: </text>
<text text-anchor="middle" x="929" y="-644.8" font-family="Times,serif" font-size="14.00">INPUT: banana mixture</text>
</g>
<!-- E5 -->
<g id="node6" class="node"><title>E5</title>
<ellipse fill="azure" stroke="black" cx="974.5" cy="-500" rx="61.99" ry="18"/>
<text text-anchor="middle" x="974.5" y="-496.3" font-family="Times,serif" font-size="14.00">fill (S5,P254)</text>
</g>
<!-- E4&#45;&gt;E5 -->
<g id="edge10" class="edge"><title>E4&#45;&gt;E5</title>
<path fill="none" stroke="black" d="M997.75,-585.697C993.4,-569.849 986.892,-546.143 981.867,-527.838"/>
<polygon fill="black" stroke="black" points="985.202,-526.764 979.18,-518.047 978.452,-528.617 985.202,-526.764"/>
<text text-anchor="middle" x="1024.5" y="-555.8" font-family="Times,serif" font-size="14.00">OUTPUT: </text>
<text text-anchor="middle" x="1024.5" y="-540.8" font-family="Times,serif" font-size="14.00">INPUT: </text>
</g>
<!-- E5&#45;&gt;E6 -->
<g id="edge15" class="edge"><title>E5&#45;&gt;E6</title>
<path fill="none" stroke="black" d="M971.104,-481.855C970.07,-475.909 969.06,-469.184 968.5,-463 967.378,-450.608 967.037,-436.834 967.013,-425.166"/>
<polygon fill="black" stroke="black" points="970.513,-425.162 967.066,-415.144 963.513,-425.125 970.513,-425.162"/>
<text text-anchor="middle" x="1038" y="-451.8" font-family="Times,serif" font-size="14.00">OUTPUT: </text>
<text text-anchor="middle" x="1038" y="-436.8" font-family="Times,serif" font-size="14.00">INPUT: in a small bowl</text>
</g>
<!-- E7 -->
<g id="node8" class="node"><title>E7</title>
<ellipse fill="azure" stroke="black" cx="1134.5" cy="-295" rx="81.4863" ry="18"/>
<text text-anchor="middle" x="1134.5" y="-291.3" font-family="Times,serif" font-size="14.00">sprinkle (S7,P359)</text>
</g>
<!-- E6&#45;&gt;E7 -->
<g id="edge17" class="edge"><title>E6&#45;&gt;E7</title>
<path fill="none" stroke="black" d="M993.594,-380.375C1021.9,-363.426 1067.26,-336.264 1098.84,-317.353"/>
<polygon fill="black" stroke="black" points="1100.98,-320.152 1107.76,-312.011 1097.38,-314.146 1100.98,-320.152"/>
<text text-anchor="middle" x="1108.5" y="-349.8" font-family="Times,serif" font-size="14.00">OUTPUT: </text>
<text text-anchor="middle" x="1108.5" y="-334.8" font-family="Times,serif" font-size="14.00">INPUT: </text>
</g>
<!-- E7&#45;&gt;E8 -->
<g id="edge19" class="edge"><title>E7&#45;&gt;E8</title>
<path fill="none" stroke="black" d="M1162.73,-277.986C1186.34,-264.672 1220.97,-245.332 1251.5,-229 1260.72,-224.068 1270.7,-218.858 1280.1,-214.008"/>
<polygon fill="black" stroke="black" points="1281.97,-216.985 1289.27,-209.302 1278.77,-210.759 1281.97,-216.985"/>
<text text-anchor="middle" x="1283.5" y="-247.8" font-family="Times,serif" font-size="14.00">OUTPUT: </text>
<text text-anchor="middle" x="1283.5" y="-232.8" font-family="Times,serif" font-size="14.00">INPUT: </text>
</g>
<!-- E9 -->
<g id="node10" class="node"><title>E9</title>
<ellipse fill="azure" stroke="black" cx="1222.5" cy="-91" rx="70.3881" ry="18"/>
<text text-anchor="middle" x="1222.5" y="-87.3" font-family="Times,serif" font-size="14.00">serve (S9,P441)</text>
</g>
<!-- E8&#45;&gt;E9 -->
<g id="edge22" class="edge"><title>E8&#45;&gt;E9</title>
<path fill="none" stroke="black" d="M1303.48,-175.487C1287.76,-159.275 1263.6,-134.369 1245.76,-115.977"/>
<polygon fill="black" stroke="black" points="1248.02,-113.279 1238.54,-108.537 1242.99,-118.152 1248.02,-113.279"/>
<text text-anchor="middle" x="1317.5" y="-145.8" font-family="Times,serif" font-size="14.00">OUTPUT: </text>
<text text-anchor="middle" x="1317.5" y="-130.8" font-family="Times,serif" font-size="14.00">INPUT: </text>
</g>
<!-- EOR -->
<g id="node25" class="node"><title>EOR</title>
<ellipse fill="plum" stroke="black" cx="1222.5" cy="-18" rx="57.3905" ry="18"/>
<text text-anchor="middle" x="1222.5" y="-14.3" font-family="Times,serif" font-size="14.00">Bon appetit!</text>
</g>
<!-- E9&#45;&gt;EOR -->
<g id="edge24" class="edge"><title>E9&#45;&gt;EOR</title>
<path fill="none" stroke="black" d="M1222.5,-72.8129C1222.5,-64.7895 1222.5,-55.0475 1222.5,-46.0691"/>
<polygon fill="black" stroke="black" points="1226,-46.0288 1222.5,-36.0288 1219,-46.0289 1226,-46.0288"/>
</g>
<!-- D1 -->
<g id="node11" class="node"><title>D1</title>
<polygon fill="white" stroke="black" points="189,-622 0,-622 0,-586 189,-586 189,-622"/>
<text text-anchor="middle" x="94.5" y="-600.3" font-family="Times,serif" font-size="14.00">DOBJ: 12 muffin cups or line</text>
</g>
<!-- D1&#45;&gt;E1 -->
<g id="edge1" class="edge"><title>D1&#45;&gt;E1</title>
<path fill="none" stroke="black" d="M130.151,-585.927C167.867,-567.866 227.279,-539.415 266.805,-520.488"/>
<polygon fill="black" stroke="black" points="268.399,-523.605 275.906,-516.129 265.375,-517.292 268.399,-523.605"/>
</g>
<!-- P1_0 -->
<g id="node12" class="node"><title>P1_0</title>
<polygon fill="white" stroke="black" points="407.5,-622 207.5,-622 207.5,-586 407.5,-586 407.5,-622"/>
<text text-anchor="middle" x="307.5" y="-600.3" font-family="Times,serif" font-size="14.00">PREP: with paper muffin liners</text>
</g>
<!-- P1_0&#45;&gt;E1 -->
<g id="edge2" class="edge"><title>P1_0&#45;&gt;E1</title>
<path fill="none" stroke="black" d="M307.5,-585.697C307.5,-569.923 307.5,-546.364 307.5,-528.094"/>
<polygon fill="black" stroke="black" points="311,-528.047 307.5,-518.047 304,-528.047 311,-528.047"/>
</g>
<!-- D0 -->
<g id="node13" class="node"><title>D0</title>
<polygon fill="white" stroke="black" points="1651.5,-415 1333.5,-415 1333.5,-379 1651.5,-379 1651.5,-415"/>
<text text-anchor="middle" x="1492.5" y="-393.3" font-family="Times,serif" font-size="14.00">DOBJ: oven to 375 degrees F &#45;LRB&#45; 190 degrees C</text>
</g>
<!-- D0&#45;&gt;E0 -->
<g id="edge3" class="edge"><title>D0&#45;&gt;E0</title>
<path fill="none" stroke="black" d="M1492.5,-378.581C1492.5,-363.382 1492.5,-341.067 1492.5,-323.464"/>
<polygon fill="black" stroke="black" points="1496,-323.219 1492.5,-313.219 1489,-323.219 1496,-323.219"/>
</g>
<!-- D3 -->
<g id="node14" class="node"><title>D3</title>
<polygon fill="peachpuff" stroke="black" points="911.5,-800 429.5,-800 429.5,-762 911.5,-762 911.5,-800"/>
<text text-anchor="middle" x="670.5" y="-784.8" font-family="Times,serif" font-size="14.00">DOBJ: vegetable oil, milk, vanilla extract, mashed ripe banana, egg, peanut butter</text>
<text text-anchor="middle" x="670.5" y="-769.8" font-family="Times,serif" font-size="14.00">(text: milk , peanut butter , banana , egg , oil , vanilla)</text>
</g>
<!-- D3&#45;&gt;E3 -->
<g id="edge4" class="edge"><title>D3&#45;&gt;E3</title>
<path fill="none" stroke="black" d="M710.622,-761.831C733.931,-751.276 763.282,-737.985 786.987,-727.251"/>
<polygon fill="black" stroke="black" points="788.436,-730.437 796.102,-723.124 785.548,-724.061 788.436,-730.437"/>
</g>
<!-- O3_0 -->
<g id="node15" class="node"><title>O3_0</title>
<polygon fill="white" stroke="black" points="1049,-799 930,-799 930,-763 1049,-763 1049,-799"/>
<text text-anchor="middle" x="989.5" y="-777.3" font-family="Times,serif" font-size="14.00">OTHER: together</text>
</g>
<!-- O3_0&#45;&gt;E3 -->
<g id="edge5" class="edge"><title>O3_0&#45;&gt;E3</title>
<path fill="none" stroke="black" d="M951.582,-762.937C927.737,-752.207 896.919,-738.339 872.213,-727.221"/>
<polygon fill="black" stroke="black" points="873.626,-724.019 863.07,-723.107 870.753,-730.402 873.626,-724.019"/>
</g>
<!-- D2 -->
<g id="node16" class="node"><title>D2</title>
<polygon fill="peachpuff" stroke="black" points="919.5,-623 425.5,-623 425.5,-585 919.5,-585 919.5,-623"/>
<text text-anchor="middle" x="672.5" y="-607.8" font-family="Times,serif" font-size="14.00">DOBJ: baking powder, quick cooking oats, all&#45;purpose flour, packed brown sugar</text>
<text text-anchor="middle" x="672.5" y="-592.8" font-family="Times,serif" font-size="14.00">(text: 1 cup flour , oats , 1/3 cup brown sugar , baking powder)</text>
</g>
<!-- D2&#45;&gt;E2 -->
<g id="edge6" class="edge"><title>D2&#45;&gt;E2</title>
<path fill="none" stroke="black" d="M674.467,-584.764C676.163,-569.031 678.638,-546.083 680.569,-528.183"/>
<polygon fill="black" stroke="black" points="684.068,-528.378 681.66,-518.06 677.108,-527.627 684.068,-528.378"/>
</g>
<!-- P4_0_0 -->
<g id="node17" class="node"><title>P4_0_0</title>
<polygon fill="white" stroke="black" points="1083.5,-725 921.5,-725 921.5,-689 1083.5,-689 1083.5,-725"/>
<text text-anchor="middle" x="1002.5" y="-703.3" font-family="Times,serif" font-size="14.00">PREP: to dry ingredients</text>
</g>
<!-- P4_0_0&#45;&gt;E4 -->
<g id="edge8" class="edge"><title>P4_0_0&#45;&gt;E4</title>
<path fill="none" stroke="black" d="M1002.5,-688.867C1002.5,-673.414 1002.5,-650.416 1002.5,-632.409"/>
<polygon fill="black" stroke="black" points="1006,-632.217 1002.5,-622.217 999,-632.217 1006,-632.217"/>
</g>
<!-- O4_0_0 -->
<g id="node18" class="node"><title>O4_0_0</title>
<polygon fill="white" stroke="black" points="1331.5,-725 1101.5,-725 1101.5,-689 1331.5,-689 1331.5,-725"/>
<text text-anchor="middle" x="1216.5" y="-703.3" font-family="Times,serif" font-size="14.00">OTHER: mixing just until moistened</text>
</g>
<!-- O4_0_0&#45;&gt;E4 -->
<g id="edge9" class="edge"><title>O4_0_0&#45;&gt;E4</title>
<path fill="none" stroke="black" d="M1180.2,-688.867C1142.22,-670.943 1082.74,-642.869 1043.2,-624.207"/>
<polygon fill="black" stroke="black" points="1044.63,-621.013 1034.09,-619.91 1041.64,-627.343 1044.63,-621.013"/>
</g>
<!-- O5_0_0 -->
<g id="node19" class="node"><title>O5_0_0</title>
<polygon fill="white" stroke="black" points="1327.5,-622 1085.5,-622 1085.5,-586 1327.5,-586 1327.5,-622"/>
<text text-anchor="middle" x="1206.5" y="-600.3" font-family="Times,serif" font-size="14.00">OTHER: prepared muffin cups 3/4 full</text>
</g>
<!-- O5_0_0&#45;&gt;E5 -->
<g id="edge11" class="edge"><title>O5_0_0&#45;&gt;E5</title>
<path fill="none" stroke="black" d="M1169.42,-585.892C1139.99,-572.395 1097.74,-553.207 1060.5,-537 1046.89,-531.075 1031.99,-524.773 1018.47,-519.126"/>
<polygon fill="black" stroke="black" points="1019.49,-515.759 1008.91,-515.144 1016.8,-522.22 1019.49,-515.759"/>
</g>
<!-- D6_ing -->
<g id="node20" class="node"><title>D6_ing</title>
<polygon fill="peachpuff" stroke="black" points="1188.5,-519 1054.5,-519 1054.5,-481 1188.5,-481 1188.5,-519"/>
<text text-anchor="middle" x="1121.5" y="-503.8" font-family="Times,serif" font-size="14.00">DOBJ: butter</text>
<text text-anchor="middle" x="1121.5" y="-488.8" font-family="Times,serif" font-size="14.00">(text: &#160;melted butter)</text>
</g>
<!-- D6_ing&#45;&gt;E6 -->
<g id="edge12" class="edge"><title>D6_ing&#45;&gt;E6</title>
<path fill="none" stroke="black" d="M1122.56,-480.928C1122.41,-466.131 1119.7,-445.645 1107.5,-433 1105.95,-431.391 1062.6,-420.695 1024.55,-411.545"/>
<polygon fill="black" stroke="black" points="1025.05,-408.066 1014.51,-409.137 1023.41,-414.873 1025.05,-408.066"/>
</g>
<!-- O6_0_0 -->
<g id="node21" class="node"><title>O6_0_0</title>
<polygon fill="white" stroke="black" points="1326,-518 1207,-518 1207,-482 1326,-482 1326,-518"/>
<text text-anchor="middle" x="1266.5" y="-496.3" font-family="Times,serif" font-size="14.00">OTHER: together</text>
</g>
<!-- O6_0_0&#45;&gt;E6 -->
<g id="edge16" class="edge"><title>O6_0_0&#45;&gt;E6</title>
<path fill="none" stroke="black" d="M1236.44,-481.951C1209.07,-467.086 1167.16,-445.933 1128.5,-433 1090.23,-420.197 1078.92,-423.638 1039.5,-415 1034.45,-413.894 1029.22,-412.717 1023.97,-411.516"/>
<polygon fill="black" stroke="black" points="1024.46,-408.037 1013.93,-409.194 1022.88,-414.857 1024.46,-408.037"/>
</g>
<!-- O7_0_0 -->
<g id="node22" class="node"><title>O7_0_0</title>
<polygon fill="white" stroke="black" points="1284.5,-415 1048.5,-415 1048.5,-379 1284.5,-379 1284.5,-415"/>
<text text-anchor="middle" x="1166.5" y="-393.3" font-family="Times,serif" font-size="14.00">OTHER: topping evenly over muffins</text>
</g>
<!-- O7_0_0&#45;&gt;E7 -->
<g id="edge18" class="edge"><title>O7_0_0&#45;&gt;E7</title>
<path fill="none" stroke="black" d="M1160.93,-378.581C1156.02,-363.238 1148.79,-340.645 1143.13,-322.968"/>
<polygon fill="black" stroke="black" points="1146.39,-321.677 1140.01,-313.219 1139.72,-323.81 1146.39,-321.677"/>
</g>
<!-- P8_1_0 -->
<g id="node23" class="node"><title>P8_1_0</title>
<polygon fill="white" stroke="black" points="1405.5,-313 1233.5,-313 1233.5,-277 1405.5,-277 1405.5,-313"/>
<text text-anchor="middle" x="1319.5" y="-291.3" font-family="Times,serif" font-size="14.00">PREP: until golden brown</text>
</g>
<!-- P8_1_0&#45;&gt;E8 -->
<g id="edge21" class="edge"><title>P8_1_0&#45;&gt;E8</title>
<path fill="none" stroke="black" d="M1319.5,-276.581C1319.5,-261.382 1319.5,-239.067 1319.5,-221.464"/>
<polygon fill="black" stroke="black" points="1323,-221.219 1319.5,-211.219 1316,-221.219 1323,-221.219"/>
</g>
<!-- O9_0_0 -->
<g id="node24" class="node"><title>O9_0_0</title>
<polygon fill="white" stroke="black" points="1232.5,-211 1126.5,-211 1126.5,-175 1232.5,-175 1232.5,-211"/>
<text text-anchor="middle" x="1179.5" y="-189.3" font-family="Times,serif" font-size="14.00">OTHER: warm</text>
</g>
<!-- O9_0_0&#45;&gt;E9 -->
<g id="edge23" class="edge"><title>O9_0_0&#45;&gt;E9</title>
<path fill="none" stroke="black" d="M1186.99,-174.581C1193.65,-159.095 1203.48,-136.222 1211.12,-118.473"/>
<polygon fill="black" stroke="black" points="1214.36,-119.788 1215.1,-109.219 1207.93,-117.023 1214.36,-119.788"/>
</g>
</g>
</svg>
