<?xml version="1.0" encoding="UTF-8" standalone="no"?>
<!DOCTYPE svg PUBLIC "-//W3C//DTD SVG 1.1//EN"
 "http://www.w3.org/Graphics/SVG/1.1/DTD/svg11.dtd">
<!-- Generated by graphviz version 2.38.0 (20140413.2041)
 -->
<!-- Title: recipe Pages: 1 -->
<svg width="1781pt" height="808pt"
 viewBox="0.00 0.00 1780.50 808.00" xmlns="http://www.w3.org/2000/svg" xmlns:xlink="http://www.w3.org/1999/xlink">
<g id="graph0" class="graph" transform="scale(1 1) rotate(0) translate(4 804)">
<title>recipe</title>
<polygon fill="white" stroke="none" points="-4,4 -4,-804 1776.5,-804 1776.5,4 -4,4"/>
<!-- E0 -->
<g id="node1" class="node"><title>E0</title>
<ellipse fill="azure" stroke="black" cx="1613.5" cy="-193" rx="68.7879" ry="18"/>
<text text-anchor="middle" x="1613.5" y="-189.3" font-family="Times,serif" font-size="14.00">preheat (S0,P0)</text>
</g>
<!-- E9 -->
<g id="node10" class="node"><title>E9</title>
<ellipse fill="azure" stroke="black" cx="1331.5" cy="-91" rx="68.7879" ry="18"/>
<text text-anchor="middle" x="1331.5" y="-87.3" font-family="Times,serif" font-size="14.00">bake (S8,P371)</text>
</g>
<!-- E0&#45;&gt;E9 -->
<g id="edge22" class="edge"><title>E0&#45;&gt;E9</title>
<path fill="none" stroke="black" d="M1574.29,-178.095C1523.61,-160.123 1435.35,-128.827 1380.36,-109.327"/>
<polygon fill="black" stroke="black" points="1381.43,-105.991 1370.83,-105.947 1379.09,-112.588 1381.43,-105.991"/>
<text text-anchor="middle" x="1603" y="-145.8" font-family="Times,serif" font-size="14.00">OUTPUT: </text>
<text text-anchor="middle" x="1603" y="-130.8" font-family="Times,serif" font-size="14.00">INPUT: in the preheated oven </text>
</g>
<!-- E1 -->
<g id="node2" class="node"><title>E1</title>
<ellipse fill="azure" stroke="black" cx="924.5" cy="-295" rx="69.5877" ry="18"/>
<text text-anchor="middle" x="924.5" y="-291.3" font-family="Times,serif" font-size="14.00">grease (S1,P45)</text>
</g>
<!-- E8 -->
<g id="node9" class="node"><title>E8</title>
<ellipse fill="azure" stroke="black" cx="1043.5" cy="-193" rx="74.187" ry="18"/>
<text text-anchor="middle" x="1043.5" y="-189.3" font-family="Times,serif" font-size="14.00">spoon (S7,P341)</text>
</g>
<!-- E1&#45;&gt;E8 -->
<g id="edge19" class="edge"><title>E1&#45;&gt;E8</title>
<path fill="none" stroke="black" d="M919.669,-277.018C916.704,-262.753 915.201,-242.578 925.5,-229 935.231,-216.17 949.459,-207.861 964.692,-202.522"/>
<polygon fill="black" stroke="black" points="965.75,-205.859 974.276,-199.569 963.688,-199.169 965.75,-205.859"/>
<text text-anchor="middle" x="1033.5" y="-247.8" font-family="Times,serif" font-size="14.00">OUTPUT: </text>
<text text-anchor="middle" x="1033.5" y="-232.8" font-family="Times,serif" font-size="14.00">INPUT: into the prepared muffin pan</text>
</g>
<!-- E2 -->
<g id="node3" class="node"><title>E2</title>
<ellipse fill="azure" stroke="black" cx="437.5" cy="-706" rx="61.1893" ry="18"/>
<text text-anchor="middle" x="437.5" y="-702.3" font-family="Times,serif" font-size="14.00">mix (S2,P80)</text>
</g>
<!-- E3 -->
<g id="node4" class="node"><title>E3</title>
<ellipse fill="azure" stroke="black" cx="625.5" cy="-602" rx="66.0889" ry="18"/>
<text text-anchor="middle" x="625.5" y="-598.3" font-family="Times,serif" font-size="14.00">beat (S3,P165)</text>
</g>
<!-- E2&#45;&gt;E3 -->
<g id="edge9" class="edge"><title>E2&#45;&gt;E3</title>
<path fill="none" stroke="black" d="M440.284,-687.766C443.64,-672.671 450.783,-651.281 465.5,-639 479.587,-627.244 520.043,-618.201 556.748,-612.118"/>
<polygon fill="black" stroke="black" points="557.654,-615.518 566.976,-610.481 556.548,-608.606 557.654,-615.518"/>
<text text-anchor="middle" x="543.5" y="-657.8" font-family="Times,serif" font-size="14.00">OUTPUT: </text>
<text text-anchor="middle" x="543.5" y="-642.8" font-family="Times,serif" font-size="14.00">INPUT: in a medium bowl</text>
</g>
<!-- E4 -->
<g id="node5" class="node"><title>E4</title>
<ellipse fill="azure" stroke="black" cx="885.5" cy="-499" rx="63.0888" ry="18"/>
<text text-anchor="middle" x="885.5" y="-495.3" font-family="Times,serif" font-size="14.00">stir (S4,P204)</text>
</g>
<!-- E3&#45;&gt;E4 -->
<g id="edge11" class="edge"><title>E3&#45;&gt;E4</title>
<path fill="none" stroke="black" d="M661.926,-586.85C708.667,-568.693 789.741,-537.199 840.35,-517.539"/>
<polygon fill="black" stroke="black" points="841.684,-520.776 849.738,-513.892 839.149,-514.251 841.684,-520.776"/>
<text text-anchor="middle" x="826.5" y="-553.8" font-family="Times,serif" font-size="14.00">OUTPUT: </text>
<text text-anchor="middle" x="826.5" y="-538.8" font-family="Times,serif" font-size="14.00">INPUT: </text>
</g>
<!-- E6 -->
<g id="node7" class="node"><title>E6</title>
<ellipse fill="azure" stroke="black" cx="1127.5" cy="-397" rx="69.5877" ry="18"/>
<text text-anchor="middle" x="1127.5" y="-393.3" font-family="Times,serif" font-size="14.00">pour (S5,P294)</text>
</g>
<!-- E4&#45;&gt;E6 -->
<g id="edge15" class="edge"><title>E4&#45;&gt;E6</title>
<path fill="none" stroke="black" d="M901.064,-481.524C916.131,-466.575 940.333,-445.081 965.5,-433 974.576,-428.643 1022.15,-418.589 1063.41,-410.369"/>
<polygon fill="black" stroke="black" points="1064.34,-413.754 1073.47,-408.377 1062.98,-406.887 1064.34,-413.754"/>
<text text-anchor="middle" x="1044.5" y="-451.8" font-family="Times,serif" font-size="14.00">OUTPUT: </text>
<text text-anchor="middle" x="1044.5" y="-436.8" font-family="Times,serif" font-size="14.00">INPUT: in &#160;banana mixture</text>
</g>
<!-- E5 -->
<g id="node6" class="node"><title>E5</title>
<ellipse fill="azure" stroke="black" cx="1127.5" cy="-499" rx="71.4873" ry="18"/>
<text text-anchor="middle" x="1127.5" y="-495.3" font-family="Times,serif" font-size="14.00">make (S5,P248)</text>
</g>
<!-- E5&#45;&gt;E6 -->
<g id="edge13" class="edge"><title>E5&#45;&gt;E6</title>
<path fill="none" stroke="black" d="M1127.5,-480.581C1127.5,-465.382 1127.5,-443.067 1127.5,-425.464"/>
<polygon fill="black" stroke="black" points="1131,-425.219 1127.5,-415.219 1124,-425.219 1131,-425.219"/>
<text text-anchor="middle" x="1159.5" y="-451.8" font-family="Times,serif" font-size="14.00">OUTPUT: </text>
<text text-anchor="middle" x="1159.5" y="-436.8" font-family="Times,serif" font-size="14.00">INPUT: </text>
</g>
<!-- E7 -->
<g id="node8" class="node"><title>E7</title>
<ellipse fill="azure" stroke="black" cx="1163.5" cy="-295" rx="63.0888" ry="18"/>
<text text-anchor="middle" x="1163.5" y="-291.3" font-family="Times,serif" font-size="14.00">stir (S6,P320)</text>
</g>
<!-- E6&#45;&gt;E7 -->
<g id="edge16" class="edge"><title>E6&#45;&gt;E7</title>
<path fill="none" stroke="black" d="M1133.61,-379.036C1139.17,-363.593 1147.47,-340.538 1153.91,-322.637"/>
<polygon fill="black" stroke="black" points="1157.27,-323.641 1157.36,-313.047 1150.68,-321.27 1157.27,-323.641"/>
<text text-anchor="middle" x="1183.5" y="-349.8" font-family="Times,serif" font-size="14.00">OUTPUT: </text>
<text text-anchor="middle" x="1183.5" y="-334.8" font-family="Times,serif" font-size="14.00">INPUT: </text>
</g>
<!-- E7&#45;&gt;E8 -->
<g id="edge18" class="edge"><title>E7&#45;&gt;E8</title>
<path fill="none" stroke="black" d="M1161.84,-276.926C1159.57,-262.405 1154.2,-241.911 1141.5,-229 1132.65,-220.005 1121.34,-213.313 1109.57,-208.337"/>
<polygon fill="black" stroke="black" points="1110.65,-205.005 1100.06,-204.703 1108.15,-211.544 1110.65,-205.005"/>
<text text-anchor="middle" x="1189.5" y="-247.8" font-family="Times,serif" font-size="14.00">OUTPUT: </text>
<text text-anchor="middle" x="1189.5" y="-232.8" font-family="Times,serif" font-size="14.00">INPUT: </text>
</g>
<!-- E8&#45;&gt;E9 -->
<g id="edge20" class="edge"><title>E8&#45;&gt;E9</title>
<path fill="none" stroke="black" d="M1071.64,-176.296C1098.62,-161.791 1140.84,-140.507 1179.5,-127 1207.16,-117.339 1238.58,-109.593 1265.65,-103.869"/>
<polygon fill="black" stroke="black" points="1266.71,-107.224 1275.8,-101.774 1265.29,-100.369 1266.71,-107.224"/>
<text text-anchor="middle" x="1253.5" y="-145.8" font-family="Times,serif" font-size="14.00">OUTPUT: </text>
<text text-anchor="middle" x="1253.5" y="-130.8" font-family="Times,serif" font-size="14.00">INPUT: 25 to 30 minutes</text>
</g>
<!-- EOR -->
<g id="node24" class="node"><title>EOR</title>
<ellipse fill="plum" stroke="black" cx="1331.5" cy="-18" rx="57.3905" ry="18"/>
<text text-anchor="middle" x="1331.5" y="-14.3" font-family="Times,serif" font-size="14.00">Bon appetit!</text>
</g>
<!-- E9&#45;&gt;EOR -->
<g id="edge23" class="edge"><title>E9&#45;&gt;EOR</title>
<path fill="none" stroke="black" d="M1331.5,-72.8129C1331.5,-64.7895 1331.5,-55.0475 1331.5,-46.0691"/>
<polygon fill="black" stroke="black" points="1335,-46.0288 1331.5,-36.0288 1328,-46.0289 1335,-46.0288"/>
</g>
<!-- D5 -->
<g id="node11" class="node"><title>D5</title>
<polygon fill="white" stroke="black" points="1175,-620 1080,-620 1080,-584 1175,-584 1175,-620"/>
<text text-anchor="middle" x="1127.5" y="-598.3" font-family="Times,serif" font-size="14.00">DOBJ: a well</text>
</g>
<!-- D5&#45;&gt;E5 -->
<g id="edge1" class="edge"><title>D5&#45;&gt;E5</title>
<path fill="none" stroke="black" d="M1127.5,-583.867C1127.5,-568.414 1127.5,-545.416 1127.5,-527.409"/>
<polygon fill="black" stroke="black" points="1131,-527.217 1127.5,-517.217 1124,-527.217 1131,-527.217"/>
</g>
<!-- P5_0 -->
<g id="node12" class="node"><title>P5_0</title>
<polygon fill="white" stroke="black" points="1479.5,-620 1193.5,-620 1193.5,-584 1479.5,-584 1479.5,-620"/>
<text text-anchor="middle" x="1336.5" y="-598.3" font-family="Times,serif" font-size="14.00">PREP: in the center of the wheat flour mixture</text>
</g>
<!-- P5_0&#45;&gt;E5 -->
<g id="edge2" class="edge"><title>P5_0&#45;&gt;E5</title>
<path fill="none" stroke="black" d="M1301.05,-583.867C1264.33,-566.122 1207.02,-538.43 1168.41,-519.77"/>
<polygon fill="black" stroke="black" points="1169.55,-516.432 1159.02,-515.232 1166.5,-522.734 1169.55,-516.432"/>
</g>
<!-- D2 -->
<g id="node13" class="node"><title>D2</title>
<polygon fill="peachpuff" stroke="black" points="523,-800 0,-800 0,-762 523,-762 523,-800"/>
<text text-anchor="middle" x="261.5" y="-784.8" font-family="Times,serif" font-size="14.00">DOBJ: baking powder, wheat germ, whole wheat flour, wheat bran, baking soda, salt</text>
<text text-anchor="middle" x="261.5" y="-769.8" font-family="Times,serif" font-size="14.00">(text: whole wheat flour , wheat bran , wheat germ , baking soda , baking powder , salt)</text>
</g>
<!-- D2&#45;&gt;E2 -->
<g id="edge3" class="edge"><title>D2&#45;&gt;E2</title>
<path fill="none" stroke="black" d="M305.006,-761.955C332.232,-750.662 367.17,-736.171 394.332,-724.905"/>
<polygon fill="black" stroke="black" points="395.694,-728.129 403.59,-721.065 393.012,-721.663 395.694,-728.129"/>
</g>
<!-- P2_0 -->
<g id="node14" class="node"><title>P2_0</title>
<polygon fill="white" stroke="black" points="687.5,-799 541.5,-799 541.5,-763 687.5,-763 687.5,-799"/>
<text text-anchor="middle" x="614.5" y="-777.3" font-family="Times,serif" font-size="14.00">PREP: in a large bowl</text>
</g>
<!-- P2_0&#45;&gt;E2 -->
<g id="edge4" class="edge"><title>P2_0&#45;&gt;E2</title>
<path fill="none" stroke="black" d="M573.001,-762.885C545.398,-751.5 509.2,-736.571 481.162,-725.008"/>
<polygon fill="black" stroke="black" points="482.192,-721.646 471.613,-721.069 479.523,-728.117 482.192,-721.646"/>
</g>
<!-- D0 -->
<g id="node15" class="node"><title>D0</title>
<polygon fill="white" stroke="black" points="1772.5,-313 1454.5,-313 1454.5,-277 1772.5,-277 1772.5,-313"/>
<text text-anchor="middle" x="1613.5" y="-291.3" font-family="Times,serif" font-size="14.00">DOBJ: oven to 350 degrees F &#45;LRB&#45; 175 degrees C</text>
</g>
<!-- D0&#45;&gt;E0 -->
<g id="edge5" class="edge"><title>D0&#45;&gt;E0</title>
<path fill="none" stroke="black" d="M1613.5,-276.581C1613.5,-261.382 1613.5,-239.067 1613.5,-221.464"/>
<polygon fill="black" stroke="black" points="1617,-221.219 1613.5,-211.219 1610,-221.219 1617,-221.219"/>
</g>
<!-- D1 -->
<g id="node16" class="node"><title>D1</title>
<polygon fill="white" stroke="black" points="899,-415 722,-415 722,-379 899,-379 899,-415"/>
<text text-anchor="middle" x="810.5" y="-393.3" font-family="Times,serif" font-size="14.00">DOBJ: a 12 cup muffin pan</text>
</g>
<!-- D1&#45;&gt;E1 -->
<g id="edge6" class="edge"><title>D1&#45;&gt;E1</title>
<path fill="none" stroke="black" d="M830.097,-378.809C848.838,-362.37 877.238,-337.458 897.993,-319.252"/>
<polygon fill="black" stroke="black" points="900.328,-321.86 905.537,-312.634 895.712,-316.597 900.328,-321.86"/>
</g>
<!-- O1_0 -->
<g id="node17" class="node"><title>O1_0</title>
<polygon fill="white" stroke="black" points="1027.5,-415 917.5,-415 917.5,-379 1027.5,-379 1027.5,-415"/>
<text text-anchor="middle" x="972.5" y="-393.3" font-family="Times,serif" font-size="14.00">OTHER: lightly</text>
</g>
<!-- O1_0&#45;&gt;E1 -->
<g id="edge7" class="edge"><title>O1_0&#45;&gt;E1</title>
<path fill="none" stroke="black" d="M964.139,-378.581C956.66,-363 945.593,-339.943 937.052,-322.149"/>
<polygon fill="black" stroke="black" points="940.088,-320.387 932.605,-312.886 933.777,-323.416 940.088,-320.387"/>
</g>
<!-- D3_ing -->
<g id="node18" class="node"><title>D3_ing</title>
<polygon fill="peachpuff" stroke="black" points="734,-725 517,-725 517,-687 734,-687 734,-725"/>
<text text-anchor="middle" x="625.5" y="-709.8" font-family="Times,serif" font-size="14.00">DOBJ: vegetable oil, eggs, honey</text>
<text text-anchor="middle" x="625.5" y="-694.8" font-family="Times,serif" font-size="14.00">(text: &#160;honey , eggs , &#160;vegetable oil)</text>
</g>
<!-- D3_ing&#45;&gt;E3 -->
<g id="edge8" class="edge"><title>D3_ing&#45;&gt;E3</title>
<path fill="none" stroke="black" d="M625.5,-686.764C625.5,-671.031 625.5,-648.083 625.5,-630.183"/>
<polygon fill="black" stroke="black" points="629,-630.06 625.5,-620.06 622,-630.06 629,-630.06"/>
</g>
<!-- O3_0_0 -->
<g id="node19" class="node"><title>O3_0_0</title>
<polygon fill="white" stroke="black" points="871,-724 752,-724 752,-688 871,-688 871,-724"/>
<text text-anchor="middle" x="811.5" y="-702.3" font-family="Times,serif" font-size="14.00">OTHER: together</text>
</g>
<!-- O3_0_0&#45;&gt;E3 -->
<g id="edge10" class="edge"><title>O3_0_0&#45;&gt;E3</title>
<path fill="none" stroke="black" d="M780.368,-687.927C747.9,-670.123 697.022,-642.222 662.518,-623.3"/>
<polygon fill="black" stroke="black" points="664.136,-620.196 653.685,-618.456 660.77,-626.333 664.136,-620.196"/>
</g>
<!-- P4_0_ing -->
<g id="node20" class="node"><title>P4_0_ing</title>
<polygon fill="peachpuff" stroke="black" points="1061.5,-621 709.5,-621 709.5,-583 1061.5,-583 1061.5,-621"/>
<text text-anchor="middle" x="885.5" y="-605.8" font-family="Times,serif" font-size="14.00">PREP: in mashed bananas, milk, poppy seeds, lemon juice</text>
<text text-anchor="middle" x="885.5" y="-590.8" font-family="Times,serif" font-size="14.00">(text: in &#160;milk , bananas , &#160;poppy seeds, &#160;lemon juice )</text>
</g>
<!-- P4_0_ing&#45;&gt;E4 -->
<g id="edge12" class="edge"><title>P4_0_ing&#45;&gt;E4</title>
<path fill="none" stroke="black" d="M885.5,-582.943C885.5,-567.531 885.5,-545.127 885.5,-527.488"/>
<polygon fill="black" stroke="black" points="889,-527.226 885.5,-517.226 882,-527.226 889,-527.226"/>
</g>
<!-- P6_0_0 -->
<g id="node21" class="node"><title>P6_0_0</title>
<polygon fill="white" stroke="black" points="1312,-517 1217,-517 1217,-481 1312,-481 1312,-517"/>
<text text-anchor="middle" x="1264.5" y="-495.3" font-family="Times,serif" font-size="14.00">PREP: in egg</text>
</g>
<!-- P6_0_0&#45;&gt;E6 -->
<g id="edge14" class="edge"><title>P6_0_0&#45;&gt;E6</title>
<path fill="none" stroke="black" d="M1248.91,-480.846C1235.61,-466.854 1215.52,-447.157 1195.5,-433 1187.61,-427.425 1178.72,-422.192 1170.03,-417.557"/>
<polygon fill="black" stroke="black" points="1171.59,-414.423 1161.09,-412.955 1168.38,-420.646 1171.59,-414.423"/>
</g>
<!-- P7_0_0 -->
<g id="node22" class="node"><title>P7_0_0</title>
<polygon fill="white" stroke="black" points="1374,-415 1215,-415 1215,-379 1374,-379 1374,-415"/>
<text text-anchor="middle" x="1294.5" y="-393.3" font-family="Times,serif" font-size="14.00">PREP: until just blended</text>
</g>
<!-- P7_0_0&#45;&gt;E7 -->
<g id="edge17" class="edge"><title>P7_0_0&#45;&gt;E7</title>
<path fill="none" stroke="black" d="M1276.37,-378.869C1261.58,-365.25 1239.87,-346.052 1219.5,-331 1212.95,-326.162 1205.73,-321.314 1198.71,-316.835"/>
<polygon fill="black" stroke="black" points="1200.32,-313.718 1189.99,-311.387 1196.61,-319.654 1200.32,-313.718"/>
</g>
<!-- P9_0_0 -->
<g id="node23" class="node"><title>P9_0_0</title>
<polygon fill="white" stroke="black" points="1527,-211 1136,-211 1136,-175 1527,-175 1527,-211"/>
<text text-anchor="middle" x="1331.5" y="-189.3" font-family="Times,serif" font-size="14.00">PREP: in &#160;until a toothpick inserted in the center comes out clean</text>
</g>
<!-- P9_0_0&#45;&gt;E9 -->
<g id="edge21" class="edge"><title>P9_0_0&#45;&gt;E9</title>
<path fill="none" stroke="black" d="M1331.5,-174.581C1331.5,-159.382 1331.5,-137.067 1331.5,-119.464"/>
<polygon fill="black" stroke="black" points="1335,-119.219 1331.5,-109.219 1328,-119.219 1335,-119.219"/>
</g>
</g>
</svg>
