<?xml version="1.0" encoding="UTF-8" standalone="no"?>
<!DOCTYPE svg PUBLIC "-//W3C//DTD SVG 1.1//EN"
 "http://www.w3.org/Graphics/SVG/1.1/DTD/svg11.dtd">
<!-- Generated by graphviz version 2.38.0 (20140413.2041)
 -->
<!-- Title: recipe Pages: 1 -->
<svg width="2364pt" height="1014pt"
 viewBox="0.00 0.00 2363.50 1014.00" xmlns="http://www.w3.org/2000/svg" xmlns:xlink="http://www.w3.org/1999/xlink">
<g id="graph0" class="graph" transform="scale(1 1) rotate(0) translate(4 1010)">
<title>recipe</title>
<polygon fill="white" stroke="none" points="-4,4 -4,-1010 2359.5,-1010 2359.5,4 -4,4"/>
<!-- E0 -->
<g id="node1" class="node"><title>E0</title>
<ellipse fill="azure" stroke="black" cx="2188" cy="-915" rx="68.7879" ry="18"/>
<text text-anchor="middle" x="2188" y="-911.3" font-family="Times,serif" font-size="14.00">preheat (S0,P0)</text>
</g>
<!-- E1 -->
<g id="node2" class="node"><title>E1</title>
<ellipse fill="azure" stroke="black" cx="2188" cy="-813" rx="69.5877" ry="18"/>
<text text-anchor="middle" x="2188" y="-809.3" font-family="Times,serif" font-size="14.00">grease (S1,P40)</text>
</g>
<!-- E0&#45;&gt;E1 -->
<g id="edge4" class="edge"><title>E0&#45;&gt;E1</title>
<path fill="none" stroke="black" d="M2188,-896.581C2188,-881.382 2188,-859.067 2188,-841.464"/>
<polygon fill="black" stroke="black" points="2191.5,-841.219 2188,-831.219 2184.5,-841.219 2191.5,-841.219"/>
<text text-anchor="middle" x="2257" y="-867.8" font-family="Times,serif" font-size="14.00">OUTPUT: </text>
<text text-anchor="middle" x="2257" y="-852.8" font-family="Times,serif" font-size="14.00">INPUT: 12 muffin cups</text>
</g>
<!-- E2 -->
<g id="node3" class="node"><title>E2</title>
<ellipse fill="azure" stroke="black" cx="2053" cy="-710" rx="59.5901" ry="18"/>
<text text-anchor="middle" x="2053" y="-706.3" font-family="Times,serif" font-size="14.00">line (S1,P61)</text>
</g>
<!-- E1&#45;&gt;E2 -->
<g id="edge5" class="edge"><title>E1&#45;&gt;E2</title>
<path fill="none" stroke="black" d="M2166.31,-795.773C2143.54,-778.739 2107.61,-751.855 2082.32,-732.938"/>
<polygon fill="black" stroke="black" points="2084.29,-730.042 2074.19,-726.854 2080.1,-735.647 2084.29,-730.042"/>
<text text-anchor="middle" x="2172" y="-765.8" font-family="Times,serif" font-size="14.00">OUTPUT: </text>
<text text-anchor="middle" x="2172" y="-750.8" font-family="Times,serif" font-size="14.00">INPUT: </text>
</g>
<!-- E3 -->
<g id="node4" class="node"><title>E3</title>
<ellipse fill="azure" stroke="black" cx="1849" cy="-607" rx="66.8882" ry="18"/>
<text text-anchor="middle" x="1849" y="-603.3" font-family="Times,serif" font-size="14.00">cover (S2,P88)</text>
</g>
<!-- E2&#45;&gt;E3 -->
<g id="edge8" class="edge"><title>E2&#45;&gt;E3</title>
<path fill="none" stroke="black" d="M2023.34,-694.314C1987.84,-676.738 1928.25,-647.238 1888.78,-627.696"/>
<polygon fill="black" stroke="black" points="1890.22,-624.5 1879.7,-623.2 1887.11,-630.773 1890.22,-624.5"/>
<text text-anchor="middle" x="2059.5" y="-661.8" font-family="Times,serif" font-size="14.00">OUTPUT: </text>
<text text-anchor="middle" x="2059.5" y="-646.8" font-family="Times,serif" font-size="14.00">INPUT: &#160;microwave on High</text>
</g>
<!-- E4 -->
<g id="node5" class="node"><title>E4</title>
<ellipse fill="azure" stroke="black" cx="1849" cy="-504" rx="70.6878" ry="18"/>
<text text-anchor="middle" x="1849" y="-500.3" font-family="Times,serif" font-size="14.00">drain (S3,P167)</text>
</g>
<!-- E3&#45;&gt;E4 -->
<g id="edge11" class="edge"><title>E3&#45;&gt;E4</title>
<path fill="none" stroke="black" d="M1849,-588.867C1849,-573.414 1849,-550.416 1849,-532.409"/>
<polygon fill="black" stroke="black" points="1852.5,-532.217 1849,-522.217 1845.5,-532.217 1852.5,-532.217"/>
<text text-anchor="middle" x="1903" y="-559.8" font-family="Times,serif" font-size="14.00">OUTPUT: </text>
<text text-anchor="middle" x="1903" y="-544.8" font-family="Times,serif" font-size="14.00">INPUT: the raisins</text>
</g>
<!-- E5 -->
<g id="node6" class="node"><title>E5</title>
<ellipse fill="azure" stroke="black" cx="1753" cy="-400" rx="61.1893" ry="18"/>
<text text-anchor="middle" x="1753" y="-396.3" font-family="Times,serif" font-size="14.00">set (S3,P186)</text>
</g>
<!-- E4&#45;&gt;E5 -->
<g id="edge12" class="edge"><title>E4&#45;&gt;E5</title>
<path fill="none" stroke="black" d="M1833.15,-486.157C1817.49,-469.521 1793.39,-443.912 1775.7,-425.12"/>
<polygon fill="black" stroke="black" points="1777.96,-422.413 1768.56,-417.53 1772.86,-427.211 1777.96,-422.413"/>
<text text-anchor="middle" x="1844" y="-455.8" font-family="Times,serif" font-size="14.00">OUTPUT: </text>
<text text-anchor="middle" x="1844" y="-440.8" font-family="Times,serif" font-size="14.00">INPUT: </text>
</g>
<!-- E8 -->
<g id="node9" class="node"><title>E8</title>
<ellipse fill="azure" stroke="black" cx="1590" cy="-296" rx="59.5901" ry="18"/>
<text text-anchor="middle" x="1590" y="-292.3" font-family="Times,serif" font-size="14.00">let (S5,P243)</text>
</g>
<!-- E5&#45;&gt;E8 -->
<g id="edge16" class="edge"><title>E5&#45;&gt;E8</title>
<path fill="none" stroke="black" d="M1728.24,-383.508C1700.28,-366.009 1654.62,-337.436 1623.49,-317.954"/>
<polygon fill="black" stroke="black" points="1625.06,-314.808 1614.72,-312.47 1621.34,-320.742 1625.06,-314.808"/>
<text text-anchor="middle" x="1765" y="-351.8" font-family="Times,serif" font-size="14.00">OUTPUT: </text>
<text text-anchor="middle" x="1765" y="-336.8" font-family="Times,serif" font-size="14.00">INPUT: the mixture stand</text>
</g>
<!-- E6 -->
<g id="node7" class="node"><title>E6</title>
<ellipse fill="azure" stroke="black" cx="123" cy="-400" rx="66.0889" ry="18"/>
<text text-anchor="middle" x="123" y="-396.3" font-family="Times,serif" font-size="14.00">beat (S4,P195)</text>
</g>
<!-- E7 -->
<g id="node8" class="node"><title>E7</title>
<ellipse fill="azure" stroke="black" cx="320" cy="-296" rx="65.7887" ry="18"/>
<text text-anchor="middle" x="320" y="-292.3" font-family="Times,serif" font-size="14.00">mix (S4,P224)</text>
</g>
<!-- E6&#45;&gt;E7 -->
<g id="edge14" class="edge"><title>E6&#45;&gt;E7</title>
<path fill="none" stroke="black" d="M152.493,-383.73C186.829,-365.952 243.647,-336.533 281.451,-316.959"/>
<polygon fill="black" stroke="black" points="283.357,-319.914 290.628,-312.208 280.138,-313.698 283.357,-319.914"/>
<text text-anchor="middle" x="277" y="-351.8" font-family="Times,serif" font-size="14.00">OUTPUT: </text>
<text text-anchor="middle" x="277" y="-336.8" font-family="Times,serif" font-size="14.00">INPUT: </text>
</g>
<!-- E10 -->
<g id="node11" class="node"><title>E10</title>
<ellipse fill="azure" stroke="black" cx="378" cy="-193" rx="63.0888" ry="18"/>
<text text-anchor="middle" x="378" y="-189.3" font-family="Times,serif" font-size="14.00">stir (S6,P413)</text>
</g>
<!-- E7&#45;&gt;E10 -->
<g id="edge23" class="edge"><title>E7&#45;&gt;E10</title>
<path fill="none" stroke="black" d="M316.647,-277.8C314.826,-263.723 314.438,-243.791 323,-229 326.275,-223.343 330.871,-218.458 336.025,-214.283"/>
<polygon fill="black" stroke="black" points="338.337,-216.935 344.476,-208.299 334.292,-211.222 338.337,-216.935"/>
<text text-anchor="middle" x="380.5" y="-247.8" font-family="Times,serif" font-size="14.00">OUTPUT: </text>
<text text-anchor="middle" x="380.5" y="-232.8" font-family="Times,serif" font-size="14.00">INPUT: a few times</text>
</g>
<!-- E9 -->
<g id="node10" class="node"><title>E9</title>
<ellipse fill="azure" stroke="black" cx="1400" cy="-193" rx="65.7887" ry="18"/>
<text text-anchor="middle" x="1400" y="-189.3" font-family="Times,serif" font-size="14.00">mix (S6,P312)</text>
</g>
<!-- E8&#45;&gt;E9 -->
<g id="edge19" class="edge"><title>E8&#45;&gt;E9</title>
<path fill="none" stroke="black" d="M1561.96,-280.097C1529.04,-262.594 1474.28,-233.484 1437.67,-214.022"/>
<polygon fill="black" stroke="black" points="1439.25,-210.899 1428.77,-209.295 1435.96,-217.08 1439.25,-210.899"/>
<text text-anchor="middle" x="1549" y="-247.8" font-family="Times,serif" font-size="14.00">OUTPUT: </text>
<text text-anchor="middle" x="1549" y="-232.8" font-family="Times,serif" font-size="14.00">INPUT: </text>
</g>
<!-- E11 -->
<g id="node12" class="node"><title>E11</title>
<ellipse fill="azure" stroke="black" cx="855" cy="-91" rx="74.187" ry="18"/>
<text text-anchor="middle" x="855" y="-87.3" font-family="Times,serif" font-size="14.00">spoon (S7,P432)</text>
</g>
<!-- E9&#45;&gt;E11 -->
<g id="edge25" class="edge"><title>E9&#45;&gt;E11</title>
<path fill="none" stroke="black" d="M1351.66,-180.684C1342.81,-178.714 1333.64,-176.741 1325,-175 1183.49,-146.484 1016.91,-118.34 924.924,-103.269"/>
<polygon fill="black" stroke="black" points="925.332,-99.7892 914.898,-101.63 924.203,-106.697 925.332,-99.7892"/>
<text text-anchor="middle" x="1274.5" y="-145.8" font-family="Times,serif" font-size="14.00">OUTPUT: </text>
<text text-anchor="middle" x="1274.5" y="-130.8" font-family="Times,serif" font-size="14.00">INPUT: the batter</text>
</g>
<!-- E10&#45;&gt;E11 -->
<g id="edge26" class="edge"><title>E10&#45;&gt;E11</title>
<path fill="none" stroke="black" d="M399.18,-175.778C420.576,-160.348 455.213,-137.918 489,-127 539.934,-110.541 681.216,-100.626 772.606,-95.7445"/>
<polygon fill="black" stroke="black" points="772.864,-99.2359 782.667,-95.2167 772.497,-92.2455 772.864,-99.2359"/>
<text text-anchor="middle" x="599.5" y="-145.8" font-family="Times,serif" font-size="14.00">OUTPUT: </text>
<text text-anchor="middle" x="599.5" y="-130.8" font-family="Times,serif" font-size="14.00">INPUT: into the prepared muffin cups</text>
</g>
<!-- EOR -->
<g id="node30" class="node"><title>EOR</title>
<ellipse fill="plum" stroke="black" cx="855" cy="-18" rx="57.3905" ry="18"/>
<text text-anchor="middle" x="855" y="-14.3" font-family="Times,serif" font-size="14.00">Bon appetit!</text>
</g>
<!-- E11&#45;&gt;EOR -->
<g id="edge29" class="edge"><title>E11&#45;&gt;EOR</title>
<path fill="none" stroke="black" d="M855,-72.8129C855,-64.7895 855,-55.0475 855,-46.0691"/>
<polygon fill="black" stroke="black" points="858.5,-46.0288 855,-36.0288 851.5,-46.0289 858.5,-46.0288"/>
</g>
<!-- D6 -->
<g id="node13" class="node"><title>D6</title>
<polygon fill="peachpuff" stroke="black" points="96,-523 0,-523 0,-485 96,-485 96,-523"/>
<text text-anchor="middle" x="48" y="-507.8" font-family="Times,serif" font-size="14.00">DOBJ: egg</text>
<text text-anchor="middle" x="48" y="-492.8" font-family="Times,serif" font-size="14.00">(text: the egg)</text>
</g>
<!-- D6&#45;&gt;E6 -->
<g id="edge1" class="edge"><title>D6&#45;&gt;E6</title>
<path fill="none" stroke="black" d="M61.4085,-484.764C73.4299,-468.415 91.1793,-444.276 104.54,-426.106"/>
<polygon fill="black" stroke="black" points="107.598,-427.855 110.702,-417.725 101.958,-423.709 107.598,-427.855"/>
</g>
<!-- P6_0 -->
<g id="node14" class="node"><title>P6_0</title>
<polygon fill="peachpuff" stroke="black" points="283.5,-523 114.5,-523 114.5,-485 283.5,-485 283.5,-523"/>
<text text-anchor="middle" x="199" y="-507.8" font-family="Times,serif" font-size="14.00">PREP: with milk</text>
<text text-anchor="middle" x="199" y="-492.8" font-family="Times,serif" font-size="14.00">(text: with milk in a bowl)</text>
</g>
<!-- P6_0&#45;&gt;E6 -->
<g id="edge2" class="edge"><title>P6_0&#45;&gt;E6</title>
<path fill="none" stroke="black" d="M185.413,-484.764C173.231,-468.415 155.245,-444.276 141.706,-426.106"/>
<polygon fill="black" stroke="black" points="144.244,-423.653 135.462,-417.725 138.63,-427.835 144.244,-423.653"/>
</g>
<!-- D0 -->
<g id="node15" class="node"><title>D0</title>
<polygon fill="white" stroke="black" points="2355.5,-1006 2020.5,-1006 2020.5,-970 2355.5,-970 2355.5,-1006"/>
<text text-anchor="middle" x="2188" y="-984.3" font-family="Times,serif" font-size="14.00">DOBJ: an oven to 400 degrees F &#45;LRB&#45; 200 degrees C</text>
</g>
<!-- D0&#45;&gt;E0 -->
<g id="edge3" class="edge"><title>D0&#45;&gt;E0</title>
<path fill="none" stroke="black" d="M2188,-969.813C2188,-961.789 2188,-952.047 2188,-943.069"/>
<polygon fill="black" stroke="black" points="2191.5,-943.029 2188,-933.029 2184.5,-943.029 2191.5,-943.029"/>
</g>
<!-- P2_0_0 -->
<g id="node16" class="node"><title>P2_0_0</title>
<polygon fill="white" stroke="black" points="2100.5,-831 1893.5,-831 1893.5,-795 2100.5,-795 2100.5,-831"/>
<text text-anchor="middle" x="1997" y="-809.3" font-family="Times,serif" font-size="14.00">PREP: with paper cupcake liners</text>
</g>
<!-- P2_0_0&#45;&gt;E2 -->
<g id="edge6" class="edge"><title>P2_0_0&#45;&gt;E2</title>
<path fill="none" stroke="black" d="M2006.5,-794.867C2015.32,-778.955 2028.58,-755.044 2038.68,-736.82"/>
<polygon fill="black" stroke="black" points="2041.85,-738.323 2043.64,-727.88 2035.73,-734.929 2041.85,-738.323"/>
</g>
<!-- D3_ing -->
<g id="node17" class="node"><title>D3_ing</title>
<polygon fill="peachpuff" stroke="black" points="1695,-729 1381,-729 1381,-691 1695,-691 1695,-729"/>
<text text-anchor="middle" x="1538" y="-713.8" font-family="Times,serif" font-size="14.00">DOBJ: raisins</text>
<text text-anchor="middle" x="1538" y="-698.8" font-family="Times,serif" font-size="14.00">(text: raisins with water in a microwave&#45;safe bowl )</text>
</g>
<!-- D3_ing&#45;&gt;E3 -->
<g id="edge7" class="edge"><title>D3_ing&#45;&gt;E3</title>
<path fill="none" stroke="black" d="M1593.6,-690.943C1651.62,-672.102 1741.81,-642.812 1798.04,-624.551"/>
<polygon fill="black" stroke="black" points="1799.35,-627.804 1807.78,-621.386 1797.19,-621.146 1799.35,-627.804"/>
</g>
<!-- P3_0_0 -->
<g id="node18" class="node"><title>P3_0_0</title>
<polygon fill="white" stroke="black" points="1844.5,-728 1713.5,-728 1713.5,-692 1844.5,-692 1844.5,-728"/>
<text text-anchor="middle" x="1779" y="-706.3" font-family="Times,serif" font-size="14.00">PREP: for 1 minute</text>
</g>
<!-- P3_0_0&#45;&gt;E3 -->
<g id="edge9" class="edge"><title>P3_0_0&#45;&gt;E3</title>
<path fill="none" stroke="black" d="M1790.87,-691.867C1802,-675.809 1818.78,-651.605 1831.45,-633.32"/>
<polygon fill="black" stroke="black" points="1834.48,-635.093 1837.3,-624.88 1828.73,-631.106 1834.48,-635.093"/>
</g>
<!-- P3_1_0 -->
<g id="node19" class="node"><title>P3_1_0</title>
<polygon fill="white" stroke="black" points="1975,-728 1863,-728 1863,-692 1975,-692 1975,-728"/>
<text text-anchor="middle" x="1919" y="-706.3" font-family="Times,serif" font-size="14.00">PREP: to plump</text>
</g>
<!-- P3_1_0&#45;&gt;E3 -->
<g id="edge10" class="edge"><title>P3_1_0&#45;&gt;E3</title>
<path fill="none" stroke="black" d="M1907.13,-691.867C1896,-675.809 1879.22,-651.605 1866.55,-633.32"/>
<polygon fill="black" stroke="black" points="1869.27,-631.106 1860.7,-624.88 1863.52,-635.093 1869.27,-631.106"/>
</g>
<!-- O5_0_0 -->
<g id="node20" class="node"><title>O5_0_0</title>
<polygon fill="white" stroke="black" points="1760.5,-522 1659.5,-522 1659.5,-486 1760.5,-486 1760.5,-522"/>
<text text-anchor="middle" x="1710" y="-500.3" font-family="Times,serif" font-size="14.00">OTHER: aside</text>
</g>
<!-- O5_0_0&#45;&gt;E5 -->
<g id="edge13" class="edge"><title>O5_0_0&#45;&gt;E5</title>
<path fill="none" stroke="black" d="M1717.29,-485.697C1724.04,-469.702 1734.16,-445.702 1741.9,-427.329"/>
<polygon fill="black" stroke="black" points="1745.15,-428.622 1745.81,-418.047 1738.7,-425.902 1745.15,-428.622"/>
</g>
<!-- P7_0_ing -->
<g id="node21" class="node"><title>P7_0_ing</title>
<polygon fill="peachpuff" stroke="black" points="616.5,-419 207.5,-419 207.5,-381 616.5,-381 616.5,-419"/>
<text text-anchor="middle" x="412" y="-403.8" font-family="Times,serif" font-size="14.00">PREP: in bran cereal (such as Kellogg&#39;s All&#45;Bran® Original Cereal)</text>
<text text-anchor="middle" x="412" y="-388.8" font-family="Times,serif" font-size="14.00">(text: in the bran cereal)</text>
</g>
<!-- P7_0_ing&#45;&gt;E7 -->
<g id="edge15" class="edge"><title>P7_0_ing&#45;&gt;E7</title>
<path fill="none" stroke="black" d="M395.552,-380.764C380.672,-364.267 358.637,-339.837 342.199,-321.612"/>
<polygon fill="black" stroke="black" points="344.382,-318.807 335.086,-313.725 339.184,-323.495 344.382,-318.807"/>
</g>
<!-- O8_0_0 -->
<g id="node22" class="node"><title>O8_0_0</title>
<polygon fill="white" stroke="black" points="1488,-418 1222,-418 1222,-382 1488,-382 1488,-418"/>
<text text-anchor="middle" x="1355" y="-396.3" font-family="Times,serif" font-size="14.00">OTHER: until the cereal absorbs the liquid </text>
</g>
<!-- O8_0_0&#45;&gt;E8 -->
<g id="edge17" class="edge"><title>O8_0_0&#45;&gt;E8</title>
<path fill="none" stroke="black" d="M1394.33,-381.927C1436.94,-363.435 1504.64,-334.051 1548.19,-315.148"/>
<polygon fill="black" stroke="black" points="1549.59,-318.357 1557.36,-311.165 1546.8,-311.936 1549.59,-318.357"/>
</g>
<!-- O8_0_1 -->
<g id="node23" class="node"><title>O8_0_1</title>
<polygon fill="white" stroke="black" points="1674,-418 1506,-418 1506,-382 1674,-382 1674,-418"/>
<text text-anchor="middle" x="1590" y="-396.3" font-family="Times,serif" font-size="14.00">OTHER: &#160;about 5 minutes</text>
</g>
<!-- O8_0_1&#45;&gt;E8 -->
<g id="edge18" class="edge"><title>O8_0_1&#45;&gt;E8</title>
<path fill="none" stroke="black" d="M1590,-381.697C1590,-365.923 1590,-342.364 1590,-324.094"/>
<polygon fill="black" stroke="black" points="1593.5,-324.047 1590,-314.047 1586.5,-324.047 1593.5,-324.047"/>
</g>
<!-- P9_0_ing -->
<g id="node24" class="node"><title>P9_0_ing</title>
<polygon fill="peachpuff" stroke="black" points="1176,-315 572,-315 572,-277 1176,-277 1176,-315"/>
<text text-anchor="middle" x="874" y="-299.8" font-family="Times,serif" font-size="14.00">PREP: in apple, ground cinnamon, ripe banana, melted butter, whole wheat flour, baking soda, honey</text>
<text text-anchor="middle" x="874" y="-284.8" font-family="Times,serif" font-size="14.00">(text: in &#160;cinnamon , &#160;honey, &#160;melted butter , &#160;shredded apple , &#160;baking soda , &#160;flour , &#160;mashed banana )</text>
</g>
<!-- P9_0_ing&#45;&gt;E9 -->
<g id="edge20" class="edge"><title>P9_0_ing&#45;&gt;E9</title>
<path fill="none" stroke="black" d="M977.217,-276.949C1068.77,-260.659 1206.05,-235.549 1325,-211 1330.39,-209.887 1336,-208.691 1341.6,-207.468"/>
<polygon fill="black" stroke="black" points="1342.64,-210.824 1351.65,-205.25 1341.13,-203.989 1342.64,-210.824"/>
</g>
<!-- P9_0_0 -->
<g id="node25" class="node"><title>P9_0_0</title>
<polygon fill="white" stroke="black" points="1385.5,-314 1194.5,-314 1194.5,-278 1385.5,-278 1385.5,-314"/>
<text text-anchor="middle" x="1290" y="-292.3" font-family="Times,serif" font-size="14.00">PREP: in the plumped raisins </text>
</g>
<!-- P9_0_0&#45;&gt;E9 -->
<g id="edge21" class="edge"><title>P9_0_0&#45;&gt;E9</title>
<path fill="none" stroke="black" d="M1308.66,-277.867C1326.73,-261.272 1354.28,-235.976 1374.4,-217.504"/>
<polygon fill="black" stroke="black" points="1376.98,-219.887 1381.98,-210.546 1372.25,-214.731 1376.98,-219.887"/>
</g>
<!-- O9_0_0 -->
<g id="node26" class="node"><title>O9_0_0</title>
<polygon fill="white" stroke="black" points="1512,-314 1404,-314 1404,-278 1512,-278 1512,-314"/>
<text text-anchor="middle" x="1458" y="-292.3" font-family="Times,serif" font-size="14.00">OTHER: gently</text>
</g>
<!-- O9_0_0&#45;&gt;E9 -->
<g id="edge22" class="edge"><title>O9_0_0&#45;&gt;E9</title>
<path fill="none" stroke="black" d="M1448.16,-277.867C1438.98,-261.882 1425.17,-237.825 1414.68,-219.569"/>
<polygon fill="black" stroke="black" points="1417.71,-217.809 1409.69,-210.88 1411.64,-221.295 1417.71,-217.809"/>
</g>
<!-- P10_0_0 -->
<g id="node27" class="node"><title>P10_0_0</title>
<polygon fill="white" stroke="black" points="500.5,-314 403.5,-314 403.5,-278 500.5,-278 500.5,-314"/>
<text text-anchor="middle" x="452" y="-292.3" font-family="Times,serif" font-size="14.00">PREP: to mix</text>
</g>
<!-- P10_0_0&#45;&gt;E10 -->
<g id="edge24" class="edge"><title>P10_0_0&#45;&gt;E10</title>
<path fill="none" stroke="black" d="M452.081,-277.748C451.33,-263.451 448.293,-243.24 438,-229 433.677,-223.02 427.994,-217.899 421.846,-213.568"/>
<polygon fill="black" stroke="black" points="423.584,-210.526 413.26,-208.146 419.846,-216.445 423.584,-210.526"/>
</g>
<!-- O11_0_0 -->
<g id="node28" class="node"><title>O11_0_0</title>
<polygon fill="white" stroke="black" points="813,-211 459,-211 459,-175 813,-175 813,-211"/>
<text text-anchor="middle" x="636" y="-189.3" font-family="Times,serif" font-size="14.00">OTHER: bake in the preheated oven for about 20 minutes </text>
</g>
<!-- O11_0_0&#45;&gt;E11 -->
<g id="edge27" class="edge"><title>O11_0_0&#45;&gt;E11</title>
<path fill="none" stroke="black" d="M673.647,-174.809C712.255,-157.18 772.199,-129.809 812.49,-111.411"/>
<polygon fill="black" stroke="black" points="814.138,-114.506 821.78,-107.169 811.23,-108.139 814.138,-114.506"/>
</g>
<!-- O11_0_1 -->
<g id="node29" class="node"><title>O11_0_1</title>
<polygon fill="white" stroke="black" points="1316.5,-211 831.5,-211 831.5,-175 1316.5,-175 1316.5,-211"/>
<text text-anchor="middle" x="1074" y="-189.3" font-family="Times,serif" font-size="14.00">OTHER: &#160;or until a toothpick inserted into the center of a muffin comes out clean</text>
</g>
<!-- O11_0_1&#45;&gt;E11 -->
<g id="edge28" class="edge"><title>O11_0_1&#45;&gt;E11</title>
<path fill="none" stroke="black" d="M1036.35,-174.809C997.745,-157.18 937.801,-129.809 897.51,-111.411"/>
<polygon fill="black" stroke="black" points="898.77,-108.139 888.22,-107.169 895.862,-114.506 898.77,-108.139"/>
</g>
</g>
</svg>
