<?xml version="1.0" encoding="UTF-8" standalone="no"?>
<!DOCTYPE svg PUBLIC "-//W3C//DTD SVG 1.1//EN"
 "http://www.w3.org/Graphics/SVG/1.1/DTD/svg11.dtd">
<!-- Generated by graphviz version 2.38.0 (20140413.2041)
 -->
<!-- Title: recipe Pages: 1 -->
<svg width="1635pt" height="498pt"
 viewBox="0.00 0.00 1634.50 498.00" xmlns="http://www.w3.org/2000/svg" xmlns:xlink="http://www.w3.org/1999/xlink">
<g id="graph0" class="graph" transform="scale(1 1) rotate(0) translate(4 494)">
<title>recipe</title>
<polygon fill="white" stroke="none" points="-4,4 -4,-494 1630.5,-494 1630.5,4 -4,4"/>
<!-- E0 -->
<g id="node1" class="node"><title>E0</title>
<ellipse fill="azure" stroke="black" cx="1467.5" cy="-398" rx="68.7879" ry="18"/>
<text text-anchor="middle" x="1467.5" y="-394.3" font-family="Times,serif" font-size="14.00">preheat (S0,P0)</text>
</g>
<!-- E1 -->
<g id="node2" class="node"><title>E1</title>
<ellipse fill="azure" stroke="black" cx="1276.5" cy="-295" rx="65.7887" ry="18"/>
<text text-anchor="middle" x="1276.5" y="-291.3" font-family="Times,serif" font-size="14.00">place (S1,P38)</text>
</g>
<!-- E0&#45;&gt;E1 -->
<g id="edge7" class="edge"><title>E0&#45;&gt;E1</title>
<path fill="none" stroke="black" d="M1438.49,-381.66C1405.3,-364.109 1350.84,-335.309 1314.34,-316.008"/>
<polygon fill="black" stroke="black" points="1315.94,-312.899 1305.47,-311.318 1312.67,-319.087 1315.94,-312.899"/>
<text text-anchor="middle" x="1500.5" y="-349.8" font-family="Times,serif" font-size="14.00">OUTPUT: </text>
<text text-anchor="middle" x="1500.5" y="-334.8" font-family="Times,serif" font-size="14.00">INPUT: &#160;or grease with a little butter</text>
</g>
<!-- E6 -->
<g id="node7" class="node"><title>E6</title>
<ellipse fill="azure" stroke="black" cx="927.5" cy="-193" rx="74.187" ry="18"/>
<text text-anchor="middle" x="927.5" y="-189.3" font-family="Times,serif" font-size="14.00">spoon (S6,P218)</text>
</g>
<!-- E1&#45;&gt;E6 -->
<g id="edge12" class="edge"><title>E1&#45;&gt;E6</title>
<path fill="none" stroke="black" d="M1232.65,-281.436C1169.4,-263.312 1052.55,-229.832 983.251,-209.975"/>
<polygon fill="black" stroke="black" points="983.96,-206.537 973.383,-207.147 982.032,-213.266 983.96,-206.537"/>
<text text-anchor="middle" x="1231" y="-247.8" font-family="Times,serif" font-size="14.00">OUTPUT: </text>
<text text-anchor="middle" x="1231" y="-232.8" font-family="Times,serif" font-size="14.00">INPUT: into the muffin tin</text>
</g>
<!-- E2 -->
<g id="node3" class="node"><title>E2</title>
<ellipse fill="azure" stroke="black" cx="918.5" cy="-295" rx="61.1893" ry="18"/>
<text text-anchor="middle" x="918.5" y="-291.3" font-family="Times,serif" font-size="14.00">mix (S2,P91)</text>
</g>
<!-- E2&#45;&gt;E6 -->
<g id="edge11" class="edge"><title>E2&#45;&gt;E6</title>
<path fill="none" stroke="black" d="M920.068,-276.581C921.436,-261.382 923.444,-239.067 925.028,-221.464"/>
<polygon fill="black" stroke="black" points="928.54,-221.493 925.95,-211.219 921.568,-220.865 928.54,-221.493"/>
<text text-anchor="middle" x="975" y="-247.8" font-family="Times,serif" font-size="14.00">OUTPUT: </text>
<text text-anchor="middle" x="975" y="-232.8" font-family="Times,serif" font-size="14.00">INPUT: the batter</text>
</g>
<!-- E3 -->
<g id="node4" class="node"><title>E3</title>
<ellipse fill="azure" stroke="black" cx="131.5" cy="-295" rx="64.9885" ry="18"/>
<text text-anchor="middle" x="131.5" y="-291.3" font-family="Times,serif" font-size="14.00">add (S3,P143)</text>
</g>
<!-- E5 -->
<g id="node6" class="node"><title>E5</title>
<ellipse fill="azure" stroke="black" cx="366.5" cy="-193" rx="63.0888" ry="18"/>
<text text-anchor="middle" x="366.5" y="-189.3" font-family="Times,serif" font-size="14.00">stir (S5,P192)</text>
</g>
<!-- E3&#45;&gt;E5 -->
<g id="edge10" class="edge"><title>E3&#45;&gt;E5</title>
<path fill="none" stroke="black" d="M139.159,-277.022C146.88,-261.939 160.263,-240.546 178.5,-229 198.189,-216.535 252.818,-207.216 298.146,-201.341"/>
<polygon fill="black" stroke="black" points="298.768,-204.79 308.252,-200.067 297.892,-197.845 298.768,-204.79"/>
<text text-anchor="middle" x="273.5" y="-247.8" font-family="Times,serif" font-size="14.00">OUTPUT: </text>
<text text-anchor="middle" x="273.5" y="-232.8" font-family="Times,serif" font-size="14.00">INPUT: until completely smooth</text>
</g>
<!-- E4 -->
<g id="node5" class="node"><title>E4</title>
<ellipse fill="azure" stroke="black" cx="381.5" cy="-295" rx="64.9885" ry="18"/>
<text text-anchor="middle" x="381.5" y="-291.3" font-family="Times,serif" font-size="14.00">add (S4,P164)</text>
</g>
<!-- E4&#45;&gt;E5 -->
<g id="edge9" class="edge"><title>E4&#45;&gt;E5</title>
<path fill="none" stroke="black" d="M378.887,-276.581C376.607,-261.382 373.26,-239.067 370.62,-221.464"/>
<polygon fill="black" stroke="black" points="374.028,-220.589 369.083,-211.219 367.105,-221.628 374.028,-220.589"/>
<text text-anchor="middle" x="408.5" y="-247.8" font-family="Times,serif" font-size="14.00">OUTPUT: </text>
<text text-anchor="middle" x="408.5" y="-232.8" font-family="Times,serif" font-size="14.00">INPUT: </text>
</g>
<!-- E7 -->
<g id="node8" class="node"><title>E7</title>
<ellipse fill="azure" stroke="black" cx="641.5" cy="-91" rx="68.7879" ry="18"/>
<text text-anchor="middle" x="641.5" y="-87.3" font-family="Times,serif" font-size="14.00">bake (S7,P249)</text>
</g>
<!-- E5&#45;&gt;E7 -->
<g id="edge14" class="edge"><title>E5&#45;&gt;E7</title>
<path fill="none" stroke="black" d="M386.748,-175.89C406.49,-160.988 437.927,-139.335 468.5,-127 500.425,-114.119 537.646,-105.804 569.367,-100.527"/>
<polygon fill="black" stroke="black" points="570.134,-103.949 579.459,-98.9182 569.033,-97.0359 570.134,-103.949"/>
<text text-anchor="middle" x="553" y="-145.8" font-family="Times,serif" font-size="14.00">OUTPUT: </text>
<text text-anchor="middle" x="553" y="-130.8" font-family="Times,serif" font-size="14.00">INPUT: for 30 to 40 minutes</text>
</g>
<!-- E6&#45;&gt;E7 -->
<g id="edge13" class="edge"><title>E6&#45;&gt;E7</title>
<path fill="none" stroke="black" d="M887.13,-177.885C835.564,-159.855 746.368,-128.667 690.829,-109.248"/>
<polygon fill="black" stroke="black" points="691.8,-105.88 681.205,-105.883 689.489,-112.487 691.8,-105.88"/>
<text text-anchor="middle" x="858.5" y="-145.8" font-family="Times,serif" font-size="14.00">OUTPUT: </text>
<text text-anchor="middle" x="858.5" y="-130.8" font-family="Times,serif" font-size="14.00">INPUT: </text>
</g>
<!-- EOR -->
<g id="node17" class="node"><title>EOR</title>
<ellipse fill="plum" stroke="black" cx="641.5" cy="-18" rx="57.3905" ry="18"/>
<text text-anchor="middle" x="641.5" y="-14.3" font-family="Times,serif" font-size="14.00">Bon appetit!</text>
</g>
<!-- E7&#45;&gt;EOR -->
<g id="edge16" class="edge"><title>E7&#45;&gt;EOR</title>
<path fill="none" stroke="black" d="M641.5,-72.8129C641.5,-64.7895 641.5,-55.0475 641.5,-46.0691"/>
<polygon fill="black" stroke="black" points="645,-46.0288 641.5,-36.0288 638,-46.0289 645,-46.0288"/>
</g>
<!-- D4 -->
<g id="node9" class="node"><title>D4</title>
<polygon fill="peachpuff" stroke="black" points="515.5,-417 255.5,-417 255.5,-379 515.5,-379 515.5,-417"/>
<text text-anchor="middle" x="385.5" y="-401.8" font-family="Times,serif" font-size="14.00">DOBJ: all&#45;purpose flour, baking soda, salt</text>
<text text-anchor="middle" x="385.5" y="-386.8" font-family="Times,serif" font-size="14.00">(text: flour , baking soda , salt)</text>
</g>
<!-- D4&#45;&gt;E4 -->
<g id="edge1" class="edge"><title>D4&#45;&gt;E4</title>
<path fill="none" stroke="black" d="M384.785,-378.943C384.174,-363.531 383.287,-341.127 382.589,-323.488"/>
<polygon fill="black" stroke="black" points="386.075,-323.08 382.182,-313.226 379.081,-323.357 386.075,-323.08"/>
</g>
<!-- D0 -->
<g id="node10" class="node"><title>D0</title>
<polygon fill="white" stroke="black" points="1626.5,-490 1308.5,-490 1308.5,-454 1626.5,-454 1626.5,-490"/>
<text text-anchor="middle" x="1467.5" y="-468.3" font-family="Times,serif" font-size="14.00">DOBJ: oven to 350 degrees F &#45;LRB&#45; 175 degrees C</text>
</g>
<!-- D0&#45;&gt;E0 -->
<g id="edge2" class="edge"><title>D0&#45;&gt;E0</title>
<path fill="none" stroke="black" d="M1467.5,-453.937C1467.5,-445.807 1467.5,-435.876 1467.5,-426.705"/>
<polygon fill="black" stroke="black" points="1471,-426.441 1467.5,-416.441 1464,-426.441 1471,-426.441"/>
</g>
<!-- D3 -->
<g id="node11" class="node"><title>D3</title>
<polygon fill="peachpuff" stroke="black" points="237,-417 0,-417 0,-379 237,-379 237,-417"/>
<text text-anchor="middle" x="118.5" y="-401.8" font-family="Times,serif" font-size="14.00">DOBJ: ripe bananas, chopped walnuts</text>
<text text-anchor="middle" x="118.5" y="-386.8" font-family="Times,serif" font-size="14.00">(text: bananas, walnuts)</text>
</g>
<!-- D3&#45;&gt;E3 -->
<g id="edge3" class="edge"><title>D3&#45;&gt;E3</title>
<path fill="none" stroke="black" d="M120.824,-378.943C122.808,-363.531 125.692,-341.127 127.962,-323.488"/>
<polygon fill="black" stroke="black" points="131.477,-323.591 129.283,-313.226 124.535,-322.698 131.477,-323.591"/>
</g>
<!-- D2 -->
<g id="node12" class="node"><title>D2</title>
<polygon fill="peachpuff" stroke="black" points="795.5,-417 561.5,-417 561.5,-379 795.5,-379 795.5,-417"/>
<text text-anchor="middle" x="678.5" y="-401.8" font-family="Times,serif" font-size="14.00">DOBJ: vegetable oil, white sugar, egg</text>
<text text-anchor="middle" x="678.5" y="-386.8" font-family="Times,serif" font-size="14.00">(text: sugar , oil , egg)</text>
</g>
<!-- D2&#45;&gt;E2 -->
<g id="edge4" class="edge"><title>D2&#45;&gt;E2</title>
<path fill="none" stroke="black" d="M721.407,-378.943C764.903,-360.639 831.834,-332.472 875.399,-314.138"/>
<polygon fill="black" stroke="black" points="877.003,-317.261 884.862,-310.156 874.288,-310.809 877.003,-317.261"/>
</g>
<!-- P2_0 -->
<g id="node13" class="node"><title>P2_0</title>
<polygon fill="white" stroke="black" points="1021.5,-416 813.5,-416 813.5,-380 1021.5,-380 1021.5,-416"/>
<text text-anchor="middle" x="917.5" y="-394.3" font-family="Times,serif" font-size="14.00">PREP: until creamy, light yellow</text>
</g>
<!-- P2_0&#45;&gt;E2 -->
<g id="edge5" class="edge"><title>P2_0&#45;&gt;E2</title>
<path fill="none" stroke="black" d="M917.67,-379.867C917.823,-364.414 918.05,-341.416 918.229,-323.409"/>
<polygon fill="black" stroke="black" points="921.73,-323.252 918.33,-313.217 914.731,-323.182 921.73,-323.252"/>
</g>
<!-- P2_1 -->
<g id="node14" class="node"><title>P2_1</title>
<polygon fill="white" stroke="black" points="1153.5,-416 1039.5,-416 1039.5,-380 1153.5,-380 1153.5,-416"/>
<text text-anchor="middle" x="1096.5" y="-394.3" font-family="Times,serif" font-size="14.00">PREP: in a bowl</text>
</g>
<!-- P2_1&#45;&gt;E2 -->
<g id="edge6" class="edge"><title>P2_1&#45;&gt;E2</title>
<path fill="none" stroke="black" d="M1066.3,-379.867C1035.3,-362.273 987.054,-334.899 954.181,-316.246"/>
<polygon fill="black" stroke="black" points="955.769,-313.123 945.344,-311.232 952.314,-319.211 955.769,-313.123"/>
</g>
<!-- D1_1 -->
<g id="node15" class="node"><title>D1_1</title>
<polygon fill="white" stroke="black" points="1381,-416 1172,-416 1172,-380 1381,-380 1381,-416"/>
<text text-anchor="middle" x="1276.5" y="-394.3" font-family="Times,serif" font-size="14.00">DOBJ: muffin cups in muffin tin </text>
</g>
<!-- D1_1&#45;&gt;E1 -->
<g id="edge8" class="edge"><title>D1_1&#45;&gt;E1</title>
<path fill="none" stroke="black" d="M1276.5,-379.867C1276.5,-364.414 1276.5,-341.416 1276.5,-323.409"/>
<polygon fill="black" stroke="black" points="1280,-323.217 1276.5,-313.217 1273,-323.217 1280,-323.217"/>
</g>
<!-- O7_0_0 -->
<g id="node16" class="node"><title>O7_0_0</title>
<polygon fill="white" stroke="black" points="835.5,-211 447.5,-211 447.5,-175 835.5,-175 835.5,-211"/>
<text text-anchor="middle" x="641.5" y="-189.3" font-family="Times,serif" font-size="14.00">OTHER: until toothpick poked in center muffin comes out clean</text>
</g>
<!-- O7_0_0&#45;&gt;E7 -->
<g id="edge15" class="edge"><title>O7_0_0&#45;&gt;E7</title>
<path fill="none" stroke="black" d="M641.5,-174.581C641.5,-159.382 641.5,-137.067 641.5,-119.464"/>
<polygon fill="black" stroke="black" points="645,-119.219 641.5,-109.219 638,-119.219 645,-119.219"/>
</g>
</g>
</svg>
