<?xml version="1.0" encoding="UTF-8" standalone="no"?>
<!DOCTYPE svg PUBLIC "-//W3C//DTD SVG 1.1//EN"
 "http://www.w3.org/Graphics/SVG/1.1/DTD/svg11.dtd">
<!-- Generated by graphviz version 2.38.0 (20140413.2041)
 -->
<!-- Title: recipe Pages: 1 -->
<svg width="1402pt" height="808pt"
 viewBox="0.00 0.00 1402.00 808.00" xmlns="http://www.w3.org/2000/svg" xmlns:xlink="http://www.w3.org/1999/xlink">
<g id="graph0" class="graph" transform="scale(1 1) rotate(0) translate(4 804)">
<title>recipe</title>
<polygon fill="white" stroke="none" points="-4,4 -4,-804 1398,-804 1398,4 -4,4"/>
<!-- E0 -->
<g id="node1" class="node"><title>E0</title>
<ellipse fill="azure" stroke="black" cx="1150" cy="-295" rx="68.7879" ry="18"/>
<text text-anchor="middle" x="1150" y="-291.3" font-family="Times,serif" font-size="14.00">preheat (S0,P0)</text>
</g>
<!-- E7 -->
<g id="node8" class="node"><title>E7</title>
<ellipse fill="azure" stroke="black" cx="1077" cy="-193" rx="68.7879" ry="18"/>
<text text-anchor="middle" x="1077" y="-189.3" font-family="Times,serif" font-size="14.00">bake (S7,P320)</text>
</g>
<!-- E0&#45;&gt;E7 -->
<g id="edge17" class="edge"><title>E0&#45;&gt;E7</title>
<path fill="none" stroke="black" d="M1137.62,-277.036C1126.08,-261.234 1108.73,-237.461 1095.54,-219.397"/>
<polygon fill="black" stroke="black" points="1098.17,-217.06 1089.44,-211.047 1092.51,-221.187 1098.17,-217.06"/>
<text text-anchor="middle" x="1259" y="-247.8" font-family="Times,serif" font-size="14.00">OUTPUT: </text>
<text text-anchor="middle" x="1259" y="-232.8" font-family="Times,serif" font-size="14.00">INPUT: in preheated oven or 15 to 20 minutes</text>
</g>
<!-- E1 -->
<g id="node2" class="node"><title>E1</title>
<ellipse fill="azure" stroke="black" cx="762" cy="-397" rx="69.5877" ry="18"/>
<text text-anchor="middle" x="762" y="-393.3" font-family="Times,serif" font-size="14.00">grease (S1,P45)</text>
</g>
<!-- E6 -->
<g id="node7" class="node"><title>E6</title>
<ellipse fill="azure" stroke="black" cx="985" cy="-295" rx="69.5877" ry="18"/>
<text text-anchor="middle" x="985" y="-291.3" font-family="Times,serif" font-size="14.00">pour (S6,P287)</text>
</g>
<!-- E1&#45;&gt;E6 -->
<g id="edge15" class="edge"><title>E1&#45;&gt;E6</title>
<path fill="none" stroke="black" d="M755.384,-378.989C750.979,-364.508 747.826,-344.038 759,-331 777.798,-309.066 848.245,-300.759 905.551,-297.674"/>
<polygon fill="black" stroke="black" points="905.902,-301.161 915.717,-297.173 905.557,-294.17 905.902,-301.161"/>
<text text-anchor="middle" x="859" y="-349.8" font-family="Times,serif" font-size="14.00">OUTPUT: </text>
<text text-anchor="middle" x="859" y="-334.8" font-family="Times,serif" font-size="14.00">INPUT: into prepared muffin cups</text>
</g>
<!-- E2 -->
<g id="node3" class="node"><title>E2</title>
<ellipse fill="azure" stroke="black" cx="407" cy="-706" rx="78.7863" ry="18"/>
<text text-anchor="middle" x="407" y="-702.3" font-family="Times,serif" font-size="14.00">combine (S2,P82)</text>
</g>
<!-- E3 -->
<g id="node4" class="node"><title>E3</title>
<ellipse fill="azure" stroke="black" cx="736" cy="-603" rx="62.2891" ry="18"/>
<text text-anchor="middle" x="736" y="-599.3" font-family="Times,serif" font-size="14.00">sift (S3,P148)</text>
</g>
<!-- E2&#45;&gt;E3 -->
<g id="edge7" class="edge"><title>E2&#45;&gt;E3</title>
<path fill="none" stroke="black" d="M441.831,-689.777C476.01,-675.265 529.867,-653.53 578,-639 609.398,-629.522 645.015,-621.41 674.475,-615.389"/>
<polygon fill="black" stroke="black" points="675.508,-618.752 684.621,-613.348 674.127,-611.889 675.508,-618.752"/>
<text text-anchor="middle" x="655" y="-657.8" font-family="Times,serif" font-size="14.00">OUTPUT: </text>
<text text-anchor="middle" x="655" y="-642.8" font-family="Times,serif" font-size="14.00">INPUT: in a separate bowl</text>
</g>
<!-- E4 -->
<g id="node5" class="node"><title>E4</title>
<ellipse fill="azure" stroke="black" cx="930" cy="-500" rx="63.0888" ry="18"/>
<text text-anchor="middle" x="930" y="-496.3" font-family="Times,serif" font-size="14.00">stir (S4,P212)</text>
</g>
<!-- E3&#45;&gt;E4 -->
<g id="edge9" class="edge"><title>E3&#45;&gt;E4</title>
<path fill="none" stroke="black" d="M748.116,-585.139C759.607,-570.348 778.175,-549.331 799,-537 805.828,-532.957 841.68,-523.216 874.153,-514.885"/>
<polygon fill="black" stroke="black" points="875.261,-518.215 884.087,-512.353 873.532,-511.431 875.261,-518.215"/>
<text text-anchor="middle" x="862.5" y="-555.8" font-family="Times,serif" font-size="14.00">OUTPUT: </text>
<text text-anchor="middle" x="862.5" y="-540.8" font-family="Times,serif" font-size="14.00">INPUT: flour mixture</text>
</g>
<!-- E5 -->
<g id="node6" class="node"><title>E5</title>
<ellipse fill="azure" stroke="black" cx="950" cy="-397" rx="66.0889" ry="18"/>
<text text-anchor="middle" x="950" y="-393.3" font-family="Times,serif" font-size="14.00">fold (S5,P256)</text>
</g>
<!-- E4&#45;&gt;E5 -->
<g id="edge12" class="edge"><title>E4&#45;&gt;E5</title>
<path fill="none" stroke="black" d="M933.393,-481.867C936.467,-466.341 941.05,-443.2 944.623,-425.156"/>
<polygon fill="black" stroke="black" points="948.081,-425.707 946.591,-415.217 941.215,-424.347 948.081,-425.707"/>
<text text-anchor="middle" x="974" y="-451.8" font-family="Times,serif" font-size="14.00">OUTPUT: </text>
<text text-anchor="middle" x="974" y="-436.8" font-family="Times,serif" font-size="14.00">INPUT: </text>
</g>
<!-- E5&#45;&gt;E6 -->
<g id="edge14" class="edge"><title>E5&#45;&gt;E6</title>
<path fill="none" stroke="black" d="M956.448,-378.947C958.571,-373.252 960.919,-366.864 963,-361 967.437,-348.495 972.178,-334.568 976.118,-322.823"/>
<polygon fill="black" stroke="black" points="979.499,-323.748 979.346,-313.154 972.859,-321.531 979.499,-323.748"/>
<text text-anchor="middle" x="1013" y="-349.8" font-family="Times,serif" font-size="14.00">OUTPUT: </text>
<text text-anchor="middle" x="1013" y="-334.8" font-family="Times,serif" font-size="14.00">INPUT: batter</text>
</g>
<!-- E6&#45;&gt;E7 -->
<g id="edge16" class="edge"><title>E6&#45;&gt;E7</title>
<path fill="none" stroke="black" d="M996.056,-277.097C1005.38,-263.434 1019.49,-244.062 1034,-229 1038.11,-224.737 1042.72,-220.502 1047.37,-216.528"/>
<polygon fill="black" stroke="black" points="1049.64,-219.193 1055.12,-210.127 1045.18,-213.795 1049.64,-219.193"/>
<text text-anchor="middle" x="1066" y="-247.8" font-family="Times,serif" font-size="14.00">OUTPUT: </text>
<text text-anchor="middle" x="1066" y="-232.8" font-family="Times,serif" font-size="14.00">INPUT: </text>
</g>
<!-- E8 -->
<g id="node9" class="node"><title>E8</title>
<ellipse fill="azure" stroke="black" cx="686" cy="-91" rx="79.0865" ry="18"/>
<text text-anchor="middle" x="686" y="-87.3" font-family="Times,serif" font-size="14.00">remove (S8,P373)</text>
</g>
<!-- E7&#45;&gt;E8 -->
<g id="edge18" class="edge"><title>E7&#45;&gt;E8</title>
<path fill="none" stroke="black" d="M1029.45,-179.838C958.451,-161.681 824.769,-127.491 746.776,-107.544"/>
<polygon fill="black" stroke="black" points="747.174,-104.033 736.618,-104.946 745.439,-110.815 747.174,-104.033"/>
<text text-anchor="middle" x="986" y="-145.8" font-family="Times,serif" font-size="14.00">OUTPUT: </text>
<text text-anchor="middle" x="986" y="-130.8" font-family="Times,serif" font-size="14.00">INPUT: muffins</text>
</g>
<!-- EOR -->
<g id="node24" class="node"><title>EOR</title>
<ellipse fill="plum" stroke="black" cx="686" cy="-18" rx="57.3905" ry="18"/>
<text text-anchor="middle" x="686" y="-14.3" font-family="Times,serif" font-size="14.00">Bon appetit!</text>
</g>
<!-- E8&#45;&gt;EOR -->
<g id="edge23" class="edge"><title>E8&#45;&gt;EOR</title>
<path fill="none" stroke="black" d="M686,-72.8129C686,-64.7895 686,-55.0475 686,-46.0691"/>
<polygon fill="black" stroke="black" points="689.5,-46.0288 686,-36.0288 682.5,-46.0289 689.5,-46.0288"/>
</g>
<!-- D1 -->
<g id="node10" class="node"><title>D1</title>
<polygon fill="white" stroke="black" points="715,-518 523,-518 523,-482 715,-482 715,-518"/>
<text text-anchor="middle" x="619" y="-496.3" font-family="Times,serif" font-size="14.00">DOBJ: one 12 cup muffin pan</text>
</g>
<!-- D1&#45;&gt;E1 -->
<g id="edge1" class="edge"><title>D1&#45;&gt;E1</title>
<path fill="none" stroke="black" d="M643.258,-481.867C667.313,-464.877 704.28,-438.767 730.572,-420.198"/>
<polygon fill="black" stroke="black" points="732.895,-422.841 739.044,-414.213 728.857,-417.124 732.895,-422.841"/>
</g>
<!-- O1_0 -->
<g id="node11" class="node"><title>O1_0</title>
<polygon fill="white" stroke="black" points="843,-518 733,-518 733,-482 843,-482 843,-518"/>
<text text-anchor="middle" x="788" y="-496.3" font-family="Times,serif" font-size="14.00">OTHER: lightly</text>
</g>
<!-- O1_0&#45;&gt;E1 -->
<g id="edge2" class="edge"><title>O1_0&#45;&gt;E1</title>
<path fill="none" stroke="black" d="M783.589,-481.867C779.574,-466.269 773.58,-442.983 768.926,-424.903"/>
<polygon fill="black" stroke="black" points="772.315,-424.029 766.432,-415.217 765.536,-425.774 772.315,-424.029"/>
</g>
<!-- D0 -->
<g id="node12" class="node"><title>D0</title>
<polygon fill="white" stroke="black" points="1352,-415 1034,-415 1034,-379 1352,-379 1352,-415"/>
<text text-anchor="middle" x="1193" y="-393.3" font-family="Times,serif" font-size="14.00">DOBJ: oven to 350 degrees F &#45;LRB&#45; 175 degrees C</text>
</g>
<!-- D0&#45;&gt;E0 -->
<g id="edge3" class="edge"><title>D0&#45;&gt;E0</title>
<path fill="none" stroke="black" d="M1185.51,-378.581C1178.85,-363.095 1169.02,-340.222 1161.38,-322.473"/>
<polygon fill="black" stroke="black" points="1164.57,-321.023 1157.4,-313.219 1158.14,-323.788 1164.57,-321.023"/>
</g>
<!-- D2 -->
<g id="node13" class="node"><title>D2</title>
<polygon fill="peachpuff" stroke="black" points="482,-800 0,-800 0,-762 482,-762 482,-800"/>
<text text-anchor="middle" x="241" y="-784.8" font-family="Times,serif" font-size="14.00">DOBJ: vanilla extract, mashed ripe banana, applesauce, egg, packed brown sugar</text>
<text text-anchor="middle" x="241" y="-769.8" font-family="Times,serif" font-size="14.00">(text: egg , banana , brown sugar , applesauce, vanilla)</text>
</g>
<!-- D2&#45;&gt;E2 -->
<g id="edge4" class="edge"><title>D2&#45;&gt;E2</title>
<path fill="none" stroke="black" d="M282.034,-761.955C306.638,-751.135 337.918,-737.379 363.028,-726.337"/>
<polygon fill="black" stroke="black" points="364.578,-729.479 372.323,-722.25 361.76,-723.071 364.578,-729.479"/>
</g>
<!-- P2_0 -->
<g id="node14" class="node"><title>P2_0</title>
<polygon fill="white" stroke="black" points="646,-799 500,-799 500,-763 646,-763 646,-799"/>
<text text-anchor="middle" x="573" y="-777.3" font-family="Times,serif" font-size="14.00">PREP: in a large bowl</text>
</g>
<!-- P2_0&#45;&gt;E2 -->
<g id="edge5" class="edge"><title>P2_0&#45;&gt;E2</title>
<path fill="none" stroke="black" d="M534.08,-762.885C509.159,-751.925 476.768,-737.681 450.925,-726.316"/>
<polygon fill="black" stroke="black" points="452.289,-723.093 441.726,-722.271 449.471,-729.501 452.289,-723.093"/>
</g>
<!-- D3_ing -->
<g id="node15" class="node"><title>D3_ing</title>
<polygon fill="peachpuff" stroke="black" points="968.5,-725 503.5,-725 503.5,-687 968.5,-687 968.5,-725"/>
<text text-anchor="middle" x="736" y="-709.8" font-family="Times,serif" font-size="14.00">DOBJ: baking powder, ground cinnamon, all&#45;purpose flour, baking soda, salt</text>
<text text-anchor="middle" x="736" y="-694.8" font-family="Times,serif" font-size="14.00">(text: &#160;salt, &#160;baking powder , flour , &#160;baking soda , &#160;cinnamon)</text>
</g>
<!-- D3_ing&#45;&gt;E3 -->
<g id="edge6" class="edge"><title>D3_ing&#45;&gt;E3</title>
<path fill="none" stroke="black" d="M736,-686.943C736,-671.531 736,-649.127 736,-631.488"/>
<polygon fill="black" stroke="black" points="739.5,-631.226 736,-621.226 732.5,-631.226 739.5,-631.226"/>
</g>
<!-- O3_0_0 -->
<g id="node16" class="node"><title>O3_0_0</title>
<polygon fill="white" stroke="black" points="1105.5,-724 986.5,-724 986.5,-688 1105.5,-688 1105.5,-724"/>
<text text-anchor="middle" x="1046" y="-702.3" font-family="Times,serif" font-size="14.00">OTHER: together</text>
</g>
<!-- O3_0_0&#45;&gt;E3 -->
<g id="edge8" class="edge"><title>O3_0_0&#45;&gt;E3</title>
<path fill="none" stroke="black" d="M993.763,-687.981C935.651,-669.047 842.463,-638.686 785.486,-620.123"/>
<polygon fill="black" stroke="black" points="786.223,-616.682 775.63,-616.912 784.054,-623.337 786.223,-616.682"/>
</g>
<!-- D4_1 -->
<g id="node17" class="node"><title>D4_1</title>
<polygon fill="white" stroke="black" points="1043.5,-621 816.5,-621 816.5,-585 1043.5,-585 1043.5,-621"/>
<text text-anchor="middle" x="930" y="-599.3" font-family="Times,serif" font-size="14.00">DOBJ: &#160;oatmeal into banana mixture</text>
</g>
<!-- D4_1&#45;&gt;E4 -->
<g id="edge10" class="edge"><title>D4_1&#45;&gt;E4</title>
<path fill="none" stroke="black" d="M930,-584.867C930,-569.414 930,-546.416 930,-528.409"/>
<polygon fill="black" stroke="black" points="933.5,-528.217 930,-518.217 926.5,-528.217 933.5,-528.217"/>
</g>
<!-- O4_0_0 -->
<g id="node18" class="node"><title>O4_0_0</title>
<polygon fill="white" stroke="black" points="1170,-621 1062,-621 1062,-585 1170,-585 1170,-621"/>
<text text-anchor="middle" x="1116" y="-599.3" font-family="Times,serif" font-size="14.00">OTHER: gently</text>
</g>
<!-- O4_0_0&#45;&gt;E4 -->
<g id="edge11" class="edge"><title>O4_0_0&#45;&gt;E4</title>
<path fill="none" stroke="black" d="M1084.45,-584.867C1051.91,-567.198 1001.2,-539.665 966.845,-521.007"/>
<polygon fill="black" stroke="black" points="968.509,-517.928 958.051,-516.232 965.168,-524.08 968.509,-517.928"/>
</g>
<!-- P5_0_ing -->
<g id="node19" class="node"><title>P5_0_ing</title>
<polygon fill="peachpuff" stroke="black" points="1340.5,-519 1011.5,-519 1011.5,-481 1340.5,-481 1340.5,-519"/>
<text text-anchor="middle" x="1176" y="-503.8" font-family="Times,serif" font-size="14.00">PREP: in semisweet chocolate chips, chopped walnuts</text>
<text text-anchor="middle" x="1176" y="-488.8" font-family="Times,serif" font-size="14.00">(text: in &#160;walnuts, chocolate chips)</text>
</g>
<!-- P5_0_ing&#45;&gt;E5 -->
<g id="edge13" class="edge"><title>P5_0_ing&#45;&gt;E5</title>
<path fill="none" stroke="black" d="M1135.6,-480.943C1095.19,-462.888 1033.32,-435.237 992.273,-416.892"/>
<polygon fill="black" stroke="black" points="993.638,-413.668 983.08,-412.783 990.781,-420.059 993.638,-413.668"/>
</g>
<!-- P8_0_0 -->
<g id="node20" class="node"><title>P8_0_0</title>
<polygon fill="white" stroke="black" points="465.5,-211 340.5,-211 340.5,-175 465.5,-175 465.5,-211"/>
<text text-anchor="middle" x="403" y="-189.3" font-family="Times,serif" font-size="14.00">PREP: from &#160;place</text>
</g>
<!-- P8_0_0&#45;&gt;E8 -->
<g id="edge19" class="edge"><title>P8_0_0&#45;&gt;E8</title>
<path fill="none" stroke="black" d="M451.328,-174.923C502.495,-156.843 582.921,-128.424 635.058,-110.001"/>
<polygon fill="black" stroke="black" points="636.508,-113.2 644.771,-106.569 634.176,-106.6 636.508,-113.2"/>
</g>
<!-- P8_0_1 -->
<g id="node21" class="node"><title>P8_0_1</title>
<polygon fill="white" stroke="black" points="596.5,-211 483.5,-211 483.5,-175 596.5,-175 596.5,-211"/>
<text text-anchor="middle" x="540" y="-189.3" font-family="Times,serif" font-size="14.00">PREP: from pan</text>
</g>
<!-- P8_0_1&#45;&gt;E8 -->
<g id="edge20" class="edge"><title>P8_0_1&#45;&gt;E8</title>
<path fill="none" stroke="black" d="M565.098,-174.809C589.67,-157.979 627.206,-132.27 653.93,-113.966"/>
<polygon fill="black" stroke="black" points="655.924,-116.843 662.196,-108.304 651.968,-111.067 655.924,-116.843"/>
</g>
<!-- P8_1_0 -->
<g id="node22" class="node"><title>P8_1_0</title>
<polygon fill="white" stroke="black" points="757.5,-211 614.5,-211 614.5,-175 757.5,-175 757.5,-211"/>
<text text-anchor="middle" x="686" y="-189.3" font-family="Times,serif" font-size="14.00">PREP: on a wire rack</text>
</g>
<!-- P8_1_0&#45;&gt;E8 -->
<g id="edge21" class="edge"><title>P8_1_0&#45;&gt;E8</title>
<path fill="none" stroke="black" d="M686,-174.581C686,-159.382 686,-137.067 686,-119.464"/>
<polygon fill="black" stroke="black" points="689.5,-119.219 686,-109.219 682.5,-119.219 689.5,-119.219"/>
</g>
<!-- O8_0_0 -->
<g id="node23" class="node"><title>O8_0_0</title>
<polygon fill="white" stroke="black" points="990.5,-211 775.5,-211 775.5,-175 990.5,-175 990.5,-211"/>
<text text-anchor="middle" x="883" y="-189.3" font-family="Times,serif" font-size="14.00">OTHER: to let cool before serving</text>
</g>
<!-- O8_0_0&#45;&gt;E8 -->
<g id="edge22" class="edge"><title>O8_0_0&#45;&gt;E8</title>
<path fill="none" stroke="black" d="M849.134,-174.809C815.001,-157.483 762.328,-130.745 726.121,-112.366"/>
<polygon fill="black" stroke="black" points="727.335,-109.057 716.834,-107.652 724.166,-115.299 727.335,-109.057"/>
</g>
</g>
</svg>
