<?xml version="1.0" encoding="UTF-8" standalone="no"?>
<!DOCTYPE svg PUBLIC "-//W3C//DTD SVG 1.1//EN"
 "http://www.w3.org/Graphics/SVG/1.1/DTD/svg11.dtd">
<!-- Generated by graphviz version 2.38.0 (20140413.2041)
 -->
<!-- Title: recipe Pages: 1 -->
<svg width="2011pt" height="808pt"
 viewBox="0.00 0.00 2010.50 808.00" xmlns="http://www.w3.org/2000/svg" xmlns:xlink="http://www.w3.org/1999/xlink">
<g id="graph0" class="graph" transform="scale(1 1) rotate(0) translate(4 804)">
<title>recipe</title>
<polygon fill="white" stroke="none" points="-4,4 -4,-804 2006.5,-804 2006.5,4 -4,4"/>
<!-- E0 -->
<g id="node1" class="node"><title>E0</title>
<ellipse fill="azure" stroke="black" cx="1843.5" cy="-193" rx="68.7879" ry="18"/>
<text text-anchor="middle" x="1843.5" y="-189.3" font-family="Times,serif" font-size="14.00">preheat (S0,P0)</text>
</g>
<!-- E9 -->
<g id="node10" class="node"><title>E9</title>
<ellipse fill="azure" stroke="black" cx="1361.5" cy="-91" rx="73.387" ry="18"/>
<text text-anchor="middle" x="1361.5" y="-87.3" font-family="Times,serif" font-size="14.00">bake (S10,P375)</text>
</g>
<!-- E0&#45;&gt;E9 -->
<g id="edge21" class="edge"><title>E0&#45;&gt;E9</title>
<path fill="none" stroke="black" d="M1792.33,-180.756C1783.39,-178.818 1774.18,-176.837 1765.5,-175 1645.92,-149.687 1506.19,-121.228 1426.34,-105.073"/>
<polygon fill="black" stroke="black" points="1426.93,-101.621 1416.43,-103.069 1425.54,-108.482 1426.93,-101.621"/>
<text text-anchor="middle" x="1764" y="-145.8" font-family="Times,serif" font-size="14.00">OUTPUT: </text>
<text text-anchor="middle" x="1764" y="-130.8" font-family="Times,serif" font-size="14.00">INPUT: in the preheated oven</text>
</g>
<!-- E1 -->
<g id="node2" class="node"><title>E1</title>
<ellipse fill="azure" stroke="black" cx="496.5" cy="-708" rx="106.681" ry="18"/>
<text text-anchor="middle" x="496.5" y="-704.3" font-family="Times,serif" font-size="14.00">grease and flour (S1,P38)</text>
</g>
<!-- E2 -->
<g id="node3" class="node"><title>E2</title>
<ellipse fill="azure" stroke="black" cx="533.5" cy="-604" rx="63.0888" ry="18"/>
<text text-anchor="middle" x="533.5" y="-600.3" font-family="Times,serif" font-size="14.00">stir (S3,P164)</text>
</g>
<!-- E1&#45;&gt;E2 -->
<g id="edge6" class="edge"><title>E1&#45;&gt;E2</title>
<path fill="none" stroke="black" d="M502.777,-689.697C508.552,-673.775 517.205,-649.923 523.857,-631.583"/>
<polygon fill="black" stroke="black" points="527.196,-632.642 527.316,-622.047 520.616,-630.254 527.196,-632.642"/>
<text text-anchor="middle" x="551.5" y="-659.8" font-family="Times,serif" font-size="14.00">OUTPUT: </text>
<text text-anchor="middle" x="551.5" y="-644.8" font-family="Times,serif" font-size="14.00">INPUT: </text>
</g>
<!-- E5 -->
<g id="node6" class="node"><title>E5</title>
<ellipse fill="azure" stroke="black" cx="710.5" cy="-501" rx="74.187" ry="18"/>
<text text-anchor="middle" x="710.5" y="-497.3" font-family="Times,serif" font-size="14.00">whisk (S6,P228)</text>
</g>
<!-- E2&#45;&gt;E5 -->
<g id="edge11" class="edge"><title>E2&#45;&gt;E5</title>
<path fill="none" stroke="black" d="M551.027,-586.592C567.272,-572.053 592.615,-551.017 617.5,-537 629.716,-530.119 643.549,-524.08 656.741,-519.041"/>
<polygon fill="black" stroke="black" points="658.031,-522.296 666.201,-515.551 655.608,-515.728 658.031,-522.296"/>
<text text-anchor="middle" x="670" y="-555.8" font-family="Times,serif" font-size="14.00">OUTPUT: </text>
<text text-anchor="middle" x="670" y="-540.8" font-family="Times,serif" font-size="14.00">INPUT: in a bowl</text>
</g>
<!-- E3 -->
<g id="node4" class="node"><title>E3</title>
<ellipse fill="azure" stroke="black" cx="217.5" cy="-604" rx="63.0888" ry="18"/>
<text text-anchor="middle" x="217.5" y="-600.3" font-family="Times,serif" font-size="14.00">stir (S4,P175)</text>
</g>
<!-- E4 -->
<g id="node5" class="node"><title>E4</title>
<ellipse fill="azure" stroke="black" cx="375.5" cy="-501" rx="63.0888" ry="18"/>
<text text-anchor="middle" x="375.5" y="-497.3" font-family="Times,serif" font-size="14.00">stir (S5,P207)</text>
</g>
<!-- E3&#45;&gt;E4 -->
<g id="edge8" class="edge"><title>E3&#45;&gt;E4</title>
<path fill="none" stroke="black" d="M237.591,-586.845C255.422,-572.858 282.454,-552.495 307.5,-537 316.307,-531.551 326.06,-526.173 335.365,-521.329"/>
<polygon fill="black" stroke="black" points="337.155,-524.345 344.469,-516.68 333.971,-518.111 337.155,-524.345"/>
<text text-anchor="middle" x="339.5" y="-555.8" font-family="Times,serif" font-size="14.00">OUTPUT: </text>
<text text-anchor="middle" x="339.5" y="-540.8" font-family="Times,serif" font-size="14.00">INPUT: </text>
</g>
<!-- E6 -->
<g id="node7" class="node"><title>E6</title>
<ellipse fill="azure" stroke="black" cx="710.5" cy="-398" rx="63.0888" ry="18"/>
<text text-anchor="middle" x="710.5" y="-394.3" font-family="Times,serif" font-size="14.00">stir (S7,P275)</text>
</g>
<!-- E4&#45;&gt;E6 -->
<g id="edge14" class="edge"><title>E4&#45;&gt;E6</title>
<path fill="none" stroke="black" d="M404.306,-484.912C433.408,-470.237 480.017,-448.27 522.5,-435 562.077,-422.637 607.734,-413.774 644.142,-407.935"/>
<polygon fill="black" stroke="black" points="644.815,-411.373 654.154,-406.368 643.733,-404.457 644.815,-411.373"/>
<text text-anchor="middle" x="614.5" y="-453.8" font-family="Times,serif" font-size="14.00">OUTPUT: </text>
<text text-anchor="middle" x="614.5" y="-438.8" font-family="Times,serif" font-size="14.00">INPUT: into margarine mixture</text>
</g>
<!-- E5&#45;&gt;E6 -->
<g id="edge13" class="edge"><title>E5&#45;&gt;E6</title>
<path fill="none" stroke="black" d="M710.5,-482.867C710.5,-467.414 710.5,-444.416 710.5,-426.409"/>
<polygon fill="black" stroke="black" points="714,-426.217 710.5,-416.217 707,-426.217 714,-426.217"/>
<text text-anchor="middle" x="742.5" y="-453.8" font-family="Times,serif" font-size="14.00">OUTPUT: </text>
<text text-anchor="middle" x="742.5" y="-438.8" font-family="Times,serif" font-size="14.00">INPUT: </text>
</g>
<!-- E7 -->
<g id="node8" class="node"><title>E7</title>
<ellipse fill="azure" stroke="black" cx="906.5" cy="-295" rx="66.0889" ry="18"/>
<text text-anchor="middle" x="906.5" y="-291.3" font-family="Times,serif" font-size="14.00">fold (S8,P317)</text>
</g>
<!-- E6&#45;&gt;E7 -->
<g id="edge17" class="edge"><title>E6&#45;&gt;E7</title>
<path fill="none" stroke="black" d="M733.606,-381.076C754.823,-366.863 787.437,-346.033 817.5,-331 830.286,-324.606 844.539,-318.554 857.826,-313.337"/>
<polygon fill="black" stroke="black" points="859.22,-316.551 867.295,-309.693 856.706,-310.018 859.22,-316.551"/>
<text text-anchor="middle" x="872" y="-349.8" font-family="Times,serif" font-size="14.00">OUTPUT: </text>
<text text-anchor="middle" x="872" y="-334.8" font-family="Times,serif" font-size="14.00">INPUT: into batter</text>
</g>
<!-- E8 -->
<g id="node9" class="node"><title>E8</title>
<ellipse fill="azure" stroke="black" cx="1016.5" cy="-193" rx="74.187" ry="18"/>
<text text-anchor="middle" x="1016.5" y="-189.3" font-family="Times,serif" font-size="14.00">spoon (S9,P349)</text>
</g>
<!-- E7&#45;&gt;E8 -->
<g id="edge18" class="edge"><title>E7&#45;&gt;E8</title>
<path fill="none" stroke="black" d="M914.314,-277.041C921.556,-262.79 933.467,-242.623 948.5,-229 955.005,-223.105 962.686,-217.92 970.501,-213.472"/>
<polygon fill="black" stroke="black" points="972.15,-216.56 979.326,-208.765 968.856,-210.383 972.15,-216.56"/>
<text text-anchor="middle" x="989.5" y="-247.8" font-family="Times,serif" font-size="14.00">OUTPUT: </text>
<text text-anchor="middle" x="989.5" y="-232.8" font-family="Times,serif" font-size="14.00">INPUT: batter</text>
</g>
<!-- E8&#45;&gt;E9 -->
<g id="edge20" class="edge"><title>E8&#45;&gt;E9</title>
<path fill="none" stroke="black" d="M1050.76,-176.946C1084.68,-162.507 1138.39,-140.903 1186.5,-127 1220.48,-117.182 1258.95,-109.161 1291.15,-103.286"/>
<polygon fill="black" stroke="black" points="1292.14,-106.664 1301.37,-101.455 1290.91,-99.7736 1292.14,-106.664"/>
<text text-anchor="middle" x="1218.5" y="-145.8" font-family="Times,serif" font-size="14.00">OUTPUT: </text>
<text text-anchor="middle" x="1218.5" y="-130.8" font-family="Times,serif" font-size="14.00">INPUT: </text>
</g>
<!-- EOR -->
<g id="node25" class="node"><title>EOR</title>
<ellipse fill="plum" stroke="black" cx="1361.5" cy="-18" rx="57.3905" ry="18"/>
<text text-anchor="middle" x="1361.5" y="-14.3" font-family="Times,serif" font-size="14.00">Bon appetit!</text>
</g>
<!-- E9&#45;&gt;EOR -->
<g id="edge24" class="edge"><title>E9&#45;&gt;EOR</title>
<path fill="none" stroke="black" d="M1361.5,-72.8129C1361.5,-64.7895 1361.5,-55.0475 1361.5,-46.0691"/>
<polygon fill="black" stroke="black" points="1365,-46.0288 1361.5,-36.0288 1358,-46.0289 1365,-46.0288"/>
</g>
<!-- D1 -->
<g id="node11" class="node"><title>D1</title>
<polygon fill="white" stroke="black" points="496.5,-800 302.5,-800 302.5,-764 496.5,-764 496.5,-800"/>
<text text-anchor="middle" x="399.5" y="-778.3" font-family="Times,serif" font-size="14.00">DOBJ: 12 muffins cups or line</text>
</g>
<!-- D1&#45;&gt;E1 -->
<g id="edge1" class="edge"><title>D1&#45;&gt;E1</title>
<path fill="none" stroke="black" d="M422.488,-763.937C435.385,-754.363 451.648,-742.292 465.642,-731.905"/>
<polygon fill="black" stroke="black" points="468.068,-734.463 474.012,-725.692 463.896,-728.842 468.068,-734.463"/>
</g>
<!-- P1_0 -->
<g id="node12" class="node"><title>P1_0</title>
<polygon fill="white" stroke="black" points="672,-800 515,-800 515,-764 672,-764 672,-800"/>
<text text-anchor="middle" x="593.5" y="-778.3" font-family="Times,serif" font-size="14.00">PREP: with paper liners</text>
</g>
<!-- P1_0&#45;&gt;E1 -->
<g id="edge2" class="edge"><title>P1_0&#45;&gt;E1</title>
<path fill="none" stroke="black" d="M570.512,-763.937C557.615,-754.363 541.352,-742.292 527.358,-731.905"/>
<polygon fill="black" stroke="black" points="529.104,-728.842 518.988,-725.692 524.932,-734.463 529.104,-728.842"/>
</g>
<!-- D3 -->
<g id="node13" class="node"><title>D3</title>
<polygon fill="peachpuff" stroke="black" points="153,-727 0,-727 0,-689 153,-689 153,-727"/>
<text text-anchor="middle" x="76.5" y="-711.8" font-family="Times,serif" font-size="14.00">DOBJ: mashed bananas</text>
<text text-anchor="middle" x="76.5" y="-696.8" font-family="Times,serif" font-size="14.00">(text: bananas)</text>
</g>
<!-- D3&#45;&gt;E3 -->
<g id="edge3" class="edge"><title>D3&#45;&gt;E3</title>
<path fill="none" stroke="black" d="M101.383,-688.999C125.249,-671.734 161.338,-645.628 186.94,-627.107"/>
<polygon fill="black" stroke="black" points="189.136,-629.838 195.187,-621.141 185.034,-624.167 189.136,-629.838"/>
</g>
<!-- P3_0 -->
<g id="node14" class="node"><title>P3_0</title>
<polygon fill="peachpuff" stroke="black" points="359.5,-727 171.5,-727 171.5,-689 359.5,-689 359.5,-727"/>
<text text-anchor="middle" x="265.5" y="-711.8" font-family="Times,serif" font-size="14.00">PREP: into margarine</text>
<text text-anchor="middle" x="265.5" y="-696.8" font-family="Times,serif" font-size="14.00">(text: into margarine mixture)</text>
</g>
<!-- P3_0&#45;&gt;E3 -->
<g id="edge4" class="edge"><title>P3_0&#45;&gt;E3</title>
<path fill="none" stroke="black" d="M256.919,-688.764C249.41,-672.809 238.411,-649.435 229.937,-631.429"/>
<polygon fill="black" stroke="black" points="232.953,-629.618 225.528,-622.06 226.619,-632.598 232.953,-629.618"/>
</g>
<!-- D0 -->
<g id="node15" class="node"><title>D0</title>
<polygon fill="white" stroke="black" points="2002.5,-313 1684.5,-313 1684.5,-277 2002.5,-277 2002.5,-313"/>
<text text-anchor="middle" x="1843.5" y="-291.3" font-family="Times,serif" font-size="14.00">DOBJ: oven to 350 degrees F &#45;LRB&#45; 175 degrees C</text>
</g>
<!-- D0&#45;&gt;E0 -->
<g id="edge5" class="edge"><title>D0&#45;&gt;E0</title>
<path fill="none" stroke="black" d="M1843.5,-276.581C1843.5,-261.382 1843.5,-239.067 1843.5,-221.464"/>
<polygon fill="black" stroke="black" points="1847,-221.219 1843.5,-211.219 1840,-221.219 1847,-221.219"/>
</g>
<!-- P2_0_ing -->
<g id="node16" class="node"><title>P2_0_ing</title>
<polygon fill="peachpuff" stroke="black" points="722,-727 621,-727 621,-689 722,-689 722,-727"/>
<text text-anchor="middle" x="671.5" y="-711.8" font-family="Times,serif" font-size="14.00">PREP: in eggs</text>
<text text-anchor="middle" x="671.5" y="-696.8" font-family="Times,serif" font-size="14.00">(text: in eggs)</text>
</g>
<!-- P2_0_ing&#45;&gt;E2 -->
<g id="edge7" class="edge"><title>P2_0_ing&#45;&gt;E2</title>
<path fill="none" stroke="black" d="M649.403,-688.869C632.67,-675.331 608.977,-656.56 587.5,-641 580.828,-636.166 573.561,-631.156 566.585,-626.466"/>
<polygon fill="black" stroke="black" points="568.233,-623.358 557.969,-620.732 564.355,-629.186 568.233,-623.358"/>
</g>
<!-- P4_0_ing -->
<g id="node17" class="node"><title>P4_0_ing</title>
<polygon fill="peachpuff" stroke="black" points="452.5,-623 298.5,-623 298.5,-585 452.5,-585 452.5,-623"/>
<text text-anchor="middle" x="375.5" y="-607.8" font-family="Times,serif" font-size="14.00">PREP: in vanilla extract</text>
<text text-anchor="middle" x="375.5" y="-592.8" font-family="Times,serif" font-size="14.00">(text: in vanilla extract)</text>
</g>
<!-- P4_0_ing&#45;&gt;E4 -->
<g id="edge9" class="edge"><title>P4_0_ing&#45;&gt;E4</title>
<path fill="none" stroke="black" d="M375.5,-584.943C375.5,-569.531 375.5,-547.127 375.5,-529.488"/>
<polygon fill="black" stroke="black" points="379,-529.226 375.5,-519.226 372,-529.226 379,-529.226"/>
</g>
<!-- D5_ing -->
<g id="node18" class="node"><title>D5_ing</title>
<polygon fill="peachpuff" stroke="black" points="892.5,-623 614.5,-623 614.5,-585 892.5,-585 892.5,-623"/>
<text text-anchor="middle" x="753.5" y="-607.8" font-family="Times,serif" font-size="14.00">DOBJ: baking powder, all&#45;purpose flour, salt</text>
<text text-anchor="middle" x="753.5" y="-592.8" font-family="Times,serif" font-size="14.00">(text: &#160;salt, &#160;baking powder , flour )</text>
</g>
<!-- D5_ing&#45;&gt;E5 -->
<g id="edge10" class="edge"><title>D5_ing&#45;&gt;E5</title>
<path fill="none" stroke="black" d="M745.812,-584.943C739.127,-569.24 729.352,-546.28 721.78,-528.495"/>
<polygon fill="black" stroke="black" points="724.972,-527.056 717.834,-519.226 718.531,-529.798 724.972,-527.056"/>
</g>
<!-- O5_0_0 -->
<g id="node19" class="node"><title>O5_0_0</title>
<polygon fill="white" stroke="black" points="1030,-622 911,-622 911,-586 1030,-586 1030,-622"/>
<text text-anchor="middle" x="970.5" y="-600.3" font-family="Times,serif" font-size="14.00">OTHER: together</text>
</g>
<!-- O5_0_0&#45;&gt;E5 -->
<g id="edge12" class="edge"><title>O5_0_0&#45;&gt;E5</title>
<path fill="none" stroke="black" d="M926.689,-585.981C879.842,-567.783 805.818,-539.027 757.706,-520.338"/>
<polygon fill="black" stroke="black" points="758.738,-516.984 748.149,-516.625 756.203,-523.509 758.738,-516.984"/>
</g>
<!-- O6_0_0 -->
<g id="node20" class="node"><title>O6_0_0</title>
<polygon fill="white" stroke="black" points="986,-519 803,-519 803,-483 986,-483 986,-519"/>
<text text-anchor="middle" x="894.5" y="-497.3" font-family="Times,serif" font-size="14.00">OTHER: until just combined</text>
</g>
<!-- O6_0_0&#45;&gt;E6 -->
<g id="edge15" class="edge"><title>O6_0_0&#45;&gt;E6</title>
<path fill="none" stroke="black" d="M864.566,-482.968C841.205,-469.74 807.894,-451.013 778.5,-435 768.811,-429.721 758.295,-424.101 748.494,-418.91"/>
<polygon fill="black" stroke="black" points="749.844,-415.664 739.367,-414.088 746.574,-421.854 749.844,-415.664"/>
</g>
<!-- D7_ing -->
<g id="node21" class="node"><title>D7_ing</title>
<polygon fill="peachpuff" stroke="black" points="1153.5,-417 791.5,-417 791.5,-379 1153.5,-379 1153.5,-417"/>
<text text-anchor="middle" x="972.5" y="-401.8" font-family="Times,serif" font-size="14.00">DOBJ: shredded coconut, (10 ounce) can mandarin oranges</text>
<text text-anchor="middle" x="972.5" y="-386.8" font-family="Times,serif" font-size="14.00">(text: &#160;coconut, oranges)</text>
</g>
<!-- D7_ing&#45;&gt;E7 -->
<g id="edge16" class="edge"><title>D7_ing&#45;&gt;E7</title>
<path fill="none" stroke="black" d="M960.701,-378.943C950.281,-362.998 934.972,-339.57 923.279,-321.676"/>
<polygon fill="black" stroke="black" points="925.939,-319.349 917.539,-312.893 920.079,-323.178 925.939,-319.349"/>
</g>
<!-- P8_0_0 -->
<g id="node22" class="node"><title>P8_0_0</title>
<polygon fill="white" stroke="black" points="1140,-313 991,-313 991,-277 1140,-277 1140,-313"/>
<text text-anchor="middle" x="1065.5" y="-291.3" font-family="Times,serif" font-size="14.00">PREP: into muffin tins</text>
</g>
<!-- P8_0_0&#45;&gt;E8 -->
<g id="edge19" class="edge"><title>P8_0_0&#45;&gt;E8</title>
<path fill="none" stroke="black" d="M1056.96,-276.581C1049.38,-261.095 1038.17,-238.222 1029.47,-220.473"/>
<polygon fill="black" stroke="black" points="1032.48,-218.659 1024.94,-211.219 1026.19,-221.739 1032.48,-218.659"/>
</g>
<!-- O9_0_0 -->
<g id="node23" class="node"><title>O9_0_0</title>
<polygon fill="white" stroke="black" points="1282,-211 1109,-211 1109,-175 1282,-175 1282,-211"/>
<text text-anchor="middle" x="1195.5" y="-189.3" font-family="Times,serif" font-size="14.00">OTHER: &#160;20 to 30 minutes</text>
</g>
<!-- O9_0_0&#45;&gt;E9 -->
<g id="edge22" class="edge"><title>O9_0_0&#45;&gt;E9</title>
<path fill="none" stroke="black" d="M1224.04,-174.809C1252.47,-157.681 1296.17,-131.356 1326.64,-113"/>
<polygon fill="black" stroke="black" points="1328.49,-115.972 1335.25,-107.814 1324.88,-109.976 1328.49,-115.972"/>
</g>
<!-- O9_0_1 -->
<g id="node24" class="node"><title>O9_0_1</title>
<polygon fill="white" stroke="black" points="1757,-211 1300,-211 1300,-175 1757,-175 1757,-211"/>
<text text-anchor="middle" x="1528.5" y="-189.3" font-family="Times,serif" font-size="14.00">OTHER: until a toothpick inserted in the center of a muffin comes out clean </text>
</g>
<!-- O9_0_1&#45;&gt;E9 -->
<g id="edge23" class="edge"><title>O9_0_1&#45;&gt;E9</title>
<path fill="none" stroke="black" d="M1499.79,-174.809C1471.19,-157.681 1427.22,-131.356 1396.57,-113"/>
<polygon fill="black" stroke="black" points="1398.29,-109.948 1387.91,-107.814 1394.69,-115.954 1398.29,-109.948"/>
</g>
</g>
</svg>
