<?xml version="1.0" encoding="UTF-8" standalone="no"?>
<!DOCTYPE svg PUBLIC "-//W3C//DTD SVG 1.1//EN"
 "http://www.w3.org/Graphics/SVG/1.1/DTD/svg11.dtd">
<!-- Generated by graphviz version 2.38.0 (20140413.2041)
 -->
<!-- Title: recipe Pages: 1 -->
<svg width="1806pt" height="808pt"
 viewBox="0.00 0.00 1805.50 808.00" xmlns="http://www.w3.org/2000/svg" xmlns:xlink="http://www.w3.org/1999/xlink">
<g id="graph0" class="graph" transform="scale(1 1) rotate(0) translate(4 804)">
<title>recipe</title>
<polygon fill="white" stroke="none" points="-4,4 -4,-804 1801.5,-804 1801.5,4 -4,4"/>
<!-- E0 -->
<g id="node1" class="node"><title>E0</title>
<ellipse fill="azure" stroke="black" cx="1630" cy="-397" rx="68.7879" ry="18"/>
<text text-anchor="middle" x="1630" y="-393.3" font-family="Times,serif" font-size="14.00">preheat (S0,P0)</text>
</g>
<!-- E6 -->
<g id="node7" class="node"><title>E6</title>
<ellipse fill="azure" stroke="black" cx="1305" cy="-295" rx="68.7879" ry="18"/>
<text text-anchor="middle" x="1305" y="-291.3" font-family="Times,serif" font-size="14.00">bake (S6,P313)</text>
</g>
<!-- E0&#45;&gt;E6 -->
<g id="edge16" class="edge"><title>E0&#45;&gt;E6</title>
<path fill="none" stroke="black" d="M1587.18,-382.824C1528.11,-364.65 1421.71,-331.912 1357.8,-312.245"/>
<polygon fill="black" stroke="black" points="1358.5,-308.801 1347.92,-309.205 1356.45,-315.491 1358.5,-308.801"/>
<text text-anchor="middle" x="1601.5" y="-349.8" font-family="Times,serif" font-size="14.00">OUTPUT: </text>
<text text-anchor="middle" x="1601.5" y="-334.8" font-family="Times,serif" font-size="14.00">INPUT: in the preheated oven</text>
</g>
<!-- E1 -->
<g id="node2" class="node"><title>E1</title>
<ellipse fill="azure" stroke="black" cx="420" cy="-499" rx="69.5877" ry="18"/>
<text text-anchor="middle" x="420" y="-495.3" font-family="Times,serif" font-size="14.00">grease (S1,P40)</text>
</g>
<!-- E5 -->
<g id="node6" class="node"><title>E5</title>
<ellipse fill="azure" stroke="black" cx="860" cy="-397" rx="74.187" ry="18"/>
<text text-anchor="middle" x="860" y="-393.3" font-family="Times,serif" font-size="14.00">spoon (S5,P266)</text>
</g>
<!-- E1&#45;&gt;E5 -->
<g id="edge13" class="edge"><title>E1&#45;&gt;E5</title>
<path fill="none" stroke="black" d="M459.97,-484.087C502.808,-469.608 573.026,-447.116 635,-433 684.527,-421.719 741.019,-412.945 785.008,-407.003"/>
<polygon fill="black" stroke="black" points="785.6,-410.455 795.051,-405.667 784.677,-403.517 785.6,-410.455"/>
<text text-anchor="middle" x="745.5" y="-451.8" font-family="Times,serif" font-size="14.00">OUTPUT: </text>
<text text-anchor="middle" x="745.5" y="-436.8" font-family="Times,serif" font-size="14.00">INPUT: into the prepared muffin cups</text>
</g>
<!-- E2 -->
<g id="node3" class="node"><title>E2</title>
<ellipse fill="azure" stroke="black" cx="370" cy="-706" rx="68.7879" ry="18"/>
<text text-anchor="middle" x="370" y="-702.3" font-family="Times,serif" font-size="14.00">cream (S2,P99)</text>
</g>
<!-- E3 -->
<g id="node4" class="node"><title>E3</title>
<ellipse fill="azure" stroke="black" cx="595" cy="-602" rx="65.7887" ry="18"/>
<text text-anchor="middle" x="595" y="-598.3" font-family="Times,serif" font-size="14.00">mix (S3,P146)</text>
</g>
<!-- E2&#45;&gt;E3 -->
<g id="edge7" class="edge"><title>E2&#45;&gt;E3</title>
<path fill="none" stroke="black" d="M403.2,-689.95C443.059,-671.88 509.942,-641.56 553.261,-621.922"/>
<polygon fill="black" stroke="black" points="554.733,-625.097 562.396,-617.781 551.843,-618.722 554.733,-625.097"/>
<text text-anchor="middle" x="542" y="-657.8" font-family="Times,serif" font-size="14.00">OUTPUT: </text>
<text text-anchor="middle" x="542" y="-642.8" font-family="Times,serif" font-size="14.00">INPUT: </text>
</g>
<!-- E4 -->
<g id="node5" class="node"><title>E4</title>
<ellipse fill="azure" stroke="black" cx="860" cy="-499" rx="63.0888" ry="18"/>
<text text-anchor="middle" x="860" y="-495.3" font-family="Times,serif" font-size="14.00">stir (S4,P191)</text>
</g>
<!-- E3&#45;&gt;E4 -->
<g id="edge9" class="edge"><title>E3&#45;&gt;E4</title>
<path fill="none" stroke="black" d="M631.847,-586.956C679.544,-568.777 762.651,-537.103 814.312,-517.413"/>
<polygon fill="black" stroke="black" points="815.792,-520.595 823.89,-513.763 813.299,-514.054 815.792,-520.595"/>
<text text-anchor="middle" x="798" y="-553.8" font-family="Times,serif" font-size="14.00">OUTPUT: </text>
<text text-anchor="middle" x="798" y="-538.8" font-family="Times,serif" font-size="14.00">INPUT: </text>
</g>
<!-- E4&#45;&gt;E5 -->
<g id="edge12" class="edge"><title>E4&#45;&gt;E5</title>
<path fill="none" stroke="black" d="M860,-480.581C860,-465.382 860,-443.067 860,-425.464"/>
<polygon fill="black" stroke="black" points="863.5,-425.219 860,-415.219 856.5,-425.219 863.5,-425.219"/>
<text text-anchor="middle" x="911.5" y="-451.8" font-family="Times,serif" font-size="14.00">OUTPUT: </text>
<text text-anchor="middle" x="911.5" y="-436.8" font-family="Times,serif" font-size="14.00">INPUT: the batter</text>
</g>
<!-- E5&#45;&gt;E6 -->
<g id="edge15" class="edge"><title>E5&#45;&gt;E6</title>
<path fill="none" stroke="black" d="M910.173,-383.666C965.571,-370.178 1057.46,-348.194 1137,-331 1177.3,-322.289 1187.65,-321.445 1228,-313 1233.36,-311.878 1238.92,-310.692 1244.5,-309.489"/>
<polygon fill="black" stroke="black" points="1245.47,-312.859 1254.5,-307.315 1243.99,-306.019 1245.47,-312.859"/>
<text text-anchor="middle" x="1169" y="-349.8" font-family="Times,serif" font-size="14.00">OUTPUT: </text>
<text text-anchor="middle" x="1169" y="-334.8" font-family="Times,serif" font-size="14.00">INPUT: </text>
</g>
<!-- E7 -->
<g id="node8" class="node"><title>E7</title>
<ellipse fill="azure" stroke="black" cx="1042" cy="-193" rx="67.6881" ry="18"/>
<text text-anchor="middle" x="1042" y="-189.3" font-family="Times,serif" font-size="14.00">cool (S7,P399)</text>
</g>
<!-- E6&#45;&gt;E7 -->
<g id="edge19" class="edge"><title>E6&#45;&gt;E7</title>
<path fill="none" stroke="black" d="M1267.6,-279.779C1220.57,-261.897 1139.82,-231.193 1088.76,-211.779"/>
<polygon fill="black" stroke="black" points="1089.86,-208.455 1079.27,-208.172 1087.38,-214.998 1089.86,-208.455"/>
<text text-anchor="middle" x="1244" y="-247.8" font-family="Times,serif" font-size="14.00">OUTPUT: </text>
<text text-anchor="middle" x="1244" y="-232.8" font-family="Times,serif" font-size="14.00">INPUT: </text>
</g>
<!-- E8 -->
<g id="node9" class="node"><title>E8</title>
<ellipse fill="azure" stroke="black" cx="878" cy="-91" rx="69.5877" ry="18"/>
<text text-anchor="middle" x="878" y="-87.3" font-family="Times,serif" font-size="14.00">store (S8,P466)</text>
</g>
<!-- E7&#45;&gt;E8 -->
<g id="edge22" class="edge"><title>E7&#45;&gt;E8</title>
<path fill="none" stroke="black" d="M1016.01,-176.155C988.064,-159.112 943.484,-131.929 912.586,-113.089"/>
<polygon fill="black" stroke="black" points="914.225,-109.989 903.865,-107.771 910.581,-115.966 914.225,-109.989"/>
<text text-anchor="middle" x="1016" y="-145.8" font-family="Times,serif" font-size="14.00">OUTPUT: </text>
<text text-anchor="middle" x="1016" y="-130.8" font-family="Times,serif" font-size="14.00">INPUT: </text>
</g>
<!-- EOR -->
<g id="node25" class="node"><title>EOR</title>
<ellipse fill="plum" stroke="black" cx="878" cy="-18" rx="57.3905" ry="18"/>
<text text-anchor="middle" x="878" y="-14.3" font-family="Times,serif" font-size="14.00">Bon appetit!</text>
</g>
<!-- E8&#45;&gt;EOR -->
<g id="edge24" class="edge"><title>E8&#45;&gt;EOR</title>
<path fill="none" stroke="black" d="M878,-72.8129C878,-64.7895 878,-55.0475 878,-46.0691"/>
<polygon fill="black" stroke="black" points="881.5,-46.0288 878,-36.0288 874.5,-46.0289 881.5,-46.0288"/>
</g>
<!-- D0 -->
<g id="node10" class="node"><title>D0</title>
<polygon fill="white" stroke="black" points="1797.5,-517 1462.5,-517 1462.5,-481 1797.5,-481 1797.5,-517"/>
<text text-anchor="middle" x="1630" y="-495.3" font-family="Times,serif" font-size="14.00">DOBJ: an oven to 375 degrees F &#45;LRB&#45; 190 degrees C</text>
</g>
<!-- D0&#45;&gt;E0 -->
<g id="edge1" class="edge"><title>D0&#45;&gt;E0</title>
<path fill="none" stroke="black" d="M1630,-480.581C1630,-465.382 1630,-443.067 1630,-425.464"/>
<polygon fill="black" stroke="black" points="1633.5,-425.219 1630,-415.219 1626.5,-425.219 1633.5,-425.219"/>
</g>
<!-- D1 -->
<g id="node11" class="node"><title>D1</title>
<polygon fill="white" stroke="black" points="511,-620 173,-620 173,-584 511,-584 511,-620"/>
<text text-anchor="middle" x="342" y="-598.3" font-family="Times,serif" font-size="14.00">DOBJ: 24 mini muffin cups or 12 standard muffin cups</text>
</g>
<!-- D1&#45;&gt;E1 -->
<g id="edge2" class="edge"><title>D1&#45;&gt;E1</title>
<path fill="none" stroke="black" d="M355.232,-583.867C367.745,-567.663 386.665,-543.164 400.83,-524.822"/>
<polygon fill="black" stroke="black" points="403.622,-526.934 406.964,-516.88 398.081,-522.656 403.622,-526.934"/>
</g>
<!-- D2 -->
<g id="node12" class="node"><title>D2</title>
<polygon fill="peachpuff" stroke="black" points="190,-800 0,-800 0,-762 190,-762 190,-800"/>
<text text-anchor="middle" x="95" y="-784.8" font-family="Times,serif" font-size="14.00">DOBJ: brown sugar, butter</text>
<text text-anchor="middle" x="95" y="-769.8" font-family="Times,serif" font-size="14.00">(text: the butter, brown sugar)</text>
</g>
<!-- D2&#45;&gt;E2 -->
<g id="edge3" class="edge"><title>D2&#45;&gt;E2</title>
<path fill="none" stroke="black" d="M162.978,-761.955C209.311,-749.656 269.938,-733.562 313.594,-721.973"/>
<polygon fill="black" stroke="black" points="314.704,-725.3 323.472,-719.351 312.908,-718.534 314.704,-725.3"/>
</g>
<!-- P2_0 -->
<g id="node13" class="node"><title>P2_0</title>
<polygon fill="white" stroke="black" points="367.5,-799 208.5,-799 208.5,-763 367.5,-763 367.5,-799"/>
<text text-anchor="middle" x="288" y="-777.3" font-family="Times,serif" font-size="14.00">PREP: in a mixing bowl</text>
</g>
<!-- P2_0&#45;&gt;E2 -->
<g id="edge4" class="edge"><title>P2_0&#45;&gt;E2</title>
<path fill="none" stroke="black" d="M307.433,-762.7C318.284,-753.04 331.953,-740.871 343.745,-730.373"/>
<polygon fill="black" stroke="black" points="346.409,-732.687 351.551,-723.424 341.755,-727.459 346.409,-732.687"/>
</g>
<!-- P2_1 -->
<g id="node14" class="node"><title>P2_1</title>
<polygon fill="white" stroke="black" points="518,-799 386,-799 386,-763 518,-763 518,-799"/>
<text text-anchor="middle" x="452" y="-777.3" font-family="Times,serif" font-size="14.00">PREP: until smooth</text>
</g>
<!-- P2_1&#45;&gt;E2 -->
<g id="edge5" class="edge"><title>P2_1&#45;&gt;E2</title>
<path fill="none" stroke="black" d="M432.567,-762.7C421.716,-753.04 408.047,-740.871 396.255,-730.373"/>
<polygon fill="black" stroke="black" points="398.245,-727.459 388.449,-723.424 393.591,-732.687 398.245,-727.459"/>
</g>
<!-- O2_0 -->
<g id="node15" class="node"><title>O2_0</title>
<polygon fill="white" stroke="black" points="655.5,-799 536.5,-799 536.5,-763 655.5,-763 655.5,-799"/>
<text text-anchor="middle" x="596" y="-777.3" font-family="Times,serif" font-size="14.00">OTHER: together</text>
</g>
<!-- O2_0&#45;&gt;E2 -->
<g id="edge6" class="edge"><title>O2_0&#45;&gt;E2</title>
<path fill="none" stroke="black" d="M543.298,-762.977C506.578,-751.116 457.843,-735.374 421.409,-723.605"/>
<polygon fill="black" stroke="black" points="422.07,-720.141 411.479,-720.398 419.919,-726.802 422.07,-720.141"/>
</g>
<!-- P3_0_ing -->
<g id="node16" class="node"><title>P3_0_ing</title>
<polygon fill="peachpuff" stroke="black" points="885,-725 457,-725 457,-687 885,-687 885,-725"/>
<text text-anchor="middle" x="671" y="-709.8" font-family="Times,serif" font-size="14.00">PREP: in eggs, large bananas, carrots, (4.5 ounce) jar baby food squash</text>
<text text-anchor="middle" x="671" y="-694.8" font-family="Times,serif" font-size="14.00">(text: in the mashed bananas , &#160;eggs, &#160;squash , &#160;carrots )</text>
</g>
<!-- P3_0_ing&#45;&gt;E3 -->
<g id="edge8" class="edge"><title>P3_0_ing&#45;&gt;E3</title>
<path fill="none" stroke="black" d="M657.413,-686.764C645.231,-670.415 627.245,-646.276 613.706,-628.106"/>
<polygon fill="black" stroke="black" points="616.244,-625.653 607.462,-619.725 610.63,-629.835 616.244,-625.653"/>
</g>
<!-- P4_0_ing -->
<g id="node17" class="node"><title>P4_0_ing</title>
<polygon fill="peachpuff" stroke="black" points="1119,-621 679,-621 679,-583 1119,-583 1119,-621"/>
<text text-anchor="middle" x="899" y="-605.8" font-family="Times,serif" font-size="14.00">PREP: in oat bran, all&#45;purpose flour, baking soda, pumpkin pie spice, salt</text>
<text text-anchor="middle" x="899" y="-590.8" font-family="Times,serif" font-size="14.00">(text: in the flour , &#160;salt, &#160;pumpkin pie spice , &#160;baking soda , &#160;oat bran )</text>
</g>
<!-- P4_0_ing&#45;&gt;E4 -->
<g id="edge10" class="edge"><title>P4_0_ing&#45;&gt;E4</title>
<path fill="none" stroke="black" d="M892.028,-582.943C886.02,-567.386 877.262,-544.704 870.422,-526.99"/>
<polygon fill="black" stroke="black" points="873.519,-525.294 866.652,-517.226 866.989,-527.816 873.519,-525.294"/>
</g>
<!-- O4_0_0 -->
<g id="node18" class="node"><title>O4_0_0</title>
<polygon fill="white" stroke="black" points="1320.5,-620 1137.5,-620 1137.5,-584 1320.5,-584 1320.5,-620"/>
<text text-anchor="middle" x="1229" y="-598.3" font-family="Times,serif" font-size="14.00">OTHER: until just combined</text>
</g>
<!-- O4_0_0&#45;&gt;E4 -->
<g id="edge11" class="edge"><title>O4_0_0&#45;&gt;E4</title>
<path fill="none" stroke="black" d="M1166.82,-583.981C1095.9,-564.57 981.102,-533.147 913.855,-514.741"/>
<polygon fill="black" stroke="black" points="914.456,-511.277 903.887,-512.012 912.608,-518.028 914.456,-511.277"/>
</g>
<!-- O5_0_0 -->
<g id="node19" class="node"><title>O5_0_0</title>
<polygon fill="white" stroke="black" points="1055,-517 941,-517 941,-481 1055,-481 1055,-517"/>
<text text-anchor="middle" x="998" y="-495.3" font-family="Times,serif" font-size="14.00">OTHER: equally</text>
</g>
<!-- O5_0_0&#45;&gt;E5 -->
<g id="edge14" class="edge"><title>O5_0_0&#45;&gt;E5</title>
<path fill="none" stroke="black" d="M993.876,-480.744C989.527,-466.107 981.275,-445.544 967,-433 956.025,-423.356 942.337,-416.36 928.455,-411.288"/>
<polygon fill="black" stroke="black" points="929.439,-407.926 918.845,-408.074 927.219,-414.565 929.439,-407.926"/>
</g>
<!-- O6_0_0 -->
<g id="node20" class="node"><title>O6_0_0</title>
<polygon fill="white" stroke="black" points="1352,-415 952,-415 952,-379 1352,-379 1352,-415"/>
<text text-anchor="middle" x="1152" y="-393.3" font-family="Times,serif" font-size="14.00">OTHER: until a toothpick inserted into the center comes out clean </text>
</g>
<!-- O6_0_0&#45;&gt;E6 -->
<g id="edge17" class="edge"><title>O6_0_0&#45;&gt;E6</title>
<path fill="none" stroke="black" d="M1178.3,-378.809C1204.21,-361.879 1243.86,-335.962 1271.89,-317.638"/>
<polygon fill="black" stroke="black" points="1274.1,-320.377 1280.56,-311.977 1270.27,-314.518 1274.1,-320.377"/>
</g>
<!-- O6_0_1 -->
<g id="node21" class="node"><title>O6_0_1</title>
<polygon fill="white" stroke="black" points="1543.5,-415 1370.5,-415 1370.5,-379 1543.5,-379 1543.5,-415"/>
<text text-anchor="middle" x="1457" y="-393.3" font-family="Times,serif" font-size="14.00">OTHER: &#160;15 to 20 minutes</text>
</g>
<!-- O6_0_1&#45;&gt;E6 -->
<g id="edge18" class="edge"><title>O6_0_1&#45;&gt;E6</title>
<path fill="none" stroke="black" d="M1430.87,-378.809C1405.14,-361.879 1365.74,-335.962 1337.89,-317.638"/>
<polygon fill="black" stroke="black" points="1339.56,-314.549 1329.28,-311.977 1335.72,-320.397 1339.56,-314.549"/>
</g>
<!-- P7_0_0 -->
<g id="node22" class="node"><title>P7_0_0</title>
<polygon fill="white" stroke="black" points="847,-313 637,-313 637,-277 847,-277 847,-313"/>
<text text-anchor="middle" x="742" y="-291.3" font-family="Times,serif" font-size="14.00">PREP: in the pans for 10 minutes</text>
</g>
<!-- P7_0_0&#45;&gt;E7 -->
<g id="edge20" class="edge"><title>P7_0_0&#45;&gt;E7</title>
<path fill="none" stroke="black" d="M793.231,-276.923C848.802,-258.399 936.93,-229.023 992.01,-210.663"/>
<polygon fill="black" stroke="black" points="993.18,-213.963 1001.56,-207.48 990.966,-207.322 993.18,-213.963"/>
</g>
<!-- P7_1_0 -->
<g id="node23" class="node"><title>P7_1_0</title>
<polygon fill="white" stroke="black" points="1218.5,-313 865.5,-313 865.5,-277 1218.5,-277 1218.5,-313"/>
<text text-anchor="middle" x="1042" y="-291.3" font-family="Times,serif" font-size="14.00">PREP: before removing to cool completely on a wire rack</text>
</g>
<!-- P7_1_0&#45;&gt;E7 -->
<g id="edge21" class="edge"><title>P7_1_0&#45;&gt;E7</title>
<path fill="none" stroke="black" d="M1042,-276.581C1042,-261.382 1042,-239.067 1042,-221.464"/>
<polygon fill="black" stroke="black" points="1045.5,-221.219 1042,-211.219 1038.5,-221.219 1045.5,-221.219"/>
</g>
<!-- P8_0_0 -->
<g id="node24" class="node"><title>P8_0_0</title>
<polygon fill="white" stroke="black" points="956.5,-211 669.5,-211 669.5,-175 956.5,-175 956.5,-211"/>
<text text-anchor="middle" x="813" y="-189.3" font-family="Times,serif" font-size="14.00">PREP: at room temperature for up to two days</text>
</g>
<!-- P8_0_0&#45;&gt;E8 -->
<g id="edge23" class="edge"><title>P8_0_0&#45;&gt;E8</title>
<path fill="none" stroke="black" d="M824.322,-174.581C834.543,-158.856 849.715,-135.516 861.324,-117.656"/>
<polygon fill="black" stroke="black" points="864.509,-119.178 867.024,-108.886 858.64,-115.363 864.509,-119.178"/>
</g>
</g>
</svg>
