<?xml version="1.0" encoding="UTF-8" standalone="no"?>
<!DOCTYPE svg PUBLIC "-//W3C//DTD SVG 1.1//EN"
 "http://www.w3.org/Graphics/SVG/1.1/DTD/svg11.dtd">
<!-- Generated by graphviz version 2.38.0 (20140413.2041)
 -->
<!-- Title: recipe Pages: 1 -->
<svg width="1959pt" height="602pt"
 viewBox="0.00 0.00 1958.50 602.00" xmlns="http://www.w3.org/2000/svg" xmlns:xlink="http://www.w3.org/1999/xlink">
<g id="graph0" class="graph" transform="scale(1 1) rotate(0) translate(4 598)">
<title>recipe</title>
<polygon fill="white" stroke="none" points="-4,4 -4,-598 1954.5,-598 1954.5,4 -4,4"/>
<!-- E0 -->
<g id="node1" class="node"><title>E0</title>
<ellipse fill="azure" stroke="black" cx="1791.5" cy="-193" rx="68.7879" ry="18"/>
<text text-anchor="middle" x="1791.5" y="-189.3" font-family="Times,serif" font-size="14.00">preheat (S0,P0)</text>
</g>
<!-- E6 -->
<g id="node7" class="node"><title>E6</title>
<ellipse fill="azure" stroke="black" cx="1450.5" cy="-91" rx="68.7879" ry="18"/>
<text text-anchor="middle" x="1450.5" y="-87.3" font-family="Times,serif" font-size="14.00">bake (S6,P312)</text>
</g>
<!-- E0&#45;&gt;E6 -->
<g id="edge16" class="edge"><title>E0&#45;&gt;E6</title>
<path fill="none" stroke="black" d="M1747.27,-179.029C1685.05,-160.783 1571.79,-127.568 1504.62,-107.87"/>
<polygon fill="black" stroke="black" points="1505.23,-104.403 1494.65,-104.948 1503.26,-111.12 1505.23,-104.403"/>
<text text-anchor="middle" x="1758" y="-145.8" font-family="Times,serif" font-size="14.00">OUTPUT: </text>
<text text-anchor="middle" x="1758" y="-130.8" font-family="Times,serif" font-size="14.00">INPUT: in the preheated oven</text>
</g>
<!-- E1 -->
<g id="node2" class="node"><title>E1</title>
<ellipse fill="azure" stroke="black" cx="889.5" cy="-295" rx="69.5877" ry="18"/>
<text text-anchor="middle" x="889.5" y="-291.3" font-family="Times,serif" font-size="14.00">grease (S1,P38)</text>
</g>
<!-- E5 -->
<g id="node6" class="node"><title>E5</title>
<ellipse fill="azure" stroke="black" cx="973.5" cy="-193" rx="61.99" ry="18"/>
<text text-anchor="middle" x="973.5" y="-189.3" font-family="Times,serif" font-size="14.00">fill (S5,P287)</text>
</g>
<!-- E1&#45;&gt;E5 -->
<g id="edge13" class="edge"><title>E1&#45;&gt;E5</title>
<path fill="none" stroke="black" d="M891.509,-276.864C893.935,-262.695 899.203,-242.741 910.5,-229 915.64,-222.748 922.205,-217.421 929.147,-212.95"/>
<polygon fill="black" stroke="black" points="931.194,-215.808 938.062,-207.741 927.662,-209.764 931.194,-215.808"/>
<text text-anchor="middle" x="970" y="-247.8" font-family="Times,serif" font-size="14.00">OUTPUT: </text>
<text text-anchor="middle" x="970" y="-232.8" font-family="Times,serif" font-size="14.00">INPUT: muffin cups</text>
</g>
<!-- E2 -->
<g id="node3" class="node"><title>E2</title>
<ellipse fill="azure" stroke="black" cx="808.5" cy="-500" rx="61.1893" ry="18"/>
<text text-anchor="middle" x="808.5" y="-496.3" font-family="Times,serif" font-size="14.00">mix (S2,P78)</text>
</g>
<!-- E3 -->
<g id="node4" class="node"><title>E3</title>
<ellipse fill="azure" stroke="black" cx="1049.5" cy="-397" rx="63.0888" ry="18"/>
<text text-anchor="middle" x="1049.5" y="-393.3" font-family="Times,serif" font-size="14.00">stir (S3,P177)</text>
</g>
<!-- E2&#45;&gt;E3 -->
<g id="edge8" class="edge"><title>E2&#45;&gt;E3</title>
<path fill="none" stroke="black" d="M824.406,-482.549C840.059,-467.35 865.352,-445.318 891.5,-433 926.434,-416.544 938.805,-423.38 976.5,-415 981.74,-413.835 987.186,-412.604 992.637,-411.359"/>
<polygon fill="black" stroke="black" points="993.447,-414.764 1002.41,-409.113 991.879,-407.942 993.447,-414.764"/>
<text text-anchor="middle" x="968.5" y="-451.8" font-family="Times,serif" font-size="14.00">OUTPUT: </text>
<text text-anchor="middle" x="968.5" y="-436.8" font-family="Times,serif" font-size="14.00">INPUT: in a separate bowl</text>
</g>
<!-- E4 -->
<g id="node5" class="node"><title>E4</title>
<ellipse fill="azure" stroke="black" cx="1131.5" cy="-295" rx="65.7887" ry="18"/>
<text text-anchor="middle" x="1131.5" y="-291.3" font-family="Times,serif" font-size="14.00">mix (S4,P237)</text>
</g>
<!-- E3&#45;&gt;E4 -->
<g id="edge10" class="edge"><title>E3&#45;&gt;E4</title>
<path fill="none" stroke="black" d="M1046.36,-378.951C1044.72,-364.836 1044.77,-344.911 1054.5,-331 1060,-323.142 1067.7,-317.015 1076.13,-312.248"/>
<polygon fill="black" stroke="black" points="1077.73,-315.359 1085.11,-307.756 1074.6,-309.099 1077.73,-315.359"/>
<text text-anchor="middle" x="1124" y="-349.8" font-family="Times,serif" font-size="14.00">OUTPUT: </text>
<text text-anchor="middle" x="1124" y="-334.8" font-family="Times,serif" font-size="14.00">INPUT: banana mixture</text>
</g>
<!-- E4&#45;&gt;E5 -->
<g id="edge14" class="edge"><title>E4&#45;&gt;E5</title>
<path fill="none" stroke="black" d="M1106.81,-278.178C1086.17,-264.978 1055.96,-245.698 1029.5,-229 1022.41,-224.526 1014.8,-219.752 1007.55,-215.214"/>
<polygon fill="black" stroke="black" points="1008.95,-211.965 998.618,-209.634 1005.24,-217.901 1008.95,-211.965"/>
<text text-anchor="middle" x="1130.5" y="-247.8" font-family="Times,serif" font-size="14.00">OUTPUT: </text>
<text text-anchor="middle" x="1130.5" y="-232.8" font-family="Times,serif" font-size="14.00">INPUT: with batter</text>
</g>
<!-- E5&#45;&gt;E6 -->
<g id="edge15" class="edge"><title>E5&#45;&gt;E6</title>
<path fill="none" stroke="black" d="M1019.01,-180.714C1027.15,-178.762 1035.57,-176.786 1043.5,-175 1164.43,-147.759 1306.47,-119.678 1386.74,-104.168"/>
<polygon fill="black" stroke="black" points="1387.54,-107.579 1396.69,-102.248 1386.21,-100.705 1387.54,-107.579"/>
<text text-anchor="middle" x="1297.5" y="-145.8" font-family="Times,serif" font-size="14.00">OUTPUT: </text>
<text text-anchor="middle" x="1297.5" y="-130.8" font-family="Times,serif" font-size="14.00">INPUT: </text>
</g>
<!-- EOR -->
<g id="node20" class="node"><title>EOR</title>
<ellipse fill="plum" stroke="black" cx="1450.5" cy="-18" rx="57.3905" ry="18"/>
<text text-anchor="middle" x="1450.5" y="-14.3" font-family="Times,serif" font-size="14.00">Bon appetit!</text>
</g>
<!-- E6&#45;&gt;EOR -->
<g id="edge19" class="edge"><title>E6&#45;&gt;EOR</title>
<path fill="none" stroke="black" d="M1450.5,-72.8129C1450.5,-64.7895 1450.5,-55.0475 1450.5,-46.0691"/>
<polygon fill="black" stroke="black" points="1454,-46.0288 1450.5,-36.0288 1447,-46.0289 1454,-46.0288"/>
</g>
<!-- D1 -->
<g id="node8" class="node"><title>D1</title>
<polygon fill="white" stroke="black" points="793,-415 604,-415 604,-379 793,-379 793,-415"/>
<text text-anchor="middle" x="698.5" y="-393.3" font-family="Times,serif" font-size="14.00">DOBJ: 12 muffin cups or line</text>
</g>
<!-- D1&#45;&gt;E1 -->
<g id="edge1" class="edge"><title>D1&#45;&gt;E1</title>
<path fill="none" stroke="black" d="M731.334,-378.809C764.624,-361.38 816.101,-334.429 851.223,-316.041"/>
<polygon fill="black" stroke="black" points="852.986,-319.068 860.221,-311.329 849.739,-312.867 852.986,-319.068"/>
</g>
<!-- P1_0 -->
<g id="node9" class="node"><title>P1_0</title>
<polygon fill="white" stroke="black" points="968,-415 811,-415 811,-379 968,-379 968,-415"/>
<text text-anchor="middle" x="889.5" y="-393.3" font-family="Times,serif" font-size="14.00">PREP: with paper liners</text>
</g>
<!-- P1_0&#45;&gt;E1 -->
<g id="edge2" class="edge"><title>P1_0&#45;&gt;E1</title>
<path fill="none" stroke="black" d="M889.5,-378.581C889.5,-363.382 889.5,-341.067 889.5,-323.464"/>
<polygon fill="black" stroke="black" points="893,-323.219 889.5,-313.219 886,-323.219 893,-323.219"/>
</g>
<!-- D2 -->
<g id="node10" class="node"><title>D2</title>
<polygon fill="peachpuff" stroke="black" points="717,-594 0,-594 0,-556 717,-556 717,-594"/>
<text text-anchor="middle" x="358.5" y="-578.8" font-family="Times,serif" font-size="14.00">DOBJ: baking powder, ground nutmeg, brown sugar, white sugar, ground cinnamon, all&#45;purpose flour, baking soda, salt</text>
<text text-anchor="middle" x="358.5" y="-563.8" font-family="Times,serif" font-size="14.00">(text: flour , white sugar , brown sugar , cinnamon , baking powder , baking soda , nutmeg , salt)</text>
</g>
<!-- D2&#45;&gt;E2 -->
<g id="edge3" class="edge"><title>D2&#45;&gt;E2</title>
<path fill="none" stroke="black" d="M469.736,-555.955C556.932,-541.81 675.063,-522.646 746.31,-511.089"/>
<polygon fill="black" stroke="black" points="747.162,-514.496 756.472,-509.44 746.041,-507.587 747.162,-514.496"/>
</g>
<!-- P2_0 -->
<g id="node11" class="node"><title>P2_0</title>
<polygon fill="white" stroke="black" points="881.5,-593 735.5,-593 735.5,-557 881.5,-557 881.5,-593"/>
<text text-anchor="middle" x="808.5" y="-571.3" font-family="Times,serif" font-size="14.00">PREP: in a large bowl</text>
</g>
<!-- P2_0&#45;&gt;E2 -->
<g id="edge4" class="edge"><title>P2_0&#45;&gt;E2</title>
<path fill="none" stroke="black" d="M808.5,-556.7C808.5,-548.245 808.5,-537.869 808.5,-528.373"/>
<polygon fill="black" stroke="black" points="812,-528.176 808.5,-518.176 805,-528.176 812,-528.176"/>
</g>
<!-- O2_0 -->
<g id="node12" class="node"><title>O2_0</title>
<polygon fill="white" stroke="black" points="1019,-593 900,-593 900,-557 1019,-557 1019,-593"/>
<text text-anchor="middle" x="959.5" y="-571.3" font-family="Times,serif" font-size="14.00">OTHER: together</text>
</g>
<!-- O2_0&#45;&gt;E2 -->
<g id="edge5" class="edge"><title>O2_0&#45;&gt;E2</title>
<path fill="none" stroke="black" d="M924.097,-556.885C901.319,-545.873 871.68,-531.544 848.117,-520.153"/>
<polygon fill="black" stroke="black" points="849.612,-516.988 839.086,-515.786 846.565,-523.29 849.612,-516.988"/>
</g>
<!-- D0 -->
<g id="node13" class="node"><title>D0</title>
<polygon fill="white" stroke="black" points="1950.5,-313 1632.5,-313 1632.5,-277 1950.5,-277 1950.5,-313"/>
<text text-anchor="middle" x="1791.5" y="-291.3" font-family="Times,serif" font-size="14.00">DOBJ: oven to 350 degrees F &#45;LRB&#45; 175 degrees C</text>
</g>
<!-- D0&#45;&gt;E0 -->
<g id="edge6" class="edge"><title>D0&#45;&gt;E0</title>
<path fill="none" stroke="black" d="M1791.5,-276.581C1791.5,-261.382 1791.5,-239.067 1791.5,-221.464"/>
<polygon fill="black" stroke="black" points="1795,-221.219 1791.5,-211.219 1788,-221.219 1795,-221.219"/>
</g>
<!-- D3_ing -->
<g id="node14" class="node"><title>D3_ing</title>
<polygon fill="peachpuff" stroke="black" points="1211.5,-519 887.5,-519 887.5,-481 1211.5,-481 1211.5,-519"/>
<text text-anchor="middle" x="1049.5" y="-503.8" font-family="Times,serif" font-size="14.00">DOBJ: canola oil, coconut milk, mashed ripe bananas</text>
<text text-anchor="middle" x="1049.5" y="-488.8" font-family="Times,serif" font-size="14.00">(text: &#160;canola oil , bananas , &#160;coconut milk)</text>
</g>
<!-- D3_ing&#45;&gt;E3 -->
<g id="edge7" class="edge"><title>D3_ing&#45;&gt;E3</title>
<path fill="none" stroke="black" d="M1049.5,-480.943C1049.5,-465.531 1049.5,-443.127 1049.5,-425.488"/>
<polygon fill="black" stroke="black" points="1053,-425.226 1049.5,-415.226 1046,-425.226 1053,-425.226"/>
</g>
<!-- O3_0_0 -->
<g id="node15" class="node"><title>O3_0_0</title>
<polygon fill="white" stroke="black" points="1349,-518 1230,-518 1230,-482 1349,-482 1349,-518"/>
<text text-anchor="middle" x="1289.5" y="-496.3" font-family="Times,serif" font-size="14.00">OTHER: together</text>
</g>
<!-- O3_0_0&#45;&gt;E3 -->
<g id="edge9" class="edge"><title>O3_0_0&#45;&gt;E3</title>
<path fill="none" stroke="black" d="M1249.06,-481.981C1205.75,-463.754 1137.27,-434.936 1092.86,-416.249"/>
<polygon fill="black" stroke="black" points="1094.07,-412.96 1083.5,-412.308 1091.36,-419.412 1094.07,-412.96"/>
</g>
<!-- P4_0_0 -->
<g id="node16" class="node"><title>P4_0_0</title>
<polygon fill="white" stroke="black" points="1294,-415 1131,-415 1131,-379 1294,-379 1294,-415"/>
<text text-anchor="middle" x="1212.5" y="-393.3" font-family="Times,serif" font-size="14.00">PREP: into flour mixture</text>
</g>
<!-- P4_0_0&#45;&gt;E4 -->
<g id="edge11" class="edge"><title>P4_0_0&#45;&gt;E4</title>
<path fill="none" stroke="black" d="M1212.36,-378.882C1211.41,-364.725 1208.08,-344.777 1197.5,-331 1192.56,-324.563 1186.09,-319.182 1179.13,-314.725"/>
<polygon fill="black" stroke="black" points="1180.55,-311.507 1170.14,-309.564 1177.07,-317.578 1180.55,-311.507"/>
</g>
<!-- O4_0_0 -->
<g id="node17" class="node"><title>O4_0_0</title>
<polygon fill="white" stroke="black" points="1495,-415 1312,-415 1312,-379 1495,-379 1495,-415"/>
<text text-anchor="middle" x="1403.5" y="-393.3" font-family="Times,serif" font-size="14.00">OTHER: until just combined</text>
</g>
<!-- O4_0_0&#45;&gt;E4 -->
<g id="edge12" class="edge"><title>O4_0_0&#45;&gt;E4</title>
<path fill="none" stroke="black" d="M1357.05,-378.923C1307.26,-360.619 1228.65,-331.718 1178.61,-313.321"/>
<polygon fill="black" stroke="black" points="1179.6,-309.953 1169,-309.788 1177.18,-316.523 1179.6,-309.953"/>
</g>
<!-- O6_0_0 -->
<g id="node18" class="node"><title>O6_0_0</title>
<polygon fill="white" stroke="black" points="1514,-211 1053,-211 1053,-175 1514,-175 1514,-211"/>
<text text-anchor="middle" x="1283.5" y="-189.3" font-family="Times,serif" font-size="14.00">OTHER: until a tooth pick inserted in the center of a muffin comes out clean </text>
</g>
<!-- O6_0_0&#45;&gt;E6 -->
<g id="edge17" class="edge"><title>O6_0_0&#45;&gt;E6</title>
<path fill="none" stroke="black" d="M1312.21,-174.809C1340.81,-157.681 1384.78,-131.356 1415.43,-113"/>
<polygon fill="black" stroke="black" points="1417.31,-115.954 1424.09,-107.814 1413.71,-109.948 1417.31,-115.954"/>
</g>
<!-- O6_0_1 -->
<g id="node19" class="node"><title>O6_0_1</title>
<polygon fill="white" stroke="black" points="1705,-211 1532,-211 1532,-175 1705,-175 1705,-211"/>
<text text-anchor="middle" x="1618.5" y="-189.3" font-family="Times,serif" font-size="14.00">OTHER: &#160;30 to 35 minutes</text>
</g>
<!-- O6_0_1&#45;&gt;E6 -->
<g id="edge18" class="edge"><title>O6_0_1&#45;&gt;E6</title>
<path fill="none" stroke="black" d="M1589.62,-174.809C1560.76,-157.63 1516.36,-131.2 1485.51,-112.837"/>
<polygon fill="black" stroke="black" points="1487.18,-109.759 1476.79,-107.652 1483.6,-115.774 1487.18,-109.759"/>
</g>
</g>
</svg>
