<?xml version="1.0" encoding="UTF-8" standalone="no"?>
<!DOCTYPE svg PUBLIC "-//W3C//DTD SVG 1.1//EN"
 "http://www.w3.org/Graphics/SVG/1.1/DTD/svg11.dtd">
<!-- Generated by graphviz version 2.38.0 (20140413.2041)
 -->
<!-- Title: recipe Pages: 1 -->
<svg width="1067pt" height="704pt"
 viewBox="0.00 0.00 1067.00 704.00" xmlns="http://www.w3.org/2000/svg" xmlns:xlink="http://www.w3.org/1999/xlink">
<g id="graph0" class="graph" transform="scale(1 1) rotate(0) translate(4 700)">
<title>recipe</title>
<polygon fill="white" stroke="none" points="-4,4 -4,-700 1063,-700 1063,4 -4,4"/>
<!-- E0 -->
<g id="node1" class="node"><title>E0</title>
<ellipse fill="azure" stroke="black" cx="793" cy="-193" rx="68.7879" ry="18"/>
<text text-anchor="middle" x="793" y="-189.3" font-family="Times,serif" font-size="14.00">preheat (S0,P0)</text>
</g>
<!-- E7 -->
<g id="node8" class="node"><title>E7</title>
<ellipse fill="azure" stroke="black" cx="694" cy="-91" rx="68.7879" ry="18"/>
<text text-anchor="middle" x="694" y="-87.3" font-family="Times,serif" font-size="14.00">bake (S8,P252)</text>
</g>
<!-- E0&#45;&gt;E7 -->
<g id="edge15" class="edge"><title>E0&#45;&gt;E7</title>
<path fill="none" stroke="black" d="M776.652,-175.487C760.602,-159.275 735.945,-134.369 717.737,-115.977"/>
<polygon fill="black" stroke="black" points="719.895,-113.182 710.372,-108.537 714.92,-118.106 719.895,-113.182"/>
<text text-anchor="middle" x="896" y="-145.8" font-family="Times,serif" font-size="14.00">OUTPUT: </text>
<text text-anchor="middle" x="896" y="-130.8" font-family="Times,serif" font-size="14.00">INPUT: in preheated oven for 20 to 25 minutes</text>
</g>
<!-- E1 -->
<g id="node2" class="node"><title>E1</title>
<ellipse fill="azure" stroke="black" cx="168" cy="-295" rx="69.5877" ry="18"/>
<text text-anchor="middle" x="168" y="-291.3" font-family="Times,serif" font-size="14.00">grease (S1,P38)</text>
</g>
<!-- E6 -->
<g id="node7" class="node"><title>E6</title>
<ellipse fill="azure" stroke="black" cx="561" cy="-193" rx="74.187" ry="18"/>
<text text-anchor="middle" x="561" y="-189.3" font-family="Times,serif" font-size="14.00">spoon (S7,P203)</text>
</g>
<!-- E1&#45;&gt;E6 -->
<g id="edge12" class="edge"><title>E1&#45;&gt;E6</title>
<path fill="none" stroke="black" d="M179.264,-277.204C190.609,-261.805 209.607,-239.805 232,-229 273.964,-208.751 394.869,-200.111 477.809,-196.497"/>
<polygon fill="black" stroke="black" points="478.136,-199.987 487.98,-196.071 477.842,-192.993 478.136,-199.987"/>
<text text-anchor="middle" x="304.5" y="-247.8" font-family="Times,serif" font-size="14.00">OUTPUT: </text>
<text text-anchor="middle" x="304.5" y="-232.8" font-family="Times,serif" font-size="14.00">INPUT: into muffin cups</text>
</g>
<!-- E2 -->
<g id="node3" class="node"><title>E2</title>
<ellipse fill="azure" stroke="black" cx="123" cy="-603" rx="109.381" ry="18"/>
<text text-anchor="middle" x="123" y="-599.3" font-family="Times,serif" font-size="14.00">combine mashed (S2,P94)</text>
</g>
<!-- E3 -->
<g id="node4" class="node"><title>E3</title>
<ellipse fill="azure" stroke="black" cx="267" cy="-501" rx="65.7887" ry="18"/>
<text text-anchor="middle" x="267" y="-497.3" font-family="Times,serif" font-size="14.00">mix (S3,P148)</text>
</g>
<!-- E2&#45;&gt;E3 -->
<g id="edge4" class="edge"><title>E2&#45;&gt;E3</title>
<path fill="none" stroke="black" d="M147.102,-585.262C171.377,-568.405 208.946,-542.316 235.552,-523.839"/>
<polygon fill="black" stroke="black" points="237.557,-526.708 243.774,-518.129 233.564,-520.958 237.557,-526.708"/>
<text text-anchor="middle" x="249" y="-555.8" font-family="Times,serif" font-size="14.00">OUTPUT: </text>
<text text-anchor="middle" x="249" y="-540.8" font-family="Times,serif" font-size="14.00">INPUT: </text>
</g>
<!-- E4 -->
<g id="node5" class="node"><title>E4</title>
<ellipse fill="azure" stroke="black" cx="395" cy="-398" rx="63.0888" ry="18"/>
<text text-anchor="middle" x="395" y="-394.3" font-family="Times,serif" font-size="14.00">stir (S5,P163)</text>
</g>
<!-- E3&#45;&gt;E4 -->
<g id="edge6" class="edge"><title>E3&#45;&gt;E4</title>
<path fill="none" stroke="black" d="M285.611,-483.508C300.978,-470.082 323.512,-450.831 344,-435 350.073,-430.307 356.688,-425.456 363.081,-420.894"/>
<polygon fill="black" stroke="black" points="365.435,-423.516 371.59,-414.892 361.401,-417.796 365.435,-423.516"/>
<text text-anchor="middle" x="376" y="-453.8" font-family="Times,serif" font-size="14.00">OUTPUT: </text>
<text text-anchor="middle" x="376" y="-438.8" font-family="Times,serif" font-size="14.00">INPUT: </text>
</g>
<!-- E5 -->
<g id="node6" class="node"><title>E5</title>
<ellipse fill="azure" stroke="black" cx="395" cy="-295" rx="66.0889" ry="18"/>
<text text-anchor="middle" x="395" y="-291.3" font-family="Times,serif" font-size="14.00">fold (S6,P185)</text>
</g>
<!-- E4&#45;&gt;E5 -->
<g id="edge8" class="edge"><title>E4&#45;&gt;E5</title>
<path fill="none" stroke="black" d="M395,-379.867C395,-364.414 395,-341.416 395,-323.409"/>
<polygon fill="black" stroke="black" points="398.5,-323.217 395,-313.217 391.5,-323.217 398.5,-323.217"/>
<text text-anchor="middle" x="427" y="-349.8" font-family="Times,serif" font-size="14.00">OUTPUT: </text>
<text text-anchor="middle" x="427" y="-334.8" font-family="Times,serif" font-size="14.00">INPUT: </text>
</g>
<!-- E5&#45;&gt;E6 -->
<g id="edge10" class="edge"><title>E5&#45;&gt;E6</title>
<path fill="none" stroke="black" d="M386.577,-276.869C380.861,-262.511 376.123,-242.283 387,-229 399.238,-214.055 441.223,-205.354 480.883,-200.365"/>
<polygon fill="black" stroke="black" points="481.379,-203.831 490.896,-199.175 480.553,-196.88 481.379,-203.831"/>
<text text-anchor="middle" x="468.5" y="-247.8" font-family="Times,serif" font-size="14.00">OUTPUT: </text>
<text text-anchor="middle" x="468.5" y="-232.8" font-family="Times,serif" font-size="14.00">INPUT: &#160;about 1/4 cup each</text>
</g>
<!-- E6&#45;&gt;E7 -->
<g id="edge14" class="edge"><title>E6&#45;&gt;E7</title>
<path fill="none" stroke="black" d="M582.665,-175.711C604.788,-159.076 639.305,-133.124 664.04,-114.527"/>
<polygon fill="black" stroke="black" points="666.455,-117.089 672.345,-108.282 662.248,-111.494 666.455,-117.089"/>
<text text-anchor="middle" x="680" y="-145.8" font-family="Times,serif" font-size="14.00">OUTPUT: </text>
<text text-anchor="middle" x="680" y="-130.8" font-family="Times,serif" font-size="14.00">INPUT: </text>
</g>
<!-- EOR -->
<g id="node17" class="node"><title>EOR</title>
<ellipse fill="plum" stroke="black" cx="694" cy="-18" rx="57.3905" ry="18"/>
<text text-anchor="middle" x="694" y="-14.3" font-family="Times,serif" font-size="14.00">Bon appetit!</text>
</g>
<!-- E7&#45;&gt;EOR -->
<g id="edge16" class="edge"><title>E7&#45;&gt;EOR</title>
<path fill="none" stroke="black" d="M694,-72.8129C694,-64.7895 694,-55.0475 694,-46.0691"/>
<polygon fill="black" stroke="black" points="697.5,-46.0288 694,-36.0288 690.5,-46.0289 697.5,-46.0288"/>
</g>
<!-- D1 -->
<g id="node9" class="node"><title>D1</title>
<polygon fill="white" stroke="black" points="314,-416 0,-416 0,-380 314,-380 314,-416"/>
<text text-anchor="middle" x="157" y="-394.3" font-family="Times,serif" font-size="14.00">DOBJ: muffin cups or line with paper muffin liners</text>
</g>
<!-- D1&#45;&gt;E1 -->
<g id="edge1" class="edge"><title>D1&#45;&gt;E1</title>
<path fill="none" stroke="black" d="M158.866,-379.867C160.549,-364.414 163.054,-341.416 165.015,-323.409"/>
<polygon fill="black" stroke="black" points="168.521,-323.538 166.125,-313.217 161.563,-322.78 168.521,-323.538"/>
</g>
<!-- D2 -->
<g id="node10" class="node"><title>D2</title>
<polygon fill="peachpuff" stroke="black" points="203.5,-696 42.5,-696 42.5,-658 203.5,-658 203.5,-696"/>
<text text-anchor="middle" x="123" y="-680.8" font-family="Times,serif" font-size="14.00">DOBJ: very ripe bananas</text>
<text text-anchor="middle" x="123" y="-665.8" font-family="Times,serif" font-size="14.00">(text: bananas)</text>
</g>
<!-- D2&#45;&gt;E2 -->
<g id="edge2" class="edge"><title>D2&#45;&gt;E2</title>
<path fill="none" stroke="black" d="M123,-657.831C123,-649.894 123,-640.409 123,-631.628"/>
<polygon fill="black" stroke="black" points="126.5,-631.418 123,-621.418 119.5,-631.418 126.5,-631.418"/>
</g>
<!-- D0 -->
<g id="node11" class="node"><title>D0</title>
<polygon fill="white" stroke="black" points="1059,-313 741,-313 741,-277 1059,-277 1059,-313"/>
<text text-anchor="middle" x="900" y="-291.3" font-family="Times,serif" font-size="14.00">DOBJ: oven to 350 degrees F &#45;LRB&#45; 175 degrees C</text>
</g>
<!-- D0&#45;&gt;E0 -->
<g id="edge3" class="edge"><title>D0&#45;&gt;E0</title>
<path fill="none" stroke="black" d="M881.362,-276.581C863.813,-260.18 837.4,-235.495 818.022,-217.385"/>
<polygon fill="black" stroke="black" points="820.41,-214.826 810.714,-210.555 815.63,-219.94 820.41,-214.826"/>
</g>
<!-- P3_0_0 -->
<g id="node12" class="node"><title>P3_0_0</title>
<polygon fill="white" stroke="black" points="382,-621 250,-621 250,-585 382,-585 382,-621"/>
<text text-anchor="middle" x="316" y="-599.3" font-family="Times,serif" font-size="14.00">PREP: until smooth</text>
</g>
<!-- P3_0_0&#45;&gt;E3 -->
<g id="edge5" class="edge"><title>P3_0_0&#45;&gt;E3</title>
<path fill="none" stroke="black" d="M307.465,-584.581C299.83,-569 288.532,-545.943 279.813,-528.149"/>
<polygon fill="black" stroke="black" points="282.817,-526.326 275.274,-518.886 276.531,-529.406 282.817,-526.326"/>
</g>
<!-- P4_0_0 -->
<g id="node13" class="node"><title>P4_0_0</title>
<polygon fill="white" stroke="black" points="525.5,-519 350.5,-519 350.5,-483 525.5,-483 525.5,-519"/>
<text text-anchor="middle" x="438" y="-497.3" font-family="Times,serif" font-size="14.00">PREP: into banana mixture</text>
</g>
<!-- P4_0_0&#45;&gt;E4 -->
<g id="edge7" class="edge"><title>P4_0_0&#45;&gt;E4</title>
<path fill="none" stroke="black" d="M430.706,-482.867C424.034,-467.196 414.059,-443.766 406.347,-425.651"/>
<polygon fill="black" stroke="black" points="409.468,-424.047 402.33,-416.217 403.027,-426.789 409.468,-424.047"/>
</g>
<!-- P5_0_ing -->
<g id="node14" class="node"><title>P5_0_ing</title>
<polygon fill="peachpuff" stroke="black" points="614,-417 476,-417 476,-379 614,-379 614,-417"/>
<text text-anchor="middle" x="545" y="-401.8" font-family="Times,serif" font-size="14.00">PREP: in blueberries</text>
<text text-anchor="middle" x="545" y="-386.8" font-family="Times,serif" font-size="14.00">(text: in blueberries)</text>
</g>
<!-- P5_0_ing&#45;&gt;E5 -->
<g id="edge9" class="edge"><title>P5_0_ing&#45;&gt;E5</title>
<path fill="none" stroke="black" d="M524.981,-378.971C508.894,-364.966 485.368,-345.544 463,-331 454.656,-325.574 445.368,-320.325 436.404,-315.615"/>
<polygon fill="black" stroke="black" points="437.73,-312.361 427.234,-310.915 434.537,-318.591 437.73,-312.361"/>
</g>
<!-- D6_1 -->
<g id="node15" class="node"><title>D6_1</title>
<polygon fill="white" stroke="black" points="595,-313 503,-313 503,-277 595,-277 595,-313"/>
<text text-anchor="middle" x="549" y="-291.3" font-family="Times,serif" font-size="14.00">DOBJ: batter</text>
</g>
<!-- D6_1&#45;&gt;E6 -->
<g id="edge11" class="edge"><title>D6_1&#45;&gt;E6</title>
<path fill="none" stroke="black" d="M551.09,-276.581C552.914,-261.382 555.592,-239.067 557.704,-221.464"/>
<polygon fill="black" stroke="black" points="561.217,-221.565 558.934,-211.219 554.267,-220.731 561.217,-221.565"/>
</g>
<!-- O6_0_0 -->
<g id="node16" class="node"><title>O6_0_0</title>
<polygon fill="white" stroke="black" points="723,-313 613,-313 613,-277 723,-277 723,-313"/>
<text text-anchor="middle" x="668" y="-291.3" font-family="Times,serif" font-size="14.00">OTHER: evenly</text>
</g>
<!-- O6_0_0&#45;&gt;E6 -->
<g id="edge13" class="edge"><title>O6_0_0&#45;&gt;E6</title>
<path fill="none" stroke="black" d="M649.362,-276.581C631.813,-260.18 605.4,-235.495 586.022,-217.385"/>
<polygon fill="black" stroke="black" points="588.41,-214.826 578.714,-210.555 583.63,-219.94 588.41,-214.826"/>
</g>
</g>
</svg>
