<?xml version="1.0" encoding="UTF-8" standalone="no"?>
<!DOCTYPE svg PUBLIC "-//W3C//DTD SVG 1.1//EN"
 "http://www.w3.org/Graphics/SVG/1.1/DTD/svg11.dtd">
<!-- Generated by graphviz version 2.38.0 (20140413.2041)
 -->
<!-- Title: recipe Pages: 1 -->
<svg width="2308pt" height="910pt"
 viewBox="0.00 0.00 2308.00 910.00" xmlns="http://www.w3.org/2000/svg" xmlns:xlink="http://www.w3.org/1999/xlink">
<g id="graph0" class="graph" transform="scale(1 1) rotate(0) translate(4 906)">
<title>recipe</title>
<polygon fill="white" stroke="none" points="-4,4 -4,-906 2304,-906 2304,4 -4,4"/>
<!-- E0 -->
<g id="node1" class="node"><title>E0</title>
<ellipse fill="azure" stroke="black" cx="2141" cy="-398" rx="68.7879" ry="18"/>
<text text-anchor="middle" x="2141" y="-394.3" font-family="Times,serif" font-size="14.00">preheat (S0,P0)</text>
</g>
<!-- E10 -->
<g id="node11" class="node"><title>E10</title>
<ellipse fill="azure" stroke="black" cx="1660" cy="-295" rx="73.387" ry="18"/>
<text text-anchor="middle" x="1660" y="-291.3" font-family="Times,serif" font-size="14.00">bake (S10,P458)</text>
</g>
<!-- E0&#45;&gt;E10 -->
<g id="edge25" class="edge"><title>E0&#45;&gt;E10</title>
<path fill="none" stroke="black" d="M2091.52,-385.397C2082.06,-383.231 2072.23,-381.016 2063,-379 1944.04,-353.027 1804.82,-324.843 1725.07,-308.908"/>
<polygon fill="black" stroke="black" points="1725.66,-305.457 1715.17,-306.932 1724.29,-312.322 1725.66,-305.457"/>
<text text-anchor="middle" x="2060.5" y="-349.8" font-family="Times,serif" font-size="14.00">OUTPUT: </text>
<text text-anchor="middle" x="2060.5" y="-334.8" font-family="Times,serif" font-size="14.00">INPUT: in the preheated oven</text>
</g>
<!-- E1 -->
<g id="node2" class="node"><title>E1</title>
<ellipse fill="azure" stroke="black" cx="1347" cy="-501" rx="69.5877" ry="18"/>
<text text-anchor="middle" x="1347" y="-497.3" font-family="Times,serif" font-size="14.00">grease (S1,P38)</text>
</g>
<!-- E9 -->
<g id="node10" class="node"><title>E9</title>
<ellipse fill="azure" stroke="black" cx="1368" cy="-398" rx="74.187" ry="18"/>
<text text-anchor="middle" x="1368" y="-394.3" font-family="Times,serif" font-size="14.00">divide (S9,P422)</text>
</g>
<!-- E1&#45;&gt;E9 -->
<g id="edge22" class="edge"><title>E1&#45;&gt;E9</title>
<path fill="none" stroke="black" d="M1350.56,-482.867C1353.79,-467.341 1358.6,-444.2 1362.35,-426.156"/>
<polygon fill="black" stroke="black" points="1365.81,-426.72 1364.42,-416.217 1358.96,-425.295 1365.81,-426.72"/>
<text text-anchor="middle" x="1407.5" y="-453.8" font-family="Times,serif" font-size="14.00">OUTPUT: </text>
<text text-anchor="middle" x="1407.5" y="-438.8" font-family="Times,serif" font-size="14.00">INPUT: mixture</text>
</g>
<!-- E2 -->
<g id="node3" class="node"><title>E2</title>
<ellipse fill="azure" stroke="black" cx="450" cy="-809" rx="65.7887" ry="18"/>
<text text-anchor="middle" x="450" y="-805.3" font-family="Times,serif" font-size="14.00">place (S2,P84)</text>
</g>
<!-- E3 -->
<g id="node4" class="node"><title>E3</title>
<ellipse fill="azure" stroke="black" cx="450" cy="-707" rx="70.6878" ry="18"/>
<text text-anchor="middle" x="450" y="-703.3" font-family="Times,serif" font-size="14.00">drain (S3,P188)</text>
</g>
<!-- E2&#45;&gt;E3 -->
<g id="edge9" class="edge"><title>E2&#45;&gt;E3</title>
<path fill="none" stroke="black" d="M450,-790.581C450,-775.382 450,-753.067 450,-735.464"/>
<polygon fill="black" stroke="black" points="453.5,-735.219 450,-725.219 446.5,-735.219 453.5,-735.219"/>
<text text-anchor="middle" x="511" y="-761.8" font-family="Times,serif" font-size="14.00">OUTPUT: </text>
<text text-anchor="middle" x="511" y="-746.8" font-family="Times,serif" font-size="14.00">INPUT: sweet potato</text>
</g>
<!-- E4 -->
<g id="node5" class="node"><title>E4</title>
<ellipse fill="azure" stroke="black" cx="589" cy="-604" rx="61.1893" ry="18"/>
<text text-anchor="middle" x="589" y="-600.3" font-family="Times,serif" font-size="14.00">set (S4,P205)</text>
</g>
<!-- E3&#45;&gt;E4 -->
<g id="edge10" class="edge"><title>E3&#45;&gt;E4</title>
<path fill="none" stroke="black" d="M465.9,-689.226C479.658,-675.278 500.512,-655.445 521,-641 529.515,-634.996 539.155,-629.309 548.442,-624.303"/>
<polygon fill="black" stroke="black" points="550.317,-627.272 557.558,-619.537 547.074,-621.068 550.317,-627.272"/>
<text text-anchor="middle" x="553" y="-659.8" font-family="Times,serif" font-size="14.00">OUTPUT: </text>
<text text-anchor="middle" x="553" y="-644.8" font-family="Times,serif" font-size="14.00">INPUT: </text>
</g>
<!-- E6 -->
<g id="node7" class="node"><title>E6</title>
<ellipse fill="azure" stroke="black" cx="835" cy="-501" rx="63.0888" ry="18"/>
<text text-anchor="middle" x="835" y="-497.3" font-family="Times,serif" font-size="14.00">stir (S6,P279)</text>
</g>
<!-- E4&#45;&gt;E6 -->
<g id="edge14" class="edge"><title>E4&#45;&gt;E6</title>
<path fill="none" stroke="black" d="M606.776,-586.688C624.181,-571.59 652.082,-549.628 680,-537 707.647,-524.495 740.15,-516.274 768.233,-510.965"/>
<polygon fill="black" stroke="black" points="769.142,-514.358 778.362,-509.138 767.9,-507.469 769.142,-514.358"/>
<text text-anchor="middle" x="757" y="-555.8" font-family="Times,serif" font-size="14.00">OUTPUT: </text>
<text text-anchor="middle" x="757" y="-540.8" font-family="Times,serif" font-size="14.00">INPUT: in a separate bowl</text>
</g>
<!-- E5 -->
<g id="node6" class="node"><title>E5</title>
<ellipse fill="azure" stroke="black" cx="450" cy="-501" rx="74.187" ry="18"/>
<text text-anchor="middle" x="450" y="-497.3" font-family="Times,serif" font-size="14.00">whisk (S5,P220)</text>
</g>
<!-- E7 -->
<g id="node8" class="node"><title>E7</title>
<ellipse fill="azure" stroke="black" cx="835" cy="-398" rx="63.0888" ry="18"/>
<text text-anchor="middle" x="835" y="-394.3" font-family="Times,serif" font-size="14.00">stir (S7,P327)</text>
</g>
<!-- E5&#45;&gt;E7 -->
<g id="edge17" class="edge"><title>E5&#45;&gt;E7</title>
<path fill="none" stroke="black" d="M495.215,-486.54C541.472,-472.93 615.502,-451.594 680,-435 711.831,-426.811 747.553,-418.458 776.674,-411.862"/>
<polygon fill="black" stroke="black" points="777.697,-415.219 786.682,-409.606 776.157,-408.391 777.697,-415.219"/>
<text text-anchor="middle" x="755.5" y="-453.8" font-family="Times,serif" font-size="14.00">OUTPUT: </text>
<text text-anchor="middle" x="755.5" y="-438.8" font-family="Times,serif" font-size="14.00">INPUT: into spelt mixture</text>
</g>
<!-- E6&#45;&gt;E7 -->
<g id="edge16" class="edge"><title>E6&#45;&gt;E7</title>
<path fill="none" stroke="black" d="M835,-482.867C835,-467.414 835,-444.416 835,-426.409"/>
<polygon fill="black" stroke="black" points="838.5,-426.217 835,-416.217 831.5,-426.217 838.5,-426.217"/>
<text text-anchor="middle" x="904.5" y="-453.8" font-family="Times,serif" font-size="14.00">OUTPUT: </text>
<text text-anchor="middle" x="904.5" y="-438.8" font-family="Times,serif" font-size="14.00">INPUT: banana mixture</text>
</g>
<!-- E8 -->
<g id="node9" class="node"><title>E8</title>
<ellipse fill="azure" stroke="black" cx="1068" cy="-295" rx="66.0889" ry="18"/>
<text text-anchor="middle" x="1068" y="-291.3" font-family="Times,serif" font-size="14.00">fold (S8,P396)</text>
</g>
<!-- E7&#45;&gt;E8 -->
<g id="edge19" class="edge"><title>E7&#45;&gt;E8</title>
<path fill="none" stroke="black" d="M862.591,-381.714C888.751,-367.555 929.387,-346.42 966,-331 982.003,-324.26 999.799,-317.81 1015.99,-312.324"/>
<polygon fill="black" stroke="black" points="1017.45,-315.525 1025.83,-309.039 1015.24,-308.885 1017.45,-315.525"/>
<text text-anchor="middle" x="998" y="-349.8" font-family="Times,serif" font-size="14.00">OUTPUT: </text>
<text text-anchor="middle" x="998" y="-334.8" font-family="Times,serif" font-size="14.00">INPUT: </text>
</g>
<!-- E11 -->
<g id="node12" class="node"><title>E11</title>
<ellipse fill="azure" stroke="black" cx="1448" cy="-193" rx="72.2875" ry="18"/>
<text text-anchor="middle" x="1448" y="-189.3" font-family="Times,serif" font-size="14.00">cool (S11,P545)</text>
</g>
<!-- E8&#45;&gt;E11 -->
<g id="edge29" class="edge"><title>E8&#45;&gt;E11</title>
<path fill="none" stroke="black" d="M1113.84,-281.938C1183.17,-263.692 1314.63,-229.097 1390.36,-209.169"/>
<polygon fill="black" stroke="black" points="1391.43,-212.507 1400.21,-206.577 1389.65,-205.737 1391.43,-212.507"/>
<text text-anchor="middle" x="1402.5" y="-247.8" font-family="Times,serif" font-size="14.00">OUTPUT: </text>
<text text-anchor="middle" x="1402.5" y="-232.8" font-family="Times,serif" font-size="14.00">INPUT: in pan for 10 minutes</text>
</g>
<!-- E9&#45;&gt;E10 -->
<g id="edge24" class="edge"><title>E9&#45;&gt;E10</title>
<path fill="none" stroke="black" d="M1408.91,-382.85C1461.58,-364.631 1553.08,-332.984 1609.87,-313.338"/>
<polygon fill="black" stroke="black" points="1611.06,-316.631 1619.37,-310.054 1608.77,-310.015 1611.06,-316.631"/>
<text text-anchor="middle" x="1590" y="-349.8" font-family="Times,serif" font-size="14.00">OUTPUT: </text>
<text text-anchor="middle" x="1590" y="-334.8" font-family="Times,serif" font-size="14.00">INPUT: </text>
</g>
<!-- E10&#45;&gt;E11 -->
<g id="edge28" class="edge"><title>E10&#45;&gt;E11</title>
<path fill="none" stroke="black" d="M1627.8,-278.812C1590.73,-261.324 1529.74,-232.557 1489.23,-213.447"/>
<polygon fill="black" stroke="black" points="1490.69,-210.267 1480.15,-209.167 1487.7,-216.598 1490.69,-210.267"/>
<text text-anchor="middle" x="1618" y="-247.8" font-family="Times,serif" font-size="14.00">OUTPUT: </text>
<text text-anchor="middle" x="1618" y="-232.8" font-family="Times,serif" font-size="14.00">INPUT: </text>
</g>
<!-- E12 -->
<g id="node13" class="node"><title>E12</title>
<ellipse fill="azure" stroke="black" cx="1289" cy="-91" rx="83.6854" ry="18"/>
<text text-anchor="middle" x="1289" y="-87.3" font-family="Times,serif" font-size="14.00">remove (S12,P567)</text>
</g>
<!-- E11&#45;&gt;E12 -->
<g id="edge30" class="edge"><title>E11&#45;&gt;E12</title>
<path fill="none" stroke="black" d="M1422.45,-175.933C1395.64,-159.072 1353.33,-132.462 1323.55,-113.733"/>
<polygon fill="black" stroke="black" points="1325.07,-110.554 1314.75,-108.193 1321.35,-116.479 1325.07,-110.554"/>
<text text-anchor="middle" x="1425" y="-145.8" font-family="Times,serif" font-size="14.00">OUTPUT: </text>
<text text-anchor="middle" x="1425" y="-130.8" font-family="Times,serif" font-size="14.00">INPUT: </text>
</g>
<!-- EOR -->
<g id="node33" class="node"><title>EOR</title>
<ellipse fill="plum" stroke="black" cx="1289" cy="-18" rx="57.3905" ry="18"/>
<text text-anchor="middle" x="1289" y="-14.3" font-family="Times,serif" font-size="14.00">Bon appetit!</text>
</g>
<!-- E12&#45;&gt;EOR -->
<g id="edge32" class="edge"><title>E12&#45;&gt;EOR</title>
<path fill="none" stroke="black" d="M1289,-72.8129C1289,-64.7895 1289,-55.0475 1289,-46.0691"/>
<polygon fill="black" stroke="black" points="1292.5,-46.0288 1289,-36.0288 1285.5,-46.0289 1292.5,-46.0288"/>
</g>
<!-- D2 -->
<g id="node14" class="node"><title>D2</title>
<polygon fill="peachpuff" stroke="black" points="300.5,-902 139.5,-902 139.5,-864 300.5,-864 300.5,-902"/>
<text text-anchor="middle" x="220" y="-886.8" font-family="Times,serif" font-size="14.00">DOBJ: sweet potato</text>
<text text-anchor="middle" x="220" y="-871.8" font-family="Times,serif" font-size="14.00">(text: diced sweet potato)</text>
</g>
<!-- D2&#45;&gt;E2 -->
<g id="edge1" class="edge"><title>D2&#45;&gt;E2</title>
<path fill="none" stroke="black" d="M277.742,-863.924C314.961,-852.273 362.923,-837.259 398.783,-826.033"/>
<polygon fill="black" stroke="black" points="400.06,-829.301 408.558,-822.973 397.969,-822.621 400.06,-829.301"/>
</g>
<!-- P2_0 -->
<g id="node15" class="node"><title>P2_0</title>
<polygon fill="white" stroke="black" points="581.5,-901 318.5,-901 318.5,-865 581.5,-865 581.5,-901"/>
<text text-anchor="middle" x="450" y="-879.3" font-family="Times,serif" font-size="14.00">PREP: into a small pan with enough water</text>
</g>
<!-- P2_0&#45;&gt;E2 -->
<g id="edge2" class="edge"><title>P2_0&#45;&gt;E2</title>
<path fill="none" stroke="black" d="M450,-864.937C450,-856.807 450,-846.876 450,-837.705"/>
<polygon fill="black" stroke="black" points="453.5,-837.441 450,-827.441 446.5,-837.441 453.5,-837.441"/>
</g>
<!-- O2_0 -->
<g id="node16" class="node"><title>O2_0</title>
<polygon fill="white" stroke="black" points="1030.5,-901 599.5,-901 599.5,-865 1030.5,-865 1030.5,-901"/>
<text text-anchor="middle" x="815" y="-879.3" font-family="Times,serif" font-size="14.00">OTHER: to cover , bring to a boil , cook until tender , about 10 minutes</text>
</g>
<!-- O2_0&#45;&gt;E2 -->
<g id="edge3" class="edge"><title>O2_0&#45;&gt;E2</title>
<path fill="none" stroke="black" d="M728.5,-864.937C661.74,-851.768 571.021,-833.873 511.521,-822.136"/>
<polygon fill="black" stroke="black" points="512.007,-818.664 501.518,-820.163 510.652,-825.532 512.007,-818.664"/>
</g>
<!-- D1 -->
<g id="node17" class="node"><title>D1</title>
<polygon fill="white" stroke="black" points="1387.5,-622 1198.5,-622 1198.5,-586 1387.5,-586 1387.5,-622"/>
<text text-anchor="middle" x="1293" y="-600.3" font-family="Times,serif" font-size="14.00">DOBJ: 12 muffin cups or line</text>
</g>
<!-- D1&#45;&gt;E1 -->
<g id="edge4" class="edge"><title>D1&#45;&gt;E1</title>
<path fill="none" stroke="black" d="M1302.16,-585.867C1310.67,-569.955 1323.45,-546.044 1333.2,-527.82"/>
<polygon fill="black" stroke="black" points="1336.35,-529.349 1337.97,-518.88 1330.17,-526.049 1336.35,-529.349"/>
</g>
<!-- P1_0 -->
<g id="node18" class="node"><title>P1_0</title>
<polygon fill="white" stroke="black" points="1606,-622 1406,-622 1406,-586 1606,-586 1606,-622"/>
<text text-anchor="middle" x="1506" y="-600.3" font-family="Times,serif" font-size="14.00">PREP: with paper muffin liners</text>
</g>
<!-- P1_0&#45;&gt;E1 -->
<g id="edge5" class="edge"><title>P1_0&#45;&gt;E1</title>
<path fill="none" stroke="black" d="M1479.03,-585.867C1451.89,-568.627 1409.97,-541.998 1380.66,-523.384"/>
<polygon fill="black" stroke="black" points="1382.32,-520.291 1372,-517.884 1378.57,-526.2 1382.32,-520.291"/>
</g>
<!-- D0 -->
<g id="node19" class="node"><title>D0</title>
<polygon fill="white" stroke="black" points="2300,-519 1982,-519 1982,-483 2300,-483 2300,-519"/>
<text text-anchor="middle" x="2141" y="-497.3" font-family="Times,serif" font-size="14.00">DOBJ: oven to 350 degrees F &#45;LRB&#45; 175 degrees C</text>
</g>
<!-- D0&#45;&gt;E0 -->
<g id="edge6" class="edge"><title>D0&#45;&gt;E0</title>
<path fill="none" stroke="black" d="M2141,-482.867C2141,-467.414 2141,-444.416 2141,-426.409"/>
<polygon fill="black" stroke="black" points="2144.5,-426.217 2141,-416.217 2137.5,-426.217 2144.5,-426.217"/>
</g>
<!-- D5 -->
<g id="node20" class="node"><title>D5</title>
<polygon fill="peachpuff" stroke="black" points="372,-623 0,-623 0,-585 372,-585 372,-623"/>
<text text-anchor="middle" x="186" y="-607.8" font-family="Times,serif" font-size="14.00">DOBJ: ground cinnamon, rolled oats, spelt flour, baking soda</text>
<text text-anchor="middle" x="186" y="-592.8" font-family="Times,serif" font-size="14.00">(text: spelt flour , oats , baking soda , cinnamon in a bowl)</text>
</g>
<!-- D5&#45;&gt;E5 -->
<g id="edge7" class="edge"><title>D5&#45;&gt;E5</title>
<path fill="none" stroke="black" d="M233.198,-584.943C280.929,-566.683 354.314,-538.607 402.244,-520.27"/>
<polygon fill="black" stroke="black" points="403.682,-523.468 411.771,-516.626 401.18,-516.93 403.682,-523.468"/>
</g>
<!-- O5_0 -->
<g id="node21" class="node"><title>O5_0</title>
<polygon fill="white" stroke="black" points="509.5,-622 390.5,-622 390.5,-586 509.5,-586 509.5,-622"/>
<text text-anchor="middle" x="450" y="-600.3" font-family="Times,serif" font-size="14.00">OTHER: together</text>
</g>
<!-- O5_0&#45;&gt;E5 -->
<g id="edge8" class="edge"><title>O5_0&#45;&gt;E5</title>
<path fill="none" stroke="black" d="M450,-585.867C450,-570.414 450,-547.416 450,-529.409"/>
<polygon fill="black" stroke="black" points="453.5,-529.217 450,-519.217 446.5,-529.217 453.5,-529.217"/>
</g>
<!-- O4_0_0 -->
<g id="node22" class="node"><title>O4_0_0</title>
<polygon fill="white" stroke="black" points="639.5,-725 538.5,-725 538.5,-689 639.5,-689 639.5,-725"/>
<text text-anchor="middle" x="589" y="-703.3" font-family="Times,serif" font-size="14.00">OTHER: aside</text>
</g>
<!-- O4_0_0&#45;&gt;E4 -->
<g id="edge11" class="edge"><title>O4_0_0&#45;&gt;E4</title>
<path fill="none" stroke="black" d="M589,-688.867C589,-673.414 589,-650.416 589,-632.409"/>
<polygon fill="black" stroke="black" points="592.5,-632.217 589,-622.217 585.5,-632.217 592.5,-632.217"/>
</g>
<!-- O4_1_0 -->
<g id="node23" class="node"><title>O4_1_0</title>
<polygon fill="white" stroke="black" points="770,-725 658,-725 658,-689 770,-689 770,-725"/>
<text text-anchor="middle" x="714" y="-703.3" font-family="Times,serif" font-size="14.00">OTHER: to cool</text>
</g>
<!-- O4_1_0&#45;&gt;E4 -->
<g id="edge12" class="edge"><title>O4_1_0&#45;&gt;E4</title>
<path fill="none" stroke="black" d="M692.795,-688.867C671.951,-672.025 640.015,-646.221 617.074,-627.684"/>
<polygon fill="black" stroke="black" points="619.044,-624.776 609.066,-621.213 614.645,-630.221 619.044,-624.776"/>
</g>
<!-- D6_ing -->
<g id="node24" class="node"><title>D6_ing</title>
<polygon fill="peachpuff" stroke="black" points="1016,-623 668,-623 668,-585 1016,-585 1016,-623"/>
<text text-anchor="middle" x="842" y="-607.8" font-family="Times,serif" font-size="14.00">DOBJ: sunflower seed oil, white sugar, very ripe bananas</text>
<text text-anchor="middle" x="842" y="-592.8" font-family="Times,serif" font-size="14.00">(text: bananas , &#160;oil , &#160;sugar)</text>
</g>
<!-- D6_ing&#45;&gt;E6 -->
<g id="edge13" class="edge"><title>D6_ing&#45;&gt;E6</title>
<path fill="none" stroke="black" d="M840.749,-584.943C839.68,-569.531 838.128,-547.127 836.905,-529.488"/>
<polygon fill="black" stroke="black" points="840.377,-528.96 836.194,-519.226 833.394,-529.444 840.377,-528.96"/>
</g>
<!-- O6_0_0 -->
<g id="node25" class="node"><title>O6_0_0</title>
<polygon fill="white" stroke="black" points="1153.5,-622 1034.5,-622 1034.5,-586 1153.5,-586 1153.5,-622"/>
<text text-anchor="middle" x="1094" y="-600.3" font-family="Times,serif" font-size="14.00">OTHER: together</text>
</g>
<!-- O6_0_0&#45;&gt;E6 -->
<g id="edge15" class="edge"><title>O6_0_0&#45;&gt;E6</title>
<path fill="none" stroke="black" d="M1050.36,-585.981C1003.15,-567.572 928.243,-538.361 880.373,-519.694"/>
<polygon fill="black" stroke="black" points="881.47,-516.365 870.882,-515.993 878.927,-522.887 881.47,-516.365"/>
</g>
<!-- O7_0_0 -->
<g id="node26" class="node"><title>O7_0_0</title>
<polygon fill="white" stroke="black" points="1213.5,-519 916.5,-519 916.5,-483 1213.5,-483 1213.5,-519"/>
<text text-anchor="middle" x="1065" y="-497.3" font-family="Times,serif" font-size="14.00">OTHER: just until dry ingredients are moistened</text>
</g>
<!-- O7_0_0&#45;&gt;E7 -->
<g id="edge18" class="edge"><title>O7_0_0&#45;&gt;E7</title>
<path fill="none" stroke="black" d="M1046.73,-482.92C1030.04,-468.192 1004.05,-447.395 978,-435 977.469,-434.748 930.468,-422.933 890.499,-412.907"/>
<polygon fill="black" stroke="black" points="891.337,-409.509 880.786,-410.471 889.634,-416.299 891.337,-409.509"/>
</g>
<!-- P8_0_ing -->
<g id="node27" class="node"><title>P8_0_ing</title>
<polygon fill="peachpuff" stroke="black" points="1108,-417 916,-417 916,-379 1108,-379 1108,-417"/>
<text text-anchor="middle" x="1012" y="-401.8" font-family="Times,serif" font-size="14.00">PREP: in chopped pitted dates</text>
<text text-anchor="middle" x="1012" y="-386.8" font-family="Times,serif" font-size="14.00">(text: in dates)</text>
</g>
<!-- P8_0_ing&#45;&gt;E8 -->
<g id="edge20" class="edge"><title>P8_0_ing&#45;&gt;E8</title>
<path fill="none" stroke="black" d="M1022.01,-378.943C1030.85,-362.998 1043.84,-339.57 1053.76,-321.676"/>
<polygon fill="black" stroke="black" points="1056.85,-323.336 1058.63,-312.893 1050.72,-319.941 1056.85,-323.336"/>
</g>
<!-- P8_0_0 -->
<g id="node28" class="node"><title>P8_0_0</title>
<polygon fill="white" stroke="black" points="1276,-416 1126,-416 1126,-380 1276,-380 1276,-416"/>
<text text-anchor="middle" x="1201" y="-394.3" font-family="Times,serif" font-size="14.00">PREP: in &#160;sweet potato</text>
</g>
<!-- P8_0_0&#45;&gt;E8 -->
<g id="edge21" class="edge"><title>P8_0_0&#45;&gt;E8</title>
<path fill="none" stroke="black" d="M1178.44,-379.867C1156.16,-362.951 1121.98,-336.994 1097.55,-318.44"/>
<polygon fill="black" stroke="black" points="1099.43,-315.474 1089.35,-312.213 1095.2,-321.049 1099.43,-315.474"/>
</g>
<!-- O9_0_0 -->
<g id="node29" class="node"><title>O9_0_0</title>
<polygon fill="white" stroke="black" points="1661.5,-519 1434.5,-519 1434.5,-483 1661.5,-483 1661.5,-519"/>
<text text-anchor="middle" x="1548" y="-497.3" font-family="Times,serif" font-size="14.00">OTHER: evenly into 12 muffin cups</text>
</g>
<!-- O9_0_0&#45;&gt;E9 -->
<g id="edge23" class="edge"><title>O9_0_0&#45;&gt;E9</title>
<path fill="none" stroke="black" d="M1527.79,-482.922C1510.37,-468.789 1484.13,-448.854 1459,-435 1446.55,-428.137 1432.51,-421.913 1419.26,-416.645"/>
<polygon fill="black" stroke="black" points="1420.37,-413.322 1409.78,-412.982 1417.85,-419.852 1420.37,-413.322"/>
</g>
<!-- O10_0_0 -->
<g id="node30" class="node"><title>O10_0_0</title>
<polygon fill="white" stroke="black" points="1860,-416 1460,-416 1460,-380 1860,-380 1860,-416"/>
<text text-anchor="middle" x="1660" y="-394.3" font-family="Times,serif" font-size="14.00">OTHER: until a toothpick inserted into the center comes out clean </text>
</g>
<!-- O10_0_0&#45;&gt;E10 -->
<g id="edge26" class="edge"><title>O10_0_0&#45;&gt;E10</title>
<path fill="none" stroke="black" d="M1660,-379.867C1660,-364.414 1660,-341.416 1660,-323.409"/>
<polygon fill="black" stroke="black" points="1663.5,-323.217 1660,-313.217 1656.5,-323.217 1663.5,-323.217"/>
</g>
<!-- O10_0_1 -->
<g id="node31" class="node"><title>O10_0_1</title>
<polygon fill="white" stroke="black" points="2054,-416 1878,-416 1878,-380 2054,-380 2054,-416"/>
<text text-anchor="middle" x="1966" y="-394.3" font-family="Times,serif" font-size="14.00">OTHER: &#160;about 18 minutes</text>
</g>
<!-- O10_0_1&#45;&gt;E10 -->
<g id="edge27" class="edge"><title>O10_0_1&#45;&gt;E10</title>
<path fill="none" stroke="black" d="M1914.44,-379.981C1858.04,-361.366 1768.17,-331.704 1711.71,-313.069"/>
<polygon fill="black" stroke="black" points="1712.51,-309.647 1701.92,-309.836 1710.32,-316.294 1712.51,-309.647"/>
</g>
<!-- O12_0_0 -->
<g id="node32" class="node"><title>O12_0_0</title>
<polygon fill="white" stroke="black" points="1358,-211 1092,-211 1092,-175 1358,-175 1358,-211"/>
<text text-anchor="middle" x="1225" y="-189.3" font-family="Times,serif" font-size="14.00">OTHER: to cool completely on a wire rack</text>
</g>
<!-- O12_0_0&#45;&gt;E12 -->
<g id="edge31" class="edge"><title>O12_0_0&#45;&gt;E12</title>
<path fill="none" stroke="black" d="M1236.15,-174.581C1246.21,-158.856 1261.15,-135.516 1272.58,-117.656"/>
<polygon fill="black" stroke="black" points="1275.75,-119.195 1278.19,-108.886 1269.85,-115.422 1275.75,-119.195"/>
</g>
</g>
</svg>
