<?xml version="1.0" encoding="UTF-8" standalone="no"?>
<!DOCTYPE svg PUBLIC "-//W3C//DTD SVG 1.1//EN"
 "http://www.w3.org/Graphics/SVG/1.1/DTD/svg11.dtd">
<!-- Generated by graphviz version 2.38.0 (20140413.2041)
 -->
<!-- Title: recipe Pages: 1 -->
<svg width="2259pt" height="604pt"
 viewBox="0.00 0.00 2258.50 604.00" xmlns="http://www.w3.org/2000/svg" xmlns:xlink="http://www.w3.org/1999/xlink">
<g id="graph0" class="graph" transform="scale(1 1) rotate(0) translate(4 600)">
<title>recipe</title>
<polygon fill="white" stroke="none" points="-4,4 -4,-600 2254.5,-600 2254.5,4 -4,4"/>
<!-- E0 -->
<g id="node1" class="node"><title>E0</title>
<ellipse fill="azure" stroke="black" cx="2020.5" cy="-296" rx="68.7879" ry="18"/>
<text text-anchor="middle" x="2020.5" y="-292.3" font-family="Times,serif" font-size="14.00">preheat (S0,P0)</text>
</g>
<!-- E9 -->
<g id="node10" class="node"><title>E9</title>
<ellipse fill="azure" stroke="black" cx="1688.5" cy="-193" rx="68.7879" ry="18"/>
<text text-anchor="middle" x="1688.5" y="-189.3" font-family="Times,serif" font-size="14.00">bake (S8,P376)</text>
</g>
<!-- E0&#45;&gt;E9 -->
<g id="edge21" class="edge"><title>E0&#45;&gt;E9</title>
<path fill="none" stroke="black" d="M1977.44,-281.9C1916.86,-263.47 1806.58,-229.923 1741.19,-210.029"/>
<polygon fill="black" stroke="black" points="1742.07,-206.639 1731.49,-207.077 1740.03,-213.336 1742.07,-206.639"/>
<text text-anchor="middle" x="2031.5" y="-247.8" font-family="Times,serif" font-size="14.00">OUTPUT: </text>
<text text-anchor="middle" x="2031.5" y="-232.8" font-family="Times,serif" font-size="14.00">INPUT: in preheated oven for 15 to 20 minutes</text>
</g>
<!-- E1 -->
<g id="node2" class="node"><title>E1</title>
<ellipse fill="azure" stroke="black" cx="414.5" cy="-399" rx="69.5877" ry="18"/>
<text text-anchor="middle" x="414.5" y="-395.3" font-family="Times,serif" font-size="14.00">grease (S1,P38)</text>
</g>
<!-- E7 -->
<g id="node8" class="node"><title>E7</title>
<ellipse fill="azure" stroke="black" cx="607.5" cy="-296" rx="74.187" ry="18"/>
<text text-anchor="middle" x="607.5" y="-292.3" font-family="Times,serif" font-size="14.00">spoon (S6,P305)</text>
</g>
<!-- E1&#45;&gt;E7 -->
<g id="edge17" class="edge"><title>E1&#45;&gt;E7</title>
<path fill="none" stroke="black" d="M421.676,-380.962C428.836,-366.053 441.256,-344.96 458.5,-333 479.065,-318.737 504.628,-310.095 528.742,-304.869"/>
<polygon fill="black" stroke="black" points="529.489,-308.289 538.61,-302.897 528.118,-301.424 529.489,-308.289"/>
<text text-anchor="middle" x="531" y="-351.8" font-family="Times,serif" font-size="14.00">OUTPUT: </text>
<text text-anchor="middle" x="531" y="-336.8" font-family="Times,serif" font-size="14.00">INPUT: into muffin cups</text>
</g>
<!-- E2 -->
<g id="node3" class="node"><title>E2</title>
<ellipse fill="azure" stroke="black" cx="586.5" cy="-502" rx="69.5877" ry="18"/>
<text text-anchor="middle" x="586.5" y="-498.3" font-family="Times,serif" font-size="14.00">whisk (S2,P73)</text>
</g>
<!-- E3 -->
<g id="node4" class="node"><title>E3</title>
<ellipse fill="azure" stroke="black" cx="607.5" cy="-399" rx="63.0888" ry="18"/>
<text text-anchor="middle" x="607.5" y="-395.3" font-family="Times,serif" font-size="14.00">stir (S3,P138)</text>
</g>
<!-- E2&#45;&gt;E3 -->
<g id="edge9" class="edge"><title>E2&#45;&gt;E3</title>
<path fill="none" stroke="black" d="M590.062,-483.867C593.29,-468.341 598.102,-445.2 601.854,-427.156"/>
<polygon fill="black" stroke="black" points="605.311,-427.72 603.92,-417.217 598.458,-426.295 605.311,-427.72"/>
<text text-anchor="middle" x="632.5" y="-453.8" font-family="Times,serif" font-size="14.00">OUTPUT: </text>
<text text-anchor="middle" x="632.5" y="-438.8" font-family="Times,serif" font-size="14.00">INPUT: </text>
</g>
<!-- E3&#45;&gt;E7 -->
<g id="edge16" class="edge"><title>E3&#45;&gt;E7</title>
<path fill="none" stroke="black" d="M607.5,-380.867C607.5,-365.414 607.5,-342.416 607.5,-324.409"/>
<polygon fill="black" stroke="black" points="611,-324.217 607.5,-314.217 604,-324.217 611,-324.217"/>
<text text-anchor="middle" x="648.5" y="-351.8" font-family="Times,serif" font-size="14.00">OUTPUT: </text>
<text text-anchor="middle" x="648.5" y="-336.8" font-family="Times,serif" font-size="14.00">INPUT: batter</text>
</g>
<!-- E4 -->
<g id="node5" class="node"><title>E4</title>
<ellipse fill="azure" stroke="black" cx="1530.5" cy="-502" rx="65.7887" ry="18"/>
<text text-anchor="middle" x="1530.5" y="-498.3" font-family="Times,serif" font-size="14.00">mix (S4,P166)</text>
</g>
<!-- E5 -->
<g id="node6" class="node"><title>E5</title>
<ellipse fill="azure" stroke="black" cx="1530.5" cy="-399" rx="69.5877" ry="18"/>
<text text-anchor="middle" x="1530.5" y="-395.3" font-family="Times,serif" font-size="14.00">pour (S5,P245)</text>
</g>
<!-- E4&#45;&gt;E5 -->
<g id="edge11" class="edge"><title>E4&#45;&gt;E5</title>
<path fill="none" stroke="black" d="M1530.5,-483.867C1530.5,-468.414 1530.5,-445.416 1530.5,-427.409"/>
<polygon fill="black" stroke="black" points="1534,-427.217 1530.5,-417.217 1527,-427.217 1534,-427.217"/>
<text text-anchor="middle" x="1599.5" y="-453.8" font-family="Times,serif" font-size="14.00">OUTPUT: </text>
<text text-anchor="middle" x="1599.5" y="-438.8" font-family="Times,serif" font-size="14.00">INPUT: yogurt mixture</text>
</g>
<!-- E6 -->
<g id="node7" class="node"><title>E6</title>
<ellipse fill="azure" stroke="black" cx="1688.5" cy="-296" rx="65.7887" ry="18"/>
<text text-anchor="middle" x="1688.5" y="-292.3" font-family="Times,serif" font-size="14.00">mix (S5,P282)</text>
</g>
<!-- E5&#45;&gt;E6 -->
<g id="edge13" class="edge"><title>E5&#45;&gt;E6</title>
<path fill="none" stroke="black" d="M1551.38,-381.647C1569.27,-367.956 1595.95,-348.264 1620.5,-333 1629.53,-327.388 1639.51,-321.787 1648.99,-316.732"/>
<polygon fill="black" stroke="black" points="1650.64,-319.817 1657.87,-312.07 1647.39,-313.619 1650.64,-319.817"/>
<text text-anchor="middle" x="1652.5" y="-351.8" font-family="Times,serif" font-size="14.00">OUTPUT: </text>
<text text-anchor="middle" x="1652.5" y="-336.8" font-family="Times,serif" font-size="14.00">INPUT: </text>
</g>
<!-- E6&#45;&gt;E9 -->
<g id="edge20" class="edge"><title>E6&#45;&gt;E9</title>
<path fill="none" stroke="black" d="M1688.5,-277.867C1688.5,-262.414 1688.5,-239.416 1688.5,-221.409"/>
<polygon fill="black" stroke="black" points="1692,-221.217 1688.5,-211.217 1685,-221.217 1692,-221.217"/>
<text text-anchor="middle" x="1735.5" y="-247.8" font-family="Times,serif" font-size="14.00">OUTPUT: </text>
<text text-anchor="middle" x="1735.5" y="-232.8" font-family="Times,serif" font-size="14.00">INPUT: muffins</text>
</g>
<!-- E8 -->
<g id="node9" class="node"><title>E8</title>
<ellipse fill="azure" stroke="black" cx="1130.5" cy="-193" rx="81.4863" ry="18"/>
<text text-anchor="middle" x="1130.5" y="-189.3" font-family="Times,serif" font-size="14.00">sprinkle (S7,P331)</text>
</g>
<!-- E7&#45;&gt;E8 -->
<g id="edge19" class="edge"><title>E7&#45;&gt;E8</title>
<path fill="none" stroke="black" d="M663.104,-284.039C730.071,-270.862 845.98,-248.13 945.5,-229 983.481,-221.699 1025.87,-213.67 1060.48,-207.146"/>
<polygon fill="black" stroke="black" points="1061.32,-210.551 1070.49,-205.26 1060.02,-203.672 1061.32,-210.551"/>
<text text-anchor="middle" x="1036" y="-247.8" font-family="Times,serif" font-size="14.00">OUTPUT: </text>
<text text-anchor="middle" x="1036" y="-232.8" font-family="Times,serif" font-size="14.00">INPUT: over batter in each cup</text>
</g>
<!-- E10 -->
<g id="node11" class="node"><title>E10</title>
<ellipse fill="azure" stroke="black" cx="1429.5" cy="-91" rx="79.0865" ry="18"/>
<text text-anchor="middle" x="1429.5" y="-87.3" font-family="Times,serif" font-size="14.00">remove (S9,P419)</text>
</g>
<!-- E8&#45;&gt;E10 -->
<g id="edge23" class="edge"><title>E8&#45;&gt;E10</title>
<path fill="none" stroke="black" d="M1170.76,-177.332C1208.13,-163.842 1265.38,-143.492 1315.5,-127 1334.34,-120.802 1355.04,-114.342 1373.57,-108.684"/>
<polygon fill="black" stroke="black" points="1374.78,-111.975 1383.33,-105.717 1372.74,-105.277 1374.78,-111.975"/>
<text text-anchor="middle" x="1370.5" y="-145.8" font-family="Times,serif" font-size="14.00">OUTPUT: </text>
<text text-anchor="middle" x="1370.5" y="-130.8" font-family="Times,serif" font-size="14.00">INPUT: from oven</text>
</g>
<!-- E9&#45;&gt;E10 -->
<g id="edge22" class="edge"><title>E9&#45;&gt;E10</title>
<path fill="none" stroke="black" d="M1651.67,-177.779C1605.88,-160.099 1527.63,-129.887 1477.27,-110.443"/>
<polygon fill="black" stroke="black" points="1478.48,-107.161 1467.89,-106.824 1475.96,-113.691 1478.48,-107.161"/>
<text text-anchor="middle" x="1629.5" y="-145.8" font-family="Times,serif" font-size="14.00">OUTPUT: </text>
<text text-anchor="middle" x="1629.5" y="-130.8" font-family="Times,serif" font-size="14.00">INPUT: </text>
</g>
<!-- EOR -->
<g id="node26" class="node"><title>EOR</title>
<ellipse fill="plum" stroke="black" cx="1429.5" cy="-18" rx="57.3905" ry="18"/>
<text text-anchor="middle" x="1429.5" y="-14.3" font-family="Times,serif" font-size="14.00">Bon appetit!</text>
</g>
<!-- E10&#45;&gt;EOR -->
<g id="edge25" class="edge"><title>E10&#45;&gt;EOR</title>
<path fill="none" stroke="black" d="M1429.5,-72.8129C1429.5,-64.7895 1429.5,-55.0475 1429.5,-46.0691"/>
<polygon fill="black" stroke="black" points="1433,-46.0288 1429.5,-36.0288 1426,-46.0289 1433,-46.0288"/>
</g>
<!-- D1 -->
<g id="node12" class="node"><title>D1</title>
<polygon fill="white" stroke="black" points="499,-520 328,-520 328,-484 499,-484 499,-520"/>
<text text-anchor="middle" x="413.5" y="-498.3" font-family="Times,serif" font-size="14.00">DOBJ: a 12 cup muffin tin</text>
</g>
<!-- D1&#45;&gt;E1 -->
<g id="edge1" class="edge"><title>D1&#45;&gt;E1</title>
<path fill="none" stroke="black" d="M413.67,-483.867C413.823,-468.414 414.05,-445.416 414.229,-427.409"/>
<polygon fill="black" stroke="black" points="417.73,-427.252 414.33,-417.217 410.731,-427.182 417.73,-427.252"/>
</g>
<!-- D4 -->
<g id="node13" class="node"><title>D4</title>
<polygon fill="peachpuff" stroke="black" points="1518,-596 739,-596 739,-558 1518,-558 1518,-596"/>
<text text-anchor="middle" x="1128.5" y="-580.8" font-family="Times,serif" font-size="14.00">DOBJ: small ripe bananas, vanilla extract, unsweetened applesauce, nonfat plain yogurt, maple syrup, low fat sour cream, egg whites</text>
<text text-anchor="middle" x="1128.5" y="-565.8" font-family="Times,serif" font-size="14.00">(text: yogurt , sour cream , applesauce , maple syrup , egg whites , vanilla , bananas)</text>
</g>
<!-- D4&#45;&gt;E4 -->
<g id="edge2" class="edge"><title>D4&#45;&gt;E4</title>
<path fill="none" stroke="black" d="M1227.87,-557.955C1302.8,-544.349 1403.3,-526.099 1467.49,-514.442"/>
<polygon fill="black" stroke="black" points="1468.26,-517.86 1477.47,-512.629 1467.01,-510.973 1468.26,-517.86"/>
</g>
<!-- P4_0 -->
<g id="node14" class="node"><title>P4_0</title>
<polygon fill="white" stroke="black" points="1688.5,-595 1536.5,-595 1536.5,-559 1688.5,-559 1688.5,-595"/>
<text text-anchor="middle" x="1612.5" y="-573.3" font-family="Times,serif" font-size="14.00">PREP: in another bowl</text>
</g>
<!-- P4_0&#45;&gt;E4 -->
<g id="edge3" class="edge"><title>P4_0&#45;&gt;E4</title>
<path fill="none" stroke="black" d="M1593.07,-558.7C1582.22,-549.04 1568.55,-536.871 1556.75,-526.373"/>
<polygon fill="black" stroke="black" points="1558.75,-523.459 1548.95,-519.424 1554.09,-528.687 1558.75,-523.459"/>
</g>
<!-- O4_0 -->
<g id="node15" class="node"><title>O4_0</title>
<polygon fill="white" stroke="black" points="1826,-595 1707,-595 1707,-559 1826,-559 1826,-595"/>
<text text-anchor="middle" x="1766.5" y="-573.3" font-family="Times,serif" font-size="14.00">OTHER: together</text>
</g>
<!-- O4_0&#45;&gt;E4 -->
<g id="edge4" class="edge"><title>O4_0&#45;&gt;E4</title>
<path fill="none" stroke="black" d="M1711.47,-558.977C1672.46,-546.91 1620.46,-530.828 1582.22,-518.998"/>
<polygon fill="black" stroke="black" points="1582.9,-515.545 1572.31,-515.934 1580.83,-522.233 1582.9,-515.545"/>
</g>
<!-- D0 -->
<g id="node16" class="node"><title>D0</title>
<polygon fill="white" stroke="black" points="2250.5,-417 1932.5,-417 1932.5,-381 2250.5,-381 2250.5,-417"/>
<text text-anchor="middle" x="2091.5" y="-395.3" font-family="Times,serif" font-size="14.00">DOBJ: oven to 400 degrees F &#45;LRB&#45; 200 degrees C</text>
</g>
<!-- D0&#45;&gt;E0 -->
<g id="edge5" class="edge"><title>D0&#45;&gt;E0</title>
<path fill="none" stroke="black" d="M2079.46,-380.867C2068.17,-364.809 2051.15,-340.605 2038.3,-322.32"/>
<polygon fill="black" stroke="black" points="2040.98,-320.048 2032.37,-313.88 2035.25,-324.074 2040.98,-320.048"/>
</g>
<!-- D2 -->
<g id="node17" class="node"><title>D2</title>
<polygon fill="peachpuff" stroke="black" points="419,-596 0,-596 0,-558 419,-558 419,-596"/>
<text text-anchor="middle" x="209.5" y="-580.8" font-family="Times,serif" font-size="14.00">DOBJ: baking powder, whole wheat pastry flour, oat bran, sugar, salt</text>
<text text-anchor="middle" x="209.5" y="-565.8" font-family="Times,serif" font-size="14.00">(text: whole wheat flours , oat bran , sugar , baking powder , salt)</text>
</g>
<!-- D2&#45;&gt;E2 -->
<g id="edge6" class="edge"><title>D2&#45;&gt;E2</title>
<path fill="none" stroke="black" d="M313.14,-557.962C370.533,-547.7 443.092,-534.275 507.5,-521 513.738,-519.714 520.242,-518.32 526.721,-516.896"/>
<polygon fill="black" stroke="black" points="527.839,-520.233 536.841,-514.645 526.319,-513.4 527.839,-520.233"/>
</g>
<!-- P2_0 -->
<g id="node18" class="node"><title>P2_0</title>
<polygon fill="white" stroke="black" points="583.5,-595 437.5,-595 437.5,-559 583.5,-559 583.5,-595"/>
<text text-anchor="middle" x="510.5" y="-573.3" font-family="Times,serif" font-size="14.00">PREP: in a large bowl</text>
</g>
<!-- P2_0&#45;&gt;E2 -->
<g id="edge7" class="edge"><title>P2_0&#45;&gt;E2</title>
<path fill="none" stroke="black" d="M528.511,-558.7C538.401,-549.2 550.817,-537.275 561.619,-526.898"/>
<polygon fill="black" stroke="black" points="564.354,-529.125 569.141,-519.673 559.505,-524.076 564.354,-529.125"/>
</g>
<!-- O2_0 -->
<g id="node19" class="node"><title>O2_0</title>
<polygon fill="white" stroke="black" points="721,-595 602,-595 602,-559 721,-559 721,-595"/>
<text text-anchor="middle" x="661.5" y="-573.3" font-family="Times,serif" font-size="14.00">OTHER: together</text>
</g>
<!-- O2_0&#45;&gt;E2 -->
<g id="edge8" class="edge"><title>O2_0&#45;&gt;E2</title>
<path fill="none" stroke="black" d="M643.726,-558.7C633.966,-549.2 621.714,-537.275 611.053,-526.898"/>
<polygon fill="black" stroke="black" points="613.237,-524.14 603.63,-519.673 608.355,-529.156 613.237,-524.14"/>
</g>
<!-- P3_0_ing -->
<g id="node20" class="node"><title>P3_0_ing</title>
<polygon fill="peachpuff" stroke="black" points="785,-521 674,-521 674,-483 785,-483 785,-521"/>
<text text-anchor="middle" x="729.5" y="-505.8" font-family="Times,serif" font-size="14.00">PREP: in raisins</text>
<text text-anchor="middle" x="729.5" y="-490.8" font-family="Times,serif" font-size="14.00">(text: in raisins)</text>
</g>
<!-- P3_0_ing&#45;&gt;E3 -->
<g id="edge10" class="edge"><title>P3_0_ing&#45;&gt;E3</title>
<path fill="none" stroke="black" d="M715.259,-482.778C703.651,-468.667 686.315,-449.197 668.5,-435 661.705,-429.586 653.975,-424.477 646.355,-419.923"/>
<polygon fill="black" stroke="black" points="647.935,-416.794 637.521,-414.846 644.447,-422.863 647.935,-416.794"/>
</g>
<!-- P5_0_ing -->
<g id="node21" class="node"><title>P5_0_ing</title>
<polygon fill="peachpuff" stroke="black" points="1806.5,-521 1614.5,-521 1614.5,-483 1806.5,-483 1806.5,-521"/>
<text text-anchor="middle" x="1710.5" y="-505.8" font-family="Times,serif" font-size="14.00">PREP: into whole wheat flour</text>
<text text-anchor="middle" x="1710.5" y="-490.8" font-family="Times,serif" font-size="14.00">(text: into flour mixture)</text>
</g>
<!-- P5_0_ing&#45;&gt;E5 -->
<g id="edge12" class="edge"><title>P5_0_ing&#45;&gt;E5</title>
<path fill="none" stroke="black" d="M1704.62,-482.857C1698.81,-467.809 1688.45,-447.003 1672.5,-435 1669,-432.364 1627.92,-422.38 1590.84,-413.746"/>
<polygon fill="black" stroke="black" points="1591.56,-410.32 1581.03,-411.47 1589.98,-417.139 1591.56,-410.32"/>
</g>
<!-- O6_0_0 -->
<g id="node22" class="node"><title>O6_0_0</title>
<polygon fill="white" stroke="black" points="1758.5,-417 1618.5,-417 1618.5,-381 1758.5,-381 1758.5,-417"/>
<text text-anchor="middle" x="1688.5" y="-395.3" font-family="Times,serif" font-size="14.00">OTHER: just enough</text>
</g>
<!-- O6_0_0&#45;&gt;E6 -->
<g id="edge14" class="edge"><title>O6_0_0&#45;&gt;E6</title>
<path fill="none" stroke="black" d="M1688.5,-380.867C1688.5,-365.414 1688.5,-342.416 1688.5,-324.409"/>
<polygon fill="black" stroke="black" points="1692,-324.217 1688.5,-314.217 1685,-324.217 1692,-324.217"/>
</g>
<!-- O6_1_0 -->
<g id="node23" class="node"><title>O6_1_0</title>
<polygon fill="white" stroke="black" points="1914,-417 1777,-417 1777,-381 1914,-381 1914,-417"/>
<text text-anchor="middle" x="1845.5" y="-395.3" font-family="Times,serif" font-size="14.00">OTHER: to combine</text>
</g>
<!-- O6_1_0&#45;&gt;E6 -->
<g id="edge15" class="edge"><title>O6_1_0&#45;&gt;E6</title>
<path fill="none" stroke="black" d="M1818.87,-380.867C1791.99,-363.576 1750.43,-336.84 1721.48,-318.219"/>
<polygon fill="black" stroke="black" points="1723.24,-315.187 1712.94,-312.72 1719.45,-321.074 1723.24,-315.187"/>
</g>
<!-- D8_ing -->
<g id="node24" class="node"><title>D8_ing</title>
<polygon fill="peachpuff" stroke="black" points="1216.5,-315 1044.5,-315 1044.5,-277 1216.5,-277 1216.5,-315"/>
<text text-anchor="middle" x="1130.5" y="-299.8" font-family="Times,serif" font-size="14.00">DOBJ: chopped pecans</text>
<text text-anchor="middle" x="1130.5" y="-284.8" font-family="Times,serif" font-size="14.00">(text: one teaspoon pecans)</text>
</g>
<!-- D8_ing&#45;&gt;E8 -->
<g id="edge18" class="edge"><title>D8_ing&#45;&gt;E8</title>
<path fill="none" stroke="black" d="M1130.5,-276.943C1130.5,-261.531 1130.5,-239.127 1130.5,-221.488"/>
<polygon fill="black" stroke="black" points="1134,-221.226 1130.5,-211.226 1127,-221.226 1134,-221.226"/>
</g>
<!-- O10_0_0 -->
<g id="node25" class="node"><title>O10_0_0</title>
<polygon fill="white" stroke="black" points="1574.5,-211 1284.5,-211 1284.5,-175 1574.5,-175 1574.5,-211"/>
<text text-anchor="middle" x="1429.5" y="-189.3" font-family="Times,serif" font-size="14.00">OTHER: transfer muffins to a wire rack to cool</text>
</g>
<!-- O10_0_0&#45;&gt;E10 -->
<g id="edge24" class="edge"><title>O10_0_0&#45;&gt;E10</title>
<path fill="none" stroke="black" d="M1429.5,-174.581C1429.5,-159.382 1429.5,-137.067 1429.5,-119.464"/>
<polygon fill="black" stroke="black" points="1433,-119.219 1429.5,-109.219 1426,-119.219 1433,-119.219"/>
</g>
</g>
</svg>
